<svg width="21" height="14" viewBox="0 0 21 14" fill="none" xmlns="http://www.w3.org/2000/svg">
<path d="M11.4 13V11.6995C11.4 11.3582 11.3328 11.0201 11.2021 10.7047C11.0715 10.3893 10.88 10.1028 10.6386 9.86139C10.3972 9.62 10.1106 9.42852 9.7952 9.29788C9.47979 9.16724 9.14174 9.10001 8.80035 9.10001H3.59965C2.91018 9.10001 2.24895 9.37388 1.76142 9.86139C1.27389 10.3489 1 11.0101 1 11.6995V13" stroke="#3698FF" stroke-width="2" stroke-linecap="round" stroke-linejoin="round"/>
<path d="M6.19998 6.2C7.63592 6.2 8.79998 5.03594 8.79998 3.6C8.79998 2.16406 7.63592 1 6.19998 1C4.76404 1 3.59998 2.16406 3.59998 3.6C3.59998 5.03594 4.76404 6.2 6.19998 6.2Z" stroke="#3698FF" stroke-width="2" stroke-linecap="square" stroke-linejoin="round"/>
<path d="M13 1.5H19.5" stroke="#3698FF" stroke-width="2" stroke-linecap="round" stroke-linejoin="round"/>
<path d="M14 6.47363H19.5" stroke="#3698FF" stroke-width="2" stroke-linecap="round" stroke-linejoin="round"/>
<path d="M15 12H19.5" stroke="#3698FF" stroke-width="2" stroke-linecap="round" stroke-linejoin="round"/>
</svg>
