<svg xmlns="http://www.w3.org/2000/svg" width="17.864" height="21.825" viewBox="0 0 17.864 21.825">
  <defs>
    <style>
      .cls-1 {
        fill: #77b2ff;
        stroke: #77b2ff;
        stroke-width: 0.2px;
      }
    </style>
  </defs>
  <g id="Layer_2" data-name="Layer 2" transform="translate(0.1 0.1)">
    <g id="Layer_1" data-name="Layer 1" transform="translate(0 0)">
      <path id="Path_17512" data-name="Path 17512" class="cls-1" d="M9.841,1.514A3.647,3.647,0,1,1,6.194,5.161,3.647,3.647,0,0,1,9.841,1.514M9.841,0A5.161,5.161,0,1,0,15,5.161,5.161,5.161,0,0,0,9.841,0Z" transform="translate(-1.009 0)"/>
      <path id="Path_17513" data-name="Path 17513" class="cls-1" d="M11.4,16.582a4.753,4.753,0,0,1,4.753,4.761v.839a1.2,1.2,0,0,1-1.192,1.2H2.706a1.2,1.2,0,0,1-1.192-1.2v-.855a4.753,4.753,0,0,1,4.761-4.745H11.4m0-1.506H6.275a6.275,6.275,0,0,0-4.44,1.82h0A6.275,6.275,0,0,0,0,21.327v.839a2.7,2.7,0,0,0,2.706,2.706H14.958a2.706,2.706,0,0,0,2.706-2.706v-.839A6.275,6.275,0,0,0,15.829,16.9h0A6.275,6.275,0,0,0,11.4,15.06Z" transform="translate(0 -3.247)"/>
    </g>
  </g>
</svg>
