<svg xmlns="http://www.w3.org/2000/svg" width="23.899" height="18" viewBox="0 0 23.899 18">
  <defs>
    <style>
      .cls-1 {
        fill: #cacce1;
      }
    </style>
  </defs>
  <path id="Path_17526" data-name="Path 17526" class="cls-1" d="M24.168,10.92H7.735A3.739,3.739,0,0,0,4,14.655v10.53A3.739,3.739,0,0,0,7.735,28.92H24.164A3.739,3.739,0,0,0,27.9,25.185V14.651A3.734,3.734,0,0,0,24.168,10.92Zm-.751,14.261H19.879a.747.747,0,1,1,0-1.494h3.539a.747.747,0,1,1,0,1.494Zm-17.923-8.5H26.409V19H5.494Z" transform="translate(-4 -10.92)"/>
</svg>
