<svg xmlns="http://www.w3.org/2000/svg" width="26.698" height="26.635" viewBox="0 0 26.698 26.635">
  <defs>
    <style>
      .cls-1 {
        fill: #cacce1;
      }
    </style>
  </defs>
  <path id="Path_17519" data-name="Path 17519" class="cls-1" d="M676.978,345v1.564c-.015.083-.033.166-.046.25-.1.66-.145,1.334-.309,1.978a13.149,13.149,0,0,1-8.967,9.7c-.764.263-1.576.388-2.385.581V348.557h3.194l.482-3.724h-3.682c0-.927-.039-1.823.011-2.714a1.37,1.37,0,0,1,1.523-1.45c.66-.025,1.32-.021,1.98-.03.092,0,.183-.009.291-.015,0-1.071,0-2.113-.008-3.154a.258.258,0,0,0-.179-.175c-1.058-.047-2.118-.129-3.175-.1a4.3,4.3,0,0,0-2.729,1.023,4.462,4.462,0,0,0-1.54,3.329c-.053.988-.029,1.98-.039,2.971,0,.1,0,.2,0,.333H658.2v3.73h3.181v10.328a.4.4,0,0,1-.087.008,12.842,12.842,0,0,1-3.361-1.073,13.249,13.249,0,0,1-5.025-4.122,13.053,13.053,0,0,1-2.423-5.611c-.088-.511-.14-1.029-.208-1.543V345a1.753,1.753,0,0,0,.045-.226,13.172,13.172,0,0,1,.927-3.988,13.379,13.379,0,0,1,11.948-8.343A12.948,12.948,0,0,1,669.89,334a13.152,13.152,0,0,1,6.877,9.455C676.865,343.966,676.909,344.485,676.978,345Z" transform="translate(-650.28 -332.436)"/>
</svg>
