<svg xmlns="http://www.w3.org/2000/svg" width="45.548" height="40.929" viewBox="0 0 45.548 40.929">
  <defs>
    <style>
      .cls-1 {
        fill: #71a1ff;
      }

      .cls-2 {
        fill: #bbd3ff;
      }
    </style>
  </defs>
  <g id="Group_10022" data-name="Group 10022" transform="translate(-3 -7)">
    <path id="Path_17444" data-name="Path 17444" class="cls-1" d="M5.4,12.832v19.81a1.2,1.2,0,0,1-1.2,1.2H3V11.63H4.226A1.2,1.2,0,0,1,5.4,12.832Z" transform="translate(0 12.117)"/>
    <path id="Path_17445" data-name="Path 17445" class="cls-2" d="M45.629,23.344a1.661,1.661,0,0,0-2.068-1.106l-6.587,1.923h-.313a3.832,3.832,0,0,1-2.741,1.154H17.6a1.2,1.2,0,1,1,0-2.4h16.42a1.537,1.537,0,0,0,1.515-1.539,1.587,1.587,0,0,0-1.418-1.707L24.5,19.041a1.049,1.049,0,0,1-.7-.264,30.676,30.676,0,0,0-7.645-4.808,20.045,20.045,0,0,0-9.256.288.911.911,0,0,1-.361,0H5V28.272H6.539a.794.794,0,0,1,.337,0c.168,0,14.713,4.375,17.983,4.808,1.274.264,7.092-1.971,19.882-7.982a1.684,1.684,0,0,0,.986-1.755Z" transform="translate(2.808 14.828)"/>
    <path id="Path_17446" data-name="Path 17446" class="cls-1" d="M20.818,3A10.818,10.818,0,1,0,31.637,13.818,10.819,10.819,0,0,0,20.818,3Zm1.2,16.011v.817a1.2,1.2,0,1,1-2.4,0v-.793h-.745a1.2,1.2,0,0,1,0-2.4H21.78a.817.817,0,0,0,0-1.611H19.857a3.2,3.2,0,0,1-.24-6.395V7.808a1.2,1.2,0,0,1,2.4,0V8.6h.769a1.2,1.2,0,1,1,0,2.4H19.857a.817.817,0,0,0,0,1.611H21.78a3.2,3.2,0,1,1,.24,6.395Z" transform="translate(9.829 4)"/>
  </g>
</svg>
