<svg xmlns="http://www.w3.org/2000/svg" width="21.924" height="21.917" viewBox="0 0 21.924 21.917">
  <defs>
    <style>
      .cls-1 {
        fill: #77b2ff;
        stroke: #77b2ff;
        stroke-width: 0.3px;
      }
    </style>
  </defs>
  <path id="Path_17511" data-name="Path 17511" class="cls-1" d="M32.516,9.718,31.578,8.9a1.629,1.629,0,0,1-.55-1.326l.082-1.244a2.785,2.785,0,0,0-2.964-2.964l-1.238.082a1.629,1.629,0,0,1-1.332-.55l-.822-.938a2.788,2.788,0,0,0-4.194,0l-.822.938a1.638,1.638,0,0,1-1.332.55l-1.244-.082A2.785,2.785,0,0,0,14.2,6.326l.082,1.244a1.629,1.629,0,0,1-.55,1.326l-.938.822a2.788,2.788,0,0,0,0,4.194l.938.822a1.629,1.629,0,0,1,.55,1.326L14.2,17.3a2.785,2.785,0,0,0,2.967,2.97l1.238-.088a1.638,1.638,0,0,1,1.326.55l.822.938a2.788,2.788,0,0,0,4.194,0l.822-.938a1.632,1.632,0,0,1,1.337-.55l1.244.082A2.785,2.785,0,0,0,31.113,17.3l-.082-1.244a1.629,1.629,0,0,1,.55-1.326l.938-.822a2.785,2.785,0,0,0,0-4.194Zm-.932,3.117-.938.822a3.055,3.055,0,0,0-1.029,2.488l.082,1.244a1.371,1.371,0,0,1-1.459,1.468L27,18.774A3.052,3.052,0,0,0,24.508,19.8l-.822.938a1.371,1.371,0,0,1-2.063,0L20.8,19.8a3.057,3.057,0,0,0-2.29-1.037h-.2l-1.238.091A1.371,1.371,0,0,1,15.616,17.4l.082-1.244a3.055,3.055,0,0,0-1.029-2.488l-.938-.822a1.371,1.371,0,0,1,0-2.063l.938-.822A3.055,3.055,0,0,0,15.7,7.471l-.082-1.244a1.371,1.371,0,0,1,1.459-1.454l1.244.082A3.049,3.049,0,0,0,20.8,3.838l.822-.938a1.371,1.371,0,0,1,2.063,0l.822.938A3.052,3.052,0,0,0,27,4.866l1.244-.082A1.371,1.371,0,0,1,29.7,6.244L29.62,7.488a3.055,3.055,0,0,0,1.031,2.488l.938.822a1.371,1.371,0,0,1,0,2.063Z" transform="translate(-11.696 -0.856)"/>
</svg>
