<svg xmlns="http://www.w3.org/2000/svg" width="17.632" height="17.632" viewBox="0 0 17.632 17.632">
  <defs>
    <style>
      .cls-1 {
        fill: #d7e5fe;
      }

      .cls-2 {
        fill: #6e9efe;
      }
    </style>
  </defs>
  <g id="Group_10012" data-name="Group 10012" transform="translate(-626 -100.939)">
    <path id="Path_17486" data-name="Path 17486" class="cls-1" d="M11.149,63.557H8.63a.63.63,0,0,1-.63-.63v-6.3A.63.63,0,0,1,8.63,56h2.519a.63.63,0,0,1,.63.63v6.3A.63.63,0,0,1,11.149,63.557Z" transform="translate(618 55.015)"/>
    <path id="Path_17487" data-name="Path 17487" class="cls-1" d="M43.768,61.184l-4.482,1.992a4.409,4.409,0,0,1-1.79.38H33.889a.632.632,0,0,1-.282-.067L32,62.686V57.259l1.511-1.133A.631.631,0,0,1,33.889,56h2.834a1.574,1.574,0,0,1,.226,3.133.63.63,0,1,0,.178,1.246,2.842,2.842,0,0,0,2.261-1.86h3.738a1.449,1.449,0,0,1,1.426,1.043A1.4,1.4,0,0,1,43.768,61.184Z" transform="translate(599.038 55.015)"/>
    <path id="Path_17488" data-name="Path 17488" class="cls-2" d="M44.28,8H32.315A.315.315,0,0,0,32,8.315V16.5a.315.315,0,0,0,.315.315H44.28a.315.315,0,0,0,.315-.315V8.315A.315.315,0,0,0,44.28,8Zm-2.745,7.557H35.06a2.51,2.51,0,0,0-1.8-1.8v-2.7a2.511,2.511,0,0,0,1.8-1.8h6.475a2.511,2.511,0,0,0,1.8,1.8v2.7A2.51,2.51,0,0,0,41.535,15.557Z" transform="translate(599.038 92.939)"/>
    <path id="Path_17489" data-name="Path 17489" class="cls-2" d="M56.778,21.889A1.889,1.889,0,1,1,54.889,20,1.889,1.889,0,0,1,56.778,21.889Z" transform="translate(582.446 83.458)"/>
  </g>
</svg>
