<svg xmlns="http://www.w3.org/2000/svg" width="26.626" height="26.626" viewBox="0 0 26.626 26.626">
  <defs>
    <style>
      .cls-1 {
        fill: #cacce1;
      }
    </style>
  </defs>
  <path id="Path_17522" data-name="Path 17522" class="cls-1" d="M55.481,165.89h1.664a1.476,1.476,0,0,0,.2.042,12.677,12.677,0,0,1,5.782,1.839,13.141,13.141,0,0,1,6.295,9.138c.09.483.137.975.2,1.462v1.664c-.021.171-.045.341-.064.512A13.346,13.346,0,0,1,58.632,192.31c-.492.089-.991.138-1.487.206H55.481c-.325-.04-.651-.075-.975-.121a13.343,13.343,0,0,1-11.3-10.872c-.089-.492-.139-.992-.207-1.488v-1.664c.021-.171.044-.341.063-.512a13.34,13.34,0,0,1,10.982-11.768C54.521,166.008,55,165.956,55.481,165.89Zm2,20.116c0-.838,0-1.651,0-2.465,0-1.1,0-2.2.024-3.3a1.671,1.671,0,0,1,.815-1.377,1.56,1.56,0,0,1,2.429.875,4.348,4.348,0,0,1,.139,1.128c.015,1.62.006,3.24.006,4.861V186h3.23c0-.085.01-.154.01-.222,0-1.776,0-3.552,0-5.329a9.318,9.318,0,0,0-.069-1.062,3.48,3.48,0,0,0-3.21-3.326,3.226,3.226,0,0,0-3.237,1.388,1.8,1.8,0,0,1-.135.145c0-.4-.01-.746,0-1.089.008-.192-.051-.254-.248-.252-.927.01-1.854,0-2.781.005a1.935,1.935,0,0,0-.2.02v9.729Zm-5.044,0c.006-.066.012-.108.012-.15q0-4.693,0-9.385c0-.2-.091-.22-.252-.219-.919,0-1.837,0-2.756,0-.075,0-.15.011-.226.017v9.734Zm-3.419-12.762a1.683,1.683,0,0,0,1.812,1.686,1.691,1.691,0,1,0,.025-3.373A1.688,1.688,0,0,0,49.016,173.246Z" transform="translate(-43 -165.89)"/>
</svg>
