<svg xmlns="http://www.w3.org/2000/svg" width="26.626" height="26.626" viewBox="0 0 26.626 26.626">
  <defs>
    <style>
      .cls-1 {
        fill: #cacce1;
      }
    </style>
  </defs>
  <g id="Group_10099" data-name="Group 10099" transform="translate(215.663 -335.227)">
    <path id="Path_17523" data-name="Path 17523" class="cls-1" d="M-215.663,349.318v-1.56a1.755,1.755,0,0,0,.044-.224,12.521,12.521,0,0,1,1.519-5.243,13.134,13.134,0,0,1,9.429-6.854c.508-.1,1.026-.141,1.539-.21h1.56a1.393,1.393,0,0,0,.2.043,12.325,12.325,0,0,1,5.246,1.514,13.068,13.068,0,0,1,7.063,11.2,12.191,12.191,0,0,1-1.546,6.8,13.051,13.051,0,0,1-11.185,7.044,12.342,12.342,0,0,1-6.8-1.542,13.114,13.114,0,0,1-6.858-9.431C-215.551,350.348-215.594,349.831-215.663,349.318Zm6.509,5.123h13.4V344.5c-.1.075-.176.128-.248.185-1.885,1.5-3.776,2.989-5.65,4.5a1.085,1.085,0,0,1-1.5.007q-2.858-2.187-5.731-4.353c-.08-.061-.163-.116-.271-.192Zm.61-11.812,6.189,4.738,5.991-4.738Z" transform="translate(0 0)"/>
  </g>
</svg>
