<svg xmlns="http://www.w3.org/2000/svg" width="18.672" height="19.64" viewBox="0 0 18.672 19.64">
  <defs>
    <style>
      .cls-1 {
        fill: #77b2ff;
      }
    </style>
  </defs>
  <g id="Group_9393" data-name="Group 9393" transform="translate(-16506 1363)">
    <g id="Group_9352" data-name="Group 9352" transform="translate(16506 -1363)">
      <path id="Path_17134" data-name="Path 17134" class="cls-1" d="M18.617,14.923,16.3,5.474a1.922,1.922,0,0,0-1.708-1.459l-.014-.269a1.928,1.928,0,0,0-2.03-1.836L10.1,2.033l-.014-.22a1.935,1.935,0,1,0-3.862.243.668.668,0,0,0,.037.17l-4.42.221A1.938,1.938,0,0,0,0,4.477L.54,15.185a1.937,1.937,0,0,0,1.933,1.838l.1,0L5.1,16.893l.313,1.272A1.933,1.933,0,0,0,7.75,19.583l9.448-2.32A1.937,1.937,0,0,0,18.617,14.923ZM7.509,1.975a.644.644,0,0,1,.6-.683.641.641,0,0,1,.685.6l.013.2-1.32.067A.591.591,0,0,0,7.509,1.975ZM2.5,15.7H2.472a.613.613,0,0,1-.644-.585l-.537-10.7A.645.645,0,0,1,1.9,3.734l6.989-.349.15,2.371a.645.645,0,1,1-1.288.082.645.645,0,0,0-1.288.08A1.936,1.936,0,0,0,8.393,7.731q.062,0,.124,0a1.933,1.933,0,0,0,1.81-2.052L10.178,3.32,12.642,3.2a.643.643,0,0,1,.642.613l.537,10.707a.631.631,0,0,1-.612.659Zm14.386.314L7.442,18.33a.649.649,0,0,1-.779-.473L6.41,16.826l6.867-.343a1.938,1.938,0,0,0,1.836-2.03l-.458-9.115a.645.645,0,0,1,.39.442l2.32,9.448A.647.647,0,0,1,16.891,16.01Z" transform="translate(0 0)"/>
    </g>
  </g>
</svg>
