<svg xmlns="http://www.w3.org/2000/svg" width="18.405" height="18.662" viewBox="0 0 18.405 18.662">
  <defs>
    <style>
      .cls-1 {
        fill: #77b2ff;
      }
    </style>
  </defs>
  <g id="Group_9395" data-name="Group 9395" transform="translate(-16493 1217)">
    <g id="Group_9354" data-name="Group 9354" transform="translate(16493 -1217)">
      <path id="Path_17142" data-name="Path 17142" class="cls-1" d="M8.666,4A.666.666,0,0,0,8,4.666V22a.666.666,0,0,0,.666.666H25.738A.666.666,0,0,0,26.4,22V4.666A.666.666,0,0,0,25.738,4ZM25.072,21.329H9.333v-16H25.072Z" transform="translate(-8 -4)"/>
      <path id="Path_17143" data-name="Path 17143" class="cls-1" d="M21.776,19.987H27.7a.666.666,0,0,0,.666-.666,3.872,3.872,0,0,0-1.943-3.392,2.333,2.333,0,1,0-3.372,0A3.872,3.872,0,0,0,21.11,19.32a.666.666,0,0,0,.667.666Zm2.963-6.665a1,1,0,1,1-1,1A1,1,0,0,1,24.739,13.322Zm0,3.5a2.333,2.333,0,0,1,2.213,1.836H22.526A2.333,2.333,0,0,1,24.739,16.817Z" transform="translate(-15.536 -9.323)"/>
      <path id="Path_17144" data-name="Path 17144" class="cls-1" d="M17.666,41.333h8.664a.666.666,0,0,0,0-1.333H17.666a.666.666,0,1,0,0,1.333Z" transform="translate(-12.796 -27.068)"/>
    </g>
  </g>
</svg>
