<svg xmlns="http://www.w3.org/2000/svg" width="26.635" height="26.635" viewBox="0 0 26.635 26.635">
  <defs>
    <style>
      .cls-1 {
        fill: #cacce1;
      }
    </style>
  </defs>
  <g id="Group_10097" data-name="Group 10097" transform="translate(-693 -165.89)">
    <path id="Path_17520" data-name="Path 17520" class="cls-1" d="M705.485,165.89h1.665a1.473,1.473,0,0,0,.2.042,12.682,12.682,0,0,1,5.784,1.839,13.146,13.146,0,0,1,6.3,9.141c.09.483.137.975.2,1.463v1.665c-.021.171-.045.341-.064.512a13.351,13.351,0,0,1-10.934,11.767c-.492.09-.991.139-1.487.206h-1.665c-.325-.04-.651-.075-.975-.121a13.347,13.347,0,0,1-11.3-10.876c-.089-.492-.139-.992-.207-1.488v-1.665c.038-.317.071-.635.116-.951a13.343,13.343,0,0,1,10.933-11.334C704.525,166.008,705.006,165.956,705.485,165.89ZM700.7,180.6a2.958,2.958,0,0,0,.7,1.186,3.147,3.147,0,0,0,2.141.951,6.357,6.357,0,0,1-4.414,1.293,1.262,1.262,0,0,0,.234.168,8.528,8.528,0,0,0,4.261,1.163,8.252,8.252,0,0,0,6.464-2.752,8.749,8.749,0,0,0,2.311-6.045.582.582,0,0,1,.227-.474c.4-.373.761-.778,1.136-1.173a.772.772,0,0,0,.091-.152l-1.551.423-.038-.069a3.062,3.062,0,0,0,1.208-1.535c-.569.2-1.131.393-1.69.6a.317.317,0,0,1-.366-.1,3.041,3.041,0,0,0-5.03,1.5,9.174,9.174,0,0,0-.114,1.429,8.711,8.711,0,0,1-6.211-3.177,2.955,2.955,0,0,0-.4,1.8,3.083,3.083,0,0,0,1.276,2.231l-.042.07-1.249-.35c-.159,1.174.815,2.43,2.312,3.016Z" transform="translate(0 0)"/>
  </g>
</svg>
