<svg xmlns="http://www.w3.org/2000/svg" width="26.635" height="26.626" viewBox="0 0 26.635 26.626">
  <defs>
    <style>
      .cls-1 {
        fill: #cacce1;
      }
    </style>
  </defs>
  <g id="Group_10098" data-name="Group 10098" transform="translate(-93.8 -216.69)">
    <path id="Path_17521" data-name="Path 17521" class="cls-1" d="M93.8,230.637v-1.405a1.806,1.806,0,0,0,.044-.224,12.693,12.693,0,0,1,1.817-5.765,13.144,13.144,0,0,1,9.167-6.345c.5-.094,1.009-.14,1.514-.208H107.9c.446.056.894.1,1.337.17a13.355,13.355,0,0,1,11.13,14.492,12.541,12.541,0,0,1-3.22,7.4A13.04,13.04,0,0,1,105.3,243.2a12.457,12.457,0,0,1-5.273-1.931.51.51,0,0,0-.481-.061c-1.531.5-3.065.986-4.6,1.476-.077.025-.157.041-.258.068.034-.106.057-.18.082-.253.487-1.452.97-2.906,1.467-4.354a.585.585,0,0,0-.075-.594,12.84,12.84,0,0,1-2.152-5.242C93.914,231.755,93.868,231.194,93.8,230.637Zm17.629,6.882a8.7,8.7,0,0,0,1.16-.231c1.877-.655,2.511-1.557,2.561-3.308a.541.541,0,0,0-.337-.557c-.992-.473-1.979-.959-2.975-1.423a.8.8,0,0,0-1.146.311c-.259.347-.511.7-.778,1.041a.912.912,0,0,1-1.309.337,10.569,10.569,0,0,1-5.1-4.519.581.581,0,0,1,.051-.742c.208-.244.413-.493.64-.719a1.217,1.217,0,0,0,.28-1.67.161.161,0,0,1-.009-.024c-.4-.932-.784-1.867-1.195-2.792a.642.642,0,0,0-.351-.347,2.316,2.316,0,0,0-2.036.29,3.672,3.672,0,0,0-1.2,1.667,4.984,4.984,0,0,0,.207,3.84,12.839,12.839,0,0,0,1.568,2.535,18.408,18.408,0,0,0,3.471,3.6,14.156,14.156,0,0,0,4.782,2.328C110.287,237.31,110.888,237.4,111.429,237.519Z"/>
  </g>
</svg>
