<svg xmlns="http://www.w3.org/2000/svg" width="66.015" height="24.154" viewBox="0 0 66.015 24.154">
    <g data-name="Group 10959">
        <path data-name="Path 17390" d="M33.867 15.462c-2.813 0-4.761.963-4.761 4.387v5.226c0 2.974 2.152 3.973 4.761 3.973 2.77 0 4.57-1.019 4.762-3.973V19.85c0-3.011-1.563-4.387-4.762-4.387zm.885 10.12c-.052.6-.219 1.1-.9 1.1s-.855-.5-.908-1.1V19.29c0-.687.06-1.481.908-1.481s.9.794.9 1.481zm4.39-9.98v2.418h1.351v8.38c0 2.1 1.153 2.5 3.185 2.5.828 0 1.371 0 2.388-.068v-2.321h-.948c-.493 0-.823-.29-.823-.95v-7.54h1.771V15.6zm30.351-.163a2.648 2.648 0 0 0-2.727 1.879h-.046a2.445 2.445 0 0 0-2.565-1.879 2.927 2.927 0 0 0-2.827 1.941h-.047v-1.763h-3.612v13.271h3.6V19.5c.044-.666.233-1.084.951-1.084.671 0 .87.5.87 1.084v9.39h3.593V19.5c0-.643.284-1.084.912-1.084.678 0 .869.518.869 1.084v9.39h3.646v-10.9a2.387 2.387 0 0 0-2.616-2.549m-18.073 0c-2.727.009-4.748.931-4.748 4.223v5.53c0 2.927 2.291 3.828 4.748 3.828 3.12 0 4.746-1.067 4.746-3.437v-1.933h-3.828V25.1c0 .775-.1 1.536-.9 1.536-.755 0-.891-.815-.891-1.528v-2.463h5.628v-3.5c0-2.763-2.152-3.714-4.754-3.7zm.922 5.01h-1.8v-.894c0-.894-.1-1.717.9-1.717.914 0 .9.879.9 1.335zm-24.409-3.357c0-3.085-2.015-3.727-4.656-3.727h-5.1v15.521h3.853v-7.1h.749c.9.063 1.256.648 1.31 1.664.013.168.015.365.02.57v4.862h3.818v-4.857c0-.539-.015-1.016-.044-1.343-.066-1.08-.823-2.07-2.93-2.141V20.5a3.164 3.164 0 0 0 2.989-3.408zM22.6 19.571h-.573v-3.995s.328.005.49.005c1.23 0 1.606.627 1.606 2.066 0 1.063-.412 1.923-1.523 1.923M8.736 7.251V4.895h1.231v5.885H8.736V8.156h-1.41v2.624H6.095V4.9h1.231v2.351zm3.382 1.489-1.541-3.845h1.345l.88 2.487.937-2.487h1.255L13.349 8.74v2.04h-1.231zm7.425-3.845v4.173a1.75 1.75 0 0 1-2 1.809c-1.354 0-2-.7-2-1.809V4.895h1.23v4.092c0 .723.311 1.009.758 1.009.538 0 .782-.359.782-1.009V4.895zm1.011 5.885V4.9h1.662l1.565 4.07h.019V4.9h1.149v5.88h-1.625l-1.6-4.3H21.7v4.3zm6.682-4.98h.635c.857 0 .857.954.857 2.037 0 1.475-.147 2.038-.9 2.038h-.595zm-1.23 4.98h2c2.1 0 1.964-2.071 1.964-2.975 0-1.836-.3-2.911-1.915-2.911h-2.049zm7.132-2.209h-1.174l.563-2.544h.016zm-1.752 2.209.335-1.3H33.4l.326 1.3h1.294L33.424 4.9H31.8l-1.63 5.885zM35.6 4.895h1.23v5.885H35.6z" transform="translate(-6.095 -4.895)" style="fill:#1d4e87"/>
    </g>
    <path data-name="Path 17391" d="m540.965 43.913-7.639 3.787v3.74l7.639-3.781z" transform="translate(-498.927 -41.367)" style="fill:#ee3338"/>
</svg>
