<svg id="Layer_1" enable-background="new 0 0 512 512" height="512" viewBox="0 0 512 512" width="512" xmlns="http://www.w3.org/2000/svg"><g id="XMLID_1118_"><g id="XMLID_73_"><path id="XMLID_1636_" d="m134.563 354.139c-4.577-3.091-10.792-1.889-13.884 2.688s-1.888 10.793 2.688 13.885c18.309 12.37 29.239 32.926 29.239 54.986 0 13.512-4.072 26.086-11.04 36.579-6.709-10.798-16.466-19.397-27.886-24.75 4.159-5.64 6.623-12.603 6.623-20.133 0-18.748-15.252-34-34-34s-34 15.252-34 34c0 7.528 2.463 14.49 6.621 20.129-11.422 5.351-21.178 13.95-27.885 24.751-6.968-10.492-11.039-23.066-11.039-36.577 0-21.893 10.801-42.36 28.892-54.749 4.557-3.121 5.721-9.345 2.6-13.901s-9.345-5.721-13.901-2.601c-23.538 16.12-37.591 42.756-37.591 71.251 0 47.588 38.715 86.303 86.303 86.303 47.587 0 86.303-38.715 86.303-86.303 0-28.714-14.222-55.465-38.043-71.558zm-62.26 63.255c0-7.72 6.28-14 14-14s14 6.28 14 14-6.28 14-14 14-14-6.281-14-14zm-26.943 60.396c7.196-15.803 23.234-26.396 40.943-26.396 17.698 0 33.746 10.597 40.943 26.396-11.283 8.887-25.499 14.21-40.943 14.21s-29.66-5.323-40.943-14.21z"/><path id="XMLID_1642_" d="m425.697 339.394c-47.587 0-86.303 38.716-86.303 86.304s38.715 86.302 86.303 86.302 86.303-38.715 86.303-86.303-38.715-86.303-86.303-86.303zm-40.943 138.396c7.196-15.803 23.233-26.397 40.943-26.397 17.698 0 33.746 10.597 40.943 26.396-11.283 8.887-25.499 14.21-40.943 14.21-15.444.001-29.66-5.322-40.943-14.209zm40.943-46.396c-7.72 0-14-6.28-14-14s6.28-14 14-14 14 6.28 14 14-6.28 14-14 14zm55.263 30.882c-6.709-10.798-16.466-19.397-27.886-24.75 4.159-5.64 6.623-12.603 6.623-20.133 0-18.748-15.252-34-34-34s-34 15.252-34 34c0 7.528 2.463 14.49 6.62 20.129-11.422 5.351-21.177 13.95-27.885 24.751-6.967-10.492-11.038-23.066-11.038-36.577 0-36.56 29.743-66.304 66.303-66.304s66.303 29.746 66.303 66.305c0 13.512-4.072 26.086-11.04 36.579z"/><path id="XMLID_1647_" d="m86.303 172.606c47.587 0 86.303-38.716 86.303-86.304s-38.715-86.302-86.303-86.302-86.303 38.715-86.303 86.303 38.715 86.303 86.303 86.303zm-40.943-34.21c7.196-15.803 23.233-26.396 40.943-26.396 17.697 0 33.745 10.597 40.943 26.396-11.283 8.887-25.499 14.21-40.943 14.21s-29.66-5.322-40.943-14.21zm26.943-60.396c0-7.72 6.28-14 14-14s14 6.28 14 14-6.28 14-14 14-14-6.28-14-14zm14-58c36.56 0 66.303 29.743 66.303 66.303 0 13.512-4.072 26.087-11.04 36.579-6.708-10.798-16.466-19.397-27.886-24.75 4.159-5.64 6.623-12.603 6.623-20.133 0-18.748-15.252-34-34-34s-34 15.252-34 34c0 7.528 2.463 14.49 6.62 20.129-11.422 5.351-21.177 13.949-27.885 24.75-6.967-10.49-11.038-23.064-11.038-36.575 0-36.56 29.744-66.303 66.303-66.303z"/><path id="XMLID_1652_" d="m425.697 172.606c47.588 0 86.303-38.716 86.303-86.304s-38.715-86.302-86.303-86.302c-47.587 0-86.303 38.715-86.303 86.303s38.715 86.303 86.303 86.303zm-40.943-34.21c7.195-15.803 23.233-26.396 40.943-26.396 17.698 0 33.746 10.597 40.943 26.396-11.283 8.887-25.499 14.21-40.943 14.21s-29.66-5.322-40.943-14.21zm40.943-46.396c-7.72 0-14-6.28-14-14s6.28-14 14-14 14 6.28 14 14-6.28 14-14 14zm0-72c36.559 0 66.303 29.743 66.303 66.303 0 13.512-4.072 26.087-11.04 36.579-6.708-10.798-16.466-19.397-27.886-24.749 4.159-5.64 6.623-12.603 6.623-20.133 0-18.748-15.252-34-34-34s-34 15.252-34 34c0 7.528 2.463 14.49 6.62 20.129-11.422 5.351-21.177 13.95-27.885 24.751-6.967-10.492-11.039-23.066-11.039-36.577.001-36.56 29.744-66.303 66.304-66.303z"/><path id="XMLID_1659_" d="m266 256c0-5.522-4.477-10-10-10h-98.083c-5.523 0-10 4.478-10 10s4.477 10 10 10h98.083c5.523 0 10-4.478 10-10z"/><path id="XMLID_1664_" d="m301.7 266c2.63 0 5.21-1.07 7.07-2.931 1.86-1.859 2.93-4.439 2.93-7.069s-1.07-5.21-2.93-7.07-4.44-2.93-7.07-2.93c-2.64 0-5.21 1.069-7.07 2.93s-2.93 4.44-2.93 7.07 1.07 5.21 2.93 7.069c1.86 1.861 4.44 2.931 7.07 2.931z"/><path id="XMLID_1665_" d="m354.08 266c2.64 0 5.21-1.07 7.08-2.931 1.86-1.859 2.92-4.439 2.92-7.069s-1.06-5.21-2.92-7.07c-1.87-1.86-4.44-2.93-7.08-2.93-2.63 0-5.21 1.069-7.07 2.93s-2.93 4.44-2.93 7.07 1.07 5.21 2.93 7.069c1.86 1.861 4.44 2.931 7.07 2.931z"/><path id="XMLID_1668_" d="m308.333 415.697h-14.333v-105.697h86c16.542 0 30-13.458 30-30v-48c0-16.542-13.458-30-30-30h-86v-105.697h14.333c5.523 0 10-4.478 10-10s-4.477-10-10-10h-24.333c-5.523 0-10 4.478-10 10v115.697h-36v-115.697c0-5.522-4.477-10-10-10h-24.333c-5.523 0-10 4.478-10 10s4.477 10 10 10h14.333v105.697h-86c-16.542 0-30 13.458-30 30v48c0 16.542 13.458 30 30 30h86v105.697h-14.333c-5.523 0-10 4.478-10 10s4.477 10 10 10h24.333c5.523 0 10-4.478 10-10v-115.697h36v115.697c0 5.522 4.477 10 10 10h24.333c5.523 0 10-4.478 10-10s-4.477-10-10-10zm-186.333-135.697v-48c0-5.514 4.486-10 10-10h248c5.514 0 10 4.486 10 10v48c0 5.514-4.486 10-10 10h-248c-5.514 0-10-4.486-10-10z"/><path id="XMLID_1669_" d="m79.22 342.31c-1.86 1.87-2.93 4.44-2.93 7.07 0 2.64 1.07 5.21 2.93 7.07 1.87 1.869 4.44 2.939 7.07 2.939 2.64 0 5.21-1.07 7.08-2.939 1.86-1.86 2.93-4.431 2.93-7.07 0-2.63-1.07-5.2-2.93-7.07-1.87-1.859-4.44-2.92-7.08-2.92-2.63 0-5.2 1.06-7.07 2.92z"/></g></g></svg>