<svg xmlns="http://www.w3.org/2000/svg" width="24" height="21.397" viewBox="0 0 24 21.397">
    <defs>
        <style>
            .cls-1{fill:#b9dcff}
        </style>
    </defs>
    <g id="Group_5537" transform="translate(-924 -471)">
        <path id="Path_12844" d="M12 3.457a.75.75 0 0 1-.75-.75V.75a.75.75 0 0 1 1.5 0v1.957a.75.75 0 0 1-.75.75z" class="cls-1" transform="translate(924 471)"/>
        <path id="Path_12845" d="M18.571 6.179a.751.751 0 0 1-.53-1.281l1.384-1.384a.75.75 0 0 1 1.061 1.061L19.1 5.959a.752.752 0 0 1-.529.22z" class="cls-1" transform="translate(924 471)"/>
        <path id="Path_12846" d="M23.25 12.75h-1.957a.75.75 0 1 1 0-1.5h1.957a.75.75 0 0 1 0 1.5z" class="cls-1" transform="translate(924 471)"/>
        <path id="Path_12847" d="M19.955 20.7a.744.744 0 0 1-.53-.22l-1.384-1.38a.75.75 0 0 1 1.059-1.06l1.384 1.384a.75.75 0 0 1-.531 1.281z" class="cls-1" transform="translate(924 471)"/>
        <path id="Path_12848" d="M4.045 20.7a.751.751 0 0 1-.53-1.281L4.9 18.04a.75.75 0 0 1 1.06 1.06l-1.384 1.385a.748.748 0 0 1-.531.215z" class="cls-1" transform="translate(924 471)"/>
        <path id="Path_12849" d="M2.707 12.75H.75a.75.75 0 0 1 0-1.5h1.957a.75.75 0 0 1 0 1.5z" class="cls-1" transform="translate(924 471)"/>
        <path id="Path_12850" d="M5.429 6.179a.744.744 0 0 1-.53-.22L3.515 4.575a.75.75 0 0 1 1.061-1.061L5.96 4.9a.75.75 0 0 1-.531 1.281z" class="cls-1" transform="translate(924 471)"/>
        <path id="Path_12851" d="M13.988 21v1.039a1.462 1.462 0 0 1-1.455 1.455h-2.078A1.515 1.515 0 0 1 9 21.8V21z" class="cls-1" transform="translate(924.506 468.904)"/>
        <path id="Path_12852" fill="#4f8aff" d="M14.485 6.3a5.82 5.82 0 1 0-7.166 9.169 2.51 2.51 0 0 1 .948 1.588v.008a.141.141 0 0 1 .058-.008h4.988a.075.075 0 0 1 .042.008v-.008a2.773 2.773 0 0 1 1.064-1.663 5.822 5.822 0 0 0 .066-9.094zm-.549 4.938a.628.628 0 0 1-.623-.623 2.285 2.285 0 0 0-2.286-2.286.623.623 0 1 1 0-1.247 3.541 3.541 0 0 1 3.533 3.533.628.628 0 0 1-.624.62z" transform="translate(925.181 471.603)"/>
        <path id="Path_12853" d="M8.93 19.5H9a.17.17 0 0 0-.07.01z" transform="translate(924 470)"/>
        <path id="Path_12854" d="M15.05 19.5v.01a.09.09 0 0 0-.05-.01z" transform="translate(924 470)"/>
    </g>
</svg>
