<svg width="19" height="19" viewBox="0 0 19 19" fill="none" xmlns="http://www.w3.org/2000/svg">
<path d="M4.29751 3.4499C4.06337 3.21577 3.68374 3.21576 3.44963 3.4499L5.71043 5.71069C5.94456 5.47655 5.94456 5.09696 5.71042 4.86282L4.29751 3.4499ZM3.44962 3.44991C3.21549 3.68405 3.21549 4.06364 3.44963 4.29778L4.86254 5.71069C5.09665 5.94484 5.47631 5.94484 5.71042 5.7107L3.44962 3.44991Z" fill="#FFC759" stroke="#FFC759" stroke-width="0.2"/>
<path d="M3.53103 8.92605H1.49955C1.16843 8.92605 0.9 9.19448 0.9 9.52559C0.9 9.8567 1.16843 10.1251 1.49955 10.1251H3.53103C3.86214 10.1251 4.13058 9.8567 4.13058 9.52559C4.13058 9.19448 3.86214 8.92605 3.53103 8.92605Z" fill="#FFC759" stroke="#FFC759" stroke-width="0.2"/>
<path d="M17.552 8.92605H15.5205C15.1894 8.92605 14.921 9.19448 14.921 9.52559C14.921 9.8567 15.1894 10.1251 15.5205 10.1251H17.552C17.8831 10.1251 18.1516 9.8567 18.1516 9.52559C18.1516 9.19448 17.8831 8.92605 17.552 8.92605Z" fill="#FFC759" stroke="#FFC759" stroke-width="0.2"/>
<path d="M15.6015 3.44993C15.3674 3.21577 14.9878 3.21578 14.7537 3.44992L13.3407 4.86283C13.1066 5.09697 13.1066 5.47656 13.3407 5.71071M15.6015 3.44993L15.5308 3.52063M15.6015 3.44993C15.6015 3.44992 15.6015 3.44992 15.6015 3.44992L15.5308 3.52063M15.6015 3.44993C15.8357 3.68407 15.8357 4.06366 15.6015 4.2978L14.1886 5.71071C13.9545 5.94486 13.5748 5.94486 13.3407 5.71071M15.5308 3.52063C15.3358 3.32554 15.0195 3.32554 14.8244 3.52063L13.4115 4.93354C13.2164 5.12863 13.2164 5.44491 13.4115 5.64M15.5308 3.52063L14.1179 5.64C13.9229 5.83509 13.6065 5.83509 13.4115 5.64M13.3407 5.71071L13.4115 5.64M13.3407 5.71071C13.3407 5.71071 13.3407 5.71071 13.3407 5.71071L13.4115 5.64" fill="#FFC759" stroke="#FFC759" stroke-width="0.2"/>
<path d="M9.52591 0.9C9.1948 0.9 8.92637 1.16843 8.92637 1.49955V3.53103C8.92637 3.86214 9.1948 4.13058 9.52591 4.13058C9.85702 4.13058 10.1255 3.86214 10.1255 3.53103V1.49955C10.1255 1.16843 9.85702 0.9 9.52591 0.9Z" fill="#FFC759" stroke="#FFC759" stroke-width="0.2"/>
<path d="M5.07401 8.36236L5.17104 8.38635L5.07401 8.36236C4.67135 9.99102 5.13221 11.6535 6.30857 12.8071C6.67297 13.1644 6.92863 13.8664 6.92863 14.5544V15.5534C6.92863 16.435 7.64569 17.1521 8.52727 17.1521H8.92681V17.5516C8.92681 17.8827 9.19525 18.1512 9.52636 18.1512C9.85747 18.1512 10.1259 17.8827 10.1259 17.5516V17.1521H10.5255C11.407 17.1521 12.1241 16.435 12.1241 15.5534V14.5544C12.1241 13.8771 12.3925 13.1599 12.7797 12.7718C13.6454 11.9043 14.1223 10.7511 14.1223 9.52559C14.1223 6.59444 11.4055 4.36325 8.42819 5.05765C6.79239 5.43919 5.47617 6.73582 5.07401 8.36236ZM11.9309 11.9248C11.4319 12.425 11.0882 13.1689 10.9702 13.9548H8.08286C7.98283 13.2711 7.7048 12.4969 7.14814 11.951C6.27869 11.0983 5.93759 9.8653 6.23805 8.65015L6.14097 8.62614L6.23805 8.65015C6.53284 7.45785 7.49975 6.50547 8.70055 6.2254L8.70055 6.2254C10.9212 5.70739 12.9232 7.36285 12.9232 9.52559C12.9232 10.4317 12.5709 11.2835 11.9309 11.9248ZM10.925 15.5534C10.925 15.7737 10.7457 15.953 10.5255 15.953H8.52727C8.30705 15.953 8.12772 15.7737 8.12772 15.5534V15.1539H10.925V15.5534Z" fill="#FFC759" stroke="#FFC759" stroke-width="0.2"/>
</svg>
