<svg width="12" height="11" viewBox="0 0 12 11" fill="none" xmlns="http://www.w3.org/2000/svg">
<path d="M7.56611 7.04178C7.49353 7.04199 7.42288 7.01844 7.36494 6.97472L5.79847 5.79825C5.7569 5.76695 5.72315 5.72644 5.69987 5.6799C5.6766 5.63336 5.66445 5.58205 5.66436 5.53001V3.18002C5.66246 3.13476 5.66974 3.0896 5.68575 3.04723C5.70176 3.00486 5.72617 2.96617 5.75752 2.93348C5.78887 2.90079 5.8265 2.87478 5.86816 2.85701C5.90982 2.83924 5.95465 2.83008 5.99994 2.83008C6.04523 2.83008 6.09005 2.83924 6.13172 2.85701C6.17338 2.87478 6.21101 2.90079 6.24236 2.93348C6.27371 2.96617 6.29813 3.00486 6.31414 3.04723C6.33015 3.0896 6.33742 3.13476 6.33553 3.18002V5.36178L7.76788 6.4359C7.8241 6.47826 7.86558 6.53723 7.88648 6.60445C7.90737 6.67167 7.90661 6.74376 7.88431 6.81053C7.86201 6.8773 7.81929 6.93538 7.7622 6.97656C7.7051 7.01774 7.63651 7.03994 7.56611 7.04002V7.04178Z" fill="#529DFF" stroke="#529DFF" stroke-width="0.4"/>
<path d="M6 10.5C5.01109 10.5 4.0444 10.2068 3.22215 9.65735C2.3999 9.10794 1.75904 8.32705 1.3806 7.41342C1.00217 6.49979 0.90315 5.49445 1.09608 4.52455C1.289 3.55465 1.76521 2.66373 2.46447 1.96447C3.16373 1.26521 4.05464 0.789002 5.02455 0.596076C5.99445 0.40315 6.99979 0.502166 7.91342 0.880604C8.82705 1.25904 9.60794 1.8999 10.1573 2.72215C10.7068 3.5444 11 4.51109 11 5.5C10.9984 6.82561 10.4712 8.09647 9.53382 9.03381C8.59647 9.97116 7.32561 10.4984 6 10.5ZM6 1.17118C5.14384 1.17118 4.30691 1.42506 3.59504 1.90072C2.88317 2.37637 2.32833 3.05244 2.00069 3.84343C1.67305 4.63442 1.58733 5.5048 1.75436 6.34451C1.92138 7.18422 2.33366 7.95554 2.93906 8.56094C3.54446 9.16634 4.31578 9.57862 5.15549 9.74565C5.9952 9.91267 6.86558 9.82695 7.65657 9.49931C8.44756 9.17167 9.12363 8.61684 9.59929 7.90497C10.0749 7.19309 10.3288 6.35616 10.3288 5.5C10.3276 4.35231 9.87111 3.25198 9.05957 2.44044C8.24802 1.6289 7.14769 1.17242 6 1.17118Z" fill="#529DFF" stroke="#529DFF" stroke-width="0.4"/>
</svg>
