<svg width="26" height="27" viewBox="0 0 26 27" fill="none" xmlns="http://www.w3.org/2000/svg">
<path d="M0.771502 20.5185C2.23719 18.5562 4.14037 16.9628 6.32979 15.865C8.51921 14.7671 10.9345 14.1951 13.3838 14.1943C15.833 14.1936 18.2487 14.7641 20.4388 15.8605C22.6289 16.957 24.5331 18.5492 26 20.5106C24.5405 22.4819 22.6395 24.0838 20.4492 25.1878C18.259 26.2919 15.8405 26.8674 13.3877 26.8681C10.935 26.8689 8.51614 26.2949 6.3252 25.1923C4.13427 24.0896 2.2322 22.4889 0.771502 20.5185Z" fill="#4294FF"/>
<path d="M13.3834 12.1668C10.0236 12.1668 7.29996 9.4432 7.29996 6.08342C7.29996 2.72364 10.0236 0 13.3834 0C16.7432 0 19.4668 2.72364 19.4668 6.08342C19.4668 9.4432 16.7432 12.1668 13.3834 12.1668Z" fill="#B9DCFF"/>
</svg>
