<svg width="21" height="18" viewBox="0 0 21 18" fill="none" xmlns="http://www.w3.org/2000/svg">
<path fill-rule="evenodd" clip-rule="evenodd" d="M9.73694 1.85881C9.90869 1.56221 10.3413 1.56221 10.5131 1.85881L18.5283 15.7019C18.6996 15.9978 18.4823 16.3636 18.1402 16.3636L2.10978 16.3636C1.7677 16.3636 1.55042 15.9978 1.72173 15.7019L9.73694 1.85881ZM11.9544 1.04753C11.1457 -0.349177 9.10433 -0.349181 8.29563 1.04753L0.280423 14.8907C-0.521167 16.2751 0.490927 18 2.10978 18L18.1402 18C19.7591 18 20.7712 16.2751 19.9696 14.8907L11.9544 1.04753Z" fill="#A5A4B5"/>
<path d="M9 13.5C9 14.1213 9.50367 14.625 10.125 14.625C10.7463 14.625 11.25 14.1213 11.25 13.5C11.25 12.8787 10.7463 12.375 10.125 12.375C9.50367 12.375 9 12.8787 9 13.5Z" fill="#A5A4B5"/>
<path fill-rule="evenodd" clip-rule="evenodd" d="M10.125 5.625C9.50367 5.625 9 6.02266 9 6.51318L9 10.3619C9 10.8524 9.50367 11.25 10.125 11.25C10.7463 11.25 11.25 10.8524 11.25 10.3619L11.25 6.51318C11.25 6.02266 10.7463 5.625 10.125 5.625Z" fill="#A5A4B5"/>
</svg>
