<svg width="25" height="17" viewBox="0 0 25 17" fill="none" xmlns="http://www.w3.org/2000/svg">
<path d="M9 3C9 1.34315 10.3431 0 12 0H13C14.6569 0 16 1.34315 16 3V14C16 15.6569 14.6569 17 13 17H12C10.3431 17 9 15.6569 9 14V3Z" fill="#9FCEFF"/>
<path d="M18 3C18 1.34315 19.3431 0 21 0H22C23.6569 0 25 1.34315 25 3V14C25 15.6569 23.6569 17 22 17H21C19.3431 17 18 15.6569 18 14V3Z" fill="#9FCEFF"/>
<path d="M0 3C0 1.34315 1.34315 0 3 0H4C5.65685 0 7 1.34315 7 3V14C7 15.6569 5.65685 17 4 17H3C1.34315 17 0 15.6569 0 14V3Z" fill="#9FCEFF"/>
</svg>
