<svg width="26" height="20" viewBox="0 0 26 20" fill="none" xmlns="http://www.w3.org/2000/svg">
<g style="mix-blend-mode:luminosity">
<rect x="2" y="3" width="5" height="13" fill="#3698FF"/>
<path fill-rule="evenodd" clip-rule="evenodd" d="M0 2.25503V17.0097C0 18.2567 1.00857 19.2647 2.25423 19.2647H23.2791C24.5233 19.2647 25.5333 18.2547 25.5333 17.0097V2.25503C25.5333 1.00798 24.5248 0 23.2791 0H2.25423C1.00998 0 0 1.00999 0 2.25503Z" fill="#A7D2FF"/>
<g clip-path="url(#clip0_91_15765)">
<path d="M8.20368 4.14062L17.7963 4.14062C18.0275 4.14062 18.2148 4.32801 18.2148 4.55915L18.2148 7.07031C18.2148 7.30145 18.0275 7.48884 17.7963 7.48884L16.9593 7.48884C16.7281 7.48884 16.5407 7.30145 16.5407 7.07031L16.5407 6.23327L14.0463 6.23327L14.0463 14.1853L15.0926 14.1853C15.3238 14.1853 15.5112 14.3727 15.5112 14.6038L15.5112 15.4409C15.5112 15.672 15.3238 15.8594 15.0926 15.8594L10.9074 15.8594C10.6762 15.8594 10.4889 15.672 10.4889 15.4409L10.4889 14.6038C10.4889 14.3727 10.6762 14.1853 10.9074 14.1853L11.9537 14.1853L11.9537 6.23327L9.45927 6.23327L9.45927 7.07031C9.45927 7.30145 9.27189 7.48884 9.04075 7.48884L8.2037 7.48884C7.97256 7.48884 7.78518 7.30145 7.78518 7.07031L7.78518 4.55915C7.78516 4.32801 7.97254 4.14062 8.20368 4.14062Z" fill="#3698FF"/>
</g>
</g>
<defs>
<clipPath id="clip0_91_15765">
<rect width="12" height="12" fill="white" transform="matrix(-1 -8.74228e-08 -8.74228e-08 1 19 4)"/>
</clipPath>
</defs>
</svg>
