<svg width="22" height="22" viewBox="0 0 22 22" fill="none" xmlns="http://www.w3.org/2000/svg">
<path d="M21.1435 11.0016C21.1435 11.1472 21.1402 11.296 21.1338 11.4416C21.1305 11.5354 21.124 11.626 21.1176 11.7198C21.1111 11.8266 21.1014 11.9334 21.0917 12.0401C21.0755 12.2116 21.0529 12.3798 21.027 12.5481C21.0011 12.7163 20.972 12.8813 20.9364 13.0495C20.904 13.2145 20.8652 13.3763 20.8232 13.5381C20.7876 13.6707 20.752 13.8034 20.7132 13.936C20.7035 13.9651 20.697 13.9942 20.6873 14.0201C20.6452 14.1592 20.5967 14.2984 20.5482 14.4342C20.4705 14.6478 20.3864 14.8581 20.2958 15.0684C20.2505 15.1719 20.2052 15.2722 20.1567 15.3757C20.1082 15.476 20.0596 15.5763 20.0046 15.6766C19.9529 15.7769 19.9011 15.8772 19.8461 15.9742C19.7361 16.1716 19.6164 16.3657 19.4935 16.5534C19.432 16.6472 19.3673 16.741 19.3026 16.8348L19.1279 17.0775C19.1149 17.0937 19.102 17.1098 19.0891 17.1292C19.0049 17.2425 18.9176 17.3525 18.827 17.4592C18.7752 17.5239 18.7235 17.5854 18.6717 17.6469C18.5682 17.7698 18.4582 17.8895 18.3449 18.006C18.1767 18.1807 18.002 18.3522 17.8208 18.5172C17.7302 18.6013 17.6332 18.6822 17.5394 18.7631C17.5135 18.7857 17.4843 18.8116 17.452 18.8342C17.397 18.8828 17.3388 18.9281 17.2805 18.9734C17.1673 19.0639 17.0541 19.1481 16.9376 19.2322C16.8502 19.2969 16.7629 19.3584 16.6723 19.4198C16.1514 19.7725 15.5949 20.0766 15.0093 20.3289C14.8379 20.4034 14.6632 20.4713 14.4885 20.536C14.1811 20.6492 13.8608 20.7495 13.5373 20.8304C13.437 20.8563 13.3367 20.8822 13.2364 20.9048C12.7543 21.0116 12.2626 21.086 11.7579 21.1248C11.6964 21.1281 11.6382 21.1313 11.5767 21.1345C11.4958 21.1378 11.4149 21.1442 11.3308 21.1442C11.2241 21.1475 11.1141 21.1507 11.0041 21.1507C10.8326 21.1507 10.6644 21.1475 10.4961 21.1378H10.4929C8.75553 21.0536 7.13788 20.5457 5.74994 19.6786H5.74023L5.96347 19.3001L7.32553 16.9901H7.32876C8.39641 17.6469 9.65494 18.0254 11.0008 18.0254C14.8799 18.0254 18.0246 14.8807 18.0246 10.9984C18.0246 7.11924 14.8799 3.97454 11.0008 3.97454L11.0946 0.917182L11.0979 0.849243C13.5826 0.881588 15.8473 1.79071 17.6073 3.31454C17.8823 3.54748 18.1379 3.79335 18.3838 4.04894C18.5585 4.24306 18.7299 4.43718 18.8949 4.64101C19.0179 4.78659 19.1408 4.94513 19.2541 5.10365C19.2929 5.15865 19.3317 5.21365 19.3673 5.26542C19.3835 5.2913 19.4029 5.31718 19.4191 5.34306C19.4449 5.38188 19.4741 5.42071 19.4967 5.45954C19.5129 5.48218 19.529 5.50483 19.542 5.52748C19.5549 5.55013 19.5679 5.56954 19.5808 5.59219C19.652 5.70541 19.7232 5.81865 19.7846 5.93189C19.9173 6.15512 20.0402 6.39129 20.1535 6.62424L20.2764 6.88953C20.2861 6.91218 20.2958 6.9413 20.3055 6.97365C20.3443 7.06424 20.3832 7.15807 20.422 7.25188C20.4608 7.34571 20.4964 7.4363 20.532 7.53336C20.5643 7.61101 20.5902 7.68865 20.6161 7.76629C20.642 7.84395 20.6679 7.92483 20.6938 8.00571C20.7455 8.15777 20.7843 8.32276 20.8264 8.48453C20.8523 8.58159 20.8749 8.67865 20.8976 8.77894C20.9202 8.87601 20.9429 8.96982 20.9623 9.06689C20.972 9.11218 20.9785 9.15748 20.9849 9.20277C20.9882 9.21247 20.9882 9.21895 20.9882 9.22542C21.0043 9.30954 21.0173 9.39688 21.0302 9.48424C21.0432 9.56836 21.0561 9.65248 21.0658 9.73983C21.0788 9.81424 21.0885 9.89188 21.0949 9.9663C21.1014 10.0504 21.1079 10.1378 21.1143 10.2219C21.1338 10.4775 21.1435 10.7395 21.1435 11.0016Z" fill="#3698FF" fill-opacity="0.8"/>
<path opacity="0.44" d="M7.3293 16.99L5.97694 19.3H5.964L5.75047 19.6786H5.74077C2.80635 17.8991 0.855469 14.6897 0.855469 11.0015C0.855469 9.62972 1.13047 8.31297 1.63194 7.12561L4.48547 8.3712C4.15546 9.18326 3.97429 10.0697 3.97429 10.9983C3.97429 13.5315 5.3137 15.7541 7.32606 16.99H7.3293Z" fill="#3698FF"/>
<path opacity="0.44" d="M11.0988 0.849243L11.0956 0.917191L11.0018 3.97454C9.59117 3.97454 8.27764 4.38866 7.17764 5.10689L6.46588 3.91631L6.08734 3.3016L5.66028 2.5769L5.60529 2.49602C5.59558 2.47661 5.58588 2.45718 5.57617 2.43455C7.14205 1.4219 9.00235 0.849243 11.005 0.849243H11.0988Z" fill="#3698FF"/>
<path opacity="0.44" d="M7.17713 5.10679C5.97361 5.8865 5.02566 7.02533 4.48537 8.37122L1.63184 7.12562C2.42772 5.18445 3.8189 3.54739 5.56595 2.43445L5.60478 2.49592L5.65978 2.5768L6.08683 3.3015L6.46537 3.91621L7.17713 5.10679Z" fill="#3698FF"/>
<path opacity="0.44" d="M17.0873 10.6795C17.2377 10.8639 17.2377 11.1217 17.0876 11.3062C16.3292 12.2399 13.8885 14.9355 11 14.9355C8.11125 14.9355 5.67054 12.2399 4.91219 11.3062C4.76207 11.1217 4.7624 10.8639 4.91284 10.6795C5.67152 9.74869 8.1119 7.06274 11 7.06274C13.8879 7.06274 16.3282 9.74869 17.0873 10.6795Z" fill="#3698FF"/>
<path d="M13 11.0051C13 12.1079 12.0973 13 10.9949 13C9.89208 13 9 12.1079 9 11.0051C9 9.90228 9.89208 9 10.9949 9C12.0973 9 13 9.90228 13 11.0051Z" fill="#3698FF" fill-opacity="0.8"/>
</svg>
