<svg width="24" height="25" viewBox="0 0 24 25" fill="none" xmlns="http://www.w3.org/2000/svg">
<path d="M18.75 0H5.25C4.6538 0.00174121 4.08251 0.239353 3.66093 0.660933C3.23935 1.08251 3.00174 1.6538 3 2.25V9.75C3.00174 10.3462 3.23935 10.9175 3.66093 11.3391C4.08251 11.7606 4.6538 11.9983 5.25 12V14.25C5.24946 14.3984 5.29351 14.5435 5.37642 14.6665C5.45933 14.7895 5.57729 14.8848 5.715 14.94C5.85162 14.9972 6.0021 15.0128 6.14754 14.9848C6.29299 14.9567 6.42691 14.8864 6.5325 14.7825L9.3075 12H14.6925L17.4675 14.7825C17.6094 14.9224 17.8008 15.0006 18 15C18.0984 15.0026 18.196 14.982 18.285 14.94C18.4227 14.8848 18.5407 14.7895 18.6236 14.6665C18.7065 14.5435 18.7505 14.3984 18.75 14.25V12C19.3462 11.9983 19.9175 11.7606 20.3391 11.3391C20.7606 10.9175 20.9983 10.3462 21 9.75V2.25C20.9983 1.6538 20.7606 1.08251 20.3391 0.660933C19.9175 0.239353 19.3462 0.00174121 18.75 0V0ZM12 10.2525C11.8309 10.2525 11.6656 10.2024 11.525 10.1084C11.3844 10.0145 11.2748 9.88093 11.2101 9.72469C11.1454 9.56846 11.1284 9.39655 11.1614 9.2307C11.1944 9.06484 11.2758 8.9125 11.3954 8.79292C11.515 8.67335 11.6673 8.59192 11.8332 8.55893C11.9991 8.52594 12.171 8.54287 12.3272 8.60758C12.4834 8.6723 12.617 8.78188 12.7109 8.92249C12.8049 9.06309 12.855 9.2284 12.855 9.3975C12.855 9.50979 12.833 9.621 12.79 9.72475C12.7471 9.82851 12.6841 9.92278 12.6047 10.0022C12.5253 10.0816 12.431 10.1446 12.3273 10.1875C12.2235 10.2305 12.1123 10.2525 12 10.2525ZM12.855 6.6375V7.2075C12.855 7.43426 12.7649 7.65173 12.6046 7.81208C12.4442 7.97242 12.2268 8.0625 12 8.0625C11.7732 8.0625 11.5558 7.97242 11.3954 7.81208C11.2351 7.65173 11.145 7.43426 11.145 7.2075V6.57C11.1442 6.2264 11.2528 5.89147 11.4551 5.61371C11.6573 5.33594 11.9428 5.12976 12.27 5.025C12.4198 4.97544 12.553 4.88542 12.6549 4.7649C12.7568 4.64438 12.8234 4.49805 12.8473 4.34206C12.8713 4.18607 12.8516 4.0265 12.7906 3.88097C12.7295 3.73545 12.6294 3.60963 12.5014 3.51742C12.3733 3.42521 12.2222 3.37019 12.0648 3.35844C11.9075 3.3467 11.7499 3.37868 11.6096 3.45086C11.4692 3.52304 11.3516 3.6326 11.2696 3.76745C11.1876 3.9023 11.1445 4.05719 11.145 4.215C11.145 4.44176 11.0549 4.65923 10.8946 4.81958C10.7342 4.97992 10.5168 5.07 10.29 5.07C10.0632 5.07 9.84577 4.97992 9.68542 4.81958C9.52508 4.65923 9.435 4.44176 9.435 4.215C9.43506 3.83929 9.51755 3.46818 9.67664 3.12782C9.83573 2.78746 10.0676 2.48615 10.3558 2.24514C10.644 2.00412 10.9816 1.82928 11.3447 1.73293C11.7079 1.63658 12.0877 1.62107 12.4575 1.6875C13.015 1.78846 13.5235 2.07091 13.9039 2.49089C14.2842 2.91087 14.515 3.44481 14.5604 4.00959C14.6057 4.57437 14.4631 5.1383 14.1546 5.61359C13.8462 6.08888 13.3893 6.44887 12.855 6.6375Z" fill="#A5D0FF"/>
<path d="M22.345 20.1473C22.772 19.7307 23.0651 19.1963 23.1868 18.6124C23.3086 18.0285 23.2535 17.4215 23.0287 16.869C22.8038 16.3166 22.4193 15.8436 21.9244 15.5107C21.4294 15.1778 20.8465 15 20.25 15C19.6535 15 19.0706 15.1778 18.5756 15.5107C18.0807 15.8436 17.6962 16.3166 17.4713 16.869C17.2465 17.4215 17.1914 18.0285 17.3132 18.6124C17.4349 19.1963 17.728 19.7307 18.155 20.1473C17.6456 20.4903 17.2283 20.9532 16.9398 21.4952C16.6512 22.0373 16.5002 22.6419 16.5 23.256C16.5 23.4549 16.579 23.6457 16.7197 23.7864C16.8603 23.927 17.0511 24.006 17.25 24.006H23.25C23.4489 24.006 23.6397 23.927 23.7803 23.7864C23.921 23.6457 24 23.4549 24 23.256C23.9998 22.6419 23.8488 22.0373 23.5602 21.4952C23.2717 20.9532 22.8544 20.4903 22.345 20.1473Z" fill="#4F8AFF"/>
<path d="M5.84505 20.1414C6.27199 19.7249 6.56506 19.1905 6.68683 18.6065C6.80859 18.0226 6.75352 17.4156 6.52865 16.8632C6.30378 16.3107 5.91932 15.8378 5.42438 15.5049C4.92944 15.172 4.34649 14.9941 3.75 14.9941C3.15351 14.9941 2.57056 15.172 2.07562 15.5049C1.58068 15.8378 1.19622 16.3107 0.971349 16.8632C0.746478 17.4156 0.691407 18.0226 0.813172 18.6065C0.934937 19.1905 1.22801 19.7249 1.65495 20.1414C1.14562 20.4844 0.728332 20.9473 0.439767 21.4894C0.151202 22.0314 0.000189675 22.6361 0 23.2502C0 23.4491 0.0790176 23.6398 0.21967 23.7805C0.360322 23.9211 0.551088 24.0002 0.75 24.0002H6.75C6.94891 24.0002 7.13968 23.9211 7.28033 23.7805C7.42098 23.6398 7.5 23.4491 7.5 23.2502C7.49981 22.6361 7.3488 22.0314 7.06023 21.4894C6.77167 20.9473 6.35438 20.4844 5.84505 20.1414Z" fill="#4F8AFF"/>
</svg>
