<svg width="17" height="15" viewBox="0 0 17 15" fill="none" xmlns="http://www.w3.org/2000/svg">
<path d="M1.0752 3.78223C1.0752 3.22994 1.52291 2.78223 2.0752 2.78223H14.2977C14.85 2.78223 15.2977 3.22994 15.2977 3.78223V13.2225C15.2977 13.7748 14.85 14.2225 14.2977 14.2225H2.07519C1.52291 14.2225 1.0752 13.7748 1.0752 13.2225V3.78223Z" stroke="#A5A4B5" stroke-width="1.5" stroke-linecap="round"/>
<path d="M5.50195 2.78262V2C5.50195 1.44772 5.94967 1 6.50195 1L9.75025 1C10.3025 1 10.7502 1.44772 10.7502 2V2.78262" stroke="#A5A4B5" stroke-width="1.5" stroke-linecap="round"/>
<path d="M8.90745 7.01401L6.0274 8.82851C5.81908 8.96482 5.67724 9.18502 5.63249 9.4416C5.58773 9.69817 5.64365 9.97055 5.78818 10.1999C5.93271 10.4293 6.15425 10.5974 6.40501 10.6678C6.65576 10.7382 6.91562 10.7053 7.1285 10.5762L10.5818 8.40454C10.7633 8.29351 10.9189 8.1444 11.0396 7.96585C11.1603 7.7873 11.2437 7.58286 11.2849 7.36438C11.3262 7.14591 11.3245 6.91774 11.2799 6.69311C11.2353 6.46849 11.1488 6.25186 11.0252 6.0558C10.9017 5.85974 10.7437 5.68814 10.5603 5.55095C10.3769 5.41376 10.1719 5.31371 9.95699 5.2566C9.74212 5.19949 9.52171 5.18645 9.30854 5.21824C9.09538 5.25004 8.8937 5.32603 8.71519 5.44182L5.23828 7.63236C4.98234 7.78803 4.7628 7.99746 4.59241 8.2485C4.42202 8.49954 4.30419 8.78716 4.24576 9.09465C4.18734 9.40214 4.18948 9.72336 4.25207 10.0396C4.31467 10.3559 4.43646 10.6609 4.61037 10.937C4.78427 11.213 5.00683 11.4545 5.26509 11.6475C5.52336 11.8405 5.81218 11.9812 6.11476 12.0612C6.41734 12.1412 6.72765 12.1591 7.02765 12.1138C7.32764 12.0685 7.61134 11.9609 7.86224 11.7972L11.4136 9.55978" stroke="#A5A4B5" stroke-linecap="round" stroke-linejoin="round"/>
</svg>
