<svg width="143" height="109" viewBox="0 0 143 109" fill="none" xmlns="http://www.w3.org/2000/svg">
<rect x="0.5" y="0.5" width="142" height="108" rx="4.5" fill="#F8F9FA" stroke="#DADCE0"/>
<rect x="10" y="10" width="17" height="12" rx="1" fill="#D9D9D9"/>
<rect x="31" y="10" width="17" height="12" rx="1" fill="#D9D9D9"/>
<rect x="52" y="10" width="18" height="12" rx="1" fill="#D9D9D9"/>
<rect x="74" y="10" width="17" height="12" rx="1" fill="#D9D9D9"/>
<rect x="95" y="10" width="17" height="12" rx="1" fill="#D9D9D9"/>
<rect x="116" y="10" width="17" height="12" rx="1" fill="#D9D9D9"/>
<rect x="10" y="26" width="17" height="12" rx="1" fill="#D9D9D9"/>
<rect x="31" y="26" width="17" height="12" rx="1" fill="#D9D9D9"/>
<rect x="52" y="26" width="18" height="12" rx="1" fill="#D9D9D9"/>
<rect x="74" y="26" width="17" height="12" rx="1" fill="#D9D9D9"/>
<rect x="95" y="26" width="17" height="12" rx="1" fill="#D9D9D9"/>
<rect x="116" y="26" width="17" height="12" rx="1" fill="#D9D9D9"/>
<rect x="10" y="41" width="17" height="12" rx="1" fill="#D9D9D9"/>
<rect x="31" y="41" width="17" height="12" rx="1" fill="#D9D9D9"/>
<rect x="52" y="41" width="18" height="12" rx="1" fill="#D9D9D9"/>
<rect x="74" y="41" width="17" height="12" rx="1" fill="#D9D9D9"/>
<rect x="95" y="41" width="17" height="12" rx="1" fill="#D9D9D9"/>
<rect x="116" y="41" width="17" height="12" rx="1" fill="#D9D9D9"/>
<rect x="10" y="56" width="17" height="12" rx="1" fill="#D9D9D9"/>
<rect x="31" y="56" width="17" height="12" rx="1" fill="#D9D9D9"/>
<rect x="52" y="56" width="18" height="12" rx="1" fill="#D9D9D9"/>
<rect x="74" y="56" width="17" height="12" rx="1" fill="#D9D9D9"/>
<rect x="95" y="56" width="17" height="12" rx="1" fill="#D9D9D9"/>
<rect x="116" y="56" width="17" height="12" rx="1" fill="#D9D9D9"/>
<rect x="10" y="72" width="17" height="12" rx="1" fill="#D9D9D9"/>
<rect x="31" y="72" width="17" height="12" rx="1" fill="#D9D9D9"/>
<rect x="52" y="72" width="18" height="12" rx="1" fill="#D9D9D9"/>
<rect x="74" y="72" width="17" height="12" rx="1" fill="#D9D9D9"/>
<rect x="95" y="72" width="17" height="12" rx="1" fill="#D9D9D9"/>
<rect x="116" y="72" width="17" height="12" rx="1" fill="#D9D9D9"/>
<rect x="10" y="87" width="17" height="12" rx="1" fill="#D9D9D9"/>
<rect x="31" y="87" width="17" height="12" rx="1" fill="#D9D9D9"/>
<rect x="52" y="87" width="18" height="12" rx="1" fill="#D9D9D9"/>
<rect x="74" y="87" width="17" height="12" rx="1" fill="#D9D9D9"/>
<rect x="95" y="87" width="17" height="12" rx="1" fill="#D9D9D9"/>
<rect x="116" y="87" width="17" height="12" rx="1" fill="#D9D9D9"/>
</svg>
