<svg width="23" height="24" viewBox="0 0 23 24" fill="none" xmlns="http://www.w3.org/2000/svg">
<path d="M9.80829 23.6C7.20697 23.6 4.71219 22.5666 2.87278 20.7272C1.03337 18.8878 0 16.393 0 13.7917C0 11.1904 1.03337 8.69561 2.87278 6.8562C4.71219 5.01679 7.20697 3.98342 9.80829 3.98342C10.3623 3.98232 10.9153 4.02879 11.4614 4.12232C11.6692 4.15874 11.8541 4.27623 11.9753 4.44893C12.0965 4.62164 12.1441 4.83542 12.1077 5.04324C12.0713 5.25107 11.9538 5.43591 11.7811 5.55712C11.6084 5.67832 11.3946 5.72595 11.1868 5.68953C10.7314 5.61187 10.2702 5.5732 9.80829 5.57395C8.18297 5.57395 6.59416 6.05591 5.24275 6.95889C3.89135 7.86187 2.83806 9.14531 2.21607 10.6469C1.59409 12.1485 1.43135 13.8008 1.74844 15.3949C2.06552 16.989 2.84819 18.4533 3.99746 19.6025C5.14673 20.7518 6.611 21.5345 8.20509 21.8516C9.79918 22.1687 11.4515 22.0059 12.9531 21.3839C14.4547 20.7619 15.7381 19.7087 16.6411 18.3573C17.5441 17.0059 18.0261 15.417 18.0261 13.7917C18.0287 13.1775 17.9575 12.5651 17.814 11.9679C17.7872 11.866 17.781 11.7597 17.7956 11.6553C17.8103 11.551 17.8456 11.4505 17.8994 11.3599C17.9532 11.2693 18.0245 11.1903 18.1091 11.1274C18.1937 11.0646 18.29 11.0192 18.3923 10.9939C18.4946 10.9686 18.6009 10.9639 18.7051 10.9801C18.8092 10.9962 18.9091 11.0329 18.999 11.088C19.0888 11.1431 19.1668 11.2156 19.2284 11.3011C19.29 11.3866 19.334 11.4835 19.3579 11.5862C19.5315 12.3084 19.6177 13.0489 19.6145 13.7917C19.6117 16.3918 18.5777 18.8846 16.7393 20.7234C14.901 22.5621 12.4084 23.5966 9.80829 23.6Z" fill="#9FCEFF"/>
<path d="M9.80822 19.359C8.33179 19.359 6.91584 18.7725 5.87185 17.7285C4.82786 16.6845 4.24135 15.2685 4.24135 13.7921C4.24135 12.3157 4.82786 10.8997 5.87185 9.85575C6.91584 8.81176 8.33179 8.22525 9.80822 8.22525C10.0678 8.2233 10.3273 8.24031 10.5844 8.27615C10.7931 8.30764 10.9807 8.42074 11.106 8.59056C11.2312 8.76039 11.2839 8.97302 11.2524 9.18169C11.2209 9.39036 11.1078 9.57797 10.938 9.70325C10.7682 9.82853 10.5555 9.88121 10.3469 9.84971C10.1684 9.82496 9.98837 9.81362 9.80822 9.81578C9.02177 9.81578 8.25299 10.049 7.59908 10.4859C6.94518 10.9228 6.43552 11.5439 6.13456 12.2704C5.8336 12.997 5.75486 13.7965 5.90829 14.5679C6.06171 15.3392 6.44042 16.0477 6.99652 16.6038C7.55262 17.1599 8.26114 17.5386 9.03247 17.692C9.80381 17.8455 10.6033 17.7667 11.3299 17.4658C12.0565 17.1648 12.6775 16.6552 13.1144 16.0013C13.5513 15.3473 13.7846 14.5786 13.7846 13.7921C13.7863 13.4628 13.7424 13.1349 13.6541 12.8177C13.6216 12.6992 13.6168 12.5749 13.64 12.4543C13.6631 12.3336 13.7137 12.22 13.7878 12.122C13.8619 12.0241 13.9575 11.9444 14.0673 11.8893C14.177 11.8341 14.2979 11.8049 14.4208 11.804C14.6063 11.803 14.7863 11.8673 14.9293 11.9855C15.0723 12.1037 15.1693 12.2684 15.2033 12.4508C15.3191 12.8884 15.3768 13.3394 15.3751 13.7921C15.3734 15.268 14.7864 16.683 13.7427 17.7266C12.6991 18.7703 11.2841 19.3573 9.80822 19.359Z" fill="#3698FF"/>
<path d="M9.8083 14.5871C9.6547 14.5873 9.50431 14.5431 9.37534 14.4596C9.24636 14.3762 9.1443 14.2572 9.0815 14.117C9.0187 13.9768 8.99784 13.8215 9.02144 13.6697C9.04504 13.5179 9.1121 13.3762 9.2145 13.2617L14.1134 7.76269C14.183 7.68471 14.2673 7.62121 14.3614 7.57581C14.4556 7.53041 14.5578 7.50401 14.6622 7.4981C14.7665 7.49219 14.871 7.5069 14.9697 7.54138C15.0684 7.57586 15.1593 7.62945 15.2373 7.69907C15.3153 7.7687 15.3788 7.853 15.4242 7.94716C15.4696 8.04133 15.496 8.14351 15.5019 8.24788C15.5078 8.35225 15.4931 8.45677 15.4586 8.55545C15.4242 8.65414 15.3706 8.74507 15.3009 8.82305L10.4021 14.3221C10.3274 14.4056 10.2359 14.4725 10.1336 14.5182C10.0312 14.5638 9.92038 14.5874 9.8083 14.5871Z" fill="#3698FF"/>
<path d="M18.4554 9.83788C18.4031 9.8382 18.3509 9.83323 18.2995 9.82304L14.5512 9.07337C14.397 9.04265 14.2554 8.96693 14.1442 8.85577C14.0331 8.74461 13.9574 8.60299 13.9266 8.44882L13.177 4.70046C13.1514 4.57215 13.1578 4.43951 13.1957 4.31429C13.2336 4.18907 13.3018 4.07514 13.3943 3.9826L17.1438 0.233179C17.2455 0.131329 17.373 0.0590146 17.5126 0.0239488C17.6523 -0.0111171 17.7988 -0.00761863 17.9366 0.034071C18.0744 0.0757606 18.1983 0.154077 18.2951 0.260667C18.3919 0.367256 18.4579 0.498119 18.4862 0.639295L19.1309 3.86914L22.3607 4.51384C22.5019 4.54207 22.6327 4.6081 22.7393 4.70489C22.8459 4.80167 22.9242 4.92557 22.9659 5.06337C23.0076 5.20118 23.0111 5.34772 22.9761 5.48735C22.941 5.62699 22.8687 5.75449 22.7668 5.85625L19.0185 9.60567C18.8688 9.75443 18.6664 9.83791 18.4554 9.83788ZM15.3804 7.6175L18.1924 8.18055L20.5889 5.78202L18.2974 5.32395C18.1435 5.29338 18.002 5.21782 17.8911 5.10683C17.7801 4.99584 17.7045 4.85441 17.6739 4.70046L17.2159 2.40903L14.8184 4.80543L15.3804 7.6175Z" fill="#3698FF"/>
</svg>
