<?xml version="1.0" standalone="no"?>
<!DOCTYPE svg PUBLIC "-//W3C//DTD SVG 20010904//EN"
 "http://www.w3.org/TR/2001/REC-SVG-20010904/DTD/svg10.dtd">
<svg version="1.0" xmlns="http://www.w3.org/2000/svg"
 width="512.000000pt" height="512.000000pt" viewBox="0 0 512.000000 512.000000"
 preserveAspectRatio="xMidYMid meet" fill="none">

<g transform="translate(0.000000,512.000000) scale(0.100000,-0.100000)"
fill="#2C92FF" stroke="none">
<path d="M2330 5110 c-494 -48 -950 -230 -1350 -538 -195 -150 -448 -432 -594
-662 -63 -99 -186 -351 -230 -471 -49 -134 -102 -340 -128 -499 -31 -195 -31
-565 0 -760 45 -276 116 -498 237 -745 132 -269 269 -460 489 -681 221 -220
412 -357 681 -489 251 -123 469 -192 750 -237 201 -32 549 -32 750 0 286 45
501 114 760 242 271 134 489 293 701 513 197 204 336 401 459 652 88 179 132
296 180 476 63 240 78 371 78 649 0 278 -15 409 -78 649 -48 180 -92 297 -180
476 -132 269 -269 460 -489 681 -221 220 -412 357 -681 489 -246 121 -474 193
-740 235 -147 23 -475 34 -615 20z m520 -426 c853 -113 1570 -751 1785 -1588
48 -188 66 -331 66 -536 0 -205 -18 -348 -66 -536 -95 -371 -285 -701 -561
-978 -280 -280 -624 -475 -995 -566 -183 -44 -321 -61 -519 -61 -198 0 -336
17 -519 61 -752 184 -1362 789 -1556 1544 -48 188 -66 331 -66 536 0 205 18
348 66 536 152 592 561 1100 1110 1377 388 197 818 269 1255 211z"/>
<path d="M2485 4133 c-748 -32 -1374 -603 -1485 -1356 -15 -101 -15 -333 0
-434 104 -702 641 -1239 1343 -1343 101 -15 333 -15 434 0 702 104 1239 641
1343 1343 6 43 12 141 12 217 0 76 -6 174 -12 217 -120 811 -818 1390 -1635
1356z m238 -424 c426 -64 777 -349 927 -752 50 -133 64 -225 64 -397 0 -223
-29 -346 -130 -542 -153 -295 -425 -504 -769 -590 -130 -32 -380 -32 -510 0
-344 86 -616 295 -769 590 -101 196 -130 319 -130 542 0 172 14 264 64 397
149 400 498 686 920 752 80 13 250 13 333 0z"/>
<path d="M2412 3150 c-221 -58 -385 -224 -442 -446 -110 -429 279 -830 715
-739 334 70 549 411 465 739 -84 330 -416 530 -738 446z"/>
</g>
</svg>
