<svg width="17" height="15" viewBox="0 0 17 15" fill="none" xmlns="http://www.w3.org/2000/svg">
<path d="M1.0752 3.78223C1.0752 3.22994 1.52291 2.78223 2.0752 2.78223H14.2977C14.85 2.78223 15.2977 3.22994 15.2977 3.78223V13.2225C15.2977 13.7748 14.85 14.2225 14.2977 14.2225H2.07519C1.52291 14.2225 1.0752 13.7748 1.0752 13.2225V3.78223Z" stroke="#A5A4B5" stroke-width="1.5" stroke-linecap="round"/>
<path d="M5.50195 2.78262V2C5.50195 1.44772 5.94967 1 6.50195 1L9.75025 1C10.3025 1 10.7502 1.44772 10.7502 2V2.78262" stroke="#A5A4B5" stroke-width="1.5" stroke-linecap="round"/>
<path d="M5 8.18182C5 8.18182 6.09091 6 8 6C9.90909 6 11 8.18182 11 8.18182C11 8.18182 9.90909 10.3636 8 10.3636C6.09091 10.3636 5 8.18182 5 8.18182Z" stroke="#A5A4B5" stroke-width="1.2" stroke-linecap="round" stroke-linejoin="round"/>
<path d="M8 8.7002C8.27614 8.7002 8.5 8.47634 8.5 8.2002C8.5 7.92405 8.27614 7.7002 8 7.7002C7.72386 7.7002 7.5 7.92405 7.5 8.2002C7.5 8.47634 7.72386 8.7002 8 8.7002Z" stroke="#A5A4B5" stroke-width="1.2" stroke-linecap="round" stroke-linejoin="round"/>
</svg>
