<svg width="16" height="14" viewBox="0 0 16 14" fill="none" xmlns="http://www.w3.org/2000/svg">
<path d="M14.7692 0.5H1.23077C0.904349 0.5 0.591298 0.624513 0.360484 0.846146C0.12967 1.06778 0 1.36838 0 1.68182V12.3182C0 12.6316 0.12967 12.9322 0.360484 13.1539C0.591298 13.3755 0.904349 13.5 1.23077 13.5H14.7692C15.0957 13.5 15.4087 13.3755 15.6395 13.1539C15.8703 12.9322 16 12.6316 16 12.3182V1.68182C16 1.36838 15.8703 1.06778 15.6395 0.846146C15.4087 0.624513 15.0957 0.5 14.7692 0.5ZM1.23077 1.68182H14.7692V4.63636H1.23077V1.68182ZM1.23077 5.81818H5.53846V12.3182H1.23077V5.81818ZM14.7692 12.3182H6.76923V5.81818H14.7692V12.3182Z" fill="#3698FF"/>
</svg>
