<svg width="20" height="20" viewBox="0 0 20 20" fill="none" xmlns="http://www.w3.org/2000/svg">
<rect width="20" height="20" fill="#F9FBFF"/>
<path d="M10.1669 9.8333L8.99187 11.0083C8.34187 11.6583 8.34187 12.7167 8.99187 13.3667C9.64187 14.0167 10.7002 14.0167 11.3502 13.3667L13.2002 11.5167C14.5002 10.2167 14.5002 8.10832 13.2002 6.79998C11.9002 5.49998 9.79188 5.49998 8.48355 6.79998L6.46689 8.81663C5.35023 9.9333 5.35023 11.7416 6.46689 12.8583" stroke="#4785FF" stroke-linecap="round" stroke-linejoin="round"/>
<path d="M7.49984 18.3333H12.4998C16.6665 18.3333 18.3332 16.6667 18.3332 12.5V7.49999C18.3332 3.33332 16.6665 1.66666 12.4998 1.66666H7.49984C3.33317 1.66666 1.6665 3.33332 1.6665 7.49999V12.5C1.6665 16.6667 3.33317 18.3333 7.49984 18.3333Z" stroke="#4785FF" stroke-linecap="round" stroke-linejoin="round"/>
</svg>
