<svg width="160" height="122" viewBox="0 0 160 122" fill="none" xmlns="http://www.w3.org/2000/svg">
<rect width="74" height="32.375" rx="1.3875" fill="#C4D7FD"/>
<path d="M41.1609 19.4249V12.9499C41.1609 12.4412 40.7447 12.0249 40.2359 12.0249H33.7609C33.2522 12.0249 32.8359 12.4412 32.8359 12.9499V19.4249C32.8359 19.9337 33.2522 20.3499 33.7609 20.3499H40.2359C40.7447 20.3499 41.1609 19.9337 41.1609 19.4249ZM35.5647 17.1032L36.5359 18.2733L37.9697 16.4279C38.0622 16.3077 38.2472 16.3077 38.3397 16.4325L39.9631 18.597C39.9888 18.6314 40.0045 18.6722 40.0084 18.715C40.0122 18.7578 40.0041 18.8008 39.9849 18.8392C39.9657 18.8776 39.9362 18.9099 39.8996 18.9325C39.8631 18.9551 39.821 18.967 39.7781 18.967H34.2327C34.0384 18.967 33.9321 18.745 34.0523 18.5924L35.2039 17.1124C35.2918 16.9922 35.4676 16.9875 35.5647 17.1032Z" fill="#6A83B6"/>
<rect y="44.375" width="74" height="32.375" rx="1.3875" fill="#C4D7FD"/>
<path d="M41.1609 63.7999V57.3249C41.1609 56.8162 40.7447 56.3999 40.2359 56.3999H33.7609C33.2522 56.3999 32.8359 56.8162 32.8359 57.3249V63.7999C32.8359 64.3087 33.2522 64.7249 33.7609 64.7249H40.2359C40.7447 64.7249 41.1609 64.3087 41.1609 63.7999ZM35.5647 61.4782L36.5359 62.6483L37.9697 60.8029C38.0622 60.6827 38.2472 60.6827 38.3397 60.8075L39.9631 62.972C39.9888 63.0064 40.0045 63.0472 40.0084 63.09C40.0122 63.1328 40.0041 63.1758 39.9849 63.2142C39.9657 63.2526 39.9362 63.2849 39.8996 63.3075C39.8631 63.3301 39.821 63.342 39.7781 63.342H34.2327C34.0384 63.342 33.9321 63.12 34.0523 62.9674L35.2039 61.4874C35.2918 61.3672 35.4676 61.3625 35.5647 61.4782Z" fill="#6A83B6"/>
<rect y="88.75" width="74" height="32.375" rx="1.3875" fill="#C4D7FD"/>
<path d="M41.1609 108.175V101.7C41.1609 101.191 40.7447 100.775 40.2359 100.775H33.7609C33.2522 100.775 32.8359 101.191 32.8359 101.7V108.175C32.8359 108.684 33.2522 109.1 33.7609 109.1H40.2359C40.7447 109.1 41.1609 108.684 41.1609 108.175ZM35.5647 105.853L36.5359 107.023L37.9697 105.178C38.0622 105.058 38.2472 105.058 38.3397 105.183L39.9631 107.347C39.9888 107.381 40.0045 107.422 40.0084 107.465C40.0122 107.508 40.0041 107.551 39.9849 107.589C39.9657 107.628 39.9362 107.66 39.8996 107.682C39.8631 107.705 39.821 107.717 39.7781 107.717H34.2327C34.0384 107.717 33.9321 107.495 34.0523 107.342L35.2039 105.862C35.2918 105.742 35.4676 105.738 35.5647 105.853Z" fill="#6A83B6"/>
<rect x="86" width="74" height="32.375" rx="1.3875" fill="#C4D7FD"/>
<path d="M127.161 19.4249V12.9499C127.161 12.4412 126.745 12.0249 126.236 12.0249H119.761C119.252 12.0249 118.836 12.4412 118.836 12.9499V19.4249C118.836 19.9337 119.252 20.3499 119.761 20.3499H126.236C126.745 20.3499 127.161 19.9337 127.161 19.4249ZM121.565 17.1032L122.536 18.2733L123.97 16.4279C124.062 16.3077 124.247 16.3077 124.34 16.4325L125.963 18.597C125.989 18.6314 126.005 18.6722 126.008 18.715C126.012 18.7578 126.004 18.8008 125.985 18.8392C125.966 18.8776 125.936 18.9099 125.9 18.9325C125.863 18.9551 125.821 18.967 125.778 18.967H120.233C120.038 18.967 119.932 18.745 120.052 18.5924L121.204 17.1124C121.292 16.9922 121.468 16.9875 121.565 17.1032Z" fill="#6A83B6"/>
<rect x="86" y="44.375" width="74" height="32.375" rx="1.3875" fill="#C4D7FD"/>
<path d="M127.161 63.7999V57.3249C127.161 56.8162 126.745 56.3999 126.236 56.3999H119.761C119.252 56.3999 118.836 56.8162 118.836 57.3249V63.7999C118.836 64.3087 119.252 64.7249 119.761 64.7249H126.236C126.745 64.7249 127.161 64.3087 127.161 63.7999ZM121.565 61.4782L122.536 62.6483L123.97 60.8029C124.062 60.6827 124.247 60.6827 124.34 60.8075L125.963 62.972C125.989 63.0064 126.005 63.0472 126.008 63.09C126.012 63.1328 126.004 63.1758 125.985 63.2142C125.966 63.2526 125.936 63.2849 125.9 63.3075C125.863 63.3301 125.821 63.342 125.778 63.342H120.233C120.038 63.342 119.932 63.12 120.052 62.9674L121.204 61.4874C121.292 61.3672 121.468 61.3625 121.565 61.4782Z" fill="#6A83B6"/>
<rect x="86" y="88.75" width="74" height="32.375" rx="1.3875" fill="#C4D7FD"/>
<path d="M127.161 108.175V101.7C127.161 101.191 126.745 100.775 126.236 100.775H119.761C119.252 100.775 118.836 101.191 118.836 101.7V108.175C118.836 108.684 119.252 109.1 119.761 109.1H126.236C126.745 109.1 127.161 108.684 127.161 108.175ZM121.565 105.853L122.536 107.023L123.97 105.178C124.062 105.058 124.247 105.058 124.34 105.183L125.963 107.347C125.989 107.381 126.005 107.422 126.008 107.465C126.012 107.508 126.004 107.551 125.985 107.589C125.966 107.628 125.936 107.66 125.9 107.682C125.863 107.705 125.821 107.717 125.778 107.717H120.233C120.038 107.717 119.932 107.495 120.052 107.342L121.204 105.862C121.292 105.742 121.468 105.738 121.565 105.853Z" fill="#6A83B6"/>
</svg>
