<svg width="247" height="247" viewBox="0 0 247 247" fill="none" xmlns="http://www.w3.org/2000/svg">
<circle cx="123.5" cy="123.5" r="123.5" fill="#EEF2FF" fill-opacity="0.52"/>
<path d="M125.138 63.2659L120.745 64.4065L66.6266 78.4592L62.234 79.5998C60.1018 80.156 58.2759 81.5411 57.1567 83.4512C56.0375 85.3614 55.7165 87.6405 56.2641 89.7887L75.3117 164.162C75.8641 166.309 77.2397 168.147 79.1367 169.274C81.0337 170.401 83.2971 170.724 85.4305 170.173L85.4419 170.17L148.323 153.842L148.334 153.839C150.466 153.283 152.292 151.898 153.412 149.988C154.531 148.078 154.852 145.798 154.304 143.65L135.257 69.2771C134.704 67.1302 133.329 65.2916 131.432 64.1647C129.535 63.0377 127.271 62.7145 125.138 63.2659Z" fill="#CCD4FE"/>
<path d="M125.735 65.5979L120.532 66.9489L68.0336 80.5808L62.8309 81.9318C61.3125 82.3279 60.0122 83.3142 59.2152 84.6745C58.4182 86.0347 58.1896 87.6578 58.5795 89.1875L77.6271 163.561C78.0205 165.09 79.0001 166.399 80.351 167.201C81.7019 168.004 83.3137 168.234 84.833 167.841L84.8443 167.838L147.725 151.51L147.737 151.507C149.255 151.111 150.555 150.125 151.352 148.765C152.149 147.405 152.378 145.782 151.988 144.252L132.941 69.8786C132.547 68.3498 131.568 67.0405 130.217 66.238C128.866 65.4355 127.254 65.2053 125.735 65.5979Z" fill="white"/>
<path d="M121.806 89.682L89.9965 97.9419C89.6412 98.0342 89.2641 97.9805 88.948 97.7928C88.632 97.6051 88.403 97.2986 88.3114 96.9409C88.2198 96.5832 88.2731 96.2034 88.4595 95.8852C88.6459 95.567 88.9503 95.3364 89.3056 95.2442L121.116 86.9843C121.471 86.8924 121.848 86.9462 122.163 87.134C122.479 87.3217 122.708 87.6281 122.799 87.9856C122.891 88.3431 122.838 88.7226 122.652 89.0407C122.465 89.3588 122.161 89.5895 121.806 89.682Z" fill="#F2F2F2"/>
<path d="M128.498 92.7995L91.1625 102.494C90.8072 102.587 90.4301 102.533 90.1141 102.345C89.798 102.157 89.569 101.851 89.4774 101.493C89.3858 101.136 89.4391 100.756 89.6255 100.438C89.8119 100.119 90.1163 99.8888 90.4716 99.7966L127.807 90.1018C128.163 90.0095 128.54 90.0631 128.856 90.2509C129.172 90.4386 129.401 90.745 129.493 91.1028C129.584 91.4605 129.531 91.8403 129.344 92.1585C129.158 92.4767 128.854 92.7072 128.498 92.7995Z" fill="#F2F2F2"/>
<path d="M127.031 110.084L95.2211 118.344C95.0452 118.389 94.862 118.4 94.6821 118.374C94.5022 118.348 94.3291 118.287 94.1727 118.194C94.0162 118.102 93.8794 117.978 93.7702 117.832C93.661 117.686 93.5814 117.52 93.536 117.343C93.4906 117.165 93.4804 116.981 93.5058 116.8C93.5312 116.619 93.5918 116.444 93.6841 116.287C93.7764 116.129 93.8986 115.992 94.0438 115.882C94.189 115.772 94.3542 115.692 94.5302 115.646L126.34 107.386C126.516 107.34 126.699 107.33 126.879 107.355C127.059 107.381 127.232 107.442 127.389 107.535C127.545 107.628 127.682 107.751 127.791 107.897C127.9 108.043 127.98 108.21 128.025 108.387C128.071 108.564 128.081 108.748 128.055 108.93C128.03 109.111 127.969 109.285 127.877 109.443C127.785 109.6 127.663 109.738 127.517 109.848C127.372 109.958 127.207 110.038 127.031 110.084Z" fill="#F2F2F2"/>
<path d="M133.723 113.201L96.3871 122.896C96.2112 122.941 96.028 122.952 95.8481 122.926C95.6683 122.901 95.4951 122.84 95.3387 122.747C95.1822 122.654 95.0454 122.531 94.9362 122.384C94.827 122.238 94.7474 122.072 94.702 121.895C94.6567 121.718 94.6464 121.533 94.6718 121.352C94.6972 121.171 94.7578 120.997 94.8501 120.839C94.9424 120.681 95.0647 120.544 95.2098 120.434C95.355 120.324 95.5203 120.244 95.6962 120.198L133.032 110.503C133.387 110.411 133.764 110.464 134.081 110.652C134.397 110.84 134.626 111.146 134.717 111.504C134.809 111.862 134.755 112.242 134.569 112.56C134.383 112.878 134.078 113.109 133.723 113.201Z" fill="#F2F2F2"/>
<path d="M132.257 130.485L100.447 138.745C100.092 138.837 99.7146 138.783 99.3988 138.595C99.083 138.408 98.8542 138.101 98.7626 137.744C98.671 137.386 98.7242 137.007 98.9104 136.688C99.0967 136.37 99.4007 136.14 99.7558 136.047L131.566 127.787C131.921 127.695 132.298 127.749 132.614 127.936C132.93 128.124 133.159 128.431 133.251 128.788C133.343 129.146 133.289 129.526 133.103 129.844C132.916 130.162 132.612 130.393 132.257 130.485Z" fill="#F2F2F2"/>
<path d="M138.949 133.603L101.613 143.298C101.437 143.343 101.254 143.354 101.074 143.328C100.894 143.303 100.72 143.242 100.564 143.149C100.407 143.056 100.27 142.933 100.161 142.787C100.052 142.641 99.972 142.474 99.9266 142.297C99.8813 142.12 99.871 141.935 99.8965 141.754C99.9219 141.573 99.9826 141.398 100.075 141.241C100.167 141.083 100.29 140.945 100.435 140.835C100.58 140.725 100.746 140.645 100.922 140.6L138.258 130.905C138.613 130.813 138.99 130.866 139.306 131.054C139.622 131.242 139.851 131.548 139.943 131.906C140.035 132.264 139.981 132.643 139.795 132.962C139.608 133.28 139.304 133.51 138.949 133.603Z" fill="#F2F2F2"/>
<path d="M84.5657 106.411L73.3084 109.334C73.1381 109.378 72.9574 109.353 72.8059 109.263C72.6544 109.173 72.5446 109.026 72.5005 108.854L69.9164 98.7645C69.8726 98.593 69.8983 98.411 69.9876 98.2585C70.077 98.106 70.2228 97.9954 70.3931 97.951L81.6503 95.0278C81.8207 94.9838 82.0014 95.0096 82.1529 95.0996C82.3044 95.1896 82.4142 95.3364 82.4583 95.5078L85.0424 105.598C85.0861 105.769 85.0605 105.951 84.9711 106.104C84.8818 106.256 84.736 106.367 84.5657 106.411Z" fill="#E6E6E6"/>
<path d="M89.7913 126.813L78.534 129.736C78.3637 129.78 78.1829 129.754 78.0315 129.664C77.88 129.574 77.7701 129.427 77.726 129.256L75.1419 119.166C75.0982 118.994 75.1239 118.812 75.2132 118.66C75.3026 118.507 75.4484 118.397 75.6186 118.352L86.8759 115.429C87.0462 115.385 87.227 115.411 87.3785 115.501C87.5299 115.591 87.6398 115.738 87.6839 115.909L90.268 125.999C90.3117 126.171 90.2861 126.353 90.1967 126.505C90.1073 126.658 89.9615 126.768 89.7913 126.813Z" fill="#E6E6E6"/>
<path d="M95.0159 147.215L83.7586 150.138C83.5883 150.182 83.4076 150.156 83.2561 150.066C83.1046 149.976 82.9948 149.829 82.9507 149.658L80.3666 139.568C80.3228 139.396 80.3485 139.214 80.4378 139.062C80.5272 138.909 80.673 138.799 80.8433 138.754L92.1005 135.831C92.2709 135.787 92.4516 135.813 92.6031 135.903C92.7546 135.993 92.8644 136.14 92.9085 136.311L95.4926 146.401C95.5363 146.572 95.5107 146.754 95.4213 146.907C95.332 147.06 95.1862 147.17 95.0159 147.215Z" fill="#E6E6E6"/>
<path d="M169.01 82.1187H104.049C101.846 82.1211 99.7346 83.0033 98.1772 84.5715C96.6197 86.1397 95.7437 88.2659 95.7412 90.4837V167.29C95.7437 169.508 96.6197 171.634 98.1772 173.202C99.7346 174.77 101.846 175.653 104.049 175.655H169.01C171.213 175.653 173.325 174.77 174.882 173.202C176.44 171.634 177.316 169.508 177.318 167.29V90.4837C177.316 88.2659 176.44 86.1397 174.882 84.5715C173.325 83.0033 171.213 82.1211 169.01 82.1187Z" fill="#CCD4FE"/>
<path d="M169.011 84.5269H104.049C102.48 84.5286 100.977 85.1568 99.8675 86.2736C98.7584 87.3903 98.1346 88.9045 98.1328 90.4838V167.29C98.1346 168.869 98.7584 170.384 99.8675 171.5C100.977 172.617 102.48 173.245 104.049 173.247H169.011C170.579 173.245 172.083 172.617 173.192 171.5C174.301 170.384 174.925 168.869 174.927 167.29V90.4838C174.925 88.9045 174.301 87.3903 173.192 86.2736C172.083 85.1568 170.579 84.5286 169.011 84.5269Z" fill="white"/>
<path d="M173.165 101.54C181.541 101.54 188.33 94.7035 188.33 86.27C188.33 77.8366 181.541 71 173.165 71C164.79 71 158 77.8366 158 86.27C158 94.7035 164.79 101.54 173.165 101.54Z" fill="#99A8FF"/>
<path d="M180.417 84.2782H175.143V78.9668C175.143 78.4386 174.934 77.932 174.563 77.5585C174.192 77.1849 173.689 76.9751 173.165 76.9751C172.64 76.9751 172.137 77.1849 171.766 77.5585C171.395 77.932 171.186 78.4386 171.186 78.9668V84.2782H165.912C165.387 84.2782 164.884 84.488 164.513 84.8615C164.142 85.2351 163.934 85.7417 163.934 86.2699C163.934 86.7982 164.142 87.3048 164.513 87.6783C164.884 88.0518 165.387 88.2617 165.912 88.2617H171.186V93.573C171.186 94.1012 171.395 94.6078 171.766 94.9814C172.137 95.3549 172.64 95.5647 173.165 95.5647C173.689 95.5647 174.192 95.3549 174.563 94.9814C174.934 94.6078 175.143 94.1012 175.143 93.573V88.2617H180.417C180.942 88.2617 181.445 88.0518 181.816 87.6783C182.187 87.3048 182.396 86.7982 182.396 86.2699C182.396 85.7417 182.187 85.2351 181.816 84.8615C181.445 84.488 180.942 84.2782 180.417 84.2782Z" fill="white"/>
<path d="M159.234 126.732H126.383C126.201 126.732 126.021 126.696 125.853 126.626C125.685 126.556 125.532 126.454 125.404 126.324C125.275 126.195 125.173 126.041 125.104 125.872C125.034 125.703 124.998 125.522 124.998 125.339C124.998 125.156 125.034 124.974 125.104 124.805C125.173 124.636 125.275 124.483 125.404 124.353C125.532 124.224 125.685 124.121 125.853 124.051C126.021 123.981 126.201 123.946 126.383 123.946H159.234C159.6 123.946 159.952 124.093 160.211 124.354C160.47 124.616 160.616 124.97 160.616 125.339C160.616 125.708 160.47 126.062 160.211 126.323C159.952 126.584 159.6 126.731 159.234 126.732Z" fill="#E6E6E6"/>
<path d="M164.94 131.433H126.383C126.201 131.433 126.021 131.397 125.853 131.327C125.685 131.257 125.532 131.155 125.404 131.026C125.275 130.896 125.173 130.743 125.104 130.573C125.034 130.404 124.998 130.223 124.998 130.04C124.998 129.857 125.034 129.676 125.104 129.507C125.173 129.337 125.275 129.184 125.404 129.054C125.532 128.925 125.685 128.822 125.853 128.753C126.021 128.683 126.201 128.647 126.383 128.647H164.94C165.307 128.647 165.659 128.794 165.919 129.055C166.178 129.316 166.324 129.671 166.324 130.04C166.324 130.409 166.178 130.764 165.919 131.025C165.659 131.286 165.307 131.433 164.94 131.433Z" fill="#E6E6E6"/>
<path d="M159.234 147.801H126.383C126.201 147.801 126.021 147.765 125.853 147.695C125.685 147.625 125.532 147.523 125.404 147.393C125.275 147.264 125.173 147.11 125.104 146.941C125.034 146.772 124.998 146.591 124.998 146.408C124.998 146.225 125.034 146.043 125.104 145.874C125.173 145.705 125.275 145.551 125.404 145.422C125.532 145.293 125.685 145.19 125.853 145.12C126.021 145.05 126.201 145.014 126.383 145.015H159.234C159.601 145.015 159.953 145.161 160.212 145.423C160.471 145.684 160.617 146.038 160.617 146.408C160.617 146.777 160.471 147.131 160.212 147.393C159.953 147.654 159.601 147.801 159.234 147.801Z" fill="#E6E6E6"/>
<path d="M164.94 152.502H126.383C126.201 152.503 126.021 152.467 125.853 152.397C125.685 152.327 125.532 152.224 125.404 152.095C125.275 151.966 125.173 151.812 125.104 151.643C125.034 151.474 124.998 151.292 124.998 151.109C124.998 150.926 125.034 150.745 125.104 150.576C125.173 150.407 125.275 150.253 125.404 150.124C125.532 149.994 125.685 149.892 125.853 149.822C126.021 149.752 126.201 149.716 126.383 149.716H164.94C165.122 149.716 165.302 149.752 165.47 149.822C165.638 149.892 165.791 149.994 165.92 150.124C166.048 150.253 166.15 150.407 166.22 150.576C166.29 150.745 166.325 150.926 166.325 151.109C166.325 151.292 166.29 151.474 166.22 151.643C166.15 151.812 166.048 151.966 165.92 152.095C165.791 152.224 165.638 152.327 165.47 152.397C165.302 152.467 165.122 152.503 164.94 152.502Z" fill="#E6E6E6"/>
<path d="M119.024 133.567H107.399C107.223 133.567 107.054 133.497 106.93 133.372C106.805 133.246 106.736 133.077 106.735 132.899V122.479C106.736 122.302 106.805 122.133 106.93 122.007C107.054 121.882 107.223 121.812 107.399 121.812H119.024C119.2 121.812 119.369 121.882 119.493 122.007C119.617 122.133 119.687 122.302 119.688 122.479V132.899C119.687 133.077 119.617 133.246 119.493 133.372C119.369 133.497 119.2 133.567 119.024 133.567Z" fill="#E6E6E6"/>
<path d="M119.024 154.636H107.399C107.223 154.636 107.054 154.566 106.93 154.44C106.805 154.315 106.736 154.145 106.735 153.968V143.548C106.736 143.371 106.805 143.201 106.93 143.076C107.054 142.951 107.223 142.881 107.399 142.88H119.024C119.2 142.881 119.369 142.951 119.493 143.076C119.617 143.201 119.687 143.371 119.688 143.548V153.968C119.687 154.145 119.617 154.315 119.493 154.44C119.369 154.566 119.2 154.636 119.024 154.636Z" fill="#E6E6E6"/>
<path d="M159.27 103.278H135.05C134.684 103.278 134.332 103.131 134.072 102.87C133.813 102.608 133.667 102.254 133.667 101.885C133.667 101.515 133.813 101.161 134.072 100.9C134.332 100.638 134.684 100.492 135.05 100.492H159.27C159.637 100.492 159.989 100.638 160.248 100.9C160.508 101.161 160.653 101.515 160.653 101.885C160.653 102.254 160.508 102.608 160.248 102.87C159.989 103.131 159.637 103.278 159.27 103.278Z" fill="#E6E6E6"/>
<path d="M164.977 107.979H135.05C134.869 107.979 134.689 107.943 134.521 107.873C134.353 107.803 134.201 107.7 134.072 107.571C133.944 107.442 133.842 107.288 133.772 107.119C133.703 106.95 133.667 106.769 133.667 106.586C133.667 106.403 133.703 106.222 133.772 106.053C133.842 105.884 133.944 105.73 134.072 105.601C134.201 105.472 134.353 105.369 134.521 105.299C134.689 105.229 134.869 105.193 135.05 105.193H164.977C165.344 105.193 165.695 105.34 165.955 105.601C166.214 105.862 166.36 106.216 166.36 106.586C166.36 106.955 166.214 107.31 165.955 107.571C165.695 107.832 165.344 107.979 164.977 107.979Z" fill="#E6E6E6"/>
<path d="M129.69 113.676H107.362C107.186 113.676 107.017 113.606 106.893 113.481C106.768 113.355 106.698 113.186 106.698 113.008V95.4619C106.698 95.2848 106.768 95.115 106.893 94.9898C107.017 94.8646 107.186 94.7941 107.362 94.7939H129.69C129.866 94.7941 130.034 94.8646 130.159 94.9898C130.283 95.115 130.353 95.2848 130.353 95.4619V113.008C130.353 113.186 130.283 113.355 130.159 113.481C130.034 113.606 129.866 113.676 129.69 113.676Z" fill="#99A8FF"/>
</svg>
