<svg width="160" height="70" viewBox="0 0 160 70" fill="none" xmlns="http://www.w3.org/2000/svg">
<rect width="160" height="70" rx="3" fill="#C4D7FD"/>
<path d="M89 42V28C89 26.9 88.1 26 87 26H73C71.9 26 71 26.9 71 28V42C71 43.1 71.9 44 73 44H87C88.1 44 89 43.1 89 42ZM76.9 36.98L79 39.51L82.1 35.52C82.3 35.26 82.7 35.26 82.9 35.53L86.41 40.21C86.4657 40.2843 86.4996 40.3726 86.508 40.4651C86.5163 40.5576 86.4987 40.6506 86.4572 40.7336C86.4157 40.8167 86.3519 40.8865 86.2729 40.9353C86.1939 40.9841 86.1029 41.01 86.01 41.01H74.02C73.6 41.01 73.37 40.53 73.63 40.2L76.12 37C76.31 36.74 76.69 36.73 76.9 36.98Z" fill="#6A83B6"/>
</svg>
