<svg width="18" height="14" viewBox="0 0 18 14" fill="none" xmlns="http://www.w3.org/2000/svg">
<path d="M15.8604 5.47478C15.7266 5.47478 15.5942 5.49267 15.4652 5.52418C15.1018 4.62698 14.5063 3.84995 13.7541 3.26303L14.4412 1.7605L15.3138 2.15969C15.3678 2.18426 15.4244 2.19601 15.4802 2.19601C15.6321 2.19601 15.7774 2.10896 15.8447 1.9621C15.9368 1.76103 15.8481 1.52311 15.6471 1.43126L14.4115 0.866237C14.411 0.86597 14.4107 0.865703 14.4102 0.865435C14.4097 0.865168 14.4091 0.865169 14.4086 0.864901L13.1726 0.299614C12.9712 0.208026 12.7336 0.296143 12.6417 0.497211C12.5496 0.698279 12.6382 0.936197 12.8393 1.02805L13.7127 1.42752L13.0799 2.8115C12.2879 2.36397 11.3758 2.10549 10.4033 2.10549H7.65027C6.6775 2.10549 5.76562 2.36397 4.97363 2.81123L4.34079 1.42725L5.21368 1.02805C5.41475 0.93593 5.50314 0.698279 5.41128 0.497211C5.31916 0.296143 5.08151 0.207492 4.88044 0.299614L2.40594 1.43126C2.20487 1.52338 2.11649 1.76103 2.20834 1.9621C2.27563 2.10923 2.42089 2.19601 2.57283 2.19601C2.62837 2.19601 2.68525 2.18426 2.73918 2.15969L3.61208 1.7605L4.2994 3.26303C3.54693 3.85022 2.95147 4.62698 2.58778 5.52445C2.45881 5.49294 2.3261 5.47505 2.19232 5.47505C1.27376 5.47505 0.526367 6.22245 0.526367 7.141V8.21657C0.526367 9.13513 1.27376 9.88252 2.19232 9.88252C2.3261 9.88252 2.45881 9.86463 2.58778 9.83286C3.399 11.8347 5.36055 13.2521 7.65 13.2521H10.4027C12.6919 13.2521 14.654 11.835 15.465 9.83313C15.5939 9.86437 15.7264 9.88252 15.8601 9.88252C16.7787 9.88252 17.5264 9.13513 17.5264 8.21657V7.141C17.5266 6.22218 16.779 5.47478 15.8604 5.47478ZM2.19232 9.08146C1.71542 9.08146 1.32744 8.69347 1.32744 8.21657V7.141C1.32744 6.6641 1.71542 6.27612 2.19232 6.27612C2.24332 6.27612 2.29326 6.28706 2.34292 6.29588C2.24493 6.70496 2.18725 7.12952 2.18725 7.56824V7.78987C2.18725 8.22859 2.24493 8.65289 2.34292 9.06196C2.29326 9.07078 2.24359 9.08146 2.19232 9.08146ZM10.4027 12.451H7.65027C5.07991 12.451 2.98858 10.36 2.98858 7.7896V7.56797C2.98858 4.99761 5.07991 2.90629 7.65027 2.90629H10.403C12.9734 2.90629 15.0647 4.99761 15.0647 7.56797V7.7896C15.0644 10.36 12.9731 12.451 10.4027 12.451ZM16.7256 8.21657C16.7256 8.69347 16.3376 9.08146 15.8604 9.08146C15.8094 9.08146 15.7597 9.07078 15.7101 9.06196C15.8081 8.65289 15.8658 8.22832 15.8658 7.7896V7.56797C15.8658 7.12899 15.8081 6.70469 15.7101 6.29561C15.76 6.2868 15.8094 6.27585 15.8604 6.27585C16.3376 6.27585 16.7256 6.66383 16.7256 7.14074V8.21657Z" fill="#F5AD21"/>
<path d="M7.05505 6.94755C7.15492 6.94755 7.25479 6.91043 7.33249 6.83593C7.49217 6.68266 7.49724 6.42926 7.34397 6.26958L6.25372 5.13446C6.25158 5.13233 6.24865 5.13153 6.24651 5.12939C6.24464 5.12752 6.24411 5.12485 6.24224 5.12325C6.22515 5.10643 6.20325 5.09922 6.18403 5.08613C6.16106 5.07065 6.1397 5.05222 6.1146 5.04181C6.09164 5.03246 6.06707 5.03113 6.04304 5.02632C6.0166 5.02098 5.99124 5.01243 5.96427 5.0127C5.94077 5.0127 5.91887 5.02045 5.89564 5.02445C5.86787 5.02952 5.84037 5.03139 5.81393 5.04207C5.79177 5.05115 5.77335 5.06798 5.75252 5.08106C5.73062 5.09494 5.70659 5.10402 5.6871 5.12271C5.68496 5.12485 5.68416 5.12779 5.68202 5.12992C5.68015 5.13179 5.67748 5.13233 5.67562 5.13446L4.58536 6.26931C4.43209 6.42872 4.43716 6.68239 4.59658 6.83567C4.67428 6.91016 4.77415 6.94755 4.87401 6.94755C4.97922 6.94755 5.08416 6.90643 5.16293 6.82445L5.96427 5.99027L6.7656 6.82472C6.84491 6.90643 6.94985 6.94755 7.05505 6.94755Z" fill="#F5AD21"/>
<path d="M13.4669 6.26957L12.3769 5.13446C12.3748 5.13232 12.3718 5.13152 12.37 5.12938C12.3681 5.12752 12.3673 5.12484 12.3654 5.12324C12.3483 5.10669 12.3267 5.09948 12.3077 5.08639C12.2842 5.07064 12.2629 5.05221 12.2375 5.0418C12.2148 5.03272 12.1911 5.03139 12.1673 5.02658C12.1403 5.02097 12.1144 5.0127 12.0869 5.0127C12.0639 5.0127 12.0423 5.02044 12.0196 5.02444C11.9919 5.02952 11.9635 5.03139 11.9368 5.04233C11.9144 5.05141 11.896 5.06824 11.8754 5.08132C11.8535 5.09521 11.8295 5.10428 11.8103 5.12271C11.8081 5.12485 11.8073 5.12778 11.8052 5.12965C11.8033 5.13152 11.8004 5.13232 11.7988 5.13419L10.7083 6.26904C10.5553 6.42845 10.5601 6.68212 10.7198 6.83539C10.7975 6.91016 10.8973 6.94701 10.9972 6.94701C11.1024 6.94701 11.2073 6.90589 11.2861 6.82391L12.0877 5.98973L12.8888 6.82391C12.9676 6.90589 13.0725 6.94701 13.1777 6.94701C13.2776 6.94701 13.3774 6.90989 13.4551 6.83539C13.6151 6.68266 13.6199 6.42925 13.4669 6.26957Z" fill="#F5AD21"/>
<path d="M10.6282 9.50659H7.42397C7.20261 9.50659 7.02344 9.68603 7.02344 9.90713C7.02344 10.1282 7.20261 10.3077 7.42397 10.3077H10.6282C10.8493 10.3077 11.0288 10.1282 11.0288 9.90713C11.0288 9.68603 10.8493 9.50659 10.6282 9.50659Z" fill="#F5AD21"/>
</svg>
