<svg width="40" height="40" viewBox="0 0 40 40" fill="none" xmlns="http://www.w3.org/2000/svg">
<mask id="mask0_412_10497" style="mask-type:alpha" maskUnits="userSpaceOnUse" x="0" y="0" width="40" height="40">
<rect width="40" height="40" fill="#D9D9D9"/>
</mask>
<g mask="url(#mask0_412_10497)">
<path d="M14.6667 36.3333H24.6667C33 36.3333 36.3333 33 36.3333 24.6667V14.6667C36.3333 6.33333 33 3 24.6667 3H14.6667C6.33333 3 3 6.33333 3 14.6667V24.6667C3 33 6.33333 36.3333 14.6667 36.3333Z" stroke="#292D32" stroke-width="1.8" stroke-linecap="round" stroke-linejoin="round"/>
<path d="M29 24.5101V13.6623C29 12.5761 28.1254 11.7862 27.0533 11.8708H26.9969C25.1067 12.026 22.2431 12.9993 20.6349 14.0009L20.4798 14.0997C20.2259 14.2548 19.7885 14.2548 19.5205 14.0997L19.2948 13.9586C17.7008 12.957 14.8372 12.0119 12.9469 11.8567C11.8748 11.7721 11.0002 12.5762 11.0002 13.6482V24.5101C11.0002 25.3706 11.7055 26.1888 12.566 26.2875L12.8199 26.3299C14.7666 26.5838 17.7855 27.5853 19.5064 28.5305L19.5487 28.5446C19.7885 28.6856 20.1835 28.6856 20.4092 28.5446C22.1302 27.5853 25.163 26.5979 27.1238 26.3299L27.4201 26.2875C28.2947 26.1888 29 25.3847 29 24.5101Z" stroke="#292D32" stroke-width="1.5" stroke-linecap="round" stroke-linejoin="round"/>
<path d="M20 14.3955V27.8812" stroke="#292D32" stroke-width="1.5" stroke-linecap="round" stroke-linejoin="round"/>
</g>
</svg>
