<svg width="17" height="15" viewBox="0 0 17 15" fill="none" xmlns="http://www.w3.org/2000/svg">
<path d="M15.6665 0.95H1.59139C1.40261 0.95 1.24141 1.01315 1.12728 1.12728C1.01314 1.24141 0.95 1.40261 0.95 1.59139V13.9676C0.95 14.1564 1.01314 14.3176 1.12728 14.4317C1.24141 14.5459 1.40261 14.609 1.59139 14.609H15.6665C15.8553 14.609 16.0165 14.5459 16.1307 14.4317C16.2448 14.3176 16.3079 14.1564 16.3079 13.9676V1.59139C16.3079 1.20575 15.9865 0.95 15.6665 0.95ZM15.0251 13.3262H2.23279V2.23279H15.0251V13.3262Z" fill="#4F8AFF" stroke="#4F8AFF" stroke-width="0.1"/>
<path d="M9.2203 6.474H13.36C13.5488 6.474 13.71 6.41085 13.8242 6.29672C13.9383 6.18259 14.0014 6.02138 14.0014 5.8326C14.0014 5.64382 13.9383 5.48262 13.8242 5.36849C13.71 5.25436 13.5488 5.19121 13.36 5.19121H9.2203C9.03152 5.19121 8.87032 5.25436 8.75618 5.36849C8.64205 5.48262 8.57891 5.64382 8.57891 5.8326C8.57891 6.02138 8.64205 6.18259 8.75618 6.29672C8.87032 6.41085 9.03152 6.474 9.2203 6.474Z" fill="#4F8AFF" stroke="#4F8AFF" stroke-width="0.1"/>
<path d="M9.2203 10.6732H13.36C13.5488 10.6732 13.71 10.6101 13.8242 10.4959C13.9383 10.3818 14.0014 10.2206 14.0014 10.0318C14.0014 9.84304 13.9383 9.68184 13.8242 9.56771C13.71 9.45357 13.5488 9.39043 13.36 9.39043H9.2203C9.03152 9.39043 8.87032 9.45357 8.75618 9.56771C8.64205 9.68184 8.57891 9.84304 8.57891 10.0318C8.57891 10.2206 8.64205 10.3818 8.75618 10.4959C8.87032 10.6101 9.03152 10.6732 9.2203 10.6732Z" fill="#4F8AFF" stroke="#4F8AFF" stroke-width="0.1"/>
<path d="M4.57006 11.602L4.56997 11.6021L4.57244 11.6045C4.63453 11.6666 4.69861 11.7152 4.7723 11.7479C4.8462 11.7808 4.92722 11.7966 5.02177 11.7966C5.14386 11.7966 5.22656 11.7814 5.29547 11.747C5.36191 11.7137 5.41134 11.6643 5.46787 11.6078L5.4711 11.6045L7.83667 9.23897C8.09275 8.98288 8.09275 8.59639 7.83667 8.3403C7.58059 8.08422 7.19409 8.08422 6.93801 8.3403L6.938 8.3403L6.93747 8.34085L5.08298 10.2533L4.34988 9.40742L4.34998 9.40734L4.34745 9.40481C4.09833 9.15569 3.71118 9.08329 3.44879 9.34567C3.20007 9.59439 3.1275 9.98071 3.38839 10.2431L4.57006 11.602Z" fill="#4F8AFF" stroke="#4F8AFF" stroke-width="0.1"/>
<path d="M4.57006 7.40375L4.56997 7.40383L4.57244 7.4063C4.63453 7.46839 4.69861 7.51694 4.7723 7.54969C4.8462 7.58254 4.92722 7.59836 5.02177 7.59836C5.14386 7.59836 5.22656 7.58318 5.29547 7.54872C5.36191 7.5155 5.41134 7.46607 5.46787 7.40952L5.4711 7.4063L7.83667 5.04072C8.09275 4.78464 8.09275 4.39815 7.83667 4.14206C7.58059 3.88598 7.19409 3.88598 6.93801 4.14206L6.938 4.14206L6.93747 4.14261L5.08298 6.05506L4.34988 5.20918L4.34998 5.2091L4.34745 5.20657C4.09833 4.95745 3.71118 4.88504 3.44879 5.14743C3.20007 5.39615 3.1275 5.78247 3.38839 6.04483L4.57006 7.40375Z" fill="#4F8AFF" stroke="#4F8AFF" stroke-width="0.1"/>
</svg>
