<svg xmlns="http://www.w3.org/2000/svg" id="trophy-1" width="23.189" height="23.189" viewBox="0 0 23.189 23.189">
    <defs>
        <style>
            .cls-2{fill:#474f54}.cls-4{fill:#fabe2c}
        </style>
    </defs>
    <g id="Group_7211" transform="translate(6.839 18.085)">
        <path id="Path_14383" fill="#646d73" d="M160.457 400.659l-4.7-1.359-4.7 1.359a.552.552 0 0 0-.054.258v2.808h9.511v-2.808a.552.552 0 0 0-.057-.258z" transform="translate(-151 -399.3)"/>
    </g>
    <path id="Path_14384" d="M260.756 403.725v-2.808a.552.552 0 0 0-.054-.258L256 399.3v4.425z" class="cls-2" transform="translate(-244.406 -381.215)"/>
    <path id="Path_14385" fill="#fed843" d="M22.51 1.359h-3.472c.006-.229.029-.446.029-.679a.673.673 0 0 0-.679-.68H4.8a.673.673 0 0 0-.679.679c0 .234.023.45.029.679H.679a.679.679 0 0 0-.679.68v1.721a7.141 7.141 0 0 0 6.783 7.073 6.734 6.734 0 0 0 2.759 2.32 10.151 10.151 0 0 1-2.5 6.074.482.482 0 0 0-.15.217h9.4a.483.483 0 0 0-.15-.217 10.021 10.021 0 0 1-2.5-6.074 6.752 6.752 0 0 0 2.766-2.321 7.14 7.14 0 0 0 6.777-7.072V2.038a.679.679 0 0 0-.679-.679zm-21.151 2.4V2.717h2.85A18.041 18.041 0 0 0 5.9 9.362a5.8 5.8 0 0 1-4.537-5.6zm20.472 0a5.8 5.8 0 0 1-4.533 5.6 18.115 18.115 0 0 0 1.682-6.642h2.85z"/>
    <path id="Path_14386" d="M266.915 1.359h-3.471c.006-.229.029-.446.029-.679a.673.673 0 0 0-.679-.68H256v19.443h4.7a.483.483 0 0 0-.149-.217 10.021 10.021 0 0 1-2.5-6.074 6.753 6.753 0 0 0 2.766-2.321 7.14 7.14 0 0 0 6.777-7.072V2.038a.679.679 0 0 0-.679-.679zm-.679 2.4a5.8 5.8 0 0 1-4.533 5.6 18.111 18.111 0 0 0 1.683-6.643h2.85z" class="cls-4" transform="translate(-244.406)"/>
    <g id="Trophy_31_" transform="translate(8.654 3.087)">
        <g id="Group_7212">
            <path id="Path_14387" d="M195.1 73.721l-1.084-.563-1.084.563a.679.679 0 0 1-.983-.714l.2-1.207-.869-.858a.679.679 0 0 1 .376-1.156l1.207-.182.547-1.093a.707.707 0 0 1 1.215 0l.547 1.093 1.207.182a.679.679 0 0 1 .376 1.156l-.869.858.2 1.207a.679.679 0 0 1-.983.714z" class="cls-4" transform="translate(-191.079 -68.167)"/>
        </g>
    </g>
    <path id="Path_14388" fill="#ff9100" d="M257.084 73.72a.679.679 0 0 0 .983-.714l-.2-1.207.869-.858a.679.679 0 0 0-.376-1.156l-1.207-.182-.547-1.093a.665.665 0 0 0-.608-.345v4.991z" transform="translate(-244.406 -65.079)"/>
    <g id="Group_7213" transform="translate(5.48 21.83)">
        <path id="Path_14389" d="M132.549 483.359h-10.87a.679.679 0 1 1 0-1.359h10.87a.679.679 0 1 1 0 1.359z" class="cls-2" transform="translate(-121 -482)"/>
    </g>
    <path id="Path_14390" fill="#32393f" d="M261.435 482H256v1.359h5.435a.679.679 0 1 0 0-1.359z" transform="translate(-244.406 -460.17)"/>
</svg>
