<svg xmlns="http://www.w3.org/2000/svg" width="14.254" height="16.254" viewBox="0 0 14.254 16.254">
    <defs>
        <style>
            .cls-1{fill:#fff}
        </style>
    </defs>
    <g id="Group_6471">
        <path id="Path_4957" d="M2.821 337.465H.646a.646.646 0 0 0-.646.646v6.226a.646.646 0 0 0 .646.646h2.176a.646.646 0 0 0 .646-.646v-6.226a.646.646 0 0 0-.646-.646zm0 0" class="cls-1" transform="translate(0 -328.729)"/>
        <path id="Path_4956" d="M164.17 256.676h-2.176a.646.646 0 0 0-.646.646v9.706a.646.646 0 0 0 .646.646h2.176a.646.646 0 0 0 .646-.646v-9.706a.646.646 0 0 0-.646-.646zm0 0" class="cls-1" transform="translate(-155.955 -251.421)"/>
        <path id="Path_4958" fill="#fff" d="M325.517 134.66h-2.176a.646.646 0 0 0-.646.646v14.962a.646.646 0 0 0 .646.646h2.176a.646.646 0 0 0 .646-.646v-14.962a.646.646 0 0 0-.646-.646zm0 0" opacity="0.41" transform="translate(-311.91 -134.66)"/>
    </g>
</svg>
