<svg width="20" height="27" viewBox="0 0 20 27" fill="none" xmlns="http://www.w3.org/2000/svg">
<path d="M10.0447 11.5934C13.0552 11.5934 15.4957 9.1529 15.4957 6.1424C15.4957 3.1319 13.0552 0.691406 10.0447 0.691406C7.03424 0.691406 4.59375 3.1319 4.59375 6.1424C4.59375 9.1529 7.03424 11.5934 10.0447 11.5934Z" fill="#A6D2FF"/>
<path d="M10.0429 14.2461C7.49124 14.2461 5.0441 15.2597 3.2398 17.064C1.43551 18.8683 0.421875 21.3155 0.421875 23.8671C0.421875 24.5473 0.692078 25.1996 1.17305 25.6806C1.65402 26.1616 2.30636 26.4318 2.98656 26.4318H17.0965C17.4334 26.432 17.767 26.3658 18.0784 26.237C18.3897 26.1082 18.6726 25.9193 18.9109 25.6811C19.1492 25.443 19.3382 25.1602 19.4672 24.8489C19.5962 24.5377 19.6625 24.204 19.6625 23.8671C19.6625 21.3157 18.6491 18.8688 16.8451 17.0645C15.0411 15.2602 12.5943 14.2465 10.0429 14.2461Z" fill="#4F8AFF"/>
</svg>
