<svg xmlns="http://www.w3.org/2000/svg" width="18.386" height="17.481" viewBox="0 0 18.386 17.481">
    <path fill="none" stroke="#b5bcd1" stroke-linecap="round" stroke-linejoin="round" d="M40.693 68.12c.621-2.711 2.966-4.1 8.072-4.12a.59.59 0 0 1 .44.2.723.723 0 0 1 .181.486v12.362a.656.656 0 0 1-.621.687c-4.967 0-6.886 1.108-8.072 2.747-1.179-1.631-3.1-2.747-8.072-2.747-.383 0-.621-.346-.621-.77V64.687a.723.723 0 0 1 .181-.486.59.59 0 0 1 .44-.2c5.106.024 7.451 1.408 8.072 4.119zm0 0v12.361" transform="translate(-31.5 -63.5)"/>
</svg>
