<svg xmlns="http://www.w3.org/2000/svg" width="19.386" height="16.386" viewBox="0 0 19.386 16.386">
    <defs>
        <style>
            .cls-1{fill:#b5bcd1}
        </style>
    </defs>
    <g id="writing" transform="translate(-.007 -1)">
        <path id="Path_13948" d="M19.095 6.344l-.85-.85a1.02 1.02 0 0 0-1.441 0l-1.791 1.791V2.528A1.53 1.53 0 0 0 13.485 1H1.535A1.53 1.53 0 0 0 .007 2.528v13.33a1.53 1.53 0 0 0 1.528 1.528h11.95a1.53 1.53 0 0 0 1.528-1.528v-4.042l4.082-4.031a1.02 1.02 0 0 0 0-1.441zM13 12.369l-1.532.715.714-1.531 3.8-3.8.841.841zm.991 3.489a.51.51 0 0 1-.509.509H1.535a.51.51 0 0 1-.509-.509V2.528a.51.51 0 0 1 .509-.509h11.95a.51.51 0 0 1 .509.509V8.3a28.251 28.251 0 0 0-2.694 2.741l-1.345 2.882a.509.509 0 0 0 .677.677l2.881-1.345c.106-.049.123-.08.48-.433zm3.559-7.982l-.845-.845.816-.816.85.851z" class="cls-1"/>
        <path id="Path_13949" d="M65.551 98.019h8.129a.51.51 0 1 0 0-1.019h-8.129a.51.51 0 1 0 0 1.019z" class="cls-1" transform="translate(-62.186 -92.527)"/>
        <path id="Path_13950" d="M65.551 178.019h6.38a.51.51 0 1 0 0-1.019h-6.38a.51.51 0 1 0 0 1.019z" class="cls-1" transform="translate(-62.186 -168.989)"/>
        <path id="Path_13951" d="M70.241 257h-4.685a.511.511 0 1 0 0 1.019h4.685a.511.511 0 1 0 0-1.019z" class="cls-1" transform="translate(-62.186 -245.452)"/>
    </g>
</svg>
