<svg xmlns="http://www.w3.org/2000/svg" width="19.3" height="19.3" viewBox="0 0 19.3 19.3">
    <g>
        <path fill="#b5bcd1" stroke="#b5bcd1" stroke-width="0.3px" d="M98.143 144H81.857a1.357 1.357 0 0 0-1.357 1.357v16.286A1.357 1.357 0 0 0 81.857 163h16.286a1.357 1.357 0 0 0 1.357-1.357v-16.286A1.357 1.357 0 0 0 98.143 144zm-16.286.9h16.286a.452.452 0 0 1 .452.452v1.357H81.4v-1.357a.452.452 0 0 1 .457-.452zm16.286 17.2H81.857a.452.452 0 0 1-.452-.452v-14.029H98.6v14.024a.452.452 0 0 1-.457.457zm0 0" transform="translate(-80.35 -143.85)"/>
    </g>
</svg>
