<svg xmlns="http://www.w3.org/2000/svg" width="17" height="13.997" viewBox="0 0 17 13.997">
    <defs>
        <style>
            .cls-1{fill:#fba61c}
        </style>
    </defs>
    <g id="Group_6973" transform="translate(0 -80.299)">
        <path id="Path_14034" d="M15.435 80.3H1.565A1.745 1.745 0 0 0 0 82.177v10.241A1.745 1.745 0 0 0 1.565 94.3h13.87A1.745 1.745 0 0 0 17 92.418V82.177a1.745 1.745 0 0 0-1.565-1.877zm.587 12.119a.654.654 0 0 1-.587.7H1.565a.654.654 0 0 1-.587-.7V82.177a.654.654 0 0 1 .587-.7h13.87a.654.654 0 0 1 .587.7z" class="cls-1"/>
        <path id="Path_14035" d="M282.046 164.407h-4.5a.391.391 0 0 0 0 .783h4.5a.391.391 0 0 0 0-.783z" class="cls-1" transform="translate(-267.956 -80.794)"/>
        <path id="Path_14036" d="M282.046 324.016h-4.5a.391.391 0 0 0 0 .783h4.5a.391.391 0 0 0 0-.783z" class="cls-1" transform="translate(-267.956 -233.852)"/>
        <path id="Path_14037" d="M333.726 232.58h-2.721a.391.391 0 0 0 0 .783h2.721a.391.391 0 0 0 0-.783z" class="cls-1" transform="translate(-319.637 -146.783)"/>
        <path id="Path_14038" d="M333.726 278.3h-2.721a.391.391 0 0 0 0 .783h2.721a.391.391 0 0 0 0-.783z" class="cls-1" transform="translate(-319.637 -190.316)"/>
        <path id="Path_14039" d="M108.7 144.339a2.012 2.012 0 1 0-2.012-2.012 2.014 2.014 0 0 0 2.012 2.012zm0-3.046a1.034 1.034 0 1 1-1.033 1.034 1.035 1.035 0 0 1 1.033-1.034z" class="cls-1" transform="translate(-103.144 -57.416)"/>
        <path id="Path_14040" d="M88.62 271.7h-1.545a1.964 1.964 0 0 0-1.962 1.962L85.1 275.2a.489.489 0 0 0 .978 0l.015-1.542a.985.985 0 0 1 .984-.984h1.543a.985.985 0 0 1 .984.984l-.015 1.542a.489.489 0 0 0 .978 0l.015-1.542a1.965 1.965 0 0 0-1.962-1.958z" class="cls-1" transform="translate(-82.272 -183.94)"/>
    </g>
</svg>
