<svg xmlns="http://www.w3.org/2000/svg" width="15.999" height="15.317" viewBox="0 0 15.999 15.317">
    <path fill="#fba61c" d="M19.16 3.864V2.676h-16v1.189h.566v13.144h-.565v.984h16v-.984h-.566V3.864zm-4.405 13.145h-1.673V3.864h1.673zM7.567 3.864h1.674v13.144H7.567zM6.484 17.009H4.81V3.864h1.674v13.145zm3.84-13.144H12v13.143h-1.676zm-5.514 0H3.727v13.143H4.81zm11.028 13.144V11.6h1.673v5.409zm.408-7.545a.429.429 0 1 1 .857 0 .424.424 0 0 1-.226.371l-.125.9H16.6l-.125-.9a.422.422 0 0 1-.229-.372zm1.265-1.292h-1.673V3.864h1.673z" transform="translate(-3.161 -2.676)"/>
</svg>
