<svg xmlns="http://www.w3.org/2000/svg" width="18.906" height="16.898" viewBox="0 0 18.906 16.898">
    <g>
        <path fill="#fba61c" d="M10.477 44.084a8.559 8.559 0 0 1-4.969-1.663 7.983 7.983 0 0 1-2.9-3.808c.071 0 .138-.007.2-.007a1.639 1.639 0 0 1 1.576 1.014A6.966 6.966 0 0 0 10.462 43a7.261 7.261 0 0 0 1.62-.182 7.349 7.349 0 0 0-.28-14.413 7.994 7.994 0 0 0-1.243-.1 7.309 7.309 0 0 0-7.268 5.824 2.728 2.728 0 0 0-.043.4c0 .07-.008.142-.015.222l-.03.353h1.7c.484 0 1.059 0 1.65-.016.287-.007.485-.3.578-.475.36-.676.7-1.347 1.012-1.972a.577.577 0 0 1 .55-.387c.177 0 .378.048.557.4.5.971.995 1.925 1.519 2.935l.6 1.149.287.553.289-.552.228-.431c.162-.3.314-.592.459-.883a.616.616 0 0 1 .617-.378h.917c.237 0 .433 0 .618.007a.575.575 0 0 1 .645.575.47.47 0 0 1-.487.513.848.848 0 0 1-.106-.007 2.877 2.877 0 0 0-.359-.024 1.644 1.644 0 0 0-1.659 1.308 4.294 4.294 0 0 1-.618 1.179 1.194 1.194 0 0 1-.6.42.294.294 0 0 1-.072.01c-.164 0-.305-.208-.395-.383-.507-.987-1.011-1.96-1.544-2.99L8.7 33.946l-.289.554-.216.406c-.152.282-.295.549-.422.825a.729.729 0 0 1-.763.458H.727c-.72 0-.722-.415-.723-.55s0-.537.723-.561c1.147-.038 1.276-.148 1.534-1.308v-.015a8.39 8.39 0 0 1 2.872-4.629 8.513 8.513 0 0 1 5.467-1.94c.154 0 .31 0 .465.012a8.194 8.194 0 0 1 5.1 2.221 8.352 8.352 0 0 1 2.657 4.968 8.453 8.453 0 0 1-7.511 9.651 7.45 7.45 0 0 1-.834.046z" transform="translate(-.002 -27.186)"/>
    </g>
</svg>
