<svg xmlns="http://www.w3.org/2000/svg" width="18" height="18" viewBox="0 0 18 18">
    <path fill="#b5bcd1" d="M17.473 1.3h-2.31q.013-.384.013-.772A.527.527 0 0 0 14.649 0H3.352a.527.527 0 0 0-.527.527q0 .388.013.772H.527A.527.527 0 0 0 0 1.826 11.43 11.43 0 0 0 1.739 8.1a5.5 5.5 0 0 0 4.18 2.714 5.415 5.415 0 0 0 1.142.959v2.344h-.885a1.942 1.942 0 0 0-1.94 1.94v.885H4.2A.527.527 0 1 0 4.2 18h9.6a.527.527 0 1 0 0-1.055h-.037v-.885a1.942 1.942 0 0 0-1.94-1.94h-.883v-2.343a5.411 5.411 0 0 0 1.142-.959A5.5 5.5 0 0 0 16.261 8.1 11.43 11.43 0 0 0 18 1.826a.527.527 0 0 0-.527-.526zM2.617 7.52a10.163 10.163 0 0 1-1.551-5.166H2.9a17.622 17.622 0 0 0 1.638 6.4q.211.422.44.8A5.086 5.086 0 0 1 2.617 7.52zm10.092 8.541v.885H5.291v-.885a.886.886 0 0 1 .885-.885h5.648a.886.886 0 0 1 .885.885zm-2.824-1.94h-1.77v-1.885a3.431 3.431 0 0 0 1.77 0zm.327-3.14a.513.513 0 0 0-.068.035 2.462 2.462 0 0 1-2.286 0 .525.525 0 0 0-.069-.035A4.245 4.245 0 0 1 6.6 10a.534.534 0 0 0-.067-.079A8.313 8.313 0 0 1 5.478 8.28a17.408 17.408 0 0 1-1.593-7.225h10.23a17.412 17.412 0 0 1-1.593 7.225 8.319 8.319 0 0 1-1.052 1.64.52.52 0 0 0-.07.08 4.246 4.246 0 0 1-1.189.981zm5.171-3.461a5.086 5.086 0 0 1-2.358 2.029q.229-.375.44-.8a17.625 17.625 0 0 0 1.638-6.4h1.83a10.164 10.164 0 0 1-1.55 5.171zm0 0"/>
</svg>
