<svg xmlns="http://www.w3.org/2000/svg" width="18" height="18" viewBox="0 0 18 18">
    <defs>
        <style>
            .cls-1{fill:#4f8aff}
        </style>
    </defs>
    <g id="noun_Question_1033615" transform="translate(-1.928 -1.928)">
        <g id="Group_7031" transform="translate(1.928 1.928)">
            <g id="Group_7030" transform="translate(6.35 4.068)">
                <path id="Path_14077" d="M24.068 12.178c-.206.022-.445.033-.679.074a2.843 2.843 0 0 0-1.439.675.876.876 0 0 0-.05 1.273.85.85 0 0 0 1.159 0l.093-.062a1.657 1.657 0 0 1 1.135-.291.806.806 0 0 1 .753.493.649.649 0 0 1-.285.753c-.12.1-.258.184-.388.273a1.979 1.979 0 0 0-.883 2.2c.115.388.309.591.566.591s.441-.183.553-.568a1.881 1.881 0 0 1 .678-1c.273-.209.571-.388.846-.594a1.829 1.829 0 0 0 .522-2.53 2.938 2.938 0 0 0-2.581-1.287z" class="cls-1" transform="translate(-21.647 -12.178)"/>
                <path id="Path_14078" d="M28.839 40.079a1.109 1.109 0 0 0-1.208 1.17 1.167 1.167 0 0 0 1.188 1.219 1.18 1.18 0 0 0 1.229-1.216 1.115 1.115 0 0 0-1.209-1.173z" class="cls-1" transform="translate(-26.265 -33.284)"/>
            </g>
            <path id="Path_14079" d="M10.928 1.928a8.77 8.77 0 0 0-9 8.5 8.225 8.225 0 0 0 2.412 5.79l-.357.713a2.063 2.063 0 0 0 .287 2.283l.026.03a2.072 2.072 0 0 0 2.267.552l2.705-1.015a9.574 9.574 0 0 0 1.66.145 8.77 8.77 0 0 0 9-8.5 8.77 8.77 0 0 0-9-8.498zM5.13 17.5l.791-1.582-.132-.11a7.044 7.044 0 0 1-2.579-5.381 7.489 7.489 0 0 1 7.718-7.217 7.489 7.489 0 0 1 7.718 7.217 7.489 7.489 0 0 1-7.718 7.217 8.253 8.253 0 0 1-1.707-.178l-.062-.013L6.113 18.6a.789.789 0 0 1-.983-1.1z" class="cls-1" transform="translate(-1.928 -1.928)"/>
        </g>
    </g>
</svg>
