<svg xmlns="http://www.w3.org/2000/svg" width="15.946" height="15.249" viewBox="0 0 15.946 15.249">
    <defs>
        <style>
            .cls-1{fill:#a3acc6}
        </style>
    </defs>
    <g id="Group_6518" transform="translate(-7.33 -53.763)">
        <path id="Path_13896" d="M21.651 55.85H18.33v-.788a1.3 1.3 0 0 0-1.3-1.3h-3.781a1.3 1.3 0 0 0-1.3 1.3v.788h-3a1.627 1.627 0 0 0-1.619 1.625v9.912a1.627 1.627 0 0 0 1.625 1.625h12.7a1.627 1.627 0 0 0 1.625-1.625v-9.912a1.627 1.627 0 0 0-1.629-1.625zm.462 1.625v9.912a.462.462 0 0 1-.462.462H8.955a.462.462 0 0 1-.462-.462v-9.912a.462.462 0 0 1 .462-.462h12.7c.251 0 .458.462.458.462zm-4.946-1.625h-4.054v-.786a.139.139 0 0 1 .137-.138h3.779a.138.138 0 0 1 .138.136z" class="cls-1"/>
        <path id="Path_13897" d="M183.665 208.549h-1.517v-1.509a.7.7 0 1 0-1.4 0v1.509h-1.517a.7.7 0 1 0 0 1.4h1.517v1.524a.7.7 0 1 0 1.4 0v-1.524h1.517a.7.7 0 1 0 0-1.4z" class="cls-1" transform="translate(-166.143 -146.823)"/>
    </g>
</svg>
