<svg xmlns="http://www.w3.org/2000/svg" width="19" height="16.296" viewBox="0 0 19 16.296">
    <g>
        <path fill="#4f8aff" d="M17.223 2.079h-4.715v-.52A1.561 1.561 0 0 0 10.949 0H6.791a1.561 1.561 0 0 0-1.559 1.559v.52H.52A.521.521 0 0 0 0 2.6v11.432a1.561 1.561 0 0 0 1.559 1.559h14.622a1.561 1.561 0 0 0 1.559-1.559V2.607a.5.5 0 0 0-.516-.529zm-10.952-.52a.52.52 0 0 1 .52-.52h4.158a.52.52 0 0 1 .52.52v.52h-5.2zM16.5 3.118L14.885 7.96a.519.519 0 0 1-.493.355h-2.923V7.8a.52.52 0 0 0-.52-.52H6.791a.52.52 0 0 0-.52.52v.52H3.348a.519.519 0 0 1-.493-.355L1.241 3.118zm-6.07 5.2v1.037H7.311v-1.04zm6.27 5.714a.52.52 0 0 1-.52.52H1.559a.52.52 0 0 1-.52-.52V5.8l.829 2.488a1.557 1.557 0 0 0 1.48 1.067h2.923v.52a.52.52 0 0 0 .52.52h4.158a.52.52 0 0 0 .52-.52v-.52h2.924a1.557 1.557 0 0 0 1.479-1.066L16.7 5.8zm0 0" transform="translate(-677 -829.352) translate(677 829.352)"/>
        <g stroke="#4f8aff">
            <g fill="#f6f9fc" stroke-dasharray="200" transform="translate(-677 -829.352) translate(8 80.648) translate(679 756)">
                <circle cx="4.5" cy="4.5" r="4.5" stroke="none"/>
                <circle cx="4.5" cy="4.5" r="4" fill="none"/>
            </g>
            <path fill="none" d="M6.353 0L0 5.294" transform="translate(-677 -829.352) translate(8 80.648) translate(680.324 757.853)"/>
        </g>
    </g>
</svg>
