<svg xmlns="http://www.w3.org/2000/svg" width="15.25" height="17.429" viewBox="0 0 15.25 17.429">
    <defs>
        <style>
            .cls-1{fill:#fba61c}
        </style>
    </defs>
    <g id="Group_7054" transform="translate(-4)">
        <g id="Group_7054-2" transform="translate(4)">
            <path id="Path_14092" d="M18.9 28a4.9 4.9 0 1 0 4.9 4.9 4.907 4.907 0 0 0-4.9-4.9zm0 8.714a3.812 3.812 0 1 1 3.814-3.814 3.817 3.817 0 0 1-3.814 3.814z" class="cls-1" transform="translate(-11.277 -20.375)"/>
            <path id="Path_14093" d="M26.723 36.723h-1.089a.545.545 0 1 1 0-1.089h1.634a.545.545 0 1 0 0-1.089h-.545a.545.545 0 1 0-1.089 0 1.634 1.634 0 1 0 0 3.268h1.089a.545.545 0 0 1 0 1.089h-1.634a.545.545 0 1 0 0 1.089h.545a.545.545 0 1 0 1.089 0 1.634 1.634 0 0 0 0-3.268z" class="cls-1" transform="translate(-18.554 -24.741)"/>
            <path id="Path_14094" d="M25.794 6.376a.544.544 0 0 0 .77 0L28.2 4.742a.545.545 0 1 0-.77-.77l-.7.7V.545a.545.545 0 1 0-1.089 0v4.131l-.7-.7a.545.545 0 0 0-.77.77z" class="cls-1" transform="translate(-18.554)"/>
            <path id="Path_14095" d="M8.2 16.883a.545.545 0 0 0-.77 0l-.7.7v-3.038a.545.545 0 1 0-1.089 0v3.042l-.7-.7a.545.545 0 0 0-.77.77l1.634 1.634a.544.544 0 0 0 .77 0L8.2 17.653a.545.545 0 0 0 0-.77z" class="cls-1" transform="translate(-4 -10.188)"/>
            <path id="Path_14096" d="M48.2 16.883a.545.545 0 0 0-.77 0l-.7.7v-3.038a.545.545 0 0 0-1.089 0v3.042l-.7-.7a.545.545 0 0 0-.77.77l1.634 1.634a.544.544 0 0 0 .77 0l1.625-1.638a.545.545 0 0 0 0-.77z" class="cls-1" transform="translate(-33.107 -10.188)"/>
        </g>
    </g>
</svg>
