<svg width="13" height="14" viewBox="0 0 13 14" fill="none" xmlns="http://www.w3.org/2000/svg">
<path d="M4.33292 1.58301V3.20801" stroke="white" stroke-width="0.8" stroke-miterlimit="10" stroke-linecap="round" stroke-linejoin="round"/>
<path d="M8.66708 1.58301V3.20801" stroke="white" stroke-width="0.8" stroke-miterlimit="10" stroke-linecap="round" stroke-linejoin="round"/>
<path d="M1.89542 5.42334H11.1037" stroke="white" stroke-width="0.8" stroke-miterlimit="10" stroke-linecap="round" stroke-linejoin="round"/>
<path d="M9.74958 12.9583C10.9462 12.9583 11.9162 11.9883 11.9162 10.7917C11.9162 9.59505 10.9462 8.625 9.74958 8.625C8.55297 8.625 7.58292 9.59505 7.58292 10.7917C7.58292 11.9883 8.55297 12.9583 9.74958 12.9583Z" stroke="white" stroke-width="0.8" stroke-miterlimit="10" stroke-linecap="round" stroke-linejoin="round"/>
<path d="M10.5571 10.8188H8.9429" stroke="white" stroke-width="0.8" stroke-miterlimit="10" stroke-linecap="round" stroke-linejoin="round"/>
<path d="M9.75034 10.0278V11.6474" stroke="white" stroke-width="0.8" stroke-miterlimit="10" stroke-linecap="round" stroke-linejoin="round"/>
<path d="M11.375 5.10384V9.36133C10.9796 8.91175 10.4 8.62467 9.75 8.62467C8.55292 8.62467 7.58333 9.59426 7.58333 10.7913C7.58333 11.1976 7.69708 11.5822 7.8975 11.9072C8.01125 12.1022 8.1575 12.2755 8.32541 12.4163H4.33333C2.4375 12.4163 1.625 11.333 1.625 9.70801V5.10384C1.625 3.47884 2.4375 2.39551 4.33333 2.39551H8.66667C10.5625 2.39551 11.375 3.47884 11.375 5.10384Z" stroke="white" stroke-width="0.8" stroke-miterlimit="10" stroke-linecap="round" stroke-linejoin="round"/>
<path d="M6.49744 7.92074H6.50231" stroke="white" stroke-width="1.44" stroke-linecap="round" stroke-linejoin="round"/>
<path d="M4.49286 7.92074H4.49773" stroke="white" stroke-width="1.44" stroke-linecap="round" stroke-linejoin="round"/>
<path d="M4.49286 9.54574H4.49773" stroke="white" stroke-width="1.44" stroke-linecap="round" stroke-linejoin="round"/>
</svg>
