<svg width="40" height="40" viewBox="0 0 40 40" fill="none" xmlns="http://www.w3.org/2000/svg">
<mask id="mask0_198_1678" style="mask-type:alpha" maskUnits="userSpaceOnUse" x="0" y="0" width="40" height="40">
<rect width="40" height="40" fill="#D9D9D9"/>
</mask>
<g mask="url(#mask0_198_1678)">
<path d="M14.6667 36.3333H24.6667C33 36.3333 36.3333 33 36.3333 24.6667V14.6667C36.3333 6.33333 33 3 24.6667 3H14.6667C6.33333 3 3 6.33333 3 14.6667V24.6667C3 33 6.33333 36.3333 14.6667 36.3333Z" stroke="#4785FF" stroke-width="1.8" stroke-linecap="round" stroke-linejoin="round"/>
<path d="M24.1289 21.1132C23.9123 21.1132 23.7119 21.1749 23.5357 21.2749C23.3212 20.9366 22.9454 20.71 22.516 20.71C22.2994 20.71 22.099 20.7717 21.9228 20.8717C21.7083 20.5334 21.3325 20.3068 20.9031 20.3068C20.7611 20.3068 20.6265 20.3358 20.4998 20.381V17.8874C20.4998 17.2205 19.9571 16.6777 19.2902 16.6777C18.6232 16.6777 18.0805 17.2205 18.0805 17.8874V22.0124C17.7067 21.7072 17.2361 21.5164 16.7168 21.5164C16.1349 21.5164 15.6611 21.9902 15.6611 22.5721C15.6611 22.735 15.6998 22.8987 15.7724 23.0443C16.2273 23.9539 16.4676 24.9717 16.4672 25.9886V26.9656C16.4672 27.7205 16.7611 28.4298 17.2946 28.962L17.3551 29.0225C17.0627 29.2435 16.8708 29.5902 16.8708 29.9842V32.0003H24.9353V29.9842C24.9353 29.5902 24.7434 29.2435 24.4511 29.0225L24.5115 28.962C25.0446 28.4289 25.3386 27.7201 25.3386 26.966V22.3233C25.3386 21.6568 24.7958 21.1136 24.1289 21.1132ZM24.1289 31.1939H17.6773V29.9842C17.6773 29.7616 17.8579 29.581 18.0805 29.581H23.7256C23.9482 29.581 24.1289 29.7616 24.1289 29.9842V31.1939ZM24.5321 26.966C24.5321 27.5048 24.322 28.0112 23.9414 28.3918L23.5587 28.7745H18.2474L17.8644 28.3914C17.4837 28.0112 17.2736 27.5048 17.2736 26.9656V25.9886C17.274 24.8475 17.0043 23.7048 16.4938 22.6838C16.4765 22.6487 16.4676 22.6112 16.4676 22.5721C16.4676 22.4346 16.5793 22.3229 16.7168 22.3229C17.4684 22.3229 18.0805 22.935 18.0805 23.687V24.339V24.7423H18.8869V24.339V23.687V17.8874C18.8869 17.6648 19.0676 17.4842 19.2902 17.4842C19.5127 17.4842 19.6934 17.6648 19.6934 17.8874V21.5164V24.7423H20.4998V21.5164C20.4998 21.2939 20.6805 21.1132 20.9031 21.1132C21.1256 21.1132 21.3063 21.2939 21.3063 21.5164V21.9197V24.7423H22.1127V21.9197C22.1127 21.6971 22.2934 21.5164 22.516 21.5164C22.7386 21.5164 22.9192 21.6971 22.9192 21.9197V22.3225V24.339V24.7423H23.7256V24.339V22.3225C23.7256 22.1003 23.9063 21.9197 24.1285 21.9197C24.3511 21.9201 24.5321 22.1007 24.5321 22.3233V26.966Z" fill="#4785FF"/>
<path d="M29.371 13.4512C27.3698 13.4512 25.7419 15.079 25.7419 17.0802C25.7419 19.0814 27.3698 20.7092 29.371 20.7092C31.3722 20.7092 33 19.0814 33 17.0802C33 15.079 31.3722 13.4512 29.371 13.4512ZM29.371 19.9028C27.8149 19.9028 26.5484 18.6363 26.5484 17.0802C26.5484 15.5242 27.8149 14.2576 29.371 14.2576C30.927 14.2576 32.1936 15.5242 32.1936 17.0802C32.1936 18.6363 30.927 19.9028 29.371 19.9028Z" fill="#4785FF"/>
<path d="M28.5647 17.7202L28.0433 17.1988L27.4731 17.769L28.5647 18.8605L31.2691 16.1561L30.699 15.5859L28.5647 17.7202Z" fill="#4785FF"/>
<path d="M15.2581 13.4512H8V20.7092H15.2581V13.4512ZM10.4194 14.2576V15.8705H8.80645V14.2576H10.4194ZM14.4516 19.9028H8.80645V16.677H11.2258V14.2576H14.4516V19.9028Z" fill="#4785FF"/>
<path d="M9.6127 15.4676C9.83539 15.4676 10.0159 15.2871 10.0159 15.0644C10.0159 14.8417 9.83539 14.6611 9.6127 14.6611C9.39 14.6611 9.20947 14.8417 9.20947 15.0644C9.20947 15.2871 9.39 15.4676 9.6127 15.4676Z" fill="#4785FF"/>
<path d="M13.2418 15.4676V16.274H14.0483V14.6611H11.6289V15.4676H13.2418Z" fill="#4785FF"/>
<path d="M13.6451 16.6776H12.8387V16.2744H12.0322V17.4841H13.6451V16.6776Z" fill="#4785FF"/>
<path d="M10.0159 17.4839H9.20947V19.5H10.8224V18.6936H10.0159V17.4839Z" fill="#4785FF"/>
<path d="M10.8228 18.2903H11.226V19.5H12.0324V17.4839H10.8228V18.2903Z" fill="#4785FF"/>
<path d="M14.0484 18.29H12.4355V19.0965H14.0484V18.29Z" fill="#4785FF"/>
<path d="M24.9356 11.1052L22.5163 10.6214V8.6129H21.7098V7H20.9034V8.6129H20.0969V7.80645H19.2904V8.6129H18.484V7H17.6775V8.6129H16.8711V15.871H24.9356V11.1052ZM20.0969 15.0645H17.6775V9.41935H21.7098V10.4597L20.0969 10.1371V15.0645ZM24.1292 15.0645H20.9034V11.121L24.1292 11.7661V15.0645Z" fill="#4785FF"/>
<path d="M23.3224 13.4512H21.7095V14.2576H23.3224V13.4512Z" fill="#4785FF"/>
<path d="M19.2903 11.8389H18.4839V12.6453H19.2903V11.8389Z" fill="#4785FF"/>
<path d="M19.2903 13.4512H18.4839V14.2576H19.2903V13.4512Z" fill="#4785FF"/>
<path d="M19.2903 10.2256H18.4839V11.032H19.2903V10.2256Z" fill="#4785FF"/>
<path d="M23.3224 11.8389H21.7095V12.6453H23.3224V11.8389Z" fill="#4785FF"/>
<path d="M10.6055 21.439L9.81396 21.5934C10.4757 24.9906 12.7482 27.897 15.8934 29.3676L16.2353 28.6365C13.3224 27.2749 11.218 24.5841 10.6055 21.439Z" fill="#4785FF"/>
<path d="M16.2354 10.3634L15.8935 9.63232C14.5161 10.2771 13.2604 11.2275 12.2625 12.3811L12.8721 12.9089C13.7967 11.8404 14.9596 10.9597 16.2354 10.3634Z" fill="#4785FF"/>
<path d="M28.1279 12.909L28.7376 12.3812C27.3287 10.7521 25.4936 9.5868 23.4311 9.01221L23.2146 9.78882C25.1235 10.3211 26.8227 11.4001 28.1279 12.909Z" fill="#4785FF"/>
<path d="M25.54 28.2325L25.9441 28.9301C28.6747 27.3507 30.5856 24.6765 31.186 21.5934L30.3945 21.439C29.8384 24.2938 28.0691 26.7696 25.54 28.2325Z" fill="#4785FF"/>
</g>
</svg>
