<svg width="15" height="17" viewBox="0 0 15 17" fill="none" xmlns="http://www.w3.org/2000/svg">
<path d="M13.6662 11.7123V7.06943C13.6662 6.478 13.2084 5.998 12.6091 5.998C12.2376 5.998 11.5234 6.21228 11.5234 7.06943M5.09477 10.2837V4.22656M13.6662 11.7123C13.6662 14.5694 11.4276 15.998 8.66621 15.998C5.90477 15.998 4.95477 15.2837 2.8119 11.7123L1.68976 9.85158C1.3069 9.23158 1.61333 8.42729 2.31905 8.19872C2.54981 8.12333 2.79817 8.12073 3.03046 8.19126C3.26275 8.26179 3.46773 8.40204 3.61762 8.593L5.09477 10.3073" stroke="#A3ACC6" stroke-width="1.30571" stroke-linecap="round" stroke-linejoin="round"/>
<path d="M9.38143 8.14288V5.64287C9.38143 5.35871 9.49431 5.08619 9.69525 4.88525C9.89618 4.68432 10.1687 4.57144 10.4529 4.57144V4.57144C10.737 4.57144 11.0095 4.68432 11.2105 4.88525C11.4114 5.08619 11.5243 5.35871 11.5243 5.64287V8.14288M7.23857 8.14288V4.92858C7.23857 4.64442 7.35145 4.3719 7.55238 4.17097C7.75331 3.97003 8.02584 3.85715 8.31 3.85715V3.85715C8.59416 3.85715 8.86668 3.97003 9.06762 4.17097C9.26855 4.3719 9.38143 4.64442 9.38143 4.92858V8.14288M5.0957 8.14288V2.07143C5.0957 1.78727 5.20859 1.51475 5.40952 1.31382C5.61045 1.11288 5.88297 1 6.16713 1C6.4513 1 6.72382 1.11288 6.92475 1.31382C7.12568 1.51475 7.23857 1.78727 7.23857 2.07143V8.14288" stroke="#A3ACC6" stroke-width="1.30571" stroke-linecap="round" stroke-linejoin="round"/>
</svg>
