<svg width="17" height="17" viewBox="0 0 17 17" fill="none" xmlns="http://www.w3.org/2000/svg">
<g clip-path="url(#clip0_139_718)">
<path d="M15.4062 17H4.78125C3.90104 17 3.1875 16.2865 3.1875 15.4062V13.8125H1.59375C0.713535 13.8125 0 13.099 0 12.2188V1.59375C0 0.713535 0.713535 0 1.59375 0H12.2188C13.099 0 13.8125 0.713535 13.8125 1.59375V3.1875H15.4062C16.2865 3.1875 17 3.90104 17 4.78125V15.4062C17 16.2865 16.2865 17 15.4062 17ZM12.0195 1.59375H1.79297C1.74013 1.59375 1.68946 1.61474 1.6521 1.6521C1.61474 1.68946 1.59375 1.74013 1.59375 1.79297V12.0195C1.59375 12.0724 1.61474 12.123 1.6521 12.1604C1.68946 12.1978 1.74013 12.2188 1.79297 12.2188H3.1875V4.78125C3.1875 3.90104 3.90104 3.1875 4.78125 3.1875H12.2188V1.79297C12.2188 1.74013 12.1978 1.68946 12.1604 1.6521C12.123 1.61474 12.0724 1.59375 12.0195 1.59375ZM15.207 4.78125H4.98047C4.92763 4.78125 4.87696 4.80224 4.8396 4.8396C4.80224 4.87696 4.78125 4.92763 4.78125 4.98047V15.207C4.78125 15.2599 4.80224 15.3105 4.8396 15.3479C4.87696 15.3853 4.92763 15.4062 4.98047 15.4062H15.207C15.2599 15.4062 15.3105 15.3853 15.3479 15.3479C15.3853 15.3105 15.4062 15.2599 15.4062 15.207V4.98047C15.4062 4.92763 15.3853 4.87696 15.3479 4.8396C15.3105 4.80224 15.2599 4.78125 15.207 4.78125Z" fill="#B2B8D7"/>
</g>
<defs>
<clipPath id="clip0_139_718">
<rect width="17" height="17" fill="white" transform="matrix(1 0 0 -1 0 17)"/>
</clipPath>
</defs>
</svg>
