<svg width="116" height="116" viewBox="0 0 116 116" fill="none" xmlns="http://www.w3.org/2000/svg">
<path d="M32.4062 40.2812H4.84375C2.66913 40.2812 0.90625 42.0441 0.90625 44.2188V71.7812C0.90625 73.9559 2.66913 75.7188 4.84375 75.7188H32.4062C34.5809 75.7188 36.3438 73.9559 36.3438 71.7812V44.2188C36.3438 42.0441 34.5809 40.2812 32.4062 40.2812Z" fill="#99A8FF"/>
<path d="M111.156 18.625H95.4062C93.2316 18.625 91.4688 20.3879 91.4688 22.5625V38.3125C91.4688 40.4871 93.2316 42.25 95.4062 42.25H111.156C113.331 42.25 115.094 40.4871 115.094 38.3125V22.5625C115.094 20.3879 113.331 18.625 111.156 18.625Z" fill="#99A8FF"/>
<path d="M111.156 73.75H95.4062C93.2316 73.75 91.4688 75.5129 91.4688 77.6875V93.4375C91.4688 95.6121 93.2316 97.375 95.4062 97.375H111.156C113.331 97.375 115.094 95.6121 115.094 93.4375V77.6875C115.094 75.5129 113.331 73.75 111.156 73.75Z" fill="#99A8FF"/>
<path d="M71.7812 91.4688H56.0312C53.8566 91.4688 52.0938 93.2316 52.0938 95.4062V111.156C52.0938 113.331 53.8566 115.094 56.0312 115.094H71.7812C73.9559 115.094 75.7188 113.331 75.7188 111.156V95.4062C75.7188 93.2316 73.9559 91.4688 71.7812 91.4688Z" fill="#99A8FF"/>
<path d="M71.7812 0.90625H56.0312C53.8566 0.90625 52.0938 2.66913 52.0938 4.84375V20.5938C52.0938 22.7684 53.8566 24.5312 56.0312 24.5312H71.7812C73.9559 24.5312 75.7188 22.7684 75.7188 20.5938V4.84375C75.7188 2.66913 73.9559 0.90625 71.7812 0.90625Z" fill="#99A8FF"/>
<path d="M39.165 40.2438L52.0564 27.3524C50.9077 26.6751 49.9498 25.7173 49.2725 24.5686L36.3812 37.46C37.5303 38.1366 38.4883 39.0947 39.165 40.2438Z" fill="#A5B2FF" fill-opacity="0.49"/>
<path d="M87.5313 22.5625C87.5381 22.1225 87.5822 21.6839 87.6632 21.2513L79.6563 17.6406V20.5938C79.6484 21.0343 79.6043 21.4736 79.5244 21.9069L87.5313 25.5156V22.5625Z" fill="#A5B2FF" fill-opacity="0.49"/>
<path d="M105.25 46.1875H101.312V69.8125H105.25V46.1875Z" fill="#A5B2FF" fill-opacity="0.49"/>
<path d="M95.4062 46.1876C94.513 46.1783 93.628 46.0159 92.7898 45.7072L88.3817 53.8657L80.7981 39.8285L87.5312 37.6373V33.5029L78.8943 36.3143L74.3977 27.9963C73.559 28.3023 72.674 28.4621 71.7812 28.4688H70.1807L75.0887 37.5467L40.2812 48.8789V53.0132L76.9925 41.0688L86.1531 58.0001L77.0024 74.9313L40.2812 62.9791V67.1134L75.0887 78.4456L70.1807 87.5313H71.7812C72.6745 87.5406 73.5595 87.7031 74.3977 88.0117L78.8943 79.6937L87.5312 82.5051V78.3707L80.7981 76.1716L88.3817 62.1345L92.7898 70.2871C93.6284 69.9804 94.5134 69.8199 95.4062 69.8126H97.0068L90.6202 58.0001L97.0068 46.1876H95.4062Z" fill="#A5B2FF" fill-opacity="0.49"/>
<path d="M87.5313 90.4844L79.5244 94.0852C79.6047 94.5212 79.6489 94.963 79.6563 95.4062V98.3594L87.6632 94.7585C87.5828 94.3226 87.5387 93.8807 87.5313 93.4375V90.4844Z" fill="#A5B2FF" fill-opacity="0.49"/>
<path d="M36.3812 78.5399L49.2725 91.4313C49.9492 90.2821 50.9072 89.3241 52.0564 88.6475L39.165 75.7561C38.4883 76.9052 37.5303 77.8632 36.3812 78.5399Z" fill="#A5B2FF" fill-opacity="0.49"/>
</svg>
