<svg xmlns="http://www.w3.org/2000/svg" width="19.67" height="15.734" viewBox="0 0 19.67 15.734">
    <defs>
        <style>
            .cls-1{fill:#5cd290}
        </style>
    </defs>
    <g id="hide" transform="translate(0 -49.023)">
        <g id="Group_6476" transform="translate(0 49.023)">
            <g id="Group_6475">
                <path id="Path_13875" d="M17.487 49.236a.723.723 0 0 0-1.024 0L13.895 51.8a9.842 9.842 0 0 0-9.818 1.024 16.407 16.407 0 0 0-3.938 3.641.729.729 0 0 0 .02.883 17.747 17.747 0 0 0 4.279 3.914l-2.26 2.26A.722.722 0 1 0 3.2 64.545l14.29-14.286a.727.727 0 0 0-.003-1.023zm-9.441 8.417a1.879 1.879 0 0 1-.157-.763A1.946 1.946 0 0 1 10.6 55.1zm3.621-3.617a3.387 3.387 0 0 0-4.68 4.68L5.5 60.206a15.2 15.2 0 0 1-3.84-3.328 15.46 15.46 0 0 1 3.207-2.842 8.423 8.423 0 0 1 7.928-1.128z" class="cls-1" transform="translate(0 -49.023)"/>
            </g>
        </g>
        <g id="Group_6478" transform="translate(7.252 53.218)">
            <g id="Group_6477">
                <path id="Path_13876" d="M192.922 156.728a19.348 19.348 0 0 0-3.063-3.063.725.725 0 1 0-.9 1.14 17.26 17.26 0 0 1 2.457 2.388 15.839 15.839 0 0 1-2.649 2.461 8.928 8.928 0 0 1-7.237 1.883.722.722 0 1 0-.3 1.413 8.994 8.994 0 0 0 1.879.2 9.55 9.55 0 0 0 2.854-.446 12.743 12.743 0 0 0 3.689-1.907 16.582 16.582 0 0 0 3.283-3.183.729.729 0 0 0-.013-.886z" class="cls-1" transform="translate(-180.663 -153.512)"/>
            </g>
        </g>
    </g>
</svg>
