<svg width="30" height="30" viewBox="0 0 30 30" fill="none" xmlns="http://www.w3.org/2000/svg">
<path d="M0 5.95605V24.9267H13.0848C12.9293 24.3272 12.8324 23.7132 12.7943 23.0886H3.309C2.69984 23.0886 2.20597 22.5947 2.20597 21.9856V8.89755C2.20597 8.28839 2.69983 7.79452 3.309 7.79452H19.412C20.0212 7.79452 20.515 8.28838 20.515 8.89755V12.9577C21.2395 12.8072 21.9813 12.7407 22.7209 12.758L22.7207 5.95661L0 5.95605Z" fill="#4F8AFF"/>
<path d="M4.41016 20.882H4.92871L8.67517 14.6179C9.0713 13.9554 10.0484 13.906 10.5085 14.5281L13.5584 18.6519C14.4833 16.4952 16.189 14.7111 18.3072 13.6995L18.3074 9.99951H4.41046L4.41016 20.882ZM15.5348 11.0291C16.3478 11.0291 17.0069 11.6889 17.0069 12.5032C17.0069 13.3172 16.3477 13.9773 15.5348 13.9773C14.7218 13.9773 14.0626 13.3175 14.0626 12.5032C14.0626 11.689 14.7218 11.0291 15.5348 11.0291Z" fill="#A6D2FF"/>
<path d="M22.7207 3.74999V0H0V3.74999H22.7207ZM10.8546 1.02809C11.3433 1.02809 11.7396 1.42401 11.7396 1.91244C11.7396 2.40086 11.3435 2.7968 10.8546 2.7968C10.366 2.7968 9.96962 2.40087 9.96962 1.91244C9.96962 1.42402 10.3658 1.02809 10.8546 1.02809ZM7.1672 1.02809C7.65583 1.02809 8.0522 1.42401 8.0522 1.91244C8.0522 2.40086 7.65606 2.7968 7.1672 2.7968C6.67857 2.7968 6.2822 2.40087 6.2822 1.91244C6.2822 1.42402 6.67854 1.02809 7.1672 1.02809ZM3.47999 1.02809C3.96862 1.02809 4.36499 1.42401 4.36499 1.91244C4.36499 2.40086 3.96886 2.7968 3.47999 2.7968C2.99136 2.7968 2.595 2.40087 2.595 1.91244C2.595 1.42402 2.99113 1.02809 3.47999 1.02809Z" fill="#4F8AFF"/>
<path d="M9.71989 17.1709L7.5 20.8824H12.4648L9.71989 17.1709Z" fill="#A6D2FF"/>
<path d="M22.491 20.7827C20.9929 20.7827 19.6113 21.4197 18.7383 22.4803C19.6111 23.5408 20.9929 24.1778 22.491 24.1778C23.9891 24.1778 25.3707 23.5408 26.2437 22.4803C25.3707 21.4197 23.9889 20.7827 22.491 20.7827ZM22.491 23.4521C21.9218 23.4521 21.4606 22.9902 21.4606 22.4202C21.4606 21.8503 21.922 21.3885 22.491 21.3885C23.0602 21.3885 23.5214 21.8503 23.5214 22.4202C23.5214 22.99 23.06 23.4521 22.491 23.4521Z" fill="#A6D2FF"/>
<path d="M22.4915 14.9609C18.3508 14.9609 14.9824 18.3343 14.9824 22.4807C14.9822 26.6271 18.3509 30.0006 22.4915 30.0006C26.632 30.0006 30.0006 26.6272 30.0006 22.4807C30.0006 18.3344 26.6319 14.9609 22.4915 14.9609ZM22.4915 26.384C19.9657 26.384 17.6491 25.101 16.446 23.0357C16.2461 22.6926 16.2461 22.2686 16.446 21.9254C17.649 19.8601 19.9656 18.5772 22.4915 18.5772C25.0175 18.5772 27.3339 19.8601 28.537 21.9254C28.7369 22.2686 28.7369 22.6925 28.537 23.0357C27.3338 25.1012 25.0175 26.384 22.4915 26.384Z" fill="#A6D2FF"/>
</svg>
