<svg width="31" height="30" viewBox="0 0 31 30" fill="none" xmlns="http://www.w3.org/2000/svg">
<path d="M18.6512 24.0133C21.8197 24.0133 24.3883 21.4447 24.3883 18.2762C24.3883 15.1077 21.8197 12.5391 18.6512 12.5391C15.4827 12.5391 12.9141 15.1077 12.9141 18.2762C12.9141 21.4447 15.4827 24.0133 18.6512 24.0133Z" fill="url(#paint0_linear_2359_2376)"/>
<path d="M29.7346 26.9275L24.9965 22.1895C24.3854 23.1772 23.5503 24.0123 22.5625 24.6235L27.3006 29.3616C27.9727 30.0338 29.0625 30.0338 29.7346 29.3616C30.4068 28.6895 30.4068 27.5997 29.7346 26.9275Z" fill="url(#paint1_linear_2359_2376)"/>
<path d="M6.6002 0.995117L1.36719 6.22813H6.6002V0.995117Z" fill="url(#paint2_linear_2359_2376)"/>
<path d="M6.02734 15.4076H11.7648C12.2334 14.2872 12.9678 13.3046 13.8888 12.5391H6.02734V15.4076Z" fill="url(#paint3_linear_2359_2376)"/>
<path d="M11.2784 17.1289H5.16613C4.69087 17.1289 4.30556 16.7436 4.30556 16.2683V11.6786C4.30556 11.2034 4.69087 10.8181 5.16613 10.8181H18.6484C20.3779 10.8181 21.9716 11.4099 23.2381 12.4015V3.07292C23.2381 1.64937 22.0799 0.491211 20.6564 0.491211H8.32155V7.08891C8.32155 7.56418 7.93625 7.94948 7.46098 7.94948H0.863281V27.2836C0.863281 28.7072 2.02144 29.8653 3.44499 29.8653H20.6564C21.9382 29.8653 23.0043 28.9262 23.204 27.7001L20.893 25.3891C20.1843 25.6133 19.4303 25.7346 18.6484 25.7346C16.8403 25.7346 15.1806 25.0877 13.8882 24.0135H5.16613C4.69087 24.0135 4.30556 23.6281 4.30556 23.1529C4.30556 22.6776 4.69087 22.2923 5.16613 22.2923H12.3661C12.0251 21.7607 11.7502 21.183 11.5518 20.5712H5.16613C4.69087 20.5712 4.30556 20.1859 4.30556 19.7106C4.30556 19.2353 4.69087 18.85 5.16613 18.85H11.212C11.1334 17.991 11.2784 17.1289 11.2784 17.1289ZM18.9353 9.09691H10.9033C10.428 9.09691 10.0427 8.71161 10.0427 8.23634C10.0427 7.76108 10.428 7.37577 10.9033 7.37577H18.9353C19.4105 7.37577 19.7958 7.76108 19.7958 8.23634C19.7958 8.71161 19.4105 9.09691 18.9353 9.09691ZM18.9353 5.65463H10.9033C10.428 5.65463 10.0427 5.26932 10.0427 4.79406C10.0427 4.3188 10.428 3.93349 10.9033 3.93349H18.9353C19.4105 3.93349 19.7958 4.3188 19.7958 4.79406C19.7958 5.26932 19.4105 5.65463 18.9353 5.65463Z" fill="url(#paint4_linear_2359_2376)"/>
<defs>
<linearGradient id="paint0_linear_2359_2376" x1="16.0051" y1="3.48693" x2="33.0793" y2="21.6738" gradientUnits="userSpaceOnUse">
<stop stop-color="#4F8AFF"/>
<stop offset="1" stop-color="white"/>
</linearGradient>
<linearGradient id="paint1_linear_2359_2376" x1="24.6304" y1="16.1336" x2="36.053" y2="28.3005" gradientUnits="userSpaceOnUse">
<stop stop-color="#4F8AFF"/>
<stop offset="1" stop-color="white"/>
</linearGradient>
<linearGradient id="paint2_linear_2359_2376" x1="3.98369" y1="0.995117" x2="3.98298" y2="7.57662" gradientUnits="userSpaceOnUse">
<stop stop-color="#B9DCFF"/>
<stop offset="1" stop-color="white"/>
</linearGradient>
<linearGradient id="paint3_linear_2359_2376" x1="9.95808" y1="12.5391" x2="9.95794" y2="16.1468" gradientUnits="userSpaceOnUse">
<stop stop-color="#B9DCFF"/>
<stop offset="1" stop-color="white"/>
</linearGradient>
<linearGradient id="paint4_linear_2359_2376" x1="12.0507" y1="0.491211" x2="12.0454" y2="37.4347" gradientUnits="userSpaceOnUse">
<stop stop-color="#B9DCFF"/>
<stop offset="1" stop-color="white"/>
</linearGradient>
</defs>
</svg>
