<svg width="35" height="28" viewBox="0 0 35 28" fill="none" xmlns="http://www.w3.org/2000/svg">
<path d="M33.0626 19.6133H30.9666V14.3732C30.9666 13.7947 30.4971 13.3252 29.9186 13.3252H18.3904V9.13313H20.4865C21.065 9.13313 21.5345 8.66362 21.5345 8.08512V1.79704C21.5345 1.21853 21.065 0.749023 20.4865 0.749023H14.1984C13.6199 0.749023 13.1504 1.21853 13.1504 1.79704V8.08512C13.1504 8.66362 13.6199 9.13313 14.1984 9.13313H16.2944V13.3252H4.76627C4.18777 13.3252 3.71826 13.7947 3.71826 14.3732V19.6133H1.62223C1.04373 19.6133 0.574219 20.0828 0.574219 20.6613V26.9494C0.574219 27.5279 1.04373 27.9974 1.62223 27.9974H7.91031C8.48882 27.9974 8.95833 27.5279 8.95833 26.9494V20.6613C8.95833 20.0828 8.48882 19.6133 7.91031 19.6133H5.81429V15.4212H16.2944V19.6133H14.1984C13.6199 19.6133 13.1504 20.0828 13.1504 20.6613V26.9494C13.1504 27.5279 13.6199 27.9974 14.1984 27.9974H20.4865C21.065 27.9974 21.5345 27.5279 21.5345 26.9494V20.6613C21.5345 20.0828 21.065 19.6133 20.4865 19.6133H18.3904V15.4212H28.8706V19.6133H26.7746C26.1961 19.6133 25.7265 20.0828 25.7265 20.6613V26.9494C25.7265 27.5279 26.1961 27.9974 26.7746 27.9974H33.0626C33.6411 27.9974 34.1107 27.5279 34.1107 26.9494V20.6613C34.1107 20.0828 33.6411 19.6133 33.0626 19.6133Z" fill="url(#paint0_linear_2360_4062)"/>
<defs>
<linearGradient id="paint0_linear_2360_4062" x1="8.53072" y1="-23.4643" x2="28.9019" y2="34.1456" gradientUnits="userSpaceOnUse">
<stop stop-color="#E0B96F"/>
<stop offset="1" stop-color="#FFE5B3"/>
</linearGradient>
</defs>
</svg>
