<svg width="40" height="40" viewBox="0 0 40 40" fill="none" xmlns="http://www.w3.org/2000/svg">
<path d="M14.5499 35.8317C16.7049 32.1267 21.6366 31.69 24.4449 34.52C25.0733 35.1533 25.3883 35.47 25.6666 35.5083C25.9449 35.5467 27.6916 34.5433 28.3116 34.1883C28.9449 33.825 30.6983 32.82 30.8083 32.5567C30.9183 32.2933 30.8033 31.845 30.5716 30.9483C29.7333 27.6867 31.7683 24.2533 35.0183 23.3683C35.8883 23.1317 36.3233 23.0133 36.4949 22.785C36.6666 22.56 36.6666 20.5683 36.6666 19.8383C36.6666 19.1083 36.6666 17.1183 36.4949 16.8917C36.3233 16.665 35.8883 16.5467 35.0183 16.3083C31.7683 15.425 29.7316 11.9917 30.5683 8.73002C30.8016 7.83168 30.9149 7.38335 30.8049 7.12002C30.6949 6.85668 28.9416 5.85335 28.3099 5.49002C27.6899 5.13335 25.9433 4.13168 25.6633 4.17002C25.3849 4.20835 25.0716 4.52335 24.4433 5.15668C23.2637 6.33372 21.6654 6.99476 19.9991 6.99476C18.3327 6.99476 16.7344 6.33372 15.5549 5.15668C14.9266 4.52335 14.6116 4.20668 14.3333 4.17002C14.0549 4.13335 12.3083 5.13335 11.6883 5.49002C11.0549 5.85168 9.30158 6.85668 9.19158 7.12168C9.08158 7.38335 9.19659 7.83335 9.42825 8.73002C10.2666 11.9917 8.23159 15.425 4.98159 16.31C4.11159 16.5467 3.67659 16.665 3.50492 16.8917C3.33325 17.1183 3.33325 19.11 3.33325 19.8383C3.33325 20.5667 3.33325 22.56 3.50492 22.7867C3.67659 23.0133 4.11159 23.1317 4.98159 23.3683L5.01159 23.3767" stroke="#4785FF" stroke-width="2" stroke-linecap="round" stroke-linejoin="round"/>
<path d="M4.14835 30.3051C5.94835 28.5051 12.0683 22.4485 12.6683 21.7485C13.3017 21.0085 12.7883 20.0085 13.095 16.9101C13.2417 15.4101 13.565 14.2868 14.4883 13.4518C15.5883 12.4118 16.4883 12.4118 19.5883 12.3418C22.2883 12.4118 22.6083 12.1118 22.8883 12.8118C23.0883 13.3118 22.4883 13.6118 21.7683 14.4118C20.1683 16.0118 19.2283 16.8101 19.1383 17.3101C18.4883 19.5101 21.0483 20.8085 22.4483 19.4101C22.9783 18.8801 25.4283 16.4101 25.6683 16.2101C25.8483 16.0501 26.2783 16.0585 26.4883 16.3101C26.6683 16.4868 26.6883 16.5101 26.6683 17.3101C26.65 18.0501 26.6583 19.1135 26.66 20.2101C26.6633 21.6285 26.5883 23.2068 25.9883 24.0068C24.7883 25.8068 22.7883 25.9068 20.9883 25.9868C19.2883 26.0868 17.8883 25.9068 17.4483 26.2268C17.0883 26.4068 15.1883 28.4051 12.8883 30.7035L8.78835 34.8035C5.38835 37.5018 1.64835 33.3035 4.14835 30.3035" stroke="#4785FF" stroke-width="2" stroke-linecap="round" stroke-linejoin="round"/>
</svg>
