<svg width="40" height="40" viewBox="0 0 40 40" fill="none" xmlns="http://www.w3.org/2000/svg">
<mask id="mask0_407_9966" style="mask-type:alpha" maskUnits="userSpaceOnUse" x="0" y="0" width="40" height="40">
<rect width="40" height="40" fill="#D9D9D9"/>
</mask>
<g mask="url(#mask0_407_9966)">
<path d="M14.6667 36.3333H24.6667C33 36.3333 36.3333 33 36.3333 24.6667V14.6667C36.3333 6.33333 33 3 24.6667 3H14.6667C6.33333 3 3 6.33333 3 14.6667V24.6667C3 33 6.33333 36.3333 14.6667 36.3333Z" stroke="#292D32" stroke-width="1.8" stroke-linecap="round" stroke-linejoin="round"/>
<g clip-path="url(#clip0_407_9966)">
<path d="M12.3571 19.4999V14.8034C12.3711 13.8803 12.567 12.969 12.9338 12.1217C13.3005 11.2744 13.8309 10.5078 14.4944 9.8658C15.158 9.22383 15.9417 8.71909 16.8006 8.38052C17.6595 8.04194 18.5769 7.87618 19.5 7.89273C20.4231 7.87618 21.3404 8.04194 22.1993 8.38052C23.0583 8.71909 23.842 9.22383 24.5055 9.8658C25.169 10.5078 25.6994 11.2744 26.0661 12.1217C26.4329 12.969 26.6289 13.8803 26.6428 14.8034V19.4999M23.0714 28.8749C24.0186 28.8749 24.927 28.4986 25.5968 27.8288C26.2665 27.1591 26.6428 26.2506 26.6428 25.3034V21.2856M23.0714 28.8749C23.0714 29.4669 22.8362 30.0346 22.4176 30.4532C21.999 30.8718 21.4313 31.107 20.8393 31.107H18.1607C17.5687 31.107 17.0009 30.8718 16.5823 30.4532C16.1637 30.0346 15.9285 29.4669 15.9285 28.8749C15.9285 28.2829 16.1637 27.7151 16.5823 27.2965C17.0009 26.8779 17.5687 26.6427 18.1607 26.6427H20.8393C21.4313 26.6427 21.999 26.8779 22.4176 27.2965C22.8362 27.7151 23.0714 28.2829 23.0714 28.8749ZM9.67854 16.8213H11.4643C11.7011 16.8213 11.9282 16.9154 12.0956 17.0828C12.263 17.2503 12.3571 17.4774 12.3571 17.7142V23.0713C12.3571 23.3081 12.263 23.5352 12.0956 23.7026C11.9282 23.8701 11.7011 23.9642 11.4643 23.9642H9.67854C9.20494 23.9642 8.75073 23.776 8.41585 23.4411C8.08096 23.1062 7.89282 22.652 7.89282 22.1784V18.607C7.89282 18.1334 8.08096 17.6792 8.41585 17.3443C8.75073 17.0094 9.20494 16.8213 9.67854 16.8213ZM29.3214 23.9642H27.5357C27.2989 23.9642 27.0718 23.8701 26.9043 23.7026C26.7369 23.5352 26.6428 23.3081 26.6428 23.0713V17.7142C26.6428 17.4774 26.7369 17.2503 26.9043 17.0828C27.0718 16.9154 27.2989 16.8213 27.5357 16.8213H29.3214C29.795 16.8213 30.2492 17.0094 30.5841 17.3443C30.919 17.6792 31.1071 18.1334 31.1071 18.607V22.1784C31.1071 22.652 30.919 23.1062 30.5841 23.4411C30.2492 23.776 29.795 23.9642 29.3214 23.9642Z" stroke="black" stroke-width="1.5" stroke-linecap="round" stroke-linejoin="round"/>
</g>
</g>
<defs>
<clipPath id="clip0_407_9966">
<rect width="25" height="25" fill="white" transform="translate(7 7)"/>
</clipPath>
</defs>
</svg>
