<svg width="25" height="25" viewBox="0 0 25 25" fill="none" xmlns="http://www.w3.org/2000/svg">
<g style="mix-blend-mode:luminosity">
<path d="M23.263 0.679199H19.27C19.0582 0.679199 18.8551 0.763337 18.7053 0.913104C18.5556 1.06287 18.4714 1.266 18.4714 1.4778C18.4714 1.6896 18.5556 1.89273 18.7053 2.0425C18.8551 2.19226 19.0582 2.2764 19.27 2.2764H22.4644V5.47081C22.4644 5.68261 22.5486 5.88574 22.6983 6.03551C22.8481 6.18527 23.0512 6.26941 23.263 6.26941C23.4748 6.26941 23.678 6.18527 23.8277 6.03551C23.9775 5.88574 24.0616 5.68261 24.0616 5.47081V1.4778C24.0616 1.266 23.9775 1.06287 23.8277 0.913104C23.678 0.763337 23.4748 0.679199 23.263 0.679199Z" fill="#4294FF"/>
</g>
<g style="mix-blend-mode:luminosity">
<path d="M4.89522 18.2484H0.902209C0.461153 18.2484 0.103607 18.606 0.103607 19.047V23.8386C0.103607 24.2797 0.461153 24.6372 0.902209 24.6372H4.89522C5.33627 24.6372 5.69382 24.2797 5.69382 23.8386V19.047C5.69382 18.606 5.33627 18.2484 4.89522 18.2484Z" fill="#B9DCFF"/>
</g>
<g style="mix-blend-mode:luminosity">
<path d="M14.0552 15.0542H10.0622C9.62116 15.0542 9.26361 15.4117 9.26361 15.8528V23.8388C9.26361 24.2799 9.62116 24.6374 10.0622 24.6374H14.0552C14.4963 24.6374 14.8538 24.2799 14.8538 23.8388V15.8528C14.8538 15.4117 14.4963 15.0542 14.0552 15.0542Z" fill="#B9DCFF"/>
</g>
<g style="mix-blend-mode:luminosity">
<path d="M23.263 11.8597H19.27C18.829 11.8597 18.4714 12.2173 18.4714 12.6583V23.8388C18.4714 24.2798 18.829 24.6374 19.27 24.6374H23.263C23.7041 24.6374 24.0616 24.2798 24.0616 23.8388V12.6583C24.0616 12.2173 23.7041 11.8597 23.263 11.8597Z" fill="#B9DCFF"/>
</g>
<g style="mix-blend-mode:luminosity">
<path d="M2.70705 15.8527C2.81559 15.8576 2.92398 15.8403 3.02559 15.8018C3.1272 15.7634 3.2199 15.7046 3.29802 15.6291L10.15 9.00068L11.3639 12.8979C11.4048 13.0281 11.4784 13.1456 11.5777 13.2393C11.6769 13.3329 11.7985 13.3996 11.9309 13.4329C12.0703 13.4743 12.2184 13.4768 12.3591 13.4402C12.4998 13.4036 12.6279 13.3293 12.7295 13.2253L20.8673 4.99969V3.87366H19.7412L12.45 11.1569L11.284 7.29167C11.2434 7.16159 11.1701 7.04408 11.0711 6.95033C10.9722 6.85658 10.8509 6.78972 10.7188 6.7561C10.5867 6.72247 10.4483 6.72322 10.3165 6.75825C10.1848 6.79329 10.0643 6.86146 9.96634 6.95626L2.14803 14.4791C2.07318 14.5533 2.01377 14.6417 1.97322 14.739C1.93268 14.8363 1.9118 14.9407 1.9118 15.0461C1.9118 15.1515 1.93268 15.2559 1.97322 15.3532C2.01377 15.4505 2.07318 15.5389 2.14803 15.6131C2.29548 15.7636 2.4964 15.8497 2.70705 15.8527Z" fill="#4294FF"/>
</g>
</svg>
