<svg width="9" height="10" viewBox="0 0 9 10" fill="none" xmlns="http://www.w3.org/2000/svg">
<path d="M6.1 2.43231C6.1 2.43231 6.65463 2.16669 4.64286 2.16669C3.92237 2.16669 3.21806 2.3744 2.619 2.76356C2.01993 3.15272 1.55302 3.70585 1.2773 4.353C1.00158 5.00015 0.929438 5.71226 1.07 6.39927C1.21056 7.08628 1.55751 7.71734 2.06697 8.21265C2.57643 8.70795 3.22553 9.04526 3.93217 9.18192C4.63882 9.31857 5.37127 9.24844 6.03692 8.98038C6.70256 8.71232 7.2715 8.25838 7.67178 7.67596C8.07206 7.09354 8.28571 6.4088 8.28571 5.70833" stroke="#8CA1CC" stroke-miterlimit="10" stroke-linecap="round"/>
<path d="M4.64282 0.75L6.72446 2.40277L4.64282 4.05553" stroke="#7E8299" stroke-linecap="round" stroke-linejoin="round"/>
</svg>
