<svg xmlns="http://www.w3.org/2000/svg" width="32.353" height="30.098" viewBox="0 0 32.353 30.098">
    <g>
        <path fill="#529cff" d="M129.658 271.2v-.885c.146-.072.115-.234.174-.35a1.958 1.958 0 0 1 1.952-1.124c.46.01.46 0 .46-.465 0-2.443 0-2.886-.006-5.329 0-.271.044-.375.348-.365.768.025 1.537.011 2.306.007a5.546 5.546 0 0 0 .946-.028 1.056 1.056 0 0 0 .847-1.292 1.069 1.069 0 0 0-1.148-.829q-1.9-.011-3.791-.007a1.965 1.965 0 0 1-1.917-1.133c-.058-.117-.031-.276-.171-.352v-.821c.127-.111.111-.284.182-.422a2 2 0 0 1 1.96-1.111q11.007.011 22.014 0c.126 0 .253 0 .379.012a1.908 1.908 0 0 1 1.561 2.74 1.944 1.944 0 0 1-2.007 1.077c-.294-.016-.389.05-.386.369.016 2.211.007 2.422.012 4.632a.639.639 0 0 1-.181.477q-1.867 2.016-3.536 4.2c-1.551 2.035-6.693 8.1-3.129 13.7.28.307.612.56.927.911h-15.622c-.126 0-.253 0-.379-.01a1.848 1.848 0 0 1-1.535-.96c-.1-.177-.174-.372-.26-.558v-.821c.018-.009.047-.014.051-.028a2 2 0 0 1 2.258-1.452c.259.016.282-.092.282-.307-.007-2.517 0-3.033-.011-5.55 0-.254.072-.314.313-.3.452.019.905.008 1.358 0 .621 0 1.244.017 1.862-.025a1.033 1.033 0 0 0 .909-1.318 1.1 1.1 0 0 0-1.2-.808c-1.348-.009-2.7 0-4.043-.029a1.8 1.8 0 0 1-1.532-.962c-.098-.149-.089-.357-.247-.484z" transform="translate(-129.658 -256.695)"/>
        <path fill="#b9dcff" d="M324.007 413.753a7.279 7.279 0 0 1-7.054-5.8 6.882 6.882 0 0 1 .837-4.615 35.376 35.376 0 0 1 4.462-6.4c.444-.534.906-1.053 1.369-1.57a.467.467 0 0 1 .8 0 43.5 43.5 0 0 1 5.385 7.139 10.814 10.814 0 0 1 1.28 3.034 6.029 6.029 0 0 1-.457 3.848 7.086 7.086 0 0 1-5.194 4.221 5.375 5.375 0 0 1-.622.1c-.261.018-.525.026-.806.043zm-4.281-8.846v-.442a.247.247 0 0 0-.209-.272.243.243 0 0 0-.283.151 5.725 5.725 0 0 0-.651 1.993 5.009 5.009 0 0 0 3.65 5.03 5.088 5.088 0 0 0 2.4.071c.161-.035.284-.1.288-.275s-.123-.229-.26-.269c-.06-.018-.123-.027-.184-.042a6.251 6.251 0 0 1-4.752-5.945z" transform="translate(-129.658 -256.695) translate(-169.213 -126.96)"/>
    </g>
</svg>
