<svg xmlns="http://www.w3.org/2000/svg" width="30.353" height="29.353" viewBox="0 0 30.353 29.353">
    <g>
        <g>
            <path fill="#529cff" d="M28.735 0H1.618A1.528 1.528 0 0 0 0 1.618v6.147a.348.348 0 0 0 .324.324h29.705a.348.348 0 0 0 .324-.324V1.618A1.528 1.528 0 0 0 28.735 0z" transform="translate(-861 -907) translate(861 907)"/>
            <path fill="#cde6fe" d="M25.706 6H6.324A.348.348 0 0 0 6 6.324v18.382a.348.348 0 0 0 .324.324h18.088a1.528 1.528 0 0 0 1.618-1.618V6.324A.348.348 0 0 0 25.706 6z" transform="translate(-861 -907) translate(861 907) translate(4.324 4.324)"/>
            <path fill="#8fc7ff" d="M7.765 6H.324A.348.348 0 0 0 0 6.324v17.088a1.528 1.528 0 0 0 1.618 1.618h6.147a.348.348 0 0 0 .324-.324V6.324A.348.348 0 0 0 7.765 6z" transform="translate(-861 -907) translate(861 907) translate(0 4.324)"/>
        </g>
    </g>
</svg>
