<svg width="10" height="13" viewBox="0 0 10 13" fill="none" xmlns="http://www.w3.org/2000/svg">
<path d="M1.484 13C1.136 13 0.86 12.904 0.656 12.712C0.464 12.52 0.368 12.25 0.368 11.902V1.408C0.368 1.06 0.464 0.789999 0.656 0.598C0.86 0.405999 1.136 0.309999 1.484 0.309999H7.982C8.33 0.309999 8.6 0.387999 8.792 0.543999C8.984 0.7 9.08 0.922 9.08 1.21C9.08 1.51 8.984 1.744 8.792 1.912C8.6 2.068 8.33 2.146 7.982 2.146H2.636V5.638H7.622C7.97 5.638 8.24 5.716 8.432 5.872C8.624 6.028 8.72 6.256 8.72 6.556C8.72 6.844 8.624 7.066 8.432 7.222C8.24 7.378 7.97 7.456 7.622 7.456H2.636V11.164H7.982C8.33 11.164 8.6 11.248 8.792 11.416C8.984 11.572 9.08 11.8 9.08 12.1C9.08 12.388 8.984 12.61 8.792 12.766C8.6 12.922 8.33 13 7.982 13H1.484Z" fill="#3699FF"/>
</svg>
