<svg xmlns="http://www.w3.org/2000/svg" width="18.301" height="18.301" viewBox="0 0 18.301 18.301">
    <path fill="#5cd290" d="M18.223 11.684c-1.6-3.126-5.093-5.965-9.072-5.965-4.007 0-7.486 2.873-9.072 5.965a.715.715 0 0 0 0 .652c1.6 3.126 5.093 5.965 9.072 5.965 4.505 0 7.826-3.536 9.072-5.965a.715.715 0 0 0 0-.652zm-9.072 5.188c-3.245 0-5.968-2.156-7.612-4.861C3.164 9.335 5.879 7.15 9.151 7.15s5.978 2.171 7.612 4.861c-1.651 2.718-4.386 4.861-7.612 4.861zM.226 3.974a.715.715 0 0 1 1.01-.053l1.592 1.434a.715.715 0 1 1-.957 1.063L.279 4.983a.715.715 0 0 1-.053-1.01zm8.21-.4V.715a.715.715 0 0 1 1.43 0v2.86a.715.715 0 0 1-1.43 0zM3.9 1.982A.715.715 0 1 1 5.21 1.4L6.3 3.856a.715.715 0 1 1-1.3.582zm11.522 4.382a.715.715 0 0 1 .053-1.01l1.592-1.434a.715.715 0 1 1 .957 1.063l-1.593 1.434a.715.715 0 0 1-1.01-.053zM12 3.856L13.092 1.4a.715.715 0 0 1 1.306.582l-1.093 2.456A.715.715 0 1 1 12 3.856zM9.151 8.5a3.512 3.512 0 1 0 3.512 3.512A3.516 3.516 0 0 0 9.151 8.5zm0 5.594a2.082 2.082 0 1 1 2.082-2.082 2.085 2.085 0 0 1-2.082 2.082z"/>
</svg>
