<svg width="19" height="20" viewBox="0 0 19 20" fill="none" xmlns="http://www.w3.org/2000/svg">
<g style="mix-blend-mode:luminosity">
<path d="M13.963 12.4159L17.618 16.1469L14.943 18.4819L11.415 14.9629C11.915 14.6459 11.272 13.5089 11.715 13.0699C12.158 12.6309 13.65 12.9189 13.967 12.4149L13.963 12.4159Z" fill="#3698FF"/>
<path d="M18.3461 16.8459C18.5133 17.0131 18.646 17.2116 18.7365 17.4301C18.827 17.6486 18.8736 17.8828 18.8736 18.1194C18.8736 18.3559 18.827 18.5901 18.7365 18.8086C18.646 19.0271 18.5133 19.2256 18.3461 19.3929C18.1789 19.5601 17.9803 19.6928 17.7618 19.7833C17.5433 19.8738 17.3091 19.9204 17.0726 19.9204C16.8361 19.9204 16.6019 19.8738 16.3834 19.7833C16.1649 19.6928 15.9663 19.5601 15.7991 19.3929L14.7461 18.2939L16.0641 14.5739L18.3461 16.8459Z" fill="#3698FF"/>
<path d="M2.37475 2.37486C3.54173 1.20773 5.03714 0.424588 6.66111 0.130099C8.28509 -0.16439 9.96027 0.0438046 11.4628 0.726856L12.3628 1.20786C13.7955 2.09194 14.9174 3.40018 15.5727 4.95095C16.228 6.50171 16.3842 8.21804 16.0197 9.86163C15.6551 11.5052 14.7878 12.9945 13.5382 14.1227C12.2886 15.2509 10.7188 15.9621 9.04662 16.1575C7.37445 16.3528 5.68295 16.0227 4.20696 15.2129C2.73098 14.4031 1.54375 13.1538 0.81012 11.6385C0.0764909 10.1232 -0.167134 8.41713 0.11307 6.75707C0.393274 5.09702 1.1844 3.56539 2.37475 2.37486Z" fill="#9FCDFD"/>
<path d="M3.64565 3.64886C4.23076 3.06303 4.92561 2.59829 5.69046 2.2812C6.45532 1.96411 7.27517 1.8009 8.10315 1.8009C8.93113 1.8009 9.75098 1.96411 10.5158 2.2812C11.2807 2.59829 11.9755 3.06303 12.5607 3.64886C12.6467 3.73486 12.7307 3.82386 12.8117 3.91386L13.4117 4.71386C14.0508 5.71479 14.3939 6.87597 14.4016 8.06351C14.4093 9.25106 14.0812 10.4166 13.4551 11.4257C12.829 12.4348 11.9304 13.2464 10.863 13.7669C9.7956 14.2874 8.60279 14.4956 7.42216 14.3675C6.24152 14.2394 5.12114 13.7802 4.1902 13.0429C3.25926 12.3055 2.55569 11.3201 2.16061 10.2002C1.76553 9.08026 1.69504 7.87147 1.95726 6.71322C2.21948 5.55496 2.80373 4.49441 3.64265 3.65386L3.64565 3.64886Z" fill="#F1F6FB"/>
</g>
</svg>
