<svg width="20" height="20" viewBox="0 0 20 20" fill="none" xmlns="http://www.w3.org/2000/svg">
<path d="M15.2048 13.231C14.5514 12.5859 13.7356 12.5859 13.0864 13.231C12.5911 13.7222 12.0958 14.2133 11.6089 14.7127C11.4757 14.8501 11.3633 14.8792 11.201 14.7876C10.8805 14.6128 10.5392 14.4713 10.2312 14.2799C8.79534 13.3767 7.59252 12.2155 6.52705 10.9087C5.99848 10.2594 5.52817 9.56432 5.19937 8.78187C5.13278 8.62371 5.14526 8.51966 5.27429 8.39064C5.76956 7.91201 6.25236 7.42089 6.73931 6.92978C7.41772 6.24721 7.41772 5.44811 6.73515 4.76138C6.34808 4.37015 5.96102 3.98724 5.57395 3.59601C5.1744 3.19646 4.77901 2.79275 4.37529 2.39736C3.72186 1.76057 2.90611 1.76057 2.25684 2.40152C1.7574 2.89264 1.27877 3.39624 0.771002 3.87903C0.300696 4.32436 0.0634621 4.86959 0.0135181 5.50637C-0.0655599 6.54271 0.188322 7.52078 0.546254 8.47388C1.27877 10.4467 2.39418 12.1989 3.74683 13.8054C5.57395 15.978 7.75484 17.6969 10.3061 18.9371C11.4549 19.4949 12.6452 19.9235 13.9396 19.9943C14.8302 20.0442 15.6044 19.8195 16.2245 19.1244C16.649 18.65 17.1277 18.2171 17.5772 17.7635C18.2431 17.0892 18.2472 16.2735 17.5855 15.6075C16.7947 14.8126 15.9998 14.0218 15.2048 13.231Z" fill="#3698FF" fill-opacity="0.8"/>
<path d="M14.41 9.91409L15.9458 9.65189C15.7044 8.24097 15.0385 6.96323 14.0271 5.94771C12.9575 4.87807 11.6049 4.20383 10.1149 3.99573L9.89844 5.53983C11.0513 5.70215 12.1001 6.2224 12.9284 7.05064C13.7108 7.83309 14.2228 8.82365 14.41 9.91409Z" fill="#9FCEFF"/>
<path d="M16.8117 3.23804C15.0387 1.46502 12.7954 0.345446 10.319 0L10.1025 1.5441C12.2418 1.84377 14.1813 2.81351 15.7129 4.34097C17.1655 5.7935 18.1186 7.62895 18.464 9.64752L19.9998 9.38531C19.5961 7.04627 18.4931 4.92365 16.8117 3.23804Z" fill="#9FCEFF"/>
</svg>
