<svg width="26" height="20" viewBox="0 0 26 20" fill="none" xmlns="http://www.w3.org/2000/svg">
<rect x="2" y="3" width="5" height="13" fill="#3698FF"/>
<path fill-rule="evenodd" clip-rule="evenodd" d="M0 2.25503V17.0097C0 18.2567 1.00857 19.2647 2.25423 19.2647H23.2791C24.5233 19.2647 25.5333 18.2547 25.5333 17.0097V2.25503C25.5333 1.00798 24.5248 0 23.2791 0H2.25423C1.00998 0 0 1.00999 0 2.25503ZM5.63319 14.1343L5.64003 5.13039H6.00784C6.42259 5.13039 6.75882 4.79416 6.75882 4.37941C6.75882 3.96466 6.42259 3.62843 6.00784 3.62843H3.76341C3.34866 3.62843 3.01243 3.96466 3.01243 4.37941C3.01243 4.79416 3.34866 5.13039 3.76341 5.13039H4.13807L4.13123 14.1343H3.76341C3.34866 14.1343 3.01243 14.4705 3.01243 14.8853C3.01243 15.3 3.34866 15.6363 3.76341 15.6363H6.00784C6.42259 15.6363 6.75882 15.3 6.75882 14.8853C6.75882 14.4705 6.42259 14.1343 6.00784 14.1343H5.63319Z" fill="#A7D2FF"/>
</svg>
