<svg xmlns="http://www.w3.org/2000/svg" width="19.448" height="15.964" viewBox="0 0 19.448 15.964">
    <path fill="#fff" d="M80.881 143.464c-.318-.018-.636-.031-.954-.047-.118 0-.2-.027-.238-.171a1.627 1.627 0 0 0-.26-.378c.231-.6.485-1.264.736-1.922l-.044-.047c-.162.111-.322.227-.487.333-.385.251-.776.5-1.156.755a.613.613 0 0 0-.222.26c-.193.473-.365.953-.551 1.429a.447.447 0 0 1-.138.191c-.362.244-.731.482-1.107.726a7.644 7.644 0 0 0-5.615-3.137 7.449 7.449 0 0 0-5.488 1.7 7.713 7.713 0 1 0 12.075 3.315c-.431.28-.865.551-1.285.84-.042.029-.042.16-.022.233a6.11 6.11 0 0 1 .2 1.955 6.132 6.132 0 0 1-6.62 5.747 6.122 6.122 0 0 1 .907-12.21 6.038 6.038 0 0 1 4.341 2.233c.047.056.089.118.133.182l-1.62 1.051a4.144 4.144 0 0 0-3.425-1.537A4 4 0 0 0 67.455 146a4.183 4.183 0 1 0 6.875 2.482c-.167.107-.327.2-.482.307-.3.193-.6.38-.894.584a.5.5 0 0 0-.189.273 2.6 2.6 0 1 1-1.923-3.021 2.509 2.509 0 0 1 1.283.766c-.4.255-.778.509-1.167.749-.042.027-.136-.007-.2-.036a1.175 1.175 0 1 0-.32 2.193 1.158 1.158 0 0 0 .938-1.069.317.317 0 0 1 .169-.282q3.254-2.1 6.509-4.206a.565.565 0 0 1 .307-.093c.511.018 1.02.056 1.529.082a.418.418 0 0 0 .236-.036c.587-.373 1.169-.753 1.809-1.169-.387-.024-.721-.042-1.054-.06z" opacity="0.82" transform="translate(-62.491 -140.9)"/>
</svg>
