<svg xmlns="http://www.w3.org/2000/svg" width="11.558" height="12.119">
    <defs>
        <style>
            .cls-1{fill:#83acff}
        </style>
    </defs>
    <g id="Group_10414" data-name="Group 10414">
        <circle id="Ellipse_939" data-name="Ellipse 939" class="cls-1" cx="1.288" cy="1.288" r="1.288" transform="translate(5.135)"/>
        <path id="Path_13972" data-name="Path 13972" class="cls-1" d="M14.661 13.111a.568.568 0 0 0-.837-.258l-.515.258-.515-2.446a.627.627 0 0 0-.644-.515H9.575V7.382l.9.644a.556.556 0 0 0 .386.193h1.931a.644.644 0 0 0 0-1.288h-1.736L9.382 5.708A1.127 1.127 0 0 0 8.288 5 1.293 1.293 0 0 0 7 6.288v3.862a1.291 1.291 0 0 0 1.288 1.288h3.348l.515 2.7a.821.821 0 0 0 .322.451.584.584 0 0 0 .579 0l1.288-.644a.684.684 0 0 0 .321-.834z" transform="translate(-3.153 -2.547)"/>
        <path id="Path_13973" data-name="Path 13973" class="cls-1" d="M8.09 13.212h-.9c-.064 0-.193.064-.193.129a2.628 2.628 0 0 1-2.768 1.094 2.723 2.723 0 0 1-1.869-1.867 2.5 2.5 0 0 1 1.674-3.025.354.354 0 0 0 .193-.322v-.773c0-.193-.129-.322-.322-.258a3.816 3.816 0 0 0-2.832 4.31 3.886 3.886 0 0 0 7.339 1.03.345.345 0 0 0-.322-.318z" transform="translate(-1.023 -3.678)"/>
    </g>
</svg>
