<svg width="11" height="11" viewBox="0 0 11 11" fill="none" xmlns="http://www.w3.org/2000/svg">
<g clip-path="url(#clip0_380_1325)">
<path d="M3.81323 2.8189C3.52049 2.8189 3.22775 2.81304 2.93501 2.8189C2.78923 2.82182 2.73419 2.75742 2.76522 2.62451C2.85948 2.22226 2.99063 1.84051 3.33138 1.5659C3.84251 1.15312 4.43852 1.12384 5.05094 1.1742C6.01171 1.25324 6.91862 1.55068 7.81792 1.8774C8.1171 1.98571 8.17037 1.93068 8.14637 1.61274C8.13525 1.46988 8.04684 1.41191 7.94614 1.35043C7.21838 0.91013 6.46136 0.523693 5.64344 0.287147C4.7178 0.0189824 3.774 -0.146717 2.82553 0.18761C2.16686 0.420058 1.73829 0.85802 1.67447 1.58815C1.6452 1.92482 1.68501 2.25446 1.82084 2.56127C1.92623 2.79958 1.84778 2.83236 1.62412 2.82417C1.20492 2.80894 0.785129 2.81421 0.365925 2.82241C0.255269 2.82475 0.114169 2.79431 0 2.79606L0.60363 3.93781C0.771077 3.99519 0.964871 4.00163 1.18208 3.96299C1.45667 3.9138 1.52518 4.03559 1.52342 4.29848C1.5123 5.74177 1.53162 7.18564 1.50761 8.62892C1.50117 9.00072 1.59543 9.22615 1.94965 9.36199C2.19321 9.45508 2.41276 9.60907 2.64403 9.7332C2.99415 9.92115 3.0041 9.91529 3.00468 9.5271C3.00644 7.77115 3.01347 6.01579 3.00293 4.26043C3.00117 4.00807 3.07904 3.95655 3.31499 3.9583C4.74883 3.96826 6.18326 3.96299 7.6171 3.9624C8.15984 3.9624 8.15281 3.96123 8.13993 4.51747C8.13583 4.68844 8.07963 4.73586 7.91686 4.72825C7.61475 4.71478 7.31206 4.71478 7.00995 4.71888C6.57143 4.72474 6.13056 4.71712 5.69438 4.75343C4.96487 4.81491 4.66745 5.26458 4.85773 5.97246C4.93735 6.26873 5.09251 6.53104 5.28513 6.75997C5.44145 6.94558 5.41218 7.03809 5.24239 7.19618C4.60129 7.79282 4.55035 8.58384 5.15808 9.21444C6.25 10.3474 7.72014 10.6776 9.18091 10.995C9.4192 11.0465 9.38173 10.7537 9.4397 10.6091C9.50176 10.454 9.35773 10.4557 9.25468 10.4247C8.47951 10.1881 7.72365 9.91002 7.024 9.48904C6.17799 8.98023 6.44731 8.24483 6.88407 7.80804C6.99239 7.69972 7.12471 7.60604 7.26112 7.53636C7.62939 7.34783 8.02518 7.26351 8.43969 7.22721C8.72307 7.20262 8.76405 7.32909 8.71311 7.54456C8.62002 7.93978 8.38232 8.22902 8.00878 8.38477C7.81499 8.46557 7.80679 8.54813 7.92155 8.7027C8.09602 8.9369 8.25703 9.18165 8.42623 9.41995C8.48185 9.49841 8.53162 9.57511 8.65984 9.54876C9.12178 9.4545 9.54274 9.27592 9.83841 8.89943C10.3513 8.24542 10.1189 7.32558 9.32494 6.8197C8.34309 6.19437 7.29918 6.21955 6.22892 6.53221C6.1329 6.56031 6.02927 6.6821 5.93911 6.58432C5.86066 6.49884 5.89461 6.363 5.91335 6.24589C5.93735 6.09659 6.0322 6.00759 6.14988 5.92972C6.41569 5.75407 6.71663 5.73182 7.02049 5.73006C7.74239 5.72596 8.46428 5.73182 9.18618 5.72655C9.50644 5.7242 9.64403 5.57958 9.64637 5.26048C9.6493 4.92908 9.66159 4.59651 9.64344 4.2657C9.62998 4.02212 9.71077 3.95596 9.9555 3.95655C10.3039 3.95772 10.6522 3.9583 11.0012 3.95889L10.3864 2.81948C8.19555 2.81948 6.00527 2.81948 3.8144 2.81948L3.81323 2.8189Z" fill="#529DFF"/>
</g>
<defs>
<clipPath id="clip0_380_1325">
<rect width="11" height="11" fill="white"/>
</clipPath>
</defs>
</svg>
