<svg width="20" height="17" viewBox="0 0 20 17" fill="none" xmlns="http://www.w3.org/2000/svg">
<path d="M9.90625 7.18164C10.2194 7.18164 10.5175 7.24186 10.8005 7.3623C11.0836 7.48275 11.3275 7.64836 11.5322 7.85913C11.737 8.06991 11.9026 8.31681 12.0291 8.59985C12.1555 8.88289 12.2188 9.18099 12.2188 9.49414C12.2188 9.81331 12.1585 10.1114 12.0381 10.3884C11.9176 10.6654 11.752 10.9093 11.5413 11.1201C11.3305 11.3309 11.0836 11.4965 10.8005 11.6169C10.5175 11.7374 10.2194 11.8006 9.90625 11.8066C9.58708 11.8066 9.28898 11.7464 9.01196 11.626C8.73494 11.5055 8.49105 11.3399 8.28027 11.1292C8.0695 10.9184 7.90389 10.6745 7.78345 10.3975C7.663 10.1204 7.59977 9.81934 7.59375 9.49414C7.59375 9.18099 7.65397 8.88289 7.77441 8.59985C7.89486 8.31681 8.06047 8.07292 8.27124 7.86816C8.48202 7.66341 8.72591 7.4978 9.00293 7.37134C9.27995 7.24487 9.58105 7.18164 9.90625 7.18164ZM9.90625 10.6504C10.0688 10.6504 10.2194 10.6203 10.3579 10.5601C10.4964 10.4998 10.6169 10.4185 10.7192 10.3162C10.8216 10.2138 10.9059 10.0903 10.9722 9.9458C11.0384 9.80127 11.0685 9.65072 11.0625 9.49414C11.0625 9.33154 11.0324 9.18099 10.9722 9.04248C10.9119 8.90397 10.8306 8.78353 10.7283 8.68115C10.6259 8.57878 10.5024 8.49447 10.3579 8.42822C10.2134 8.36198 10.0628 8.33187 9.90625 8.33789C9.74365 8.33789 9.5931 8.368 9.45459 8.42822C9.31608 8.48844 9.19564 8.56974 9.09326 8.67212C8.99089 8.7745 8.90658 8.89795 8.84033 9.04248C8.77409 9.18701 8.74398 9.33757 8.75 9.49414C8.75 9.65674 8.78011 9.80729 8.84033 9.9458C8.90055 10.0843 8.98185 10.2048 9.08423 10.3071C9.1866 10.4095 9.31006 10.4938 9.45459 10.5601C9.59912 10.6263 9.74967 10.6564 9.90625 10.6504ZM9.90625 0.244141C10.7554 0.244141 11.5714 0.352539 12.3542 0.569336C13.1371 0.786133 13.8748 1.09928 14.5674 1.50879C15.2599 1.91829 15.8832 2.40007 16.4373 2.9541C16.9913 3.50814 17.4761 4.13444 17.8916 4.83301C18.3071 5.53158 18.6173 6.26628 18.822 7.03711C19.0268 7.80794 19.1382 8.62695 19.1562 9.49414C19.1562 10.1084 19.096 10.7106 18.9756 11.3008C18.8551 11.891 18.6805 12.4661 18.4517 13.0261C18.2228 13.5862 17.9398 14.1191 17.6025 14.625C17.2653 15.1309 16.8799 15.6006 16.4463 16.0342L15.6333 15.2212C16.0127 14.8418 16.3469 14.4323 16.636 13.9927C16.925 13.5531 17.172 13.0863 17.3767 12.5925C17.5815 12.0987 17.735 11.5959 17.8374 11.084C17.9398 10.5721 17.994 10.0422 18 9.49414C18 8.7474 17.9036 8.03076 17.7109 7.34424C17.5182 6.65771 17.2472 6.01335 16.8979 5.41113C16.5487 4.80892 16.1271 4.26392 15.6333 3.77612C15.1395 3.28833 14.5945 2.86678 13.9983 2.51147C13.4021 2.15617 12.7577 1.88216 12.0652 1.68945C11.3726 1.49674 10.653 1.40039 9.90625 1.40039C9.1595 1.40039 8.44287 1.49674 7.75635 1.68945C7.06982 1.88216 6.42546 2.15316 5.82324 2.50244C5.22103 2.85173 4.67603 3.27327 4.18823 3.76709C3.70044 4.2609 3.27889 4.80591 2.92358 5.4021C2.56828 5.99829 2.29427 6.64266 2.10156 7.33521C1.90885 8.02775 1.8125 8.7474 1.8125 9.49414C1.8125 10.0301 1.86369 10.557 1.96606 11.075C2.06844 11.5929 2.22201 12.0987 2.42676 12.5925C2.63151 13.0863 2.87842 13.55 3.16748 13.9836C3.45654 14.4172 3.79378 14.8298 4.1792 15.2212L3.36621 16.0342C2.93262 15.6006 2.5472 15.1309 2.20996 14.625C1.87272 14.1191 1.58968 13.5892 1.36084 13.0352C1.132 12.4811 0.957357 11.906 0.836914 11.3098C0.716471 10.7136 0.65625 10.1084 0.65625 9.49414C0.65625 8.64502 0.764648 7.82902 0.981445 7.04614C1.19824 6.26327 1.51139 5.52555 1.9209 4.83301C2.3304 4.14046 2.81217 3.51717 3.36621 2.96313C3.92025 2.4091 4.54655 1.92432 5.24512 1.50879C5.94369 1.09326 6.67839 0.783122 7.44922 0.578369C8.22005 0.373617 9.03906 0.262207 9.90625 0.244141ZM9.90625 3.71289C10.7072 3.71289 11.457 3.86344 12.1555 4.16455C12.8541 4.46566 13.4683 4.87817 13.9983 5.4021C14.5282 5.92603 14.9408 6.53727 15.2358 7.23584C15.5309 7.93441 15.6815 8.68717 15.6875 9.49414C15.6875 10.265 15.543 11.0027 15.2539 11.7073C14.9648 12.4119 14.5463 13.0382 13.9983 13.5862L13.1763 12.7642C13.6099 12.3306 13.9441 11.8307 14.179 11.2646C14.4138 10.6986 14.5312 10.1084 14.5312 9.49414C14.5312 8.85579 14.4108 8.25659 14.1699 7.69653C13.929 7.13647 13.5978 6.64868 13.1763 6.23315C12.7547 5.81763 12.2639 5.48641 11.7039 5.2395C11.1438 4.99259 10.5446 4.86914 9.90625 4.86914C9.2679 4.86914 8.6687 4.98958 8.10864 5.23047C7.54858 5.47135 7.06079 5.80257 6.64526 6.22412C6.22974 6.64567 5.89852 7.13647 5.65161 7.69653C5.4047 8.25659 5.28125 8.85579 5.28125 9.49414C5.28125 10.1084 5.39868 10.6986 5.63354 11.2646C5.86841 11.8307 6.20264 12.3306 6.63623 12.7642L5.81421 13.5862C5.27222 13.0382 4.85669 12.4119 4.56763 11.7073C4.27856 11.0027 4.13102 10.265 4.125 9.49414C4.125 8.6932 4.27555 7.94344 4.57666 7.24487C4.87777 6.54631 5.29028 5.93205 5.81421 5.4021C6.33813 4.87215 6.94938 4.45964 7.64795 4.16455C8.34652 3.86947 9.09928 3.71891 9.90625 3.71289Z" fill="#5C5F65"/>
</svg>
