<svg width="12" height="15" viewBox="0 0 12 15" fill="none" xmlns="http://www.w3.org/2000/svg">
<path d="M1.18852 4.35071C0.967569 2.92725 1.99368 1.64861 3.56119 1.18016C3.83936 1.09697 4.13949 1.12065 4.40043 1.24637C4.66136 1.3721 4.86348 1.5904 4.96559 1.85681L5.46881 3.16939C5.54982 3.38055 5.56447 3.61057 5.51088 3.82993C5.45728 4.04929 5.33789 4.24798 5.16803 4.4005L3.67109 5.74137C3.5973 5.8076 3.54232 5.8914 3.5115 5.98461C3.48069 6.07781 3.47509 6.17724 3.49525 6.27319L3.50913 6.33203L3.545 6.47913C3.73116 7.19386 4.01482 7.88083 4.38833 8.52155C4.7952 9.20239 5.30013 9.82241 5.88758 10.3626L5.93386 10.4033C6.00859 10.4682 6.09923 10.513 6.19695 10.5334C6.29467 10.5539 6.39613 10.5492 6.49145 10.5198L8.42684 9.92352C8.64679 9.85597 8.88235 9.85424 9.10332 9.91856C9.32428 9.98287 9.52055 10.1103 9.66696 10.2845L10.5832 11.3719C10.9649 11.8245 10.9187 12.4898 10.4802 12.8893C9.28058 13.9835 7.63093 14.2075 6.48335 13.3057C5.07668 12.1958 3.89084 10.8422 2.98509 9.31249C2.07199 7.78394 1.46207 6.10055 1.18737 4.35071H1.18852ZM4.70877 6.34787L5.9489 5.23444C6.28882 4.92953 6.52781 4.53221 6.63521 4.09349C6.7426 3.65476 6.71349 3.19465 6.55161 2.77223L6.04954 1.45965C5.84402 0.92358 5.43727 0.484333 4.91216 0.231411C4.38705 -0.0215108 3.78311 -0.0690745 3.2234 0.0984121C1.27644 0.681152 -0.286439 2.38864 0.0444155 4.52158C0.275782 6.01067 0.809083 7.90486 1.98558 9.88278C2.96277 11.5322 4.24194 12.9917 5.75918 14.1883C7.48055 15.5404 9.77802 15.0788 11.2703 13.7187C11.6973 13.3298 11.9565 12.7962 11.995 12.2267C12.0335 11.6573 11.8484 11.095 11.4774 10.6545L10.5612 9.56595C10.2681 9.21798 9.87542 8.96358 9.43351 8.83536C8.99161 8.70714 8.52062 8.71095 8.08094 8.8463L6.4741 9.34078C6.05922 8.92237 5.69582 8.45793 5.3913 7.95691C5.09715 7.45039 4.86791 6.91036 4.70877 6.349V6.34787Z" fill="#A5A4B5"/>
</svg>
