<svg width="221" height="150" viewBox="0 0 221 150" fill="none" xmlns="http://www.w3.org/2000/svg">
<path d="M18.7326 146.746L11.9421 135.887L18.7358 147.929L18.7394 149.167C19.2239 149.161 19.7034 149.142 20.1781 149.11L19.6242 133.215L19.6315 133.093L19.619 133.069L19.5663 131.567L26.6663 119.666L19.559 130.442L19.5377 130.761L19.1193 118.751L25.2231 106.438L19.0716 116.641L18.7855 91.7493L18.7841 91.6665L18.7831 91.748L18.6438 111.373L12.8113 103.521L18.649 113.064L18.6761 123.813L13.2643 113.431L18.679 125.393L18.694 131.37L10.833 116.915L18.7002 133.455L18.7326 146.746Z" fill="#F9F9FC"/>
<path d="M162.067 146.746L155.276 135.887L162.07 147.929L162.073 149.167C162.558 149.161 163.037 149.142 163.512 149.11L162.958 133.215L162.965 133.093L162.953 133.069L162.9 131.567L170 119.666L162.893 130.442L162.872 130.761L162.453 118.751L168.557 106.438L162.406 116.641L162.119 91.7493L162.118 91.6665L162.117 91.748L161.978 111.373L156.145 103.521L161.983 113.064L162.01 123.813L156.598 113.431L162.013 125.393L162.028 131.37L154.167 116.915L162.034 133.455L162.067 146.746Z" fill="#F9F9FC"/>
<path d="M185.646 18.5417C186.828 18.5403 187.97 18.9727 188.863 19.7594C189.568 19.5637 190.308 19.5307 191.027 19.6628C191.623 18.7846 192.479 18.1229 193.471 17.7744C194.463 17.4259 195.539 17.4089 196.541 17.7259C197.543 18.0428 198.42 18.6771 199.042 19.536C199.664 20.3949 200 21.4335 200 22.5H180.833C181.068 21.38 181.674 20.3759 182.55 19.6554C183.426 18.935 184.519 18.5418 185.646 18.5417Z" fill="#C8CFFF"/>
<path d="M4.60411 57.7082C5.73435 57.7068 6.82701 58.1392 7.68083 58.9259C8.35543 58.7302 9.06269 58.6972 9.75085 58.8293C10.3206 57.9511 11.1397 57.2894 12.0886 56.9409C13.0376 56.5924 14.0666 56.5754 15.0252 56.8924C15.9839 57.2093 16.8221 57.8435 17.4173 58.7025C18.0124 59.5614 18.3334 60.6 18.3333 61.6665H0C0.2248 60.5465 0.80464 59.5424 1.64264 58.8219C2.48063 58.1015 3.52602 57.7083 4.60411 57.7082Z" fill="#C8CFFF"/>
<path d="M6.48038 1.04166C7.662 1.04028 8.80432 1.47273 9.69695 2.25936C10.4022 2.06366 11.1416 2.03065 11.8611 2.16275C12.4567 1.28456 13.3131 0.622887 14.3051 0.274413C15.2972 -0.07406 16.3729 -0.0910785 17.3752 0.22585C18.3775 0.542778 19.2537 1.17704 19.8759 2.03598C20.4982 2.89491 20.8337 3.93349 20.8337 5H1.66699C1.90201 3.88001 2.50821 2.87589 3.3843 2.15543C4.26039 1.43497 5.35328 1.04182 6.48038 1.04166Z" fill="#C8CFFF"/>
<path d="M79.167 81.5261V120.833H94.8464V80.9801L91.2066 81.1069V73.0641H88.5666L88.1316 55.2513C89.1969 54.5745 89.9466 52.9672 89.9466 51.0904C89.9478 50.5516 89.8835 50.0145 89.755 49.4905C90.2591 48.9586 90.5681 48.2788 90.6336 47.5574C90.699 46.836 90.5171 46.1139 90.1165 45.504C90.4515 45.7894 90.8414 46.0071 91.2634 46.1445C91.6854 46.2818 92.1312 46.336 92.5748 46.3041C93.0185 46.2721 93.4513 46.1545 93.848 45.9581C94.2447 45.7618 94.5974 45.4906 94.8857 45.1602C95.174 44.8299 95.3921 44.447 95.5274 44.0338C95.6627 43.6206 95.7125 43.1854 95.6738 42.7533C95.6352 42.3212 95.5088 41.9009 95.3022 41.5167C95.0956 41.1326 94.8128 40.7924 94.4701 40.5157C95.0462 40.3084 95.553 39.9512 95.9355 39.4829C96.318 39.0145 96.5616 38.453 96.6397 37.8592C96.7178 37.2654 96.6275 36.6621 96.3787 36.1148C96.1298 35.5675 95.7319 35.0972 95.2281 34.7549C94.7243 34.4126 94.134 34.2114 93.5212 34.1732C92.9084 34.135 92.2965 34.2612 91.7522 34.5382C91.2078 34.8152 90.7517 35.2323 90.4333 35.7443C90.115 36.2562 89.9467 36.8434 89.9466 37.4421C89.9466 37.49 89.9482 37.5376 89.9503 37.585C89.4889 37.4477 89.0027 37.4087 88.5245 37.4707C88.0464 37.5327 87.5875 37.6944 87.1791 37.9446C86.7707 38.1949 86.4223 38.5278 86.1576 38.921C85.8929 39.3141 85.718 39.7581 85.6449 40.223C85.2259 39.9799 84.7576 39.8287 84.2727 39.7798C83.7877 39.7309 83.2976 39.7855 82.8365 39.9397C82.3753 40.094 81.9541 40.3442 81.6021 40.6731C81.2501 41.002 80.9757 41.4017 80.798 41.8443C80.6204 42.2869 80.5436 42.762 80.5731 43.2364C80.6027 43.7109 80.7378 44.1734 80.969 44.5918C81.2003 45.0103 81.5222 45.3746 81.9124 45.6596C82.3026 45.9446 82.7518 46.1434 83.2287 46.2422C83.228 46.266 83.2268 46.2896 83.2268 46.3135C83.5388 47.2316 83.936 48.12 84.4135 48.9678C84.1801 49.6522 84.063 50.3692 84.0669 51.0904C84.0669 52.9672 84.8165 54.5745 85.8818 55.2513L85.4468 73.0641H82.8069V81.3993L79.167 81.5261ZM88.9579 43.993L88.9666 43.9932C89.0151 43.9932 89.0632 43.9917 89.1111 43.9897C89.1414 44.0865 89.176 44.1813 89.215 44.274C89.1349 44.1757 89.049 44.0818 88.9579 43.993Z" fill="#F9F9FC"/>
<path d="M70.8333 148.333H117.5V95.0002H70.8333V148.333Z" fill="#3F3D56"/>
<path d="M88.333 148.333H100.833V137.5H88.333V148.333Z" fill="#E2E2E2"/>
<path d="M55.9379 24.7243C55.937 24.7632 55.9349 24.8017 55.9349 24.8408C55.9342 25.5563 56.0785 26.2646 56.3594 26.9236C56.6402 27.5826 57.0517 28.1788 57.5695 28.6766C57.6504 28.8478 57.7404 29.0146 57.839 29.1763C57.4644 30.2942 57.2765 31.4653 57.2827 32.6433C57.2827 36.7063 59.3947 40 61.9999 40C64.6052 40 66.7172 36.7063 66.7172 32.6433C66.7191 31.7632 66.6159 30.886 66.4097 30.03C67.2186 29.1613 67.7144 28.0508 67.8194 26.8726C67.9243 25.6943 67.6326 24.5148 66.9898 23.5187C67.5273 23.9848 68.1528 24.3403 68.8299 24.5646C69.5071 24.7889 70.2223 24.8775 70.9342 24.8252C71.6461 24.7729 72.3404 24.5809 72.9769 24.2602C73.6134 23.9394 74.1793 23.4964 74.6419 22.9569C75.1045 22.4173 75.4545 21.792 75.6715 21.1171C75.8886 20.4422 75.9685 19.7313 75.9065 19.0255C75.8445 18.3198 75.6418 17.6333 75.3103 17.0059C74.9788 16.3785 74.525 15.8227 73.9754 15.3707C74.8997 15.0322 75.7129 14.4487 76.3267 13.6837C76.9404 12.9187 77.3312 12.0015 77.4565 11.0316C77.5819 10.0617 77.437 9.07625 77.0377 8.1823C76.6384 7.28836 75.9999 6.5201 75.1916 5.96098C74.3832 5.40187 73.4359 5.07328 72.4527 5.0109C71.4694 4.94852 70.4877 5.15475 69.6142 5.60717C68.7407 6.0596 68.0088 6.74092 67.4981 7.57714C66.9873 8.41335 66.7172 9.37248 66.7172 10.3503C66.7172 10.4287 66.7198 10.5064 66.7231 10.5839C65.9828 10.3595 65.2026 10.2958 64.4354 10.3971C63.6682 10.4984 62.9319 10.7624 62.2766 11.1712C61.6213 11.5799 61.0623 12.1238 60.6375 12.7659C60.2127 13.4081 59.9321 14.1334 59.8148 14.8926C59.1425 14.4956 58.3912 14.2486 57.613 14.1687C56.8349 14.0888 56.0485 14.1779 55.3085 14.4299C54.5686 14.6819 53.8927 15.0907 53.3279 15.6279C52.7631 16.1651 52.3229 16.8178 52.0378 17.5409C51.7527 18.2639 51.6295 19.0398 51.6769 19.8148C51.7243 20.5897 51.941 21.3452 52.3121 22.0287C52.6832 22.7122 53.1997 23.3073 53.8259 23.7728C54.452 24.2383 55.1727 24.563 55.9379 24.7243ZM65.1447 21.051C65.2225 21.051 65.2997 21.0484 65.3767 21.0451C65.4251 21.2033 65.4806 21.3581 65.5432 21.5096C65.4147 21.3489 65.277 21.1956 65.1308 21.0506L65.1447 21.051Z" fill="#F9F9FC"/>
<path d="M59.167 77.4998H64.167L63.9884 69.2865V69.2833L63.3341 39.1665C62.8321 39.5025 62.2553 39.6803 61.667 39.6803C61.0787 39.6803 60.5019 39.5025 59.9999 39.1665L59.3457 69.2833V69.2865L59.167 77.4998Z" fill="#A5C3FF"/>
<path d="M49.167 83.1886V148.333H74.167V82.2843L68.3638 82.4939V69.1665H54.9699V82.979L49.167 83.1886Z" fill="#A5C3FF"/>
<path d="M120.242 24.7243C120.241 24.7632 120.239 24.8017 120.239 24.8408C120.238 25.5563 120.387 26.2646 120.677 26.9236C120.967 27.5826 121.391 28.1788 121.926 28.6766C122.009 28.8478 122.102 29.0146 122.204 29.1763C121.817 30.2942 121.623 31.4653 121.63 32.6433C121.63 36.7063 123.81 40 126.499 40C129.189 40 131.369 36.7063 131.369 32.6433C131.371 31.7632 131.264 30.886 131.051 30.03C131.886 29.1613 132.398 28.0508 132.506 26.8726C132.615 25.6943 132.314 24.5148 131.65 23.5187C132.205 23.9848 132.851 24.3403 133.55 24.5646C134.249 24.7889 134.987 24.8775 135.722 24.8253C136.457 24.773 137.173 24.5809 137.83 24.2602C138.487 23.9395 139.072 23.4965 139.549 22.9569C140.027 22.4174 140.388 21.792 140.612 21.1171C140.836 20.4422 140.918 19.7313 140.854 19.0255C140.79 18.3198 140.581 17.6333 140.239 17.0059C139.897 16.3785 139.428 15.8227 138.861 15.3707C139.815 15.0322 140.655 14.4487 141.288 13.6837C141.922 12.9187 142.325 12.0015 142.454 11.0316C142.584 10.0617 142.434 9.07625 142.022 8.1823C141.61 7.28836 140.951 6.5201 140.116 5.96098C139.282 5.40187 138.304 5.07328 137.289 5.0109C136.274 4.94852 135.261 5.15475 134.359 5.60717C133.457 6.0596 132.702 6.74092 132.175 7.57714C131.648 8.41335 131.369 9.37248 131.369 10.3503C131.369 10.4287 131.371 10.5064 131.375 10.5839C130.611 10.3595 129.805 10.2958 129.013 10.3971C128.221 10.4984 127.461 10.7624 126.785 11.1712C126.108 11.5799 125.531 12.1238 125.093 12.7659C124.654 13.4081 124.365 14.1334 124.244 14.8926C123.55 14.4956 122.774 14.2486 121.971 14.1687C121.168 14.0888 120.356 14.1779 119.592 14.4299C118.828 14.6819 118.131 15.0907 117.547 15.6279C116.964 16.1651 116.51 16.8178 116.216 17.5409C115.921 18.2639 115.794 19.0398 115.843 19.8148C115.892 20.5897 116.116 21.3452 116.499 22.0287C116.882 22.7122 117.415 23.3073 118.062 23.7728C118.708 24.2383 119.452 24.563 120.242 24.7243ZM129.746 21.051C129.826 21.051 129.905 21.0484 129.985 21.0451C130.035 21.2033 130.092 21.3581 130.157 21.5096C130.024 21.3489 129.882 21.1956 129.731 21.0506L129.746 21.051Z" fill="#F9F9FC"/>
<path d="M124.167 77.4998H129.167L128.334 39.1665C127.256 39.5905 126.078 39.5905 125 39.1665L124.167 77.4998Z" fill="#A5C3FF"/>
<path d="M114.167 83.1886V148.333H139.167V82.2843L137.114 82.3594L133.362 82.4939V69.1665H119.969V82.979L114.167 83.1886Z" fill="#A5C3FF"/>
<path d="M100.833 107.5H107.5V101.667H100.833V107.5Z" fill="white"/>
<path d="M90.8333 107.5H97.5V101.667H90.8333V107.5Z" fill="white"/>
<path d="M80.8333 107.5H87.5V101.667H80.8333V107.5Z" fill="white"/>
<path d="M100.833 117.5H107.5V111.667H100.833V117.5Z" fill="white"/>
<path d="M90.8333 117.5H97.5V111.667H90.8333V117.5Z" fill="white"/>
<path d="M80.8333 117.5H87.5V111.667H80.8333V117.5Z" fill="white"/>
<path d="M100.833 128.333H107.5V121.667H100.833V128.333Z" fill="white"/>
<path d="M90.8333 128.333H97.5V121.667H90.8333V128.333Z" fill="white"/>
<path d="M80.8333 128.333H87.5V121.667H80.8333V128.333Z" fill="white"/>
<path d="M58.3333 105H65V99.1667H58.3333V105Z" fill="white"/>
<path d="M58.3333 115H65V109.167H58.3333V115Z" fill="white"/>
<path d="M58.3333 125.833H65V119.167H58.3333V125.833Z" fill="white"/>
<path d="M58.3333 135.833H65V129.167H58.3333V135.833Z" fill="white"/>
<path d="M123.333 105H130V99.1667H123.333V105Z" fill="white"/>
<path d="M123.333 115H130V109.167H123.333V115Z" fill="white"/>
<path d="M123.333 125.833H130V119.167H123.333V125.833Z" fill="white"/>
<path d="M123.333 135.833H130V129.167H123.333V135.833Z" fill="white"/>
<path d="M153.4 68.8369C151.522 68.8369 149.685 68.2798 148.123 67.2359C146.56 66.192 145.343 64.7084 144.624 62.9725C143.905 61.2366 143.716 59.3264 144.083 57.4836C144.449 55.6408 145.354 53.948 146.683 52.6194C148.011 51.2908 149.704 50.386 151.547 50.0195C153.39 49.6529 155.3 49.841 157.036 50.5601C158.772 51.2791 160.255 52.4967 161.299 54.059C162.343 55.6213 162.9 57.458 162.9 59.3369C162.898 61.8556 161.896 64.2703 160.115 66.0512C158.334 67.8322 155.919 68.834 153.4 68.8369Z" fill="#79A6FF"/>
<path d="M153.4 54.8369V63.8369" stroke="white" stroke-linecap="round"/>
<path d="M157.9 59.3369L148.9 59.3369" stroke="white" stroke-linecap="round"/>
<path d="M152.397 60.9747C152.498 61.326 152.675 61.6509 152.915 61.9264C153.155 62.202 153.453 62.4216 153.787 62.5697C154.121 62.7178 154.484 62.7909 154.85 62.7837C155.215 62.7765 155.574 62.6893 155.903 62.5281L162.217 68.779L163.123 64.2513L156.987 59.0094C156.68 58.4762 156.188 58.0741 155.604 57.8795C155.02 57.6849 154.385 57.7112 153.819 57.9534C153.254 58.1957 152.796 58.637 152.534 59.1938C152.272 59.7507 152.223 60.3843 152.397 60.9747Z" fill="#A0616A"/>
<path d="M200.52 100.413C200.761 100.138 200.939 99.8138 201.041 99.4628C201.143 99.1118 201.167 98.7427 201.111 98.3814C201.055 98.0202 200.921 97.6757 200.717 97.372C200.513 97.0684 200.246 96.8132 199.933 96.6242L201.779 87.9326L197.48 89.6182L196.386 97.6134C196.104 98.1601 196.031 98.7915 196.183 99.3879C196.335 99.9843 196.7 100.504 197.21 100.849C197.719 101.195 198.338 101.341 198.948 101.26C199.558 101.18 200.118 100.878 200.52 100.413Z" fill="#A0616A"/>
<path d="M179.718 145.71H176.669L175.219 133.952L179.718 133.952L179.718 145.71Z" fill="#A0616A"/>
<path d="M180.493 148.665L170.664 148.665V148.541C170.664 148.038 170.763 147.541 170.955 147.077C171.148 146.612 171.429 146.191 171.785 145.835C172.14 145.48 172.562 145.198 173.026 145.006C173.49 144.814 173.988 144.715 174.49 144.715H174.49L180.494 144.715L180.493 148.665Z" fill="#2F2E41"/>
<path d="M194.635 145.71H191.587L190.137 133.952L194.636 133.952L194.635 145.71Z" fill="#A0616A"/>
<path d="M195.413 148.665L185.584 148.665V148.541C185.584 148.038 185.683 147.541 185.875 147.077C186.067 146.612 186.349 146.191 186.705 145.835C187.06 145.48 187.482 145.198 187.946 145.006C188.41 144.814 188.907 144.715 189.41 144.715H189.41L195.413 144.715L195.413 148.665Z" fill="#2F2E41"/>
<path d="M180.034 139.571L175.719 139.398C175.424 139.385 175.147 139.257 174.946 139.042C174.745 138.826 174.637 138.54 174.645 138.246L175.861 98.3673L175.94 98.3387C183.503 95.6028 189.76 95.8097 195.068 98.9703L195.127 99.0057L195.856 137.846C195.858 137.994 195.831 138.142 195.777 138.28C195.722 138.418 195.64 138.544 195.535 138.65C195.431 138.757 195.307 138.841 195.17 138.898C195.033 138.956 194.885 138.986 194.737 138.986H191.098C190.839 138.985 190.588 138.895 190.388 138.73C190.187 138.566 190.05 138.337 190 138.083L185.043 112.867C185.026 112.78 184.978 112.702 184.909 112.647C184.839 112.591 184.752 112.563 184.663 112.566C184.575 112.569 184.49 112.604 184.425 112.664C184.359 112.725 184.318 112.806 184.307 112.894L181.189 138.587C181.155 138.858 181.023 139.107 180.819 139.289C180.614 139.47 180.351 139.57 180.078 139.571C180.063 139.571 180.049 139.571 180.034 139.571Z" fill="#2F2E41"/>
<path d="M187.163 62.6469C190.122 61.0291 191.21 57.3184 189.592 54.3589C187.974 51.3993 184.264 50.3117 181.304 51.9295C178.344 53.5474 177.257 57.2581 178.875 60.2176C180.493 63.1771 184.203 64.2648 187.163 62.6469Z" fill="#A0616A"/>
<path d="M157.098 63.363C157.196 63.1573 157.354 62.9863 157.552 62.8728L159.394 61.8152C159.593 61.7012 159.823 61.6512 160.052 61.6721C160.281 61.693 160.498 61.7837 160.674 61.9319L166.793 67.1161L180.859 71.0595C181.288 71.2604 181.673 71.544 181.992 71.8939C182.311 72.2438 182.558 72.6532 182.719 73.0987C182.88 73.5441 182.952 74.017 182.93 74.4901C182.908 74.9633 182.793 75.4275 182.592 75.8562C182.39 76.2849 182.106 76.6698 181.756 76.9887C181.406 77.3076 180.996 77.5543 180.551 77.7148C180.105 77.8753 179.632 77.9464 179.159 77.9241C178.686 77.9017 178.222 77.7863 177.793 77.5844L168.809 75.5618C166.082 74.9483 163.67 73.3652 162.023 71.107L157.205 64.5027C157.113 64.3756 157.048 64.2305 157.015 64.0768C156.982 63.9231 156.982 63.7642 157.015 63.6104C157.033 63.5249 157.061 63.4419 157.098 63.363Z" fill="#3F3D56"/>
<path d="M200.26 94.7862C200.045 94.8634 199.813 94.8734 199.593 94.815L197.54 94.2692C197.318 94.2096 197.12 94.0832 196.972 93.9072C196.824 93.7311 196.733 93.5139 196.713 93.2848L196.018 85.2949L188.806 72.5916C188.643 72.1469 188.569 71.6744 188.589 71.2012C188.609 70.7279 188.721 70.2632 188.921 69.8335C189.12 69.4038 189.402 69.0177 189.751 68.6971C190.1 68.3765 190.508 68.1278 190.953 67.9652C191.398 67.8026 191.87 67.7292 192.344 67.7493C192.817 67.7695 193.281 67.8827 193.711 68.0825C194.14 68.2822 194.526 68.5647 194.847 68.9137C195.167 69.2628 195.415 69.6715 195.577 70.1165L200.533 77.8786C202.038 80.2343 202.635 83.0562 202.215 85.8195L200.986 93.9018C200.963 94.0572 200.907 94.2058 200.822 94.3381C200.737 94.4704 200.625 94.5833 200.493 94.6695C200.42 94.7175 200.342 94.7566 200.26 94.7862Z" fill="#3F3D56"/>
<path d="M177.552 68.1339C178.601 66.9836 179.895 66.0834 181.338 65.4999C182.782 64.9163 184.338 64.6643 185.891 64.7623C185.993 64.7687 186.095 64.7758 186.196 64.7837H186.196C187.669 64.9001 189.1 65.3296 190.393 66.0434C191.686 66.7573 192.812 67.7389 193.696 68.9229C194.594 70.1234 195.225 71.5017 195.548 72.9659C195.871 74.43 195.877 75.9461 195.567 77.4129C194.383 83.0185 194.682 88.8361 196.436 94.2904L198.075 99.3775C198.127 99.5405 198.141 99.7134 198.117 99.8829C198.092 100.052 198.028 100.214 197.931 100.355C197.834 100.496 197.706 100.613 197.557 100.697C197.407 100.78 197.241 100.828 197.069 100.838L188.694 101.288L186.55 97.5856V101.403L176.37 101.95C176.35 101.952 176.33 101.952 176.31 101.952C176.155 101.952 176.003 101.92 175.861 101.858C175.72 101.796 175.592 101.705 175.488 101.592C175.383 101.478 175.303 101.344 175.252 101.198C175.202 101.052 175.182 100.897 175.195 100.743L176.346 86.4754L174.902 76.7848C174.669 75.2364 174.785 73.6554 175.244 72.1582C175.703 70.661 176.491 69.2858 177.552 68.1339Z" fill="#3F3D56"/>
<path d="M188.477 63.118C187.912 63.4434 185.677 63.6591 185.517 63.0265L185.514 63.0126C185.403 62.5491 185.495 62.065 185.527 61.5895C185.559 61.114 185.512 60.5916 185.188 60.242C184.585 59.5902 183.511 59.9357 182.638 59.771C182.126 59.6568 181.674 59.3603 181.366 58.9368C181.057 58.5133 180.914 57.9919 180.962 57.4702C180.974 57.3714 180.994 57.2724 181.016 57.1735C181.07 56.923 181.066 56.6632 181.003 56.4145C180.94 56.1659 180.821 55.9351 180.654 55.7404C180.487 55.5457 180.277 55.3924 180.041 55.2924C179.805 55.1924 179.549 55.1485 179.293 55.1641C178.411 55.2146 177.459 55.4819 176.729 54.8284C176.164 54.3231 176.027 53.0077 176.275 52.2918C176.691 51.0888 179.361 50.459 180.527 50.1127C181.969 49.6962 183.485 49.6061 184.966 49.8491C186.447 50.0921 187.855 50.662 189.088 51.5175C189.824 52.0365 190.512 52.6886 190.826 53.533C191.14 54.3774 190.988 55.4427 190.281 56.0001C190.829 56.5809 191.215 57.2956 191.401 58.0727C191.586 58.8498 191.564 59.6619 191.336 60.4277C190.987 61.554 189.319 62.6338 188.477 63.118Z" fill="#2F2E41"/>
<path d="M219.908 148.837H9.18562C9.13639 148.837 9.08918 148.817 9.05437 148.782C9.01956 148.747 9 148.7 9 148.651C9 148.602 9.01956 148.555 9.05437 148.52C9.08918 148.485 9.13639 148.465 9.18562 148.465H219.908C219.957 148.465 220.005 148.485 220.039 148.52C220.074 148.555 220.094 148.602 220.094 148.651C220.094 148.7 220.074 148.747 220.039 148.782C220.005 148.817 219.957 148.837 219.908 148.837Z" fill="#3F3D56"/>
</svg>
