<svg width="16" height="15" viewBox="0 0 16 15" fill="none" xmlns="http://www.w3.org/2000/svg">
<path d="M1 3.78223C1 3.22994 1.44772 2.78223 2 2.78223H14.2226C14.7748 2.78223 15.2226 3.22994 15.2226 3.78223V13.2225C15.2226 13.7748 14.7748 14.2225 14.2226 14.2225H2C1.44771 14.2225 1 13.7748 1 13.2225V3.78223Z" stroke="#A5A4B5" stroke-width="1.5" stroke-linecap="round"/>
<path d="M5.42676 2.78262V2C5.42676 1.44772 5.87447 1 6.42676 1L9.67505 1C10.2273 1 10.6751 1.44772 10.6751 2V2.78262" stroke="#A5A4B5" stroke-width="1.5" stroke-linecap="round"/>
<path d="M8.56866 5.68521L8.56866 8.51596C8.56866 8.67101 8.50706 8.81972 8.39742 8.92935C8.28778 9.03899 8.13909 9.10059 7.98404 9.10059C7.82899 9.10059 7.68029 9.03899 7.57066 8.92935C7.46102 8.81972 7.39941 8.67101 7.39941 8.51596L7.39941 5.68521C7.39941 5.53016 7.46102 5.38146 7.57066 5.27182C7.68029 5.16218 7.82899 5.10059 7.98404 5.10059C8.13909 5.10059 8.28778 5.16218 8.39742 5.27182C8.50706 5.38146 8.56866 5.53016 8.56866 5.68521Z" fill="#A5A4B5"/>
<path d="M8.03547 11.373C8.20094 11.373 8.36268 11.324 8.50026 11.2321C8.63784 11.1401 8.74507 11.0095 8.80839 10.8566C8.87171 10.7037 8.88828 10.5355 8.856 10.3732C8.82372 10.211 8.74404 10.0619 8.62704 9.94488C8.51004 9.82788 8.36097 9.74821 8.19869 9.71593C8.0364 9.68365 7.86819 9.70022 7.71532 9.76354C7.56245 9.82686 7.43179 9.93408 7.33987 10.0717C7.24794 10.2092 7.19887 10.371 7.19887 10.5364C7.19887 10.7583 7.28702 10.9711 7.44391 11.128C7.6008 11.2849 7.81359 11.373 8.03547 11.373Z" fill="#A5A4B5"/>
</svg>
