<svg width="20" height="19" viewBox="0 0 20 19" fill="none" xmlns="http://www.w3.org/2000/svg">
<path d="M7.56771 17.0495H12.1927C16.0469 17.0495 17.5885 15.5078 17.5885 11.6536V7.02865C17.5885 3.17448 16.0469 1.63281 12.1927 1.63281H7.56771C3.71354 1.63281 2.17188 3.17448 2.17188 7.02865V11.6536C2.17188 15.5078 3.71354 17.0495 7.56771 17.0495Z" stroke="#5C5F65" stroke-width="0.925" stroke-linecap="round" stroke-linejoin="round"/>
<path d="M2.17188 9.87967L6.79688 9.86426C7.375 9.86426 8.0225 10.3036 8.23833 10.8432L9.11708 13.0632C9.3175 13.5643 9.63354 13.5643 9.83396 13.0632L11.5992 8.58467C11.7688 8.15301 12.0848 8.13759 12.3006 8.54613L13.1023 10.0647C13.3413 10.5195 13.9579 10.8895 14.4667 10.8895H17.5963" stroke="#5C5F65" stroke-width="0.925" stroke-linecap="round" stroke-linejoin="round"/>
</svg>
