<svg width="10" height="10" viewBox="0 0 10 10" fill="none" xmlns="http://www.w3.org/2000/svg">
<g clip-path="url(#clip0_26_397)">
<path d="M0.172729 2.39258C0.172729 2.06706 0.232446 1.75781 0.351878 1.46484C0.477597 1.17188 0.644174 0.917969 0.851609 0.703125C1.05904 0.488281 1.3042 0.315755 1.58706 0.185547C1.86993 0.0618486 2.16851 0 2.48281 0H7.51783C7.83212 0 8.13071 0.0618486 8.41357 0.185547C8.69644 0.315755 8.94159 0.488281 9.14902 0.703125C9.35646 0.917969 9.52304 1.17188 9.64876 1.46484C9.76819 1.75781 9.8279 2.06706 9.8279 2.39258V7.60742C9.8279 7.93294 9.76819 8.24219 9.64876 8.53516C9.52304 8.82812 9.35646 9.08203 9.14902 9.29688C8.94159 9.51172 8.69644 9.68424 8.41357 9.81445C8.13071 9.93815 7.83212 10 7.51783 10H2.48281C2.16851 10 1.86993 9.93815 1.58706 9.81445C1.3042 9.68424 1.05904 9.51172 0.851609 9.29688C0.644174 9.08203 0.477597 8.82812 0.351878 8.53516C0.232446 8.24219 0.172729 7.93294 0.172729 7.60742V2.39258ZM2.48281 0.625C2.01136 0.625 1.60906 0.797526 1.27591 1.14258C0.942755 1.48763 0.776178 1.9043 0.776178 2.39258V7.60742C0.776178 8.0957 0.942755 8.51237 1.27591 8.85742C1.60906 9.20247 2.01136 9.375 2.48281 9.375H2.98254L6.71637 0.625H2.48281ZM7.37639 0.625L3.64256 9.375H7.51783C7.98927 9.375 8.39157 9.20247 8.72472 8.85742C9.05788 8.51237 9.22445 8.0957 9.22445 7.60742V2.39258C9.22445 1.9043 9.05788 1.48763 8.72472 1.14258C8.39157 0.797526 7.98927 0.625 7.51783 0.625H7.37639ZM2.79396 1.48438C2.86939 1.48438 2.93539 1.50553 2.99197 1.54785C3.04854 1.59017 3.0894 1.64388 3.11454 1.70898L3.82171 3.54492C3.85314 3.57096 3.87828 3.60514 3.89714 3.64746C3.916 3.68978 3.92542 3.73372 3.92542 3.7793C3.92542 3.7793 3.92542 3.78255 3.92542 3.78906C3.92542 3.79557 3.92542 3.80208 3.92542 3.80859L4.20829 4.54102C4.23343 4.61914 4.23029 4.69727 4.19886 4.77539C4.16743 4.85352 4.114 4.90885 4.03857 4.94141C3.95685 4.97396 3.87828 4.97396 3.80285 4.94141C3.72742 4.90885 3.67399 4.85026 3.64256 4.76562L3.37855 4.0918H2.19994L1.94536 4.76562C1.91393 4.85026 1.85893 4.90885 1.78035 4.94141C1.70178 4.97396 1.62478 4.97396 1.54935 4.94141C1.47392 4.90885 1.41891 4.85352 1.38434 4.77539C1.34977 4.69727 1.3482 4.61914 1.37963 4.54102L1.66249 3.79883C1.66249 3.79883 1.66249 3.79557 1.66249 3.78906C1.66249 3.78255 1.66249 3.7793 1.66249 3.7793C1.66249 3.73372 1.67192 3.68978 1.69078 3.64746C1.70964 3.60514 1.73478 3.57096 1.76621 3.54492L2.47338 1.70898C2.49852 1.64388 2.53938 1.59017 2.59595 1.54785C2.65253 1.50553 2.71853 1.48438 2.79396 1.48438ZM2.44509 3.4668H3.14283L2.79396 2.55859L2.44509 3.4668ZM6.94267 4.90234C6.86095 4.90234 6.79023 4.93327 6.73052 4.99512C6.6708 5.05697 6.64094 5.13021 6.64094 5.21484V5.82031L6.1695 5.83008C6.08778 5.83008 6.01864 5.86263 5.96206 5.92773C5.90549 5.99284 5.8772 6.06771 5.8772 6.15234C5.88349 6.23698 5.91649 6.30859 5.97621 6.36719C6.03592 6.42578 6.10664 6.45508 6.18836 6.45508L6.94267 6.43555L7.39525 6.44531C7.35754 6.72526 7.27582 6.94987 7.1501 7.11914C7.02438 7.28841 6.89552 7.41862 6.76352 7.50977C6.67551 7.56836 6.59223 7.61556 6.51365 7.65137C6.43508 7.68717 6.36122 7.71484 6.29207 7.73438C6.26064 7.7474 6.23236 7.75553 6.20721 7.75879C6.18207 7.76204 6.16321 7.76693 6.15064 7.77344C6.13807 7.77344 6.12864 7.77507 6.12235 7.77832C6.11607 7.78158 6.10978 7.7832 6.1035 7.7832C6.01549 7.79622 5.94635 7.83529 5.89606 7.90039C5.84577 7.96549 5.82692 8.04362 5.83949 8.13477C5.84577 8.2194 5.88192 8.28776 5.94792 8.33984C6.01392 8.39193 6.09092 8.41146 6.17893 8.39844L6.14121 8.0957C6.16007 8.24544 6.17107 8.33333 6.17421 8.35938C6.17736 8.38542 6.17893 8.39844 6.17893 8.39844H6.18836C6.19464 8.39844 6.19778 8.39844 6.19778 8.39844C6.19778 8.39844 6.20093 8.39844 6.20721 8.39844C6.2135 8.39844 6.22136 8.39681 6.23079 8.39355C6.24021 8.3903 6.25121 8.38867 6.26379 8.38867C6.28893 8.38216 6.31879 8.37402 6.35336 8.36426C6.38793 8.35449 6.42722 8.3431 6.47122 8.33008C6.55294 8.30404 6.6488 8.26823 6.7588 8.22266C6.86881 8.17708 6.98038 8.11523 7.09353 8.03711C7.1061 8.02409 7.1171 8.01432 7.12653 8.00781C7.13596 8.0013 7.14696 7.99479 7.15953 7.98828L7.45183 8.24219C7.51468 8.30078 7.58697 8.32682 7.66869 8.32031C7.75041 8.3138 7.81955 8.27799 7.87613 8.21289C7.9327 8.14779 7.95784 8.07292 7.95156 7.98828C7.94527 7.90365 7.9107 7.83203 7.84784 7.77344L7.59326 7.54883C7.71898 7.37956 7.82112 7.17936 7.8997 6.94824C7.97827 6.71712 8.01756 6.44857 8.01756 6.14258C8.01756 6.05794 7.98927 5.9847 7.9327 5.92285C7.87613 5.861 7.80384 5.83008 7.71583 5.83008L7.24439 5.82031V5.21484C7.24439 5.13021 7.2161 5.05697 7.15953 4.99512C7.10296 4.93327 7.03067 4.90234 6.94267 4.90234Z" fill="#2EA772"/>
</g>
<defs>
<clipPath id="clip0_26_397">
<rect width="10" height="10" fill="white" transform="matrix(1 0 0 -1 0 10)"/>
</clipPath>
</defs>
</svg>
