<svg width="16" height="16" viewBox="0 0 16 16" fill="none" xmlns="http://www.w3.org/2000/svg">
<circle cx="8" cy="8" r="8" fill="#EFF7FF"/>
<path d="M6.85517 10.5134C6.83854 10.5812 6.42904 12.1125 4.15011 12.1125C4.08049 12.1125 4.01372 12.0848 3.96449 12.0356C3.91526 11.9864 3.88761 11.9196 3.88761 11.85C3.88761 9.57105 5.42148 9.16155 5.48667 9.14537C5.55373 9.12982 5.62421 9.14123 5.68294 9.17716C5.74166 9.21308 5.78393 9.27063 5.80062 9.33742C5.81732 9.4042 5.80711 9.47487 5.7722 9.5342C5.73729 9.59353 5.68047 9.63678 5.61398 9.65462C5.57023 9.66643 4.52723 9.96437 4.42136 11.5796C6.05498 11.4716 6.34286 10.3984 6.34636 10.387C6.36324 10.3194 6.40628 10.2613 6.46601 10.2254C6.52574 10.1896 6.59727 10.1789 6.66486 10.1958C6.73244 10.2127 6.79056 10.2557 6.82641 10.3155C6.86227 10.3752 6.87293 10.4467 6.85604 10.5143L6.85517 10.5134ZM10.9471 7.52443L10.7126 7.75849V10.3472C10.7128 10.4276 10.697 10.5072 10.6662 10.5815C10.6354 10.6557 10.5902 10.7232 10.5332 10.7799L9.03042 12.2827C8.95006 12.363 8.84895 12.4193 8.73839 12.4455C8.62784 12.4716 8.51219 12.4665 8.40439 12.4307C8.29658 12.3949 8.20085 12.3298 8.12791 12.2427C8.05497 12.1556 8.00769 12.0499 7.99136 11.9375L7.75248 10.2247L5.77673 8.24762L4.06479 8.00874C3.9521 7.9928 3.84608 7.94578 3.75863 7.87294C3.67117 7.80011 3.60574 7.70435 3.56966 7.59641C3.53359 7.48847 3.52831 7.37261 3.55441 7.26183C3.58051 7.15105 3.63695 7.04973 3.71742 6.96924L5.22023 5.46643C5.27695 5.40949 5.34439 5.36436 5.41866 5.33365C5.49293 5.30293 5.57255 5.28725 5.65292 5.28749H8.24161L8.47567 5.05343C9.61798 3.91112 10.9944 3.86212 11.5329 3.89405C11.6819 3.90326 11.8225 3.96658 11.9281 4.07212C12.0337 4.17766 12.0972 4.31815 12.1065 4.46718C12.1384 5.00574 12.089 6.38124 10.9471 7.52443ZM4.13829 7.48899L5.80692 7.72174L7.71661 5.81249H5.65292C5.62975 5.81259 5.60756 5.82187 5.59123 5.8383L4.08886 7.34024C4.07768 7.35151 4.06979 7.36561 4.06601 7.38102C4.06223 7.39643 4.06272 7.41258 4.06742 7.42774C4.07187 7.44381 4.08097 7.4582 4.09358 7.4691C4.1062 7.48 4.12175 7.48692 4.13829 7.48899ZM10.1876 8.28349L8.27792 10.1932L8.51067 11.8627C8.51307 11.8787 8.5199 11.8938 8.53039 11.9062C8.54088 11.9186 8.55461 11.9279 8.57005 11.9329C8.58548 11.9379 8.60202 11.9386 8.61781 11.9348C8.63359 11.9309 8.648 11.9228 8.65942 11.9112L10.1618 10.4089C10.1782 10.3925 10.1875 10.3703 10.1876 10.3472V8.28349ZM11.5824 4.49999C11.5807 4.47932 11.5717 4.45993 11.557 4.44527C11.5424 4.4306 11.523 4.42162 11.5023 4.41993C11.0136 4.38856 10.5238 4.46212 10.0658 4.63568C9.60783 4.80924 9.1923 5.07877 8.84711 5.42618L6.27154 7.99999L8.00011 9.72855L10.2646 7.46449L10.5757 7.15343C10.9229 6.80847 11.1924 6.39325 11.366 5.9356C11.5397 5.47796 11.6134 4.98848 11.5824 4.49999Z" fill="#4785FF"/>
</svg>
