<svg width="14" height="14" viewBox="0 0 14 14" fill="none" xmlns="http://www.w3.org/2000/svg">
<path d="M7.16863 6.97178C7.1282 6.93095 7.09621 6.88255 7.07449 6.82935C7.05277 6.77615 7.04173 6.7192 7.04202 6.66174C7.04231 6.60428 7.05391 6.54743 7.07617 6.49446C7.09843 6.44148 7.1309 6.39341 7.17173 6.35298C7.21257 6.31256 7.26097 6.28057 7.31416 6.25884C7.36736 6.23712 7.42432 6.22609 7.48178 6.22638C7.53924 6.22667 7.59608 6.23827 7.64906 6.26053C7.70203 6.28278 7.75011 6.31526 7.79053 6.35609C8.33512 6.90277 8.6409 7.64296 8.6409 8.41461C8.6409 9.18625 8.33512 9.92645 7.79053 10.4731L5.89164 12.3699C5.34473 12.8848 4.61949 13.1676 3.86839 13.1589C3.1173 13.1501 2.39885 12.8505 1.8641 12.323C1.32934 11.7955 1.01994 11.0812 1.00093 10.3303C0.981922 9.57936 1.25479 8.85033 1.76217 8.29644L3.66936 6.36231C3.75073 6.27984 3.86152 6.23307 3.97738 6.23229C4.09323 6.23152 4.20465 6.27679 4.28712 6.35816C4.36959 6.43954 4.41636 6.55033 4.41713 6.66619C4.41791 6.78204 4.37263 6.89346 4.29126 6.97593L2.38408 8.91006C2.01255 9.2945 1.8079 9.81013 1.81469 10.3447C1.82148 10.8793 2.03914 11.3896 2.42032 11.7645C2.80149 12.1393 3.3153 12.3485 3.84993 12.3464C4.38455 12.3443 4.89671 12.1311 5.27491 11.7532L7.16863 9.85536C7.55004 9.47246 7.7642 8.95403 7.7642 8.41357C7.7642 7.87312 7.55004 7.35468 7.16863 6.97178ZM6.76438 7.2392C6.80481 7.28004 6.8368 7.32843 6.85852 7.38163C6.88024 7.43483 6.89128 7.49178 6.89099 7.54924C6.8907 7.60671 6.8791 7.66355 6.85684 7.71652C6.83458 7.7695 6.80211 7.81757 6.76128 7.858C6.72044 7.89843 6.67204 7.93041 6.61884 7.95214C6.56565 7.97386 6.50869 7.98489 6.45123 7.9846C6.39377 7.98431 6.33693 7.97271 6.28395 7.95045C6.23098 7.9282 6.1829 7.89572 6.14248 7.85489C5.59801 7.30773 5.29236 6.56724 5.29236 5.79534C5.29236 5.02344 5.59801 4.28295 6.14248 3.73579L7.96985 1.90219C8.53545 1.33377 9.30147 1.00991 10.1033 1.00022C10.9051 0.990533 11.6787 1.29578 12.2579 1.85037C12.298 1.88837 12.3367 1.92776 12.374 1.96853C12.6306 2.2442 12.8303 2.56771 12.9619 2.9206C13.0934 3.27349 13.1541 3.64883 13.1405 4.02519C13.127 4.40155 13.0394 4.77154 12.8828 5.11404C12.7262 5.45654 12.5036 5.76483 12.2278 6.0213L10.2502 7.86111C10.2082 7.90017 10.1589 7.93059 10.1052 7.95061C10.0514 7.97063 9.99426 7.97987 9.93694 7.9778C9.87963 7.97573 9.82328 7.96239 9.77112 7.93855C9.71896 7.9147 9.672 7.88082 9.63294 7.83882C9.59387 7.79683 9.56346 7.74756 9.54344 7.69381C9.52341 7.64007 9.51417 7.5829 9.51624 7.52559C9.51831 7.46827 9.53165 7.41192 9.5555 7.35976C9.57934 7.3076 9.61323 7.26065 9.65522 7.22158L11.6329 5.38073C12.0203 5.02074 12.2489 4.52158 12.2684 3.99306C12.2878 3.46453 12.0965 2.94993 11.7365 2.56245C11.7103 2.53412 11.6833 2.50683 11.6557 2.48057C11.2416 2.08434 10.6887 1.86631 10.1156 1.87328C9.54252 1.88026 8.99504 2.11169 8.59072 2.51788L6.76646 4.35147C6.38426 4.73467 6.16945 5.25369 6.16906 5.79491C6.16868 6.33613 6.38274 6.85545 6.76438 7.2392Z" fill="#545C7F" stroke="#545C7F" stroke-width="0.207303"/>
</svg>
