<svg xmlns="http://www.w3.org/2000/svg" width="11.107" height="17.941" viewBox="0 0 11.107 17.941">
    <defs>
        <style>
            .cls-1{fill:#95e7d1;stroke:#95e7d1;stroke-width:.3px}
        </style>
    </defs>
    <g id="Group_6805" transform="translate(-996.618 -414.966)">
        <g id="noun_Man_987834" transform="translate(998.42 415.116)">
            <g id="Group_6520">
                <path id="Path_13732" d="M20.2 3.423a1.691 1.691 0 0 0 1.7-1.7 1.7 1.7 0 1 0-3.4-.023 1.7 1.7 0 0 0 1.7 1.723zm0-2.806a1.079 1.079 0 0 1 0 2.158A1.092 1.092 0 0 1 19.117 1.7 1.072 1.072 0 0 1 20.2.617z" class="cls-1" transform="translate(-16.537)"/>
                <path id="Path_13733" d="M18.053 12.5h-2.867a2.2 2.2 0 0 0-2.21 1.85v3.238a.961.961 0 0 0 .956.956 4.917 4.917 0 0 0 .7-.062v3.823a1.135 1.135 0 0 0 1.973.771 1.135 1.135 0 0 0 1.973-.771v-3.792a6.543 6.543 0 0 0 .777.031.961.961 0 0 0 .956-.956v-3.269c.03-1.019-1.211-1.819-2.258-1.819zm1.671 5.088a.342.342 0 0 1-.339.339c-.185 0-.777-.123-.777-.308v1.225a.291.291 0 0 0-.308-.308.291.291 0 0 0-.308.308v3.462a.524.524 0 1 1-1.048 0v-3.454a.308.308 0 1 0-.617 0v3.453a.524.524 0 1 1-1.048 0v-3.462a.308.308 0 1 0-.617 0v-1.255c0 .185-.514.339-.7.339a.342.342 0 0 1-.339-.339V14.35c0-.678.915-1.233 1.593-1.233h2.868c.678 0 1.671.524 1.671 1.2v3.268z" class="cls-1" transform="translate(-12.976 -8.081)"/>
            </g>
        </g>
        <circle id="Ellipse_513" cx="5.553" cy="5.553" r="5.553" fill="#fff" transform="translate(996.618 421.8)"/>
        <g id="noun_Money_59752" transform="translate(997.616 423)">
            <g id="Group_6521">
                <path id="Path_13734" d="M9.484 5a4.484 4.484 0 1 0 4.484 4.484A4.49 4.49 0 0 0 9.484 5zm0 8.364a3.88 3.88 0 1 1 3.88-3.88 3.884 3.884 0 0 1-3.88 3.88z" class="cls-1" transform="translate(-5 -5)"/>
                <path id="Path_13735" d="M35.96 23.14c-.594-.117-.874-.2-.874-.5a.469.469 0 0 1 .285-.457 1.266 1.266 0 0 1 1.182.135.254.254 0 1 0 .314-.4 1.637 1.637 0 0 0-.743-.307v-.452a.254.254 0 0 0-.509 0v.437a1.449 1.449 0 0 0-.467.128.972.972 0 0 0-.571.915c0 .748.743.895 1.284 1 .585.115.793.194.793.407a.467.467 0 0 1-.269.45 1.255 1.255 0 0 1-1.168-.106.254.254 0 0 0-.294.415 1.667 1.667 0 0 0 .692.268v.608a.254.254 0 0 0 .509 0v-.6a1.428 1.428 0 0 0 .494-.132.972.972 0 0 0 .544-.9c.001-.673-.662-.804-1.202-.909z" class="cls-1" transform="translate(-31.385 -18.843)"/>
            </g>
        </g>
    </g>
</svg>
