<svg xmlns="http://www.w3.org/2000/svg" width="15.93" height="18.832" viewBox="0 0 15.93 18.832">
    <g>
        <g>
            <g>
                <path fill="#ea4335" d="M53.048 2.333a7.965 7.965 0 0 0-13.6 5.632c0 4.3 4.069 7.883 6.256 9.807.3.267.566.5.775.693a1.372 1.372 0 0 0 1.868 0c.209-.2.471-.426.775-.693 2.186-1.923 6.256-5.5 6.256-9.807a7.913 7.913 0 0 0-2.33-5.632z" transform="translate(-320.225 -1958.084) translate(320.225 1958.084) translate(-39.451)"/>
            </g>
        </g>
        <g>
            <g>
                <path fill="#fff" d="M164.08 112.938a3.51 3.51 0 1 0 3.51 3.51 3.514 3.514 0 0 0-3.51-3.51z" transform="translate(-320.225 -1958.084) translate(324.68 1962.238) translate(-160.57 -112.938)"/>
            </g>
        </g>
    </g>
</svg>
