<svg width="143" height="109" viewBox="0 0 143 109" fill="none" xmlns="http://www.w3.org/2000/svg">
<rect x="0.5" y="0.5" width="142" height="108" rx="4.5" fill="#F8F9FA" stroke="#DADCE0"/>
<path d="M10 11C10 10.4477 10.4477 10 11 10H46C46.5523 10 47 10.4477 47 11V35C47 35.5523 46.5523 36 46 36H11C10.4477 36 10 35.5523 10 35V11Z" fill="#D9D9D9"/>
<path d="M10 42C10 41.4477 10.4477 41 11 41H46C46.5523 41 47 41.4477 47 42V54.5V67C47 67.5523 46.5523 68 46 68H11C10.4477 68 10 67.5523 10 67V42Z" fill="#D9D9D9"/>
<path d="M10 74C10 73.4477 10.4477 73 11 73H46C46.5523 73 47 73.4477 47 74V98C47 98.5523 46.5523 99 46 99H11C10.4477 99 10 98.5523 10 98V74Z" fill="#D9D9D9"/>
<path d="M52 11C52 10.4477 52.4477 10 53 10H90C90.5523 10 91 10.4477 91 11V35C91 35.5523 90.5523 36 90 36H53C52.4477 36 52 35.5523 52 35V11Z" fill="#D9D9D9"/>
<path d="M52 42C52 41.4477 52.4477 41 53 41H90C90.5523 41 91 41.4477 91 42V67C91 67.5523 90.5523 68 90 68H53C52.4477 68 52 67.5523 52 67V42Z" fill="#D9D9D9"/>
<path d="M52 74C52 73.4477 52.4477 73 53 73H90C90.5523 73 91 73.4477 91 74V98C91 98.5523 90.5523 99 90 99H53C52.4477 99 52 98.5523 52 98V74Z" fill="#D9D9D9"/>
<path d="M96 11C96 10.4477 96.4477 10 97 10H132C132.552 10 133 10.4477 133 11V35C133 35.5523 132.552 36 132 36H97C96.4477 36 96 35.5523 96 35V11Z" fill="#D9D9D9"/>
<path d="M96 42C96 41.4477 96.4477 41 97 41H132C132.552 41 133 41.4477 133 42V67C133 67.5523 132.552 68 132 68H97C96.4477 68 96 67.5523 96 67V42Z" fill="#D9D9D9"/>
<path d="M96 74C96 73.4477 96.4477 73 97 73H132C132.552 73 133 73.4477 133 74V98C133 98.5523 132.552 99 132 99H97C96.4477 99 96 98.5523 96 98V74Z" fill="#D9D9D9"/>
</svg>
