<svg width="143" height="109" viewBox="0 0 143 109" fill="none" xmlns="http://www.w3.org/2000/svg">
<rect x="0.5" y="0.5" width="142" height="108" rx="4.5" fill="#F8F9FA" stroke="#DADCE0"/>
<path d="M10 11C10 10.4477 10.4477 10 11 10H68C68.5523 10 69 10.4477 69 11V51C69 51.5523 68.5523 52 68 52H11C10.4477 52 10 51.5523 10 51V11Z" fill="#D9D9D9"/>
<path d="M10 58C10 57.4477 10.4477 57 11 57H68C68.5523 57 69 57.4477 69 58V98C69 98.5523 68.5523 99 68 99H11C10.4477 99 10 98.5523 10 98V58Z" fill="#D9D9D9"/>
<path d="M74 11C74 10.4477 74.4477 10 75 10H132C132.552 10 133 10.4477 133 11V51C133 51.5523 132.552 52 132 52H75C74.4477 52 74 51.5523 74 51V11Z" fill="#D9D9D9"/>
<path d="M74 58C74 57.4477 74.4477 57 75 57H132C132.552 57 133 57.4477 133 58V98C133 98.5523 132.552 99 132 99H75C74.4477 99 74 98.5523 74 98V58Z" fill="#D9D9D9"/>
</svg>
