<svg width="147" height="125" viewBox="0 0 147 125" fill="none" xmlns="http://www.w3.org/2000/svg">
<rect x="0.25" y="38.25" width="51" height="66.5" rx="2.25" fill="#F9F9FC" stroke="#CACACA" stroke-width="0.5"/>
<circle cx="25.5" cy="54.5" r="8" fill="#EAECF8"/>
<rect x="10.5001" y="67.5" width="30.5" height="3" rx="1.5" fill="#EAECF8"/>
<rect x="14" y="90" width="23.5" height="6" rx="3" fill="#99A8FF"/>
<rect x="10.5001" y="73" width="30.5" height="3" rx="1.5" fill="#EAECF8"/>
<rect x="10.5001" y="78.5" width="30.5" height="1.5" rx="0.75" fill="#EAECF8" fill-opacity="0.5"/>
<rect x="10.5001" y="82.5" width="30.5" height="1.5" rx="0.75" fill="#EAECF8" fill-opacity="0.5"/>
<path d="M19.0429 93.5V91.4657H20.2846V91.7094H19.3276V92.3141H20.1789V92.5518H19.3276V93.2564H20.358V93.5H19.0429ZM20.7023 92.0176C20.7649 92.0019 20.848 91.9853 20.9518 91.9677C21.0555 91.9501 21.1749 91.9413 21.3099 91.9413C21.4312 91.9413 21.532 91.9589 21.6123 91.9941C21.6925 92.0274 21.7561 92.0753 21.8031 92.1379C21.852 92.1986 21.8862 92.272 21.9058 92.3581C21.9254 92.4442 21.9352 92.5391 21.9352 92.6428V93.5H21.6622V92.7015C21.6622 92.6076 21.6553 92.5274 21.6416 92.4608C21.6299 92.3943 21.6093 92.3405 21.58 92.2994C21.5506 92.2583 21.5115 92.2289 21.4625 92.2113C21.4136 92.1918 21.353 92.182 21.2805 92.182C21.2512 92.182 21.2209 92.1829 21.1895 92.1849C21.1582 92.1869 21.1279 92.1898 21.0985 92.1937C21.0711 92.1957 21.0457 92.1986 21.0222 92.2025C21.0007 92.2064 20.985 92.2094 20.9753 92.2113V93.5H20.7023V92.0176ZM22.9515 91.9413C22.975 91.9413 23.0014 91.9432 23.0307 91.9471C23.062 91.9491 23.0924 91.953 23.1217 91.9589C23.1511 91.9628 23.1775 91.9677 23.201 91.9735C23.2264 91.9775 23.245 91.9814 23.2568 91.9853L23.2098 92.2231C23.1883 92.2152 23.1521 92.2064 23.1012 92.1966C23.0523 92.1849 22.9887 92.179 22.9104 92.179C22.8595 92.179 22.8086 92.1849 22.7577 92.1966C22.7088 92.2064 22.6765 92.2133 22.6609 92.2172V93.5H22.3879V92.0381C22.4524 92.0146 22.5327 91.9931 22.6286 91.9735C22.7245 91.952 22.8321 91.9413 22.9515 91.9413ZM24.8676 92.7368C24.8676 92.8581 24.85 92.9677 24.8148 93.0655C24.7795 93.1634 24.7296 93.2475 24.665 93.318C24.6024 93.3885 24.5271 93.4432 24.439 93.4824C24.3509 93.5196 24.2551 93.5382 24.1513 93.5382C24.0476 93.5382 23.9517 93.5196 23.8637 93.4824C23.7756 93.4432 23.6993 93.3885 23.6347 93.318C23.5721 93.2475 23.5231 93.1634 23.4879 93.0655C23.4527 92.9677 23.4351 92.8581 23.4351 92.7368C23.4351 92.6174 23.4527 92.5088 23.4879 92.4109C23.5231 92.3111 23.5721 92.226 23.6347 92.1555C23.6993 92.0851 23.7756 92.0313 23.8637 91.9941C23.9517 91.955 24.0476 91.9354 24.1513 91.9354C24.2551 91.9354 24.3509 91.955 24.439 91.9941C24.5271 92.0313 24.6024 92.0851 24.665 92.1555C24.7296 92.226 24.7795 92.3111 24.8148 92.4109C24.85 92.5088 24.8676 92.6174 24.8676 92.7368ZM24.5828 92.7368C24.5828 92.5646 24.5437 92.4285 24.4654 92.3287C24.3891 92.227 24.2844 92.1761 24.1513 92.1761C24.0183 92.1761 23.9126 92.227 23.8343 92.3287C23.758 92.4285 23.7198 92.5646 23.7198 92.7368C23.7198 92.909 23.758 93.046 23.8343 93.1477C23.9126 93.2475 24.0183 93.2975 24.1513 93.2975C24.2844 93.2975 24.3891 93.2475 24.4654 93.1477C24.5437 93.046 24.5828 92.909 24.5828 92.7368ZM25.7096 93.5294C25.5413 93.5254 25.4219 93.4892 25.3515 93.4207C25.281 93.3522 25.2458 93.2456 25.2458 93.1008V91.269L25.5188 91.2221V93.0567C25.5188 93.1018 25.5227 93.1389 25.5306 93.1683C25.5384 93.1976 25.5511 93.2211 25.5687 93.2387C25.5863 93.2564 25.6098 93.2701 25.6392 93.2798C25.6685 93.2877 25.7047 93.2945 25.7478 93.3004L25.7096 93.5294ZM26.5123 93.5294C26.344 93.5254 26.2246 93.4892 26.1542 93.4207C26.0837 93.3522 26.0485 93.2456 26.0485 93.1008V91.269L26.3215 91.2221V93.0567C26.3215 93.1018 26.3254 93.1389 26.3332 93.1683C26.3411 93.1976 26.3538 93.2211 26.3714 93.2387C26.389 93.2564 26.4125 93.2701 26.4418 93.2798C26.4712 93.2877 26.5074 93.2945 26.5504 93.3004L26.5123 93.5294ZM28.9484 93.5C28.9053 93.4276 28.8554 93.3464 28.7987 93.2564C28.7439 93.1663 28.6842 93.0734 28.6196 92.9775C28.555 92.8796 28.4875 92.7808 28.4171 92.681C28.3486 92.5812 28.2801 92.4853 28.2116 92.3933C28.1431 92.2994 28.0766 92.2113 28.012 92.1291C27.9474 92.0469 27.8877 91.9745 27.8329 91.9119V93.5H27.554V91.4657H27.7801C27.8721 91.5636 27.9699 91.678 28.0736 91.8092C28.1793 91.9383 28.283 92.0724 28.3848 92.2113C28.4885 92.3483 28.5854 92.4833 28.6754 92.6164C28.7674 92.7495 28.8447 92.8679 28.9073 92.9716V91.4657H29.1862V93.5H28.9484ZM31.0195 92.7368C31.0195 92.8581 31.0019 92.9677 30.9667 93.0655C30.9314 93.1634 30.8815 93.2475 30.8169 93.318C30.7543 93.3885 30.679 93.4432 30.5909 93.4824C30.5028 93.5196 30.407 93.5382 30.3032 93.5382C30.1995 93.5382 30.1036 93.5196 30.0156 93.4824C29.9275 93.4432 29.8512 93.3885 29.7866 93.318C29.724 93.2475 29.675 93.1634 29.6398 93.0655C29.6046 92.9677 29.587 92.8581 29.587 92.7368C29.587 92.6174 29.6046 92.5088 29.6398 92.4109C29.675 92.3111 29.724 92.226 29.7866 92.1555C29.8512 92.0851 29.9275 92.0313 30.0156 91.9941C30.1036 91.955 30.1995 91.9354 30.3032 91.9354C30.407 91.9354 30.5028 91.955 30.5909 91.9941C30.679 92.0313 30.7543 92.0851 30.8169 92.1555C30.8815 92.226 30.9314 92.3111 30.9667 92.4109C31.0019 92.5088 31.0195 92.6174 31.0195 92.7368ZM30.7348 92.7368C30.7348 92.5646 30.6956 92.4285 30.6173 92.3287C30.541 92.227 30.4363 92.1761 30.3032 92.1761C30.1702 92.1761 30.0645 92.227 29.9862 92.3287C29.9099 92.4285 29.8717 92.5646 29.8717 92.7368C29.8717 92.909 29.9099 93.046 29.9862 93.1477C30.0645 93.2475 30.1702 93.2975 30.3032 93.2975C30.4363 93.2975 30.541 93.2475 30.6173 93.1477C30.6956 93.046 30.7348 92.909 30.7348 92.7368ZM32.6139 93.5C32.5591 93.3591 32.5004 93.1986 32.4378 93.0186C32.3771 92.8366 32.3213 92.6477 32.2704 92.452C32.2196 92.6477 32.1638 92.8366 32.1031 93.0186C32.0425 93.1986 31.9847 93.3591 31.9299 93.5H31.6922C31.6021 93.2984 31.5141 93.0685 31.428 92.8102C31.3419 92.5518 31.2606 92.273 31.1843 91.9735H31.4779C31.4974 92.0655 31.5209 92.1653 31.5483 92.273C31.5757 92.3806 31.6041 92.4882 31.6334 92.5959C31.6648 92.7035 31.697 92.8072 31.7303 92.907C31.7636 93.0068 31.7949 93.0939 31.8243 93.1683C31.8575 93.0763 31.8898 92.9794 31.9211 92.8777C31.9544 92.774 31.9857 92.6702 32.0151 92.5665C32.0444 92.4608 32.0718 92.3581 32.0973 92.2583C32.1246 92.1565 32.1481 92.0616 32.1677 91.9735H32.3937C32.4113 92.0616 32.4329 92.1565 32.4583 92.2583C32.4838 92.3581 32.5112 92.4608 32.5405 92.5665C32.5699 92.6702 32.6002 92.774 32.6315 92.8777C32.6648 92.9794 32.698 93.0763 32.7313 93.1683C32.7607 93.0939 32.791 93.0068 32.8223 92.907C32.8556 92.8072 32.8879 92.7035 32.9192 92.5959C32.9505 92.4882 32.9799 92.3806 33.0073 92.273C33.0346 92.1653 33.0581 92.0655 33.0777 91.9735H33.3595C33.2832 92.273 33.202 92.5518 33.1159 92.8102C33.0298 93.0685 32.9417 93.2984 32.8517 93.5H32.6139Z" fill="white"/>
<rect x="95.2725" y="38.25" width="51" height="66.5" rx="2.25" fill="#F9F9FC" stroke="#CACACA" stroke-width="0.5"/>
<circle cx="120.522" cy="54.5" r="8" fill="#EAECF8"/>
<rect x="105.523" y="67.5" width="30.5" height="3" rx="1.5" fill="#EAECF8"/>
<rect x="109.022" y="90" width="23.5" height="6" rx="3" fill="#99A8FF"/>
<rect x="105.523" y="73" width="30.5" height="3" rx="1.5" fill="#EAECF8"/>
<rect x="105.523" y="78.5" width="30.5" height="1.5" rx="0.75" fill="#EAECF8" fill-opacity="0.5"/>
<rect x="105.523" y="82.5" width="30.5" height="1.5" rx="0.75" fill="#EAECF8" fill-opacity="0.5"/>
<path d="M114.065 93.5V91.4657H115.307V91.7094H114.35V92.3141H115.201V92.5518H114.35V93.2564H115.38V93.5H114.065ZM115.725 92.0176C115.787 92.0019 115.871 91.9853 115.974 91.9677C116.078 91.9501 116.197 91.9413 116.332 91.9413C116.454 91.9413 116.554 91.9589 116.635 91.9941C116.715 92.0274 116.779 92.0753 116.826 92.1379C116.874 92.1986 116.909 92.272 116.928 92.3581C116.948 92.4442 116.958 92.5391 116.958 92.6428V93.5H116.685V92.7015C116.685 92.6076 116.678 92.5274 116.664 92.4608C116.652 92.3943 116.632 92.3405 116.602 92.2994C116.573 92.2583 116.534 92.2289 116.485 92.2113C116.436 92.1918 116.375 92.182 116.303 92.182C116.274 92.182 116.243 92.1829 116.212 92.1849C116.181 92.1869 116.15 92.1898 116.121 92.1937C116.094 92.1957 116.068 92.1986 116.045 92.2025C116.023 92.2064 116.007 92.2094 115.998 92.2113V93.5H115.725V92.0176ZM117.974 91.9413C117.997 91.9413 118.024 91.9432 118.053 91.9471C118.085 91.9491 118.115 91.953 118.144 91.9589C118.174 91.9628 118.2 91.9677 118.223 91.9735C118.249 91.9775 118.267 91.9814 118.279 91.9853L118.232 92.2231C118.211 92.2152 118.175 92.2064 118.124 92.1966C118.075 92.1849 118.011 92.179 117.933 92.179C117.882 92.179 117.831 92.1849 117.78 92.1966C117.731 92.2064 117.699 92.2133 117.683 92.2172V93.5H117.41V92.0381C117.475 92.0146 117.555 91.9931 117.651 91.9735C117.747 91.952 117.855 91.9413 117.974 91.9413ZM119.89 92.7368C119.89 92.8581 119.872 92.9677 119.837 93.0655C119.802 93.1634 119.752 93.2475 119.688 93.318C119.625 93.3885 119.55 93.4432 119.461 93.4824C119.373 93.5196 119.278 93.5382 119.174 93.5382C119.07 93.5382 118.974 93.5196 118.886 93.4824C118.798 93.4432 118.722 93.3885 118.657 93.318C118.595 93.2475 118.546 93.1634 118.51 93.0655C118.475 92.9677 118.458 92.8581 118.458 92.7368C118.458 92.6174 118.475 92.5088 118.51 92.4109C118.546 92.3111 118.595 92.226 118.657 92.1555C118.722 92.0851 118.798 92.0313 118.886 91.9941C118.974 91.955 119.07 91.9354 119.174 91.9354C119.278 91.9354 119.373 91.955 119.461 91.9941C119.55 92.0313 119.625 92.0851 119.688 92.1555C119.752 92.226 119.802 92.3111 119.837 92.4109C119.872 92.5088 119.89 92.6174 119.89 92.7368ZM119.605 92.7368C119.605 92.5646 119.566 92.4285 119.488 92.3287C119.412 92.227 119.307 92.1761 119.174 92.1761C119.041 92.1761 118.935 92.227 118.857 92.3287C118.78 92.4285 118.742 92.5646 118.742 92.7368C118.742 92.909 118.78 93.046 118.857 93.1477C118.935 93.2475 119.041 93.2975 119.174 93.2975C119.307 93.2975 119.412 93.2475 119.488 93.1477C119.566 93.046 119.605 92.909 119.605 92.7368ZM120.732 93.5294C120.564 93.5254 120.444 93.4892 120.374 93.4207C120.303 93.3522 120.268 93.2456 120.268 93.1008V91.269L120.541 91.2221V93.0567C120.541 93.1018 120.545 93.1389 120.553 93.1683C120.561 93.1976 120.574 93.2211 120.591 93.2387C120.609 93.2564 120.632 93.2701 120.662 93.2798C120.691 93.2877 120.727 93.2945 120.77 93.3004L120.732 93.5294ZM121.535 93.5294C121.366 93.5254 121.247 93.4892 121.177 93.4207C121.106 93.3522 121.071 93.2456 121.071 93.1008V91.269L121.344 91.2221V93.0567C121.344 93.1018 121.348 93.1389 121.356 93.1683C121.364 93.1976 121.376 93.2211 121.394 93.2387C121.411 93.2564 121.435 93.2701 121.464 93.2798C121.494 93.2877 121.53 93.2945 121.573 93.3004L121.535 93.5294ZM123.971 93.5C123.928 93.4276 123.878 93.3464 123.821 93.2564C123.766 93.1663 123.707 93.0734 123.642 92.9775C123.578 92.8796 123.51 92.7808 123.44 92.681C123.371 92.5812 123.303 92.4853 123.234 92.3933C123.166 92.2994 123.099 92.2113 123.034 92.1291C122.97 92.0469 122.91 91.9745 122.855 91.9119V93.5H122.577V91.4657H122.803C122.895 91.5636 122.992 91.678 123.096 91.8092C123.202 91.9383 123.305 92.0724 123.407 92.2113C123.511 92.3483 123.608 92.4833 123.698 92.6164C123.79 92.7495 123.867 92.8679 123.93 92.9716V91.4657H124.209V93.5H123.971ZM126.042 92.7368C126.042 92.8581 126.024 92.9677 125.989 93.0655C125.954 93.1634 125.904 93.2475 125.839 93.318C125.777 93.3885 125.701 93.4432 125.613 93.4824C125.525 93.5196 125.429 93.5382 125.326 93.5382C125.222 93.5382 125.126 93.5196 125.038 93.4824C124.95 93.4432 124.874 93.3885 124.809 93.318C124.746 93.2475 124.698 93.1634 124.662 93.0655C124.627 92.9677 124.609 92.8581 124.609 92.7368C124.609 92.6174 124.627 92.5088 124.662 92.4109C124.698 92.3111 124.746 92.226 124.809 92.1555C124.874 92.0851 124.95 92.0313 125.038 91.9941C125.126 91.955 125.222 91.9354 125.326 91.9354C125.429 91.9354 125.525 91.955 125.613 91.9941C125.701 92.0313 125.777 92.0851 125.839 92.1555C125.904 92.226 125.954 92.3111 125.989 92.4109C126.024 92.5088 126.042 92.6174 126.042 92.7368ZM125.757 92.7368C125.757 92.5646 125.718 92.4285 125.64 92.3287C125.563 92.227 125.459 92.1761 125.326 92.1761C125.193 92.1761 125.087 92.227 125.009 92.3287C124.932 92.4285 124.894 92.5646 124.894 92.7368C124.894 92.909 124.932 93.046 125.009 93.1477C125.087 93.2475 125.193 93.2975 125.326 93.2975C125.459 93.2975 125.563 93.2475 125.64 93.1477C125.718 93.046 125.757 92.909 125.757 92.7368ZM127.636 93.5C127.582 93.3591 127.523 93.1986 127.46 93.0186C127.4 92.8366 127.344 92.6477 127.293 92.452C127.242 92.6477 127.186 92.8366 127.126 93.0186C127.065 93.1986 127.007 93.3591 126.952 93.5H126.715C126.625 93.2984 126.537 93.0685 126.45 92.8102C126.364 92.5518 126.283 92.273 126.207 91.9735H126.5C126.52 92.0655 126.543 92.1653 126.571 92.273C126.598 92.3806 126.627 92.4882 126.656 92.5959C126.687 92.7035 126.72 92.8072 126.753 92.907C126.786 93.0068 126.817 93.0939 126.847 93.1683C126.88 93.0763 126.912 92.9794 126.944 92.8777C126.977 92.774 127.008 92.6702 127.038 92.5665C127.067 92.4608 127.094 92.3581 127.12 92.2583C127.147 92.1565 127.171 92.0616 127.19 91.9735H127.416C127.434 92.0616 127.455 92.1565 127.481 92.2583C127.506 92.3581 127.534 92.4608 127.563 92.5665C127.592 92.6702 127.623 92.774 127.654 92.8777C127.687 92.9794 127.721 93.0763 127.754 93.1683C127.783 93.0939 127.813 93.0068 127.845 92.907C127.878 92.8072 127.91 92.7035 127.942 92.5959C127.973 92.4882 128.002 92.3806 128.03 92.273C128.057 92.1653 128.081 92.0655 128.1 91.9735H128.382C128.306 92.273 128.224 92.5518 128.138 92.8102C128.052 93.0685 127.964 93.2984 127.874 93.5H127.636Z" fill="white"/>
<rect x="32.3955" y="18.3955" width="80.6866" height="105.209" rx="3.5597" fill="#F9F9FC" stroke="#CACACA" stroke-width="0.791045"/>
<circle cx="72.3432" cy="44.1045" r="12.6567" fill="#EAECF8"/>
<rect x="48.6119" y="64.6719" width="48.2537" height="4.74627" rx="2.37313" fill="#EAECF8"/>
<rect x="54.1492" y="100.269" width="37.1791" height="9.49254" rx="4.74627" fill="#99A8FF"/>
<rect x="48.6119" y="73.373" width="48.2537" height="4.74627" rx="2.37313" fill="#EAECF8"/>
<rect x="48.6119" y="82.0747" width="48.2537" height="2.37313" rx="1.18657" fill="#EAECF8" fill-opacity="0.5"/>
<rect x="48.6119" y="88.4028" width="48.2537" height="2.37313" rx="1.18657" fill="#EAECF8" fill-opacity="0.5"/>
<path d="M62.1274 106.478V103.259H64.0919V103.645H62.5779V104.601H63.9247V104.977H62.5779V106.092H64.208V106.478H62.1274ZM64.7527 104.132C64.8518 104.107 64.9834 104.081 65.1475 104.053C65.3116 104.025 65.5005 104.011 65.7141 104.011C65.9061 104.011 66.0655 104.039 66.1924 104.095C66.3194 104.148 66.42 104.224 66.4943 104.323C66.5717 104.419 66.6259 104.535 66.6569 104.671C66.6878 104.807 66.7033 104.957 66.7033 105.121V106.478H66.2714V105.214C66.2714 105.066 66.2606 104.939 66.2389 104.833C66.2203 104.728 66.1878 104.643 66.1414 104.578C66.0949 104.513 66.033 104.467 65.9556 104.439C65.8782 104.408 65.7822 104.392 65.6676 104.392C65.6212 104.392 65.5732 104.394 65.5237 104.397C65.4741 104.4 65.4262 104.405 65.3797 104.411C65.3364 104.414 65.2961 104.419 65.259 104.425C65.2249 104.431 65.2001 104.436 65.1847 104.439V106.478H64.7527V104.132ZM68.3112 104.011C68.3484 104.011 68.3902 104.015 68.4366 104.021C68.4861 104.024 68.5341 104.03 68.5806 104.039C68.627 104.046 68.6688 104.053 68.706 104.063C68.7462 104.069 68.7756 104.075 68.7942 104.081L68.7199 104.457C68.6858 104.445 68.6286 104.431 68.5481 104.416C68.4707 104.397 68.37 104.388 68.2462 104.388C68.1657 104.388 68.0852 104.397 68.0047 104.416C67.9273 104.431 67.8762 104.442 67.8514 104.448V106.478H67.4195V104.165C67.5217 104.128 67.6486 104.094 67.8004 104.063C67.9521 104.028 68.1224 104.011 68.3112 104.011ZM71.3427 105.27C71.3427 105.462 71.3148 105.635 71.2591 105.79C71.2034 105.945 71.1244 106.078 71.0222 106.19C70.9232 106.301 70.804 106.388 70.6646 106.45C70.5253 106.509 70.3736 106.538 70.2095 106.538C70.0454 106.538 69.8937 106.509 69.7544 106.45C69.615 106.388 69.4943 106.301 69.3921 106.19C69.293 106.078 69.2156 105.945 69.1599 105.79C69.1042 105.635 69.0763 105.462 69.0763 105.27C69.0763 105.081 69.1042 104.909 69.1599 104.755C69.2156 104.597 69.293 104.462 69.3921 104.35C69.4943 104.239 69.615 104.154 69.7544 104.095C69.8937 104.033 70.0454 104.002 70.2095 104.002C70.3736 104.002 70.5253 104.033 70.6646 104.095C70.804 104.154 70.9232 104.239 71.0222 104.35C71.1244 104.462 71.2034 104.597 71.2591 104.755C71.3148 104.909 71.3427 105.081 71.3427 105.27ZM70.8922 105.27C70.8922 104.998 70.8303 104.782 70.7064 104.625C70.5857 104.464 70.42 104.383 70.2095 104.383C69.999 104.383 69.8318 104.464 69.7079 104.625C69.5872 104.782 69.5268 104.998 69.5268 105.27C69.5268 105.543 69.5872 105.759 69.7079 105.92C69.8318 106.078 69.999 106.157 70.2095 106.157C70.42 106.157 70.5857 106.078 70.7064 105.92C70.8303 105.759 70.8922 105.543 70.8922 105.27ZM72.6748 106.524C72.4086 106.518 72.2197 106.461 72.1082 106.352C71.9968 106.244 71.9411 106.075 71.9411 105.846V102.948L72.373 102.874V105.776C72.373 105.847 72.3792 105.906 72.3915 105.953C72.4039 105.999 72.424 106.036 72.4519 106.064C72.4798 106.092 72.5169 106.114 72.5634 106.129C72.6098 106.142 72.6671 106.152 72.7352 106.162L72.6748 106.524ZM73.9447 106.524C73.6785 106.518 73.4896 106.461 73.3781 106.352C73.2667 106.244 73.211 106.075 73.211 105.846V102.948L73.6429 102.874V105.776C73.6429 105.847 73.6491 105.906 73.6614 105.953C73.6738 105.999 73.6939 106.036 73.7218 106.064C73.7497 106.092 73.7868 106.114 73.8333 106.129C73.8797 106.142 73.937 106.152 74.0051 106.162L73.9447 106.524ZM77.7989 106.478C77.7308 106.363 77.6518 106.234 77.562 106.092C77.4753 105.95 77.3809 105.803 77.2787 105.651C77.1766 105.496 77.0697 105.34 76.9583 105.182C76.8499 105.024 76.7415 104.872 76.6332 104.727C76.5248 104.578 76.4195 104.439 76.3174 104.309C76.2152 104.179 76.1208 104.064 76.0341 103.965V106.478H75.5929V103.259H75.9505C76.096 103.414 76.2508 103.595 76.4149 103.802C76.5821 104.007 76.7462 104.219 76.9072 104.439C77.0713 104.655 77.2245 104.869 77.367 105.08C77.5125 105.29 77.6348 105.477 77.7339 105.642V103.259H78.1751V106.478H77.7989ZM81.0755 105.27C81.0755 105.462 81.0477 105.635 80.9919 105.79C80.9362 105.945 80.8573 106.078 80.7551 106.19C80.656 106.301 80.5368 106.388 80.3975 106.45C80.2582 106.509 80.1064 106.538 79.9424 106.538C79.7783 106.538 79.6265 106.509 79.4872 106.45C79.3479 106.388 79.2271 106.301 79.125 106.19C79.0259 106.078 78.9485 105.945 78.8928 105.79C78.837 105.635 78.8092 105.462 78.8092 105.27C78.8092 105.081 78.837 104.909 78.8928 104.755C78.9485 104.597 79.0259 104.462 79.125 104.35C79.2271 104.239 79.3479 104.154 79.4872 104.095C79.6265 104.033 79.7783 104.002 79.9424 104.002C80.1064 104.002 80.2582 104.033 80.3975 104.095C80.5368 104.154 80.656 104.239 80.7551 104.35C80.8573 104.462 80.9362 104.597 80.9919 104.755C81.0477 104.909 81.0755 105.081 81.0755 105.27ZM80.6251 105.27C80.6251 104.998 80.5631 104.782 80.4393 104.625C80.3185 104.464 80.1529 104.383 79.9424 104.383C79.7318 104.383 79.5646 104.464 79.4408 104.625C79.32 104.782 79.2597 104.998 79.2597 105.27C79.2597 105.543 79.32 105.759 79.4408 105.92C79.5646 106.078 79.7318 106.157 79.9424 106.157C80.1529 106.157 80.3185 106.078 80.4393 105.92C80.5631 105.759 80.6251 105.543 80.6251 105.27ZM83.598 106.478C83.5113 106.255 83.4185 106.001 83.3194 105.716C83.2234 105.428 83.1352 105.129 83.0547 104.82C82.9742 105.129 82.8859 105.428 82.7899 105.716C82.694 106.001 82.6026 106.255 82.5159 106.478H82.1397C81.9973 106.159 81.858 105.795 81.7218 105.386C81.5855 104.977 81.4571 104.536 81.3363 104.063H81.8007C81.8317 104.208 81.8688 104.366 81.9122 104.536C81.9555 104.707 82.0004 104.877 82.0469 105.047C82.0964 105.217 82.1475 105.382 82.2001 105.539C82.2528 105.697 82.3023 105.835 82.3487 105.953C82.4014 105.807 82.4525 105.654 82.502 105.493C82.5546 105.329 82.6042 105.165 82.6506 105.001C82.6971 104.833 82.7404 104.671 82.7806 104.513C82.824 104.352 82.8611 104.202 82.8921 104.063H83.2497C83.2776 104.202 83.3116 104.352 83.3519 104.513C83.3921 104.671 83.4355 104.833 83.4819 105.001C83.5284 105.165 83.5764 105.329 83.6259 105.493C83.6785 105.654 83.7312 105.807 83.7838 105.953C83.8302 105.835 83.8782 105.697 83.9278 105.539C83.9804 105.382 84.0315 105.217 84.081 105.047C84.1306 104.877 84.177 104.707 84.2203 104.536C84.2637 104.366 84.3008 104.208 84.3318 104.063H84.7777C84.6569 104.536 84.5284 104.977 84.3922 105.386C84.256 105.795 84.1166 106.159 83.9742 106.478H83.598Z" fill="white"/>
<g filter="url(#filter0_d_72_9166)">
<rect x="100" y="4" width="28" height="28" rx="7" fill="white"/>
</g>
<path d="M116.625 12.4925C116.219 11.708 115.428 11 114 11C111.6 11 111 13.0003 111 14V16.25" stroke="#3698FF" stroke-width="2" stroke-linecap="round" stroke-linejoin="round"/>
<path fill-rule="evenodd" clip-rule="evenodd" d="M108 17.75C108 17.1533 108.237 16.581 108.659 16.159C109.081 15.7371 109.653 15.5 110.25 15.5H117.75C118.347 15.5 118.919 15.7371 119.341 16.159C119.763 16.581 120 17.1533 120 17.75V23C120 23.5967 119.763 24.169 119.341 24.591C118.919 25.0129 118.347 25.25 117.75 25.25H110.25C109.653 25.25 109.081 25.0129 108.659 24.591C108.237 24.169 108 23.5967 108 23V17.75ZM114.75 19.25C114.75 19.0511 114.671 18.8603 114.53 18.7197C114.39 18.579 114.199 18.5 114 18.5C113.801 18.5 113.61 18.579 113.47 18.7197C113.329 18.8603 113.25 19.0511 113.25 19.25V21.5C113.25 21.6989 113.329 21.8897 113.47 22.0303C113.61 22.171 113.801 22.25 114 22.25C114.199 22.25 114.39 22.171 114.53 22.0303C114.671 21.8897 114.75 21.6989 114.75 21.5V19.25Z" fill="#9FCEFF"/>
<path d="M1 124H145" stroke="#CACACA"/>
<defs>
<filter id="filter0_d_72_9166" x="94" y="0" width="40" height="40" filterUnits="userSpaceOnUse" color-interpolation-filters="sRGB">
<feFlood flood-opacity="0" result="BackgroundImageFix"/>
<feColorMatrix in="SourceAlpha" type="matrix" values="0 0 0 0 0 0 0 0 0 0 0 0 0 0 0 0 0 0 127 0" result="hardAlpha"/>
<feOffset dy="2"/>
<feGaussianBlur stdDeviation="3"/>
<feComposite in2="hardAlpha" operator="out"/>
<feColorMatrix type="matrix" values="0 0 0 0 0.8 0 0 0 0 0.831373 0 0 0 0 0.898039 0 0 0 0.28 0"/>
<feBlend mode="normal" in2="BackgroundImageFix" result="effect1_dropShadow_72_9166"/>
<feBlend mode="normal" in="SourceGraphic" in2="effect1_dropShadow_72_9166" result="shape"/>
</filter>
</defs>
</svg>
