<svg width="4" height="16" viewBox="0 0 4 16" fill="none" xmlns="http://www.w3.org/2000/svg">
<path d="M1.50119 3.36078C2.33027 3.36078 3.00238 2.68867 3.00238 1.85959C3.00238 1.0305 2.33027 0.358398 1.50119 0.358398C0.672105 0.358398 0 1.0305 0 1.85959C0 2.68867 0.672105 3.36078 1.50119 3.36078Z" fill="#4785FF"/>
<path d="M1.50119 9.36468C2.33027 9.36468 3.00238 8.69258 3.00238 7.86349C3.00238 7.03441 2.33027 6.3623 1.50119 6.3623C0.672105 6.3623 0 7.03441 0 7.86349C0 8.69258 0.672105 9.36468 1.50119 9.36468Z" fill="#4785FF"/>
<path d="M1.50119 15.3705C2.33027 15.3705 3.00238 14.6984 3.00238 13.8694C3.00238 13.0403 2.33027 12.3682 1.50119 12.3682C0.672105 12.3682 0 13.0403 0 13.8694C0 14.6984 0.672105 15.3705 1.50119 15.3705Z" fill="#4785FF"/>
</svg>
