<svg width="22" height="22" viewBox="0 0 22 22" fill="none" xmlns="http://www.w3.org/2000/svg">
<path d="M7 1H3C1.89543 1 1 1.89543 1 3V7C1 8.10457 1.89543 9 3 9H7C8.10457 9 9 8.10457 9 7V3C9 1.89543 8.10457 1 7 1Z" stroke="#3698FF" stroke-width="2" stroke-linecap="round" stroke-linejoin="round"/>
<path d="M19 1H15C13.8954 1 13 1.89543 13 3V7C13 8.10457 13.8954 9 15 9H19C20.1046 9 21 8.10457 21 7V3C21 1.89543 20.1046 1 19 1Z" stroke="#3698FF" stroke-width="2" stroke-linecap="round" stroke-linejoin="round"/>
<path d="M7 13H3C1.89543 13 1 13.8954 1 15V19C1 20.1046 1.89543 21 3 21H7C8.10457 21 9 20.1046 9 19V15C9 13.8954 8.10457 13 7 13Z" stroke="#3698FF" stroke-width="2" stroke-linecap="round" stroke-linejoin="round"/>
<path d="M19 13H15C13.8954 13 13 13.8954 13 15V19C13 20.1046 13.8954 21 15 21H19C20.1046 21 21 20.1046 21 19V15C21 13.8954 20.1046 13 19 13Z" stroke="#3698FF" stroke-width="2" stroke-linecap="round" stroke-linejoin="round"/>
</svg>
