<svg width="21" height="22" viewBox="0 0 21 22" fill="none" xmlns="http://www.w3.org/2000/svg">
<path d="M20.2804 11.8777C19.3208 10.9181 17.7594 10.9181 16.8005 11.8771L12.2965 16.3709C12.2009 16.4664 12.1304 16.584 12.0911 16.7133L11.1102 19.9423C11.0232 20.2287 11.0992 20.5395 11.3079 20.7537C11.4645 20.9141 11.6771 21.0013 11.8953 21.0013C11.9682 21.0013 12.0419 20.9915 12.1142 20.9713L15.4254 20.0542C15.5616 20.0164 15.6858 19.9441 15.7859 19.8443L20.2804 15.3583C21.2399 14.3985 21.2399 12.8373 20.2804 11.8777ZM14.7796 18.5306L13.1137 18.9921L13.6013 17.3871L16.6401 14.3548L17.8006 15.5151L14.7796 18.5306ZM19.1207 14.1975L18.9618 14.3561L17.8016 13.1959L17.96 13.0377C18.2798 12.7179 18.8003 12.7179 19.1202 13.0377C19.44 13.3577 19.44 13.8781 19.1207 14.1975ZM9.39308 20.1808C9.39308 20.6339 9.02584 21.0011 8.57272 21.0011H3.28143C1.47215 21.0011 0 19.5291 0 17.7197V3.28143C0 1.47199 1.47215 0 3.28143 0H13.3673C15.1768 0 16.6487 1.47199 16.6487 3.28143V9.59817C16.6487 10.0513 16.2815 10.4185 15.8284 10.4185C15.3753 10.4185 15.008 10.0513 15.008 9.59817V3.28143C15.008 2.37679 14.272 1.64071 13.3673 1.64071H3.28143C2.37679 1.64071 1.64071 2.37679 1.64071 3.28143V17.7197C1.64071 18.6243 2.37679 19.3604 3.28143 19.3604H8.57272C9.02584 19.3604 9.39308 19.7276 9.39308 20.1808ZM13.3718 6.11165C13.3718 6.56477 13.0046 6.93201 12.5515 6.93201H10.1314C9.67828 6.93201 9.31104 6.56477 9.31104 6.11165C9.31104 5.65854 9.67828 5.2913 10.1314 5.2913H12.5515C13.0046 5.2913 13.3718 5.65854 13.3718 6.11165ZM8.42596 4.41919L6.51126 6.73654C6.26163 7.04433 5.89215 7.23564 5.49655 7.26208C5.46514 7.26416 5.43358 7.26528 5.40217 7.26528C5.03718 7.26528 4.68212 7.12444 4.41631 6.87129C4.40877 6.86424 4.4014 6.85686 4.39403 6.84933L3.51407 5.94566C3.19795 5.62104 3.205 5.10175 3.52945 4.78563C3.85407 4.4695 4.37336 4.47639 4.68949 4.80101L5.38888 5.51914L7.16097 3.3742C7.44954 3.0249 7.96675 2.97571 8.31588 3.26428C8.66517 3.55285 8.71436 4.0699 8.42596 4.41919ZM12.5515 11.9772H10.1314C9.67828 11.9772 9.31104 11.61 9.31104 11.1568C9.31104 10.7037 9.67828 10.3365 10.1314 10.3365H12.5515C13.0046 10.3365 13.3718 10.7037 13.3718 11.1568C13.3718 11.61 13.0046 11.9772 12.5515 11.9772ZM8.42596 9.45925L6.51126 11.7768C6.26163 12.0844 5.89215 12.2759 5.49655 12.3021C5.46514 12.3042 5.43358 12.3053 5.40217 12.3053C5.03702 12.3053 4.68212 12.1645 4.41614 11.9113C4.40926 11.9048 4.40237 11.8981 4.39564 11.8912L3.51568 10.9925C3.19875 10.6688 3.2042 10.1493 3.52785 9.83242C3.85151 9.51533 4.37096 9.52078 4.68789 9.8446L5.38839 10.5598L7.16097 8.41426C7.44954 8.06497 7.96675 8.01594 8.31588 8.30435C8.66517 8.59291 8.71436 9.10996 8.42596 9.45925ZM8.42596 14.4224L6.51126 16.7399C6.26163 17.0475 5.89215 17.239 5.49655 17.2653C5.46514 17.2674 5.43358 17.2685 5.40217 17.2685C5.03702 17.2685 4.68212 17.1277 4.41614 16.8745C4.40926 16.8679 4.40237 16.8612 4.39564 16.8543L3.51568 15.9556C3.19875 15.632 3.2042 15.1125 3.52785 14.7956C3.85151 14.4785 4.37096 14.4839 4.68789 14.8078L5.38839 15.523L7.16097 13.3774C7.44954 13.0281 7.96675 12.9791 8.31588 13.2675C8.66517 13.5561 8.71436 14.0731 8.42596 14.4224Z" fill="#3698FF"/>
</svg>
