<svg width="28" height="19" viewBox="0 0 28 19" fill="none" xmlns="http://www.w3.org/2000/svg">
<path d="M21.3415 17.8292V15.9593C21.3415 13.8939 19.709 12.2195 17.6951 12.2195H10.4024C8.38862 12.2195 6.7561 13.8939 6.7561 15.9593V17.8292" stroke="#3698FF" stroke-width="2" stroke-linecap="round" stroke-linejoin="round"/>
<path d="M14.3293 8.29268C16.3431 8.29268 17.9757 6.66016 17.9757 4.64634C17.9757 2.63252 16.3431 1 14.3293 1C12.3155 1 10.683 2.63252 10.683 4.64634C10.683 6.66016 12.3155 8.29268 14.3293 8.29268Z" stroke="#3698FF" stroke-width="2" stroke-linecap="round" stroke-linejoin="round"/>
<path d="M26.9512 17.8292V15.918C26.9496 14.1757 25.7969 12.655 24.1464 12.2195" stroke="#3698FF" stroke-width="2" stroke-linecap="round" stroke-linejoin="round"/>
<path d="M20.7805 1C22.7757 1.51581 23.9788 3.56593 23.4678 5.57997C23.1299 6.91172 22.0998 7.95154 20.7805 8.29268" stroke="#3698FF" stroke-width="2" stroke-linecap="round" stroke-linejoin="round"/>
<path d="M4.51221 12.2195C2.86253 12.655 1.70897 14.1757 1.70734 15.918V17.8292" stroke="#3698FF" stroke-width="2" stroke-linecap="round" stroke-linejoin="round"/>
<path d="M7.87806 8.29268C6.55874 7.95236 5.52782 6.91172 5.19068 5.57997C4.67969 3.56593 5.88284 1.51581 7.87806 1" stroke="#3698FF" stroke-width="2" stroke-linecap="round" stroke-linejoin="round"/>
</svg>
