<svg width="23" height="19" viewBox="0 0 23 19" fill="none" xmlns="http://www.w3.org/2000/svg">
<path d="M15.666 17.499V15.665C15.666 15.1836 15.5712 14.7069 15.3869 14.2621C15.2027 13.8173 14.9327 13.4132 14.5923 13.0727C14.2518 12.7323 13.8477 12.4623 13.4029 12.2781C12.9581 12.0938 12.4814 11.999 12 11.999H4.666C3.69372 11.999 2.76125 12.3852 2.07375 13.0727C1.38624 13.7603 1 14.6927 1 15.665V17.499" stroke="#3698FF" stroke-width="2" stroke-linecap="round" stroke-linejoin="round"/>
<path d="M8.5 8C10.433 8 12 6.433 12 4.5C12 2.567 10.433 1 8.5 1C6.567 1 5 2.567 5 4.5C5 6.433 6.567 8 8.5 8Z" stroke="#3698FF" stroke-width="2" stroke-linecap="round" stroke-linejoin="round"/>
<path d="M21.166 17.5001V15.6661C21.1654 14.8538 20.895 14.0646 20.3973 13.4226C19.8995 12.7806 19.2026 12.3221 18.416 12.1191" stroke="#3698FF" stroke-width="2" stroke-linecap="round" stroke-linejoin="round"/>
<path d="M14.749 1.11914C15.5363 1.32204 16.2338 1.7809 16.7318 2.42353C17.2299 3.06617 17.5001 3.85612 17.5001 4.66914C17.5001 5.48216 17.2299 6.27211 16.7318 6.91475C16.2338 7.55738 15.5363 8.01624 14.749 8.21914" stroke="#3698FF" stroke-width="2" stroke-linecap="round" stroke-linejoin="round"/>
</svg>
