<svg width="19" height="27" viewBox="0 0 19 27" fill="none" xmlns="http://www.w3.org/2000/svg">
<path d="M9.45861 10.0681C7.46636 10.0681 5.84589 11.6825 5.84589 13.6669C5.84589 15.6513 7.46685 17.2657 9.45861 17.2657C11.4504 17.2657 13.0708 15.6513 13.0708 13.6669C13.0708 11.6825 11.4504 10.0681 9.45861 10.0681ZM9.45861 15.3396C8.53262 15.3396 7.77915 14.5895 7.77915 13.6669C7.77915 12.7444 8.53262 11.9942 9.45861 11.9942C10.3846 11.9942 11.1376 12.7444 11.1376 13.6669C11.1376 14.5895 10.3846 15.3396 9.45861 15.3396Z" fill="#3698FF"/>
<path d="M16.4833 9.57324C15.0953 9.57324 13.9666 10.6983 13.9666 12.0811V13.5973C13.9666 16.0508 11.9634 18.047 9.50074 18.047C7.03757 18.047 5.03392 16.0508 5.03392 13.5973V12.0811C5.03392 10.6983 3.90469 9.57324 2.51671 9.57324C1.12873 9.57324 0 10.6983 0 12.0811V13.5691C0 14.9989 0.335099 16.4365 0.968614 17.7265C1.58577 18.9829 2.48796 20.1035 3.58149 20.9732V25.3899C3.58149 25.9208 4.01524 26.3529 4.54812 26.3529H14.3646C14.8975 26.3529 15.3313 25.9208 15.3313 25.3899V21.0177C16.4521 20.1381 17.3761 18.9997 18.0081 17.7201C18.657 16.4064 19 14.9396 19 13.4773V12.0811C19 10.6983 17.8708 9.57324 16.4833 9.57324ZM13.808 19.7474C13.5512 19.9277 13.398 20.222 13.398 20.5347V24.4273H5.51475V20.4942C5.51475 20.1845 5.36356 19.8912 5.10926 19.7104C3.12098 18.296 1.93326 16.0005 1.93326 13.5691V12.0811C1.93326 11.7601 2.195 11.4993 2.51621 11.4993C2.83843 11.4993 3.10016 11.7606 3.10016 12.0811V13.5973C3.10016 17.1131 5.9713 19.9731 9.50025 19.9731C13.0287 19.9731 15.8993 17.1126 15.8993 13.5973V12.0811C15.8993 11.7601 16.1611 11.4993 16.4833 11.4993C16.8045 11.4993 17.0662 11.7606 17.0662 12.0811V13.4773C17.0667 15.9708 15.8483 18.3147 13.808 19.7474Z" fill="#3698FF"/>
<path d="M6.30696 6.58235L6.19493 8.73463C6.18154 9.00083 6.27474 9.25369 6.45815 9.4458C6.64156 9.63792 6.89735 9.74805 7.16057 9.74805C7.28251 9.74805 7.40297 9.72484 7.51748 9.6794L9.50031 8.89415L11.4831 9.6794C11.5981 9.72484 11.7186 9.74805 11.8401 9.74805C12.1033 9.74805 12.3596 9.63792 12.5425 9.4458C12.7254 9.25369 12.8191 9.00132 12.8052 8.73463L12.6932 6.58285L14.0316 4.96246C14.2403 4.71108 14.3062 4.37476 14.2081 4.06263C14.1099 3.75051 13.863 3.51147 13.5473 3.42307L11.4737 2.84228L10.3068 1.07966C10.1284 0.808529 9.82649 0.647034 9.50031 0.647034C9.17364 0.647034 8.87225 0.808529 8.6933 1.07917L7.5264 2.84179L5.45285 3.42307C5.13709 3.51147 4.89022 3.75051 4.79207 4.06214C4.69392 4.37426 4.75985 4.71108 4.96805 4.96197L6.30696 6.58235ZM8.94214 4.2024L9.49981 3.35936L10.058 4.20289C10.1864 4.39649 10.3807 4.53773 10.6038 4.59947L11.5977 4.87801L10.9622 5.64696C10.8085 5.83266 10.7307 6.06774 10.7431 6.30924L10.7966 7.33501L9.85772 6.96312C9.7437 6.91769 9.62374 6.89497 9.50031 6.89497C9.37688 6.89497 9.25692 6.91769 9.1434 6.96312L8.20403 7.33501L8.25757 6.30924C8.26996 6.06823 8.19214 5.83315 8.03847 5.64746L7.40297 4.8785L8.39686 4.60046C8.61944 4.53773 8.81375 4.39649 8.94214 4.2024Z" fill="#3698FF"/>
<path d="M3.53933 8.30745C3.72175 8.48919 3.96464 8.58945 4.22291 8.58945C4.48117 8.58945 4.72407 8.48919 4.90649 8.30745C5.28323 7.93211 5.28323 7.3207 4.90649 6.94536L2.0636 4.11351C1.88118 3.93177 1.63829 3.83151 1.38002 3.83151C1.12176 3.83151 0.878861 3.93177 0.69644 4.11351C0.51402 4.29526 0.413391 4.53725 0.413391 4.79456C0.413391 5.05186 0.51402 5.29386 0.69644 5.4756L3.53933 8.30745Z" fill="#3698FF"/>
<path d="M14.2715 8.30742C14.4539 8.48917 14.6968 8.58942 14.955 8.58942C15.2133 8.58942 15.4557 8.48917 15.6386 8.30742L18.4815 5.47508C18.6639 5.29334 18.7646 5.05134 18.7646 4.79404C18.7646 4.53673 18.6639 4.29474 18.4815 4.11299C18.2991 3.93125 18.0562 3.83099 17.7979 3.83099C17.5397 3.83099 17.2968 3.93125 17.1143 4.11299L14.2715 6.94533C14.089 7.12708 13.9884 7.36907 13.9884 7.62638C13.9884 7.88368 14.0885 8.12568 14.2715 8.30742Z" fill="#3698FF"/>
</svg>
