<svg width="12" height="12" viewBox="0 0 12 12" fill="none" xmlns="http://www.w3.org/2000/svg">
<path d="M8.5157 1.1875C8.5157 1.03832 8.45643 0.895242 8.35094 0.789753C8.24545 0.684264 8.10238 0.625 7.9532 0.625H2.65039C2.15328 0.625558 1.67669 0.823282 1.32518 1.17479C0.973672 1.5263 0.775949 2.00289 0.775391 2.5V9.25C0.775949 9.74711 0.973672 10.2237 1.32518 10.5752C1.67669 10.9267 2.15328 11.1244 2.65039 11.125H7.9532C8.10238 11.125 8.24545 11.0657 8.35094 10.9602C8.45643 10.8548 8.5157 10.7117 8.5157 10.5625C8.5157 10.4133 8.45643 10.2702 8.35094 10.1648C8.24545 10.0593 8.10238 10 7.9532 10H2.65039C2.45154 9.99978 2.26091 9.9207 2.1203 9.78009C1.9797 9.63948 1.90061 9.44885 1.90039 9.25V2.5C1.9006 2.30115 1.97969 2.11051 2.12029 1.9699C2.2609 1.8293 2.45154 1.75021 2.65039 1.75H7.9532C8.10238 1.75 8.24545 1.69074 8.35094 1.58525C8.45643 1.47976 8.5157 1.33668 8.5157 1.1875ZM11.0599 6.39716L8.38684 9.07026C8.33482 9.12345 8.27276 9.16579 8.20427 9.19483C8.13577 9.22387 8.0622 9.23904 7.9878 9.23945C7.9134 9.23986 7.83966 9.22551 7.77085 9.19723C7.70204 9.16895 7.63952 9.1273 7.58691 9.07469C7.53431 9.02208 7.49267 8.95955 7.46439 8.89074C7.43612 8.82192 7.42177 8.74818 7.42219 8.67378C7.42262 8.59938 7.43779 8.52581 7.46684 8.45732C7.49589 8.38883 7.53824 8.32678 7.59144 8.27476L9.30418 6.56193H4.87599C4.72681 6.56193 4.58373 6.50267 4.47824 6.39718C4.37276 6.29169 4.31349 6.14861 4.31349 5.99943C4.31349 5.85024 4.37276 5.70717 4.47824 5.60168C4.58373 5.49619 4.72681 5.43693 4.87599 5.43693H9.30416L7.59134 3.72412C7.53888 3.67193 7.49722 3.60991 7.46877 3.54161C7.44031 3.4733 7.42561 3.40005 7.42551 3.32605C7.42541 3.25206 7.43991 3.17877 7.46818 3.11038C7.49645 3.042 7.53794 2.97986 7.59026 2.92754C7.64259 2.87522 7.70472 2.83373 7.7731 2.80546C7.84149 2.77719 7.91478 2.76269 7.98877 2.76279C8.06277 2.76289 8.13602 2.77759 8.20433 2.80605C8.27263 2.8345 8.33466 2.87616 8.38684 2.92862L11.0599 5.60167C11.1654 5.70716 11.2247 5.85023 11.2247 5.99942C11.2247 6.1486 11.1654 6.29167 11.0599 6.39716Z" fill="#529DFF"/>
</svg>
