<svg width="14" height="9" viewBox="0 0 14 9" fill="none" xmlns="http://www.w3.org/2000/svg">
<path d="M9.85034 1.54523H12.5571V4.9287" stroke="#3698FF" stroke-width="1.21809" stroke-linecap="round" stroke-linejoin="round"/>
<path d="M1.05322 7.63554L4.33844 4.47668C4.41887 4.39932 4.51437 4.33796 4.61947 4.29609C4.72457 4.25422 4.83722 4.23268 4.95099 4.23268C5.06475 4.23268 5.1774 4.25422 5.2825 4.29609C5.3876 4.33796 5.4831 4.39932 5.56353 4.47668L6.93695 5.79728C7.01738 5.87463 7.11288 5.936 7.21798 5.97787C7.32308 6.01973 7.43573 6.04128 7.54949 6.04128C7.66326 6.04128 7.77591 6.01973 7.88101 5.97787C7.98611 5.936 8.0816 5.87463 8.16204 5.79728L11.8803 2.22198" stroke="#3698FF" stroke-width="1.21809" stroke-linecap="round" stroke-linejoin="round"/>
</svg>
