<svg xmlns="http://www.w3.org/2000/svg" width="19.172" height="19" viewBox="0 0 19.172 19">
    <defs>
        <style>
            .cls-2{fill:#fff}
        </style>
    </defs>
    <g id="Group_6862" transform="translate(-1052.47 -202)">
        <g id="noun_School_1380072" transform="translate(1049.345 198.446)">
            <g id="Group" transform="translate(3.125 3.554)">
                <path id="Compound_Path" fill="#adb5cc" d="M21.131 7.267l-7.277-3.456a2.659 2.659 0 0 0-2.281 0L4.294 7.267a2.045 2.045 0 0 0-1.168 1.841v.243a2.045 2.045 0 0 0 1.7 2.015V18.2a2.209 2.209 0 0 0 .509 4.359h14.753A2.209 2.209 0 0 0 20.6 18.2v-6.83a2.045 2.045 0 0 0 1.7-2.015v-.241a2.045 2.045 0 0 0-1.166-1.847zm-.059 13.076a.984.984 0 0 1-.984.984H5.337a.984.984 0 0 1 0-1.966h14.751a.984.984 0 0 1 .984.982zM6.053 18.132V11.4h1.681v6.729zm2.908 0V11.4h1.068v6.729zm2.295 0V11.4h2.706v6.729zm3.931 0V11.4h1.068v6.729zm2.295 0V11.4h1.886v6.729zm3.589-8.774a.818.818 0 0 1-.818.818H5.171a.818.818 0 0 1-.818-.818v-.244a.818.818 0 0 1 .466-.738L12.1 4.919a1.432 1.432 0 0 1 1.227 0L20.6 8.376a.818.818 0 0 1 .466.738z" transform="translate(-3.125 -3.554)"/>
            </g>
        </g>
        <path id="Path_13831" d="M-.031-.156h2v6.734h-2z" class="cls-2" transform="translate(1059 210)"/>
        <path id="Path_13832" d="M-.031-.156h2v6.734h-2z" class="cls-2" transform="translate(1063 210)"/>
    </g>
</svg>
