<svg xmlns="http://www.w3.org/2000/svg" width="18.804" height="15.689" viewBox="0 0 18.804 15.689">
    <defs>
        <style>
            .cls-1{fill:#adb5cc}
        </style>
    </defs>
    <g id="driver-license" transform="translate(0 -72.3)">
        <path id="Path_13861" d="M17.073 72.3H1.731A1.888 1.888 0 0 0 0 74.313v11.663a1.887 1.887 0 0 0 1.731 2.013h15.342a1.888 1.888 0 0 0 1.727-2.013V74.313a1.887 1.887 0 0 0-1.727-2.013zm.627 13.676a.686.686 0 0 1-.629.732H1.731a.686.686 0 0 1-.629-.732V74.313a.686.686 0 0 1 .629-.732h15.342a.686.686 0 0 1 .629.732z" class="cls-1"/>
        <path id="Path_13862" d="M85.558 204.93a2.516 2.516 0 0 0 .581-1.62 2.289 2.289 0 1 0-4.57 0 2.516 2.516 0 0 0 .581 1.62 3.553 3.553 0 0 0-1.579 2.989.643.643 0 0 0 .621.662h5.323a.643.643 0 0 0 .621-.662 3.553 3.553 0 0 0-1.578-2.989zm-1.7-2.731a1.113 1.113 0 1 1-1.042 1.111 1.079 1.079 0 0 1 1.038-1.11zm-1.944 5.058a2.005 2.005 0 0 1 3.888 0z" class="cls-1" transform="translate(-77.782 -124.541)"/>
        <path id="Path_13863" d="M294.02 216.9h-4.253a.645.645 0 0 0 0 1.281h4.253a.645.645 0 0 0 0-1.281z" class="cls-1" transform="translate(-278.458 -140.608)"/>
        <path id="Path_13865" d="M294.02 281.167h-4.253a.645.645 0 0 0 0 1.281h4.253a.645.645 0 0 0 0-1.281z" class="cls-1" transform="translate(-278.458 -201.663)"/>
        <path id="Path_13866" d="M294.02 281.167h-4.253a.645.645 0 0 0 0 1.281h4.253a.645.645 0 0 0 0-1.281z" class="cls-1" transform="translate(-278.458 -198.45)"/>
    </g>
</svg>
