<svg xmlns="http://www.w3.org/2000/svg" width="9.711" height="15.293">
    <path data-name="Path 13921" d="M134.464 179.3a.949.949 0 0 1-.948-.948v-1.628a.949.949 0 0 1 .948-.948h1.022l-2.267-3.926a.389.389 0 0 1 .006-.4l4.465-7.256a.261.261 0 0 1 .028-.033l.015-.016a.374.374 0 0 1 .579 0l.014.016a.261.261 0 0 1 .028.032l4.466 7.257a.39.39 0 0 1 .005.4l-2.267 3.927h1.022a.949.949 0 0 1 .948.948v1.628a.949.949 0 0 1-.948.948zm-.168-.78h7.451v-1.964H134.3zm-.285-6.859 2.376 4.115h3.271l2.376-4.115-3.621-5.884v4.6a.39.39 0 1 1-.78 0v-4.6zm4.011 1.814a.391.391 0 0 1-.39-.39v-.872a.39.39 0 1 1 .78 0v.872a.391.391 0 0 1-.389.385z" transform="translate(-133.167 -164.003)" style="fill:#a6b1c3"/>
</svg>
