<svg width="13" height="14" viewBox="0 0 13 14" fill="none" xmlns="http://www.w3.org/2000/svg">
<path d="M12.3232 9.78252V11.4872C12.3238 11.6454 12.2913 11.8021 12.2278 11.9471C12.1643 12.0921 12.0711 12.2222 11.9543 12.3292C11.8374 12.4362 11.6995 12.5176 11.5493 12.5683C11.3991 12.619 11.2399 12.6378 11.082 12.6236C9.33004 12.4336 7.64716 11.8361 6.16857 10.8792C4.79294 10.0068 3.62664 8.84279 2.75251 7.46989C1.7903 5.98753 1.1915 4.29981 1.00462 2.54345C0.990394 2.38632 1.0091 2.22796 1.05956 2.07844C1.11002 1.92892 1.19112 1.79153 1.2977 1.675C1.40428 1.55848 1.534 1.46538 1.67861 1.40164C1.82321 1.33789 1.97953 1.30489 2.13762 1.30474H3.84565C4.12195 1.30203 4.38982 1.39968 4.59932 1.57949C4.80882 1.75931 4.94566 2.00902 4.98434 2.28207C5.05643 2.8276 5.19012 3.36323 5.38288 3.87876C5.45948 4.08214 5.47606 4.30317 5.43065 4.51566C5.38524 4.72816 5.27975 4.9232 5.12667 5.0777L4.4036 5.79933C5.2141 7.22188 6.39429 8.39974 7.81967 9.20863L8.54273 8.48699C8.69753 8.33422 8.89297 8.22894 9.10588 8.18362C9.3188 8.1383 9.54027 8.15484 9.74405 8.23129C10.2606 8.42366 10.7973 8.5571 11.3439 8.62905C11.6205 8.66799 11.8731 8.80701 12.0536 9.01969C12.2342 9.23237 12.3301 9.50386 12.3232 9.78252Z" stroke="#8290A5" stroke-opacity="0.6" stroke-width="1.13235" stroke-linecap="round" stroke-linejoin="round"/>
</svg>
