<svg xmlns="http://www.w3.org/2000/svg" width="12.074" height="10.612" viewBox="0 0 12.074 10.612">
    <path fill="#a6b1c3" d="M11.723 1.415h-3.21v-.354A1.062 1.062 0 0 0 7.452 0h-2.83a1.062 1.062 0 0 0-1.061 1.061v.354H.354A.355.355 0 0 0 0 1.769v7.782a1.062 1.062 0 0 0 1.061 1.061h9.952a1.062 1.062 0 0 0 1.061-1.061V1.776a.343.343 0 0 0-.352-.36zm-7.454-.354a.354.354 0 0 1 .353-.354h2.83a.354.354 0 0 1 .354.354v.354H4.269zm6.961 1.061l-1.1 3.3a.353.353 0 0 1-.33.238H7.806v-.354a.354.354 0 0 0-.354-.354h-2.83a.354.354 0 0 0-.354.354v.354H2.279a.353.353 0 0 1-.335-.242l-1.1-3.3zM7.1 5.66v.707H4.976V5.66zm4.268 3.891a.354.354 0 0 1-.354.354H1.061a.354.354 0 0 1-.354-.354v-5.6l.564 1.693a1.06 1.06 0 0 0 1.007.726h1.99v.354a.354.354 0 0 0 .354.354h2.83a.354.354 0 0 0 .354-.354v-.357H9.8a1.06 1.06 0 0 0 1-.725l.564-1.693zm0 0"/>
</svg>
