<svg width="26" height="22" viewBox="0 0 26 22" fill="none" xmlns="http://www.w3.org/2000/svg">
<g style="mix-blend-mode:luminosity">
<path d="M1.46706 6.5332C2.05587 6.5332 2.53374 6.0564 2.53374 5.46653V3.86652C2.53374 3.27772 3.01267 2.79985 3.60041 2.79985H5.20042C5.78922 2.79985 6.26709 2.32305 6.26709 1.73318C6.26709 1.14331 5.78922 0.666504 5.20042 0.666504H3.60041C1.83613 0.666504 0.400391 2.10225 0.400391 3.86652V5.46653C0.400391 6.0564 0.87826 6.5332 1.46706 6.5332Z" fill="#B9DCFF"/>
<path d="M22.8005 0.666504H21.2005C20.6117 0.666504 20.1338 1.14331 20.1338 1.73318C20.1338 2.32305 20.6117 2.79985 21.2005 2.79985H22.8005C23.3882 2.79985 23.8671 3.27772 23.8671 3.86652V5.46653C23.8671 6.0564 24.345 6.5332 24.9338 6.5332C25.5226 6.5332 26.0005 6.0564 26.0005 5.46653V3.86652C26.0005 2.10225 24.5647 0.666504 22.8005 0.666504Z" fill="#B9DCFF"/>
<path d="M0.400391 18.8C0.400391 20.5643 1.83613 22 3.60041 22H5.20042C5.78922 22 6.26709 21.5232 6.26709 20.9333C6.26709 20.3435 5.78922 19.8667 5.20042 19.8667H3.60041C3.01267 19.8667 2.53374 19.3888 2.53374 18.8V17.2C2.53374 16.6101 2.05587 16.1333 1.46706 16.1333C0.87826 16.1333 0.400391 16.6101 0.400391 17.2V18.8Z" fill="#B9DCFF"/>
<path d="M24.9338 16.1333C24.345 16.1333 23.8671 16.6101 23.8671 17.2V18.8C23.8671 19.3888 23.3882 19.8667 22.8005 19.8667H21.2005C20.6117 19.8667 20.1338 20.3435 20.1338 20.9333C20.1338 21.5232 20.6117 22 21.2005 22H22.8005C24.5647 22 26.0005 20.5643 26.0005 18.8V17.2C26.0005 16.6101 25.5226 16.1333 24.9338 16.1333Z" fill="#B9DCFF"/>
<path d="M13.1991 17.8078C17.3058 17.8078 20.8045 15.2265 21.7112 11.5251C21.7432 11.3971 21.7432 11.2691 21.7112 11.1411C20.8045 7.43975 17.3058 4.8584 13.1991 4.8584C9.09244 4.8584 5.59376 7.43975 4.68709 11.1411C4.65509 11.2691 4.65509 11.3971 4.68709 11.5251C5.59376 15.2265 9.09244 17.8078 13.1991 17.8078ZM13.1991 8.13308C14.9591 8.13308 16.3992 9.57309 16.3992 11.3331C16.3992 13.0931 14.9591 14.5331 13.1991 14.5331C11.4391 14.5331 9.99912 13.0931 9.99912 11.3331C9.99912 9.57309 11.4391 8.13308 13.1991 8.13308Z" fill="#4294FF"/>
</g>
</svg>
