<svg width="40" height="40" viewBox="0 0 40 40" fill="none" xmlns="http://www.w3.org/2000/svg">
<mask id="mask0_412_10425" style="mask-type:alpha" maskUnits="userSpaceOnUse" x="0" y="0" width="40" height="40">
<rect width="40" height="40" fill="#D9D9D9"/>
</mask>
<g mask="url(#mask0_412_10425)">
<path d="M14.6667 36.3333H24.6667C33 36.3333 36.3333 33 36.3333 24.6667V14.6667C36.3333 6.33333 33 3 24.6667 3H14.6667C6.33333 3 3 6.33333 3 14.6667V24.6667C3 33 6.33333 36.3333 14.6667 36.3333Z" stroke="#292D32" stroke-width="1.8" stroke-linecap="round" stroke-linejoin="round"/>
<path d="M27.6915 19.6426H19.3126V11.2637C19.3126 11.0927 19.2447 10.9288 19.1238 10.8079C19.0029 10.687 18.839 10.6191 18.6681 10.6191C16.7559 10.6191 14.8867 11.1861 13.2968 12.2485C11.7069 13.3108 10.4677 14.8207 9.73594 16.5873C9.00419 18.3539 8.81273 20.2978 9.18578 22.1733C9.55882 24.0487 10.4796 25.7713 11.8317 27.1234C13.1838 28.4755 14.9065 29.3963 16.7819 29.7694C18.6573 30.1424 20.6012 29.951 22.3678 29.2192C24.1344 28.4875 25.6444 27.2483 26.7067 25.6584C27.769 24.0685 28.336 22.1993 28.336 20.2871C28.336 20.1162 28.2681 19.9522 28.1472 19.8314C28.0264 19.7105 27.8624 19.6426 27.6915 19.6426ZM10.2892 20.2871C10.2892 15.8837 13.7034 12.2631 18.0235 11.9327V20.0203L12.3087 25.7355C11.0043 24.2201 10.2876 22.2866 10.2892 20.2871ZM18.6681 28.666C16.6686 28.6675 14.7351 27.9508 13.2196 26.6465L18.9345 20.9316H27.0225C26.692 25.2517 23.0715 28.666 18.6681 28.666Z" fill="black"/>
<path d="M28.1684 10.8297C27.2727 9.92914 26.2073 9.21516 25.0338 8.72911C23.8604 8.24306 22.6022 7.99459 21.332 7.99808C21.1611 7.99808 20.9972 8.06599 20.8763 8.18686C20.7554 8.30774 20.6875 8.47167 20.6875 8.64261V17.6661C20.6875 17.837 20.7554 18.0009 20.8763 18.1218C20.9972 18.2427 21.1611 18.3106 21.332 18.3106H30.3555C30.5264 18.3106 30.6903 18.2427 30.8112 18.1218C30.9321 18.0009 31 17.837 31 17.6661C31.0035 16.3959 30.755 15.1377 30.269 13.9642C29.7829 12.7908 29.0689 11.7254 28.1684 10.8297ZM21.9766 17.0215V9.31164C26.0839 9.62574 29.3723 12.9141 29.6864 17.0215H21.9766Z" fill="black"/>
</g>
</svg>
