<svg width="22" height="22" viewBox="0 0 22 22" fill="none" xmlns="http://www.w3.org/2000/svg">
<path d="M5.62675 21.9753H0.686189C0.343094 21.9753 0 21.6322 0 21.2891V16.2799C0 15.8682 0.343094 15.5938 0.686189 15.5938H5.48951V21.2891C5.48951 21.495 5.55813 21.7694 5.62675 21.9753Z" fill="#A5D0FF"/>
<path d="M15.0956 13.0548V21.2891C15.0956 21.6322 14.7525 21.9753 14.4094 21.9753H7.54752C7.20442 21.9753 6.86133 21.6322 6.86133 21.2891V13.0548C6.86133 12.6431 7.20442 12.3687 7.54752 12.3687H14.4094C14.7525 12.3687 15.0956 12.6431 15.0956 13.0548Z" fill="#4F8AFF"/>
<path d="M21.9559 17.172V21.2892C21.9559 21.6323 21.6128 21.9753 21.2697 21.9753H16.3291C16.3977 21.7695 16.4663 21.495 16.4663 21.2892V16.4858H21.2697C21.6128 16.4858 21.9559 16.7603 21.9559 17.172Z" fill="#A5D0FF"/>
<path d="M16.5353 4.82048L14.2709 7.01628L14.8198 10.1727C14.8884 10.4472 14.7512 10.7217 14.5454 10.8589C14.3395 10.9962 13.9964 10.9962 13.7905 10.9276L10.9772 9.41794L8.16379 10.8589C7.95794 10.9962 7.68346 10.9962 7.47761 10.7903C7.27175 10.6531 7.13451 10.3786 7.20313 10.1041L7.75208 6.94766L5.41904 4.82048C5.2818 4.68324 5.21318 4.40876 5.2818 4.13429C5.35042 3.85981 5.55628 3.72257 5.83075 3.65396L8.98722 3.17362L10.3596 0.360249C10.5655 -0.120083 11.3889 -0.120083 11.5947 0.360249L12.9671 3.17362L16.1236 3.65396C16.3981 3.72257 16.6039 3.85981 16.6725 4.13429C16.7412 4.40876 16.6725 4.68324 16.5353 4.82048Z" fill="#4F8AFF"/>
</svg>
