<svg width="58" height="58" viewBox="0 0 58 58" fill="none" xmlns="http://www.w3.org/2000/svg">
<circle cx="29" cy="29" r="29" fill="#DBEBFF"/>
<path fill-rule="evenodd" clip-rule="evenodd" d="M17.8001 19C19.0151 19 20.0001 19.985 20.0001 21.2V25.6H24.4001C25.6151 25.6 26.6001 26.585 26.6001 27.8C26.6001 29.015 25.6151 30 24.4001 30H15.6001V21.2C15.6001 19.985 16.5851 19 17.8001 19Z" fill="#79A6FF"/>
<path fill-rule="evenodd" clip-rule="evenodd" d="M19.7517 29.7818C18.5647 29.5224 17.8128 28.3499 18.0722 27.1629C19.6391 19.9932 26.7215 15.4513 33.8912 17.0182C41.0608 18.5851 45.6027 25.6675 44.0358 32.8371C42.469 40.0069 35.3865 44.5488 28.2168 42.9818C27.0299 42.7224 26.2779 41.5498 26.5373 40.3628C26.7967 39.1759 27.9693 38.424 29.1563 38.6834C33.9519 39.7315 38.6892 36.6935 39.7373 31.8977C40.7853 27.1021 37.7474 22.3648 32.9518 21.3168C28.1561 20.2687 23.4188 23.3067 22.3707 28.1023C22.1113 29.2893 20.9387 30.0414 19.7517 29.7818Z" fill="#79A6FF"/>
</svg>
