<svg width="144" height="169" viewBox="0 0 144 169" fill="none" xmlns="http://www.w3.org/2000/svg">
<path d="M121.893 138.432C19.2775 85.5204 2.85592 62.1808 141.214 46.3476M115.694 140.865C23.3352 90.1055 8.83638 67.1694 135.015 48.7807M109.495 143.297C27.3922 94.6899 14.8162 72.1572 128.816 51.213M103.296 145.73C31.4499 99.275 20.7967 77.1457 122.617 53.6461M97.0967 148.163C35.5075 103.86 26.7771 82.1343 116.418 56.0792M90.8972 150.596C39.5646 108.444 32.7571 87.122 110.218 58.5115M84.6982 153.029C43.6222 113.03 38.7375 92.1106 104.019 60.9446M78.4992 155.462C47.6798 117.615 44.7179 97.0992 97.8202 63.3777M72.2998 157.894C51.737 122.199 50.6978 102.087 91.6207 65.81M66.1007 160.327C55.7945 126.784 56.6782 107.076 85.4216 68.2431" stroke="#dfefff" stroke-width="1.29187" stroke-linecap="round"></path>
<path d="M88.63 71.6389C191.246 124.55 204.133 145.826 65.7752 161.659M92.7247 68.0649C185.084 118.824 198.153 140.838 71.9746 159.227M98.4547 65.2224C180.557 113.83 192.173 135.85 78.1737 156.794M103.977 62.2585C175.823 108.714 186.193 130.861 84.3728 154.361M109.893 59.8441C171.482 104.147 180.212 125.873 90.5719 151.928M116.092 57.411C167.424 99.5621 174.232 120.884 96.771 149.495M122.291 54.9779C163.367 94.977 168.252 115.896 102.97 147.062M128.49 52.5456C159.31 90.3927 162.272 110.908 109.169 144.63M134.689 50.1125C155.252 85.8076 156.291 105.92 115.368 142.197M140.889 47.6802C151.195 81.2232 150.311 100.932 121.568 139.764" stroke="url(#paint0_linear_1267_22666)" stroke-width="1.29187" stroke-linecap="round"></path>
<path d="M88.63 71.6389C191.246 124.55 204.133 145.826 65.7752 161.659M92.7247 68.0649C185.084 118.824 198.153 140.838 71.9746 159.227M98.4547 65.2224C180.557 113.83 192.173 135.85 78.1737 156.794M103.977 62.2585C175.823 108.714 186.193 130.861 84.3728 154.361M109.893 59.8441C171.482 104.147 180.212 125.873 90.5719 151.928M116.092 57.411C167.424 99.5621 174.232 120.884 96.771 149.495M122.291 54.9779C163.367 94.977 168.252 115.896 102.97 147.062M128.49 52.5456C159.31 90.3927 162.272 110.908 109.169 144.63M134.689 50.1125C155.252 85.8076 156.291 105.92 115.368 142.197M140.889 47.6802C151.195 81.2232 150.311 100.932 121.568 139.764" stroke="#dfefff" stroke-width="1.29187" stroke-linecap="round"></path>
<defs>
<linearGradient id="paint0_linear_1267_22666" x1="143.678" y1="68.2866" x2="132.187" y2="123.053" gradientUnits="userSpaceOnUse">
<stop stop-color="#dfefff"></stop>
<stop offset="1" stop-color="#dfefff"></stop>
</linearGradient>
</defs>
</svg>