<svg width="58" height="58" viewBox="0 0 58 58" fill="none" xmlns="http://www.w3.org/2000/svg">
<circle cx="29" cy="29" r="29" fill="#FFDFDF"/>
<path fill-rule="evenodd" clip-rule="evenodd" d="M24.6735 15.7222C24.6736 15.5309 24.7496 15.3475 24.8848 15.2122C25.02 15.0769 25.2034 15.0008 25.3946 15.0007L32.6051 15.0003C32.7964 15.0007 32.9798 15.077 33.1149 15.2124C33.2501 15.3478 33.3261 15.5313 33.3262 15.7226V17.5059H24.6735V15.7222ZM36.529 39.9673C36.5106 40.2485 36.3854 40.512 36.1791 40.7039C35.9728 40.8959 35.7009 41.0017 35.4191 40.9997H22.4978C22.2161 40.9989 21.9451 40.8916 21.7392 40.6993C21.5334 40.507 21.4079 40.2439 21.388 39.9629L20.2823 23.7882H37.7091L36.5292 39.9671L36.529 39.9673ZM39.4016 22.3233H18.5986V20.6475C18.5989 20.203 18.7756 19.7769 19.0899 19.4626C19.4041 19.1483 19.8302 18.9715 20.2747 18.9711L37.7253 18.9705C38.1698 18.9712 38.5957 19.1481 38.9099 19.4625C39.2241 19.7768 39.4007 20.2029 39.4011 20.6473V22.3231L39.4016 22.3233ZM25.6505 37.1438C25.6505 37.24 25.6695 37.3352 25.7063 37.4241C25.7431 37.5129 25.797 37.5937 25.865 37.6617C25.933 37.7297 26.0138 37.7836 26.1026 37.8204C26.1915 37.8572 26.2867 37.8762 26.3829 37.8762C26.4791 37.8762 26.5743 37.8572 26.6632 37.8204C26.752 37.7836 26.8327 37.7297 26.9008 37.6617C26.9688 37.5937 27.0227 37.5129 27.0595 37.4241C27.0963 37.3352 27.1153 37.24 27.1153 37.1438V26.8735C27.1137 26.6803 27.0359 26.4956 26.8988 26.3595C26.7617 26.2235 26.5764 26.1471 26.3833 26.147C26.1901 26.147 26.0048 26.2232 25.8676 26.3592C25.7304 26.4952 25.6525 26.6798 25.6508 26.873V37.1438H25.6505ZM30.8759 37.1438C30.8759 37.3381 30.9531 37.5244 31.0905 37.6618C31.2278 37.7991 31.4141 37.8763 31.6084 37.8763C31.8026 37.8763 31.989 37.7991 32.1263 37.6618C32.2637 37.5244 32.3409 37.3381 32.3409 37.1438V26.8735C32.3393 26.6803 32.2615 26.4956 32.1244 26.3595C31.9873 26.2234 31.8019 26.147 31.6088 26.1469C31.4156 26.1469 31.2302 26.2231 31.093 26.3591C30.9558 26.4951 30.8778 26.6798 30.8762 26.873L30.8759 37.1438Z" fill="#FF3E3E"/>
</svg>
