<svg width="312" height="248" viewBox="0 0 312 248" fill="none" xmlns="http://www.w3.org/2000/svg">
<circle cx="170.5" cy="123.5" r="123.5" fill="#EEF2FF" fill-opacity="0.52"/>
<path d="M281.098 75.151H99.1135C98.009 75.151 97.1135 76.0464 97.1135 77.151V172.806H283.098V77.151C283.098 76.0464 282.202 75.151 281.098 75.151Z" fill="#E6E6E6"/>
<path d="M280.984 75H99C97.8954 75 97 75.8954 97 77V86.3209H282.984V77C282.984 75.8954 282.089 75 280.984 75Z" fill="#6C63FF"/>
<path d="M278.624 89.7983H101.289V167.356H278.624V89.7983Z" fill="white"/>
<path d="M114.624 82.5043C115.658 82.5043 116.497 81.6658 116.497 80.6316C116.497 79.5973 115.658 78.7589 114.624 78.7589C113.59 78.7589 112.751 79.5973 112.751 80.6316C112.751 81.6658 113.59 82.5043 114.624 82.5043Z" fill="white"/>
<path d="M121.733 82.5043C122.767 82.5043 123.605 81.6658 123.605 80.6316C123.605 79.5973 122.767 78.7589 121.733 78.7589C120.698 78.7589 119.86 79.5973 119.86 80.6316C119.86 81.6658 120.698 82.5043 121.733 82.5043Z" fill="white"/>
<path d="M107.497 82.5043C108.531 82.5043 109.37 81.6658 109.37 80.6316C109.37 79.5973 108.531 78.7589 107.497 78.7589C106.463 78.7589 105.625 79.5973 105.625 80.6316C105.625 81.6658 106.463 82.5043 107.497 82.5043Z" fill="white"/>
<path d="M258.034 109.769H122.064V115.829H258.034V109.769Z" fill="#E6E6E6"/>
<path d="M170.544 124.918H122.064V130.978H170.544V124.918Z" fill="#E6E6E6"/>
<path d="M218.645 140.068H122.064V146.128H218.645V140.068Z" fill="#E6E6E6"/>
<g filter="url(#filter0_d_249_1477)">
<path d="M146.899 84H93.1006C90.8359 84 89 85.8368 89 88.1026V115.897C89 118.163 90.8359 120 93.1006 120H146.899C149.164 120 151 118.163 151 115.897V88.1026C151 85.8368 149.164 84 146.899 84Z" fill="white"/>
<path d="M146.662 120H93.3386C92.1884 119.999 91.0856 119.544 90.2722 118.735C89.4588 117.927 89.0013 116.83 89 115.687V88.3132C89.0013 87.1696 89.4588 86.0733 90.2722 85.2647C91.0856 84.4561 92.1884 84.0013 93.3386 84H146.662C147.812 84.0013 148.915 84.4562 149.728 85.2648C150.541 86.0734 150.999 87.1697 151 88.3132V115.687C150.999 116.83 150.541 117.927 149.728 118.735C148.915 119.544 147.812 119.999 146.662 120ZM93.3386 84.5455C92.3338 84.5466 91.3705 84.9439 90.66 85.6502C89.9495 86.3566 89.5498 87.3143 89.5487 88.3132V115.687C89.5498 116.686 89.9495 117.643 90.66 118.35C91.3705 119.056 92.3338 119.453 93.3386 119.455H146.662C147.666 119.453 148.63 119.056 149.34 118.35C150.051 117.643 150.45 116.686 150.451 115.687V88.3132C150.45 87.3143 150.051 86.3566 149.34 85.6503C148.63 84.9439 147.666 84.5466 146.662 84.5455H93.3386Z" fill="#DBDFE7"/>
</g>
<path d="M127.933 94H111.067C106.612 94 103 97.5817 103 102C103 106.418 106.612 110 111.067 110H127.933C132.388 110 136 106.418 136 102C136 97.5817 132.388 94 127.933 94Z" fill="#EAECF8"/>
<path d="M111.09 108.374C114.485 108.374 117.237 105.645 117.237 102.278C117.237 98.9111 114.485 96.1818 111.09 96.1818C107.695 96.1818 104.943 98.9111 104.943 102.278C104.943 105.645 107.695 108.374 111.09 108.374Z" fill="white"/>
<path d="M24.6531 226.967L24.2766 218.501C20.3517 216.403 15.9741 215.295 11.5237 215.273C17.6487 220.281 16.8833 229.934 21.0359 236.668C22.3472 238.758 24.112 240.527 26.1997 241.842C28.2873 243.158 30.6443 243.987 33.0959 244.268L38.2215 247.406C38.9248 243.485 38.7698 239.458 37.767 235.603C36.7642 231.748 34.9376 228.156 32.4129 225.075C30.9795 223.36 29.3358 221.833 27.5208 220.529C26.2932 223.766 24.6531 226.967 24.6531 226.967Z" fill="#F2F2F2"/>
<path d="M62.2014 142.401C62.0381 142.401 61.8751 142.417 61.7145 142.447L59.0422 125.529L61.7194 109.243C61.8878 108.218 61.6614 107.168 61.086 106.304C60.5105 105.44 59.6287 104.826 58.6185 104.586C57.6083 104.347 56.5448 104.499 55.6425 105.013C54.7402 105.526 54.0663 106.363 53.7566 107.354C52.753 110.565 52.2563 113.914 52.2846 117.278L52.378 128.385L59.5022 145.443C59.5645 145.963 59.7758 146.455 60.1107 146.858C60.4456 147.261 60.8899 147.559 61.3901 147.715C61.8902 147.872 62.425 147.88 62.9299 147.74C63.4349 147.6 63.8886 147.317 64.2364 146.925C64.5842 146.532 64.8113 146.048 64.8903 145.53C64.9694 145.012 64.8971 144.482 64.6821 144.004C64.4671 143.526 64.1186 143.121 63.6785 142.836C63.2384 142.552 62.7255 142.4 62.2014 142.401L62.2014 142.401Z" fill="#FFB8B8"/>
<path d="M50.8564 109.9C50.8558 109.053 51.0222 108.213 51.3461 107.43C51.67 106.647 52.1451 105.935 52.7441 105.336C53.3432 104.736 54.0546 104.261 54.8376 103.936C55.6206 103.612 56.4598 103.445 57.3074 103.445C58.155 103.445 58.9942 103.612 59.7772 103.936C60.5602 104.261 61.2716 104.736 61.8707 105.336C62.4698 105.935 62.9448 106.647 63.2688 107.43C63.5927 108.213 63.759 109.053 63.7584 109.9L59.5652 124.692L52.2835 124.33L50.8564 109.9Z" fill="#2F2E41"/>
<path d="M66.1568 239.647L70.3201 239.647L72.3009 223.588L66.156 223.588L66.1568 239.647Z" fill="#FFB8B8"/>
<path d="M77.5842 244.34L71.3278 240.019V237.2L70.6182 237.242L66.158 237.51L64.7466 237.593L63.9429 247.23L63.9165 247.551H66.8712L66.9315 247.23L67.3995 244.762L68.5957 247.23L68.7504 247.551H76.5843C77.0507 247.55 77.4978 247.365 77.828 247.035C78.1582 246.706 78.3446 246.259 78.3465 245.793C78.3467 245.507 78.2775 245.225 78.1447 244.972C78.0119 244.719 77.8195 244.502 77.5842 244.34Z" fill="#2F2E41"/>
<path d="M41.1868 230.05L44.495 232.578L55.8198 221.02L50.9372 217.289L41.1868 230.05Z" fill="#FFB8B8"/>
<path d="M47.4176 240.717L45.07 233.485L46.7815 231.246L46.1925 230.848L42.4859 228.353L41.314 227.562L34.8236 234.731L34.6079 234.97L36.9556 236.764L37.1983 236.546L39.0686 234.869L38.5206 237.556L38.4488 237.905L44.6733 242.662C45.0444 242.944 45.5123 243.068 45.9747 243.007C46.4371 242.946 46.8564 242.704 47.1412 242.334C47.3149 242.108 47.4309 241.842 47.479 241.56C47.5272 241.278 47.5061 240.989 47.4176 240.717Z" fill="#2F2E41"/>
<path d="M58.077 160.676L62.2393 173.449C62.2393 173.449 63.7185 187.08 65.2996 190.098C65.5949 190.712 65.7983 191.365 65.9034 192.038C65.9487 192.264 65.9826 192.502 66.0128 192.74C66.0732 193.212 66.1147 193.698 66.1411 194.189C66.2202 196.273 66.1306 198.36 65.8732 200.43C65.126 201.079 64.5789 206.932 64.1977 214.151C64.1562 214.902 64.1172 215.665 64.0808 216.442C64.0053 218.008 63.9374 219.615 63.877 221.23C63.443 232.453 63.6845 230.053 63.6845 230.053C74.2354 231.989 73.8014 228.498 73.8014 228.498C73.8014 228.498 77.4241 212.313 78.3599 204.94C78.4731 204.079 78.541 203.528 78.5561 203.37C78.5976 202.59 78.7409 201.818 78.9825 201.076C79.1872 200.784 79.3701 200.477 79.5297 200.159C79.5302 200.159 79.5307 200.159 79.5312 200.158C79.5316 200.158 79.532 200.158 79.5324 200.158C79.5327 200.157 79.533 200.157 79.5332 200.156C79.5334 200.156 79.5335 200.155 79.5335 200.155C80.2798 198.534 80.7003 196.783 80.7712 195C80.8247 194.228 80.8272 193.452 80.7787 192.679C80.7193 188.156 81.1023 183.638 81.9221 179.189C82.5825 176.151 82.1523 170.28 81.5674 165.249C81.3297 163.174 81.0618 161.242 80.8391 159.714C80.8278 159.65 80.8203 159.585 80.8127 159.521C80.5259 157.6 80.3146 156.363 80.3146 156.363C80.3146 156.363 81.2768 153.065 80.5637 151.846C80.2353 151.299 80.2806 150.008 80.4203 148.733C80.5938 147.178 80.9184 145.729 80.9184 145.729L61.3223 142.276C60.911 142.959 60.545 143.619 60.1865 144.257C53.7073 156.231 58.077 160.676 58.077 160.676Z" fill="#2F2E41"/>
<path d="M52.4764 106.034C52.6944 105.433 53.0602 104.896 53.5402 104.473C54.0201 104.05 54.5987 103.755 55.2226 103.614C56.1475 103.351 57.1101 103.246 58.07 103.303C60.8799 103.414 62.8603 98.1272 65.6426 98.5348C65.6426 98.5348 68.2614 97.6002 70.3104 99.3128C72.1719 100.869 73.4551 105.1 73.9328 104.859C74.1588 104.808 74.3934 104.808 74.6193 104.86C76.5428 105.13 78.2933 106.117 79.5206 107.622C80.7478 109.128 81.3612 111.041 81.2382 112.98L81.0357 116.412C81.0357 116.412 82.4671 118.567 80.3899 122.371L81.5958 135.791C81.5958 135.791 83.6047 154.487 80.5862 157.148C77.5677 159.808 66.4487 148.208 66.4487 148.208C66.4487 148.208 57.9066 146.846 58.4123 145.267C58.918 143.688 61.5708 139.308 61.5708 139.308C61.6324 139.063 61.6251 138.807 61.5495 138.566C61.474 138.326 61.3332 138.111 61.1429 137.946C60.4972 137.534 61.2207 136.6 61.2752 136.515C61.2129 136.577 60.7228 137.091 60.3494 136.009C59.976 134.928 61.1274 133.566 61.1274 133.566L57.8755 126.565L55.3159 121.033L55.0047 120.395L52.8497 115.945L52.7998 115.842C51.6622 113.47 51.4104 110.77 52.09 108.228C52.3146 107.517 52.4445 106.779 52.4764 106.034Z" fill="#CCCCCC"/>
<path d="M45.7112 220.468C53.4507 227.894 55.0092 224.736 55.0092 224.736C55.0092 224.736 59.1941 219.917 64.1978 214.151C65.994 212.083 67.8921 209.894 69.7412 207.762C72.2959 204.815 74.7524 201.978 76.7071 199.721C78.8694 197.219 80.409 195.43 80.7713 195C80.8247 194.228 80.8272 193.452 80.7788 192.679C80.7194 188.156 81.1023 183.638 81.9222 179.189C82.5826 176.151 82.1524 170.28 81.5675 165.249C80.692 167.072 79.6807 169.234 78.843 171.231C77.9071 173.453 77.1788 175.465 77.0656 176.559C76.7071 179.929 71.8581 185.498 71.8581 185.498L71.8015 185.51C71.0053 185.721 68.76 188.332 65.9035 192.038C58.0997 202.159 45.7112 220.468 45.7112 220.468Z" fill="#2F2E41"/>
<path d="M109.14 102.475C109.159 102.637 109.193 102.797 109.241 102.953L92.7366 107.531L76.2516 106.723C75.2146 106.672 74.1969 107.017 73.4037 107.687C72.6106 108.356 72.101 109.302 71.9777 110.333C71.8545 111.364 72.1268 112.403 72.7397 113.241C73.3525 114.08 74.2604 114.654 75.2802 114.849C78.5849 115.481 81.968 115.594 85.3075 115.183L96.3318 113.828L112.469 104.811C112.979 104.69 113.443 104.424 113.806 104.045C114.168 103.667 114.413 103.191 114.512 102.677C114.61 102.162 114.558 101.63 114.361 101.144C114.165 100.658 113.832 100.24 113.403 99.9387C112.974 99.6377 112.467 99.4671 111.943 99.4474C111.42 99.4277 110.901 99.5598 110.451 99.8277C110 100.096 109.637 100.488 109.404 100.958C109.172 101.427 109.08 101.954 109.14 102.475L109.14 102.475Z" fill="#FFB8B8"/>
<path d="M78.14 117.441C77.2982 117.538 76.4455 117.468 75.6307 117.235C74.8159 117.002 74.055 116.611 73.3914 116.084C72.7279 115.557 72.1746 114.904 71.7633 114.163C71.3521 113.422 71.0908 112.607 70.9945 111.766C70.8981 110.924 70.9686 110.071 71.2019 109.256C71.4352 108.442 71.8267 107.681 72.354 107.018C72.8814 106.354 73.5343 105.801 74.2754 105.39C75.0165 104.979 75.8313 104.719 76.6733 104.623L91.8453 107.107L92.3136 114.383L78.14 117.441Z" fill="#2F2E41"/>
<path d="M75.4958 92.878C74.5597 94.5899 73.0685 95.9318 71.2677 96.6829C69.467 97.4341 67.4642 97.5495 65.5891 97.0103C63.714 96.4711 62.0785 95.3094 60.9518 93.7165C59.8251 92.1236 59.2746 90.1945 59.3907 88.2469C59.5069 86.2992 60.2829 84.4492 61.5909 83.0015C62.8989 81.5539 64.661 80.5948 66.5869 80.2823C68.5128 79.9698 70.4876 80.3225 72.1863 81.2823C73.885 82.2422 75.2061 83.7519 75.9321 85.5628C75.9714 85.6611 76.0068 85.7594 76.0422 85.8616C76.4526 87.0032 76.6162 88.2189 76.522 89.4284C76.4278 90.638 76.078 91.8137 75.4958 92.878Z" fill="#FFB6B6"/>
<path d="M73.1059 102.383C73.098 102.273 73.0862 102.159 73.0705 102.049C72.9331 101.241 72.7104 100.451 72.4062 99.6901C72.1114 98.8607 71.8126 98.0274 71.5139 97.198C71.8986 98.7035 71.7813 100.293 71.1798 101.726C69.4542 100.382 70.543 97.308 68.2867 97.308C62.8622 97.308 57.2805 92.9095 57.2805 87.4811C57.2805 82.0565 59.6075 78 65.032 78C70.4605 78 74.863 80.4842 74.9691 85.9088C68.2867 87.4811 74.3677 101.832 73.1059 102.383Z" fill="#2F2E41"/>
<path d="M1.98851e-06 247.246C-0.000173885 247.305 0.0113182 247.363 0.0338244 247.418C0.0563305 247.472 0.0893985 247.522 0.131134 247.564C0.17287 247.605 0.222443 247.638 0.277007 247.661C0.331571 247.683 0.390045 247.695 0.449067 247.695H106.218C106.337 247.695 106.451 247.647 106.535 247.563C106.62 247.479 106.667 247.365 106.667 247.246C106.667 247.126 106.62 247.012 106.535 246.928C106.451 246.844 106.337 246.797 106.218 246.797H0.449067C0.390046 246.796 0.331581 246.808 0.277019 246.83C0.222456 246.853 0.172881 246.886 0.131146 246.928C0.0894104 246.969 0.0563312 247.019 0.0338244 247.074C0.0113175 247.128 -0.000171882 247.187 1.98851e-06 247.246Z" fill="#CCCCCC"/>
<g filter="url(#filter1_d_249_1477)">
<rect x="268" y="52" width="38" height="38" rx="7" fill="white"/>
</g>
<path d="M295.07 74.2706C294.925 74.5997 294.882 74.9648 294.946 75.3187C295.01 75.6727 295.179 75.9993 295.43 76.2564L295.496 76.3224C295.699 76.5251 295.86 76.7658 295.97 77.0307C296.079 77.2955 296.136 77.5794 296.136 77.8661C296.136 78.1528 296.079 78.4366 295.97 78.7015C295.86 78.9663 295.699 79.207 295.496 79.4097C295.294 79.6124 295.053 79.7732 294.788 79.8829C294.523 79.9926 294.239 80.0491 293.953 80.0491C293.666 80.0491 293.382 79.9926 293.117 79.8829C292.852 79.7732 292.612 79.6124 292.409 79.4097L292.343 79.3437C292.088 79.0967 291.766 78.9299 291.417 78.864C291.068 78.7982 290.708 78.8361 290.38 78.9732C290.053 79.1102 289.773 79.3404 289.575 79.6351C289.377 79.9298 289.27 80.2762 289.267 80.6312V80.8172C289.267 81.3957 289.037 81.9506 288.628 82.3596C288.219 82.7687 287.664 82.9986 287.085 82.9986C286.507 82.9986 285.952 82.7687 285.543 82.3596C285.134 81.9506 284.904 81.3957 284.904 80.8172V80.7176C284.895 80.3565 284.779 80.0062 284.568 79.7124C284.358 79.4186 284.065 79.1948 283.726 79.0701C283.396 78.9248 283.031 78.8814 282.677 78.9456C282.323 79.0098 281.997 79.1785 281.74 79.4301L281.674 79.4961C281.471 79.6988 281.23 79.8596 280.966 79.9693C280.701 80.079 280.417 80.1355 280.13 80.1355C279.843 80.1355 279.56 80.079 279.295 79.9693C279.03 79.8596 278.789 79.6988 278.586 79.4961C278.384 79.2934 278.223 79.0527 278.113 78.7879C278.004 78.523 277.947 78.2391 277.947 77.9525C277.947 77.6658 278.004 77.3819 278.113 77.117C278.223 76.8522 278.384 76.6115 278.586 76.4088L278.652 76.3428C278.899 76.0878 279.066 75.7659 279.132 75.4171C279.198 75.0682 279.16 74.7076 279.023 74.3801C278.886 74.0526 278.656 73.7725 278.361 73.5745C278.066 73.3765 277.72 73.2694 277.365 73.2663H277.181C276.603 73.2663 276.048 73.0365 275.639 72.6274C275.23 72.2183 275 71.6635 275 71.0849C275 70.5064 275.23 69.9516 275.639 69.5425C276.048 69.1334 276.603 68.9036 277.181 68.9036H277.28C277.641 68.8952 277.991 68.7783 278.285 68.5682C278.579 68.358 278.803 68.0643 278.927 67.7253C279.073 67.3962 279.116 67.0311 279.052 66.6772C278.988 66.3232 278.819 65.9966 278.567 65.7395L278.501 65.6735C278.292 65.4722 278.126 65.2313 278.011 64.9648C277.896 64.6984 277.836 64.4117 277.833 64.1217C277.831 63.8316 277.886 63.544 277.996 63.2755C278.106 63.007 278.268 62.7631 278.473 62.5581C278.678 62.3531 278.922 62.191 279.191 62.0814C279.459 61.9717 279.747 61.9167 280.037 61.9196C280.327 61.9224 280.614 61.983 280.88 62.0979C281.147 62.2128 281.387 62.3796 281.589 62.5886L281.655 62.6546C281.912 62.9062 282.238 63.0749 282.592 63.1391C282.946 63.2033 283.311 63.1599 283.64 63.0146H283.728C284.051 62.8762 284.326 62.6466 284.52 62.3539C284.713 62.0612 284.817 61.7182 284.819 61.3671V61.1811C284.819 60.6026 285.048 60.0478 285.458 59.6387C285.867 59.2296 286.421 58.9998 287 58.9998C287.579 58.9998 288.133 59.2296 288.542 59.6387C288.952 60.0478 289.181 60.6026 289.181 61.1811V61.2795C289.184 61.6346 289.292 61.9809 289.49 62.2756C289.688 62.5703 289.968 62.8005 290.295 62.9375C290.623 63.0746 290.983 63.1126 291.332 63.0467C291.681 62.9808 292.003 62.814 292.258 62.567L292.324 62.501C292.733 62.0916 293.289 61.8616 293.868 61.8616C294.446 61.8616 295.002 62.0916 295.411 62.501C295.821 62.9104 296.051 63.4657 296.051 64.0447C296.051 64.6236 295.821 65.1789 295.411 65.5883L295.345 65.6543C295.094 65.9114 294.925 66.238 294.861 66.592C294.797 66.946 294.84 67.311 294.985 67.6401V67.7277C295.124 68.0503 295.353 68.3255 295.646 68.5193C295.939 68.7131 296.282 68.817 296.633 68.8184H296.819C297.397 68.8184 297.952 69.0482 298.361 69.4573C298.77 69.8664 299 70.4212 299 70.9998C299 71.5783 298.77 72.1331 298.361 72.5422C297.952 72.9513 297.397 73.1811 296.819 73.1811H296.718C296.367 73.1824 296.024 73.2861 295.731 73.4797C295.439 73.6733 295.209 73.9482 295.07 74.2706Z" fill="#9FCEFF"/>
<path d="M286.999 74.5982C288.987 74.5982 290.598 72.9866 290.598 70.9985C290.598 69.0105 288.987 67.3989 286.999 67.3989C285.011 67.3989 283.399 69.0105 283.399 70.9985C283.399 72.9866 285.011 74.5982 286.999 74.5982Z" fill="#3698FF"/>
<g filter="url(#filter2_d_249_1477)">
<rect x="181" y="157" width="38" height="38" rx="7" fill="white"/>
</g>
<path d="M206.123 181.04H209.559C208.101 183.548 205.679 185.43 202.794 186.178C204.22 184.719 205.363 182.974 206.123 181.04Z" fill="#3698FF"/>
<path d="M196.308 181.04H203.725C202.861 182.875 201.586 184.475 200.014 185.726C198.447 184.479 197.172 182.875 196.308 181.04Z" fill="#9FCEFF"/>
<path d="M193.91 181.04C194.67 182.974 195.807 184.715 197.238 186.178C194.353 185.43 191.927 183.548 190.473 181.04H193.91Z" fill="#3698FF"/>
<path d="M193.235 178.847H189.505C189.175 177.807 189 176.697 189 175.554C189 174.608 189.118 173.686 189.345 172.811H193.079C192.928 173.667 192.852 174.551 192.852 175.45C192.857 176.612 192.984 177.751 193.235 178.847Z" fill="#3698FF"/>
<path d="M204.706 172.806C204.881 173.657 204.97 174.542 204.97 175.445C204.97 176.622 204.815 177.76 204.527 178.847H195.505C195.217 177.76 195.062 176.622 195.062 175.445C195.062 174.542 195.151 173.657 195.326 172.806H204.706Z" fill="#9FCEFF"/>
<path d="M210.683 172.806C210.909 173.681 211.032 174.603 211.032 175.549C211.032 176.697 210.853 177.803 210.527 178.843H206.798C207.048 177.746 207.175 176.612 207.175 175.441C207.175 174.542 207.1 173.657 206.949 172.801H210.683V172.806Z" fill="#3698FF"/>
<path d="M209.857 170.613H206.401C205.698 168.501 204.55 166.595 203.068 165C206.033 165.852 208.488 167.912 209.857 170.613Z" fill="#3698FF"/>
<path d="M204.055 170.613H195.978C196.832 168.458 198.234 166.586 200.019 165.16C201.798 166.586 203.2 168.458 204.055 170.613Z" fill="#9FCEFF"/>
<path d="M196.964 165C195.482 166.595 194.335 168.501 193.636 170.613H190.176C191.545 167.912 193.995 165.852 196.964 165Z" fill="#3698FF"/>
<path d="M191.879 43.9429H157.707C157.011 43.9421 156.343 43.6653 155.851 43.1732C155.359 42.6811 155.082 42.0139 155.082 41.318V10.1204C155.082 9.42444 155.359 8.75723 155.851 8.26514C156.343 7.77305 157.011 7.49625 157.707 7.49548H191.879C192.575 7.49625 193.242 7.77305 193.735 8.26514C194.227 8.75723 194.503 9.42444 194.504 10.1204V41.318C194.503 42.0139 194.227 42.6811 193.735 43.1732C193.242 43.6653 192.575 43.9421 191.879 43.9429Z" fill="white"/>
<path d="M191.88 44.4384H157.707C156.88 44.4375 156.086 44.1084 155.501 43.5235C154.916 42.9385 154.587 42.1453 154.586 41.318V10.1204C154.587 9.29312 154.916 8.49997 155.501 7.91498C156.086 7.32999 156.88 7.00094 157.707 7H191.88C192.707 7.00094 193.5 7.32999 194.085 7.91498C194.67 8.49997 194.999 9.29312 195 10.1204V41.318C194.999 42.1453 194.67 42.9385 194.085 43.5235C193.5 44.1084 192.707 44.4375 191.88 44.4384ZM157.707 7.99097C157.142 7.99164 156.601 8.21621 156.202 8.61542C155.803 9.01463 155.578 9.55587 155.577 10.1204V41.318C155.578 41.8826 155.803 42.4239 156.202 42.8231C156.601 43.2223 157.142 43.4468 157.707 43.4475H191.88C192.444 43.4468 192.985 43.2223 193.385 42.8231C193.784 42.4239 194.008 41.8826 194.009 41.318V10.1204C194.008 9.55585 193.784 9.0146 193.385 8.6154C192.985 8.21619 192.444 7.99162 191.88 7.99095L157.707 7.99097Z" fill="#9FCEFF"/>
<path d="M167.775 22.283C170.127 22.283 172.034 20.3759 172.034 18.0234C172.034 15.6709 170.127 13.7638 167.775 13.7638C165.422 13.7638 163.515 15.6709 163.515 18.0234C163.515 20.3759 165.422 22.283 167.775 22.283Z" fill="#9FCEFF"/>
<path d="M184.802 28.7573H164.784C164.447 28.7573 164.125 28.6236 163.887 28.3858C163.649 28.1479 163.515 27.8253 163.515 27.4889C163.515 27.1525 163.649 26.8298 163.887 26.592C164.125 26.3541 164.447 26.2205 164.784 26.2205H184.802C185.138 26.2205 185.461 26.3541 185.699 26.592C185.936 26.8298 186.07 27.1525 186.07 27.4889C186.07 27.8253 185.936 28.1479 185.699 28.3858C185.461 28.6236 185.138 28.7573 184.802 28.7573Z" fill="#9FCEFF"/>
<path d="M174.443 33.7694H164.784C164.447 33.7694 164.125 33.6358 163.887 33.3979C163.649 33.16 163.515 32.8374 163.515 32.501C163.515 32.1645 163.649 31.8419 163.887 31.604C164.125 31.3661 164.447 31.2325 164.784 31.2325H174.443C174.61 31.2321 174.775 31.2647 174.93 31.3283C175.084 31.3919 175.224 31.4853 175.342 31.6031C175.46 31.7209 175.554 31.8609 175.618 32.015C175.682 32.169 175.714 32.3342 175.714 32.501C175.714 32.6678 175.682 32.8329 175.618 32.987C175.554 33.141 175.46 33.281 175.342 33.3988C175.224 33.5166 175.084 33.61 174.93 33.6736C174.775 33.7372 174.61 33.7698 174.443 33.7694Z" fill="#9FCEFF"/>
<path d="M156.994 53.0992C155.215 53.0992 153.476 52.5717 151.997 51.5834C150.518 50.5951 149.365 49.1904 148.685 47.547C148.004 45.9036 147.826 44.0951 148.173 42.3505C148.52 40.6058 149.376 39.0032 150.634 37.7454C151.892 36.4875 153.495 35.6309 155.239 35.2839C156.984 34.9369 158.792 35.115 160.436 35.7957C162.079 36.4764 163.484 37.6292 164.472 39.1083C165.461 40.5874 165.988 42.3263 165.988 44.1051C165.988 46.4905 165.04 48.7782 163.354 50.4649C161.667 52.1516 159.379 53.0992 156.994 53.0992Z" fill="#9FCEFF"/>
<path d="M160.543 43.2179H157.881V40.5563C157.881 40.3213 157.787 40.0962 157.621 39.9303C157.454 39.7643 157.229 39.6711 156.994 39.6711C156.759 39.6711 156.534 39.7643 156.368 39.9303C156.201 40.0962 156.108 40.3213 156.107 40.5563V43.2179H153.445C153.21 43.2179 152.984 43.3114 152.818 43.4778C152.652 43.6441 152.558 43.8698 152.558 44.1051C152.558 44.3404 152.652 44.5661 152.818 44.7324C152.984 44.8988 153.21 44.9923 153.445 44.9923H156.107V47.6539C156.107 47.8892 156.2 48.1149 156.367 48.2813C156.533 48.4477 156.759 48.5411 156.994 48.5411C157.229 48.5411 157.455 48.4477 157.622 48.2813C157.788 48.1149 157.881 47.8892 157.881 47.6539V44.9923H160.543C160.778 44.9923 161.004 44.8988 161.17 44.7324C161.337 44.5661 161.43 44.3404 161.43 44.1051C161.43 43.8698 161.337 43.6441 161.17 43.4777C161.004 43.3114 160.778 43.2179 160.543 43.2179V43.2179Z" fill="white"/>
<defs>
<filter id="filter0_d_249_1477" x="78" y="73" width="84" height="58" filterUnits="userSpaceOnUse" color-interpolation-filters="sRGB">
<feFlood flood-opacity="0" result="BackgroundImageFix"/>
<feColorMatrix in="SourceAlpha" type="matrix" values="0 0 0 0 0 0 0 0 0 0 0 0 0 0 0 0 0 0 127 0" result="hardAlpha"/>
<feOffset/>
<feGaussianBlur stdDeviation="5.5"/>
<feComposite in2="hardAlpha" operator="out"/>
<feColorMatrix type="matrix" values="0 0 0 0 0.9025 0 0 0 0 0.909808 0 0 0 0 0.95 0 0 0 1 0"/>
<feBlend mode="normal" in2="BackgroundImageFix" result="effect1_dropShadow_249_1477"/>
<feBlend mode="normal" in="SourceGraphic" in2="effect1_dropShadow_249_1477" result="shape"/>
</filter>
<filter id="filter1_d_249_1477" x="262" y="48" width="50" height="50" filterUnits="userSpaceOnUse" color-interpolation-filters="sRGB">
<feFlood flood-opacity="0" result="BackgroundImageFix"/>
<feColorMatrix in="SourceAlpha" type="matrix" values="0 0 0 0 0 0 0 0 0 0 0 0 0 0 0 0 0 0 127 0" result="hardAlpha"/>
<feOffset dy="2"/>
<feGaussianBlur stdDeviation="3"/>
<feComposite in2="hardAlpha" operator="out"/>
<feColorMatrix type="matrix" values="0 0 0 0 0.8 0 0 0 0 0.831373 0 0 0 0 0.898039 0 0 0 0.62 0"/>
<feBlend mode="normal" in2="BackgroundImageFix" result="effect1_dropShadow_249_1477"/>
<feBlend mode="normal" in="SourceGraphic" in2="effect1_dropShadow_249_1477" result="shape"/>
</filter>
<filter id="filter2_d_249_1477" x="175" y="153" width="50" height="50" filterUnits="userSpaceOnUse" color-interpolation-filters="sRGB">
<feFlood flood-opacity="0" result="BackgroundImageFix"/>
<feColorMatrix in="SourceAlpha" type="matrix" values="0 0 0 0 0 0 0 0 0 0 0 0 0 0 0 0 0 0 127 0" result="hardAlpha"/>
<feOffset dy="2"/>
<feGaussianBlur stdDeviation="3"/>
<feComposite in2="hardAlpha" operator="out"/>
<feColorMatrix type="matrix" values="0 0 0 0 0.8 0 0 0 0 0.831373 0 0 0 0 0.898039 0 0 0 0.62 0"/>
<feBlend mode="normal" in2="BackgroundImageFix" result="effect1_dropShadow_249_1477"/>
<feBlend mode="normal" in="SourceGraphic" in2="effect1_dropShadow_249_1477" result="shape"/>
</filter>
</defs>
</svg>
