<svg width="176" height="137" viewBox="0 0 176 137" fill="none" xmlns="http://www.w3.org/2000/svg">
<path d="M13.7305 128.88L16.8139 130.368L24.0222 119.183L19.4712 116.987L13.7305 128.88Z" fill="#A0616A"/>
<path d="M12.0684 132.044L21.5502 136.621L21.6081 136.502C22.0805 135.523 22.1448 134.396 21.7868 133.37C21.4288 132.344 20.6779 131.502 19.6991 131.029L19.6989 131.029L18.6013 128.879L14.7354 128.633L13.9077 128.234L12.0684 132.044Z" fill="#2F2E41"/>
<path d="M36.6824 133.05L40.1062 133.05L41.735 119.843L36.6816 119.843L36.6824 133.05Z" fill="#A0616A"/>
<path d="M36.5617 136.621L47.0904 136.621V136.488C47.0903 135.401 46.6585 134.359 45.89 133.59C45.1215 132.822 44.0792 132.39 42.9923 132.39H42.9921L41.0689 130.931L37.4806 132.39L36.5615 132.39L36.5617 136.621Z" fill="#2F2E41"/>
<path d="M40.0757 71.8009L43.9991 98.8566L42.9314 102.417L44.3325 104.938L42.2749 123.915L43.1101 125.754L40.7766 127.193H36.0281L35.7761 107.147L34.6032 104.204V102.582L32.2154 90.358L31.6646 109.387L30.9023 110.857C28.0627 117.3 24.2375 119.409 21.5333 124.225L16.7847 121.653L16.8843 119.735C15.9303 119.252 18.3165 117.84 18.5458 116.796L18.9611 114.926L21.7312 109.188L21.8369 107.167L21.0788 93.4234L21.4355 74.9159L27.6643 70.1528L40.0757 71.8009Z" fill="#2F2E41"/>
<path d="M47.3243 77.1452C47.5937 76.92 47.8105 76.6385 47.9593 76.3205C48.1082 76.0024 48.1855 75.6556 48.1858 75.3045C48.1861 74.9534 48.1094 74.6065 47.9612 74.2882C47.8129 73.9699 47.5967 73.688 47.3277 73.4623L46.4869 53.9726L43.6025 48.5349L40.5088 47.9321L41.2202 56.8674L43.8151 73.876C43.4659 74.3531 43.3038 74.9416 43.3596 75.5301C43.4154 76.1187 43.6851 76.6663 44.1176 77.0693C44.5502 77.4722 45.1155 77.7025 45.7065 77.7165C46.2975 77.7305 46.8731 77.5272 47.3243 77.1452L47.3243 77.1452Z" fill="#A0616A"/>
<path d="M34.1088 33.4436C37.516 33.4436 40.2781 30.6815 40.2781 27.2743C40.2781 23.8671 37.516 21.105 34.1088 21.105C30.7015 21.105 27.9395 23.8671 27.9395 27.2743C27.9395 30.6815 30.7015 33.4436 34.1088 33.4436Z" fill="#A0616A"/>
<path d="M34.9568 76.7936C26.8236 76.7938 20.7226 73.7305 20.6391 73.6877L20.5669 73.6506L20.5891 73.5725C20.8074 72.8079 21.0143 71.5251 20.64 71.338C20.5997 71.3226 20.564 71.2972 20.5361 71.2643C20.5082 71.2314 20.4891 71.192 20.4805 71.1497C20.4591 70.996 20.613 70.8555 20.826 70.661C21.2395 70.2833 21.8058 69.7662 21.4737 68.936C20.8881 67.4722 22.5346 59.9713 22.641 59.4905L21.9378 47.534C21.8097 45.2528 22.4709 42.997 23.8103 41.1459C25.1497 39.2948 27.0855 37.9613 29.2924 37.3696L29.3081 37.3654L29.3242 37.3665C29.5529 37.3793 29.795 36.6028 29.9787 36.0345C30.2499 35.1945 30.4291 34.6784 30.7346 34.7004C33.1004 34.8529 34.6768 34.9527 35.7272 35.0179C37.719 35.1417 38.0679 37.5642 38.1108 37.951C40.2547 39.2573 41.9312 41.2074 42.9013 43.5229C43.8713 45.8385 44.0853 48.4012 43.5127 50.8456L42.52 55.1142L41.6427 57.1651L41.9318 61.2114C43.2925 62.3428 42.9026 64.6574 42.8251 65.0485C44.1216 66.3898 43.3254 67.9683 43.1323 68.3026C43.4642 68.7081 43.69 69.1898 43.7895 69.7042C43.889 70.2187 43.8591 70.7498 43.7024 71.2498L44.8965 75.1306L44.8065 75.162C41.6383 76.2558 38.3084 76.8074 34.9568 76.7936Z" fill="#99A8FF"/>
<path d="M40.0884 55.4825L36.2129 48.0298L38.8926 40.8841L38.9492 40.8749C39.9847 40.7031 41.048 40.846 42.0015 41.285C42.9549 41.724 43.7548 42.439 44.2975 43.3374C45.1711 44.7747 45.7855 46.3542 46.1127 48.004C46.9802 52.6312 47.2817 53.5649 47.2847 53.5738L47.3182 53.6751L40.0884 55.4825Z" fill="#99A8FF"/>
<path d="M43.6286 79.0106C48.6006 79.0106 52.6312 74.98 52.6312 70.008C52.6312 65.036 48.6006 61.0054 43.6286 61.0054C38.6566 61.0054 34.626 65.036 34.626 70.008C34.626 74.98 38.6566 79.0106 43.6286 79.0106Z" fill="#F9F9FC"/>
<path d="M35.6152 70.3049C35.6152 68.9057 35.9599 67.6144 36.6493 66.4312C37.3386 65.248 38.2749 64.3117 39.4581 63.6224C40.6413 62.933 41.9325 62.5884 43.3318 62.5884C44.731 62.5884 46.0223 62.933 47.2055 63.6224C48.3887 64.3117 49.325 65.248 50.0143 66.4312C50.7037 67.6144 51.0483 68.9057 51.0483 70.3049C51.0483 71.7042 50.7037 72.9954 50.0143 74.1786C49.325 75.3618 48.3887 76.2981 47.2055 76.9874C46.0223 77.6768 44.731 78.0215 43.3318 78.0215C41.9325 78.0215 40.6413 77.6768 39.4581 76.9874C38.2749 76.2981 37.3386 75.3618 36.6493 74.1786C35.9599 72.9954 35.6152 71.7042 35.6152 70.3049ZM36.8962 70.3049C36.8962 71.91 37.4363 73.3247 38.5167 74.549C39.0105 73.5819 39.7925 72.661 40.8625 71.7865C41.9325 70.912 42.9768 70.3615 43.9954 70.1352C43.8411 69.7751 43.6919 69.451 43.5478 69.1629C41.7782 69.7288 39.8645 70.0117 37.8067 70.0117C37.4055 70.0117 37.1071 70.0066 36.9116 69.9963C36.9116 70.0374 36.9091 70.0889 36.9039 70.1506C36.8988 70.2123 36.8962 70.2638 36.8962 70.3049ZM37.0968 68.7153C37.3232 68.7359 37.6576 68.7462 38.1 68.7462C39.8182 68.7462 41.4489 68.5147 42.9922 68.0517C42.2103 66.6627 41.3512 65.5052 40.4149 64.5792C39.6021 64.9908 38.9051 65.5618 38.3237 66.2923C37.7424 67.0228 37.3335 67.8305 37.0968 68.7153ZM39.3963 75.3824C40.559 76.2878 41.8708 76.7405 43.3318 76.7405C44.0932 76.7405 44.8494 76.5965 45.6004 76.3084C45.3947 74.549 44.9934 72.8462 44.3967 71.2C43.4501 71.4058 42.4958 71.9254 41.5338 72.7588C40.5718 73.5922 39.8593 74.4667 39.3963 75.3824ZM41.7576 64.0854C42.663 65.0217 43.5015 66.1894 44.2732 67.5887C45.6725 67.0022 46.7271 66.2563 47.437 65.3509C46.2435 64.3632 44.8751 63.8693 43.3318 63.8693C42.8071 63.8693 42.2823 63.9414 41.7576 64.0854ZM44.8288 68.6844C44.9831 69.0137 45.158 69.4304 45.3535 69.9345C46.1149 69.8625 46.9431 69.8265 47.8382 69.8265C48.4762 69.8265 49.1089 69.8419 49.7365 69.8728C49.6542 68.4735 49.1501 67.2286 48.2241 66.138C47.5553 67.136 46.4235 67.9848 44.8288 68.6844ZM45.7393 71.0148C46.2641 72.5376 46.619 74.1015 46.8042 75.7065C47.617 75.1818 48.2807 74.5079 48.7951 73.6848C49.3095 72.8617 49.6182 71.9717 49.7211 71.0148C48.97 70.9634 48.2858 70.9377 47.6685 70.9377C47.1026 70.9377 46.4596 70.9634 45.7393 71.0148Z" fill="#DD3E7B"/>
<path d="M36.6488 77.6733C36.3148 77.5648 36.0087 77.3844 35.7521 77.1448C35.4954 76.9052 35.2944 76.6122 35.1632 76.2865C35.032 75.9608 34.9738 75.6103 34.9927 75.2597C35.0116 74.9091 35.1072 74.5669 35.2726 74.2572L28.7871 55.8591L29.4365 49.7381L32.0825 48.0254L34.7533 56.5817L38.6863 73.3317C39.1881 73.6441 39.5579 74.1298 39.7256 74.6967C39.8932 75.2636 39.8471 75.8723 39.596 76.4075C39.3448 76.9427 38.9061 77.3671 38.3629 77.6004C37.8197 77.8337 37.2098 77.8597 36.6488 77.6733H36.6488Z" fill="#A0616A"/>
<path d="M25.292 43.3001L31.4257 40.9258L34.9871 52.7974L26.7666 55.4022L25.292 43.3001Z" fill="#99A8FF"/>
<path d="M28.877 31.1523C28.8009 31.1526 28.7252 31.1404 28.653 31.1162C28.3695 30.9919 28.1326 30.7813 27.9759 30.5144C26.8825 28.9417 26.3545 26.845 26.4069 24.2823C26.429 23.1981 26.5517 21.8119 27.311 20.707C27.9495 19.7778 29.2411 19.0405 30.4447 19.4106C30.379 18.9273 30.7059 18.4471 31.0939 18.2095C31.5498 17.9302 32.0986 17.8789 32.5827 17.8333C33.8053 17.7188 35.069 17.6003 36.3069 17.8349C37.6949 18.0982 38.8298 18.8136 39.4206 19.7977L39.4327 19.8286L39.5528 20.4117C39.5689 20.4901 39.6018 20.5641 39.6493 20.6285C39.6967 20.693 39.7576 20.7463 39.8277 20.785C39.8978 20.8237 39.9754 20.8467 40.0552 20.8524C40.1351 20.8582 40.2152 20.8466 40.2901 20.8184C40.3719 20.7877 40.4602 20.7787 40.5465 20.7926C40.6328 20.8064 40.714 20.8424 40.782 20.8972C40.8501 20.9519 40.9027 21.0235 40.9347 21.1048C40.9667 21.1861 40.9769 21.2744 40.9644 21.3608L40.9308 21.5928L41.28 21.5275C41.3673 21.5112 41.4574 21.5183 41.5411 21.5482C41.6248 21.5781 41.6991 21.6296 41.7564 21.6975C41.8137 21.7654 41.8519 21.8473 41.8673 21.9348C41.8826 22.0224 41.8745 22.1124 41.8437 22.1957L41.7451 22.4625C41.8173 22.4629 41.8887 22.4782 41.9548 22.5073C42.0209 22.5364 42.0804 22.5788 42.1295 22.6317C42.2001 22.7077 42.2446 22.8042 42.2565 22.9072C42.2683 23.0103 42.2469 23.1144 42.1954 23.2044C41.8052 23.8716 41.2517 24.4285 40.5869 24.8227C40.2236 25.0413 39.8263 25.1975 39.4114 25.285C36.7192 25.866 33.9434 25.9494 31.2212 25.5312C31.3824 26.0682 31.4444 26.6299 31.4043 27.1891C31.3171 27.8883 30.9066 28.4652 30.3585 28.6589C30.2336 28.6995 30.1059 28.7304 29.9763 28.7511C29.8524 28.7704 29.7303 28.8001 29.6114 28.8398C29.4351 28.9045 29.279 29.0146 29.1588 29.159C29.0387 29.3033 28.9587 29.4768 28.927 29.6619C28.8953 29.847 28.913 30.0372 28.9782 30.2133C29.0435 30.3894 29.154 30.5451 29.2987 30.6649L29.569 30.3832L29.4811 30.7413C29.4628 30.811 29.43 30.8761 29.3848 30.9323C29.3397 30.9885 29.2832 31.0346 29.2191 31.0676C29.1139 31.1237 28.9963 31.1528 28.877 31.1523Z" fill="#2F2E41"/>
<path d="M175.929 136.765C175.929 136.796 175.923 136.826 175.911 136.855C175.9 136.884 175.882 136.91 175.86 136.931C175.838 136.953 175.812 136.971 175.784 136.982C175.755 136.994 175.725 137 175.694 137H0.235451C0.173005 137 0.113118 136.975 0.0689624 136.931C0.0248063 136.887 0 136.827 0 136.765C0 136.702 0.0248063 136.642 0.0689624 136.598C0.113118 136.554 0.173005 136.529 0.235451 136.529H175.694C175.725 136.529 175.755 136.535 175.784 136.547C175.812 136.559 175.838 136.576 175.86 136.598C175.882 136.62 175.9 136.646 175.911 136.675C175.923 136.703 175.929 136.734 175.929 136.765Z" fill="#CCCCCC"/>
<rect x="58.2998" width="100.283" height="84.6784" rx="5" fill="#F9F9FC"/>
<path d="M151.092 24.7841H87.3629C87.141 24.7841 86.9283 24.6995 86.7714 24.5488C86.6145 24.3982 86.5264 24.1939 86.5264 23.9809C86.5264 23.7679 86.6145 23.5636 86.7714 23.413C86.9283 23.2624 87.141 23.1777 87.3629 23.1777H151.092C151.314 23.1777 151.526 23.2624 151.683 23.413C151.84 23.5636 151.928 23.7679 151.928 23.9809C151.928 24.1939 151.84 24.3982 151.683 24.5488C151.526 24.6995 151.314 24.7841 151.092 24.7841Z" fill="#E6E7E8"/>
<path d="M151.092 46.4648H87.3629C87.141 46.4648 86.9283 46.3801 86.7714 46.2295C86.6145 46.0789 86.5264 45.8746 86.5264 45.6616C86.5264 45.4486 86.6145 45.2443 86.7714 45.0936C86.9283 44.943 87.141 44.8584 87.3629 44.8584H151.092C151.314 44.8584 151.526 44.943 151.683 45.0936C151.84 45.2443 151.928 45.4486 151.928 45.6616C151.928 45.8746 151.84 46.0789 151.683 46.2295C151.526 46.3801 151.314 46.4648 151.092 46.4648Z" fill="#E6E7E8"/>
<path d="M151.092 67.9262H87.3629C87.141 67.9262 86.9283 67.8416 86.7714 67.6909C86.6145 67.5403 86.5264 67.336 86.5264 67.123C86.5264 66.91 86.6145 66.7057 86.7714 66.5551C86.9283 66.4044 87.141 66.3198 87.3629 66.3198H151.092C151.314 66.3198 151.526 66.4044 151.683 66.5551C151.84 66.7057 151.928 66.91 151.928 67.123C151.928 67.336 151.84 67.5403 151.683 67.6909C151.526 67.8416 151.314 67.9262 151.092 67.9262Z" fill="#E6E7E8"/>
<path d="M151.092 30.0619H87.3629C87.141 30.0619 86.9283 29.9652 86.7714 29.7931C86.6145 29.6209 86.5264 29.3874 86.5264 29.144C86.5264 28.9005 86.6145 28.6671 86.7714 28.4949C86.9283 28.3228 87.141 28.2261 87.3629 28.2261H151.092C151.314 28.2261 151.526 28.3228 151.683 28.4949C151.84 28.6671 151.928 28.9005 151.928 29.144C151.928 29.3874 151.84 29.6209 151.683 29.7931C151.526 29.9652 151.314 30.0619 151.092 30.0619Z" fill="#E6E7E8"/>
<path d="M151.092 51.7431H87.3629C87.141 51.7431 86.9283 51.6464 86.7714 51.4742C86.6145 51.3021 86.5264 51.0686 86.5264 50.8251C86.5264 50.5817 86.6145 50.3482 86.7714 50.1761C86.9283 50.0039 87.141 49.9072 87.3629 49.9072H151.092C151.314 49.9072 151.526 50.0039 151.683 50.1761C151.84 50.3482 151.928 50.5817 151.928 50.8251C151.928 51.0686 151.84 51.3021 151.683 51.4742C151.526 51.6464 151.314 51.7431 151.092 51.7431Z" fill="#E6E7E8"/>
<path d="M151.092 73.2045H87.3629C87.141 73.2045 86.9283 73.1078 86.7714 72.9356C86.6145 72.7635 86.5264 72.53 86.5264 72.2866C86.5264 72.0431 86.6145 71.8097 86.7714 71.6375C86.9283 71.4654 87.141 71.3687 87.3629 71.3687H151.092C151.314 71.3687 151.526 71.4654 151.683 71.6375C151.84 71.8097 151.928 72.0431 151.928 72.2866C151.928 72.53 151.84 72.7635 151.683 72.9356C151.526 73.1078 151.314 73.2045 151.092 73.2045Z" fill="#E6E7E8"/>
<path d="M130.897 35.1108H87.3629C87.1411 35.1108 86.9283 35.0261 86.7714 34.8755C86.6145 34.7249 86.5264 34.5206 86.5264 34.3076C86.5264 34.0946 86.6145 33.8903 86.7714 33.7396C86.9283 33.589 87.1411 33.5044 87.3629 33.5044H130.897C131.119 33.5044 131.332 33.589 131.489 33.7396C131.646 33.8903 131.734 34.0946 131.734 34.3076C131.734 34.5206 131.646 34.7249 131.489 34.8755C131.332 35.0261 131.119 35.1108 130.897 35.1108Z" fill="#E6E7E8"/>
<path d="M130.897 56.7914H87.3629C87.1411 56.7914 86.9283 56.7068 86.7714 56.5562C86.6145 56.4056 86.5264 56.2013 86.5264 55.9882C86.5264 55.7752 86.6145 55.5709 86.7714 55.4203C86.9283 55.2697 87.1411 55.1851 87.3629 55.1851H130.897C131.119 55.1851 131.332 55.2697 131.489 55.4203C131.646 55.5709 131.734 55.7752 131.734 55.9882C131.734 56.2013 131.646 56.4056 131.489 56.5562C131.332 56.7068 131.119 56.7914 130.897 56.7914Z" fill="#E6E7E8"/>
<path d="M130.897 78.2528H87.3629C87.1411 78.2528 86.9283 78.1682 86.7714 78.0176C86.6145 77.867 86.5264 77.6627 86.5264 77.4497C86.5264 77.2366 86.6145 77.0324 86.7714 76.8817C86.9283 76.7311 87.1411 76.6465 87.3629 76.6465H130.897C131.119 76.6465 131.332 76.7311 131.489 76.8817C131.646 77.0324 131.734 77.2366 131.734 77.4497C131.734 77.6627 131.646 77.867 131.489 78.0176C131.332 78.1682 131.119 78.2528 130.897 78.2528Z" fill="#E6E7E8"/>
<path d="M158.405 16.2929H58.4779C58.4303 16.2916 58.385 16.2669 58.3517 16.224C58.3184 16.1811 58.2998 16.1235 58.2998 16.0635C58.2998 16.0035 58.3184 15.9459 58.3517 15.903C58.385 15.8601 58.4303 15.8353 58.4779 15.834H158.405C158.452 15.8353 158.498 15.8601 158.531 15.903C158.564 15.9459 158.583 16.0035 158.583 16.0635C158.583 16.1235 158.564 16.1811 158.531 16.224C158.498 16.2669 158.452 16.2916 158.405 16.2929Z" fill="#E6E7E8"/>
<path d="M65.9877 9.63803C66.8115 9.63803 67.4793 8.97021 67.4793 8.14641C67.4793 7.32261 66.8115 6.65479 65.9877 6.65479C65.1639 6.65479 64.4961 7.32261 64.4961 8.14641C64.4961 8.97021 65.1639 9.63803 65.9877 9.63803Z" fill="#3F3D56"/>
<path d="M71.1503 9.63803C72.0375 9.63803 72.7567 8.97021 72.7567 8.14641C72.7567 7.32261 72.0375 6.65479 71.1503 6.65479C70.2631 6.65479 69.5439 7.32261 69.5439 8.14641C69.5439 8.97021 70.2631 9.63803 71.1503 9.63803Z" fill="#3F3D56"/>
<path d="M76.3139 9.63803C77.1377 9.63803 77.8055 8.97021 77.8055 8.14641C77.8055 7.32261 77.1377 6.65479 76.3139 6.65479C75.4901 6.65479 74.8223 7.32261 74.8223 8.14641C74.8223 8.97021 75.4901 9.63803 76.3139 9.63803Z" fill="#3F3D56"/>
<path d="M151.24 7.11374H145.044C144.921 7.11175 144.805 7.07461 144.719 7.01027C144.633 6.94594 144.585 6.85951 144.585 6.76951C144.585 6.67951 144.633 6.59309 144.719 6.52876C144.805 6.46442 144.921 6.42728 145.044 6.42529H151.24C151.363 6.42728 151.479 6.46442 151.565 6.52876C151.651 6.59309 151.699 6.67951 151.699 6.76951C151.699 6.85951 151.651 6.94594 151.565 7.01027C151.479 7.07461 151.363 7.11175 151.24 7.11374Z" fill="#ACAFC0"/>
<path d="M151.24 9.40866H145.044C144.921 9.40667 144.805 9.36953 144.719 9.30519C144.633 9.24086 144.585 9.15443 144.585 9.06443C144.585 8.97444 144.633 8.88802 144.719 8.82368C144.805 8.75934 144.921 8.7222 145.044 8.72021H151.24C151.363 8.7222 151.479 8.75934 151.565 8.82368C151.651 8.88802 151.699 8.97444 151.699 9.06443C151.699 9.15443 151.651 9.24086 151.565 9.30519C151.479 9.36953 151.363 9.40667 151.24 9.40866Z" fill="#ACAFC0"/>
<path d="M151.24 11.7036H145.044C144.921 11.7016 144.805 11.6645 144.719 11.6001C144.633 11.5358 144.585 11.4494 144.585 11.3594C144.585 11.2694 144.633 11.1829 144.719 11.1186C144.805 11.0543 144.921 11.0171 145.044 11.0151H151.24C151.363 11.0171 151.479 11.0543 151.565 11.1186C151.651 11.1829 151.699 11.2694 151.699 11.3594C151.699 11.4494 151.651 11.5358 151.565 11.6001C151.479 11.6645 151.363 11.7016 151.24 11.7036Z" fill="#ACAFC0"/>
<path fill-rule="evenodd" clip-rule="evenodd" d="M72.8377 22.0303C76.7608 22.0303 79.9411 25.2106 79.9411 29.1336C79.9411 33.0567 76.7608 36.237 72.8377 36.237C68.9147 36.237 65.7344 33.0567 65.7344 29.1336C65.7344 25.2106 68.9147 22.0303 72.8377 22.0303Z" fill="url(#paint0_linear_271_5625)"/>
<path d="M73.7603 36.1776V30.6909H75.3071L75.5121 28.7598H73.7603L73.7629 27.7932C73.7629 27.2895 73.8107 27.0198 74.5342 27.0198H75.5013V25.0884H73.9541C72.0957 25.0884 71.4417 26.0251 71.4417 27.6006V28.7599H70.2832V30.6912H71.4417V36.0998C71.893 36.1897 72.3596 36.2372 72.8373 36.2372C73.1459 36.2372 73.4542 36.2173 73.7603 36.1776Z" fill="white"/>
<path d="M65.5381 58.1019L66.574 54.3195C65.9349 53.2125 65.5988 51.9566 65.5992 50.6704C65.6009 46.6458 68.8763 43.3716 72.9008 43.3716C74.8541 43.3725 76.6873 44.1326 78.0657 45.5123C79.4444 46.8919 80.2031 48.7258 80.2024 50.6761C80.2007 54.7008 76.9251 57.9753 72.9011 57.9753C72.9008 57.9753 72.9013 57.9753 72.9011 57.9753H72.8978C71.6759 57.9749 70.4752 57.6682 69.4088 57.087L65.5381 58.1019Z" fill="url(#paint1_linear_271_5625)"/>
<path fill-rule="evenodd" clip-rule="evenodd" d="M71.0115 47.5072C70.8699 47.1925 70.7209 47.1862 70.5862 47.1807C70.476 47.176 70.3499 47.1763 70.224 47.1763C70.098 47.1763 69.8933 47.2236 69.7201 47.4127C69.5469 47.6018 69.0586 48.059 69.0586 48.9888C69.0586 49.9186 69.7359 50.8171 69.8303 50.9433C69.9248 51.0693 71.1377 53.0383 73.0585 53.7958C74.655 54.4254 74.9798 54.3002 75.3263 54.2687C75.6728 54.2372 76.4444 53.8116 76.6019 53.3703C76.7594 52.9291 76.7594 52.5509 76.7122 52.4718C76.6649 52.393 76.5389 52.3458 76.3499 52.2513C76.1609 52.1568 75.2318 51.6995 75.0586 51.6365C74.8853 51.5735 74.7593 51.542 74.6333 51.7312C74.5073 51.9202 74.1453 52.3458 74.0351 52.4718C73.9248 52.5981 73.8146 52.6138 73.6256 52.5193C73.4366 52.4246 72.8279 52.2252 72.1058 51.5814C71.544 51.0805 71.1647 50.4619 71.0545 50.2727C70.9442 50.0837 71.0427 49.9813 71.1375 49.8871C71.2223 49.8025 71.3265 49.6665 71.421 49.5562C71.5153 49.4458 71.5468 49.3671 71.6098 49.241C71.6728 49.1148 71.6413 49.0045 71.594 48.91C71.5468 48.8155 71.1795 47.8809 71.0115 47.5072Z" fill="white"/>
<path d="M75.5831 70.1528H79.4405C79.8049 70.1528 80.1004 70.4483 80.1004 70.8127V74.3262C80.1004 75.6656 79.0146 76.7514 77.6752 76.7514H77.6638C76.3244 76.7515 75.2385 75.6659 75.2383 74.3266V70.4977C75.2383 70.3072 75.3927 70.1528 75.5831 70.1528Z" fill="#5059C9"/>
<path d="M78.1907 69.4581C79.0539 69.4581 79.7535 68.7584 79.7535 67.8953C79.7535 67.0322 79.0539 66.3325 78.1907 66.3325C77.3276 66.3325 76.6279 67.0322 76.6279 67.8953C76.6279 68.7584 77.3276 69.4581 78.1907 69.4581Z" fill="#5059C9"/>
<path d="M73.3277 69.4581C74.5744 69.4581 75.5851 68.4475 75.5851 67.2008C75.5851 65.954 74.5744 64.9434 73.3277 64.9434C72.081 64.9434 71.0703 65.954 71.0703 67.2008C71.0703 68.4475 72.081 69.4581 73.3277 69.4581Z" fill="#7B83EB"/>
<path d="M76.3389 70.1528H69.9716C69.6116 70.1617 69.3267 70.4606 69.3351 70.8207V74.8281C69.2848 76.989 70.9944 78.7822 73.1553 78.8351C75.3161 78.7822 77.0257 76.989 76.9755 74.8281V70.8207C76.9838 70.4606 76.699 70.1617 76.3389 70.1528Z" fill="#7B83EB"/>
<path opacity="0.1" d="M73.5017 70.1528V75.7685C73.4999 76.026 73.3439 76.2574 73.1058 76.3554C73.0299 76.3875 72.9484 76.4041 72.8661 76.4041H69.6398C69.5946 76.2895 69.553 76.1749 69.5182 76.0568C69.3967 75.6583 69.3346 75.244 69.3342 74.8274V70.8196C69.3258 70.4601 69.6102 70.1617 69.9697 70.1528H73.5017Z" fill="black"/>
<path opacity="0.2" d="M73.1544 70.1528V76.1158C73.1544 76.1981 73.1378 76.2796 73.1057 76.3554C73.0077 76.5936 72.7763 76.7496 72.5188 76.7514H69.803C69.744 76.6368 69.6884 76.5221 69.6398 76.4041C69.5912 76.286 69.553 76.1749 69.5182 76.0568C69.3967 75.6583 69.3346 75.244 69.3342 74.8274V70.8196C69.3258 70.4601 69.6102 70.1617 69.9697 70.1528H73.1544Z" fill="black"/>
<path opacity="0.2" d="M73.1544 70.1528V75.4212C73.1517 75.7711 72.8687 76.0541 72.5188 76.0568H69.5182C69.3967 75.6583 69.3346 75.244 69.3342 74.8274V70.8196C69.3258 70.4601 69.6102 70.1617 69.9697 70.1528H73.1544Z" fill="black"/>
<path opacity="0.2" d="M72.8071 70.1528V75.4212C72.8044 75.7711 72.5214 76.0541 72.1715 76.0568H69.5182C69.3967 75.6583 69.3346 75.244 69.3342 74.8274V70.8196C69.3258 70.4601 69.6102 70.1617 69.9697 70.1528H72.8071Z" fill="black"/>
<path opacity="0.1" d="M73.5023 68.3572V69.4512C73.4433 69.4547 73.3877 69.4581 73.3287 69.4581C73.2696 69.4581 73.2141 69.4547 73.155 69.4512C73.0378 69.4434 72.9215 69.4248 72.8077 69.3956C72.1045 69.2291 71.5235 68.7359 71.2449 68.069C71.197 67.957 71.1598 67.8407 71.1338 67.7217H72.8668C73.2172 67.723 73.501 68.0068 73.5023 68.3572Z" fill="black"/>
<path opacity="0.2" d="M73.1542 68.7049V69.4515C73.037 69.4438 72.9208 69.4252 72.8069 69.396C72.1037 69.2294 71.5227 68.7362 71.2441 68.0693H72.5187C72.8691 68.0707 73.1529 68.3544 73.1542 68.7049Z" fill="black"/>
<path opacity="0.2" d="M73.1542 68.7049V69.4515C73.037 69.4438 72.9208 69.4252 72.8069 69.396C72.1037 69.2294 71.5227 68.7362 71.2441 68.0693H72.5187C72.8691 68.0707 73.1529 68.3544 73.1542 68.7049Z" fill="black"/>
<path opacity="0.2" d="M72.8069 68.7049V69.396C72.1037 69.2294 71.5227 68.7362 71.2441 68.0693H72.1714C72.5219 68.0707 72.8056 68.3544 72.8069 68.7049Z" fill="black"/>
<path d="M65.8036 68.0693H72.1708C72.5224 68.0693 72.8074 68.3543 72.8074 68.7059V75.0731C72.8074 75.4247 72.5224 75.7097 72.1708 75.7097H65.8036C65.452 75.7097 65.167 75.4247 65.167 75.0731V68.7059C65.167 68.3543 65.452 68.0693 65.8036 68.0693Z" fill="url(#paint2_linear_271_5625)"/>
<path d="M70.6632 70.4922H69.3903V73.9581H68.5794V70.4922H67.3125V69.8198H70.6632V70.4922Z" fill="white"/>
<defs>
<linearGradient id="paint0_linear_271_5625" x1="72.8377" y1="21.9008" x2="72.8377" y2="36.8427" gradientUnits="userSpaceOnUse">
<stop stop-color="#00B2FF"/>
<stop offset="1" stop-color="#006AFF"/>
</linearGradient>
<linearGradient id="paint1_linear_271_5625" x1="72.8702" y1="58.1019" x2="72.8702" y2="43.3716" gradientUnits="userSpaceOnUse">
<stop stop-color="#20B038"/>
<stop offset="1" stop-color="#60D66A"/>
</linearGradient>
<linearGradient id="paint2_linear_271_5625" x1="66.4943" y1="67.5719" x2="71.4801" y2="76.2071" gradientUnits="userSpaceOnUse">
<stop stop-color="#5A62C3"/>
<stop offset="0.5" stop-color="#4D55BD"/>
<stop offset="1" stop-color="#3940AB"/>
</linearGradient>
</defs>
</svg>
