<svg width="205" height="134" viewBox="0 0 205 134" fill="none" xmlns="http://www.w3.org/2000/svg">
<path d="M168.802 69.8566C168.771 85.8479 162.759 101.249 151.948 113.032C141.137 124.815 126.309 132.128 110.379 133.533C94.4498 134.938 78.571 130.333 65.8644 120.624C53.1579 110.915 44.5429 96.8039 41.7131 81.065C38.8834 65.326 42.0435 49.0978 50.5722 35.5706C59.1009 22.0435 72.3813 12.196 87.8026 7.9642C103.224 3.73235 119.67 5.42226 133.909 12.7017C148.147 19.9811 159.147 32.3235 164.747 47.3023C164.887 47.6784 165.023 48.0545 165.156 48.4343V48.4379C165.747 50.1072 166.267 51.8076 166.717 53.5391C168.106 58.867 168.807 64.3507 168.802 69.8566Z" fill="#F9F9FC"/>
<path d="M97.2657 26.3515C94.3679 24.7844 91.1506 23.8998 87.859 23.7652C84.5674 23.6305 81.2885 24.2493 78.2724 25.5744C75.6168 26.7301 72.8205 28.8033 71.9346 32.5472C75.5175 30.4327 80.1556 33.7737 81.0776 39.1332L80.8624 39.1926C80.3754 42.9049 81.4625 46.9466 83.5671 49.2484C83.7236 48.2098 84.1095 47.219 84.6967 46.3481C85.2839 45.4773 86.0577 44.7481 86.9619 44.2136C88.5082 43.1971 90.2189 42.4587 91.3992 40.7114C92.7984 38.64 93.1537 35.6127 93.7096 32.851C94.2654 30.0893 95.32 27.121 97.2657 26.3515Z" fill="#A5B2FF" fill-opacity="0.49"/>
<mask id="mask0_249_1677" style="mask-type:alpha" maskUnits="userSpaceOnUse" x="40" y="5" width="129" height="129">
<path d="M168.802 69.8566C168.771 85.8479 162.759 101.249 151.948 113.032C141.137 124.815 126.309 132.128 110.379 133.533C94.4498 134.938 78.571 130.333 65.8644 120.624C53.1579 110.915 44.5429 96.8039 41.7131 81.065C38.8834 65.326 42.0435 49.0978 50.5722 35.5706C59.1009 22.0435 72.3813 12.196 87.8026 7.9642C103.224 3.73235 119.67 5.42226 133.909 12.7017C148.147 19.9811 159.147 32.3235 164.747 47.3023C164.887 47.6784 165.023 48.0545 165.156 48.4343V48.4379C165.747 50.1072 166.267 51.8076 166.717 53.5391C168.106 58.867 168.807 64.3507 168.802 69.8566Z" fill="#F9F9FC"/>
</mask>
<g mask="url(#mask0_249_1677)">
<path d="M76.2101 57.9418C75.2178 59.432 73.8923 60.3671 72.703 61.5313C71.33 62.7802 70.4293 64.4641 70.1524 66.2994C70.0019 67.5961 70.2348 68.9144 70.2025 70.2256C70.1703 71.5367 69.7333 73.0126 68.8413 73.3386C67.4334 73.8472 66.3587 71.2322 64.9115 71.0495C63.7615 70.9062 62.7263 72.7153 63.0594 74.2843C63.3925 75.8534 64.9581 76.5483 65.8572 75.5238C66.6704 76.8886 66.0972 79.3641 64.8756 79.7832C64.7466 80.6429 64.6177 81.4991 64.4923 82.3589C61.4044 80.1987 58.2842 78.0028 55.6584 74.8395C52.738 71.3514 50.9266 67.07 50.4568 62.5451C50.1165 58.909 50.6216 54.75 48.9523 51.9522C47.616 49.7132 45.3234 49.2189 43.2599 49.3586C42.8838 49.3836 42.5041 49.4266 42.1279 49.4732C43.3448 45.8183 44.8903 42.2813 46.7455 38.9053C47.1653 38.7251 47.5554 38.4823 47.9025 38.1853C49.8227 36.5554 50.6753 33.256 52.2336 30.9741C52.3339 30.8272 52.4378 30.6839 52.5452 30.5442C54.1394 28.4629 56.2744 27.3918 58.3378 26.3959C62.9053 24.1784 67.6053 21.9323 72.4271 22.2404L71.0551 22.3729C69.4538 26.858 67.8513 31.3431 66.2476 35.8281C66.004 36.5159 65.758 37.2049 65.5096 37.8951C64.5997 40.4457 63.6611 43.1611 63.8009 46.0162C63.8833 47.707 64.4708 49.5126 65.5884 50.0929C66.6309 50.6303 67.7701 49.9711 68.7767 49.3191C69.203 49.0469 69.6257 48.7746 70.0519 48.4987C71.5816 47.5136 73.276 46.5034 74.8916 47.1625C76.3712 47.7643 77.4637 49.7741 77.6715 51.9414C77.8621 54.0481 77.3481 56.1586 76.2101 57.9418Z" fill="#A5B2FF" fill-opacity="0.49"/>
</g>
<path d="M86.3067 88.5621C81.8392 85.8114 77.3717 83.0608 72.9042 80.3101L72.98 80.1147C70.2023 81.1727 69.0491 86.1102 69.5082 90.148C69.9672 94.1858 71.5237 97.7954 72.3101 101.73C73.3704 107.114 72.9702 112.683 71.1511 117.861C77.0256 111.269 82.2244 104.105 86.6697 96.4764C87.2907 95.515 87.7639 94.4657 88.0735 93.3638C88.4014 92.1895 88.2845 90.9355 87.7453 89.8419C87.3796 89.3024 86.8851 88.8625 86.3067 88.5621Z" fill="#A5B2FF" fill-opacity="0.49"/>
<path d="M68.6747 38.5185C68.1501 39.6449 68.0693 40.9277 68.4483 42.111C68.8891 43.0644 69.6888 43.805 70.6731 44.1716L73.1416 45.3951C73.9628 45.8022 74.848 46.2133 75.6852 45.8784C76.6949 45.4745 77.395 43.8915 77.2139 42.4219C77.0211 40.858 76.0354 39.7823 75.1237 38.8663C73.8479 37.5844 72.5721 36.3024 71.2963 35.0205L70.5773 35.9012C69.7996 36.6597 69.1563 37.5447 68.6747 38.5185Z" fill="#A5B2FF" fill-opacity="0.49"/>
<path d="M155.568 55.2365C156.679 55.498 157.789 55.7595 158.9 56.021C158.706 59.7717 156.847 63.243 154.354 64.5004C153.315 65.0234 152.158 65.2168 151.298 66.1948C150.521 67.0832 150.127 68.466 149.765 69.7878C149.131 72.0949 148.497 74.4019 147.863 76.7089C147.182 79.195 146.308 81.957 144.538 82.8526C143.019 83.6227 141.282 82.6806 140.114 81.1008C138.946 79.521 138.234 77.3967 137.542 75.3262C137.585 77.583 136.536 79.7969 135.049 80.5814C133.559 81.3659 131.746 80.6566 130.75 78.9049C130.034 77.6475 129.736 75.9888 129.034 74.7136C128.332 73.4383 126.86 72.7075 126.093 73.904C125.588 74.6993 125.652 75.9172 125.402 76.9274C125.275 77.5981 124.943 78.2128 124.451 78.686C123.96 79.1592 123.333 79.4673 122.658 79.5676C122.037 79.5534 121.426 79.413 120.861 79.1549C120.296 78.8969 119.79 78.5266 119.373 78.0666C117.179 75.8226 115.751 72.9425 115.292 69.838C114.982 68.3496 115.021 66.8093 115.407 65.3387C115.848 63.9452 116.911 62.8705 117.968 63.1356C118.663 61.6667 117.291 59.718 116.055 59.89C114.816 60.0619 113.845 61.391 112.828 62.4119C111.814 63.4329 110.395 64.1744 109.374 63.1606C109.397 63.5314 109.272 63.8961 109.026 64.1745C108.78 64.4528 108.433 64.622 108.062 64.6448C108.026 64.6471 107.989 64.6479 107.952 64.6473C107.273 64.4524 106.643 64.1181 106.1 63.6657C103.761 62.2077 100.791 63.175 99.1289 65.9333C100.168 61.5127 101.69 56.4402 104.882 55.4012C106.186 54.975 107.608 55.326 108.841 54.588C111.022 53.2806 111.463 48.3405 109.579 46.3022C109.819 48.2295 109.772 50.4792 108.755 51.7975C107.737 53.1158 105.602 52.256 105.731 50.3072C105.702 50.5813 105.587 50.8392 105.403 51.044C105.218 51.2487 104.974 51.3898 104.704 51.4471C104.434 51.5044 104.154 51.4748 103.902 51.3627C103.65 51.2506 103.44 51.0617 103.302 50.8231C102.625 49.7914 102.683 48.1041 103.163 46.8718C103.658 45.7557 104.367 44.7478 105.251 43.9057C106.953 42.0823 108.679 40.2374 110.65 39.091C112.624 37.9447 114.902 37.5578 116.879 38.697C117.922 39.2988 118.839 40.3019 119.903 40.832C120.153 40.9872 120.431 41.0915 120.721 41.1392C121.012 41.1868 121.309 41.1768 121.595 41.1097C121.882 41.0427 122.152 40.9198 122.391 40.7482C122.63 40.5766 122.833 40.3596 122.988 40.1095L122.988 40.1095C123 40.0902 123.012 40.0707 123.023 40.0511C123.815 38.6611 123.442 36.5977 123.736 34.8603C124.263 31.7903 127.333 30.3538 129.034 32.3813C127.762 32.0554 126.448 33.5599 126.29 35.3833C126.129 37.2067 127.05 39.0481 128.282 39.5997C130.352 40.5168 132.38 38.2097 133.946 36.0747C135.579 33.8393 137.215 31.6052 138.853 29.3722C139.115 28.992 139.409 28.6349 139.731 28.3047C140.244 27.8045 140.928 27.5181 141.644 27.5035C142.361 27.4889 143.056 27.7471 143.589 28.2259C145.244 29.5764 146.021 32.3456 147.379 34.2513C149.349 37.0204 152.298 37.6939 155.042 38.2313C157.087 38.6289 159.134 39.0289 161.182 39.4313C162.547 41.971 163.738 44.6005 164.746 47.3017C160.991 49.0142 157.806 51.768 155.568 55.2365Z" fill="#A5B2FF" fill-opacity="0.49"/>
<path d="M162.182 98.3394C160.647 101.456 158.862 104.442 156.844 107.27C155.554 106.718 154.168 107.703 152.961 108.628C151.7 109.595 150.185 110.537 148.891 109.656C147.57 108.753 147.143 106.228 147.562 104.225C148.044 102.378 148.887 100.644 150.041 99.1238C151.116 97.519 152.266 95.8532 153.76 95.2299C155.257 94.6065 157.181 95.4878 157.618 97.6157L158.678 97.5798C158.084 96.7631 158.395 95.0722 159.194 94.7749C160.115 94.4274 160.914 95.6919 161.458 96.8097C161.702 97.3147 161.949 97.8235 162.182 98.3394Z" fill="#A5B2FF" fill-opacity="0.49"/>
<path d="M121.571 83.208C119.291 83.3513 117.486 80.5455 116.286 77.7852C115.087 75.025 113.992 71.8684 111.936 70.4634C110.761 69.6606 109.421 69.5504 108.146 69.1614C107.423 68.9788 106.754 68.6266 106.195 68.1339C105.635 67.6411 105.201 67.0221 104.928 66.3282L103.483 65.7441C101.46 66.7551 99.6081 68.0756 97.9933 69.6581C96.148 71.6183 94.9986 74.131 94.7224 76.8089C94.4462 79.7028 95.4661 82.9297 97.3717 84.0168C98.8774 84.8758 100.63 84.3344 102.156 85.1207C104.061 86.1032 105.193 88.9573 105.621 91.7753C106.049 94.5933 105.941 97.5219 106.247 100.372C106.553 103.222 107.398 106.187 109.145 107.648C111.332 109.476 114.541 107.957 115.522 104.63C116.004 102.998 115.987 101.157 116.347 99.4625C116.981 96.4792 118.691 94.2659 120.048 91.8188C121.405 89.3716 122.473 86.048 121.571 83.208Z" fill="#A5B2FF" fill-opacity="0.49"/>
<path d="M99.0488 53.8933C99.2614 54.0889 99.4597 54.2995 99.6423 54.5233C99.8314 54.8492 99.9279 55.2205 99.9214 55.5972C99.915 55.9739 99.8059 56.3417 99.6059 56.661C99.8804 56.6453 100.149 56.5729 100.394 56.4484C100.639 56.3238 100.856 56.1497 101.03 55.9371C101.446 55.4634 101.812 54.9479 102.122 54.3989C102.268 54.2109 102.372 53.994 102.428 53.7627C102.483 53.5313 102.489 53.2908 102.444 53.0571C102.336 52.7498 102.082 52.6188 101.903 52.3877C101.656 51.9359 101.487 51.4453 101.404 50.9369C101.305 50.4604 101.075 50.021 100.74 49.6679C100.405 49.3149 99.9782 49.0623 99.5075 48.9385L99.6217 48.9603C99.4273 49.0757 99.2738 49.249 99.1828 49.4559C99.0918 49.6629 99.0678 49.8932 99.1142 50.1144C99.1834 50.5614 99.4707 50.9326 99.4421 51.3885C99.401 52.0441 98.7458 52.3518 98.7053 53.0075C98.6989 53.3364 98.8223 53.6546 99.0488 53.8933Z" fill="#A5B2FF" fill-opacity="0.49"/>
<path d="M95.1445 42.7521L95.1547 42.7502C95.2248 42.6862 95.2898 42.617 95.3492 42.543L95.1445 42.7521Z" fill="#A5B2FF" fill-opacity="0.49"/>
<path d="M95.8278 45.8296C96.1016 45.5894 96.3041 45.2786 96.4132 44.9312C96.5223 44.5837 96.5338 44.2129 96.4465 43.8593C96.281 43.1138 95.695 42.6126 95.1545 42.7503C94.9976 42.9093 94.803 43.0258 94.5888 43.0888C94.3746 43.1519 94.1479 43.1595 93.9299 43.1108C93.5958 43.0248 93.2289 42.8032 92.939 43.055C92.7732 43.2431 92.6572 43.4696 92.6015 43.7141C92.4942 44.0434 92.387 44.3727 92.2796 44.7019C92.2287 44.8198 92.2154 44.9506 92.2416 45.0763C92.2622 45.1267 92.2953 45.1709 92.3379 45.2048C92.3805 45.2387 92.4311 45.261 92.4848 45.2697L94.4158 45.8389C94.6374 45.941 94.8788 45.9931 95.1228 45.9915C95.3668 45.9899 95.6075 45.9347 95.8278 45.8296Z" fill="#A5B2FF" fill-opacity="0.49"/>
<path d="M144.419 88.3153C144.121 87.8282 143.824 87.341 143.526 86.8539C143.234 86.2898 142.834 85.7881 142.35 85.3771C142.138 85.1996 141.864 85.1135 141.589 85.1378C141.314 85.1621 141.059 85.2948 140.882 85.5067L140.882 85.5067L140.866 85.5257L140.902 85.8039C141.699 86.658 142.242 87.7173 142.47 88.8628C142.538 89.3606 142.514 89.8758 142.574 90.3758C142.58 90.6077 142.632 90.836 142.727 91.0478C142.821 91.2595 142.957 91.4505 143.125 91.6099C143.594 91.9229 144.144 91.4614 144.477 90.8983C144.775 90.4358 144.909 89.8865 144.857 89.3387C144.782 88.9711 144.633 88.6228 144.419 88.3153Z" fill="#A5B2FF" fill-opacity="0.49"/>
<path d="M149.086 88.9494C149.143 88.4934 149.106 88.0305 148.977 87.5893C148.956 86.9924 149.114 86.4028 149.432 85.8968C149.747 85.4194 149.986 84.8958 150.139 84.3448C150.204 84.0937 150.193 83.829 150.106 83.5848C150.007 83.3635 149.769 83.2626 149.632 83.4378L149.925 83.6264C149.529 83.5558 149.123 83.5755 148.736 83.6839C148.516 83.7684 148.319 83.9047 148.162 84.0814C148.005 84.2582 147.893 84.47 147.836 84.6992C147.787 85.0564 147.708 85.4088 147.599 85.7525C147.425 86.1116 147.087 86.231 146.874 86.5461C146.729 86.8254 146.656 87.1364 146.661 87.4511C146.667 87.7657 146.75 88.0741 146.904 88.3485C147.171 88.7974 147.595 89.1309 148.094 89.2844C148.452 89.4128 148.923 89.4195 149.086 88.9494Z" fill="#A5B2FF" fill-opacity="0.49"/>
<path d="M157.398 91.4573C157.527 91.7937 157.7 92.1116 157.913 92.4026C158.311 92.8034 158.852 92.5571 159.334 92.4597C159.773 92.3905 160.221 92.4411 160.633 92.6062C161.044 92.7713 161.404 93.0447 161.672 93.3975C161.485 92.4638 161.077 91.5887 160.481 90.8456C159.886 90.1026 159.12 89.5133 158.25 89.1273C157.119 88.7358 155.927 88.5494 154.73 88.5769L154.525 88.6293C155.046 90.1455 156.682 90.1116 157.398 91.4573Z" fill="#A5B2FF" fill-opacity="0.49"/>
<path d="M122.194 94.5591L122.197 94.5657L122.257 94.4512L122.194 94.5591Z" fill="#A5B2FF" fill-opacity="0.49"/>
<path d="M120.933 96.9995C120.658 97.4987 120.422 98.0182 120.226 98.5534C119.966 99.4204 119.795 100.311 119.713 101.212C119.649 101.725 119.629 102.379 119.95 102.629C120.043 102.69 120.154 102.716 120.264 102.701C120.373 102.686 120.474 102.632 120.546 102.548C120.724 102.359 120.87 102.143 120.978 101.906C121.609 100.819 122.099 99.6567 122.436 98.446C122.788 97.1616 122.704 95.797 122.197 94.5654C121.776 95.3768 121.355 96.1882 120.933 96.9995Z" fill="#A5B2FF" fill-opacity="0.49"/>
<path d="M108.769 31.9743C108.969 32.1701 109.222 32.303 109.497 32.3566C109.772 32.4103 110.057 32.3823 110.316 32.2762C110.853 32.0416 111.345 31.7163 111.771 31.3147C112.125 31.0534 112.424 30.7266 112.654 30.352C112.78 30.1282 112.862 29.8817 112.893 29.6264C112.924 29.3712 112.904 29.1124 112.834 28.8648C112.736 28.6276 112.578 28.4194 112.377 28.2601C112.175 28.1007 111.937 27.9953 111.683 27.9539C110.969 27.742 110.254 27.5302 109.54 27.3184L110.057 26.8526C109.525 26.5672 108.937 27.0968 108.604 27.7525C108.391 28.1807 108.243 28.638 108.163 29.1097C108.05 29.6025 108.046 30.114 108.15 30.6087C108.255 31.1033 108.466 31.5693 108.769 31.9743Z" fill="#A5B2FF" fill-opacity="0.49"/>
<path d="M121.382 27.7403C121.584 27.9623 121.862 28.0994 122.161 28.1237C122.46 28.148 122.756 28.0577 122.991 27.8712C123.193 27.7195 123.361 27.527 123.483 27.3063C123.606 27.0855 123.68 26.8413 123.702 26.5897C123.753 26.0278 123.475 25.4032 123.078 25.3546L123.169 24.8285C122.405 24.6904 121.464 24.6628 121.054 25.5912C120.916 25.9468 120.874 26.3324 120.931 26.7096C120.989 27.0867 121.144 27.4421 121.382 27.7403Z" fill="#A5B2FF"/>
<path d="M9.56803 125.324C5.00561 125.324 2.03949 124.19 0.726688 121.936C-1.86217 117.492 2.47369 109.694 13.6136 98.759L14.5494 99.7122C4.20158 109.87 -0.297579 117.524 1.88078 121.264C3.25925 123.63 7.36159 124.478 13.7469 123.715C20.0857 122.958 28.4861 120.703 38.7147 117.011C59.7727 109.411 86.192 96.5922 113.106 80.9146C140.019 65.2375 164.203 48.5798 181.202 34.0107C184.467 31.2118 187.43 28.5192 190.009 26.0084C193.395 22.7927 196.518 19.3118 199.349 15.5988C203.162 10.4216 204.449 6.43444 203.071 4.06844C200.769 0.116759 191.098 0.488332 175.839 5.11622L175.452 3.83776C191.823 -1.12667 201.504 -1.2756 204.225 3.39618C205.916 6.29879 204.637 10.671 200.425 16.3912C197.55 20.163 194.379 23.699 190.941 26.9656C188.342 29.4962 185.358 32.2077 182.071 35.025C165.012 49.6452 140.759 66.3525 113.778 82.0688C86.7969 97.7859 60.2997 110.642 39.1683 118.268C28.8444 121.994 20.3446 124.273 13.9052 125.041C12.4663 125.221 11.0181 125.315 9.56803 125.324Z" fill="white"/>
</svg>
