<svg width="28" height="28" viewBox="0 0 28 28" fill="none" xmlns="http://www.w3.org/2000/svg">
<mask id="mask0_741_15356" style="mask-type:alpha" maskUnits="userSpaceOnUse" x="0" y="0" width="28" height="28">
<rect width="28" height="28" fill="#D9D9D9"/>
</mask>
<g mask="url(#mask0_741_15356)">
<path d="M10.2682 25.4334H17.2682C23.1016 25.4334 25.4349 23.1001 25.4349 17.2668V10.2668C25.4349 4.43343 23.1016 2.1001 17.2682 2.1001H10.2682C4.4349 2.1001 2.10156 4.43343 2.10156 10.2668V17.2668C2.10156 23.1001 4.4349 25.4334 10.2682 25.4334Z" stroke="#2B345F" stroke-width="0.5" stroke-linecap="round" stroke-linejoin="round"/>
<path d="M12.1191 9.67792C12.1191 9.6442 12.1258 9.6108 12.1387 9.57965C12.1517 9.54849 12.1707 9.52019 12.1947 9.49635C12.2186 9.47251 12.2471 9.45361 12.2784 9.44073C12.3097 9.42785 12.3432 9.42123 12.3771 9.42127H15.4881C15.5226 9.42019 15.557 9.42603 15.5892 9.43845C15.6215 9.45087 15.6509 9.46961 15.6757 9.49356C15.7005 9.51751 15.7202 9.54619 15.7337 9.57788C15.7472 9.60957 15.7541 9.64363 15.7541 9.67805C15.7541 9.71246 15.7472 9.74653 15.7337 9.77822C15.7202 9.80991 15.7005 9.83858 15.6757 9.86253C15.6509 9.88648 15.6215 9.90523 15.5892 9.91765C15.557 9.93006 15.5226 9.93591 15.4881 9.93483H12.3771C12.3432 9.93483 12.3096 9.92818 12.2783 9.91527C12.247 9.90236 12.2186 9.88344 12.1946 9.85958C12.1707 9.83573 12.1517 9.80741 12.1387 9.77624C12.1258 9.74507 12.1191 9.71166 12.1191 9.67792ZM17.2635 10.9047H12.3771C12.3425 10.9036 12.3081 10.9094 12.2759 10.9219C12.2437 10.9343 12.2143 10.953 12.1894 10.977C12.1646 11.0009 12.1449 11.0296 12.1314 11.0613C12.1179 11.093 12.111 11.127 12.111 11.1614C12.111 11.1959 12.1179 11.2299 12.1314 11.2616C12.1449 11.2933 12.1646 11.322 12.1894 11.3459C12.2143 11.3699 12.2437 11.3886 12.2759 11.401C12.3081 11.4135 12.3425 11.4193 12.3771 11.4182H17.2625C17.2971 11.4193 17.3315 11.4135 17.3637 11.401C17.3959 11.3886 17.4253 11.3699 17.4501 11.3459C17.475 11.322 17.4947 11.2933 17.5082 11.2616C17.5216 11.2299 17.5286 11.1959 17.5286 11.1614C17.5286 11.127 17.5216 11.093 17.5082 11.0613C17.4947 11.0296 17.475 11.0009 17.4501 10.977C17.4253 10.953 17.3959 10.9343 17.3637 10.9219C17.3315 10.9094 17.2971 10.9036 17.2625 10.9047H17.2635ZM12.3771 13.9386H15.4881C15.5226 13.9397 15.557 13.9338 15.5892 13.9214C15.6215 13.909 15.6509 13.8903 15.6757 13.8663C15.7005 13.8424 15.7202 13.8137 15.7337 13.782C15.7472 13.7503 15.7541 13.7162 15.7541 13.6818C15.7541 13.6474 15.7472 13.6133 15.7337 13.5816C15.7202 13.55 15.7005 13.5213 15.6757 13.4973C15.6509 13.4734 15.6215 13.4546 15.5892 13.4422C15.557 13.4298 15.5226 13.424 15.4881 13.425H12.3771C12.3425 13.424 12.3081 13.4298 12.2759 13.4422C12.2437 13.4546 12.2143 13.4734 12.1894 13.4973C12.1646 13.5213 12.1449 13.55 12.1314 13.5816C12.1179 13.6133 12.111 13.6474 12.111 13.6818C12.111 13.7162 12.1179 13.7503 12.1314 13.782C12.1449 13.8137 12.1646 13.8424 12.1894 13.8663C12.2143 13.8903 12.2437 13.909 12.2759 13.9214C12.3081 13.9338 12.3425 13.9397 12.3771 13.9386ZM17.2625 14.9084H12.3771C12.3425 14.9074 12.3081 14.9132 12.2759 14.9256C12.2437 14.938 12.2143 14.9568 12.1894 14.9807C12.1646 15.0047 12.1449 15.0334 12.1314 15.0651C12.1179 15.0967 12.111 15.1308 12.111 15.1652C12.111 15.1996 12.1179 15.2337 12.1314 15.2654C12.1449 15.2971 12.1646 15.3258 12.1894 15.3497C12.2143 15.3737 12.2437 15.3924 12.2759 15.4048C12.3081 15.4172 12.3425 15.4231 12.3771 15.422H17.2625C17.2971 15.4231 17.3315 15.4172 17.3637 15.4048C17.3959 15.3924 17.4253 15.3737 17.4501 15.3497C17.475 15.3258 17.4947 15.2971 17.5082 15.2654C17.5216 15.2337 17.5286 15.1996 17.5286 15.1652C17.5286 15.1308 17.5216 15.0967 17.5082 15.0651C17.4947 15.0334 17.475 15.0047 17.4501 14.9807C17.4253 14.9568 17.3959 14.938 17.3637 14.9256C17.3315 14.9132 17.2971 14.9074 17.2625 14.9084ZM12.3771 17.9421H15.4881C15.5226 17.9432 15.557 17.9374 15.5892 17.9249C15.6215 17.9125 15.6509 17.8938 15.6757 17.8698C15.7005 17.8459 15.7202 17.8172 15.7337 17.7855C15.7472 17.7538 15.7541 17.7198 15.7541 17.6853C15.7541 17.6509 15.7472 17.6169 15.7337 17.5852C15.7202 17.5535 15.7005 17.5248 15.6757 17.5009C15.6509 17.4769 15.6215 17.4582 15.5892 17.4457C15.557 17.4333 15.5226 17.4275 15.4881 17.4286H12.3771C12.3425 17.4275 12.3081 17.4333 12.2759 17.4457C12.2437 17.4582 12.2143 17.4769 12.1894 17.5009C12.1646 17.5248 12.1449 17.5535 12.1314 17.5852C12.1179 17.6169 12.111 17.6509 12.111 17.6853C12.111 17.7198 12.1179 17.7538 12.1314 17.7855C12.1449 17.8172 12.1646 17.8459 12.1894 17.8698C12.2143 17.8938 12.2437 17.9125 12.2759 17.9249C12.3081 17.9374 12.3425 17.9432 12.3771 17.9421ZM17.2625 18.912H12.3771C12.3425 18.9109 12.3081 18.9167 12.2759 18.9291C12.2437 18.9416 12.2143 18.9603 12.1894 18.9843C12.1646 19.0082 12.1449 19.0369 12.1314 19.0686C12.1179 19.1003 12.111 19.1343 12.111 19.1687C12.111 19.2032 12.1179 19.2372 12.1314 19.2689C12.1449 19.3006 12.1646 19.3293 12.1894 19.3532C12.2143 19.3772 12.2437 19.3959 12.2759 19.4083C12.3081 19.4208 12.3425 19.4266 12.3771 19.4255H17.2625C17.2971 19.4266 17.3315 19.4208 17.3637 19.4083C17.3959 19.3959 17.4253 19.3772 17.4501 19.3532C17.475 19.3293 17.4947 19.3006 17.5082 19.2689C17.5216 19.2372 17.5286 19.2032 17.5286 19.1687C17.5286 19.1343 17.5216 19.1003 17.5082 19.0686C17.4947 19.0369 17.475 19.0082 17.4501 18.9843C17.4253 18.9603 17.3959 18.9416 17.3637 18.9291C17.3315 18.9167 17.2971 18.9109 17.2625 18.912ZM10.8401 9.42985V11.4094C10.8401 11.535 10.79 11.6555 10.7009 11.7444C10.6117 11.8333 10.4908 11.8834 10.3646 11.8836H8.37656C8.25048 11.8834 8.12964 11.8334 8.04052 11.7446C7.95139 11.6558 7.90127 11.5354 7.90114 11.4099V9.42985C7.90127 9.3043 7.95139 9.18393 8.04052 9.09513C8.12964 9.00634 8.25048 8.95636 8.37656 8.95616H10.3646C10.4907 8.95636 10.6116 9.00634 10.7007 9.09513C10.7898 9.18393 10.8399 9.3043 10.8401 9.42985ZM10.3244 9.46972H8.41584V11.3693H10.3233L10.3244 9.46972ZM10.8401 13.4336V15.4132C10.8399 15.5387 10.7898 15.659 10.7007 15.7478C10.6115 15.8366 10.4907 15.8865 10.3646 15.8866H8.37656C8.25051 15.8865 8.12966 15.8366 8.04053 15.7478C7.9514 15.659 7.90127 15.5387 7.90114 15.4132V13.4336C7.90127 13.3081 7.95139 13.1877 8.04052 13.0989C8.12964 13.0101 8.25048 12.9601 8.37656 12.9599H10.3646C10.4907 12.9601 10.6116 13.0101 10.7007 13.0989C10.7898 13.1877 10.8399 13.3081 10.8401 13.4336ZM10.3244 13.4735H8.41584V15.373H10.3233L10.3244 13.4735ZM10.8401 17.4374V19.4169C10.8399 19.5425 10.7898 19.6629 10.7007 19.7517C10.6116 19.8405 10.4907 19.8904 10.3646 19.8906H8.37656C8.25048 19.8904 8.12964 19.8405 8.04052 19.7517C7.95139 19.6629 7.90127 19.5425 7.90114 19.4169V17.4374C7.90127 17.3118 7.95139 17.1915 8.04052 17.1027C8.12964 17.0139 8.25048 16.9639 8.37656 16.9637H10.3646C10.4907 16.9639 10.6116 17.0139 10.7007 17.1027C10.7898 17.1915 10.8399 17.3118 10.8401 17.4374ZM10.3244 17.4773H8.41584V19.3768H10.3233L10.3244 17.4773ZM9.0684 10.9635C9.11873 11.0071 9.1841 11.0296 9.25074 11.0262C9.31738 11.0228 9.38011 10.9938 9.42572 10.9453L10.0846 10.2455C10.1087 10.2211 10.1277 10.1921 10.1404 10.1603C10.1531 10.1284 10.1593 10.0944 10.1586 10.0601C10.1579 10.0259 10.1504 9.9921 10.1364 9.96081C10.1224 9.92951 10.1022 9.90132 10.0771 9.87789C10.052 9.85446 10.0225 9.83627 9.99022 9.82438C9.95795 9.81249 9.92363 9.80715 9.88926 9.80867C9.85489 9.81019 9.82118 9.81854 9.7901 9.83323C9.75902 9.84792 9.7312 9.86865 9.70828 9.8942L9.21918 10.4136L9.01442 10.2369C8.98884 10.2148 8.95915 10.198 8.92703 10.1873C8.89491 10.1766 8.861 10.1724 8.82723 10.1748C8.79346 10.1772 8.7605 10.1862 8.73022 10.2012C8.69994 10.2163 8.67294 10.2372 8.65076 10.2627C8.62858 10.2881 8.61165 10.3177 8.60095 10.3497C8.59024 10.3817 8.58597 10.4154 8.58837 10.4491C8.59077 10.4827 8.59979 10.5155 8.61493 10.5457C8.63007 10.5758 8.65103 10.6027 8.67661 10.6248L9.0684 10.9635ZM9.0684 14.9672C9.11873 15.0109 9.1841 15.0333 9.25074 15.03C9.31738 15.0266 9.38011 14.9976 9.42572 14.9491L10.0846 14.2493C10.1087 14.2248 10.1277 14.1959 10.1404 14.164C10.1531 14.1322 10.1593 14.0981 10.1586 14.0639C10.1579 14.0296 10.1504 13.9959 10.1364 13.9646C10.1224 13.9333 10.1022 13.9051 10.0771 13.8817C10.052 13.8582 10.0225 13.84 9.99022 13.8282C9.95795 13.8163 9.92363 13.8109 9.88926 13.8124C9.85489 13.814 9.82118 13.8223 9.7901 13.837C9.75902 13.8517 9.7312 13.8724 9.70828 13.898L9.21918 14.4173L9.01467 14.2407C8.9893 14.2173 8.95949 14.1993 8.92699 14.1877C8.8945 14.176 8.85999 14.171 8.8255 14.1729C8.79102 14.1748 8.75727 14.1835 8.72625 14.1986C8.69523 14.2138 8.66757 14.2349 8.64492 14.2609C8.62227 14.2868 8.60507 14.3171 8.59437 14.3498C8.58366 14.3825 8.57965 14.417 8.58258 14.4512C8.58552 14.4855 8.59533 14.5188 8.61143 14.5492C8.62754 14.5797 8.64962 14.6065 8.67635 14.6283L9.0684 14.9672ZM9.0684 18.9708C9.11879 19.0143 9.18416 19.0367 9.25079 19.0333C9.31741 19.0298 9.38011 19.0008 9.42572 18.9523L10.0846 18.2525C10.1286 18.2024 10.1512 18.1372 10.1479 18.0707C10.1445 18.0042 10.1154 17.9416 10.0666 17.8961C10.0178 17.8506 9.95318 17.8258 9.88635 17.8268C9.81951 17.8278 9.75568 17.8546 9.70828 17.9015L9.21918 18.4198L9.01442 18.2432C8.98884 18.2211 8.95915 18.2042 8.92703 18.1936C8.89491 18.1829 8.861 18.1787 8.82723 18.1811C8.79346 18.1835 8.7605 18.1924 8.73022 18.2075C8.69994 18.2226 8.67294 18.2435 8.65076 18.2689C8.62858 18.2944 8.61165 18.324 8.60095 18.356C8.59024 18.3879 8.58597 18.4217 8.58837 18.4553C8.59077 18.489 8.59979 18.5218 8.61493 18.5519C8.63007 18.5821 8.65103 18.609 8.67661 18.6311L9.0684 18.9708ZM23.0927 6.87541L21.5015 13.0995L21.5413 13.1096C21.5741 13.1179 21.605 13.1326 21.6321 13.1527C21.6592 13.1729 21.6821 13.1982 21.6994 13.2272C21.7167 13.2562 21.7281 13.2883 21.7329 13.3217C21.7377 13.3551 21.7359 13.3891 21.7276 13.4218L20.9052 16.6397C20.8882 16.7056 20.8456 16.7621 20.7869 16.7968C20.7282 16.8316 20.658 16.8418 20.5917 16.8252L20.3834 16.7724L20.1254 17.7819C20.1143 17.823 20.1002 17.8633 20.0834 17.9025V21.0475C20.083 21.4061 19.9397 21.7499 19.6851 22.0035C19.4304 22.2571 19.0851 22.3997 18.725 22.4001H7.65887C7.29876 22.3997 6.95352 22.2571 6.69891 22.0035C6.4443 21.7499 6.30112 21.4061 6.30078 21.0475V7.28802C6.30118 6.92946 6.4444 6.5857 6.699 6.33216C6.9536 6.07862 7.2988 5.936 7.65887 5.9356H10.5651V5.60324C10.5653 5.41683 10.6398 5.23811 10.7721 5.1063C10.9045 4.97449 11.0839 4.90035 11.2711 4.90015H15.1738C15.361 4.90035 15.5405 4.97448 15.6729 5.10628C15.8053 5.23809 15.8798 5.4168 15.8801 5.60324V5.9356H18.725C19.0851 5.936 19.4303 6.07861 19.685 6.33214C19.9396 6.58568 20.0829 6.92944 20.0834 7.28802V9.64259L20.9305 6.32727C20.9389 6.29458 20.9537 6.26384 20.974 6.23683C20.9943 6.20981 21.0197 6.18704 21.0488 6.16982C21.078 6.15259 21.1102 6.14125 21.1438 6.13644C21.1773 6.13163 21.2114 6.13345 21.2443 6.14178L22.9065 6.56323C22.9393 6.57151 22.9702 6.58615 22.9973 6.60633C23.0245 6.62651 23.0474 6.65183 23.0647 6.68083C23.082 6.70983 23.0933 6.74194 23.0982 6.77533C23.103 6.80872 23.1011 6.84273 23.0927 6.87541ZM11.0806 5.9356V6.78077C11.0806 6.83102 11.1007 6.87918 11.1364 6.91471C11.1721 6.95024 11.2204 6.97023 11.2709 6.9703H15.1736C15.224 6.97023 15.2724 6.95025 15.3082 6.91473C15.3439 6.87921 15.364 6.83104 15.3641 6.78077V5.60324C15.364 5.55297 15.3439 5.5048 15.3082 5.46928C15.2724 5.43376 15.224 5.41378 15.1736 5.41371H11.2709C11.2204 5.41378 11.1721 5.43377 11.1364 5.46929C11.1007 5.50482 11.0806 5.55299 11.0806 5.60324V5.9356ZM19.5676 21.0475V18.4158C19.4635 18.4588 19.3524 18.4826 19.2397 18.4862L19.0674 19.1598C19.0533 19.2151 19.0211 19.2641 18.9759 19.2991C18.9307 19.3342 18.875 19.3533 18.8178 19.3533C18.7961 19.3533 18.7746 19.3505 18.7537 19.3453C18.6874 19.3284 18.6305 19.286 18.5956 19.2274C18.5607 19.1688 18.5506 19.0989 18.5674 19.0328L18.7405 18.357C18.5627 18.2562 18.4232 18.1 18.3434 17.9124C18.2637 17.7248 18.2482 17.5163 18.2993 17.319L18.557 16.3096L18.35 16.2571C18.3171 16.2488 18.2862 16.2342 18.2591 16.214C18.2319 16.1938 18.2091 16.1685 18.1918 16.1395C18.1745 16.1105 18.1631 16.0784 18.1583 16.045C18.1534 16.0116 18.1553 15.9776 18.1637 15.9449L18.9863 12.727C18.9946 12.6943 19.0093 12.6635 19.0295 12.6365C19.0498 12.6095 19.0752 12.5867 19.1044 12.5695C19.1632 12.5348 19.2335 12.5247 19.2998 12.5413L19.3398 12.5516L19.5679 11.6602V7.28802C19.5676 7.06558 19.4788 6.85233 19.3208 6.69507C19.1628 6.5378 18.9486 6.44936 18.7253 6.44916H15.8799V6.78077C15.8799 6.9672 15.8055 7.14599 15.6732 7.27784C15.5408 7.40969 15.3613 7.48379 15.1741 7.48386H11.2714C11.0842 7.48366 10.9047 7.40952 10.7724 7.27771C10.64 7.1459 10.5656 6.96718 10.5654 6.78077V6.44916H7.65887C7.43554 6.44943 7.22143 6.5379 7.06352 6.69516C6.9056 6.85241 6.81676 7.06563 6.81649 7.28802V21.0475C6.81669 21.2699 6.9055 21.4832 7.06343 21.6405C7.22135 21.7978 7.43549 21.8863 7.65887 21.8866H18.725C18.9484 21.8863 19.1626 21.7978 19.3205 21.6405C19.4785 21.4832 19.5674 21.2699 19.5676 21.0475ZM19.8834 16.6457L19.7881 16.6205L19.058 16.4358L18.8 17.4452C18.7726 17.5542 18.7895 17.6696 18.8471 17.7662C18.9048 17.8628 18.9984 17.9327 19.1077 17.9608C19.2171 17.9884 19.333 17.9716 19.4301 17.9143C19.5271 17.8569 19.5974 17.7635 19.6254 17.6547L19.8834 16.6457ZM21.1629 13.5442L21.1239 13.5341L19.8641 13.2146L19.4219 13.1025L18.7273 15.8225L20.0679 16.1624L20.2605 16.2111L20.4691 16.2639L21.1629 13.5442ZM22.5284 6.9978L21.3659 6.70304L19.8396 12.678L20.2562 12.7838L21.0015 12.9728L22.5284 6.9978Z" fill="#2B345F"/>
</g>
</svg>
