<svg width="40" height="40" viewBox="0 0 40 40" fill="none" xmlns="http://www.w3.org/2000/svg">
<mask id="mask0_198_1800" style="mask-type:alpha" maskUnits="userSpaceOnUse" x="0" y="0" width="40" height="40">
<rect width="40" height="40" fill="#D9D9D9"/>
</mask>
<g mask="url(#mask0_198_1800)">
<path d="M14.6667 36.3333H24.6667C33 36.3333 36.3333 33 36.3333 24.6667V14.6667C36.3333 6.33333 33 3 24.6667 3H14.6667C6.33333 3 3 6.33333 3 14.6667V24.6667C3 33 6.33333 36.3333 14.6667 36.3333Z" stroke="#4785FF" stroke-width="1.8" stroke-linecap="round" stroke-linejoin="round"/>
<path d="M16.6081 20.0005C16.6081 19.149 16.3557 18.3166 15.8828 17.6085C15.4099 16.9004 14.7378 16.3486 13.9513 16.0227C13.1648 15.6967 12.2994 15.6114 11.4645 15.7775C10.6296 15.9436 9.86267 16.3537 9.26072 16.9558C8.65876 17.5579 8.24882 18.325 8.08272 19.1602C7.91663 19.9954 8.00185 20.8611 8.3276 21.6478C8.65336 22.4345 9.20501 23.107 9.91281 23.5801C10.6206 24.0532 11.4528 24.3057 12.304 24.3057C13.4451 24.3044 14.5391 23.8504 15.3459 23.0434C16.1528 22.2363 16.6067 21.142 16.6081 20.0005ZM12.304 23.7318C11.5663 23.7318 10.8451 23.5129 10.2317 23.1029C9.61835 22.6929 9.14026 22.1102 8.85795 21.4284C8.57563 20.7466 8.50176 19.9964 8.64569 19.2726C8.78961 18.5488 9.14486 17.884 9.66651 17.3622C10.1882 16.8403 10.8528 16.485 11.5763 16.341C12.2999 16.197 13.0499 16.2709 13.7315 16.5533C14.413 16.8357 14.9956 17.314 15.4054 17.9276C15.8153 18.5412 16.0341 19.2626 16.0341 20.0005C16.0329 20.9898 15.6396 21.9382 14.9403 22.6377C14.241 23.3372 13.293 23.7306 12.304 23.7318ZM13.5785 20.9878C13.5782 21.2758 13.4805 21.5553 13.3013 21.7808C13.1222 22.0063 12.872 22.1645 12.5916 22.2298V22.7861C12.5927 22.8246 12.5862 22.8628 12.5723 22.8987C12.5584 22.9345 12.5375 22.9672 12.5107 22.9948C12.484 23.0224 12.4519 23.0443 12.4166 23.0593C12.3812 23.0743 12.3431 23.082 12.3047 23.082C12.2663 23.082 12.2282 23.0743 12.1929 23.0593C12.1575 23.0443 12.1254 23.0224 12.0987 22.9948C12.0719 22.9672 12.051 22.9345 12.0371 22.8987C12.0232 22.8628 12.0167 22.8246 12.0178 22.7861V22.2312C11.7365 22.1665 11.4855 22.0078 11.3064 21.7813C11.282 21.7519 11.2636 21.7179 11.2525 21.6813C11.2414 21.6448 11.2376 21.6063 11.2415 21.5683C11.2454 21.5302 11.2569 21.4933 11.2753 21.4598C11.2936 21.4262 11.3185 21.3967 11.3484 21.3729C11.3783 21.3491 11.4127 21.3315 11.4495 21.3212C11.4863 21.3109 11.5248 21.308 11.5628 21.3128C11.6007 21.3175 11.6373 21.3298 11.6704 21.3489C11.7035 21.368 11.7325 21.3936 11.7556 21.424C11.8293 21.517 11.9255 21.5898 12.035 21.6355C12.1445 21.6812 12.2638 21.6983 12.3817 21.6853C12.4996 21.6722 12.6123 21.6294 12.7092 21.5609C12.8061 21.4924 12.884 21.4004 12.9356 21.2935C12.9873 21.1867 13.0109 21.0684 13.0044 20.9499C12.9978 20.8314 12.9613 20.7165 12.8982 20.616C12.8352 20.5154 12.7476 20.4326 12.6438 20.3752C12.5399 20.3177 12.4232 20.2876 12.3046 20.2876C11.9916 20.2875 11.6897 20.1722 11.4563 19.9637C11.2229 19.7552 11.0743 19.4681 11.0389 19.1571C11.0034 18.8461 11.0836 18.5329 11.2642 18.2773C11.4447 18.0216 11.713 17.8413 12.0178 17.7707V17.2149C12.0167 17.1765 12.0232 17.1382 12.0371 17.1024C12.051 17.0666 12.0719 17.0339 12.0987 17.0063C12.1254 16.9787 12.1575 16.9568 12.1929 16.9418C12.2282 16.9268 12.2663 16.9191 12.3047 16.9191C12.3431 16.9191 12.3812 16.9268 12.4166 16.9418C12.4519 16.9568 12.484 16.9787 12.5107 17.0063C12.5375 17.0339 12.5584 17.0666 12.5723 17.1024C12.5862 17.1382 12.5927 17.1765 12.5916 17.2149V17.7702C12.873 17.8347 13.1239 17.9934 13.303 18.22C13.3486 18.2798 13.369 18.3551 13.3597 18.4297C13.3504 18.5044 13.3122 18.5724 13.2534 18.6192C13.1945 18.6659 13.1196 18.6877 13.0448 18.6798C12.9701 18.672 12.9014 18.6351 12.8535 18.577C12.7798 18.484 12.6837 18.4113 12.5742 18.3656C12.4647 18.3199 12.3454 18.3028 12.2274 18.3158C12.1095 18.3288 11.9968 18.3716 11.8999 18.4401C11.803 18.5087 11.7251 18.6007 11.6735 18.7075C11.6219 18.8144 11.5982 18.9326 11.6048 19.0511C11.6113 19.1696 11.6478 19.2846 11.7109 19.3851C11.774 19.4856 11.8615 19.5685 11.9654 19.6259C12.0692 19.6833 12.1859 19.7135 12.3046 19.7134C12.6423 19.714 12.966 19.8484 13.2047 20.0873C13.4435 20.3262 13.5779 20.65 13.5785 20.9878ZM19.9969 23.3892C19.1457 23.3892 18.3136 23.6416 17.6059 24.1147C16.8981 24.5877 16.3465 25.26 16.0207 26.0467C15.6949 26.8333 15.6095 27.6989 15.7755 28.534C15.9415 29.3692 16.3513 30.1363 16.9531 30.7385C17.5548 31.3407 18.3216 31.7508 19.1564 31.9171C19.9913 32.0834 20.8566 31.9983 21.6431 31.6727C22.4296 31.347 23.1019 30.7954 23.575 30.0875C24.0481 29.3797 24.3007 28.5474 24.301 27.6959C24.2997 26.5544 23.8458 25.4601 23.0389 24.6529C22.2321 23.8458 21.138 23.3918 19.9969 23.3905V23.3892ZM23.3196 27.983H23.7149C23.6545 28.7722 23.3436 29.5215 22.8275 30.1216L22.5491 29.8433C22.5227 29.8153 22.491 29.7929 22.4559 29.7774C22.4207 29.7619 22.3828 29.7536 22.3444 29.753C22.306 29.7524 22.2678 29.7596 22.2322 29.774C22.1966 29.7884 22.1643 29.8099 22.1371 29.8371C22.11 29.8642 22.0885 29.8966 22.0741 29.9322C22.0597 29.9678 22.0525 30.006 22.0531 30.0444C22.0537 30.0828 22.062 30.1208 22.0775 30.1559C22.093 30.1911 22.1154 30.2228 22.1433 30.2491L22.4216 30.5277C21.8216 31.0437 21.0726 31.3545 20.2837 31.4149V31.0202C20.2837 30.9441 20.2534 30.8711 20.1996 30.8172C20.1458 30.7634 20.0728 30.7331 19.9967 30.7331C19.9205 30.7331 19.8475 30.7634 19.7937 30.8172C19.7399 30.8711 19.7097 30.9441 19.7097 31.0202V31.4154C18.921 31.3547 18.1724 31.0436 17.5728 30.5274L17.8503 30.2491C17.8782 30.2228 17.9006 30.1911 17.9161 30.1559C17.9316 30.1208 17.9399 30.0828 17.9405 30.0444C17.9411 30.006 17.9339 29.9678 17.9195 29.9322C17.9051 29.8966 17.8836 29.8642 17.8565 29.8371C17.8293 29.8099 17.797 29.7884 17.7614 29.774C17.7257 29.7596 17.6876 29.7524 17.6492 29.753C17.6108 29.7536 17.5729 29.7619 17.5377 29.7774C17.5026 29.7929 17.4709 29.8153 17.4445 29.8433L17.1663 30.1216C16.6503 29.5215 16.3395 28.7722 16.2792 27.983H16.6742C16.7503 27.983 16.8233 27.9528 16.8772 27.8989C16.931 27.8451 16.9612 27.7721 16.9612 27.6959C16.9612 27.6198 16.931 27.5467 16.8772 27.4929C16.8233 27.4391 16.7503 27.4088 16.6742 27.4088H16.2792C16.3395 26.6196 16.6503 25.8703 17.1663 25.2702L17.4445 25.5485C17.4989 25.5997 17.571 25.6277 17.6456 25.6266C17.7202 25.6254 17.7915 25.5953 17.8442 25.5425C17.897 25.4897 17.9271 25.4185 17.9282 25.3438C17.9294 25.2692 17.9014 25.1971 17.8503 25.1427L17.5728 24.8644C18.1724 24.3482 18.9212 24.037 19.7099 23.9762V24.3716C19.7099 24.4477 19.7402 24.5208 19.794 24.5746C19.8478 24.6284 19.9208 24.6587 19.9969 24.6587C20.0731 24.6587 20.1461 24.6284 20.1999 24.5746C20.2537 24.5208 20.2839 24.4477 20.2839 24.3716V23.9762C21.0729 24.0368 21.822 24.3477 22.4221 24.8636L22.1436 25.1422C22.0925 25.1965 22.0645 25.2687 22.0656 25.3433C22.0667 25.4179 22.0969 25.4892 22.1496 25.542C22.2024 25.5947 22.2737 25.6249 22.3483 25.626C22.4229 25.6272 22.495 25.5992 22.5493 25.548L22.8275 25.2702C23.3436 25.8703 23.6544 26.6196 23.7147 27.4088H23.3196C23.2435 27.4088 23.1705 27.4391 23.1167 27.4929C23.0629 27.5467 23.0326 27.6198 23.0326 27.6959C23.0326 27.7721 23.0629 27.8451 23.1167 27.8989C23.1705 27.9528 23.2435 27.983 23.3196 27.983ZM20.676 27.9694C20.7114 27.8826 20.7295 27.7897 20.7294 27.6959C20.7292 27.5522 20.6869 27.4118 20.6076 27.2919C20.5284 27.1721 20.4158 27.0781 20.2837 27.0217V25.1769C20.2837 25.1007 20.2534 25.0277 20.1996 24.9738C20.1458 24.92 20.0728 24.8898 19.9967 24.8898C19.9205 24.8898 19.8475 24.92 19.7937 24.9738C19.7399 25.0277 19.7097 25.1007 19.7097 25.1769V27.0217C19.5347 27.099 19.3969 27.2417 19.3258 27.4193C19.2546 27.5969 19.2558 27.7953 19.3289 27.9721C19.4021 28.1489 19.5415 28.29 19.7173 28.3654C19.8931 28.4407 20.0914 28.4442 20.2698 28.3752L21.2034 29.3091C21.2299 29.3365 21.2615 29.3583 21.2965 29.3733C21.3315 29.3883 21.3691 29.3962 21.4072 29.3965C21.4453 29.3968 21.483 29.3896 21.5183 29.3752C21.5535 29.3607 21.5855 29.3394 21.6125 29.3125C21.6394 29.2856 21.6607 29.2536 21.6752 29.2183C21.6896 29.1831 21.6969 29.1453 21.6966 29.1072C21.6963 29.0691 21.6884 29.0315 21.6735 28.9965C21.6585 28.9615 21.6367 28.9298 21.6093 28.9033L20.676 27.9694ZM19.8382 27.6959C19.8385 27.6646 19.848 27.634 19.8656 27.6081C19.8832 27.5821 19.9081 27.562 19.9371 27.5502C19.9661 27.5384 19.998 27.5354 20.0287 27.5417C20.0594 27.548 20.0876 27.5632 20.1096 27.5855C20.1317 27.6077 20.1467 27.636 20.1527 27.6668C20.1587 27.6975 20.1555 27.7294 20.1434 27.7583C20.1314 27.7872 20.111 27.812 20.085 27.8293C20.0589 27.8467 20.0283 27.856 19.9969 27.856C19.9547 27.8557 19.9144 27.8386 19.8846 27.8086C19.8549 27.7787 19.8382 27.7381 19.8382 27.6959ZM27.6898 15.689C26.8374 15.689 26.004 15.9418 25.2952 16.4156C24.5864 16.8894 24.034 17.5627 23.7078 18.3506C23.3815 19.1384 23.2962 20.0053 23.4625 20.8417C23.6288 21.678 24.0393 22.4463 24.6421 23.0493C25.2449 23.6522 26.0129 24.0629 26.849 24.2292C27.6851 24.3956 28.5517 24.3102 29.3393 23.9839C30.1268 23.6576 30.8 23.1049 31.2736 22.3959C31.7472 21.6869 32 20.8533 32 20.0005C31.9987 18.8574 31.5442 17.7615 30.7362 16.9532C29.9281 16.1449 28.8326 15.6902 27.6898 15.689ZM25.3282 22.8931C25.4238 22.3359 25.7132 21.8304 26.1454 21.4661C26.5775 21.1017 27.1245 20.9018 27.6897 20.9018C28.2549 20.9018 28.8019 21.1017 29.234 21.4661C29.6662 21.8304 29.9556 22.3359 30.0512 22.8931C29.3851 23.4388 28.5507 23.737 27.6897 23.737C26.8287 23.737 25.9943 23.4388 25.3282 22.8931ZM26.8771 19.5144C26.8771 19.3536 26.9248 19.1964 27.0141 19.0627C27.1034 18.929 27.2303 18.8248 27.3788 18.7633C27.5273 18.7017 27.6907 18.6856 27.8484 18.717C28.006 18.7484 28.1509 18.8258 28.2645 18.9395C28.3782 19.0532 28.4556 19.1981 28.487 19.3558C28.5183 19.5135 28.5022 19.677 28.4407 19.8255C28.3792 19.9741 28.275 20.101 28.1414 20.1904C28.0077 20.2797 27.8506 20.3274 27.6898 20.3274C27.4745 20.3272 27.2681 20.2416 27.1157 20.0894C26.9634 19.9372 26.8776 19.7308 26.8771 19.5155V19.5144ZM30.5292 22.4259C30.3925 21.9808 30.153 21.5741 29.8302 21.2387C29.5073 20.9033 29.1101 20.6485 28.6706 20.495C28.8646 20.3009 28.9968 20.0537 29.0503 19.7846C29.1039 19.5154 29.0764 19.2364 28.9714 18.9829C28.8665 18.7293 28.6887 18.5126 28.4606 18.3601C28.2325 18.2077 27.9643 18.1263 27.69 18.1263C27.4156 18.1263 27.1474 18.2077 26.9193 18.3601C26.6912 18.5126 26.5135 18.7293 26.4085 18.9829C26.3035 19.2364 26.2761 19.5154 26.3296 19.7846C26.3832 20.0537 26.5153 20.3009 26.7093 20.495C26.27 20.6487 25.8729 20.9036 25.5501 21.239C25.2273 21.5744 24.9877 21.981 24.8507 22.4259C24.3864 21.883 24.0874 21.2183 23.9891 20.5106C23.8908 19.8029 23.9974 19.0818 24.2961 18.4328C24.5949 17.7838 25.0734 17.2341 25.6749 16.8488C26.2764 16.4634 26.9757 16.2586 27.69 16.2586C28.4042 16.2586 29.1035 16.4634 29.705 16.8488C30.3065 17.2341 30.785 17.7838 31.0838 18.4328C31.3826 19.0818 31.4891 19.8029 31.3908 20.5106C31.2926 21.2183 30.9935 21.883 30.5292 22.4259ZM24.6611 12.5344C24.6821 12.5031 24.7091 12.4762 24.7404 12.4554C24.7718 12.4345 24.807 12.4201 24.844 12.4128C24.881 12.4056 24.9191 12.4057 24.956 12.4132C24.9929 12.4207 25.028 12.4354 25.0593 12.4564C26.0395 13.1144 26.8821 13.9573 27.5399 14.9379C27.5609 14.9691 27.5756 15.0043 27.583 15.0412C27.5905 15.0781 27.5906 15.1162 27.5834 15.1532C27.5761 15.1901 27.5617 15.2253 27.5408 15.2567C27.52 15.2881 27.4932 15.3151 27.4619 15.3361C27.4306 15.3571 27.3955 15.3718 27.3586 15.3792C27.3217 15.3867 27.2837 15.3868 27.2467 15.3796C27.2097 15.3723 27.1746 15.3579 27.1432 15.337C27.1118 15.3162 27.0848 15.2893 27.0638 15.2581C26.4474 14.3396 25.658 13.5501 24.7397 12.9338C24.7082 12.9129 24.6811 12.8859 24.6601 12.8545C24.639 12.823 24.6243 12.7877 24.617 12.7506C24.6096 12.7134 24.6097 12.6752 24.6171 12.6381C24.6246 12.601 24.6394 12.5657 24.6605 12.5344H24.6611ZM15.3323 27.467C15.3113 27.4982 15.2843 27.525 15.2529 27.5459C15.2215 27.5667 15.1864 27.5812 15.1494 27.5884C15.1125 27.5956 15.0744 27.5955 15.0375 27.588C15.0006 27.5806 14.9656 27.5659 14.9343 27.5449C13.954 26.8869 13.1114 26.0441 12.4537 25.0635C12.4127 25.0003 12.3983 24.9235 12.4134 24.8497C12.4285 24.7759 12.472 24.7111 12.5345 24.6691C12.597 24.6271 12.6735 24.6113 12.7475 24.6252C12.8215 24.6391 12.887 24.6815 12.9301 24.7433C13.5466 25.6621 14.3363 26.452 15.2549 27.0686C15.2862 27.0897 15.3129 27.1167 15.3337 27.1481C15.3545 27.1796 15.3689 27.2148 15.3761 27.2518C15.3833 27.2888 15.3831 27.3268 15.3756 27.3637C15.3681 27.4007 15.3534 27.4357 15.3323 27.467ZM12.4555 14.9368C13.1132 13.9561 13.9558 13.1132 14.9362 12.4554C14.9993 12.4129 15.0767 12.3973 15.1514 12.4119C15.226 12.4266 15.2918 12.4703 15.3343 12.5334C15.3767 12.5966 15.3923 12.674 15.3777 12.7487C15.3631 12.8234 15.3194 12.8892 15.2563 12.9316C14.3376 13.5482 13.548 14.3381 12.9317 15.257C12.8892 15.3202 12.8234 15.3639 12.7488 15.3785C12.6741 15.3931 12.5967 15.3775 12.5336 15.335C12.4704 15.2926 12.4267 15.2268 12.4121 15.1521C12.3975 15.0774 12.4131 15 12.4555 14.9368ZM27.5389 25.0643C26.8811 26.0449 26.0385 26.8878 25.0582 27.5457C25.027 27.5682 24.9916 27.5842 24.9541 27.5927C24.9166 27.6012 24.8777 27.6021 24.8398 27.5954C24.802 27.5886 24.7658 27.5742 24.7336 27.5532C24.7014 27.5322 24.6737 27.5049 24.6523 27.4729C24.6308 27.441 24.616 27.4051 24.6087 27.3673C24.6014 27.3295 24.6017 27.2906 24.6097 27.253C24.6178 27.2153 24.6332 27.1797 24.6553 27.1481C24.6774 27.1166 24.7055 27.0898 24.7381 27.0694C25.6564 26.4529 26.4457 25.6634 27.0619 24.7449C27.1044 24.6817 27.1702 24.638 27.2448 24.6234C27.3195 24.6087 27.3969 24.6244 27.46 24.6668C27.5232 24.7093 27.5669 24.7751 27.5815 24.8498C27.5961 24.9245 27.5805 25.0019 27.5381 25.0651L27.5389 25.0643ZM15.9303 13.2937L16.6486 13.4199C16.7018 13.5794 16.7663 13.7349 16.8415 13.8853L16.4227 14.4827C16.384 14.538 16.366 14.6051 16.3718 14.6723C16.3777 14.7396 16.407 14.8026 16.4547 14.8504L17.4525 15.8485C17.5003 15.8962 17.5633 15.9256 17.6305 15.9315C17.6977 15.9373 17.7649 15.9193 17.8201 15.8806L18.4176 15.4616C18.5679 15.537 18.7233 15.6014 18.8828 15.6546L19.0089 16.3731C19.0206 16.4396 19.0553 16.4998 19.107 16.5433C19.1586 16.5867 19.2239 16.6105 19.2914 16.6106H20.7024C20.77 16.6106 20.8353 16.5868 20.8871 16.5434C20.9388 16.4999 20.9735 16.4396 20.9852 16.3731L21.1114 15.6546C21.2708 15.6015 21.4263 15.537 21.5765 15.4616L22.1738 15.8806C22.229 15.9193 22.2961 15.9373 22.3634 15.9315C22.4306 15.9256 22.4936 15.8962 22.5413 15.8485L23.5392 14.8509C23.5869 14.8031 23.6162 14.7401 23.6221 14.6729C23.6279 14.6056 23.6099 14.5385 23.5712 14.4832L23.1524 13.8858C23.2278 13.7355 23.2923 13.58 23.3455 13.4205L24.0636 13.2943C24.13 13.2825 24.1902 13.2477 24.2336 13.196C24.277 13.1443 24.3009 13.0789 24.301 13.0114V11.5999C24.3009 11.5324 24.2771 11.4671 24.2337 11.4154C24.1903 11.3638 24.13 11.3291 24.0636 11.3174L23.3455 11.1909C23.2923 11.0314 23.2278 10.8759 23.1524 10.7256L23.5712 10.1282C23.6099 10.0729 23.6279 10.0057 23.6221 9.9385C23.6162 9.87126 23.5869 9.80823 23.5392 9.76048L22.5413 8.76177C22.4936 8.71407 22.4306 8.68471 22.3634 8.67886C22.2961 8.673 22.229 8.69102 22.1738 8.72976L21.5765 9.14866C21.4262 9.07343 21.2708 9.00897 21.1114 8.95575L20.9852 8.2372C20.9735 8.1707 20.9387 8.11045 20.887 8.06706C20.8353 8.02367 20.7699 7.99992 20.7024 8H19.2914C19.224 7.99999 19.1587 8.02376 19.107 8.06715C19.0553 8.11053 19.0206 8.17075 19.0089 8.2372L18.8828 8.95575C18.7233 9.00892 18.5679 9.07339 18.4176 9.14866L17.8201 8.72976C17.7649 8.69102 17.6977 8.673 17.6305 8.67886C17.5633 8.68471 17.5003 8.71407 17.4525 8.76177L16.4547 9.75995C16.4069 9.80773 16.3774 9.87086 16.3716 9.93822C16.3657 10.0056 16.3838 10.0728 16.4227 10.1282L16.8415 10.7256C16.7663 10.8759 16.7018 11.0314 16.6486 11.1909L15.9303 11.3174C15.8639 11.3291 15.8037 11.3638 15.7603 11.4155C15.7169 11.4671 15.6932 11.5325 15.6932 11.5999V13.0098C15.6929 13.0775 15.7166 13.1431 15.76 13.195C15.8034 13.247 15.8637 13.2819 15.9303 13.2937ZM16.2658 11.8404L16.9204 11.7254C16.9739 11.7159 17.0236 11.6915 17.0638 11.6549C17.104 11.6184 17.133 11.5712 17.1474 11.5188C17.212 11.2841 17.3057 11.0583 17.4261 10.8467C17.453 10.7994 17.4658 10.7455 17.4632 10.6912C17.4606 10.6368 17.4427 10.5844 17.4115 10.5399L17.0308 9.99475L17.6881 9.33757L18.2325 9.71939C18.2769 9.7506 18.3293 9.76854 18.3836 9.77114C18.4378 9.77374 18.4917 9.76088 18.539 9.73407C18.7505 9.61361 18.9762 9.51994 19.2109 9.45524C19.2632 9.44081 19.3104 9.41182 19.347 9.37162C19.3835 9.33143 19.4079 9.28169 19.4173 9.22818L19.5323 8.5734H20.4616L20.5765 9.22818C20.586 9.28169 20.6103 9.33143 20.6469 9.37162C20.6834 9.41182 20.7306 9.44081 20.783 9.45524C21.0178 9.51992 21.2435 9.61359 21.4552 9.73407C21.5022 9.76074 21.5559 9.77357 21.6099 9.77106C21.664 9.76856 21.7162 9.75084 21.7606 9.71993L22.305 9.33811L22.963 9.99475L22.5813 10.5393C22.5501 10.5839 22.5322 10.6363 22.5296 10.6907C22.5271 10.745 22.54 10.7989 22.5669 10.8462C22.6873 11.0578 22.7809 11.2836 22.8457 11.5183C22.86 11.5707 22.889 11.618 22.9292 11.6545C22.9694 11.6911 23.0191 11.7155 23.0727 11.7248L23.727 11.8398V12.7697L23.0727 12.8847C23.0191 12.894 22.9694 12.9184 22.9292 12.955C22.889 12.9916 22.86 13.0388 22.8457 13.0912C22.781 13.3259 22.6873 13.5517 22.5669 13.7633C22.54 13.8106 22.5271 13.8645 22.5296 13.9188C22.5322 13.9732 22.5501 14.0257 22.5813 14.0702L22.963 14.6148L22.3061 15.2719L21.7606 14.8904C21.7161 14.8592 21.6636 14.8412 21.6093 14.8386C21.555 14.836 21.5011 14.8489 21.4538 14.8757C21.2423 14.9962 21.0166 15.0899 20.7819 15.1545C20.7296 15.169 20.6824 15.198 20.6458 15.2382C20.6093 15.2783 20.5849 15.3281 20.5755 15.3816L20.4605 16.0364H19.5323L19.4173 15.3816C19.4079 15.3281 19.3835 15.2784 19.3469 15.2382C19.3104 15.198 19.2632 15.169 19.2109 15.1545C18.9762 15.0899 18.7505 14.9962 18.539 14.8757C18.4917 14.8489 18.4378 14.836 18.3836 14.8386C18.3293 14.8412 18.2769 14.8592 18.2325 14.8904L17.6881 15.2722L17.0308 14.615L17.4128 14.0704C17.444 14.0259 17.462 13.9735 17.4646 13.9191C17.4672 13.8648 17.4543 13.8109 17.4275 13.7636C17.307 13.552 17.2134 13.3262 17.1487 13.0915C17.1343 13.0391 17.1053 12.9919 17.0651 12.9554C17.0249 12.9188 16.9752 12.8944 16.9217 12.885L16.2658 12.7697V11.8404ZM19.9959 14.1926C20.3691 14.1927 20.7339 14.082 21.0442 13.8747C21.3546 13.6673 21.5965 13.3725 21.7393 13.0277C21.8822 12.6828 21.9196 12.3032 21.8468 11.9371C21.774 11.5709 21.5943 11.2346 21.3305 10.9706C21.0666 10.7066 20.7304 10.5268 20.3643 10.454C19.9983 10.3811 19.6189 10.4185 19.2741 10.5613C18.9293 10.7042 18.6346 10.9461 18.4273 11.2565C18.2199 11.5669 18.1093 11.9318 18.1093 12.3052C18.1098 12.8057 18.3089 13.2856 18.6628 13.6395C19.0167 13.9933 19.4965 14.1923 19.9969 14.1926H19.9959ZM19.9959 10.9908C20.2555 10.9908 20.5094 11.0678 20.7253 11.2121C20.9412 11.3564 21.1094 11.5615 21.2088 11.8015C21.3082 12.0415 21.3342 12.3055 21.2835 12.5603C21.2329 12.8151 21.1078 13.0491 20.9242 13.2327C20.7406 13.4164 20.5067 13.5415 20.252 13.5921C19.9973 13.6428 19.7333 13.6168 19.4935 13.5174C19.2536 13.418 19.0485 13.2497 18.9043 13.0337C18.76 12.8177 18.683 12.5638 18.683 12.3041C18.6837 11.9559 18.8224 11.6222 19.0687 11.3762C19.3151 11.1302 19.6489 10.992 19.9969 10.9919L19.9959 10.9908Z" fill="#4785FF"/>
</g>
</svg>
