<svg width="40" height="40" viewBox="0 0 40 40" fill="none" xmlns="http://www.w3.org/2000/svg">
<path d="M20.3333 19.6665L17.9832 22.0165C16.6832 23.3165 16.6832 25.4332 17.9832 26.7332C19.2832 28.0332 21.3999 28.0332 22.6999 26.7332L26.4 23.0332C29 20.4332 29 16.2166 26.4 13.5999C23.8 10.9999 19.5833 10.9999 16.9666 13.5999L12.9333 17.6332C10.7 19.8665 10.7 23.4832 12.9333 25.7166" stroke="#4785FF" stroke-width="1.8" stroke-linecap="round" stroke-linejoin="round"/>
<path d="M14.9999 36.6668H24.9999C33.3333 36.6668 36.6666 33.3335 36.6666 25.0002V15.0002C36.6666 6.66683 33.3333 3.3335 24.9999 3.3335H14.9999C6.66659 3.3335 3.33325 6.66683 3.33325 15.0002V25.0002C3.33325 33.3335 6.66659 36.6668 14.9999 36.6668Z" stroke="#4785FF" stroke-width="1.8" stroke-linecap="round" stroke-linejoin="round"/>
</svg>
