<svg width="40" height="40" viewBox="0 0 40 40" fill="none" xmlns="http://www.w3.org/2000/svg">
<path d="M17.9167 37.5H22.1167C23.7167 37.5 24.75 36.3666 24.45 34.9833L23.7667 31.9667H16.2667L15.5834 34.9833C15.2834 36.2833 16.4167 37.5 17.9167 37.5Z" stroke="#292D32" stroke-width="1.8" stroke-linecap="round" stroke-linejoin="round"/>
<path d="M23.7667 31.9501L26.65 29.3834C28.2667 27.95 28.3334 26.9499 27.05 25.3333L21.9667 18.8834C20.9 17.5334 19.15 17.5334 18.0834 18.8834L13 25.3333C11.7167 26.9499 11.7167 28 13.4 29.3834L16.2834 31.9501" stroke="#292D32" stroke-width="1.8" stroke-linecap="round" stroke-linejoin="round"/>
<path d="M20.0167 18.5333V22.75" stroke="#292D32" stroke-width="1.8" stroke-linecap="round" stroke-linejoin="round"/>
<path d="M18.5834 8.65003L17.2834 7.34998C16.5 6.56665 16.5 5.30006 17.2834 4.51673L18.5834 3.21668C19.3667 2.43335 20.6334 2.43335 21.4167 3.21668L22.7167 4.51673C23.5 5.30006 23.5 6.56665 22.7167 7.34998L21.4167 8.65003C20.6334 9.43336 19.3667 9.43336 18.5834 8.65003Z" stroke="#292D32" stroke-width="1.8" stroke-linecap="round" stroke-linejoin="round"/>
<path d="M32.4167 16.35H34.25C35.35 16.35 36.25 17.25 36.25 18.35V20.1833C36.25 21.2833 35.35 22.1834 34.25 22.1834H32.4167C31.3167 22.1834 30.4167 21.2833 30.4167 20.1833V18.35C30.4167 17.25 31.3167 16.35 32.4167 16.35Z" stroke="#292D32" stroke-width="1.8" stroke-linecap="round" stroke-linejoin="round"/>
<path d="M7.58334 16.35H5.75C4.64999 16.35 3.75 17.25 3.75 18.35V20.1833C3.75 21.2833 4.64999 22.1834 5.75 22.1834H7.58334C8.68334 22.1834 9.58333 21.2833 9.58333 20.1833V18.35C9.58333 17.25 8.68334 16.35 7.58334 16.35Z" stroke="#292D32" stroke-width="1.8" stroke-linecap="round" stroke-linejoin="round"/>
<path d="M30.9 16.8333L22.0667 7.99997" stroke="#292D32" stroke-width="1.8" stroke-linecap="round" stroke-linejoin="round"/>
<path d="M9.09998 16.8333L17.9333 7.99997" stroke="#292D32" stroke-width="1.8" stroke-linecap="round" stroke-linejoin="round"/>
</svg>
