<svg width="40" height="40" viewBox="0 0 40 40" fill="none" xmlns="http://www.w3.org/2000/svg">
<path d="M3.33331 15V10.8333C3.33331 6.68334 6.68331 3.33334 10.8333 3.33334H15" stroke="#292D32" stroke-width="1.8" stroke-linecap="round" stroke-linejoin="round"/>
<path d="M25 3.33334H29.1667C33.3167 3.33334 36.6667 6.68334 36.6667 10.8333V15" stroke="#292D32" stroke-width="1.8" stroke-linecap="round" stroke-linejoin="round"/>
<path d="M36.6667 26.6667V29.1667C36.6667 33.3167 33.3167 36.6667 29.1667 36.6667H26.6667" stroke="#292D32" stroke-width="1.8" stroke-linecap="round" stroke-linejoin="round"/>
<path d="M15 36.6667H10.8333C6.68331 36.6667 3.33331 33.3167 3.33331 29.1667V25" stroke="#292D32" stroke-width="1.8" stroke-linecap="round" stroke-linejoin="round"/>
<path d="M28.3334 15.8333V24.1667C28.3334 27.5 26.6667 29.1667 23.3334 29.1667H16.6667C13.3334 29.1667 11.6667 27.5 11.6667 24.1667V15.8333C11.6667 12.5 13.3334 10.8333 16.6667 10.8333H23.3334C26.6667 10.8333 28.3334 12.5 28.3334 15.8333Z" stroke="#292D32" stroke-width="1.8" stroke-linecap="round" stroke-linejoin="round"/>
<path d="M31.6666 20H8.33331" stroke="#292D32" stroke-width="1.8" stroke-linecap="round" stroke-linejoin="round"/>
</svg>
