<svg width="40" height="40" viewBox="0 0 40 40" fill="none" xmlns="http://www.w3.org/2000/svg">
<path d="M36.6667 18.1667V6.83334C36.6667 4.33334 35.6 3.33334 32.95 3.33334H26.2167C23.5667 3.33334 22.5 4.33334 22.5 6.83334V18.1667C22.5 20.6667 23.5667 21.6667 26.2167 21.6667H32.95C35.6 21.6667 36.6667 20.6667 36.6667 18.1667Z" stroke="#292D32" stroke-width="1.8" stroke-linecap="round" stroke-linejoin="round"/>
<path d="M36.6667 33.1667V30.1667C36.6667 27.6667 35.6 26.6667 32.95 26.6667H26.2167C23.5667 26.6667 22.5 27.6667 22.5 30.1667V33.1667C22.5 35.6667 23.5667 36.6667 26.2167 36.6667H32.95C35.6 36.6667 36.6667 35.6667 36.6667 33.1667Z" stroke="#292D32" stroke-width="1.8" stroke-linecap="round" stroke-linejoin="round"/>
<path d="M17.5 21.8333V33.1667C17.5 35.6667 16.4333 36.6667 13.7833 36.6667H7.05001C4.40001 36.6667 3.33334 35.6667 3.33334 33.1667V21.8333C3.33334 19.3333 4.40001 18.3333 7.05001 18.3333H13.7833C16.4333 18.3333 17.5 19.3333 17.5 21.8333Z" stroke="#292D32" stroke-width="1.8" stroke-linecap="round" stroke-linejoin="round"/>
<path d="M17.5 6.83334V9.83334C17.5 12.3333 16.4333 13.3333 13.7833 13.3333H7.05001C4.40001 13.3333 3.33334 12.3333 3.33334 9.83334V6.83334C3.33334 4.33334 4.40001 3.33334 7.05001 3.33334H13.7833C16.4333 3.33334 17.5 4.33334 17.5 6.83334Z" stroke="#292D32" stroke-width="1.8" stroke-linecap="round" stroke-linejoin="round"/>
</svg>
