<?xml version="1.0" encoding="UTF-8"?>
<svg style="color:#6b7280" version="1.1" xmlns="http://www.w3.org/2000/svg" width="128" height="128">
<path d="M0 0 C5.39280764 4.62709459 8.1711244 9.90977752 9.1640625 16.93359375 C9.50949916 25.23316397 7.79084107 31.38165312 3.6875 38.5625 C4.5125 38.624375 5.3375 38.68625 6.1875 38.75 C12.54857809 40.22667884 17.09372036 43.14563629 20.625 48.6875 C23.30861241 53.36335349 24.0751569 57.13530336 23.6875 62.5625 C22.55737305 64.25698853 22.55737305 64.25698853 20.6875 65.5625 C17.91723633 65.94345093 17.91723633 65.94345093 14.51953125 65.95068359 C13.24811279 65.96014008 11.97669434 65.96959656 10.66674805 65.9793396 C9.27782887 65.97396991 7.88891252 65.96781696 6.5 65.9609375 C5.07657726 65.96295839 3.65315553 65.96586995 2.22973633 65.96963501 C-0.75286724 65.97405771 -3.73520121 65.96762935 -6.71777344 65.95361328 C-10.54135091 65.93652103 -14.36429666 65.94636255 -18.18785095 65.96433067 C-21.12696087 65.97517019 -24.06592097 65.97172149 -27.0050354 65.9639473 C-28.41484654 65.96194573 -29.82467128 65.96440306 -31.23446655 65.97138596 C-33.20448548 65.97900223 -35.17455209 65.96533579 -37.14453125 65.95068359 C-38.26577393 65.94829681 -39.3870166 65.94591003 -40.54223633 65.94345093 C-43.3125 65.5625 -43.3125 65.5625 -45.16674805 64.22964478 C-47.20461632 61.26441182 -46.75889511 59.07786149 -46.3125 55.5625 C-43.47689409 47.97754593 -40.11940023 43.23179863 -32.6875 39.8125 C-29.3125 38.5625 -29.3125 38.5625 -26.3125 38.5625 C-26.6734375 37.93085937 -27.034375 37.29921875 -27.40625 36.6484375 C-31.8007844 28.17675173 -33.19110907 19.9652823 -30.4609375 10.66015625 C-27.82730139 4.7031222 -24.05562646 0.65670928 -18.3125 -2.4375 C-12.12723201 -4.51991487 -5.39452256 -3.62364513 0 0 Z M-19.3125 6.5625 C-24.11082254 12.78735086 -24.98432587 17.896487 -24.3125 25.5625 C-22.97043468 29.05186984 -21.29657978 31.58478831 -19.125 34.625 C-17.17925396 37.77845048 -17.13775192 38.98920298 -17.3125 42.5625 C-17.9415625 42.73265625 -18.570625 42.9028125 -19.21875 43.078125 C-30.02658623 45.79858605 -30.02658623 45.79858605 -37.8125 53.125 C-39.51247223 56.39568289 -39.51247223 56.39568289 -39.3125 59.5625 C-20.8325 59.5625 -2.3525 59.5625 16.6875 59.5625 C15.48836892 53.04773012 15.48836892 53.04773012 11.0625 48.46484375 C5.86972002 45.71141404 0.34173527 44.09192429 -5.3125 42.5625 C-4.97050459 35.95058872 -3.79219302 33.37817 0.6875 28.5625 C2.48961131 23.15616608 2.42034031 17.60673876 0.5 12.25 C-2.44426252 7.88436936 -4.57241428 5.06870676 -9.75 3.5625 C-13.94145426 3.5625 -15.8684438 4.18992795 -19.3125 6.5625 Z " fill="currentColor" transform="translate(55.3125,41.4375)"/>
<path d="M0 0 C0.845625 0.144375 1.69125 0.28875 2.5625 0.4375 C3.5625 3.4375 3.5625 3.4375 2.42578125 5.79296875 C0.3862478 8.68765249 -1.79147963 11.20084294 -4.25 13.75 C-5.08144531 14.63300781 -5.91289063 15.51601563 -6.76953125 16.42578125 C-9.4375 18.4375 -9.4375 18.4375 -12.5546875 18.90234375 C-15.64832416 18.40350532 -16.66763385 17.95509009 -18.75 15.6875 C-19.24113281 15.17703125 -19.73226562 14.6665625 -20.23828125 14.140625 C-21.59386205 12.21543533 -22.14121418 10.76955615 -22.4375 8.4375 C-21 6.6875 -21 6.6875 -19.4375 5.4375 C-18.32375 5.9325 -18.32375 5.9325 -17.1875 6.4375 C-14.29866688 7.66532871 -14.29866688 7.66532871 -10.4375 7.4375 C-8.65345391 5.91199537 -8.65345391 5.91199537 -7.0625 3.9375 C-3.85095874 0.49012202 -3.85095874 0.49012202 0 0 Z " fill="currentColor" transform="translate(90.4375,20.5625)"/>
<path d="M0 0 C1 3 1 3 -0.13671875 5.35546875 C-2.1762522 8.25015249 -4.35397963 10.76334294 -6.8125 13.3125 C-7.64394531 14.19550781 -8.47539063 15.07851562 -9.33203125 15.98828125 C-12 18 -12 18 -15.11328125 18.45703125 C-18.98220856 17.84449472 -20.3101802 16.53964666 -22.875 13.734375 C-24.55953389 11.13738526 -24.42755682 8.99289774 -24 6 C-19.9715651 5.81688932 -17.51624755 6.05841983 -14 8 C-13.45730469 7.43410156 -12.91460937 6.86820313 -12.35546875 6.28515625 C-11.64003906 5.55167969 -10.92460938 4.81820312 -10.1875 4.0625 C-9.47980469 3.33160156 -8.77210937 2.60070313 -8.04296875 1.84765625 C-5.09187249 -0.82130844 -3.81082528 -1.27027509 0 0 Z " fill="currentColor" transform="translate(93,53)"/>
<path d="M0 0 C7.26 0 14.52 0 22 0 C22 1.98 22 3.96 22 6 C14.74 6 7.48 6 0 6 C0 4.02 0 2.04 0 0 Z " fill="currentColor" transform="translate(97,81)"/>
<path d="M0 0 C7.26 0 14.52 0 22 0 C22 1.98 22 3.96 22 6 C14.74 6 7.48 6 0 6 C0 4.02 0 2.04 0 0 Z " fill="currentColor" transform="translate(97,53)"/>
<path d="M0 0 C7.26 0 14.52 0 22 0 C22 1.98 22 3.96 22 6 C14.74 6 7.48 6 0 6 C0 4.02 0 2.04 0 0 Z " fill="currentColor" transform="translate(97,21)"/>
<path d="M0 0 C4.62 0 9.24 0 14 0 C14 1.98 14 3.96 14 6 C9.38 6 4.76 6 0 6 C0 4.02 0 2.04 0 0 Z " fill="currentColor" transform="translate(97,93)"/>
<path d="M0 0 C4.62 0 9.24 0 14 0 C14 1.98 14 3.96 14 6 C9.38 6 4.76 6 0 6 C0 4.02 0 2.04 0 0 Z " fill="currentColor" transform="translate(97,65)"/>
<path d="M0 0 C4.62 0 9.24 0 14 0 C14 1.98 14 3.96 14 6 C9.38 6 4.76 6 0 6 C0 4.02 0 2.04 0 0 Z " fill="currentColor" transform="translate(97,33)"/>
</svg>
