<svg xmlns="http://www.w3.org/2000/svg" width="14.827" height="11.604" viewBox="0 0 14.827 11.604">
    <defs>
        <style>
            .cls-1{fill:#b0c5e3}.cls-2{fill:#dce4ee}
        </style>
    </defs>
    <g id="_3603140" transform="translate(0 -1.621)">
        <path id="Path_13384" d="M2.172 0H.434A.442.442 0 0 0 0 .449v1.324a.442.442 0 0 0 .434.449h1.738a.442.442 0 0 0 .434-.449V.449A.442.442 0 0 0 2.172 0z" class="cls-1" transform="translate(0 1.621)"/>
        <path id="Path_13385" d="M16.888 0H7.579A.527.527 0 0 0 7 .449V1.8a.527.527 0 0 0 .579.449h9.309a.527.527 0 0 0 .579-.449V.449A.527.527 0 0 0 16.888 0z" class="cls-2" transform="translate(-2.64 1.621)"/>
        <path id="Path_13386" d="M2.172 9.333H.434A.449.449 0 0 0 0 9.8v1.517a.449.449 0 0 0 .434.462h1.738a.449.449 0 0 0 .434-.462V9.8a.449.449 0 0 0-.434-.467z" class="cls-1" transform="translate(0 -3.157)"/>
        <path id="Path_13387" d="M16.888 9.353H7.579A.531.531 0 0 0 7 9.815v1.5a.531.531 0 0 0 .579.462h9.309a.531.531 0 0 0 .579-.462v-1.5a.531.531 0 0 0-.579-.462z" class="cls-2" transform="translate(-2.64 -3.157)"/>
        <path id="Path_13388" d="M2.172 18.455H.434a.447.447 0 0 0-.434.458v1.38a.447.447 0 0 0 .434.459h1.738a.447.447 0 0 0 .434-.459v-1.38a.447.447 0 0 0-.434-.458z" class="cls-1" transform="translate(0 -7.526)"/>
        <path id="Path_13389" d="M16.888 18.435H7.579a.529.529 0 0 0-.579.458v1.4a.529.529 0 0 0 .579.459h9.309a.529.529 0 0 0 .579-.459v-1.4a.529.529 0 0 0-.579-.458z" class="cls-2" transform="translate(-2.64 -7.526)"/>
    </g>
</svg>
