<svg xmlns="http://www.w3.org/2000/svg" id="_617396" width="16.001" height="16.401" viewBox="0 0 16.001 16.401">
    <defs>
        <style>
            .cls-2{fill:#9db6db}
        </style>
    </defs>
    <g id="Group_6201" transform="translate(0)">
        <g id="Group_6200">
            <path id="Path_13394" fill="#dce4ee" d="M10.757 0a6.757 6.757 0 0 1 6.757 6.757 7.184 7.184 0 0 1-1.414 4.175l3.9 3.961-1.554 1.507-3.992-3.992A6.756 6.756 0 1 1 10.757 0zm0 11.751a4.994 4.994 0 1 0-4.994-4.994 5 5 0 0 0 4.994 4.994z" transform="translate(-4)"/>
        </g>
    </g>
    <g id="Group_6203" transform="translate(8.226 5.582)">
        <g id="Group_6202" transform="translate(0)">
            <rect id="Rectangle_2264" width="1.377" height="4.113" class="cls-2" rx=".2"/>
        </g>
    </g>
    <g id="Group_6205" transform="translate(5.993 3.232)">
        <g id="Group_6204" transform="translate(0)">
            <rect id="Rectangle_2265" width="1.377" height="6.463" class="cls-2" rx=".2"/>
        </g>
    </g>
    <g id="Group_6207" transform="translate(3.718 4.407)">
        <g id="Group_6206">
            <rect id="Rectangle_2266" width="1.378" height="5.288" class="cls-2" rx=".2"/>
        </g>
    </g>
</svg>
