<svg width="24" height="22" viewBox="0 0 24 22" fill="none" xmlns="http://www.w3.org/2000/svg">
<path d="M12 3.457C11.8011 3.457 11.6103 3.37798 11.4697 3.23733C11.329 3.09668 11.25 2.90591 11.25 2.707V0.75C11.25 0.551088 11.329 0.360322 11.4697 0.21967C11.6103 0.0790176 11.8011 0 12 0C12.1989 0 12.3897 0.0790176 12.5303 0.21967C12.671 0.360322 12.75 0.551088 12.75 0.75V2.707C12.75 2.90591 12.671 3.09668 12.5303 3.23733C12.3897 3.37798 12.1989 3.457 12 3.457Z" fill="#B9DCFF"/>
<path d="M18.571 6.17917C18.4228 6.17877 18.278 6.1345 18.1549 6.05195C18.0317 5.9694 17.9358 5.85226 17.8791 5.71529C17.8225 5.57832 17.8076 5.42764 17.8364 5.28223C17.8652 5.13682 17.9364 5.00319 18.041 4.89817L19.425 3.51417C19.4947 3.44451 19.5774 3.38925 19.6684 3.35154C19.7594 3.31384 19.857 3.29443 19.9555 3.29443C20.054 3.29443 20.1516 3.31384 20.2426 3.35154C20.3336 3.38925 20.4163 3.44451 20.486 3.51417C20.5557 3.58384 20.6109 3.66655 20.6486 3.75757C20.6863 3.84859 20.7058 3.94615 20.7058 4.04467C20.7058 4.1432 20.6863 4.24075 20.6486 4.33178C20.6109 4.4228 20.5557 4.50551 20.486 4.57517L19.1 5.95917C18.9596 6.09944 18.7695 6.17852 18.571 6.17917Z" fill="#B9DCFF"/>
<path d="M23.25 12.75H21.293C21.0941 12.75 20.9033 12.671 20.7626 12.5303C20.622 12.3897 20.543 12.1989 20.543 12C20.543 11.8011 20.622 11.6103 20.7626 11.4697C20.9033 11.329 21.0941 11.25 21.293 11.25H23.25C23.4489 11.25 23.6396 11.329 23.7803 11.4697C23.921 11.6103 24 11.8011 24 12C24 12.1989 23.921 12.3897 23.7803 12.5303C23.6396 12.671 23.4489 12.75 23.25 12.75Z" fill="#B9DCFF"/>
<path d="M19.955 20.6999C19.8565 20.7002 19.7589 20.6809 19.668 20.6431C19.577 20.6053 19.4944 20.5499 19.425 20.4799L18.041 19.0999C17.9111 18.9574 17.8411 18.7703 17.8455 18.5775C17.85 18.3848 17.9285 18.2011 18.0648 18.0646C18.2011 17.9282 18.3847 17.8495 18.5774 17.8449C18.7702 17.8403 18.9574 17.9102 19.1 18.0399L20.484 19.4239C20.5892 19.5288 20.6608 19.6626 20.6899 19.8083C20.7189 19.9539 20.7041 20.1049 20.6472 20.2421C20.5903 20.3793 20.494 20.4966 20.3704 20.579C20.2468 20.6614 20.1016 20.7052 19.953 20.7049L19.955 20.6999Z" fill="#B9DCFF"/>
<path d="M4.04501 20.7002C3.89678 20.6998 3.75198 20.6555 3.62886 20.5729C3.50574 20.4904 3.4098 20.3732 3.35313 20.2363C3.29646 20.0993 3.28159 19.9486 3.3104 19.8032C3.33921 19.6578 3.4104 19.5242 3.51501 19.4192L4.90001 18.0402C5.04219 17.9077 5.23023 17.8356 5.42453 17.839C5.61884 17.8424 5.80422 17.9211 5.94163 18.0585C6.07905 18.196 6.15776 18.3813 6.16119 18.5756C6.16462 18.7699 6.09249 18.958 5.96001 19.1002L4.57601 20.4852C4.50597 20.5541 4.42302 20.6086 4.33191 20.6455C4.2408 20.6824 4.14331 20.701 4.04501 20.7002Z" fill="#B9DCFF"/>
<path d="M2.707 12.75H0.75C0.551088 12.75 0.360322 12.671 0.21967 12.5303C0.0790176 12.3897 0 12.1989 0 12C0 11.8011 0.0790176 11.6103 0.21967 11.4697C0.360322 11.329 0.551088 11.25 0.75 11.25H2.707C2.90591 11.25 3.09668 11.329 3.23733 11.4697C3.37798 11.6103 3.457 11.8011 3.457 12C3.457 12.1989 3.37798 12.3897 3.23733 12.5303C3.09668 12.671 2.90591 12.75 2.707 12.75Z" fill="#B9DCFF"/>
<path d="M5.42903 6.17917C5.33052 6.17942 5.23295 6.16009 5.14196 6.12233C5.05098 6.08456 4.96841 6.02911 4.89903 5.95917L3.51503 4.57517C3.37433 4.43448 3.29529 4.24365 3.29529 4.04467C3.29529 3.8457 3.37433 3.65487 3.51503 3.51417C3.65573 3.37348 3.84655 3.29443 4.04553 3.29443C4.2445 3.29443 4.43533 3.37348 4.57603 3.51417L5.96003 4.90017C6.06519 5.00507 6.13684 5.13882 6.16589 5.28449C6.19494 5.43015 6.18008 5.58116 6.1232 5.71837C6.06633 5.85558 5.96999 5.97281 5.84641 6.0552C5.72282 6.1376 5.57756 6.18144 5.42903 6.18117V6.17917Z" fill="#B9DCFF"/>
<path d="M14.494 18.9038V19.9428C14.4922 20.3281 14.3383 20.6971 14.0658 20.9696C13.7933 21.2421 13.4243 21.396 13.039 21.3978H10.961C10.7511 21.391 10.545 21.3406 10.3556 21.2499C10.1663 21.1591 9.99785 21.03 9.86103 20.8707C9.72422 20.7114 9.62201 20.5255 9.5609 20.3246C9.49978 20.1237 9.48109 19.9123 9.50601 19.7038V18.9038H14.494Z" fill="#B9DCFF"/>
<path d="M15.666 6.90289C15.066 6.412 14.374 6.04593 13.6305 5.82616C12.8871 5.6064 12.1073 5.53737 11.3368 5.62312C10.5663 5.70888 9.82077 5.9477 9.14387 6.32556C8.46697 6.70342 7.87238 7.2127 7.395 7.82351C6.91763 8.43432 6.56709 9.13434 6.36397 9.88248C6.16085 10.6306 6.10924 11.4118 6.21218 12.1802C6.31511 12.9485 6.57051 13.6886 6.96338 14.3569C7.35625 15.0252 7.87867 15.6083 8.49998 16.0719C9.00659 16.4613 9.34563 17.0292 9.44798 17.6599V17.6679C9.46655 17.6612 9.4863 17.6585 9.50598 17.6599H14.494C14.5085 17.6584 14.5231 17.6612 14.536 17.6679V17.6599C14.6746 16.9938 15.0533 16.4019 15.6 15.9969C16.286 15.4564 16.8417 14.7685 17.2259 13.9842C17.61 13.1998 17.8127 12.3391 17.8191 11.4658C17.8254 10.5924 17.6352 9.72882 17.2625 8.93897C16.8898 8.14912 16.3441 7.45324 15.666 6.90289ZM15.117 11.8409C14.9522 11.8396 14.7945 11.7735 14.6779 11.657C14.5613 11.5404 14.4953 11.3827 14.494 11.2179C14.4941 10.9176 14.4351 10.6203 14.3202 10.3429C14.2054 10.0655 14.037 9.81345 13.8247 9.60115C13.6124 9.38885 13.3604 9.22047 13.083 9.10563C12.8055 8.99079 12.5082 8.93176 12.208 8.93189C12.0426 8.93189 11.884 8.8662 11.7671 8.74927C11.6502 8.63234 11.5845 8.47375 11.5845 8.30839C11.5845 8.14302 11.6502 7.98443 11.7671 7.8675C11.884 7.75058 12.0426 7.68489 12.208 7.68489C13.1443 7.687 14.0417 8.0599 14.7039 8.72201C15.366 9.38412 15.7389 10.2815 15.741 11.2179C15.7389 11.3824 15.6724 11.5395 15.5557 11.6554C15.439 11.7713 15.2815 11.8369 15.117 11.8379V11.8409Z" fill="#4F8AFF"/>
<path d="M8.92999 18.4999H8.99999C8.97622 18.4983 8.95237 18.5017 8.92999 18.5099V18.4999Z" fill="black"/>
<path d="M15.05 18.4999V18.5099C15.0346 18.5018 15.0173 18.4983 15 18.4999H15.05Z" fill="black"/>
</svg>
