<svg width="17" height="17" viewBox="0 0 17 17" fill="none" xmlns="http://www.w3.org/2000/svg">
<path d="M14.5947 2.47646H11.9681C11.8631 2.17946 11.6686 1.9223 11.4114 1.74041C11.1542 1.55851 10.8469 1.46082 10.5319 1.46077H9.93669C9.83179 1.16353 9.63728 0.906142 9.37996 0.724083C9.12265 0.542023 8.8152 0.444256 8.49999 0.444256C8.18478 0.444256 7.87733 0.542023 7.62002 0.724083C7.3627 0.906142 7.1682 1.16353 7.0633 1.46077H6.4681C6.15308 1.46082 5.84582 1.55851 5.58862 1.74041C5.33141 1.9223 5.13692 2.17946 5.03192 2.47646H2.40635C2.00228 2.47646 1.61477 2.63698 1.32905 2.9227C1.04333 3.20842 0.882812 3.59593 0.882812 4V14.7441C0.882812 15.1482 1.04333 15.5357 1.32905 15.8214C1.61477 16.1071 2.00228 16.2677 2.40635 16.2677H14.5947C14.9987 16.2677 15.3862 16.1071 15.672 15.8214C15.9577 15.5357 16.1182 15.1482 16.1182 14.7441V4C16.1182 3.59593 15.9577 3.20842 15.672 2.9227C15.3862 2.63698 14.9987 2.47646 14.5947 2.47646ZM5.96127 2.98431C5.96127 2.84962 6.01478 2.72045 6.11002 2.62521C6.20526 2.52997 6.33443 2.47646 6.46912 2.47646H7.48481C7.6195 2.47646 7.74867 2.42296 7.84391 2.32772C7.93915 2.23248 7.99266 2.10331 7.99266 1.96862C7.99266 1.83393 8.04616 1.70476 8.1414 1.60952C8.23664 1.51428 8.36581 1.46077 8.5005 1.46077C8.63519 1.46077 8.76436 1.51428 8.8596 1.60952C8.95484 1.70476 9.00835 1.83393 9.00835 1.96862C9.00835 2.10331 9.06185 2.23248 9.15709 2.32772C9.25233 2.42296 9.38151 2.47646 9.51619 2.47646H10.5319C10.6666 2.47646 10.7957 2.52997 10.891 2.62521C10.9862 2.72045 11.0397 2.84962 11.0397 2.98431V3.49215H5.96127V2.98431ZM15.1025 14.7441C15.1025 14.8788 15.049 15.008 14.9538 15.1032C14.8585 15.1985 14.7293 15.252 14.5947 15.252H2.40635C2.27166 15.252 2.14249 15.1985 2.04725 15.1032C1.95201 15.008 1.8985 14.8788 1.8985 14.7441V4C1.8985 3.86531 1.95201 3.73614 2.04725 3.6409C2.14249 3.54566 2.27166 3.49215 2.40635 3.49215H4.94558V4C4.94558 4.13469 4.99909 4.26386 5.09433 4.3591C5.18957 4.45434 5.31874 4.50785 5.45342 4.50785H11.5476C11.6823 4.50785 11.8114 4.45434 11.9067 4.3591C12.0019 4.26386 12.0554 4.13469 12.0554 4V3.49215H14.5947C14.7293 3.49215 14.8585 3.54566 14.9538 3.6409C15.049 3.73614 15.1025 3.86531 15.1025 4V14.7441Z" fill="#4F8AFF" stroke="#4F8AFF" stroke-width="0.5"/>
<path d="M7.6 7H4.4C4.29391 7 4.19217 7.05266 4.11715 7.14642C4.04214 7.24019 4 7.36739 4 7.5C4 7.63261 4.04214 7.75978 4.11715 7.85355C4.19217 7.94731 4.29391 8 4.4 8H7.6C7.70609 8 7.80782 7.94731 7.88284 7.85355C7.95785 7.75978 8 7.63261 8 7.5C8 7.36739 7.95785 7.24019 7.88284 7.14642C7.80782 7.05266 7.70609 7 7.6 7Z" fill="#4F8AFF" stroke="#4F8AFF" stroke-width="0.5"/>
<path d="M7.6 11H4.4C4.29391 11 4.19217 11.0527 4.11715 11.1465C4.04214 11.2402 4 11.3674 4 11.5C4 11.6326 4.04214 11.7598 4.11715 11.8535C4.19217 11.9473 4.29391 12 4.4 12H7.6C7.70609 12 7.80782 11.9473 7.88284 11.8535C7.95785 11.7598 8 11.6326 8 11.5C8 11.3674 7.95785 11.2402 7.88284 11.1465C7.80782 11.0527 7.70609 11 7.6 11Z" fill="#4F8AFF" stroke="#4F8AFF" stroke-width="0.5"/>
<path d="M12.3988 6.14869C12.3036 6.05348 12.1745 6 12.0398 6C11.9051 6 11.776 6.05348 11.6807 6.14869L10.5168 7.31267L9.86064 6.65654C9.76485 6.56403 9.63659 6.51283 9.50343 6.51398C9.37028 6.51514 9.2429 6.56858 9.14874 6.66273C9.05458 6.75689 9.00118 6.88424 9.00002 7.0174C8.99886 7.15055 9.05003 7.27885 9.14254 7.37463L10.1582 8.39032C10.2535 8.48553 10.3826 8.53901 10.5173 8.53901C10.652 8.53901 10.7811 8.48553 10.8763 8.39032L12.3999 6.86678C12.4949 6.77141 12.5482 6.6422 12.5481 6.50754C12.5479 6.37287 12.4942 6.24379 12.3988 6.14869Z" fill="#4F8AFF" stroke="#4F8AFF" stroke-width="0.5"/>
<path d="M11.5093 11.5654L12.2416 10.829C12.2934 10.788 12.3353 10.7359 12.3641 10.6764C12.3928 10.617 12.4078 10.5518 12.4078 10.4857C12.4078 10.4197 12.3928 10.3545 12.3641 10.295C12.3353 10.2356 12.2934 10.1834 12.2416 10.1424C12.1284 10.0503 11.9869 10 11.8409 10C11.695 10 11.5535 10.0503 11.4403 10.1424L10.708 10.7701L9.97564 10.1424C9.86243 10.0503 9.72092 10 9.57495 10C9.42899 10 9.28748 10.0503 9.17426 10.1424C9.12246 10.1834 9.0806 10.2356 9.05183 10.295C9.02305 10.3545 9.00812 10.4197 9.00812 10.4857C9.00812 10.5518 9.02305 10.617 9.05183 10.6764C9.0806 10.7359 9.12246 10.788 9.17426 10.829L9.90658 11.5654L9.16614 12.2764C9.11434 12.3174 9.07248 12.3696 9.0437 12.429C9.01493 12.4885 9 12.5536 9 12.6197C9 12.6857 9.01493 12.7509 9.0437 12.8104C9.07248 12.8698 9.11434 12.922 9.16614 12.963C9.27936 13.0551 9.42086 13.1054 9.56683 13.1054C9.7128 13.1054 9.85431 13.0551 9.96752 12.963L10.6998 12.3353L11.4321 12.963C11.5453 13.0549 11.6866 13.105 11.8323 13.105C11.9781 13.105 12.1194 13.0549 12.2325 12.963C12.2843 12.922 12.3262 12.8698 12.3549 12.8104C12.3837 12.7509 12.3986 12.6857 12.3986 12.6197C12.3986 12.5536 12.3837 12.4885 12.3549 12.429C12.3262 12.3696 12.2843 12.3174 12.2325 12.2764L11.5093 11.5654Z" fill="#4F8AFF" stroke="#4F8AFF" stroke-width="0.5"/>
</svg>
