<svg width="20" height="20" viewBox="0 0 20 20" fill="none" xmlns="http://www.w3.org/2000/svg">
<path d="M10 18C8.14427 17.9976 6.36528 17.312 5.05307 16.0936C3.74087 14.8751 3.00255 13.2232 3 11.5C3 11.3217 3.07629 11.1506 3.21209 11.0245C3.3479 10.8984 3.53208 10.8276 3.72414 10.8276C3.91619 10.8276 4.10038 10.8984 4.23618 11.0245C4.37198 11.1506 4.44828 11.3217 4.44828 11.5C4.44828 12.5196 4.77388 13.5163 5.38391 14.3641C5.99394 15.2118 6.861 15.8726 7.87545 16.2628C8.88989 16.6529 10.0062 16.755 11.0831 16.5561C12.16 16.3572 13.1492 15.8662 13.9257 15.1453C14.7021 14.4243 15.2308 13.5057 15.445 12.5057C15.6593 11.5057 15.5493 10.4692 15.1291 9.5272C14.7089 8.58522 13.9973 7.78009 13.0844 7.21363C12.1714 6.64717 11.098 6.34483 10 6.34483H7.58621C7.39415 6.34483 7.20997 6.27398 7.07416 6.14788C6.93836 6.02178 6.86207 5.85075 6.86207 5.67241C6.86207 5.49408 6.93836 5.32305 7.07416 5.19695C7.20997 5.07084 7.39415 5 7.58621 5H10C11.8565 5 13.637 5.68482 14.9497 6.90381C16.2625 8.12279 17 9.77609 17 11.5C17 13.2239 16.2625 14.8772 14.9497 16.0962C13.637 17.3152 11.8565 18 10 18Z" fill="#2B345F"/>
<path d="M10.3194 8.99999C10.2322 9.00043 10.1457 8.98253 10.0652 8.94736C9.98459 8.91219 9.91151 8.86044 9.8502 8.79517L7.19419 6.00214C7.06984 5.87122 7 5.69374 7 5.50871C7 5.32367 7.06984 5.14619 7.19419 5.01527L9.8502 2.22224C9.91099 2.15364 9.9843 2.09861 10.0657 2.06045C10.1472 2.02228 10.2351 2.00176 10.3243 2.00011C10.4134 1.99845 10.502 2.0157 10.5847 2.05082C10.6674 2.08594 10.7425 2.13821 10.8055 2.20451C10.8686 2.27082 10.9183 2.3498 10.9517 2.43675C10.9851 2.52369 11.0015 2.61682 10.9999 2.71058C10.9983 2.80433 10.9788 2.89679 10.9425 2.98244C10.9062 3.0681 10.8539 3.14519 10.7887 3.20911L8.60188 5.50871L10.7887 7.8083C10.913 7.93922 10.9829 8.1167 10.9829 8.30173C10.9829 8.48677 10.913 8.66425 10.7887 8.79517C10.7274 8.86044 10.6543 8.91219 10.5737 8.94736C10.4931 8.98253 10.4067 9.00043 10.3194 8.99999Z" fill="#2B345F"/>
</svg>
