<svg width="14" height="14" viewBox="0 0 14 14" fill="none" xmlns="http://www.w3.org/2000/svg">
<path d="M0.56125 1.09922C0.56125 0.566836 0.979078 0.136719 1.49625 0.136719H4.30125C4.81842 0.136719 5.23625 0.566836 5.23625 1.09922C5.23625 1.6316 4.81842 2.06172 4.30125 2.06172H3.83375V5.91172C3.83375 7.50586 5.09016 8.79922 6.63875 8.79922C8.18734 8.79922 9.44375 7.50586 9.44375 5.91172V2.06172H8.97625C8.45908 2.06172 8.04125 1.6316 8.04125 1.09922C8.04125 0.566836 8.45908 0.136719 8.97625 0.136719H11.7812C12.2984 0.136719 12.7163 0.566836 12.7163 1.09922C12.7163 1.6316 12.2984 2.06172 11.7812 2.06172H11.3138V5.91172C11.3138 8.57063 9.22169 10.7242 6.63875 10.7242C4.05581 10.7242 1.96375 8.57063 1.96375 5.91172V2.06172H1.49625C0.979078 2.06172 0.56125 1.6316 0.56125 1.09922ZM0.09375 12.6492C0.09375 12.1168 0.511578 11.6867 1.02875 11.6867H12.2487C12.7659 11.6867 13.1838 12.1168 13.1838 12.6492C13.1838 13.1816 12.7659 13.6117 12.2487 13.6117H1.02875C0.511578 13.6117 0.09375 13.1816 0.09375 12.6492Z" fill="#2B345F"/>
</svg>
