<svg width="16" height="20" viewBox="0 0 16 20" fill="none" xmlns="http://www.w3.org/2000/svg">
<path d="M12.7948 3.6616H11.4494V2.78126C11.4494 1.2465 10.0782 0 8.38991 0H7.40438C5.71611 0 4.34493 1.2465 4.34493 2.78126V3.6616H2.99946C1.34547 3.6616 0 4.88474 0 6.38833V15.7731C0 17.1053 1.06267 18.2194 2.45956 18.4531C2.57096 19.3179 3.37653 19.9957 4.36207 19.9957C5.33047 19.9957 6.1189 19.349 6.26458 18.5077H9.52114C9.66683 19.349 10.4638 19.9957 11.4322 19.9957C12.4178 19.9957 13.2233 19.3179 13.3433 18.4531C14.7402 18.2194 15.8029 17.1053 15.8029 15.7731V6.38833C15.7943 4.88474 14.4488 3.6616 12.7948 3.6616ZM6.05891 2.78126C6.05891 2.10348 6.6588 1.55813 7.40438 1.55813H8.38991C9.12692 1.55813 9.73538 2.10348 9.73538 2.78126V3.6616H6.05891V2.78126ZM2.99946 5.21973H5.15907C5.17621 5.21973 5.18478 5.22752 5.20192 5.22752H10.5924C10.6095 5.22752 10.6181 5.21973 10.6352 5.21973H12.7948C13.5061 5.21973 14.0803 5.74171 14.0803 6.38833V8.47087H6.88161C6.72736 8.24494 6.47026 8.08913 6.16174 8.08913H4.48205C4.17353 8.08913 3.91644 8.24494 3.76218 8.47087H1.70541V6.38833C1.71398 5.74171 2.28816 5.21973 2.99946 5.21973ZM12.7948 16.9495H12.5292C12.5206 16.9495 12.512 16.9417 12.5035 16.9417H10.3524C10.3438 16.9417 10.3353 16.9495 10.3267 16.9495H5.45901C5.45044 16.9495 5.44187 16.9417 5.4333 16.9417H3.28226C3.27369 16.9417 3.26513 16.9495 3.25656 16.9495H2.99089C2.27959 16.9495 1.70541 16.4276 1.70541 15.7809V10.0368H3.76218C3.91644 10.2549 4.17353 10.4107 4.47348 10.4107H6.15317C6.46169 10.4107 6.71879 10.2549 6.86448 10.0368H14.0632V15.7809C14.0803 16.4198 13.5061 16.9495 12.7948 16.9495Z" fill="#A5A4B5"/>
</svg>
