<svg xmlns="http://www.w3.org/2000/svg" width="13.86" height="15.003" viewBox="0 0 13.86 15.003">
    <path fill="#ffae22" stroke="#ffae22" stroke-width="0.3px" d="M13.388 11.577l2.93 1.332a2.119 2.119 0 0 1 1.242 1.929v1.746a2.119 2.119 0 0 1-2.119 2.116H6.119A2.119 2.119 0 0 1 4 16.584v-1.746a2.119 2.119 0 0 1 1.242-1.929l2.93-1.332a4.238 4.238 0 1 1 5.217 0zm-4.336.531L5.593 13.68a1.271 1.271 0 0 0-.745 1.157v1.746a1.271 1.271 0 0 0 1.271 1.271h9.323a1.271 1.271 0 0 0 1.271-1.271v-1.745a1.271 1.271 0 0 0-.745-1.157l-3.46-1.573a4.249 4.249 0 0 1-3.456 0zm1.728-.48a3.39 3.39 0 1 0-3.39-3.39 3.39 3.39 0 0 0 3.39 3.39z" transform="translate(-3.85 -3.85)"/>
</svg>
