<svg width="23" height="22" viewBox="0 0 23 22" fill="none" xmlns="http://www.w3.org/2000/svg">
<path d="M11 14C12.6569 14 14 12.6569 14 11C14 9.34315 12.6569 8 11 8C9.34315 8 8 9.34315 8 11C8 12.6569 9.34315 14 11 14Z" stroke="#3698FF" stroke-width="2" stroke-linecap="round" stroke-linejoin="round"/>
<path d="M17.727 13.727C17.6059 14.0013 17.5697 14.3055 17.6232 14.6005C17.6767 14.8955 17.8173 15.1677 18.027 15.382L18.082 15.437C18.2509 15.6059 18.385 15.8065 18.4764 16.0273C18.5678 16.248 18.6149 16.4846 18.6149 16.7235C18.6149 16.9624 18.5678 17.199 18.4764 17.4197C18.385 17.6405 18.2509 17.8411 18.082 18.01C17.9131 18.1789 17.7125 18.313 17.4917 18.4044C17.271 18.4958 17.0344 18.5429 16.7955 18.5429C16.5566 18.5429 16.32 18.4958 16.0993 18.4044C15.8785 18.313 15.6779 18.1789 15.509 18.01L15.454 17.955C15.2415 17.7491 14.9732 17.6101 14.6824 17.5552C14.3917 17.5003 14.0912 17.5319 13.8182 17.6462C13.5453 17.7604 13.3118 17.9522 13.1468 18.1978C12.9818 18.4435 12.8925 18.7321 12.89 19.028V19.183C12.89 19.6652 12.6985 20.1276 12.3575 20.4685C12.0166 20.8095 11.5542 21.001 11.072 21.001C10.5898 21.001 10.1274 20.8095 9.78648 20.4685C9.44554 20.1276 9.254 19.6652 9.254 19.183V19.1C9.247 18.799 9.1496 18.5071 8.97447 18.2623C8.79933 18.0174 8.55456 17.8309 8.272 17.727C7.99775 17.6059 7.69349 17.5697 7.3985 17.6232C7.1035 17.6767 6.83129 17.8173 6.617 18.027L6.562 18.082C6.39305 18.2509 6.19249 18.385 5.97175 18.4764C5.75101 18.5678 5.51442 18.6149 5.2755 18.6149C5.03657 18.6149 4.79999 18.5678 4.57925 18.4764C4.35851 18.385 4.15795 18.2509 3.989 18.082C3.82005 17.9131 3.68604 17.7125 3.59461 17.4917C3.50317 17.271 3.45611 17.0344 3.45611 16.7955C3.45611 16.5566 3.50317 16.32 3.59461 16.0993C3.68604 15.8785 3.82005 15.6779 3.989 15.509L4.044 15.454C4.24989 15.2415 4.38889 14.9732 4.44379 14.6824C4.49868 14.3917 4.46705 14.0912 4.35282 13.8182C4.23859 13.5453 4.04678 13.3118 3.80115 13.1468C3.55553 12.9818 3.26689 12.8925 2.971 12.89H2.818C2.33584 12.89 1.87342 12.6985 1.53248 12.3575C1.19154 12.0166 1 11.5542 1 11.072C1 10.5898 1.19154 10.1274 1.53248 9.78648C1.87342 9.44554 2.33584 9.254 2.818 9.254H2.9C3.20097 9.247 3.49288 9.1496 3.73774 8.97447C3.98261 8.79933 4.16912 8.55456 4.273 8.272C4.39411 7.99775 4.43027 7.69349 4.37679 7.3985C4.32332 7.1035 4.18267 6.83129 3.973 6.617L3.918 6.562C3.74394 6.39423 3.60507 6.19345 3.5095 5.97139C3.41393 5.74933 3.36359 5.51045 3.36141 5.2687C3.35923 5.02696 3.40527 4.78721 3.49682 4.56347C3.58837 4.33972 3.7236 4.13647 3.89461 3.96559C4.06562 3.79471 4.26898 3.65964 4.49279 3.56826C4.71661 3.47689 4.9564 3.43104 5.19814 3.43341C5.43988 3.43577 5.67872 3.4863 5.90071 3.58204C6.12269 3.67778 6.32337 3.81681 6.491 3.991L6.546 4.046C6.76029 4.25567 7.0325 4.39632 7.3275 4.44979C7.62249 4.50327 7.92675 4.46711 8.201 4.346H8.274C8.54291 4.23073 8.77223 4.03933 8.93374 3.79538C9.09525 3.55143 9.18189 3.26557 9.183 2.973V2.818C9.183 2.33584 9.37454 1.87342 9.71548 1.53248C10.0564 1.19154 10.5188 1 11.001 1C11.4832 1 11.9456 1.19154 12.2865 1.53248C12.6275 1.87342 12.819 2.33584 12.819 2.818V2.9C12.8215 3.19589 12.9108 3.48453 13.0758 3.73015C13.2408 3.97578 13.4743 4.16759 13.7472 4.28182C14.0202 4.39605 14.3207 4.42768 14.6114 4.37279C14.9022 4.31789 15.1705 4.17889 15.383 3.973L15.438 3.918C15.7792 3.5768 16.242 3.38511 16.7245 3.38511C17.207 3.38511 17.6698 3.5768 18.011 3.918C18.3522 4.2592 18.5439 4.72197 18.5439 5.2045C18.5439 5.68703 18.3522 6.1498 18.011 6.491L17.956 6.546C17.7463 6.76029 17.6057 7.0325 17.5522 7.3275C17.4987 7.62249 17.5349 7.92675 17.656 8.201V8.274C17.7713 8.54291 17.9627 8.77223 18.2066 8.93374C18.4506 9.09525 18.7364 9.18189 19.029 9.183H19.184C19.6662 9.183 20.1286 9.37454 20.4695 9.71548C20.8105 10.0564 21.002 10.5188 21.002 11.001C21.002 11.4832 20.8105 11.9456 20.4695 12.2865C20.1286 12.6275 19.6662 12.819 19.184 12.819H19.1C18.8075 12.82 18.5218 12.9065 18.2778 13.0678C18.0339 13.2292 17.8424 13.4583 17.727 13.727V13.727Z" stroke="#3698FF" stroke-width="2" stroke-linecap="round" stroke-linejoin="round"/>
</svg>
