<svg width="24" height="22" viewBox="0 0 24 22" fill="none" xmlns="http://www.w3.org/2000/svg">
<path d="M23.9245 8.29384C23.7149 7.67662 23.1087 7.25475 22.2617 7.1371L16.3204 6.31049L13.6635 1.15674C13.2842 0.421431 12.678 0 11.9998 0C11.3215 0 10.7153 0.421431 10.3365 1.1563L7.67909 6.31005L1.73827 7.1371C0.890829 7.25519 0.285054 7.67662 0.0754855 8.29428C-0.134082 8.9115 0.0974971 9.5937 0.71061 10.1657L5.00973 14.1772L3.99491 19.8419C3.84725 20.6672 4.10497 21.1765 4.34755 21.4583C4.63004 21.7862 5.04 21.9781 5.50224 21.9982C5.52288 21.9996 5.54397 22 5.56507 22H18.4588C18.5028 22 18.5473 21.9969 18.5913 21.9912C19.0224 21.95 19.4039 21.7546 19.6662 21.4412C19.901 21.1602 20.1504 20.6545 20.0051 19.8415L18.9903 14.1768L23.2898 10.1648C23.9025 9.59326 24.1341 8.91106 23.9245 8.29384ZM17.0372 14.0134L18.1364 20.1483C18.1387 20.1611 18.1405 20.1734 18.1424 20.1852H15.8949V17.5662C15.8949 16.4828 15.395 15.4507 14.5426 14.7448C15.395 14.0394 15.8949 13.0068 15.8949 11.9234C15.8949 9.86762 14.1477 8.19463 11.9998 8.19463C9.85227 8.19463 8.10465 9.86719 8.10465 11.9234C8.10465 13.0068 8.60449 14.0389 9.45698 14.7448C8.60449 15.4503 8.10465 16.4828 8.10465 17.5662V20.1852H5.85718C5.85901 20.1734 5.86085 20.1611 5.86314 20.1483L6.96188 14.0134C7.01462 13.7189 6.91281 13.4191 6.68949 13.2105L2.09321 8.92116L8.44537 8.03747C8.75399 7.99445 9.02088 7.80876 9.15891 7.54098L11.9998 2.03033L14.8406 7.54098C14.9787 7.80876 15.2455 7.99445 15.5542 8.03747L21.9063 8.92116L17.3096 13.2101C17.0867 13.4191 16.9845 13.7193 17.0372 14.0134ZM11.9998 13.8374C10.8974 13.8374 10.0004 12.9787 10.0004 11.9234C10.0004 10.8681 10.8974 10.0094 11.9998 10.0094C13.1022 10.0094 13.9991 10.8681 13.9991 11.9234C13.9991 12.9787 13.1022 13.8374 11.9998 13.8374ZM10.0004 17.5662C10.0004 16.5109 10.8974 15.6522 11.9998 15.6522C13.1022 15.6522 13.9991 16.5109 13.9991 17.5662V20.1852H10.0004V17.5662V17.5662Z" fill="#3698FF"/>
</svg>
