<svg width="21" height="20" viewBox="0 0 21 20" fill="none" xmlns="http://www.w3.org/2000/svg">
<path d="M7.79011 8.95074C10.2312 8.95074 12.2174 6.94322 12.2174 4.47557C12.2174 2.00751 10.2312 0 7.79011 0C5.34906 0 3.36279 2.00751 3.36279 4.47557C3.36279 6.94322 5.34906 8.95074 7.79011 8.95074ZM7.79011 1.72664C9.28966 1.72664 10.5094 2.95967 10.5094 4.47557C10.5094 5.99106 9.28966 7.22449 7.79011 7.22449C6.29056 7.22449 5.07082 5.99146 5.07082 4.47557C5.07082 2.95967 6.29056 1.72664 7.79011 1.72664Z" fill="#3698FF"/>
<path d="M18.9431 13.5984V12.5494C18.9431 11.2534 17.9 10.1989 16.618 10.1989C15.336 10.1989 14.2928 11.2534 14.2928 12.5494V13.5984C13.3643 13.6055 12.6111 14.3712 12.6111 15.3115V18.2863C12.6111 19.2309 13.3714 19.9994 14.3058 19.9994H18.9301C19.8645 19.9994 20.6248 19.2309 20.6248 18.2863V15.3119C20.6248 14.3716 19.8716 13.6055 18.9431 13.5984ZM18.9167 15.325V18.2731H14.3192V15.325H18.9167ZM17.2351 13.5984H16.0004V12.5494C16.0004 12.2052 16.2775 11.9255 16.6176 11.9255C16.9577 11.9255 17.2347 12.2056 17.2347 12.5494V13.5984H17.2351Z" fill="#3698FF"/>
<path d="M10.7329 16.5732H1.70803V14.4617C1.70803 13.0633 2.83358 11.9255 4.21687 11.9255H11.5735C12.0141 11.9255 12.4476 12.0431 12.8268 12.2658C12.9576 12.3422 13.1062 12.3829 13.2563 12.3829C13.5598 12.3829 13.8428 12.2183 13.9945 11.9534C14.2309 11.5419 14.0922 11.0124 13.6859 10.7738C13.0467 10.3981 12.3164 10.1993 11.5735 10.1993H4.21687C1.89168 10.1989 0 12.1112 0 14.4617V17.4365C0 17.9126 0.383065 18.2998 0.854014 18.2998H10.7329C11.2039 18.2998 11.5869 17.9126 11.5869 17.4365C11.5869 16.9604 11.2039 16.5732 10.7329 16.5732Z" fill="#3698FF"/>
</svg>
