<svg width="24" height="24" viewBox="0 0 24 24" fill="none" xmlns="http://www.w3.org/2000/svg">
<mask id="path-1-outside-1_11_2270" maskUnits="userSpaceOnUse" x="-0.491394" y="0" width="25" height="24" fill="black">
<rect fill="white" x="-0.491394" width="25" height="24"/>
<path fill-rule="evenodd" clip-rule="evenodd" d="M0.719704 9.22091C0.675218 9.45294 0.630735 9.68496 0.508606 9.89471V11.3364C0.518805 11.347 0.531051 11.3572 0.543301 11.3673C0.569754 11.3892 0.596225 11.4112 0.602134 11.4376C1.36922 14.946 3.63512 16.7447 7.21591 16.7006C7.50985 16.697 7.62775 16.6585 7.62578 16.318L7.6255 16.2655C7.62019 15.251 7.62019 15.2506 6.57261 15.249H6.46965C3.63001 15.2329 1.36686 12.316 2.10644 9.57315C2.63421 7.61507 3.89527 6.39692 5.93245 6.07969C6.36865 6.012 6.6064 5.82229 6.83787 5.43067C8.03487 3.40607 9.86928 2.38078 12.1918 2.43628C14.9984 2.50358 17.1609 4.3428 17.7972 7.10065C17.9308 7.67843 18.1811 7.80596 18.7038 7.83902C20.4694 7.95119 21.9419 9.3984 22.112 11.0306C22.3376 13.1981 20.8294 14.8507 19.2296 15.168C18.7675 15.2595 18.3082 15.2529 17.8488 15.2463C17.6784 15.2438 17.508 15.2414 17.3374 15.2439L17.2982 15.2445C16.7323 15.2531 16.4494 15.2574 16.316 15.4008C16.1828 15.5441 16.1989 15.8264 16.2312 16.3908L16.2327 16.4172C16.2461 16.6486 16.316 16.7022 16.531 16.6982C16.9299 16.6907 17.3289 16.6917 17.7278 16.6926C17.9798 16.6932 18.2318 16.6938 18.4837 16.6923C20.548 16.6797 22.3851 15.4065 23.1864 13.4838C23.2809 13.257 23.3329 13.0196 23.3848 12.7831C23.447 12.4992 23.509 12.2165 23.6438 11.9543V11.2337C23.5629 11.2128 23.5535 11.151 23.546 11.0798C23.2984 8.7171 21.7682 6.98691 19.4685 6.49374C19.1855 6.43313 19.0979 6.27806 19.0075 6.03207C17.9685 3.20574 15.9651 1.45192 12.9883 1.07251C9.98481 0.689548 7.54247 1.82976 5.80041 4.34871C5.64794 4.56951 5.48407 4.67774 5.24474 4.73481C3.03976 5.25985 1.61444 6.64567 0.837919 8.74623C0.781321 8.89954 0.750512 9.06023 0.719704 9.22091ZM15.3154 18.8977L15.3151 17.721C15.3151 17.3042 15.3154 16.8874 15.3157 16.4706C15.3163 15.4808 15.317 14.4909 15.3139 13.501C15.3116 12.791 14.9504 12.4179 14.2498 12.4151C12.7081 12.4088 11.1665 12.408 9.62484 12.4155C8.91748 12.4187 8.5587 12.7733 8.55634 13.4967C8.54769 16.2758 8.54769 19.0545 8.55595 21.8336C8.5583 22.6168 8.90609 22.9801 9.67396 22.988C11.181 23.0034 12.6889 23.0026 14.1959 22.9884C14.9689 22.9809 15.3132 22.609 15.3143 21.8379C15.316 20.8585 15.3157 19.8789 15.3154 18.8992V18.8992V18.8977ZM9.53418 18.5196C9.53334 18.2441 9.53249 17.9686 9.53249 17.6931C9.53249 17.4165 9.53325 17.1399 9.53402 16.8632C9.53605 16.129 9.53808 15.3945 9.52581 14.6601C9.52109 14.376 9.58947 14.2815 9.88853 14.2851C11.2573 14.3012 12.626 14.2996 13.9947 14.2858C14.2828 14.2831 14.3716 14.3614 14.3696 14.6566C14.3574 16.6611 14.3574 18.666 14.3692 20.6706C14.3708 20.9756 14.302 21.087 13.9727 21.0823C12.6213 21.0634 11.2694 21.0626 9.918 21.0827C9.58829 21.0878 9.5207 20.9784 9.52581 20.6745C9.53859 19.9562 9.53639 19.2379 9.53418 18.5196ZM8.83575 9.92073C8.83575 9.07019 8.83654 9.04697 9.65668 9.07924C10.0705 9.09577 10.3774 8.98833 10.6352 8.6648C10.805 8.45187 11.0054 8.25783 11.2148 8.08308C11.5115 7.83552 11.6825 7.55253 11.6137 7.15265C11.5665 6.8795 11.6978 6.80511 11.9615 6.80629C12.2165 6.80747 12.3769 6.86336 12.3195 7.14281C12.2267 7.59247 12.4797 7.84147 12.7363 8.09392C12.8155 8.17181 12.895 8.25004 12.9647 8.33458C13.4029 8.86592 13.8953 9.22251 14.6302 9.07216C14.9544 9.00564 15.0617 9.18 15.0204 9.4807C15.0188 9.49232 15.0192 9.50413 15.0196 9.516C15.0198 9.52141 15.02 9.52684 15.02 9.53226L15.02 9.53384C15.03 10.2161 15.035 10.5551 14.8683 10.7139C14.7037 10.8708 14.3718 10.8521 13.7121 10.8148L13.6866 10.8134C13.4112 10.7976 13.311 10.6973 13.3467 10.4434C13.4523 9.69679 13.0024 9.3102 12.553 8.92405C12.3616 8.75957 12.1703 8.59517 12.022 8.40307C11.9302 8.28417 11.8351 8.38562 11.7595 8.46621L11.7595 8.46622C11.749 8.47741 11.7389 8.48818 11.7292 8.49792C11.585 8.64354 11.4424 8.79074 11.2997 8.93793L11.2997 8.93796C11.1085 9.13527 10.9173 9.33255 10.7224 9.52596C10.5283 9.71885 10.5477 9.94863 10.5667 10.1734V10.1734C10.5719 10.2348 10.5771 10.2958 10.5778 10.3556C10.5821 10.6796 10.4882 10.8457 10.1408 10.8087C10.0477 10.7987 9.95351 10.8013 9.8592 10.8039H9.85915C9.81614 10.8051 9.77312 10.8063 9.73017 10.8063C9.28148 10.8063 9.05788 10.8063 8.94645 10.6945C8.83575 10.5834 8.83575 10.362 8.83575 9.92073ZM11.9748 6.65867C12.5776 6.66221 13.1368 6.12025 13.1478 5.52279C13.1585 4.92769 12.6256 4.36879 12.022 4.34164C11.4011 4.31409 10.843 4.86156 10.8364 5.50468C10.8301 6.12654 11.3516 6.65513 11.9748 6.65867Z"/>
</mask>
<path fill-rule="evenodd" clip-rule="evenodd" d="M0.719704 9.22091C0.675218 9.45294 0.630735 9.68496 0.508606 9.89471V11.3364C0.518805 11.347 0.531051 11.3572 0.543301 11.3673C0.569754 11.3892 0.596225 11.4112 0.602134 11.4376C1.36922 14.946 3.63512 16.7447 7.21591 16.7006C7.50985 16.697 7.62775 16.6585 7.62578 16.318L7.6255 16.2655C7.62019 15.251 7.62019 15.2506 6.57261 15.249H6.46965C3.63001 15.2329 1.36686 12.316 2.10644 9.57315C2.63421 7.61507 3.89527 6.39692 5.93245 6.07969C6.36865 6.012 6.6064 5.82229 6.83787 5.43067C8.03487 3.40607 9.86928 2.38078 12.1918 2.43628C14.9984 2.50358 17.1609 4.3428 17.7972 7.10065C17.9308 7.67843 18.1811 7.80596 18.7038 7.83902C20.4694 7.95119 21.9419 9.3984 22.112 11.0306C22.3376 13.1981 20.8294 14.8507 19.2296 15.168C18.7675 15.2595 18.3082 15.2529 17.8488 15.2463C17.6784 15.2438 17.508 15.2414 17.3374 15.2439L17.2982 15.2445C16.7323 15.2531 16.4494 15.2574 16.316 15.4008C16.1828 15.5441 16.1989 15.8264 16.2312 16.3908L16.2327 16.4172C16.2461 16.6486 16.316 16.7022 16.531 16.6982C16.9299 16.6907 17.3289 16.6917 17.7278 16.6926C17.9798 16.6932 18.2318 16.6938 18.4837 16.6923C20.548 16.6797 22.3851 15.4065 23.1864 13.4838C23.2809 13.257 23.3329 13.0196 23.3848 12.7831C23.447 12.4992 23.509 12.2165 23.6438 11.9543V11.2337C23.5629 11.2128 23.5535 11.151 23.546 11.0798C23.2984 8.7171 21.7682 6.98691 19.4685 6.49374C19.1855 6.43313 19.0979 6.27806 19.0075 6.03207C17.9685 3.20574 15.9651 1.45192 12.9883 1.07251C9.98481 0.689548 7.54247 1.82976 5.80041 4.34871C5.64794 4.56951 5.48407 4.67774 5.24474 4.73481C3.03976 5.25985 1.61444 6.64567 0.837919 8.74623C0.781321 8.89954 0.750512 9.06023 0.719704 9.22091ZM15.3154 18.8977L15.3151 17.721C15.3151 17.3042 15.3154 16.8874 15.3157 16.4706C15.3163 15.4808 15.317 14.4909 15.3139 13.501C15.3116 12.791 14.9504 12.4179 14.2498 12.4151C12.7081 12.4088 11.1665 12.408 9.62484 12.4155C8.91748 12.4187 8.5587 12.7733 8.55634 13.4967C8.54769 16.2758 8.54769 19.0545 8.55595 21.8336C8.5583 22.6168 8.90609 22.9801 9.67396 22.988C11.181 23.0034 12.6889 23.0026 14.1959 22.9884C14.9689 22.9809 15.3132 22.609 15.3143 21.8379C15.316 20.8585 15.3157 19.8789 15.3154 18.8992V18.8992V18.8977ZM9.53418 18.5196C9.53334 18.2441 9.53249 17.9686 9.53249 17.6931C9.53249 17.4165 9.53325 17.1399 9.53402 16.8632C9.53605 16.129 9.53808 15.3945 9.52581 14.6601C9.52109 14.376 9.58947 14.2815 9.88853 14.2851C11.2573 14.3012 12.626 14.2996 13.9947 14.2858C14.2828 14.2831 14.3716 14.3614 14.3696 14.6566C14.3574 16.6611 14.3574 18.666 14.3692 20.6706C14.3708 20.9756 14.302 21.087 13.9727 21.0823C12.6213 21.0634 11.2694 21.0626 9.918 21.0827C9.58829 21.0878 9.5207 20.9784 9.52581 20.6745C9.53859 19.9562 9.53639 19.2379 9.53418 18.5196ZM8.83575 9.92073C8.83575 9.07019 8.83654 9.04697 9.65668 9.07924C10.0705 9.09577 10.3774 8.98833 10.6352 8.6648C10.805 8.45187 11.0054 8.25783 11.2148 8.08308C11.5115 7.83552 11.6825 7.55253 11.6137 7.15265C11.5665 6.8795 11.6978 6.80511 11.9615 6.80629C12.2165 6.80747 12.3769 6.86336 12.3195 7.14281C12.2267 7.59247 12.4797 7.84147 12.7363 8.09392C12.8155 8.17181 12.895 8.25004 12.9647 8.33458C13.4029 8.86592 13.8953 9.22251 14.6302 9.07216C14.9544 9.00564 15.0617 9.18 15.0204 9.4807C15.0188 9.49232 15.0192 9.50413 15.0196 9.516C15.0198 9.52141 15.02 9.52684 15.02 9.53226L15.02 9.53384C15.03 10.2161 15.035 10.5551 14.8683 10.7139C14.7037 10.8708 14.3718 10.8521 13.7121 10.8148L13.6866 10.8134C13.4112 10.7976 13.311 10.6973 13.3467 10.4434C13.4523 9.69679 13.0024 9.3102 12.553 8.92405C12.3616 8.75957 12.1703 8.59517 12.022 8.40307C11.9302 8.28417 11.8351 8.38562 11.7595 8.46621L11.7595 8.46622C11.749 8.47741 11.7389 8.48818 11.7292 8.49792C11.585 8.64354 11.4424 8.79074 11.2997 8.93793L11.2997 8.93796C11.1085 9.13527 10.9173 9.33255 10.7224 9.52596C10.5283 9.71885 10.5477 9.94863 10.5667 10.1734V10.1734C10.5719 10.2348 10.5771 10.2958 10.5778 10.3556C10.5821 10.6796 10.4882 10.8457 10.1408 10.8087C10.0477 10.7987 9.95351 10.8013 9.8592 10.8039H9.85915C9.81614 10.8051 9.77312 10.8063 9.73017 10.8063C9.28148 10.8063 9.05788 10.8063 8.94645 10.6945C8.83575 10.5834 8.83575 10.362 8.83575 9.92073ZM11.9748 6.65867C12.5776 6.66221 13.1368 6.12025 13.1478 5.52279C13.1585 4.92769 12.6256 4.36879 12.022 4.34164C11.4011 4.31409 10.843 4.86156 10.8364 5.50468C10.8301 6.12654 11.3516 6.65513 11.9748 6.65867Z" fill="#3698FF"/>
<path d="M0.508606 9.89471L0.24935 9.74376C0.222665 9.78959 0.208606 9.84168 0.208606 9.89471H0.508606ZM0.719704 9.22091L1.01434 9.2774V9.2774L0.719704 9.22091ZM0.508606 11.3364H0.208606C0.208606 11.414 0.238689 11.4886 0.292536 11.5445L0.508606 11.3364ZM0.543301 11.3673L0.734798 11.1364L0.734793 11.1364L0.543301 11.3673ZM0.602134 11.4376L0.895215 11.3735L0.894871 11.3719L0.602134 11.4376ZM7.21591 16.7006L7.21229 16.4006L7.21222 16.4006L7.21591 16.7006ZM7.62578 16.318L7.32579 16.3196L7.32579 16.3197L7.62578 16.318ZM7.6255 16.2655L7.32551 16.2671V16.2671L7.6255 16.2655ZM6.57261 15.249L6.57305 14.949H6.57261V15.249ZM6.46965 15.249L6.46794 15.549H6.46965V15.249ZM2.10644 9.57315L2.3961 9.65125L2.39611 9.65123L2.10644 9.57315ZM5.93245 6.07969L5.88644 5.78324L5.88629 5.78326L5.93245 6.07969ZM6.83787 5.43067L6.57962 5.27799L6.5796 5.27803L6.83787 5.43067ZM12.1918 2.43628L12.199 2.13636L12.1989 2.13636L12.1918 2.43628ZM17.7972 7.10065L17.5048 7.16809L17.5049 7.16824L17.7972 7.10065ZM18.7038 7.83902L18.7228 7.53962L18.7227 7.53961L18.7038 7.83902ZM22.112 11.0306L22.4104 10.9995L22.4104 10.9995L22.112 11.0306ZM19.2296 15.168L19.2879 15.4622L19.2879 15.4622L19.2296 15.168ZM17.8488 15.2463L17.8531 14.9463L17.8488 15.2463ZM17.3374 15.2439L17.3329 14.944L17.3328 14.944L17.3374 15.2439ZM17.2982 15.2445L17.3027 15.5445H17.3027L17.2982 15.2445ZM16.316 15.4008L16.5357 15.6051V15.6051L16.316 15.4008ZM16.2312 16.3908L16.5307 16.3737L16.5307 16.3737L16.2312 16.3908ZM16.2327 16.4172L15.9332 16.4343L15.9332 16.4345L16.2327 16.4172ZM16.531 16.6982L16.5365 16.9982L16.5366 16.9982L16.531 16.6982ZM17.7278 16.6926L17.7271 16.9926L17.7278 16.6926ZM18.4837 16.6923L18.4855 16.9923H18.4855L18.4837 16.6923ZM23.1864 13.4838L23.4633 13.5992L23.4634 13.5992L23.1864 13.4838ZM23.3848 12.7831L23.6778 12.8473L23.3848 12.7831ZM23.6438 11.9543L23.9106 12.0916C23.9325 12.0491 23.9438 12.0021 23.9438 11.9543H23.6438ZM23.6438 11.2337H23.9438C23.9438 11.0968 23.8512 10.9773 23.7187 10.9432L23.6438 11.2337ZM23.546 11.0798L23.2476 11.1111L23.2476 11.1111L23.546 11.0798ZM19.4685 6.49374L19.5314 6.20041L19.5313 6.2004L19.4685 6.49374ZM19.0075 6.03207L19.2891 5.9286L19.2891 5.92855L19.0075 6.03207ZM12.9883 1.07251L12.9504 1.3701L12.9504 1.3701L12.9883 1.07251ZM5.80041 4.34871L5.55367 4.17806L5.55355 4.17824L5.80041 4.34871ZM5.24474 4.73481L5.31424 5.02665L5.31433 5.02663L5.24474 4.73481ZM0.837919 8.74623L0.556531 8.64221L0.556485 8.64233L0.837919 8.74623ZM15.3151 17.721H15.0151V17.7211L15.3151 17.721ZM15.3154 18.8977H15.6154V18.8977L15.3154 18.8977ZM15.3157 16.4706L15.0157 16.4704V16.4704L15.3157 16.4706ZM15.3139 13.501L15.6139 13.5001V13.5L15.3139 13.501ZM14.2498 12.4151L14.2485 12.7151H14.2486L14.2498 12.4151ZM9.62484 12.4155L9.62617 12.7155L9.62629 12.7155L9.62484 12.4155ZM8.55634 13.4967L8.25634 13.4957L8.25634 13.4958L8.55634 13.4967ZM8.55595 21.8336L8.25595 21.8345V21.8345L8.55595 21.8336ZM9.67396 22.988L9.67089 23.288H9.67091L9.67396 22.988ZM14.1959 22.9884L14.1987 23.2884H14.1988L14.1959 22.9884ZM15.3143 21.8379L15.0143 21.8374V21.8375L15.3143 21.8379ZM15.3154 18.8992H15.0154V18.8993L15.3154 18.8992ZM9.53418 18.5196L9.83418 18.5187L9.53418 18.5196ZM9.53402 16.8632L9.83402 16.8641V16.864L9.53402 16.8632ZM9.52581 14.6601L9.22585 14.6651L9.22585 14.6652L9.52581 14.6601ZM9.88853 14.2851L9.88497 14.585H9.88499L9.88853 14.2851ZM13.9947 14.2858L13.9919 13.9859L13.9917 13.9859L13.9947 14.2858ZM14.3696 14.6566L14.0696 14.6546L14.0696 14.6548L14.3696 14.6566ZM14.3692 20.6706L14.6692 20.669L14.6692 20.6688L14.3692 20.6706ZM13.9727 21.0823L13.977 20.7823L13.9769 20.7823L13.9727 21.0823ZM9.918 21.0827L9.91354 20.7827L9.91334 20.7827L9.918 21.0827ZM9.52581 20.6745L9.22586 20.6692L9.22585 20.6695L9.52581 20.6745ZM9.65668 9.07924L9.66866 8.77948L9.66848 8.77948L9.65668 9.07924ZM10.6352 8.6648L10.4006 8.47778L10.4006 8.47785L10.6352 8.6648ZM11.2148 8.08308L11.407 8.31344L11.407 8.31343L11.2148 8.08308ZM11.6137 7.15265L11.9094 7.1018L11.9093 7.10161L11.6137 7.15265ZM11.9615 6.80629L11.9629 6.50629H11.9628L11.9615 6.80629ZM12.3195 7.14281L12.6133 7.20344L12.6133 7.20314L12.3195 7.14281ZM12.7363 8.09392L12.9467 7.88008L12.7363 8.09392ZM12.9647 8.33458L13.1962 8.14372L13.1961 8.14363L12.9647 8.33458ZM14.6302 9.07216L14.6903 9.36607L14.6905 9.36604L14.6302 9.07216ZM15.0204 9.4807L15.3175 9.5221L15.3176 9.52149L15.0204 9.4807ZM15.0196 9.516L14.7198 9.52665L14.7198 9.52667L15.0196 9.516ZM15.02 9.53226H14.72L14.72 9.53661L15.02 9.53226ZM15.02 9.53384L14.7201 9.53819L14.7201 9.53824L15.02 9.53384ZM14.8683 10.7139L15.0753 10.9311L14.8683 10.7139ZM13.7121 10.8148L13.7291 10.5153H13.729L13.7121 10.8148ZM13.6866 10.8134L13.6695 11.1129L13.6697 11.1129L13.6866 10.8134ZM13.3467 10.4434L13.0497 10.4014L13.0497 10.4016L13.3467 10.4434ZM12.553 8.92405L12.3575 9.15159L12.553 8.92405ZM12.022 8.40307L12.2595 8.21978L12.2595 8.21973L12.022 8.40307ZM11.7595 8.46621L11.5406 8.26093L11.5353 8.2669L11.7595 8.46621ZM11.7595 8.46622L11.9784 8.67151L11.9837 8.66553L11.7595 8.46622ZM11.7292 8.49792L11.5164 8.28648L11.5161 8.28681L11.7292 8.49792ZM11.2997 8.93793L11.5119 9.15009L11.5152 9.1467L11.2997 8.93793ZM11.2997 8.93796L11.0876 8.7258L11.0843 8.72919L11.2997 8.93796ZM10.7224 9.52596L10.5111 9.31301L10.511 9.31315L10.7224 9.52596ZM10.5667 10.1734H10.8667C10.8667 10.1649 10.8664 10.1565 10.8656 10.1481L10.5667 10.1734ZM10.5667 10.1734H10.2667C10.2667 10.1818 10.2671 10.1902 10.2678 10.1986L10.5667 10.1734ZM10.5778 10.3556L10.2778 10.3594L10.2778 10.3596L10.5778 10.3556ZM10.1408 10.8087L10.1088 11.1069L10.1091 11.107L10.1408 10.8087ZM9.8592 10.8039V11.104L9.86754 11.1038L9.8592 10.8039ZM9.85915 10.8039V10.5038L9.85081 10.504L9.85915 10.8039ZM8.94645 10.6945L9.15893 10.4827L8.94645 10.6945ZM13.1478 5.52279L13.4478 5.52831L13.4478 5.52813L13.1478 5.52279ZM11.9748 6.65867L11.9766 6.35868H11.9765L11.9748 6.65867ZM12.022 4.34164L12.0355 4.04194L12.0353 4.04193L12.022 4.34164ZM10.8364 5.50468L10.5364 5.50156L10.5364 5.50165L10.8364 5.50468ZM0.767862 10.0457C0.919871 9.78459 0.97139 9.50141 1.01434 9.2774L0.425071 9.16442C0.379046 9.40448 0.341599 9.58532 0.24935 9.74376L0.767862 10.0457ZM0.808606 11.3364V9.89471H0.208606V11.3364H0.808606ZM0.734793 11.1364C0.728116 11.1308 0.725074 11.1283 0.722688 11.1262C0.720499 11.1243 0.72175 11.1253 0.724676 11.1283L0.292536 11.5445C0.316546 11.5695 0.342488 11.5905 0.351808 11.5982L0.734793 11.1364ZM0.894871 11.3719C0.875223 11.2843 0.827019 11.2256 0.80063 11.197C0.773978 11.1682 0.74443 11.1444 0.734798 11.1364L0.351803 11.5982C0.359071 11.6043 0.362076 11.6068 0.364314 11.6088C0.366349 11.6106 0.364221 11.6088 0.360213 11.6045C0.356288 11.6003 0.347516 11.5903 0.338059 11.5748C0.328366 11.5589 0.316485 11.5348 0.309397 11.5032L0.894871 11.3719ZM7.21222 16.4006C5.47309 16.422 4.08403 15.9962 3.04061 15.1665C1.99718 14.3367 1.26782 13.0777 0.895211 11.3735L0.309057 11.5016C0.703536 13.3059 1.49066 14.7004 2.66715 15.6361C3.84366 16.5717 5.37794 17.0232 7.2196 17.0006L7.21222 16.4006ZM7.32579 16.3197C7.3262 16.3911 7.31974 16.424 7.31641 16.4352C7.31481 16.4406 7.32055 16.4204 7.3447 16.4011C7.36471 16.3852 7.3759 16.3875 7.35104 16.3919C7.32466 16.3967 7.28313 16.3997 7.21229 16.4006L7.21952 17.0006C7.29566 16.9996 7.3791 16.9965 7.45743 16.9824C7.53728 16.968 7.63294 16.9387 7.71893 16.8701C7.902 16.724 7.92683 16.4982 7.92578 16.3163L7.32579 16.3197ZM7.32551 16.2671L7.32579 16.3196L7.92578 16.3164L7.9255 16.2639L7.32551 16.2671ZM6.57216 15.549C6.84112 15.5494 7.01824 15.5501 7.14573 15.5641C7.27608 15.5783 7.28984 15.6013 7.2815 15.5932C7.27126 15.5833 7.29348 15.5919 7.3082 15.7146C7.32278 15.8362 7.32414 16.0059 7.32551 16.2671L7.9255 16.2639C7.92421 16.0178 7.92358 15.807 7.90393 15.6432C7.88441 15.4804 7.84016 15.2986 7.69831 15.1616C7.55836 15.0265 7.37537 14.9856 7.21091 14.9676C7.04361 14.9493 6.82788 14.9494 6.57305 14.949L6.57216 15.549ZM6.46965 15.549H6.57261V14.949H6.46965V15.549ZM1.81679 9.49505C1.02496 12.4317 3.43552 15.5318 6.46794 15.549L6.47135 14.949C3.8245 14.934 1.70877 12.2004 2.3961 9.65125L1.81679 9.49505ZM5.88629 5.78326C4.81758 5.94968 3.93539 6.35579 3.24956 6.991C2.56455 7.62545 2.09233 8.47274 1.81678 9.49508L2.39611 9.65123C2.64832 8.71548 3.07051 7.97465 3.65727 7.4312C4.2432 6.88851 5.01014 6.52693 5.97861 6.37612L5.88629 5.78326ZM6.5796 5.27803C6.47523 5.45462 6.38264 5.56274 6.28447 5.63477C6.18903 5.70479 6.06886 5.75493 5.88644 5.78324L5.97846 6.37614C6.23225 6.33676 6.44905 6.25819 6.6394 6.11853C6.82702 5.98088 6.96904 5.79834 7.09613 5.58332L6.5796 5.27803ZM12.1989 2.13636C9.76627 2.07823 7.83111 3.16124 6.57962 5.27799L7.09611 5.58335C8.23863 3.6509 9.97228 2.68333 12.1846 2.73619L12.1989 2.13636ZM18.0895 7.03321C17.4239 4.14833 15.1491 2.20711 12.199 2.13636L12.1846 2.73619C14.8477 2.80005 16.8979 4.53728 17.5048 7.16809L18.0895 7.03321ZM18.7227 7.53961C18.4712 7.52371 18.3546 7.48649 18.2843 7.43393C18.2218 7.38712 18.1493 7.29185 18.0894 7.03306L17.5049 7.16824C17.5786 7.48723 17.6981 7.74462 17.9248 7.91428C18.1438 8.07819 18.4136 8.12126 18.6848 8.13842L18.7227 7.53961ZM22.4104 10.9995C22.2248 9.21898 20.6318 7.6609 18.7228 7.53962L18.6847 8.13841C20.307 8.24148 21.659 9.57782 21.8136 11.0617L22.4104 10.9995ZM19.2879 15.4622C21.0327 15.1162 22.6528 13.3282 22.4104 10.9995L21.8136 11.0617C22.0224 13.0679 20.626 14.5852 19.1712 14.8737L19.2879 15.4622ZM17.8445 15.5463C18.299 15.5528 18.7898 15.561 19.2879 15.4622L19.1712 14.8737C18.7452 14.9581 18.3173 14.953 17.8531 14.9463L17.8445 15.5463ZM17.3419 15.5439C17.5073 15.5414 17.6733 15.5438 17.8445 15.5463L17.8531 14.9463C17.6834 14.9439 17.5086 14.9413 17.3329 14.944L17.3419 15.5439ZM17.3027 15.5445L17.342 15.5439L17.3328 14.944L17.2936 14.9446L17.3027 15.5445ZM16.5357 15.6051C16.5279 15.6136 16.5416 15.5877 16.6827 15.5697C16.8202 15.5523 17.0124 15.5489 17.3027 15.5445L17.2936 14.9446C17.0181 14.9487 16.7858 14.9518 16.6071 14.9745C16.4319 14.9968 16.2375 15.0447 16.0963 15.1965L16.5357 15.6051ZM16.5307 16.3737C16.5142 16.0841 16.5036 15.8924 16.5111 15.7541C16.5188 15.6122 16.5436 15.5967 16.5357 15.6051L16.0963 15.1965C15.9552 15.3483 15.9215 15.5455 15.912 15.7217C15.9023 15.9015 15.916 16.1332 15.9317 16.408L16.5307 16.3737ZM16.5322 16.4001L16.5307 16.3737L15.9317 16.408L15.9332 16.4343L16.5322 16.4001ZM16.5255 16.3983C16.5047 16.3987 16.4891 16.3983 16.4775 16.3975C16.4658 16.3967 16.4605 16.3956 16.4596 16.3954C16.4589 16.3953 16.4646 16.3964 16.4739 16.4008C16.4838 16.4055 16.4959 16.413 16.508 16.4239C16.5201 16.4349 16.5287 16.4463 16.5343 16.4557C16.5396 16.4646 16.5412 16.4701 16.5409 16.4693C16.5406 16.4683 16.539 16.4627 16.5371 16.4505C16.5353 16.4384 16.5335 16.422 16.5322 16.3999L15.9332 16.4345C15.9403 16.5577 15.9632 16.7396 16.1045 16.868C16.2447 16.9954 16.4258 17.0002 16.5365 16.9982L16.5255 16.3983ZM17.7285 16.3926C17.3301 16.3917 16.9279 16.3907 16.5254 16.3983L16.5366 16.9982C16.9318 16.9908 17.3276 16.9917 17.7271 16.9926L17.7285 16.3926ZM18.4819 16.3923C18.2314 16.3938 17.9807 16.3932 17.7285 16.3926L17.7271 16.9926C17.9789 16.9932 18.2321 16.9938 18.4855 16.9923L18.4819 16.3923ZM22.9095 13.3684C22.1527 15.1843 20.4211 16.3805 18.4819 16.3923L18.4855 16.9923C20.6749 16.979 22.6175 15.6287 23.4633 13.5992L22.9095 13.3684ZM23.0918 12.7189C23.039 12.9596 22.9919 13.1705 22.9095 13.3685L23.4634 13.5992C23.5699 13.3434 23.6269 13.0797 23.6778 12.8473L23.0918 12.7189ZM23.3771 11.8171C23.2214 12.1197 23.1526 12.4412 23.0918 12.7189L23.6778 12.8473C23.7414 12.5573 23.7966 12.3133 23.9106 12.0916L23.3771 11.8171ZM23.3438 11.2337V11.9543H23.9438V11.2337H23.3438ZM23.2476 11.1111C23.2505 11.1385 23.2574 11.2262 23.2988 11.3092C23.3527 11.4178 23.4482 11.4931 23.569 11.5242L23.7187 10.9432C23.7323 10.9467 23.7564 10.9555 23.7821 10.976C23.8084 10.9969 23.8257 11.0213 23.836 11.042C23.8407 11.0516 23.8436 11.0595 23.8452 11.0646C23.8467 11.0696 23.8473 11.0725 23.8473 11.0726C23.8473 11.0727 23.847 11.071 23.8464 11.0667C23.8458 11.0622 23.8452 11.0567 23.8444 11.0485L23.2476 11.1111ZM19.4056 6.78707C21.5755 7.25241 23.0133 8.87454 23.2476 11.1111L23.8444 11.0485C23.5836 8.55967 21.9609 6.7214 19.5314 6.20041L19.4056 6.78707ZM18.7259 6.13553C18.7723 6.26164 18.8325 6.40909 18.9416 6.53181C19.0603 6.66525 19.2142 6.74607 19.4056 6.78709L19.5313 6.2004C19.4399 6.1808 19.4084 6.15378 19.39 6.13304C19.362 6.10157 19.3332 6.04849 19.2891 5.9286L18.7259 6.13553ZM12.9504 1.3701C15.8051 1.73396 17.7216 3.40352 18.726 6.13558L19.2891 5.92855C18.2154 3.00795 16.1251 1.16989 13.0263 0.774913L12.9504 1.3701ZM6.04715 4.51935C7.7283 2.08848 10.0629 1.00193 12.9504 1.3701L13.0263 0.774915C9.90676 0.377166 7.35664 1.57104 5.55367 4.17806L6.04715 4.51935ZM5.31433 5.02663C5.62641 4.95221 5.85313 4.80032 6.04727 4.51918L5.55355 4.17824C5.44275 4.33869 5.34173 4.40327 5.17516 4.443L5.31433 5.02663ZM1.11931 8.85025C1.86448 6.83447 3.21612 5.52625 5.31424 5.02665L5.17525 4.44297C2.8634 4.99346 1.36439 6.45686 0.556531 8.64221L1.11931 8.85025ZM1.01434 9.2774C1.04594 9.11258 1.07273 8.97641 1.11935 8.85013L0.556485 8.64233C0.489907 8.82268 0.455085 9.00788 0.425071 9.16443L1.01434 9.2774ZM15.0151 17.7211L15.0154 18.8978L15.6154 18.8977L15.6151 17.721L15.0151 17.7211ZM15.0157 16.4704C15.0154 16.8872 15.0151 17.3041 15.0151 17.721H15.6151C15.6151 17.3044 15.6154 16.8876 15.6157 16.4708L15.0157 16.4704ZM15.0139 13.502C15.017 14.4912 15.0163 15.4805 15.0157 16.4704L15.6157 16.4708C15.6163 15.4811 15.617 14.4906 15.6139 13.5001L15.0139 13.502ZM14.2486 12.7151C14.5479 12.7163 14.7248 12.7957 14.8291 12.9025C14.9346 13.0105 15.0129 13.1945 15.0139 13.502L15.6139 13.5C15.6126 13.0976 15.5092 12.74 15.2583 12.4832C15.0063 12.2253 14.6523 12.1167 14.2509 12.1151L14.2486 12.7151ZM9.62629 12.7155C11.1669 12.708 12.7076 12.7088 14.2485 12.7151L14.251 12.1151C12.7086 12.1088 11.1661 12.108 9.62338 12.1155L9.62629 12.7155ZM8.85634 13.4977C8.85737 13.1816 8.93596 13.0011 9.03898 12.8975C9.14173 12.7941 9.3188 12.7169 9.62617 12.7155L9.6235 12.1155C9.22353 12.1173 8.86752 12.2189 8.61345 12.4745C8.35965 12.7298 8.25767 13.0884 8.25634 13.4957L8.85634 13.4977ZM8.85594 21.8327C8.84769 19.0542 8.84769 16.2761 8.85634 13.4976L8.25634 13.4958C8.24769 16.2755 8.24769 19.0548 8.25595 21.8345L8.85594 21.8327ZM9.67704 22.688C9.33472 22.6845 9.149 22.6022 9.04367 22.4932C8.93668 22.3824 8.85701 22.1867 8.85594 21.8327L8.25595 21.8345C8.25724 22.2638 8.35264 22.6413 8.6121 22.91C8.87322 23.1803 9.24533 23.2836 9.67089 23.288L9.67704 22.688ZM14.1931 22.6884C12.6878 22.7026 11.1819 22.7033 9.67702 22.688L9.67091 23.288C11.1801 23.3034 12.6899 23.3026 14.1987 23.2884L14.1931 22.6884ZM15.0143 21.8375C15.0138 22.1848 14.9354 22.3801 14.8282 22.4917C14.7229 22.6013 14.5367 22.6851 14.193 22.6884L14.1988 23.2884C14.6282 23.2842 15.0006 23.1783 15.2609 22.9073C15.5194 22.6383 15.6137 22.2621 15.6143 21.8384L15.0143 21.8375ZM15.0154 18.8993C15.0157 19.879 15.016 20.8584 15.0143 21.8374L15.6143 21.8385C15.616 20.8587 15.6157 19.8787 15.6154 18.8991L15.0154 18.8993ZM15.0154 18.8992V18.8992H15.6154V18.8992H15.0154ZM15.0154 18.8977V18.8992H15.6154V18.8977H15.0154ZM9.23249 17.6931C9.23249 17.9692 9.23334 18.2451 9.23418 18.5206L9.83418 18.5187C9.83333 18.2431 9.83249 17.9681 9.83249 17.6931H9.23249ZM9.23402 16.8624C9.23326 17.139 9.23249 17.416 9.23249 17.6931H9.83249C9.83249 17.417 9.83325 17.1408 9.83402 16.8641L9.23402 16.8624ZM9.22585 14.6652C9.23807 15.3962 9.23605 16.1276 9.23402 16.8624L9.83402 16.864C9.83605 16.1303 9.8381 15.3929 9.82577 14.6551L9.22585 14.6652ZM9.89208 13.9851C9.73353 13.9832 9.52055 14.0003 9.37227 14.1618C9.23062 14.3161 9.22351 14.5241 9.22585 14.6651L9.82577 14.6552C9.82474 14.5933 9.82833 14.5602 9.83182 14.5438C9.83475 14.5301 9.83385 14.5462 9.81424 14.5676C9.7935 14.5902 9.77448 14.5941 9.78173 14.5922C9.79298 14.5893 9.82296 14.5843 9.88497 14.585L9.89208 13.9851ZM13.9917 13.9859C12.6247 13.9996 11.2582 14.0012 9.89206 13.9851L9.88499 14.585C11.2563 14.6012 12.6272 14.5996 13.9977 14.5858L13.9917 13.9859ZM14.6696 14.6586C14.6707 14.503 14.6541 14.2936 14.4996 14.144C14.3476 13.9968 14.14 13.9844 13.9919 13.9859L13.9976 14.5858C14.0589 14.5852 14.091 14.5895 14.1059 14.593C14.1178 14.5958 14.1021 14.5943 14.0822 14.575C14.0619 14.5553 14.0593 14.5387 14.0618 14.5485C14.0652 14.5617 14.07 14.5929 14.0696 14.6546L14.6696 14.6586ZM14.6692 20.6688C14.6574 18.6655 14.6574 16.6617 14.6696 14.6584L14.0696 14.6548C14.0574 16.6605 14.0574 18.6666 14.0692 20.6723L14.6692 20.6688ZM13.9684 21.3822C14.1462 21.3848 14.3675 21.3626 14.5192 21.192C14.6609 21.0327 14.67 20.8187 14.6692 20.669L14.0692 20.6721C14.0696 20.7401 14.0656 20.7793 14.0609 20.8016C14.0566 20.8216 14.0552 20.8108 14.0709 20.7932C14.0883 20.7736 14.1039 20.7709 14.0941 20.7736C14.0798 20.7775 14.0454 20.7833 13.977 20.7823L13.9684 21.3822ZM9.92245 21.3826C11.2708 21.3626 12.6198 21.3634 13.9685 21.3822L13.9769 20.7823C12.6228 20.7634 11.2681 20.7626 9.91354 20.7827L9.92245 21.3826ZM9.22585 20.6695C9.22336 20.8177 9.2296 21.0333 9.37207 21.1937C9.52395 21.3647 9.74663 21.3854 9.92265 21.3826L9.91334 20.7827C9.84446 20.7838 9.80984 20.7781 9.7955 20.7742C9.78552 20.7715 9.80218 20.7744 9.82063 20.7952C9.83748 20.8142 9.83644 20.8265 9.83254 20.8073C9.82817 20.7859 9.82463 20.7473 9.82577 20.6796L9.22585 20.6695ZM9.23418 18.5206C9.23639 19.2394 9.23857 19.9545 9.22586 20.6692L9.82576 20.6798C9.83861 19.9579 9.83638 19.2365 9.83418 18.5187L9.23418 18.5206ZM9.66848 8.77948C9.46938 8.77164 9.29365 8.76563 9.15413 8.77884C9.01498 8.79202 8.84798 8.82886 8.7212 8.96228C8.59889 9.09099 8.56491 9.25737 8.55037 9.39419C8.5354 9.53506 8.53575 9.71492 8.53575 9.92073H9.13575C9.13575 9.70126 9.13621 9.55927 9.14701 9.45759C9.15825 9.35185 9.17573 9.35497 9.15613 9.37559C9.13206 9.40092 9.11904 9.38485 9.2107 9.37617C9.30198 9.36752 9.43391 9.37071 9.64488 9.37901L9.66848 8.77948ZM10.4006 8.47785C10.2993 8.60488 10.1984 8.67823 10.0916 8.72158C9.98207 8.76604 9.84743 8.78662 9.66866 8.77948L9.6447 9.379C9.87973 9.38839 10.1055 9.36352 10.3173 9.27751C10.5319 9.19038 10.7132 9.04825 10.8698 8.85175L10.4006 8.47785ZM11.0226 7.85273C10.8022 8.03664 10.5863 8.24495 10.4006 8.47778L10.8698 8.85182C11.0237 8.65879 11.2085 8.47903 11.407 8.31344L11.0226 7.85273ZM11.318 7.20349C11.3426 7.34633 11.3235 7.45443 11.2798 7.54746C11.2336 7.64583 11.1512 7.74541 11.0226 7.85274L11.407 8.31343C11.5751 8.17318 11.7266 8.00749 11.8229 7.8025C11.9216 7.59218 11.9536 7.35885 11.9094 7.1018L11.318 7.20349ZM11.9628 6.50629C11.8251 6.50568 11.6234 6.51912 11.473 6.65119C11.2961 6.80663 11.2877 7.02794 11.3181 7.20368L11.9093 7.10161C11.9056 7.07976 11.9044 7.06457 11.9043 7.05494C11.9041 7.04532 11.905 7.04315 11.9043 7.04643C11.9035 7.05013 11.901 7.05914 11.8944 7.0707C11.8877 7.08256 11.8788 7.09334 11.869 7.102C11.8499 7.11873 11.8385 7.11797 11.8559 7.11402C11.8639 7.11218 11.8764 7.11008 11.8944 7.10854C11.9124 7.10701 11.934 7.10617 11.9601 7.10629L11.9628 6.50629ZM12.6133 7.20314C12.6529 7.01049 12.6363 6.78057 12.4387 6.63101C12.2864 6.51574 12.088 6.50687 11.9629 6.50629L11.9601 7.10629C12.0152 7.10654 12.0519 7.10989 12.0755 7.1145C12.1 7.11928 12.0936 7.12226 12.0766 7.10939C12.067 7.10218 12.0565 7.0917 12.0476 7.07801C12.0387 7.0644 12.0342 7.05209 12.0323 7.04409C12.029 7.03065 12.0347 7.03839 12.0256 7.08247L12.6133 7.20314ZM12.9467 7.88008C12.8121 7.74761 12.7179 7.65196 12.6588 7.5461C12.6085 7.45596 12.5821 7.35442 12.6133 7.20344L12.0257 7.08217C11.964 7.38086 12.0178 7.62865 12.1349 7.83854C12.2433 8.03271 12.404 8.18779 12.5259 8.30776L12.9467 7.88008ZM13.1961 8.14363C13.1148 8.04505 13.0239 7.95601 12.9467 7.88008L12.5259 8.30776C12.6071 8.38761 12.6752 8.45502 12.7334 8.52554L13.1961 8.14363ZM14.57 8.77825C14.2678 8.84008 14.0301 8.79703 13.8219 8.69144C13.6052 8.58155 13.4037 8.3953 13.1962 8.14372L12.7333 8.52545C12.964 8.80521 13.2278 9.06292 13.5505 9.22657C13.8817 9.39452 14.2577 9.45459 14.6903 9.36607L14.57 8.77825ZM15.3176 9.52149C15.3414 9.34787 15.3387 9.11759 15.1905 8.94397C15.0246 8.74958 14.7782 8.73555 14.5699 8.77828L14.6905 9.36604C14.7455 9.35476 14.769 9.3586 14.7714 9.35909C14.7716 9.35914 14.7662 9.35798 14.7579 9.35322C14.7493 9.3483 14.7409 9.34145 14.7342 9.33348C14.7206 9.31755 14.7232 9.30965 14.7263 9.32858C14.7295 9.34818 14.7309 9.38406 14.7232 9.43992L15.3176 9.52149ZM15.3194 9.50535C15.3193 9.50211 15.3193 9.50076 15.3192 9.49968C15.3192 9.49877 15.3192 9.49925 15.3192 9.50054C15.3192 9.50296 15.3191 9.51095 15.3175 9.5221L14.7233 9.43931C14.7174 9.48121 14.7196 9.5194 14.7198 9.52665L15.3194 9.50535ZM15.32 9.53226C15.32 9.52062 15.3196 9.50987 15.3194 9.50533L14.7198 9.52667C14.7199 9.52959 14.72 9.53097 14.72 9.53212C14.72 9.53313 14.72 9.53303 14.72 9.53226H15.32ZM15.32 9.52949L15.32 9.52791L14.72 9.53661L14.7201 9.53819L15.32 9.52949ZM15.0753 10.9311C15.2406 10.7735 15.2892 10.5548 15.309 10.349C15.3294 10.1385 15.3249 9.8631 15.32 9.52944L14.7201 9.53824C14.7252 9.88684 14.7282 10.1221 14.7118 10.2913C14.695 10.4653 14.6627 10.4955 14.6614 10.4968L15.0753 10.9311ZM13.6952 11.1143C14.0176 11.1325 14.2856 11.1481 14.4924 11.1367C14.695 11.1255 14.9121 11.0866 15.0753 10.9311L14.6614 10.4968C14.6599 10.4981 14.6288 10.5283 14.4594 10.5376C14.2941 10.5467 14.0663 10.5343 13.7291 10.5153L13.6952 11.1143ZM13.6697 11.1129L13.6952 11.1143L13.729 10.5153L13.7035 10.5139L13.6697 11.1129ZM13.0497 10.4016C13.0272 10.5607 13.0328 10.7644 13.1809 10.9227C13.3188 11.07 13.5147 11.104 13.6695 11.1129L13.7038 10.5139C13.6499 10.5108 13.62 10.5042 13.6057 10.4995C13.593 10.4954 13.6038 10.4964 13.619 10.5127C13.6264 10.5206 13.6321 10.5292 13.636 10.5373C13.6398 10.5451 13.6407 10.5499 13.6407 10.5498C13.6403 10.5476 13.6376 10.5291 13.6438 10.4853L13.0497 10.4016ZM12.3575 9.15159C12.5889 9.35041 12.7787 9.51635 12.9067 9.71249C13.0249 9.89365 13.0917 10.1043 13.0497 10.4014L13.6438 10.4854C13.7073 10.0359 13.6019 9.67994 13.4092 9.38461C13.2263 9.10426 12.9665 8.88384 12.7485 8.69652L12.3575 9.15159ZM11.7845 8.58635C11.9548 8.80701 12.1707 8.99112 12.3575 9.15159L12.7485 8.69652C12.5524 8.52803 12.3857 8.38333 12.2595 8.21978L11.7845 8.58635ZM11.9783 8.67142C11.9988 8.64964 12.0105 8.63738 12.0208 8.62806C12.032 8.61793 12.0277 8.62426 12.0101 8.63235C11.9888 8.64214 11.9396 8.65787 11.8778 8.64189C11.8177 8.62634 11.7888 8.59187 11.7845 8.5864L12.2595 8.21973C12.2093 8.15481 12.1341 8.08844 12.028 8.061C11.9202 8.03311 11.8252 8.05694 11.7592 8.08731C11.65 8.1376 11.5652 8.2348 11.5407 8.261L11.9783 8.67142ZM11.9837 8.66553L11.9837 8.66552L11.5353 8.2669L11.5353 8.26691L11.9837 8.66553ZM11.9421 8.70936C11.9553 8.69598 11.9685 8.68189 11.9783 8.67143L11.5407 8.26101C11.5295 8.27292 11.5225 8.28039 11.5164 8.28648L11.9421 8.70936ZM11.5152 9.1467C11.658 8.99932 11.7995 8.85329 11.9424 8.70902L11.5161 8.28681C11.3705 8.43379 11.2267 8.58217 11.0843 8.72916L11.5152 9.1467ZM11.5118 9.15009L11.5119 9.15006L11.0876 8.7258L11.0876 8.72583L11.5118 9.15009ZM10.9337 9.73891C11.1311 9.54309 11.3243 9.34369 11.5152 9.14673L11.0843 8.72919C10.8927 8.92686 10.7036 9.12202 10.5111 9.31301L10.9337 9.73891ZM10.8656 10.1481C10.8453 9.90682 10.8511 9.82097 10.9339 9.73878L10.511 9.31315C10.2055 9.61672 10.2502 9.99044 10.2678 10.1986L10.8656 10.1481ZM10.8667 10.1734V10.1734H10.2667V10.1734H10.8667ZM10.8778 10.3518C10.8769 10.2794 10.8707 10.2075 10.8656 10.1481L10.2678 10.1986C10.2731 10.2621 10.2772 10.3123 10.2778 10.3594L10.8778 10.3518ZM10.1091 11.107C10.3231 11.1298 10.558 11.1005 10.7189 10.9128C10.862 10.7459 10.8801 10.5237 10.8778 10.3516L10.2778 10.3596C10.2788 10.4279 10.2741 10.4734 10.2675 10.5024C10.2612 10.5306 10.2559 10.5311 10.2635 10.5222C10.2737 10.5102 10.2842 10.5078 10.2786 10.5093C10.2682 10.512 10.2369 10.5172 10.1726 10.5103L10.1091 11.107ZM9.86754 11.1038C9.96537 11.1011 10.0392 11.0995 10.1088 11.1069L10.1729 10.5104C10.0562 10.4978 9.94164 10.5015 9.85085 10.504L9.86754 11.1038ZM9.85915 11.1039H9.8592V10.5039H9.85915V11.1039ZM9.73017 11.1063C9.77799 11.1063 9.82519 11.105 9.8675 11.1038L9.85081 10.504C9.80709 10.5052 9.76824 10.5063 9.73017 10.5063V11.1063ZM8.73396 10.9063C8.86417 11.0369 9.03464 11.0745 9.17874 11.0905C9.32516 11.1067 9.51316 11.1063 9.73017 11.1063V10.5063C9.49848 10.5063 9.35034 10.5058 9.24493 10.4942C9.13721 10.4822 9.14015 10.4639 9.15893 10.4827L8.73396 10.9063ZM8.53575 9.92073C8.53575 10.1341 8.53531 10.3197 8.55143 10.4646C8.56732 10.6074 8.60466 10.7765 8.73396 10.9063L9.15893 10.4827C9.17754 10.5014 9.15954 10.5043 9.14775 10.3983C9.1362 10.2944 9.13575 10.1487 9.13575 9.92073H8.53575ZM12.8479 5.51726C12.84 5.9484 12.4173 6.36127 11.9766 6.35868L11.973 6.95867C12.7379 6.96316 13.4337 6.29209 13.4478 5.52831L12.8479 5.51726ZM12.0085 4.64133C12.4539 4.66138 12.8555 5.08899 12.8479 5.51744L13.4478 5.52813C13.4614 4.76638 12.7972 4.07621 12.0355 4.04194L12.0085 4.64133ZM11.1363 5.5078C11.1414 5.02403 11.5674 4.62176 12.0087 4.64134L12.0353 4.04193C11.2347 4.00641 10.5447 4.6991 10.5364 5.50156L11.1363 5.5078ZM11.9765 6.35868C11.5188 6.35608 11.1317 5.96275 11.1363 5.50771L10.5364 5.50165C10.5284 6.29034 11.1843 6.95418 11.9731 6.95867L11.9765 6.35868Z" fill="#3698FF" mask="url(#path-1-outside-1_11_2270)"/>
</svg>
