<svg width="23" height="21" viewBox="0 0 23 21" fill="none" xmlns="http://www.w3.org/2000/svg">
<path d="M18 9.61082V5.72727C18 4.37381 16.8989 3.27273 15.5455 3.27273H13.9091V2.45455C13.9091 1.10109 12.808 0 11.4545 0H6.54545C5.19199 0 4.09091 1.10109 4.09091 2.45455V3.27273H2.45455C1.10109 3.27273 0 4.37381 0 5.72727V14.4545C0 15.808 1.10109 16.9091 2.45455 16.9091H11.6958C12.402 19.2716 14.5925 21 17.1818 21C20.3399 21 22.9091 18.4304 22.9091 15.2727C22.9091 12.3936 20.7709 10.0096 18 9.61082ZM5.72727 2.45455C5.72727 2.00309 6.09436 1.63636 6.54545 1.63636H11.4545C11.9056 1.63636 12.2727 2.00309 12.2727 2.45455V3.27273H5.72727V2.45455ZM2.45455 15.2727C2.00345 15.2727 1.63636 14.906 1.63636 14.4545V5.72727C1.63636 5.27581 2.00345 4.90909 2.45455 4.90909H15.5455C15.9965 4.90909 16.3636 5.27581 16.3636 5.72727V9.61082C13.5928 10.0099 11.4545 12.3936 11.4545 15.2726L2.45455 15.2727ZM17.1818 19.3636C14.9263 19.3636 13.0909 17.5282 13.0909 15.2727C13.0909 13.0173 14.9263 11.1818 17.1818 11.1818C19.4373 11.1818 21.2727 13.0173 21.2727 15.2727C21.2727 17.5282 19.4373 19.3636 17.1818 19.3636Z" fill="#3698FF"/>
<path d="M16.7727 13.6363H15.9545C15.7286 13.6363 15.5454 13.8194 15.5454 14.0454V16.0908C15.5454 16.5426 15.9118 16.909 16.3636 16.909H18.409C18.635 16.909 18.8181 16.7258 18.8181 16.4999V15.6817C18.8181 15.4558 18.635 15.2726 18.409 15.2726H17.1818V14.0454C17.1818 13.8194 16.9986 13.6363 16.7727 13.6363Z" fill="#3698FF"/>
</svg>
