<svg width="21" height="25" viewBox="0 0 21 25" fill="none" xmlns="http://www.w3.org/2000/svg">
<path d="M8.25297 16.3385C7.90288 15.9884 7.33516 15.9884 6.98501 16.3385L6.1785 17.145L5.37199 16.3385C5.02191 15.9883 4.45425 15.9883 4.10404 16.3385C3.75389 16.6886 3.75389 17.2563 4.10404 17.6064L4.91061 18.413L4.10404 19.2196C3.75389 19.5696 3.75389 20.1374 4.10404 20.4875C4.45413 20.8375 5.02173 20.8378 5.37199 20.4875L6.1785 19.6809L6.98501 20.4875C7.33504 20.8376 7.90276 20.8377 8.25297 20.4875C8.60311 20.1374 8.60311 19.5697 8.25297 19.2196L7.4464 18.413L8.25297 17.6064C8.60311 17.2563 8.60311 16.6886 8.25297 16.3385Z" fill="#3698FF"/>
<path d="M20.1034 3.82937H15.238V2.80528C15.238 2.31013 14.8365 1.9087 14.3414 1.9087H13.171C12.3058 -0.636173 8.69318 -0.636293 7.82887 1.9087H6.65865C6.16349 1.9087 5.76206 2.31013 5.76206 2.80528V3.82937H0.896586C0.401432 3.82937 0 4.2308 0 4.72595V23.6949C0 24.19 0.401432 24.5914 0.896586 24.5914H20.1034C20.5986 24.5914 21 24.19 21 23.6949V4.72595C21 4.23074 20.5986 3.82937 20.1034 3.82937ZM7.55524 3.70187H8.57932C9.07447 3.70187 9.4759 3.29948 9.4759 2.80427C9.53215 1.44648 11.4683 1.44743 11.5241 2.80528C11.5241 3.30044 11.9256 3.70187 12.4207 3.70187H13.4448V5.75009H7.55524V3.70187ZM19.2069 22.7983H1.79317V5.62254H5.76206V6.64668C5.76206 7.14183 6.16349 7.54327 6.65865 7.54327H14.3414C14.8365 7.54327 15.238 7.14183 15.238 6.64668V5.62254H19.2069V22.7983Z" fill="#3698FF"/>
<path d="M7.94537 9.61604L5.69829 11.8631L5.37193 11.5368C5.02184 11.1867 4.45413 11.1867 4.10398 11.5368C3.75383 11.8868 3.75383 12.4546 4.10398 12.8047L5.06428 13.765C5.41455 14.1153 5.98215 14.115 6.33224 13.765L9.21327 10.884C9.56341 10.5339 9.56341 9.96618 9.21327 9.61604C8.86318 9.26595 8.29546 9.26595 7.94537 9.61604Z" fill="#3698FF"/>
<path d="M16.2621 11.2741H12.4207C11.2311 11.3215 11.232 13.0204 12.4207 13.0673H16.2621C17.4517 13.02 17.4508 11.3211 16.2621 11.2741Z" fill="#3698FF"/>
<path d="M16.2621 17.5164H12.4207C11.2311 17.5638 11.232 19.2627 12.4207 19.3096H16.2621C17.4517 19.2622 17.4508 17.5633 16.2621 17.5164Z" fill="#3698FF"/>
</svg>
