<svg width="21" height="21" viewBox="0 0 21 21" fill="none" xmlns="http://www.w3.org/2000/svg">
<path d="M17.9496 0H14.0779C12.0538 0 11.0275 0.983539 11.0275 2.92365V11.3633C11.0275 13.3034 12.0538 14.2869 14.0779 14.2869H17.9496C19.9738 14.2869 21 13.3034 21 11.3633V2.92365C21 0.983539 19.9738 0 17.9496 0ZM12.849 2.92365C12.849 2.09025 12.9443 1.82054 14.0784 1.82054H17.9501C19.0842 1.82054 19.1795 2.09025 19.1795 2.92365V11.3633C19.1795 12.1967 19.0842 12.4664 17.9501 12.4664H14.0784C12.9443 12.4664 12.849 12.1967 12.849 11.3633V2.92365Z" fill="#3698FF"/>
<path d="M6.24665 0H2.75294C0.926166 0 0 0.98356 0 2.92371V18.0763C0 20.0164 0.926166 21 2.75294 21H6.24706C8.07383 21 9 20.0164 9 18.0763V2.92371C8.99959 0.98356 8.07343 0 6.24665 0ZM1.643 2.92371C1.643 2.09029 1.72901 1.82058 2.75254 1.82058H6.24665C7.27018 1.82058 7.35619 2.09029 7.35619 2.92371V18.0763C7.35619 18.9097 7.27018 19.1794 6.24665 19.1794H2.75294C1.72941 19.1794 1.64341 18.9097 1.64341 18.0763V2.92371H1.643Z" fill="#3698FF"/>
</svg>
