<svg width="254" height="181" viewBox="0 0 254 181" fill="none" xmlns="http://www.w3.org/2000/svg">
<g clip-path="url(#clip0_1_142)">
<path d="M206.822 117.931L202.876 106.329L196.287 108.579L182.827 68.9957L167.822 74.1198L167.867 74.2544L163.028 95.1937L156.141 124.982L160.158 133.872L174.327 129.033L179.485 127.27L185.227 125.308L189.915 139.098L204.92 133.974L200.232 120.184L206.822 117.931ZM179.538 114.3L176.134 115.463L169.616 117.69L174.065 95.5486L174.483 93.7114L181.281 113.705L179.538 114.3Z" fill="#99A8FF"/>
<path opacity="0.25" d="M200.232 120.184L204.92 133.974L195.363 129.876L180.087 74.7108L174.483 93.7118L171.889 104.474L163.028 95.1928L167.868 74.254L167.823 74.1194L182.827 68.9957L196.286 108.579L202.876 106.329L206.822 117.931L200.232 120.184Z" fill="#010101"/>
<path opacity="0.25" d="M179.485 127.27L174.327 129.032L175.085 118.378V116.436L176.134 115.463L176.81 114.838L179.538 114.3C179.538 114.3 179.369 122.126 179.485 127.27Z" fill="#010101"/>
<path d="M179.539 114.3C179.539 114.3 178.25 112.677 175.999 112.865C173.749 113.053 172.493 113.899 172.417 116.248C172.342 118.598 172.901 130.44 172.387 135.139C171.874 139.839 175.07 140.309 175.253 136.831C175.437 133.354 174.079 122.452 175.086 120.666C176.093 118.88 175.48 122.64 176.537 123.862C177.594 125.083 178.718 122.922 177.594 120.008C176.468 117.094 179.539 114.3 179.539 114.3Z" fill="#6561AB"/>
<path d="M42.128 96.7556C41.7426 96.7556 41.4572 96.7345 41.334 96.6829C41.1902 96.6222 40.7516 96.439 36.9225 89.5883L37.6109 89.202C39.0409 91.7602 41.2096 95.4836 41.6688 95.9598C42.0855 96.0273 44.3756 95.8673 46.4047 95.663L46.4841 96.4502C45.2064 96.5784 43.246 96.7556 42.128 96.7556Z" fill="#F26647"/>
<path d="M56.0083 100.078V100.307C56.0083 100.307 55.7993 104.655 52.5513 104.468C52.5431 104.468 52.5354 104.466 52.5272 104.466C50.5187 104.335 48.0325 103.396 46.3656 102.698C45.318 102.259 44.5919 101.915 44.5112 101.929C44.3 101.962 46.9712 113.1 46.9356 113.735C46.9317 113.82 46.912 113.911 46.8823 114.004C46.6931 114.607 46.0322 115.331 45.6356 115.39C45.594 115.397 45.5094 115.319 45.3893 115.169C44.1816 113.664 39.401 104.923 39.2705 102.069C39.1306 98.9326 40.7126 97.0438 42.8576 96.6838C44.4399 96.4188 49.0668 97.0576 51.3848 97.4116C52.2079 97.5381 52.7384 97.6271 52.7384 97.6271L56.0083 100.078Z" fill="#0A2533"/>
<path opacity="0.25" d="M46.936 113.735C46.9321 113.82 46.9124 113.911 46.8828 114.004C46.6935 114.607 46.0326 115.331 45.636 115.39C45.5944 115.397 45.5099 115.319 45.3897 115.169C47.0905 112.762 42.6447 101.045 43.6116 101.011C44.0889 100.995 45.1446 101.808 46.3661 102.698C45.3184 102.259 44.5923 101.915 44.5116 101.929C44.3 101.962 46.9716 113.1 46.936 113.735Z" fill="#010101"/>
<path opacity="0.25" d="M56.0083 100.078V100.307C56.0083 100.307 55.7993 104.655 52.5513 104.468C53.1903 103.956 53.3088 103.054 53.2611 101.962C53.2062 100.698 52.0397 98.5352 51.3848 97.412C52.2079 97.5385 52.7384 97.6275 52.7384 97.6275L56.0083 100.078Z" fill="#010101"/>
<path d="M49.0964 85.799C48.9883 85.9694 48.9171 86.1117 48.9171 86.2201C48.9171 86.2201 48.9132 86.2137 48.9055 86.2004C48.8677 86.1333 48.7317 85.898 48.5565 85.6248C48.2604 85.1663 47.8518 84.5963 47.6051 84.527C47.2085 84.4182 46.1532 85.7547 44.7266 85.8618C44.6318 85.8704 44.5374 85.8717 44.4404 85.8683C42.87 85.7969 41.2044 83.5643 42.5421 80.9339C43.0099 81.8971 43.9708 81.9207 43.9708 81.9207C43.9708 81.9207 43.3846 81.8024 43.3631 81.0742C45.0734 81.3787 45.9639 80.0874 47.4416 80.558C48.9171 81.0264 48.8248 81.9203 48.8248 81.9203C48.8248 81.9203 49.9492 81.4733 50.3003 82.8834C50.5822 84.0113 49.5308 85.1228 49.0964 85.799Z" fill="#0A2533"/>
<path d="M48.9055 86.2008C48.805 86.5565 48.6132 86.9445 48.3548 87.2586C48.0415 87.6427 47.627 87.9231 47.1592 87.9115C46.1609 87.8879 45.1682 86.5449 44.7266 85.8623C46.1532 85.7556 47.2085 84.4191 47.6051 84.5275C47.8518 84.5967 48.26 85.1663 48.5565 85.6252C48.7312 85.8984 48.8677 86.1337 48.9055 86.2008Z" fill="url(#paint0_linear_1_142)"/>
<path d="M50.3475 86.3367C50.3475 86.3367 49.5977 88.0535 49.3158 87.6775C49.1638 87.4741 48.7256 87.3399 48.3548 87.2581C48.6136 86.9441 48.805 86.5561 48.9055 86.2004C48.9136 86.2137 48.9171 86.2201 48.9171 86.2201C48.9171 86.1113 48.9883 85.9689 49.0964 85.799C49.6411 86.2107 50.3475 86.3367 50.3475 86.3367Z" fill="url(#paint1_linear_1_142)"/>
<path d="M55.6216 100.835C54.4259 100.659 51.1921 97.135 51.1921 95.6183C51.1921 95.4045 51.1685 95.167 51.129 94.9085C50.8805 93.3302 49.9711 91.0164 49.5921 89.381C49.1522 87.4784 49.7853 86.7664 49.7853 86.7664C51.2573 84.2294 54.5886 89.2584 56.4885 93.2907L56.4907 93.2928C57.1297 94.6513 57.5524 95.9129 57.5915 96.7577C57.7275 99.6127 56.8173 101.011 55.6216 100.835Z" fill="#5462AD"/>
<path opacity="0.25" d="M55.6216 100.835C54.4259 100.659 51.1921 97.135 51.1921 95.6183C51.1921 95.4045 51.1685 95.167 51.129 94.9085L51.1213 94.2323L52.2929 88.0776C52.2929 88.0776 53.9109 90.006 54.1693 93.4589C54.4259 96.9117 58.2189 97.6632 56.4902 93.2928C57.1293 94.6513 57.552 95.9129 57.5911 96.7577C57.7275 99.6127 56.8173 101.011 55.6216 100.835Z" fill="#010101"/>
<path d="M53.1135 93.2231C53.0822 93.2502 53.0268 93.2722 52.9538 93.2924C52.3994 93.446 50.7835 93.4227 50.1106 93.2902C50.0102 93.2704 49.929 93.2468 49.878 93.2231C49.4342 93.0115 49.878 92.4936 49.7381 91.5778C49.5977 90.6602 49.2462 87.9825 50.6058 87.1596C52.0281 86.2993 53.0659 89.556 53.1135 91.1782C53.1611 92.8003 53.4195 92.9642 53.1135 93.2231Z" fill="#5462AD"/>
<path d="M52.9538 93.2924C52.9538 93.2924 52.889 97.2533 52.135 99.1223C52.135 99.1245 52.135 99.1245 52.135 99.1262C51.9002 99.7078 51.5985 100.085 51.2097 100.078C49.5741 100.042 45.9004 96.1482 45.5652 96.0058C45.2317 95.8652 43.5606 96.1125 43.6138 95.8652C43.667 95.6183 44.318 95.072 45.0202 94.8091C45.7249 94.5446 45.6004 94.7024 50.1187 96.7831C50.0574 96.3835 50.0831 94.6551 50.1029 93.6761C50.105 93.5277 50.1093 93.3973 50.111 93.2907C50.7839 93.4227 52.3994 93.4464 52.9538 93.2924Z" fill="url(#paint2_linear_1_142)"/>
<path d="M48.2836 116.413C48.3982 117.118 43.6666 121.946 43.9129 120.678C44.1575 119.409 45.6356 115.39 45.6356 115.39C46.0322 115.33 46.6931 114.607 46.8823 114.004C47.2695 114.676 48.187 115.827 48.2836 116.413Z" fill="#5462AD"/>
<path opacity="0.25" d="M52.5513 101.587C52.5513 101.587 44.9562 100.158 43.4558 100.849C41.9555 101.54 46.2008 113.57 46.2008 113.57" stroke="white" stroke-width="0.4597" stroke-miterlimit="10"/>
<path opacity="0.25" d="M52.135 99.1223C52.2792 98.327 52.3878 96.0153 51.9891 95.1016C51.7208 94.4844 50.7226 93.9544 50.1024 93.6761C50.1046 93.5277 50.1089 93.3973 50.1106 93.2907C50.7835 93.4232 52.3994 93.4464 52.9538 93.2928C52.9538 93.2924 52.889 97.2533 52.135 99.1223Z" fill="#010101"/>
<path d="M174.882 72.3316C174.728 72.9248 174.472 73.6883 174.073 74.7104C173.505 76.1759 172.647 78.1732 171.382 80.9576C171.35 82.3719 170.901 91.3915 170.778 93.4679C170.762 93.7213 170.753 93.8714 170.749 93.8912C170.731 93.9819 170.405 94.1561 170.05 94.2452C169.715 94.3321 169.356 94.3437 169.202 94.1381C168.884 93.7152 166.739 85.1852 166.635 83.1768C166.529 81.1675 166.424 81.6261 168.884 73.6268C168.286 73.9077 164.411 73.8028 164.411 73.8028C164.411 73.8028 165.121 83.5996 165.125 83.6706C165.125 83.6805 165.119 83.7042 165.106 83.7377C165.061 83.8723 164.918 84.1713 164.764 84.3214C164.695 84.3903 164.624 84.4298 164.559 84.41C164.521 84.4006 164.43 84.3171 164.299 84.1769C163.555 83.3854 161.515 80.724 160.41 78.242C159.109 75.3169 158.791 73.2719 160.023 71.2291C161.254 69.1846 167.489 69.028 167.489 69.028C167.884 69.1385 168.791 69.2474 169.689 69.4612C169.953 69.5227 170.217 69.5958 170.466 69.6788C171.832 70.1335 174.434 70.7108 174.995 70.3869C175.119 70.823 175.146 71.3332 174.882 72.3316Z" fill="#6561AB"/>
<path d="M180.05 65.5209C179.803 65.6611 176.938 65.5545 175.002 64.8146C175.012 65.1566 175.055 65.6947 175.105 66.306C175.182 67.2691 175.271 68.4142 175.249 69.2487C175.237 69.844 175.168 70.2828 175.002 70.3839C175 70.386 174.998 70.3877 174.994 70.3877C174.697 70.5598 173.824 70.4768 172.865 70.2948C172.246 70.1761 171.591 70.0161 171.032 69.8556C170.829 69.7963 170.638 69.7373 170.466 69.6797C169.369 69.3119 168 69.1712 167.489 69.0289C167.36 68.9932 167.287 68.9596 167.283 68.92C167.268 68.726 167.759 68.2873 167.99 67.8283C168.017 67.7711 168.054 67.6859 168.096 67.5771C168.284 67.0966 168.578 66.1868 168.72 65.6074C168.804 65.2654 168.836 65.04 168.761 65.0791C168.533 65.2017 167.178 67.7392 167.021 67.7392C166.966 67.7392 166.693 67.5831 166.369 67.3633C165.825 66.9933 165.14 66.4496 165.124 66.1907C165.121 66.155 165.13 66.1253 165.156 66.1016C165.474 65.8009 167.899 61.7131 168.778 60.8412C169.191 60.4296 169.678 60.1826 170.075 60.0364C170.519 59.8703 170.854 59.8325 170.854 59.8325C171.377 59.8144 171.904 59.8841 172.417 60.0145C174.161 60.4515 175.761 61.5553 176.673 62.1007C177.851 62.8049 178.66 62.6113 178.958 62.7873C179.258 62.9658 180.294 65.3785 180.05 65.5209Z" fill="#99A8FF"/>
<path opacity="0.25" d="M175.249 69.2487C173.627 69.2685 170.022 69.1239 168.096 67.5775C168.284 67.097 168.578 66.1872 168.72 65.6078C168.72 65.6078 172.526 66.7645 175.105 66.306C175.182 67.2691 175.271 68.4142 175.249 69.2487Z" fill="#010101"/>
<path opacity="0.25" d="M172.418 60.0153C172.355 60.6915 172.116 61.4193 171.382 61.3621C170.346 61.2813 170.123 60.4326 170.076 60.0373C170.52 59.8712 170.855 59.8334 170.855 59.8334C171.378 59.8153 171.905 59.8845 172.418 60.0153Z" fill="#010101"/>
<path d="M171.98 58.5416C171.98 58.5416 171.804 57.8198 171.451 57.4481C171.165 57.9149 170.062 58.154 169.211 58.2155C168.809 58.2452 168.462 58.2353 168.286 58.1897C167.688 55.8621 169.553 54.8414 170.591 54.7704C171.626 54.699 172.56 55.4724 172.278 56.6532C173.209 57.5729 171.98 58.5416 171.98 58.5416Z" fill="#321212"/>
<path d="M171.98 58.5416C171.926 58.696 171.844 58.967 171.702 59.22H171.699C171.467 59.6411 171.076 60.0149 170.399 59.74C170.376 59.7301 170.352 59.7202 170.33 59.7086C169.76 59.4492 169.464 58.9451 169.314 58.5476C169.267 58.4229 169.234 58.3085 169.212 58.2155C170.062 58.154 171.165 57.9148 171.451 57.4481C171.467 57.4662 171.483 57.4838 171.499 57.5015C171.82 57.8852 171.98 58.5416 171.98 58.5416Z" fill="url(#paint3_linear_1_142)"/>
<path d="M171.891 60.3392C171.787 60.9918 170.713 60.9565 170.596 60.5332C170.535 60.3138 170.466 60.1022 170.413 59.9478C170.366 59.8037 170.33 59.7103 170.33 59.7103V59.7086C170.352 59.7202 170.375 59.7301 170.399 59.74C171.076 60.0149 171.466 59.6415 171.699 59.2199H171.701C171.628 59.3662 171.823 59.5503 171.889 59.8962C171.913 60.0209 171.919 60.1676 171.891 60.3392Z" fill="url(#paint4_linear_1_142)"/>
<path d="M166.317 86.1733C166.212 86.9841 162.028 90.1561 162.099 89.5926C162.167 89.0287 164.299 84.1778 164.299 84.1778C164.431 84.318 164.522 84.4014 164.559 84.4109C164.77 84.4724 165.038 83.9343 165.105 83.7386C165.668 84.4466 166.412 85.4493 166.317 86.1733Z" fill="#262166"/>
<path d="M169.201 100.742C168.217 98.6259 169.201 94.1385 169.201 94.1385C169.517 94.5618 170.713 94.0675 170.748 93.8916C170.752 93.8718 170.762 93.7212 170.778 93.4683C170.778 93.4683 170.935 95.6183 171.123 97.4395C171.311 99.2608 170.186 102.856 169.201 100.742Z" fill="#262166"/>
<path opacity="0.25" d="M168.884 73.6272C168.286 73.9081 164.411 73.8032 164.411 73.8032C164.411 73.8032 165.121 83.6 165.125 83.671C165.125 83.6809 165.119 83.7046 165.105 83.7381C165.06 83.8728 164.918 84.1717 164.764 84.3218C164.05 80.9696 162.625 74.5422 163.761 73.4388C165.216 72.0288 169.154 71.6533 169.211 71.9617C169.269 72.2722 168.884 73.6272 168.884 73.6272Z" fill="#010101"/>
<path d="M166.096 68.9975C166.039 69.1162 166.009 69.2151 166.027 69.2805C166.112 69.6087 165.662 73.7202 165.826 74.1434C165.989 74.5667 166.084 75.9054 165.989 76.7519C165.894 77.5985 164.137 78.1147 164.137 77.3868C164.137 76.6573 164.348 74.9427 164.419 74.2841C164.49 73.6277 163.833 68.8693 164.009 68.2107C164.123 67.7814 164.563 67.054 164.855 66.601C165.011 66.358 165.125 66.1915 165.125 66.1915C165.151 66.6045 166.878 67.7401 167.021 67.7401C167.021 67.7397 166.327 68.5191 166.096 68.9975Z" fill="url(#paint5_linear_1_142)"/>
<path opacity="0.25" d="M174.882 72.3316C174.107 72.2744 173.235 71.9342 172.627 71.3229C171.92 70.6149 170.742 69.9584 169.689 69.462C169.953 69.5235 170.217 69.5967 170.466 69.6797C171.832 70.1344 174.434 70.7116 174.995 70.3877C175.119 70.8231 175.146 71.3332 174.882 72.3316Z" fill="#010101"/>
<path opacity="0.25" d="M174.073 74.7108C173.505 76.1764 172.647 78.1736 171.382 80.958C171.35 82.3724 170.901 91.3919 170.778 93.4683C170.762 93.7217 170.753 93.8718 170.749 93.8916C170.731 93.9824 170.405 94.1566 170.05 94.2456C170.131 91.204 170.025 84.583 170.538 82.6133C171.151 80.256 173.901 75.0352 174.073 74.7108Z" fill="#010101"/>
<path opacity="0.25" d="M171.032 69.8556C170.829 69.7963 170.638 69.7373 170.466 69.6797C169.369 69.3119 168 69.1712 167.489 69.0289C167.36 68.9932 167.287 68.9596 167.283 68.92C167.268 68.726 167.759 68.2873 167.99 67.8283C168.218 67.3693 168.99 64.9548 168.761 65.0791C168.533 65.2017 167.178 67.7392 167.021 67.7392C166.966 67.7392 166.693 67.5831 166.369 67.3633C166.403 67.3061 166.44 67.2484 166.482 67.1874C167.325 65.9416 168.708 64.3913 168.942 63.0522C169.13 62.0655 169.412 62.629 169.364 63.8988C169.322 65.0383 169.261 68.5269 171.032 69.8556Z" fill="#010101"/>
<path opacity="0.25" d="M175.002 70.3839C175 70.386 174.998 70.3877 174.994 70.3877C174.697 70.5598 173.824 70.4768 172.865 70.2948C174.58 68.5725 173.644 63.907 173.913 64.1466C174.228 64.4275 175.002 64.815 175.002 64.815C175.038 66.0844 175.549 70.0496 175.002 70.3839Z" fill="#010101"/>
<path opacity="0.25" d="M167.021 67.7397C167.021 67.7397 166.327 68.5191 166.096 68.9975C166.09 68.8925 166.082 68.7957 166.072 68.7088C166.019 68.2047 165.236 67.1086 164.855 66.6006C165.01 66.3576 165.125 66.1911 165.125 66.1911C165.151 66.6045 166.877 67.7397 167.021 67.7397Z" fill="#010101"/>
<path opacity="0.25" d="M171.498 57.5015C171.076 58.4371 169.835 58.5455 169.314 58.5476C169.267 58.4229 169.233 58.3085 169.211 58.2155C170.062 58.154 171.165 57.9148 171.451 57.4481C171.467 57.4662 171.483 57.4838 171.498 57.5015Z" fill="#010101"/>
<path opacity="0.25" d="M171.889 59.8966C171.81 59.9581 171.714 60.0037 171.593 60.0312C171.027 60.1598 170.628 60.0493 170.413 59.9482C170.366 59.8041 170.33 59.7108 170.33 59.7108V59.709C170.352 59.7207 170.376 59.7306 170.399 59.7404C171.076 60.0153 171.467 59.6419 171.699 59.2204H171.702C171.629 59.3666 171.824 59.5503 171.889 59.8966Z" fill="#010101"/>
<path d="M177.5 13.5V74.7108" stroke="#0A2533" stroke-width="0.9195" stroke-miterlimit="10"/>
<path d="M181.192 64.2631C181.188 64.2868 181.182 64.3104 181.178 64.3324C180.945 65.3944 180.097 65.5071 179.937 65.4379C179.777 65.3686 179.355 64.8821 178.986 63.1679C178.978 63.134 178.972 63.1004 178.964 63.0651C178.964 63.0651 178.167 61.0163 177.792 60.0312C176.867 59.4815 176.692 59.7052 176.561 59.0703C176.433 58.4353 176.843 57.6146 177.078 57.4959C177.313 57.3793 178.367 58.3661 178.509 58.73C178.649 59.0935 181.403 63.1357 181.192 64.2631Z" fill="url(#paint6_linear_1_142)"/>
<path opacity="0.25" d="M181.178 64.3324C180.945 65.3944 180.097 65.5071 179.937 65.4379C179.777 65.3686 179.355 64.8821 178.986 63.1679C179.221 63.6441 179.582 64.2614 179.979 64.5165C180.414 64.7948 180.904 64.7062 181.178 64.3324Z" fill="#010101"/>
<path d="M150.112 119.852L147.851 108.277C146.178 99.7159 142.952 93.4709 138.173 89.5388C133.392 85.6093 127.487 84.3339 120.457 85.7143C113.426 87.0947 108.441 90.4921 105.503 95.9043C102.563 101.319 101.931 108.322 103.61 116.913L105.879 128.531C107.547 137.063 110.769 143.294 115.549 147.224C117.568 148.883 119.79 150.069 122.215 150.78C125.531 151.755 129.229 151.84 133.307 151.04C135.42 150.627 137.35 150.028 139.092 149.244C143.125 147.433 146.167 144.639 148.219 140.858C151.16 135.443 151.789 128.44 150.112 119.852ZM135.997 135.388C135.223 137.761 133.588 139.193 131.089 139.683C128.503 140.191 126.401 139.463 124.78 137.498C123.675 136.159 122.73 134.172 121.946 131.536C121.946 131.533 121.946 131.531 121.946 131.531C121.944 131.527 121.944 131.523 121.942 131.518C121.579 130.295 121.251 128.933 120.959 127.432L117.785 111.182C117.041 106.914 117.039 103.62 117.777 101.298C118.515 98.9765 120.148 97.566 122.676 97.0718C124.604 96.6919 126.267 97.0184 127.664 98.0469H127.666C128.141 98.3988 128.587 98.8298 129.001 99.3443C130.633 101.367 131.896 104.666 132.788 109.236L135.86 124.96C136.725 129.538 136.77 133.012 135.997 135.388Z" fill="#99A8FF"/>
<path opacity="0.25" d="M137.131 137.559C137.783 138.564 138.648 145.394 139.093 149.245C137.35 150.028 135.42 150.627 133.307 151.041C129.229 151.84 125.532 151.755 122.215 150.78C122.351 150.473 122.475 150.153 122.581 149.825C124.651 143.486 122.065 132.05 121.946 131.536C122.73 134.172 123.675 136.159 124.78 137.498C126.402 139.463 128.503 140.191 131.09 139.683C133.588 139.192 135.224 137.761 135.997 135.388C136.771 133.013 136.725 129.538 135.861 124.96L132.789 109.236C131.897 104.666 130.634 101.367 129.003 99.3439C128.588 98.8298 128.143 98.3988 127.667 98.0465C132.657 99.0273 136.71 114.512 138.399 121.982C140.085 129.453 140.227 132.908 137.131 137.559Z" fill="#010101"/>
<path d="M123.047 134.574C123.047 134.574 123.371 135.422 125.07 135.891C126.77 136.361 128.364 133.726 129.489 134.574C130.615 135.422 132.416 138.936 134 138.401C135.585 137.865 136.053 146.324 135.303 147.264C134.553 148.204 134.014 140.607 132.033 140.834C130.052 141.061 131.552 146.794 130.427 147.828C129.302 148.862 129.771 145.29 128.552 144.632C127.333 143.975 129.865 173.392 127.989 173.862C126.114 174.332 124.895 172.546 125.645 166.249C126.395 159.952 125.457 138.241 124.332 137.114C123.207 135.986 123.278 135.774 123.047 134.574Z" fill="#6561AB"/>
<path d="M122.582 -13.0674V89.5569" stroke="#0A2533" stroke-width="0.9195" stroke-miterlimit="10"/>
<path d="M146.925 49.8717C146.925 49.8717 145.431 45.7659 145.553 45.4484C145.676 45.1314 147.318 44.5322 147.438 44.7081C147.558 44.8845 148.595 48.0741 148.419 48.303C148.243 48.5322 146.925 49.8717 146.925 49.8717Z" fill="#262166"/>
<path d="M122.064 44.4874C122.064 44.4874 122.976 44.8664 123.381 45.8536C123.787 46.8404 123.629 43.2808 123.629 43.2808L123.189 42.8756L122.064 44.4874Z" fill="url(#paint7_linear_1_142)"/>
<path d="M121.589 44.4874C121.589 44.4874 122.732 45.3422 122.926 45.3951C123.119 45.448 123.492 43.2099 123.323 42.8576C123.154 42.5048 122.535 42.1525 122.133 42.3818C121.73 42.6111 121.402 44.3489 121.589 44.4874Z" fill="url(#paint8_linear_1_142)"/>
<path d="M124.631 44.7434C124.631 44.7434 123.721 42.6287 123.323 42.2588C122.926 41.8889 122.187 42.3646 122.134 42.5582C122.081 42.7517 123.017 42.8928 123.323 43.2103C123.629 43.5278 122.802 45.8713 123.594 46.6997C124.385 47.5278 124.631 44.7434 124.631 44.7434Z" fill="url(#paint9_linear_1_142)"/>
<path d="M145.8 50.3471C145.8 50.3471 146.608 49.9066 146.784 49.6773C146.96 49.448 146.643 48.5847 147.153 47.7919C147.663 46.9987 148.753 47.228 149.017 48.1795C149.281 49.131 148.595 50.3294 148.279 50.6994C147.962 51.0693 145.8 52.62 145.8 52.62" fill="url(#paint10_linear_1_142)"/>
<path d="M146.379 52.1856C146.355 52.3262 146.211 52.5671 145.931 52.8958C144.905 54.0981 142.078 56.4514 136.981 59.1412C136.881 59.5525 136.802 59.9719 136.743 60.3908C136.554 61.7295 136.557 63.0823 136.621 64.2984C136.636 64.6111 136.656 64.9157 136.678 65.2082C136.771 66.4896 136.897 67.5478 136.863 68.1608C136.848 68.4296 136.8 68.6116 136.71 68.6925C136.595 68.7931 136.475 68.8843 136.348 68.9656C133.803 70.6032 129.17 68.1569 128.42 67.4209C128.361 67.3637 128.325 67.316 128.318 67.2824C128.188 66.7882 128.693 66.2599 128.975 65.4134C129.022 65.2693 129.07 64.9466 129.117 64.5057C129.251 63.2024 129.368 60.8709 129.409 59.1167C129.433 57.997 129.427 57.1135 129.376 56.8799C129.374 56.876 129.374 56.8717 129.374 56.8717C129.234 56.2962 124.966 49.8335 123.685 47.5433C123.451 47.126 123.317 46.8473 123.324 46.7681C123.371 46.252 124.356 44.4191 124.567 44.4427C124.602 44.4466 124.733 44.6109 124.93 44.8836C125.919 46.2601 128.578 50.4211 129.068 50.951C129.525 51.4474 131.855 53.9058 132.854 54.9597C133.136 55.2543 133.312 55.4401 133.312 55.4401C133.852 55.4302 134.394 55.3808 134.937 55.296C139.734 54.5544 144.447 51.1885 145.681 50.2529C145.884 50.0989 145.993 50.0115 145.993 50.0115C145.993 50.0115 146.485 51.5274 146.379 52.1856Z" fill="#99A8FF"/>
<path d="M134.409 57.5664C132.773 57.8314 132.769 55.6978 132.854 54.9601C133.136 55.2547 133.311 55.4406 133.311 55.4406C133.852 55.4307 134.394 55.3812 134.937 55.2965C135.14 56.137 134.977 57.4757 134.409 57.5664Z" fill="#C54527"/>
<path d="M136.066 52.9925C135.748 53.1844 135.333 53.2498 134.805 53.113C134.398 53.0102 133.922 52.7869 133.368 52.4088C133.368 52.4088 132.93 52.9371 132.894 53.9058C131.734 52.9013 131.452 51.8965 132.437 51.5266C132.032 49.7646 132.894 49.3947 134.335 49.3078C135.777 49.2188 136.111 50.6998 136.972 50.6645C137.025 51.4543 136.802 52.5555 136.066 52.9925Z" fill="#262166"/>
<path d="M136.066 52.9925C136.05 53.1349 136.026 53.2988 135.993 53.4752C135.799 54.5058 135.294 55.9434 134.533 55.8643C134.493 55.8626 134.452 55.8544 134.408 55.8406C133.724 55.6251 133.311 54.9588 133.096 54.4684C132.954 54.1501 132.895 53.9066 132.895 53.9066C132.906 53.6004 132.958 53.3371 133.023 53.1216C133.163 52.6566 133.368 52.4097 133.368 52.4097C133.923 52.7874 134.398 53.011 134.805 53.1138C135.333 53.2498 135.748 53.1844 136.066 52.9925Z" fill="url(#paint11_linear_1_142)"/>
<path d="M134.533 56.4712C134.524 56.845 134.473 57.1375 134.225 57.1552C133.721 57.1909 133.053 56.5323 133.088 55.8165C133.1 55.5735 133.104 55.3145 133.104 55.0771C133.104 54.8375 133.1 54.6203 133.096 54.468C133.311 54.9584 133.724 55.6247 134.408 55.8402C134.452 55.854 134.493 55.8621 134.533 55.8638C134.53 56.072 134.539 56.2815 134.533 56.4712Z" fill="url(#paint12_linear_1_142)"/>
<path d="M146.379 52.1856C146.355 52.3262 146.211 52.5671 145.931 52.8958C145.945 52.0552 145.761 50.7798 145.681 50.2533C145.884 50.0993 145.993 50.012 145.993 50.012C145.993 50.012 146.485 51.5274 146.379 52.1856Z" fill="#C54527"/>
<path d="M124.929 44.8845C124.18 45.5271 123.814 46.9277 123.685 47.5446C123.45 47.1273 123.316 46.8486 123.323 46.7694C123.371 46.2532 124.355 44.4203 124.566 44.444C124.602 44.4474 124.732 44.6113 124.929 44.8845Z" fill="#C54527"/>
<path opacity="0.25" d="M136.677 65.2082C135 65.4512 131.845 65.6672 129.116 64.5062C129.251 63.2028 129.367 60.8713 129.409 59.1171C130.76 59.6905 133.678 60.7109 136.743 60.3904C136.504 62.0741 136.571 63.7805 136.677 65.2082Z" fill="#010101"/>
<path opacity="0.25" d="M136.348 68.9661C133.605 70.7301 128.44 67.7539 128.318 67.2828C128.187 66.7886 128.692 66.2604 128.974 65.4138C129.022 65.2697 129.069 64.9471 129.116 64.5062C129.251 63.2028 129.367 60.8713 129.409 59.1171C129.432 57.9974 129.426 57.1139 129.375 56.8803C129.434 57.0623 130.362 60.0089 130.837 62.8763C131.33 65.8366 131.224 67.2471 132.666 68.1982C133.51 68.754 135.051 69.0469 136.348 68.9661Z" fill="#010101"/>
<path d="M142.616 77.1038C142.616 78.3259 138.208 85.0974 137.295 86.4873C137.19 86.6477 137.131 86.7368 137.131 86.7368C137.131 86.7368 136.563 86.6714 136.095 86.5131C135.77 86.4 135.492 86.246 135.492 86.0326C135.492 85.9887 135.5 85.9216 135.514 85.8326C135.67 84.8892 136.638 81.4759 137.881 76.9631C137.227 76.1643 132.631 73.1089 132.631 73.1089C132.631 73.1089 132.629 73.1128 132.627 73.1205C132.428 73.5812 126.049 88.3658 125.325 89.7444C125.299 89.7939 125.281 89.8253 125.269 89.8395C124.942 90.2628 123.582 90.3084 123.488 89.4162C123.488 89.4145 123.488 89.4145 123.488 89.4123C123.097 85.6751 126.313 74.402 127.811 69.4169C128.079 68.523 128.292 67.8309 128.42 67.4213C129.17 68.1569 133.803 70.6032 136.348 68.966C136.475 68.8847 136.595 68.794 136.71 68.6929C136.8 68.612 136.848 68.4301 136.863 68.1612C136.911 68.2124 136.96 68.2679 137.009 68.3273C138.784 70.3619 142.616 75.9269 142.616 77.1038Z" fill="#9DC2E7"/>
<path d="M125.774 91.8131C125.599 92.6932 120.956 95.3017 121.378 93.7234C121.722 92.4437 123.012 90.2112 123.487 89.4123C123.487 89.4145 123.487 89.4145 123.487 89.4162C123.582 90.3084 124.942 90.2632 125.269 89.8395C125.281 89.8257 125.299 89.7943 125.324 89.7444C125.561 90.4249 125.889 91.2435 125.774 91.8131Z" fill="#262166"/>
<path d="M138.82 91.0375C138.467 91.2139 133.897 89.4515 134.002 88.8523C134.108 88.2531 135.513 85.8326 135.513 85.8326C135.499 85.9216 135.491 85.9887 135.491 86.0326C135.491 86.5484 137.13 86.7368 137.13 86.7368C137.13 86.7368 137.19 86.6477 137.294 86.4873C137.498 88.3167 139.15 90.8719 138.82 91.0375Z" fill="#262166"/>
<path opacity="0.25" d="M132.033 72.6043C132.033 72.6043 126.969 82.5715 125.07 89.4123" stroke="#010101" stroke-width="0.4597" stroke-miterlimit="10"/>
<path opacity="0.25" d="M133.228 72.6043C133.228 72.6043 138.854 76.305 139.066 76.9042C139.277 77.5034 136.147 85.833 136.147 85.833" stroke="#010101" stroke-width="0.4597" stroke-miterlimit="10"/>
<path opacity="0.25" d="M137.009 68.3268C136.39 70.8067 132.802 70.1326 130.967 69.656C129.9 69.379 128.677 69.3691 127.811 69.4164C128.079 68.5226 128.292 67.8304 128.42 67.4209C129.17 68.1565 133.803 70.6028 136.348 68.9656C136.475 68.8843 136.595 68.7936 136.71 68.6925C136.8 68.6116 136.848 68.4296 136.863 68.1608C136.91 68.2124 136.96 68.2679 137.009 68.3268Z" fill="#010101"/>
<path opacity="0.25" d="M136.095 86.5135C135.77 86.4004 135.492 86.2464 135.492 86.033C135.492 85.9892 135.5 85.922 135.514 85.833C135.67 84.8897 136.638 81.4764 137.881 76.9636C137.227 76.1648 132.631 73.1093 132.631 73.1093C132.631 73.1093 133.006 71.8417 133.428 71.747C133.85 71.6541 138.726 75.8585 139.265 76.7287C139.74 77.4931 136.419 83.7347 136.095 86.5135Z" fill="#010101"/>
<path opacity="0.25" d="M136.066 52.9925C136.05 53.1349 136.026 53.2988 135.993 53.4752C134.764 54.1023 133.558 52.6901 133.414 52.7078C133.331 52.7177 133.161 52.9315 133.023 53.1212C133.163 52.6562 133.368 52.4092 133.368 52.4092C133.923 52.7869 134.398 53.0106 134.805 53.1134C135.333 53.2498 135.748 53.1844 136.066 52.9925Z" fill="#010101"/>
<path opacity="0.25" d="M134.533 56.4712C133.721 56.2734 133.273 55.4586 133.104 55.0771C133.104 54.8375 133.1 54.6203 133.096 54.468C133.311 54.9584 133.724 55.6247 134.408 55.8402C134.452 55.854 134.493 55.8621 134.533 55.8638C134.53 56.072 134.539 56.2815 134.533 56.4712Z" fill="#010101"/>
<path opacity="0.25" d="M136.743 60.3908C136.554 61.7295 136.557 63.0823 136.621 64.2984C136.301 62.9477 136.021 61.4959 136.348 60.6558C136.912 59.2083 136.973 59.1412 136.981 59.1412C136.881 59.5525 136.802 59.9714 136.743 60.3908Z" fill="#010101"/>
<path d="M97.265 73.8763L82.0843 71.2618L82.0607 71.3982L48.5359 109.23L47.8437 118.687L52.6521 119.515L60.9746 120.949L72.146 122.874L73.2078 123.055L72.4086 127.721L72.0378 129.879L70.8164 137.008L80.6973 138.71L85.9975 139.622L88.3885 125.67L95.0574 126.817L97.0697 115.076L90.4008 113.929L97.265 73.8763ZM78.3141 93.2627L75.218 111.314L71.5147 110.676L63.4149 109.282L67.8998 103.916L68.9259 102.688L77.4772 92.4583L78.6866 91.0861L78.3141 93.2627Z" fill="#99A8FF"/>
<path opacity="0.25" d="M72.146 122.874L60.9746 120.949C62.2905 116.592 63.9325 110.588 63.4153 109.281L71.5151 110.675C72.034 111.542 72.4443 112.734 72.555 114.37C72.752 117.265 72.3215 120.222 72.146 122.874Z" fill="#010101"/>
<path d="M63.8986 109.366C63.8986 109.366 65.1166 107.672 67.8594 108.201C70.6023 108.73 70.8134 112.114 69.6177 115.849C68.4221 119.585 68.141 132.626 68.7032 136.855C69.2662 141.084 68.9143 143.058 67.5783 143.199C66.2423 143.34 65.6088 138.124 66.3826 134.459C67.1564 130.793 67.0861 127.41 65.82 127.973C64.5539 128.538 65.6088 129.947 64.9758 131.216C64.3428 132.485 62.4441 131.709 62.5145 129.313C62.5849 126.916 66.4084 111.34 63.8986 109.366Z" fill="#9DC2E7"/>
<path opacity="0.25" d="M90.4008 113.929L97.0697 115.076L95.0574 126.817L88.3884 125.67L85.9971 139.622L80.6973 138.71L90.0124 80.4539L97.265 73.8763L90.4008 113.929Z" fill="#010101"/>
<path d="M85.8632 12.5L85.8632 77.7331" stroke="#0A2533" stroke-width="0.9195" stroke-miterlimit="10"/>
<path d="M110.334 82.7273C110.918 82.7273 111.392 82.2525 111.392 81.6669C111.392 81.0813 110.918 80.6066 110.334 80.6066C109.749 80.6066 109.276 81.0813 109.276 81.6669C109.276 82.2525 109.749 82.7273 110.334 82.7273Z" fill="#9DC2E7"/>
<path d="M221.806 9.19938C221.806 9.19938 217.578 4.97006 209.565 6.66188C201.552 8.35369 195.92 21.0416 190.086 23.8609C184.251 26.6806 172.749 35.0063 171.889 42.1216C183.126 32.7428 187.346 36.8311 194.66 35.7032C201.974 34.5753 202.536 25.9756 213.086 26.2578C223.635 26.5395 234.887 39.6774 245.436 32.3333C255.985 24.9892 268.363 16.2484 258.376 9.05872C248.389 1.86905 228.136 12.8648 221.806 9.19938Z" fill="url(#paint13_linear_1_142)"/>
<path d="M50.6312 37.7847C50.6312 37.7847 49.5308 43.6689 55.4435 49.3478C61.3557 55.0268 74.9863 52.5336 80.5994 55.7727C86.2125 59.0118 99.5589 63.8381 105.906 60.5367C91.842 56.5246 92.8308 50.7265 87.7769 45.3082C82.7234 39.8903 75.3206 44.2741 69.604 35.3836C63.8874 26.4926 68.3658 9.7702 56.3662 5.17998C44.3661 0.589758 30.1841 -4.72657 29.8918 7.59403C29.5996 19.9146 50.0818 30.4785 50.6312 37.7847Z" fill="url(#paint14_linear_1_142)"/>
<path d="M254.86 71.519C254.86 71.519 237.7 90.3892 234.043 112.514C230.386 134.639 212.796 133.229 206.822 143.661C200.848 154.094 186.611 154.94 180.086 159.169C173.561 163.398 158.695 156.068 156.141 159.169C153.588 162.27 169.476 167.064 190.085 167.346C210.694 167.628 214.632 151.557 232.917 149.301C251.203 147.045 269.488 139.15 275.958 109.262C282.428 79.3755 271.457 63.3809 254.86 71.519Z" fill="url(#paint15_linear_1_142)"/>
<path d="M7.20151 79.1178C7.20151 79.1178 24.3611 97.9884 28.0185 120.113C31.6755 142.238 49.2655 140.827 55.2392 151.26C61.2128 161.692 75.4498 162.538 81.9749 166.768C88.5 170.997 103.366 163.666 105.92 166.768C108.473 169.869 92.5853 174.662 71.976 174.945C51.3668 175.226 47.4291 159.155 29.1438 156.899C10.8589 154.644 -7.42683 146.749 -13.8966 116.862C-20.3672 86.9742 -9.39587 70.9792 7.20151 79.1178Z" fill="url(#paint16_linear_1_142)"/>
</g>
<defs>
<linearGradient id="paint0_linear_1_142" x1="46.6257" y1="87.8276" x2="47.0143" y2="84.1622" gradientUnits="userSpaceOnUse">
<stop stop-color="#FBC4AF"/>
<stop offset="1" stop-color="#EA8B69"/>
</linearGradient>
<linearGradient id="paint1_linear_1_142" x1="51.4998" y1="86.6016" x2="48.1239" y2="86.8472" gradientUnits="userSpaceOnUse">
<stop stop-color="#FBC4AF"/>
<stop offset="1" stop-color="#EA8B69"/>
</linearGradient>
<linearGradient id="paint2_linear_1_142" x1="47.0805" y1="100.412" x2="50.1881" y2="89.2783" gradientUnits="userSpaceOnUse">
<stop stop-color="#FBC4AF"/>
<stop offset="1" stop-color="#EA8B69"/>
</linearGradient>
<linearGradient id="paint3_linear_1_142" x1="170.543" y1="59.578" x2="170.685" y2="56.3535" gradientUnits="userSpaceOnUse">
<stop stop-color="#FBC4AF"/>
<stop offset="1" stop-color="#EA8B69"/>
</linearGradient>
<linearGradient id="paint4_linear_1_142" x1="171.168" y1="60.9496" x2="171.062" y2="58.6589" gradientUnits="userSpaceOnUse">
<stop stop-color="#FBC4AF"/>
<stop offset="1" stop-color="#EA8B69"/>
</linearGradient>
<linearGradient id="paint5_linear_1_142" x1="164.114" y1="78.2423" x2="166.657" y2="61.7497" gradientUnits="userSpaceOnUse">
<stop stop-color="#FBC4AF"/>
<stop offset="1" stop-color="#EA8B69"/>
</linearGradient>
<linearGradient id="paint6_linear_1_142" x1="178.278" y1="58.3474" x2="180.256" y2="68.7544" gradientUnits="userSpaceOnUse">
<stop stop-color="#FBC4AF"/>
<stop offset="1" stop-color="#EA8B69"/>
</linearGradient>
<linearGradient id="paint7_linear_1_142" x1="122.428" y1="42.9932" x2="123.664" y2="45.6133" gradientUnits="userSpaceOnUse">
<stop stop-color="#FBC4AF"/>
<stop offset="1" stop-color="#EA8B69"/>
</linearGradient>
<linearGradient id="paint8_linear_1_142" x1="120.562" y1="42.9283" x2="123.623" y2="44.2096" gradientUnits="userSpaceOnUse">
<stop stop-color="#FBC4AF"/>
<stop offset="1" stop-color="#EA8B69"/>
</linearGradient>
<linearGradient id="paint9_linear_1_142" x1="122.317" y1="41.9413" x2="124.294" y2="46.132" gradientUnits="userSpaceOnUse">
<stop stop-color="#FBC4AF"/>
<stop offset="1" stop-color="#EA8B69"/>
</linearGradient>
<linearGradient id="paint10_linear_1_142" x1="150.357" y1="46.0921" x2="144.751" y2="52.7402" gradientUnits="userSpaceOnUse">
<stop stop-color="#FBC4AF"/>
<stop offset="1" stop-color="#EA8B69"/>
</linearGradient>
<linearGradient id="paint11_linear_1_142" x1="134.72" y1="56.2454" x2="134.12" y2="49.2669" gradientUnits="userSpaceOnUse">
<stop stop-color="#FBC4AF"/>
<stop offset="1" stop-color="#EA8B69"/>
</linearGradient>
<linearGradient id="paint12_linear_1_142" x1="133.698" y1="56.2996" x2="133.98" y2="54.5023" gradientUnits="userSpaceOnUse">
<stop stop-color="#FBC4AF"/>
<stop offset="1" stop-color="#EA8B69"/>
</linearGradient>
<linearGradient id="paint13_linear_1_142" x1="237.151" y1="17.7262" x2="142.328" y2="39.6232" gradientUnits="userSpaceOnUse">
<stop stop-color="white" stop-opacity="0"/>
<stop offset="1" stop-color="#9DC2E7"/>
</linearGradient>
<linearGradient id="paint14_linear_1_142" x1="49.0031" y1="20.274" x2="120.734" y2="86.1773" gradientUnits="userSpaceOnUse">
<stop stop-color="white" stop-opacity="0"/>
<stop offset="1" stop-color="#9DC2E7"/>
</linearGradient>
<linearGradient id="paint15_linear_1_142" x1="247.012" y1="113.952" x2="110.901" y2="145.384" gradientUnits="userSpaceOnUse">
<stop stop-color="white" stop-opacity="0"/>
<stop offset="1" stop-color="#9DC2E7"/>
</linearGradient>
<linearGradient id="paint16_linear_1_142" x1="15.0489" y1="121.55" x2="151.161" y2="152.982" gradientUnits="userSpaceOnUse">
<stop stop-color="white" stop-opacity="0"/>
<stop offset="1" stop-color="#9DC2E7"/>
</linearGradient>
<clipPath id="clip0_1_142">
<rect width="254" height="181" fill="white"/>
</clipPath>
</defs>
</svg>
