<svg width="24" height="24" viewBox="0 0 24 24" fill="none" xmlns="http://www.w3.org/2000/svg">
<path d="M13.3676 8.39084L14.0948 8.20737L13.7279 6.75293L13.0007 6.93635C11.5091 7.31486 10.1522 8.10089 9.08181 9.20652C8.01142 10.3121 7.26974 11.6938 6.93973 13.1968L6.78003 13.9296L8.24562 14.249L8.40528 13.5162C8.67898 12.2872 9.28741 11.1579 10.1632 10.2533C11.039 9.34871 12.1481 8.7041 13.3676 8.39084Z" fill="white"/>
<path d="M17.0449 6.93145C16.1125 3.37861 12.8739 0.75 9.03281 0.75C4.46559 0.75 0.75 4.46559 0.75 9.03281C0.75 12.9055 3.42188 16.1655 7.01883 17.0672C7.48365 18.8385 8.52215 20.4059 9.97205 21.5245C11.4219 22.6431 13.2016 23.2498 15.0328 23.25C19.5999 23.25 23.3156 19.5344 23.3156 14.9674C23.3153 11.1596 20.7019 7.84387 17.0449 6.93145ZM2.25 9.03281C2.25 5.29266 5.29266 2.25 9.03281 2.25C12.773 2.25 15.8156 5.29266 15.8156 9.03281C15.8156 12.773 12.7729 15.8156 9.03281 15.8156C5.2927 15.8156 2.25 12.7725 2.25 9.03281ZM15.0328 21.75C12.1767 21.75 9.63234 19.9287 8.66517 17.3066C8.78705 17.312 8.90958 17.3153 9.03281 17.3153C9.54707 17.3153 10.0602 17.2675 10.5656 17.1724L15.1418 21.7486C15.1053 21.7492 15.069 21.75 15.0328 21.75ZM16.9794 21.4649L12.1997 16.6853C12.9372 16.3787 13.6265 15.967 14.2463 15.4632L19.1423 20.3592C18.4939 20.8552 17.761 21.2298 16.9792 21.4649H16.9794ZM20.2279 19.323L15.3211 14.4167C15.8585 13.7903 16.2995 13.0873 16.6295 12.3308L21.4533 17.1546C21.1821 17.9469 20.7665 18.6821 20.2275 19.323H20.2279ZM21.8026 15.3821L17.1423 10.7218C17.2578 10.1662 17.3159 9.60014 17.3157 9.03263C17.3157 8.87864 17.311 8.72573 17.3028 8.57386C18.622 9.04491 19.7636 9.91193 20.5713 11.0564C21.3791 12.2008 21.8137 13.5668 21.8157 14.9676C21.8153 15.1067 21.8105 15.2449 21.8022 15.3821H21.8026Z" fill="white"/>
</svg>
