<svg width="160" height="87" viewBox="0 0 160 87" fill="none" xmlns="http://www.w3.org/2000/svg">
<path d="M0 21L0 0L25 0L25 21L0 21Z" fill="#C4D7FD"/>
<path opacity="0.5" d="M0 43L0 22L25 22L25 43H0Z" fill="#C4D7FD"/>
<path opacity="0.5" d="M0 65L0 44H25L25 65H0Z" fill="#C4D7FD"/>
<path opacity="0.5" d="M0 87L0 66H25L25 87H0Z" fill="#C4D7FD"/>
<path d="M27 21L27 0L52 0V21L27 21Z" fill="#C4D7FD"/>
<path d="M27 43L27 22L52 22V43H27Z" fill="#C4D7FD"/>
<path d="M27 65L27 44H52V65H27Z" fill="#C4D7FD"/>
<path opacity="0.5" d="M27 87L27 66H52V87H27Z" fill="#C4D7FD"/>
<path d="M54 21L54 0L79 0V21L54 21Z" fill="#C4D7FD"/>
<path d="M54 43L54 22L79 22V43H54Z" fill="#C4D7FD"/>
<path d="M54 65L54 44H79V65H54Z" fill="#C4D7FD"/>
<path d="M54 87L54 66H79V87H54Z" fill="#C4D7FD"/>
<path opacity="0.5" d="M81 21V0L106 0V21L81 21Z" fill="#C4D7FD"/>
<path d="M81 43V22L106 22V43H81Z" fill="#C4D7FD"/>
<path d="M81 65V44H106V65H81Z" fill="#C4D7FD"/>
<path d="M81 87V66H106V87H81Z" fill="#C4D7FD"/>
<path opacity="0.5" d="M108 21V0L133 0V21L108 21Z" fill="#C4D7FD"/>
<path d="M108 43V22L133 22V43H108Z" fill="#C4D7FD"/>
<path d="M108 65V44H133V65H108Z" fill="#C4D7FD"/>
<path d="M108 87V66H133V87H108Z" fill="#C4D7FD"/>
<path opacity="0.5" d="M135 21V0L160 0V21L135 21Z" fill="#C4D7FD"/>
<path opacity="0.5" d="M135 43V22L160 22V43H135Z" fill="#C4D7FD"/>
<path opacity="0.5" d="M135 65V44H160V65H135Z" fill="#C4D7FD"/>
<path d="M135 87V66H160V87H135Z" fill="#C4D7FD"/>
</svg>
