<svg xmlns="http://www.w3.org/2000/svg" width="414" height="240" viewBox="0 0 414 240">
    <defs>
        <clipPath id="clip-path">
            <path id="Rectangle_2406" d="M0 0H414V240H0z" class="cls-1" transform="translate(810 163)"/>
        </clipPath>
        <style>
            .cls-1,.cls-4{fill:#fff}.cls-3{fill:#dee5f8}.cls-4{opacity:.4}.cls-5{fill:#1f3c88}.cls-7{fill:#102048}.cls-8{fill:#f9b384}.cls-14{fill:#fbc343}
        </style>
    </defs>
    <g id="Mask_Group_2" clip-path="url(#clip-path)" transform="translate(-810 -163)">
        <g id="Group_7444" transform="translate(1133.079 -142.99)">
            <g id="Group_7429" transform="translate(-241.024 322.72)">
                <g id="Group_7426" transform="translate(258.963 39.375)">
                    <g id="Group_7425">
                        <path id="Path_13367" d="M2067.3 683.659a4.169 4.169 0 0 1-.282 1.5h-16.058c-.011-.011-.017-.022-.028-.033a.076.076 0 0 1-.011.033s-.431 0-1.21.011c-7.95.044-52.391.293-52.391-.1a7.976 7.976 0 0 1 7.735-8.2 7.324 7.324 0 0 1 2.829.563 4.551 4.551 0 0 1 2.972-1.1 4.7 4.7 0 0 1 3.928 2.182l.033-.072a9.146 9.146 0 0 1 4.53-4.221 13.62 13.62 0 0 1 5.768-1.238 14.812 14.812 0 0 1 1.8.11 13.208 13.208 0 0 1 11.69-7.37 13.529 13.529 0 0 1 13.05 11.359 4.534 4.534 0 0 1 2.5-.751 4.724 4.724 0 0 1 4.226 2.718 7.657 7.657 0 0 1 2.6-.448 6.605 6.605 0 0 1 5.68 2.84 4.244 4.244 0 0 1 .639 2.217z" class="cls-3" transform="translate(-1997.32 -665.72)"/>
                    </g>
                    <path id="Path_13368" d="M2175.844 681.438a23.678 23.678 0 0 0-6.387-.5l-14.348.166c-5.729.066-10.834-3.21-16.69-2.68-2.806.26-5.663 1.4-8.359 1.563-2.138.127-4.74-.254-6.06-1.547a9.145 9.145 0 0 1 4.53-4.221 13.619 13.619 0 0 1 5.768-1.238 14.81 14.81 0 0 1 1.8.11 13.207 13.207 0 0 1 11.69-7.37 13.529 13.529 0 0 1 13.05 11.359 4.534 4.534 0 0 1 2.5-.751 4.724 4.724 0 0 1 4.226 2.718 7.66 7.66 0 0 1 2.6-.448 6.6 6.6 0 0 1 5.68 2.839z" class="cls-4" transform="translate(-2106.503 -665.72)"/>
                </g>
                <g id="Group_7427" transform="translate(-43 111.197)">
                    <path id="Path_13369" d="M711.349 944.1a2.684 2.684 0 0 1-.188.983H700.62a.044.044 0 0 1-.022-.022c0 .011-.005.017-.005.022s-35.193.227-35.193-.061a5.234 5.234 0 0 1 5.077-5.381 4.839 4.839 0 0 1 1.856.37 3.013 3.013 0 0 1 1.95-.724 3.09 3.09 0 0 1 2.58 1.431 6.671 6.671 0 0 1 4.9-3.436 9.076 9.076 0 0 1 1.884-.193 9.252 9.252 0 0 1 1.182.072 8.672 8.672 0 0 1 7.674-4.84 8.887 8.887 0 0 1 8.569 7.458 2.955 2.955 0 0 1 1.641-.492 3.108 3.108 0 0 1 2.773 1.784 5.041 5.041 0 0 1 1.713-.3c2.289.002 4.15 1.493 4.15 3.329z" class="cls-3" transform="translate(-665.4 -932.32)"/>
                    <path id="Path_13370" d="M813.465 944.1a2.685 2.685 0 0 1-.188.983h-6.11a14.2 14.2 0 0 0-1.1-1.773c-2.088-2.387-6.436-.475-8.956-2.4-.459-.348-.829-.807-1.3-1.127-1.464-.972-3.409-.365-5.1.1-1.735.475-3.691.735-5.249-.166a3.366 3.366 0 0 1-1.575-2.436 9.077 9.077 0 0 1 1.884-.193 9.252 9.252 0 0 1 1.182.072 8.672 8.672 0 0 1 7.674-4.84 8.887 8.887 0 0 1 8.569 7.458 2.955 2.955 0 0 1 1.641-.492 3.108 3.108 0 0 1 2.773 1.784 5.042 5.042 0 0 1 1.713-.3c2.277.003 4.142 1.494 4.142 3.33z" class="cls-4" transform="translate(-767.516 -932.32)"/>
                </g>
                <g id="Group_7428" transform="translate(-79.774 -6)">
                    <path id="Path_13371" d="M814.507 341.471c0 .42-51.955.083-51.955.083a.05.05 0 0 1-.005-.028c-.011.011-.022.017-.033.028h-15.563a4.008 4.008 0 0 1-.271-1.448c0-2.713 2.74-4.906 6.121-4.906a7.474 7.474 0 0 1 2.525.431 4.589 4.589 0 0 1 4.1-2.63 4.4 4.4 0 0 1 2.414.724 13.116 13.116 0 0 1 12.652-11.005 1.071 1.071 0 0 1 .133.005 12.788 12.788 0 0 1 11.2 7.138 13.839 13.839 0 0 1 1.746-.11c4.641 0 8.591 2.237 10.011 5.359a4.565 4.565 0 0 1 3.807-2.11 4.426 4.426 0 0 1 2.884 1.072 7.092 7.092 0 0 1 2.74-.547 7.481 7.481 0 0 1 6.784 4.563 8.253 8.253 0 0 1 .71 3.381z" class="cls-3" transform="translate(-746.68 -322.72)"/>
                    <path id="Path_13372" d="M981.246 338.124a25.522 25.522 0 0 1-7.469.939c-5.84.127-12.05.16-17.016-2.906-1.724-1.061-3.243-2.47-5.1-3.271-3.1-1.343-7.094-.983-9.381-3.47a5.245 5.245 0 0 1-.613-6.088 4.136 4.136 0 0 1 .409-.569 12.787 12.787 0 0 1 11.2 7.138 13.837 13.837 0 0 1 1.746-.111c4.641 0 8.591 2.238 10.011 5.359a4.565 4.565 0 0 1 3.807-2.11 4.426 4.426 0 0 1 2.884 1.072 7.093 7.093 0 0 1 2.74-.547 7.481 7.481 0 0 1 6.782 4.564z" class="cls-4" transform="translate(-914.131 -322.754)"/>
                </g>
            </g>
            <g id="Group_7443" transform="translate(-251.714 324.335)">
                <g id="Group_7430" transform="translate(0 181.08)">
                    <path id="Path_13373" d="M844.215 1733.71l-208.451 1.079-47.756.245 21.181-42.362 21.843-19.195 29.785-9.267 13.787-18.752h62.662l24.55 20.459 36.729 11.914L820 1697.967l.51.755 23.054 34.035z" class="cls-5" transform="translate(-588.007 -1645.459)"/>
                    <path id="Path_13374" fill="#dee5f8" d="M1543.407 1732.757l-15.952-1.694-37.51-24.709-46.882-7.062-14.563-20.192-2.1-14.674-19.037-4.807-7.363-14.16h37.106l24.55 20.459 36.729 11.914 21.458 20.135.51.755z" opacity="0.1" transform="translate(-1287.849 -1645.459)"/>
                    <path id="Path_13375" d="M675.488 1676.787l-30.888 18.092-8.836 39.91-47.756.245 21.181-42.362 21.843-19.195 29.785-9.267 13.787-18.752z" class="cls-7" transform="translate(-588.007 -1645.459)"/>
                </g>
                <g id="Group_7442" transform="translate(90.421)">
                    <g id="Group_7431" transform="translate(38.699 168.913)">
                        <path id="Path_13376" d="M1533.164 1562.516l.058-5.151-7.461.528-.215 4.256a25.912 25.912 0 0 0 7.618.367z" class="cls-8" transform="translate(-1525.173 -1557.366)"/>
                        <path id="Path_13377" d="M1538.922 1599.358c-2.023-3.313-4.789-4.419-8.092-4.838l.016-2.149a25.912 25.912 0 0 1-7.619-.366l-.371 7.354z" class="cls-7" transform="translate(-1522.856 -1587.221)"/>
                    </g>
                    <g id="Group_7432" transform="translate(0 169.089)">
                        <path id="Path_13378" d="M1252.32 1598.293l-.682 1.559c-3.3.419-6.258 2.2-8.971 4.926h15.656l1.665-6.466a22.053 22.053 0 0 1-7.668-.019z" class="cls-7" transform="translate(-1242.667 -1592.816)"/>
                        <path id="Path_13379" d="M1320.228 1564.135l1.325-5.144-6.6-.352-2.4 5.477a22.048 22.048 0 0 0 7.675.019z" class="cls-8" transform="translate(-1302.906 -1558.64)"/>
                    </g>
                    <path id="Path_13380" d="M1350.978 971.548c3.928 25.565 2.814 51.013-2.639 76.7h-9.382c1.12-16.669 1.976-36.484-.645-49.606l-17.9 49.826h-10.247l16.887-70.934 5.8-11.375 13.6-1.642z" class="cls-7" transform="translate(-1300.845 -877.483)"/>
                    <path id="Path_13381" d="M1696.064 573.443l2.521-7.564 6.825 1.594c.514 2.533-2.552 6.376-4.832 9.253z" class="cls-8" transform="translate(-1633.441 -533.909)"/>
                    <path id="Path_13382" d="M1474.939 744.325l-7.859.092-.781-10.294-.092-1.231 7.895-.07.281 3.905z" class="cls-8" transform="translate(-1435.332 -677.793)"/>
                    <path id="Path_13383" d="M1474.339 736.017c-2.573 1.836-5.937.693-8.041-1.895l-.092-1.231 7.895-.07z" class="cls-7" transform="translate(-1435.332 -677.793)"/>
                    <path id="Path_13384" d="M1446.676 660.429c-3.989.912-8.442-1.646-10.2-5.044l-.238-6.1 2.232-3.166 9.5.818c-.044.011-.039.144 0 .37.11.591.475 1.851.812 3.37.828 3.697 1.491 8.929-2.106 9.752z" class="cls-8" transform="translate(-1409.504 -603.068)"/>
                    <path id="Path_13385" d="M1452.446 775.468s5.864 4.691 10.965-1.994l9.675 32.132c-5.924 4.186-13.413 5.631-22.4 4.456z" class="cls-1" transform="translate(-1421.955 -712.832)"/>
                    <g id="Group_7433" opacity="0.3" transform="translate(31.748 64.875)">
                        <path id="Path_13386" d="M1472.524 805.865a10.679 10.679 0 0 0 2.471.562 8.2 8.2 0 0 0 2.469-.1 7.942 7.942 0 0 0 2.328-.814 10.556 10.556 0 0 0 1.083-.641c.36-.226.673-.515 1.038-.756a12.552 12.552 0 0 1-.857.98 7.088 7.088 0 0 1-1.033.813 6.541 6.541 0 0 1-2.452 1 6.758 6.758 0 0 1-5.047-1.044z" class="cls-5" transform="translate(-1472.524 -804.117)"/>
                    </g>
                    <path id="Path_13387" d="M1549.26 610.455c-5.3 8.958-10.479 16.83-15.156 20.581a3.629 3.629 0 0 1-2.468.76 19.656 19.656 0 0 0-5.6.6c.424 16.074 1.949 30.964 7.417 40.092 3.294-.95 7.29-2.477 9.5-4.339-1.8-6.108-3.928-14.865-5.512-22.516l17.532-31.311z" class="cls-5" transform="translate(-1486.901 -572.329)"/>
                    <path id="Path_13388" fill="#e28b6d" d="M1458.055 658.09c-6.037 3.436-11.055-2.825-11.055-2.825l10.243-.545c.111.591.475 1.851.812 3.37z" transform="translate(-1418.778 -610.48)"/>
                    <path id="Path_13389" d="M1415.835 626.911c.74-.957 1.078-2.566.41-5.8 2.2 2.487 5.469 3.069 10.261.938 0 0 3.117-1.22 2.4-4.4-.645-2.873-3.049-4.4-4.926-2.052-4.257-1.243-8.443-1.466-10.32 2.4 0 0-5.981 3.108-.88 8.15z" class="cls-7" transform="translate(-1387.514 -575.767)"/>
                    <g id="Group_7434" transform="translate(10.566 109.475)">
                        <path id="Path_13390" d="M1328.2 1135.084l-1.03-.229 1.075-4.816-7.106-1.728-.942 4.395-1.032-.221 1.169-5.456 9.166 2.23z" class="cls-5" transform="translate(-1319.167 -1127.028)"/>
                    </g>
                    <path id="Path_13391" d="M1339.162 1075.427c-.176.245-.821 5.2-.821 5.2s-2.873 2.694-.938 4.347 4.28 1.592 5.394.367a7.248 7.248 0 0 0-.059-4.285l1.114-5.51z" class="cls-8" transform="translate(-1323.741 -973.079)"/>
                    <path id="Path_13392" fill="#acbfee" d="M1283.245 1150.378l-2.836 12.011-1.091 4.637-18.414-6.917 2.428-10.125 1.154-4.827z" transform="translate(-1258.386 -1033.178)"/>
                    <g id="Group_7437" transform="translate(48.565 11.548)">
                        <path id="Path_13393" fill="#6f3428" d="M1732.5 592.419l-9.778 5.927-.438-3.437 7.371-4.468z" transform="translate(-1704.607 -566.628)"/>
                        <path id="Path_13394" fill="#bb9132" d="M1705.262 543.771l-2.507 1.52-5.952-8.46 3.71-2.249z" transform="translate(-1682.644 -518.482)"/>
                        <path id="Path_13395" d="M1628.748 442.027l-4.709 2.855a2.485 2.485 0 0 1-3.2-.542l-7.881-9.53 11.992-7.27 4.8 11.395a2.485 2.485 0 0 1-1.002 3.092z" class="cls-14" transform="translate(-1610.375 -426.227)"/>
                        <g id="Group_7435" transform="translate(14.129)">
                            <path id="Path_13396" d="M1700.247 427.815l-.649-.27c1.81-4.357 1.494-7.9.165-8.677-.692-.406-1.65.073-2.629 1.314l-.553-.436c1.734-2.2 3.051-1.77 3.538-1.485 1.619.951 2.11 4.784.128 9.554z" class="cls-14" transform="translate(-1696.581 -418.026)"/>
                        </g>
                        <g id="Group_7436" transform="translate(0 8.502)">
                            <path id="Path_13397" d="M1602.7 486.565c-5.145-.449-8.317-2.657-8.411-4.533-.028-.563.2-1.929 2.952-2.449l.131.691c-1.553.294-2.42.922-2.38 1.723.077 1.54 3.069 3.456 7.769 3.867z" class="cls-14" transform="translate(-1594.286 -479.583)"/>
                        </g>
                        <path id="Path_13398" fill="#fff" d="M1684.97 460.779c-.413-.715-.392-1.5.047-1.754s1.13.121 1.542.836.392 1.5-.047 1.754-1.129-.121-1.542-.836z" opacity="0.6" transform="translate(-1672.189 -453.294)"/>
                    </g>
                    <path id="Path_13399" d="M1732.35 554.519a2 2 0 0 1-2.225 2.308c-1.016 0-2.438-1.393-2.738-3.048a2.172 2.172 0 0 1 1.241-2.656c.988-.407 3.399 1.096 3.722 3.396z" class="cls-8" transform="translate(-1660.385 -521.134)"/>
                    <g id="Group_7441" transform="translate(40.527)">
                        <g id="Group_7438" transform="translate(0 11.213)">
                            <path id="Rectangle_2313" d="M0 0H1.105V8.976H0z" class="cls-14" transform="rotate(-72.512 .719 .527)"/>
                        </g>
                        <g id="Group_7439" transform="translate(17.097)">
                            <path id="Rectangle_2314" d="M0 0H8.976V1.105H0z" class="cls-14" transform="rotate(-79.986 5.268 4.42)"/>
                        </g>
                        <g id="Group_7440" transform="translate(6.956 2.327)">
                            <path id="Rectangle_2315" d="M0 0H1.105V8.975H0z" class="cls-14" transform="matrix(.842 -.539 .539 .842 0 .595)"/>
                        </g>
                    </g>
                    <path id="Path_13400" d="M1350.08 800.186l-1.407 21.226a36.271 36.271 0 0 0 13.134-2.932c.682-12.669-.945-26.845-5.959-39.594-12.735 4.733-16.327 20.414-18.217 43.715l7.46.865z" class="cls-5" transform="translate(-1324.515 -717.497)"/>
                    <path id="Path_13401" d="M1423.244 697.6c-2.4.854-3.927.661-4.055-1.629a1.809 1.809 0 0 1 2.474-1.806 4.051 4.051 0 0 1 1.463 1.324z" class="cls-8" transform="translate(-1394.806 -644.348)"/>
                    <path id="Path_13402" fill="#102048" d="M1280.409 1192.509l-1.091 4.637-18.414-6.917 2.427-10.125c2.269 4.686 7.059 10.496 17.078 12.405z" opacity="0.15" transform="translate(-1258.386 -1063.298)"/>
                    <path id="Path_13403" d="M1595.385 812.733c.317 1.007.593 2.024.859 3.043s.515 2.042.755 3.066.462 2.054.662 3.088.394 2.069.538 3.116l-.268.061c-.325-1.005-.6-2.023-.869-3.04s-.512-2.042-.745-3.069-.457-2.055-.652-3.09-.4-2.069-.548-3.114z" class="cls-7" transform="translate(-1546.437 -746.668)"/>
                    <path id="Path_13404" d="M1424.875 881.269c.035 1.021.029 2.039.013 3.057s-.051 2.035-.094 3.052-.105 2.032-.189 3.047-.174 2.029-.316 3.041l-.275-.013c-.044-1.021-.035-2.039-.023-3.057s.054-2.035.1-3.051.11-2.032.2-3.046.173-2.029.306-3.041z" class="cls-7" transform="translate(-1398.938 -805.727)"/>
                    <path id="Path_13405" fill="#708cd5" d="M1501.539 1158.636c.316-1.161.672-2.309 1.037-3.453s.761-2.278 1.139-3.418q.6-1.7 1.226-3.387c.431-1.122.864-2.242 1.348-3.345l.26.091c-.308 1.164-.666 2.311-1.027 3.457s-.756 2.28-1.148 3.414c-.413 1.128-.8 2.264-1.236 3.384s-.863 2.242-1.338 3.348z" transform="translate(-1465.784 -1033.071)"/>
                    <path id="Path_13406" d="M1427.445 701.505c-.123-.172-.238-.35-.358-.513a2.568 2.568 0 0 0-.38-.438.423.423 0 0 0-.391-.146c-.145.019-.291.174-.452.3l-.136-.086a.946.946 0 0 1 .469-.557.745.745 0 0 1 .779.179 2.219 2.219 0 0 1 .62 1.2z" class="cls-7" transform="translate(-1400.443 -649.523)"/>
                    <path id="Path_13407" d="M1715.158 566.448c.256-.97.124-1.846-.295-1.957s-1.064.343-1.32 1.313-.551 2.368.11 2.68c1.172.553 1.247-1.066 1.505-2.036z" class="cls-8" transform="translate(-1648.255 -532.699)"/>
                </g>
            </g>
        </g>
    </g>
</svg>
