<svg width="160" height="70" viewBox="0 0 160 70" fill="none" xmlns="http://www.w3.org/2000/svg">
<rect width="160" height="70" rx="3" fill="#C4D7FD"/>
<path d="M85 33.5V30C85 29.7348 84.8946 29.4804 84.7071 29.2929C84.5196 29.1054 84.2652 29 84 29H72C71.7348 29 71.4804 29.1054 71.2929 29.2929C71.1054 29.4804 71 29.7348 71 30V40C71 40.2652 71.1054 40.5196 71.2929 40.7071C71.4804 40.8946 71.7348 41 72 41H84C84.2652 41 84.5196 40.8946 84.7071 40.7071C84.8946 40.5196 85 40.2652 85 40V36.5L89 40.5V29.5L85 33.5Z" fill="#6A83B6"/>
</svg>
