<svg xmlns="http://www.w3.org/2000/svg" width="241" height="60" viewBox="0 0 241 60">
    <defs>
        <clipPath id="clip-path">
            <rect id="Rectangle_1994" width="241" height="60" fill="#a38bff" rx="9" transform="translate(308 1470)"/>
        </clipPath>
        <style>
            .cls-4{fill:#fdfdfe}
        </style>
    </defs>
    <g id="Mask_Group_94" transform="translate(-308 -1470)" style="isolation:isolate" clip-path="url(#clip-path)" opacity="0.8">
        <g id="_3885208" opacity="0.2" transform="translate(257.398 1432.277)">
            <path id="Path_13078" d="M41.76 89.213A39.758 39.758 0 1 0 2 49.455a39.758 39.758 0 0 0 39.76 39.758zm0-76.74A36.983 36.983 0 1 1 4.775 49.457 36.983 36.983 0 0 1 41.76 12.473z" class="cls-4" transform="translate(15.687 -3.758)"/>
            <path id="Path_13079" d="M38.171 72.782a26.916 26.916 0 1 0-26.916-26.916 26.916 26.916 0 0 0 26.916 26.916zm0-51.048A24.141 24.141 0 1 1 14.03 45.876a24.141 24.141 0 0 1 24.141-24.141z" class="cls-4" transform="translate(19.275 -.173)"/>
            <path id="Path_13080" d="M34.583 56.348a14.067 14.067 0 1 0-14.067-14.066 14.067 14.067 0 0 0 14.067 14.066zm0-25.358a11.292 11.292 0 1 1-11.292 11.293A11.292 11.292 0 0 1 34.583 30.99z" class="cls-4" transform="translate(22.863 3.416)"/>
            <path id="Path_13081" d="M47.76 18.391a1.387 1.387 0 0 0 .839-2.5L31.954 7.017a1.387 1.387 0 1 0-1.665 2.21l16.633 8.88a1.387 1.387 0 0 0 .838.284z" class="cls-4" transform="translate(-29.651 -4.93)"/>
            <path id="Path_13082" d="M69.834 23.444a1.387 1.387 0 0 0 1.38-1.244l.635-6.4a1.387 1.387 0 0 0-.542-1.249L59.642 5.7a1.387 1.387 0 0 0-2.22.971l-.637 6.393a1.387 1.387 0 0 0 .542 1.249l11.667 8.859a1.387 1.387 0 0 0 .839.273zm-.823-7.144l-.311 3.152-9.074-6.891.315-3.154z" class="cls-4" transform="translate(-50.654 -5.416)"/>
            <path id="Path_13083" d="M70.289 23.987a1.412 1.412 0 0 0 .5-.093l5.988-2.33a1.387 1.387 0 0 0 .336-2.4L65.45 10.307a1.387 1.387 0 0 0-1.342-.189l-5.987 2.33a1.387 1.387 0 0 0-.336 2.4l11.666 8.859a1.387 1.387 0 0 0 .838.28zm3.174-4.111l-2.954 1.15-9.074-6.89 2.954-1.15z" class="cls-4" transform="translate(-57.099 -3.631)"/>
        </g>
    </g>
</svg>
