<svg width="159" height="114" viewBox="0 0 159 114" fill="none" xmlns="http://www.w3.org/2000/svg">
<path d="M158.529 113.746H92.561C92.5028 113.746 92.4471 113.723 92.406 113.682C92.3649 113.64 92.3418 113.585 92.3418 113.527C92.3418 113.468 92.3649 113.413 92.406 113.372C92.4471 113.33 92.5028 113.307 92.561 113.307H158.529C158.587 113.307 158.643 113.33 158.684 113.372C158.725 113.413 158.748 113.468 158.748 113.527C158.748 113.585 158.725 113.64 158.684 113.682C158.643 113.723 158.587 113.746 158.529 113.746Z" fill="#3F3D56"/>
<path d="M117.344 111.236H114.657L113.379 100.872L117.345 100.872L117.344 111.236Z" fill="#FFB8B8"/>
<path d="M112.737 110.468H117.919V113.73H109.475C109.475 113.302 109.559 112.878 109.723 112.482C109.887 112.086 110.127 111.726 110.43 111.423C110.733 111.12 111.093 110.88 111.489 110.716C111.885 110.552 112.309 110.468 112.737 110.468Z" fill="#2F2E41"/>
<path d="M136.837 108.192L134.393 109.308L128.924 100.413L132.531 98.7653L136.837 108.192Z" fill="#FFB8B8"/>
<path d="M132.331 109.408L137.044 107.255L138.4 110.222L130.719 113.731C130.541 113.341 130.441 112.92 130.426 112.492C130.411 112.064 130.48 111.637 130.63 111.235C130.779 110.834 131.007 110.466 131.299 110.152C131.59 109.839 131.941 109.586 132.331 109.408Z" fill="#2F2E41"/>
<path d="M129.013 76.2916C129.27 76.0979 129.482 75.8501 129.633 75.5656C129.785 75.2812 129.872 74.967 129.888 74.6452C129.905 74.3235 129.851 74.002 129.73 73.7033C129.609 73.4047 129.424 73.1363 129.188 72.9169L132.347 65.7502L128.334 66.4303L125.95 73.1315C125.608 73.5523 125.432 74.0841 125.455 74.626C125.479 75.1679 125.7 75.6824 126.078 76.0719C126.455 76.4615 126.963 76.699 127.504 76.7395C128.044 76.78 128.581 76.6206 129.013 76.2916Z" fill="#FFB8B8"/>
<path d="M117.172 108.503H114.605C114.356 108.502 114.117 108.407 113.935 108.238C113.752 108.068 113.641 107.836 113.622 107.588L110.907 70.2081C110.896 70.0648 110.917 69.921 110.968 69.7868C111.019 69.6525 111.099 69.5309 111.202 69.4307C111.305 69.3304 111.428 69.2537 111.564 69.2061C111.699 69.1585 111.843 69.1411 111.986 69.1551L128.146 70.7316C128.387 70.7551 128.61 70.8662 128.775 71.0437C128.939 71.2212 129.032 71.4528 129.037 71.6945L129.348 88.1833C129.349 88.2728 129.367 88.3613 129.399 88.4448L135.488 104.236C135.535 104.358 135.558 104.488 135.554 104.619C135.55 104.75 135.521 104.878 135.467 104.997C135.413 105.117 135.336 105.224 135.24 105.313C135.144 105.402 135.032 105.471 134.909 105.516L132.308 106.475C132.082 106.558 131.834 106.555 131.609 106.468C131.385 106.381 131.2 106.214 131.09 106L123.609 91.4547C123.569 91.3756 123.539 91.2914 123.521 91.2043L122.243 85.0471C122.206 84.8686 122.106 84.7091 121.962 84.5973C121.818 84.4854 121.639 84.4285 121.457 84.4367C121.275 84.445 121.102 84.5179 120.969 84.6423C120.835 84.7667 120.751 84.9345 120.73 85.1156L118.152 107.629C118.125 107.869 118.009 108.092 117.829 108.253C117.648 108.414 117.414 108.503 117.172 108.503Z" fill="#2F2E41"/>
<path d="M118.449 40.9806C121.422 40.9806 123.832 38.5706 123.832 35.5977C123.832 32.6248 121.422 30.2148 118.449 30.2148C115.476 30.2148 113.066 32.6248 113.066 35.5977C113.066 38.5706 115.476 40.9806 118.449 40.9806Z" fill="#FFB8B8"/>
<path d="M111.932 70.424C112.621 70.8993 120.384 76.0152 129.233 71.9462C129.118 70.958 128.014 61.0364 128.978 53.7222C129.436 50.252 128.054 47.0371 125.187 44.9018C123.63 43.7476 121.794 43.0295 119.867 42.8214C117.94 42.6133 115.992 42.9228 114.225 43.718H114.225C114.079 43.7831 113.933 43.8508 113.786 43.9211L111.932 70.424Z" fill="#6C63FF"/>
<path d="M129.317 71.8646C129.18 71.8646 129.045 71.8362 128.92 71.7811C128.795 71.726 128.683 71.6455 128.591 71.5447L127.413 70.2601C127.299 70.1344 127.218 69.9814 127.18 69.8158C127.142 69.6502 127.147 69.4775 127.194 69.3143L129.891 60.1867L125.788 51.57C125.608 51.1912 125.564 50.762 125.663 50.3546C125.751 49.9969 125.944 49.6742 126.219 49.4289C126.494 49.1837 126.836 49.0274 127.201 48.9807C127.567 48.9341 127.937 48.9992 128.265 49.1676C128.592 49.3359 128.861 49.5996 129.035 49.9237L134.582 58.9242C134.798 59.2739 134.925 59.6712 134.951 60.0812C134.977 60.4913 134.903 60.9015 134.734 61.2759L130.217 71.284C130.15 71.4329 130.047 71.5628 129.917 71.6619C129.787 71.7611 129.635 71.8264 129.474 71.852C129.422 71.8603 129.369 71.8646 129.317 71.8646Z" fill="#6C63FF"/>
<path opacity="0.2" d="M115.916 70.6975H113.766L117.52 53.0322L117.736 53.0605L116.901 69.7607C116.889 70.0135 116.779 70.2517 116.596 70.4261C116.413 70.6005 116.169 70.6977 115.916 70.6975Z" fill="black"/>
<path d="M113.925 75.0894C114.137 74.8464 114.293 74.56 114.382 74.2503C114.471 73.9406 114.491 73.6152 114.44 73.297C114.39 72.9788 114.27 72.6755 114.09 72.4085C113.91 72.1415 113.673 71.9173 113.396 71.7517L114.998 64.0854L111.214 65.5838L110.273 72.634C110.026 73.1167 109.964 73.6734 110.1 74.1987C110.235 74.7239 110.559 75.1812 111.009 75.4838C111.459 75.7865 112.005 75.9135 112.542 75.8408C113.08 75.7681 113.572 75.5007 113.925 75.0894Z" fill="#FFB8B8"/>
<path d="M113.708 70.7193C113.671 70.7192 113.633 70.7171 113.596 70.7131L111.303 70.4582C111.055 70.4298 110.827 70.3089 110.665 70.1196C110.502 69.9303 110.417 69.6866 110.427 69.4372L111.375 46.4729C111.405 45.7526 111.696 45.0678 112.195 44.5467C112.693 44.0256 113.364 43.7039 114.082 43.6417C114.8 43.5795 115.516 43.7811 116.097 44.2088C116.677 44.6365 117.082 45.261 117.235 45.9654L117.846 48.7773L117.843 48.7972L114.681 69.879C114.646 70.1125 114.529 70.326 114.351 70.4802C114.172 70.6345 113.944 70.7194 113.708 70.7193Z" fill="#6C63FF"/>
<path d="M122.886 40.3434C122.327 40.4391 121.868 39.6622 121.799 39.1156C121.729 38.5691 121.928 38.046 121.95 37.503C121.972 36.96 121.716 36.3002 121.152 36.1392C120.561 35.9705 120.013 36.4447 119.407 36.3877C118.564 36.3082 118.141 35.3213 118.039 34.5229C117.936 33.7245 117.856 32.7791 117.126 32.3238C116.398 31.8699 115.497 32.2002 114.66 32.2143C113.246 32.2382 111.807 31.1599 111.477 29.8293C111.648 29.8787 111.831 29.8695 111.997 29.8032C112.163 29.7368 112.301 29.6171 112.391 29.4629C112.462 29.2984 112.477 29.1151 112.433 28.9416C112.388 28.768 112.288 28.6139 112.147 28.5033L113.75 29.2882C113.531 28.8424 113.862 28.3346 114.317 28.1657C114.772 27.9969 115.302 28.0727 115.805 28.1508C118.314 28.5407 121.221 28.3485 122.886 30.2619C124.039 31.5873 124.988 34.1092 124.858 35.741C124.728 37.3728 122.886 40.3434 122.886 40.3434Z" fill="#2F2E41"/>
<path d="M61.8038 101.034H4.16402C3.75728 101.034 3.36733 100.872 3.07972 100.584C2.79211 100.297 2.63033 99.9067 2.62987 99.4999L2.97285e-06 1.54003C-0.000394011 1.33818 0.0389716 1.13823 0.115851 0.951594C0.192731 0.764959 0.305619 0.595293 0.44807 0.452288C0.590522 0.309282 0.759748 0.195736 0.946082 0.118132C1.13242 0.0405286 1.33221 0.000386725 1.53406 0H59.1739C59.5806 0.000455943 59.9706 0.162235 60.2582 0.449843C60.5458 0.737451 60.7076 1.1274 60.708 1.53414L61.1845 19.2804L60.7464 19.2922L60.2698 1.54003C60.2702 1.39572 60.2422 1.25274 60.1873 1.11926C60.1325 0.98578 60.0519 0.864416 59.9501 0.762104C59.8483 0.659792 59.7274 0.578535 59.5942 0.52298C59.461 0.467424 59.3182 0.438659 59.1739 0.438326H1.53406C1.24353 0.438663 0.965007 0.554224 0.759575 0.759656C0.554143 0.965088 0.438582 1.24362 0.438245 1.53414L3.06812 99.494C3.0677 99.6384 3.09571 99.7813 3.15056 99.9148C3.20541 100.048 3.28603 100.17 3.3878 100.272C3.48957 100.374 3.61051 100.456 3.74369 100.511C3.87688 100.567 4.01971 100.595 4.16402 100.596H61.8038C62.0944 100.595 62.3729 100.48 62.5783 100.274C62.7838 100.069 62.8993 99.7905 62.8997 99.4999L62.3879 80.4387L62.826 80.4269L63.3379 99.494C63.3383 99.6959 63.299 99.8959 63.2221 100.082C63.1452 100.269 63.0323 100.439 62.8899 100.582C62.7474 100.725 62.5782 100.838 62.3918 100.916C62.2055 100.994 62.0057 101.034 61.8038 101.034Z" fill="#CCCCCC"/>
<path d="M61.8913 45.58L61.4531 45.5918L61.679 54.0045L62.1172 53.9928L61.8913 45.58Z" fill="#CCCCCC"/>
<path d="M56.632 92.4012H8.88536C8.53846 92.4008 8.20587 92.2628 7.96058 92.0175C7.71528 91.7722 7.5773 91.4397 7.57691 91.0928L5.39844 9.94739C5.39801 9.77517 5.43152 9.60456 5.49704 9.4453C5.56257 9.28603 5.65883 9.14123 5.78032 9.01918C5.90182 8.89713 6.04618 8.8002 6.20514 8.73395C6.3641 8.6677 6.53457 8.63341 6.70678 8.63306H54.4535C54.8004 8.63345 55.1329 8.77143 55.3782 9.01673C55.6235 9.26203 55.7615 9.5946 55.7619 9.94151L56.1565 19.2772L55.7186 19.2956L55.3238 9.95071C55.3246 9.83578 55.3026 9.72182 55.2593 9.61537C55.2159 9.50893 55.152 9.41208 55.0711 9.33039C54.9903 9.2487 54.8941 9.18377 54.7881 9.13933C54.6821 9.09488 54.5684 9.0718 54.4535 9.07139H6.70678C6.4761 9.07166 6.25494 9.16342 6.09183 9.32655C5.92871 9.48967 5.83695 9.71082 5.83669 9.94151L8.01515 91.0869C8.01469 91.2016 8.03685 91.3152 8.08034 91.4213C8.12384 91.5274 8.18783 91.6239 8.26865 91.7053C8.34947 91.7866 8.44554 91.8513 8.55136 91.8955C8.65718 91.9397 8.77068 91.9626 8.88536 91.9629H56.632C56.8627 91.9626 57.0839 91.8709 57.247 91.7077C57.4101 91.5446 57.5019 91.3234 57.5022 91.0928L57.22 80.4386L57.6582 80.4271L57.9404 91.087C57.9408 91.2592 57.9073 91.4298 57.8418 91.5891C57.7762 91.7483 57.68 91.8931 57.5585 92.0151C57.437 92.1372 57.2926 92.2341 57.1337 92.3003C56.9747 92.3666 56.8042 92.4009 56.632 92.4012Z" fill="#CCCCCC"/>
<path d="M56.7429 45.7992L56.3047 45.8108L56.5251 54.139L56.9633 54.1274L56.7429 45.7992Z" fill="#CCCCCC"/>
<path d="M69.3383 45.805H13.4518C13.0473 45.8046 12.6592 45.6445 12.372 45.3596C12.0847 45.0747 11.9215 44.688 11.9177 44.2835L11.041 20.6013C11.0415 20.1945 11.2033 19.8046 11.4909 19.517C11.7785 19.2294 12.1684 19.0676 12.5752 19.0671H68.4617C68.8662 19.0676 69.2543 19.2276 69.5415 19.5125C69.8288 19.7974 69.992 20.1841 69.9958 20.5887L70.8725 44.2709C70.872 44.6776 70.7102 45.0676 70.4226 45.3552C70.135 45.6428 69.7451 45.8046 69.3383 45.805ZM11.4794 20.5897L12.356 44.2709C12.3563 44.5614 12.4719 44.8399 12.6773 45.0454C12.8828 45.2508 13.1613 45.3663 13.4518 45.3667H69.3383C69.6269 45.3663 69.9036 45.2524 70.1087 45.0494C70.3138 44.8465 70.4307 44.5709 70.4341 44.2824L69.5575 20.6013C69.5572 20.3108 69.4416 20.0322 69.2362 19.8268C69.0307 19.6214 68.7522 19.5058 68.4617 19.5055H12.5752C12.2866 19.5058 12.0098 19.6198 11.8048 19.8227C11.5997 20.0257 11.4828 20.3012 11.4794 20.5897Z" fill="#3F3D56"/>
<path d="M79.8579 80.6519H23.9713C23.5668 80.6515 23.1787 80.4914 22.8915 80.2066C22.6043 79.9217 22.441 79.535 22.4373 79.1304L21.5605 55.4482C21.561 55.0415 21.7228 54.6515 22.0104 54.3639C22.298 54.0763 22.6879 53.9145 23.0947 53.9141H78.9812C79.3858 53.9145 79.7738 54.0745 80.0611 54.3594C80.3483 54.6443 80.5115 55.031 80.5153 55.4356L81.392 79.1178C81.3915 79.5245 81.2298 79.9145 80.9422 80.2021C80.6546 80.4897 80.2646 80.6515 79.8579 80.6519ZM21.9989 55.4366L22.8755 79.1178C22.8759 79.4083 22.9914 79.6868 23.1969 79.8923C23.4023 80.0977 23.6808 80.2133 23.9713 80.2136H79.8579C80.1464 80.2133 80.4232 80.0993 80.6283 79.8964C80.8334 79.6934 80.9502 79.4179 80.9536 79.1293L80.077 55.4482C80.0767 55.1577 79.9611 54.8791 79.7557 54.6737C79.5503 54.4683 79.2717 54.3527 78.9812 54.3524H23.0947C22.8062 54.3527 22.5294 54.4667 22.3243 54.6696C22.1192 54.8726 22.0023 55.1481 21.9989 55.4366Z" fill="#3F3D56"/>
<path d="M37.2292 59.0645C36.8514 59.0645 36.4891 59.2145 36.2219 59.4817C35.9548 59.7489 35.8047 60.1112 35.8047 60.489C35.8047 60.8668 35.9548 61.2292 36.2219 61.4963C36.4891 61.7635 36.8514 61.9136 37.2292 61.9136H65.7204C66.0982 61.9136 66.4606 61.7635 66.7277 61.4963C66.9949 61.2292 67.145 60.8668 67.145 60.489C67.145 60.1112 66.9949 59.7489 66.7277 59.4817C66.4606 59.2145 66.0982 59.0645 65.7204 59.0645H37.2292Z" fill="#6C63FF"/>
<path d="M37.2292 65.8584C36.8514 65.8584 36.4891 66.0085 36.2219 66.2756C35.9548 66.5428 35.8047 66.9051 35.8047 67.283C35.8047 67.6608 35.9548 68.0231 36.2219 68.2903C36.4891 68.5574 36.8514 68.7075 37.2292 68.7075H65.7204C66.0982 68.7075 66.4606 68.5574 66.7277 68.2903C66.9949 68.0231 67.145 67.6608 67.145 67.283C67.145 66.9051 66.9949 66.5428 66.7277 66.2756C66.4606 66.0085 66.0982 65.8584 65.7204 65.8584H37.2292Z" fill="#6C63FF"/>
<path d="M37.2292 72.6526C36.8514 72.6526 36.4891 72.8027 36.2219 73.0698C35.9548 73.337 35.8047 73.6993 35.8047 74.0771C35.8047 74.455 35.9548 74.8173 36.2219 75.0845C36.4891 75.3516 36.8514 75.5017 37.2292 75.5017H65.7204C66.0982 75.5017 66.4606 75.3516 66.7277 75.0845C66.9949 74.8173 67.145 74.455 67.145 74.0771C67.145 73.6993 66.9949 73.337 66.7277 73.0698C66.4606 72.8027 66.0982 72.6526 65.7204 72.6526H37.2292Z" fill="#6C63FF"/>
<path d="M26.7097 24.2174C26.3319 24.2174 25.9696 24.3675 25.7024 24.6347C25.4352 24.9018 25.2852 25.2641 25.2852 25.642C25.2852 26.0198 25.4352 26.3821 25.7024 26.6493C25.9696 26.9164 26.3319 27.0665 26.7097 27.0665H55.2009C55.5787 27.0665 55.941 26.9164 56.2082 26.6493C56.4754 26.3821 56.6254 26.0198 56.6254 25.642C56.6254 25.2641 56.4754 24.9018 56.2082 24.6347C55.941 24.3675 55.5787 24.2174 55.2009 24.2174H26.7097Z" fill="#6C63FF"/>
<path d="M26.7097 31.0115C26.3319 31.0115 25.9696 31.1616 25.7024 31.4287C25.4352 31.6959 25.2852 32.0582 25.2852 32.436C25.2852 32.8138 25.4352 33.1762 25.7024 33.4433C25.9696 33.7105 26.3319 33.8606 26.7097 33.8606H55.2009C55.5787 33.8606 55.941 33.7105 56.2082 33.4433C56.4754 33.1762 56.6254 32.8138 56.6254 32.436C56.6254 32.0582 56.4754 31.6959 56.2082 31.4287C55.941 31.1616 55.5787 31.0115 55.2009 31.0115H26.7097Z" fill="#6C63FF"/>
<path d="M26.7097 37.8055C26.3319 37.8055 25.9696 37.9556 25.7024 38.2228C25.4352 38.4899 25.2852 38.8523 25.2852 39.2301C25.2852 39.6079 25.4352 39.9703 25.7024 40.2374C25.9696 40.5046 26.3319 40.6547 26.7097 40.6547H55.2009C55.5787 40.6547 55.941 40.5046 56.2082 40.2374C56.4754 39.9703 56.6254 39.6079 56.6254 39.2301C56.6254 38.8523 56.4754 38.4899 56.2082 38.2228C55.941 37.9556 55.5787 37.8055 55.2009 37.8055H26.7097Z" fill="#6C63FF"/>
<path d="M30.7639 6.57503C31.9743 6.57503 32.9555 5.5938 32.9555 4.3834C32.9555 3.173 31.9743 2.19177 30.7639 2.19177C29.5535 2.19177 28.5723 3.173 28.5723 4.3834C28.5723 5.5938 29.5535 6.57503 30.7639 6.57503Z" fill="#E6E6E6"/>
</svg>
