<svg xmlns="http://www.w3.org/2000/svg" xmlns:xlink="http://www.w3.org/1999/xlink" width="262.603" height="217.664" viewBox="0 0 262.603 217.664">
    <defs>
        <linearGradient id="linear-gradient" x1=".532" x2=".327" y1=".006" y2="3.202" gradientUnits="objectBoundingBox">
            <stop offset="0" stop-color="#09005d"/>
            <stop offset="1" stop-color="#1a0f91"/>
        </linearGradient>
        <linearGradient id="linear-gradient-2" x1=".554" x2=".395" y1="-2.158" y2="6.275" xlink:href="#linear-gradient"/>
        <linearGradient id="linear-gradient-3" x1="1.73" x2="-1.657" y1="-.13" y2="1.467" gradientUnits="objectBoundingBox">
            <stop offset="0" stop-color="#4042e2"/>
            <stop offset="1" stop-color="#4f52ff"/>
        </linearGradient>
        <linearGradient id="linear-gradient-4" x1="1.289" x2="-2.098" y1=".127" y2="1.724" xlink:href="#linear-gradient-3"/>
        <linearGradient id="linear-gradient-7" x2="1" y1=".5" y2=".5" gradientUnits="objectBoundingBox">
            <stop offset="0" stop-color="#fe7062"/>
            <stop offset="1" stop-color="#ff928e"/>
        </linearGradient>
        <linearGradient id="linear-gradient-8" x1=".772" x2=".499" y1="-6.693" y2=".843" gradientUnits="objectBoundingBox">
            <stop offset="0" stop-color="#020039"/>
            <stop offset="1" stop-color="#090056"/>
        </linearGradient>
        <linearGradient id="linear-gradient-9" x2="1" y1=".5" y2=".5" gradientUnits="objectBoundingBox">
            <stop offset="0" stop-color="#ff928e"/>
            <stop offset="1" stop-color="#feb3b1"/>
        </linearGradient>
        <linearGradient id="linear-gradient-11" x1=".734" x2=".424" y1="-1.867" y2="1.1" xlink:href="#linear-gradient-8"/>
        <linearGradient id="linear-gradient-13" x1="0" x2="1" y1=".5" y2=".5" xlink:href="#linear-gradient-3"/>
        <linearGradient id="linear-gradient-14" x1="-7.917" x2="-6.838" y1="11.511" y2="11.511" xlink:href="#linear-gradient"/>
        <linearGradient id="linear-gradient-15" x1="-1.218" x2=".954" y1="1.584" y2=".207" xlink:href="#linear-gradient-9"/>
        <style>
            .cls-1{fill:#7d97f4}.cls-3{fill:#fff}.cls-4,.cls-6{fill:#6d89cf}.cls-4{opacity:.58}.cls-5{fill:#263238}.cls-7{fill:#a7b7e0}.cls-10{fill:#bed2fa}.cls-13{fill:#ffd1b7}.cls-14{fill:#130188}.cls-16{fill:#180e8c}.cls-17{fill:#fbc5a7}.cls-18,.cls-19{opacity:.17}.cls-18{fill:url(#linear-gradient-3)}.cls-19{fill:url(#linear-gradient-4)}.cls-20{fill:url(#linear-gradient-7)}.cls-22{fill:url(#linear-gradient-9)}.cls-30{opacity:.15}.cls-31{opacity:.51}
        </style>
    </defs>
    <g id="Group_10077" transform="translate(-929 -185.336)">
        <g id="Group_10071">
            <g id="Group_10068" transform="translate(2.092 -4.258)">
                <g id="Checklist" transform="translate(998.908 193.258)">
                    <g id="Group_9835" transform="translate(0 0)">
                        <g id="Group_9777" transform="translate(0 13.755)">
                            <path id="Path_14274" d="M2-1h124.481v169.315H2z" class="cls-1"/>
                        </g>
                        <g id="Group_9778" transform="translate(10.532 20.76)">
                            <path id="Path_14175" fill="#fff" d="M268.876 244.624h-110.95v-156h110.95v156z" opacity="0.4" transform="translate(-157.926 -88.621)"/>
                        </g>
                        <g id="Group_9779" transform="translate(9.779 18.697)">
                            <path id="Path_14176" d="M266.433 239.837H156.482V84.666h109.95v155.171z" class="cls-3" transform="translate(-156.482 -84.666)"/>
                        </g>
                        <g id="Group_9783" transform="translate(7.59 18.954)">
                            <g id="Group_9780" transform="translate(0.136 0.136)">
                                <path id="Path_14177" d="M252.734 228.123l-12.664 10.312h-87.524V85.421H263.5V219.4z" class="cls-3" transform="translate(-152.546 -85.421)"/>
                            </g>
                        </g>
                        <g id="Group_9785" transform="translate(49.998)">
                            <path id="Path_14179" d="M235.256 58.215l-1.66-9.4h26.145l-1.453 9.4z" class="cls-1" transform="translate(-233.596 -48.818)"/>
                        </g>
                        <g id="Group_9795" transform="translate(19.331 43.468)">
                            <g id="Group_9786" transform="translate(0 0)">
                                <path id="Path_14180" d="M193.488 150.853H174.8v-18.692h18.692zm-18.171-.522h17.649v-17.648h-17.648z" class="cls-4" transform="translate(-174.796 -132.161)"/>
                            </g>
                            <g id="Group_9788" transform="translate(26.626 4.378)">
                                <g id="Group_9787">
                                    <path id="Path_14181" d="M283.964 140.691c0 .075-13.011.136-29.057.136s-29.06-.061-29.06-.136 13.008-.136 29.06-.136 29.057.061 29.057.136z" class="cls-5" transform="translate(-225.847 -140.555)"/>
                                </g>
                            </g>
                            <g id="Group_9790" transform="translate(26.626 8.263)">
                                <g id="Group_9789">
                                    <path id="Path_14182" d="M283.964 148.139c0 .075-13.011.136-29.057.136s-29.06-.061-29.06-.136 13.008-.136 29.06-.136 29.057.061 29.057.136z" class="cls-5" transform="translate(-225.847 -148.003)"/>
                                </g>
                            </g>
                            <g id="Group_9792" transform="translate(26.626 12.147)">
                                <g id="Group_9791">
                                    <path id="Path_14183" d="M283.964 155.586c0 .075-13.011.136-29.057.136s-29.06-.061-29.06-.136 13.008-.136 29.06-.136 29.057.06 29.057.136z" class="cls-5" transform="translate(-225.847 -155.45)"/>
                                </g>
                            </g>
                            <g id="Group_9794" transform="translate(26.626 16.031)">
                                <g id="Group_9793">
                                    <path id="Path_14184" d="M283.964 163.033c0 .075-13.011.136-29.057.136s-29.06-.061-29.06-.136 13.008-.136 29.06-.136 29.057.061 29.057.136z" class="cls-5" transform="translate(-225.847 -162.897)"/>
                                </g>
                            </g>
                        </g>
                        <g id="Group_9806" transform="translate(19.331 72.275)">
                            <g id="Group_9796">
                                <path id="Path_14185" d="M193.488 206.086H174.8v-18.692h18.692zm-18.171-.522h17.649v-17.648h-17.648z" class="cls-4" transform="translate(-174.796 -187.394)"/>
                            </g>
                            <g id="Group_9799" transform="translate(26.626 4.378)">
                                <g id="Group_9798">
                                    <path id="Path_14187" d="M283.964 195.925c0 .075-13.011.136-29.057.136s-29.06-.061-29.06-.136 13.008-.136 29.06-.136 29.057.06 29.057.136z" class="cls-5" transform="translate(-225.847 -195.789)"/>
                                </g>
                            </g>
                            <g id="Group_9801" transform="translate(26.626 8.263)">
                                <g id="Group_9800">
                                    <path id="Path_14188" d="M283.964 203.372c0 .075-13.011.136-29.057.136s-29.06-.061-29.06-.136 13.008-.136 29.06-.136 29.057.064 29.057.136z" class="cls-5" transform="translate(-225.847 -203.236)"/>
                                </g>
                            </g>
                            <g id="Group_9803" transform="translate(26.626 12.147)">
                                <g id="Group_9802">
                                    <path id="Path_14189" d="M283.964 210.819c0 .075-13.011.136-29.057.136s-29.06-.061-29.06-.136 13.008-.136 29.06-.136 29.057.061 29.057.136z" class="cls-5" transform="translate(-225.847 -210.683)"/>
                                </g>
                            </g>
                            <g id="Group_9805" transform="translate(26.626 16.031)">
                                <g id="Group_9804">
                                    <path id="Path_14190" d="M283.964 218.266c0 .075-13.011.136-29.057.136s-29.06-.061-29.06-.136 13.008-.136 29.06-.136 29.057.061 29.057.136z" class="cls-5" transform="translate(-225.847 -218.13)"/>
                                </g>
                            </g>
                            <g id="Group_10073" transform="translate(4.198 4.378)">
                                <g id="Group_9797">
                                    <path id="Path_14186" d="M188.54 195.445l8.7-8.17 1.6 1.886-8.651 8.049z" class="cls-6" transform="translate(-188.54 -187.275)"/>
                                </g>
                                <g id="Group_10072">
                                    <path id="Path_14186-2" d="M198.837 195.445l-8.7-8.17-1.6 1.886 8.651 8.049z" class="cls-6" transform="translate(-188.54 -187.275)"/>
                                </g>
                            </g>
                        </g>
                        <g id="Group_9817" transform="translate(19.331 100.151)">
                            <g id="Group_9807">
                                <path id="Path_14191" d="M193.488 259.534H174.8v-18.692h18.692zm-18.171-.522h17.649v-17.648h-17.648z" class="cls-7" transform="translate(-174.796 -240.842)"/>
                            </g>
                            <g id="Group_9810" transform="translate(26.626 4.378)">
                                <g id="Group_9809">
                                    <path id="Path_14193" d="M283.964 249.373c0 .075-13.011.136-29.057.136s-29.06-.061-29.06-.136 13.008-.136 29.06-.136 29.057.063 29.057.136z" class="cls-5" transform="translate(-225.847 -249.237)"/>
                                </g>
                            </g>
                            <g id="Group_9812" transform="translate(26.626 8.263)">
                                <g id="Group_9811">
                                    <path id="Path_14194" d="M283.964 256.82c0 .075-13.011.136-29.057.136s-29.06-.061-29.06-.136 13.008-.136 29.06-.136 29.057.061 29.057.136z" class="cls-5" transform="translate(-225.847 -256.684)"/>
                                </g>
                            </g>
                            <g id="Group_9814" transform="translate(26.626 12.147)">
                                <g id="Group_9813">
                                    <path id="Path_14195" d="M283.964 264.267c0 .075-13.011.136-29.057.136s-29.06-.061-29.06-.136 13.008-.136 29.06-.136 29.057.061 29.057.136z" class="cls-5" transform="translate(-225.847 -264.131)"/>
                                </g>
                            </g>
                            <g id="Group_9816" transform="translate(26.626 16.031)">
                                <g id="Group_9815">
                                    <path id="Path_14196" d="M283.964 271.714c0 .075-13.011.136-29.057.136s-29.06-.061-29.06-.136 13.008-.136 29.06-.136 29.057.061 29.057.136z" class="cls-5" transform="translate(-225.847 -271.578)"/>
                                </g>
                            </g>
                        </g>
                        <g id="Group_9828" transform="translate(19.331 127.067)">
                            <g id="Group_9818">
                                <path id="Path_14197" d="M193.488 311.14H174.8v-18.692h18.692zm-18.171-.522h17.649V292.97h-17.648z" class="cls-7" transform="translate(-174.796 -292.448)"/>
                            </g>
                            <g id="Group_9821" transform="translate(26.626 4.378)">
                                <g id="Group_9820">
                                    <path id="Path_14199" d="M283.964 300.978c0 .075-13.011.136-29.057.136s-29.06-.061-29.06-.136 13.008-.136 29.06-.136 29.057.058 29.057.136z" class="cls-5" transform="translate(-225.847 -300.842)"/>
                                </g>
                            </g>
                            <g id="Group_9823" transform="translate(26.626 8.262)">
                                <g id="Group_9822">
                                    <path id="Path_14200" d="M283.964 308.425c0 .075-13.011.136-29.057.136s-29.06-.06-29.06-.136 13.008-.136 29.06-.136 29.057.061 29.057.136z" class="cls-5" transform="translate(-225.847 -308.289)"/>
                                </g>
                            </g>
                            <g id="Group_9825" transform="translate(26.626 12.147)">
                                <g id="Group_9824">
                                    <path id="Path_14201" d="M283.964 315.873c0 .075-13.011.136-29.057.136s-29.06-.06-29.06-.136 13.008-.136 29.06-.136 29.057.063 29.057.136z" class="cls-5" transform="translate(-225.847 -315.737)"/>
                                </g>
                            </g>
                            <g id="Group_9827" transform="translate(26.626 16.031)">
                                <g id="Group_9826">
                                    <path id="Path_14202" d="M283.964 323.32c0 .075-13.011.136-29.057.136s-29.06-.061-29.06-.136 13.008-.136 29.06-.136 29.057.061 29.057.136z" class="cls-5" transform="translate(-225.847 -323.184)"/>
                                </g>
                            </g>
                        </g>
                        <g id="Group_9834" opacity="0.3" transform="translate(72.895)">
                            <path id="Path_14206" fill="#103184" d="M278.939 48.818l-1.442 8.4h1.8l1.453-8.4h-2.287" transform="translate(-277.498 -48.818)"/>
                        </g>
                        <g id="Group_10070" transform="translate(40.536 8.397)">
                            <path id="Path_14275" d="M14.757 0h16.5c7.817 0 14.154 3.337 14.154 11.154v1.412H0v-.809C0 3.607 6.607 0 14.757 0z" class="cls-10"/>
                        </g>
                    </g>
                </g>
                <g id="Group_10048" transform="translate(1021.621 238.119)">
                    <path id="Path_14214" d="M184.223 151.988l1.988-1.9 3.062 2.734 5.49-5.187 1.731 1.958-7.221 6.931z" class="cls-6" transform="translate(-184.223 -143.771)"/>
                </g>
            </g>
            <g id="Group_10049" transform="translate(481.217 -518.289)">
                <g id="Group_10053" transform="translate(633.938 800.057)">
                    <g id="Group_10050" transform="translate(0 61.049)">
                        <path id="Path_14276" fill="#fcc09f" d="M1725.4 1240.852a23.05 23.05 0 0 0-8.359 3.567 2.205 2.205 0 0 0-.973 2.108 93.5 93.5 0 0 0 9.89 31.042 3.34 3.34 0 0 1 .321 2.291l-1.248 5.807-2.314 2.17h5.96l3.969-10.74-1.7-.537a3.211 3.211 0 0 1-2.242-3.006l-.2-11.521a13.107 13.107 0 0 0-3.147-8.674l9.519-.463z" transform="translate(-1691.202 -1235.474)"/>
                        <path id="Path_14277" fill="url(#linear-gradient)" d="M1743.043 1476.6c-.543.71 5.842 1.648 9.068.094 0 0 4.472-7.781 4.472-11.786 0 0-.355-.817-2.981-.631 0 0-1.5 9.212-3.087 10.244s-4.436.1-4.436.1a9.341 9.341 0 0 0-3.036 1.979z" transform="translate(-1713.854 -1423.194)"/>
                        <path id="Path_14278" d="M1617.371 1261.31c-.051-.088-10.249-1.226-10.249-1.226a23.564 23.564 0 0 1-.709 7.369c-1.043 4.268-16.016 22.761-16.016 22.761l1.57 4.977a25.255 25.255 0 0 1-14.327.862l9.729-5.839s9.106-31.031 14.683-36.566l10.222-3.537z" class="cls-13" transform="translate(-1574.898 -1243.254)"/>
                        <path id="Path_14279" d="M1769.214 1207.181s5.875 8.739 6.358 12.725-1.609 5.606-7.774 5.873-22.623.263-22.623.263l-14.047-12s10.237-3.653 12.9-4.686 25.186-2.175 25.186-2.175z" class="cls-14" transform="translate(-1703.87 -1207.181)"/>
                        <path id="Path_14280" fill="url(#linear-gradient-2)" d="M1576.947 1521.857a2.875 2.875 0 0 1 .548 3.459s-13.389 2.373-17.025 1.3c0 0 .755-1.723 4.848-3.684l-.3.232a.489.489 0 0 0 .323.877c2.697-.157 8.279-.652 11.606-2.184z" transform="translate(-1560.471 -1471.596)"/>
                    </g>
                    <g id="Group_10052" transform="translate(35.105)">
                        <path id="Path_14281" d="M1846.017 882.668c.888.277 4.088 1.425 3.675 3.484a.377.377 0 0 0 .472.432c1.379-.371 4.425-.839 6.313 1.527 1.667 2.089.421 4.06-.594 5.142a.379.379 0 0 0 .317.641c2.535-.32 8.043-.4 8.945 4.763.84 4.812-2.509 6.169-4.5 6.552a.377.377 0 0 0-.126.69c.991.629 2.139 1.928 1.675 4.492-.727 4.018-8.606 3.689-9.526 3.637a.372.372 0 0 1-.164-.049l-12.619-7.2a.38.38 0 0 1-.186-.265l-2.548-14.713a.38.38 0 0 1 .1-.328l6.321-9.084c-1.438-.784 2.308.236 2.445.279z" class="cls-16" transform="translate(-1828.063 -872.969)"/>
                        <path id="Path_14282" d="M1803.656 1019.153a134.167 134.167 0 0 1-10.21-10.83 9.156 9.156 0 0 1-1.55-8.24 113.8 113.8 0 0 1 4.519-11.381c.382-1.28 8.054-1.227 8.054-1.227s15.1 9.8 21.028 26.394l-6.661 2.074a77.842 77.842 0 0 0-7.836-10.817s6.739 8.9 6.976 12.547z" class="cls-10" transform="translate(-1789.718 -961.518)"/>
                        <path id="Path_14283" d="M1816.385 936.656c.08.266 2.083 6.9 2.239 7.042s4.391.366 6.385-1l-3.8-8.652z" class="cls-17" transform="translate(-1810.615 -916.625)"/>
                        <g id="Group_10051" transform="translate(0.813)">
                            <path id="Path_14284" d="M1789.68 855.856s-3.089 2.42-4.093 8.1 1.4 7.532 3.711 7.248a10.792 10.792 0 0 0 8.262-5.447c2.64-4.208-3.819-12.878-7.88-9.901z" class="cls-13" transform="translate(-1785.352 -850.409)"/>
                            <path id="Path_14285" d="M1796.266 838.262s.631-8.09-5.932-6.4l-1.247 1.493s-3.509-3.438-.1-6.459 8.455-2.659 11.57 2.192 4.365 8.325 2.266 11.62-4.029.729-4.029.729.874-2.786-.089-3.889-1.972.817-1.972.817z" class="cls-16" transform="translate(-1787.155 -824.96)"/>
                            <path id="Path_14286" d="M1843.381 904.523s.3-4.16 2.486-3.129-.491 3.9-1.575 4.889z" class="cls-13" transform="translate(-1834.112 -889.047)"/>
                        </g>
                        <path id="Path_14287" d="M1780.259 1158.5l5.027-4.845 6.954 2.938s6.922 1.073 10.884 0l3.962-1.073 8.953-2.787 1.406 3.974a2.393 2.393 0 0 1-.874 2.749 15.812 15.812 0 0 1-2.261 1.408c-1.179.516-29.064-.357-29.064-.357z" class="cls-13" transform="translate(-1780.259 -1100.377)"/>
                    </g>
                </g>
                <g id="Group_10069" transform="translate(671.151 878.518)">
                    <path id="Path_14288" d="M454.026 1333.377c-.76 1.125-3.782 26.6-4.255 36a1.113 1.113 0 0 0 1.114 1.167 1.115 1.115 0 0 0 1.1-.943l5.527-35.417z" class="cls-18" transform="translate(-449.453 -1327.776)"/>
                    <path id="Path_14289" d="M610.173 1333.377c.76 1.125 3.782 26.6 4.255 36a1.112 1.112 0 0 1-1.114 1.167 1.115 1.115 0 0 1-1.1-.943l-5.527-35.417z" class="cls-19" transform="translate(-581.306 -1327.776)"/>
                    <path id="Path_14290" d="M447.786 1301.922v.278a3.787 3.787 0 0 0 3.859 3.674l25.546.434a3.819 3.819 0 0 0 4-3.466l.013-.254a3.772 3.772 0 0 0-3.85-3.82l-25.557-.458a3.8 3.8 0 0 0-4.011 3.612z" class="cls-6" transform="translate(-447.783 -1298.31)"/>
                </g>
                <g id="Group_10054" transform="translate(447.783 875.661)">
                    <path id="Path_14288-2" d="M454.026 1333.377c-.76 1.125-3.782 26.6-4.255 36a1.113 1.113 0 0 0 1.114 1.167 1.115 1.115 0 0 0 1.1-.943l5.527-35.417z" class="cls-18" transform="translate(-449.453 -1327.776)"/>
                    <path id="Path_14289-2" d="M610.173 1333.377c.76 1.125 3.782 26.6 4.255 36a1.112 1.112 0 0 1-1.114 1.167 1.115 1.115 0 0 1-1.1-.943l-5.527-35.417z" class="cls-19" transform="translate(-581.306 -1327.776)"/>
                    <path id="Path_14290-2" d="M447.786 1301.922v.278a3.787 3.787 0 0 0 3.859 3.674l25.546.434a3.819 3.819 0 0 0 4-3.466l.013-.254a3.772 3.772 0 0 0-3.85-3.82l-25.557-.458a3.8 3.8 0 0 0-4.011 3.612z" class="cls-6" transform="translate(-447.783 -1298.31)"/>
                </g>
                <g id="Group_10059" transform="translate(451.254 795.324)">
                    <g id="Group_10055" transform="translate(22.57 16.985)">
                        <path id="Path_14291" d="M739.689 908.965l-.666-1.082a2.407 2.407 0 0 0-1.754-1.128l-7.083-.878s-.314-.8.987-1.737a1.992 1.992 0 0 0 .533-2.475s-1.741 1.428-4.259 3.628a7.017 7.017 0 0 0-2.192 4.17l-1.134 2.485a3.291 3.291 0 0 0 3.1 1.148l.258-1.9a30.3 30.3 0 0 0 12.21-2.231z" class="cls-17" transform="translate(-706.025 -901.665)"/>
                        <path id="Path_14292" d="M628.92 966.049l-4.208 9.224a4.038 4.038 0 0 1-5.074 2.111l-8.623-7.665-.191 15.388 8.988 1.8a8.89 8.89 0 0 0 10.555-7.524l1.651-12.188a3.291 3.291 0 0 1-3.098-1.146z" class="cls-10" transform="translate(-610.824 -955.765)"/>
                    </g>
                    <g id="Group_10056" transform="translate(38.735 116.377)">
                        <path id="Path_14293" d="M719.763 1549.08c-4.541 0-6.55-.39-7.449-.745a1.723 1.723 0 0 0 1.678 1.335h16.065a.781.781 0 0 0 .753-.987c-1.831.147-5.72.397-11.047.397z" class="cls-20" transform="translate(-712.268 -1544.44)"/>
                        <path id="Path_14294" fill="url(#linear-gradient-8)" d="M730.569 1528.19a.757.757 0 0 0-.132-.273c-1.224-1.562-3.682-4.016-7.026-3.969-4.9.069-6.607.6-10.414.03l-.9 2.977a1.709 1.709 0 0 0-.027.888c.9.355 2.908.745 7.449.745 5.33-.001 9.219-.251 11.05-.398z" transform="translate(-712.027 -1523.947)"/>
                    </g>
                    <path id="Path_14295" d="M719.21 1504.055l-1.1 3.749a6.482 6.482 0 0 0 4.59.219l.422-3.248z" class="cls-22" transform="translate(-678.402 -1390.855)"/>
                    <g id="Group_10057" transform="translate(66.146 110.957)">
                        <path id="Path_14296" d="M900.488 1500.191c-3.54 2.844-5.349 3.8-6.271 4.088a1.72 1.72 0 0 0 2.14-.016l12.523-10.063a.779.779 0 0 0-.028-1.237c-1.335 1.261-4.211 3.891-8.364 7.228z" class="cls-20" transform="translate(-892.529 -1492.492)"/>
                        <path id="Path_14297" fill="url(#linear-gradient-11)" d="M899.972 1490.486a.756.756 0 0 0-.273-.13c-1.928-.446-5.374-.81-7.951 1.322-3.776 3.122-4.776 4.6-8.1 6.546l1.155 2.872a1.694 1.694 0 0 0 .533.706c.922-.287 2.731-1.243 6.271-4.088 4.154-3.337 7.03-5.967 8.365-7.228z" transform="translate(-883.649 -1490.015)"/>
                    </g>
                    <path id="Path_14298" fill="#0e0068" d="M549.828 1236.612s27.188 2.22 32.766 4.845-4.552 39.424-4.552 39.424-1.518.731-4.9-.32c0 0 3.465-27.156.886-33.044l-29.437-4.815z" transform="translate(-532.602 -1166.129)"/>
                    <path id="Path_14299" d="M866.736 1500.606c.252.23 2.7 5.169 2.7 5.169s2.726-.59 3.282-2.315l-2.452-4.46z" class="cls-22" transform="translate(-803.291 -1386.609)"/>
                    <path id="Path_14321" d="M20.506 59.963a14.977 14.977 0 0 0-.905-10.71 33.981 33.981 0 0 0-7.995-9.241s-3.451-7.768-2.66 4.539c.59 9.194 2.119 13.368 5.677 14.959.82.37 5.883.453 5.883.453z" class="cls-6" transform="translate(8.504 -12.318)"/>
                    <path id="Path_14300" d="M470.365 1235.189a13.768 13.768 0 0 0-.85 4.965 7.454 7.454 0 0 0 7.113 7.293l32.141 1.466a1.541 1.541 0 0 1 1.423 1.159c.755 2.921 4.447 11.892 22.493 29.794a1.455 1.455 0 0 0 1.8.2l2.569-1.623a.592.592 0 0 0 .195-.8l-18.714-31.957a7.243 7.243 0 0 0-4.4-3.264l-27.394-7z" class="cls-14" transform="translate(-469.514 -1164.933)"/>
                    <path id="Path_14301" d="M474.251 992.129a155.992 155.992 0 0 1 2.866-30.922 24.2 24.2 0 0 1 8.682-14l1.487-1.172 7.449 3.026 4.834 7.34a17.26 17.26 0 0 1 .811 13.542c-2.658 7.417-6.6 18.638-7.507 22.413 0 .006-12.337 1.635-18.622-.227z" class="cls-10" transform="translate(-473.487 -921.967)"/>
                    <path id="Path_14302" d="M557.358 871.714l-5.819 13.5s1.862 4.19 8.38 2.56l2.328-9.311z" class="cls-17" transform="translate(-538.438 -859.513)"/>
                    <path id="Path_14303" fill="url(#linear-gradient-13)" d="M708.935 1016.3c0-.233 7.449-25.14 7.449-25.14l8.147-1.4-9.777 27.24z" transform="translate(-670.694 -958.705)"/>
                    <path id="Path_14304" d="M706.02 1013.322c.466.466 5.121.466 5.121.466l9.776-28.4-7.682 1.629z" class="cls-6" transform="translate(-668.245 -955.031)"/>
                    <path id="Path_14320" fill="#ea8888" d="M20.971 14.855s.6-10.281-1.629-3.883S21.9 26.4 21.954 26.521l2.123-6.585z"/>
                    <path id="Path_14319" d="M22.57 60.621l2.012-5.721-12.976-14.888s-3.451-7.768-2.66 4.539 13.624 16.07 13.624 16.07z" class="cls-6"/>
                    <path id="Path_14322" d="M19.7 59.588l2.077-.628-9.956-12.293z" class="cls-6" transform="translate(226)"/>
                    <g id="Group_10058" transform="translate(16.505 0)">
                        <path id="Path_14305" d="M610.769 826.768c.07.189.224 13.49.224 13.49l-7.6-.073-2.015-12.585s8.217-3.989 9.391-.832z" class="cls-13" transform="translate(-596.822 -820.724)"/>
                        <path id="Path_14306" fill="url(#linear-gradient-14)" d="M579.638 804.619l.544 6.708a.929.929 0 0 0 .055.25c.184.5.94 2.153 2.589 1.276 1.5-.8 2.874-1.5 3.95-1.41a.94.94 0 0 1 .862.926 40.633 40.633 0 0 1-.384 6.3.938.938 0 0 1-1 .782 30.293 30.293 0 0 1-6.948-1.232.94.94 0 0 1-.627-.73c-.286-1.661-1.176-6.707-1.641-8.075-.437-1.284-2.223-1.723-2.986-1.854a.924.924 0 0 1-.612-.4 2.437 2.437 0 0 1 .852-3.819.941.941 0 0 0 .325-1.316 2.442 2.442 0 0 1 .625-3.588 3.444 3.444 0 0 1 4.226.1.941.941 0 0 0 1.2-.115.744.744 0 0 1 .833-.151.926.926 0 0 0 1.2-.666 2.807 2.807 0 0 1 2.845-2.278c3.365-.146 4.51 3.371 4.11 5.664s-4.058 2.243-6.036 1.559c-1.5-.521-3.045.7-3.7 1.313a.933.933 0 0 0-.282.756z" transform="translate(-572.853 -795.323)"/>
                        <path id="Path_14307" d="M580.5 873.39s.527-4.025-1.042-4.643-3.5.3-2.464 2.905c1.279 3.248 3.506 1.738 3.506 1.738z" class="cls-13" transform="translate(-576.084 -856.863)"/>
                    </g>
                    <path id="Path_14308" d="M550.511 1019.086c-16.537 11.437-23.565-14.653-23.74-14.8-10.708-8.845-10.2 7.211-8.845 9.078 13.68 21.325 29.562 15.13 34.469 8.585a5.319 5.319 0 0 1-1.884-2.863z" class="cls-10" transform="translate(-509.597 -968.693)"/>
                    <path id="Path_14311" fill="url(#linear-gradient-15)" d="M734.791 1056.162a13.891 13.891 0 0 1-1.779 2.9c-1.629 2.328-3.492 3.957-2.561 1.164s-.233-3.724-1.341-.683a18.056 18.056 0 0 1-2.151 4.407c-.434.342-.862.656-1.283.948a5.319 5.319 0 0 0 1.883 2.865c.666-.476 1.029-.787 1.029-.787s5.354-2.793 5.819-5.587a29.484 29.484 0 0 0 .384-5.227z" transform="translate(-684.761 -1014.5)"/>
                </g>
                <g id="Group_10067" transform="translate(480.703 858.504)">
                    <g id="Group_10066" transform="translate(24.297 2.785)">
                        <path id="Rectangle_2512" d="M0 0H4V60H0z" class="cls-1"/>
                        <path id="Rectangle_2514" d="M0 0H4V60H0z" class="cls-1" transform="translate(166)"/>
                    </g>
                    <path id="Path_14318" fill="#d1e0ff" d="M655.674 1190.889h209.653a1.271 1.271 0 0 1 1.237.932l.582 2.192a1.251 1.251 0 0 1-1.245 1.552l-210.741-.239a1.25 1.25 0 0 1-1.232-1.545l.506-1.953a1.271 1.271 0 0 1 1.24-.939z" transform="translate(-653.889 -1190.889)"/>
                </g>
            </g>
            <g id="Group_10046" transform="translate(1154.611 185.501)">
                <g id="Group_9723" class="cls-30" transform="translate(0)">
                    <g id="Group_9722">
                        <path id="Path_14150" d="M433 43.368l-37 .165v46.9l36.983.132z" class="cls-10" transform="translate(-396.004 -43.533)"/>
                    </g>
                </g>
                <g id="Group_10046-2">
                    <g id="Group_9727" transform="matrix(1, 0.017, -0.017, 1, 7.649, 8.263)">
                        <g id="Group_9726" class="cls-31">
                            <path id="Path_14152" d="M431.07 60.079l-20.9-.348.637 29.73 20.884-.447z" class="cls-10" transform="translate(-410.169 -59.732)"/>
                        </g>
                    </g>
                    <g id="Group_9729" transform="translate(7.388 8.449)">
                        <g id="Group_9728">
                            <path id="Path_14153" d="M410.806 89.462l20.557-15.721-21.194-14.009z" class="cls-10" transform="translate(-410.169 -59.732)"/>
                        </g>
                    </g>
                </g>
            </g>
            <g id="Group_10047" transform="translate(952.291 202.614)">
                <g id="Group_9723-2" class="cls-30" transform="translate(0 -0.165)">
                    <g id="Group_9722-2">
                        <path id="Path_14150-2" d="M419.584 43.368L396 43.473v29.895l23.574.084z" class="cls-10" transform="translate(-396.004 -43.368)"/>
                    </g>
                </g>
                <g id="Group_10046-3" transform="translate(4.545 5.207)">
                    <g id="Group_9727-2" transform="matrix(1, 0.017, -0.017, 1, 0.331, 0)">
                        <g id="Group_9726-2" class="cls-31">
                            <path id="Path_14152-2" d="M13.323.222L0 0l.406 18.951 13.312-.285z" class="cls-10"/>
                        </g>
                    </g>
                    <g id="Group_9729-2" transform="translate(0.164 0.118)">
                        <g id="Group_9728-2">
                            <path id="Path_14153-2" d="M410.575 78.683l13.1-10.021-13.509-8.93z" class="cls-10" transform="translate(-410.169 -59.732)"/>
                        </g>
                    </g>
                </g>
            </g>
        </g>
        <path id="Path_14323" d="M184.223 151.988l1.988-1.9 3.062 2.734 5.49-5.187 1.731 1.958-7.221 6.931z" class="cls-6" transform="translate(839.49 90.089)"/>
        <path id="Path_14324" d="M184.223 151.988l1.988-1.9 3.062 2.734 5.49-5.187 1.731 1.958-7.221 6.931z" class="cls-6" transform="translate(839.49 146.531)"/>
        <path id="Path_14325" d="M184.223 151.988l1.988-1.9 3.062 2.734 5.49-5.187 1.731 1.958-7.221 6.931z" class="cls-6" transform="translate(839.49 173.531)"/>
    </g>
</svg>
