<svg width="14" height="12" viewBox="0 0 14 12" fill="none" xmlns="http://www.w3.org/2000/svg">
<path d="M6.99067 1C4.90308 1 2.76165 2.56632 1.07583 5.69896C1.02771 5.78936 1.00134 5.89622 1.00005 6.00604C0.998762 6.11587 1.02262 6.22372 1.06859 6.31597C2.3639 8.94444 4.47666 11 6.99067 11C9.47735 11 11.6335 8.93819 12.9312 6.30382C12.9761 6.21337 13 6.10808 13 6.00052C13 5.89296 12.9761 5.78767 12.9312 5.69722C11.6306 3.09306 9.4586 1 6.99067 1Z" stroke="#A3ACC6" stroke-width="1.3" stroke-linecap="round" stroke-linejoin="round"/>
<path d="M7.0498 7.7998C8.0163 7.7998 8.7998 7.0163 8.7998 6.0498C8.7998 5.08331 8.0163 4.2998 7.0498 4.2998C6.08331 4.2998 5.2998 5.08331 5.2998 6.0498C5.2998 7.0163 6.08331 7.7998 7.0498 7.7998Z" stroke="#A3ACC6" stroke-width="1.3" stroke-linecap="round" stroke-linejoin="round"/>
</svg>
