<svg xmlns="http://www.w3.org/2000/svg" width="13.754" height="14.179">
    <path data-name="Path 13923" d="M27.777 22.694a4.186 4.186 0 0 0-2.151 7.775v1.82a.474.474 0 0 0 .473.473H27.3v.945a.473.473 0 0 0 .945 0v-.969h1.205a.474.474 0 0 0 .473-.473v-1.82a4.171 4.171 0 0 0-2.151-7.751zm1.465 7.066a.446.446 0 0 0-.26.425v1.607h-2.41v-1.606a.471.471 0 0 0-.26-.425 3.238 3.238 0 1 1 2.93 0zM27.3 21.323v-.851a.473.473 0 0 1 .945 0v.851a.473.473 0 0 1-.945 0zm-4.6 5.554a.474.474 0 0 1-.473.473h-.851a.473.473 0 1 1 0-.945h.851a.474.474 0 0 1 .473.472zm11.958 0a.474.474 0 0 1-.473.473h-.851a.473.473 0 1 1 0-.945h.851a.474.474 0 0 1 .469.472zM22.909 22.67a.468.468 0 1 1 .662-.662l.591.591a.457.457 0 0 1 0 .662.457.457 0 0 1-.662 0zm9.737 8.389a.457.457 0 0 1 0 .662.457.457 0 0 1-.662 0l-.591-.591a.468.468 0 0 1 .662-.662zm0-9.051a.457.457 0 0 1 0 .662l-.614.614a.457.457 0 0 1-.662 0 .457.457 0 0 1 0-.662l.591-.591a.466.466 0 0 1 .684-.022zm-8.46 8.46a.457.457 0 0 1 0 .662l-.591.591a.457.457 0 0 1-.662 0 .457.457 0 0 1 0-.662l.591-.591a.457.457 0 0 1 .661.001z" transform="translate(-20.9 -20)" style="fill:#a6b1c3"/>
</svg>
