<svg xmlns="http://www.w3.org/2000/svg" width="14.587" height="16.671" viewBox="0 0 14.587 16.671">
    <path fill="#fba61c" d="M45.324 12.139l-1.742-.747c-.109-.047-.2-.09-.29-.129a2.8 2.8 0 0 0-1.392-.323c-.1 0-.213-.244-.248-.576a5.275 5.275 0 0 0 1.566-2.84 1.556 1.556 0 0 0 0-3.066c-.029-.115-.061-.221-.093-.328a.518.518 0 0 0 .338-.484V.521A.521.521 0 0 0 42.94 0h-7.293a.521.521 0 0 0-.521.521v3.126a.518.518 0 0 0 .338.484c-.032.107-.064.213-.093.328a1.556 1.556 0 0 0 0 3.066 5.275 5.275 0 0 0 1.566 2.84c-.036.332-.15.576-.248.576a2.8 2.8 0 0 0-1.393.324c-.086.039-.181.082-.29.129l-1.742.747A2.081 2.081 0 0 0 32 14.055v2.1a.521.521 0 0 0 .521.521h13.545a.521.521 0 0 0 .521-.521v-2.1a2.081 2.081 0 0 0-1.263-1.915zm-12.282 1.916a1.034 1.034 0 0 1 .142-.51H45.4a1.034 1.034 0 0 1 .142.51v.011h-12.5zm10.129-1.7l.357.153H42.01a1.761 1.761 0 0 0 .3-.492 2.331 2.331 0 0 1 .553.2c.091.041.192.087.308.136zm-7-9.224V2.6h6.251v.521zm0-2.084h6.251v.521h-6.254zm.129 5.87a.521.521 0 0 0-.51-.416h-.052l-.057.008a.521.521 0 1 1 0-1.04l.057.007a.52.52 0 0 0 .561-.413 7.905 7.905 0 0 1 .243-.9h5.5a7.91 7.91 0 0 1 .243.9.521.521 0 0 0 .561.413l.054-.006a.521.521 0 1 1 0 1.04l-.053-.01a.523.523 0 0 0-.561.413c-.451 2.182-1.43 3.242-2.992 3.242S36.752 9.1 36.3 6.917zm2.993 4.283a3.8 3.8 0 0 0 1.41-.26 1.516 1.516 0 0 0 .553.832 3 3 0 0 1-3.927 0 1.517 1.517 0 0 0 .553-.832 3.8 3.8 0 0 0 1.411.26zm-3.877 1.15c.116-.05.217-.1.308-.136a2.33 2.33 0 0 1 .553-.2 1.762 1.762 0 0 0 .3.492h-1.518l.357-.153zm10.129 3.279h-12.5v-.521h12.5z" transform="translate(-32)"/>
</svg>
