<svg xmlns="http://www.w3.org/2000/svg" width="19.032" height="12.022" viewBox="0 0 19.032 12.022">
    <defs>
        <style>
            .cls-1{fill:#fba61c}
        </style>
    </defs>
    <g id="Group_7055" transform="translate(-2.84 -114.442)">
        <path id="Path_14097" d="M16.024 318.942a.482.482 0 0 1-.408-.25l-.089-.151-.089.152a.479.479 0 0 1-.405.249H9.679a.478.478 0 0 1-.4-.249l-.089-.152-.089.151a.482.482 0 0 1-.409.25H3.331a.45.45 0 0 1-.27-.092.6.6 0 0 1-.14-.768l1.34-2.37a.478.478 0 0 1 .414-.257h2.679a.482.482 0 0 1 .415.257l1.416 2.495 1.417-2.495a.478.478 0 0 1 .414-.257H13.7a.478.478 0 0 1 .415.257l1.417 2.495 1.416-2.495a.482.482 0 0 1 .416-.257h2.677a.478.478 0 0 1 .415.257l1.339 2.368a.607.607 0 0 1 .082.313.526.526 0 0 1-.491.548zm.9-1.118h3.529l-.707-1.237h-2.117zm-6.341 0h3.527l-.7-1.237h-2.122zm-6.346 0h3.532l-.7-1.237H4.947z" class="cls-1" transform="translate(0 -192.478)"/>
        <path id="Path_14098" d="M87.735 218.48a.406.406 0 0 1-.249-.088.566.566 0 0 1-.2-.351.653.653 0 0 1 .063-.421l1.251-2.36a.445.445 0 0 1 .387-.257h2.505a.448.448 0 0 1 .388.257l1.325 2.495 1.325-2.495a.448.448 0 0 1 .389-.257h2.5a.445.445 0 0 1 .388.257l1.252 2.36a.645.645 0 0 1 .073.3.519.519 0 0 1-.462.56h-5.005a.445.445 0 0 1-.378-.249l-.083-.153-.083.152a.445.445 0 0 1-.379.249zm6.786-1.118h3.295l-.656-1.242h-1.983zm-5.939 0h3.3l-.656-1.242h-1.978z" class="cls-1" transform="translate(-80.848 -96.291)"/>
        <path id="Path_14099" d="M172.182 117.914a.559.559 0 0 1-.469-.861l1.512-2.355a.552.552 0 0 1 .468-.257h3.026a.552.552 0 0 1 .469.257l1.513 2.355a.559.559 0 0 1-.47.861zm1.025-1.118h3.981l-.793-1.237H174z" class="cls-1" transform="translate(-162.851)"/>
    </g>
</svg>
