<svg xmlns="http://www.w3.org/2000/svg" width="18.903" height="17" viewBox="0 0 18.903 17">
    <defs>
        <style>
            .cls-1{fill:#a3acc6}
        </style>
    </defs>
    <g id="Group_6474" transform="translate(-.497 -26.222)">
        <path id="Path_13871" d="M19.116 41.544a13.446 13.446 0 0 1-2.919-2.3 8.5 8.5 0 0 0-13.21-10.532 8.5 8.5 0 0 0 10.136 13.443c2.478 1.378 5.733.453 5.876.412a.558.558 0 0 0 .117-1.022zm-5.683-.505a.558.558 0 0 0-.6-.009 7.387 7.387 0 1 1 2.205-2.068.558.558 0 0 0 .022.672 12.046 12.046 0 0 0 2.3 2.1 6.148 6.148 0 0 1-3.927-.695z" class="cls-1"/>
        <g id="Group_6474-2" transform="translate(4.655 32.361)">
            <path id="Path_13872" d="M121.025 289.415h-7.568a.558.558 0 0 0 0 1.116h7.568a.558.558 0 0 0 0-1.116z" class="cls-1" transform="translate(-112.899 -285.818)"/>
            <path id="Path_13873" d="M121.025 192.172h-7.568a.558.558 0 0 0 0 1.116h7.568a.558.558 0 1 0 0-1.116z" class="cls-1" transform="translate(-112.899 -192.172)"/>
        </g>
    </g>
</svg>
