<svg xmlns="http://www.w3.org/2000/svg" width="20.126" height="19.3" viewBox="0 0 20.126 19.3">
    <defs>
        <style>
            .cls-1{fill:#b5bcd1;stroke:#b5bcd1;stroke-width:.3px}
        </style>
    </defs>
    <g id="presentation" transform="translate(.15 -.85)">
        <path id="Path_14350" d="M11.913 22.783a.413.413 0 0 1-.413-.413v-4.957a.413.413 0 0 1 .826 0v4.957a.413.413 0 0 1-.413.413z" class="cls-1" transform="translate(-2 -2.783)"/>
        <path id="Path_14351" d="M15.63 23.3a.412.412 0 0 1-.229-.069l-3.717-2.478a.413.413 0 0 1 .458-.687l3.717 2.478a.413.413 0 0 1-.229.757z" class="cls-1" transform="translate(-2 -3.304)"/>
        <path id="Path_14352" d="M7.413 23.3a.413.413 0 0 1-.23-.757l3.717-2.474a.413.413 0 0 1 .458.687l-3.717 2.479a.4.4 0 0 1-.228.065z" class="cls-1" transform="translate(-1.217 -3.304)"/>
        <path id="Path_14353" d="M18.174 4.3H1.652a1.652 1.652 0 1 1 0-3.3h16.522a1.652 1.652 0 1 1 0 3.3zM1.652 1.826a.826.826 0 1 0 0 1.652h16.522a.826.826 0 1 0 0-1.652z" class="cls-1"/>
        <path id="Path_14354" d="M17.283 15.565H3.239A1.241 1.241 0 0 1 2 14.326V4.413A.413.413 0 0 1 2.413 4h15.7a.413.413 0 0 1 .413.413v9.913a1.241 1.241 0 0 1-1.243 1.239zM2.826 4.826v9.5a.413.413 0 0 0 .413.413h14.044a.413.413 0 0 0 .413-.413v-9.5z" class="cls-1" transform="translate(-.348 -.522)"/>
        <path id="Path_14355" d="M6.413 13.609a.413.413 0 0 1-.292-.7l3.3-3.3a.413.413 0 0 1 .521-.052l2.168 1.433 3.067-3.835a.413.413 0 1 1 .645.516l-3.3 4.13a.413.413 0 0 1-.552.086l-2.2-1.464-3.07 3.066a.414.414 0 0 1-.292.12z" class="cls-1" transform="translate(-1.043 -1.044)"/>
    </g>
</svg>
