<svg xmlns="http://www.w3.org/2000/svg" width="16.846" height="16.846" viewBox="0 0 16.846 16.846">
    <g>
        <path fill="#a3acc6" d="M22.2 16.367h-1.946v-1.944a.648.648 0 0 0-.648-.648h-4.535v-1.3h1.944a.648.648 0 0 0 .648-.648V6.648A.648.648 0 0 0 17.015 6h-5.184a.648.648 0 0 0-.648.648v5.183a.648.648 0 0 0 .648.648h1.944v1.3H9.24a.648.648 0 0 0-.648.648v1.944H6.648a.648.648 0 0 0-.648.644V22.2a.648.648 0 0 0 .648.648h5.183a.648.648 0 0 0 .648-.648v-5.185a.648.648 0 0 0-.648-.648H9.888v-1.3h9.071v1.3h-1.944a.648.648 0 0 0-.648.648V22.2a.648.648 0 0 0 .648.648H22.2a.648.648 0 0 0 .648-.648v-5.185a.648.648 0 0 0-.648-.648zM12.479 7.3h3.888v3.888h-3.888zm-1.3 14.254H7.3v-3.891h3.888zm10.367 0h-3.883v-3.891h3.887z" transform="translate(-6 -6)"/>
    </g>
</svg>
