<svg xmlns="http://www.w3.org/2000/svg" width="15.76" height="17.053" viewBox="0 0 15.76 17.053">
    <defs>
        <style>
            .cls-1{fill:#a3acc6}
        </style>
    </defs>
    <g id="Group_6568" transform="translate(-666 -1106.004)">
        <g id="Group_6567" transform="translate(1396.108 1081.116)">
            <path id="Path_13913" d="M-716.624 41.941a.53.53 0 0 1-.218-.048.521.521 0 0 1-.306-.527v-1.927-.469-1.038a4 4 0 0 1 .718-2.387 5.759 5.759 0 0 0 1-2.7 5.96 5.96 0 0 0-2.1-5.383 6.184 6.184 0 0 0-4.1-1.546 6.179 6.179 0 0 0-6.031 4.607 6.055 6.055 0 0 0-.2 1.51 6.162 6.162 0 0 1-.544 2.544c-.125.276-.245.562-.361.839-.09.216-.184.438-.28.657a.3.3 0 0 0-.021.06.29.29 0 0 0 .057.019c.154.038.307.081.456.124l.317.089a1.01 1.01 0 0 1 .8.882q.115.748.234 1.5l.169 1.073a.5.5 0 0 0 .506.452h.119c.384 0 .781.006 1.171.006s.76 0 1.087-.01a1.444 1.444 0 0 0 1.412-1.39v-.019-.048a.515.515 0 0 1 .517-.5h.034a.5.5 0 0 1 .478.546 2.427 2.427 0 0 1-1.331 2.155 2.43 2.43 0 0 1-1.208.291h-2.182a1.571 1.571 0 0 1-1.643-1.475c-.093-.71-.22-1.429-.342-2.125l-.051-.293a.185.185 0 0 0-.077-.063c-.165-.055-.338-.1-.505-.144l-.256-.068a1.082 1.082 0 0 1-.708-.547 1.072 1.072 0 0 1 .008-.893c.225-.535.465-1.1.732-1.718a4.5 4.5 0 0 0 .369-1.833 7.213 7.213 0 0 1 1.591-4.541 7.349 7.349 0 0 1 4.113-2.543 7.206 7.206 0 0 1 1.563-.172A7.351 7.351 0 0 1-717 26.551a7.166 7.166 0 0 1 2.532 4.275 7.02 7.02 0 0 1-1.086 5.267 3.243 3.243 0 0 0-.561 1.879c.01.865.007 1.745 0 2.6v.8a.53.53 0 0 1-.509.569z" class="cls-1"/>
            <path id="Path_13914" d="M-714.321 42.123c0-.5.008-1.007 0-1.51a3.827 3.827 0 0 1 .692-2.3 5.9 5.9 0 0 0 1.026-2.766 6.108 6.108 0 0 0-2.149-5.511 6.391 6.391 0 0 0-10.378 3.135 6.186 6.186 0 0 0-.208 1.548 6.034 6.034 0 0 1-.531 2.483c-.224.494-.423 1-.641 1.5-.072.164-.035.242.139.285.258.063.513.144.77.212a.863.863 0 0 1 .687.759c.132.857.269 1.712.4 2.569a.65.65 0 0 0 .655.58c.794.006 1.588.013 2.381 0a1.586 1.586 0 0 0 1.56-1.532v-.06a.364.364 0 0 1 .392-.362.349.349 0 0 1 .336.391 2.281 2.281 0 0 1-1.254 2.029 2.3 2.3 0 0 1-1.135.271h-2.182a1.418 1.418 0 0 1-1.493-1.344c-.107-.813-.254-1.621-.4-2.429a.292.292 0 0 0-.177-.174c-.252-.084-.512-.143-.769-.214a.856.856 0 0 1-.6-1.237q.363-.86.732-1.717a4.679 4.679 0 0 0 .381-1.892 7.09 7.09 0 0 1 5.589-6.94 7.146 7.146 0 0 1 8.547 5.646 6.856 6.856 0 0 1-1.064 5.158 3.388 3.388 0 0 0-.586 1.963c.013 1.132 0 2.265 0 3.4a.367.367 0 0 1-.512.384.376.376 0 0 1-.217-.39c.011-.65.009-1.293.009-1.935z" class="cls-1" transform="translate(-2.674 -2.684)"/>
            <path id="Path_13915" d="M-661.709 72.57a.462.462 0 0 1-.464-.5v-.146a6.122 6.122 0 0 1 .006-.618.753.753 0 0 0-.181-.579.72.72 0 0 0-.538-.219h-.064c-.11.008-.217.011-.32.011a3.584 3.584 0 0 1-.475-.03A1.483 1.483 0 0 1-665 69.48c-.022-.061-.026-.066-.1-.074a2.157 2.157 0 0 1-1.9-2.168 2.16 2.16 0 0 1 2-2.1.139.139 0 0 0 .034-.005l.013-.029a2.331 2.331 0 0 1 1.961-1.568 2.784 2.784 0 0 1 .334-.021 2.331 2.331 0 0 1 1.974 1.093.182.182 0 0 0 .107.055 2.149 2.149 0 0 1 1.513.72 2.09 2.09 0 0 1 .537 1.54.137.137 0 0 0 .063.142 1.836 1.836 0 0 1 .541 2.095 1.851 1.851 0 0 1-1.744 1.18h-.054a1.865 1.865 0 0 1-1.735-1.43 1.418 1.418 0 0 1-1.014-.506.47.47 0 0 1 .015-.7.437.437 0 0 1 .285-.11.538.538 0 0 1 .387.19.549.549 0 0 0 .4.2.5.5 0 0 0 .194-.042.5.5 0 0 0 .3-.534.474.474 0 0 1 .414-.554h.046a.483.483 0 0 1 .463.5 1.361 1.361 0 0 1-.537 1.248c-.055.043-.059.057-.04.13a.945.945 0 0 0 .83.682.774.774 0 0 0 .083 0 .944.944 0 0 0 .821-.521.907.907 0 0 0-.064-.917.475.475 0 0 1-.359.175.457.457 0 0 1-.238-.069.451.451 0 0 1-.16-.617 1.313 1.313 0 0 0 .184-.746 1.214 1.214 0 0 0-1.218-1.14h-.11c-.056 0-.1.007-.137.007-.244 0-.343-.108-.461-.334a1.478 1.478 0 0 0-1.317-.828 1.488 1.488 0 0 0-.359.045 1.486 1.486 0 0 0-1.112 1.495v.185a.46.46 0 0 1-.417.456h-.04a.469.469 0 0 1-.453-.384 1.386 1.386 0 0 1-.018-.147 1.206 1.206 0 0 0-.986 1.13 1.2 1.2 0 0 0 1.057 1.259l.024-.062a1.549 1.549 0 0 1 1.4-.992.463.463 0 0 1 .5.44.458.458 0 0 1-.458.478.634.634 0 0 0-.615.538.611.611 0 0 0 .425.673 1.054 1.054 0 0 0 .265.03h.366c.107 0 .221 0 .337.008a1.56 1.56 0 0 1 1.517 1.533c.015.3.009.613 0 .911v.045a.452.452 0 0 1-.457.483z" class="cls-1" transform="translate(-59.138 -36.08)"/>
            <path id="Path_13917" d="M-598.606 104.969h-.043c-.129-.01-.428-.083-.418-.549a.494.494 0 0 0-.32-.515.5.5 0 0 0-.174-.033.529.529 0 0 0-.4.2.545.545 0 0 1-.4.208.438.438 0 0 1-.284-.107.472.472 0 0 1-.024-.7 1.424 1.424 0 0 1 1.11-.535 1.4 1.4 0 0 1 .527.1 1.421 1.421 0 0 1 .887 1.425c-.027.321-.2.506-.461.506z" class="cls-1" transform="translate(-122.22 -73.627)"/>
        </g>
    </g>
</svg>
