<svg xmlns="http://www.w3.org/2000/svg" width="17.904" height="17.264" viewBox="0 0 17.904 17.264">
    <defs>
        <style>
            .cls-1{fill:#6d8fff;stroke:#6d8fff;stroke-width:.2px}
        </style>
    </defs>
    <g id="telephone" transform="translate(.105 -9)">
        <g id="Group_6899" transform="translate(0 9.1)">
            <g id="Group_6898">
                <path id="Path_13974" d="M17.015 12.4a7.689 7.689 0 0 0-3.348-2.374 13.1 13.1 0 0 0-9.629-.014 7.686 7.686 0 0 0-3.355 2.361 3.035 3.035 0 0 0-.545 2.79 1.462 1.462 0 0 0 1.4 1.01h2.21a1.476 1.476 0 0 0 1.136-.529 1.452 1.452 0 0 0 .316-1.191c0-.012-.005-.025-.008-.037l-.116-.452a9.016 9.016 0 0 1 3.769-.891 9.256 9.256 0 0 1 3.768.909l-.118.45c0 .013-.006.026-.009.038a1.452 1.452 0 0 0 .313 1.195 1.476 1.476 0 0 0 1.137.533h2.21a1.462 1.462 0 0 0 1.4-1.006 3.039 3.039 0 0 0-.531-2.792zm-.467 2.469a.415.415 0 0 1-.4.275h-2.21a.423.423 0 0 1-.326-.152.4.4 0 0 1-.089-.313l.22-.836a.528.528 0 0 0-.244-.59 10.221 10.221 0 0 0-4.647-1.234h-.04A10.022 10.022 0 0 0 4.2 13.231a.528.528 0 0 0-.244.587l.215.838a.4.4 0 0 1-.09.313.423.423 0 0 1-.326.151h-2.21a.415.415 0 0 1-.4-.276A2 2 0 0 1 1.535 13c1.2-1.648 4.273-2.841 7.3-2.841h.017c3.032 0 6.1 1.208 7.307 2.863a2 2 0 0 1 .39 1.846z" class="cls-1" transform="translate(0 -9.1)"/>
            </g>
        </g>
        <g id="Group_6901" transform="translate(1.847 16.56)">
            <g id="Group_6900">
                <path id="Path_13975" d="M65.427 192.156l-1.648-1.73a.528.528 0 0 0-.382-.164h-5.933a.528.528 0 0 0-.382.164l-1.648 1.73a7.233 7.233 0 0 0-2 5.009v2.172a.528.528 0 0 0 .528.528H66.9a.528.528 0 0 0 .528-.528v-2.172a7.233 7.233 0 0 0-2.001-5.009zm-10.941 6.654v-1.644a6.182 6.182 0 0 1 1.713-4.281l1.492-1.567h5.48l1.492 1.567a6.182 6.182 0 0 1 1.712 4.281v1.644z" class="cls-1" transform="translate(-53.43 -190.262)"/>
            </g>
        </g>
    </g>
</svg>
