<svg xmlns="http://www.w3.org/2000/svg" width="16.108" height="14.996" viewBox="0 0 16.108 14.996">
    <defs>
        <style>
            .cls-1{fill:#fba61c}
        </style>
    </defs>
    <g id="wedding-ring" transform="translate(0 -12.732)">
        <path id="Path_14052" d="M128.19 16.959a2.718 2.718 0 0 0 1.172-.717 4.54 4.54 0 0 0 1.092-1.1 1.171 1.171 0 0 0 .3-1.027 1.448 1.448 0 0 0-1.429-1.387 1.6 1.6 0 0 0-1.132.629 1.577 1.577 0 0 0-1.143-.629 1.448 1.448 0 0 0-1.429 1.387 1.653 1.653 0 0 0 .3 1.027 6.214 6.214 0 0 0 2.269 1.817z" class="cls-1" transform="translate(-120.134)"/>
        <path id="Path_14053" d="M11 122.271a5.078 5.078 0 0 0-2.948.939 5.106 5.106 0 1 0 0 8.335A5.105 5.105 0 1 0 11 122.271zm-2.948 7.5a3.788 3.788 0 0 1 0-4.779 3.788 3.788 0 0 1 0 4.779zm-6.742-2.394a3.795 3.795 0 0 1 5.756-3.25 5.1 5.1 0 0 0 0 6.5 3.795 3.795 0 0 1-5.756-3.25zm9.691 3.8a3.773 3.773 0 0 1-1.96-.546 5.1 5.1 0 0 0 0-6.5A3.8 3.8 0 1 1 11 131.173z" class="cls-1" transform="translate(0 -104.756)"/>
    </g>
</svg>
