<svg xmlns="http://www.w3.org/2000/svg" width="17.989" height="16.844" viewBox="0 0 17.989 16.844">
    <defs>
        <style>
            .cls-1{fill:#fba61c}
        </style>
    </defs>
    <g id="Group_7153" transform="translate(-5.662 -37.909)">
        <g id="Group_7155" transform="translate(5.662 48.552)">
            <g id="Group_7154">
                <path id="Path_14319" d="M8.528 319.7a3.11 3.11 0 0 1 0-6.2h1.534a.613.613 0 0 1 0 1.222H8.528a1.884 1.884 0 0 0 0 3.757H21.57a.613.613 0 0 1 0 1.222z" class="cls-1" transform="translate(-5.662 -313.503)"/>
            </g>
        </g>
        <g id="Group_7157" transform="translate(11.785 37.909)">
            <g id="Group_7156">
                <path id="Path_14320" d="M199.682 49.774a.612.612 0 0 1-.611-.611V47.3a4.107 4.107 0 0 1 1.207-2.92l4.265-4.265.006-.007a.134.134 0 0 1 .057-.057l.007-.006 1.276-1.276a2.958 2.958 0 1 1 4.183 4.183l-5.61 5.61a4.112 4.112 0 0 1-2.922 1.208zm1.461-4.528a2.9 2.9 0 0 0-.85 2.058v1.248h1.248a2.9 2.9 0 0 0 2.059-.852l3.866-3.866-2.456-2.456zm6.837-6.116a1.726 1.726 0 0 0-1.228.507l-.879.879 2.456 2.456.879-.879a1.735 1.735 0 0 0-1.229-2.962z" class="cls-1" transform="translate(-199.071 -37.909)"/>
            </g>
        </g>
    </g>
</svg>
