<svg xmlns="http://www.w3.org/2000/svg" width="17" height="17" viewBox="0 0 17 17">
    <path fill="#4f8aff" d="M14.809 1.328h-1.528v-.8a.531.531 0 0 0-1.063 0v.8H4.781v-.8a.531.531 0 1 0-1.062 0v.8H2.191A2.194 2.194 0 0 0 0 3.52v11.289A2.194 2.194 0 0 0 2.191 17h12.618A2.194 2.194 0 0 0 17 14.809V3.52a2.194 2.194 0 0 0-2.191-2.192zM2.191 2.391h1.528v.531a.531.531 0 1 0 1.062 0v-.531h7.437v.531a.531.531 0 0 0 1.063 0v-.531h1.527a1.13 1.13 0 0 1 1.129 1.129v1.261H1.063V3.52a1.13 1.13 0 0 1 1.128-1.129zm12.618 13.546H2.191a1.13 1.13 0 0 1-1.129-1.129V5.844h14.875v8.965a1.13 1.13 0 0 1-1.128 1.128z"/>
</svg>
