<svg xmlns="http://www.w3.org/2000/svg" width="21.684" height="14.684" viewBox="0 0 21.684 14.684">
    <defs>
        <style>
            .cls-1{fill:#a3acc6;stroke:#a3acc6;stroke-width:.2px}
        </style>
    </defs>
    <g id="Group_6858" transform="translate(-8.404 -7.404)">
        <path id="Rectangle_2484" d="M0 0H0.971V0.971H0z" class="cls-1" transform="translate(13.632 10.952)"/>
        <path id="Rectangle_2485" d="M0 0H0.971V0.971H0z" class="cls-1" transform="translate(13.632 14.37)"/>
        <path id="Rectangle_2486" d="M0 0H0.971V0.971H0z" class="cls-1" transform="translate(13.632 18.761)"/>
        <path id="Rectangle_2488" d="M0 0H0.971V0.971H0z" class="cls-1" transform="translate(17.051 10.952)"/>
        <path id="Rectangle_2489" d="M0 0H0.971V0.971H0z" class="cls-1" transform="translate(23.889 17.789)"/>
        <path id="Rectangle_2490" d="M0 0H0.971V0.971H0z" class="cls-1" transform="translate(23.889 14.37)"/>
        <path id="Rectangle_2491" d="M0 0H0.971V0.971H0z" class="cls-1" transform="translate(17.051 14.37)"/>
        <path id="Rectangle_2493" d="M0 0H0.971V0.971H0z" class="cls-1" transform="translate(17.051 18.761)"/>
        <path id="Path_13965" d="M8.99 21.988a.486.486 0 0 1 0-.971h1.224V7.99a.486.486 0 0 1 .486-.49h10.256a.486.486 0 0 1 .486.486v2.933h6.352a.486.486 0 0 1 .486.486v9.609h1.22a.486.486 0 0 1 0 .971zm8.547-4.39a.486.486 0 0 1 .486.486v2.933h9.285v-9.123h-5.867v9.19a.486.486 0 1 1-.971 0V8.475h-9.285v12.542h2.448v-2.933a.486.486 0 0 1 .486-.486zM14.6 21.017h2.448v-2.448H14.6z" class="cls-1"/>
    </g>
</svg>
