<svg xmlns="http://www.w3.org/2000/svg" width="13.673" height="17" viewBox="0 0 13.673 17">
    <defs>
        <style>
            .cls-1{fill:#fba61c}
        </style>
    </defs>
    <g id="Group_7159" transform="translate(-50.094 .003)">
        <g id="Group_6483" transform="translate(50.094 4.431)">
            <g id="Group_6482">
                <path id="Path_13880" d="M63.717 144.052l-1.109-4.435A1.658 1.658 0 0 0 61 138.362h-2.776v-3.145a1.666 1.666 0 0 0-2.407-1.487l-2.217 1.108a1.651 1.651 0 0 0-.916 1.487v1.025a4.619 4.619 0 1 0 6.644 4.333h.372l.794 3.175a1.663 1.663 0 0 0 3.227-.807zM54.1 135.83l2.217-1.108a.557.557 0 0 1 .473-.01.559.559 0 0 1 .333.506v2.334a4.617 4.617 0 0 0-1.112-.488v-.053a.552.552 0 1 0-1.1 0v2.641a.556.556 0 0 1-1.112 0v-3.326a.551.551 0 0 1 .301-.496zm.618 9.18a3.511 3.511 0 0 1-2.029-6.376v1.017a1.661 1.661 0 1 0 3.322 0v-1.417a3.5 3.5 0 0 1 1.255.849l.02.022c.043.046.085.093.126.142l.023.028a3.512 3.512 0 0 1-2.718 5.734zm7.525-.016a.554.554 0 0 1-.672-.4l-.9-3.595a.551.551 0 0 0-.538-.416h-.89a4.63 4.63 0 0 0-.377-1.112H61a.554.554 0 0 1 .538.42l1.109 4.434a.555.555 0 0 1-.409.669z" class="cls-1" transform="translate(-50.094 -133.554)"/>
            </g>
        </g>
        <g id="Group_6485" transform="translate(54.898 -.003)">
            <g id="Group_6484">
                <path id="Path_13881" d="M197 0a2.217 2.217 0 1 0 2.217 2.217A2.22 2.22 0 0 0 197 0zm0 3.326a1.109 1.109 0 1 1 1.109-1.109A1.11 1.11 0 0 1 197 3.323z" class="cls-1" transform="translate(-194.78 .003)"/>
            </g>
        </g>
    </g>
</svg>
