<svg xmlns="http://www.w3.org/2000/svg" width="14.23" height="17.619" viewBox="0 0 14.23 17.619">
    <g>
        <g>
            <path fill="#a3acc6" stroke="#a3acc6" stroke-width="0.2px" d="M73.012 8.1a7.652 7.652 0 0 0-2.179-1.87 1.622 1.622 0 0 0-.8-2.609l1.377-2.4a.54.54 0 0 0-.317-.787 11.068 11.068 0 0 0-6.154 0 .54.54 0 0 0-.317.787L66 3.625a1.621 1.621 0 0 0-.8 2.609 7.651 7.651 0 0 0-2.18 1.87C61.735 9.681 61 10.67 61 12.562c0 3.924 3.131 4.856 7.015 4.856s7.015-.934 7.015-4.856c0-1.892-.736-2.881-2.018-4.462zm-7.1-6.8a10.013 10.013 0 0 1 4.209 0l-1.19 2.075a6.619 6.619 0 0 0-1.833 0zm.353 3.37a5.579 5.579 0 0 1 2.843-.17 5.7 5.7 0 0 1 .655.173.54.54 0 0 1-.11 1.049 5.431 5.431 0 0 0-3.28 0 .539.539 0 0 1-.114-1.048zm1.752 11.674c-4.216 0-5.936-1.1-5.936-3.784 0-1.624.664-2.41 1.776-3.778a4.987 4.987 0 0 1 8.32 0c1.112 1.368 1.776 2.154 1.776 3.778-.002 2.685-1.722 3.787-5.938 3.787z" transform="translate(-60.9 .1) translate(61) translate(-61)"/>
        </g>
    </g>
</svg>
