<svg xmlns="http://www.w3.org/2000/svg" id="clock-1" width="12.161" height="12.161" viewBox="0 0 12.161 12.161">
    <defs>
        <style>
            .cls-1{fill:#a6b1c3}
        </style>
    </defs>
    <g id="Group_6523" transform="translate(5.766 3.672)">
        <g id="Group_6522">
            <path id="Path_13736" d="M238.225 122.263l-1.216-.953v-1.737a.42.42 0 1 0-.84 0v1.947a.419.419 0 0 0 .168.336l1.384 1.079a.42.42 0 0 0 .5-.672z" class="cls-1" transform="translate(-236.169 -119.153)"/>
        </g>
    </g>
    <g id="Group_6525">
        <g id="Group_6524">
            <path id="Path_13737" d="M6.08 0a6.08 6.08 0 1 0 6.08 6.08A6.087 6.087 0 0 0 6.08 0zm0 11.219a5.139 5.139 0 1 1 5.139-5.139 5.145 5.145 0 0 1-5.139 5.139z" class="cls-1"/>
        </g>
    </g>
</svg>
