<svg xmlns="http://www.w3.org/2000/svg" width="14.055" height="14.058" viewBox="0 0 14.055 14.058">
    <g>
        <path fill="#a7b1c3" stroke="#a7b1c4" stroke-width="0.3px" d="M10.465 3.525a.173.173 0 0 0-.171 0l-6.71 4.026A.162.162 0 0 0 3.5 7.7v1a.166.166 0 0 0 .168.168h1.174v.5a.166.166 0 0 0 .168.168h.168v5.032H5.01a.166.166 0 0 0-.168.168v.5H3.668a.166.166 0 0 0-.168.168v1.677a.166.166 0 0 0 .168.168h13.419a.166.166 0 0 0 .168-.168v-1.67a.166.166 0 0 0-.168-.168h-1.174v-.5a.166.166 0 0 0-.168-.168h-.168V9.54h.168a.166.166 0 0 0 .168-.168v-.5h1.174a.166.166 0 0 0 .168-.168V7.7a.166.166 0 0 0-.081-.144zM5.177 14.908h.168a.166.166 0 0 0 .168-.168V9.373a.166.166 0 0 0-.168-.173h-.168v-.331h1.678V9.2h-.168a.166.166 0 0 0-.168.168v5.372a.166.166 0 0 0 .168.168h.168v.335H5.177zM9.371 9.54h.168v5.032h-.168a.166.166 0 0 0-.168.168v.5H7.19v-.5a.166.166 0 0 0-.168-.168h-.167V9.54h.168a.166.166 0 0 0 .168-.168v-.5H9.2v.5a.166.166 0 0 0 .171.168zm.335-.34h-.167v-.331h1.677V9.2h-.168a.166.166 0 0 0-.168.168v5.372a.166.166 0 0 0 .168.168h.168v.335H9.539v-.335h.168a.166.166 0 0 0 .168-.168V9.373a.166.166 0 0 0-.169-.173zm4.026.335h.168v5.032h-.168a.166.166 0 0 0-.168.168v.5h-2.012v-.5a.166.166 0 0 0-.168-.168h-.168V9.54h.168a.166.166 0 0 0 .168-.168v-.5h2.013v.5a.166.166 0 0 0 .167.168zm2.013 6.039h1.174v1.342H3.835v-1.337h11.91zM15.577 9.2h-.167a.166.166 0 0 0-.168.168v5.372a.166.166 0 0 0 .168.168h.168v.335H13.9v-.335h.168a.166.166 0 0 0 .168-.168V9.373a.166.166 0 0 0-.168-.168H13.9v-.336h1.677zm1.342-.671H3.835v-.74l6.542-3.925 6.542 3.925z" transform="translate(-3.35 -3.349)"/>
    </g>
</svg>
