<svg xmlns="http://www.w3.org/2000/svg" id="document" width="18.811" height="15.811" viewBox="0 0 18.811 15.811">
    <defs>
        <style>
            .cls-1{fill:#4f8aff}
        </style>
    </defs>
    <path id="Path_14356" d="M1.607 15.72c.212.131-.81.082 15 .082a2.206 2.206 0 0 0 2.2-2.2v-1.656a.551.551 0 0 0-.551-.551h-1.282V2.3A2.306 2.306 0 0 0 14.67 0H.551A.551.551 0 0 0 0 .551V13.6a2.2 2.2 0 0 0 1.607 2.12zm16.1-2.121a1.1 1.1 0 0 1-1.1 1.1H4.113a2.19 2.19 0 0 0 .3-1.1V12.5h13.3zM1.1 1.1h13.57a1.2 1.2 0 0 1 1.2 1.2v9.1H3.858a.551.551 0 0 0-.551.551v1.624a1.106 1.106 0 0 1-1.882.807A1.094 1.094 0 0 1 1.1 13.6z" class="cls-1" transform="translate(0 0)"/>
    <path id="Path_14357" d="M94.205 92.059h8.99a.551.551 0 1 0 0-1.1h-8.99a.551.551 0 1 0 0 1.1z" class="cls-1" transform="translate(-90.213 -87.96)"/>
    <path id="Path_14358" d="M94.205 162.026h8.99a.551.551 0 1 0 0-1.1h-8.99a.551.551 0 1 0 0 1.1z" class="cls-1" transform="translate(-90.213 -155.184)"/>
    <path id="Path_14359" d="M94.205 231.994h8.99a.551.551 0 1 0 0-1.1h-8.99a.551.551 0 1 0 0 1.1z" class="cls-1" transform="translate(-90.213 -222.409)"/>
</svg>
