<svg xmlns="http://www.w3.org/2000/svg" width="16.125" height="17" viewBox="0 0 16.125 17">
    <defs>
        <style>
            .cls-1{fill:#a3acc6}
        </style>
    </defs>
    <g id="Group_7263" transform="translate(-742.8 -983)">
        <g id="Group_7263-2" transform="translate(742.8 983)">
            <path id="Path_14426" d="M41.782 51.2a3.074 3.074 0 0 1-1.875.625 3.114 3.114 0 0 1-1.875-.625A3.169 3.169 0 0 0 36.3 54v.839a.518.518 0 0 0 .518.518h6.161a.518.518 0 0 0 .518-.518v-.821a3.147 3.147 0 0 0-1.715-2.818z" class="cls-1" transform="translate(-30.675 -42.504)"/>
            <path id="Path_14427" d="M46.561 29.721a2.161 2.161 0 1 0-2.161-2.16 2.157 2.157 0 0 0 2.161 2.16z" class="cls-1" transform="translate(-37.329 -21.311)"/>
            <path id="Path_14428" d="M18.692 2.5H6.889a.659.659 0 0 0-.661.661v2.928h-.767a.659.659 0 0 0-.661.661.648.648 0 0 0 .661.661h.768v2.928h-.768A.659.659 0 0 0 4.8 11a.648.648 0 0 0 .661.661h.768v2.928h-.768a.661.661 0 1 0 0 1.321h.768v2.928a.659.659 0 0 0 .661.661h11.8a2.233 2.233 0 0 0 2.232-2.232V4.732a2.233 2.233 0 0 0-2.23-2.232zm.929 14.732a.922.922 0 0 1-.929.929H7.532v-2.286H8.3a.661.661 0 1 0 0-1.321h-.768v-2.911H8.3a.659.659 0 0 0 .661-.661.648.648 0 0 0-.661-.661h-.768V7.393H8.3a.659.659 0 0 0 .661-.661.648.648 0 0 0-.661-.661h-.768V3.8h11.16a.922.922 0 0 1 .929.929z" class="cls-1" transform="translate(-4.8 -2.5)"/>
        </g>
    </g>
</svg>
