<svg xmlns="http://www.w3.org/2000/svg" width="16" height="14" viewBox="0 0 16 14">
    <defs>
        <style>
            .cls-1{fill:#30cba0}
        </style>
    </defs>
    <g id="like" transform="translate(0 -1)">
        <path id="Path_13006" d="M3.5 0h-3a.5.5 0 0 0-.5.5v9a.5.5 0 0 0 .5.5h3a.5.5 0 0 0 .5-.5v-9a.5.5 0 0 0-.5-.5zM3 9H1V1h2z" class="cls-1" transform="translate(0 5)"/>
        <path id="Path_13007" d="M9.153 5.03H6.2a.5.5 0 0 1-.437-.743L6.8 2.412A1.5 1.5 0 0 0 5.855.229L5.121.045A.5.5 0 0 0 4.628.2L.641 4.625A2.5 2.5 0 0 0 0 6.3v4.23a2.5 2.5 0 0 0 2.5 2.5h4.974a2.506 2.506 0 0 0 2.411-1.84l1.067-3.9a1.847 1.847 0 0 0-1.8-2.262zm.83 2.017L8.92 10.926a1.5 1.5 0 0 1-1.446 1.1H2.5A1.5 1.5 0 0 1 1 10.53V6.3a1.5 1.5 0 0 1 .385-1L5.17 1.088l.442.11a.5.5 0 0 1 .316.728L4.888 3.8A1.5 1.5 0 0 0 6.2 6.03h2.953a.848.848 0 0 1 .847.846.827.827 0 0 1-.017.17z" class="cls-1" transform="translate(5 0.97)"/>
    </g>
</svg>
