<svg xmlns="http://www.w3.org/2000/svg" id="_2910891" width="10.752" height="10.752" viewBox="0 0 10.752 10.752">
    <defs>
        <style>
            .cls-1{fill:#fff}
        </style>
    </defs>
    <path id="Path_13010" d="M11.586 1.549a.336.336 0 0 1-.336-.336V.336a.336.336 0 0 1 .672 0v.877a.336.336 0 0 1-.336.336z" class="cls-1" transform="translate(-6.21)"/>
    <path id="Path_13011" d="M18.157 4.587a.336.336 0 0 1-.237-.574l.62-.62a.336.336 0 0 1 .475.475l-.62.62a.337.337 0 0 1-.238.099z" class="cls-1" transform="translate(-9.837 -1.818)"/>
    <path id="Path_13012" d="M21.756 11.922h-.877a.336.336 0 0 1 0-.672h.877a.336.336 0 0 1 0 .672z" class="cls-1" transform="translate(-11.34 -6.21)"/>
    <path id="Path_13013" d="M18.777 19.113a.333.333 0 0 1-.237-.1l-.62-.62a.336.336 0 0 1 .475-.475l.62.62a.336.336 0 0 1-.238.574z" class="cls-1" transform="translate(-9.837 -9.837)"/>
    <path id="Path_13014" d="M3.631 19.113a.336.336 0 0 1-.237-.574l.62-.62a.336.336 0 1 1 .475.475l-.62.62a.335.335 0 0 1-.238.099z" class="cls-1" transform="translate(-1.819 -9.837)"/>
    <path id="Path_13015" d="M1.213 11.922H.336a.336.336 0 0 1 0-.672h.877a.336.336 0 0 1 0 .672z" class="cls-1" transform="translate(0 -6.21)"/>
    <path id="Path_13016" d="M4.251 4.587a.333.333 0 0 1-.237-.1l-.62-.62a.336.336 0 1 1 .475-.475l.62.62a.336.336 0 0 1-.238.574z" class="cls-1" transform="translate(-1.819 -1.818)"/>
    <path id="Path_13017" d="M11.688 21v.56a.788.788 0 0 1-.784.784h-1.12A.817.817 0 0 1 9 21.43V21z" class="cls-1" transform="translate(-4.968 -11.592)"/>
    <path id="Path_13018" d="M10.111 5.7a3.136 3.136 0 1 0-3.862 4.941 1.353 1.353 0 0 1 .511.856.076.076 0 0 1 .031 0h2.688a.04.04 0 0 1 .022 0 1.494 1.494 0 0 1 .573-.9 3.138 3.138 0 0 0 .036-4.9zm-.3 2.661a.338.338 0 0 1-.336-.336 1.231 1.231 0 0 0-1.228-1.232.336.336 0 0 1 0-.672 1.908 1.908 0 0 1 1.9 1.9.338.338 0 0 1-.332.34z" class="cls-1" transform="translate(-2.759 -2.761)"/>
    <path id="Path_13019" d="M8.93 19.5h.031a.076.076 0 0 0-.031 0z" class="cls-1" transform="translate(-4.929 -10.764)"/>
    <path id="Path_13020" d="M15.022 19.5a.04.04 0 0 0-.022 0z" class="cls-1" transform="translate(-8.28 -10.764)"/>
</svg>
