<svg width="18" height="18" viewBox="0 0 18 18" fill="none" xmlns="http://www.w3.org/2000/svg">
<path d="M3.5 10.5H10.5V9.5H3.5V10.5ZM3.5 7.5H14.5V6.5H3.5V7.5ZM3.5 4.5H14.5V3.5H3.5V4.5ZM0 17.077V1.615C0 1.155 0.154333 0.771 0.463 0.463C0.771 0.154333 1.155 0 1.615 0H16.385C16.845 0 17.229 0.154333 17.537 0.463C17.8457 0.771 18 1.155 18 1.615V12.385C18 12.845 17.846 13.2293 17.538 13.538C17.2293 13.846 16.845 14 16.385 14H3.077L0 17.077ZM2.65 13H16.385C16.5383 13 16.6793 12.936 16.808 12.808C16.936 12.6793 17 12.5383 17 12.385V1.615C17 1.46167 16.936 1.32067 16.808 1.192C16.6793 1.064 16.5383 1 16.385 1H1.615C1.46167 1 1.32067 1.064 1.192 1.192C1.064 1.32067 1 1.46167 1 1.615V14.645L2.65 13Z" fill="#707693"/>
</svg>
