<svg width="144" height="122" viewBox="0 0 144 122" fill="none" xmlns="http://www.w3.org/2000/svg">
<path d="M144 122H0V32H144V122ZM3.35049 118.636H140.65V35.3636H3.35049V118.636Z" fill="#CBD1F3"/>
<path d="M142 34H2V120H142V34Z" fill="white" fill-opacity="0.7"/>
<path d="M142 55.7963V50.5159H122.579V34H117.305V50.5159H74.7287V34H69.4544V50.5159H24.1256V34H18.8513V50.5159H2V55.7963H18.8513V76.3312H2V81.6115H18.8513V103.613H2V108.894H47.2739V120H52.5481V108.894H69.4544V120H74.7287V108.894H142V103.613H74.7287V81.6115H142V76.3311H122.579V55.7963L142 55.7963ZM69.4544 55.7963V62.2501H24.1256V55.7963H69.4544ZM24.1256 67.5305H69.4544V76.3311H24.1256V67.5305ZM24.1256 103.613V81.6115H47.2739V103.613L24.1256 103.613ZM69.4544 103.613H52.5481V81.6115H69.4544V103.613ZM117.305 76.3311H74.7287V55.7963H117.305V76.3311Z" fill="#CBD1F3"/>
<path d="M95 23.3594C95 36.2604 72 65 72 65C72 65 49 36.2604 49 23.3594C49 17.1641 51.4232 11.2225 55.7365 6.8418C60.0499 2.46107 65.9 0 72 0C78.1 0 83.9501 2.46107 88.2635 6.8418C92.5768 11.2225 95 17.1641 95 23.3594Z" fill="#A5B2FF"/>
<path d="M83 22.5C83 24.5767 82.3842 26.6068 81.2304 28.3335C80.0767 30.0602 78.4368 31.406 76.5182 32.2007C74.5996 32.9955 72.4884 33.2034 70.4516 32.7982C68.4148 32.3931 66.5438 31.3931 65.0754 29.9246C63.6069 28.4562 62.6069 26.5852 62.2018 24.5484C61.7966 22.5116 62.0046 20.4004 62.7993 18.4818C63.594 16.5632 64.9398 14.9233 66.6665 13.7696C68.3932 12.6158 70.4233 12 72.5 12C73.8791 11.9994 75.2447 12.2705 76.5189 12.798C77.7931 13.3254 78.9509 14.0988 79.926 15.074C80.9012 16.0491 81.6746 17.2069 82.202 18.4811C82.7295 19.7553 83.0006 21.1209 83 22.5Z" fill="white"/>
<path d="M72 86C75.866 86 79 82.866 79 79C79 75.134 75.866 72 72 72C68.134 72 65 75.134 65 79C65 82.866 68.134 86 72 86Z" fill="#CBD1F3"/>
</svg>
