<svg width="40" height="40" viewBox="0 0 40 40" fill="none" xmlns="http://www.w3.org/2000/svg">
<path d="M36.6666 10.4166V18.9165C36.6666 21.0332 35.9666 22.8166 34.7166 24.0499C33.4833 25.2999 31.6999 25.9999 29.5833 25.9999V29.0165C29.5833 30.1499 28.3166 30.8332 27.3832 30.1999L25.7666 29.1332C25.9166 28.6166 25.9832 28.0499 25.9832 27.4499V20.6666C25.9832 17.2666 23.7166 14.9999 20.3166 14.9999H8.99991C8.76658 14.9999 8.54992 15.0166 8.33325 15.0333V10.4166C8.33325 6.16659 11.1666 3.33325 15.4166 3.33325H29.5833C33.8333 3.33325 36.6666 6.16659 36.6666 10.4166Z" stroke="#4785FF" stroke-width="2" stroke-miterlimit="10" stroke-linecap="round" stroke-linejoin="round"/>
<path d="M25.9832 20.6667V27.45C25.9832 28.05 25.9166 28.6166 25.7666 29.1333C25.1499 31.5833 23.1166 33.1167 20.3166 33.1167H15.7833L10.7499 36.4667C9.99991 36.9833 8.99991 36.4333 8.99991 35.5333V33.1167C7.29991 33.1167 5.88326 32.55 4.89992 31.5667C3.89992 30.5667 3.33325 29.15 3.33325 27.45V20.6667C3.33325 17.5 5.29992 15.3167 8.33325 15.0334C8.54992 15.0167 8.76657 15 8.99991 15H20.3166C23.7166 15 25.9832 17.2667 25.9832 20.6667Z" stroke="#4785FF" stroke-width="2" stroke-miterlimit="10" stroke-linecap="round" stroke-linejoin="round"/>
</svg>
