<svg width="28" height="28" viewBox="0 0 28 28" fill="none" xmlns="http://www.w3.org/2000/svg">
<path d="M8.62709 5.27259V4.49771C8.62749 3.89445 8.8673 3.31601 9.29387 2.88943C9.72044 2.46286 10.2989 2.22305 10.9022 2.22265H17.6327C18.236 2.22305 18.8144 2.46286 19.241 2.88943C19.6676 3.31601 19.9074 3.89445 19.9078 4.49771V5.27259H21.8435V4.49771C21.8407 3.3834 21.3968 2.31552 20.6089 1.52757C19.8209 0.739632 18.7531 0.295744 17.6387 0.292969H10.8961C9.78182 0.295744 8.71396 0.739632 7.92601 1.52757C7.13807 2.31552 6.69418 3.3834 6.69141 4.49771V5.27259H8.62709Z" fill="url(#paint0_linear_2360_3992)"/>
<path d="M25.5735 15.7672L17.3277 19.149V19.4569C17.3862 20.3314 17.0978 21.1937 16.5249 21.857C15.9521 22.5204 15.141 22.9313 14.2673 23.0008C13.3936 22.9313 12.5825 22.5204 12.0097 21.857C11.4368 21.1937 11.1484 20.3314 11.2068 19.4569V19.149L2.95953 15.7672C2.21646 15.4588 1.53487 15.0193 0.947266 14.4697V24.3363C0.947266 25.9931 2.29041 27.3363 3.94727 27.3363H24.5858C26.2427 27.3363 27.5858 25.9931 27.5858 24.3363V14.4697C26.9982 15.0193 26.3166 15.4588 25.5735 15.7672Z" fill="url(#paint1_linear_2360_3992)"/>
<path d="M3.77655 5.27344C2.16759 5.27344 0.863281 6.57775 0.863281 8.1867C0.863281 10.7726 1.27925 13.0792 3.40565 13.9427L11.1754 17.0963V14.4413H17.3594V17.0963L25.1292 13.9427C27.2556 13.0792 27.5739 10.7726 27.5739 8.1867C27.5739 6.57775 26.2696 5.27344 24.6606 5.27344H3.77655Z" fill="url(#paint2_linear_2360_3992)"/>
<path d="M15.8768 16.377H12.6602V19.4554C12.6602 19.882 12.8296 20.2911 13.1312 20.5927C13.4328 20.8943 13.8419 21.0637 14.2685 21.0637C14.695 21.0637 15.1041 20.8943 15.4057 20.5927C15.7073 20.2911 15.8768 19.882 15.8768 19.4554V16.377Z" fill="url(#paint3_linear_2360_3992)"/>
<defs>
<linearGradient id="paint0_linear_2360_3992" x1="14.2674" y1="0.292969" x2="14.2672" y2="6.55578" gradientUnits="userSpaceOnUse">
<stop stop-color="#B9DCFF"/>
<stop offset="1" stop-color="white"/>
</linearGradient>
<linearGradient id="paint1_linear_2360_3992" x1="14.2665" y1="14.4697" x2="14.2657" y2="30.6518" gradientUnits="userSpaceOnUse">
<stop stop-color="#B9DCFF"/>
<stop offset="1" stop-color="white"/>
</linearGradient>
<linearGradient id="paint2_linear_2360_3992" x1="8.0588" y1="-4.05367" x2="20.5519" y2="26.0107" gradientUnits="userSpaceOnUse">
<stop stop-color="#4F8AFF"/>
<stop offset="1" stop-color="white"/>
</linearGradient>
<linearGradient id="paint3_linear_2360_3992" x1="13.5267" y1="12.6795" x2="20.1853" y2="17.5472" gradientUnits="userSpaceOnUse">
<stop stop-color="#4F8AFF"/>
<stop offset="1" stop-color="white"/>
</linearGradient>
</defs>
</svg>
