<svg width="20" height="26" viewBox="0 0 20 26" fill="none" xmlns="http://www.w3.org/2000/svg">
<path d="M2.23378 7.18098C2.23378 5.57919 3.53703 4.27594 5.13902 4.27594C6.74081 4.27594 8.04426 5.57919 8.04426 7.18098V9.52227C8.85121 9.27551 9.44015 8.52391 9.44015 7.63702V1.97095C9.44015 0.884109 8.55584 0 7.46901 0H2.80904C1.7222 0 0.837891 0.884109 0.837891 1.97095V7.63702C0.837891 8.52391 1.42664 9.27551 2.23378 9.52227V7.18098Z" fill="#B9DCFF"/>
<path d="M17.1292 0H12.469C11.3822 0 10.498 0.884109 10.498 1.97095V7.63702C10.498 8.72386 11.3822 9.60797 12.469 9.60797H17.1292C18.216 9.60797 19.1003 8.72386 19.1003 7.63702V1.97095C19.1003 0.884109 18.216 0 17.1292 0Z" fill="#B9DCFF"/>
<path d="M13.5186 12.2455C12.7471 12.2455 12.1221 12.8708 12.1221 13.642V12.9307C12.1221 12.1595 11.4968 11.5342 10.7254 11.5342C9.95415 11.5342 9.3289 12.1593 9.3289 12.9307V12.3324C9.3289 11.5989 8.76337 10.998 8.04469 10.9407C8.0076 10.9379 7.97031 10.9359 7.93242 10.9359C7.36946 10.9359 6.88466 11.2694 6.66368 11.7492C6.58195 11.9268 6.53593 12.1241 6.53593 12.3324V7.18091C6.53593 6.40967 5.91069 5.78442 5.13945 5.78442C4.36821 5.78442 3.74297 6.40967 3.74297 7.18091V19.17L3.68247 19.1623L2.82216 15.4799C2.64661 14.7289 1.8954 14.2621 1.1444 14.4377C0.355701 14.4377 -0.142788 15.0661 0.0365331 15.8341L1.03411 20.1035C1.5558 23.444 4.25614 25.9999 4.25614 25.9999H12.7406C14.1583 23.8437 14.9138 21.3197 14.9142 18.739L14.915 13.642C14.915 12.8708 14.2898 12.2455 13.5186 12.2455Z" fill="#4294FF"/>
</svg>