<svg xmlns="http://www.w3.org/2000/svg" width="29.721" height="33.958">
    <path data-name="Path 17236" d="M26.692 33.849a13.659 13.659 0 0 1 7.775-12.234 13.346 13.346 0 0 1 5.774-1.315 13.552 13.552 0 0 1 9.147 23.5 1.294 1.294 0 1 1-1.772-1.887 10.95 10.95 0 1 0-18.409-8.061v2a.966.966 0 0 1-.172.572l-2.458 4.745a.966.966 0 0 0-.114.286 1.163 1.163 0 0 0 .286.057h1.143a1.269 1.269 0 0 1 1.258 1.258v4.516a1.221 1.221 0 0 0 1.2 1.258l3.43-.515h.572c.057 0 .114.057.172.057a.056.056 0 0 1 .057.057.2.2 0 0 1 .114.057l.057.057c.057 0 .057.057.114.114l.057.057.114.114c0 .057.057.057.057.114s.057.057.057.114.057.057.057.114 0 .057.057.114c0 .057 0 .114.057.114v2.573h11.894v-3.6a1.258 1.258 0 1 1 2.515 0V52.6a1.659 1.659 0 0 1-1.658 1.658H34.067A1.269 1.269 0 0 1 32.809 53v-2.057l-2.058.286h-.171a3.831 3.831 0 0 1-3.83-3.83V44.14a2.82 2.82 0 0 1-2.4-1.258 2.878 2.878 0 0 1 .057-2.8l2.344-4.459v-1.774zm16.693 5.374a1.349 1.349 0 0 0 .915.4 1.218 1.218 0 0 0 .915-.4 7.256 7.256 0 1 0-10.233-.057 1.294 1.294 0 1 0 1.829-1.829 4.688 4.688 0 1 1 6.632 0 1.3 1.3 0 0 0-.057 1.886z" transform="translate(-24.012 -20.3)" style="fill:#3f4254"/>
</svg>
