<svg width="30" height="31" viewBox="0 0 30 31" fill="none" xmlns="http://www.w3.org/2000/svg">
<g opacity="0.75">
<path d="M15.0124 16.9948C12.9955 16.9948 10.9797 16.9971 8.96276 16.9936C7.05486 16.9912 6.10809 15.9103 6.42568 14.0542C7.09321 10.1535 7.77751 6.25629 8.46421 2.3579C8.67514 1.15757 9.5428 0.427822 10.7592 0.424239C13.6139 0.415879 16.4697 0.415879 19.3244 0.424239C20.5444 0.427822 21.4073 1.15399 21.6194 2.35671C22.3061 6.2539 22.9904 10.1523 23.6591 14.0531C23.9767 15.9079 23.0288 16.99 21.1221 16.9924C19.0859 16.9971 17.0498 16.9948 15.0124 16.9948Z" fill="url(#paint0_linear_2360_4001)"/>
<path d="M16.3622 28.4575C16.8464 28.4575 17.2814 28.4575 17.7165 28.4575C18.6548 28.4587 19.5944 28.4408 20.5316 28.4694C21.2327 28.4909 21.736 29.0284 21.7504 29.6961C21.766 30.384 21.2434 30.9418 20.5328 30.9967C20.4932 31.0003 20.4525 30.9991 20.4129 30.9991C16.8392 30.9991 13.2643 31.0003 9.69055 30.9967C9.53355 30.9967 9.36817 30.9812 9.21957 30.9346C8.62275 30.7447 8.25243 30.1427 8.34471 29.5372C8.43699 28.9257 8.92595 28.4778 9.59228 28.4659C10.7296 28.4444 11.8681 28.4575 13.0066 28.4563C13.2223 28.4563 13.4392 28.4563 13.7053 28.4563C13.7053 27.3874 13.7053 26.3662 13.7053 25.2662C13.4944 25.2662 13.2823 25.2662 13.0701 25.2662C10.7536 25.2662 8.43819 25.2674 6.12162 25.265C4.69788 25.2638 3.57375 24.1829 3.54379 22.7533C3.51862 21.5398 3.54019 20.3251 3.5354 19.1117C3.53061 18.1514 3.1507 17.7286 2.20873 17.6187C1.43455 17.5279 0.952777 16.9881 0.994722 16.2619C1.03547 15.5489 1.59154 15.0759 2.38011 15.0831C4.20652 15.0998 5.84238 16.5677 6.0581 18.3855C6.07847 18.5611 6.09046 18.7378 6.11682 19.0233C7.40634 18.0164 8.87202 18.2589 10.2898 18.2529C13.6646 18.2398 17.0381 18.2457 20.4129 18.2505C21.0313 18.2517 21.6605 18.2159 22.2633 18.321C22.835 18.4201 23.379 18.6817 23.9519 18.8788C24.013 18.5503 24.0514 18.1789 24.152 17.8241C24.6062 16.2261 26.1259 15.0759 27.7461 15.0831C28.5011 15.0867 29.0392 15.5513 29.0896 16.2428C29.1423 16.9702 28.6617 17.5255 27.8971 17.6187C26.9108 17.7393 26.5525 18.143 26.5501 19.1523C26.5465 20.306 26.5573 21.461 26.5465 22.6147C26.5309 24.1948 25.4427 25.265 23.8656 25.2662C21.5898 25.2674 19.3128 25.2662 17.0369 25.2662C16.8224 25.2662 16.6091 25.2662 16.3634 25.2662C16.3622 26.3399 16.3622 27.3468 16.3622 28.4575Z" fill="url(#paint1_linear_2360_4001)"/>
</g>
<defs>
<linearGradient id="paint0_linear_2360_4001" x1="15.0426" y1="-4.96128" x2="23.72" y2="34.8515" gradientUnits="userSpaceOnUse">
<stop stop-color="#929AAB"/>
<stop offset="1" stop-color="white"/>
</linearGradient>
<linearGradient id="paint1_linear_2360_4001" x1="15.0433" y1="9.91834" x2="18.8054" y2="37.3162" gradientUnits="userSpaceOnUse">
<stop stop-color="#929AAB"/>
<stop offset="1" stop-color="white"/>
</linearGradient>
</defs>
</svg>
