<svg xmlns="http://www.w3.org/2000/svg" width="31.533" height="33.958">
    <g data-name="Group 10490">
        <path data-name="Path 17235" d="M4.2 2A1.215 1.215 0 0 0 3 3.23v31.502a1.213 1.213 0 1 0 2.426 0V21.4h11.607l-1.215 4.538a1.214 1.214 0 0 0 1.173 1.526H33.32a1.213 1.213 0 0 0 1.213-1.213V14.128a1.213 1.213 0 0 0-1.213-1.213h-11.5l1.215-4.536a1.213 1.213 0 0 0-1.17-1.528H5.426V3.23A1.21 1.21 0 0 0 4.2 2zm1.226 7.277h14.858l-2.6 9.7H5.426zm15.747 6.064h10.934v9.7H18.571q1.297-4.851 2.602-9.7z" transform="translate(-3 -2)" style="fill:#fff"/>
    </g>
</svg>
