<svg xmlns="http://www.w3.org/2000/svg" width="33.959" height="33.959">
    <defs>
        <style>
            .cls-1{fill:#fff}
        </style>
    </defs>
    <g id="Group_10491" data-name="Group 10491" transform="translate(-390.59 -2128)">
        <path id="Path_17237" data-name="Path 17237" class="cls-1" d="M28.377 2.08A7.172 7.172 0 0 0 21.2 9.252a7.076 7.076 0 0 0 .2 1.685l-4.387 4.4-6.673-6.683 1.793-1.793L6.861 1.59 1.59 6.861l5.271 5.271 1.793-1.792 6.682 6.682-4.4 4.387a7.076 7.076 0 0 0-1.685-.2 7.172 7.172 0 1 0 7.172 7.172 7.076 7.076 0 0 0-.2-1.685l2-2.008 9.311 9.323a4.581 4.581 0 0 0 6.479-6.479l-9.323-9.311 2.008-2a7.076 7.076 0 0 0 1.685.2 7.172 7.172 0 0 0 0-14.344zM4.961 6.861l1.9-1.9 1.9 1.9-1.9 1.9zm4.291 26.3a4.781 4.781 0 1 1 4.781-4.781 4.781 4.781 0 0 1-4.781 4.778zm23.057-.849a2.235 2.235 0 0 1-3.084 0l-1.554-1.542 3.1-3.1 1.542 1.554a2.163 2.163 0 0 1 0 3.084zm-3.227-6.323-3.1 3.1L19.9 23l3.1-3.1zm-13.854-1.64A7.172 7.172 0 0 0 13.28 22.4l9.12-9.12a7.172 7.172 0 0 0 1.948 1.948zm13.149-10.316a4.781 4.781 0 1 1 2.391-8.881L27.528 8.4l1.7 1.7 3.251-3.239a4.781 4.781 0 0 1-4.1 7.172z" transform="translate(389 2126.41)"/>
        <path id="Rectangle_3127" data-name="Rectangle 3127" class="cls-1" transform="translate(397.057 2153.592)" d="M0 0h2.391v2.391H0z"/>
    </g>
</svg>
