<svg xmlns="http://www.w3.org/2000/svg" width="1057" height="15" viewBox="0 0 1057 15">
    <defs>
        <clipPath id="clip-path">
            <path id="Rectangle_2673" fill="#fff" d="M0 0H1057V15H0z" transform="translate(290 446)"/>
        </clipPath>
        <style>
            .cls-3{fill:none;stroke:#e4e8f3;stroke-miterlimit:10}
        </style>
    </defs>
    <g id="Mask_Group_86" clip-path="url(#clip-path)" transform="translate(-290 -446)">
        <g id="Group_7773" transform="translate(290.454 448.774)">
            <g id="Group_7768">
                <g id="Group_7767">
                    <g id="Group_7765" transform="translate(0 4.521)">
                        <path id="Path_13924" d="M-486 204.266c6.342 0 6.342-3.914 12.683-3.914s6.338 3.914 12.673 3.914 6.338-3.914 12.677-3.914 6.343 3.914 12.687 3.914 6.34-3.914 12.679-3.914 6.338 3.914 12.675 3.914 6.34-3.914 12.681-3.914 6.342 3.914 12.685 3.914 6.338-3.914 12.677-3.914 6.342 3.914 12.683 3.914 6.342-3.914 12.685-3.914 6.342 3.914 12.681 3.914 6.344-3.914 12.687-3.914 6.342 3.914 12.683 3.914 6.344-3.914 12.685-3.914 6.344 3.914 12.685 3.914 6.346-3.914 12.689-3.914 6.344 3.914 12.685 3.914 6.346-3.914 12.691-3.914 6.346 3.914 12.691 3.914 6.343-3.914 12.689-3.914 6.344 3.914 12.689 3.914 6.346-3.914 12.691-3.914 6.34 3.914 12.679 3.914 6.344-3.914 12.685-3.914 6.346 3.914 12.691 3.914 6.348-3.914 12.693-3.914 6.346 3.914 12.691 3.914 6.348-3.914 12.7-3.914 6.344 3.914 12.687 3.914 6.35-3.914 12.7-3.914 6.354 3.914 12.709 3.914 6.353-3.914 12.707-3.914" class="cls-3" transform="translate(486 -200.352)"/>
                        <path id="Path_13925" d="M-275.219 200.352c6.336 0 6.336 3.914 12.671 3.914s6.34-3.914 12.679-3.914 6.344 3.914 12.687 3.914 6.338-3.914 12.677-3.914 6.338 3.914 12.675 3.914 6.342-3.914 12.681-3.914 6.344 3.914 12.685 3.914 6.34-3.914 12.679-3.914 6.34 3.914 12.681 3.914 6.344-3.914 12.687-3.914 6.34 3.914 12.681 3.914 6.342-3.914 12.685-3.914 6.342 3.914 12.685 3.914 6.342-3.914 12.685-3.914 6.342 3.914 12.685 3.914 6.344-3.914 12.689-3.914 6.342 3.914 12.685 3.914 6.346-3.914 12.689-3.914 6.346 3.914 12.691 3.914 6.346-3.914 12.689-3.914 6.346 3.914 12.689 3.914 6.346-3.914 12.691-3.914 6.34 3.914 12.679 3.914 6.344-3.914 12.687-3.914 6.346 3.914 12.691 3.914 6.346-3.914 12.691-3.914 6.346 3.914 12.691 3.914 6.348-3.914 12.7-3.914 6.344 3.914 12.689 3.914 6.35-3.914 12.7-3.914 6.354 3.914 12.707 3.914 6.353-3.914 12.709-3.914" class="cls-3" transform="translate(693.457 -200.352)"/>
                    </g>
                    <g id="Group_7766" transform="translate(0 0)">
                        <path id="Path_13926" d="M-486 204.266c6.342 0 6.342-3.914 12.683-3.914s6.338 3.914 12.673 3.914 6.338-3.914 12.677-3.914 6.343 3.914 12.687 3.914 6.34-3.914 12.679-3.914 6.338 3.914 12.675 3.914 6.34-3.914 12.681-3.914 6.342 3.914 12.685 3.914 6.338-3.914 12.677-3.914 6.342 3.914 12.683 3.914 6.342-3.914 12.685-3.914 6.342 3.914 12.681 3.914 6.344-3.914 12.687-3.914 6.342 3.914 12.683 3.914 6.344-3.914 12.685-3.914 6.344 3.914 12.685 3.914 6.346-3.914 12.689-3.914 6.344 3.914 12.685 3.914 6.346-3.914 12.691-3.914 6.346 3.914 12.691 3.914 6.343-3.914 12.689-3.914 6.344 3.914 12.689 3.914 6.346-3.914 12.691-3.914 6.34 3.914 12.679 3.914 6.344-3.914 12.685-3.914 6.346 3.914 12.691 3.914 6.348-3.914 12.693-3.914 6.346 3.914 12.691 3.914 6.348-3.914 12.7-3.914 6.344 3.914 12.687 3.914 6.35-3.914 12.7-3.914 6.354 3.914 12.709 3.914 6.353-3.914 12.707-3.914" class="cls-3" transform="translate(486 -200.352)"/>
                        <path id="Path_13927" d="M-275.219 200.352c6.336 0 6.336 3.914 12.671 3.914s6.34-3.914 12.679-3.914 6.344 3.914 12.687 3.914 6.338-3.914 12.677-3.914 6.338 3.914 12.675 3.914 6.342-3.914 12.681-3.914 6.344 3.914 12.685 3.914 6.34-3.914 12.679-3.914 6.34 3.914 12.681 3.914 6.344-3.914 12.687-3.914 6.34 3.914 12.681 3.914 6.342-3.914 12.685-3.914 6.342 3.914 12.685 3.914 6.342-3.914 12.685-3.914 6.342 3.914 12.685 3.914 6.344-3.914 12.689-3.914 6.342 3.914 12.685 3.914 6.346-3.914 12.689-3.914 6.346 3.914 12.691 3.914 6.346-3.914 12.689-3.914 6.346 3.914 12.689 3.914 6.346-3.914 12.691-3.914 6.34 3.914 12.679 3.914 6.344-3.914 12.687-3.914 6.346 3.914 12.691 3.914 6.346-3.914 12.691-3.914 6.346 3.914 12.691 3.914 6.348-3.914 12.7-3.914 6.344 3.914 12.689 3.914 6.35-3.914 12.7-3.914 6.354 3.914 12.707 3.914 6.353-3.914 12.709-3.914" class="cls-3" transform="translate(693.457 -200.352)"/>
                    </g>
                </g>
            </g>
            <g id="Group_7772" transform="translate(785.507)">
                <g id="Group_7771">
                    <g id="Group_7769" transform="translate(0 4.521)">
                        <path id="Path_13928" d="M-486 204.266c6.342 0 6.342-3.914 12.683-3.914s6.338 3.914 12.673 3.914 6.338-3.914 12.677-3.914 6.343 3.914 12.687 3.914 6.34-3.914 12.679-3.914 6.338 3.914 12.675 3.914 6.34-3.914 12.681-3.914 6.342 3.914 12.685 3.914 6.338-3.914 12.677-3.914 6.342 3.914 12.683 3.914 6.342-3.914 12.685-3.914 6.342 3.914 12.681 3.914 6.344-3.914 12.687-3.914 6.342 3.914 12.683 3.914 6.344-3.914 12.685-3.914 6.344 3.914 12.685 3.914 6.346-3.914 12.689-3.914 6.344 3.914 12.685 3.914 6.346-3.914 12.691-3.914 6.346 3.914 12.691 3.914 6.343-3.914 12.689-3.914 6.344 3.914 12.689 3.914 6.346-3.914 12.691-3.914 6.34 3.914 12.679 3.914 6.344-3.914 12.685-3.914 6.346 3.914 12.691 3.914 6.348-3.914 12.693-3.914 6.346 3.914 12.691 3.914 6.348-3.914 12.7-3.914 6.344 3.914 12.687 3.914 6.35-3.914 12.7-3.914 6.354 3.914 12.709 3.914 6.353-3.914 12.707-3.914" class="cls-3" transform="translate(486 -200.352)"/>
                        <path id="Path_13929" d="M-275.219 200.352c6.336 0 6.336 3.914 12.671 3.914s6.34-3.914 12.679-3.914 6.344 3.914 12.687 3.914 6.338-3.914 12.677-3.914 6.338 3.914 12.675 3.914 6.342-3.914 12.681-3.914 6.344 3.914 12.685 3.914 6.34-3.914 12.679-3.914 6.34 3.914 12.681 3.914 6.344-3.914 12.687-3.914 6.34 3.914 12.681 3.914 6.342-3.914 12.685-3.914 6.342 3.914 12.685 3.914 6.342-3.914 12.685-3.914 6.342 3.914 12.685 3.914 6.344-3.914 12.689-3.914 6.342 3.914 12.685 3.914 6.346-3.914 12.689-3.914 6.346 3.914 12.691 3.914 6.346-3.914 12.689-3.914 6.346 3.914 12.689 3.914 6.346-3.914 12.691-3.914 6.34 3.914 12.679 3.914 6.344-3.914 12.687-3.914 6.346 3.914 12.691 3.914 6.346-3.914 12.691-3.914 6.346 3.914 12.691 3.914 6.348-3.914 12.7-3.914 6.344 3.914 12.689 3.914 6.35-3.914 12.7-3.914 6.354 3.914 12.707 3.914 6.353-3.914 12.709-3.914" class="cls-3" transform="translate(693.457 -200.352)"/>
                    </g>
                    <g id="Group_7770" transform="translate(0 0)">
                        <path id="Path_13930" d="M-486 204.266c6.342 0 6.342-3.914 12.683-3.914s6.338 3.914 12.673 3.914 6.338-3.914 12.677-3.914 6.343 3.914 12.687 3.914 6.34-3.914 12.679-3.914 6.338 3.914 12.675 3.914 6.34-3.914 12.681-3.914 6.342 3.914 12.685 3.914 6.338-3.914 12.677-3.914 6.342 3.914 12.683 3.914 6.342-3.914 12.685-3.914 6.342 3.914 12.681 3.914 6.344-3.914 12.687-3.914 6.342 3.914 12.683 3.914 6.344-3.914 12.685-3.914 6.344 3.914 12.685 3.914 6.346-3.914 12.689-3.914 6.344 3.914 12.685 3.914 6.346-3.914 12.691-3.914 6.346 3.914 12.691 3.914 6.343-3.914 12.689-3.914 6.344 3.914 12.689 3.914 6.346-3.914 12.691-3.914 6.34 3.914 12.679 3.914 6.344-3.914 12.685-3.914 6.346 3.914 12.691 3.914 6.348-3.914 12.693-3.914 6.346 3.914 12.691 3.914 6.348-3.914 12.7-3.914 6.344 3.914 12.687 3.914 6.35-3.914 12.7-3.914 6.354 3.914 12.709 3.914 6.353-3.914 12.707-3.914" class="cls-3" transform="translate(486 -200.352)"/>
                        <path id="Path_13931" d="M-275.219 200.352c6.336 0 6.336 3.914 12.671 3.914s6.34-3.914 12.679-3.914 6.344 3.914 12.687 3.914 6.338-3.914 12.677-3.914 6.338 3.914 12.675 3.914 6.342-3.914 12.681-3.914 6.344 3.914 12.685 3.914 6.34-3.914 12.679-3.914 6.34 3.914 12.681 3.914 6.344-3.914 12.687-3.914 6.34 3.914 12.681 3.914 6.342-3.914 12.685-3.914 6.342 3.914 12.685 3.914 6.342-3.914 12.685-3.914 6.342 3.914 12.685 3.914 6.344-3.914 12.689-3.914 6.342 3.914 12.685 3.914 6.346-3.914 12.689-3.914 6.346 3.914 12.691 3.914 6.346-3.914 12.689-3.914 6.346 3.914 12.689 3.914 6.346-3.914 12.691-3.914 6.34 3.914 12.679 3.914 6.344-3.914 12.687-3.914 6.346 3.914 12.691 3.914 6.346-3.914 12.691-3.914 6.346 3.914 12.691 3.914 6.348-3.914 12.7-3.914 6.344 3.914 12.689 3.914 6.35-3.914 12.7-3.914 6.354 3.914 12.707 3.914 6.353-3.914 12.709-3.914" class="cls-3" transform="translate(693.457 -200.352)"/>
                    </g>
                </g>
            </g>
        </g>
    </g>
</svg>
