<svg width="18" height="20" viewBox="0 0 18 20" fill="none" xmlns="http://www.w3.org/2000/svg">
<path d="M16.5 8.36364C16.5 14.0909 8.75 19 8.75 19C8.75 19 1 14.0909 1 8.36364C1 6.41068 1.81652 4.53771 3.26992 3.15676C4.72333 1.77581 6.69457 1 8.75 1C10.8054 1 12.7767 1.77581 14.2301 3.15676C15.6835 4.53771 16.5 6.41068 16.5 8.36364Z" stroke="#B3BBC8" stroke-width="1.5" stroke-linecap="round" stroke-linejoin="round"/>
<path d="M8.66661 11.4413C10.1394 11.4413 11.3333 10.2482 11.3333 8.77633C11.3333 7.30449 10.1394 6.11133 8.66661 6.11133C7.19385 6.11133 5.99994 7.30449 5.99994 8.77633C5.99994 10.2482 7.19385 11.4413 8.66661 11.4413Z" stroke="#B3BBC8" stroke-width="1.5" stroke-linecap="round" stroke-linejoin="round"/>
</svg>
