<svg width="24" height="24" viewBox="0 0 24 24" fill="none" xmlns="http://www.w3.org/2000/svg">
<mask id="mask0_2235_18596" style="mask-type:alpha" maskUnits="userSpaceOnUse" x="0" y="0" width="24" height="24">
<rect width="24" height="24" fill="#D9D9D9"/>
</mask>
<g mask="url(#mask0_2235_18596)">
</g>
<g clip-path="url(#clip0_2235_18596)">
<path d="M19.5 4.68739H17.0625V3.56239C17.0626 3.4132 17.0034 3.27009 16.898 3.16453C16.7926 3.05897 16.6496 2.99961 16.5004 2.99951C16.3512 2.99941 16.2081 3.05858 16.1025 3.164C15.997 3.26942 15.9376 3.41245 15.9375 3.56164V4.68739H12.5625V3.56239C12.5625 3.48852 12.548 3.41536 12.5198 3.3471C12.4916 3.27883 12.4502 3.2168 12.398 3.16453C12.3458 3.11226 12.2838 3.07079 12.2156 3.04247C12.1474 3.01416 12.0742 2.99956 12.0004 2.99951C11.8512 2.99941 11.7081 3.05858 11.6025 3.164C11.497 3.26942 11.4376 3.41245 11.4375 3.56164V4.68739H8.0625V3.56239C8.06255 3.48852 8.04805 3.41536 8.01983 3.3471C7.9916 3.27883 7.95021 3.2168 7.89801 3.16453C7.84581 3.11226 7.78383 3.07079 7.71561 3.04247C7.64738 3.01416 7.57424 2.99956 7.50038 2.99951C7.35119 2.99941 7.20808 3.05858 7.10252 3.164C6.99696 3.26942 6.9376 3.41245 6.9375 3.56164V4.68739H4.5C4.10231 4.68739 3.72089 4.84532 3.4396 5.12646C3.15832 5.4076 3.0002 5.78894 3 6.18664V19.4991C3 19.897 3.15804 20.2785 3.43934 20.5598C3.72064 20.8411 4.10218 20.9991 4.5 20.9991H19.5C19.8978 20.9991 20.2794 20.8411 20.5607 20.5598C20.842 20.2785 21 19.897 21 19.4991V6.18664C20.9998 5.78894 20.8417 5.4076 20.5604 5.12646C20.2791 4.84532 19.8977 4.68739 19.5 4.68739ZM19.875 19.4999C19.875 19.5992 19.8356 19.6945 19.7654 19.7648C19.6953 19.8351 19.6001 19.8747 19.5007 19.8749H4.5C4.40054 19.8749 4.30516 19.8354 4.23483 19.7651C4.16451 19.6947 4.125 19.5993 4.125 19.4999V6.18739C4.1252 6.08806 4.1648 5.99287 4.2351 5.92271C4.3054 5.85254 4.40067 5.81314 4.5 5.81314H6.9375V6.93814C6.9374 7.08732 6.99657 7.23043 7.10199 7.33599C7.20741 7.44155 7.35044 7.50091 7.49962 7.50101C7.64881 7.50111 7.79192 7.44194 7.89748 7.33652C8.00304 7.23111 8.0624 7.08807 8.0625 6.93889V5.81314H11.4375V6.93814C11.4374 7.08732 11.4966 7.23043 11.602 7.33599C11.7074 7.44155 11.8504 7.50091 11.9996 7.50101C12.1488 7.50111 12.2919 7.44194 12.3975 7.33652C12.503 7.23111 12.5624 7.08807 12.5625 6.93889V5.81314H15.9375V6.93814C15.9374 7.08732 15.9966 7.23043 16.102 7.33599C16.2074 7.44155 16.3504 7.50091 16.4996 7.50101C16.6488 7.50111 16.7919 7.44194 16.8975 7.33652C17.003 7.23111 17.0624 7.08807 17.0625 6.93889V5.81314H19.5C19.5992 5.81334 19.6943 5.85283 19.7644 5.92297C19.8346 5.99311 19.8741 6.08819 19.8743 6.18739L19.875 19.4999Z" fill="#4785FF"/>
<circle cx="8.25" cy="10.5498" r="1.25" fill="#4785FF"/>
<circle cx="16.25" cy="16.5498" r="1.25" fill="#4785FF"/>
<path d="M8 10.7998H15.5C15.7761 10.7998 16 11.0237 16 11.2998V13.2998C16 13.5759 15.7761 13.7998 15.5 13.7998H8.5C8.22386 13.7998 8 14.0237 8 14.2998V16.2998C8 16.5759 8.22386 16.7998 8.5 16.7998H15.5" stroke="#4785FF" stroke-width="1.1"/>
</g>
<defs>
<clipPath id="clip0_2235_18596">
<rect width="18" height="18" fill="white" transform="translate(3 3)"/>
</clipPath>
</defs>
</svg>
