<svg xmlns="http://www.w3.org/2000/svg" width="12.335" height="9.783" viewBox="0 0 12.335 9.783">
<g id="shuffle-outline" transform="translate(-63.6 -111.434)">
    <path id="Path_13867" d="M74.093 117.768l1.442 1.442-1.442 1.442m0-8.651l1.442 1.442-1.442 1.442M64 119.209h2.559a2.4 2.4 0 0 0 2-1.07l1.209-1.814" style="fill:none;stroke:#f67778;stroke-linecap:round;stroke-linejoin:round;stroke-width:.8px"></path>
    <path id="Path_13868" d="M64 160h2.559a2.4 2.4 0 0 1 2 1.07l2.418 3.628a2.4 2.4 0 0 0 2 1.07h1.6m0-5.768h-1.6a2.4 2.4 0 0 0-2 1.07l-.248.372" style="fill:none;stroke:#f67778;stroke-linecap:round;stroke-linejoin:round;stroke-width:.8px" transform="translate(0 -46.558)"></path>
</g>
</svg>