<svg width="14" height="15" viewBox="0 0 14 15" fill="none" xmlns="http://www.w3.org/2000/svg">
<path d="M4.62476 2.30273H4.49976C4.56851 2.30273 4.62476 2.24648 4.62476 2.17773V2.30273H9.37476V2.17773C9.37476 2.24648 9.43101 2.30273 9.49976 2.30273H9.37476V3.42773H10.4998V2.17773C10.4998 1.62617 10.0513 1.17773 9.49976 1.17773H4.49976C3.94819 1.17773 3.49976 1.62617 3.49976 2.17773V3.42773H4.62476V2.30273ZM12.4998 3.42773H1.49976C1.22319 3.42773 0.999756 3.65117 0.999756 3.92773V4.42773C0.999756 4.49648 1.05601 4.55273 1.12476 4.55273H2.06851L2.45444 12.7246C2.47944 13.2574 2.92007 13.6777 3.45288 13.6777H10.5466C11.081 13.6777 11.5201 13.259 11.5451 12.7246L11.931 4.55273H12.8748C12.9435 4.55273 12.9998 4.49648 12.9998 4.42773V3.92773C12.9998 3.65117 12.7763 3.42773 12.4998 3.42773ZM10.4263 12.5527H3.57319L3.19507 4.55273H10.8044L10.4263 12.5527Z" fill="#2B345F"/>
</svg>
