<svg width="24" height="24" viewBox="0 0 24 24" fill="none" xmlns="http://www.w3.org/2000/svg">
<path fill-rule="evenodd" clip-rule="evenodd" d="M5.11652 7.75176C5.31488 7.73858 5.51036 7.80471 5.65999 7.93559C5.80963 8.06647 5.90118 8.25141 5.91452 8.44976L6.37452 15.3498C6.46452 16.6968 6.52852 17.6348 6.66852 18.3398C6.80552 19.0248 6.99552 19.3868 7.26852 19.6428C7.54252 19.8988 7.91652 20.0648 8.60852 20.1548C9.32252 20.2478 10.2625 20.2498 11.6125 20.2498H12.3865C13.7365 20.2498 14.6765 20.2478 15.3905 20.1548C16.0825 20.0648 16.4565 19.8988 16.7305 19.6428C17.0035 19.3868 17.1935 19.0248 17.3305 18.3408C17.4705 17.6348 17.5345 16.6968 17.6245 15.3488L18.0845 8.44976C18.0911 8.35146 18.117 8.25542 18.1606 8.16712C18.2043 8.07883 18.265 7.99999 18.3391 7.93513C18.4133 7.87027 18.4995 7.82065 18.5928 7.7891C18.6861 7.75755 18.7847 7.74469 18.883 7.75126C18.9813 7.75782 19.0774 7.78369 19.1657 7.82737C19.254 7.87105 19.3328 7.9317 19.3976 8.00584C19.4625 8.07999 19.5121 8.16619 19.5437 8.25951C19.5752 8.35284 19.5881 8.45146 19.5815 8.54976L19.1175 15.5018C19.0325 16.7838 18.9635 17.8208 18.8015 18.6338C18.6325 19.4788 18.3465 20.1848 17.7545 20.7378C17.1635 21.2918 16.4395 21.5308 15.5845 21.6418C14.7625 21.7498 13.7245 21.7498 12.4395 21.7498H11.5595C10.2745 21.7498 9.23652 21.7498 8.41452 21.6418C7.55952 21.5308 6.83552 21.2918 6.24452 20.7378C5.65252 20.1848 5.36652 19.4778 5.19752 18.6338C5.03552 17.8198 4.96752 16.7838 4.88152 15.5018L4.41752 8.54976C4.41101 8.45146 4.42392 8.35284 4.45552 8.25953C4.48712 8.16622 4.5368 8.08006 4.60171 8.00595C4.66662 7.93185 4.7455 7.87126 4.83383 7.82764C4.92216 7.78403 5.01822 7.75824 5.11652 7.75176ZM10.3545 2.24976H10.3085C10.0925 2.24976 9.90352 2.24976 9.72552 2.27776C9.37881 2.3333 9.04991 2.46922 8.76514 2.67464C8.48036 2.88006 8.24762 3.14928 8.08552 3.46076C8.00152 3.62076 7.94252 3.79976 7.87452 4.00476L7.85952 4.04876L7.76252 4.33876C7.68594 4.61092 7.51936 4.84908 7.28997 5.01436C7.06058 5.17964 6.78193 5.26227 6.49952 5.24876H3.49952C3.30048 5.24876 3.10959 5.32783 2.96884 5.46857C2.82809 5.60932 2.74902 5.80021 2.74902 5.99926C2.74902 6.1983 2.82809 6.38919 2.96884 6.52994C3.10959 6.67069 3.30048 6.74976 3.49952 6.74976H20.5005C20.6994 6.74976 20.8902 6.67074 21.0309 6.53009C21.1715 6.38943 21.2505 6.19867 21.2505 5.99976C21.2505 5.80084 21.1715 5.61008 21.0309 5.46943C20.8902 5.32877 20.6994 5.24976 20.5005 5.24976H17.4095C17.1424 5.24335 16.8844 5.15153 16.6733 4.98776C16.4622 4.82399 16.3091 4.59688 16.2365 4.33976L16.1395 4.04876L16.1255 4.00476C16.0565 3.79976 15.9975 3.62076 15.9145 3.46076C15.7523 3.14916 15.5194 2.87986 15.2345 2.67443C14.9495 2.469 14.6204 2.33315 14.2735 2.27776C14.0802 2.25322 13.8853 2.24386 13.6905 2.24976H13.6445H10.3545ZM9.14452 4.93476C9.10452 5.04376 9.05952 5.14876 9.00752 5.24976H14.9915C14.9397 5.148 14.8943 5.04313 14.8555 4.93576L14.8155 4.82176L14.7165 4.52176C14.6799 4.39642 14.6355 4.27351 14.5835 4.15376C14.5295 4.04976 14.4519 3.95987 14.3569 3.89127C14.262 3.82268 14.1522 3.77729 14.0365 3.75876C13.9062 3.74752 13.7752 3.74452 13.6445 3.74976H10.3545C10.0665 3.74976 10.0065 3.75176 9.96252 3.75976C9.84692 3.77819 9.73725 3.82342 9.64226 3.89184C9.54728 3.96025 9.46963 4.04995 9.41552 4.15376C9.39552 4.19376 9.37352 4.24876 9.28252 4.52276L9.18252 4.82276L9.14452 4.93476Z" fill="#707693"/>
</svg>
