<svg width="14" height="14" viewBox="0 0 14 14" fill="none" xmlns="http://www.w3.org/2000/svg">
<path d="M14 1.22227L12.7583 0L11.2949 1.47273C10.1093 0.549609 8.61875 0 7 0C3.13414 0 0 3.13414 0 7C0 8.61875 0.549609 10.1093 1.47273 11.2949L0 12.769L1.23102 14L2.70512 12.5273C3.89074 13.4504 5.38125 14 7 14C10.8659 14 14 10.8659 14 7C14 5.38125 13.4504 3.89074 12.5273 2.70512L14 1.22227ZM1.86594 7C1.86594 4.16445 4.16445 1.86594 7 1.86594C8.10305 1.86594 9.12488 2.21348 9.96187 2.80574L2.80574 9.96187C2.21348 9.12488 1.86594 8.10305 1.86594 7ZM7 12.1341C5.89695 12.1341 4.87512 11.7865 4.03813 11.1943L11.1943 4.03813C11.7865 4.87512 12.1341 5.89695 12.1341 7C12.1341 9.83555 9.83555 12.1341 7 12.1341Z" fill="#FFA4A4" fill-opacity="0.86"/>
</svg>
