<svg width="6" height="49" viewBox="0 0 6 49" fill="none" xmlns="http://www.w3.org/2000/svg">
<path d="M0 0.411774H1.71429V2.17648H0V0.411774ZM4.28571 0.411774H6V2.17648H4.28571V0.411774ZM0 4.82354H1.71429V6.58824H0V4.82354ZM4.28571 4.82354H6V6.58824H4.28571V4.82354ZM0 9.2353H1.71429V11H0V9.2353ZM4.28571 9.2353H6V11H4.28571V9.2353Z" fill="#A5A4B5" fill-opacity="0.4"/>
<path d="M0 14H1.71429V16H0V14ZM4.28571 14H6V16H4.28571V14Z" fill="#A5A4B5" fill-opacity="0.4"/>
<path d="M0 19H1.71429V20.7647H0V19ZM4.28571 19H6V20.7647H4.28571V19ZM0 23.4118H1.71429V25.1765H0V23.4118ZM4.28571 23.4118H6V25.1765H4.28571V23.4118ZM0 27.8235H1.71429V29.5883H0V27.8235ZM4.28571 27.8235H6V29.5883H4.28571V27.8235ZM0 32.2353H1.71429V34H0V32.2353ZM4.28571 32.2353H6V34H4.28571V32.2353Z" fill="#A5A4B5" fill-opacity="0.4"/>
<path d="M0 37H1.71429V39H0V37ZM4.28571 37H6V39H4.28571V37Z" fill="#A5A4B5" fill-opacity="0.4"/>
<path d="M0 42H1.71429V43.7647H0V42ZM4.28571 42H6V43.7647H4.28571V42ZM0 46.4118H1.71429V48.1765H0V46.4118ZM4.28571 46.4118H6V48.1765H4.28571V46.4118Z" fill="#A5A4B5" fill-opacity="0.4"/>
</svg>
