<svg width="52" height="69" viewBox="0 0 52 69" fill="none" xmlns="http://www.w3.org/2000/svg">
                        <path d="M51.491 11.583V53.475C51.4902 54.1883 51.2066 54.8721 50.7023 55.3766C50.198 55.8811 49.5143 56.1649 48.801 56.166H2.69099C1.97754 56.1652 1.29354 55.8814 0.789047 55.3769C0.284559 54.8725 0.000794051 54.1885 0 53.475V2.69C0.00105863 1.97672 0.284946 1.29297 0.789406 0.7887C1.29387 0.284428 1.97771 0.000793514 2.69099 0H39.908L41.153 1.245L51.491 11.583Z" fill="#DBEBFF"></path>
                        <path d="M51.491 11.5819V53.4739C51.4902 54.1872 51.2066 54.871 50.7023 55.3755C50.198 55.88 49.5143 56.1638 48.801 56.1649H2.69099C1.97754 56.1641 1.29354 55.8803 0.789047 55.3758C0.284559 54.8714 0.000794051 54.1874 0 53.4739V52.7979H46.008C46.3653 52.7979 46.7191 52.7275 47.0491 52.5907C47.3792 52.454 47.6791 52.2536 47.9317 52.0009C48.1843 51.7482 48.3846 51.4482 48.5212 51.1181C48.6579 50.788 48.7281 50.4342 48.728 50.0769V11.5769L41.152 1.2439L51.491 11.5819Z" fill="#C5DEFF"></path>
                        <path d="M51.491 11.583H40.791C40.5561 11.583 40.3307 11.4897 40.1646 11.3235C39.9984 11.1573 39.905 10.932 39.905 10.697V0C39.9938 0.000230909 40.0816 0.0180204 40.1635 0.0523453C40.2454 0.0866701 40.3196 0.136853 40.382 0.200001L51.293 11.111C51.4187 11.2361 51.4899 11.4057 51.491 11.583Z" fill="#79A6FF"></path>
                        <path d="M11.3377 17.3075H38.8502C39.1551 17.3075 39.4476 17.1859 39.6632 16.9696C39.8789 16.7532 40 16.4597 40 16.1538C40 15.8478 39.8789 15.5543 39.6632 15.3379C39.4476 15.1216 39.1551 15 38.8502 15H11.3377C11.0328 15 10.7404 15.1216 10.5247 15.3379C10.3091 15.5543 10.188 15.8478 10.188 16.1538C10.188 16.4597 10.3091 16.7532 10.5247 16.9696C10.7404 17.1859 11.0328 17.3075 11.3377 17.3075Z" fill="#B2C7FF"></path>
                        <path d="M38.8502 21.8059H11.3377C11.0328 21.8059 10.7404 21.9275 10.5247 22.1438C10.3091 22.3602 10.188 22.6537 10.188 22.9596C10.188 23.2656 10.3091 23.5591 10.5247 23.7755C10.7404 23.9918 11.0328 24.1134 11.3377 24.1134H38.8502C39.1551 24.1134 39.4476 23.9918 39.6632 23.7755C39.8789 23.5591 40 23.2656 40 22.9596C40 22.6537 39.8789 22.3602 39.6632 22.1438C39.4476 21.9275 39.1551 21.8059 38.8502 21.8059Z" fill="#B2C7FF"></path>
                        <path d="M38.8503 28.7454H33.4145C33.1096 28.7454 32.8171 28.8669 32.6015 29.0833C32.3859 29.2997 32.2648 29.5931 32.2648 29.8991C32.2648 30.2051 32.3859 30.4986 32.6015 30.7149C32.8171 30.9313 33.1096 31.0529 33.4145 31.0529H38.8503C39.1553 31.0529 39.4477 30.9313 39.6633 30.7149C39.8789 30.4986 40.0001 30.2051 40.0001 29.8991C40.0001 29.5931 39.8789 29.2997 39.6633 29.0833C39.4477 28.8669 39.1553 28.7454 38.8503 28.7454Z" fill="#B2C7FF"></path>
                        <path d="M28.0026 28.7454H11.3377C11.0328 28.7454 10.7404 28.8669 10.5247 29.0833C10.3091 29.2997 10.188 29.5931 10.188 29.8991C10.188 30.2051 10.3091 30.4986 10.5247 30.7149C10.7404 30.9313 11.0328 31.0529 11.3377 31.0529H28.0026C28.3075 31.0529 28.5999 30.9313 28.8156 30.7149C29.0312 30.4986 29.1523 30.2051 29.1523 29.8991C29.1523 29.5931 29.0312 29.2997 28.8156 29.0833C28.5999 28.8669 28.3075 28.7454 28.0026 28.7454Z" fill="#B2C7FF"></path>
                        <path d="M41.1522 53.0736C41.1511 55.2143 40.6942 57.3302 39.8119 59.2806C38.9296 61.2309 37.642 62.9711 36.0349 64.3852C34.4278 65.7993 32.538 66.855 30.4912 67.482C28.4444 68.109 26.2876 68.2929 24.1642 68.0216H24.1582C20.522 67.5561 17.1801 65.7813 14.7581 63.0295C12.3361 60.2777 11 56.7375 11 53.0716C11 49.4057 12.3361 45.8655 14.7581 43.1137C17.1801 40.3618 20.522 38.5871 24.1582 38.1216H24.1642C26.2878 37.8503 28.4448 38.0342 30.4917 38.6614C32.5386 39.2885 34.4286 40.3443 36.0357 41.7587C37.6428 43.173 38.9303 44.9134 39.8125 46.864C40.6947 48.8146 41.1514 50.9307 41.1522 53.0716V53.0736Z" fill="#C5DEFF"></path>
                        <path d="M42.343 51.2269C42.3419 53.3676 41.885 55.4835 41.0027 57.4339C40.1204 59.3843 38.8328 61.1244 37.2257 62.5385C35.6186 63.9526 33.7288 65.0083 31.682 65.6353C29.6352 66.2623 27.4784 66.4462 25.355 66.1749H25.349C21.7128 65.7094 18.3709 63.9346 15.9489 61.1828C13.5269 58.431 12.1908 54.8908 12.1908 51.2249C12.1908 47.559 13.5269 44.0188 15.9489 41.267C18.3709 38.5152 21.7128 36.7404 25.349 36.2749H25.355C27.4786 36.0036 29.6356 36.1876 31.6825 36.8147C33.7294 37.4418 35.6194 38.4976 37.2265 39.912C38.8336 41.3263 40.1211 43.0667 41.0033 45.0173C41.8855 46.9679 42.3422 49.0841 42.343 51.2249V51.2269Z" fill="#F6FAFF"></path>
                        <path d="M21.175 52.3741C21.2865 52.2622 21.4189 52.1734 21.5648 52.1129C21.7106 52.0523 21.867 52.0211 22.025 52.0211C22.1829 52.0211 22.3393 52.0523 22.4852 52.1129C22.631 52.1734 22.7635 52.2622 22.875 52.3741L26.075 55.5741V43.9741C26.075 43.6558 26.2014 43.3506 26.4264 43.1256C26.6515 42.9005 26.9567 42.7741 27.275 42.7741C27.5932 42.7741 27.8985 42.9005 28.1235 43.1256C28.3485 43.3506 28.475 43.6558 28.475 43.9741V55.5741L31.675 52.3741C31.9004 52.1486 32.2062 52.022 32.525 52.022C32.8438 52.022 33.1495 52.1486 33.375 52.3741C33.6004 52.5995 33.7271 52.9053 33.7271 53.2241C33.7271 53.5429 33.6004 53.8486 33.375 54.0741L28.118 59.3231C28.0065 59.435 27.874 59.5237 27.7282 59.5843C27.5823 59.6448 27.4259 59.676 27.268 59.676C27.11 59.676 26.9536 59.6448 26.8078 59.5843C26.6619 59.5237 26.5295 59.435 26.418 59.3231L21.175 54.0741C21.0631 53.9626 20.9743 53.8301 20.9138 53.6843C20.8532 53.5384 20.822 53.382 20.822 53.2241C20.822 53.0661 20.8532 52.9098 20.9138 52.7639C20.9743 52.618 21.0631 52.4856 21.175 52.3741Z" fill="#79A6FF"></path>
                    </svg>