<svg xmlns="http://www.w3.org/2000/svg" width="95.533" height="87.394" viewBox="0 0 95.533 87.394">
    <defs>
        <style>
            .cls-3{fill:#fafafa}
        </style>
    </defs>
    <g id="_892311-1" data-name="892311-1" transform="translate(0 -21.823)">
        <path id="Path_13284" data-name="Path 13284" d="M74.993 45.652a29.837 29.837 0 0 0-59.061 5.88c0 .672.028 1.361.087 2.089a17.9 17.9 0 0 0 1.9 35.705h2.089c-.048-.66-.1-1.317-.1-1.989a25.859 25.859 0 1 1 51.717 0c0 .672-.052 1.329-.1 1.989h2.089a21.857 21.857 0 0 0 1.376-43.673z" style="fill:#668efe;opacity:.15"/>
        <path id="Path_13287" data-name="Path 13287" d="M21.88 0A21.88 21.88 0 1 1 0 21.88 21.88 21.88 0 0 1 21.88 0z" transform="translate(23.888 65.456)" style="fill:#658ffe;opacity:.58"/>
        <g id="Group_7374" data-name="Group 7374" transform="translate(35.849 73.412)">
            <path id="Path_13285" data-name="Path 13285" class="cls-3" d="M236.756 326.317a1.989 1.989 0 0 1-1.989-1.989v-23.87a1.989 1.989 0 1 1 3.978 0v23.87a1.989 1.989 0 0 1-1.989 1.989z" transform="translate(-226.837 -298.469)"/>
            <path id="Path_13286" data-name="Path 13286" class="cls-3" d="M210.116 310.415a1.988 1.988 0 0 1-1.408-.581l-6.548-6.552-6.548 6.552a1.989 1.989 0 0 1-2.813-2.813l7.957-7.957a1.989 1.989 0 0 1 2.813 0l7.957 7.957a1.989 1.989 0 0 1-1.408 3.394z" transform="translate(-192.24 -298.48)"/>
        </g>
    </g>
</svg>
