<svg width="16" height="17" viewBox="0 0 16 17" fill="none" xmlns="http://www.w3.org/2000/svg">
<rect x="1" y="1.88647" width="13" height="13.2054" fill="#9FCEFF"/>
<path d="M13.587 0H1.73259C0.777043 0 0 0.899036 0 2.00627V14.6159C0 15.7218 0.777043 16.6199 1.73259 16.6199H13.587C14.5425 16.6199 15.3188 15.7218 15.3188 14.6159V2.00627C15.3188 0.899036 14.5426 0 13.587 0ZM9.90592 3.30136C10.83 3.30136 11.5794 3.85111 11.5794 4.92054C11.5794 5.98997 10.8299 6.60272 9.90592 6.60272C8.98161 6.60272 8.23246 5.98997 8.23246 4.92054C8.23246 3.85111 8.98161 3.30136 9.90592 3.30136ZM13.0437 14.7662H7.65925H2.51471C2.05253 14.7662 1.84669 14.3792 2.05504 13.9018L4.92701 7.31805C5.13511 6.84064 5.53171 6.79802 5.81256 7.22279L8.70044 11.5907C8.9813 12.0155 9.4722 12.0517 9.79711 11.6711L10.5036 10.8431C10.8282 10.4625 11.3066 10.5096 11.5715 10.9477L13.4009 13.9721C13.6654 14.4108 13.5059 14.7662 13.0437 14.7662Z" fill="#3698FF"/>
</svg>
