<svg width="16" height="16" viewBox="0 0 16 16" fill="none" xmlns="http://www.w3.org/2000/svg">
<path d="M14.2222 5.33334H1.77778C0.800001 5.33334 0 4.53334 0 3.55556V1.77778C0 0.800001 0.800001 0 1.77778 0H14.2222C15.2 0 16 0.800001 16 1.77778V3.55556C16 4.53334 15.2 5.33334 14.2222 5.33334ZM1.77778 1.77778V3.55556H14.2222V1.77778H1.77778Z" fill="#4F8AFF"/>
<path d="M5.33334 16H1.77778C0.800001 16 0 15.2 0 14.2222V8.88886C0 7.91108 0.800001 7.11108 1.77778 7.11108H5.33334C6.31112 7.11108 7.11112 7.91108 7.11112 8.88886V14.2222C7.11112 15.2 6.31112 16 5.33334 16ZM1.77778 8.88886V14.2222H5.33334V8.88886H1.77778Z" fill="#4F8AFF"/>
<path d="M15.1109 8.88886H9.77756C9.24423 8.88886 8.88867 8.53331 8.88867 7.99997C8.88867 7.46664 9.24423 7.11108 9.77756 7.11108H15.1109C15.6442 7.11108 15.9998 7.46664 15.9998 7.99997C15.9998 8.53331 15.6442 8.88886 15.1109 8.88886Z" fill="#4F8AFF"/>
<path d="M15.1109 12.4445H9.77756C9.24423 12.4445 8.88867 12.0889 8.88867 11.5556C8.88867 11.0222 9.24423 10.6667 9.77756 10.6667H15.1109C15.6442 10.6667 15.9998 11.0222 15.9998 11.5556C15.9998 12.0889 15.6442 12.4445 15.1109 12.4445Z" fill="#4F8AFF"/>
<path d="M15.1109 16H9.77756C9.24423 16 8.88867 15.6445 8.88867 15.1111C8.88867 14.5778 9.24423 14.2222 9.77756 14.2222H15.1109C15.6442 14.2222 15.9998 14.5778 15.9998 15.1111C15.9998 15.6445 15.6442 16 15.1109 16Z" fill="#4F8AFF"/>
</svg>
