<svg width="16" height="15" viewBox="0 0 16 15" fill="none" xmlns="http://www.w3.org/2000/svg">
<path d="M14.2222 6.33334H1.77778C0.800001 6.33334 0 5.53334 0 4.55556V1.77778C0 0.800001 0.800001 0 1.77778 0H14.2222C15.2 0 16 0.800001 16 1.77778V4.55556C16 5.53334 15.2 6.33334 14.2222 6.33334ZM1.77778 1.77778V4.55556H14.2222V1.77778H1.77778Z" fill="#4F8AFF"/>
<path d="M14.2222 14.8333H1.77778C0.800001 14.8333 0 14.0333 0 13.0556V10.2778C0 9.3 0.800001 8.5 1.77778 8.5H14.2222C15.2 8.5 16 9.3 16 10.2778V13.0556C16 14.0333 15.2 14.8333 14.2222 14.8333ZM1.77778 10.2778V13.0556H14.2222V10.2778H1.77778Z" fill="#4F8AFF"/>
</svg>
