<svg width="26" height="26" viewBox="0 0 26 26" fill="none" xmlns="http://www.w3.org/2000/svg">
<g style="mix-blend-mode:luminosity" clip-path="url(#clip0_48_17456)">
<path fill-rule="evenodd" clip-rule="evenodd" d="M13.3555 4.07002V4.76684C13.2376 4.76186 13.1191 4.75871 13 4.75871C12.8809 4.75871 12.7624 4.76181 12.6445 4.76684V4.07002C11.9052 3.90746 11.3519 3.24868 11.3519 2.4605C11.3519 1.55035 12.0898 0.8125 13 0.8125C13.9102 0.8125 14.6481 1.55035 14.6481 2.46055C14.6481 3.24868 14.0948 3.90752 13.3555 4.07002ZM18.5705 6.92687C18.7452 7.08713 18.9129 7.25491 19.0732 7.42955L19.5637 6.939C19.8197 7.10277 20.124 7.19768 20.4505 7.19768C21.3607 7.19768 22.0985 6.45983 22.0985 5.54963C22.0985 4.63943 21.3607 3.90157 20.4505 3.90157C19.5403 3.90157 18.8024 4.63943 18.8024 5.54963C18.8024 5.87605 18.8973 6.18033 19.0611 6.43632L18.5705 6.92687ZM21.2332 12.6445H21.9299C22.0925 11.9052 22.7513 11.352 23.5394 11.352C24.4496 11.3519 25.1875 12.0898 25.1875 13C25.1875 13.9102 24.4496 14.6481 23.5394 14.6481C22.7513 14.6481 22.0925 14.0948 21.9299 13.3555H21.2332C21.2381 13.2376 21.2413 13.1191 21.2413 13C21.2413 12.8809 21.2382 12.7624 21.2332 12.6445ZM19.0732 18.5705C18.9129 18.7452 18.7451 18.9129 18.5705 19.0732L19.061 19.5637C18.8973 19.8197 18.8024 20.124 18.8024 20.4505C18.8024 21.3607 19.5402 22.0985 20.4504 22.0985C21.3606 22.0985 22.0985 21.3607 22.0985 20.4505C22.0985 19.5403 21.3606 18.8024 20.4504 18.8024C20.124 18.8024 19.8197 18.8974 19.5637 19.0611L19.0732 18.5705ZM13.3555 21.2332V21.9299C14.0948 22.0925 14.6481 22.7513 14.6481 23.5394C14.6481 24.4496 13.9102 25.1875 13 25.1875C12.0898 25.1875 11.3519 24.4496 11.3519 23.5395C11.3519 22.7514 11.9052 22.0925 12.6445 21.93V21.2332C12.7624 21.2381 12.8809 21.2413 13 21.2413C13.1191 21.2413 13.2376 21.2382 13.3555 21.2332ZM7.4295 19.0731C7.25481 18.9129 7.08713 18.7451 6.92682 18.5704L6.43627 19.061C6.18028 18.8973 5.876 18.8023 5.54958 18.8023C4.63937 18.8023 3.90152 19.5402 3.90152 20.4504C3.90152 21.3606 4.63937 22.0984 5.54958 22.0984C6.45978 22.0984 7.19763 21.3606 7.19763 20.4504C7.19763 20.1239 7.10267 19.8197 6.93895 19.5636L7.4295 19.0731ZM4.76684 13.3555H4.07002C3.90746 14.0948 3.24868 14.6481 2.4605 14.6481C1.55035 14.6481 0.8125 13.9102 0.8125 13C0.8125 12.0898 1.55035 11.3519 2.46055 11.3519C3.24868 11.3519 3.90752 11.9052 4.07007 12.6445H4.76684C4.76186 12.7624 4.75871 12.8808 4.75871 12.9999C4.75871 13.1191 4.76181 13.2376 4.76684 13.3555ZM6.92687 7.4295C7.08713 7.25481 7.25491 7.08713 7.42955 6.92682L6.939 6.43627C7.10272 6.18028 7.19763 5.876 7.19763 5.54958C7.19763 4.63937 6.45978 3.90152 5.54958 3.90152C4.63937 3.90152 3.90152 4.63937 3.90152 5.54958C3.90152 6.45978 4.63937 7.19763 5.54958 7.19763C5.87605 7.19763 6.18028 7.10267 6.43632 6.93895L6.92687 7.4295Z" fill="#3698FF" fill-opacity="0.8"/>
<circle opacity="0.44" cx="13" cy="13" r="7" fill="#3698FF"/>
</g>
<defs>
<clipPath id="clip0_48_17456">
<rect width="26" height="26" fill="white"/>
</clipPath>
</defs>
</svg>
