<svg width="26" height="20" viewBox="0 0 26 20" fill="none" xmlns="http://www.w3.org/2000/svg">
<g style="mix-blend-mode:luminosity">
<rect x="2" y="3" width="5" height="13" fill="#3698FF"/>
<path fill-rule="evenodd" clip-rule="evenodd" d="M0 2.25503V17.0097C0 18.2567 1.00857 19.2647 2.25423 19.2647H23.2791C24.5233 19.2647 25.5333 18.2547 25.5333 17.0097V2.25503C25.5333 1.00798 24.5248 0 23.2791 0H2.25423C1.00998 0 0 1.00999 0 2.25503Z" fill="#A7D2FF"/>
<path d="M7 7.88545C6.99992 7.65428 7.09515 7.43224 7.26533 7.26682C7.35092 7.18362 7.45296 7.11724 7.5656 7.07147C7.67824 7.02569 7.79927 7.00143 7.9218 7.00006C8.04432 6.99869 8.16593 7.02024 8.27967 7.06348C8.39342 7.10672 8.49707 7.17081 8.58471 7.25207L12.5004 10.8812L16.415 7.25207C16.5026 7.17081 16.6063 7.10672 16.72 7.06348C16.8338 7.02024 16.9554 6.99869 17.0779 7.00006C17.2004 7.00143 17.3215 7.0257 17.4341 7.07147C17.5467 7.11724 17.6488 7.18362 17.7344 7.26682C17.82 7.34999 17.8875 7.44835 17.9331 7.55628C17.9787 7.66422 18.0014 7.77962 17.9999 7.89588C17.9985 8.01215 17.9729 8.12701 17.9247 8.2339C17.8765 8.34079 17.8065 8.43761 17.7188 8.51883L13.1523 12.7479C12.978 12.9095 12.744 13 12.5004 13C12.2567 13 12.0227 12.9095 11.8484 12.7479L7.28087 8.51883C7.19193 8.43636 7.12126 8.33783 7.07302 8.22906C7.02479 8.12029 6.99996 8.00346 7 7.88545Z" fill="#3698FF"/>
</g>
</svg>
