<svg width="23" height="24" viewBox="0 0 23 24" fill="none" xmlns="http://www.w3.org/2000/svg">
<path d="M11.5001 21.5837C16.7928 21.5837 21.0834 17.2931 21.0834 12.0003C21.0834 6.7076 16.7928 2.41699 11.5001 2.41699C6.20735 2.41699 1.91675 6.7076 1.91675 12.0003C1.91675 17.2931 6.20735 21.5837 11.5001 21.5837Z" stroke="#2B345F" stroke-width="1.5" stroke-linecap="round" stroke-linejoin="round"/>
<path d="M8.31823 11.9137L9.89947 12.3066L8.98907 15.9867C8.77824 16.8492 9.19989 17.1366 9.92822 16.6287L14.8924 13.1883C15.4962 12.7667 15.4099 12.2779 14.6911 12.0958L13.1099 11.7029L14.0203 8.0229C14.2312 7.1604 13.8095 6.87292 13.0811 7.38083L8.11699 10.8213C7.51324 11.2429 7.59948 11.7316 8.31823 11.9137Z" stroke="#2B345F" stroke-width="1.5" stroke-miterlimit="10" stroke-linecap="round" stroke-linejoin="round"/>
</svg>
