<svg width="261" height="184" viewBox="0 0 261 184" fill="none" xmlns="http://www.w3.org/2000/svg">
<path d="M219.192 81.3209C219.155 99.8171 212.201 117.631 199.697 131.26C187.192 144.889 170.042 153.347 151.617 154.972C133.192 156.597 114.826 151.271 100.129 140.041C85.4323 128.811 75.4678 112.489 72.1948 94.285C68.9217 76.0807 72.5768 57.3104 82.4415 41.6643C92.3062 26.0183 107.667 14.6283 125.504 9.73352C143.341 4.83878 162.363 6.7934 178.832 15.2131C195.301 23.6328 208.024 37.9085 214.501 55.2337C214.663 55.6687 214.82 56.1037 214.974 56.543V56.5471C215.657 58.478 216.259 60.4447 216.78 62.4474C218.386 68.6098 219.197 74.9526 219.192 81.3209Z" fill="white"/>
<path d="M136.449 31.0011C133.098 29.1886 129.376 28.1655 125.569 28.0097C121.762 27.8539 117.97 28.5697 114.481 30.1023C111.409 31.4391 108.175 33.8371 107.15 38.1674C111.295 35.7216 116.659 39.586 117.726 45.7851L117.477 45.8537C116.913 50.1475 118.171 54.8223 120.605 57.4847C120.786 56.2834 121.232 55.1374 121.912 54.1301C122.591 53.1228 123.486 52.2794 124.532 51.6613C126.32 50.4855 128.299 49.6314 129.664 47.6105C131.282 45.2146 131.693 41.713 132.336 38.5187C132.979 35.3244 134.199 31.8912 136.449 31.0011Z" fill="#A5B2FF" fill-opacity="0.49"/>
<path d="M113.095 67.5401C111.947 69.2638 110.414 70.3453 109.038 71.6919C107.45 73.1364 106.408 75.0841 106.088 77.2068C105.914 78.7068 106.183 80.2315 106.146 81.7481C106.109 83.2645 105.603 84.9716 104.572 85.3487C102.943 85.937 101.7 82.9124 100.026 82.701C98.6962 82.5353 97.4988 84.6277 97.8841 86.4426C98.2694 88.2574 100.08 89.0612 101.12 87.8762C102.061 89.4548 101.398 92.3181 99.9848 92.8028C99.8356 93.7972 99.6865 94.7875 99.5414 95.7819C95.9698 93.2834 92.3608 90.7435 89.3237 87.0848C85.9459 83.0502 83.8508 78.0982 83.3074 72.8645C82.9137 68.6588 83.498 63.8483 81.5672 60.6123C80.0216 58.0226 77.3698 57.4508 74.9832 57.6124C74.5481 57.6414 74.109 57.6911 73.6738 57.7449C75.0813 53.5176 76.8689 49.4265 79.0147 45.5217C79.5003 45.3133 79.9515 45.0325 80.353 44.6889C82.5739 42.8036 83.5601 38.9874 85.3624 36.3481C85.4785 36.1782 85.5987 36.0124 85.7229 35.8509C87.5668 33.4435 90.0363 32.2046 92.4229 31.0527C97.7058 28.4879 103.142 25.89 108.719 26.2463L107.132 26.3996C105.28 31.5872 103.427 36.7749 101.572 41.9625C101.29 42.758 101.005 43.5549 100.718 44.3533C99.6657 47.3034 98.5801 50.4442 98.7417 53.7465C98.837 55.7022 99.5165 57.7905 100.809 58.4618C102.015 59.0833 103.333 58.3208 104.497 57.5667C104.99 57.2518 105.479 56.9369 105.972 56.6179C107.741 55.4784 109.701 54.3099 111.57 55.0723C113.281 55.7684 114.545 58.0929 114.785 60.5997C115.006 63.0365 114.411 65.4776 113.095 67.5401Z" fill="#A5B2FF" fill-opacity="0.49"/>
<path d="M123.775 102.957C118.607 99.7751 113.44 96.5935 108.273 93.4119L108.36 93.186C105.148 94.4097 103.814 100.121 104.345 104.791C104.876 109.461 106.676 113.636 107.586 118.187C108.812 124.414 108.349 130.856 106.245 136.844C113.04 129.22 119.053 120.934 124.195 112.111C124.913 110.999 125.46 109.785 125.818 108.51C126.198 107.152 126.062 105.702 125.439 104.437C125.016 103.813 124.444 103.304 123.775 102.957Z" fill="#A5B2FF" fill-opacity="0.49"/>
<path d="M103.381 45.0748C102.774 46.3776 102.681 47.8613 103.119 49.23C103.629 50.3327 104.554 51.1893 105.692 51.6133L108.547 53.0286C109.497 53.4994 110.521 53.9749 111.489 53.5875C112.657 53.1203 113.467 51.2893 113.258 49.5896C113.035 47.7807 111.895 46.5365 110.84 45.477C109.364 43.9943 107.889 42.5115 106.413 41.0288L105.581 42.0474C104.682 42.9248 103.938 43.9484 103.381 45.0748Z" fill="#A5B2FF" fill-opacity="0.49"/>
<path d="M203.886 64.4114C205.17 64.7138 206.455 65.0163 207.739 65.3187C207.515 69.657 205.365 73.672 202.481 75.1263C201.279 75.7313 199.941 75.955 198.947 77.0862C198.048 78.1138 197.592 79.7131 197.173 81.2421C196.44 83.9105 195.707 86.5788 194.973 89.2472C194.186 92.1228 193.175 95.3174 191.128 96.3533C189.371 97.2441 187.362 96.1544 186.011 94.3271C184.66 92.4999 183.836 90.0428 183.036 87.6479C183.086 90.2583 181.872 92.819 180.152 93.7263C178.428 94.6337 176.332 93.8133 175.18 91.7872C174.351 90.3329 174.007 88.4144 173.195 86.9394C172.383 85.4643 170.68 84.619 169.793 86.0029C169.209 86.9228 169.284 88.3316 168.994 89.5C168.848 90.2758 168.463 90.9867 167.895 91.534C167.326 92.0813 166.601 92.4378 165.82 92.5538C165.102 92.5373 164.395 92.3749 163.741 92.0764C163.088 91.778 162.503 91.3497 162.02 90.8176C159.483 88.2221 157.831 84.8909 157.301 81.3001C156.941 79.5785 156.987 77.797 157.433 76.0959C157.943 74.4842 159.174 73.2412 160.396 73.5477C161.2 71.8488 159.613 69.5949 158.183 69.7937C156.75 69.9926 155.627 71.5299 154.45 72.7107C153.277 73.8916 151.637 74.7493 150.456 73.5767C150.482 74.0056 150.337 74.4274 150.053 74.7494C149.768 75.0713 149.367 75.267 148.938 75.2934C148.896 75.2961 148.853 75.297 148.811 75.2963C148.026 75.0709 147.296 74.6842 146.669 74.1609C143.963 72.4745 140.528 73.5933 138.605 76.7837C139.807 71.6707 141.568 65.8035 145.26 64.6019C146.768 64.1088 148.413 64.5149 149.838 63.6613C152.362 62.149 152.871 56.4351 150.692 54.0776C150.97 56.3067 150.916 58.9088 149.739 60.4336C148.562 61.9585 146.093 60.9639 146.242 58.71C146.208 59.027 146.075 59.3253 145.862 59.5621C145.649 59.7989 145.366 59.9621 145.054 60.0284C144.742 60.0946 144.417 60.0604 144.126 59.9308C143.835 59.8011 143.592 59.5826 143.433 59.3066C142.65 58.1133 142.716 56.1618 143.271 54.7364C143.843 53.4454 144.664 52.2797 145.687 51.3056C147.655 49.1966 149.652 47.0627 151.931 45.7368C154.214 44.4109 156.849 43.9634 159.136 45.281C160.342 45.9771 161.403 47.1373 162.633 47.7505C162.923 47.9299 163.244 48.0507 163.58 48.1058C163.916 48.1609 164.259 48.1493 164.591 48.0717C164.922 47.9941 165.235 47.852 165.511 47.6535C165.788 47.455 166.022 47.204 166.202 46.9149L166.202 46.9148C166.216 46.8925 166.229 46.87 166.242 46.8472C167.158 45.2395 166.727 42.8529 167.067 40.8434C167.676 37.2924 171.227 35.6309 173.195 37.9761C171.724 37.599 170.204 39.3393 170.021 41.4483C169.835 43.5573 170.9 45.6871 172.325 46.3252C174.72 47.3858 177.065 44.7174 178.876 42.248C180.765 39.6625 182.657 37.0783 184.552 34.4956C184.855 34.0559 185.195 33.6427 185.568 33.2608C186.161 32.6823 186.952 32.3511 187.781 32.3342C188.609 32.3173 189.413 32.616 190.03 33.1697C191.944 34.7318 192.843 37.9347 194.414 40.139C196.693 43.3419 200.103 44.1209 203.277 44.7424C205.643 45.2023 208.01 45.665 210.379 46.1304C211.958 49.0679 213.335 52.1093 214.501 55.2337C210.158 57.2143 206.473 60.3996 203.886 64.4114Z" fill="#A5B2FF" fill-opacity="0.49"/>
<path d="M211.535 114.266C209.76 117.87 207.695 121.325 205.361 124.595C203.87 123.957 202.266 125.097 200.87 126.166C199.411 127.285 197.659 128.374 196.163 127.355C194.634 126.311 194.141 123.39 194.626 121.073C195.183 118.937 196.157 116.932 197.493 115.173C198.736 113.317 200.066 111.39 201.794 110.669C203.526 109.948 205.751 110.967 206.256 113.429L207.483 113.387C206.795 112.443 207.156 110.487 208.08 110.143C209.144 109.741 210.068 111.204 210.698 112.496C210.98 113.081 211.266 113.669 211.535 114.266Z" fill="#A5B2FF" fill-opacity="0.49"/>
<path d="M164.562 96.7639C161.925 96.9297 159.837 93.6844 158.45 90.4917C157.062 87.2991 155.796 83.648 153.417 82.023C152.058 81.0944 150.509 80.967 149.034 80.517C148.198 80.3058 147.424 79.8984 146.777 79.3285C146.13 78.7586 145.628 78.0426 145.312 77.24L143.64 76.5645C141.301 77.7337 139.159 79.2612 137.291 81.0916C135.157 83.3588 133.827 86.2651 133.508 89.3624C133.188 92.7096 134.368 96.442 136.572 97.6994C138.314 98.6929 140.341 98.0667 142.105 98.9762C144.309 100.113 145.618 103.414 146.113 106.673C146.609 109.933 146.483 113.32 146.838 116.616C147.192 119.913 148.169 123.343 150.19 125.032C152.719 127.146 156.431 125.39 157.566 121.541C158.122 119.654 158.103 117.524 158.52 115.565C159.253 112.114 161.231 109.554 162.801 106.723C164.37 103.893 165.605 100.049 164.562 96.7639Z" fill="#A5B2FF" fill-opacity="0.49"/>
<path d="M138.513 62.8574C138.759 63.0837 138.988 63.3272 139.199 63.5862C139.418 63.9631 139.53 64.3926 139.522 64.8283C139.515 65.264 139.389 65.6894 139.157 66.0586C139.475 66.0406 139.785 65.9568 140.069 65.8127C140.352 65.6686 140.603 65.4673 140.804 65.2214C141.286 64.6734 141.709 64.0772 142.067 63.4422C142.236 63.2248 142.357 62.9739 142.421 62.7064C142.485 62.4388 142.491 62.1606 142.44 61.8903C142.315 61.5349 142.021 61.3833 141.814 61.116C141.528 60.5934 141.333 60.026 141.237 59.4379C141.122 58.8868 140.856 58.3785 140.469 57.9702C140.081 57.5619 139.588 57.2697 139.043 57.1265L139.175 57.1517C138.951 57.2852 138.773 57.4856 138.668 57.725C138.563 57.9644 138.535 58.2307 138.588 58.4866C138.669 59.0037 139.001 59.4329 138.968 59.9603C138.92 60.7186 138.162 61.0744 138.116 61.8328C138.108 62.2133 138.251 62.5814 138.513 62.8574Z" fill="#A5B2FF" fill-opacity="0.49"/>
<path d="M133.996 49.9709L134.008 49.9686C134.089 49.8947 134.164 49.8146 134.233 49.729L133.996 49.9709Z" fill="#A5B2FF" fill-opacity="0.49"/>
<path d="M134.786 53.5304C135.103 53.2526 135.337 52.8931 135.463 52.4912C135.589 52.0893 135.603 51.6604 135.502 51.2514C135.31 50.3892 134.633 49.8095 134.007 49.9687C133.826 50.1526 133.601 50.2873 133.353 50.3603C133.105 50.4332 132.843 50.442 132.591 50.3857C132.204 50.2862 131.78 50.0299 131.445 50.3212C131.253 50.5387 131.119 50.8007 131.054 51.0834C130.93 51.4644 130.806 51.8452 130.682 52.2261C130.623 52.3624 130.608 52.5136 130.638 52.6591C130.662 52.7173 130.7 52.7685 130.75 52.8077C130.799 52.8469 130.857 52.8727 130.919 52.8827L133.153 53.5411C133.409 53.6592 133.688 53.7195 133.971 53.7177C134.253 53.7158 134.531 53.6519 134.786 53.5304Z" fill="#A5B2FF" fill-opacity="0.49"/>
<path d="M190.989 102.672C190.645 102.108 190.301 101.545 189.956 100.981C189.618 100.329 189.156 99.7486 188.596 99.2731C188.351 99.0678 188.034 98.9683 187.716 98.9964C187.397 99.0245 187.103 99.178 186.898 99.423L186.898 99.4231L186.88 99.445L186.922 99.7668C187.843 100.755 188.471 101.98 188.735 103.305C188.813 103.881 188.786 104.477 188.855 105.055C188.862 105.323 188.922 105.587 189.032 105.832C189.141 106.077 189.298 106.298 189.493 106.482C190.035 106.844 190.671 106.311 191.056 105.659C191.401 105.124 191.556 104.489 191.496 103.855C191.41 103.43 191.237 103.027 190.989 102.672Z" fill="#A5B2FF" fill-opacity="0.49"/>
<path d="M196.387 103.405C196.453 102.877 196.41 102.342 196.261 101.832C196.236 101.141 196.419 100.459 196.786 99.8741C197.151 99.3219 197.427 98.7162 197.605 98.079C197.68 97.7886 197.667 97.4824 197.566 97.1999C197.452 96.944 197.176 96.8273 197.018 97.0299L197.357 97.248C196.899 97.1664 196.429 97.1892 195.982 97.3146C195.727 97.4123 195.499 97.57 195.318 97.7744C195.136 97.9788 195.007 98.2238 194.941 98.4888C194.885 98.902 194.793 99.3097 194.667 99.7072C194.465 100.122 194.074 100.261 193.828 100.625C193.661 100.948 193.576 101.308 193.582 101.672C193.588 102.036 193.685 102.392 193.863 102.71C194.172 103.229 194.662 103.615 195.239 103.792C195.653 103.941 196.198 103.949 196.387 103.405Z" fill="#A5B2FF" fill-opacity="0.49"/>
<path d="M206.001 106.305C206.151 106.695 206.351 107.062 206.597 107.399C207.057 107.862 207.683 107.577 208.241 107.465C208.748 107.385 209.267 107.443 209.743 107.634C210.219 107.825 210.634 108.141 210.945 108.549C210.729 107.47 210.256 106.457 209.567 105.598C208.878 104.738 207.993 104.057 206.987 103.61C205.678 103.158 204.299 102.942 202.915 102.974L202.679 103.034C203.281 104.788 205.173 104.749 206.001 106.305Z" fill="#A5B2FF" fill-opacity="0.49"/>
<path d="M165.283 109.893L165.287 109.901L165.355 109.768L165.283 109.893Z" fill="#A5B2FF" fill-opacity="0.49"/>
<path d="M163.826 112.716C163.508 113.293 163.234 113.894 163.007 114.513C162.707 115.516 162.509 116.546 162.414 117.589C162.34 118.181 162.317 118.938 162.689 119.227C162.795 119.298 162.924 119.327 163.051 119.31C163.178 119.293 163.294 119.23 163.378 119.134C163.584 118.915 163.753 118.664 163.877 118.391C164.607 117.134 165.174 115.789 165.564 114.389C165.971 112.903 165.873 111.325 165.288 109.9C164.8 110.839 164.313 111.777 163.826 112.716Z" fill="#A5B2FF" fill-opacity="0.49"/>
<path d="M149.755 37.5053C149.987 37.7317 150.28 37.8854 150.598 37.9475C150.916 38.0096 151.245 37.9772 151.545 37.8545C152.166 37.5831 152.735 37.2069 153.228 36.7424C153.637 36.4401 153.983 36.0621 154.249 35.6289C154.395 35.3701 154.489 35.0848 154.525 34.7896C154.561 34.4944 154.538 34.195 154.458 33.9087C154.344 33.6343 154.162 33.3936 153.929 33.2092C153.696 33.0249 153.419 32.903 153.126 32.8551C152.3 32.6101 151.473 32.365 150.647 32.12L151.245 31.5813C150.63 31.2512 149.949 31.8638 149.565 32.6222C149.319 33.1174 149.147 33.6464 149.055 34.1919C148.924 34.7619 148.919 35.3536 149.04 35.9257C149.161 36.4979 149.405 37.0369 149.755 37.5053Z" fill="#A5B2FF" fill-opacity="0.49"/>
<path d="M164.344 32.6081C164.577 32.8648 164.899 33.0233 165.244 33.0514C165.59 33.0795 165.933 32.9751 166.204 32.7594C166.438 32.584 166.632 32.3614 166.774 32.106C166.915 31.8506 167.002 31.5682 167.027 31.2772C167.086 30.6272 166.764 29.9048 166.305 29.8487L166.41 29.2401C165.526 29.0804 164.438 29.0484 163.964 30.1222C163.804 30.5336 163.755 30.9796 163.822 31.4158C163.888 31.8521 164.068 32.2632 164.344 32.6081Z" fill="#A5B2FF"/>
<circle cx="132.095" cy="30.0163" r="11.6448" fill="#EAECF6" stroke="#79A6FF"/>
<mask id="mask0_299_407" style="mask-type:alpha" maskUnits="userSpaceOnUse" x="119" y="17" width="26" height="26">
<circle cx="132.095" cy="30.0163" r="12.1448" fill="#D0D6FD"/>
</mask>
<g mask="url(#mask0_299_407)">
<path fill-rule="evenodd" clip-rule="evenodd" d="M141.115 39.4595C141.115 41.2266 139.669 42.6724 137.902 42.6724H126.23C124.463 42.6724 123.018 41.2266 123.018 39.4595C123.018 30.4137 141.115 30.4137 141.115 39.4595H141.115ZM132.067 22.3179C134.504 22.3179 136.479 24.1538 136.479 26.4186C136.479 28.6832 134.504 31.6715 132.067 31.6715C129.63 31.6715 127.654 28.6833 127.654 26.4186C127.654 24.1539 129.63 22.3179 132.067 22.3179Z" fill="#79A6FF"/>
</g>
<circle cx="185.3" cy="73.9685" r="11.6448" fill="#EAECF6" stroke="#79A6FF"/>
<mask id="mask1_299_407" style="mask-type:alpha" maskUnits="userSpaceOnUse" x="173" y="61" width="25" height="26">
<circle cx="185.3" cy="73.9685" r="12.1448" fill="#D0D6FD"/>
</mask>
<g mask="url(#mask1_299_407)">
<path fill-rule="evenodd" clip-rule="evenodd" d="M194.321 83.4116C194.321 85.1787 192.876 86.6245 191.108 86.6245H179.437C177.669 86.6245 176.224 85.1787 176.224 83.4116C176.224 74.3658 194.321 74.3658 194.321 83.4116H194.321ZM185.273 66.27C187.71 66.27 189.686 68.106 189.686 70.3707C189.686 72.6353 187.71 75.6236 185.273 75.6236C182.836 75.6236 180.86 72.6354 180.86 70.3707C180.86 68.1061 182.836 66.27 185.273 66.27Z" fill="#79A6FF"/>
</g>
<circle cx="163.323" cy="130.644" r="11.6448" fill="#EAECF6" stroke="#79A6FF"/>
<mask id="mask2_299_407" style="mask-type:alpha" maskUnits="userSpaceOnUse" x="151" y="118" width="25" height="25">
<circle cx="163.323" cy="130.644" r="12.1448" fill="#D0D6FD"/>
</mask>
<g mask="url(#mask2_299_407)">
<path fill-rule="evenodd" clip-rule="evenodd" d="M172.344 140.087C172.344 141.855 170.898 143.3 169.131 143.3H157.459C155.692 143.3 154.246 141.855 154.246 140.087C154.246 131.042 172.344 131.042 172.344 140.087H172.344ZM163.295 122.946C165.732 122.946 167.708 124.782 167.708 127.046C167.708 129.311 165.733 132.299 163.295 132.299C160.858 132.299 158.883 129.311 158.883 127.046C158.883 124.782 160.858 122.946 163.295 122.946Z" fill="#79A6FF"/>
</g>
<circle cx="102.022" cy="86.6921" r="11.6448" fill="#EAECF6" stroke="#79A6FF"/>
<mask id="mask3_299_407" style="mask-type:alpha" maskUnits="userSpaceOnUse" x="89" y="74" width="26" height="25">
<circle cx="102.022" cy="86.6921" r="12.1448" fill="#D0D6FD"/>
</mask>
<g mask="url(#mask3_299_407)">
<path fill-rule="evenodd" clip-rule="evenodd" d="M111.043 96.1353C111.043 97.9024 109.597 99.3482 107.83 99.3482H96.1582C94.3911 99.3482 92.9453 97.9024 92.9453 96.1353C92.9453 87.0894 111.043 87.0894 111.043 96.1353H111.043ZM101.995 78.9937C104.432 78.9937 106.407 80.8296 106.407 83.0944C106.407 85.359 104.432 88.3472 101.995 88.3472C99.5576 88.3472 97.582 85.3591 97.582 83.0944C97.582 80.8297 99.5574 78.9937 101.995 78.9937Z" fill="#79A6FF"/>
</g>
<path d="M125.732 39.8477L105.491 76.2819" stroke="#79A6FF"/>
<path d="M140.769 37.5347L175.469 67.0291M181.252 84.3787L167.95 119.656M110.118 94.7885L153.492 124.283" stroke="#79A6FF"/>
<path d="M139.953 59.5107H49.6681C47.4529 59.5127 45.3291 60.3936 43.7627 61.96C42.1963 63.5263 41.3155 65.6502 41.3135 67.8654V93.369C41.3155 95.5842 42.1963 97.7081 43.7627 99.2744C45.3291 100.841 47.4529 101.722 49.6681 101.724H139.953C142.168 101.722 144.292 100.841 145.858 99.2744C147.424 97.7081 148.305 95.5842 148.307 93.369V67.8654C148.305 65.6502 147.424 63.5263 145.858 61.96C144.292 60.3936 142.168 59.5127 139.953 59.5107Z" fill="#BCC3F1" fill-opacity="0.64"/>
<path d="M137.639 57.1973H47.3546C45.1395 57.1993 43.0156 58.0801 41.4492 59.6465C39.8829 61.2129 39.002 63.3367 39 65.5519V91.0556C39.002 93.2707 39.8829 95.3946 41.4492 96.961C43.0156 98.5273 45.1395 99.4082 47.3546 99.4102H137.639C139.854 99.4082 141.978 98.5273 143.545 96.961C145.111 95.3946 145.992 93.2707 145.994 91.0556V65.5519C145.992 63.3367 145.111 61.2129 143.545 59.6465C141.978 58.0801 139.854 57.1993 137.639 57.1973Z" fill="#FDFDFF"/>
<path d="M137.639 57.1973H47.3546C45.1395 57.1993 43.0156 58.0801 41.4492 59.6465C39.8829 61.2129 39.002 63.3367 39 65.5519V91.0556C39.002 93.2707 39.8829 95.3946 41.4492 96.961C43.0156 98.5273 45.1395 99.4082 47.3546 99.4102H137.639C139.854 99.4082 141.978 98.5273 143.545 96.961C145.111 95.3946 145.992 93.2707 145.994 91.0556V65.5519C145.992 63.3367 145.111 61.2129 143.545 59.6465C141.978 58.0801 139.854 57.1993 137.639 57.1973ZM145.114 91.0556C145.112 93.0372 144.323 94.937 142.922 96.3382C141.521 97.7395 139.621 98.528 137.639 98.5308H47.3546C45.373 98.528 43.4732 97.7395 42.072 96.3382C40.6707 94.937 39.8822 93.0372 39.8794 91.0556V65.5519C39.8822 63.5702 40.6707 61.6705 42.0719 60.2692C43.4732 58.868 45.3729 58.0795 47.3546 58.0767H137.639C139.621 58.0795 141.521 58.868 142.922 60.2692C144.323 61.6705 145.112 63.5702 145.114 65.5519V91.0556Z" fill="#D0D6FD"/>
<path d="M62.5356 92.8449C59.6596 92.8449 56.8482 91.9921 54.4568 90.3943C52.0655 88.7965 50.2017 86.5254 49.1011 83.8684C48.0005 81.2113 47.7125 78.2875 48.2735 75.4668C48.8346 72.646 50.2195 70.055 52.2532 68.0213C54.2868 65.9877 56.8778 64.6027 59.6986 64.0416C62.5193 63.4805 65.4431 63.7685 68.1002 64.8691C70.7573 65.9697 73.0283 67.8335 74.6262 70.2248C76.224 72.6161 77.0768 75.4275 77.0768 78.3036C77.0725 82.1588 75.539 85.8549 72.813 88.581C70.0869 91.307 66.3908 92.8405 62.5356 92.8449Z" fill="#79A6FF"/>
<path d="M131.711 90.1766H90.8283C89.8953 90.1766 89.0006 89.806 88.3409 89.1463C87.6812 88.4866 87.3105 87.5918 87.3105 86.6589C87.3105 85.7259 87.6812 84.8312 88.3409 84.1714C89.0006 83.5117 89.8953 83.1411 90.8283 83.1411H131.711C132.644 83.1411 133.539 83.5117 134.199 84.1714C134.858 84.8312 135.229 85.7259 135.229 86.6589C135.229 87.5918 134.858 88.4866 134.199 89.1463C133.539 89.806 132.644 90.1766 131.711 90.1766Z" fill="#E6E6E6"/>
<path d="M104.277 75.2259H90.8283C90.3663 75.2259 89.9089 75.1349 89.4821 74.9582C89.0553 74.7814 88.6675 74.5223 88.3409 74.1956C88.0142 73.8689 87.7551 73.4812 87.5783 73.0544C87.4015 72.6276 87.3105 72.1701 87.3105 71.7082C87.3105 71.2462 87.4015 70.7888 87.5783 70.362C87.7551 69.9352 88.0142 69.5474 88.3409 69.2208C88.6675 68.8941 89.0553 68.635 89.4821 68.4582C89.9089 68.2814 90.3663 68.1904 90.8283 68.1904H104.277C105.21 68.1904 106.104 68.5611 106.764 69.2208C107.424 69.8805 107.794 70.7752 107.794 71.7082C107.794 72.6411 107.424 73.5359 106.764 74.1956C106.104 74.8553 105.21 75.2259 104.277 75.2259Z" fill="#E6E6E6"/>
<path d="M61.7941 83.4186C61.4333 83.4192 61.0821 83.3025 60.7934 83.0861L60.7755 83.0727L57.0066 80.1895C56.8317 80.0559 56.6848 79.889 56.5744 79.6985C56.464 79.508 56.3922 79.2976 56.3632 79.0794C56.3342 78.8611 56.3485 78.6393 56.4053 78.4266C56.4622 78.2138 56.5603 78.0144 56.6943 77.8397C56.8283 77.6649 56.9954 77.5183 57.186 77.4082C57.3767 77.2981 57.5872 77.2267 57.8055 77.1981C58.0238 77.1694 58.2456 77.1841 58.4583 77.2412C58.6709 77.2984 58.8702 77.3969 59.0447 77.5311L61.4859 79.4032L67.2546 71.8773C67.3883 71.7028 67.5552 71.5564 67.7455 71.4463C67.9359 71.3363 68.146 71.2649 68.364 71.2361C68.582 71.2073 68.8035 71.2217 69.0158 71.2785C69.2282 71.3354 69.4274 71.4335 69.6018 71.5672L69.6023 71.5676L69.5665 71.6173L69.6033 71.5676C69.9553 71.8381 70.1856 72.2373 70.2437 72.6774C70.3017 73.1176 70.1828 73.5628 69.913 73.9153L63.1277 82.7635C62.9708 82.9674 62.7689 83.1323 62.5379 83.2456C62.3069 83.3589 62.0529 83.4174 61.7956 83.4167L61.7941 83.4186Z" fill="white"/>
<path d="M35.015 145.477C29.738 145.477 26.3072 144.166 24.7888 141.559C21.7944 136.419 26.8094 127.399 39.6943 114.751L40.7767 115.853C28.808 127.603 23.604 136.455 26.1236 140.781C27.718 143.517 32.463 144.498 39.8485 143.616C47.1802 142.741 56.8964 140.132 68.7274 135.862C93.0839 127.072 123.642 112.245 154.772 94.1113C185.9 75.9785 213.872 56.7115 233.534 39.8602C237.311 36.6229 240.738 33.5086 243.721 30.6045C247.637 26.885 251.249 22.8588 254.524 18.5643C258.934 12.576 260.423 7.96432 258.829 5.2277C256.166 0.657021 244.981 1.0868 227.331 6.43961L226.883 4.9609C245.819 -0.781183 257.016 -0.95344 260.164 4.45014C262.12 7.80742 260.641 12.8645 255.769 19.4807C252.444 23.8433 248.775 27.9333 244.799 31.7115C241.793 34.6385 238.341 37.7747 234.539 41.0334C214.809 57.9438 186.756 77.2682 155.549 95.4462C124.341 113.625 93.6935 128.495 69.252 137.316C57.3109 141.625 47.4797 144.261 40.0316 145.15C38.3673 145.358 36.6922 145.467 35.015 145.477Z" fill="white"/>
<path d="M42.567 108.344C42.398 108.387 42.2327 108.444 42.0727 108.513L28.9357 100.038L29.1169 96.2449L23.4275 95.2231L22.4541 101.908C22.3754 102.448 22.4741 102.999 22.7352 103.478C22.9964 103.957 23.4059 104.339 23.9023 104.565L40.082 111.951C40.1625 112.618 40.4442 113.245 40.8896 113.748C41.3351 114.251 41.9231 114.607 42.5756 114.768C43.228 114.928 43.9139 114.887 44.5421 114.648C45.1703 114.41 45.7109 113.985 46.0921 113.432C46.4733 112.879 46.6771 112.222 46.6762 111.55C46.6753 110.878 46.4698 110.223 46.0871 109.67C45.7045 109.118 45.1627 108.695 44.5339 108.458C43.9051 108.221 43.219 108.182 42.567 108.344H42.567Z" fill="#FFB8B8"/>
<path d="M28.3997 99.8048L21.3544 98.5042C21.1539 98.4672 20.9638 98.3874 20.7969 98.2703C20.6301 98.1532 20.4904 98.0015 20.3875 97.8255C20.2846 97.6496 20.2208 97.4535 20.2004 97.2507C20.1801 97.0479 20.2037 96.843 20.2697 96.6501L22.5818 89.892C22.7768 88.8673 23.3702 87.9618 24.2319 87.374C25.0936 86.7862 26.1532 86.5642 27.1784 86.7566C28.2036 86.9489 29.1106 87.54 29.7006 88.4002C30.2906 89.2604 30.5154 90.3194 30.3257 91.3451L30.0749 98.4603C30.0676 98.664 30.0166 98.8638 29.9251 99.046C29.8337 99.2282 29.7041 99.3885 29.5452 99.5161C29.3862 99.6437 29.2016 99.7356 29.0039 99.7854C28.8063 99.8352 28.6002 99.8418 28.3997 99.8048V99.8048Z" fill="#3F3D56"/>
<path d="M52.8977 81.4743C52.859 81.6444 52.8338 81.8172 52.8223 81.9913L39.2808 89.8033L35.9893 87.9085L32.4805 92.5021L37.9813 96.4228C38.4257 96.7396 38.9609 96.9036 39.5065 96.8903C40.052 96.877 40.5785 96.6871 41.007 96.3491L54.9706 85.3331C55.6008 85.5664 56.287 85.6023 56.9381 85.436C57.5891 85.2697 58.1742 84.9092 58.6153 84.4023C59.0565 83.8954 59.3329 83.2663 59.4077 82.5985C59.4826 81.9307 59.3523 81.256 59.0343 80.664C58.7164 80.0721 58.2257 79.5909 57.6276 79.2846C57.0295 78.9784 56.3523 78.8614 55.6861 78.9494C55.02 79.0373 54.3964 79.326 53.8983 79.7771C53.4001 80.2281 53.0512 80.8201 52.8977 81.4743Z" fill="#FFB8B8"/>
<path d="M38.8288 90.1733L34.4523 95.8456C34.3278 96.007 34.1699 96.1396 33.9895 96.2345C33.8091 96.3294 33.6103 96.3843 33.4068 96.3954C33.2032 96.4066 32.9997 96.3737 32.81 96.2991C32.6203 96.2245 32.4489 96.1099 32.3075 95.9631L27.3529 90.8181C26.5309 90.1763 25.997 89.2347 25.8681 88.1998C25.7392 87.1649 26.026 86.1211 26.6655 85.2973C27.305 84.4735 28.245 83.9368 29.2796 83.805C30.3141 83.6732 31.3587 83.957 32.1843 84.5942L38.3984 88.0689C38.5763 88.1684 38.7307 88.3051 38.851 88.4697C38.9713 88.6343 39.0547 88.8228 39.0955 89.0226C39.1364 89.2223 39.1337 89.4284 39.0877 89.627C39.0417 89.8256 38.9534 90.0119 38.8289 90.1733H38.8288Z" fill="#3F3D56"/>
<path d="M20.9064 76.6303C25.1824 76.6303 28.6488 73.1639 28.6488 68.8879C28.6488 64.6119 25.1824 61.1455 20.9064 61.1455C16.6304 61.1455 13.1641 64.6119 13.1641 68.8879C13.1641 73.1639 16.6304 76.6303 20.9064 76.6303Z" fill="#FFB8B8"/>
<path d="M28.2145 179.745H32.0792L33.9176 164.838L28.2139 164.838L28.2145 179.745Z" fill="#FFB8B8"/>
<path d="M27.2285 178.483L34.8394 178.482H34.8397C35.4766 178.482 36.1073 178.608 36.6958 178.852C37.2843 179.095 37.819 179.453 38.2694 179.903C38.7198 180.353 39.077 180.888 39.3208 181.477C39.5645 182.065 39.69 182.696 39.69 183.333V183.49L27.2288 183.491L27.2285 178.483Z" fill="#2F2E41"/>
<path d="M14.9752 179.745H18.84L20.6784 164.838L14.9746 164.838L14.9752 179.745Z" fill="#FFB8B8"/>
<path d="M13.9893 178.483L21.6001 178.482H21.6004C22.2374 178.482 22.8681 178.608 23.4566 178.852C24.045 179.095 24.5797 179.453 25.0301 179.903C25.4805 180.353 25.8378 180.888 26.0815 181.477C26.3253 182.065 26.4507 182.696 26.4507 183.333V183.49L13.9895 183.491L13.9893 178.483Z" fill="#2F2E41"/>
<path d="M27.0552 174.088L23.1132 143.588C23.1111 143.547 23.0932 143.509 23.0634 143.482C23.0336 143.454 22.9942 143.439 22.9536 143.441C22.9333 143.44 22.9131 143.443 22.8942 143.451C22.8752 143.458 22.858 143.469 22.8435 143.483C22.829 143.497 22.8175 143.514 22.8097 143.533C22.802 143.552 22.7981 143.572 22.7984 143.592L21.6655 173.649C21.6528 174.017 21.4978 174.364 21.2332 174.619C20.9686 174.874 20.6153 175.016 20.2479 175.015H15.5669C15.1959 175.017 14.8391 174.873 14.5737 174.614C14.3083 174.355 14.1556 174.001 14.1488 173.63L12.9336 123.551L33.8826 123.761L34.4055 174.001C34.4008 174.2 34.3541 174.397 34.2684 174.577C34.1827 174.757 34.0598 174.918 33.9079 175.047C33.7593 175.175 33.5854 175.271 33.3976 175.327C33.2097 175.384 33.0121 175.4 32.8175 175.375L28.278 175.388C27.9562 175.344 27.6592 175.19 27.4367 174.954C27.2142 174.717 27.0796 174.411 27.0552 174.088Z" fill="#2F2E41"/>
<path d="M12.6227 124.921C12.3884 124.831 12.182 124.681 12.0247 124.485C11.8675 124.29 11.7649 124.056 11.7275 123.808L11.5184 96.2852C10.5926 90.1573 9.49751 84.1525 14.8553 81.0476L15.3274 79.6312C15.3789 79.4782 15.4759 79.3445 15.6055 79.2482C15.7352 79.1519 15.8911 79.0976 16.0525 79.0925L26.2164 78.8022C26.3746 78.7968 26.5307 78.8395 26.664 78.9247C26.7974 79.0099 26.9017 79.1336 26.9632 79.2794L27.7192 81.0436L27.9877 81.1966C30.5411 82.6522 32.6088 84.8283 33.9319 87.4529C35.255 90.0775 35.7749 93.0339 35.4266 95.9524L34.8454 100.859L34.4326 123.788C34.4273 124.04 34.3556 124.286 34.2249 124.501C34.0941 124.716 33.909 124.893 33.688 125.013C30.7354 126.63 27.4642 127.183 24.369 127.183C19.1683 127.183 14.4664 125.621 12.6227 124.921Z" fill="#3F3D56"/>
<path d="M20.6539 76.9169C19.4886 76.9421 18.3312 76.7204 17.2578 76.2664C16.1843 75.8124 15.219 75.1364 14.4254 74.2827C13.6319 73.4291 13.0279 72.4172 12.6532 71.3135C12.2786 70.2099 12.1417 69.0394 12.2517 67.8791C12.3616 66.7187 12.7158 65.5948 13.2911 64.5811C13.8664 63.5674 14.6496 62.687 15.5894 61.9976C16.5292 61.3082 17.6042 60.8255 18.7438 60.5811C19.8835 60.3368 21.0619 60.3364 22.2017 60.58C23.9043 59.5462 25.8839 58.8506 27.8679 59.0275C29.8519 59.2044 31.8141 60.3823 32.556 62.2309C33.2979 64.0794 32.5009 66.5162 30.6561 67.2674C29.4734 67.749 28.1378 67.5155 26.8757 67.3213C25.6135 67.127 24.2366 67.0003 23.1382 67.6515C22.0397 68.3028 21.5459 70.049 22.5297 70.8632C23.0512 71.3119 23.4236 71.9089 23.5973 72.5745C23.771 73.2402 23.7377 73.943 23.5019 74.5893C23.0075 75.868 21.658 76.8952 20.6539 76.9169Z" fill="#2F2E41"/>
<path d="M49.4911 183.599H0.31523C0.231626 183.599 0.151446 183.566 0.0923286 183.506C0.0332114 183.447 0 183.367 0 183.283C0 183.2 0.0332114 183.12 0.0923286 183.061C0.151446 183.001 0.231626 182.968 0.31523 182.968H49.4911C49.5747 182.968 49.6549 183.001 49.714 183.061C49.7732 183.12 49.8064 183.2 49.8064 183.283C49.8064 183.367 49.7732 183.447 49.714 183.506C49.6549 183.566 49.5747 183.599 49.4911 183.599Z" fill="#CCCCCC"/>
</svg>
