<svg width="205" height="134" viewBox="0 0 205 134" fill="none" xmlns="http://www.w3.org/2000/svg">
<path d="M168.802 69.8566C168.771 85.8479 162.759 101.249 151.948 113.032C141.137 124.815 126.309 132.128 110.379 133.533C94.4498 134.938 78.571 130.333 65.8644 120.624C53.1579 110.915 44.5429 96.8039 41.7131 81.065C38.8834 65.326 42.0435 49.0978 50.5722 35.5706C59.1009 22.0435 72.3813 12.196 87.8026 7.9642C103.224 3.73235 119.67 5.42226 133.909 12.7017C148.147 19.9811 159.147 32.3235 164.747 47.3023C164.887 47.6784 165.023 48.0545 165.156 48.4343V48.4379C165.747 50.1072 166.267 51.8076 166.717 53.5391C168.106 58.867 168.807 64.3507 168.802 69.8566Z" fill="#F9F9FC"/>
<path d="M97.2657 26.3515C94.3679 24.7844 91.1506 23.8998 87.859 23.7652C84.5674 23.6305 81.2885 24.2493 78.2724 25.5744C75.6168 26.7301 72.8205 28.8033 71.9346 32.5472C75.5175 30.4327 80.1556 33.7737 81.0776 39.1332L80.8624 39.1926C80.3754 42.9049 81.4625 46.9466 83.5671 49.2484C83.7236 48.2098 84.1095 47.219 84.6967 46.3481C85.2839 45.4773 86.0577 44.7481 86.9619 44.2136C88.5082 43.1971 90.2189 42.4587 91.3992 40.7114C92.7984 38.64 93.1537 35.6127 93.7096 32.851C94.2654 30.0893 95.32 27.121 97.2657 26.3515Z" fill="#A5B2FF" fill-opacity="0.49"/>
<mask id="mask0_299_163" style="mask-type:alpha" maskUnits="userSpaceOnUse" x="40" y="5" width="129" height="129">
<path d="M168.802 69.8566C168.771 85.8479 162.759 101.249 151.948 113.032C141.137 124.815 126.309 132.128 110.379 133.533C94.4498 134.938 78.571 130.333 65.8644 120.624C53.1579 110.915 44.5429 96.8039 41.7131 81.065C38.8834 65.326 42.0435 49.0978 50.5722 35.5706C59.1009 22.0435 72.3813 12.196 87.8026 7.9642C103.224 3.73235 119.67 5.42226 133.909 12.7017C148.147 19.9811 159.147 32.3235 164.747 47.3023C164.887 47.6784 165.023 48.0545 165.156 48.4343V48.4379C165.747 50.1072 166.267 51.8076 166.717 53.5391C168.106 58.867 168.807 64.3507 168.802 69.8566Z" fill="#F9F9FC"/>
</mask>
<g mask="url(#mask0_299_163)">
<path d="M76.2101 57.9418C75.2178 59.432 73.8923 60.3671 72.703 61.5313C71.33 62.7802 70.4293 64.4641 70.1524 66.2994C70.0019 67.5961 70.2348 68.9144 70.2025 70.2256C70.1703 71.5367 69.7333 73.0126 68.8413 73.3386C67.4334 73.8472 66.3587 71.2322 64.9115 71.0495C63.7615 70.9062 62.7263 72.7153 63.0594 74.2843C63.3925 75.8534 64.9581 76.5483 65.8572 75.5238C66.6704 76.8886 66.0972 79.3641 64.8756 79.7832C64.7466 80.6429 64.6177 81.4991 64.4923 82.3589C61.4044 80.1987 58.2842 78.0028 55.6584 74.8395C52.738 71.3514 50.9266 67.07 50.4568 62.5451C50.1165 58.909 50.6216 54.75 48.9523 51.9522C47.616 49.7132 45.3234 49.2189 43.2599 49.3586C42.8838 49.3836 42.5041 49.4266 42.1279 49.4732C43.3448 45.8183 44.8903 42.2813 46.7455 38.9053C47.1653 38.7251 47.5554 38.4823 47.9025 38.1853C49.8227 36.5554 50.6753 33.256 52.2336 30.9741C52.3339 30.8272 52.4378 30.6839 52.5452 30.5442C54.1394 28.4629 56.2744 27.3918 58.3378 26.3959C62.9053 24.1784 67.6053 21.9323 72.4271 22.2404L71.0551 22.3729C69.4538 26.858 67.8513 31.3431 66.2476 35.8281C66.004 36.5159 65.758 37.2049 65.5096 37.8951C64.5997 40.4457 63.6611 43.1611 63.8009 46.0162C63.8833 47.707 64.4708 49.5126 65.5884 50.0929C66.6309 50.6303 67.7701 49.9711 68.7767 49.3191C69.203 49.0469 69.6257 48.7746 70.0519 48.4987C71.5816 47.5136 73.276 46.5034 74.8916 47.1625C76.3712 47.7643 77.4637 49.7741 77.6715 51.9414C77.8621 54.0481 77.3481 56.1586 76.2101 57.9418Z" fill="#A5B2FF" fill-opacity="0.49"/>
</g>
<path d="M86.3077 88.5626C81.8402 85.8119 77.3727 83.0612 72.9052 80.3106L72.981 80.1152C70.2033 81.1732 69.0501 86.1107 69.5091 90.1485C69.9682 94.1863 71.5247 97.7959 72.3111 101.73C73.3714 107.114 72.9712 112.684 71.1521 117.861C77.0266 111.27 82.2254 104.106 86.6707 96.4769C87.2917 95.5154 87.7649 94.4662 88.0745 93.3643C88.4024 92.19 88.2855 90.9359 87.7463 89.8424C87.3806 89.3029 86.8861 88.863 86.3077 88.5626Z" fill="#A5B2FF" fill-opacity="0.49"/>
<path d="M68.6757 38.519C68.1511 39.6454 68.0703 40.9281 68.4493 42.1115C68.8901 43.0649 69.6898 43.8055 70.6741 44.1721L73.1426 45.3956C73.9638 45.8027 74.849 46.2138 75.6861 45.8789C76.6959 45.475 77.3959 43.892 77.2149 42.4224C77.0221 40.8585 76.0364 39.7828 75.1247 38.8668C73.8489 37.5849 72.5731 36.3029 71.2973 35.021L70.5783 35.9016C69.8006 36.6602 69.1573 37.5452 68.6757 38.519Z" fill="#A5B2FF" fill-opacity="0.49"/>
<path d="M155.569 55.237C156.68 55.4985 157.79 55.76 158.901 56.0215C158.707 59.7722 156.848 63.2435 154.355 64.5008C153.316 65.0239 152.159 65.2173 151.299 66.1953C150.522 67.0837 150.128 68.4664 149.766 69.7883C149.132 72.0954 148.498 74.4024 147.864 76.7093C147.183 79.1955 146.309 81.9575 144.539 82.8531C143.02 83.6232 141.283 82.6811 140.115 81.1013C138.947 79.5215 138.234 77.3972 137.543 75.3267C137.586 77.5835 136.536 79.7974 135.05 80.5819C133.56 81.3664 131.747 80.6571 130.751 78.9054C130.035 77.648 129.737 75.9893 129.035 74.714C128.333 73.4388 126.861 72.708 126.094 73.9044C125.589 74.6998 125.653 75.9177 125.403 76.9279C125.276 77.5986 124.944 78.2133 124.452 78.6865C123.961 79.1596 123.334 79.4678 122.659 79.5681C122.038 79.5539 121.426 79.4135 120.862 79.1554C120.297 78.8974 119.791 78.5271 119.374 78.0671C117.18 75.8231 115.752 72.943 115.293 69.8385C114.983 68.3501 115.022 66.8098 115.408 65.3391C115.849 63.9457 116.912 62.871 117.969 63.136C118.664 61.6672 117.292 59.7185 116.056 59.8904C114.817 60.0624 113.846 61.3914 112.829 62.4124C111.815 63.4333 110.396 64.1749 109.375 63.1611C109.398 63.5319 109.273 63.8966 109.027 64.1749C108.781 64.4533 108.434 64.6225 108.063 64.6453C108.027 64.6476 107.99 64.6484 107.953 64.6478C107.274 64.4529 106.643 64.1186 106.101 63.6662C103.762 62.2082 100.792 63.1754 99.1299 65.9338C100.169 61.5132 101.691 56.4406 104.883 55.4017C106.187 54.9754 107.609 55.3265 108.842 54.5885C111.023 53.2811 111.464 48.341 109.58 46.3027C109.819 48.23 109.773 50.4797 108.756 51.798C107.738 53.1163 105.603 52.2565 105.732 50.3077C105.703 50.5818 105.588 50.8397 105.404 51.0445C105.219 51.2492 104.975 51.3903 104.705 51.4476C104.435 51.5048 104.155 51.4753 103.903 51.3632C103.651 51.2511 103.441 51.0622 103.303 50.8236C102.626 49.7919 102.684 48.1046 103.164 46.8723C103.659 45.7562 104.368 44.7483 105.252 43.9062C106.954 42.0828 108.68 40.2379 110.651 39.0915C112.625 37.9452 114.903 37.5583 116.88 38.6975C117.923 39.2993 118.84 40.3024 119.904 40.8325C120.154 40.9876 120.432 41.092 120.722 41.1397C121.013 41.1873 121.31 41.1773 121.596 41.1102C121.882 41.0431 122.153 40.9203 122.392 40.7487C122.631 40.577 122.834 40.36 122.989 40.11L122.989 40.11C123.001 40.0907 123.013 40.0712 123.024 40.0515C123.816 38.6616 123.443 36.5982 123.737 34.8608C124.263 31.7908 127.334 30.3543 129.035 32.3818C127.763 32.0559 126.449 33.5604 126.291 35.3838C126.13 37.2072 127.051 39.0485 128.283 39.6002C130.353 40.5172 132.381 38.2102 133.947 36.0752C135.58 33.8398 137.216 31.6057 138.854 29.3727C139.116 28.9925 139.409 28.6354 139.732 28.3052C140.245 27.805 140.929 27.5186 141.645 27.504C142.362 27.4894 143.057 27.7476 143.59 28.2264C145.245 29.5769 146.022 32.3461 147.38 34.2518C149.35 37.0209 152.299 37.6944 155.043 38.2318C157.088 38.6294 159.135 39.0294 161.183 39.4318C162.548 41.9715 163.739 44.601 164.747 47.3022C160.992 49.0147 157.806 51.7685 155.569 55.237Z" fill="#A5B2FF" fill-opacity="0.49"/>
<path d="M162.183 98.3398C160.648 101.456 158.863 104.443 156.845 107.271C155.555 106.719 154.169 107.704 152.962 108.628C151.701 109.595 150.186 110.538 148.892 109.656C147.57 108.754 147.144 106.228 147.563 104.226C148.045 102.378 148.888 100.645 150.042 99.1243C151.117 97.5194 152.267 95.8537 153.761 95.2303C155.258 94.607 157.182 95.4883 157.619 97.6162L158.679 97.5803C158.085 96.7636 158.396 95.0727 159.195 94.7754C160.116 94.4279 160.915 95.6924 161.459 96.8102C161.703 97.3152 161.95 97.824 162.183 98.3398Z" fill="#A5B2FF" fill-opacity="0.49"/>
<path d="M121.571 83.208C119.291 83.3513 117.486 80.5455 116.286 77.7852C115.087 75.025 113.992 71.8684 111.936 70.4634C110.761 69.6606 109.421 69.5504 108.146 69.1614C107.423 68.9788 106.754 68.6266 106.195 68.1339C105.635 67.6411 105.201 67.0221 104.928 66.3282L103.483 65.7441C101.46 66.7551 99.6081 68.0756 97.9933 69.6581C96.148 71.6183 94.9986 74.131 94.7224 76.8089C94.4462 79.7028 95.4661 82.9297 97.3717 84.0168C98.8774 84.8758 100.63 84.3344 102.156 85.1207C104.061 86.1032 105.193 88.9573 105.621 91.7753C106.049 94.5933 105.941 97.5219 106.247 100.372C106.553 103.222 107.398 106.187 109.145 107.648C111.332 109.476 114.541 107.957 115.522 104.63C116.004 102.998 115.987 101.157 116.347 99.4625C116.981 96.4792 118.691 94.2659 120.048 91.8188C121.405 89.3716 122.473 86.048 121.571 83.208Z" fill="#A5B2FF" fill-opacity="0.49"/>
<path d="M99.0498 53.8933C99.2623 54.0889 99.4607 54.2995 99.6433 54.5233C99.8323 54.8492 99.9288 55.2205 99.9224 55.5972C99.916 55.9739 99.8069 56.3417 99.6069 56.661C99.8814 56.6453 100.15 56.5729 100.395 56.4484C100.64 56.3238 100.857 56.1497 101.031 55.9371C101.447 55.4634 101.813 54.9479 102.123 54.3989C102.269 54.2109 102.373 53.994 102.428 53.7627C102.484 53.5313 102.49 53.2908 102.445 53.0571C102.337 52.7498 102.083 52.6188 101.904 52.3877C101.657 51.9359 101.488 51.4453 101.405 50.9369C101.306 50.4604 101.076 50.021 100.741 49.6679C100.406 49.3149 99.9791 49.0623 99.5085 48.9385L99.6227 48.9603C99.4283 49.0757 99.2748 49.249 99.1838 49.4559C99.0928 49.6629 99.0688 49.8932 99.1152 50.1144C99.1844 50.5614 99.4716 50.9326 99.4431 51.3885C99.402 52.0441 98.7468 52.3518 98.7063 53.0075C98.6999 53.3364 98.8233 53.6546 99.0498 53.8933Z" fill="#A5B2FF" fill-opacity="0.49"/>
<path d="M95.1445 42.7521L95.1547 42.7502C95.2248 42.6862 95.2898 42.617 95.3492 42.543L95.1445 42.7521Z" fill="#A5B2FF" fill-opacity="0.49"/>
<path d="M95.8278 45.8296C96.1016 45.5894 96.3041 45.2786 96.4132 44.9312C96.5223 44.5837 96.5338 44.2129 96.4465 43.8593C96.281 43.1138 95.695 42.6126 95.1545 42.7503C94.9976 42.9093 94.803 43.0258 94.5888 43.0888C94.3746 43.1519 94.1479 43.1595 93.9299 43.1108C93.5958 43.0248 93.2289 42.8032 92.939 43.055C92.7732 43.2431 92.6572 43.4696 92.6015 43.7141C92.4942 44.0434 92.387 44.3727 92.2796 44.7019C92.2287 44.8198 92.2154 44.9506 92.2416 45.0763C92.2622 45.1267 92.2953 45.1709 92.3379 45.2048C92.3805 45.2387 92.4311 45.261 92.4848 45.2697L94.4158 45.8389C94.6374 45.941 94.8788 45.9931 95.1228 45.9915C95.3668 45.9899 95.6075 45.9347 95.8278 45.8296Z" fill="#A5B2FF" fill-opacity="0.49"/>
<path d="M144.419 88.3158C144.121 87.8286 143.824 87.3415 143.526 86.8544C143.234 86.2903 142.834 85.7886 142.35 85.3776C142.138 85.2001 141.864 85.114 141.589 85.1383C141.314 85.1626 141.059 85.2953 140.882 85.5072L140.882 85.5072L140.866 85.5262L140.902 85.8044C141.699 86.6585 142.242 87.7178 142.47 88.8633C142.538 89.3611 142.514 89.8763 142.574 90.3763C142.58 90.6082 142.632 90.8365 142.727 91.0482C142.821 91.26 142.957 91.451 143.125 91.6104C143.594 91.9234 144.144 91.4619 144.477 90.8988C144.775 90.4363 144.909 89.8869 144.857 89.3392C144.782 88.9716 144.633 88.6233 144.419 88.3158Z" fill="#A5B2FF" fill-opacity="0.49"/>
<path d="M149.086 88.9499C149.143 88.4938 149.106 88.031 148.977 87.5898C148.956 86.9929 149.114 86.4033 149.432 85.8973C149.747 85.4199 149.986 84.8963 150.139 84.3453C150.204 84.0942 150.193 83.8295 150.106 83.5852C150.007 83.364 149.769 83.2631 149.632 83.4383L149.925 83.6269C149.529 83.5563 149.123 83.576 148.736 83.6844C148.516 83.7689 148.319 83.9052 148.162 84.0819C148.005 84.2587 147.893 84.4705 147.836 84.6996C147.787 85.0569 147.708 85.4093 147.599 85.753C147.425 86.112 147.087 86.2314 146.874 86.5466C146.729 86.8259 146.656 87.1369 146.661 87.4516C146.667 87.7662 146.75 88.0746 146.904 88.349C147.171 88.7978 147.595 89.1314 148.094 89.2849C148.452 89.4133 148.923 89.42 149.086 88.9499Z" fill="#A5B2FF" fill-opacity="0.49"/>
<path d="M157.398 91.4573C157.527 91.7937 157.7 92.1116 157.913 92.4026C158.311 92.8034 158.852 92.5571 159.334 92.4597C159.773 92.3905 160.221 92.4411 160.633 92.6062C161.044 92.7713 161.404 93.0447 161.672 93.3975C161.485 92.4638 161.077 91.5887 160.481 90.8456C159.886 90.1026 159.12 89.5133 158.25 89.1273C157.119 88.7358 155.927 88.5494 154.73 88.5769L154.525 88.6293C155.046 90.1455 156.682 90.1116 157.398 91.4573Z" fill="#A5B2FF" fill-opacity="0.49"/>
<path d="M122.194 94.5591L122.197 94.5657L122.257 94.4512L122.194 94.5591Z" fill="#A5B2FF" fill-opacity="0.49"/>
<path d="M120.934 96.9995C120.659 97.4987 120.423 98.0182 120.227 98.5534C119.967 99.4204 119.796 100.311 119.714 101.212C119.65 101.725 119.63 102.379 119.951 102.629C120.044 102.69 120.155 102.716 120.264 102.701C120.374 102.686 120.475 102.632 120.547 102.548C120.725 102.359 120.871 102.143 120.979 101.906C121.61 100.819 122.1 99.6567 122.437 98.446C122.789 97.1616 122.705 95.797 122.198 94.5654C121.777 95.3768 121.356 96.1882 120.934 96.9995Z" fill="#A5B2FF" fill-opacity="0.49"/>
<path d="M108.77 31.9748C108.97 32.1706 109.223 32.3035 109.498 32.3571C109.773 32.4108 110.058 32.3828 110.317 32.2767C110.854 32.042 111.346 31.7168 111.772 31.3152C112.126 31.0539 112.425 30.7271 112.655 30.3525C112.781 30.1287 112.863 29.8821 112.894 29.6269C112.925 29.3717 112.905 29.1128 112.835 28.8653C112.737 28.6281 112.579 28.4199 112.378 28.2606C112.176 28.1012 111.938 27.9958 111.684 27.9544C110.97 27.7425 110.255 27.5307 109.541 27.3189L110.058 26.853C109.526 26.5677 108.938 27.0973 108.605 27.753C108.392 28.1811 108.244 28.6385 108.164 29.1101C108.051 29.603 108.047 30.1145 108.151 30.6092C108.256 31.1038 108.467 31.5698 108.77 31.9748Z" fill="#A5B2FF" fill-opacity="0.49"/>
<path d="M121.382 27.7408C121.584 27.9628 121.862 28.0998 122.161 28.1241C122.46 28.1484 122.756 28.0582 122.991 27.8717C123.193 27.72 123.361 27.5275 123.483 27.3067C123.606 27.086 123.68 26.8418 123.702 26.5902C123.753 26.0283 123.475 25.4037 123.078 25.3551L123.169 24.829C122.405 24.6909 121.464 24.6633 121.054 25.5916C120.916 25.9473 120.874 26.3329 120.931 26.7101C120.989 27.0872 121.144 27.4426 121.382 27.7408Z" fill="#A5B2FF"/>
<circle cx="93.5" cy="25.5" r="10" fill="#EAECF6" stroke="#79A6FF"/>
<mask id="mask1_299_163" style="mask-type:alpha" maskUnits="userSpaceOnUse" x="83" y="15" width="21" height="21">
<circle cx="93.5" cy="25.5" r="10.5" fill="#D0D6FD"/>
</mask>
<g mask="url(#mask1_299_163)">
<path fill-rule="evenodd" clip-rule="evenodd" d="M101.299 33.6644C101.299 35.1922 100.049 36.4422 98.5213 36.4422H88.4301C86.9023 36.4422 85.6523 35.1922 85.6523 33.6644C85.6523 25.8436 101.299 25.8436 101.299 33.6644H101.299ZM93.4761 18.8442C95.583 18.8442 97.2911 20.4316 97.2911 22.3896C97.2911 24.3475 95.5832 26.9311 93.4761 26.9311C91.3691 26.9311 89.6611 24.3476 89.6611 22.3896C89.6611 20.4317 91.369 18.8442 93.4761 18.8442Z" fill="#79A6FF"/>
</g>
<circle cx="139.5" cy="63.5" r="10" fill="#EAECF6" stroke="#79A6FF"/>
<mask id="mask2_299_163" style="mask-type:alpha" maskUnits="userSpaceOnUse" x="129" y="53" width="21" height="21">
<circle cx="139.5" cy="63.5" r="10.5" fill="#D0D6FD"/>
</mask>
<g mask="url(#mask2_299_163)">
<path fill-rule="evenodd" clip-rule="evenodd" d="M147.299 71.6644C147.299 73.1922 146.049 74.4422 144.521 74.4422H134.43C132.902 74.4422 131.652 73.1922 131.652 71.6644C131.652 63.8436 147.299 63.8436 147.299 71.6644H147.299ZM139.476 56.8442C141.583 56.8442 143.291 58.4316 143.291 60.3896C143.291 62.3475 141.583 64.9311 139.476 64.9311C137.369 64.9311 135.661 62.3476 135.661 60.3896C135.661 58.4317 137.369 56.8442 139.476 56.8442Z" fill="#79A6FF"/>
</g>
<circle cx="120.5" cy="112.5" r="10" fill="#EAECF6" stroke="#79A6FF"/>
<mask id="mask3_299_163" style="mask-type:alpha" maskUnits="userSpaceOnUse" x="110" y="102" width="21" height="21">
<circle cx="120.5" cy="112.5" r="10.5" fill="#D0D6FD"/>
</mask>
<g mask="url(#mask3_299_163)">
<path fill-rule="evenodd" clip-rule="evenodd" d="M128.299 120.664C128.299 122.192 127.049 123.442 125.521 123.442H115.43C113.902 123.442 112.652 122.192 112.652 120.664C112.652 112.844 128.299 112.844 128.299 120.664H128.299ZM120.476 105.844C122.583 105.844 124.291 107.432 124.291 109.39C124.291 111.348 122.583 113.931 120.476 113.931C118.369 113.931 116.661 111.348 116.661 109.39C116.661 107.432 118.369 105.844 120.476 105.844Z" fill="#79A6FF"/>
</g>
<circle cx="67.5" cy="74.5" r="10" fill="#EAECF6" stroke="#79A6FF"/>
<mask id="mask4_299_163" style="mask-type:alpha" maskUnits="userSpaceOnUse" x="57" y="64" width="21" height="21">
<circle cx="67.5" cy="74.5" r="10.5" fill="#D0D6FD"/>
</mask>
<g mask="url(#mask4_299_163)">
<path fill-rule="evenodd" clip-rule="evenodd" d="M75.2991 82.6644C75.2991 84.1922 74.0491 85.4422 72.5213 85.4422H62.4301C60.9023 85.4422 59.6523 84.1922 59.6523 82.6644C59.6523 74.8436 75.299 74.8436 75.299 82.6644H75.2991ZM67.4761 67.8442C69.583 67.8442 71.2911 69.4316 71.2911 71.3896C71.2911 73.3475 69.5832 75.9311 67.4761 75.9311C65.3691 75.9311 63.6611 73.3476 63.6611 71.3896C63.6611 69.4317 65.369 67.8442 67.4761 67.8442Z" fill="#79A6FF"/>
</g>
<path d="M88 34L70.5 65.5" stroke="#79A6FF"/>
<path d="M101 32L131 57.5M136 72.5L124.5 103M74.5 81.5L112 107" stroke="#79A6FF"/>
<path d="M97.2805 51H19.2232C17.308 51.0017 15.4718 51.7633 14.1175 53.1175C12.7633 54.4718 12.0017 56.308 12 58.2232V80.2729C12.0017 82.1881 12.7633 84.0243 14.1175 85.3785C15.4718 86.7328 17.308 87.4943 19.2232 87.4961H97.2805C99.1957 87.4943 101.032 86.7328 102.386 85.3785C103.74 84.0243 104.502 82.1881 104.504 80.2729V58.2232C104.502 56.308 103.74 54.4718 102.386 53.1175C101.032 51.7633 99.1957 51.0017 97.2805 51Z" fill="#BCC3F1" fill-opacity="0.64"/>
<path d="M95.2805 49H17.2232C15.308 49.0017 13.4718 49.7633 12.1175 51.1175C10.7633 52.4718 10.0017 54.308 10 56.2232V78.2729C10.0017 80.1881 10.7633 82.0243 12.1175 83.3785C13.4718 84.7328 15.308 85.4943 17.2232 85.4961H95.2805C97.1957 85.4943 99.0319 84.7328 100.386 83.3785C101.74 82.0243 102.502 80.1881 102.504 78.2729V56.2232C102.502 54.308 101.74 52.4718 100.386 51.1175C99.0319 49.7633 97.1957 49.0017 95.2805 49Z" fill="#FDFDFF"/>
<path d="M95.2805 49H17.2232C15.308 49.0017 13.4718 49.7633 12.1175 51.1175C10.7633 52.4718 10.0017 54.308 10 56.2232V78.2729C10.0017 80.1881 10.7633 82.0243 12.1175 83.3785C13.4718 84.7328 15.308 85.4943 17.2232 85.4961H95.2805C97.1957 85.4943 99.0319 84.7328 100.386 83.3785C101.74 82.0243 102.502 80.1881 102.504 78.2729V56.2232C102.502 54.308 101.74 52.4718 100.386 51.1175C99.0319 49.7633 97.1957 49.0017 95.2805 49ZM101.743 78.2729C101.741 79.9862 101.059 81.6286 99.8478 82.8401C98.6363 84.0516 96.9938 84.7333 95.2805 84.7357H17.2232C15.5099 84.7333 13.8674 84.0516 12.6559 82.8401C11.4444 81.6286 10.7627 79.9862 10.7603 78.2729V56.2232C10.7627 54.5099 11.4444 52.8674 12.6559 51.6559C13.8674 50.4444 15.5099 49.7628 17.2232 49.7603H95.2805C96.9938 49.7628 98.6363 50.4444 99.8478 51.6559C101.059 52.8674 101.741 54.5099 101.743 56.2232V78.2729Z" fill="#D0D6FD"/>
<path d="M30.3485 79.8198C27.862 79.8198 25.4313 79.0825 23.3638 77.7011C21.2964 76.3197 19.685 74.3562 18.7334 72.059C17.7818 69.7617 17.5328 67.2339 18.0179 64.7952C18.503 62.3565 19.7004 60.1163 21.4586 58.3581C23.2168 56.5998 25.4569 55.4025 27.8957 54.9174C30.3344 54.4323 32.8622 54.6812 35.1595 55.6328C37.4567 56.5843 39.4202 58.1957 40.8016 60.2632C42.1831 62.3306 42.9204 64.7613 42.9204 67.2478C42.9166 70.5809 41.5909 73.7765 39.234 76.1334C36.8771 78.4902 33.6816 79.816 30.3485 79.8198Z" fill="#79A6FF"/>
<path d="M90.1551 77.5129H54.8089C54.0023 77.5129 53.2287 77.1924 52.6584 76.6221C52.088 76.0517 51.7676 75.2781 51.7676 74.4715C51.7676 73.6649 52.088 72.8913 52.6584 72.321C53.2287 71.7506 54.0023 71.4302 54.8089 71.4302H90.1551C90.9617 71.4302 91.7353 71.7506 92.3057 72.321C92.8761 72.8913 93.1965 73.6649 93.1965 74.4715C93.1965 75.2781 92.8761 76.0517 92.3057 76.6221C91.7353 77.1924 90.9617 77.5129 90.1551 77.5129Z" fill="#E6E6E6"/>
<path d="M66.4359 64.5871H54.8089C54.4095 64.5871 54.014 64.5084 53.645 64.3556C53.276 64.2027 52.9408 63.9787 52.6584 63.6963C52.3759 63.4139 52.1519 63.0786 51.9991 62.7096C51.8462 62.3406 51.7676 61.9451 51.7676 61.5457C51.7676 61.1463 51.8462 60.7509 51.9991 60.3819C52.1519 60.0129 52.3759 59.6776 52.6584 59.3952C52.9408 59.1128 53.276 58.8888 53.645 58.7359C54.014 58.5831 54.4095 58.5044 54.8089 58.5044H66.4359C67.2425 58.5044 68.0161 58.8248 68.5864 59.3952C69.1568 59.9656 69.4772 60.7391 69.4772 61.5457C69.4772 62.3523 69.1568 63.1259 68.5864 63.6963C68.0161 64.2667 67.2425 64.5871 66.4359 64.5871Z" fill="#E6E6E6"/>
<path d="M29.707 71.6701C29.3951 71.6706 29.0914 71.5697 28.8419 71.3826L28.8264 71.371L25.5679 68.8784C25.4166 68.7628 25.2896 68.6185 25.1942 68.4538C25.0988 68.2891 25.0367 68.1072 25.0116 67.9185C24.9866 67.7298 24.9989 67.538 25.0481 67.3541C25.0972 67.1702 25.1821 66.9978 25.2979 66.8467C25.4137 66.6957 25.5582 66.5689 25.723 66.4737C25.8879 66.3785 26.0699 66.3168 26.2586 66.292C26.4473 66.2672 26.6391 66.2799 26.8229 66.3293C27.0068 66.3787 27.1791 66.4639 27.3299 66.58L29.4405 68.1985L34.428 61.6918C34.5436 61.541 34.6879 61.4144 34.8524 61.3192C35.017 61.2241 35.1987 61.1624 35.3871 61.1375C35.5756 61.1126 35.7671 61.125 35.9507 61.1742C36.1344 61.2233 36.3065 61.3081 36.4574 61.4237L36.4578 61.4241L36.4268 61.467L36.4586 61.4241C36.763 61.658 36.9621 62.003 37.0123 62.3836C37.0625 62.7641 36.9596 63.149 36.7264 63.4538L30.86 71.1037C30.7243 71.28 30.5498 71.4226 30.3501 71.5205C30.1503 71.6185 29.9307 71.6691 29.7083 71.6684L29.707 71.6701Z" fill="white"/>
<path d="M9.56803 125.324C5.00561 125.324 2.03949 124.19 0.726688 121.936C-1.86217 117.492 2.47369 109.694 13.6136 98.759L14.5494 99.7122C4.20158 109.87 -0.297579 117.524 1.88078 121.264C3.25925 123.63 7.36159 124.478 13.7469 123.715C20.0857 122.958 28.4861 120.703 38.7147 117.011C59.7727 109.411 86.192 96.5922 113.106 80.9146C140.019 65.2375 164.203 48.5798 181.202 34.0107C184.467 31.2118 187.43 28.5192 190.009 26.0084C193.395 22.7927 196.518 19.3118 199.349 15.5988C203.162 10.4216 204.449 6.43444 203.071 4.06844C200.769 0.116759 191.098 0.488332 175.839 5.11622L175.452 3.83776C191.823 -1.12667 201.504 -1.2756 204.225 3.39618C205.916 6.29879 204.637 10.671 200.425 16.3912C197.55 20.163 194.379 23.699 190.941 26.9656C188.342 29.4962 185.358 32.2077 182.071 35.025C165.012 49.6452 140.759 66.3525 113.778 82.0688C86.7969 97.7859 60.2997 110.642 39.1683 118.268C28.8444 121.994 20.3446 124.273 13.9052 125.041C12.4663 125.221 11.0181 125.315 9.56803 125.324Z" fill="white"/>
</svg>
