<svg xmlns="http://www.w3.org/2000/svg" width="16.585" height="11.389">
    <path data-name="Path 13927" d="m18.058 8.691-7.921-3.609a.273.273 0 0 0-.225 0l-7.92 3.609a.27.27 0 0 0 0 .492l3.445 1.57a.257.257 0 0 0-.013.079v3.519c0 .194.129 1.9 4.6 1.9s4.6-1.7 4.6-1.9v-3.519a.284.284 0 0 0-.013-.079l1.637-.746V13.9a.271.271 0 0 0 0 .541h.541a.271.271 0 1 0 0-.541V9.76l1.267-.577a.27.27 0 0 0 0-.492zm-3.973 5.652c0 .014-.125 1.361-4.06 1.361s-4.059-1.347-4.06-1.354v-3.356l3.948 1.8a.272.272 0 0 0 .112.024.269.269 0 0 0 .112-.024l3.948-1.8zm-4.06-2.095L2.757 8.937l7.268-3.312 7.269 3.312z" transform="translate(-1.733 -4.957)" style="fill:#a7b1c4;stroke:#a7b1c4;stroke-width:.2px"/>
</svg>
