<svg width="18" height="18" viewBox="0 0 18 18" fill="none" xmlns="http://www.w3.org/2000/svg">
<path d="M13.4988 7.434V5.391C13.4988 4.7565 13.2108 4.5 12.4953 4.5H10.6773C9.96183 4.5 9.67383 4.7565 9.67383 5.391V7.4295C9.67383 8.0685 9.96183 8.3205 10.6773 8.3205H12.4953C13.2108 8.325 13.4988 8.0685 13.4988 7.434Z" stroke="#4785FF" stroke-width="0.9" stroke-linecap="round" stroke-linejoin="round"/>
<path d="M13.4988 12.4953V10.6773C13.4988 9.96183 13.2108 9.67383 12.4953 9.67383H10.6773C9.96183 9.67383 9.67383 9.96183 9.67383 10.6773V12.4953C9.67383 13.2108 9.96183 13.4988 10.6773 13.4988H12.4953C13.2108 13.4988 13.4988 13.2108 13.4988 12.4953Z" stroke="#4785FF" stroke-width="0.9" stroke-linecap="round" stroke-linejoin="round"/>
<path d="M8.325 7.434V5.391C8.325 4.7565 8.037 4.5 7.3215 4.5H5.5035C4.788 4.5 4.5 4.7565 4.5 5.391V7.4295C4.5 8.0685 4.788 8.3205 5.5035 8.3205H7.3215C8.037 8.325 8.325 8.0685 8.325 7.434Z" stroke="#4785FF" stroke-width="0.9" stroke-linecap="round" stroke-linejoin="round"/>
<path d="M8.325 12.4953V10.6773C8.325 9.96183 8.037 9.67383 7.3215 9.67383H5.5035C4.788 9.67383 4.5 9.96183 4.5 10.6773V12.4953C4.5 13.2108 4.788 13.4988 5.5035 13.4988H7.3215C8.037 13.4988 8.325 13.2108 8.325 12.4953Z" stroke="#4785FF" stroke-width="0.9" stroke-linecap="round" stroke-linejoin="round"/>
<path d="M6.75 16.5H11.25C15 16.5 16.5 15 16.5 11.25V6.75C16.5 3 15 1.5 11.25 1.5H6.75C3 1.5 1.5 3 1.5 6.75V11.25C1.5 15 3 16.5 6.75 16.5Z" stroke="#4785FF" stroke-width="0.9" stroke-linecap="round" stroke-linejoin="round"/>
</svg>
