<svg width="16" height="16" viewBox="0 0 16 16" fill="none" xmlns="http://www.w3.org/2000/svg">
<path d="M3.67772 6.38111H4.94545C6.21318 6.38111 6.84705 5.74724 6.84705 4.47951V3.21178C6.84705 1.94405 6.21318 1.31018 4.94545 1.31018H3.67772C2.40999 1.31018 1.77612 1.94405 1.77612 3.21178V4.47951C1.77612 5.74724 2.40999 6.38111 3.67772 6.38111Z" stroke="#4785FF" stroke-width="1.14096" stroke-miterlimit="10" stroke-linecap="round" stroke-linejoin="round"/>
<path d="M11.2842 6.38111H12.5519C13.8196 6.38111 14.4535 5.74724 14.4535 4.47951V3.21178C14.4535 1.94405 13.8196 1.31018 12.5519 1.31018H11.2842C10.0164 1.31018 9.38257 1.94405 9.38257 3.21178V4.47951C9.38257 5.74724 10.0164 6.38111 11.2842 6.38111Z" stroke="#4785FF" stroke-width="1.14096" stroke-miterlimit="10" stroke-linecap="round" stroke-linejoin="round"/>
<path d="M11.2842 13.9876H12.5519C13.8196 13.9876 14.4535 13.3537 14.4535 12.086V10.8182C14.4535 9.55049 13.8196 8.91663 12.5519 8.91663H11.2842C10.0164 8.91663 9.38257 9.55049 9.38257 10.8182V12.086C9.38257 13.3537 10.0164 13.9876 11.2842 13.9876Z" stroke="#4785FF" stroke-width="1.14096" stroke-miterlimit="10" stroke-linecap="round" stroke-linejoin="round"/>
<path d="M3.67772 13.9876H4.94545C6.21318 13.9876 6.84705 13.3537 6.84705 12.086V10.8182C6.84705 9.55049 6.21318 8.91663 4.94545 8.91663H3.67772C2.40999 8.91663 1.77612 9.55049 1.77612 10.8182V12.086C1.77612 13.3537 2.40999 13.9876 3.67772 13.9876Z" stroke="#4785FF" stroke-width="1.14096" stroke-miterlimit="10" stroke-linecap="round" stroke-linejoin="round"/>
</svg>
