<svg xmlns="http://www.w3.org/2000/svg" width="14.896" height="15.724" viewBox="0 0 14.896 15.724">
<g opacity="0.86">
    <g>
        <g>
            <path fill="#5c82ff" d="M64.738.013H50.824a.491.491 0 0 0-.491.487v14.745a.491.491 0 0 0 .491.491h13.914a.491.491 0 0 0 .491-.491V.5a.491.491 0 0 0-.491-.487zm-.491 14.741H51.316V13.28h7.457v-.98h-7.457v-1.477h4.474V9.84h-4.474V8.366h7.457v-.982h-7.457V5.909h4.474v-.982h-4.474V3.453h7.457V2.47h-7.457V1h12.931z" transform="translate(-50.333) translate(50.333) translate(-50.333 -.013)"></path>
        </g>
    </g>
</g>
</svg>