<svg width="16" height="16" viewBox="0 0 16 16" fill="none" xmlns="http://www.w3.org/2000/svg">
<path d="M5.59375 3.79179V10.1512M10.2187 5.52616V11.8855M10.6065 14.5827L14.3643 12.7034C14.658 12.5569 14.8437 12.2563 14.8437 11.9279V2.30408C14.8437 1.65966 14.1654 1.24033 13.5888 1.52862L10.6065 3.01941C10.4862 3.07988 10.3534 3.11138 10.2187 3.11138C10.0841 3.11138 9.95132 3.07988 9.83102 3.01941L5.98148 1.09541C5.86109 1.03524 5.72834 1.00391 5.59375 1.00391C5.45916 1.00391 5.32641 1.03524 5.20602 1.09541L1.44821 2.97393C1.30417 3.04593 1.18303 3.15661 1.09835 3.29357C1.01367 3.43053 0.968791 3.58837 0.96875 3.74939V13.3732C0.96875 14.0177 1.64708 14.437 2.22367 14.1487L5.20602 12.6579C5.32632 12.5974 5.4591 12.5659 5.59375 12.5659C5.7284 12.5659 5.86118 12.5974 5.98148 12.6579L9.83102 14.5827C10.0754 14.7045 10.3629 14.7045 10.6065 14.5827Z" stroke="#5C5F65" stroke-width="0.925" stroke-linecap="round" stroke-linejoin="round"/>
</svg>
