<svg width="16" height="15" viewBox="0 0 16 15" fill="none" xmlns="http://www.w3.org/2000/svg">
<path d="M0.932031 3C0.932031 1.67452 2.00655 0.6 3.33203 0.6H11.5673C12.3405 0.6 12.9673 1.2268 12.9673 2V4C12.9673 4.22091 12.7882 4.4 12.5673 4.4H0.932031V3Z" stroke="#A3ACC6" stroke-width="1.2"/>
<path d="M10.5199 9.49996C10.5199 8.45064 11.3706 7.6 12.4199 7.6H14.3317C14.5526 7.6 14.7317 7.77909 14.7317 8V10.9999C14.7317 11.2208 14.5526 11.3999 14.3317 11.3999H12.4199C11.3706 11.3999 10.5199 10.5493 10.5199 9.49996Z" fill="white" stroke="#A3ACC6" stroke-width="1.2"/>
<path d="M1.33203 4.6H13.332C14.1052 4.6 14.732 5.2268 14.732 6V13C14.732 13.7732 14.1052 14.4 13.332 14.4H2.33203C1.55883 14.4 0.932031 13.7732 0.932031 13V5C0.932031 4.77909 1.11112 4.6 1.33203 4.6Z" stroke="#A3ACC6" stroke-width="1.2"/>
</svg>
