<svg width="13" height="16" viewBox="0 0 13 16" fill="none" xmlns="http://www.w3.org/2000/svg">
<path d="M11.9375 11.7281H10.9113V9.33473C10.9113 7.03578 9.04113 5.16562 6.74219 5.16562C4.44324 5.16562 2.57308 7.03578 2.57308 9.33473V11.7281H1.54688C1.18961 11.7281 0.9 12.0177 0.9 12.375V14.4531C0.9 14.8104 1.18961 15.1 1.54688 15.1H11.9375C12.2948 15.1 12.5844 14.8104 12.5844 14.4531V12.375C12.5844 12.0177 12.2948 11.7281 11.9375 11.7281ZM3.86683 9.33473C3.86683 7.74933 5.15679 6.45938 6.74219 6.45938C8.32758 6.45938 9.61754 7.74933 9.61754 9.33473V11.7281H3.86683V9.33473ZM2.19375 13.8062V13.0219H2.19895H2.20529H2.2118H2.21847H2.22531H2.23231H2.23946H2.24678H2.25426H2.2619H2.26969H2.27765H2.28576H2.29402H2.30244H2.31102H2.31975H2.32863H2.33767H2.34686H2.3562H2.36569H2.37533H2.38512H2.39506H2.40514H2.41538H2.42576H2.43628H2.44695H2.45777H2.46873H2.47983H2.49107H2.50246H2.51399H2.52565H2.53746H2.54941H2.56149H2.57371H2.58607H2.59856H2.61119H2.62396H2.63685H2.64988H2.66305H2.67634H2.68977H2.70333H2.71702H2.73083H2.74478H2.75885H2.77305H2.78738H2.80183H2.8164H2.83111H2.84593H2.86088H2.87595H2.89114H2.90645H2.92188H2.93743H2.9531H2.96889H2.9848H3.00082H3.01696H3.03321H3.04958H3.06606H3.08266H3.09936H3.11618H3.13311H3.15015H3.1673H3.18456H3.20193H3.2194H3.23699H3.25467H3.27247H3.29037H3.30837H3.32648H3.34469H3.363H3.38141H3.39992H3.41853H3.43725H3.45606H3.47497H3.49397H3.51307H3.53227H3.55157H3.57095H3.59044H3.61001H3.62968H3.64944H3.66928H3.68922H3.70925H3.72937H3.74958H3.76987H3.79025H3.81072H3.83127H3.85191H3.87263H3.89343H3.91432H3.93529H3.95634H3.97747H3.99868H4.01996H4.04133H4.06278H4.0843H4.1059H4.12757H4.14932H4.17115H4.19304H4.21501H4.23706H4.25917H4.28135H4.30361H4.32593H4.34833H4.37079H4.39331H4.41591H4.43857H4.4613H4.48409H4.50694H4.52986H4.55284H4.57588H4.59898H4.62215H4.64537H4.66865H4.69199H4.71539H4.73884H4.76236H4.78592H4.80954H4.83322H4.85695H4.88073H4.90456H4.92845H4.95238H4.97637H5.00041H5.02449H5.04862H5.0728H5.09702H5.1213H5.14561H5.16997H5.19438H5.21882H5.24331H5.26785H5.29242H5.31703H5.34168H5.36637H5.3911H5.41587H5.44067H5.46551H5.49039H5.5153H5.54024H5.56522H5.59023H5.61527H5.64034H5.66544H5.69058H5.71574H5.74093H5.76615H5.79139H5.81666H5.84196H5.86728H5.89263H5.918H5.94339H5.96881H5.99425H6.0197H6.04518H6.07068H6.09619H6.12173H6.14728H6.17285H6.19843H6.22403H6.24964H6.27527H6.30091H6.32657H6.35223H6.37791H6.40359H6.42929H6.45499H6.48071H6.50643H6.53216H6.55789H6.58363H6.60938H6.63512H6.66088H6.68663H6.71239H6.73815H6.76391H6.78967H6.81542H6.84118H6.86694H6.89269H6.91844H6.94418H6.96992H6.99565H7.02138H7.0471H7.07281H7.09852H7.12422H7.1499H7.17558H7.20124H7.22689H7.25253H7.27816H7.30377H7.32937H7.35495H7.38052H7.40607H7.4316H7.45712H7.48261H7.50809H7.53355H7.55898H7.5844H7.60979H7.63516H7.6605H7.68582H7.71112H7.73639H7.76163H7.78685H7.81204H7.8372H7.86233H7.88743H7.9125H7.93754H7.96255H7.98752H8.01246H8.03737H8.06224H8.08708H8.11188H8.13665H8.16137H8.18606H8.21071H8.23532H8.25989H8.28442H8.30891H8.33335H8.35775H8.38211H8.40642H8.43069H8.45492H8.47909H8.50322H8.5273H8.55133H8.57531H8.59925H8.62313H8.64696H8.67074H8.69446H8.71814H8.74175H8.76532H8.78883H8.81228H8.83567H8.85901H8.88229H8.90551H8.92866H8.95176H8.9748H8.99778H9.02069H9.04354H9.06633H9.08905H9.11171H9.1343H9.15682H9.17928H9.20167H9.22399H9.24624H9.26842H9.29053H9.31256H9.33453H9.35642H9.37824H9.39999H9.42166H9.44325H9.46477H9.48621H9.50757H9.52885H9.55006H9.57118H9.59223H9.61319H9.63407H9.65487H9.67559H9.69622H9.71677H9.73723H9.7576H9.77789H9.79809H9.8182H9.83823H9.85816H9.878H9.89776H9.91742H9.93699H9.95646H9.97584H9.99513H10.0143H10.0334H10.0524H10.0713H10.0901H10.1088H10.1274H10.1459H10.1644H10.1827H10.2009H10.219H10.237H10.2548H10.2726H10.2903H10.3079H10.3254H10.3427H10.36H10.3771H10.3941H10.4111H10.4279H10.4446H10.4612H10.4776H10.494H10.5103H10.5264H10.5424H10.5583H10.5741H10.5897H10.6053H10.6207H10.636H10.6512H10.6663H10.6812H10.696H10.7107H10.7253H10.7397H10.754H10.7682H10.7823H10.7962H10.81H10.8237H10.8373H10.8507H10.864H10.8771H10.8902H10.903H10.9158H10.9284H10.9409H10.9533H10.9655H10.9775H10.9895H11.0013H11.0129H11.0245H11.0358H11.0471H11.0582H11.0691H11.0799H11.0906H11.1011H11.1115H11.1217H11.1318H11.1417H11.1515H11.1611H11.1706H11.1799H11.1891H11.1981H11.207H11.2157H11.2243H11.2327H11.241H11.2491H11.257H11.2648H11.2724H11.2799H11.2872H11.2906V13.8062H2.19375Z" fill="#A3ACC6" stroke="#A3ACC6" stroke-width="0.2"/>
<path d="M6.74219 4.27187C7.09945 4.27187 7.38906 3.98227 7.38906 3.625V1.54688C7.38906 1.18961 7.09945 0.9 6.74219 0.9C6.38492 0.9 6.09531 1.18961 6.09531 1.54688V3.625C6.09531 3.98227 6.38492 4.27187 6.74219 4.27187Z" fill="#A3ACC6" stroke="#A3ACC6" stroke-width="0.2"/>
<path d="M10.9252 4.99645L10.9252 4.99645L12.3946 3.527C12.3946 3.527 12.3946 3.52699 12.3946 3.52699C12.6473 3.27438 12.6472 2.86481 12.3946 2.61219C12.142 2.35954 11.7325 2.35955 11.4798 2.61218L10.0104 4.08163C10.0104 4.08163 10.0104 4.08163 10.0104 4.08163C9.75774 4.33424 9.75774 4.74382 10.0104 4.99645C10.263 5.24909 10.6726 5.24904 10.9252 4.99645Z" fill="#A3ACC6" stroke="#A3ACC6" stroke-width="0.2"/>
<path d="M2.55893 4.99644C2.81157 5.24907 3.22113 5.24904 3.47374 4.99644L3.47374 4.99644C3.72638 4.74382 3.72637 4.33425 3.47374 4.08162L2.00429 2.61218C2.00429 2.61217 2.00429 2.61217 2.00429 2.61217C1.75167 2.35953 1.3421 2.35957 1.08948 2.61217C0.836837 2.86478 0.836844 3.27435 1.08948 3.52698L2.55893 4.99644Z" fill="#A3ACC6" stroke="#A3ACC6" stroke-width="0.2"/>
</svg>
