<svg width="25" height="25" viewBox="0 0 25 25" fill="none" xmlns="http://www.w3.org/2000/svg">
<g opacity="0.98">
<path opacity="0.41" d="M6.8137 23.352C6.8137 24.0395 6.25124 24.6019 5.56379 24.6019H1.45695C0.769495 24.6019 0.207031 24.0395 0.207031 23.352V17.5268C0.207031 16.8393 0.769495 16.2769 1.45695 16.2769H5.56379C6.25124 16.2769 6.8137 16.8393 6.8137 17.5268V23.352Z" fill="#FFA73A"/>
</g>
<g opacity="0.98">
<path opacity="0.41" d="M15.9145 23.3518C15.9145 24.0392 15.3521 24.6017 14.6646 24.6017H10.2929C9.60543 24.6017 9.04297 24.0392 9.04297 23.3518V14.4208C9.04297 13.7334 9.60543 13.1709 10.2929 13.1709H14.6646C15.3521 13.1709 15.9145 13.7334 15.9145 14.4208V23.3518Z" fill="#FFA73A"/>
</g>
<g opacity="0.98">
<path opacity="0.41" d="M24.9856 23.3519C24.9856 24.0394 24.4231 24.6018 23.7357 24.6018H19.6288C18.9414 24.6018 18.3789 24.0394 18.3789 23.3519V11.0878C18.3789 10.4004 18.9414 9.83789 19.6288 9.83789H23.7357C24.4231 9.83789 24.9856 10.4004 24.9856 11.0878V23.3519Z" fill="#FFA73A"/>
</g>
<path opacity="0.66" d="M23.9459 0.0215179L18.7835 1.28209C18.3739 1.38161 18.2827 1.70775 18.5806 2.00682L19.6822 3.0866C19.7747 3.19242 19.665 3.33315 19.578 3.39275C18.8843 3.868 17.7835 4.56535 16.2619 5.36213C7.97793 9.69994 1.14921 9.43386 1.04653 9.42916C0.498384 9.40125 0.0296906 9.82506 0.00134066 10.3761C-0.0269326 10.9275 0.395404 11.3976 0.94478 11.426C0.985159 11.4281 1.14936 11.4355 1.42543 11.4355C3.19592 11.4355 9.5558 11.1289 17.1834 7.13487C18.9882 6.18982 20.2391 5.37474 20.9695 4.85873C21.0728 4.78575 21.2528 4.65994 21.4189 4.82966L22.6238 6.03887C22.9218 6.33794 23.2451 6.24589 23.3426 5.83438L24.5137 0.588824C24.6111 0.177244 24.3554 -0.0779932 23.9459 0.0215179Z" fill="#FFA73A"/>
</svg>
