<svg width="191" height="189" viewBox="0 0 191 189" fill="none" xmlns="http://www.w3.org/2000/svg">
<path d="M125.985 48.5054H94.6351C93.9488 48.5075 93.2711 48.353 92.6534 48.0537C92.0358 47.7543 91.4946 47.3181 91.071 46.7781C90.6397 46.2331 90.3384 45.5968 90.1902 44.9177C90.0419 44.2386 90.0505 43.5346 90.2154 42.8594C93.1047 30.7574 93.1046 18.1452 90.2152 6.04316C90.0504 5.36793 90.0419 4.66402 90.1902 3.98499C90.3385 3.30597 90.6397 2.66971 91.0709 2.12464C91.4945 1.58462 92.0358 1.14836 92.6534 0.849047C93.271 0.549731 93.9488 0.395248 94.6351 0.39736H125.985C127.067 0.400471 128.113 0.787684 128.937 1.49003C129.76 2.19238 130.308 3.16426 130.482 4.23257C132.545 17.6328 132.545 31.2699 130.482 44.6702C130.308 45.7385 129.76 46.7104 128.937 47.4127C128.113 48.1151 127.067 48.5023 125.985 48.5054Z" fill="#D0D6FD"/>
<path d="M94.6351 2.75619C94.3055 2.75508 93.98 2.82917 93.6834 2.9728C93.3867 3.11644 93.1268 3.32584 92.9232 3.58508C92.7136 3.8507 92.5674 4.16062 92.4956 4.49127C92.4238 4.82191 92.4284 5.16458 92.509 5.49319C95.4847 17.9568 95.4848 30.9459 92.5092 43.4096C92.4285 43.7381 92.4239 44.0807 92.4956 44.4113C92.5674 44.7419 92.7136 45.0517 92.9231 45.3173C93.1266 45.5766 93.3867 45.7862 93.6834 45.9299C93.98 46.0736 94.3055 46.1477 94.6351 46.1466H125.985C126.504 46.1467 127.007 45.9624 127.404 45.6264C127.801 45.2904 128.065 44.8245 128.15 44.3118C130.177 31.1491 130.177 17.7537 128.15 4.59096C128.065 4.0782 127.801 3.61234 127.404 3.27634C127.007 2.94034 126.504 2.75601 125.985 2.75619L94.6351 2.75619Z" fill="white"/>
<path d="M184.955 78.3839H153.606C152.92 78.386 152.242 78.2315 151.624 77.9322C151.007 77.6329 150.466 77.1966 150.042 76.6566C149.611 76.1116 149.309 75.4753 149.161 74.7962C149.013 74.1171 149.021 73.4132 149.186 72.7379C152.076 60.6359 152.076 48.0237 149.186 35.9217C149.021 35.2465 149.013 34.5426 149.161 33.8635C149.309 33.1845 149.611 32.5482 150.042 32.0032C150.465 31.4631 151.007 31.0269 151.624 30.7276C152.242 30.4283 152.92 30.2738 153.606 30.2759H184.955C186.038 30.279 187.084 30.6662 187.908 31.3686C188.731 32.0709 189.279 33.0428 189.453 34.1111C191.516 47.5113 191.516 61.1484 189.453 74.5487C189.279 75.617 188.731 76.5889 187.908 77.2912C187.084 77.9936 186.038 78.3808 184.955 78.3839Z" fill="#D0D6FD"/>
<path d="M135.364 117.018H104.014C103.328 117.021 102.65 116.866 102.032 116.567C101.415 116.267 100.874 115.831 100.45 115.291C100.019 114.746 99.7175 114.11 99.5692 113.431C99.4209 112.752 99.4295 112.048 99.5944 111.372C102.484 99.2704 102.484 86.6582 99.5942 74.5562C99.4295 73.881 99.4209 73.1771 99.5692 72.4981C99.7175 71.819 100.019 71.1828 100.45 70.6377C100.874 70.0977 101.415 69.6614 102.032 69.3621C102.65 69.0628 103.328 68.9083 104.014 68.9104H135.364C136.446 68.9135 137.492 69.3007 138.316 70.0031C139.139 70.7054 139.687 71.6773 139.861 72.7456C141.924 86.1459 141.924 99.783 139.861 113.183C139.687 114.252 139.139 115.223 138.316 115.926C137.492 116.628 136.446 117.015 135.364 117.018Z" fill="#D0D6FD"/>
<path d="M153.606 32.6347C153.276 32.6336 152.951 32.7077 152.654 32.8513C152.358 32.995 152.098 33.2044 151.894 33.4636C151.684 33.7292 151.538 34.0392 151.466 34.3698C151.395 34.7004 151.399 35.0431 151.48 35.3717C154.456 47.8353 154.456 60.8244 151.48 73.2881C151.399 73.6166 151.395 73.9592 151.466 74.2898C151.538 74.6204 151.684 74.9303 151.894 75.1958L151.894 75.196C152.098 75.4553 152.358 75.6648 152.654 75.8084C152.951 75.9521 153.276 76.0262 153.606 76.0251H184.955C185.475 76.0253 185.978 75.8409 186.375 75.5049C186.771 75.1689 187.036 74.7031 187.121 74.1903C189.148 61.0276 189.148 47.6322 187.121 34.4695C187.036 33.9567 186.771 33.4909 186.375 33.1549C185.978 32.8189 185.475 32.6345 184.955 32.6347L153.606 32.6347Z" fill="white"/>
<path d="M104.014 71.2692C103.684 71.2681 103.359 71.3422 103.062 71.4859C102.766 71.6295 102.506 71.8389 102.302 72.0981C102.093 72.3638 101.946 72.6737 101.875 73.0043C101.803 73.335 101.807 73.6776 101.888 74.0062C104.864 86.4699 104.864 99.459 101.888 111.923C101.807 112.251 101.803 112.594 101.875 112.924C101.946 113.255 102.092 113.565 102.302 113.83L102.302 113.831C102.506 114.09 102.766 114.299 103.062 114.443C103.359 114.587 103.684 114.661 104.014 114.66H135.363C135.883 114.66 136.386 114.475 136.783 114.139C137.179 113.803 137.444 113.338 137.529 112.825C139.556 99.6621 139.556 86.2667 137.529 73.104C137.444 72.5913 137.179 72.1254 136.783 71.7894C136.386 71.4534 135.883 71.2691 135.363 71.2692L104.014 71.2692Z" fill="white"/>
<path d="M34.8305 183.338H39.6504L41.1573 164.747H34.8297L34.8305 183.338Z" fill="#FFB8B8"/>
<path d="M33.6012 181.764L43.0931 181.764H43.0934C43.8878 181.764 44.6744 181.92 45.4083 182.224C46.1422 182.528 46.8091 182.974 47.3708 183.535C47.9325 184.097 48.378 184.764 48.682 185.498C48.986 186.232 49.1425 187.018 49.1425 187.813V188.009L33.6015 188.01L33.6012 181.764Z" fill="#2F2E41"/>
<path d="M8.88335 183.338H13.7032L15.9964 164.747H8.88257L8.88335 183.338Z" fill="#FFB8B8"/>
<path d="M7.65405 181.764L17.1459 181.764H17.1463C17.9407 181.764 18.7273 181.92 19.4612 182.224C20.1951 182.528 20.8619 182.974 21.4236 183.535C21.9853 184.097 22.4309 184.764 22.7349 185.498C23.0389 186.232 23.1953 187.018 23.1953 187.813V188.009L7.65435 188.01L7.65405 181.764Z" fill="#2F2E41"/>
<path d="M9.73848 177.465C9.24682 177.465 8.77318 177.28 8.41164 176.947C8.21756 176.769 8.06125 176.555 7.9521 176.316C7.84295 176.077 7.7832 175.819 7.77643 175.556L5.84351 106.28L33.289 113.141L41.757 138.544C42.849 141.812 43.3217 145.256 43.1508 148.697L42.0993 173.322C42.0754 173.826 41.858 174.302 41.4923 174.651C41.1267 174.999 40.6409 175.193 40.1359 175.193H35.5326C35.0575 175.191 34.599 175.018 34.2412 174.705C33.8834 174.392 33.6503 173.961 33.5847 173.491L30.2945 146.308C30.007 144.188 29.2652 142.154 28.1198 140.347L21.645 130.095C21.6017 130.027 21.5383 129.973 21.4635 129.942C21.3887 129.911 21.3061 129.904 21.227 129.922C21.148 129.939 21.0763 129.981 21.0218 130.041C20.9673 130.101 20.9326 130.176 20.9226 130.257L15.8414 175.502C15.7869 175.961 15.5722 176.386 15.2351 176.702C14.898 177.018 14.4602 177.205 13.9988 177.231L9.85038 177.461C9.81306 177.463 9.77582 177.465 9.73848 177.465Z" fill="#2F2E41"/>
<path d="M28.7218 61.4278C34.0546 61.4278 38.3777 57.1048 38.3777 51.772C38.3777 46.4392 34.0546 42.1161 28.7218 42.1161C23.389 42.1161 19.0659 46.4392 19.0659 51.772C19.0659 57.1048 23.389 61.4278 28.7218 61.4278Z" fill="#FFB8B8"/>
<path d="M33.1575 115.958C32.9913 115.958 32.8259 115.937 32.6649 115.896H32.6646L5.43417 108.914C4.94731 108.789 4.52673 108.482 4.25889 108.057C3.99105 107.632 3.89631 107.12 3.99415 106.627L10.2479 72.9389C10.6375 70.9916 11.4939 69.1679 12.7436 67.6245C13.9933 66.081 15.5989 64.864 17.4225 64.0777C19.1995 63.2913 21.1427 62.9543 23.0807 63.0966C25.0187 63.2389 26.8918 63.8561 28.5348 64.8936C28.9161 65.1314 29.3001 65.3908 29.676 65.6645C31.1891 66.7807 32.4231 68.2323 33.2811 69.9055C34.1391 71.5786 34.5978 73.4278 34.6212 75.3079L35.1185 113.965C35.1218 114.225 35.0736 114.483 34.9767 114.724C34.8797 114.965 34.7359 115.185 34.5536 115.37C34.3712 115.556 34.154 115.703 33.9144 115.804C33.6747 115.905 33.4175 115.957 33.1575 115.958Z" fill="#99A8FF"/>
<path d="M8.23599 116.354C7.91116 115.876 7.69509 115.333 7.603 114.762C7.51091 114.192 7.54505 113.608 7.703 113.052C7.86095 112.496 8.13887 111.982 8.51719 111.545C8.89552 111.108 9.36504 110.759 9.89268 110.523L8.6815 96.5268L15.0999 100.005L15.266 112.763C15.6035 113.676 15.5944 114.681 15.2405 115.587C14.8866 116.494 14.2126 117.239 13.346 117.681C12.4795 118.124 11.4807 118.233 10.5389 117.989C9.59706 117.744 8.77768 117.163 8.236 116.354H8.23599Z" fill="#FFB8B8"/>
<path d="M10.529 108.672C10.3479 108.672 10.1675 108.649 9.99209 108.604C9.61474 108.508 9.2704 108.311 8.99552 108.036C8.72065 107.76 8.52545 107.415 8.43058 107.037L5.27635 94.5022C4.17404 90.1243 4.69952 85.4951 6.75504 81.4757L13.3632 68.5485C13.781 67.0008 14.7903 65.6792 16.1735 64.8689C17.5568 64.0585 19.2031 63.8243 20.7574 64.2167C21.5322 64.4124 22.2603 64.7598 22.8998 65.239C23.5392 65.7182 24.0771 66.3196 24.4824 67.0082C24.8959 67.7068 25.1664 68.4806 25.2781 69.2846C25.3897 70.0887 25.3403 70.907 25.1326 71.6917L15.7258 92.7269L15.8375 105.321C15.8404 105.766 15.7068 106.2 15.4548 106.566C15.2028 106.932 14.8445 107.212 14.4283 107.368L11.2804 108.537C11.04 108.626 10.7855 108.672 10.529 108.672Z" fill="#99A8FF"/>
<path d="M55.5574 111.206C54.9832 111.14 54.4304 110.95 53.9379 110.647C53.4453 110.345 53.0251 109.938 52.7068 109.456C52.3884 108.973 52.1797 108.427 52.0954 107.855C52.011 107.284 52.053 106.7 52.2185 106.147L40.8201 97.9342L47.6436 95.3388L57.4216 103.535C58.3335 103.875 59.0891 104.537 59.5452 105.397C60.0014 106.256 60.1264 107.253 59.8966 108.199C59.6669 109.144 59.0982 109.973 58.2985 110.527C57.4987 111.081 56.5234 111.323 55.5574 111.206H55.5574Z" fill="#FFB8B8"/>
<path d="M49.5905 105.209C49.2544 105.209 48.923 105.131 48.6223 104.98L37.0644 99.1945C33.0274 97.1739 29.8615 93.756 28.1556 89.5763L22.6684 76.1347C21.768 74.8083 21.4248 73.1812 21.7129 71.6041C22.001 70.0271 22.8974 68.6264 24.2087 67.7041C24.8638 67.2434 25.6041 66.9178 26.3864 66.7461C27.1687 66.5744 27.9774 66.5602 28.7653 66.7042C29.5624 66.8475 30.3231 67.1476 31.0034 67.5871C31.6837 68.0266 32.27 68.5967 32.7284 69.2644L42.5353 90.1163L52.1537 98.2474C52.4924 98.535 52.7346 98.9197 52.8476 99.3494C52.9606 99.7791 52.9389 100.233 52.7854 100.65L51.6179 103.799C51.4654 104.211 51.1901 104.568 50.8289 104.819C50.4658 105.073 50.0335 105.209 49.5905 105.209Z" fill="#99A8FF"/>
<path d="M26.6942 61.5756C27.2072 61.8001 28.2578 57.7121 27.7872 56.8945C27.0873 55.6786 27.1287 55.6873 26.6641 54.8828C26.1995 54.0784 26.0955 52.9772 26.6972 52.2694C27.2988 51.5616 28.6912 51.6555 28.9657 52.5429C28.7891 50.8572 30.4565 49.5022 32.1081 49.1214C33.7597 48.7406 35.5018 48.977 37.1626 48.6382C39.0899 48.2449 41.0952 46.6294 40.3262 44.51C40.1943 44.1571 39.9967 43.8324 39.744 43.553C38.8555 42.5541 37.6127 42.1275 36.3976 41.7151C33.8697 40.8571 31.2726 39.9883 28.6047 40.083C26.4065 40.1979 24.2895 40.9512 22.5128 42.2506C20.736 43.5499 19.3766 45.3391 18.6008 47.399C18.4169 47.9144 18.2745 48.4436 18.1748 48.9816C17.2591 53.9053 20.1184 58.762 24.7624 60.637L26.6942 61.5756Z" fill="#2F2E41"/>
<path d="M15.2931 105.607L15.5121 92.6615L22.3696 78.8737L16.8656 93.0267L15.2931 105.607Z" fill="#6D95E4"/>
<path d="M84.004 136.056L53.031 131.213C52.3526 131.109 51.7068 130.851 51.1429 130.46C50.5789 130.069 50.1116 129.554 49.7765 128.955C49.4346 128.35 49.2353 127.675 49.1937 126.981C49.1521 126.287 49.2694 125.593 49.5365 124.952C54.2608 113.441 56.2092 100.98 55.2241 88.5774C55.1657 87.8848 55.266 87.188 55.5174 86.5401C55.7688 85.8921 56.1647 85.31 56.675 84.8381C57.1769 84.37 57.7791 84.0226 58.4355 83.8223C59.092 83.622 59.7854 83.5741 60.4632 83.6822L91.4363 88.5254C92.5052 88.6957 93.4789 89.2398 94.1841 90.061C94.8893 90.8821 95.2801 91.9269 95.2869 93.0093C95.2551 106.567 93.1483 120.041 89.0396 132.961C88.7027 133.99 88.0117 134.866 87.0895 135.432C86.1673 135.999 85.0739 136.22 84.004 136.056Z" fill="#D0D6FD"/>
<path d="M60.0986 86.0127C59.7732 85.9607 59.4401 85.9836 59.1249 86.0797C58.8096 86.1757 58.5204 86.3425 58.2792 86.5672C58.0311 86.7972 57.8387 87.0808 57.7167 87.3964C57.5947 87.712 57.5463 88.0512 57.5752 88.3884C58.5897 101.162 56.583 113.995 51.7176 125.85C51.5872 126.162 51.5297 126.499 51.5495 126.837C51.5693 127.175 51.6659 127.504 51.8319 127.798L51.832 127.799C51.993 128.086 52.2175 128.333 52.4884 128.521C52.7593 128.709 53.0694 128.832 53.3952 128.882L84.3683 133.725C84.8818 133.806 85.4073 133.701 85.851 133.431C86.2948 133.16 86.628 132.741 86.7915 132.247C90.8272 119.556 92.8967 106.321 92.9279 93.0032C92.9229 92.4834 92.7336 91.9823 92.3937 91.5891C92.0538 91.1958 91.5853 90.936 91.0717 90.8559L60.0986 86.0127Z" fill="white"/>
<path d="M70.5021 119.681C75.4489 120.365 80.0134 116.909 80.6971 111.962C81.3809 107.015 77.925 102.451 72.9782 101.767C68.0313 101.083 63.4668 104.539 62.7831 109.486C62.0993 114.433 65.5552 118.998 70.5021 119.681Z" fill="#79A6FF"/>
<path d="M76.1854 110.148L73.0699 109.717L73.5006 106.602C73.5434 106.292 73.4614 105.978 73.2726 105.729C73.0837 105.479 72.8036 105.315 72.4937 105.272C72.1839 105.229 71.8697 105.311 71.6203 105.5C71.3709 105.689 71.2068 105.969 71.1639 106.279L70.7333 109.394L67.6178 108.964C67.308 108.921 66.9938 109.003 66.7444 109.192C66.495 109.381 66.3309 109.661 66.288 109.971C66.2452 110.281 66.3272 110.595 66.516 110.844C66.7048 111.093 66.985 111.258 67.2949 111.3L70.4103 111.731L69.9797 114.847C69.9369 115.156 70.0189 115.471 70.2077 115.72C70.3965 115.969 70.6767 116.134 70.9865 116.176C71.2964 116.219 71.6106 116.137 71.86 115.948C72.1094 115.76 72.2735 115.479 72.3163 115.17L72.747 112.054L75.8624 112.485C76.1723 112.527 76.4865 112.445 76.7359 112.257C76.9853 112.068 77.1494 111.788 77.1922 111.478C77.2351 111.168 77.1531 110.854 76.9642 110.604C76.7754 110.355 76.4953 110.191 76.1854 110.148Z" fill="white"/>
<path d="M55.4325 188.228H0.393138C0.288872 188.228 0.188881 188.187 0.115153 188.113C0.0414255 188.039 0 187.939 0 187.835C0 187.731 0.0414255 187.631 0.115153 187.557C0.188881 187.483 0.288872 187.442 0.393138 187.442H55.4325C55.5368 187.442 55.6368 187.483 55.7105 187.557C55.7843 187.631 55.8257 187.731 55.8257 187.835C55.8257 187.939 55.7843 188.039 55.7105 188.113C55.6368 188.187 55.5368 188.228 55.4325 188.228Z" fill="#CCCCCC"/>
<g opacity="0.5">
<path d="M176.353 59.929C176.03 59.9278 175.714 59.8378 175.44 59.6683C175.166 59.4988 174.944 59.2569 174.799 58.9689L171.116 51.6201L167.433 58.9689C167.127 59.477 166.584 59.7953 165.991 59.8136C165.398 59.832 164.837 59.5479 164.5 59.0597C164.163 58.5715 164.098 57.9454 164.326 57.398L169.562 46.9247C169.759 46.5417 170.09 46.2444 170.492 46.0905C170.893 45.9366 171.338 45.9366 171.74 46.0905C172.142 46.2444 172.473 46.5417 172.669 46.9247L177.906 57.398C178.113 57.8102 178.149 58.2875 178.005 58.7258C177.861 59.1641 177.549 59.5276 177.138 59.7369C176.896 59.8662 176.626 59.9321 176.353 59.929H176.353Z" fill="#99A8FF"/>
<path d="M174.607 58.1834H167.625C167.001 58.1834 166.425 57.8507 166.113 57.3107C165.801 56.7706 165.801 56.1051 166.113 55.5651C166.425 55.0251 167.001 54.6923 167.625 54.6923H174.607C175.231 54.6923 175.807 55.0251 176.119 55.5651C176.43 56.1051 176.43 56.7706 176.119 57.3107C175.807 57.8507 175.231 58.1834 174.607 58.1834Z" fill="#99A8FF"/>
</g>
<g opacity="0.5">
<path d="M107.585 32.5507C106.601 32.5884 105.657 32.161 105.037 31.3965C104.643 30.8865 104.52 30.2174 104.707 29.6003C104.894 28.9836 105.368 28.4958 105.979 28.291C106.591 28.0862 107.263 28.1901 107.784 28.57C110.161 27.6352 112.273 26.1318 113.934 24.1912H104.599C103.888 24.1912 103.231 23.8118 102.876 23.196C102.52 22.5803 102.52 21.8215 102.876 21.2057C103.231 20.5899 103.888 20.2105 104.599 20.2105H116.542C117.147 20.2132 117.718 20.4918 118.094 20.9667C119.746 22.957 118.313 26.1216 114.113 29.4457C112.834 30.5328 111.415 31.4431 109.894 32.1527C109.155 32.4272 108.373 32.5623 107.585 32.5507L107.585 32.5507Z" fill="#99A8FF"/>
<path d="M110.57 24.1912C110.043 24.1912 109.536 23.9815 109.163 23.6083C108.79 23.2351 108.58 22.7287 108.58 22.2009V18.2202C108.58 17.5089 108.959 16.8518 109.575 16.4964C110.191 16.141 110.95 16.141 111.565 16.4964C112.181 16.8518 112.561 17.5089 112.561 18.2202V22.2009C112.561 22.7287 112.351 23.2351 111.978 23.6083C111.605 23.9815 111.098 24.1912 110.57 24.1912Z" fill="#99A8FF"/>
</g>
</svg>
