<svg xmlns="http://www.w3.org/2000/svg" width="24.162" height="23.103" viewBox="0 0 24.162 23.103">
    <g id="Group_7145" data-name="Group 7145" transform="translate(643.87 -842.1)">
            <g id="Group_7146" data-name="Group 7146" transform="translate(-642.749 843.1)">
                <path id="Path_14315" data-name="Path 14315" style="stroke-linecap:round;stroke-miterlimit:10;stroke-width:2px;fill:none;stroke:#3699FF" d="m-544.5 855.736 3.765-3.75a1.013 1.013 0 0 0 .005-1.43l-7.07-7.156a1.013 1.013 0 0 0-1.436 0l-6.579 6.576a1.013 1.013 0 0 0 0 1.437l1.159 1.146a1.013 1.013 0 0 0 1.422 0l4.235-4.165" transform="translate(562.357 -843.1)"></path>
                <path id="Path_14316" data-name="Path 14316" style="stroke-linecap:round;stroke-miterlimit:10;stroke-width:2px;fill:none;stroke:#3699FF" d="m-496.571 935.384 6.87 6.572a1.013 1.013 0 0 1 0 1.425l-5.7 5.761a1.013 1.013 0 0 1-1.392.045l-1.2-1.069" transform="translate(508.428 -928.444)"></path>
                <path id="Path_14317" class="menuicon-light-part" data-name="Path 14317" style="stroke-linecap:round;stroke-miterlimit:10;stroke-width:2px;fill:none;stroke:#3699FF" d="m-631.9 850.063-1.907-1.924a1.013 1.013 0 0 0-1.441 0l-7.208 7.322a1.013 1.013 0 0 0 .007 1.429l3.165 3.15" transform="translate(642.749 -847.497)"></path>
                <path id="Path_14318" class="menuicon-light-part" data-name="Path 14318" style="stroke-linecap:round;stroke-miterlimit:10;stroke-width:2px;fill:none;stroke:#3699FF" d="m-609.5 1006.035 1.622-1.591a1.013 1.013 0 0 1 1.416 0l5.578 5.429a1.013 1.013 0 0 1 .025 1.426l-1.653 1.727a1.013 1.013 0 0 1-1.449.015l-5.547-5.564a1.013 1.013 0 0 1 .008-1.442z" transform="translate(612.174 -992.552)"></path>
                <path id="Line_32113" data-name="Line 32113" style="stroke-width:1.5px;fill:none;stroke:#3699FF" transform="translate(3.863 13.97)" d="M2.881 0 0 2.881"></path>
                <path id="Line_32114" data-name="Line 32114" style="stroke-width:1.5px;fill:none;stroke:#3699FF" transform="translate(6.718 15.89)" d="M2.881 0 0 2.881"></path>
            </g>
        </g>
</svg>