<svg width="23" height="20" viewBox="0 0 23 20" fill="none" xmlns="http://www.w3.org/2000/svg">
<path d="M8.00643 18.3392C7.842 18.2576 7.63269 18.2123 7.41696 18.211L7.31391 18.2105C6.51284 18.206 5.68474 18.2015 4.86993 18.2015C4.19252 18.2015 3.58885 18.2047 3.02503 18.211H3.00854C2.67785 18.211 2.37739 18.0953 2.1635 17.8845C1.94365 17.6684 1.82823 17.3734 1.8296 17.0313C1.84426 13.6702 1.84288 10.2527 1.84151 6.9481C1.84105 5.61641 1.84059 4.28472 1.84105 2.95303V2.94362C1.84105 2.81179 1.84105 2.68714 1.86899 2.57774C1.9954 2.08093 2.43327 1.7841 3.03969 1.7841C5.26703 1.78455 7.49483 1.78455 9.72262 1.78455C11.7997 1.78455 13.8773 1.78455 15.9544 1.785C16.744 1.785 17.1792 2.21051 17.1801 2.98307C17.1805 3.29111 17.1801 3.59915 17.1796 3.90674C17.1792 4.52102 17.1787 5.15637 17.1824 5.78141C17.1856 6.29212 17.5831 6.69342 18.0902 6.69521C18.5963 6.69521 18.9943 6.29526 18.9961 5.785L18.9966 5.65228C19.0002 4.68961 19.0044 3.69465 18.9892 2.71494C18.9851 2.45802 18.9338 2.18137 18.8404 1.91458C18.4286 0.737137 17.35 0.0044838 16.0259 0.00313866C14.3491 0.00089676 12.5413 0 10.499 0C8.29498 0 6.09054 0.00134514 3.88656 0.0022419L2.97327 0.00269028C2.81709 0.00269028 2.61235 0.00807085 2.41174 0.0484251C0.925933 0.349288 0.00256916 1.46127 0.00256916 2.95079C0.00211115 4.67705 0.00256916 6.40332 0.00256916 8.12958V10.0007C0.00256916 10.6889 0.00211115 11.3772 0.00119511 12.0655C-0.000178944 13.7361 -0.00201102 15.4642 0.00623331 17.1635C0.0112715 18.2038 0.486694 19.018 1.41922 19.5839C1.86304 19.8534 2.33342 19.9915 2.81617 19.9942C3.51557 19.9982 4.25481 20 5.14336 20C5.84138 20 6.5394 19.9987 7.23742 19.9978L7.54979 19.9973C7.9762 19.9969 8.3243 19.731 8.43651 19.3207C8.54414 18.9284 8.36323 18.5159 8.00643 18.3392Z" fill="#3698FF"/>
<path d="M22.7105 16.1966C21.1601 13.631 19.529 10.9378 17.7237 7.96387C17.3574 7.36027 16.7153 7 16.0057 7C15.2976 7 14.656 7.35937 14.2892 7.96117C13.9667 8.49055 13.6457 9.02084 13.3247 9.55112L11.9631 11.7987C11.0912 13.2384 10.189 14.7271 9.30047 16.1907C8.99597 16.6918 8.92373 17.1771 9.08 17.6741C9.34296 18.5124 10.0539 18.9951 11.0303 18.9978C11.7129 18.9996 12.396 19 13.0787 19C13.5607 19 14.0427 18.9996 14.5243 18.9996C15.0063 18.9991 15.4883 18.9991 15.9699 18.9991L18.2968 18.9996C19.1575 18.9996 20.0186 18.9991 20.8821 18.9973C21.0874 18.9969 21.2994 18.9964 21.509 18.9501C22.119 18.8151 22.6052 18.4382 22.8437 17.916C23.0915 17.3736 23.0429 16.7466 22.7105 16.1966ZM16.1035 8.87421L16.1261 8.91244C17.7605 11.6106 19.395 14.3084 21.0289 17.0066C21.0903 17.1078 21.1068 17.1627 21.111 17.187C21.0865 17.196 21.0275 17.2094 20.9024 17.2094H16.026C16.026 17.2094 11.8333 17.2094 11.1025 17.2094C10.9821 17.2094 10.9245 17.1964 10.9 17.1879C10.9047 17.1627 10.9217 17.1064 10.9849 17.0021C12.1812 15.028 13.378 13.054 14.5748 11.0799L15.9033 8.88861C15.9123 8.87376 15.9212 8.85847 15.9297 8.84318C15.9458 8.81529 15.9609 8.78921 15.9755 8.76942C15.9878 8.75322 15.9977 8.74243 16.0057 8.73478C16.0142 8.74288 16.026 8.75547 16.0402 8.77436C16.061 8.80315 16.0817 8.83778 16.1035 8.87421Z" fill="#3698FF"/>
<path d="M14 6.00591C14.0022 5.73351 13.9111 5.48333 13.7439 5.30173C13.5648 5.10735 13.3083 5.00047 13.021 5.00047C12.4399 5.00047 11.8591 5 11.2783 5H7.87787C7.87787 5 5.57423 5 4.98512 5C4.69914 5 4.44088 5.10925 4.2583 5.30646C4.08979 5.489 3.99784 5.73682 4.00004 6.00355C4.004 6.57058 4.4224 6.99858 4.9728 6.99905C6.30193 6.99953 7.63061 7 8.95974 7C10.3166 7 11.6739 6.99953 13.0307 6.99905C13.5882 6.99953 13.9956 6.58146 14 6.00591Z" fill="#3698FF"/>
<path d="M10.1179 9.00235C9.7462 9.00047 9.37489 9 9.00315 9C8.76127 9 8.51939 9 8.27751 9.00047C8.03562 9.00047 7.79374 9.00094 7.55186 9.00094H7.51197C7.26117 9.00094 7.01038 9.00094 6.76001 9.00047C6.50115 9.00047 6.24272 9 5.98386 9C5.62486 9 5.26543 9.00047 4.90642 9.00188C4.39932 9.00423 4.00127 9.44085 4 9.99624C3.99958 10.2638 4.09294 10.5155 4.26353 10.7052C4.43412 10.8944 4.66157 10.9991 4.9043 10.9991C5.60916 10.9995 6.31359 11 7.01844 11C8.14638 11 9.1521 10.9991 10.0933 10.9967C10.1892 10.9967 10.3327 10.9822 10.4718 10.9155C10.8321 10.7427 11.0664 10.2399 10.9832 9.81784C10.8847 9.3169 10.5533 9.00423 10.1179 9.00235Z" fill="#3698FF"/>
<path d="M8.99567 14.0014C8.33914 14.0005 7.68306 14 7.02652 14C6.35428 14 5.68204 14.0005 5.01025 14.0014C4.44168 14.0023 4.00728 14.4268 4.0001 14.9886C3.99651 15.2558 4.0912 15.5048 4.26666 15.69C4.45559 15.8888 4.72125 15.9986 5.01474 15.9995C5.27412 16 5.5335 16 5.79289 16L6.98524 15.9995L8.1906 16C8.46075 16 8.73091 15.9995 9.00061 15.9991C9.27525 15.9981 9.52835 15.8967 9.71234 15.7138C9.89902 15.5285 10.0009 15.2739 9.99999 14.9979C9.99775 14.4305 9.56605 14.0023 8.99567 14.0014Z" fill="#3698FF"/>
<path d="M15.1628 12.1155C15.0543 12.1963 14.9994 12.3118 15 12.4579C15.004 13.5123 15.0051 13.5476 15.004 14.535C15.0034 14.8188 15.2211 14.9911 15.5858 14.9969C15.756 14.9996 15.9233 15 16.0494 15L16.4079 14.9996C16.5967 14.9996 16.7449 14.9578 16.8478 14.8752C16.9518 14.7921 17.0027 14.6736 16.9999 14.523C16.9925 14.1632 16.9942 14.7964 16.9954 14.4419C16.9959 14.294 16.9965 14.1461 16.9965 13.9982C16.9965 13.8552 16.9959 13.7122 16.9954 13.5692C16.9942 13.2099 16.9925 12.8381 16.9993 12.473C17.0022 12.3229 16.9507 12.2052 16.8478 12.123C16.7455 12.0413 16.5979 12 16.4096 12H16.4034C16.3106 12.0004 16.2179 12.0004 16.1246 12.0004H15.5863C15.4077 12.0004 15.2652 12.0391 15.1628 12.1155Z" fill="#3698FF"/>
<path d="M16.0792 15.5016H16.0175C15.9739 15.5016 15.9309 15.5013 15.8873 15.501C15.8414 15.5006 15.795 15.5 15.7491 15.5C15.6772 15.5 15.6178 15.501 15.5611 15.5032C15.1954 15.5173 15.0068 15.65 15 15.8969C14.9926 16.1846 15.0374 16.4848 15.5781 16.5253C15.6172 16.5282 15.6529 16.5285 15.6761 16.5285C15.6897 16.5285 15.7384 16.5278 15.7497 16.5278H16.2565C16.8793 16.5275 16.9982 16.1695 16.9982 16.0533C16.9988 15.8157 16.9988 15.685 16.8369 15.5928C16.6766 15.5016 16.4388 15.5016 16.0792 15.5016Z" fill="#3698FF"/>
</svg>
