<svg xmlns="http://www.w3.org/2000/svg" width="24.144" height="24.144" viewBox="0 0 24.144 24.144">
    <path data-name="Path 14322" d="M48.406 37.6a2.293 2.293 0 0 1-.119-3.114.19.19 0 0 0-.011-.258l-2.167-2.17a.191.191 0 0 0-.27 0l-3.454 3.454a1.16 1.16 0 0 0-.28.454 1.162 1.162 0 0 1-.734.737 1.164 1.164 0 0 0-.454.28l-8.859 8.857a.191.191 0 0 0 0 .27l2.167 2.167a.19.19 0 0 0 .258.011 2.293 2.293 0 0 1 3.233 3.233.19.19 0 0 0 .011.258l2.167 2.167a.191.191 0 0 0 .27 0l8.859-8.858a1.164 1.164 0 0 0 .28-.454 1.162 1.162 0 0 1 .734-.737 1.16 1.16 0 0 0 .454-.28l3.454-3.454a.191.191 0 0 0 0-.27l-2.167-2.167a.19.19 0 0 0-.258-.011 2.293 2.293 0 0 1-3.114-.115z" style="fill:none;stroke:#3699FF;stroke-miterlimit:10;stroke-width:2px" transform="translate(-30.929 -30.929)"></path>
    <path data-name="Path 14323" class="menuicon-light-part" d="m234.8 124.741-.811-.811m2.972 2.972-.541-.54m2.7 2.7-.54-.541m2.972 2.972-.811-.811" transform="translate(-222.999 -118.343)" style="stroke-linecap:round;fill:none;stroke:#3699FF;stroke-miterlimit:10;stroke-width:2px"></path>
</svg>