<svg width="26" height="22" viewBox="0 0 26 22" fill="none" xmlns="http://www.w3.org/2000/svg">
<path d="M7.75 12.75H2.5C1.5335 12.75 0.75 13.5335 0.75 14.5V19.75C0.75 20.7165 1.5335 21.5 2.5 21.5H7.75C8.7165 21.5 9.5 20.7165 9.5 19.75V14.5C9.5 13.5335 8.7165 12.75 7.75 12.75Z" fill="#A5D0FF"/>
<path d="M5.125 8.375C4.7802 8.37599 4.43865 8.30843 4.12019 8.17624C3.80174 8.04405 3.51274 7.84988 3.27 7.605L2.395 6.73C2.02835 6.3629 1.77872 5.89537 1.67762 5.38648C1.57653 4.87758 1.62851 4.35014 1.827 3.87077C2.02549 3.3914 2.36158 2.9816 2.79284 2.69313C3.22409 2.40466 3.73116 2.25046 4.25 2.25C4.45032 2.25118 4.64988 2.27465 4.845 2.32L6.665 0.5H2.5C2.0363 0.501385 1.59198 0.686204 1.26409 1.01409C0.936204 1.34198 0.751385 1.7863 0.75 2.25V7.5C0.751385 7.9637 0.936204 8.40802 1.26409 8.73591C1.59198 9.0638 2.0363 9.24862 2.5 9.25H7.75C8.2137 9.24862 8.65802 9.0638 8.98591 8.73591C9.3138 8.40802 9.49862 7.9637 9.5 7.5V5.085L6.98 7.605C6.73726 7.84988 6.44826 8.04405 6.12981 8.17624C5.81135 8.30843 5.4698 8.37599 5.125 8.375Z" fill="#4F8AFF"/>
<path d="M12.125 4H24.375C24.6071 4 24.8296 3.90781 24.9937 3.74372C25.1578 3.57962 25.25 3.35706 25.25 3.125C25.25 2.89294 25.1578 2.67038 24.9937 2.50628C24.8296 2.34219 24.6071 2.25 24.375 2.25H12.125C11.8929 2.25 11.6704 2.34219 11.5063 2.50628C11.3422 2.67038 11.25 2.89294 11.25 3.125C11.25 3.35706 11.3422 3.57962 11.5063 3.74372C11.6704 3.90781 11.8929 4 12.125 4Z" fill="#A5D0FF"/>
<path d="M12.125 7.5H20C20.2321 7.5 20.4546 7.40781 20.6187 7.24372C20.7828 7.07962 20.875 6.85706 20.875 6.625C20.875 6.39294 20.7828 6.17038 20.6187 6.00628C20.4546 5.84219 20.2321 5.75 20 5.75H12.125C11.8929 5.75 11.6704 5.84219 11.5063 6.00628C11.3422 6.17038 11.25 6.39294 11.25 6.625C11.25 6.85706 11.3422 7.07962 11.5063 7.24372C11.6704 7.40781 11.8929 7.5 12.125 7.5Z" fill="#A5D0FF"/>
<path d="M24.375 14.5H12.125C11.8929 14.5 11.6704 14.5922 11.5063 14.7563C11.3422 14.9204 11.25 15.1429 11.25 15.375C11.25 15.6071 11.3422 15.8296 11.5063 15.9937C11.6704 16.1578 11.8929 16.25 12.125 16.25H24.375C24.6071 16.25 24.8296 16.1578 24.9937 15.9937C25.1578 15.8296 25.25 15.6071 25.25 15.375C25.25 15.1429 25.1578 14.9204 24.9937 14.7563C24.8296 14.5922 24.6071 14.5 24.375 14.5Z" fill="#A5D0FF"/>
<path d="M20 18H12.125C11.8929 18 11.6704 18.0922 11.5063 18.2563C11.3422 18.4204 11.25 18.6429 11.25 18.875C11.25 19.1071 11.3422 19.3296 11.5063 19.4937C11.6704 19.6578 11.8929 19.75 12.125 19.75H20C20.2321 19.75 20.4546 19.6578 20.6187 19.4937C20.7828 19.3296 20.875 19.1071 20.875 18.875C20.875 18.6429 20.7828 18.4204 20.6187 18.2563C20.4546 18.0922 20.2321 18 20 18Z" fill="#A5D0FF"/>
<path d="M8.00637 1.63139L5.12499 4.51276L4.86862 4.25638C4.70359 4.097 4.48256 4.0088 4.25314 4.0108C4.02372 4.01279 3.80426 4.10481 3.64202 4.26704C3.47979 4.42928 3.38777 4.64874 3.38578 4.87816C3.38378 5.10758 3.47198 5.32861 3.63137 5.49363L4.50637 6.36863C4.67045 6.53267 4.89297 6.62482 5.12499 6.62482C5.35701 6.62482 5.57953 6.53267 5.74362 6.36863L9.24362 2.86863C9.32719 2.78792 9.39385 2.69137 9.4397 2.58461C9.48556 2.47786 9.5097 2.36304 9.51071 2.24686C9.51172 2.13068 9.48958 2.01546 9.44558 1.90793C9.40159 1.80039 9.33662 1.7027 9.25446 1.62054C9.1723 1.53838 9.07461 1.47341 8.96707 1.42942C8.85954 1.38542 8.74432 1.36328 8.62814 1.36429C8.51196 1.3653 8.39714 1.38944 8.29039 1.4353C8.18363 1.48115 8.08708 1.54781 8.00637 1.63139Z" fill="#4F8AFF"/>
</svg>
