<svg width="187" height="184" viewBox="0 0 187 184" fill="none" xmlns="http://www.w3.org/2000/svg">
<path opacity="0.58" d="M146.499 72.9397C146.499 87.75 137.762 99.7358 126.962 99.7358" stroke="#AEBEDB" stroke-linecap="round" stroke-linejoin="round"/>
<path d="M151.302 67.5582C151.302 63.9475 149.334 61.0171 146.915 61.0171C144.496 61.0171 142.528 63.944 142.528 67.5582C142.528 71.1725 144.494 74.0898 146.915 74.0898C149.336 74.0898 151.302 71.1689 151.302 67.5582Z" fill="#E1EFF5" stroke="#AEBEDB" stroke-linecap="round" stroke-linejoin="round"/>
<path opacity="0.58" d="M32.0959 72.9397C32.0959 87.75 40.8327 99.7358 51.6322 99.7358" stroke="#AEBEDB" stroke-linecap="round" stroke-linejoin="round"/>
<path d="M27.2932 67.5582C27.2932 63.9475 29.262 61.0171 31.6806 61.0171C34.0993 61.0171 36.068 63.944 36.068 67.5582C36.068 71.1725 34.1017 74.0898 31.6806 74.0898C29.2596 74.0898 27.2932 71.1689 27.2932 67.5582Z" fill="#E1EFF5" stroke="#AEBEDB" stroke-linecap="round" stroke-linejoin="round"/>
<g opacity="0.74">
<path d="M59.2575 127.699C57.1948 127.657 55.2329 126.8 53.8016 125.316C52.3702 123.831 51.5864 121.84 51.6218 119.779V46.3067C51.587 44.2464 52.3713 42.2564 53.8026 40.773C55.234 39.2896 57.1956 38.4337 59.2575 38.3931H111.63C113.693 38.4334 115.655 39.289 117.087 40.7724C118.519 42.2558 119.304 44.246 119.27 46.3067V119.779C119.305 121.841 118.52 123.832 117.088 125.317C115.656 126.801 113.694 127.658 111.63 127.699H59.2575Z" fill="#EBF0FF"/>
<path d="M117.619 34.0641C119.581 34.0634 121.464 34.8414 122.852 36.2269C124.241 37.6125 125.022 39.4923 125.025 41.4532V119.306C125.024 120.277 124.833 121.239 124.46 122.137C124.088 123.034 123.542 123.849 122.854 124.536C122.167 125.223 121.35 125.767 120.452 126.139C119.554 126.51 118.591 126.701 117.619 126.701H60.0168C59.0448 126.701 58.0822 126.51 57.1841 126.139C56.286 125.767 55.4699 125.222 54.7826 124.536C54.0953 123.849 53.5501 123.034 53.1783 122.136C52.8065 121.239 52.6152 120.277 52.6155 119.306V41.4532C52.6159 40.4824 52.8075 39.5212 53.1797 38.6245C53.5518 37.7277 54.0971 36.913 54.7844 36.2269C55.4717 35.5407 56.2875 34.9966 57.1853 34.6255C58.0831 34.2544 59.0452 34.0636 60.0168 34.0641H117.619ZM117.619 32.0708H60.0168C57.5264 32.0727 55.1384 33.0616 53.3769 34.8206C51.6153 36.5795 50.6241 38.9649 50.6206 41.4532V119.306C50.6225 121.795 51.6131 124.182 53.3748 125.942C55.1365 127.703 57.5254 128.692 60.0168 128.694H117.619C120.111 128.694 122.502 127.705 124.265 125.945C126.029 124.184 127.02 121.796 127.022 119.306V41.4532C127.018 38.9636 126.026 36.5772 124.263 34.818C122.5 33.0589 120.11 32.0708 117.619 32.0708Z" fill="#AEBEDB"/>
</g>
<path d="M112.747 34.0625H98.537C103.11 38.2845 106.755 43.4093 109.242 49.1122C111.729 54.8152 113.003 60.972 112.985 67.1928C112.985 90.8658 94.6912 110.619 72.7743 110.619C65.6175 110.59 58.6197 108.507 52.6143 104.618V119.304C52.5441 121.191 53.2252 123.029 54.5085 124.415C55.7918 125.801 57.5726 126.623 59.4609 126.699H112.747C114.636 126.623 116.417 125.802 117.701 124.416C118.985 123.03 119.667 121.192 119.597 119.304V41.4516C119.665 39.5651 118.983 37.7283 117.699 36.3434C116.415 34.9585 114.635 34.1383 112.747 34.0625Z" fill="#DEEBFB"/>
<path d="M23.7724 27.0066C31.2363 27.0066 37.287 20.9609 37.287 13.5033C37.287 6.04563 31.2363 0 23.7724 0C16.3085 0 10.2578 6.04563 10.2578 13.5033C10.2578 20.9609 16.3085 27.0066 23.7724 27.0066Z" fill="#DEEBFB" fill-opacity="0.63"/>
<path d="M169.899 47.2629C174.097 47.2629 177.501 43.862 177.501 39.6668C177.501 35.4717 174.097 32.0708 169.899 32.0708C165.7 32.0708 162.296 35.4717 162.296 39.6668C162.296 43.862 165.7 47.2629 169.899 47.2629Z" fill="#DEEBFB" fill-opacity="0.63"/>
<path opacity="0.49" d="M6.87854 111.401C8.74418 111.401 10.2566 109.889 10.2566 108.025C10.2566 106.161 8.74418 104.65 6.87854 104.65C5.01289 104.65 3.50049 106.161 3.50049 108.025C3.50049 109.889 5.01289 111.401 6.87854 111.401Z" fill="#EBF0FF"/>
<path d="M77.5426 93.053C77.5421 94.2337 77.1913 95.3878 76.5344 96.3692C75.8776 97.3507 74.9442 98.1156 73.8523 98.5671C72.7604 99.0186 71.5591 99.1365 70.4001 98.9059C69.2412 98.6752 68.1767 98.1064 67.3413 97.2714C66.5059 96.4363 65.937 95.3725 65.7067 94.2145C65.4763 93.0564 65.5948 91.8561 66.0471 90.7653C66.4994 89.6745 67.2653 88.7423 68.2479 88.0863C69.2305 87.4304 70.3856 87.0803 71.5673 87.0803C72.3522 87.0805 73.1293 87.2351 73.8543 87.5353C74.5793 87.8356 75.2381 88.2756 75.793 88.8302C76.3478 89.3848 76.7879 90.0431 77.0881 90.7677C77.3883 91.4922 77.5427 92.2688 77.5426 93.053Z" fill="#AEBEDB"/>
<path d="M72.5469 91.2809C72.5469 91.8375 72.3818 92.3817 72.0723 92.8446C71.7628 93.3075 71.3229 93.6683 70.8083 93.8814C70.2936 94.0946 69.7272 94.1505 69.1808 94.042C68.6343 93.9336 68.1323 93.6657 67.7381 93.2723C67.344 92.8788 67.0755 92.3774 66.9665 91.8315C66.8576 91.2856 66.913 90.7197 67.1259 90.2053C67.3388 89.6908 67.6995 89.251 68.1625 88.9414C68.6255 88.6318 69.17 88.4663 69.7272 88.4658C70.0973 88.4657 70.4638 88.5384 70.8059 88.6797C71.1479 88.8211 71.4587 89.0284 71.7206 89.2898C71.9824 89.5512 72.1901 89.8616 72.3319 90.2032C72.4737 90.5449 72.5468 90.911 72.5469 91.2809Z" fill="white"/>
<path d="M73.8169 94.3648C73.8158 94.557 73.7576 94.7445 73.6499 94.9038C73.5421 95.063 73.3896 95.1868 73.2115 95.2594C73.0334 95.3321 72.8378 95.3505 72.6493 95.3122C72.4607 95.2739 72.2878 95.1806 72.1523 95.0442C72.0168 94.9078 71.9247 94.7344 71.8878 94.5457C71.8508 94.3571 71.8706 94.1618 71.9447 93.9844C72.0187 93.807 72.1437 93.6554 72.3038 93.549C72.464 93.4425 72.6521 93.3858 72.8445 93.386C72.9729 93.3857 73.1001 93.4108 73.2186 93.46C73.3372 93.5091 73.4449 93.5813 73.5353 93.6724C73.6258 93.7634 73.6973 93.8715 73.7456 93.9904C73.7939 94.1092 73.8182 94.2365 73.8169 94.3648Z" fill="white"/>
<path d="M112.042 93.053C112.041 94.2331 111.69 95.3865 111.033 96.3673C110.376 97.3481 109.443 98.1122 108.352 98.5632C107.26 99.0142 106.059 99.1317 104.901 98.9009C103.743 98.67 102.679 98.1013 101.844 97.2665C101.009 96.4317 100.441 95.3683 100.211 94.2108C99.9805 93.0532 100.099 91.8535 100.551 90.7633C101.004 89.6731 101.769 88.7413 102.751 88.0858C103.733 87.4302 104.888 87.0803 106.069 87.0803C107.654 87.0813 109.173 87.711 110.293 88.831C111.413 89.951 112.042 91.4697 112.042 93.053Z" fill="#AEBEDB"/>
<path d="M107.045 91.2809C107.045 91.8379 106.88 92.3825 106.571 92.8457C106.261 93.309 105.821 93.6701 105.306 93.8835C104.791 94.0969 104.225 94.1529 103.678 94.0444C103.131 93.936 102.629 93.668 102.234 93.2743C101.84 92.8806 101.571 92.3789 101.462 91.8327C101.353 91.2864 101.409 90.7201 101.622 90.2054C101.835 89.6907 102.196 89.2507 102.66 88.9411C103.123 88.6314 103.668 88.4661 104.225 88.4658C104.973 88.4661 105.689 88.7627 106.218 89.2905C106.747 89.8183 107.044 90.5342 107.045 91.2809Z" fill="white"/>
<path d="M108.324 94.3648C108.323 94.5577 108.265 94.746 108.157 94.906C108.049 95.066 107.896 95.1904 107.718 95.2636C107.539 95.3367 107.343 95.3553 107.154 95.317C106.965 95.2787 106.791 95.1851 106.655 95.0483C106.519 94.9114 106.427 94.7373 106.39 94.548C106.353 94.3587 106.373 94.1626 106.447 93.9847C106.522 93.8068 106.647 93.6549 106.808 93.5484C106.969 93.4418 107.158 93.3853 107.351 93.386C107.479 93.3865 107.606 93.4122 107.724 93.4616C107.843 93.511 107.95 93.5833 108.04 93.6742C108.131 93.765 108.202 93.8728 108.251 93.9913C108.299 94.1098 108.324 94.2367 108.324 94.3648Z" fill="white"/>
<path d="M102.235 113.182C100.319 111.235 98.0267 109.696 95.4976 108.661C92.9684 107.625 90.2551 107.113 87.5222 107.157C82.3392 107.289 77.4162 109.453 73.8171 113.182" stroke="#AEBEDB" stroke-linecap="round" stroke-linejoin="round"/>
<g opacity="0.52">
<path d="M92.0903 127.437V158.008" stroke="#AEBEDB" stroke-linecap="round" stroke-linejoin="round"/>
<path d="M98.05 161.265C94.4387 161.265 91.5034 159.301 91.5034 156.877C91.5034 154.453 94.4375 152.493 98.05 152.493C101.663 152.493 104.585 154.458 104.585 156.877C104.585 159.296 101.653 161.265 98.05 161.265Z" fill="#EFF3F6" stroke="#AEBEDB" stroke-linecap="round" stroke-linejoin="round"/>
<path d="M85.5498 127.437V158.008" stroke="#AEBEDB" stroke-linecap="round" stroke-linejoin="round"/>
<path d="M79.5864 161.265C83.2013 161.265 86.1258 159.301 86.1258 156.877C86.1258 154.453 83.2013 152.493 79.5864 152.493C75.9715 152.493 73.0481 154.458 73.0481 156.877C73.0481 159.296 75.9726 161.265 79.5864 161.265Z" fill="#EFF3F6" stroke="#AEBEDB" stroke-linecap="round" stroke-linejoin="round"/>
</g>
<mask id="mask0_1743_314" style="mask-type:alpha" maskUnits="userSpaceOnUse" x="0" y="158" width="187" height="26">
<rect y="158" width="187" height="26" fill="#D9D9D9"/>
</mask>
<g mask="url(#mask0_1743_314)">
<ellipse cx="90.5" cy="178.5" rx="87.5" ry="17.5" fill="url(#paint0_linear_1743_314)" fill-opacity="0.75"/>
</g>
<defs>
<linearGradient id="paint0_linear_1743_314" x1="90.5" y1="161" x2="90.5" y2="178.787" gradientUnits="userSpaceOnUse">
<stop stop-color="#DEEBFB"/>
<stop offset="1" stop-color="#D9D9D9" stop-opacity="0"/>
</linearGradient>
</defs>
</svg>
