<svg xmlns="http://www.w3.org/2000/svg" width="19.449" height="19.4" viewBox="0 0 19.449 19.4">
    <defs>
        <style>
            .cls-2{fill:#adb5cc;stroke:#adb5cc;stroke-width:.3px}
        </style>
    </defs>
    <g id="calendar" transform="translate(-.885 -.884)">
        <g id="Group_6842" transform="translate(.885 .884)">
            <g id="Group_6841">
                <path id="Path_13846" fill="#adb5cc" d="M15.207 1.408h-.915V.7a.7.7 0 0 0-1.408 0v.7H9.68V.7a.7.7 0 0 0-1.408 0v.7H5.1V.7a.7.7 0 0 0-1.4 0v.7h-.88A2.819 2.819 0 0 0 0 4.224v10.983a2.819 2.819 0 0 0 2.816 2.816H9.06a.7.7 0 1 0 0-1.408H2.816a1.41 1.41 0 0 1-1.408-1.408V4.224a1.41 1.41 0 0 1 1.408-1.408H3.7v.7a.7.7 0 0 0 1.408 0v-.7h3.164v.7a.7.7 0 0 0 1.408 0v-.7h3.2v.7a.7.7 0 0 0 1.408 0v-.7h.915a1.41 1.41 0 0 1 1.408 1.408l.013 4.569a.7.7 0 0 0 1.408 0l-.013-4.569a2.819 2.819 0 0 0-2.812-2.816z"/>
                <g id="percentage" transform="translate(6.877 6.829)">
                    <g id="Group_6844">
                        <g id="Group_6843">
                            <path id="Path_13847" d="M278.941 266.015a1.067 1.067 0 1 0 1.067 1.067 1.069 1.069 0 0 0-1.067-1.067zm0 1.423a.356.356 0 1 1 .356-.356.356.356 0 0 1-.356.356z" class="cls-2" transform="translate(-270.401 -259.611)"/>
                            <path id="Path_13848" d="M114.427 127.073a1.067 1.067 0 1 0-1.067 1.067 1.068 1.068 0 0 0 1.067-1.067zm-1.423 0a.356.356 0 1 1 .356.356.356.356 0 0 1-.36-.356z" class="cls-2" transform="translate(-109.336 -122.102)"/>
                            <path id="Path_13849" d="M10.6 1.819A6.211 6.211 0 0 0 1.819 10.6 6.211 6.211 0 0 0 10.6 1.819zm-4.389 9.632a5.24 5.24 0 1 1 5.24-5.24 5.246 5.246 0 0 1-5.24 5.24z" class="cls-2"/>
                            <path id="Path_13850" d="M170.709 136l-2.308 4.269h.809l2.307-4.269z" class="cls-2" transform="translate(-163.752 -131.924)"/>
                        </g>
                    </g>
                </g>
            </g>
        </g>
    </g>
</svg>
