<svg width="23" height="26" viewBox="0 0 23 26" fill="none" xmlns="http://www.w3.org/2000/svg">
<path d="M2.56115 7.35027L2.06505 6.85706C1.16453 5.96235 1.16741 4.51667 2.06425 3.62578C2.93186 2.76361 4.4481 2.76218 5.31715 3.62578L6.12599 4.42924C7.07985 3.92587 8.11101 3.5485 9.2 3.32792V1.52344H8.43333C8.00959 1.52344 7.66667 1.18257 7.66667 0.761719C7.66667 0.340869 8.00959 0 8.43333 0H14.5667C14.9902 0 15.3333 0.340869 15.3333 0.761719C15.3333 1.18257 14.9902 1.52344 14.5667 1.52344H13.8V3.32792C14.8888 3.5485 15.9202 3.92587 16.874 4.42924L17.6828 3.62578C18.5519 2.76218 20.0689 2.7644 20.9351 3.62515C21.8318 4.5162 21.8356 5.96235 20.9351 6.85706L20.4389 7.35027C22.0375 9.31296 23 11.8074 23 14.5234C23 20.8238 17.8413 26 11.5 26C5.15855 26 -1.90735e-06 20.8238 -1.90735e-06 14.5234C-1.90735e-06 11.8074 0.962484 9.31296 2.56115 7.35027ZM11.5 22.9531C11.5904 22.9531 11.6781 22.9423 11.7679 22.9396C11.7913 22.9419 11.8115 22.9531 11.8354 22.9531C11.8753 22.9531 11.9097 22.9365 11.948 22.9307C16.3894 22.697 19.9333 18.9935 19.9333 14.5234C19.9333 9.9033 16.1502 6.14453 11.5 6.14453C6.84985 6.14453 3.06667 9.9033 3.06667 14.5234C3.06667 19.1436 6.84985 22.9531 11.5 22.9531Z" fill="#F89090" fill-opacity="0.84"/>
<circle opacity="0.46" cx="11.5" cy="14.5" r="7.5" fill="#F9BFBF"/>
<path d="M11.5 10V14.5" stroke="#F89090" stroke-width="2" stroke-linecap="round"/>
<path d="M11.5 19V18" stroke="#F89090" stroke-width="2" stroke-linecap="round"/>
</svg>
