<svg width="182" height="153" viewBox="0 0 182 153" fill="none" xmlns="http://www.w3.org/2000/svg">
<rect x="-0.5" y="0.5" width="60.2" height="26" rx="13" transform="matrix(-1 0 0 1 180.2 0)" stroke="#C4D3E5"/>
<rect x="0.5" y="0.5" width="60.2" height="26" rx="13" stroke="#C4D3E5"/>
<path d="M138.334 14.792C138.105 15.444 137.631 15.9811 137.012 16.2888C136.393 16.5965 135.679 16.6506 135.021 16.4396C134.888 16.3946 134.759 16.3387 134.635 16.2724L127.778 22.4882L123.4 20.1185L133.713 12.6191C134.028 12.1269 134.497 11.7526 135.047 11.5547C135.596 11.3569 136.196 11.3466 136.752 11.5255C137.068 11.6303 137.36 11.7962 137.611 12.0138C137.862 12.2314 138.069 12.4964 138.218 12.7936C138.367 13.0908 138.456 13.4145 138.479 13.7461C138.503 14.0777 138.462 14.4108 138.357 14.7263C138.35 14.7483 138.342 14.7702 138.334 14.792Z" fill="#FDE2BA"/>
<g opacity="0.52">
<path d="M63.3632 99.4862L63.2255 99.4227C63.153 99.3895 63.0877 99.3423 63.0334 99.2839C62.9792 99.2254 62.937 99.1568 62.9093 99.082C62.8815 99.0072 62.8688 98.9277 62.8719 98.848C62.875 98.7683 62.8937 98.69 62.9271 98.6175C62.9604 98.5451 63.0078 98.4799 63.0663 98.4258C63.1249 98.3716 63.1936 98.3296 63.2685 98.302C63.3433 98.2744 63.4229 98.2619 63.5026 98.2651C63.5823 98.2684 63.6605 98.2873 63.7329 98.3208L63.8707 98.3842C64.0164 98.4517 64.1295 98.5743 64.185 98.7251C64.2405 98.8758 64.2339 99.0424 64.1667 99.1884C64.0995 99.3343 63.9772 99.4476 63.8266 99.5034C63.6759 99.5592 63.5093 99.553 63.3632 99.4862Z" fill="#CCCCCC"/>
<path d="M94.2038 148.946L97.5955 148.946L99.2089 135.864L94.2031 135.864L94.2038 148.946Z" fill="#FDE2BA"/>
<path d="M94.0842 152.484L104.514 152.484V152.352C104.514 151.276 104.086 150.243 103.325 149.482C102.564 148.72 101.531 148.293 100.454 148.293H100.454L98.5491 146.847L94.9944 148.293L94.084 148.293L94.0842 152.484Z" fill="#2F2E41"/>
<path d="M78.7885 148.946L82.1802 148.946L83.7937 135.864L78.7878 135.864L78.7885 148.946Z" fill="#FDE2BA"/>
<path d="M78.6689 152.484L89.0988 152.484V152.352C89.0987 151.276 88.671 150.243 87.9097 149.482C87.1484 148.72 86.1158 148.293 85.0392 148.293H85.0389L83.1338 146.847L79.5792 148.293L78.6687 148.293L78.6689 152.484Z" fill="#2F2E41"/>
<path d="M102.449 74.9538C102.449 74.9538 105.826 73.1911 104.763 74.9538C103.701 76.7165 100.287 67.1533 102 69.0001C103.713 70.8469 107.5 74.9538 107.005 89.7417C106 97.0001 104.763 109.815 104.763 109.815L99.2966 140.734L93.2801 141.276C93.2801 141.276 92.1577 137.497 92.1303 136.033C92.1029 134.568 92.1029 135.844 92.1029 132.808C92.1029 129.772 93.1854 132.124 92.1303 129.236C91.0752 126.347 89.7598 117.837 92.1303 113.699C94.5008 109.561 92.6376 113.192 92.6376 113.192L90.8013 96.1506L87.307 114.015C87.307 114.015 87.307 123.949 85.5942 131.143L85.311 141.276L77.9287 140.994C77.9287 140.994 76.0026 137.994 76.6877 134.568C77.3728 131.143 74.6323 129.43 74.6323 127.717C74.6323 126.004 74.7766 109.621 74.7766 109.621L76.3775 86.5139C76.3775 86.5139 74.9749 78.769 78.0579 75.686C81.141 72.603 102.449 74.9538 102.449 74.9538Z" fill="#C0BCE0"/>
<path d="M87.115 21.3226L93.5 20.5C93.4446 22.6 100.5 26 101.667 29.5V31.6446L102.695 40.5511L105.5 70.5L108.5 84C108.5 84 93 80 75.5 81C75.5 81 78.0896 71.3144 78.9307 64.5983C78.9307 64.5983 80.7511 68.8004 79.1077 66.7779C77.4643 64.7554 79.7431 52.1982 79.7431 52.1982L80.4282 38.1532C80.0386 33.6078 76.8124 30.1856 80.397 27.3637C83.0509 25.8651 85.344 23.803 87.115 21.3226Z" fill="#E4E6EF"/>
</g>
<path d="M86.2897 45.0452C86.2897 45.0452 96.4678 42.5277 105.9 39.1938C106.149 39.107 106.394 39.0181 106.639 38.9291C112.004 37.0002 117.03 34.8202 119.682 32.7064L131.652 19.5253L131.387 19.2167L128.784 16.2034L128.512 15.8861L116.079 25.5706C115.88 26.8252 112.562 27.4855 108.404 28.1334C108.171 28.1714 107.926 28.3134 107.693 28.241C103.78 27.026 99.3619 29.0331 96.0639 30.5134L86.2897 45.0452Z" fill="#DFE3F8"/>
<path d="M43.152 14.792C43.3808 15.444 43.8551 15.9811 44.4739 16.2888C45.0926 16.5965 45.807 16.6506 46.4651 16.4396C46.5982 16.3946 46.7273 16.3387 46.8511 16.2724L53.7082 22.4882L58.0864 20.1185L47.7725 12.6191C47.4578 12.1269 46.989 11.7526 46.4393 11.5547C45.8895 11.3569 45.2898 11.3466 44.7335 11.5255C44.418 11.6303 44.1263 11.7962 43.8749 12.0138C43.6235 12.2314 43.4174 12.4964 43.2684 12.7936C43.1194 13.0908 43.0304 13.4145 43.0065 13.7461C42.9826 14.0777 43.0243 14.4108 43.1291 14.7263C43.1364 14.7483 43.1441 14.7702 43.152 14.792Z" fill="#FDE2BA"/>
<path d="M95.1963 45.0452C95.1963 45.0452 85.0182 42.5277 75.5857 39.1938C75.3366 39.107 75.0918 39.0181 74.8471 38.9291C69.4816 37.0002 64.4564 34.8202 61.8035 32.7064L49.8338 19.5253L50.0994 19.2167L52.7019 16.2034L52.974 15.8861L65.407 25.5706C65.6056 26.8252 68.9244 27.4855 73.0817 28.1334C73.3145 28.1714 73.5604 28.3134 73.7933 28.241C77.7055 27.026 82.1241 29.0331 85.4221 30.5134L95.1963 45.0452Z" fill="#DFE3F8"/>
<path d="M97.7487 27.6081L100.798 28.5229C101.96 28.8715 102.901 29.7288 103.357 30.8534L104.913 34.698C106.148 37.7491 106.648 41.0478 106.374 44.3279L105.23 58C105.23 58 106.791 61.5983 104.673 62.9892C105.23 61.5983 105.23 65.1321 105.23 65.1321L108.696 78.4643L75.6324 75.769L78.9306 61.5983C78.9306 61.5983 76.4976 61.6769 78.2084 59.9661C79.9191 58.2554 79.3311 59.2933 77.6877 57.2708C77.2172 56.7318 76.9207 56.063 76.8372 55.3524C76.7537 54.6418 76.8871 53.9225 77.2199 53.2891L76.4867 43.2691L75.278 39.1675C75.0862 36.9299 75.4536 34.6797 76.3472 32.6192C77.2407 30.5588 78.6323 28.7528 80.397 27.3637C85.5012 24.3313 91.4168 25.0164 97.7487 27.6081Z" fill="#CBD1F3"/>
<path d="M83.1113 15.1852C82.4073 10.8471 85.3534 6.75962 89.6915 6.05564C94.0296 5.35166 98.117 8.29772 98.821 12.6358C99.525 16.974 96.579 21.0614 92.2408 21.7654C87.9027 22.4694 83.8153 19.5233 83.1113 15.1852Z" fill="#9F616A"/>
<path d="M98.2413 12.7293C98.2413 12.7293 98.305 9.93176 98.6587 8.6939C99.0124 7.45605 99.7197 6.39503 99.366 6.39503C99.0123 6.39503 98.8355 5.51084 98.8355 5.51084C98.8355 5.51084 98.4818 5.33401 98.305 5.51084C98.1281 5.68767 97.9513 4.27298 97.9513 4.27298C97.9513 4.27298 97.7745 3.74248 97.5977 4.09616C97.4208 4.44984 97.4208 4.27298 97.244 3.74247C97.0672 3.21197 96.1829 2.85829 96.1829 2.85829C96.1829 2.85829 92.823 3.03512 92.2925 2.32778C91.762 1.62044 85.7496 2.15094 84.5117 3.03511C83.2739 3.91929 77.7919 7.10235 78.6761 9.7549C79.5603 12.4074 82.1055 18.5149 82.7434 19.1272C83.752 20.0955 84.4502 20.4446 89.2226 21.3942C90.1566 21.5801 94.9238 18.5313 94.9238 18.0008C94.9238 17.4703 94.3491 15.7879 95.273 15.557C96.6694 15.2078 96.8265 16.9734 97.1802 16.4428C97.5339 15.9123 98.2413 12.7293 98.2413 12.7293Z" fill="#2F2E41"/>
</svg>
