<svg version="1.2" xmlns="http://www.w3.org/2000/svg" viewBox="0 0 15 19" width="15" height="19">
	<title>place-svg</title>
	<style>
		.s0 { fill: #4785ff } 
	</style>
	<g id="place">
		<g id="Group_6838">
			<g id="Group_6837">
				<path id="Path_13844" fill-rule="evenodd" class="s0" d="m14.6 4.8q0.3 0.9 0.4 1.8 0.1 0.9 0 1.8-0.1 0.9-0.4 1.8-0.1 0.2-0.2 0.5-0.1 0.2-0.3 0.4-0.1 0.3-0.2 0.5-0.2 0.2-0.4 0.4l-5.5 6.4q0 0.1-0.2 0.2-0.1 0.1-0.3 0.1-0.1 0-0.2-0.1-0.2-0.1-0.2-0.2l-5.5-6.4q-0.2-0.2-0.4-0.4-0.1-0.2-0.3-0.5-0.1-0.2-0.2-0.4-0.1-0.3-0.2-0.5-0.3-0.9-0.4-1.8-0.2-0.9 0-1.8 0.1-0.9 0.4-1.8 0.3-0.8 0.9-1.6c0.6-1 1.6-1.8 2.7-2.3 1-0.6 2.2-0.9 3.4-0.9 1.3 0 2.5 0.3 3.5 0.9 1.1 0.5 2 1.3 2.7 2.3q0.6 0.8 0.9 1.6zm-0.9 3.5q0.1-0.8 0-1.5-0.1-0.8-0.3-1.5-0.3-0.7-0.7-1.3c-0.6-0.8-1.4-1.5-2.3-2-0.9-0.5-1.8-0.7-2.9-0.7-1 0-2 0.2-2.8 0.7-0.9 0.5-1.7 1.2-2.3 2q-0.4 0.6-0.7 1.3-0.2 0.7-0.3 1.5-0.1 0.7-0.1 1.5 0.1 0.7 0.4 1.4 0.1 0.2 0.2 0.4 0.1 0.2 0.2 0.4 0.1 0.2 0.2 0.3 0.1 0.2 0.3 0.3l4.9 5.9 5-5.9q0.2-0.1 0.3-0.3 0.1-0.1 0.2-0.3 0.1-0.2 0.2-0.4 0.1-0.2 0.2-0.4 0.3-0.7 0.3-1.4z"/>
			</g>
		</g>
		<g id="Group_6840">
			<g id="Group_6839">
				<path id="Path_13845" fill-rule="evenodd" class="s0" d="m8.9 4.2q0.7 0.2 1.2 0.7 0.5 0.6 0.8 1.2 0.3 0.7 0.3 1.4c0 1.5-0.9 2.8-2.3 3.4-1.3 0.6-2.9 0.3-3.9-0.8-1.1-1-1.4-2.6-0.8-4 0.5-1.3 1.9-2.2 3.3-2.2q0.8 0 1.4 0.3zm-0.5 5.5q0.5-0.2 0.8-0.5 0.3-0.3 0.5-0.8 0.2-0.4 0.2-0.9c0-0.9-0.6-1.8-1.5-2.1-0.8-0.4-1.8-0.2-2.5 0.5-0.7 0.6-0.9 1.6-0.5 2.5 0.3 0.9 1.2 1.5 2.1 1.5q0.5 0 0.9-0.2z"/>
			</g>
		</g>
	</g>
</svg>