<svg xmlns="http://www.w3.org/2000/svg" width="15.096" height="18.659" viewBox="0 0 15.096 18.659">
    <defs>
        <style>
            .cls-1{fill:#adb5cc}
        </style>
    </defs>
    <g id="place" transform="translate(-48.886)">
        <g id="Group_6838" transform="translate(48.886)">
            <g id="Group_6837">
                <path id="Path_13844" d="M62.627 3.244a7.534 7.534 0 0 0-12.387 0 7.535 7.535 0 0 0-.877 6.942 5.934 5.934 0 0 0 1.094 1.806l5.48 6.437a.652.652 0 0 0 .993 0l5.479-6.435a5.94 5.94 0 0 0 1.093-1.8 7.536 7.536 0 0 0-.875-6.95zm-.346 6.49a4.654 4.654 0 0 1-.861 1.41L56.434 17l-4.987-5.857a4.657 4.657 0 0 1-.862-1.414 6.233 6.233 0 0 1 .729-5.743 6.229 6.229 0 0 1 10.24 0 6.234 6.234 0 0 1 .727 5.748z" class="cls-1" transform="translate(-48.886)"/>
            </g>
        </g>
        <g id="Group_6840" transform="translate(52.78 3.871)">
            <g id="Group_6839">
                <path id="Path_13845" d="M159.408 106.219a3.654 3.654 0 1 0 3.654 3.654 3.658 3.658 0 0 0-3.654-3.654zm0 6a2.349 2.349 0 1 1 2.349-2.349 2.351 2.351 0 0 1-2.349 2.351z" class="cls-1" transform="translate(-155.754 -106.219)"/>
            </g>
        </g>
    </g>
</svg>
