<svg xmlns="http://www.w3.org/2000/svg" width="15.628" height="13.76" viewBox="0 0 15.628 13.76">
    <path fill="#68a1ff" stroke="#68a1ff" stroke-width="0.2px" d="M14.979 1.808h-4.1v-.452A1.358 1.358 0 0 0 9.522 0H5.906A1.358 1.358 0 0 0 4.55 1.356v.452H.452A.453.453 0 0 0 0 2.26v9.94a1.358 1.358 0 0 0 1.356 1.36h12.717a1.358 1.358 0 0 0 1.356-1.36V2.268a.439.439 0 0 0-.449-.46zm-9.525-.452A.453.453 0 0 1 5.906.9h3.616a.453.453 0 0 1 .452.452v.452h-4.52zm8.9 1.356l-1.4 4.211a.451.451 0 0 1-.429.309H9.974V6.78a.452.452 0 0 0-.452-.452H5.906a.452.452 0 0 0-.452.452v.452H2.912a.451.451 0 0 1-.429-.309l-1.4-4.211zM9.07 7.232v.9H6.358v-.9zm5.455 4.968a.453.453 0 0 1-.452.452H1.356A.453.453 0 0 1 .9 12.2V5.045l.721 2.163a1.354 1.354 0 0 0 1.286.927h2.547v.452a.452.452 0 0 0 .452.452h3.616a.452.452 0 0 0 .452-.452v-.451h2.543a1.354 1.354 0 0 0 1.283-.927l.721-2.163zm0 0" transform="translate(.1 .1)"/>
</svg>
