<svg width="17" height="15" viewBox="0 0 17 15" fill="none" xmlns="http://www.w3.org/2000/svg">
<path d="M13.8 2.2998H2.6C1.71634 2.2998 1 2.88183 1 3.5998V12.6998C1 13.4177 1.71634 13.9998 2.6 13.9998H13.8C14.6837 13.9998 15.4 13.4177 15.4 12.6998V3.5998C15.4 2.88183 14.6837 2.2998 13.8 2.2998Z" stroke="#A5A4B5" stroke-width="1.5" stroke-linecap="round" stroke-linejoin="round"/>
<path d="M11.4004 1V3.59999" stroke="#A5A4B5" stroke-width="1.5" stroke-linecap="round" stroke-linejoin="round"/>
<path d="M5 1V3.59999" stroke="#A5A4B5" stroke-width="1.5" stroke-linecap="round" stroke-linejoin="round"/>
<path d="M8 11C9.65685 11 11 9.65685 11 8C11 6.34315 9.65685 5 8 5C6.34315 5 5 6.34315 5 8C5 9.65685 6.34315 11 8 11Z" stroke="#A5A4B5" stroke-width="1.2" stroke-linecap="round" stroke-linejoin="round"/>
<path d="M8 7V8.5L9 9" stroke="#A5A4B5" stroke-width="1.2" stroke-linecap="round" stroke-linejoin="round"/>
</svg>
