<svg width="14" height="14" viewBox="0 0 14 14" fill="none" xmlns="http://www.w3.org/2000/svg">
<path d="M12.1534 8.38103C12.1391 9.96759 12.1319 11.5614 12.1176 13.148C12.1176 13.4755 12.2394 13.8758 11.7448 13.9922C11.0924 13.7812 10.1676 14.2979 9.80194 13.6938C9.49366 13.1771 9.70874 12.3329 9.68723 11.6269C9.68723 11.5978 9.68723 11.5614 9.68723 11.5323C9.7876 10.7318 9.63705 10.3242 8.71223 10.7463C8.23906 10.9646 7.6727 10.9865 7.14935 11.0956C6.29623 11.0083 5.47894 10.79 4.68317 10.477C3.82287 9.88754 3.00559 9.25437 2.30301 8.46837C1.93022 8.04625 1.95172 7.71147 2.22415 7.30392C3.12029 5.99392 3.64364 4.58202 3.37121 2.9518C3.28518 2.41324 3.0486 2.16579 2.48224 2.20218C1.85136 2.24585 1.2133 2.20218 0.575248 2.21674C0.166606 2.23129 -0.0484681 2.04935 0.0303925 1.64907C0.166606 1.04501 -0.44994 0.0406784 0.847675 0.0406784C1.86569 0.0406784 2.88371 0.0406784 3.90173 0.0406784C4.56846 -0.0320995 4.92692 0.324512 5.19218 0.914014C5.67251 1.99841 5.85174 3.12646 5.85174 4.29819C5.73703 5.29525 5.49328 6.25592 5.02729 7.12925C4.75486 7.64597 4.8839 7.95164 5.31405 8.25003C6.31773 8.9487 7.3716 9.16703 8.50432 8.57753C9.508 8.2937 9.83061 7.63142 9.70874 6.59069C9.6012 5.7028 9.65856 4.80036 9.64422 3.90519C9.65856 2.90085 9.70874 1.90379 9.68006 0.899458C9.66572 0.288124 9.83061 0.0188448 10.483 0.0552338C11.2716 0.0989006 12.0746 0.0406786 12.8632 0.026123C13.2431 0.0552342 13.6231 0.0916232 13.6589 0.608347C13.5442 2.13668 13.5442 2.13668 12.3111 2.23129C12.2036 2.20218 12.1606 2.24585 12.1749 2.34774C12.1678 2.47874 12.1606 2.60974 12.1534 2.74074C12.1534 4.62569 12.1534 6.50336 12.1534 8.38103Z" fill="#3699FF"/>
</svg>
