<svg width="22" height="22" viewBox="0 0 22 22" fill="none" xmlns="http://www.w3.org/2000/svg">
<path d="M20.0234 3.63438H18.4609C17.9508 3.63438 17.5228 3.99041 17.4122 4.46719H15.3957V2.75781C15.3957 1.73344 14.5623 0.9 13.5379 0.9H2.75781C1.73344 0.9 0.9 1.73344 0.9 2.75781V15.5777C0.9 16.0738 1.09335 16.5406 1.44413 16.8914L5.10859 20.5559C5.45937 20.9067 5.92622 21.1 6.42227 21.1H14.7098C15.7341 21.1 16.5676 20.2666 16.5676 19.2422V10.8301H17.4122C17.5231 11.3064 17.9507 11.6629 18.4609 11.6629H20.0234C20.6174 11.6629 21.1 11.1798 21.1 10.5863V4.71094C21.1 4.11704 20.6173 3.63438 20.0234 3.63438ZM5.14531 16.6598V18.6527L3.15236 16.6598H5.14531ZM6.51719 19.7281V16.4824C6.51719 15.8237 5.9814 15.2879 5.32266 15.2879H2.27188V2.75781C2.27188 2.48999 2.48999 2.27188 2.75781 2.27188H13.5379C13.8057 2.27188 14.0238 2.48999 14.0238 2.75781V4.46719H12.0074C11.8967 3.99039 11.4683 3.63438 10.9586 3.63438H9.39609C8.80219 3.63438 8.31953 4.11704 8.31953 4.71094V10.5863C8.31953 11.1798 8.80217 11.6629 9.39609 11.6629H10.9586C11.4684 11.6629 11.8964 11.3064 12.0073 10.8301H12.852V19.2422C12.852 19.4102 12.8745 19.5732 12.9166 19.7281H6.51719ZM10.6633 5.00625V10.291H9.69141V5.00625H10.6633ZM15.1957 19.2422C15.1957 19.51 14.9776 19.7281 14.7098 19.7281C14.4419 19.7281 14.2238 19.51 14.2238 19.2422V10.8301H15.1957V19.2422ZM17.3844 9.4582H12.0352V5.83906H17.3844V9.4582ZM19.7281 10.291H18.7563V5.00625H19.7281V10.291Z" fill="#A5A4B5" stroke="#A5A4B5" stroke-width="0.2"/>
</svg>
