<svg width="16" height="22" viewBox="0 0 16 22" fill="none" xmlns="http://www.w3.org/2000/svg">
<path d="M8.00132 9.06526C10.5046 9.06526 12.5339 7.03593 12.5339 4.53263C12.5339 2.02933 10.5046 0 8.00132 0C5.49802 0 3.46869 2.02933 3.46869 4.53263C3.46869 7.03593 5.49802 9.06526 8.00132 9.06526Z" fill="#B9DCFF"/>
<path d="M8.0001 11.2744C5.87834 11.2744 3.84348 12.1173 2.34317 13.6176C0.842864 15.1179 0 17.1528 0 19.2745C0 19.8401 0.22468 20.3825 0.62462 20.7825C1.02456 21.1824 1.567 21.4071 2.1326 21.4071H13.8653C14.1455 21.4073 14.4229 21.3522 14.6818 21.2451C14.9407 21.138 15.1759 20.981 15.374 20.7829C15.5722 20.5849 15.7294 20.3497 15.8366 20.0909C15.9439 19.8321 15.9991 19.5547 15.9991 19.2745C15.9991 17.153 15.1564 15.1183 13.6563 13.618C12.1562 12.1177 10.1217 11.2747 8.0001 11.2744Z" fill="#4F8AFF"/>
</svg>
