<svg width="27" height="27" viewBox="0 0 27 27" fill="none" xmlns="http://www.w3.org/2000/svg">
<path d="M13.7643 0C12.0836 0 10.6661 1.41749 10.6661 3.09818C10.6661 4.77886 12.0836 6.19635 13.7643 6.19635C15.445 6.19635 16.8117 4.77886 16.8117 3.09818C16.8117 1.41749 15.445 0 13.7643 0Z" fill="#4F8AFF"/>
<path d="M17.1465 6.19629C16.3092 7.12468 15.1101 7.71998 13.7643 7.71998C12.4186 7.71998 11.1686 7.12468 10.3313 6.19629C9.60038 7.00684 9.14246 8.06871 9.14246 9.24368V10.0055C9.14246 10.4266 9.4832 10.7674 9.9043 10.7674H17.5736C17.9947 10.7674 18.3354 10.4266 18.3354 10.0055V9.24368C18.3354 8.06871 17.8775 7.00684 17.1465 6.19629Z" fill="#4F8AFF"/>
<path d="M7.36054 23.3836L3.47811 15.5999C3.10324 14.8482 2.19085 14.5417 1.4383 14.9145L0.423566 15.4172C0.0457406 15.6046 -0.108 16.0638 0.0805824 16.4409L4.65166 25.5831C4.83964 25.9601 5.2969 26.1101 5.67167 25.9253L6.67335 25.4291C7.42885 25.0548 7.73679 24.1381 7.36054 23.3836Z" fill="#B9DCFF"/>
<path d="M25.38 12.5807C24.7552 12.1236 23.8867 12.215 23.3687 12.7788L19.2039 17.8984C18.9144 18.2031 18.3659 18.386 18.0764 18.386H14.5261C14.0995 18.386 13.7643 18.0508 13.7643 17.6241C13.7643 17.1974 14.0995 16.8623 14.5261 16.8623C15.5465 16.8623 16.6762 16.8623 17.5735 16.8623C18.4116 16.8623 19.0972 16.1766 19.0972 15.3386C19.0972 14.5005 18.4116 13.8149 17.5735 13.8149C13.9956 13.8149 17.4085 13.8149 13.5815 13.8149C13.2017 13.8149 13.0124 13.5741 12.7129 13.312C11.5342 12.2513 9.76973 11.7402 7.98346 12.1542C6.99163 12.3841 6.32278 12.7848 5.64443 13.3221L5.62183 13.3037L4.5199 14.2735L8.85044 22.957H10.1328H17.5735C19.0058 22.957 20.3772 22.2714 21.2304 21.1286L25.6999 14.7291C26.2027 14.0586 26.0656 13.0835 25.38 12.5807Z" fill="#B9DCFF"/>
</svg>
