<svg width="21" height="21" viewBox="0 0 21 21" fill="none" xmlns="http://www.w3.org/2000/svg">
<g clip-path="url(#clip0_1841_16875)">
<path d="M11.2076 18.9191H3.30764C3.09847 18.9258 2.89008 18.8904 2.69487 18.8149C2.49965 18.7395 2.32161 18.6255 2.17131 18.4799C2.02101 18.3343 1.90152 18.1599 1.81996 17.9672C1.7384 17.7744 1.69643 17.5673 1.69653 17.358V2.7302C1.71245 2.3038 1.89688 1.90113 2.20934 1.61054C2.52179 1.31995 2.93677 1.16519 3.3632 1.1802H11.2632C11.4677 1.17562 11.6711 1.21262 11.8609 1.28896C12.0507 1.36531 12.2231 1.4794 12.3675 1.62433C12.5119 1.76926 12.6254 1.94201 12.701 2.1321C12.7767 2.32219 12.813 2.52567 12.8076 2.7302V17.358C12.807 17.5661 12.7648 17.772 12.6837 17.9636C12.6025 18.1552 12.484 18.3288 12.3351 18.4741C12.1861 18.6195 12.0097 18.7337 11.8161 18.8101C11.6226 18.8864 11.4157 18.9235 11.2076 18.9191ZM3.30764 2.25242C3.24325 2.25019 3.17906 2.26087 3.11885 2.28381C3.05864 2.30675 3.00362 2.3415 2.95703 2.38602C2.91045 2.43053 2.87323 2.48391 2.84758 2.54302C2.82192 2.60213 2.80835 2.66577 2.80764 2.7302V17.358C2.80764 17.4862 2.85857 17.6091 2.94921 17.6997C3.03985 17.7904 3.16279 17.8413 3.29098 17.8413H11.2076C11.3406 17.8431 11.4693 17.7941 11.5673 17.7043C11.6654 17.6144 11.7255 17.4906 11.7354 17.358V2.7302C11.7242 2.59857 11.6635 2.4761 11.5656 2.38744C11.4676 2.29878 11.3397 2.25054 11.2076 2.25242H3.30764Z" fill="#2B345F"/>
<path d="M16.4352 18.9185C16.1784 18.9207 15.9238 18.872 15.6859 18.7753C15.4481 18.6785 15.2318 18.5356 15.0494 18.3549C14.8671 18.1741 14.7224 17.959 14.6236 17.722C14.5249 17.485 14.474 17.2308 14.4741 16.974V12.8073C14.4741 12.5127 14.357 12.23 14.1486 12.0217C13.9402 11.8133 13.6576 11.6962 13.3629 11.6962H12.5685C12.4212 11.6962 12.2798 11.6377 12.1757 11.5335C12.0715 11.4293 12.0129 11.288 12.0129 11.1407C12.0129 10.9933 12.0715 10.852 12.1757 10.7478C12.2798 10.6437 12.4212 10.5851 12.5685 10.5851H13.3629C13.9523 10.5851 14.5175 10.8193 14.9343 11.236C15.351 11.6527 15.5852 12.218 15.5852 12.8073V16.974C15.5852 17.195 15.673 17.407 15.8292 17.5633C15.9855 17.7195 16.1975 17.8073 16.4185 17.8073C16.6395 17.8073 16.8515 17.7195 17.0078 17.5633C17.164 17.407 17.2518 17.195 17.2518 16.974V9.64068L15.5129 5.75179C15.409 5.53508 15.2459 5.35223 15.0424 5.22441C14.8388 5.09659 14.6033 5.02904 14.3629 5.02957H13.9574C13.81 5.02957 13.6687 4.97104 13.5645 4.86685C13.4604 4.76266 13.4018 4.62136 13.4018 4.47401C13.4018 4.32667 13.4604 4.18536 13.5645 4.08118C13.6687 3.97699 13.81 3.91846 13.9574 3.91846H14.3629C14.8249 3.91822 15.277 4.05191 15.6645 4.30335C16.052 4.55479 16.3583 4.91318 16.5463 5.33512L18.3296 9.3129C18.3622 9.38443 18.3792 9.46207 18.3796 9.54068V16.974C18.3796 17.4897 18.1747 17.9843 17.8101 18.3489C17.4454 18.7136 16.9509 18.9185 16.4352 18.9185Z" fill="#2B345F"/>
<path d="M10.0301 5.02957H4.4745C4.32716 5.02957 4.18585 4.97104 4.08166 4.86685C3.97748 4.76266 3.91895 4.62136 3.91895 4.47401C3.91895 4.32667 3.97748 4.18536 4.08166 4.08118C4.18585 3.97699 4.32716 3.91846 4.4745 3.91846H10.0301C10.1774 3.91846 10.3187 3.97699 10.4229 4.08118C10.5271 4.18536 10.5856 4.32667 10.5856 4.47401C10.5856 4.62136 10.5271 4.76266 10.4229 4.86685C10.3187 4.97104 10.1774 5.02957 10.0301 5.02957Z" fill="#2B345F"/>
<path d="M10.0301 7.25125H4.4745C4.32716 7.25125 4.18585 7.19272 4.08166 7.08853C3.97748 6.98434 3.91895 6.84303 3.91895 6.69569C3.91895 6.54835 3.97748 6.40704 4.08166 6.30286C4.18585 6.19867 4.32716 6.14014 4.4745 6.14014H10.0301C10.1774 6.14014 10.3187 6.19867 10.4229 6.30286C10.5271 6.40704 10.5856 6.54835 10.5856 6.69569C10.5856 6.84303 10.5271 6.98434 10.4229 7.08853C10.3187 7.19272 10.1774 7.25125 10.0301 7.25125Z" fill="#2B345F"/>
<path d="M13.9188 6.74034C13.7715 6.74034 13.6302 6.68181 13.526 6.57762C13.4218 6.47344 13.3633 6.33213 13.3633 6.18479V2.85145C13.3633 2.70411 13.4218 2.5628 13.526 2.45862C13.6302 2.35443 13.7715 2.2959 13.9188 2.2959C14.0662 2.2959 14.2075 2.35443 14.3117 2.45862C14.4159 2.5628 14.4744 2.70411 14.4744 2.85145V6.18479C14.4744 6.33213 14.4159 6.47344 14.3117 6.57762C14.2075 6.68181 14.0662 6.74034 13.9188 6.74034Z" fill="#2B345F"/>
</g>
<defs>
<clipPath id="clip0_1841_16875">
<rect width="20" height="20" fill="white" transform="translate(0.0300293 0.0297852)"/>
</clipPath>
</defs>
</svg>
