<svg width="21" height="21" viewBox="0 0 21 21" fill="none" xmlns="http://www.w3.org/2000/svg">
<path d="M1.87646 10.0295C1.87646 6.88696 1.87646 5.31529 2.85313 4.33946C3.82896 3.36279 5.40063 3.36279 8.54313 3.36279H11.8765C15.019 3.36279 16.5906 3.36279 17.5665 4.33946C18.5431 5.31529 18.5431 6.88696 18.5431 10.0295C18.5431 13.172 18.5431 14.7436 17.5665 15.7195C16.5906 16.6961 15.019 16.6961 11.8765 16.6961H8.54313C5.40063 16.6961 3.82896 16.6961 2.85313 15.7195C1.87646 14.7436 1.87646 13.172 1.87646 10.0295Z" stroke="#2B345F"/>
<path d="M8.54313 13.3623H5.2098M11.8765 13.3623H10.6265M1.87646 8.3623H18.5431" stroke="#2B345F" stroke-linecap="round"/>
</svg>
