<svg width="26" height="26" viewBox="0 0 26 26" fill="none" xmlns="http://www.w3.org/2000/svg">
<g clip-path="url(#clip0_24_313)">
<path d="M16.4856 25.9922C16.4845 25.7703 16.4835 25.9296 16.4856 25.9922V25.9922Z" fill="black"/>
<path d="M19.5937 5.03842L15.8103 1.25227H12.8677V25.2313H25.0586V23.5485L22.116 20.6037H17.4918V18.0796L20.4345 15.1348V9.24527H19.5937V5.03842Z" fill="#C8E3FF"/>
<path d="M14.9697 10.928H15.8105V17.2383H14.9697V10.928Z" fill="#3698FF"/>
<path d="M17.9125 13.8728H17.0718V11.7694H19.594V12.6107H17.9125V13.8728Z" fill="#3698FF"/>
<path d="M25.4793 25.2313H24.6386V23.7226L22.4116 21.494L23.0059 20.8993L25.4788 23.3739V25.2307L25.4793 25.2313Z" fill="#3698FF"/>
<path d="M17.9125 18.5003H16.231V17.6589H17.0717V15.5555H17.9125V18.5003Z" fill="#3698FF"/>
<path d="M19.1733 5.87979H20.0141V9.24527H19.1733V5.87979Z" fill="#3698FF"/>
<path d="M17.7896 18.3773L17.1953 17.7825L20.015 14.9608V13.0314H20.8557V15.3089L17.7901 18.3767L17.7896 18.3773Z" fill="#3698FF"/>
<path d="M14.9697 5.03842H15.8105V7.56253H14.9697V5.03842Z" fill="#3698FF"/>
<path d="M23.3774 25.2313H22.5366V22.9538L23.5003 21.9894L24.0946 22.5841L23.3768 23.3024V25.2318L23.3774 25.2313Z" fill="#3698FF"/>
<path d="M18.3325 20.1831H21.2752V21.0244H18.3325V20.1831Z" fill="#3698FF"/>
<path d="M18.0866 10.928H16.1177V10.0866H17.7388L17.9127 9.91258V9.24527H18.7534V10.2607L18.0866 10.928Z" fill="#3698FF"/>
<path d="M17.0718 18.0796H17.9125V19.7624H17.0718V18.0796Z" fill="#3698FF"/>
<path d="M19.5938 20.6037H20.4345V23.1278H19.5938V20.6037Z" fill="#3698FF"/>
<path d="M20.4345 13.4521C19.7393 13.4521 19.1733 12.8858 19.1733 12.1901C19.1733 11.4943 19.7393 10.928 20.4345 10.928C21.1297 10.928 21.6956 11.4943 21.6956 12.1901C21.6956 12.8858 21.1297 13.4521 20.4345 13.4521Z" fill="#3698FF"/>
<path d="M22.1161 21.8658C21.4209 21.8658 20.855 21.2994 20.855 20.6037C20.855 19.908 21.4209 19.3417 22.1161 19.3417C22.8113 19.3417 23.3772 19.908 23.3772 20.6037C23.3772 21.2994 22.8113 21.8658 22.1161 21.8658Z" fill="#3698FF"/>
<path d="M17.4916 15.9762C16.7964 15.9762 16.2305 15.4099 16.2305 14.7142C16.2305 14.0185 16.7964 13.4521 17.4916 13.4521C18.1868 13.4521 18.7527 14.0185 18.7527 14.7142C18.7527 15.4099 18.1868 15.9762 17.4916 15.9762Z" fill="#3698FF"/>
<path d="M9.31201 25.9922C9.31411 25.9296 9.31306 25.7703 9.31201 25.9922V25.9922Z" fill="black"/>
<path d="M6.20366 9.24527H5.36291V15.1348L8.30555 18.0796V20.6037H3.68141L0.73877 23.5485V25.2313H12.9297V1.25227H9.98705L6.20366 5.03842V9.24527Z" fill="#C8E3FF"/>
<path d="M15.9848 0.831584H12.9297H12.8677H9.81317L6.49902 4.14763L7.09386 4.74289L10.161 1.67295H12.8677H12.9297H15.6364L18.7041 4.74289L19.2984 4.14763L15.9848 0.831584Z" fill="#3698FF"/>
<path d="M10.8276 17.2383H9.98682V10.928H10.8276V17.2383Z" fill="#3698FF"/>
<path d="M7.88512 12.6107H6.20361V11.7694H8.72587V13.8728H7.88512V12.6107Z" fill="#3698FF"/>
<path d="M18.5069 8.82458L16.8253 7.14184H12.9295H12.8675H8.97218L7.29068 8.82458H4.52197V9.66595H7.63854L9.32005 7.98321H12.8675H12.9295H16.477L18.1585 9.66595H21.275V8.82458H18.5069Z" fill="#3698FF"/>
<path d="M12.9296 4.61774H14.5491V3.77637H12.9296H12.8675H11.248V4.61774H12.8675H12.9296Z" fill="#3698FF"/>
<path d="M12.9299 20.183H12.8679H9.14648V21.0244H12.8679H12.9299H16.6513V20.183H12.9299Z" fill="#3698FF"/>
<path d="M0.318359 23.3745L2.79122 20.8998L3.38553 21.4945L1.15859 23.7231V25.2318H0.318359V23.375V23.3745Z" fill="#3698FF"/>
<path d="M17.6663 23.5485L15.9848 21.8658H12.9297H12.8677H9.81311L8.1316 23.5485H6.62402V24.3899H8.47946L10.161 22.7072H12.8677H12.9297H15.6364L17.3179 24.3899H19.1733V23.5485H17.6663Z" fill="#3698FF"/>
<path d="M16.3539 22.8302L14.7954 24.3899H12.9294H12.8674H11.0015L9.44347 22.8302L8.84863 23.4255L10.6536 25.2313H12.8674H12.9294H15.1438L16.9482 23.4255L16.3539 22.8302Z" fill="#3698FF"/>
<path d="M7.88525 15.5555H8.72601V17.6589H9.56676V18.5003H7.88525V15.5555Z" fill="#3698FF"/>
<path d="M6.62396 9.24527H5.7832V5.87979H6.62396V9.24527Z" fill="#3698FF"/>
<path d="M4.94238 15.3089V13.0314H5.78314V14.9608L8.60281 17.7825L8.0085 18.3773L4.94291 15.3094L4.94238 15.3089Z" fill="#3698FF"/>
<path d="M10.8276 7.56253H9.98682V5.03842H10.8276V7.56253Z" fill="#3698FF"/>
<path d="M2.42043 23.3019L1.70264 22.5836L2.29694 21.9888L3.26066 22.9533V25.2307H2.4199V23.3014L2.42043 23.3019Z" fill="#3698FF"/>
<path d="M7.46461 21.0244H4.52197V20.183H7.46461V21.0244Z" fill="#3698FF"/>
<path d="M7.04443 10.2607V9.24527H7.88519V9.91258L8.05912 10.0866H9.6802V10.928H7.71126L7.04443 10.2607Z" fill="#3698FF"/>
<path d="M8.72601 19.7624H7.88525V18.0796H8.72601V19.7624Z" fill="#3698FF"/>
<path d="M12.9296 17.6589H12.8675H11.248V18.5003H12.8675H12.9296H14.5491V17.6589H12.9296Z" fill="#3698FF"/>
<path d="M6.20355 23.1278H5.36279V20.6037H6.20355V23.1278Z" fill="#3698FF"/>
<path d="M12.9296 9.66595H12.8675H11.248V10.5073H12.8675H12.9296H14.5491V9.66595H12.9296Z" fill="#3698FF"/>
<path d="M2.42041 9.24526C2.42041 8.54956 2.98634 7.98321 3.68154 7.98321C4.37674 7.98321 4.94267 8.54956 4.94267 9.24526C4.94267 9.94097 4.37674 10.5073 3.68154 10.5073C2.98634 10.5073 2.42041 9.94097 2.42041 9.24526Z" fill="#3698FF"/>
<path d="M4.10156 12.1901C4.10156 11.4943 4.66749 10.928 5.36269 10.928C6.05789 10.928 6.62382 11.4943 6.62382 12.1901C6.62382 12.8858 6.05789 13.4521 5.36269 13.4521C4.66749 13.4521 4.10156 12.8858 4.10156 12.1901Z" fill="#3698FF"/>
<path d="M9.14648 18.0796C9.14648 17.3839 9.71242 16.8176 10.4076 16.8176C11.1028 16.8176 11.6687 17.3839 11.6687 18.0796C11.6687 18.7753 11.1028 19.3417 10.4076 19.3417C9.71242 19.3417 9.14648 18.7753 9.14648 18.0796Z" fill="#3698FF"/>
<path d="M7.04443 20.6037C7.04443 19.908 7.61037 19.3417 8.30556 19.3417C9.00076 19.3417 9.56669 19.908 9.56669 20.6037C9.56669 21.2994 9.00076 21.8658 8.30556 21.8658C7.61037 21.8658 7.04443 21.2994 7.04443 20.6037Z" fill="#3698FF"/>
<path d="M4.52197 23.9692C4.52197 23.2735 5.0879 22.7072 5.7831 22.7072C6.4783 22.7072 7.04423 23.2735 7.04423 23.9692C7.04423 24.6649 6.4783 25.2313 5.7831 25.2313C5.0879 25.2313 4.52197 24.6649 4.52197 23.9692Z" fill="#3698FF"/>
<path d="M2.42041 20.6037C2.42041 19.908 2.98634 19.3417 3.68154 19.3417C4.37674 19.3417 4.94267 19.908 4.94267 20.6037C4.94267 21.2994 4.37674 21.8658 3.68154 21.8658C2.98634 21.8658 2.42041 21.2994 2.42041 20.6037Z" fill="#3698FF"/>
<path d="M7.04443 14.7142C7.04443 14.0185 7.61037 13.4521 8.30556 13.4521C9.00076 13.4521 9.56669 14.0185 9.56669 14.7142C9.56669 15.4099 9.00076 15.9762 8.30556 15.9762C7.61037 15.9762 7.04443 15.4099 7.04443 14.7142Z" fill="#3698FF"/>
<path d="M9.14648 10.0866C9.14648 9.39093 9.71242 8.82458 10.4076 8.82458C11.1028 8.82458 11.6687 9.39093 11.6687 10.0866C11.6687 10.7823 11.1028 11.3487 10.4076 11.3487C9.71242 11.3487 9.14648 10.7823 9.14648 10.0866Z" fill="#3698FF"/>
<path d="M9.14648 4.19706C9.14648 3.50135 9.71242 2.935 10.4076 2.935C11.1028 2.935 11.6687 3.50135 11.6687 4.19706C11.6687 4.89276 11.1028 5.45911 10.4076 5.45911C9.71242 5.45911 9.14648 4.89276 9.14648 4.19706Z" fill="#3698FF"/>
<path d="M19.5936 6.30048C18.8985 6.30048 18.3325 5.73413 18.3325 5.03842C18.3325 4.34272 18.8985 3.77637 19.5936 3.77637C20.2888 3.77637 20.8548 4.34272 20.8548 5.03842C20.8548 5.73413 20.2888 6.30048 19.5936 6.30048Z" fill="#3698FF"/>
<path d="M4.94238 5.03842C4.94238 4.34272 5.50831 3.77637 6.20351 3.77637C6.89871 3.77637 7.46464 4.34272 7.46464 5.03842C7.46464 5.73413 6.89871 6.30048 6.20351 6.30048C5.50831 6.30048 4.94238 5.73413 4.94238 5.03842Z" fill="#3698FF"/>
<path d="M22.1161 10.5073C21.4209 10.5073 20.855 9.94097 20.855 9.24526C20.855 8.54956 21.4209 7.98321 22.1161 7.98321C22.8113 7.98321 23.3772 8.54956 23.3772 9.24526C23.3772 9.94097 22.8113 10.5073 22.1161 10.5073Z" fill="#3698FF"/>
<path d="M15.39 5.45911C14.6948 5.45911 14.1289 4.89276 14.1289 4.19706C14.1289 3.50135 14.6948 2.935 15.39 2.935C16.0852 2.935 16.6512 3.50135 16.6512 4.19706C16.6512 4.89276 16.0852 5.45911 15.39 5.45911Z" fill="#3698FF"/>
<path d="M15.39 11.3487C14.6948 11.3487 14.1289 10.7823 14.1289 10.0866C14.1289 9.39093 14.6948 8.82458 15.39 8.82458C16.0852 8.82458 16.6512 9.39093 16.6512 10.0866C16.6512 10.7823 16.0852 11.3487 15.39 11.3487Z" fill="#3698FF"/>
<path d="M12.9295 13.0314H12.8675H10.4072V13.8728H12.8675H12.9295H15.3897V13.0314H12.9295Z" fill="#3698FF"/>
<path d="M15.39 19.3417C14.6948 19.3417 14.1289 18.7753 14.1289 18.0796C14.1289 17.3839 14.6948 16.8176 15.39 16.8176C16.0852 16.8176 16.6512 17.3839 16.6512 18.0796C16.6512 18.7753 16.0852 19.3417 15.39 19.3417Z" fill="#3698FF"/>
<path d="M17.4916 21.8658C16.7964 21.8658 16.2305 21.2994 16.2305 20.6037C16.2305 19.908 16.7964 19.3417 17.4916 19.3417C18.1868 19.3417 18.7527 19.908 18.7527 20.6037C18.7527 21.2994 18.1868 21.8658 17.4916 21.8658Z" fill="#3698FF"/>
<path d="M20.0141 25.2313C19.3189 25.2313 18.7529 24.6649 18.7529 23.9692C18.7529 23.2735 19.3189 22.7072 20.0141 22.7072C20.7093 22.7072 21.2752 23.2735 21.2752 23.9692C21.2752 24.6649 20.7093 25.2313 20.0141 25.2313Z" fill="#3698FF"/>
</g>
<defs>
<clipPath id="clip0_24_313">
<rect width="25.1606" height="25.1606" fill="white" transform="translate(0.318359 0.831584)"/>
</clipPath>
</defs>
</svg>
