<svg width="60" height="59" viewBox="0 0 60 59" fill="none" xmlns="http://www.w3.org/2000/svg">
<path d="M58.9998 12.1041C58.8309 12.1195 58.7387 12.2731 58.6465 12.3653C56.1121 14.8998 53.5776 17.4343 51.0277 19.9688C50.8127 20.1838 50.7205 20.3835 50.7819 20.7214C51.381 24.1929 51.9493 27.6644 52.5177 31.1359C52.5177 31.1666 52.5023 31.2127 52.487 31.2895C51.0431 30.5061 49.6145 29.7381 48.186 28.9547C46.3888 27.9716 44.5763 26.9885 42.7944 25.9901C42.5026 25.8211 42.2875 25.8672 42.011 26.0208C38.9389 27.7105 35.8515 29.4002 32.7793 31.0745C32.6411 31.1513 32.5029 31.1973 32.2878 31.3049C32.5029 30.0146 32.7025 28.7704 32.9176 27.5415C33.3016 25.2221 33.6856 22.9026 34.1004 20.5832C34.1618 20.2606 33.9621 20.1224 33.7931 19.9534C31.3201 17.4803 28.847 15.0073 26.3893 12.5342C26.2511 12.396 26.0514 12.2731 25.9746 12.012C26.6044 11.7969 27.2803 11.7662 27.9254 11.6587C31.0436 11.1671 34.1618 10.7063 37.2954 10.2301C37.6026 10.1841 37.8483 10.1073 38.0173 9.75397C39.3998 6.66649 40.7976 3.60974 42.18 0.53762C42.2568 0.368654 42.3951 0.199688 42.3183 0C42.3951 0 42.4719 0 42.5487 0C42.4719 0.215048 42.6101 0.368654 42.6869 0.53762C44.0386 3.51757 45.4057 6.49753 46.7421 9.49284C46.9572 9.98438 47.249 10.1841 47.7405 10.2455C51.5039 10.8138 55.2672 11.3976 59.0306 11.9659C58.9998 12.0273 58.9998 12.0581 58.9998 12.1041Z" fill="#C5DEFF"/>
<path d="M9.24729 40.0913C10.983 39.3694 12.4269 38.248 13.7172 36.927C14.132 36.5123 14.132 35.8671 14.2856 35.3142C15.3301 31.7198 16.3592 28.11 17.373 24.5003C17.5113 24.0241 17.6956 23.932 18.1872 24.0241C21.3054 24.6078 22.4113 27.5417 22.0734 30.0148C21.843 31.6737 21.6586 33.348 21.459 35.0223C21.4129 35.4524 21.4129 35.9132 21.29 36.328C21.1517 36.8195 21.3514 36.8656 21.7662 36.8656C25.8982 36.8502 30.0148 36.8502 34.1468 36.8656C35.6675 36.8656 36.9117 38.1405 36.8963 39.6766C36.881 41.0744 35.6829 42.3339 34.285 42.3954C34.1622 42.3954 34.0239 42.3954 33.8242 42.3954C35.4985 43.2249 36.2205 44.3308 35.944 45.6211C35.6829 46.85 34.6691 47.9559 32.8411 47.9406C33.6399 48.2171 34.2082 48.6011 34.5923 49.2001C34.9916 49.8145 35.1606 50.5058 34.9916 51.2277C34.6691 52.6255 33.686 53.3628 31.9502 53.4857C32.964 53.839 33.6553 54.4074 33.9778 55.3751C34.4386 56.7575 33.7013 58.2629 32.3342 58.8005C32.196 58.8466 32.027 58.8466 31.9349 58.9848C26.359 58.9848 20.7985 58.9848 15.2226 58.9848C14.8693 58.6162 14.3777 58.693 13.9476 58.6008C12.3809 58.2475 10.8294 57.8481 9.24729 57.6024C9.24729 55.0832 9.23193 52.5795 9.23193 50.0603C9.23193 46.7271 9.23193 43.4092 9.24729 40.0913Z" fill="#DBEBFF"/>
<path d="M9.24707 40.0912C9.24707 43.4091 9.23171 46.7269 9.23171 50.0448C9.23171 52.564 9.24707 55.0677 9.24707 57.5869C9.24707 58.0477 9.23171 58.5239 9.23171 58.9847C6.29784 58.9847 3.34861 58.9847 0.414736 59.0001C0.0768029 59.0001 0 58.9232 0 58.5853C0.0153606 51.9649 0.0153606 45.3445 0.0153606 38.7087C2.87243 38.7087 5.71414 38.7241 8.57121 38.6934C9.07811 38.6934 9.32388 38.7855 9.24707 39.3385C9.20099 39.5843 9.23171 39.8454 9.24707 40.0912Z" fill="#79A6FF"/>
<path d="M16.5897 12.8874C16.5897 13.3789 16.2517 13.763 15.7448 13.809C15.5605 13.8244 15.3608 13.8244 15.1765 13.809C14.8539 13.7783 14.7157 13.9012 14.7464 14.2238C14.7617 14.4081 14.7617 14.6078 14.7464 14.7921C14.7003 15.299 14.3163 15.6369 13.8248 15.6369C13.3332 15.6369 12.9646 15.2836 12.9031 14.7767C12.857 14.4542 13.0567 14.0394 12.7956 13.8551C12.5805 13.7015 12.1965 13.8244 11.9047 13.7783C11.3978 13.7322 11.0598 13.3329 11.0752 12.8413C11.0906 12.3498 11.4285 11.9965 11.9508 11.935C12.258 11.9043 12.6266 12.0579 12.8417 11.8582C13.0567 11.6432 12.8878 11.2745 12.9185 10.9673C12.9799 10.4604 13.3332 10.1071 13.8094 10.0918C14.3163 10.0764 14.7003 10.4451 14.7617 10.9827C14.7617 10.998 14.7617 11.0134 14.7617 11.0441C14.8078 11.8736 14.8078 11.8736 15.6834 11.9504C16.221 12.0272 16.5897 12.3805 16.5897 12.8874Z" fill="#B2C7FF"/>
<path d="M50.6902 47.0188C50.6902 47.5718 50.2908 47.9097 49.661 47.9251C48.8776 47.9404 48.8776 47.9404 48.8623 48.7085C48.8469 49.369 48.4782 49.7837 47.9099 49.7684C47.3723 49.753 47.0343 49.3536 47.019 48.7238C47.0036 47.9558 47.0036 47.9558 46.2202 47.9404C45.5751 47.9251 45.1911 47.5872 45.1757 47.0342C45.1603 46.4658 45.5751 46.1125 46.2356 46.0972C46.9883 46.0818 46.9883 46.0818 47.019 45.2831C47.0343 44.6533 47.3876 44.2539 47.9406 44.2539C48.4936 44.2539 48.8469 44.6379 48.8623 45.2677C48.893 46.0665 48.893 46.0665 49.6917 46.0818C50.3061 46.0972 50.7055 46.4658 50.6902 47.0188Z" fill="#B2C7FF"/>
</svg>
