<svg width="58" height="58" viewBox="0 0 58 58" fill="none" xmlns="http://www.w3.org/2000/svg">
<circle cx="29" cy="29" r="29" fill="#DBEBFF"/>
<g clip-path="url(#clip0_46_1017)">
<path d="M34.8141 23.2565L29.5641 17.2565C29.4216 17.0945 29.2161 17 29.0001 17C28.7841 17 28.5786 17.0945 28.4361 17.2565L23.1861 23.2565C22.9926 23.4785 22.9446 23.792 23.0676 24.0605C23.1891 24.3275 23.4561 24.5 23.7501 24.5H26.7501V34.25C26.7501 34.664 27.0861 35 27.5001 35H30.5001C30.9141 35 31.2501 34.664 31.2501 34.25V24.5H34.2501C34.5441 24.5 34.8111 24.329 34.9326 24.0605C35.0541 23.792 35.0091 23.477 34.8141 23.2565Z" fill="#79A6FF"/>
<path d="M37.25 33.5V38H20.75V33.5H17.75V39.5C17.75 40.3295 18.422 41 19.25 41H38.75C39.5795 41 40.25 40.3295 40.25 39.5V33.5H37.25Z" fill="#79A6FF"/>
</g>
<defs>
<clipPath id="clip0_46_1017">
<rect width="24" height="24" fill="white" transform="translate(17 17)"/>
</clipPath>
</defs>
</svg>
