<svg width="20" height="16" viewBox="0 0 20 16" fill="none" xmlns="http://www.w3.org/2000/svg">
<path d="M19.8914 7.37841L12.4841 0.106636C12.4323 0.0557295 12.3663 0.0210549 12.2944 0.00700209C12.2226 -0.00705076 12.148 0.000149978 12.0803 0.0276927C12.0126 0.0552354 11.9548 0.101882 11.9141 0.161726C11.8734 0.221571 11.8517 0.291922 11.8517 0.363875V4.37153C6.85185 4.59332 0.701059 9.23907 0.00570339 15.1883C-0.0137697 15.3402 0.0169164 15.4942 0.0932498 15.6277C0.169583 15.7613 0.287537 15.8672 0.429768 15.93C0.52847 15.9759 0.636288 15.9998 0.745502 16C0.846307 15.9997 0.945964 15.979 1.03822 15.9391C1.13047 15.8992 1.21333 15.841 1.2816 15.7682C2.34917 14.6529 6.21575 11.0661 11.8517 10.9143V14.9074C11.8517 14.9794 11.8734 15.0497 11.9141 15.1096C11.9548 15.1694 12.0126 15.2161 12.0803 15.2436C12.148 15.2711 12.2226 15.2783 12.2944 15.2643C12.3663 15.2502 12.4323 15.2156 12.4841 15.1647L19.8914 7.89288C19.9258 7.85912 19.9531 7.81902 19.9718 7.77488C19.9904 7.73074 20 7.68343 20 7.63565C20 7.58786 19.9904 7.54055 19.9718 7.49641C19.9531 7.45227 19.9258 7.41217 19.8914 7.37841ZM12.5925 14.0284V10.5444C12.5925 10.4479 12.5534 10.3554 12.484 10.2873C12.4145 10.2191 12.3203 10.1808 12.2221 10.1808C9.68605 10.1808 7.2148 10.8325 4.87597 12.1169C3.34496 12.9597 1.95115 14.0229 0.740872 15.271C1.05198 12.6159 2.55102 10.0462 4.963 8.03832C7.17869 6.19129 9.8916 5.09053 12.2221 5.09053C12.3203 5.09053 12.4145 5.05222 12.484 4.98403C12.5534 4.91585 12.5925 4.82337 12.5925 4.72694V1.24194L19.1053 7.63565L12.5925 14.0284Z" fill="#6B718F"/>
</svg>
