<svg width="35" height="25" viewBox="0 0 35 25" fill="none" xmlns="http://www.w3.org/2000/svg">
<path d="M31.9116 0C33.4779 0 34.7595 1.27301 34.7595 2.82884V3.64892L30.8028 6.45633L17.3323 15.6733L3.86183 6.36283V24.983H2.84796C1.28163 24.983 0 23.71 0 22.1542V2.82963C0 1.27377 1.28163 0.000757052 2.84796 0.000757052L17.3323 10.6678L31.9108 0.000757052L31.9116 0V0Z" fill="#E75A4D"/>
<path d="M2.84814 0L17.3325 10.667L31.9118 0H2.84814Z" fill="url(#paint0_linear_679_1194)"/>
<path d="M3.86182 6.36279V24.983H30.8036V6.45629L17.3323 15.6733L3.86182 6.36279Z" fill="#E7E4D7"/>
<path d="M3.86182 24.983L17.3323 15.6733L17.2713 15.6304L3.86182 24.7784V24.983Z" fill="#B8B7AE"/>
<path d="M30.8038 6.4563L30.8115 24.983L17.3325 15.6733L30.8038 6.4563Z" fill="#B7B6AD"/>
<path d="M34.7597 3.64895L34.7643 22.1565C34.6964 24.2136 33.799 24.9478 30.8114 24.9823L30.8037 6.4556L34.7604 3.64819L34.7597 3.64895V3.64895Z" fill="#B2392F"/>
<path d="M2.84814 0L17.3325 10.667L31.9118 0H2.84814Z" fill="url(#paint1_linear_679_1194)"/>
<path d="M2.84814 0L17.3325 10.667L31.9118 0H2.84814Z" fill="url(#paint2_linear_679_1194)"/>
<path d="M2.84814 0L17.3325 10.667L31.9118 0H2.84814Z" fill="url(#paint3_linear_679_1194)"/>
<path d="M2.84814 0L17.3325 10.667L31.9118 0H2.84814Z" fill="url(#paint4_linear_679_1194)"/>
<path d="M2.84814 0L17.3325 10.667L31.9118 0H2.84814Z" fill="url(#paint5_linear_679_1194)"/>
<path d="M2.84814 0L17.3325 10.667L31.9118 0H2.84814Z" fill="url(#paint6_linear_679_1194)"/>
<path d="M2.84814 0L17.3325 10.667L31.9118 0H2.84814Z" fill="url(#paint7_linear_679_1194)"/>
<path d="M2.84814 0L17.3325 10.667L31.9118 0H2.84814Z" fill="#F7F5ED"/>
<defs>
<linearGradient id="paint0_linear_679_1194" x1="8.07732" y1="5.33445" x2="26.6473" y2="5.33445" gradientUnits="userSpaceOnUse">
<stop stop-color="#F8F6EF"/>
<stop offset="1" stop-color="#E7E4D6"/>
</linearGradient>
<linearGradient id="paint1_linear_679_1194" x1="8.07732" y1="5.33445" x2="26.6473" y2="5.33445" gradientUnits="userSpaceOnUse">
<stop stop-color="#F8F6EF"/>
<stop offset="1" stop-color="#E7E4D6"/>
</linearGradient>
<linearGradient id="paint2_linear_679_1194" x1="8.07732" y1="5.33445" x2="26.6473" y2="5.33445" gradientUnits="userSpaceOnUse">
<stop stop-color="#F8F6EF"/>
<stop offset="1" stop-color="#E7E4D6"/>
</linearGradient>
<linearGradient id="paint3_linear_679_1194" x1="8.07732" y1="5.33445" x2="26.6473" y2="5.33445" gradientUnits="userSpaceOnUse">
<stop stop-color="#F8F6EF"/>
<stop offset="1" stop-color="#E7E4D6"/>
</linearGradient>
<linearGradient id="paint4_linear_679_1194" x1="8.07732" y1="5.33445" x2="26.6473" y2="5.33445" gradientUnits="userSpaceOnUse">
<stop stop-color="#F8F6EF"/>
<stop offset="1" stop-color="#E7E4D6"/>
</linearGradient>
<linearGradient id="paint5_linear_679_1194" x1="8.07732" y1="5.33445" x2="26.6473" y2="5.33445" gradientUnits="userSpaceOnUse">
<stop stop-color="#F8F6EF"/>
<stop offset="1" stop-color="#E7E4D6"/>
</linearGradient>
<linearGradient id="paint6_linear_679_1194" x1="8.07732" y1="5.33445" x2="26.6473" y2="5.33445" gradientUnits="userSpaceOnUse">
<stop stop-color="#F8F6EF"/>
<stop offset="1" stop-color="#E7E4D6"/>
</linearGradient>
<linearGradient id="paint7_linear_679_1194" x1="8.07732" y1="5.33445" x2="26.6473" y2="5.33445" gradientUnits="userSpaceOnUse">
<stop stop-color="#F8F6EF"/>
<stop offset="1" stop-color="#E7E4D6"/>
</linearGradient>
</defs>
</svg>
