<svg width="37" height="37" viewBox="0 0 37 37" fill="none" xmlns="http://www.w3.org/2000/svg">
<g clip-path="url(#clip0_675_610)">
<path d="M31.608 5.37686C28.1298 1.91156 23.5048 0.00211426 18.5772 0C8.42309 0 0.159701 8.2244 0.155635 18.3334C0.154452 21.5647 1.0025 24.719 2.6144 27.4995L0.000976562 37L9.76645 34.4506C12.457 35.9115 15.4864 36.6813 18.5693 36.6826H18.5771H18.5772C28.7296 36.6826 36.9943 28.4567 36.9986 18.3482C37.0003 13.4489 35.0858 8.8424 31.608 5.37686V5.37686ZM18.5772 33.586H18.5712C15.8233 33.5845 13.1287 32.85 10.7783 31.4615L10.2189 31.1314L4.42386 32.6441L5.97106 27.0209L5.60662 26.4444C4.07383 24.0179 3.26465 21.2138 3.2658 18.3345C3.26917 9.9323 10.1374 3.09669 18.583 3.09669C22.6728 3.09838 26.5167 4.68553 29.4077 7.56578C32.2985 10.446 33.8894 14.2749 33.8881 18.3469C33.8846 26.7494 27.0161 33.586 18.5772 33.586V33.586Z" fill="#E0E0E0"/>
<path d="M0.84668 35.9458L3.34073 26.8793C1.80206 24.2258 0.992905 21.2154 0.993876 18.1322C0.997911 8.48521 8.88391 0.636719 18.5733 0.636719C23.2761 0.638833 27.6899 2.46096 31.0085 5.76805C34.3278 9.07512 36.1547 13.4709 36.1527 18.1459C36.1487 27.7931 28.2622 35.6423 18.574 35.6423C18.5733 35.6423 18.5745 35.6423 18.574 35.6423H18.5662C15.6242 35.6414 12.7334 34.9061 10.1659 33.5129L0.84668 35.9458V35.9458Z" fill="url(#paint0_linear_675_610)"/>
<path fill-rule="evenodd" clip-rule="evenodd" d="M14.025 10.5499C13.6842 9.79553 13.3254 9.78043 13.0011 9.76723C12.7359 9.75591 12.4323 9.7566 12.1292 9.7566C11.8258 9.7566 11.3328 9.87011 10.9159 10.3234C10.4988 10.7767 9.32324 11.8725 9.32324 14.1012C9.32324 16.3302 10.9539 18.4838 11.1812 18.7863C11.4087 19.0884 14.3289 23.8082 18.9536 25.6239C22.7972 27.1329 23.5793 26.8328 24.4136 26.7573C25.2479 26.6817 27.1056 25.6617 27.4848 24.6038C27.864 23.5462 27.864 22.6396 27.7502 22.4502C27.6365 22.2614 27.3331 22.1481 26.878 21.9216C26.423 21.6951 24.1861 20.599 23.769 20.448C23.3518 20.297 23.0484 20.2215 22.7451 20.675C22.4417 21.128 21.5702 22.1481 21.3048 22.4502C21.0393 22.7529 20.7739 22.7906 20.3188 22.5641C19.8637 22.3369 18.3983 21.859 16.6599 20.3158C15.3072 19.1152 14.394 17.6324 14.1286 17.1789C13.8631 16.7258 14.1001 16.4804 14.3284 16.2546C14.5327 16.0517 14.7834 15.7258 15.011 15.4613C15.238 15.1967 15.3139 15.008 15.4655 14.7059C15.6172 14.4034 15.5414 14.1389 15.4276 13.9124C15.3139 13.6859 14.4296 11.4457 14.025 10.5499V10.5499Z" fill="white"/>
<path d="M31.4576 5.31857C28.0193 1.89305 23.4474 0.00556243 18.5764 0.00341797C8.53881 0.00341797 0.370283 8.1334 0.366248 18.1263C0.365065 21.3206 1.20337 24.4387 2.79677 27.1872L0.213379 36.5787L9.86676 34.0585C12.5265 35.5026 15.5211 36.2636 18.5686 36.2648H18.5763H18.5764C28.6123 36.2648 36.782 28.1334 36.7863 18.1409C36.7879 13.298 34.8954 8.74433 31.4576 5.31857V5.31857ZM18.5764 33.2039H18.5705C15.8541 33.2025 13.1903 32.4764 10.8669 31.1038L10.314 30.7774L4.58548 32.2728L6.1149 26.7141L5.75465 26.1443C4.23946 23.7457 3.43956 20.9737 3.44074 18.1275C3.44405 9.82176 10.2334 3.06462 18.5821 3.06462C22.625 3.06628 26.4247 4.63521 29.2826 7.48239C32.1402 10.3296 33.7127 14.1145 33.7116 18.1398C33.708 26.4458 26.9184 33.2039 18.5764 33.2039Z" fill="white"/>
</g>
<defs>
<linearGradient id="paint0_linear_675_610" x1="18.4997" y1="35.9458" x2="18.4997" y2="0.636778" gradientUnits="userSpaceOnUse">
<stop stop-color="#20B038"/>
<stop offset="1" stop-color="#60D66A"/>
</linearGradient>
<clipPath id="clip0_675_610">
<rect width="37" height="37" fill="white"/>
</clipPath>
</defs>
</svg>
