<svg xmlns="http://www.w3.org/2000/svg" width="12.998" height="13">
    <g data-name="Layer 2">
        <path data-name="Path 13971" d="M10.234 2.155a.464.464 0 0 0-.808.311v2.32A7.891 7.891 0 0 0 2 12.677v1.857a.464.464 0 0 0 .863.241l.622-1.04a7 7 0 0 1 5.941-3.379v2.321a.464.464 0 0 0 .808.311l4.642-5.106a.464.464 0 0 0 0-.627zm.121 9.321V9.892a.464.464 0 0 0-.464-.464h-.436a7.933 7.933 0 0 0-6.526 3.458v-.209a6.963 6.963 0 0 1 6.962-6.962.464.464 0 0 0 .464-.464V3.668l3.551 3.9z" style="fill:#529DFF" transform="translate(-2 -2.003)"/>
    </g>
</svg>
