<svg width="30" height="30" viewBox="0 0 30 30" fill="none" xmlns="http://www.w3.org/2000/svg">
<path d="M29.0078 14.5039C29.0078 22.5129 22.5129 29.0078 14.5039 29.0078C6.4949 29.0078 0 22.5129 0 14.5039C0 6.4949 6.4949 0 14.5039 0C22.5129 0 29.0078 6.4949 29.0078 14.5039Z" fill="#CA2127"/>
<path d="M13.2878 4.85679C9.20055 5.2953 5.12987 8.43933 4.96439 12.9402C4.85683 15.6871 6.00689 17.7473 8.75377 18.3265C9.06817 17.0275 9.12609 16.3242 9.12609 16.3242C9.12609 16.3242 7.91812 15.1659 7.79402 14.4295C6.78462 8.50552 14.9674 4.45965 19.2614 8.59653C22.2234 11.4675 20.2708 20.2956 15.4886 19.3772C10.9049 18.5002 17.7308 11.4758 14.0738 10.0941C11.1035 8.96885 9.52323 13.5277 10.9298 15.7864C10.1024 19.6751 8.32354 23.3404 9.04335 28.2136C11.3848 26.6002 12.1708 23.5058 12.8162 20.2791C13.9911 20.9575 14.6199 21.6691 16.1174 21.7766C21.6443 22.182 24.7304 16.5228 23.9775 11.2938C23.299 6.66047 18.4506 4.30245 13.2878 4.85679Z" fill="white"/>
</svg>
