<svg width="27" height="29" viewBox="0 0 27 29" fill="none" xmlns="http://www.w3.org/2000/svg">
<circle cx="13.0774" cy="15.7981" r="13.0461" fill="url(#paint0_linear_2473_132)" fill-opacity="0.1"/>
<path d="M13.0758 13.3701C12.6309 13.3701 12.2695 13.7315 12.2695 14.1764C12.2695 14.6214 12.6309 14.9827 13.0758 14.9827C13.5208 14.9827 13.8821 14.6214 13.8821 14.1764C13.8821 13.7315 13.5208 13.3701 13.0758 13.3701Z" fill="url(#paint1_linear_2473_132)"/>
<path d="M7.43359 24.7119H18.7218V27.9371H7.43359V24.7119Z" fill="url(#paint2_linear_2473_132)"/>
<path d="M13.0765 16.5958C11.7427 16.5958 10.6576 15.5106 10.6576 14.1769C10.6576 13.127 11.3337 12.2405 12.2702 11.9064V0.416016L5.6875 14.2226L6.49695 15.4367C8.01338 17.7116 8.84173 20.3839 8.98577 23.0999H17.1672C17.3112 20.3839 18.1396 17.7116 19.656 15.4367L20.4655 14.2224L13.8828 0.416016V11.9064C14.8193 12.2405 15.4954 13.127 15.4954 14.1769C15.4954 15.5106 14.4102 16.5958 13.0765 16.5958Z" fill="url(#paint3_linear_2473_132)"/>
<defs>
<linearGradient id="paint0_linear_2473_132" x1="13.077" y1="-4.43708" x2="15.1993" y2="36.6609" gradientUnits="userSpaceOnUse">
<stop stop-color="#927FBF"/>
<stop offset="1" stop-color="white"/>
</linearGradient>
<linearGradient id="paint1_linear_2473_132" x1="13.0758" y1="12.9258" x2="13.207" y2="15.4658" gradientUnits="userSpaceOnUse">
<stop stop-color="#927FBF"/>
<stop offset="1" stop-color="white"/>
</linearGradient>
<linearGradient id="paint2_linear_2473_132" x1="13.0775" y1="23.8233" x2="13.1527" y2="28.9158" gradientUnits="userSpaceOnUse">
<stop stop-color="#927FBF"/>
<stop offset="1" stop-color="white"/>
</linearGradient>
<linearGradient id="paint3_linear_2473_132" x1="13.0763" y1="-5.83394" x2="15.8983" y2="29.7671" gradientUnits="userSpaceOnUse">
<stop stop-color="#927FBF"/>
<stop offset="1" stop-color="white"/>
</linearGradient>
</defs>
</svg>
