<svg width="22" height="23" viewBox="0 0 22 23" fill="none" xmlns="http://www.w3.org/2000/svg">
<path d="M9.70495 5.6136L9.70494 5.6136C7.77415 6.06378 6.22072 7.59394 5.74597 9.51395L5.74597 9.51395C5.27092 11.4353 5.81458 13.3972 7.20292 14.7586C7.64637 15.1936 7.92033 15.9026 7.92033 16.6588V16.7847C7.92033 17.3242 8.14566 17.8119 8.50627 18.1588V20.2617C8.50627 21.3138 9.36198 22.1695 10.4141 22.1695H11.586C12.6381 22.1695 13.4938 21.3138 13.4938 20.2617V18.1588C13.8544 17.8119 14.0797 17.3242 14.0797 16.7847V16.6565C14.0797 15.9155 14.3669 15.1903 14.8391 14.7171L14.8391 14.7171C15.8606 13.6934 16.4235 12.3324 16.4235 10.8862C16.4235 7.42775 13.2181 4.79474 9.70495 5.6136ZM10.0051 6.90097C12.6876 6.27546 15.1016 8.27796 15.1016 10.8862C15.1016 11.9802 14.676 13.009 13.9034 13.7834L10.0051 6.90097ZM10.0392 7.04705L10.0392 7.04705C12.6269 6.44364 14.9516 8.37386 14.9516 10.8862C14.9516 11.9404 14.5418 12.9312 13.7972 13.6774C13.0392 14.437 12.6078 15.5232 12.6078 16.6565V16.7847C12.6078 17.0249 12.4121 17.2206 12.1719 17.2206H9.82815C9.5879 17.2206 9.39221 17.0249 9.39221 16.7847V16.6588C9.39221 15.5107 8.97368 14.4337 8.23344 13.7078C7.22211 12.716 6.82508 11.2817 7.17478 9.86724C7.51763 8.48056 8.64247 7.37267 10.0392 7.04705ZM12.0219 20.2617C12.0219 20.502 11.8262 20.6977 11.586 20.6977H10.4141C10.1738 20.6977 9.97815 20.502 9.97815 20.2617V18.6925H12.0219V20.2617Z" fill="#A5A4B5" stroke="#A5A4B5" stroke-width="0.3"/>
<path d="M6.44174 5.49979L6.5478 5.39372C6.83521 5.68112 6.83521 6.14707 6.54781 6.43447L6.44174 5.49979ZM6.44174 5.49979L6.5478 5.39372L4.89051 3.73646C4.89051 3.73646 4.8905 3.73646 4.8905 3.73645C4.60312 3.44904 4.13713 3.44906 3.84973 3.73645C3.56233 4.02386 3.56233 4.48981 3.84973 4.77722L3.84974 4.77722M6.44174 5.49979L3.84974 4.77722M3.84974 4.77722L5.50703 6.43447M3.84974 4.77722L5.50703 6.43447M5.50703 6.43447C5.50703 6.43448 5.50704 6.43448 5.50704 6.43449M5.50703 6.43447L5.50704 6.43449M5.50704 6.43449C5.79441 6.72189 6.26044 6.72189 6.5478 6.43448L5.50704 6.43449Z" fill="#A5A4B5" stroke="#A5A4B5" stroke-width="0.3"/>
<path d="M3.96875 10.1508H1.58594C1.1795 10.1508 0.85 10.4803 0.85 10.8867C0.85 11.2932 1.1795 11.6227 1.58594 11.6227H3.96875C4.37519 11.6227 4.70469 11.2932 4.70469 10.8867C4.70469 10.4803 4.37519 10.1508 3.96875 10.1508Z" fill="#A5A4B5" stroke="#A5A4B5" stroke-width="0.3"/>
<path d="M20.4141 10.1508H18.0312C17.6248 10.1508 17.2953 10.4803 17.2953 10.8867C17.2953 11.2932 17.6248 11.6227 18.0312 11.6227H20.4141C20.8205 11.6227 21.15 11.2932 21.15 10.8867C21.15 10.4803 20.8205 10.1508 20.4141 10.1508Z" fill="#A5A4B5" stroke="#A5A4B5" stroke-width="0.3"/>
<path d="M17.1086 3.73645L17.1086 3.73644C17.396 3.44907 17.862 3.44903 18.1494 3.73645L17.1086 3.73645ZM17.1086 3.73645L15.4513 5.39371C15.4513 5.39371 15.4513 5.39372 15.4513 5.39372C15.1639 5.68109 15.1639 6.14707 15.4513 6.43447L17.1086 3.73645ZM18.1494 4.77722C18.4368 4.48985 18.4368 4.02387 18.1494 3.73647L15.4513 6.43448C15.7387 6.7219 16.2047 6.72188 16.4921 6.43448L18.1494 4.77723C18.1494 4.77722 18.1494 4.77722 18.1494 4.77722Z" fill="#A5A4B5" stroke="#A5A4B5" stroke-width="0.3"/>
<path d="M11 0.736719C10.5936 0.736719 10.2641 1.06622 10.2641 1.47266V3.85547C10.2641 4.26191 10.5936 4.59141 11 4.59141C11.4064 4.59141 11.7359 4.26191 11.7359 3.85547V1.47266C11.7359 1.06622 11.4064 0.736719 11 0.736719Z" fill="#A5A4B5" stroke="#A5A4B5" stroke-width="0.3"/>
</svg>
