<svg xmlns="http://www.w3.org/2000/svg" width="21.6" height="14.884" viewBox="0 0 21.6 14.884">
    <defs>
        <style>
            .cls-1{fill:#fbbe55;stroke:#fbbe55;stroke-width:.1px}
        </style>
    </defs>
    <g id="Group_6673" transform="translate(-328.95 -312.95)">
        <g id="Group_6658" transform="translate(331.426 314.04)">
            <g id="Group_6657">
                <path id="Path_13796" d="M89.772 127.689c-.461-.962-2.111-2.3-3.705-3.586-.889-.719-1.729-1.4-2.265-1.934a.489.489 0 0 0-.512-.115c-.33.119-.534.211-.694.283a1.619 1.619 0 0 1-.657.18.489.489 0 0 0-.358.214 1.5 1.5 0 0 1-1.888.786c-.153-.051-.18-.117-.195-.179a3.237 3.237 0 0 1 1.082-2.1c1.591-1.592 2.412-1.991 4.145-1.216 1.966.879 3.936 1.568 3.956 1.575a.49.49 0 1 0 .322-.925c-.02-.007-1.95-.682-3.877-1.544-2.245-1-3.477-.343-5.237 1.418-.67.67-1.579 2.025-1.344 3.019a1.211 1.211 0 0 0 .841.882 2.45 2.45 0 0 0 2.876-.985 2.472 2.472 0 0 0 .738-.232c.092-.041.2-.089.343-.147.56.526 1.316 1.138 2.112 1.781 1.439 1.164 3.072 2.484 3.439 3.248a.574.574 0 0 1-.146.735c-.194.166-1.62 1.063-1.743 1.125a12.418 12.418 0 0 1-2.162 1.08 3.435 3.435 0 0 1-3.072-.136c-.344-.226-2.5-1.834-4.36-3.393-.261-.22-.714-.692-1.113-1.109-.354-.37-.679-.706-.845-.847a.49.49 0 0 0-.633.748c.152.128.446.439.77.776.437.456.888.928 1.192 1.183 1.823 1.527 4.015 3.174 4.451 3.461 1.269 1.044 3.586.378 3.963.231.446-.172 1.847-.916 2.248-1.118s1.931-1.262 1.941-1.256a1.557 1.557 0 0 0 .387-1.903z" class="cls-1" transform="translate(-74.642 -118.658)"/>
            </g>
        </g>
        <g id="Group_6660" transform="translate(332.896 314.958)">
            <g id="Group_6659">
                <path id="Path_13797" d="M111.562 138.663h-4.406a.49.49 0 1 0 0 .979h4.406a.49.49 0 1 0 0-.979z" class="cls-1" transform="translate(-106.666 -138.663)"/>
            </g>
        </g>
        <g id="Group_6662" transform="translate(345.662 321.811)">
            <g id="Group_6661">
                <path id="Path_13798" d="M387.138 288.195a.488.488 0 0 0-.68-.133l-1.432.961a.49.49 0 0 0 .546.813l1.432-.962a.49.49 0 0 0 .134-.679z" class="cls-1" transform="translate(-384.811 -287.977)"/>
            </g>
        </g>
        <g id="Group_6670" transform="translate(328 313)">
            <g id="Group_6669">
                <path id="Path_13802" d="M1.519 96a.489.489 0 0 0-.519.493v8.812a.49.49 0 0 0 .49.49h1.937a.489.489 0 0 0 .465-.338c.071-.219 1.985-7.858 1.981-7.943A16.593 16.593 0 0 0 1.519 96zm1.551 8.812H1.979v-7.8l2.883.964s-1.428 5.69-1.792 6.84z" class="cls-1" transform="translate(0 -96.003)"/>
            </g>
        </g>
        <g id="Group_6672" transform="translate(344.663 313.979)">
            <g id="Group_6671">
                <path id="Path_13803" d="M368.393 117.33a45.631 45.631 0 0 0-5.327 1.33c-.039.134 2.911 8.113 2.918 8.1a.489.489 0 0 0 .472.359h1.938a.49.49 0 0 0 .49-.49v-8.809a.489.489 0 0 0-.491-.49zm-.49 8.813h-1.082c-.464-1.512-2.486-6.869-2.487-6.87.747-.254 3.563-.781 3.563-.781z" class="cls-1" transform="translate(-363.046 -117.33)"/>
            </g>
        </g>
    </g>
</svg>
