<svg width="40" height="40" viewBox="0 0 40 40" fill="none" xmlns="http://www.w3.org/2000/svg">
<path d="M23.3333 3.33334H15C6.66668 3.33334 3.33334 6.66668 3.33334 15V25C3.33334 33.3333 6.66668 36.6667 15 36.6667" stroke="#4785FF" stroke-width="1.5" stroke-linecap="round" stroke-linejoin="round"/>
<path d="M36.6667 16.6667V21.6667" stroke="#4785FF" stroke-width="1.5" stroke-linecap="round" stroke-linejoin="round"/>
<path d="M36.6667 16.6667H30C25 16.6667 23.3333 15 23.3333 10V3.33334L36.6667 16.6667Z" stroke="#4785FF" stroke-width="1.5" stroke-linecap="round" stroke-linejoin="round"/>
<path d="M29.5524 26.1151L22.6411 33.0273C22.378 33.2905 22.1149 33.808 22.0623 34.1852L21.6851 36.8256C21.5448 37.7817 22.2201 38.4483 23.1761 38.3168L25.8161 37.9396C26.1844 37.8869 26.7019 37.6238 26.9738 37.3606L33.885 30.4484C35.0778 29.2554 35.6392 27.8695 33.885 26.1151C32.1309 24.3607 30.7452 24.9221 29.5524 26.1151Z" stroke="#4785FF" stroke-width="1.5" stroke-miterlimit="10" stroke-linecap="round" stroke-linejoin="round"/>
<path d="M29 27C29.4069 28.9352 30.5425 30.4494 32 31" stroke="#4785FF" stroke-width="1.5" stroke-miterlimit="10" stroke-linecap="round" stroke-linejoin="round"/>
<path d="M8.33334 18.3333H16.6667" stroke="#4785FF" stroke-width="1.8" stroke-miterlimit="10" stroke-linecap="round" stroke-linejoin="round"/>
<path d="M8.33334 25H21.6667" stroke="#4785FF" stroke-width="1.8" stroke-miterlimit="10" stroke-linecap="round" stroke-linejoin="round"/>
</svg>
