<svg width="19" height="18" viewBox="0 0 19 18" fill="none" xmlns="http://www.w3.org/2000/svg">
<path d="M3.4515 0.0878906H15.861C16.63 0.0878906 17.3293 0.339261 17.8357 0.743118C18.3421 1.1475 18.6562 1.70592 18.6562 2.32003V14.8557C18.6562 15.4704 18.3421 16.0283 17.8357 16.4327C17.3293 16.837 16.63 17.0879 15.861 17.0879H3.4515C2.68246 17.0879 1.98316 16.8365 1.47677 16.4327C0.970382 16.0283 0.65625 15.4699 0.65625 14.8557V2.32003C0.65625 1.7054 0.970382 1.1475 1.47677 0.743118C1.98316 0.33874 2.68246 0.0878906 3.4515 0.0878906ZM4.1697 4.59798C3.95137 4.73121 3.63854 4.6979 3.47235 4.52356C3.30551 4.34921 3.34722 4.0994 3.5662 3.96617L5.70256 2.66612C5.88765 2.55319 6.13987 2.55996 6.31388 2.67081L8.44371 3.96617C8.66204 4.0994 8.70441 4.34869 8.53691 4.52356C8.37007 4.6979 8.05789 4.73121 7.83957 4.59798L6.50353 3.78558V6.75674C6.50353 6.99458 6.58304 7.21264 6.72837 7.39427L6.74336 7.41353C6.88805 7.58683 7.0979 7.72943 7.35924 7.82571L12.5672 9.74404C13.013 9.90797 13.3708 10.1593 13.6191 10.4685L13.638 10.494C13.8745 10.7995 14.0036 11.1555 14.0036 11.5354V14.1953C14.0036 14.4155 13.78 14.594 13.5044 14.594C13.2287 14.594 13.0058 14.4155 13.0058 14.1953V11.5354C13.0058 11.3048 12.9315 11.093 12.7959 10.9155L12.7809 10.8978C12.6343 10.7152 12.4192 10.5653 12.1501 10.4659L6.94214 8.54756C6.51005 8.3883 6.15877 8.14578 5.91111 7.84705L5.89025 7.82311C5.6413 7.51293 5.50509 7.14759 5.50509 6.75622V3.78506L4.1697 4.59798ZM5.89547 10.825C6.53872 10.825 7.12136 11.0332 7.54303 11.3699C7.9647 11.7066 8.22539 12.1719 8.22539 12.6855C8.22539 13.1992 7.9647 13.6645 7.54303 14.0017C7.12136 14.3384 6.53872 14.5466 5.89547 14.5466C5.25222 14.5466 4.66957 14.3384 4.24791 14.0017C3.82624 13.665 3.5649 13.1997 3.5649 12.6855C3.5649 12.1719 3.82559 11.7066 4.24791 11.3699C4.66957 11.0332 5.25222 10.825 5.89547 10.825ZM6.83786 11.9335C6.59673 11.7409 6.26369 11.6218 5.89547 11.6218C5.52724 11.6218 5.19421 11.7409 4.95307 11.9335C4.71194 12.1261 4.56269 12.392 4.56269 12.6861C4.56269 12.9801 4.71194 13.246 4.95307 13.4386C5.19421 13.6312 5.52724 13.7503 5.89547 13.7503C6.26369 13.7503 6.59673 13.6312 6.83786 13.4386C7.079 13.246 7.22825 12.9801 7.22825 12.6861C7.22825 12.392 7.079 12.1261 6.83786 11.9335ZM12.3097 6.25868C12.1149 6.41429 11.7988 6.41429 11.6039 6.25868C11.4091 6.10307 11.4091 5.85118 11.6039 5.69557L12.9954 4.58445L11.6039 3.47332C11.4091 3.31771 11.4091 3.06582 11.6039 2.90969C11.7988 2.75408 12.1149 2.75408 12.3097 2.90969L13.7012 4.02082L15.0926 2.90969C15.2875 2.75408 15.6036 2.75408 15.7984 2.90969C15.9933 3.0653 15.9933 3.31771 15.7984 3.47332L14.407 4.58445L15.7984 5.69557C15.9933 5.85118 15.9933 6.10307 15.7984 6.25868C15.6036 6.41429 15.2881 6.41429 15.0926 6.25868L13.7012 5.14756L12.3097 6.25868ZM15.8617 0.885197H3.45215C2.95814 0.885197 2.5091 1.04705 2.18324 1.30727C1.85738 1.56749 1.65469 1.92659 1.65469 2.32108V14.8568C1.65469 15.2513 1.85738 15.6099 2.18324 15.8706C2.5091 16.1308 2.95814 16.2927 3.45215 16.2927H15.8617C16.3557 16.2927 16.8047 16.1313 17.1312 15.8706C17.4571 15.6104 17.6598 15.2513 17.6598 14.8568V2.32108C17.6598 1.92659 17.4571 1.56801 17.1312 1.30727C16.8053 1.04705 16.3557 0.885197 15.8617 0.885197Z" fill="#5C5F65"/>
</svg>
