<svg width="40" height="40" viewBox="0 0 40 40" fill="none" xmlns="http://www.w3.org/2000/svg">
<path d="M15.5166 24.5002L18.0166 27.0002L24.6833 20.3335" stroke="#4785FF" stroke-width="1.8" stroke-linecap="round" stroke-linejoin="round"/>
<path d="M16.6666 10.0002H23.3333C26.6666 10.0002 26.6666 8.3335 26.6666 6.66683C26.6666 3.3335 24.9999 3.3335 23.3333 3.3335H16.6666C14.9999 3.3335 13.3333 3.3335 13.3333 6.66683C13.3333 10.0002 14.9999 10.0002 16.6666 10.0002Z" stroke="#4785FF" stroke-width="1.8" stroke-miterlimit="10" stroke-linecap="round" stroke-linejoin="round"/>
<path d="M26.6667 6.7002C32.2167 7.0002 35 9.0502 35 16.6669V26.6669C35 33.3335 33.3333 36.6669 25 36.6669H15C6.66667 36.6669 5 33.3335 5 26.6669V16.6669C5 9.06686 7.78333 7.0002 13.3333 6.7002" stroke="#4785FF" stroke-width="1.8" stroke-miterlimit="10" stroke-linecap="round" stroke-linejoin="round"/>
</svg>
