<svg width="40" height="40" viewBox="0 0 40 40" fill="none" xmlns="http://www.w3.org/2000/svg">
<path d="M14.9999 36.6668H24.9999C33.3333 36.6668 36.6666 33.3335 36.6666 25.0002V15.0002C36.6666 6.66683 33.3333 3.3335 24.9999 3.3335H14.9999C6.66659 3.3335 3.33325 6.66683 3.33325 15.0002V25.0002C3.33325 33.3335 6.66659 36.6668 14.9999 36.6668Z" stroke="#292D32" stroke-width="1.8" stroke-linecap="round" stroke-linejoin="round"/>
<path d="M15.0001 16.6667C16.841 16.6667 18.3334 15.1743 18.3334 13.3333C18.3334 11.4924 16.841 10 15.0001 10C13.1591 10 11.6667 11.4924 11.6667 13.3333C11.6667 15.1743 13.1591 16.6667 15.0001 16.6667Z" stroke="#292D32" stroke-width="1.8" stroke-linecap="round" stroke-linejoin="round"/>
<path d="M4.44995 31.5831L12.6666 26.0664C13.9833 25.1831 15.8833 25.2831 17.0666 26.2998L17.6166 26.7831C18.9166 27.8998 21.0166 27.8998 22.3166 26.7831L29.25 20.8331C30.55 19.7164 32.65 19.7164 33.95 20.8331L36.6666 23.1664" stroke="#292D32" stroke-width="1.8" stroke-linecap="round" stroke-linejoin="round"/>
</svg>
