<svg width="24" height="24" viewBox="0 0 24 24" fill="none" xmlns="http://www.w3.org/2000/svg">
<path d="M5.75 3C5.02065 3 4.32118 3.28973 3.80546 3.80546C3.28973 4.32118 3 5.02065 3 5.75V18.25C3 18.9793 3.28973 19.6788 3.80546 20.1945C4.32118 20.7103 5.02065 21 5.75 21H18.25C18.9793 21 19.6788 20.7103 20.1945 20.1945C20.7103 19.6788 21 18.9793 21 18.25V5.75C21 5.02065 20.7103 4.32118 20.1945 3.80546C19.6788 3.28973 18.9793 3 18.25 3H5.75ZM4.5 5.75C4.5 5.06 5.06 4.5 5.75 4.5H18.25C18.94 4.5 19.5 5.06 19.5 5.75V18.25C19.5 18.94 18.94 19.5 18.25 19.5H5.75C5.06 19.5 4.5 18.94 4.5 18.25V5.75ZM7.25 9C7.05109 9 6.86032 9.07902 6.71967 9.21967C6.57902 9.36032 6.5 9.55109 6.5 9.75C6.5 9.94891 6.57902 10.1397 6.71967 10.2803C6.86032 10.421 7.05109 10.5 7.25 10.5H16.75C16.9489 10.5 17.1397 10.421 17.2803 10.2803C17.421 10.1397 17.5 9.94891 17.5 9.75C17.5 9.55109 17.421 9.36032 17.2803 9.21967C17.1397 9.07902 16.9489 9 16.75 9H7.25ZM9.25 13C9.05109 13 8.86032 13.079 8.71967 13.2197C8.57902 13.3603 8.5 13.5511 8.5 13.75C8.5 13.9489 8.57902 14.1397 8.71967 14.2803C8.86032 14.421 9.05109 14.5 9.25 14.5H14.75C14.9489 14.5 15.1397 14.421 15.2803 14.2803C15.421 14.1397 15.5 13.9489 15.5 13.75C15.5 13.5511 15.421 13.3603 15.2803 13.2197C15.1397 13.079 14.9489 13 14.75 13H9.25Z" fill="#4785FF"/>
</svg>
