<svg width="24" height="24" viewBox="0 0 24 24" fill="none" xmlns="http://www.w3.org/2000/svg">
<path d="M13.8001 16.2002L9.6001 16.2002" stroke="#4785FF" stroke-width="1.5" stroke-linecap="round" stroke-linejoin="round"/>
<path d="M18.0001 16.05C18.0001 14.973 17.127 14.1 16.0501 14.1C14.9731 14.1 14.1001 14.973 14.1001 16.05C14.1001 17.1269 14.9731 18 16.0501 18C17.127 18 18.0001 17.127 18.0001 16.05Z" stroke="#4785FF" stroke-width="1.5" stroke-linecap="round" stroke-linejoin="round"/>
<path d="M9.60001 16.2C9.60002 15.2059 8.79411 14.4 7.8 14.4C6.80589 14.4 6.00001 15.2059 6.00001 16.2C6 17.1941 6.80588 18 7.79999 18C8.7941 18 9.60001 17.1941 9.60001 16.2Z" stroke="#4785FF" stroke-width="1.5" stroke-linecap="round" stroke-linejoin="round"/>
<path d="M9.60001 7.79963C9.60002 6.80552 8.79411 5.99964 7.8 5.99964C6.80589 5.99964 6.00001 6.80551 6.00001 7.79962C6 8.79373 6.80588 9.59961 7.79999 9.59962C8.7941 9.59962 9.60001 8.79375 9.60001 7.79963Z" stroke="#4785FF" stroke-width="1.5" stroke-linecap="round" stroke-linejoin="round"/>
<path d="M13.8001 16.1201C12.7501 15.8501 11.9701 14.8901 11.9801 13.7601L11.9901 11.7001C12.0001 10.1301 10.9901 8.79011 9.5801 8.30011" stroke="#4785FF" stroke-width="1.5" stroke-linecap="round" stroke-linejoin="round"/>
<path d="M2.00002 15L2.00004 9C2.00006 4 4.00007 2.00001 9.00007 2.00002L15.0001 2.00004C20.0001 2.00006 22.0001 4.00007 22 9.00007L22 15.0001C22 20.0001 20 22.0001 15 22L9 22C4 22 2.00001 20 2.00002 15Z" stroke="#4785FF" stroke-width="1.5" stroke-linecap="round" stroke-linejoin="round"/>
</svg>
