<svg width="56" height="22" viewBox="0 0 56 22" fill="none" xmlns="http://www.w3.org/2000/svg">
<g clip-path="url(#clip0_2356_2031)">
<path d="M8.50348 5.24894L4.25699 2.62447L0.0117188 5.24894V2.62447L4.2576 0L8.50408 2.62447V5.24894H8.50348Z" fill="#A435F0"/>
<path d="M0.0117188 7.45286H2.23589V13.2382C2.23589 14.7329 3.27848 15.4615 4.2576 15.4615C5.24518 15.4615 6.27991 14.7135 6.27991 13.2182V7.45286H8.50408V13.376C8.50408 14.753 8.09974 15.8155 7.29106 16.544C6.48177 17.272 5.47122 17.6266 4.23886 17.6266C3.00771 17.6266 1.99655 17.2726 1.20661 16.544C0.416059 15.8161 0.0117188 14.7931 0.0117188 13.4349V7.45286ZM27.7329 14.643C27.0596 15.2849 26.2927 15.5993 25.4181 15.5993C23.8225 15.5993 22.7527 14.6262 22.6318 13.1192H29.8181C29.8181 13.1192 29.8664 12.6326 29.8664 12.1757C29.8664 10.7587 29.4434 9.5778 28.5791 8.61369C27.7341 7.64957 26.6317 7.17721 25.2894 7.17721C23.8745 7.17721 22.7158 7.64957 21.7966 8.61369C20.896 9.5778 20.4367 10.837 20.4367 12.4119V12.4896C20.4367 14.0444 20.896 15.2842 21.7966 16.2095C22.6971 17.1342 23.892 17.6065 25.3444 17.6065C27.033 17.6065 28.3766 16.8935 29.3847 15.664L27.7329 14.643ZM23.5058 9.81398C24.0014 9.40051 24.6088 9.18439 25.2888 9.18439C25.9318 9.18439 26.4649 9.40051 26.9249 9.83404C27.3636 10.2287 27.6006 10.7134 27.6211 11.2705H22.6886C22.76 10.6946 23.0319 10.2093 23.5064 9.81463L23.5058 9.81398ZM50.1222 18.9433C49.2198 21.2242 48.2757 22 46.8282 22H45.8249V19.8893H46.636C47.134 19.8893 47.597 19.6887 48.0382 18.5991L48.4794 17.5082L44.6741 7.45286H46.9352L49.6374 14.6947L52.4134 7.45286H54.6739L50.1228 18.9433H50.1222ZM17.1627 3.65527V8.35098C16.4338 7.65216 15.2999 7.2361 14.2035 7.2361C12.898 7.2361 11.7956 7.72786 10.8951 8.7308C10.0127 9.71498 9.57144 10.9347 9.57144 12.4106C9.57144 13.8872 10.0127 15.1069 10.8951 16.1105C11.7956 17.0947 12.8986 17.5871 14.2035 17.5871C15.7085 17.5871 16.6598 16.9536 17.1627 16.4573V17.3703H19.3687V3.65592H17.1627V3.65527ZM16.5008 14.5763C15.9678 15.147 15.2878 15.4427 14.4973 15.4427C13.7067 15.4427 13.0636 15.147 12.5306 14.5763C12.0168 14.0056 11.7588 13.2777 11.7588 12.4119C11.7588 11.5455 12.0162 10.8176 12.5306 10.2469C13.0636 9.67616 13.7067 9.3811 14.4973 9.3811C15.2878 9.3811 15.9678 9.67616 16.5008 10.2469C17.052 10.8176 17.3289 11.5455 17.3289 12.4119C17.3289 13.2777 17.052 14.0056 16.5008 14.5763ZM41.2448 7.25616C39.5694 7.25616 38.6985 8.00027 38.1019 8.71721C37.8632 8.22998 37.1911 7.25616 35.6209 7.25616C34.2936 7.25616 33.5116 7.97439 33.1211 8.48557V7.45416H30.9344V17.3716H33.1211V11.6646C33.1211 10.3265 33.8935 9.36233 34.9222 9.36233C35.9708 9.36233 36.577 10.2087 36.577 11.5662V17.371H38.7644V11.6639C38.7644 10.3064 39.5174 9.36169 40.6017 9.36169C41.6497 9.36169 42.256 10.208 42.256 11.5649V17.3703H44.462V11.231C44.462 8.64539 43.1638 7.2568 41.2448 7.2568V7.25616Z" fill="black"/>
</g>
<defs>
<clipPath id="clip0_2356_2031">
<rect width="55" height="22" fill="white" transform="translate(0.0117188)"/>
</clipPath>
</defs>
</svg>
