<svg width="16" height="16" viewBox="0 0 16 16" fill="none" xmlns="http://www.w3.org/2000/svg">
<path d="M15.429 12.5714H13.7147V10.8571C13.7147 10.7055 13.6545 10.5602 13.5473 10.453C13.4402 10.3458 13.2948 10.2856 13.1433 10.2856C12.9917 10.2856 12.8464 10.3458 12.7392 10.453C12.6321 10.5602 12.5718 10.7055 12.5718 10.8571V12.5714H10.8576C10.706 12.5714 10.5607 12.6316 10.4535 12.7387C10.3463 12.8459 10.2861 12.9912 10.2861 13.1428C10.2861 13.2943 10.3463 13.4397 10.4535 13.5468C10.5607 13.654 10.706 13.7142 10.8576 13.7142H12.5718V15.4285C12.5718 15.5801 12.6321 15.7254 12.7392 15.8326C12.8464 15.9397 12.9917 15.9999 13.1433 15.9999C13.2948 15.9999 13.4402 15.9397 13.5473 15.8326C13.6545 15.7254 13.7147 15.5801 13.7147 15.4285V13.7142H15.429C15.5805 13.7142 15.7259 13.654 15.8331 13.5468C15.9402 13.4397 16.0004 13.2943 16.0004 13.1428C16.0004 12.9912 15.9402 12.8459 15.8331 12.7387C15.7259 12.6316 15.5805 12.5714 15.429 12.5714Z" fill="#ACB0C1"/>
<path d="M8.57143 12.5714H1.71429C1.56273 12.5714 1.41739 12.5112 1.31022 12.4041C1.20306 12.2969 1.14286 12.1516 1.14286 12V10.52L3.42857 8.23429L4.73714 9.54857C4.79026 9.60213 4.85346 9.64464 4.9231 9.67365C4.99273 9.70266 5.06742 9.7176 5.14286 9.7176C5.21829 9.7176 5.29298 9.70266 5.36262 9.67365C5.43225 9.64464 5.49545 9.60213 5.54857 9.54857L8.57143 6.52L11.0229 8.97714C11.1305 9.08474 11.2764 9.14519 11.4286 9.14519C11.5807 9.14519 11.7267 9.08474 11.8343 8.97714C11.9419 8.86954 12.0023 8.7236 12.0023 8.57143C12.0023 8.41926 11.9419 8.27332 11.8343 8.16571L8.97714 5.30857C8.92402 5.25501 8.86082 5.2125 8.79119 5.18349C8.72155 5.15448 8.64686 5.13954 8.57143 5.13954C8.49599 5.13954 8.4213 5.15448 8.35167 5.18349C8.28204 5.2125 8.21884 5.25501 8.16571 5.30857L5.14286 8.33714L3.83429 7.02286C3.78116 6.9693 3.71796 6.92679 3.64833 6.89778C3.5787 6.86877 3.50401 6.85383 3.42857 6.85383C3.35314 6.85383 3.27845 6.86877 3.20881 6.89778C3.13918 6.92679 3.07598 6.9693 3.02286 7.02286L1.14286 8.90857V1.71429C1.14286 1.56273 1.20306 1.41739 1.31022 1.31022C1.41739 1.20306 1.56273 1.14286 1.71429 1.14286H12C12.1516 1.14286 12.2969 1.20306 12.4041 1.31022C12.5112 1.41739 12.5714 1.56273 12.5714 1.71429V8.57143C12.5714 8.72298 12.6316 8.86833 12.7388 8.97549C12.846 9.08265 12.9913 9.14286 13.1429 9.14286C13.2944 9.14286 13.4398 9.08265 13.5469 8.97549C13.6541 8.86833 13.7143 8.72298 13.7143 8.57143V1.71429C13.7143 1.25963 13.5337 0.823594 13.2122 0.502103C12.8907 0.180612 12.4547 0 12 0H1.71429C1.25963 0 0.823594 0.180612 0.502103 0.502103C0.180612 0.823594 0 1.25963 0 1.71429V12C0 12.4547 0.180612 12.8907 0.502103 13.2122C0.823594 13.5337 1.25963 13.7143 1.71429 13.7143H8.57143C8.72298 13.7143 8.86833 13.6541 8.97549 13.5469C9.08265 13.4398 9.14286 13.2944 9.14286 13.1429C9.14286 12.9913 9.08265 12.846 8.97549 12.7388C8.86833 12.6316 8.72298 12.5714 8.57143 12.5714Z" fill="#ACB0C1"/>
<path d="M3.42871 3.99993C3.42871 4.33898 3.52925 4.67042 3.71762 4.95234C3.90599 5.23425 4.17372 5.45397 4.48697 5.58372C4.80021 5.71347 5.1449 5.74742 5.47744 5.68128C5.80998 5.61513 6.11543 5.45186 6.35518 5.21211C6.59493 4.97237 6.7582 4.66691 6.82434 4.33437C6.89049 4.00183 6.85654 3.65715 6.72679 3.3439C6.59704 3.03066 6.37732 2.76292 6.0954 2.57455C5.81349 2.38619 5.48205 2.28564 5.143 2.28564C4.68834 2.28564 4.2523 2.46626 3.93081 2.78775C3.60932 3.10924 3.42871 3.54527 3.42871 3.99993ZM5.71443 3.99993C5.71443 4.11295 5.68091 4.22343 5.61812 4.3174C5.55533 4.41137 5.46609 4.48461 5.36167 4.52786C5.25726 4.57111 5.14236 4.58243 5.03152 4.56038C4.92067 4.53833 4.81885 4.48391 4.73894 4.40399C4.65902 4.32408 4.6046 4.22226 4.58255 4.11141C4.5605 4.00056 4.57182 3.88567 4.61507 3.78125C4.65832 3.67684 4.73156 3.58759 4.82553 3.5248C4.9195 3.46202 5.02998 3.4285 5.143 3.4285C5.29455 3.4285 5.43989 3.48871 5.54706 3.59587C5.65422 3.70303 5.71443 3.84838 5.71443 3.99993Z" fill="#ACB0C1"/>
</svg>
