<svg width="72" height="53" viewBox="0 0 72 53" fill="none" xmlns="http://www.w3.org/2000/svg">
<path d="M69.9318 25.2142H56.5974V17.3148C56.5974 16.6603 56.0673 16.1295 55.4121 16.1295H43.1088C42.935 12.3025 42.7566 -1.3243 37.7718 0.104525C31.9079 1.52955 9.70837 6.93101 4.30152 8.24464C1.7689 8.85755 0.000236944 11.1129 0.000236944 13.7295V20.3428C-0.0207732 22.5198 1.35732 24.6795 3.39519 25.5222V40.9695C3.39519 42.8244 4.90457 44.3338 6.76004 44.3338C11.2882 44.3338 15.0477 40.9232 15.5038 36.3991L16.2675 28.7384L21.539 30.0204V39.1071C21.539 39.7617 22.0691 40.2924 22.7243 40.2924H25.1747V51.8147C25.1747 52.4693 25.7049 53 26.36 53H66.3088C66.964 53 67.4941 52.4693 67.4941 51.8147V40.2924H69.9318C70.587 40.2924 71.1171 39.7617 71.1171 39.1071V26.3995C71.1171 25.7449 70.587 25.2142 69.9318 25.2142ZM54.2268 25.2142H42.646C42.9106 22.9947 43.056 20.75 43.1033 18.5001H54.2268V25.2142ZM38.4617 2.37612C38.4651 2.37496 38.4686 2.37381 38.4732 2.37323C39.302 3.23093 40.7466 8.19256 40.7466 17.0364C40.8128 21.1487 40.1521 29.4985 38.4709 31.6956C38.4478 31.6898 38.4235 31.6852 38.3992 31.6811C32.3438 30.205 19.5971 27.1086 13.6854 25.6671V8.40265L38.4617 2.37612ZM2.3708 20.3428V13.7295C2.3708 12.2114 3.39403 10.9034 4.86058 10.5481L11.3148 8.97908V25.0915L5.55183 23.6921C3.80536 23.4686 2.3474 22.159 2.3708 20.3428ZM13.1448 36.163C12.8115 39.4694 10.067 41.9632 6.76004 41.9632C6.21139 41.9632 5.76575 41.5176 5.76575 40.9695V26.1842C7.26954 26.5496 12.5168 27.8262 13.942 28.1728L13.1448 36.163ZM65.1236 50.6294H27.5453V40.2924H39.2766V45.4797C39.2766 46.1343 39.8067 46.665 40.4618 46.665H53.1318C53.787 46.665 54.3171 46.1343 54.3171 45.4797V40.2924H65.1236V50.6294ZM41.6471 40.2924H51.9466V44.2944H41.6471V40.2924ZM68.7465 37.9218C54.969 37.9218 37.6939 37.9218 23.9096 37.9218V30.5969C23.9959 30.616 37.8895 34.0003 37.9639 34.0129C41.0162 34.8223 41.8198 29.6967 42.2872 27.5848C48.8786 27.5848 62.1523 27.5848 68.7465 27.5848V37.9218Z" fill="#FFA800 "/>
<path d="M47.4127 6.32552C47.2845 6.67946 54.9563 2.63243 55.0534 2.64471C56.4334 1.92611 55.3999 -0.149241 53.993 0.524152L46.8814 4.07997C45.7677 4.61296 46.1967 6.35309 47.4127 6.32552Z" fill="#FFA800 "/>
<path d="M47.4116 11.0667C47.4116 11.7212 47.9418 12.2519 48.5969 12.2519H55.7086C56.3637 12.2519 56.8939 11.7212 56.8939 11.0667C56.8939 10.4121 56.3637 9.88138 55.7086 9.88138H48.5969C47.9418 9.88138 47.4116 10.4121 47.4116 11.0667Z" fill="#FFA800 "/>
</svg>
