<svg width="18" height="18" viewBox="0 0 18 18" fill="none" xmlns="http://www.w3.org/2000/svg">
<g clip-path="url(#clip0_292_1016)">
<path d="M12.3286 13.4589V16.8069H10.7314V10.7313H16.8154V12.3285H13.459L17.9278 16.7985L16.7986 17.9277L12.3286 13.4589Z" fill="#A5A4B5"/>
<path d="M13.459 5.67135H16.807V7.26855H10.7314V1.18455H12.3286V4.54095L16.7986 0.0721545L17.9278 1.20135L13.459 5.67135Z" fill="#A5A4B5"/>
<path d="M4.54107 12.3285H1.19307V10.7313H7.26867V16.8153H5.67147V13.4589L1.20147 17.9277L0.0722656 16.7985L4.54107 12.3285Z" fill="#A5A4B5"/>
<path d="M5.67147 4.54095V1.19296H7.26867V7.26855H1.18467V5.67135H4.54107L0.0722656 1.20135L1.20147 0.0721545L5.67147 4.54095Z" fill="#A5A4B5"/>
</g>
<defs>
<clipPath id="clip0_292_1016">
<rect width="18" height="18" fill="white" transform="matrix(1 0 0 -1 0 18)"/>
</clipPath>
</defs>
</svg>
