<svg xmlns="http://www.w3.org/2000/svg" width="23.812" height="22">
    <g data-name="Group 9447">
        <path data-name="Rectangle 2931" transform="translate(8.763 3.859)" style="fill:#4f8aff" d="M0 0h7v13H0z"/>
        <path data-name="Path 17104" d="M807.656 160.985a13.261 13.261 0 0 1 9.061 3.185 9.2 9.2 0 0 1 3.087 5.3 8.663 8.663 0 0 1-2.014 7.4 11.851 11.851 0 0 1-7.077 4.029 13.653 13.653 0 0 1-6.6-.318.456.456 0 0 0-.44.079 12.38 12.38 0 0 1-5.067 2.2c-.325.056-.654.093-.983.125a.465.465 0 0 1-.509-.27.476.476 0 0 1 .17-.594 5.546 5.546 0 0 0 1.466-1.991 3.715 3.715 0 0 0 .24-2.281 1.15 1.15 0 0 0-.263-.506 9.258 9.258 0 0 1-2.42-4.671 8.67 8.67 0 0 1 1.994-7.353 11.778 11.778 0 0 1 7.092-4.047c.873-.172 1.768-.227 2.263-.287zm1.3 15.569v-6.371h-1.792v6.371zm-.906-8.69a1.371 1.371 0 1 0-1.365-1.366 1.374 1.374 0 0 0 1.362 1.367z" transform="translate(-796.152 -160.985)" style="fill:#d1e1ff"/>
    </g>
</svg>
