<svg xmlns="http://www.w3.org/2000/svg" width="18.61" height="18.582">
    <defs>
        <style>
            .cls-1{fill:#77b2ff}
        </style>
    </defs>
    <g id="Group_9283" data-name="Group 9283" transform="translate(-93.8 -216.69)">
        <path id="Path_17090" data-name="Path 17090" class="cls-1" d="M109.017 216.69v1.41h3.393c-.02.551-.019 1.082-.062 1.61a7.5 7.5 0 0 1-.715 2.664 7.64 7.64 0 0 1-1.878 2.49c-.817.709-1.691 1.353-2.522 2.046a8.374 8.374 0 0 0-1 .99 11.348 11.348 0 0 1-2.292 2.079.3.3 0 0 0-.154.294c.011.331 0 .663 0 1.014a3.334 3.334 0 0 1 2.915 1.232 3.653 3.653 0 0 1 .7 2.749h-8.68a3.355 3.355 0 0 1 3.611-3.99v-1.138c0-.041-.052-.092-.093-.12a11.522 11.522 0 0 1-2.564-2.393 5.217 5.217 0 0 0-.783-.727c-.816-.673-1.67-1.305-2.457-2.011a7.569 7.569 0 0 1-2.4-4c-.1-.417-.135-.847-.2-1.271-.013-.083-.024-.166-.035-.249v-1.271h3.3v-1.408zm-10.454 1.459v.144c.046.809.074 1.62.144 2.427a13.117 13.117 0 0 0 .9 3.887 9.127 9.127 0 0 0 3.361 4.154.186.186 0 0 0 .168.006 9.053 9.053 0 0 0 2.308-2.235 10.4 10.4 0 0 0 1.681-3.939 22.8 22.8 0 0 0 .429-4.362.341.341 0 0 0-.018-.081zM109 219.568c-.092.808-.152 1.606-.282 2.392s-.333 1.564-.5 2.333a6.589 6.589 0 0 0 2.683-4.724zm-11.043 4.745a18.2 18.2 0 0 1-.81-4.743h-1.855a6.645 6.645 0 0 0 2.666 4.743zm2.357 9.5h5.492a1.744 1.744 0 0 0-1.532-1.06 28.132 28.132 0 0 0-2.43 0 1.742 1.742 0 0 0-1.529 1.064z"/>
        <path id="Path_17091" data-name="Path 17091" class="cls-1" d="M245.3 292.977c.5-.072.99-.147 1.486-.212a.232.232 0 0 0 .2-.148c.192-.39.389-.778.585-1.166.027-.053.056-.105.1-.181.228.452.45.88.66 1.314a.291.291 0 0 0 .253.188c.484.062.968.135 1.482.209-.048.055-.079.1-.115.13-.314.3-.626.605-.946.9a.279.279 0 0 0-.1.3c.087.426.155.856.229 1.284.007.041.005.083.01.159l-.335-.17c-.338-.174-.674-.354-1.017-.518a.315.315 0 0 0-.242 0c-.444.217-.881.447-1.365.7.035-.218.062-.4.093-.576.053-.3.115-.606.157-.911a.313.313 0 0 0-.078-.231c-.307-.308-.625-.606-.942-.905a1.171 1.171 0 0 0-.148-.1z" transform="translate(-144.59 -71.194)"/>
    </g>
</svg>
