<svg xmlns="http://www.w3.org/2000/svg" width="15.015" height="22.901">
    <g data-name="Group 9470">
        <path data-name="Path 17255" d="M4.732 0A4.732 4.732 0 1 1 0 4.732 4.732 4.732 0 0 1 4.732 0z" transform="translate(.789)" style="fill:#d9e6fe;opacity:.78"/>
        <path data-name="Path 17217" d="M136.146 251.265a2.078 2.078 0 0 1 1.014-.621 1.631 1.631 0 0 1 1.632.538c.386.434.745.893 1.113 1.343.114.14.229.268.435.2s.222-.252.222-.44q0-4.589.008-9.179a1.934 1.934 0 0 1 .076-.572 1.053 1.053 0 0 1 1.131-.749 1.118 1.118 0 0 1 .939.994c.012.117.011.235.011.353v7.85a2.039 2.039 0 0 0 0 .207.323.323 0 1 0 .647-.008v-2.471a1.079 1.079 0 0 1 1.06-1.144 1.1 1.1 0 0 1 1.1 1.131c.009.685 0 1.371 0 2.056v.166c.011.223.132.353.325.354a.318.318 0 0 0 .326-.352c.005-.54 0-1.08 0-1.62a1.824 1.824 0 0 1 .022-.351 1.082 1.082 0 0 1 1.111-.919 1.119 1.119 0 0 1 .986 1.127c.012.561 0 1.121.006 1.682a.319.319 0 0 0 .318.339.324.324 0 0 0 .324-.314c.008-.075 0-.152.005-.228 0-.284-.01-.569.018-.851a1.092 1.092 0 0 1 1.392-.931 1.125 1.125 0 0 1 .768.944 2.566 2.566 0 0 1 .012.27v6.832a3.8 3.8 0 0 1-1.492 3.143 3.2 3.2 0 0 1-2.024.69h-4.4a3.339 3.339 0 0 1-3.1-1.833c-.916-1.673-1.773-3.379-2.654-5.071z" transform="translate(-136.146 -237.833)" style="fill:#6f9ffe"/>
    </g>
</svg>
