<svg xmlns="http://www.w3.org/2000/svg" width="15.551" height="17.433">
    <path data-name="Path 17299" d="M26.872 14.615a1.9 1.9 0 0 0-.737.148 1.914 1.914 0 0 0-2.592-1.3 1.913 1.913 0 0 0-2.533-1.319V10.7a1.913 1.913 0 1 0-3.826 0v7.168l-.684-.684a1.913 1.913 0 0 0-2.705 2.705l4.5 4.5a6.124 6.124 0 0 0 10.474-3.819.617.617 0 0 0 .018-.15v-3.892a1.915 1.915 0 0 0-1.915-1.913zm.679 5.692a.648.648 0 0 0-.009.074 4.89 4.89 0 0 1-8.371 3.137l-4.5-4.5a.679.679 0 0 1 .96-.96l1.737 1.737a.617.617 0 0 0 1.054-.436V10.7a.679.679 0 1 1 1.357 0v5.831a.617.617 0 1 0 1.234 0v-2.594a.679.679 0 1 1 1.357 0v2.592a.617.617 0 0 0 1.234 0v-1.3a.679.679 0 0 1 1.357 0v1.944a.617.617 0 1 0 1.234 0v-.648a.679.679 0 0 1 1.357 0v3.779z" transform="translate(-13.234 -8.784)" style="fill:#77b2ff"/>
</svg>
