<svg xmlns="http://www.w3.org/2000/svg" width="19.467" height="20.469">
    <g data-name="Group 9711">
        <path data-name="Path 17414" d="M14.734.792a.787.787 0 0 0-.112.008H1.584a.787.787 0 0 0-.792.79v16.526a3.156 3.156 0 0 0 3.149 3.143H17.11a.787.787 0 0 0 .283-.029 3.145 3.145 0 0 0 2.866-3.114v-6.3a.787.787 0 0 0-.79-.784h-3.933V1.595a.787.787 0 0 0-.8-.8zM2.368 2.379h11.594v9.3a.787.787 0 0 0 0 .272v6.17a3.1 3.1 0 0 0 .438 1.569H3.942a1.554 1.554 0 0 1-1.574-1.574zm2.283 3.149A.788.788 0 1 0 4.732 7.1H11.6a.787.787 0 1 0 0-1.574H4.732a.787.787 0 0 0-.081 0zm0 3.148a.789.789 0 0 0 .081 1.575H11.6a.788.788 0 1 0 0-1.575H4.732a.787.787 0 0 0-.081 0zm.081 3.143a.787.787 0 1 0 0 1.574H11.6a.787.787 0 1 0 0-1.574zm10.8.79h3.149v5.507a1.555 1.555 0 0 1-1.568 1.574h-.009a1.554 1.554 0 0 1-1.574-1.574zM4.654 14.967a.788.788 0 1 0 .082 1.574H11.6a.787.787 0 1 0 0-1.574H4.654z" transform="translate(-.793 -.792)" style="fill:#77b2ff"/>
    </g>
</svg>
