<svg xmlns="http://www.w3.org/2000/svg" width="18.006" height="16.001">
    <defs>
        <style>
            .cls-1{fill:#77b2ff}
        </style>
    </defs>
    <g id="Group_9709" data-name="Group 9709" transform="translate(-45 -773.998)">
        <path id="Path_17412" data-name="Path 17412" class="cls-1" d="M13.5 7.135a1 1 0 0 0-1 0L5.734 11H2a1 1 0 0 0-1 1v6a1 1 0 0 0 1 1h3.734l6.77 3.868A1 1 0 0 0 14 22V8a1 1 0 0 0-.5-.865zM12 20.276l-5.5-3.145A1.013 1.013 0 0 0 6 17H3v-4h3a1 1 0 0 0 .5-.132L12 9.724z" transform="translate(44 766.999)"/>
        <path id="Path_17413" data-name="Path 17413" class="cls-1" d="M16.374 11.221a1 1 0 0 0-.153 1.406 4.015 4.015 0 0 1 0 4.746 1 1 0 0 0 1.559 1.254 5.977 5.977 0 0 0 0-7.254 1 1 0 0 0-1.406-.152z" transform="translate(44 766.999)"/>
    </g>
</svg>
