<svg xmlns="http://www.w3.org/2000/svg" width="17.065" height="17.065">
    <g data-name="860794">
        <g data-name="Group 4466">
            <g data-name="Group 4465">
                <path data-name="Path 7240" d="M14.79 1.775h-1.775V.592a.592.592 0 1 0-1.183 0v1.183h-7.1V.592a.592.592 0 1 0-1.183 0v1.183H1.775A1.775 1.775 0 0 0 0 3.55v11.24a1.775 1.775 0 0 0 1.775 1.775H14.79a1.775 1.775 0 0 0 1.775-1.775V3.55a1.775 1.775 0 0 0-1.775-1.775zm.592 13.015a.592.592 0 0 1-.592.592H1.775a.592.592 0 0 1-.592-.592V7.1h14.2zm0-8.874H1.183V3.55a.592.592 0 0 1 .592-.592H3.55v1.183a.592.592 0 1 0 1.183 0V2.958h7.1v1.183a.592.592 0 1 0 1.183 0V2.958h1.774a.592.592 0 0 1 .592.592v2.366z" style="fill:#77b2ff;stroke:#77b2ff;stroke-width:.5px" transform="translate(.25 .25)"/>
            </g>
        </g>
    </g>
</svg>
