<svg data-name="860794" xmlns="http://www.w3.org/2000/svg" width="12.748" height="12.748">
    <g data-name="Group 4466">
        <g data-name="Group 4465">
            <path data-name="Path 7240" d="M11.382 1.366h-1.366V.455a.455.455 0 1 0-.911 0v.911H3.642V.455a.455.455 0 1 0-.911 0v.911H1.366A1.366 1.366 0 0 0 0 2.732v8.651a1.366 1.366 0 0 0 1.366 1.366h10.016a1.366 1.366 0 0 0 1.366-1.366V2.732a1.366 1.366 0 0 0-1.366-1.366zm.455 10.017a.455.455 0 0 1-.455.455H1.366a.455.455 0 0 1-.455-.455V5.464h10.927zm0-6.829H.911V2.732a.455.455 0 0 1 .455-.455h1.366v.911a.455.455 0 1 0 .911 0v-.912h5.463v.911a.455.455 0 1 0 .911 0v-.911h1.366a.455.455 0 0 1 .455.455v1.822z" style="fill:#949ab2"/>
        </g>
    </g>
</svg>
