<svg width="21" height="20" viewBox="0 0 21 20" fill="none" xmlns="http://www.w3.org/2000/svg">
<path d="M17.7637 1.83814H16.024V0.927509C16.024 0.767053 15.9603 0.613169 15.8468 0.49971C15.7333 0.386251 15.5794 0.32251 15.4189 0.32251C15.2584 0.32251 15.1045 0.386251 14.991 0.49971C14.8775 0.613169 14.8138 0.767053 14.8138 0.927509V1.83814H6.34658V0.927509C6.34658 0.848134 6.33095 0.769536 6.30057 0.696203C6.27018 0.622871 6.22565 0.556239 6.16951 0.500112C6.11338 0.443986 6.04673 0.399464 5.97338 0.369088C5.90004 0.338713 5.82142 0.323079 5.74203 0.323079C5.66264 0.323079 5.58402 0.338713 5.51068 0.369088C5.43733 0.399464 5.37068 0.443986 5.31455 0.500112C5.25841 0.556239 5.21388 0.622871 5.1835 0.696203C5.15311 0.769536 5.13748 0.848134 5.13748 0.927509V1.83814H3.39782C2.73632 1.83904 2.10218 2.10225 1.63454 2.57001C1.16689 3.03777 0.903923 3.67189 0.90332 4.33326L0.90332 17.1834C0.904224 17.8445 1.16733 18.4784 1.63494 18.9459C2.10255 19.4134 2.73651 19.6764 3.39782 19.6773H17.7637C18.425 19.6764 19.0589 19.4134 19.5265 18.9459C19.9942 18.4784 20.2573 17.8445 20.2582 17.1834V4.33326C20.2576 3.67189 19.9946 3.03777 19.5269 2.57001C19.0593 2.10225 18.4252 1.83904 17.7637 1.83814ZM3.39782 3.04813H5.13748V3.65256C5.13748 3.81287 5.20117 3.96661 5.31455 4.07996C5.42792 4.19331 5.58169 4.25699 5.74203 4.25699C5.90237 4.25699 6.05614 4.19331 6.16951 4.07996C6.28289 3.96661 6.34658 3.81287 6.34658 3.65256V3.04813H14.8138V3.65256C14.8138 3.81302 14.8775 3.9669 14.991 4.08036C15.1045 4.19382 15.2584 4.25756 15.4189 4.25756C15.5794 4.25756 15.7333 4.19382 15.8468 4.08036C15.9603 3.9669 16.024 3.81302 16.024 3.65256V3.04813H17.7625C18.1033 3.04844 18.4301 3.18393 18.6711 3.42487C18.9121 3.66581 19.0476 3.99252 19.0479 4.33326V5.76864H2.11357V4.33326C2.11387 3.99271 2.24923 3.66618 2.48998 3.42527C2.73072 3.18436 3.0572 3.04874 3.39782 3.04813ZM17.7637 18.4674H3.39782C3.057 18.4671 2.73024 18.3316 2.48924 18.0906C2.24825 17.8497 2.11273 17.523 2.11243 17.1822V6.97863H19.0479V17.1834C19.0473 17.5237 18.9118 17.85 18.6711 18.0906C18.4304 18.3313 18.1041 18.4668 17.7637 18.4674Z" fill="#A3ACC6" stroke="#A3ACC6" stroke-width="0.387097"/>
</svg>
