<svg width="12" height="12" viewBox="0 0 12 12" fill="none" xmlns="http://www.w3.org/2000/svg">
<path d="M10.9262 1.09476C11.5004 1.669 11.5005 2.60002 10.9262 3.17427L8.07962 6.02092L10.9262 8.8675C11.5004 9.44174 11.5004 10.3728 10.9262 10.947C10.352 11.5213 9.42093 11.5213 8.84669 10.947L6.0001 8.10043L3.15351 10.947C2.57927 11.5213 1.64824 11.5213 1.07399 10.947C0.499723 10.3728 0.49972 9.44173 1.07398 8.86747L3.92059 6.02092L1.07397 3.1743C0.499711 2.60004 0.49972 1.66898 1.07399 1.09473C1.64824 0.520498 2.57927 0.520506 3.15352 1.09475L6.0001 3.94133L8.84668 1.09475C9.42093 0.520509 10.352 0.52051 10.9262 1.09476Z" fill="#F3433C"/>
</svg>
