<svg width="20" height="24" viewBox="0 0 20 24" fill="none" xmlns="http://www.w3.org/2000/svg">
<path d="M14.6154 0.369141C12.5725 0.369141 11.075 1.11725 9.62667 1.84076C8.29087 2.50805 7.02913 3.13837 5.38462 3.13837C3.83005 3.13837 2.22395 2.40868 1.53846 2.05602V0.369141H0V23.9999H1.53846V14.6979C2.50149 15.1164 3.92897 15.5999 5.38462 15.5999C7.42744 15.5999 8.92508 14.8518 10.3733 14.1283C11.7091 13.461 12.9709 12.8307 14.6154 12.8307C16.6549 12.8307 18.7836 14.0868 18.8041 14.099L20 14.8166V2.07554C18.4182 1.13603 16.4876 0.369141 14.6154 0.369141V0.369141ZM18.4615 12.348C17.4985 11.9295 16.071 11.4461 14.6154 11.4461C12.5725 11.4461 11.075 12.1942 9.62667 12.9177C8.29087 13.585 7.02913 14.2153 5.38462 14.2153C3.82979 14.2153 2.22338 13.4854 1.53846 13.133V3.62096C2.50149 4.03948 3.92897 4.52299 5.38462 4.52299C7.42744 4.52299 8.92508 3.77488 10.3733 3.05137C11.7091 2.38408 12.9709 1.75376 14.6154 1.75376C16.1701 1.75376 17.7766 2.48363 18.4615 2.83606V12.348Z" fill="black" fill-opacity="0.4"/>
</svg>
