<svg width="21" height="23" viewBox="0 0 21 23" fill="none" xmlns="http://www.w3.org/2000/svg">
<path d="M16.9472 23.0001H3.32893C1.49343 23.0001 0 21.5068 0 19.6712V3.32917C0 1.49367 1.49343 0.000244141 3.32893 0.000244141H15.0178C15.1726 0.000244141 15.3218 0.0597206 15.4344 0.16632L20.0875 4.57926C20.2079 4.69358 20.2762 4.85234 20.2762 5.01841V19.6711C20.2762 21.5068 18.7829 23.0001 16.9472 23.0001ZM3.32893 1.2108C2.16087 1.2108 1.21051 2.16112 1.21051 3.32922V19.6712C1.21051 20.8394 2.16083 21.7897 3.32893 21.7897H16.9472C18.1154 21.7897 19.0657 20.8394 19.0657 19.6712V5.27874L14.7764 1.2108H3.32893Z" fill="#999999"/>
<path d="M15.5849 7.84361H4.69024C4.35593 7.84361 4.08496 7.57264 4.08496 7.23833C4.08496 6.90402 4.35593 6.63306 4.69024 6.63306H15.5849C15.9192 6.63306 16.1902 6.90402 16.1902 7.23833C16.1902 7.57269 15.9192 7.84361 15.5849 7.84361Z" fill="#999999"/>
<path d="M15.5849 10.5793H4.69024C4.35593 10.5793 4.08496 10.3084 4.08496 9.97405C4.08496 9.63974 4.35593 9.36877 4.69024 9.36877H15.5849C15.9192 9.36877 16.1902 9.63974 16.1902 9.97405C16.1902 10.3084 15.9192 10.5793 15.5849 10.5793Z" fill="#999999"/>
<path d="M6.72151 13.3149H4.69024C4.35593 13.3149 4.08496 13.044 4.08496 12.7096C4.08496 12.3753 4.35593 12.1044 4.69024 12.1044H6.72151C7.05582 12.1044 7.32679 12.3753 7.32679 12.7096C7.32679 13.044 7.05582 13.3149 6.72151 13.3149Z" fill="#999999"/>
<path d="M19.6708 5.62339H16.2861C15.2529 5.62339 14.4121 4.78291 14.4121 3.7497V0.605402C14.4121 0.363543 14.5561 0.144819 14.7784 0.0493151C15.0009 -0.0464582 15.2581 -0.000233643 15.434 0.166247L20.0874 4.57896C20.2671 4.74944 20.3248 5.01223 20.233 5.24228C20.1413 5.47241 19.9186 5.62339 19.6708 5.62339ZM15.6227 2.01348V3.7497C15.6227 4.11532 15.9203 4.41288 16.2861 4.41288H18.1529L15.6227 2.01348Z" fill="#999999"/>
<path d="M12.3963 18.3639C11.4993 18.3639 10.6562 18.0147 10.022 17.3803C8.71271 16.0712 8.71271 13.9407 10.0221 12.6316C10.6562 11.9973 11.4993 11.6481 12.3963 11.6481C13.2933 11.6481 14.1367 11.9973 14.7708 12.6316C16.0799 13.9407 16.0799 16.0712 14.7708 17.3803C14.1367 18.0147 13.2933 18.3639 12.3963 18.3639ZM12.3963 12.8586C11.8227 12.8586 11.2837 13.0821 10.8779 13.4875C10.0407 14.3247 10.0407 15.6873 10.8779 16.5245C11.2837 16.9299 11.8227 17.1534 12.3963 17.1534C12.9699 17.1534 13.5092 16.9299 13.9149 16.5245C14.7518 15.6873 14.7518 14.3247 13.9149 13.4875C13.5092 13.0821 12.9699 12.8586 12.3963 12.8586Z" fill="#999999"/>
<path d="M16.9653 20.1794C16.8105 20.1794 16.6556 20.1203 16.5374 20.0021L13.9156 17.3803C13.6792 17.1439 13.6792 16.7608 13.9156 16.5244C14.152 16.2879 14.535 16.288 14.7715 16.5244L17.3933 19.1462C17.6297 19.3826 17.6297 19.7656 17.3933 20.002C17.275 20.1203 17.1202 20.1794 16.9653 20.1794Z" fill="#999999"/>
</svg>
