<svg width="19" height="22" viewBox="0 0 19 22" fill="none" xmlns="http://www.w3.org/2000/svg">
<path d="M18.8322 5.52467H18.8229C18.7084 5.31507 18.5408 5.14278 18.3386 5.02689L10.1426 0.176042C9.9463 0.0606198 9.72501 0 9.49994 0C9.27487 0 9.05357 0.0606198 8.8573 0.176042L0.661271 5.00737C0.475067 5.11807 0.318195 5.27575 0.204902 5.46611L0.176961 5.50515H0.167647C0.0602227 5.71196 0.00267033 5.94316 1.13258e-06 6.17861V15.8022C-0.000303282 16.0443 0.0607625 16.2821 0.176951 16.4913C0.293139 16.7006 0.46028 16.8737 0.661271 16.993L8.8573 21.8243C9.03229 21.9253 9.22614 21.9853 9.42543 22H9.58376C9.77986 21.9839 9.9704 21.924 10.1426 21.8243L18.3386 16.993C18.5396 16.8737 18.7067 16.7006 18.8229 16.4913C18.9391 16.2821 19.0002 16.0443 18.9999 15.8022V6.19813C19.0031 5.96189 18.9451 5.72917 18.8322 5.52467ZM9.4068 1.19111L9.49994 1.17159L9.59307 1.19111L17.3048 5.73939L14.0729 7.66217L6.17496 3.09436L9.4068 1.19111ZM9.58376 10.3365L1.7044 5.73939L5.02938 3.77758L12.9367 8.34539L9.58376 10.3365ZM1.21078 15.9974C1.18276 15.9783 1.15962 15.9523 1.14338 15.9217C1.12715 15.8911 1.11831 15.8568 1.11764 15.8218V6.73494L9.02494 11.3515L8.95043 20.5555L1.21078 15.9974ZM17.7891 15.9974L10.0681 20.5457L10.1426 11.3515L13.5048 9.35069V13.4012C13.5048 13.5565 13.5637 13.7055 13.6685 13.8153C13.7733 13.9251 13.9154 13.9868 14.0636 13.9868C14.2118 13.9868 14.354 13.9251 14.4588 13.8153C14.5636 13.7055 14.6225 13.5565 14.6225 13.4012V8.68699L17.8822 6.7447V15.8218C17.8816 15.8568 17.8727 15.8911 17.8565 15.9217C17.8403 15.9523 17.8171 15.9783 17.7891 15.9974Z" fill="black" fill-opacity="0.4"/>
</svg>
