<svg width="29" height="22" viewBox="0 0 29 22" fill="none" xmlns="http://www.w3.org/2000/svg">
<path d="M1.48438 4.57141C1.48437 3.88943 1.75529 3.23538 2.23752 2.75315C2.71976 2.27092 3.37381 2 4.05579 2H24.6271C25.3091 2 25.9631 2.27092 26.4454 2.75315C26.9276 3.23538 27.1985 3.88943 27.1985 4.57141V17.4285C27.1985 18.1105 26.9276 18.7645 26.4454 19.2468C25.9631 19.729 25.3091 19.9999 24.6271 19.9999H4.05579C3.37381 19.9999 2.71976 19.729 2.23752 19.2468C1.75529 18.7645 1.48438 18.1105 1.48438 17.4285V4.57141Z" stroke="#77B2FF" stroke-width="2.1857" stroke-linecap="round" stroke-linejoin="round"/>
<path d="M14.3415 14.8571C16.4717 14.8571 18.1986 13.1302 18.1986 11C18.1986 8.86978 16.4717 7.14288 14.3415 7.14288C12.2113 7.14288 10.4844 8.86978 10.4844 11C10.4844 13.1302 12.2113 14.8571 14.3415 14.8571Z" stroke="#77B2FF" stroke-width="2.1857" stroke-linecap="round" stroke-linejoin="round"/>
<path d="M1.48438 7.14283C2.84834 7.14283 4.15644 6.601 5.1209 5.63653C6.08537 4.67206 6.6272 3.36396 6.6272 2M22.0557 19.9999C22.0557 18.6359 22.5975 17.3278 23.562 16.3634C24.5265 15.3989 25.8346 14.8571 27.1985 14.8571" stroke="#77B2FF" stroke-width="2.1857" stroke-linecap="round" stroke-linejoin="round"/>
</svg>
