<svg id="_992700" data-name="992700" xmlns="http://www.w3.org/2000/svg" width="11.678" height="11.678">
    <defs>
        <style>
            .cls-1{fill:#77b2ff}
        </style>
    </defs>
    <g id="Group_4486" data-name="Group 4486" transform="translate(5.387 2.709)">
        <g id="Group_4485" data-name="Group 4485">
            <path id="Path_7250" data-name="Path 7250" class="cls-1" d="m238.7 122.94-1.628-1.221v-2.488a.452.452 0 1 0-.9 0v2.714a.451.451 0 0 0 .181.362l1.809 1.357a.452.452 0 0 0 .543-.724z" transform="translate(-236.169 -118.779)"/>
        </g>
    </g>
    <g id="Group_4488" data-name="Group 4488">
        <g id="Group_4487" data-name="Group 4487">
            <path id="Path_7251" data-name="Path 7251" class="cls-1" d="M5.839 0a5.839 5.839 0 1 0 5.839 5.839A5.845 5.845 0 0 0 5.839 0zm0 10.773a4.934 4.934 0 1 1 4.934-4.934 4.94 4.94 0 0 1-4.934 4.934z"/>
        </g>
    </g>
</svg>
