<svg xmlns="http://www.w3.org/2000/svg" width="19.64" height="25.106">
    <defs>
        <style>
            .cls-1{fill:#c8d3e1}
        </style>
    </defs>
    <g id="Group_10215" data-name="Group 10215" transform="translate(-171.7 -76.8)">
        <path id="Path_17637" data-name="Path 17637" class="cls-1" d="M191.34 328.224a2.525 2.525 0 0 1-4.505 1.564l-.45-.571-.453.571a2.527 2.527 0 0 1-3.96 0l-.45-.569-.453.571a2.525 2.525 0 0 1-3.96 0l-.45-.571-.453.571a2.524 2.524 0 1 1-1.98-4.09h5.166v-4.892a.714.714 0 0 1 .713-.713h2.851a.714.714 0 0 1 .713.713v4.892h5.146a2.523 2.523 0 0 1 2.525 2.524z" transform="translate(0 -236.278)"/>
        <path id="Path_17638" data-name="Path 17638" class="cls-1" d="M196.828 697.149v6.234a.921.921 0 0 1-.921.921h-17.486a.921.921 0 0 1-.921-.921v-6.222c.02.017.04.035.064.052a3.549 3.549 0 0 0 .369.26 3.677 3.677 0 0 0 4.358-.372 3.683 3.683 0 0 0 4.866 0 3.683 3.683 0 0 0 4.866 0 3.68 3.68 0 0 0 4.378.361 3.339 3.339 0 0 0 .349-.248c.023-.014.05-.042.078-.065z" transform="translate(-5.633 -602.398)"/>
        <path id="Path_17639" data-name="Path 17639" class="cls-1" d="M428 80.647v-.006c.029-1.87 2.064-3.544 2.153-3.616l.28-.225.274.231a9.65 9.65 0 0 1 1.108 1.149 3.66 3.66 0 0 1 1.036 2.488 2.426 2.426 0 0 1-4.851-.02z" transform="translate(-248.903)"/>
    </g>
</svg>
