<svg xmlns="http://www.w3.org/2000/svg" width="17.001" height="16.992">
    <defs>
        <style>
            .cls-1{fill:#acb0c2}
        </style>
    </defs>
    <g id="Group_9686" data-name="Group 9686" transform="translate(-2 -2.075)">
        <path id="Path_17570" data-name="Path 17570" class="cls-1" d="M12.259 11.13a.85.85 0 0 0-1.2 0 2.555 2.555 0 0 1-3.607 0l-3-3a2.551 2.551 0 0 1 3.601-3.612L9.9 6.365a.849.849 0 0 0 1.2-1.2L9.254 3.317a4.249 4.249 0 1 0-6.009 6.01l3 3a4.257 4.257 0 0 0 6.009 0 .85.85 0 0 0 .005-1.197z"/>
        <path id="Path_17571" data-name="Path 17571" class="cls-1" d="m205.238 170.522-3-3a4.255 4.255 0 0 0-6.009 0 .849.849 0 0 0 1.2 1.2 2.555 2.555 0 0 1 3.607 0l3 3a2.553 2.553 0 0 1 0 3.607 2.612 2.612 0 0 1-3.607 0l-1.844-1.847a.849.849 0 0 0-1.2 1.2l1.847 1.844a4.247 4.247 0 1 0 6.006-6.006z" transform="translate(-187.485 -158.706)"/>
    </g>
</svg>
