<svg width="12" height="14" viewBox="0 0 12 14" fill="none" xmlns="http://www.w3.org/2000/svg">
<path d="M4.36364 5.83333V10.5C4.36364 10.6547 4.4211 10.8031 4.5234 10.9125C4.62569 11.0219 4.76443 11.0833 4.90909 11.0833C5.05375 11.0833 5.19249 11.0219 5.29479 10.9125C5.39708 10.8031 5.45455 10.6547 5.45455 10.5V5.83333C5.45455 5.67862 5.39708 5.53025 5.29479 5.42085C5.19249 5.31146 5.05375 5.25 4.90909 5.25C4.76443 5.25 4.62569 5.31146 4.5234 5.42085C4.4211 5.53025 4.36364 5.67862 4.36364 5.83333ZM7.09091 5.25C7.23557 5.25 7.37431 5.31146 7.4766 5.42085C7.5789 5.53025 7.63636 5.67862 7.63636 5.83333V10.5C7.63636 10.6547 7.5789 10.8031 7.4766 10.9125C7.37431 11.0219 7.23557 11.0833 7.09091 11.0833C6.94625 11.0833 6.80751 11.0219 6.70521 10.9125C6.60292 10.8031 6.54545 10.6547 6.54545 10.5V5.83333C6.54545 5.67862 6.60292 5.53025 6.70521 5.42085C6.80751 5.31146 6.94625 5.25 7.09091 5.25ZM8.18182 2.33333H11.4545C11.5992 2.33333 11.7379 2.39479 11.8402 2.50419C11.9425 2.61358 12 2.76196 12 2.91667C12 3.07138 11.9425 3.21975 11.8402 3.32915C11.7379 3.43854 11.5992 3.5 11.4545 3.5H10.8513L10.0309 11.4053C9.9568 12.1188 9.63928 12.778 9.1391 13.2567C8.63893 13.7354 7.99124 14.0001 7.32 14H4.68C4.00876 14.0001 3.36107 13.7354 2.8609 13.2567C2.36072 12.778 2.0432 12.1188 1.96909 11.4053L1.14764 3.5H0.545455C0.400791 3.5 0.262053 3.43854 0.15976 3.32915C0.0574675 3.21975 0 3.07138 0 2.91667C0 2.76196 0.0574675 2.61358 0.15976 2.50419C0.262053 2.39479 0.400791 2.33333 0.545455 2.33333H3.81818C3.81818 1.71449 4.04805 1.121 4.45722 0.683417C4.86639 0.245833 5.42135 0 6 0C6.57865 0 7.13361 0.245833 7.54278 0.683417C7.95195 1.121 8.18182 1.71449 8.18182 2.33333ZM6 1.16667C5.71067 1.16667 5.4332 1.28958 5.22861 1.50838C5.02403 1.72717 4.90909 2.02391 4.90909 2.33333H7.09091C7.09091 2.02391 6.97597 1.72717 6.77139 1.50838C6.5668 1.28958 6.28933 1.16667 6 1.16667ZM2.24618 3.5L3.05345 11.277C3.09802 11.705 3.28858 12.1004 3.58867 12.3875C3.88877 12.6747 4.27733 12.8334 4.68 12.8333H7.32C7.72249 12.8331 8.11078 12.6743 8.41064 12.3871C8.71051 12.1 8.90091 11.7048 8.94545 11.277L9.75491 3.5H2.24727H2.24618Z" fill="#B2B8D7"></path>
</svg>