<svg xmlns="http://www.w3.org/2000/svg" width="16.949" height="17">
    <defs>
        <style>
            .cls-1{fill:#b4b8c9}
        </style>
    </defs>
    <g id="Group_10555" data-name="Group 10555" transform="translate(-43.482 -30.156)">
        <g id="Group_10559" data-name="Group 10559" transform="translate(43.482 32.608)">
            <g id="Group_10556" data-name="Group 10556" transform="translate(1.839 .04)">
                <g id="Group_10555-2" data-name="Group 10555">
                    <path id="Path_17849" data-name="Path 17849" class="cls-1" d="M99.324 103.767h-4.312c-1.489 0-2.978.025-4.468 0h-.062c-.094-.008-.074 0 .049.012 0 0-.115-.025-.107-.021a.787.787 0 0 0-.131-.037c-.1-.008.164.094.021.008-.029-.016-.062-.033-.094-.053-.172-.1-.012.008-.008 0s-.2-.172-.189-.189.1.164.021.016c-.021-.041-.045-.078-.066-.115-.078-.139.029.045.016.049a1.168 1.168 0 0 1-.049-.156.819.819 0 0 0-.021-.107c.07.185.012.074.012-.008v-7.232c0-1.378.033-2.765 0-4.144v-.066l-.821.821h11.622l-.82-.821v11.5c0 .189.049-.176 0 0a1.084 1.084 0 0 1-.057.209c.012-.033.029-.066.041-.094a1.62 1.62 0 0 1-.049.094.853.853 0 0 1-.086.135l.062-.082c-.025.029-.045.053-.07.078s-.049.049-.078.074c-.066.057-.053.045.041-.029a.973.973 0 0 1-.135.086l-.094.049c.115-.045.127-.053.045-.025-.053.012-.107.029-.16.041-.09.016-.074.012.053-.008a.928.928 0 0 1-.111 0 .821.821 0 1 0 0 1.641 2.273 2.273 0 0 0 2.24-2.24V91.706a.834.834 0 0 0-.821-.821H89.121a.834.834 0 0 0-.821.821v11.418a2.255 2.255 0 0 0 .8 1.735 2.38 2.38 0 0 0 1.547.533h8.681a.821.821 0 0 0 0-1.641z" transform="translate(-88.3 -90.9)"/>
                </g>
            </g>
            <g id="Group_10558" data-name="Group 10558">
                <g id="Group_10557" data-name="Group 10557">
                    <path id="Path_17850" data-name="Path 17850" class="cls-1" d="M44.3 91.571h13.423c.619 0 1.243.016 1.863 0h.025a.821.821 0 1 0 0-1.641H46.19c-.619 0-1.243-.016-1.863 0H44.3a.821.821 0 1 0 0 1.641z" transform="translate(-43.482 -89.922)"/>
                </g>
            </g>
        </g>
        <g id="Group_10561" data-name="Group 10561" transform="translate(48.277 30.156)">
            <g id="Group_10560" data-name="Group 10560">
                <path id="Path_17851" data-name="Path 17851" class="cls-1" d="M161.994 33.431v-1.444c0-.033.021-.111-.008 0-.033.135.012-.041.016-.053.029-.135-.078.111 0 0a.806.806 0 0 1 .057-.09c.016.008-.119.119-.045.062a.419.419 0 0 0 .074-.074c.057-.074-.053.062-.062.045a.284.284 0 0 1 .07-.041c.144-.078.012.016-.025 0 .012 0 .258-.07.107-.033-.107.029-.029 0 .008.008h3.779a.309.309 0 0 0 .062 0c-.037.037-.168-.037-.053 0a.547.547 0 0 0 .078.021c.1.016-.127-.082-.045-.021a.287.287 0 0 0 .07.037c.021.012.107.045 0 0s.008.016.037.041.041.082 0 0c-.053-.115.008.025.025.049.041.062-.008.053 0 0-.025-.066-.029-.066 0 0 0 .016.008.037.012.053.045.148 0-.16 0 .008v1.444a.821.821 0 0 0 1.641 0v-.907a3.084 3.084 0 0 0-.144-1.239 1.856 1.856 0 0 0-1.694-1.132H163.025a2.615 2.615 0 0 0-2.191.595 1.884 1.884 0 0 0-.48 1.235v1.444a.818.818 0 1 0 1.637 0z" transform="translate(-160.356 -30.156)"/>
            </g>
        </g>
        <g id="Group_10566" data-name="Group 10566" transform="translate(49.321 36.438)">
            <g id="Group_10563" data-name="Group 10563">
                <g id="Group_10562" data-name="Group 10562">
                    <path id="Path_17852" data-name="Path 17852" class="cls-1" d="M185.8 184.1v5.285a.821.821 0 0 0 1.641 0V184.1a.821.821 0 1 0-1.641 0z" transform="translate(-185.8 -183.282)"/>
                </g>
            </g>
            <g id="Group_10565" data-name="Group 10565" transform="translate(3.627)">
                <g id="Group_10564" data-name="Group 10564">
                    <path id="Path_17853" data-name="Path 17853" class="cls-1" d="M274.2 184.1v5.285a.821.821 0 0 0 1.641 0V184.1a.821.821 0 1 0-1.641 0z" transform="translate(-274.2 -183.282)"/>
                </g>
            </g>
        </g>
    </g>
</svg>
