<svg xmlns="http://www.w3.org/2000/svg" width="33.887" height="33.831">
    <defs>
        <style>
            .cls-1{fill:#b6b9c8}
        </style>
    </defs>
    <g id="Group_10573" data-name="Group 10573" transform="translate(-335 -693)">
        <path id="Path_17092" data-name="Path 17092" class="cls-1" d="M20.927 4.79 2.281 23.436a.734.734 0 0 0-.191.337L.007 32.062a.734.734 0 0 0 .734.91h.175L9.205 30.9a.733.733 0 0 0 .337-.191l18.632-18.628z" transform="translate(335.015 693.859)"/>
        <path id="Path_17093" data-name="Path 17093" class="cls-1" d="M25.47 4.05 23.4 1.982a3.756 3.756 0 0 0-5.193 0L15.67 4.52l7.262 7.262 2.538-2.538a3.668 3.668 0 0 0 0-5.193z" transform="translate(342.34 692.061)"/>
    </g>
</svg>
