<svg xmlns="http://www.w3.org/2000/svg" width="12.003" height="16.219">
    <defs>
        <style>
            .cls-1{fill:#77b2ff;stroke-width:.2px;stroke:#77b2ff}
        </style>
    </defs>
    <g id="Group_9592" data-name="Group 9592" transform="translate(-1170.076 -205.9)">
        <g id="Group_9555" data-name="Group 9555" transform="translate(1170.176 206)">
            <g id="Group_9550" data-name="Group 9550" transform="translate(0 9.902)">
                <g id="Group_9547" data-name="Group 9547" transform="translate(0 .001)">
                    <g id="Group_9546" data-name="Group 9546">
                        <path id="Path_17320" data-name="Path 17320" class="cls-1" d="m155.582 629.789-.722 1.411-1.085 2.118-.242.473-.063.125a.194.194 0 0 0-.013.026c-.018.039-.041.041.039-.044q-.051.051.049-.034a.27.27 0 0 1-.037.021l.117-.049a.406.406 0 0 1-.063.02l.13-.018a2.867 2.867 0 0 1-.374 0h-2.706a3.886 3.886 0 0 1-.457 0l.13.018c-.021 0-.039-.01-.059-.016l.117.049-.034-.018c.01-.008.1.1.047.034-.023-.028.047.09.041.054a.208.208 0 0 0-.021-.042l.049.117a.308.308 0 0 1-.015-.055l.018.13a.314.314 0 0 1 0-.078l-.018.13c0-.021.01-.039.016-.059l-.049.117c.076-.166.166-.327.251-.49l.579-1.132 1.316-2.57c.1-.2.2-.39.3-.586l-.667.176a5.913 5.913 0 0 0 2.94.939 5.373 5.373 0 0 0 .916-.034.535.535 0 0 0 .345-.143.5.5 0 0 0 .143-.345.488.488 0 0 0-.143-.345.473.473 0 0 0-.345-.143 5.567 5.567 0 0 1-1.4-.01l.13.018a5.454 5.454 0 0 1-1.355-.371l.117.049a5.464 5.464 0 0 1-.857-.457.49.49 0 0 0-.667.176l-.4.779-.867 1.694-.843 1.645-.257.5-.06.119a.8.8 0 0 0-.078.591.761.761 0 0 0 .73.543h3.382a.9.9 0 0 0 .356-.065.761.761 0 0 0 .379-.36l.7-1.375q.361-.7.721-1.406c.2-.386.4-.773.594-1.158l.091-.176a.493.493 0 0 0-.852-.5z" transform="translate(-149.45 -628.71)"/>
                    </g>
                </g>
                <g id="Group_9549" data-name="Group 9549" transform="translate(5.416)">
                    <g id="Group_9548" data-name="Group 9548">
                        <path id="Path_17321" data-name="Path 17321" class="cls-1" d="M488.025 633.812h-3.042a3.819 3.819 0 0 1-.454 0l.13.018a.4.4 0 0 1-.063-.02l.117.049c-.006 0-.034-.021-.037-.021s.089.07.057.041.062.1.031.036v-.008c0-.003-.015-.031-.023-.046l-.1-.192-.345-.675q-.405-.793-.812-1.585l-.19-.371v.493l.574-1.121.083-.161-.421.242a6.012 6.012 0 0 0 1.339-.309 5.914 5.914 0 0 0 1.2-.6l-.667-.176q.415.808.828 1.617.656 1.284 1.314 2.566c.1.2.21.394.3.594l-.049-.117a.263.263 0 0 1 .016.059l-.018-.13a.309.309 0 0 1 0 .078l.018-.13a.311.311 0 0 1-.015.055l.049-.117c0 .011-.011.023-.016.034-.028.065.072-.083.036-.046-.013.015-.055.047.013-.006s.021-.02 0-.01l.122-.053a.35.35 0 0 1-.059.016l.13-.018a.1.1 0 0 1-.046.01.488.488 0 0 0 0 .976.763.763 0 0 0 .748-.731.824.824 0 0 0-.1-.4 8.355 8.355 0 0 0-.119-.231l-.55-1.074-.745-1.454-.674-1.316c-.112-.218-.218-.443-.337-.656v-.01a.493.493 0 0 0-.667-.176 5.567 5.567 0 0 1-.852.456l.117-.049a5.538 5.538 0 0 1-1.386.378l.13-.018a.6.6 0 0 0-.4.15 1.423 1.423 0 0 0-.078.1.2.2 0 0 0-.016.033l-.078.153-.259.5-.241.472c-.02.037-.039.073-.057.111a.526.526 0 0 0 0 .508c.265.535.545 1.064.817 1.6l.486.95c.15.293.277.6.644.683a2.953 2.953 0 0 0 .634.021h2.993a.494.494 0 0 0 .488-.488.5.5 0 0 0-.498-.484z" transform="translate(-482.387 -628.676)"/>
                    </g>
                </g>
            </g>
            <g id="Group_9554" data-name="Group 9554" transform="translate(.015)">
                <g id="Group_9553" data-name="Group 9553">
                    <path id="Path_17323" data-name="Path 17323" class="cls-1" d="M161.171 25.9a5.492 5.492 0 0 1-.049.73l.018-.13a5.457 5.457 0 0 1-.374 1.367l.049-.117a5.58 5.58 0 0 1-.355.695c-.068.112-.14.221-.216.329a1.672 1.672 0 0 0-.112.153c0 .008.072-.091.041-.052l-.029.037-.067.083a5.62 5.62 0 0 1-.535.56c-.047.042-.094.085-.143.125a1.716 1.716 0 0 0-.156.127l.042-.033-.037.029-.067.049a8.269 8.269 0 0 1-.166.115 5.48 5.48 0 0 1-.892.482l.117-.049a5.54 5.54 0 0 1-1.386.377l.13-.018a5.568 5.568 0 0 1-1.453 0l.13.018a5.455 5.455 0 0 1-1.355-.371l.117.049a5.62 5.62 0 0 1-.791-.413 4.818 4.818 0 0 1-.322-.221c-.026-.02-.05-.039-.076-.057.129.094.036.028 0 0-.052-.042-.1-.085-.155-.13a5.386 5.386 0 0 1-.545-.545q-.063-.071-.122-.146c-.02-.024-.037-.052-.059-.075l.033.042-.036-.047a5.473 5.473 0 0 1-.223-.324 5.466 5.466 0 0 1-.412-.786l.049.117a5.458 5.458 0 0 1-.374-1.367l.018.13a5.568 5.568 0 0 1 0-1.453l-.018.13a5.425 5.425 0 0 1 .374-1.371l-.049.117a5.365 5.365 0 0 1 .374-.726 4.958 4.958 0 0 1 .277-.407l.026-.034c.05-.067-.068.086-.031.039l.127-.158a5.419 5.419 0 0 1 .566-.578c.049-.042.1-.083.146-.124l.075-.06c.028-.023.083-.06-.041.031l.05-.039c.106-.078.213-.155.325-.225a5.453 5.453 0 0 1 .807-.425l-.117.049a5.494 5.494 0 0 1 1.371-.374l-.13.018a5.506 5.506 0 0 1 1.445 0l-.13-.018a5.425 5.425 0 0 1 1.371.374l-.117-.049a5.367 5.367 0 0 1 .726.374 4.958 4.958 0 0 1 .407.277l.034.026c.067.05-.086-.068-.039-.031l.158.127a5.423 5.423 0 0 1 .578.566c.042.049.083.1.124.146l.06.075c.023.028.06.083-.031-.041l.039.05c.078.106.155.213.224.325a5.453 5.453 0 0 1 .425.807l-.049-.117a5.493 5.493 0 0 1 .374 1.371l-.018-.13a5.912 5.912 0 0 1 .046.721.488.488 0 1 0 .976 0 5.884 5.884 0 0 0-3.353-5.31 5.77 5.77 0 0 0-1.588-.493 6.251 6.251 0 0 0-1.827-.008 5.881 5.881 0 0 0-4.736 4.077 5.9 5.9 0 0 0 .02 3.53 5.991 5.991 0 0 0 2.149 2.964 5.831 5.831 0 0 0 3.924 1.1 5.944 5.944 0 0 0 3.675-1.689 5.838 5.838 0 0 0 1.651-3.189 6.231 6.231 0 0 0 .085-.984.488.488 0 1 0-.976 0z" transform="translate(-150.383 -20.022)"/>
                </g>
            </g>
        </g>
        <path id="Path_17324" data-name="Path 17324" d="m152.5 24.59 1.442 1.563 2.966-2.244" transform="translate(1021.471 186.939)" style="fill:none;stroke-linecap:round;stroke-linejoin:round;stroke-width:1.2px;stroke:#77b2ff"/>
    </g>
</svg>
