<svg xmlns="http://www.w3.org/2000/svg" width="13.897" height="10.48" viewBox="0 0 13.897 10.48">
    <defs>
        <style>
            .cls-1{fill:#fff;stroke:#fff;stroke-width:.5px}
        </style>
    </defs>
    <g id="Group_8834" transform="translate(0.251 0.25)">
        <path id="Path_12797" d="M11.693 78.977a7.121 7.121 0 0 1-6.682-4.9.293.293 0 0 1 0-.19A7.121 7.121 0 0 1 11.693 69a7.122 7.122 0 0 1 6.682 4.9.293.293 0 0 1 0 .19 7.121 7.121 0 0 1-6.682 4.887zm0-9.393a6.55 6.55 0 0 0-6.077 4.357l-.017.046.017.046a6.55 6.55 0 0 0 6.077 4.357 6.55 6.55 0 0 0 6.077-4.357l.017-.046-.017-.046a6.55 6.55 0 0 0-6.077-4.357z" class="cls-1" transform="translate(-4.996 -68.997)"/>
        <path id="Path_12798" d="M167.427 169.855a2.428 2.428 0 1 1 2.428-2.428 2.431 2.431 0 0 1-2.428 2.428zm0-4.269a1.841 1.841 0 1 0 1.841 1.841 1.843 1.843 0 0 0-1.841-1.841z" class="cls-1" transform="translate(-160.73 -162.437)"/>
    </g>
</svg>
