<svg width="18" height="17" viewBox="0 0 18 17" fill="none" xmlns="http://www.w3.org/2000/svg">
<path d="M4.67587 4.39295C4.81442 6.26155 6.23097 7.7859 7.78608 7.7859C9.34118 7.7859 10.7602 6.2619 10.8963 4.39295C11.0377 2.44907 9.65927 1 7.78608 1C5.91289 1 4.5345 2.48442 4.67587 4.39295Z" stroke="#A3ACC6" stroke-width="1.5" stroke-linecap="round" stroke-linejoin="round"/>
<path d="M7.78598 10.0479C10.8608 10.0479 13.9816 11.7443 14.5592 14.9464C14.6298 15.3324 14.4104 15.7028 14.006 15.7028H1.56557C1.16124 15.7028 0.942821 15.3324 1.01245 14.9464C1.59031 11.7443 4.71112 10.0479 7.78598 10.0479Z" stroke="#A3ACC6" stroke-width="1.5" stroke-miterlimit="10"/>
<path d="M14.8548 5.52393V9.48237M12.8755 7.50315H16.834" stroke="#A3ACC6" stroke-width="1.5" stroke-linecap="round" stroke-linejoin="round"/>
</svg>
