<svg xmlns="http://www.w3.org/2000/svg" width="42.051" height="28.29">
    <defs>
        <style>
            .cls-1{fill:#fff}.cls-2{fill:#4163ff;opacity:.78}
        </style>
    </defs>
    <g id="Group_9112" data-name="Group 9112" transform="translate(-999.491 -23)">
        <path id="Path_16913" data-name="Path 16913" class="cls-1" d="M44.926 46.711z" transform="translate(989.371 4.579)"/>
        <path id="Path_16915" data-name="Path 16915" class="cls-2" d="M49.749 40.691h-5.691c1.011 1.607 2.463 3.55 2.463 5.642h8.4a5.422 5.422 0 0 0-5.172-5.642z" transform="translate(986.622 4.943)"/>
        <path id="Path_16919" data-name="Path 16919" class="cls-2" d="M49.229 40.691h5.691c-1.011 1.607-2.463 3.55-2.463 5.642h-8.4a5.422 5.422 0 0 1 5.172-5.642z" transform="translate(955.433 4.943)"/>
        <path id="Path_16916" data-name="Path 16916" class="cls-2" d="M46.942 36.753a4.778 4.778 0 0 0 1.86-9.178 4.725 4.725 0 0 0-.9-.278 4.777 4.777 0 1 0-.963 9.456z" transform="translate(986.888 7.034)"/>
        <path id="Path_16918" data-name="Path 16918" class="cls-2" d="M46.943 36.754a4.778 4.778 0 0 1-1.86-9.178 4.725 4.725 0 0 1 .9-.278 4.777 4.777 0 1 1 .963 9.456z" transform="translate(960.257 7.034)"/>
        <circle id="Ellipse_664" data-name="Ellipse 664" class="cls-1" cx="8.538" cy="8.538" r="8.538" transform="translate(1011.977 23)"/>
        <path id="Path_16917" data-name="Path 16917" class="cls-1" d="M46.591 46.384c-.007-.076-.02-.15-.032-.226l-.017-.12c-.023-.175-.046-.35-.079-.52-.009-.044-.02-.085-.03-.128l-.073-.307c-.033-.132-.064-.265-.1-.4a7.368 7.368 0 0 0-.157-.469L46.1 44.2c-.036-.1-.071-.2-.111-.3a9.041 9.041 0 0 0-.228-.525 6.526 6.526 0 0 0-.108-.223q-.141-.281-.3-.55l-.091-.149c-.058-.094-.122-.182-.182-.274s-.127-.2-.2-.294l-.057-.077c-.1-.135-.2-.275-.3-.405-.051-.063-.11-.118-.162-.179-.142-.162-.283-.325-.434-.478a9.314 9.314 0 0 0-1.368-1.128l-.027-.016a9.162 9.162 0 0 0-5.141-1.563h-9.076a9.183 9.183 0 0 0-6.969 3.185 9.654 9.654 0 0 0-.465.583l-.057.077a8.71 8.71 0 0 0-.377.567l-.091.149q-.158.269-.3.548c-.037.074-.072.148-.108.223-.08.172-.157.344-.227.521-.039.1-.075.2-.111.3-.058.16-.113.32-.162.484-.037.131-.069.264-.1.4s-.074.288-.1.435c-.033.172-.055.347-.079.521-.016.116-.037.229-.049.347-.029.3-.045.6-.045.9h27.561c0-.3-.016-.6-.045-.9z" transform="translate(987.66 4.007)"/>
    </g>
</svg>
