<svg xmlns="http://www.w3.org/2000/svg" width="19.269" height="12.195">
    <g data-name="Group 9137">
        <path data-name="Path 16965" d="m26.332 102.1-8.977-3.238a.676.676 0 0 0-.446 0L7.928 102.1a.652.652 0 0 0-.434.632.665.665 0 0 0 .465.617l2.618.826v6.181a.666.666 0 0 0 .248.524.644.644 0 0 0 .566.116l3.936-1.035a7.089 7.089 0 0 1 3.6 0L22.869 111a.618.618 0 0 0 .167.023.644.644 0 0 0 .644-.659v-6.185l2.618-.826a.67.67 0 0 0 .465-.617.649.649 0 0 0-.431-.636zm-3.967 7.4-3.106-.818a8.355 8.355 0 0 0-4.262 0l-3.1.818v-4.905l5.041 1.6a.675.675 0 0 0 .194.031.649.649 0 0 0 .19-.031l5.041-1.6v4.905zm-5.235-4.626-6.922-2.195 6.922-2.493 6.922 2.493z" transform="translate(-7.494 -98.825)" style="fill:#949ab2"/>
    </g>
</svg>
