<svg xmlns="http://www.w3.org/2000/svg" width="23.416" height="27.542">
    <defs>
        <style>
            .cls-1{fill:#39d5ae}
        </style>
    </defs>
    <g id="Group_9476" data-name="Group 9476" transform="translate(-9.775 -2.5)">
        <circle id="Ellipse_837" data-name="Ellipse 837" class="cls-1" cx="3.367" cy="3.367" r="3.367" transform="translate(20.81 2.5)"/>
        <path id="Path_17269" data-name="Path 17269" class="cls-1" d="M41.809 35.981c2.177.087 6.443.087 8.59 0a1.185 1.185 0 0 0 1.132-1.335l-.319-3.25a3.879 3.879 0 0 0-2.9-3.25L46.8 31.918l-.319-2.728h.232a.229.229 0 0 0 .232-.232v-.726a.229.229 0 0 0-.232-.232h-1.19a.229.229 0 0 0-.232.232v.726a.229.229 0 0 0 .232.232h.232l-.348 2.728-1.507-3.773a3.843 3.843 0 0 0-2.9 3.222l-.319 3.25a1.2 1.2 0 0 0 1.128 1.364z" transform="translate(-21.927 -18.099)"/>
        <path id="Path_17270" data-name="Path 17270" d="M33 65.64a1.487 1.487 0 0 0-1.944-.58 27.582 27.582 0 0 1-2.873.9 3.384 3.384 0 0 1-2.438 1.6 4.807 4.807 0 0 1-.958.116 25.634 25.634 0 0 1-2.931-.058h-.261a.688.688 0 0 1-.668-.58.642.642 0 0 1 .174-.551.606.606 0 0 1 .522-.2h.261a15.784 15.784 0 0 0 3.6-.058c1.48-.319 1.857-1.248 1.741-1.973a1.283 1.283 0 0 0-.319-.7.968.968 0 0 0-.929-.377 25.889 25.889 0 0 1-3.686.029 22.886 22.886 0 0 0-3.976.116A14.96 14.96 0 0 0 12.8 65.93a149.86 149.86 0 0 0-2.786 2.148.551.551 0 0 0-.232.435.625.625 0 0 0 .145.493l3.192 3.86a.644.644 0 0 0 .9.087l1.1-.9a1.238 1.238 0 0 1 1.045-.232 26.089 26.089 0 0 0 5.688.958c3.047.058 8.852-3.773 10.651-5.108A1.557 1.557 0 0 0 33 65.64z" transform="translate(0 -43.056)" style="fill:#8be6cf"/>
    </g>
</svg>
