<svg xmlns="http://www.w3.org/2000/svg" width="61.536" height="57.107">
    <defs>
        <style>
            .cls-1,.cls-2{fill:#76b1ff}.cls-2{opacity:.52}
        </style>
    </defs>
    <g id="Group_9656" data-name="Group 9656" transform="translate(-80.211 -1776.811)">
        <g id="Group_9639" data-name="Group 9639" transform="translate(2.416 326.813)">
            <path id="Path_17393" data-name="Path 17393" class="cls-1" d="M55.121 80.886a7.822 7.822 0 0 0-4.664-6.286 11.444 11.444 0 0 1-5.88 1.622A11.63 11.63 0 0 1 38.7 74.6a7.856 7.856 0 0 0-4.663 6.286l-.743 6.353A1.525 1.525 0 0 0 34.574 89a47.806 47.806 0 0 0 10 1.014 48.964 48.964 0 0 0 10.07-.946 1.583 1.583 0 0 0 1.217-1.757z" transform="translate(63.82 1417.095)"/>
            <circle id="Ellipse_912" data-name="Ellipse 912" class="cls-1" cx="7.367" cy="7.367" r="7.367" transform="translate(101.029 1474.595)"/>
        </g>
        <g id="Group_9640" data-name="Group 9640" transform="translate(-5.57 324.918)">
            <path id="Path_17394" data-name="Path 17394" class="cls-2" d="M37 17.9h2.759l1.291 2.626a.891.891 0 0 0 1.6 0l1.294-2.626h2.848a1.6 1.6 0 0 0 1.6-1.6V4.1a1.6 1.6 0 0 0-1.6-1.6H37a1.6 1.6 0 0 0-1.6 1.6v12.2a1.6 1.6 0 0 0 1.6 1.6zm4.05-3.738a.979.979 0 1 1 .979.979.988.988 0 0 1-.977-.981zm.89-8.945a3.112 3.112 0 0 1 2.8 1.6 2.723 2.723 0 0 1-.223 2.893 3.728 3.728 0 0 1-1.113 1.024.983.983 0 0 0-.534.935.439.439 0 0 1-.445.4h-.757a.4.4 0 0 1-.312-.134.481.481 0 0 1-.134-.312 2.419 2.419 0 0 1 1.246-2.181 2.5 2.5 0 0 0 .712-.668 1.239 1.239 0 0 0 .089-1.246 1.417 1.417 0 0 0-1.38-.757 1.4 1.4 0 0 0-1.549 1.247.433.433 0 0 1-.445.356h-.757a.4.4 0 0 1-.4-.49 3.1 3.1 0 0 1 3.204-2.669z" transform="translate(98.922 1472.5)"/>
            <path id="Path_17395" data-name="Path 17395" class="cls-2" d="M36.881 16.734h2.551l1.193 2.427a.824.824 0 0 0 1.481 0l1.194-2.427h2.633a1.475 1.475 0 0 0 1.481-1.481V3.981A1.475 1.475 0 0 0 45.931 2.5h-9.05A1.475 1.475 0 0 0 35.4 3.981v11.272a1.475 1.475 0 0 0 1.481 1.481zm3.744-3.456a.905.905 0 1 1 .905.905.913.913 0 0 1-.905-.905zm.823-8.269a2.876 2.876 0 0 1 2.591 1.481 2.517 2.517 0 0 1-.206 2.674 3.447 3.447 0 0 1-1.028.946.909.909 0 0 0-.494.864.406.406 0 0 1-.411.37h-.7a.373.373 0 0 1-.288-.123.444.444 0 0 1-.123-.288 2.236 2.236 0 0 1 1.152-2.016A2.314 2.314 0 0 0 42.6 8.3a1.145 1.145 0 0 0 .082-1.152 1.31 1.31 0 0 0-1.275-.7A1.291 1.291 0 0 0 39.966 7.6a.4.4 0 0 1-.411.329h-.7a.367.367 0 0 1-.37-.453 2.868 2.868 0 0 1 2.962-2.467z" transform="translate(50.381 1472.5)"/>
        </g>
        <path id="Path_17397" data-name="Path 17397" class="cls-2" d="M37.055 18.408h2.85l1.333 2.713a.921.921 0 0 0 1.655 0l1.333-2.713h2.944a1.648 1.648 0 0 0 1.655-1.655V4.155A1.648 1.648 0 0 0 47.17 2.5H37.055A1.648 1.648 0 0 0 35.4 4.155v12.6a1.648 1.648 0 0 0 1.655 1.653zm4.184-3.862a1.011 1.011 0 1 1 1.011 1.011 1.02 1.02 0 0 1-1.011-1.011zm.92-9.241a3.215 3.215 0 0 1 2.9 1.655 2.813 2.813 0 0 1-.23 2.988 3.852 3.852 0 0 1-1.149 1.057 1.016 1.016 0 0 0-.552.965.454.454 0 0 1-.46.414h-.782a.417.417 0 0 1-.322-.138.5.5 0 0 1-.138-.322 2.5 2.5 0 0 1 1.284-2.252 2.586 2.586 0 0 0 .736-.69 1.28 1.28 0 0 0 .092-1.282 1.464 1.464 0 0 0-1.425-.782A1.443 1.443 0 0 0 40.5 8.2a.448.448 0 0 1-.46.368h-.782a.41.41 0 0 1-.414-.506A3.206 3.206 0 0 1 42.158 5.3z" transform="translate(68.865 1774.311)"/>
    </g>
</svg>
