<svg id="Group_10543" data-name="Group 10543" xmlns="http://www.w3.org/2000/svg" width="15.668" height="16.132">
    <defs>
        <style>
            .cls-1{fill:#fff}
        </style>
    </defs>
    <g id="Group_10544" data-name="Group 10544" transform="translate(.123 13.802)">
        <path id="Path_17839" data-name="Path 17839" class="cls-1" d="M100.064 847.3v1.393a.287.287 0 0 1-.291.286H85.291a.287.287 0 0 1-.291-.289v-1.39a.3.3 0 0 1 .291-.3h14.481a.3.3 0 0 1 .292.3z" transform="translate(-84.822 -846.828)"/>
        <g id="Group_10543-2" data-name="Group 10543">
            <path id="Path_17840" data-name="Path 17840" class="cls-1" d="M89.957 837.724v1.307c0 .1 0 .192-.115.2-.162.012-.332 0-.494 0H75.975c-.2 0-.4.011-.605 0a.12.12 0 0 1-.125-.115c-.007-.1 0-.194 0-.291V837.8c0-.092 0-.183.115-.192a.259.259 0 0 1 .037 0h14.368c.093 0 .187 0 .192.115.009.226.362.228.353 0a.477.477 0 0 0-.469-.467H75.38a.475.475 0 0 0-.487.549v1.049c0 .1-.005.19 0 .286a.477.477 0 0 0 .469.445h14.386a.572.572 0 0 0 .355-.081.529.529 0 0 0 .206-.478v-1.3a.176.176 0 0 0-.352-.002z" transform="translate(-74.892 -837.256)"/>
        </g>
    </g>
    <g id="Group_10546" data-name="Group 10546" transform="translate(6.498 6.376)">
        <path id="Rectangle_3384" data-name="Rectangle 3384" class="cls-1" transform="translate(.188 .171)" d="M0 0h2.311v7.426H0z"/>
        <g id="Group_10545" data-name="Group 10545">
            <path id="Path_17841" data-name="Path 17841" class="cls-1" d="M438.649 416.476v7.124c0 .1-.009.2 0 .291v.012l.176-.176h-2.311l.176.176v-7.123c0-.1.009-.2 0-.291v-.012l-.176.176h2.311a.176.176 0 0 0 0-.353h-2.311a.179.179 0 0 0-.176.176v6.512c0 .3-.011.6 0 .9v.012a.179.179 0 0 0 .176.176h2.311a.179.179 0 0 0 .175-.176v-6.51c0-.3.011-.6 0-.9v-.012a.176.176 0 0 0-.351-.002z" transform="translate(-436.333 -416.3)"/>
        </g>
    </g>
    <g id="Group_10548" data-name="Group 10548" transform="translate(1.753 6.376)">
        <path id="Rectangle_3385" data-name="Rectangle 3385" class="cls-1" transform="translate(.188 .171)" d="M0 0h2.311v7.426H0z"/>
        <g id="Group_10547" data-name="Group 10547">
            <path id="Path_17842" data-name="Path 17842" class="cls-1" d="M169.649 416.476v7.124c0 .1-.009.2 0 .291v.012l.176-.176h-2.311l.176.176v-7.123c0-.1.009-.2 0-.291v-.012l-.176.176h2.311a.176.176 0 0 0 0-.353h-2.311a.179.179 0 0 0-.176.176v6.512c0 .3-.011.6 0 .9v.012a.179.179 0 0 0 .176.176h2.311a.179.179 0 0 0 .175-.176v-6.51c0-.3.011-.6 0-.9v-.012a.176.176 0 0 0-.351-.002z" transform="translate(-167.333 -416.3)"/>
        </g>
    </g>
    <g id="Group_10550" data-name="Group 10550">
        <path id="Path_17843" data-name="Path 17843" class="cls-1" d="M92.663 70.975H78.291a.471.471 0 0 1-.284-.847l7.186-5.428a.471.471 0 0 1 .568 0l7.186 5.433a.471.471 0 0 1-.284.842z" transform="translate(-77.644 -64.427)"/>
        <g id="Group_10549" data-name="Group 10549">
            <path id="Path_17844" data-name="Path 17844" class="cls-1" d="M82.944 61.173H68.591a.311.311 0 0 1-.152-.026.527.527 0 0 0-.048-.03l-.041-.037s-.021-.025-.007-.005a.175.175 0 0 1-.019-.03.323.323 0 0 1-.028-.055.269.269 0 0 1-.021-.111.353.353 0 0 1 0-.044c0-.03-.005.023 0-.007a.372.372 0 0 1 .018-.062.317.317 0 0 1 .083-.111c.03-.032-.009.005 0 0l.021-.016.106-.079c.143-.108.286-.215.429-.325q.757-.571 1.513-1.145l1.93-1.459 1.82-1.376 1.184-.894c.06-.046.12-.093.183-.138a.316.316 0 0 1 .4 0l.076.058 1.011.766 1.751 1.327 1.949 1.473q.81.614 1.621 1.226c.254.192.512.381.762.577l.007.005c-.028-.023-.005 0 .014.014a.273.273 0 0 1 .088.212.3.3 0 0 1-.021.111c-.012.035-.005.014 0 .007l-.021.039a.196.196 0 0 1-.019.03c-.018.025.014-.016-.005.007a.305.305 0 0 1-.228.1.176.176 0 0 0 0 .353.653.653 0 0 0 .614-.443.643.643 0 0 0-.2-.707c-.067-.053-.136-.1-.2-.155l-1.185-.9-1.852-1.4-1.96-1.482L76.64 55.3c-.136-.1-.272-.206-.409-.309l-.088-.067a.662.662 0 0 0-.534-.109.937.937 0 0 0-.36.2l-.448.339-1.556 1.177q-.984.746-1.97 1.49L69.449 59.4l-1.122.848a1.124 1.124 0 0 0-.312.293.658.658 0 0 0 .039.721.649.649 0 0 0 .52.261h14.37a.177.177 0 0 0 0-.35z" transform="translate(-67.925 -54.796)"/>
        </g>
    </g>
    <g id="Group_10552" data-name="Group 10552" transform="translate(11.243 6.376)">
        <path id="Rectangle_3386" data-name="Rectangle 3386" class="cls-1" transform="translate(.188 .171)" d="M0 0h2.311v7.426H0z"/>
        <g id="Group_10551" data-name="Group 10551">
            <path id="Path_17845" data-name="Path 17845" class="cls-1" d="M707.649 416.476v7.124c0 .1-.009.2 0 .291v.012l.176-.176h-2.311l.176.176v-7.123c0-.1.009-.2 0-.291v-.012l-.176.176h2.311a.176.176 0 0 0 0-.353h-2.311a.179.179 0 0 0-.176.176v6.512c0 .3-.011.6 0 .9v.012a.179.179 0 0 0 .176.176h2.311a.179.179 0 0 0 .175-.176v-6.51c0-.3.011-.6 0-.9v-.012a.176.176 0 0 0-.351-.002z" transform="translate(-705.333 -416.3)"/>
        </g>
    </g>
</svg>
