<svg xmlns="http://www.w3.org/2000/svg" width="22.552" height="21.428">
    <defs>
        <style>
            .cls-1{fill:#77b2ff}
        </style>
    </defs>
    <g id="Group_9729" data-name="Group 9729" transform="translate(946.1 -956.3)">
        <path id="Path_17135" data-name="Path 17135" class="cls-1" d="M-917.032 979.8a5.68 5.68 0 0 0-5.668 5.668 5.266 5.266 0 0 0 .167 1.339 9.109 9.109 0 0 0 1.052 2.487 7.261 7.261 0 0 0 .622.909 1.574 1.574 0 0 1 .454 1.244v.335a1.4 1.4 0 0 0 .765 1.244c.239 1.578.981 2.583 2.631 2.583s2.392-1 2.631-2.583a1.4 1.4 0 0 0 .765-1.244v-.335a1.574 1.574 0 0 1 .454-1.244 8.156 8.156 0 0 0 .622-.909 7.836 7.836 0 0 0 1.052-2.487 5.266 5.266 0 0 0 .167-1.339 5.737 5.737 0 0 0-5.714-5.668zm0 14.349c-.406 0-.909 0-1.148-.981h2.272c-.215.981-.718.981-1.124.981zm4.113-7.677a7.361 7.361 0 0 1-.909 2.1c-.191.311-.359.55-.5.765a2.966 2.966 0 0 0-.741 2.1v.287h-3.874v-.287a2.967 2.967 0 0 0-.741-2.1 4.229 4.229 0 0 1-.5-.765 6.976 6.976 0 0 1-.909-2.081v-.024a3.714 3.714 0 0 1-.12-1 4.241 4.241 0 0 1 4.233-4.233 4.225 4.225 0 0 1 4.233 4.233c-.053.312-.1.647-.172 1.005z" transform="translate(-17.804 -17.88)"/>
        <path id="Path_17137" data-name="Path 17137" class="cls-1" d="M-865.68 1000.4h-2.7a.7.7 0 0 0-.717.717.7.7 0 0 0 .717.717h2.7a.7.7 0 0 0 .717-.717.72.72 0 0 0-.717-.717z" transform="translate(-58.585 -33.553)"/>
        <path id="Path_17138" data-name="Path 17138" class="cls-1" d="M-875.667 969.315a.693.693 0 0 0-1 0l-1.913 1.913a.693.693 0 0 0 0 1 .729.729 0 0 0 .5.215.73.73 0 0 0 .5-.215l1.913-1.913a.693.693 0 0 0 0-1z" transform="translate(-51.205 -9.739)"/>
        <path id="Path_17139" data-name="Path 17139" class="cls-1" d="M-901.283 960.437a.7.7 0 0 0 .717-.717v-2.7a.7.7 0 0 0-.717-.717.7.7 0 0 0-.717.717v2.7a.719.719 0 0 0 .717.717z" transform="translate(-33.553)"/>
        <path id="Path_17140" data-name="Path 17140" class="cls-1" d="M-930.067 972.333a.693.693 0 0 0 0-1l-1.913-1.913a.693.693 0 0 0-1 0 .693.693 0 0 0 0 1l1.913 1.913a.729.729 0 0 0 .5.215.729.729 0 0 0 .5-.215z" transform="translate(-9.815 -9.815)"/>
        <path id="Path_17141" data-name="Path 17141" class="cls-1" d="M-942.68 1000.4h-2.7a.7.7 0 0 0-.717.717.7.7 0 0 0 .717.717h2.7a.7.7 0 0 0 .717-.717.719.719 0 0 0-.717-.717z" transform="translate(0 -33.553)"/>
    </g>
</svg>
