<svg xmlns="http://www.w3.org/2000/svg" width="55" height="55">
    <g data-name="Group 9558" transform="translate(-391 -203)">
        <rect data-name="Rectangle 2210" width="55" height="55" rx="15" transform="translate(391 203)" style="fill:#1ae0e0;opacity:.08"/>
        <g data-name="Group 9452" transform="translate(0 2)">
            <circle data-name="Ellipse 790" cx="6" cy="6" r="6" transform="translate(410 213)" style="fill:#a0f2f2"/>
            <path data-name="Path 17217" d="M136.146 253.808a2.635 2.635 0 0 1 1.286-.787 2.069 2.069 0 0 1 2.07.682c.49.55.944 1.132 1.411 1.7.145.177.29.34.551.253.276-.092.282-.32.282-.558q0-5.82.01-11.64a2.453 2.453 0 0 1 .1-.725 1.335 1.335 0 0 1 1.434-.95 1.417 1.417 0 0 1 1.191 1.261c.015.148.014.3.014.447v9.954a2.588 2.588 0 0 0 0 .263.41.41 0 1 0 .82-.01c.005-.07 0-.14 0-.211v-2.923a1.368 1.368 0 0 1 1.344-1.451 1.392 1.392 0 0 1 1.4 1.435c.011.869 0 1.738 0 2.607v.211c.014.283.167.448.412.449a.4.4 0 0 0 .413-.446c.007-.685 0-1.369 0-2.054a2.313 2.313 0 0 1 .028-.445 1.372 1.372 0 0 1 1.408-1.166 1.419 1.419 0 0 1 1.25 1.43c.015.711 0 1.422.007 2.133a.405.405 0 0 0 .4.43.411.411 0 0 0 .41-.4c.01-.1 0-.193.006-.289.006-.36-.013-.722.023-1.078a1.385 1.385 0 0 1 1.765-1.181 1.427 1.427 0 0 1 .973 1.2 3.257 3.257 0 0 1 .015.342v8.664a4.821 4.821 0 0 1-1.892 3.986 4.056 4.056 0 0 1-2.566.875h-5.583a4.234 4.234 0 0 1-3.937-2.324c-1.161-2.122-2.248-4.285-3.366-6.43-.549-1.082-1.111-2.162-1.679-3.254z" transform="translate(272.854 -23.776)" style="fill:#2ac3f6"/>
        </g>
    </g>
</svg>
