<svg xmlns="http://www.w3.org/2000/svg" width="18.768" height="17.702">
    <defs>
        <style>
            .cls-2{fill:#4f8aff}
        </style>
    </defs>
    <g id="Group_9123" data-name="Group 9123" style="opacity:.81">
        <path id="Path_16951" data-name="Path 16951" class="cls-2" d="M14.025 52.76v.158a2.151 2.151 0 0 1-4.3 0v-.158l-6.83-1.322A.946.946 0 0 1 2.5 51.3v5.96a2.645 2.645 0 0 0 2.644 2.64h13.479a2.645 2.645 0 0 0 2.644-2.644V51.3a2.322 2.322 0 0 1-.395.138z" transform="translate(-2.5 -42.202)"/>
        <path id="Path_16952" data-name="Path 16952" d="M18.643 8.95h-2.407v-.987A2.771 2.771 0 0 0 13.473 5.2h-3.2a2.771 2.771 0 0 0-2.76 2.763v.987H5.105A2.6 2.6 0 0 0 2.5 11.555v1.105a.759.759 0 0 0 .592.73l6.631 1.283a2.152 2.152 0 0 1 4.3 0l6.611-1.283a.757.757 0 0 0 .612-.73v-1.125a2.6 2.6 0 0 0-2.603-2.585zm-9.1-1.006a.72.72 0 0 1 .71-.71h3.217a.72.72 0 0 1 .71.71v.986H9.545z" transform="translate(-2.5 -5.2)" style="fill:#d1e1ff"/>
        <path id="Path_16953" data-name="Path 16953" class="cls-2" d="M46.671 50.27v-1.185a1.085 1.085 0 0 0-2.171 0v1.185a1.085 1.085 0 0 0 2.171 0z" transform="translate(-36.211 -39.553)"/>
    </g>
</svg>
