<svg xmlns="http://www.w3.org/2000/svg" width="17.506" height="19.355">
    <defs>
        <style>
            .cls-1{fill:#77b2ff;stroke:#77b2ff;stroke-width:.5px}
        </style>
    </defs>
    <g id="Group_9733" data-name="Group 9733" transform="translate(-125.315 -229.39)">
        <path id="Path_17429" data-name="Path 17429" class="cls-1" d="M133.994 229.64c.314.046.633.072.942.141a7.8 7.8 0 0 1 6.232 5.976 12.628 12.628 0 0 1 .216 1.545 2.132 2.132 0 0 0 .074.376c.337 1.024.68 2.046 1.019 3.07a1.289 1.289 0 0 1-1.292 1.783h-.532v1.227a2.039 2.039 0 0 1-.419 1.287 1.941 1.941 0 0 1-1.549.8c-.736.016-1.473 0-2.209.006h-.224c0 .072-.008.137-.009.2 0 .583-.014 1.166 0 1.749a.643.643 0 0 1-.443.7h-7.623a.716.716 0 0 1-.412-.741c-.006-.784-.008-1.572-.087-2.351a12.646 12.646 0 0 0-1.329-4.409 7.4 7.4 0 0 1-.781-3.207 8 8 0 0 1 6.473-8.008c.306-.057.616-.092.925-.138zm1.15 17.743v-1.988a.576.576 0 0 1 .656-.654h2.743a.93.93 0 0 0 1.007-1.01v-1.693a.555.555 0 0 1 .6-.609h1.012c.292 0 .349-.08.256-.36-.333-1-.673-2-1-3a4.865 4.865 0 0 1-.146-.769c-.064-.43-.084-.869-.181-1.291a6.784 6.784 0 0 0-7.335-5.213 6.555 6.555 0 0 0-4.413 2.328 6.654 6.654 0 0 0-1.57 5.7 8.736 8.736 0 0 0 .8 2.2 13.912 13.912 0 0 1 1.293 6.118v.236z"/>
        <path id="Path_17430" data-name="Path 17430" class="cls-1" d="M204.55 297.89a3.225 3.225 0 0 1 1.594-.563 3.115 3.115 0 0 1 2.465.888.65.65 0 0 1 .171.426c.012 1.693.008 3.387.007 5.081a.546.546 0 0 1-.339.543.553.553 0 0 1-.612-.119 2.108 2.108 0 0 0-2.879-.009.556.556 0 0 1-.823-.009 2.106 2.106 0 0 0-2.837-.008.578.578 0 0 1-.657.14.57.57 0 0 1-.324-.587q.006-2.494 0-4.989a.693.693 0 0 1 .257-.56 3.229 3.229 0 0 1 3.815-.332zm-.57 4.841a.262.262 0 0 0 .014-.042c0-1.245.006-2.49 0-3.734a.252.252 0 0 0-.108-.168 2.122 2.122 0 0 0-2.325-.032.277.277 0 0 0-.143.268v3.533c0 .052.006.1.011.177a3.24 3.24 0 0 1 2.551-.002zm3.687 0a.634.634 0 0 0 .015-.087v-3.68a.264.264 0 0 0-.115-.182 2.085 2.085 0 0 0-2.309-.033.28.28 0 0 0-.152.281v3.5c0 .063.006.126.011.207a3.247 3.247 0 0 1 2.55-.006z" transform="translate(-71.08 -63.354)"/>
    </g>
</svg>
