<svg xmlns="http://www.w3.org/2000/svg" width="9.482" height="12.658">
    <defs>
        <style>
            .cls-1{fill:#77b2ff}
        </style>
    </defs>
    <g id="Group_9382" data-name="Group 9382" transform="translate(-7.003 -3.974)">
        <path id="Path_17105" data-name="Path 17105" class="cls-1" d="M11.743 16.632a.977.977 0 0 1-.369-.105c-.158-.211-5.479-4.9-4.162-9.272a4.753 4.753 0 0 1 9.272 1.475c0 3.9-4.215 7.639-4.373 7.8a.977.977 0 0 1-.368.102zm-1.212-11.38a3.546 3.546 0 0 0-2.107 1.791c-1.581 3.214 2.107 7.218 3.319 8.377 1-.948 3.688-3.846 3.688-6.638a3.7 3.7 0 0 0-4.9-3.53z"/>
        <path id="Path_17106" data-name="Path 17106" class="cls-1" d="M14.7 13.189a2.087 2.087 0 0 1-2.582-2.582 2.182 2.182 0 0 1 1.475-1.475 2.1 2.1 0 0 1 2.582 2.582 2.289 2.289 0 0 1-1.475 1.475zm-.58-3.108a1.054 1.054 0 1 0 1.054 1.054 1.057 1.057 0 0 0-1.053-1.054z" transform="translate(-2.378 -2.406)"/>
    </g>
</svg>
