<svg id="Group_9998" data-name="Group 9998" xmlns="http://www.w3.org/2000/svg" width="15.785" height="11.115">
    <defs>
        <style>
            .cls-1{fill:#949ab2}
        </style>
    </defs>
    <g id="Group_9998-2" data-name="Group 9998">
        <path id="Path_17497" data-name="Path 17497" class="cls-1" d="M207.159 442.115h-14.534a.626.626 0 0 1-.625-.625v-9.865a.626.626 0 0 1 .625-.625h14.534a.626.626 0 0 1 .625.625v9.865a.626.626 0 0 1-.625.625zm-13.909-1.25h13.284v-8.615H193.25z" transform="translate(-192 -431)"/>
    </g>
    <g id="Group_9999" data-name="Group 9999">
        <path id="Path_17498" data-name="Path 17498" class="cls-1" d="M199.89 438.573a.621.621 0 0 1-.41-.153l-7.283-6.34a.625.625 0 1 1 .82-.944l6.871 5.982 6.841-5.981a.625.625 0 0 1 .822.942l-7.251 6.339a.623.623 0 0 1-.41.155z" transform="translate(-191.982 -430.982)"/>
    </g>
    <g id="Group_10000" data-name="Group 10000" transform="translate(0 4.933)">
        <path id="Path_17499" data-name="Path 17499" class="cls-1" d="M192.607 942.165a.625.625 0 0 1-.41-1.1l5.666-4.932a.625.625 0 1 1 .82.944l-5.666 4.932a.625.625 0 0 1-.41.156z" transform="translate(-191.982 -935.982)"/>
    </g>
    <g id="Group_10001" data-name="Group 10001" transform="translate(8.893 4.933)">
        <path id="Path_17500" data-name="Path 17500" class="cls-1" d="M1108.7 942.212a.623.623 0 0 1-.411-.154l-5.642-4.932a.625.625 0 1 1 .822-.942l5.642 4.932a.625.625 0 0 1-.411 1.1z" transform="translate(-1102.429 -936.029)"/>
    </g>
</svg>
