<svg xmlns="http://www.w3.org/2000/svg" width="24.045" height="36.322">
    <defs>
        <style>
            .cls-1{fill:#e6a52e}.cls-3{fill:#75cdf8}.cls-5{fill:#6bbef5}
        </style>
    </defs>
    <g id="Group_10015" data-name="Group 10015" transform="translate(546.408 -229.64)">
        <path id="Path_17518" data-name="Path 17518" class="cls-1" d="M-498.474 442.976a7.494 7.494 0 0 1-3.023-5.13 7.536 7.536 0 0 1 2.791-7.1 7.6 7.6 0 0 1 5.6-1.737 27.092 27.092 0 0 1 3.085.489c.156.367 1.2.959 1.451 1.248 1.231 1.436.98 2.379.985 4.284-.13-.075-.206.553-.348.553-.816 0-3.072-.552-3.888-.554a.789.789 0 0 1-.892-.635q-.391-1.193-.774-2.39c-.053-.165-.117-.34-.3-.345s-.241.187-.293.348q-.374 1.162-.756 2.321c-.185.566-.376.7-.984.7h-2.412c-.17 0-.351-.009-.419.184s.1.273.221.36q.985.722 1.977 1.433a.851.851 0 0 1 .388 1.152c-.259.8-.516 1.593-.779 2.388-.047.142-.087.272.06.38s.271.015.383-.066q.973-.708 1.939-1.424a.908.908 0 0 1 1.362 0c.617.455 1.243.9 1.865 1.344 0 .021 1.619 1.456 1.622 1.478-1.019.956-3.476 1.648-4.849 1.973-.739.175-1.615-.287-2.382-.348-.432-.034-1.047-.856-1.47-.974a.142.142 0 0 0-.16.068z" transform="translate(-40.595 -180.488)"/>
        <path id="Path_17511" data-name="Path 17511" d="M-506.974 363.048a1.245 1.245 0 0 1 .932 1.4c0 1.43.007 2.86 0 4.29a1.145 1.145 0 0 0 .459.939 9.33 9.33 0 0 1 3.229 5.511 9.452 9.452 0 0 1-3 9.048 9.183 9.183 0 0 1-5.386 2.442c-.07.008-.144 0-.19.069h-1.915c-.593-.184-1.217-.226-1.811-.416a9.679 9.679 0 0 1-5.522-4.331 9.189 9.189 0 0 1-1.336-4.491 9.464 9.464 0 0 1 3.4-7.815 1.167 1.167 0 0 0 .455-.946c-.014-1.441-.006-2.882-.005-4.324a1.226 1.226 0 0 1 .929-1.366c.385.59.732 1.2 1.061 1.824-.144.066-.154.191-.153.327 0 .614.007 1.227 0 1.841 0 .238.076.34.326.34q3.646-.008 7.291 0c.244 0 .337-.089.333-.333a66.46 66.46 0 0 1 0-1.841.35.35 0 0 0-.2-.374l-1-1.774zm-2.749 6.537a6.068 6.068 0 0 0-1.449-.278 7.6 7.6 0 0 0-5.6 1.737 7.536 7.536 0 0 0-2.791 7.1 7.494 7.494 0 0 0 3.023 5.13 7.757 7.757 0 0 0 8.58.535 7.766 7.766 0 0 0 3.821-7.881 7.662 7.662 0 0 0-3.008-5.074 6.766 6.766 0 0 0-2.576-1.269z" transform="translate(-22.533 -120.789)" style="fill:#fedf7d"/>
        <path id="Path_17512" data-name="Path 17512" class="cls-3" d="M-538.205 244.089a22.547 22.547 0 0 0-1.061-1.824c-.477-.84-.95-1.683-1.433-2.52q-2.819-4.89-5.646-9.775a.316.316 0 0 1-.03-.33h2.412c.094.177.183.357.283.53q1.386 2.407 2.776 4.812c1.209 2.094 2.423 4.185 3.625 6.283.533.931 1.109 1.838 1.582 2.8-.835.027-1.671.058-2.508.024z"/>
        <path id="Path_17513" data-name="Path 17513" class="cls-3" d="m-483.755 242.274 1 1.774a.387.387 0 0 1-.269.052l-2.281-.006a.613.613 0 0 0-.1-.259q-1.771-3.061-3.536-6.125c-1.22-2.113-2.451-4.22-3.657-6.341a12.571 12.571 0 0 1-.949-1.73h2.483c.072.121.146.242.216.364q2.079 3.6 4.159 7.19c.054.093.064.241.227.233a10.76 10.76 0 0 0 1.215 2.216 19.894 19.894 0 0 0 1.276 2.2c.007.175.138.29.216.432z" transform="translate(-47.86)"/>
        <path id="Path_17514" data-name="Path 17514" d="M-517.994 229.64a12.578 12.578 0 0 0 .949 1.73c1.206 2.121 2.437 4.228 3.657 6.341q1.769 3.062 3.536 6.125a.61.61 0 0 1 .1.259 20.276 20.276 0 0 1-2.533-.027c-.473-.965-1.049-1.872-1.582-2.8-1.2-2.1-2.416-4.189-3.625-6.283q-1.389-2.405-2.776-4.812c-.1-.174-.189-.353-.283-.53z" transform="translate(-23.414)" style="fill:#d1eefa"/>
        <path id="Path_17523" data-name="Path 17523" class="cls-1" d="M-395.261 502.227c-.241-.725-.484-1.448-.721-2.174a.807.807 0 0 1 .353-1.065c.735-.526 1.6-1.166 2.337-1.694.022 1.773 1.349 5.315.262 6.695-.044.057-2.151-1.768-2.231-1.762z" transform="translate(-136.132 -242.436)"/>
        <path id="Path_17515" data-name="Path 17515" class="cls-5" d="M-392.091 242.274c-.078-.142-.209-.258-.217-.435l1.36-2.36 3.043-5.268q1.315-2.283 2.621-4.572h2.412a.347.347 0 0 1-.049.36q-3.462 5.986-6.919 11.976c-.053.091-.1.189-.143.283z" transform="translate(-139.524)"/>
        <path id="Path_17516" data-name="Path 17516" d="m-397.5 229.64-2.621 4.572q-1.518 2.636-3.043 5.268-.681 1.179-1.36 2.36a19.894 19.894 0 0 1-1.276-2.2c.471-.8.947-1.6 1.412-2.4q1.671-2.889 3.33-5.784a13.677 13.677 0 0 0 1-1.818z" transform="translate(-127.311)" style="fill:#b0e3f8"/>
        <path id="Path_17517" data-name="Path 17517" class="cls-5" d="M-411.677 229.64a13.677 13.677 0 0 1-1 1.818q-1.652 2.9-3.33 5.784c-.465.8-.941 1.6-1.412 2.4a10.759 10.759 0 0 1-1.215-2.216c.63-1.106 1.256-2.214 1.891-3.317q1.288-2.238 2.587-4.47z" transform="translate(-115.685)"/>
        <path id="Path_17519" data-name="Path 17519" d="M-459.3 437.971a7.456 7.456 0 0 0-1.934-4.966c-.248-.289-.607-.477-.763-.844a6.767 6.767 0 0 1 2.58 1.271 7.662 7.662 0 0 1 3.008 5.074 7.766 7.766 0 0 1-3.821 7.881 7.757 7.757 0 0 1-8.58-.535.142.142 0 0 1 .152-.067 6.681 6.681 0 0 0 1.288.15 7.231 7.231 0 0 0 2.251-.219 7.767 7.767 0 0 0 3.549-2c.151.055.287.238.466.066s.088-.333-.023-.493q0-.068-.008-.137c.08-.007.115-.066.159-.123a7.276 7.276 0 0 0 1.673-4.7.309.309 0 0 0 .003-.358z" transform="translate(-70.256 -183.365)" style="fill:#e39824"/>
        <path id="Path_17520" data-name="Path 17520" d="M-458.663 381.99a20.287 20.287 0 0 0 2.533.027l2.281.006a.388.388 0 0 0 .269-.052.351.351 0 0 1 .2.374 75.32 75.32 0 0 0 0 1.841c0 .244-.089.333-.333.333q-3.646-.008-7.292 0c-.25 0-.33-.1-.326-.34.009-.613 0-1.227 0-1.841 0-.136.01-.261.153-.327.842.035 1.678.004 2.515-.021z" transform="translate(-77.033 -137.922)" style="fill:#fefefe"/>
        <path id="Path_17521" data-name="Path 17521" d="M-463.059 465.872c0 .046.006.091.008.137l-.453.364c-.622-.448-1.248-.89-1.865-1.344a.908.908 0 0 0-1.362 0q-.965.719-1.939 1.424c-.112.081-.23.179-.383.066s-.107-.239-.06-.38l.779-2.388a.851.851 0 0 0-.388-1.152q-.994-.71-1.977-1.433c-.119-.087-.288-.172-.221-.36s.249-.184.419-.184h2.412c.607 0 .8-.136.984-.7q.38-1.16.756-2.321c.052-.161.091-.353.293-.348s.252.18.3.345q.382 1.2.774 2.39a.789.789 0 0 0 .892.635h2.447a.784.784 0 0 1 .414.067.309.309 0 0 1 0 .361c-.733.529-1.465 1.06-2.2 1.586a.807.807 0 0 0-.354 1.065l.724 2.17z" transform="translate(-68.334 -206.081)" style="fill:#fedf7c"/>
        <path id="Path_17522" data-name="Path 17522" d="m-392.365 550.218.453-.364c.11.16.2.324.023.493s-.315-.01-.466-.066l-.01-.063z" transform="translate(-139.473 -289.926)" style="fill:#fdcf63"/>
    </g>
</svg>
