<svg data-name="Group 9118" xmlns="http://www.w3.org/2000/svg" width="22.301" height="20">
    <path data-name="Path 16939" d="M10835.512-1765.037c-.065-.4 4.079-8.257 4.079-8.257l9.454-.595s1.682 3.633 1.618 4.69 0 7.4 0 7.4.193 1.453-.843 1.718-13.144-.33-13.144-.33.193 1.52-.452.33a3.481 3.481 0 0 1-.713-2.18c-.065-1.059.001-2.776.001-2.776z" transform="translate(-10829.321 1779.357)" style="opacity:.26;fill:#4f8aff"/>
    <g data-name="Group 9117">
        <path data-name="Path 16937" d="M6.522 23.541a.29.29 0 0 1-.235-.047.3.3 0 0 1-.141-.211L4.125 11.748a.326.326 0 0 1 .258-.376l13.25-2.349h.047a.284.284 0 0 1 .188.07.3.3 0 0 1 .141.211l.339 1.953 1.6.006-.388-2.24a1.858 1.858 0 0 0-.776-1.223 1.885 1.885 0 0 0-1.41-.305L4.125 9.822A1.873 1.873 0 0 0 2.6 12.007l2.042 11.534a2.013 2.013 0 0 0 .775 1.222 1.8 1.8 0 0 0 1.081.352c.117 0-.146.06-.052.036l.627-.108-.033-1.592z" transform="translate(-2.567 -7.464)" style="fill:#d1e1ff"/>
        <path data-name="Path 16938" d="m39.54 26.6-13.461.023A1.885 1.885 0 0 0 24.2 28.5v11.725a1.885 1.885 0 0 0 1.879 1.875H39.54a1.885 1.885 0 0 0 1.879-1.879V28.5a1.89 1.89 0 0 0-1.879-1.9zm-2.255 2.866a1.194 1.194 0 0 1 1.175 1.175 1.175 1.175 0 1 1-1.175-1.175zm2.56 10.734a.317.317 0 0 1-.305.329H26.079a.321.321 0 0 1-.329-.329v-3.193l4.393-5.051a.288.288 0 0 1 .446 0l2.725 3.1a.183.183 0 0 1 .047.188l-.352 1.6a.107.107 0 0 0 .188.094l2.725-2.983a.2.2 0 0 1 .305 0l3.618 3.97z" transform="translate(-19.118 -22.105)" style="fill:#4f8aff"/>
    </g>
</svg>
