<svg xmlns="http://www.w3.org/2000/svg" width="74.801" height="97.196">
    <defs>
        <style>
            .cls-2{fill:#eff6ff}.cls-3{fill:#deecff}.cls-5{fill:none;stroke:#cee2fe;stroke-linecap:round;stroke-width:1.5px}
        </style>
    </defs>
    <g id="Group_10577" data-name="Group 10577" transform="translate(-164.141 -968.804)">
        <ellipse id="Ellipse_984" data-name="Ellipse 984" cx="26.5" cy="6" rx="26.5" ry="6" transform="translate(175 1054)" style="fill:#eef5fc;opacity:.58"/>
        <path id="Path_17618" data-name="Path 17618" class="cls-2" d="M-910.28 538.553c-.305.008-.611.024-.917.024h-32.368c-.382 0-.765-.016-1.147-.024a2.524 2.524 0 0 1-1.536-2.631c.045-1.626.022-3.254.008-4.881a19.245 19.245 0 0 1 .194-3.188 9.449 9.449 0 0 1 1.826-3.974 12.358 12.358 0 0 1 4.372-2.87q3.222-1.4 6.4-2.9a2.4 2.4 0 0 1 2.514.131 11.257 11.257 0 0 0 9.017 1.385c.051.355.38.389.616.5 2.284 1.048 4.554 2.133 6.87 3.105a6.676 6.676 0 0 1 4.159 6.237c-.055 3.027-.009 6.057-.008 9.086z" transform="translate(1126.39 507.619)"/>
        <path id="Path_17619" data-name="Path 17619" class="cls-3" d="M-1011.816 542.1a9.447 9.447 0 0 0-1.826 3.974 19.232 19.232 0 0 0-.194 3.188c.014 1.627.038 3.255-.007 4.881a2.524 2.524 0 0 0 1.536 2.631c-5.254.008-10.508.024-15.761.017a1.514 1.514 0 0 1-1.677-1.445 39.341 39.341 0 0 1 .134-7.174 5.987 5.987 0 0 1 3.27-4.472c2.269-1.152 4.618-2.146 6.938-3.2a1.466 1.466 0 0 1 1.464.094 9.775 9.775 0 0 0 6.123 1.506z" transform="translate(1193.985 489.396)"/>
        <path id="Path_17621" data-name="Path 17621" class="cls-2" d="M-808.552 538.3c0-3.029-.047-6.059.01-9.087a6.676 6.676 0 0 0-4.159-6.237c-2.317-.972-3.5-2.057-5.788-3.105-.237-.109-.565-.142-.616-.5a11.869 11.869 0 0 0 3.394-1.513 2.009 2.009 0 0 1 2.094-.117q3.877 1.775 7.77 3.514a10.763 10.763 0 0 1 3.247 2.367 10.334 10.334 0 0 1 2.018 7.109 68.206 68.206 0 0 0 0 4.975 2.532 2.532 0 0 1-1.492 2.591z" transform="translate(1023.579 507.867)"/>
        <path id="Path_17620" data-name="Path 17620" class="cls-2" d="M-880.387 403.707a10.628 10.628 0 0 1-6.912-9.967 10.711 10.711 0 0 1 7.076-10.544c.033.469.458.509.757.656a9.572 9.572 0 0 1 3.832 3.512 10.94 10.94 0 0 1 1.708 7.389 11.253 11.253 0 0 1-3 6.5 16.882 16.882 0 0 1-3.461 2.454z" transform="translate(1078.725 616.475)"/>
        <path id="Path_17622" data-name="Path 17622" class="cls-2" d="M-851.167 401.511a16.882 16.882 0 0 0 3.457-2.456c1.7-1.851 1.626-3.979 1.92-6.5a10.94 10.94 0 0 0-1.708-7.389c-.953-1.484-1.883-1.614-3.506-2.411-.3-.147.033-1.288 0-1.757a9.481 9.481 0 0 1 10.092 2.493 11.127 11.127 0 0 1-2.808 17.634 8.948 8.948 0 0 1-7.447.386z" transform="translate(1049.505 618.672)"/>
        <path id="Path_17623" data-name="Path 17623" class="cls-3" d="M-732.338 563.437a2.532 2.532 0 0 0 1.492-2.591 65.501 65.501 0 0 1 0-4.975 10.334 10.334 0 0 0-2.018-7.109 17.012 17.012 0 0 0 3.154-.171c1.462.646 2.913 1.319 4.389 1.933a5.648 5.648 0 0 1 3.67 5.889c-.048 2.341-.007 4.683-.006 7.025z" transform="translate(953.847 482.734)"/>
        <path id="Path_17624" data-name="Path 17624" class="cls-3" d="M-958.3 432.622a7.639 7.639 0 0 1 8.933 1.678 8.935 8.935 0 0 1 1.481 10.063A7.794 7.794 0 0 1-958.3 448.2c.569-.64.236-1.06.858-1.649a7.96 7.96 0 0 0-.858-12.251c-.381-.28.271-1.253 0-1.678z" transform="translate(1136.134 577.14)"/>
        <path id="Path_17625" data-name="Path 17625" class="cls-3" d="M-745.005 432.636a7.616 7.616 0 0 1 9.233 2 8.845 8.845 0 0 1-.158 11.728c-2.134 2.575-6.454 3.4-9.15 1.744.716-.341.273-.8.834-1.352a8.52 8.52 0 0 0 2.615-6.191 8.615 8.615 0 0 0-2.769-6.665c-.518-.5-.12-.742-.605-1.264z" transform="translate(963.722 577.14)"/>
        <path id="Path_17626" data-name="Path 17626" class="cls-3" d="M-709.418 556.52c0-2.342-.042-4.684.006-7.025a5.648 5.648 0 0 0-3.67-5.889c-1.476-.614-1.844-1.286-3.306-1.933a18.511 18.511 0 0 0 3.162-1.473 1.235 1.235 0 0 1 1.246.015c2.339 1.058 4.724 2.031 6.983 3.239a6.227 6.227 0 0 1 3.387 5.6c.054 1.885.025 3.773.016 5.66a1.627 1.627 0 0 1-1.845 1.823c-1.633.006-4.348-.009-5.979-.017z" transform="translate(940.521 489.653)"/>
        <path id="Path_17627" data-name="Path 17627" class="cls-3" d="M-764.846 435.989c.485.523 1.17.765 1.688 1.268a8.616 8.616 0 0 1 2.769 6.662 8.52 8.52 0 0 1-2.611 6.192 7.115 7.115 0 0 1-1.917 1.352 8.644 8.644 0 0 1-4.622-8.672 8.459 8.459 0 0 1 4.693-6.802z" transform="translate(983.563 573.786)"/>
        <path id="Path_17628" data-name="Path 17628" class="cls-3" d="M-978.309 435.92a3.8 3.8 0 0 0 1.131.877 8.832 8.832 0 0 1 .813 13.053c-.622.589-1.372 1.009-1.941 1.649a8.355 8.355 0 0 1-4.725-8.252 8.182 8.182 0 0 1 4.722-7.327z" transform="translate(1156.141 573.842)"/>
        <g id="Group_10209" data-name="Group 10209" transform="translate(0 1)">
            <path id="Path_17629" data-name="Path 17629" class="cls-3" d="M-805.044 315.359c.044-.025.117-.041.128-.075.337-1.132 8.452-.26 8.669 0-1.111 2.426-2.668 5.5-3.933 7.911a3.732 3.732 0 0 1-.761-1.092c-.899-1.481-4.085-6.449-4.103-6.744z" transform="translate(1011.324 670.975)"/>
            <path id="Path_17630" data-name="Path 17630" class="cls-2" d="m-889.179 235.682-4.309.014a1.337 1.337 0 0 0-.874.153c-.217-.26-.516-.164-.783-.166-1.445-.008-2.89.02-4.334-.013-.9-.02-3.512 0-4.5 0-6.431.042-12.861.022-19.292.021-1.343 0-1.592-.253-1.592-1.614 0-5.231.011-10.462-.015-15.694a2.031 2.031 0 0 1 .642-1.7h35.063v4.747c-.306.006-.612.018-.918.018h-27.859a3.42 3.42 0 0 0-.985.083 1.117 1.117 0 0 0-.874 1.185 1.094 1.094 0 0 0 .953 1.121 3.4 3.4 0 0 0 .837.038h22.425c2.143 0 4.285.015 6.428.023q0 1.98-.009 3.96c-.306.006-.612.017-.918.017h-27.859a3.432 3.432 0 0 0-.985.084 1.117 1.117 0 0 0-.874 1.185 1.094 1.094 0 0 0 .954 1.12 3.41 3.41 0 0 0 .837.037h23.19c1.887 0 3.775.015 5.662.024l-.011 5.357z" transform="translate(1109.111 751.114)"/>
            <path id="Path_17631" data-name="Path 17631" class="cls-2" d="M-738.339 227.87q0-1.98.009-3.96c.583-.009 1.167-.016 1.75-.027.916-.018 1.453-.462 1.456-1.2 0-.688-.519-1.16-1.387-1.211-.607-.035-1.217-.025-1.826-.036v-4.747h6.278a2.462 2.462 0 0 1 .615 1.876c-.023 5.154-.012 10.307-.012 15.461 0 1.38-.378 1.756-1.778 1.759q-2.181.006-4.363 0a1.144 1.144 0 0 1-.742-.1l.011-5.339c.583-.009 1.167-.015 1.75-.026.916-.018 1.452-.462 1.455-1.2 0-.688-.518-1.159-1.388-1.21-.609-.039-1.219-.029-1.828-.04z" transform="translate(958.272 751.114)"/>
        </g>
        <g id="Ellipse_985" data-name="Ellipse 985" transform="translate(192 1039)" style="fill:#fff;stroke:#deecff;stroke-width:2px">
            <circle cx="9.5" cy="9.5" r="9.5" style="stroke:none"/>
            <circle cx="9.5" cy="9.5" r="10.5" style="fill:none"/>
        </g>
        <g id="Group_10208" data-name="Group 10208" transform="translate(-.408 -.408)">
            <path id="Line_389" data-name="Line 389" class="cls-5" transform="rotate(-6.02 10024.853 -1359.591)" d="m0 0 6.602 8.253"/>
            <path id="Line_390" data-name="Line 390" class="cls-5" transform="rotate(83.98 -477.56 636.465)" d="m0 0 6.602 8.253"/>
        </g>
    </g>
</svg>
