<svg xmlns="http://www.w3.org/2000/svg" width="15.337" height="19.011">
    <g data-name="03 bell">
        <path data-name="Path 17575" d="m19.709 16.78-1.344-2.2V9.39a6.047 6.047 0 0 0-5.375-6.006v-.712a.672.672 0 1 0-1.344 0v.712A6.047 6.047 0 0 0 6.272 9.39v5.187l-1.31 2.2A1.344 1.344 0 0 0 6.118 18.8H10.3a2.016 2.016 0 0 0 4.031 0h4.189a1.344 1.344 0 0 0 1.189-2.016zm-7.39 2.687a.672.672 0 0 1-.672-.672h1.344a.672.672 0 0 1-.672.673zm-6.2-2.016 1.3-2.183a1.344 1.344 0 0 0 .195-.672V9.39a4.7 4.7 0 0 1 9.406 0v5.187a1.344 1.344 0 0 0 .195.672l1.31 2.2z" style="fill:#acb0c2;stroke:#acb0c2;stroke-width:.2px" transform="translate(-4.667 -1.9)"/>
    </g>
</svg>
