<svg xmlns="http://www.w3.org/2000/svg" width="17.897" height="17.77">
    <defs>
        <style>
            .cls-1{fill:#63a3f6}
        </style>
    </defs>
    <g id="Group_10574" data-name="Group 10574" transform="translate(-805.312 -786)">
        <g id="Group_9727" data-name="Group 9727" transform="translate(-12025.178 -2122.992)">
            <path id="Path_17594" data-name="Path 17594" class="cls-1" d="M35.345 17.511a4.1 4.1 0 1 0-4.1-4.093 4.1 4.1 0 0 0 4.1 4.093z" transform="translate(12801.81 2899.68)"/>
            <path id="Path_17595" data-name="Path 17595" class="cls-1" d="M21.237 59.722h9.829a1.747 1.747 0 0 0 1.747-1.747v-.4a6.664 6.664 0 0 0-13.324 0v.4a1.747 1.747 0 0 0 1.748 1.747z" transform="translate(12811 2867.041)"/>
        </g>
        <g id="Group_10186" data-name="Group 10186" transform="rotate(-16 3197.517 -2497.146)">
            <path id="Path_17585" data-name="Path 17585" class="cls-1" d="M8.824 6.383 6.67 4.217a.354.354 0 0 0-.246-.111L4.394 4A.372.372 0 0 0 4 4.34v.049l.123 2.018a.35.35 0 0 0 .111.234l2.141 2.166a.354.354 0 0 0 .258.111.335.335 0 0 0 .258-.111L8.812 6.9a.368.368 0 0 0 .012-.517zm-2.757-.32a.5.5 0 1 1 0-.7.49.49 0 0 1 0 .7z"/>
        </g>
    </g>
</svg>
