<svg id="Group_9667" data-name="Group 9667" xmlns="http://www.w3.org/2000/svg" width="18.677" height="17.138">
    <defs>
        <style>
            .cls-1{fill:#77b2ff}
        </style>
    </defs>
    <g id="Group_9307" data-name="Group 9307">
        <path id="Path_17107" data-name="Path 17107" class="cls-1" d="M15.827 0H2.849A2.855 2.855 0 0 0 0 2.849v11.439a2.855 2.855 0 0 0 2.849 2.849h12.978a2.855 2.855 0 0 0 2.849-2.849V2.849A2.855 2.855 0 0 0 15.827 0zm0 1.9a.935.935 0 0 1 .95.95v1.775A3.729 3.729 0 0 1 14.052 1.9zM1.9 2.849a.935.935 0 0 1 .95-.95h1.775A3.729 3.729 0 0 1 1.9 4.625zm.95 12.389a.935.935 0 0 1-.95-.95v-1.776a3.729 3.729 0 0 1 2.725 2.725zm3.717 0A5.7 5.7 0 0 0 1.9 10.572V6.607A5.7 5.7 0 0 0 6.607 1.9h5.5a5.7 5.7 0 0 0 4.666 4.708v3.964a5.7 5.7 0 0 0-4.666 4.666zm10.211-.95a.935.935 0 0 1-.95.95h-1.776a3.8 3.8 0 0 1 2.725-2.725z"/>
        <path id="Path_17108" data-name="Path 17108" class="cls-1" d="M26.9 11.5a3.8 3.8 0 1 0 3.8 3.8 3.789 3.789 0 0 0-3.8-3.8zm0 5.74a1.9 1.9 0 0 1-1.9-1.9 1.921 1.921 0 0 1 1.9-1.9 1.9 1.9 0 0 1 1.9 1.9 1.9 1.9 0 0 1-1.9 1.9z" transform="translate(-17.561 -6.751)"/>
    </g>
</svg>
