<svg xmlns="http://www.w3.org/2000/svg" width="21.753" height="21.226">
    <defs>
        <style>
            .cls-1{fill:#cf7efe}
        </style>
    </defs>
    <g id="noun_write_3234477" transform="translate(-2.847 -97.818)">
        <path id="Path_17046" data-name="Path 17046" class="cls-1" d="M105.39 117.828v-8.247l-4.454 4.454c-.425.425-.835.869-1.276 1.276a.914.914 0 0 1-.687.151h-2.394a.521.521 0 0 1-.513-.513v-2.658a.633.633 0 0 1 .179-.451c.5-.518 1.02-1.02 1.527-1.527l2.837-2.837 2.734-2.734 1.22-1.22.005-.005.054-.054.769-.769v-3.76a1.069 1.069 0 0 0-.5-.976 2.134 2.134 0 0 0-1.064-.136H93.165A.525.525 0 0 0 92.8 98l-1.051 1.051-1.735 1.735L88.4 102.4l-.513.513a1.135 1.135 0 0 0-.267.31.705.705 0 0 0-.033.282v14.531a1.023 1.023 0 0 0 1.007 1.01c.195.005.39 0 .582 0H104.374a1.021 1.021 0 0 0 1.017-.969c.004-.085-.001-.167-.001-.249zm-11.868-14.459a.391.391 0 0 1-.384.384h-3.4a.369.369 0 0 1-.177-.044.441.441 0 0 1-.09-.064.366.366 0 0 1-.105-.213v-.005a.384.384 0 0 1-.005-.056.335.335 0 0 1 .064-.21.35.35 0 0 1 .049-.059c.141-.141.282-.279.42-.42l1.832-1.832c.384-.382.766-.766 1.148-1.148a.388.388 0 0 1 .656.272v3.4z" transform="translate(-84.744)"/>
        <path id="Path_17047" data-name="Path 17047" class="cls-1" d="m468.231 364.789-.466.466-1.066 1.066-.22.22-.164.164-.346.346-.038.038c-.051.051-.105.105-.156.159l-2.412 2.412-2.086 2.086c-.295.295-.6.582-.889.882H458.4v-1.994l.679-.679 1.994-1.994 2.412-2.412 2.086-2.086c.118-.118.241-.236.361-.354.105-.1.21-.205.315-.31l.069.069.384.384c.508.514 1.018 1.024 1.531 1.537z" transform="translate(-446.05 -258.191)"/>
        <path id="Path_17048" data-name="Path 17048" class="cls-1" d="M796.091 270.089v.064c0 .02-.01.067-.021.1a.139.139 0 0 1-.01.018c-.018.031-.033.064-.051.095l-.026.033a.2.2 0 0 1-.033.033l-1.553 1.553-1.994-1.994 1.425-1.425.113-.113.013-.013a.44.44 0 0 1 .036-.036c.038-.026.105-.046.144-.077a.463.463 0 0 1 .056-.015.453.453 0 0 0 .051-.01h.126c.023.005.046.013.051.013a.577.577 0 0 1 .062.021.85.85 0 0 1 .105.059c.008.005.023.021.033.028l.005.005.021.02c.318.31.63.63.943.943.12.12.241.238.359.359 0 .005.023.023.036.038-.015-.021-.031-.049.008.008l-.008-.008.01.013.038.062c.013.02.033.1.031.067v.005a.717.717 0 0 1 .018.072c.004.025.012.061.012.082z" transform="translate(-771.49 -166.113)"/>
    </g>
</svg>
