<svg width="19" height="13" viewBox="0 0 19 13" fill="none" xmlns="http://www.w3.org/2000/svg">
<path d="M18.9174 6.16271C18.0373 4.39685 16.7014 2.89558 15.0464 1.81268C13.3914 0.729776 11.4769 0.104186 9.49904 0C7.52161 0.105315 5.60776 0.731375 3.95319 1.81416C2.29861 2.89695 0.96267 4.39761 0.0819684 6.16271C0.0280993 6.26706 0 6.38268 0 6.5C0 6.61732 0.0280993 6.73294 0.0819684 6.83729C0.96203 8.60314 2.29798 10.1044 3.95296 11.1873C5.60793 12.2702 7.52243 12.8958 9.50032 13C14.1776 13 17.6255 9.34633 18.9187 6.83729C18.9723 6.73284 19.0002 6.61716 19 6.49985C18.9998 6.38253 18.9715 6.26696 18.9174 6.16271ZM9.49904 11.5225C7.85996 11.428 6.27264 10.9166 4.88894 10.0371C3.50523 9.15765 2.37142 7.93956 1.59595 6.49936C2.37178 5.05957 3.50571 3.84186 4.88936 2.96264C6.27302 2.08342 7.86014 1.57207 9.49904 1.47747C11.0217 1.50237 12.5078 1.94553 13.7933 2.75804C15.2784 3.70195 16.5157 4.98505 17.4021 6.50064C16.626 7.94028 15.492 9.15791 14.1084 10.0373C12.7249 10.9167 11.1379 11.4285 9.49904 11.5238V11.5225ZM9.49904 2.8711C8.77813 2.87161 8.07355 3.08479 7.47437 3.48372C6.87518 3.88265 6.40828 4.44941 6.13269 5.11236C5.8571 5.7753 5.78519 6.50468 5.92605 7.20829C6.06691 7.9119 6.41422 8.55816 6.92407 9.06538C7.43392 9.5726 8.08342 9.91801 8.79049 10.0579C9.49755 10.1979 10.2304 10.1261 10.8965 9.85156C11.5626 9.57707 12.1319 9.11222 12.5325 8.51578C12.9332 7.91934 13.1472 7.21808 13.1474 6.50064C13.1467 5.53801 12.7621 4.61502 12.078 3.93446C11.3939 3.2539 10.4663 2.87144 9.49904 2.8711ZM9.49904 8.65142C9.0716 8.65142 8.65376 8.52528 8.29835 8.28895C7.94294 8.05262 7.66594 7.71671 7.50236 7.32371C7.33879 6.9307 7.29599 6.49825 7.37938 6.08104C7.46277 5.66383 7.6686 5.28059 7.97085 4.9798C8.2731 4.67901 8.65819 4.47416 9.07741 4.39118C9.49664 4.30819 9.93119 4.35078 10.3261 4.51357C10.721 4.67635 11.0585 4.95203 11.296 5.30572C11.5335 5.65942 11.6602 6.07525 11.6602 6.50064C11.6579 7.07034 11.4294 7.61604 11.0246 8.01888C10.6198 8.42173 10.0715 8.64908 9.49904 8.65142Z" fill="#A3ACC6"/>
</svg>
