<svg xmlns="http://www.w3.org/2000/svg" width="17.452" height="17.702">
    <defs>
        <style>
            .cls-2{fill:#4f8aff}
        </style>
    </defs>
    <g id="Group_9124" data-name="Group 9124" style="opacity:.81">
        <path id="Rectangle_2747" data-name="Rectangle 2747" class="cls-2" transform="translate(2.554 3.702)" d="M0 0h12v13H0z"/>
        <path id="Path_16954" data-name="Path 16954" d="M146.4 105.3v1.308h-7.74V105.3h-4.86v16.733h17.452V105.3zm-6.9 5.934a1.215 1.215 0 1 1-1.278 1.213 1.249 1.249 0 0 1 1.278-1.213zm1.68 6.381a8.569 8.569 0 0 1-2.972 1.619l-.1-.377-.008-.027-.1-.35a7.973 7.973 0 0 0 2.692-1.5 14.155 14.155 0 0 0 4.3-6.355l-.928.4-.34-.708 2.151-.931.981 2.041-.744.323-.377-.783a17.144 17.144 0 0 1-2.022 3.923 12.855 12.855 0 0 1-2.534 2.724zm5.963.546-.58.548-.641-.609-.641.609-.58-.55.641-.609-.641-.609.58-.55.641.609.641-.609.58.55-.641.609z" transform="translate(-133.8 -104.331)" style="fill:#d1e1ff"/>
        <path id="Path_16955" data-name="Path 16955" class="cls-2" d="M359.61 58.332v1.4h-6.51v-1.4a.333.333 0 0 1 .332-.332h5.847a.332.332 0 0 1 .331.332z" transform="translate(-347.628 -58)"/>
    </g>
</svg>
