<svg width="4" height="20" viewBox="0 0 4 20" fill="none" xmlns="http://www.w3.org/2000/svg">
<path d="M1.91968 3.83951C2.9799 3.83951 3.83937 2.98001 3.83937 1.91976C3.83937 0.859505 2.9799 0 1.91968 0C0.859472 0 0 0.859505 0 1.91976C0 2.98001 0.859472 3.83951 1.91968 3.83951Z" fill="#0A66C2"/>
<path d="M1.91968 11.5185C2.9799 11.5185 3.83937 10.659 3.83937 9.59877C3.83937 8.53852 2.9799 7.67902 1.91968 7.67902C0.859472 7.67902 0 8.53852 0 9.59877C0 10.659 0.859472 11.5185 1.91968 11.5185Z" fill="#0A66C2"/>
<path d="M1.91968 19.1975C2.9799 19.1975 3.83937 18.338 3.83937 17.2778C3.83937 16.2175 2.9799 15.358 1.91968 15.358C0.859472 15.358 0 16.2175 0 17.2778C0 18.338 0.859472 19.1975 1.91968 19.1975Z" fill="#0A66C2"/>
</svg>
