<svg xmlns="http://www.w3.org/2000/svg" width="18" height="17.904">
    <defs>
        <style>
            .cls-1{fill:#77b2ff}
        </style>
    </defs>
    <g id="Group_9713" data-name="Group 9713" transform="translate(-2639.457 -1888)">
        <g id="Group_9727" data-name="Group 9727" transform="translate(2639.457 1888)">
            <g id="Group_9714" data-name="Group 9714" transform="translate(15.27 11.701)">
                <g id="Group_9713-2" data-name="Group 9713">
                    <path id="Path_17417" data-name="Path 17417" class="cls-1" d="M838.431 655.6h-.991a.871.871 0 0 0-.869.869.872.872 0 0 0 .255.614.9.9 0 0 0 .614.255h.991a.87.87 0 0 0 .869-.869.871.871 0 0 0-.255-.614.9.9 0 0 0-.614-.255z" transform="translate(-836.57 -655.6)"/>
                </g>
            </g>
            <g id="Group_9716" data-name="Group 9716" transform="translate(0 11.701)">
                <g id="Group_9715" data-name="Group 9715">
                    <path id="Path_17418" data-name="Path 17418" class="cls-1" d="M47.831 655.6h-.991a.871.871 0 0 0-.869.869.871.871 0 0 0 .255.614.9.9 0 0 0 .614.255h.991a.871.871 0 0 0 .869-.869.871.871 0 0 0-.255-.614.9.9 0 0 0-.614-.255z" transform="translate(-45.97 -655.6)"/>
                </g>
            </g>
            <g id="Group_9718" data-name="Group 9718" transform="translate(2.849 7.653)">
                <g id="Group_9717" data-name="Group 9717">
                    <path id="Path_17419" data-name="Path 17419" class="cls-1" d="M205.8 450.917a4.931 4.931 0 0 0-1.624-3.65A4.91 4.91 0 0 0 200.81 446h-2.159a6.427 6.427 0 0 0-1.275.112 4.637 4.637 0 0 0-1.771.775 4.874 4.874 0 0 0-2.08 3.575 4.044 4.044 0 0 0-.025.458.869.869 0 0 0 1.738 0 4.157 4.157 0 0 1 .035-.537l-.031.232a4.108 4.108 0 0 1 .278-1.027l-.087.207a4.118 4.118 0 0 1 .523-.9l-.135.176a4.17 4.17 0 0 1 .749-.749l-.176.135a4.2 4.2 0 0 1 .9-.523l-.207.087a4.13 4.13 0 0 1 1.028-.278l-.232.031a10.054 10.054 0 0 1 1.3-.035h1.532a5.421 5.421 0 0 1 .709.035l-.232-.031a4.108 4.108 0 0 1 1.028.278l-.207-.087a4.115 4.115 0 0 1 .9.523l-.176-.135a4.169 4.169 0 0 1 .749.749l-.135-.176a4.2 4.2 0 0 1 .523.9l-.087-.207a4.132 4.132 0 0 1 .278 1.027l-.031-.232a4.157 4.157 0 0 1 .035.537.87.87 0 0 0 .869.869.872.872 0 0 0 .614-.255.937.937 0 0 0 .249-.616z" transform="translate(-193.5 -446)"/>
                </g>
            </g>
            <g id="Group_9720" data-name="Group 9720" transform="translate(5.515)">
                <g id="Group_9719" data-name="Group 9719">
                    <path id="Path_17420" data-name="Path 17420" class="cls-1" d="M338.481 53.258a3.437 3.437 0 0 0-.606-1.958 4.17 4.17 0 0 0-.379-.467 3.809 3.809 0 0 0-.467-.4 3.445 3.445 0 0 0-.9-.467 3.378 3.378 0 0 0-1.026-.189 3.459 3.459 0 0 0-2.748 1.213 4.174 4.174 0 0 0-.353.487 3.846 3.846 0 0 0-.259.549 3.426 3.426 0 0 0-.22 1.014 3.465 3.465 0 0 0 1.964 3.349 4.075 4.075 0 0 0 .57.218 4.155 4.155 0 0 0 .616.108 3.406 3.406 0 0 0 1.056-.06 3.355 3.355 0 0 0 .968-.365 3.473 3.473 0 0 0 1.719-2.407 4 4 0 0 0 .062-.628.869.869 0 0 0-1.738 0 2.629 2.629 0 0 1-.023.348l.031-.232a2.729 2.729 0 0 1-.185.674l.087-.207a2.7 2.7 0 0 1-.332.568l.135-.176a2.763 2.763 0 0 1-.481.481l.176-.135a2.7 2.7 0 0 1-.568.332l.207-.087a2.729 2.729 0 0 1-.674.185l.232-.031a2.792 2.792 0 0 1-.7 0l.232.031a2.729 2.729 0 0 1-.674-.185l.207.087a2.7 2.7 0 0 1-.568-.332l.176.135a2.764 2.764 0 0 1-.481-.481l.135.176a2.7 2.7 0 0 1-.332-.568l.087.207a2.726 2.726 0 0 1-.185-.674l.031.232a2.79 2.79 0 0 1 0-.7l-.031.232a2.726 2.726 0 0 1 .185-.674l-.087.207a2.7 2.7 0 0 1 .332-.568l-.135.176a2.763 2.763 0 0 1 .481-.481l-.176.135a2.7 2.7 0 0 1 .568-.332l-.207.087a2.729 2.729 0 0 1 .674-.185l-.232.031a2.792 2.792 0 0 1 .7 0l-.232-.031a2.729 2.729 0 0 1 .674.185l-.207-.087a2.7 2.7 0 0 1 .568.332l-.176-.135a2.762 2.762 0 0 1 .481.481l-.135-.176a2.7 2.7 0 0 1 .332.568l-.087-.207a2.729 2.729 0 0 1 .185.674l-.031-.232a2.629 2.629 0 0 1 .023.348.9.9 0 0 0 .255.614.883.883 0 0 0 .614.255.872.872 0 0 0 .614-.255.892.892 0 0 0 .258-.607z" transform="translate(-331.517 -49.777)"/>
                </g>
            </g>
            <g id="Group_9722" data-name="Group 9722" transform="translate(.993 11.7)">
                <g id="Group_9721" data-name="Group 9721">
                    <path id="Path_17421" data-name="Path 17421" class="cls-1" d="M111.677 656.426v4.464l.869-.869H98.269l.869.869v-4.464l-.869.869h14.277a.87.87 0 0 0 .869-.869.871.871 0 0 0-.255-.614.9.9 0 0 0-.614-.255H98.269a.882.882 0 0 0-.869.869v4.464a.882.882 0 0 0 .869.869h14.277a.882.882 0 0 0 .869-.869v-4.464a.87.87 0 0 0-.869-.869.871.871 0 0 0-.614.255.9.9 0 0 0-.255.614z" transform="translate(-97.4 -655.556)"/>
                </g>
            </g>
            <g id="Group_9724" data-name="Group 9724" transform="translate(12.212 4.858)">
                <g id="Group_9723" data-name="Group 9723">
                    <path id="Path_17422" data-name="Path 17422" class="cls-1" d="M679.73 302.9a1 1 0 0 1-.008.106l.031-.232a.767.767 0 0 1-.048.174l.087-.207a.793.793 0 0 1-.1.174l.135-.176a.742.742 0 0 1-.124.124l.176-.135a.876.876 0 0 1-.174.1l.207-.087a.777.777 0 0 1-.174.048l.232-.031a.783.783 0 0 1-.212 0l.232.031a.777.777 0 0 1-.174-.048l.207.087a.791.791 0 0 1-.174-.1l.176.135a.752.752 0 0 1-.124-.124l.135.176a.866.866 0 0 1-.1-.174l.087.207a.78.78 0 0 1-.048-.174l.031.232a.784.784 0 0 1 0-.212l-.031.232a.779.779 0 0 1 .048-.174l-.087.207a.783.783 0 0 1 .1-.174l-.135.176a.754.754 0 0 1 .124-.124l-.176.135a.876.876 0 0 1 .174-.1l-.207.087a.771.771 0 0 1 .174-.048l-.232.031a.778.778 0 0 1 .212 0l-.232-.031a.771.771 0 0 1 .174.048l-.207-.087a.791.791 0 0 1 .174.1l-.176-.135a.744.744 0 0 1 .124.124l-.135-.176a.878.878 0 0 1 .1.174l-.087-.207a.766.766 0 0 1 .048.174l-.031-.232a.634.634 0 0 1 .008.106.9.9 0 0 0 .255.614.883.883 0 0 0 .614.255.871.871 0 0 0 .614-.255.892.892 0 0 0 .255-.614 1.594 1.594 0 0 0-.261-.873 1.7 1.7 0 0 0-.856-.655 1.6 1.6 0 0 0-1.916.809 1.752 1.752 0 0 0-.17.651 1.531 1.531 0 0 0 .216.875 1.566 1.566 0 0 0 .643.61 1.706 1.706 0 0 0 1.1.141 1.562 1.562 0 0 0 .813-.473 1.672 1.672 0 0 0 .427-1.087.87.87 0 1 0-1.74 0z" transform="translate(-678.262 -301.294)"/>
                </g>
            </g>
            <g id="Group_9726" data-name="Group 9726" transform="translate(13.468 6.098)">
                <g id="Group_9725" data-name="Group 9725">
                    <path id="Path_17423" data-name="Path 17423" class="cls-1" d="M746.811 371.972V369.2c0-.342.008-.686 0-1.029a1.133 1.133 0 0 0-.454-.817l-.566-.566-1.037-1.037a.9.9 0 0 0-.614-.255.871.871 0 0 0-.869.869.9.9 0 0 0 .255.614l1.574 1.574.228.228-.255-.614v3.8a.87.87 0 0 0 .869.869.872.872 0 0 0 .614-.255.884.884 0 0 0 .255-.61z" transform="translate(-743.27 -365.5)"/>
                </g>
            </g>
        </g>
    </g>
</svg>
