<svg xmlns="http://www.w3.org/2000/svg" width="21.667" height="15.024">
    <defs>
        <style>
            .cls-1{fill:#acb0c2}
        </style>
    </defs>
    <g id="Group_10590" data-name="Group 10590" transform="translate(-3.9 -18)">
        <g id="Group_10590-2" data-name="Group 10590" transform="translate(11.06 18)">
            <path id="Path_17871" data-name="Path 17871" class="cls-1" d="M38.062 25.324a3.662 3.662 0 1 1 3.662-3.662 3.667 3.667 0 0 1-3.662 3.662zm0-5.916a2.254 2.254 0 1 0 2.254 2.254 2.254 2.254 0 0 0-2.254-2.254z" transform="translate(-34.4 -18)"/>
        </g>
        <g id="Group_10596" data-name="Group 10596" transform="translate(3.9 20.254)">
            <g id="Group_10591" data-name="Group 10591" transform="translate(14.977)">
                <path id="Path_17872" data-name="Path 17872" class="cls-1" d="M70.376 32.952a2.676 2.676 0 1 1 2.676-2.676 2.675 2.675 0 0 1-2.676 2.676zm0-3.944a1.268 1.268 0 1 0 1.268 1.268 1.262 1.262 0 0 0-1.268-1.268z" transform="translate(-67.7 -27.6)"/>
            </g>
            <g id="Group_10592" data-name="Group 10592" transform="translate(1.315)">
                <path id="Path_17873" data-name="Path 17873" class="cls-1" d="M12.176 32.952a2.676 2.676 0 1 1 2.676-2.676 2.675 2.675 0 0 1-2.676 2.676zm0-3.944a1.268 1.268 0 1 0 1.268 1.268 1.262 1.262 0 0 0-1.268-1.268z" transform="translate(-9.5 -27.6)"/>
            </g>
            <g id="Group_10595" data-name="Group 10595" transform="translate(0 3.967)">
                <g id="Group_10593" data-name="Group 10593" transform="translate(13.944)">
                    <path id="Path_17874" data-name="Path 17874" class="cls-1" d="M67.032 51.073a14.322 14.322 0 0 1-2.066-.117l-.587-.094v-.681a4.674 4.674 0 0 0-.845-2.653l-.235-.352.188-.376a4.048 4.048 0 0 1 3.521-2.3 4.216 4.216 0 0 1 4.014 4.225c.001 2.348-2.206 2.348-3.99 2.348zm-1.268-1.455c.4.023.845.047 1.268.047 2.371 0 2.582-.235 2.582-.939a2.824 2.824 0 0 0-2.606-2.817 2.547 2.547 0 0 0-2.066 1.174 5.973 5.973 0 0 1 .823 2.534z" transform="translate(-63.3 -44.5)"/>
                </g>
                <g id="Group_10594" data-name="Group 10594">
                    <path id="Path_17875" data-name="Path 17875" class="cls-1" d="M7.891 51.073c-1.784 0-3.991 0-3.991-2.347A4.164 4.164 0 0 1 7.891 44.5a4.032 4.032 0 0 1 3.521 2.3l.188.376-.235.352a4.674 4.674 0 0 0-.822 2.653v.7l-.587.07a14.322 14.322 0 0 1-2.065.122zm0-5.164a2.77 2.77 0 0 0-2.582 2.817c0 .7.211.939 2.582.939a11.652 11.652 0 0 0 1.268-.047 6.277 6.277 0 0 1 .8-2.535 2.547 2.547 0 0 0-2.068-1.175z" transform="translate(-3.9 -44.5)"/>
                </g>
            </g>
        </g>
        <g id="Group_10597" data-name="Group 10597" transform="translate(9.111 23.916)">
            <path id="Path_17876" data-name="Path 17876" class="cls-1" d="M31.71 52.308c-2.629 0-5.61 0-5.61-3.146a5.86 5.86 0 0 1 5.61-5.962 5.86 5.86 0 0 1 5.61 5.962c.001 3.146-2.981 3.146-5.61 3.146zm0-7.7a4.515 4.515 0 0 0-4.2 4.554c0 1.432.751 1.737 4.2 1.737s4.2-.305 4.2-1.737a4.515 4.515 0 0 0-4.2-4.554z" transform="translate(-26.1 -43.2)"/>
        </g>
    </g>
</svg>
