<svg xmlns="http://www.w3.org/2000/svg" width="17.83" height="17.718">
    <g data-name="Group 10598">
        <path data-name="Path 17877" d="M5.2 10.862a2.1 2.1 0 1 0 2.1 2.1v-.073l2.791-.985a2.915 2.915 0 0 0 1.022.73l-.493 1.9h-.036a2.128 2.128 0 1 0 1.095.31l.511-2.007a2.864 2.864 0 0 0 1.66-.584l2.791 2.882a2.118 2.118 0 1 0 2.864-.876 2.136 2.136 0 0 0-2.116.073l-2.809-2.919a2.788 2.788 0 0 0 .109-2.572l2.39-1.824a2.112 2.112 0 1 0-.784-2.882 2.147 2.147 0 0 0 0 2.1l-2.268 1.726a2.786 2.786 0 0 0-3.576-.146L7.2 4.531a2.095 2.095 0 1 0-3.589-2.152 2.076 2.076 0 0 0 .711 2.864A2.113 2.113 0 0 0 6.4 5.3l3.32 3.357a2.745 2.745 0 0 0-.219 2.3l-2.536.894a2.122 2.122 0 0 0-1.765-.989zm5.382 6.768a1 1 0 1 1 1-1 1.037 1.037 0 0 1-1.003 1zm7.9-2.517a1 1 0 1 1-1 1 1.037 1.037 0 0 1 .997-1.001zM18.114 4.2a1.013 1.013 0 1 1 0-.018zm-5.966 4.126a1.688 1.688 0 1 1-.018 0zM4.377 3.455a1 1 0 1 1 1 1 1.037 1.037 0 0 1-1-1zM5.2 13.981a1 1 0 1 1 1-1.022 1.012 1.012 0 0 1-1 1.022z" style="fill:#acb0c2;stroke:#acb0c2;stroke-width:.3px" transform="translate(-2.95 -1.193)"/>
    </g>
</svg>
