<svg xmlns="http://www.w3.org/2000/svg" width="18.206" height="18.212">
    <g data-name="Group 9731">
        <path data-name="Path 17426" d="M102.373 216.69h1.067c.3.038.611.066.914.116a9.129 9.129 0 0 1 7.608 9.906 8.687 8.687 0 0 1-2.223 5.089 8.916 8.916 0 0 1-6.45 3.09 8.659 8.659 0 0 1-5.023-1.269 8.973 8.973 0 0 1-4.324-6.258c-.064-.341-.1-.689-.142-1.034v-1.067l.044-.384a9.134 9.134 0 0 1 7.494-8.047c.342-.061.69-.095 1.035-.142zm5.627 3.079a7.889 7.889 0 0 0-5.373-1.863 7.716 7.716 0 0 1-1.761 4.955l2.03 2.041zM96.886 230.9l5.083-5.111-1.994-2.006a7.567 7.567 0 0 1-4.964 1.891 7.921 7.921 0 0 0 1.875 5.226zm12.005-10.212-5.076 5.1 1.519 1.537a7.7 7.7 0 0 1 5.444-1.729 7.786 7.786 0 0 0-1.887-4.913zm-4.485 7.536-1.536-1.551-5.093 5.122a7.855 7.855 0 0 0 4.769 1.888 7.64 7.64 0 0 1 1.86-5.464zm.877.842a6.429 6.429 0 0 0-1.519 4.58 7.875 7.875 0 0 0 4.251-1.833zm5.452-2.258a6.457 6.457 0 0 0-4.523 1.366l2.712 2.729a7.893 7.893 0 0 0 1.81-4.103zm-11.63-3.88-2.21-2.228a7.565 7.565 0 0 0-1.737 3.746 6.332 6.332 0 0 0 3.942-1.522zm.883-.913a6.478 6.478 0 0 0 1.419-3.961 7.855 7.855 0 0 0-3.622 1.749z" transform="translate(-93.8 -216.69)" style="fill:#77b2ff"/>
    </g>
</svg>
