<svg xmlns="http://www.w3.org/2000/svg" width="13.968" height="12.862">
    <defs>
        <style>
            .cls-1{fill:#949ab2}
        </style>
    </defs>
    <g id="Group_9216" data-name="Group 9216" transform="translate(-93 -410)">
        <g id="Group_9127" data-name="Group 9127" transform="translate(93 412.126)">
            <g id="Group_9126" data-name="Group 9126">
                <path id="Path_16956" data-name="Path 16956" class="cls-1" d="M62.983 228.158v8.685c.006-.047.012-.094.02-.141a.544.544 0 0 1-.036.138 6.84 6.84 0 0 0 .053-.127.68.68 0 0 1-.07.121l.083-.107a.67.67 0 0 1-.1.1l.107-.083a.535.535 0 0 1-.121.07l.127-.053a.637.637 0 0 1-.138.036c.047-.006.094-.012.141-.02-.121.012-.246 0-.367 0H51.073c.047.006.094.012.141.02a.544.544 0 0 1-.138-.036l.127.053a.68.68 0 0 1-.121-.07l.107.083a.67.67 0 0 1-.1-.1l.083.107a.534.534 0 0 1-.07-.121l.053.127a.638.638 0 0 1-.036-.138c.006.047.012.094.02.141-.009-.094 0-.189 0-.283v-8.467c-.006.047-.012.094-.02.141a.544.544 0 0 1 .036-.138 6.84 6.84 0 0 0-.053.127.68.68 0 0 1 .07-.121 3.868 3.868 0 0 1-.083.107.67.67 0 0 1 .1-.1l-.107.083a.535.535 0 0 1 .121-.07 6.84 6.84 0 0 1-.127.053.639.639 0 0 1 .138-.036c-.047.006-.094.012-.141.02.121-.012.246 0 .367 0h11.609c-.047-.006-.094-.012-.141-.02a.544.544 0 0 1 .138.036 6.84 6.84 0 0 0-.127-.053.68.68 0 0 1 .121.07l-.107-.083a.67.67 0 0 1 .1.1 3.868 3.868 0 0 0-.083-.107.534.534 0 0 1 .07.121 6.84 6.84 0 0 1-.053-.127.638.638 0 0 1 .036.138c-.006-.047-.012-.094-.02-.141v.06a.529.529 0 0 0 1.058 0 1.076 1.076 0 0 0-1.06-1.058H51.156a1.1 1.1 0 0 0-.756.3 1.076 1.076 0 0 0-.325.788V236.819a1.1 1.1 0 0 0 .469.835 1.04 1.04 0 0 0 .59.181h11.831a1.077 1.077 0 0 0 .782-.325 1.1 1.1 0 0 0 .3-.763v-8.592a.536.536 0 0 0-.529-.529.544.544 0 0 0-.535.532z" transform="translate(-50.075 -227.1)"/>
            </g>
        </g>
        <g id="Group_9129" data-name="Group 9129" transform="translate(98.309 414.772)">
            <g id="Group_9128" data-name="Group 9128">
                <path id="Path_16957" data-name="Path 16957" class="cls-1" d="M403.556 402.771v1.529c.006-.047.012-.094.02-.141a.109.109 0 0 1-.011.036 6.84 6.84 0 0 0 .053-.127.109.109 0 0 1-.018.032l.083-.107a.2.2 0 0 1-.026.026l.107-.083a.108.108 0 0 1-.032.018 6.84 6.84 0 0 1 .127-.053l-.036.011.141-.02c-.23.015-.464 0-.694 0h-1.347c.047.006.094.012.141.02a.11.11 0 0 1-.036-.011l.127.053a.107.107 0 0 1-.032-.018l.107.083a.209.209 0 0 1-.026-.026l.083.107a.108.108 0 0 1-.018-.032l.053.127a.325.325 0 0 1-.011-.036c.006.047.012.094.02.141-.012-.172 0-.349 0-.522v-1.024c-.006.047-.012.094-.02.141a.11.11 0 0 1 .011-.036 6.84 6.84 0 0 0-.053.127.108.108 0 0 1 .018-.032 3.868 3.868 0 0 1-.083.107.209.209 0 0 1 .026-.026l-.107.083a.109.109 0 0 1 .032-.018l-.127.053.036-.011-.141.02c.23-.015.464 0 .694 0h1.343c-.047-.006-.094-.012-.141-.02a.11.11 0 0 1 .036.011 6.84 6.84 0 0 0-.127-.053.109.109 0 0 1 .032.018l-.107-.083a.2.2 0 0 1 .026.026 3.868 3.868 0 0 0-.083-.107.109.109 0 0 1 .018.032 6.84 6.84 0 0 1-.053-.127.326.326 0 0 1 .011.036c-.006-.047-.012-.094-.02-.141a.087.087 0 0 0 0 .02.556.556 0 0 0 .156.373.542.542 0 0 0 .373.156.536.536 0 0 0 .529-.529.7.7 0 0 0-.2-.475.69.69 0 0 0-.475-.2h-1.887a.78.78 0 0 0-.584.19.692.692 0 0 0-.2.5v1.474a.687.687 0 0 0 .688.688H403.284c.218 0 .435.008.653 0a.687.687 0 0 0 .673-.673V402.771a.529.529 0 0 0-1.058 0z" transform="translate(-401.267 -402.1)"/>
            </g>
        </g>
        <g id="Group_9131" data-name="Group 9131" transform="translate(93.001 412.126)">
            <g id="Group_9130" data-name="Group 9130">
                <path id="Path_16958" data-name="Path 16958" class="cls-1" d="M63.063 228.111v.644a5.641 5.641 0 0 1-.017.715c.006-.047.012-.094.02-.141a1.991 1.991 0 0 1-.135.491 6.84 6.84 0 0 0 .053-.127 2.039 2.039 0 0 1-.252.429l.083-.107a2.031 2.031 0 0 1-.337.337l.107-.083a1.918 1.918 0 0 1-.429.252l.127-.053a1.974 1.974 0 0 1-.491.135l.141-.02a4.017 4.017 0 0 1-.5.017h-3.152l.529.529v-.379a2.014 2.014 0 0 0-.024-.514.682.682 0 0 0-.65-.493h-1.874a.861.861 0 0 0-.466.092.7.7 0 0 0-.333.612v.683l.529-.529h-3.069a4.644 4.644 0 0 1-.581-.017c.047.006.094.012.141.02a1.992 1.992 0 0 1-.491-.135l.127.053a2.04 2.04 0 0 1-.429-.252l.107.083a2.031 2.031 0 0 1-.337-.337l.083.107a1.918 1.918 0 0 1-.252-.429l.053.127a1.973 1.973 0 0 1-.135-.491c.006.047.012.094.02.141a6.01 6.01 0 0 1-.017-.738v-.433a2.233 2.233 0 0 1 0-.246c-.006.047-.012.094-.02.141a.6.6 0 0 1 .03-.116 6.84 6.84 0 0 0-.053.127.57.57 0 0 1 .068-.118 3.868 3.868 0 0 1-.083.107.616.616 0 0 1 .083-.083l-.107.083a.543.543 0 0 1 .118-.068 6.84 6.84 0 0 1-.127.053.6.6 0 0 1 .116-.03c-.047.006-.094.012-.141.02a3.336 3.336 0 0 1 .369 0H63.09a.7.7 0 0 1 .079 0c-.047-.006-.094-.012-.141-.02a.6.6 0 0 1 .116.03 6.84 6.84 0 0 0-.127-.053.571.571 0 0 1 .118.068l-.107-.083a.616.616 0 0 1 .083.083 3.868 3.868 0 0 0-.083-.107.543.543 0 0 1 .068.118 6.84 6.84 0 0 1-.053-.127.6.6 0 0 1 .03.116c-.006-.047-.012-.094-.02-.141a.2.2 0 0 1 .009.06.529.529 0 1 0 1.058 0 1.028 1.028 0 0 0-1.01-1.014h-11.9a1.167 1.167 0 0 0-.3.035 1.031 1.031 0 0 0-.75 1v1.063a2.461 2.461 0 0 0 .789 1.819 2.5 2.5 0 0 0 1.684.649h3.365a.537.537 0 0 0 .529-.529c0-.243-.015-.491 0-.735-.006.047-.012.094-.02.141a.11.11 0 0 1 .011-.036 6.84 6.84 0 0 0-.053.127.109.109 0 0 1 .018-.032 3.868 3.868 0 0 1-.083.107.2.2 0 0 1 .026-.026l-.107.083a.108.108 0 0 1 .032-.018 6.84 6.84 0 0 1-.127.053.325.325 0 0 1 .036-.011c-.047.006-.094.012-.141.02.23-.015.464 0 .694 0h1.347l-.141-.02a.11.11 0 0 1 .036.011 6.84 6.84 0 0 0-.127-.053.108.108 0 0 1 .032.018l-.107-.083a.2.2 0 0 1 .026.026 3.868 3.868 0 0 0-.083-.107.109.109 0 0 1 .018.032 6.84 6.84 0 0 1-.053-.127.33.33 0 0 1 .011.036c-.006-.047-.012-.094-.02-.141.017.243 0 .491 0 .735a.537.537 0 0 0 .529.529h2.644a8.06 8.06 0 0 0 1.178-.039 2.442 2.442 0 0 0 1.949-1.826 3.736 3.736 0 0 0 .07-.86v-.822a.529.529 0 0 0-1.058 0z" transform="translate(-50.156 -227.1)"/>
            </g>
        </g>
        <g id="Group_9133" data-name="Group 9133" transform="translate(97.223 410)">
            <g id="Group_9132" data-name="Group 9132">
                <path id="Path_16959" data-name="Path 16959" class="cls-1" d="M334.428 88.582h-4.446l.529.529v-1.525a2 2 0 0 1 0-.252c-.006.047-.012.094-.02.141a.54.54 0 0 1 .027-.1 6.84 6.84 0 0 0-.053.127.479.479 0 0 1 .05-.085 3.868 3.868 0 0 1-.083.107.432.432 0 0 1 .083-.083l-.107.083a.594.594 0 0 1 .085-.05 6.84 6.84 0 0 1-.127.053.541.541 0 0 1 .1-.027c-.047.006-.094.012-.141.02a3.367 3.367 0 0 1 .41 0h2.853a4.1 4.1 0 0 1 .491 0c-.047-.006-.094-.012-.141-.02a.542.542 0 0 1 .1.027 6.84 6.84 0 0 0-.127-.053.48.48 0 0 1 .085.05l-.107-.083a.433.433 0 0 1 .083.083 3.868 3.868 0 0 0-.083-.107.588.588 0 0 1 .05.085 6.84 6.84 0 0 1-.053-.127.54.54 0 0 1 .027.1c-.006-.047-.012-.094-.02-.141a1.621 1.621 0 0 1 0 .21v1.568a.529.529 0 1 0 1.058 0v-1.659a.989.989 0 0 0-.275-.721.974.974 0 0 0-.691-.275h-3.597a.954.954 0 0 0-.937.937c-.012.552 0 1.105 0 1.658v.059a.537.537 0 0 0 .529.529h4.446a.529.529 0 0 0 0-1.058z" transform="translate(-329.444 -86.456)"/>
            </g>
        </g>
    </g>
</svg>
