<svg width="20" height="20" viewBox="0 0 20 20" fill="none" xmlns="http://www.w3.org/2000/svg">
<path fill-rule="evenodd" clip-rule="evenodd" d="M9.99983 9.11766C10.9704 9.11766 11.8528 9.4706 12.4704 10C13.0881 10.5294 13.5292 11.3235 13.5292 12.2059C13.5292 13.6177 12.6469 14.8529 10.8822 15.2059V17.0588H9.11747V15.2059C7.35276 14.8529 6.64688 13.8824 6.47041 12.6471H8.32335C8.58806 13.1765 9.2057 13.5294 9.99981 13.5294C10.9704 13.5294 11.7645 12.9118 11.7645 12.2059C11.7645 11.5 10.9704 10.8824 9.99981 10.8824C9.02923 10.8824 8.14688 10.5294 7.52924 10C6.91159 9.4706 6.47041 8.67648 6.47041 7.79413C6.47041 6.29413 7.35276 5.14707 9.11747 4.79413V2.94119H10.8822V4.79413C12.6469 5.14707 13.3528 6.11766 13.5292 7.35295H11.6763C11.4116 6.82354 10.7939 6.4706 9.99983 6.4706C9.02925 6.4706 8.23512 7.08825 8.23512 7.79413C8.23512 8.50001 9.02923 9.11766 9.99983 9.11766ZM9.99983 0.294128C4.61748 0.294128 0.293945 4.61766 0.293945 10C0.293945 15.3824 4.61748 19.7059 9.99983 19.7059C15.3822 19.7059 19.7057 15.3824 19.7057 10C19.7057 4.61766 15.3822 0.294128 9.99983 0.294128Z" fill="#7F9EFB"/>
</svg>
