<?xml version="1.0" standalone="no"?>
<!DOCTYPE svg PUBLIC "-//W3C//DTD SVG 20010904//EN"
 "http://www.w3.org/TR/2001/REC-SVG-20010904/DTD/svg10.dtd">
<svg version="1.0" xmlns="http://www.w3.org/2000/svg"
 width="512.000000pt" height="512.000000pt" viewBox="0 0 512.000000 512.000000"
 preserveAspectRatio="xMidYMid meet">

<g transform="translate(0.000000,512.000000) scale(0.100000,-0.100000)"
fill="#acb0c2" stroke="none">
<path d="M2186 4800 c-332 -42 -618 -181 -851 -415 -207 -207 -335 -440 -397
-728 -33 -151 -32 -429 0 -576 77 -342 254 -631 517 -840 39 -31 71 -60 73
-64 1 -5 -46 -32 -105 -61 -463 -229 -835 -641 -1017 -1129 -78 -210 -134
-488 -116 -575 37 -171 262 -218 363 -76 22 32 31 61 42 144 68 484 326 898
725 1165 206 137 435 227 685 267 103 16 388 16 485 -1 250 -42 471 -128 666
-257 97 -64 122 -74 177 -74 91 1 175 68 196 158 14 58 4 109 -31 162 -28 41
-211 159 -342 221 -53 24 -95 47 -96 50 0 3 34 32 75 63 268 206 463 527 531
876 25 129 25 389 0 515 -118 599 -563 1046 -1156 1160 -101 19 -327 27 -424
15z m414 -430 c477 -122 803 -564 777 -1054 -14 -266 -118 -497 -309 -682
-136 -133 -279 -214 -466 -267 -66 -18 -103 -21 -257 -21 -166 0 -187 2 -270
27 -458 137 -755 531 -755 1001 0 281 100 519 304 721 172 172 327 250 596
299 64 12 297 -3 380 -24z"/>
<path d="M3560 1464 c-109 -47 -155 -173 -102 -279 8 -16 79 -95 158 -175
l144 -146 -150 -149 c-130 -130 -153 -157 -165 -199 -51 -171 128 -322 285
-240 14 7 90 78 170 158 l145 146 145 -144 c80 -79 161 -152 180 -162 43 -22
134 -23 175 -1 96 50 140 167 100 264 -10 22 -75 97 -163 185 l-146 148 146
148 c80 81 153 161 162 179 57 114 -32 268 -162 281 -89 8 -113 -7 -279 -171
l-153 -151 -148 147 c-88 87 -163 152 -185 162 -46 19 -112 19 -157 -1z"/>
</g>
</svg>
