<?xml version="1.0" standalone="no"?>
<!DOCTYPE svg PUBLIC "-//W3C//DTD SVG 20010904//EN"
 "http://www.w3.org/TR/2001/REC-SVG-20010904/DTD/svg10.dtd">
<svg version="1.0" xmlns="http://www.w3.org/2000/svg"
 width="784.000000pt" height="980.000000pt" viewBox="0 0 784.000000 980.000000"
 preserveAspectRatio="xMidYMid meet">

<g transform="translate(0.000000,980.000000) scale(0.100000,-0.100000)"
fill="#acb0c2" stroke="none">
<path d="M10 5325 l0 -4475 88 63 c48 35 543 395 1100 800 l1013 737 400 -290
399 -291 15 -57 c29 -103 87 -265 132 -367 125 -280 328 -566 550 -775 545
-513 1286 -750 2023 -645 761 108 1427 570 1803 1251 150 271 254 604 288 922
17 166 7 504 -21 662 -137 779 -633 1442 -1335 1785 -184 91 -303 135 -482
179 -224 57 -339 70 -593 70 -335 1 -599 -46 -883 -158 l-87 -34 0 2549 0
2549 -2205 0 -2205 0 0 -4475z m3920 1536 l0 -2448 -62 -49 c-95 -73 -301
-278 -383 -379 -213 -265 -375 -585 -461 -911 -37 -142 -74 -366 -74 -451 0
-29 -3 -53 -7 -53 -5 0 -171 122 -371 271 l-362 271 -855 -641 -855 -641 0
3740 0 3740 1715 0 1715 0 0 -2449z m1770 -2476 c288 -51 538 -150 772 -307
667 -446 992 -1245 828 -2037 -130 -625 -579 -1162 -1175 -1405 -864 -352
-1854 -48 -2371 729 -526 790 -409 1847 276 2498 316 301 683 475 1120 533
134 17 420 11 550 -11z"/>
<path d="M3930 2445 l0 -245 1470 0 1470 0 -2 243 -3 242 -1467 3 -1468 2 0
-245z"/>
</g>
</svg>
