<svg width="20" height="23" viewBox="0 0 20 23" fill="none" xmlns="http://www.w3.org/2000/svg">
<path d="M5.11719 5.80078C5.11719 3.29259 7.15977 1.25 9.66797 1.25C12.1762 1.25 14.2188 3.29259 14.2188 5.80078C14.2188 8.30898 12.1762 10.3516 9.66797 10.3516C7.15977 10.3516 5.11719 8.30898 5.11719 5.80078Z" stroke="#77B2FF" stroke-width="2.5"/>
<path d="M3.34127 16.3777L3.34128 16.3777C4.69783 15.0003 6.48378 14.25 8.37891 14.25H10.957C12.8522 14.25 14.6381 15.0003 15.9947 16.3777L16.7315 15.652L15.9947 16.3777C17.2023 17.6039 17.9217 19.1748 18.061 20.8594H1.27492C1.41421 19.1748 2.13362 17.6039 3.34127 16.3777Z" stroke="#77B2FF" stroke-width="2.5"/>
</svg>
