<svg xmlns="http://www.w3.org/2000/svg" width="19.285" height="19.124">
    <defs>
        <style>
            .cls-1{fill:#acb0c2}
        </style>
    </defs>
    <g id="Group_9687" data-name="Group 9687" transform="translate(-7.021 -3.927)">
        <path id="Path_17576" data-name="Path 17576" class="cls-1" d="M10.833 8.605c0 .017.005.032.009.049s.006.033.011.049l.012.041c.004.013.011.028.017.042l.02.045.023.043c.008.014.005.013.009.019l.013.017.027.039c.009.013.021.026.032.039l.031.033.031.029.039.032.039.029.033.021.045.023.048.022.02.01h.018l.042.012.045.011.05.008h.022l4.088.416a.718.718 0 1 0 .143-1.419l-2-.2.733-.458a7.579 7.579 0 0 1 6.41-.762l1.106-1.119a9.023 9.023 0 0 0-8.276.663l-.733.458.7-1.887.009-.025a.718.718 0 0 0-1.356-.472L10.87 8.265v.016c0 .005-.009.028-.013.043a1.215 1.215 0 0 0-.021.102c-.002.015 0 .01 0 .015v.128c0 .017-.004.024-.003.036z" transform="translate(-2.441)"/>
        <path id="Path_17579" data-name="Path 17579" class="cls-1" d="M26.5 14.484a.641.641 0 0 0-.186.362l-.467 3.292a.8.8 0 0 0 .678.909.853.853 0 0 0 .109.008.792.792 0 0 0 .1 0l3.351-.415a.642.642 0 0 0 .378-.192l4.908-4.907L36.5 12.41l1.007-1.01a2.8 2.8 0 1 0-3.889-4.042l-.076.076-.624.624-1.047 1.052zm7.952-6.138a1.524 1.524 0 1 1 2.16 2.15l-.1.1-2.16-2.15zm-1.513 1.51.507-.507L35.6 11.5l-.746.745-5.143 5.135-2.511.32.351-2.458z" transform="translate(-12.062 -1.7)"/>
        <path id="Path_17580" data-name="Path 17580" class="cls-1" d="M20.049 35.3a7.608 7.608 0 0 1-11.595-5.674v-.031a.718.718 0 0 0-1.425.176 9.038 9.038 0 1 0 17.85-2.694L23.6 28.373a7.581 7.581 0 0 1-3.551 6.927z" transform="translate(0 -14.842)"/>
    </g>
</svg>
