<svg width="28" height="28" viewBox="0 0 28 28" fill="none" xmlns="http://www.w3.org/2000/svg">
<path d="M0.00488281 27.3214L1.92623 20.3059C0.740881 18.2527 0.117531 15.9233 0.118279 13.5376C0.121387 6.07299 6.19655 0 13.661 0C17.2839 0.00163597 20.6842 1.41156 23.2407 3.97052C25.7978 6.52945 27.2052 9.93084 27.2038 13.5482C27.2006 21.013 21.1251 27.0866 13.6616 27.0866C13.661 27.0866 13.6619 27.0866 13.6616 27.0866H13.6555C11.3891 27.0858 9.16209 26.5169 7.18416 25.4389L0.00488281 27.3214Z" fill="url(#paint0_linear_267_3327)"/>
<path fill-rule="evenodd" clip-rule="evenodd" d="M10.1563 7.67051C9.89376 7.08677 9.61732 7.07509 9.36754 7.06487C9.16323 7.05611 8.92933 7.05665 8.69581 7.05665C8.4621 7.05665 8.08232 7.14447 7.76116 7.49523C7.4398 7.84598 6.53418 8.6939 6.53418 10.4184C6.53418 12.1431 7.79037 13.8096 7.96546 14.0437C8.14075 14.2774 10.3904 17.9295 13.9532 19.3344C16.9142 20.5021 17.5167 20.2698 18.1594 20.2114C18.8021 20.153 20.2332 19.3637 20.5253 18.5451C20.8175 17.7268 20.8175 17.0253 20.7298 16.8786C20.6422 16.7326 20.4085 16.6449 20.0579 16.4697C19.7074 16.2944 17.9841 15.4463 17.6628 15.3294C17.3414 15.2126 17.1077 15.1541 16.874 15.5051C16.6403 15.8556 15.9689 16.6449 15.7644 16.8786C15.5599 17.1129 15.3554 17.1421 15.0049 16.9668C14.6543 16.791 13.5254 16.4213 12.1861 15.2271C11.1441 14.2981 10.4406 13.1508 10.2361 12.7999C10.0316 12.4493 10.2142 12.2594 10.39 12.0847C10.5474 11.9276 10.7406 11.6755 10.9159 11.4708C11.0908 11.2661 11.1492 11.12 11.2661 10.8863C11.3829 10.6522 11.3245 10.4476 11.2368 10.2723C11.1492 10.097 10.468 8.3636 10.1563 7.67051Z" fill="white"/>
<defs>
<linearGradient id="paint0_linear_267_3327" x1="13.6043" y1="27.3214" x2="13.6043" y2="4.55974e-05" gradientUnits="userSpaceOnUse">
<stop stop-color="#20B038"/>
<stop offset="1" stop-color="#60D66A"/>
</linearGradient>
</defs>
</svg>
