<svg xmlns="http://www.w3.org/2000/svg" width="26.298" height="26.36" viewBox="0 0 26.298 26.36">
    <defs>
        <style>
            .cls-2{fill:#fec755}.cls-5{fill:#3b4c5b}.cls-6{fill:#ccc}
        </style>
    </defs>
    <g id="badminton" transform="translate(-.595)">
        <path id="Path_14203" fill="#eaeaea" d="M22.719 3.272l-.27 1.719-1.636.187-3.272-2a4.69 4.69 0 0 1 .883-1.663q.142-.172.3-.33A4.687 4.687 0 0 1 20.717 0z" transform="translate(-16.073)"/>
        <g id="Group_7079" transform="translate(5.371 10.326)">
            <path id="Path_14204" d="M109.106 342.677s5.82-3.069 9.416-3.069l1.032 1.032c-3.6 0-9.416 3.069-9.416 3.069z" class="cls-2" transform="translate(-108.295 -332.45)"/>
            <path id="Path_14205" d="M94.376 211.014s3.069-5.82 3.069-9.416l-1.032-1.032c0 3.6-3.069 9.416-3.069 9.416z" class="cls-2" transform="translate(-93.344 -200.567)"/>
        </g>
        <path id="Path_14206" fill="#38abf9" d="M7.214 385.3l-1.6 1.6-.577.578-1.153 1.153-.578.578-.637.636a.788.788 0 0 1-1.115 0l-.728-.728a.788.788 0 0 1 0-1.115l.637-.637.578-.577 1.153-1.153.577-.578 1.6-1.6z" transform="translate(0 -363.714)"/>
        <path id="Path_14207" fill="#2ba0e2" d="M1.523 388.692l4.544-4.544-.693-.693L.83 388a.788.788 0 0 0 0 1.115l.693.693a.789.789 0 0 1 0-1.116z" transform="translate(-.004 -363.713)"/>
        <g id="Group_7080" transform="translate(1.464 21.34)">
            <path id="Path_14208" d="M19.88 449.97l-.578.578-1.843-1.848.578-.577z" class="cls-5" transform="translate(-17.459 -446.396)"/>
            <path id="Path_14209" d="M53.5 416.35l-.577.578-1.843-1.843.577-.578z" class="cls-5" transform="translate(-49.348 -414.507)"/>
        </g>
        <path id="Path_14210" d="M175.37 18.633a.354.354 0 0 0-.5 0l-.126.126a.345.345 0 0 0-.032-.038l-1.22-1.22 1.255-1.255.043.043a.354.354 0 0 0 .5-.5l-.043-.043.1-.1a.354.354 0 1 0-.5-.5l-.1.1-1.255-1.255.945-.945a.354.354 0 0 0-.5-.5l-.945.945-1.255-1.255.945-.945a.354.354 0 0 0-.5-.5l-.945.945-1.257-1.256.1-.1a.354.354 0 0 0-.5-.5l-.1.1-.38-.38a.354.354 0 0 0-.5.5l.381.381-1.255 1.255-1.22-1.22a.35.35 0 0 0-.038-.032l.126-.126a.354.354 0 1 0-.5-.5l-1.879 1.879-.164-.164a.354.354 0 0 0-.5.5l.164.164-1.255 1.255-.361-.361a.354.354 0 0 0-.5.5l.361.361-1.26 1.254-.123-.123a.354.354 0 0 0-.5.5l.123.123-1.285 1.285a.354.354 0 0 0-.44.44l-.056.056a.354.354 0 1 0 .5.5l.026-.026 1.255 1.255-1.255 1.255-.381-.381a.354.354 0 1 0-.5.5l.381.381-.136.136a.354.354 0 1 0 .5.5l.136-.136 1.255 1.255-.78.78a.354.354 0 1 0 .5.5l.78-.78 1.255 1.255-.78.78a.354.354 0 1 0 .5.5l.78-.78 1.255 1.255-.136.136a.354.354 0 1 0 .5.5l.189-.189h.043a.353.353 0 0 0 .351-.4l1.308-1.308 1.255 1.255-.026.026a.354.354 0 1 0 .5.5l.056-.056a.354.354 0 0 0 .44-.44l1.285-1.285.123.123a.354.354 0 1 0 .5-.5l-.123-.123 1.255-1.255.361.361a.354.354 0 0 0 .5-.5l-.361-.361 1.255-1.255.164.164a.354.354 0 1 0 .5-.5l-.164-.164 1.879-1.879a.354.354 0 0 0 .006-.493zm-1.124-2.887L172.991 17l-1.255-1.255 1.255-1.255zm-7.777 1.754l1.255-1.255 1.256 1.255-1.255 1.255zm.755 1.756l-1.255 1.255-1.255-1.255L165.969 18zm1-3.511l1.255-1.255 1.255 1.255L169.48 17zm-.5-.5l-1.255-1.255 1.255-1.255 1.255 1.255zm-.5.5L165.969 17l-1.255-1.255 1.255-1.255zm-1.756 1.755l-1.255 1.255-1.255-1.255 1.255-1.255zm-1.756 1.756l-1.255 1.255-1.257-1.254L162.458 18zm.5.5l1.255 1.255-1.255 1.255-1.255-1.255zm1.756 1.756l1.255 1.255-1.255 1.255-1.255-1.255zm.5-.5l1.255-1.255 1.255 1.255-1.255 1.255zm1.756-1.756L169.48 18l1.255 1.255-1.255 1.255zm1.756-1.756l1.255-1.255 1.255 1.255-1.255 1.255zm2.51-3.511l-1.255 1.255-1.255-1.255 1.255-1.255zm-3.011-3.011l1.255 1.255-1.254 1.257-1.255-1.255zm-3.508 0a.347.347 0 0 0 .032.038l1.22 1.22-1.255 1.255-1.255-1.255zm-1.758 1.758l1.255 1.255-1.255 1.255-1.255-1.255zm-1.756 1.756l1.255 1.255L162.458 17l-1.258-1.253zm-3.01 3.01l1.255-1.255 1.255 1.255-1.257 1.255zm0 3.511l1.255-1.255 1.255 1.255-1.257 1.255zm1.756 1.756l1.255-1.255 1.255 1.255-1.255 1.255zm3.011 3.011l-1.255-1.255 1.255-1.255 1.255 1.255zm3.511 0l-1.255-1.255 1.255-1.255 1.255 1.255zm1.755-1.755l-1.255-1.255 1.255-1.255 1.255 1.255zm1.756-1.756l-1.255-1.255 1.255-1.255 1.255 1.255zm.5-3.01L172.991 18l1.22 1.22a.349.349 0 0 0 .038.032l-1.258 1.258z" class="cls-6" transform="translate(-149.265 -9.006)"/>
        <path id="Path_14211" d="M169 3.4c-3.307-3.308-9.134-2.849-13.011 1.028s-4.336 9.7-1.024 13.016 9.135 2.856 13.016-1.024S172.316 6.716 169 3.4zm-1.943 12.1c-3.362 3.361-8.371 3.821-11.168 1.024s-2.337-7.807 1.024-11.168 8.371-3.821 11.168-1.024 2.337 7.803-1.024 11.168z" class="cls-2" transform="translate(-144.324 -1.13)"/>
        <path id="Path_14212" fill="#e21e43" d="M84.254 65.978a1.327 1.327 0 0 1-.294.441 1.347 1.347 0 0 1-1.906 0l-.953-.953 1.906-1.906.953.953a1.346 1.346 0 0 1 .294 1.465z" transform="translate(-76.361 -60.288)"/>
        <path id="Path_14213" fill="#fc3552" d="M97.8 65.978a1.348 1.348 0 0 1-1.465-.294l-.953-.953 1.171-1.171.953.953a1.346 1.346 0 0 1 .294 1.465z" transform="translate(-89.904 -60.289)"/>
        <path id="Path_14214" d="M21.548 32.32l-.735.735-3.272-2a4.69 4.69 0 0 1 .883-1.663z" class="cls-6" transform="translate(-16.073 -27.877)"/>
    </g>
</svg>
