<svg width="21" height="21" viewBox="0 0 21 21" fill="none" xmlns="http://www.w3.org/2000/svg">
<path d="M4.67527 2.52729L4.46672 3.85505L3.20308 3.99949L0.675781 2.45469C0.813956 1.98482 1.04597 1.54785 1.35781 1.17019C1.43093 1.08162 1.50817 0.996654 1.58953 0.915295C2.01791 0.486084 2.54723 0.171356 3.12892 0L4.67527 2.52729Z" fill="#CFE7FF"/>
<path d="M4.31641 15.8744C4.31641 15.8744 8.81178 13.5039 11.5893 13.5039L12.3864 14.301C9.6058 14.301 5.11352 16.6715 5.11352 16.6715L4.31641 15.8744Z" fill="#B9DCFF"/>
<path d="M4.48657 16.0447C4.48657 16.0447 6.85707 11.5493 6.85707 8.77174L6.05995 7.97461C6.05995 10.7553 3.68945 15.2475 3.68945 15.2475L4.48657 16.0447Z" fill="#B9DCFF"/>
<path d="M5.1126 16.6716L3.87676 17.9074L3.43108 18.3539L2.5405 19.2445L2.09406 19.6909L1.60204 20.1821C1.54551 20.2387 1.47838 20.2836 1.40449 20.3142C1.33061 20.3449 1.25141 20.3607 1.17142 20.3607C1.09144 20.3607 1.01224 20.3449 0.93835 20.3142C0.864463 20.2836 0.797336 20.2387 0.740809 20.1821L0.178502 19.6198C0.121914 19.5633 0.0770222 19.4962 0.0463936 19.4223C0.015765 19.3484 0 19.2692 0 19.1892C0 19.1092 0.015765 19.03 0.0463936 18.9561C0.0770222 18.8823 0.121914 18.8151 0.178502 18.7586L0.670521 18.2666L1.11697 17.8209L2.00755 16.9303L2.45322 16.4839L3.68906 15.248L5.1126 16.6716Z" fill="#6A9CFF"/>
<path d="M0.713775 19.2931L4.22356 15.7833L3.68829 15.248L0.178502 18.7586C0.121914 18.8151 0.0770221 18.8823 0.0463935 18.9561C0.0157649 19.03 0 19.1092 0 19.1892C0 19.2692 0.0157649 19.3484 0.0463935 19.4223C0.0770221 19.4962 0.121914 19.5633 0.178502 19.6198L0.713775 20.1551C0.657164 20.0985 0.612256 20.0313 0.581617 19.9574C0.550977 19.8834 0.535207 19.8042 0.535207 19.7241C0.535207 19.6441 0.550977 19.5648 0.581617 19.4909C0.612256 19.4169 0.657164 19.3497 0.713775 19.2931Z" fill="#A9C6FF"/>
<path d="M2.54186 19.243L2.09541 19.6895L0.671875 18.2621L1.11832 17.8164L2.54186 19.243Z" fill="#4178E6"/>
<path d="M3.87897 17.906L3.4333 18.3524L2.00977 16.9289L2.45544 16.4824L3.87897 17.906Z" fill="#4178E6"/>
<path d="M19.7033 7.43639C19.652 7.38526 19.5826 7.35654 19.5102 7.35654C19.4378 7.35654 19.3684 7.38526 19.3171 7.43639L19.2198 7.53371C19.2123 7.52335 19.204 7.51354 19.1951 7.50436L18.2527 6.56203L19.2221 5.59267L19.2553 5.62588C19.3073 5.67292 19.3754 5.69818 19.4456 5.69641C19.5157 5.69465 19.5824 5.66601 19.632 5.61642C19.6816 5.56682 19.7103 5.50006 19.712 5.42994C19.7138 5.35982 19.6885 5.29171 19.6415 5.23968L19.6083 5.20647L19.6855 5.12923C19.713 5.10437 19.7352 5.07418 19.7506 5.0405C19.7661 5.00681 19.7746 4.97034 19.7755 4.93329C19.7764 4.89623 19.7698 4.85938 19.756 4.82496C19.7423 4.79054 19.7217 4.75928 19.6955 4.73307C19.6693 4.70687 19.638 4.68626 19.6036 4.67251C19.5692 4.65875 19.5323 4.65214 19.4953 4.65307C19.4582 4.65401 19.4218 4.66246 19.3881 4.67792C19.3544 4.69339 19.3242 4.71554 19.2993 4.74303L19.2221 4.82027L18.2527 3.8509L18.9826 3.12099C19.0297 3.06896 19.0549 3.00085 19.0532 2.93073C19.0514 2.86061 19.0228 2.79385 18.9732 2.74425C18.9236 2.69465 18.8568 2.66601 18.7867 2.66425C18.7166 2.66249 18.6485 2.68774 18.5964 2.73478L17.8665 3.4647L16.8972 2.49534L17.6271 1.76542C17.6741 1.7134 17.6994 1.64528 17.6976 1.57516C17.6959 1.50504 17.6672 1.43828 17.6176 1.38869C17.568 1.33909 17.5013 1.31045 17.4311 1.30869C17.361 1.30693 17.2929 1.33218 17.2409 1.37922L16.511 2.10914L15.5401 1.13901L15.6173 1.06177C15.6643 1.00974 15.6896 0.941625 15.6878 0.871506C15.6861 0.801387 15.6574 0.734627 15.6078 0.68503C15.5582 0.635433 15.4915 0.606792 15.4214 0.60503C15.3512 0.603269 15.2831 0.628521 15.2311 0.675565L15.1539 0.752805L14.8604 0.459293C14.8083 0.412249 14.7402 0.386997 14.6701 0.388758C14.6 0.39052 14.5332 0.419161 14.4836 0.468758C14.434 0.518355 14.4054 0.585115 14.4036 0.655234C14.4019 0.725353 14.4271 0.793468 14.4742 0.845493L14.7684 1.13978L13.7991 2.10914L12.8567 1.16681C12.8476 1.15789 12.8377 1.14963 12.8274 1.1421L12.9247 1.04477C12.9522 1.01991 12.9743 0.989726 12.9898 0.956042C13.0053 0.922359 13.0137 0.885883 13.0147 0.848831C13.0156 0.811779 13.009 0.774924 12.9952 0.740507C12.9815 0.706089 12.9609 0.674827 12.9347 0.64862C12.9085 0.622412 12.8772 0.601806 12.8428 0.588053C12.8084 0.574301 12.7715 0.567689 12.7344 0.56862C12.6974 0.569551 12.6609 0.578005 12.6272 0.593468C12.5936 0.608932 12.5634 0.631081 12.5385 0.658572L11.0872 2.10991L10.9605 1.98324C10.9085 1.9362 10.8404 1.91094 10.7702 1.91271C10.7001 1.91447 10.6334 1.94311 10.5838 1.9927C10.5342 2.0423 10.5055 2.10906 10.5038 2.17918C10.502 2.2493 10.5272 2.31741 10.5743 2.36944L10.701 2.49611L9.73161 3.46548L9.45277 3.18664C9.40074 3.1396 9.33263 3.11434 9.26251 3.1161C9.19239 3.11787 9.12563 3.14651 9.07603 3.1961C9.02644 3.2457 8.99779 3.31246 8.99603 3.38258C8.99427 3.4527 9.01952 3.52081 9.06657 3.57284L9.34541 3.85168L8.37218 4.82027L8.27717 4.72526C8.22515 4.67822 8.15703 4.65297 8.08691 4.65473C8.01679 4.65649 7.95003 4.68513 7.90044 4.73473C7.85084 4.78432 7.82221 4.85108 7.82045 4.9212C7.81868 4.99132 7.84393 5.05944 7.89097 5.11146L7.98598 5.20647L6.99344 6.199C6.94625 6.18502 6.89617 6.18403 6.84846 6.19614C6.80076 6.20825 6.7572 6.23301 6.7224 6.26782C6.6876 6.30262 6.66284 6.34617 6.65073 6.39387C6.63862 6.44158 6.63961 6.49167 6.65359 6.53886L6.61034 6.58211C6.58285 6.60697 6.5607 6.63716 6.54524 6.67084C6.52977 6.70453 6.52131 6.741 6.52038 6.77805C6.51945 6.81511 6.52606 6.85196 6.53981 6.88638C6.55357 6.92079 6.57417 6.95206 6.60038 6.97827C6.62659 7.00447 6.65786 7.02508 6.69228 7.03883C6.72669 7.05258 6.76354 7.0592 6.80059 7.05826C6.83764 7.05733 6.87412 7.04888 6.9078 7.03342C6.94149 7.01795 6.97168 6.9958 6.99654 6.96831L7.01662 6.94823L7.98598 7.91759L7.01662 8.88696L6.72233 8.59267C6.69747 8.56518 6.66729 8.54303 6.63361 8.52757C6.59992 8.5121 6.56344 8.50365 6.52639 8.50272C6.48934 8.50179 6.45248 8.5084 6.41807 8.52215C6.38365 8.5359 6.35239 8.55651 6.32618 8.58272C6.29997 8.60893 6.27937 8.64019 6.26561 8.67461C6.25186 8.70902 6.24525 8.74588 6.24618 8.78293C6.24711 8.81998 6.25556 8.85646 6.27102 8.89014C6.28649 8.92382 6.30864 8.95401 6.33613 8.97887L6.63042 9.27316L6.52538 9.3782C6.49789 9.40306 6.47573 9.43325 6.46027 9.46693C6.44481 9.50062 6.43635 9.53709 6.43541 9.57414C6.43448 9.6112 6.4411 9.64805 6.45485 9.68247C6.4686 9.71689 6.48921 9.74815 6.51542 9.77436C6.54162 9.80056 6.57289 9.82117 6.60731 9.83492C6.64173 9.84867 6.67858 9.85529 6.71564 9.85436C6.75269 9.85342 6.78916 9.84497 6.82284 9.82951C6.85652 9.81404 6.88672 9.79189 6.91158 9.7644L7.01662 9.65936L7.98598 10.6287L7.38351 11.2312C7.35602 11.2561 7.33387 11.2862 7.3184 11.3199C7.30294 11.3536 7.29449 11.3901 7.29356 11.4271C7.29263 11.4642 7.29924 11.501 7.31299 11.5355C7.32674 11.5699 7.34735 11.6011 7.37356 11.6273C7.39977 11.6536 7.43103 11.6742 7.46544 11.6879C7.49986 11.7017 7.53672 11.7083 7.57377 11.7073C7.61082 11.7064 7.6473 11.698 7.68098 11.6825C7.71467 11.667 7.74485 11.6449 7.76971 11.6174L8.37218 11.0149L9.34155 11.9843L8.73907 12.5868C8.71158 12.6116 8.68943 12.6418 8.67397 12.6755C8.65851 12.7092 8.65006 12.7456 8.64912 12.7827C8.64819 12.8197 8.65479 12.8566 8.66855 12.891C8.6823 12.9254 8.70291 12.9567 8.72912 12.9829C8.75532 13.0091 8.78659 13.0297 8.82101 13.0435C8.85543 13.0572 8.89228 13.0638 8.92933 13.0629C8.96639 13.062 9.00285 13.0535 9.03654 13.0381C9.07022 13.0226 9.10042 13.0004 9.12527 12.973L9.72775 12.3705L10.6971 13.3398L10.5921 13.4449C10.5646 13.4698 10.5424 13.4999 10.527 13.5336C10.5115 13.5673 10.503 13.6038 10.5021 13.6408C10.5012 13.6779 10.5078 13.7147 10.5215 13.7492C10.5353 13.7836 10.5559 13.8148 10.5821 13.841C10.6083 13.8673 10.6396 13.8879 10.674 13.9016C10.7084 13.9154 10.7453 13.922 10.7823 13.921C10.8194 13.9201 10.8558 13.9117 10.8895 13.8962C10.9232 13.8807 10.9534 13.8586 10.9783 13.8311L11.1242 13.6851H11.1575C11.1964 13.6852 11.2349 13.677 11.2704 13.661C11.3059 13.645 11.3376 13.6216 11.3633 13.5923C11.389 13.563 11.4081 13.5286 11.4194 13.4913C11.4306 13.454 11.4338 13.4147 11.4286 13.3761L12.4389 12.3658L13.4082 13.3352L13.3882 13.3553C13.3607 13.3802 13.3385 13.4103 13.323 13.444C13.3076 13.4777 13.2991 13.5142 13.2982 13.5512C13.2973 13.5883 13.3039 13.6251 13.3176 13.6596C13.3314 13.694 13.352 13.7252 13.3782 13.7514C13.4044 13.7777 13.4357 13.7983 13.4701 13.812C13.5045 13.8258 13.5414 13.8324 13.5784 13.8314C13.6155 13.8305 13.6519 13.8221 13.6856 13.8066C13.7193 13.7911 13.7495 13.769 13.7744 13.7415L13.8176 13.6982C13.8648 13.7122 13.9149 13.7132 13.9626 13.7011C14.0103 13.689 14.0538 13.6642 14.0886 13.6294C14.1234 13.5946 14.1482 13.5511 14.1603 13.5034C14.1724 13.4557 14.1715 13.4056 14.1575 13.3584L15.15 12.3658L15.245 12.4609C15.2699 12.4883 15.3 12.5105 15.3337 12.526C15.3674 12.5414 15.4039 12.5499 15.4409 12.5508C15.478 12.5517 15.5149 12.5451 15.5493 12.5314C15.5837 12.5176 15.6149 12.497 15.6412 12.4708C15.6674 12.4446 15.688 12.4133 15.7017 12.3789C15.7155 12.3445 15.7221 12.3076 15.7212 12.2706C15.7202 12.2335 15.7118 12.1971 15.6963 12.1634C15.6808 12.1297 15.6587 12.0995 15.6312 12.0747L15.5362 11.9796L16.5056 11.0103L16.7844 11.2891C16.8364 11.3362 16.9045 11.3614 16.9747 11.3597C17.0448 11.3579 17.1115 11.3293 17.1611 11.2797C17.2107 11.2301 17.2394 11.1633 17.2411 11.0932C17.2429 11.0231 17.2176 10.9549 17.1706 10.9029L16.8918 10.6241L17.8611 9.65472L17.9878 9.7814C18.0127 9.80889 18.0428 9.83104 18.0765 9.8465C18.1102 9.86196 18.1467 9.87042 18.1837 9.87135C18.2208 9.87228 18.2576 9.86567 18.2921 9.85191C18.3265 9.83816 18.3577 9.81756 18.3839 9.79135C18.4102 9.76514 18.4308 9.73388 18.4445 9.69946C18.4583 9.66504 18.4649 9.62819 18.4639 9.59114C18.463 9.55408 18.4546 9.51761 18.4391 9.48393C18.4236 9.45024 18.4015 9.42005 18.374 9.3952L18.2473 9.26852L19.6987 7.81718C19.7488 7.76677 19.7773 7.69881 19.7782 7.62772C19.779 7.55664 19.7522 7.48801 19.7033 7.43639ZM18.8351 5.20647L17.8658 6.17506L16.8964 5.20569L17.8658 4.23633L18.8351 5.20647ZM12.8282 6.56126L13.7975 5.5919L14.7677 6.56126L13.7983 7.53062L12.8282 6.56126ZM13.4113 7.91759L12.442 8.88696L11.4726 7.91759L12.442 6.94746L13.4113 7.91759ZM14.1837 5.20569L15.1531 4.23633L16.1224 5.20569L15.1539 6.17506L14.1837 5.20569ZM13.7975 4.81949L12.8282 3.85013L13.7975 2.88077L14.7669 3.85013L13.7975 4.81949ZM13.4113 5.20569L12.442 6.17506L11.4726 5.20569L12.442 4.23633L13.4113 5.20569ZM12.055 6.56126L11.0856 7.53062L10.1163 6.56126L11.0856 5.5919L12.055 6.56126ZM10.6987 7.91759L9.72929 8.88696L8.75838 7.91837L9.73006 6.94746L10.6987 7.91759ZM11.0849 8.30379L12.0542 9.27316L11.0849 10.2425L10.1155 9.27316L11.0849 8.30379ZM12.4412 9.66013L13.4106 10.6295L12.4412 11.5989L11.4718 10.6295L12.4412 9.66013ZM12.8274 9.27393L13.7968 8.30457L14.7661 9.27393L13.7968 10.2433L12.8274 9.27393ZM14.1837 7.91759L15.1539 6.94746L16.1232 7.91682L15.1539 8.88618L14.1837 7.91759ZM15.5401 6.56126L16.5094 5.5919L17.4788 6.56126L16.5094 7.53062L15.5401 6.56126ZM17.4788 3.84936L16.5094 4.81872L15.5401 3.84936L16.5094 2.88L17.4788 3.84936ZM15.1531 1.52366L16.1224 2.49302L15.1539 3.46393L14.1845 2.49457L15.1531 1.52366ZM12.4435 1.52366C12.451 1.53402 12.4593 1.54383 12.4682 1.55301L13.4106 2.49534L12.4412 3.4647L11.4718 2.49534L12.4435 1.52366ZM11.0856 2.88154L12.055 3.8509L11.0856 4.82027L10.1163 3.8509L11.0856 2.88154ZM9.72929 4.23788L10.6987 5.20724L9.73006 6.17506L8.75838 5.20724L9.72929 4.23788ZM7.40437 6.5628L8.37372 5.59344L9.34309 6.5628L8.37218 7.53217L7.40437 6.5628ZM7.40437 9.2747L8.37372 8.30534L9.34309 9.2747L8.37218 10.2441L7.40437 9.2747ZM8.7607 10.631L9.73006 9.66167L10.6994 10.631L9.73006 11.6004L8.7607 10.631ZM11.0864 12.9567L10.117 11.9874L11.0864 11.018L12.0558 11.9874L11.0864 12.9567ZM13.7983 12.9567L12.8289 11.9874L13.7983 11.018L14.7677 11.9874L13.7983 12.9567ZM15.1539 11.6012L14.1845 10.6318L15.1539 9.66245L16.1232 10.6318L15.1539 11.6012ZM16.5102 10.2448L15.5408 9.27547L16.5102 8.30611L17.4796 9.27547L16.5102 10.2448ZM16.8964 7.91991L17.8658 6.94746L18.8081 7.88979C18.8173 7.89871 18.8271 7.90697 18.8374 7.9145L17.8658 8.88618L16.8964 7.91991Z" fill="#6A9CFF"/>
<path d="M18.6004 1.75325C16.046 -0.801856 11.5453 -0.447324 8.55066 2.54727C5.55607 5.54187 5.20153 10.0396 7.75972 12.6008C10.3179 15.1621 14.8156 14.8068 17.8133 11.8099C20.811 8.81299 21.1616 4.31453 18.6004 1.75325ZM17.0996 11.0993C14.5028 13.6953 10.6338 14.0506 8.47343 11.8902C6.31302 9.72983 6.66832 5.8601 9.26436 3.26406C11.8604 0.668023 15.7301 0.312718 17.8905 2.47312C20.0509 4.63353 19.6956 8.50016 17.0996 11.0993Z" fill="#B9DCFF"/>
<path d="M5.6385 4.395C5.58648 4.52266 5.50925 4.63852 5.41142 4.73564C5.31479 4.83237 5.20005 4.90911 5.07374 4.96147C4.94744 5.01383 4.81205 5.04078 4.67533 5.04078C4.5386 5.04078 4.40321 5.01383 4.2769 4.96147C4.1506 4.90911 4.03585 4.83237 3.93923 4.73564L3.20312 3.99954L4.67533 2.52734L5.41142 3.26344C5.55682 3.40853 5.65599 3.59343 5.6964 3.79482C5.73682 3.99621 5.71667 4.20505 5.6385 4.395Z" fill="#6A9CFF"/>
<path d="M5.63915 4.395C5.44916 4.47296 5.24037 4.493 5.03902 4.4526C4.83768 4.41219 4.65278 4.31314 4.50758 4.16792L3.77148 3.43183L4.67596 2.52734L5.41206 3.26344C5.55746 3.40853 5.65663 3.59343 5.69704 3.79482C5.73746 3.99621 5.71731 4.20505 5.63915 4.395Z" fill="#6A9CFF"/>
<path d="M3.77079 3.43151L3.20308 3.99923L0.675781 2.45442C0.813956 1.98455 1.04597 1.54758 1.35781 1.16992L3.77079 3.43151Z" fill="#6A9CFF" fill-opacity="0.21"/>
</svg>
