<svg xmlns="http://www.w3.org/2000/svg" width="28.752" height="20.355" viewBox="0 0 28.752 20.355">
    <defs>
        <style>
            .cls-4{fill:#78c2a4}.cls-5{fill:#f0f7ff}
        </style>
    </defs>
    <g id="chat" transform="translate(0 -85.267)">
        <g id="Group_7097" transform="translate(0 85.267)">
            <g id="Group_7096">
                <g id="Group_7094">
                    <path id="Path_14263" fill="#ffe07d" d="M224.821 159.932a.707.707 0 0 1 .374-.779c2.54-1.284 4.221-3.51 4.221-6.041 0-3.151-2.6-5.828-6.229-6.8-4.642.215-8.322 3.209-8.322 6.872 0 3.8 3.965 6.885 8.856 6.885h.036a.673.673 0 0 1 .586.335 3.578 3.578 0 0 0 .341.494l.318-.3c-.081-.27-.148-.513-.181-.666z" transform="translate(-203.825 -142.669)"/>
                    <path id="Path_14264" fill="#ffd064" d="M337.745 158.754a6.68 6.68 0 0 0 4.036-5.776c0-3.8-3.965-6.885-8.856-6.885a11.333 11.333 0 0 0-1.934.165c3.961.686 6.922 3.434 6.922 6.72a6.68 6.68 0 0 1-4.036 5.776.676.676 0 0 0-.357.745 7.511 7.511 0 0 0 .367 1.193c1.278 1.583 3.629 2.016 4.6 2.129a.208.208 0 0 0 .2-.319 9.635 9.635 0 0 1-1.3-3 .676.676 0 0 1 .357-.745z" transform="translate(-313.028 -142.467)"/>
                    <path id="Path_14265" fill="#95d6a4" d="M9.7 87.366C4.19 88.078 0 91.8 0 96.286a7.861 7.861 0 0 0 2.532 5.633.719.719 0 0 1 .189.7 13.9 13.9 0 0 1-2.2 4.31.781.781 0 0 0 .814.183 7.8 7.8 0 0 0 3.536-2.465 1.041 1.041 0 0 1 1.194-.231q.407.187.836.348a2.414 2.414 0 0 0 1.094.156.726.726 0 0 1 .242.016 13.818 13.818 0 0 0 1.468.267l2.215-.072c4.666-1.29 8.007-4.753 8.007-8.823 0-4.2-3.552-7.748-8.447-8.937z" transform="translate(0 -87.241)"/>
                    <g id="Group_7093" transform="translate(.245)">
                        <path id="Path_14266" d="M8.387 366.4a7.886 7.886 0 0 1-4.008 2.625c-.084.115-.162.217-.229.3a.223.223 0 0 0 .182.36c1.288-.032 4.9-.32 7.087-2.471a.725.725 0 0 1 .677-.187 13.454 13.454 0 0 1-2.515-.86 1.04 1.04 0 0 0-1.194.233z" class="cls-4" transform="translate(-4.103 -349.337)"/>
                        <path id="Path_14267" d="M164.673 85.267a15 15 0 0 0-1.934.125c5.505.716 9.7 4.437 9.7 8.92s-4.194 8.2-9.7 8.92a14.966 14.966 0 0 0 1.93.126c6.426 0 11.635-4.05 11.635-9.045s-5.204-9.046-11.631-9.046z" class="cls-4" transform="translate(-153.283 -85.267)"/>
                    </g>
                </g>
                <g id="Group_7095" transform="translate(3.332 7.858)">
                    <circle id="Ellipse_824" cx="1.136" cy="1.136" r="1.136" class="cls-5"/>
                    <circle id="Ellipse_825" cx="1.136" cy="1.136" r="1.136" class="cls-5" transform="translate(4.554)"/>
                    <circle id="Ellipse_826" cx="1.136" cy="1.136" r="1.136" class="cls-5" transform="translate(9.108)"/>
                    <circle id="Ellipse_827" cx="1.136" cy="1.136" r="1.136" class="cls-5" transform="translate(13.661)"/>
                </g>
            </g>
        </g>
    </g>
</svg>
