<svg xmlns="http://www.w3.org/2000/svg" width="15.924" height="25.822" viewBox="0 0 15.924 25.822">
    <defs>
        <style>
            .cls-5{fill-rule:evenodd;fill:#fc7070}
        </style>
    </defs>
    <g id="creative-idea" transform="translate(-98.122)">
        <path id="Path_14253" fill="#ffe07d" fill-rule="evenodd" d="M106.085 0a7.964 7.964 0 0 1 3.9 14.905.528.528 0 0 0-.3.482v3.458h-7.2v-3.458a.5.5 0 0 0-.3-.48A7.963 7.963 0 0 1 106.085 0z"/>
        <path id="Path_14254" fill="#ffd064" fill-rule="evenodd" d="M241.775 0a7.964 7.964 0 0 1 3.9 14.905.528.528 0 0 0-.3.482v3.458h-1.513v-3.458a.527.527 0 0 1 .3-.482A7.963 7.963 0 0 0 241.019.036c.249-.023.5-.036.756-.036z" transform="translate(-135.69)"/>
        <path id="Path_14255" fill="#75cef9" fill-rule="evenodd" d="M194.283 410.891v1.338a.975.975 0 0 1-.972.972l-2.57.2-2.407-.2a.975.975 0 0 1-.974-.972v-1.338l3.444-.316z" transform="translate(-84.737 -389.869)"/>
        <path id="Path_14256" fill="#6bbef6" fill-rule="evenodd" d="M277.833 416.84v1.338a.975.975 0 0 1-.972.972h-1.514a.975.975 0 0 0 .974-.972v-1.338z" transform="translate(-168.287 -395.818)"/>
        <path id="Path_14257" d="M214.23 170.109h4.214v10.266h-4.214z" class="cls-5" transform="translate(-110.252 -161.53)"/>
        <path id="Path_14258" fill="#365e7d" fill-rule="evenodd" d="M161.647 368.679h7.2a1.218 1.218 0 1 1 0 2.436h-7.2a1.218 1.218 0 0 1 0-2.436zm6.092 4.739a2.489 2.489 0 0 1-4.978 0z" transform="translate(-59.165 -350.086)"/>
        <path id="Path_14259" fill="#2b4d66" fill-rule="evenodd" d="M243.863 368.679h1.513a1.218 1.218 0 1 1 0 2.436h-1.513a1.218 1.218 0 1 0 0-2.436zm.4 4.739a2.489 2.489 0 0 1-2.489 2.489 2.447 2.447 0 0 1-.756-.117 2.49 2.49 0 0 0 1.731-2.372z" transform="translate(-135.689 -350.086)"/>
        <path id="Path_14260" fill="#d15a63" fill-rule="evenodd" d="M242.152 170.109h1.4v10.006h-1.4z" transform="translate(-136.766 -161.53)"/>
        <path id="Path_14261" fill="#fff9df" fill-rule="evenodd" d="M216.5 75.573l.891 2.183 1.054 2.585h-4.215l1.054-2.585.891-2.183z" transform="translate(-110.252 -71.762)"/>
        <path id="Path_14262" d="M237.23 74.9l-.891-2.183c-.08-.2-.242-.207-.326 0l-.891 2.183z" class="cls-5" transform="translate(-130.092 -68.904)"/>
    </g>
</svg>
