<svg width="12" height="19" viewBox="0 0 12 19" fill="none" xmlns="http://www.w3.org/2000/svg">
<path d="M2.37412 16.9788L1.61577 18.7988L0.857422 16.9788V0.703125H2.37791L2.37412 16.9788Z" fill="#B9DCFF"/>
<path d="M6.53232 16.9788L5.77397 18.7988L5.01562 16.9788V0.703125H6.53232V16.9788Z" fill="#B9DCFF"/>
<path d="M10.6944 16.9788L9.93608 18.7988L9.17773 16.9788V0.703125H10.6944V16.9788Z" fill="#B9DCFF"/>
<path d="M4.75653 0H2.64453V0.912292H4.75653V0Z" fill="#4F8AFF"/>
<path d="M5.29602 0.214844H2.08594V0.696394H5.29602V0.214844Z" fill="#4F8AFF"/>
<path d="M8.88543 0H6.77344V0.912292H8.88543V0Z" fill="#4F8AFF"/>
<path d="M9.42688 0.214844H6.2168V0.696394H9.42688V0.214844Z" fill="#4F8AFF"/>
<path d="M11.674 16.9082H0V18.8283H11.674V16.9082Z" fill="#4F8AFF"/>
</svg>
