<svg xmlns="http://www.w3.org/2000/svg" width="24.186" height="24.644" viewBox="0 0 24.186 24.644">
    <defs>
        <style>
            .cls-1{fill:#f44545}.cls-2{fill:#fb5858}
        </style>
    </defs>
    <g id="blood" transform="translate(0 .001)">
        <g id="Group_7089" transform="translate(-.001 -.001)">
            <path id="Path_14234" d="M129.236 143.3a6.379 6.379 0 0 1-5.509 2.823 6.531 6.531 0 0 1-5.422-9.849l4.817-8.211a.891.891 0 0 1 1.079-.386.878.878 0 0 1 .46.386l4.817 8.211a6.539 6.539 0 0 1-.242 7.025zm0 0" class="cls-1" transform="translate(-111.746 -121.482)"/>
            <path id="Path_14235" d="M364.059 7.443a3.449 3.449 0 0 1-3.318 2.1 3.512 3.512 0 0 1-2.882-5.3l2.235-3.804a.891.891 0 0 1 1.079-.385.873.873 0 0 1 .46.385l2.234 3.809a3.5 3.5 0 0 1 .192 3.2zm0 0" class="cls-1" transform="translate(-340.17 .001)"/>
            <path id="Path_14236" d="M5.987 105.594a3.06 3.06 0 0 1-2.9 2.022 3.108 3.108 0 0 1-2.66-4.691l1.983-3.373a.79.79 0 0 1 1.034-.308.779.779 0 0 1 .329.308l1.979 3.373a3.1 3.1 0 0 1 .235 2.669zm0 0" class="cls-1" transform="translate(.001 -94.389)"/>
        </g>
        <path id="Path_14237" d="M167.906 144.383a6.372 6.372 0 0 1-3.224.942 6.529 6.529 0 0 1-5.751-9.849l3.94-6.715a.878.878 0 0 1 .46.386l4.817 8.211a6.539 6.539 0 0 1-.242 7.025zm0 0" class="cls-2" transform="translate(-150.416 -122.565)"/>
        <path id="Path_14238" d="M402.739 8.53a3.458 3.458 0 0 1-1.118.219h-.244a3.511 3.511 0 0 1-2.881-5.295l1.357-2.314a.872.872 0 0 1 .46.385l2.234 3.809a3.5 3.5 0 0 1 .192 3.2zm0 0" class="cls-2" transform="translate(-378.85 -1.087)"/>
        <path id="Path_14239" d="M44.665 107.218a3.078 3.078 0 0 1-.831.139h-.216a3.11 3.11 0 0 1-2.552-4.689l1.056-1.8a.779.779 0 0 1 .329.308l1.979 3.373a3.1 3.1 0 0 1 .235 2.669zm0 0" class="cls-2" transform="translate(-38.678 -96.014)"/>
    </g>
</svg>
