<svg xmlns="http://www.w3.org/2000/svg" id="football-ball" width="27.764" height="27.764" viewBox="0 0 27.764 27.764">
    <defs>
        <style>
            .cls-1{fill:#f6f9f9}.cls-2{fill:#135772}.cls-3{fill:#ececef}.cls-5{fill:#093f61}
        </style>
    </defs>
    <path id="Path_14160" d="M255.766 290.371l5.155-3.745 4.694 1.554 1.218 5.155a14.1 14.1 0 0 1-1.251 1.433 13.828 13.828 0 0 1-5.289 3.313l-4.528-2.789z" class="cls-1" transform="translate(-241.884 -271.069)"/>
    <path id="Path_14161" d="M165.947 184.782l-5.155-3.745 1.969-6.06h6.372l1.969 6.06z" class="cls-2" transform="translate(-152.065 -165.48)"/>
    <path id="Path_14162" d="M57.945 286.625l5.155 3.745v4.92l-4.518 2.792a13.827 13.827 0 0 1-5.3-3.317 14.091 14.091 0 0 1-1.241-1.421l1.213-5.2z" class="cls-1" transform="translate(-49.217 -271.068)"/>
    <path id="Path_14163" d="M181.573 449.07a14 14 0 0 1-9.046 0l4.518-2.792z" class="cls-2" transform="translate(-163.163 -422.058)"/>
    <path id="Path_14164" d="M10.763 105.268l-1.969 6.06-4.694 1.517-4.03-3.505a13.77 13.77 0 0 1 2.521-7.676l5.306-.4z" class="cls-3" transform="translate(-.066 -95.771)"/>
    <path id="Path_14165" d="M153.5 9.5h-6.372l-2.866-4 2.019-4.9a14.035 14.035 0 0 1 8.07 0l2.055 4.923z" class="cls-1" transform="translate(-136.437)"/>
    <path id="Path_14166" d="M321.126 113.237l-4.694-1.554-1.969-6.06 2.907-3.98 5.28.4a13.771 13.771 0 0 1 2.506 7.683z" class="cls-3" transform="translate(-297.395 -96.126)"/>
    <g id="Group_7068" transform="translate(0 .592)">
        <path id="Path_14167" d="M2.825 258.717A13.777 13.777 0 0 1 0 250.322v-.313l4.034 3.5z" class="cls-2" transform="translate(0 -237.031)"/>
        <path id="Path_14168" d="M46.514 16.206a14.052 14.052 0 0 1 1.541-1.828 13.813 13.813 0 0 1 5.784-3.478l-2.019 4.9z" class="cls-2" transform="translate(-43.989 -10.904)"/>
        <path id="Path_14169" d="M337.489 16.252l-5.28-.4-2.055-4.924a13.813 13.813 0 0 1 5.779 3.473 14.048 14.048 0 0 1 1.556 1.851z" class="cls-2" transform="translate(-312.234 -10.929)"/>
        <path id="Path_14170" d="M441.248 250.537v.284a13.777 13.777 0 0 1-2.816 8.384l-1.218-5.155z" class="cls-2" transform="translate(-413.487 -237.531)"/>
    </g>
    <path id="Path_14171" d="M255.766 290.371l5.155-3.745 4.694 1.554 1.218 5.155a14.1 14.1 0 0 1-1.251 1.433 13.828 13.828 0 0 1-5.289 3.313l-4.528-2.789z" class="cls-3" transform="translate(-241.884 -271.069)"/>
    <path id="Path_14172" fill="#dddddf" d="M321.126 113.237l-4.694-1.554-1.969-6.06 2.907-3.98 5.28.4a13.771 13.771 0 0 1 2.506 7.683z" transform="translate(-297.395 -96.126)"/>
    <path id="Path_14173" d="M337.489 16.252l-5.28-.4-2.055-4.924a13.813 13.813 0 0 1 5.779 3.473 14.048 14.048 0 0 1 1.556 1.851z" class="cls-5" transform="translate(-312.234 -10.337)"/>
    <path id="Path_14174" d="M441.248 250.537v.284a13.777 13.777 0 0 1-2.816 8.384l-1.218-5.155z" class="cls-5" transform="translate(-413.487 -236.939)"/>
    <path id="Path_14175" d="M255.767 449.823a13.9 13.9 0 0 0 4.528-.753l-4.528-2.789z" class="cls-5" transform="translate(-241.885 -422.058)"/>
    <path id="Path_14176" d="M261.86 5.517L259.8.593A13.932 13.932 0 0 0 255.767 0v9.5h3.186z" class="cls-3" transform="translate(-241.885)"/>
    <path id="Path_14177" d="M258.953 174.977h-3.186v9.805l5.155-3.745z" class="cls-5" transform="translate(-241.885 -165.48)"/>
</svg>
