<svg xmlns="http://www.w3.org/2000/svg" width="22.32" height="28.108" viewBox="0 0 22.32 28.108">
    <defs>
        <style>
            .cls-6{fill:#ba6746}
        </style>
    </defs>
    <g id="walking-stick" transform="translate(-52.658 -.001)">
        <g id="Group_7083" transform="translate(63.681 13.338)">
            <path id="Path_14226" fill="#373c41" d="M264.064 257.479a.494.494 0 0 1-.4-.2L253.36 243.5a.495.495 0 0 1 .792-.592l10.308 13.781a.495.495 0 0 1-.4.791z" transform="translate(-253.261 -242.709)"/>
        </g>
        <g id="Group_7084" transform="translate(57.474 6.13)">
            <path id="Path_14227" fill="#8e4b33" d="M148.462 118.4l-4.2-1.058a1.122 1.122 0 0 1-.574-.353l-3.112-3.585a1.123 1.123 0 0 1 1.7-1.473l2.88 3.318 3.86.971a1.123 1.123 0 0 1-.548 2.178z" transform="translate(-140.299 -111.545)"/>
        </g>
        <g id="Group_7085" transform="translate(52.658 14.353)">
            <path id="Path_14228" fill="#748488" d="M53.439 274.823a1.348 1.348 0 0 1-.656-1.79l2.626-5.663-.254-4.794s.552-1.344 1.3-1.381a1.348 1.348 0 0 1 1.413 1.279l.254 5.094a1.347 1.347 0 0 1-.123.634l-2.766 5.965a1.348 1.348 0 0 1-1.794.656z" transform="translate(-52.658 -261.193)"/>
        </g>
        <g id="Group_7086" transform="translate(58.211 13.483)">
            <path id="Path_14229" fill="#55696e" d="M156.075 258.748l-.566-6.483-1.726-5.134a1.348 1.348 0 1 1 2.555-.859l1.777 5.286a1.346 1.346 0 0 1 .065.312l.58 6.643a1.348 1.348 0 0 1-2.685.234z" transform="translate(-153.712 -245.354)"/>
        </g>
        <path id="Path_14230" fill="#ffda52" d="M103.395 103.42l-2.959-.2a1.663 1.663 0 0 0-1.77 1.548l-.569 8.512 6.277.42.569-8.512a1.663 1.663 0 0 0-1.548-1.768z" transform="translate(-42.942 -97.546)"/>
        <path id="Path_14231" d="M135.506.006a2.461 2.461 0 1 0 2.292 2.62 2.461 2.461 0 0 0-2.292-2.62z" class="cls-6" transform="translate(-75.815)"/>
        <g id="Group_7087" transform="translate(58.401 9.317)">
            <path id="Path_14232" d="M162.152 175.233l-3.889-2.393a1.123 1.123 0 0 1-.472-.587l-.622-1.785.923-.937 1.242.324.446 1.281 3.548 2.183a1.123 1.123 0 0 1-1.177 1.913z" class="cls-6" transform="translate(-157.169 -169.532)"/>
        </g>
        <g id="Group_7088" transform="translate(57.423 6.133)">
            <path id="Path_14233" fill="#f2c41b" d="M142.518 115.111l-.959-2.753a1.123 1.123 0 0 0-2.121.739l.915 2.627z" transform="translate(-139.375 -111.604)"/>
        </g>
    </g>
</svg>
