<svg width="18" height="14" viewBox="0 0 18 14" fill="none" xmlns="http://www.w3.org/2000/svg">
<path d="M16.7612 0.820312H0.505619C0.37152 0.820313 0.242914 0.873585 0.148092 0.968407C0.0532704 1.06323 0 1.19183 0 1.32593L0 12.4579C0 12.592 0.0532704 12.7206 0.148092 12.8154C0.242914 12.9102 0.37152 12.9635 0.505619 12.9635H16.7612C16.8953 12.9635 17.0239 12.9102 17.1187 12.8154C17.2136 12.7206 17.2668 12.592 17.2668 12.4579V1.32593C17.2668 1.19183 17.2136 1.06323 17.1187 0.968407C17.0239 0.873585 16.8953 0.820313 16.7612 0.820312Z" fill="#B9DCFF"/>
<path d="M16.7589 0.820312H8.63281V12.9635H16.7589C16.893 12.9635 17.0216 12.9102 17.1164 12.8154C17.2112 12.7206 17.2645 12.592 17.2645 12.4579V1.32593C17.2645 1.19183 17.2112 1.06323 17.1164 0.968407C17.0216 0.873585 16.893 0.820313 16.7589 0.820312Z" fill="#6A9CFF"/>
<path d="M12.9215 10.5195H10.6848C10.6176 10.5195 10.5533 10.5462 10.5058 10.5937C10.4583 10.6412 10.4316 10.7056 10.4316 10.7727V13.2069C10.4317 13.2988 10.4572 13.3889 10.5054 13.4671C10.5535 13.5454 10.6224 13.6088 10.7043 13.6503C10.7863 13.6918 10.8782 13.7097 10.9698 13.7022C11.0613 13.6946 11.149 13.6619 11.2231 13.6075L11.8031 13.1819L12.3832 13.6075C12.4573 13.6619 12.5449 13.6946 12.6365 13.7022C12.7281 13.7097 12.8199 13.6918 12.9019 13.6503C12.9839 13.6088 13.0528 13.5454 13.1009 13.4671C13.1491 13.3889 13.1746 13.2988 13.1746 13.2069V10.7727C13.1746 10.7056 13.148 10.6412 13.1005 10.5937C13.053 10.5462 12.9886 10.5195 12.9215 10.5195Z" fill="#4178E6"/>
<path d="M2.19092 11.7836C1.92284 11.7833 1.66584 11.6766 1.47628 11.487C1.28672 11.2975 1.18006 11.0405 1.17969 10.7724V1.01124C1.18006 0.743155 1.28672 0.486156 1.47628 0.296592C1.66584 0.107028 1.92284 0.000367995 2.19092 0H15.072C15.3401 0.000367995 15.5971 0.107028 15.7867 0.296592C15.9762 0.486156 16.0829 0.743155 16.0833 1.01124V10.7724C16.0829 11.0405 15.9762 11.2975 15.7867 11.487C15.5971 11.6766 15.3401 11.7833 15.072 11.7836H2.19092Z" fill="#DEEFFF"/>
<path d="M15.073 11.7836C15.3411 11.7833 15.5981 11.6766 15.7877 11.487C15.9772 11.2975 16.0839 11.0405 16.0842 10.7724V1.01124C16.0839 0.743155 15.9772 0.486156 15.7877 0.296592C15.5981 0.107028 15.3411 0.000367995 15.073 0H8.63281V11.7843H15.073V11.7836Z" fill="#B9DCFF"/>
<path d="M13.8905 3.3628H10.822C10.6879 3.3628 10.5593 3.30953 10.4645 3.21471C10.3697 3.11989 10.3164 2.99128 10.3164 2.85718C10.3164 2.72309 10.3697 2.59448 10.4645 2.49966C10.5593 2.40483 10.6879 2.35156 10.822 2.35156H13.8905C14.0246 2.35156 14.1532 2.40483 14.248 2.49966C14.3429 2.59448 14.3961 2.72309 14.3961 2.85718C14.3961 2.99128 14.3429 3.11989 14.248 3.21471C14.1532 3.30953 14.0246 3.3628 13.8905 3.3628Z" fill="#6A9CFF"/>
<path d="M13.8905 5.38623H10.822C10.6879 5.38623 10.5593 5.33297 10.4645 5.23815C10.3697 5.14333 10.3164 5.01472 10.3164 4.88062C10.3164 4.74652 10.3697 4.61792 10.4645 4.52309C10.5593 4.42827 10.6879 4.375 10.822 4.375H13.8905C14.0246 4.375 14.1532 4.42827 14.248 4.52309C14.3429 4.61792 14.3961 4.74652 14.3961 4.88062C14.3961 5.01472 14.3429 5.14333 14.248 5.23815C14.1532 5.33297 14.0246 5.38623 13.8905 5.38623Z" fill="#6A9CFF"/>
<path d="M13.8905 7.40967H10.822C10.6879 7.40967 10.5593 7.35641 10.4645 7.26159C10.3697 7.16677 10.3164 7.03816 10.3164 6.90406C10.3164 6.76996 10.3697 6.64135 10.4645 6.54653C10.5593 6.45171 10.6879 6.39844 10.822 6.39844H13.8905C14.0246 6.39844 14.1532 6.45171 14.248 6.54653C14.3429 6.64135 14.3961 6.76996 14.3961 6.90406C14.3961 7.03816 14.3429 7.16677 14.248 7.26159C14.1532 7.35641 14.0246 7.40967 13.8905 7.40967Z" fill="#6A9CFF"/>
<path d="M13.8905 9.43312H10.822C10.6879 9.43312 10.5593 9.37984 10.4645 9.28501C10.3697 9.19019 10.3164 9.06158 10.3164 8.92749C10.3164 8.79339 10.3697 8.66478 10.4645 8.56996C10.5593 8.47514 10.6879 8.42188 10.822 8.42188H13.8905C14.0246 8.42188 14.1532 8.47514 14.248 8.56996C14.3429 8.66478 14.3961 8.79339 14.3961 8.92749C14.3961 9.06158 14.3429 9.19019 14.248 9.28501C14.1532 9.37984 14.0246 9.43312 13.8905 9.43312Z" fill="#6A9CFF"/>
<path d="M6.43934 3.3628H3.37085C3.23675 3.3628 3.10815 3.30953 3.01333 3.21471C2.91851 3.11989 2.86523 2.99128 2.86523 2.85718C2.86523 2.72309 2.91851 2.59448 3.01333 2.49966C3.10815 2.40483 3.23675 2.35156 3.37085 2.35156H6.43934C6.57344 2.35156 6.70204 2.40483 6.79687 2.49966C6.89169 2.59448 6.94496 2.72309 6.94496 2.85718C6.94496 2.99128 6.89169 3.11989 6.79687 3.21471C6.70204 3.30953 6.57344 3.3628 6.43934 3.3628Z" fill="#6A9CFF"/>
<path d="M6.43934 5.38623H3.37085C3.23675 5.38623 3.10815 5.33297 3.01333 5.23815C2.91851 5.14333 2.86523 5.01472 2.86523 4.88062C2.86523 4.74652 2.91851 4.61792 3.01333 4.52309C3.10815 4.42827 3.23675 4.375 3.37085 4.375H6.43934C6.57344 4.375 6.70204 4.42827 6.79687 4.52309C6.89169 4.61792 6.94496 4.74652 6.94496 4.88062C6.94496 5.01472 6.89169 5.14333 6.79687 5.23815C6.70204 5.33297 6.57344 5.38623 6.43934 5.38623Z" fill="#6A9CFF"/>
<path d="M6.43934 7.40967H3.37085C3.23675 7.40967 3.10815 7.35641 3.01333 7.26159C2.91851 7.16677 2.86523 7.03816 2.86523 6.90406C2.86523 6.76996 2.91851 6.64135 3.01333 6.54653C3.10815 6.45171 3.23675 6.39844 3.37085 6.39844H6.43934C6.57344 6.39844 6.70204 6.45171 6.79687 6.54653C6.89169 6.64135 6.94496 6.76996 6.94496 6.90406C6.94496 7.03816 6.89169 7.16677 6.79687 7.26159C6.70204 7.35641 6.57344 7.40967 6.43934 7.40967Z" fill="#6A9CFF"/>
<path d="M6.43934 9.43312H3.37085C3.23675 9.43312 3.10815 9.37984 3.01333 9.28501C2.91851 9.19019 2.86523 9.06158 2.86523 8.92749C2.86523 8.79339 2.91851 8.66478 3.01333 8.56996C3.10815 8.47514 3.23675 8.42188 3.37085 8.42188H6.43934C6.57344 8.42188 6.70204 8.47514 6.79687 8.56996C6.89169 8.66478 6.94496 8.79339 6.94496 8.92749C6.94496 9.06158 6.89169 9.19019 6.79687 9.28501C6.70204 9.37984 6.57344 9.43312 6.43934 9.43312Z" fill="#6A9CFF"/>
</svg>
