<svg xmlns="http://www.w3.org/2000/svg" width="24.762" height="24.762" viewBox="0 0 24.762 24.762">
    <defs>
        <style>
            .cls-1{fill:#6a9923}.cls-2{fill:#f2bb80}.cls-3{fill:#88b337}.cls-4{fill:#e8a16d}
        </style>
    </defs>
    <g id="ecology" transform="translate(0 -.003)">
        <g id="Group_7081" transform="translate(12.381 .003)">
            <path id="Path_14215" d="M232.854 204.272H232a4.269 4.269 0 0 1 4.269-4.272h.854a4.269 4.269 0 0 1-4.269 4.272z" class="cls-1" transform="translate(-232 -189.33)"/>
            <path id="Path_14216" d="M232.854 92.272H232A4.269 4.269 0 0 1 236.269 88h.854a4.269 4.269 0 0 1-4.269 4.272z" class="cls-1" transform="translate(-232 -83.307)"/>
            <path id="Path_14217" d="M232 2.991h.854A2.988 2.988 0 0 0 235.842 0h-.854A2.988 2.988 0 0 0 232 2.991z" class="cls-1" transform="translate(-232 -.003)"/>
        </g>
        <path id="Path_14218" d="M7.284 106.967l-.026-.015-2.994-3.327a1.2 1.2 0 0 0-1.7-.087l-.007.006v-6.221a1.329 1.329 0 0 0-1.208-1.353A1.281 1.281 0 0 0 0 97.18v8.151a3.411 3.411 0 0 0 .43 1.659l3.839 6.91v1.708h5.977v-3.533a5.886 5.886 0 0 0-2.962-5.108z" class="cls-2" transform="translate(0 -90.844)"/>
        <g id="Group_7082" transform="translate(7.258 .003)">
            <path id="Path_14219" d="M224.427 57.08a.427.427 0 0 1-.427-.427V40.43a.427.427 0 1 1 .854 0v16.223a.427.427 0 0 1-.427.427z" class="cls-3" transform="translate(-219.304 -37.868)"/>
            <path id="Path_14220" d="M136 200h.854a4.269 4.269 0 0 1 4.269 4.269h-.854A4.269 4.269 0 0 1 136 200z" class="cls-3" transform="translate(-136 -189.33)"/>
            <path id="Path_14221" d="M136 88h.854a4.269 4.269 0 0 1 4.269 4.269h-.854A4.269 4.269 0 0 1 136 88z" class="cls-3" transform="translate(-136 -83.307)"/>
            <path id="Path_14222" d="M163.842 2.991h-.854A2.988 2.988 0 0 1 160 0h.854a2.988 2.988 0 0 1 2.988 2.991z" class="cls-3" transform="translate(-158.719 -.003)"/>
        </g>
        <path id="Path_14223" d="M36.225 237.057a.427.427 0 0 1-.316-.14l-3.5-3.847a1.628 1.628 0 0 1 .053-2.249.427.427 0 0 1 .6.6.776.776 0 0 0-.025 1.071l3.5 3.847a.427.427 0 0 1-.315.714z" class="cls-4" transform="translate(-30.28 -218.387)"/>
        <path id="Path_14224" d="M272 112.075v3.533h5.977V113.9l3.839-6.911a3.411 3.411 0 0 0 .43-1.659v-8.007a1.329 1.329 0 0 0-1.212-1.353 1.281 1.281 0 0 0-1.348 1.21v6.366a1.2 1.2 0 0 0-1.7.074l-.006.007-2.994 3.327-.026.015a5.886 5.886 0 0 0-2.96 5.106z" class="cls-2" transform="translate(-257.485 -90.844)"/>
        <path id="Path_14225" d="M345.023 237.057a.427.427 0 0 0 .316-.14l3.5-3.847a1.628 1.628 0 0 0-.053-2.249.427.427 0 0 0-.6.6.776.776 0 0 1 .025 1.071l-3.5 3.847a.427.427 0 0 0 .315.714z" class="cls-4" transform="translate(-326.207 -218.387)"/>
    </g>
</svg>
