<svg width="26" height="26" viewBox="0 0 26 26" fill="none" xmlns="http://www.w3.org/2000/svg">
<path d="M15.0877 10.1451L15.0877 22.4983C15.0874 22.8723 14.9977 23.2408 14.8262 23.5731C14.6547 23.9054 14.4063 24.192 14.1016 24.4089C13.797 24.6258 13.445 24.7669 13.0748 24.8202C12.7047 24.8736 12.3271 24.8378 11.9736 24.7158C11.9736 24.7158 11.9736 24.7158 11.9736 24.7158C12.4291 24.5529 12.8233 24.2533 13.102 23.8579C13.3807 23.4625 13.5304 22.9906 13.5306 22.5068V10.1536L13.5264 10.1494L15.0877 10.1451Z" fill="#6A9CFF"/>
<path d="M17.172 7.17013C17.172 9.90522 17.1515 12.122 12.742 12.122C8.33244 12.122 8.31193 9.90522 8.31193 7.17013C8.31193 4.43504 9.01904 2.22038 12.742 2.21826C16.4649 2.21614 17.1699 4.43858 17.172 7.17013Z" fill="#B9DCFF"/>
<path d="M12.7417 2.21826C12.4588 2.21826 12.2 2.23099 11.9539 2.25504C14.9917 2.55344 15.5977 4.6401 15.597 7.17083C15.597 9.73197 15.5786 11.8392 11.954 12.0965C12.1996 12.114 12.4619 12.1227 12.741 12.1227C17.1505 12.1227 17.171 9.90592 17.171 7.17083C17.171 4.43574 16.4639 2.22109 12.741 2.21897L12.7417 2.21826Z" fill="#6A9CFF"/>
<path d="M10.84 6.73234C10.7651 6.73248 10.6919 6.75481 10.6297 6.79651C10.5674 6.83821 10.519 6.89742 10.4904 6.96664C10.4618 7.03587 10.4543 7.11198 10.469 7.18543C10.4836 7.25889 10.5197 7.32636 10.5727 7.37932C10.6256 7.43228 10.6931 7.46836 10.7666 7.48301C10.84 7.49766 10.9161 7.49022 10.9854 7.46163C11.0546 7.43303 11.1138 7.38457 11.1555 7.32235C11.1972 7.26014 11.2195 7.18694 11.2197 7.11204C11.2198 7.06215 11.21 7.01274 11.191 6.96663C11.1719 6.92052 11.1439 6.87862 11.1087 6.84334C11.0734 6.80806 11.0315 6.7801 10.9854 6.76105C10.9393 6.742 10.8899 6.73224 10.84 6.73234Z" fill="#4178E6"/>
<path d="M12.7384 6.73429C12.6635 6.73443 12.5903 6.75674 12.5281 6.79844C12.4659 6.84014 12.4174 6.89935 12.3888 6.96857C12.3602 7.0378 12.3528 7.11393 12.3674 7.18739C12.3821 7.26084 12.4182 7.32831 12.4711 7.38128C12.5241 7.43424 12.5916 7.47032 12.665 7.48496C12.7385 7.49961 12.8146 7.49215 12.8838 7.46356C12.953 7.43496 13.0123 7.3865 13.054 7.32429C13.0957 7.26207 13.118 7.18889 13.1181 7.114C13.1182 7.0641 13.1084 7.0147 13.0894 6.96858C13.0703 6.92247 13.0424 6.88057 13.0071 6.84529C12.9718 6.81001 12.9299 6.78205 12.8838 6.763C12.8377 6.74395 12.7883 6.73419 12.7384 6.73429Z" fill="#4178E6"/>
<path d="M14.6349 6.73428C14.56 6.73442 14.4868 6.75675 14.4246 6.79845C14.3624 6.84015 14.3139 6.89934 14.2853 6.96857C14.2567 7.03779 14.2493 7.11394 14.2639 7.18739C14.2786 7.26084 14.3146 7.32832 14.3676 7.38128C14.4206 7.43424 14.488 7.47031 14.5615 7.48496C14.6349 7.4996 14.7111 7.49216 14.7803 7.46356C14.8495 7.43496 14.9087 7.38649 14.9504 7.32428C14.9921 7.26206 15.0145 7.1889 15.0146 7.114C15.0147 7.06411 15.0049 7.01467 14.9859 6.96855C14.9668 6.92244 14.9389 6.88057 14.9036 6.84529C14.8683 6.81002 14.8264 6.78203 14.7803 6.76298C14.7342 6.74393 14.6848 6.73419 14.6349 6.73428Z" fill="#4178E6"/>
<path d="M13.6744 3.56923C13.5992 3.56917 13.5257 3.59143 13.4632 3.63316C13.4006 3.6749 13.3519 3.73421 13.3231 3.80366C13.2943 3.87311 13.2867 3.94956 13.3014 4.02329C13.316 4.09703 13.3523 4.16476 13.4054 4.21792C13.4586 4.27108 13.5263 4.3073 13.6 4.32195C13.6738 4.3366 13.7502 4.32904 13.8197 4.30024C13.8891 4.27145 13.9484 4.22271 13.9902 4.16017C14.0319 4.09764 14.0542 4.02411 14.0541 3.94893C14.054 3.84825 14.014 3.75173 13.9428 3.68053C13.8716 3.60934 13.7751 3.5693 13.6744 3.56923Z" fill="#4178E6"/>
<path d="M11.8048 3.56827C11.7299 3.56841 11.6567 3.59075 11.5945 3.63245C11.5323 3.67415 11.4838 3.73335 11.4552 3.80258C11.4266 3.8718 11.4192 3.94794 11.4338 4.02139C11.4485 4.09485 11.4846 4.1623 11.5375 4.21526C11.5905 4.26822 11.6579 4.30432 11.7314 4.31897C11.8048 4.33361 11.881 4.32616 11.9502 4.29756C12.0194 4.26897 12.0786 4.2205 12.1203 4.15829C12.162 4.09607 12.1844 4.02288 12.1845 3.94798C12.1846 3.89809 12.1748 3.84868 12.1558 3.80256C12.1367 3.75645 12.1088 3.71455 12.0735 3.67927C12.0382 3.64399 11.9963 3.61603 11.9502 3.59699C11.9041 3.57794 11.8547 3.56817 11.8048 3.56827Z" fill="#4178E6"/>
<path d="M13.6724 9.8993C13.5973 9.89924 13.5238 9.92148 13.4612 9.96322C13.3987 10.005 13.3499 10.0643 13.3211 10.1337C13.2924 10.2032 13.2848 10.2796 13.2995 10.3534C13.3141 10.4271 13.3503 10.4948 13.4035 10.548C13.4566 10.6012 13.5244 10.6374 13.5981 10.652C13.6718 10.6667 13.7483 10.6591 13.8177 10.6303C13.8872 10.6015 13.9465 10.5528 13.9882 10.4902C14.03 10.4277 14.0522 10.3542 14.0522 10.279C14.0521 10.1783 14.0121 10.0818 13.9409 10.0106C13.8697 9.93939 13.7731 9.89938 13.6724 9.8993Z" fill="#4178E6"/>
<path d="M11.8033 9.8993C11.7281 9.89924 11.6546 9.92148 11.5921 9.96322C11.5296 10.005 11.4808 10.0643 11.452 10.1337C11.4232 10.2032 11.4157 10.2796 11.4303 10.3534C11.445 10.4271 11.4812 10.4948 11.5343 10.548C11.5875 10.6012 11.6552 10.6374 11.729 10.652C11.8027 10.6667 11.8791 10.6591 11.9486 10.6303C12.018 10.6015 12.0774 10.5528 12.1191 10.4902C12.1608 10.4277 12.1831 10.3542 12.183 10.279C12.1829 10.1783 12.1429 10.0818 12.0717 10.0106C12.0005 9.93939 11.904 9.89938 11.8033 9.8993Z" fill="#4178E6"/>
<path d="M10.84 4.42764C10.7651 4.42779 10.6919 4.4501 10.6297 4.4918C10.5675 4.5335 10.519 4.59271 10.4904 4.66193C10.4618 4.73115 10.4544 4.8073 10.469 4.88075C10.4836 4.9542 10.5197 5.02168 10.5727 5.07464C10.6256 5.1276 10.6931 5.16367 10.7666 5.17832C10.84 5.19297 10.9162 5.18552 10.9854 5.15692C11.0546 5.12833 11.1138 5.07986 11.1555 5.01764C11.1972 4.95542 11.2195 4.88226 11.2197 4.80736C11.2198 4.75747 11.21 4.70806 11.191 4.66195C11.1719 4.61583 11.1439 4.57393 11.1087 4.53865C11.0734 4.50337 11.0315 4.47541 10.9854 4.45636C10.9393 4.43731 10.8898 4.42755 10.84 4.42764Z" fill="#4178E6"/>
<path d="M12.7369 4.42858C12.6617 4.42852 12.5882 4.45078 12.5257 4.49252C12.4631 4.53425 12.4144 4.5936 12.3856 4.66304C12.3568 4.73249 12.3493 4.80892 12.3639 4.88266C12.3786 4.9564 12.4148 5.02413 12.4679 5.07729C12.5211 5.13045 12.5888 5.16665 12.6626 5.1813C12.7363 5.19595 12.8127 5.18841 12.8822 5.15961C12.9516 5.13082 13.011 5.08207 13.0527 5.01953C13.0944 4.957 13.1167 4.88348 13.1166 4.80829C13.1166 4.70761 13.0765 4.61108 13.0053 4.53988C12.9341 4.46869 12.8376 4.42865 12.7369 4.42858Z" fill="#4178E6"/>
<path d="M14.6349 4.42569C14.56 4.42583 14.4868 4.44817 14.4246 4.48987C14.3624 4.53157 14.3139 4.59075 14.2853 4.65997C14.2567 4.7292 14.2493 4.80534 14.2639 4.8788C14.2786 4.95225 14.3146 5.01972 14.3676 5.07268C14.4206 5.12565 14.488 5.16172 14.5615 5.17636C14.6349 5.19101 14.7111 5.18356 14.7803 5.15497C14.8495 5.12637 14.9087 5.07793 14.9504 5.01572C14.9921 4.9535 15.0145 4.8803 15.0146 4.8054C15.0147 4.75551 15.0049 4.70611 14.9859 4.65999C14.9668 4.61388 14.9389 4.57198 14.9036 4.5367C14.8683 4.50142 14.8264 4.47346 14.7803 4.45441C14.7342 4.43536 14.6848 4.42559 14.6349 4.42569Z" fill="#4178E6"/>
<path d="M10.838 9.04288C10.7631 9.04302 10.6899 9.06534 10.6277 9.10704C10.5655 9.14874 10.517 9.20794 10.4884 9.27717C10.4599 9.34639 10.4524 9.42254 10.4671 9.49599C10.4817 9.56944 10.5178 9.63691 10.5707 9.68987C10.6237 9.74283 10.6912 9.77891 10.7646 9.79356C10.8381 9.8082 10.9142 9.80076 10.9834 9.77216C11.0527 9.74356 11.1119 9.6951 11.1536 9.63288C11.1953 9.57066 11.2176 9.49749 11.2177 9.42259C11.2178 9.3727 11.2081 9.32329 11.189 9.27718C11.17 9.23107 11.142 9.18916 11.1067 9.15389C11.0714 9.11861 11.0295 9.09064 10.9834 9.07159C10.9373 9.05254 10.8879 9.04279 10.838 9.04288Z" fill="#4178E6"/>
<path d="M12.7389 9.03993C12.6637 9.03987 12.5901 9.06213 12.5276 9.10386C12.4651 9.1456 12.4164 9.20493 12.3876 9.27437C12.3588 9.34382 12.3512 9.42027 12.3658 9.49401C12.3805 9.56774 12.4167 9.63547 12.4699 9.68863C12.523 9.74179 12.5908 9.778 12.6645 9.79265C12.7382 9.8073 12.8147 9.79974 12.8841 9.77094C12.9536 9.74215 13.0129 9.69342 13.0546 9.63088C13.0964 9.56835 13.1186 9.49482 13.1186 9.41964C13.1185 9.31896 13.0785 9.22244 13.0073 9.15124C12.9361 9.08005 12.8395 9.04 12.7389 9.03993Z" fill="#4178E6"/>
<path d="M14.6349 9.04092C14.56 9.04106 14.4868 9.06339 14.4246 9.10509C14.3624 9.14679 14.3139 9.20598 14.2853 9.27521C14.2567 9.34443 14.2493 9.42058 14.2639 9.49403C14.2786 9.56748 14.3146 9.63496 14.3676 9.68792C14.4206 9.74088 14.488 9.77695 14.5615 9.7916C14.6349 9.80624 14.7111 9.7988 14.7803 9.7702C14.8495 9.7416 14.9087 9.69313 14.9504 9.63092C14.9921 9.5687 15.0145 9.49554 15.0146 9.42064C15.0147 9.37075 15.0049 9.32134 14.9859 9.27523C14.9668 9.22912 14.9389 9.18721 14.9036 9.15194C14.8683 9.11666 14.8264 9.08869 14.7803 9.06964C14.7342 9.05059 14.6848 9.04083 14.6349 9.04092Z" fill="#4178E6"/>
<path d="M13.6739 5.60147C13.599 5.60161 13.5259 5.62393 13.4637 5.66563C13.4014 5.70733 13.353 5.76653 13.3244 5.83575C13.2958 5.90498 13.2883 5.98112 13.303 6.05458C13.3176 6.12803 13.3537 6.19551 13.4067 6.24847C13.4596 6.30143 13.5271 6.3375 13.6005 6.35214C13.674 6.36679 13.7501 6.35934 13.8194 6.33075C13.8886 6.30215 13.9478 6.25369 13.9895 6.19148C14.0312 6.12926 14.0535 6.05608 14.0537 5.98119C14.0538 5.93129 14.044 5.88189 14.0249 5.83577C14.0059 5.78966 13.9779 5.74776 13.9427 5.71248C13.9074 5.6772 13.8655 5.64924 13.8194 5.63019C13.7732 5.61114 13.7238 5.60137 13.6739 5.60147Z" fill="#4178E6"/>
<path d="M15.5982 5.60047C15.523 5.60042 15.4495 5.62266 15.387 5.66439C15.3245 5.70612 15.2757 5.76547 15.2469 5.83492C15.2181 5.90437 15.2106 5.98079 15.2252 6.05453C15.2399 6.12827 15.2761 6.19601 15.3293 6.24918C15.3824 6.30234 15.4501 6.33852 15.5239 6.35318C15.5976 6.36783 15.6741 6.36029 15.7435 6.33149C15.8129 6.30269 15.8723 6.25394 15.914 6.19141C15.9558 6.12887 15.978 6.05537 15.9779 5.98019C15.9779 5.87951 15.9378 5.78298 15.8666 5.71179C15.7954 5.64059 15.6989 5.60055 15.5982 5.60047Z" fill="#4178E6"/>
<path d="M9.88145 5.60045C9.80627 5.6004 9.73275 5.62266 9.67021 5.66439C9.60768 5.70612 9.55892 5.76547 9.53013 5.83492C9.50133 5.90436 9.49379 5.98079 9.50844 6.05453C9.52309 6.12827 9.55929 6.196 9.61245 6.24917C9.66561 6.30233 9.73335 6.33852 9.80709 6.35318C9.88083 6.36783 9.95726 6.36029 10.0267 6.33149C10.0962 6.30269 10.1555 6.25394 10.1972 6.1914C10.239 6.12887 10.2612 6.05535 10.2612 5.98017C10.2611 5.87948 10.221 5.78295 10.1499 5.71176C10.0787 5.64056 9.98214 5.60053 9.88145 5.60045Z" fill="#4178E6"/>
<path d="M11.8048 5.60147C11.7299 5.60161 11.6567 5.62393 11.5945 5.66563C11.5323 5.70733 11.4838 5.76653 11.4552 5.83575C11.4266 5.90498 11.4192 5.98112 11.4338 6.05458C11.4485 6.12803 11.4846 6.19551 11.5375 6.24847C11.5905 6.30143 11.658 6.3375 11.7314 6.35214C11.8049 6.36679 11.881 6.35934 11.9502 6.33075C12.0195 6.30215 12.0787 6.25368 12.1203 6.19146C12.162 6.12925 12.1844 6.05608 12.1845 5.98119C12.1846 5.93129 12.1749 5.88189 12.1558 5.83577C12.1368 5.78966 12.1088 5.74776 12.0735 5.71248C12.0382 5.6772 11.9963 5.64924 11.9502 5.63019C11.9041 5.61114 11.8547 5.60137 11.8048 5.60147Z" fill="#4178E6"/>
<path d="M13.6739 7.86709C13.599 7.86723 13.5259 7.88956 13.4637 7.93126C13.4014 7.97296 13.353 8.03215 13.3244 8.10138C13.2958 8.1706 13.2883 8.24675 13.303 8.3202C13.3176 8.39365 13.3537 8.46113 13.4067 8.51409C13.4596 8.56705 13.5271 8.60312 13.6005 8.61777C13.674 8.63241 13.7501 8.62497 13.8194 8.59637C13.8886 8.56778 13.9478 8.51932 13.9895 8.4571C14.0312 8.39488 14.0535 8.32171 14.0537 8.24681C14.0538 8.19692 14.044 8.14751 14.0249 8.1014C14.0059 8.05529 13.9779 8.01339 13.9427 7.97811C13.9074 7.94283 13.8655 7.91486 13.8194 7.89581C13.7732 7.87677 13.7238 7.867 13.6739 7.86709Z" fill="#4178E6"/>
<path d="M15.5982 7.8661C15.523 7.86604 15.4495 7.88828 15.387 7.93002C15.3245 7.97175 15.2757 8.0311 15.2469 8.10054C15.2181 8.16999 15.2106 8.24642 15.2252 8.32016C15.2399 8.3939 15.2761 8.46164 15.3293 8.5148C15.3824 8.56796 15.4501 8.60415 15.5239 8.6188C15.5976 8.63345 15.6741 8.62591 15.7435 8.59711C15.8129 8.56832 15.8723 8.51957 15.914 8.45703C15.9558 8.3945 15.978 8.321 15.9779 8.24582C15.9779 8.14513 15.9378 8.04861 15.8666 7.97741C15.7954 7.90622 15.6989 7.86617 15.5982 7.8661Z" fill="#4178E6"/>
<path d="M9.88097 7.86905C9.80607 7.86919 9.73291 7.89151 9.67069 7.93321C9.60847 7.97491 9.56 8.03411 9.53141 8.10333C9.50281 8.17256 9.49537 8.2487 9.51001 8.32216C9.52466 8.39561 9.56073 8.46307 9.61369 8.51603C9.66665 8.56899 9.73413 8.60507 9.80758 8.61972C9.88103 8.63437 9.95718 8.62692 10.0264 8.59833C10.0956 8.56973 10.1548 8.52126 10.1965 8.45904C10.2382 8.39683 10.2605 8.32366 10.2607 8.24876C10.2608 8.19887 10.251 8.14945 10.232 8.10334C10.2129 8.05723 10.185 8.01533 10.1497 7.98005C10.1144 7.94477 10.0725 7.91682 10.0264 7.89777C9.98028 7.87872 9.93086 7.86895 9.88097 7.86905Z" fill="#4178E6"/>
<path d="M11.8068 7.86905C11.7319 7.86919 11.6587 7.89153 11.5965 7.93323C11.5342 7.97493 11.4858 8.03411 11.4572 8.10333C11.4286 8.17256 11.4211 8.2487 11.4358 8.32216C11.4504 8.39561 11.4865 8.46308 11.5395 8.51604C11.5924 8.56901 11.6599 8.60507 11.7334 8.61972C11.8068 8.63437 11.883 8.62692 11.9522 8.59833C12.0214 8.56973 12.0806 8.52129 12.1223 8.45908C12.164 8.39686 12.1863 8.32366 12.1865 8.24876C12.1866 8.19887 12.1768 8.14946 12.1578 8.10335C12.1387 8.05724 12.1107 8.01534 12.0755 7.98006C12.0402 7.94478 11.9983 7.91682 11.9522 7.89777C11.9061 7.87872 11.8566 7.86895 11.8068 7.86905Z" fill="#4178E6"/>
<path d="M9.62868 11.4455L10.3782 12.8626L15.0847 12.8626L15.8491 11.4463L9.62868 11.4455Z" fill="#A9C6FF"/>
<path d="M13.5237 12.8616L14.3262 11.4452H15.8508L15.0864 12.8616L13.5237 12.8616Z" fill="#4178E6"/>
</svg>
