<svg width="21" height="18" viewBox="0 0 21 18" fill="none" xmlns="http://www.w3.org/2000/svg">
<path d="M13.3186 0H6.93085C3.10301 0 0 3.10301 0 6.93085C0 9.69981 1.62396 12.0894 3.97119 13.1996C4.91378 13.6455 5.51841 14.591 5.51841 15.6337V17.1206C5.51841 17.6859 6.24896 17.9112 6.56714 17.4442L8.20906 15.0361C8.71014 14.3014 9.54189 13.8617 10.4311 13.8617H13.3186C17.1465 13.8617 20.2495 10.7587 20.2495 6.93085C20.2492 3.10301 17.1462 0 13.3186 0Z" fill="#DCEDFF"/>
<path d="M6.61969 13.1996C4.27247 12.0894 2.6485 9.69981 2.6485 6.93085C2.6485 3.10301 5.75152 0 9.57936 0H6.93085C3.10301 0 0 3.10301 0 6.93085C0 9.69981 1.6237 12.0894 3.97093 13.1996C4.91378 13.6455 5.51815 14.591 5.51815 15.6337V17.1206C5.51815 17.6859 6.2487 17.9112 6.56714 17.4442L8.1232 15.1618C7.97126 14.3126 7.41737 13.5768 6.61969 13.1996Z" fill="#6A9CFF" fill-opacity="0.76"/>
<path d="M7.71304 7.06271C7.71304 7.76932 7.14041 8.34221 6.4338 8.34221C5.72719 8.34221 5.1543 7.76932 5.1543 7.06271C5.1543 6.35609 5.72719 5.7832 6.4338 5.7832C7.14041 5.7832 7.71304 6.35609 7.71304 7.06271Z" fill="#4178E6"/>
<path d="M12.4047 7.06271C12.4047 7.76932 11.8318 8.34221 11.1252 8.34221C10.4186 8.34221 9.8457 7.76932 9.8457 7.06271C9.8457 6.35609 10.4186 5.7832 11.1252 5.7832C11.8318 5.7832 12.4047 6.35609 12.4047 7.06271Z" fill="#4178E6"/>
<path d="M17.0961 7.06271C17.0961 7.76932 16.5232 8.34221 15.8166 8.34221C15.11 8.34221 14.5371 7.76932 14.5371 7.06271C14.5371 6.35609 15.11 5.7832 15.8166 5.7832C16.5232 5.7832 17.0961 6.35609 17.0961 7.06271Z" fill="#4178E6"/>
</svg>
