<svg xmlns="http://www.w3.org/2000/svg" width="27.833" height="27.833" viewBox="0 0 27.833 27.833">
    <defs>
        <linearGradient id="zfvlmbve6a" x1=".854" x2=".146" y1=".146" y2=".854" gradientUnits="objectBoundingBox">
            <stop offset="0" stop-color="#3cf"/>
            <stop offset="1" stop-color="#337fff"/>
        </linearGradient>
    </defs>
    <circle cx="13.917" cy="13.917" r="13.917" fill="url(#zfvlmbve6a)"/>
    <path fill="#fff" d="M141.605 69.138a6.292 6.292 0 0 1-1.535.438c.247-.041.609-.488.755-.669a2.823 2.823 0 0 0 .509-.929c.013-.027.023-.06 0-.08a.088.088 0 0 0-.082.007 7.839 7.839 0 0 1-1.82.7.121.121 0 0 1-.126-.033 1.521 1.521 0 0 0-.159-.163 3.219 3.219 0 0 0-.881-.54 3.072 3.072 0 0 0-1.353-.218 3.222 3.222 0 0 0-1.283.363 3.3 3.3 0 0 0-1.035.845 3.172 3.172 0 0 0-.618 1.237 3.356 3.356 0 0 0-.033 1.307c.01.073 0 .083-.063.073a9.723 9.723 0 0 1-6.253-3.183c-.072-.084-.112-.084-.172.006a3.172 3.172 0 0 0 .541 3.747c.123.116.248.232.385.338a3.187 3.187 0 0 1-1.207-.338c-.073-.047-.109-.02-.116.063a1.847 1.847 0 0 0 .02.358 3.207 3.207 0 0 0 1.976 2.557 1.857 1.857 0 0 0 .4.123 3.565 3.565 0 0 1-1.183.036c-.087-.016-.119.027-.087.109a3.329 3.329 0 0 0 2.487 2.083c.112.02.226.02.339.047-.008.01-.014.01-.02.02a3.94 3.94 0 0 1-1.7.9 6.078 6.078 0 0 1-2.579.33c-.138-.02-.168-.019-.2 0s0 .057.039.092c.176.116.355.219.538.319a8.536 8.536 0 0 0 1.724.69 9.185 9.185 0 0 0 8.915-2.084 9.359 9.359 0 0 0 2.467-6.825c0-.1.116-.152.185-.2a6.058 6.058 0 0 0 1.214-1.262.387.387 0 0 0 .08-.242v-.013c-.007-.047-.008-.036-.069-.009z" transform="translate(-119.999 -59.99)"/>
</svg>
