<svg width="18" height="18" viewBox="0 0 18 18" fill="none" xmlns="http://www.w3.org/2000/svg">
<path d="M13.4211 1.57693V16.3663C13.4206 16.7844 13.2543 17.1852 12.9587 17.4808C12.663 17.7764 12.2623 17.9427 11.8442 17.9433H1.57693C1.15887 17.9427 0.75809 17.7764 0.462476 17.4808C0.166863 17.1852 0.000546604 16.7844 0 16.3663V1.57693C0.000546604 1.15887 0.166863 0.75809 0.462476 0.462476C0.75809 0.166863 1.15887 0.000546604 1.57693 0L11.8442 0C12.2623 0.000546604 12.663 0.166863 12.9587 0.462476C13.2543 0.75809 13.4206 1.15887 13.4211 1.57693Z" fill="#B9DCFF"/>
<path d="M11.1787 3.92454C11.1786 4.06383 11.1231 4.19737 11.0247 4.29586C10.9262 4.39436 10.7926 4.44977 10.6533 4.44996H2.80311C2.66367 4.44996 2.52993 4.39456 2.43134 4.29596C2.33274 4.19736 2.27734 4.06363 2.27734 3.92419C2.27734 3.78475 2.33274 3.65103 2.43134 3.55243C2.52993 3.45383 2.66367 3.39844 2.80311 3.39844H10.6533C10.7927 3.39862 10.9264 3.45413 11.0249 3.55277C11.1234 3.65141 11.1787 3.78513 11.1787 3.92454Z" fill="#85AEFF"/>
<path d="M11.1771 3.92581C11.1769 4.0651 11.1215 4.19863 11.023 4.29713C10.9245 4.39562 10.7909 4.45104 10.6516 4.45122H6.69141V3.40039H10.6516C10.7909 3.40057 10.9245 3.45599 11.023 3.55448C11.1215 3.65298 11.1769 3.78651 11.1771 3.92581Z" fill="#4F8AFF"/>
<path d="M9.49519 6.72923C9.49501 6.86853 9.43959 7.00206 9.3411 7.10056C9.2426 7.19905 9.10907 7.25447 8.96977 7.25465H2.80115C2.66171 7.25465 2.52798 7.19926 2.42938 7.10066C2.33078 7.00206 2.27539 6.86833 2.27539 6.72889C2.27539 6.58945 2.33078 6.45572 2.42938 6.35712C2.52798 6.25852 2.66171 6.20312 2.80115 6.20312H8.96908C9.10862 6.20312 9.24243 6.25855 9.3411 6.35722C9.43976 6.45588 9.49519 6.5897 9.49519 6.72923Z" fill="#85AEFF"/>
<path d="M9.49672 6.72854C9.49653 6.86783 9.44112 7.00137 9.34262 7.09986C9.24413 7.19836 9.11059 7.25377 8.9713 7.25395H6.69336V6.20312H8.9713C9.11059 6.20331 9.24413 6.25872 9.34262 6.35722C9.44112 6.45571 9.49653 6.58925 9.49672 6.72854Z" fill="#4F8AFF"/>
<path d="M11.1771 3.92581C11.1769 4.0651 11.1215 4.19863 11.023 4.29713C10.9245 4.39562 10.7909 4.45104 10.6516 4.45122H6.69141V3.40039H10.6516C10.7909 3.40057 10.9245 3.45599 11.023 3.55448C11.1215 3.65298 11.1769 3.78651 11.1771 3.92581Z" fill="#4F8AFF"/>
<path d="M7.8129 9.53197C7.81272 9.67126 7.75731 9.80479 7.65881 9.90328C7.56032 10.0018 7.42678 10.0572 7.28749 10.0574H2.80115C2.66171 10.0574 2.52798 10.002 2.42938 9.90339C2.33078 9.80479 2.27539 9.67107 2.27539 9.53163C2.27539 9.39219 2.33078 9.25846 2.42938 9.15986C2.52798 9.06126 2.66171 9.00586 2.80115 9.00586H7.2868C7.42633 9.00586 7.56014 9.0613 7.65881 9.15996C7.75747 9.25863 7.8129 9.39244 7.8129 9.53197Z" fill="#85AEFF"/>
<path d="M7.81442 9.53323C7.81424 9.67252 7.75882 9.80604 7.66033 9.90454C7.56183 10.003 7.4283 10.0585 7.28901 10.0586H6.69336V9.00781H7.28901C7.4283 9.00799 7.56183 9.0634 7.66033 9.16189C7.75882 9.26039 7.81424 9.39393 7.81442 9.53323Z" fill="#4F8AFF"/>
<path d="M17.7966 7.82652C17.2469 8.45412 16.6618 9.04982 16.0441 9.61073C15.1937 10.4502 13.9232 11.7007 12.0212 13.5785C11.9296 13.6694 12.1362 13.5586 8.9004 15.0687C8.80258 15.1142 8.69313 15.1286 8.58688 15.1098C8.48063 15.091 8.38273 15.04 8.30644 14.9637C8.23015 14.8874 8.17915 14.7895 8.16037 14.6833C8.14159 14.577 8.15594 14.4676 8.20146 14.3698C9.71641 11.1291 9.60073 11.3398 9.69438 11.2469L13.6884 7.25291C15.3156 5.62502 15.3472 5.59403 15.3514 5.60022C15.5529 5.43578 15.8082 5.35182 16.068 5.36454C16.3278 5.37726 16.5737 5.48575 16.7582 5.66909C17.7078 6.61869 17.6624 6.56911 17.7078 6.62626C17.8433 6.79337 17.9244 6.99793 17.9403 7.21248C17.9562 7.42703 17.9061 7.64129 17.7966 7.82652Z" fill="#85AEFF"/>
<path d="M17.7961 7.82471C17.6928 7.99962 17.2053 8.45962 12.0207 13.5767C11.9291 13.6676 12.1357 13.5568 8.89989 15.0669C8.83028 15.0995 8.75435 15.1165 8.67747 15.1165C8.54117 15.1172 8.41006 15.0643 8.3125 14.9691L17.1846 6.09766C17.6915 6.60379 17.6667 6.5797 17.7059 6.62721C17.841 6.79392 17.9221 6.99787 17.9382 7.21186C17.9543 7.42584 17.9047 7.63965 17.7961 7.82471Z" fill="#4F8AFF"/>
<path d="M17.7969 7.82561C17.2472 8.4532 16.662 9.04891 16.0444 9.60982L14.8621 8.42747L13.6914 7.25683C15.3186 5.62894 15.3503 5.59794 15.3544 5.60414C15.556 5.4397 15.8113 5.35573 16.0711 5.36845C16.3309 5.38116 16.5767 5.48967 16.7613 5.67301L17.1896 6.10132C17.6971 6.60814 17.6716 6.58336 17.7109 6.63018C17.8449 6.79713 17.9249 7.00094 17.9403 7.21448C17.9557 7.42802 17.9057 7.64118 17.7969 7.82561Z" fill="#85AEFF"/>
<path d="M17.7962 7.82586C17.2464 8.45345 16.6613 9.04914 16.0437 9.61005L14.8613 8.4277L17.1875 6.10156C17.695 6.60838 17.6695 6.58359 17.7087 6.63111C17.8428 6.79785 17.923 7.00144 17.9386 7.21485C17.9543 7.42825 17.9046 7.64136 17.7962 7.82586Z" fill="#4F8AFF"/>
</svg>
