<svg xmlns="http://www.w3.org/2000/svg" width="26.057" height="26.057" viewBox="0 0 26.057 26.057">
    <defs>
        <style>
            .cls-3{fill:#425796}.cls-4{fill:#283758}
        </style>
    </defs>
    <g id="writing" transform="translate(-.008)">
        <path id="Path_14191" fill="#eef4ff" d="M19.5 2.29v21.477a2.293 2.293 0 0 1-2.29 2.29H2.3a2.293 2.293 0 0 1-2.29-2.29V2.29A2.293 2.293 0 0 1 2.3 0h14.91a2.293 2.293 0 0 1 2.29 2.29z"/>
        <path id="Path_14192" fill="#d9e6fc" d="M201.729 2.29v21.477a2.293 2.293 0 0 1-2.29 2.29h-7.43V0h7.43a2.293 2.293 0 0 1 2.29 2.29z" transform="translate(-182.228)"/>
        <path id="Path_14193" d="M77.935 97.763a.764.764 0 0 1-.763.763h-11.4a.763.763 0 0 1 0-1.527h11.4a.764.764 0 0 1 .763.764z" class="cls-3" transform="translate(-61.692 -92.063)"/>
        <path id="Path_14194" d="M197.522 97.763a.764.764 0 0 1-.763.763h-5.751V97h5.751a.764.764 0 0 1 .763.763z" class="cls-4" transform="translate(-181.279 -92.063)"/>
        <path id="Path_14195" d="M75.492 177.763a.764.764 0 0 1-.763.763h-8.958a.763.763 0 0 1 0-1.527h8.957a.764.764 0 0 1 .764.764z" class="cls-3" transform="translate(-61.692 -167.992)"/>
        <path id="Path_14196" d="M195.079 177.763a.764.764 0 0 1-.763.763h-3.308V177h3.308a.764.764 0 0 1 .763.763z" class="cls-4" transform="translate(-181.279 -167.992)"/>
        <path id="Path_14197" d="M73.049 257.763a.764.764 0 0 1-.763.763h-6.515a.763.763 0 0 1 0-1.527h6.514a.764.764 0 0 1 .764.764z" class="cls-3" transform="translate(-61.692 -243.92)"/>
        <path id="Path_14198" d="M192.637 257.763a.764.764 0 0 1-.763.763h-.865V257h.865a.764.764 0 0 1 .763.763z" class="cls-4" transform="translate(-181.279 -243.92)"/>
        <path id="Path_14199" fill="#ffe278" d="M246.628 156.592a31.84 31.84 0 0 1-2.545 2.591c-1.235 1.219-3.08 3.035-5.842 5.762-.133.132.167-.029-4.532 2.164a.764.764 0 0 1-1.015-1.015c2.2-4.706 2.032-4.4 2.168-4.535l5.8-5.8c2.363-2.364 2.409-2.409 2.415-2.4a1.528 1.528 0 0 1 2.043.1c1.379 1.379 1.313 1.307 1.379 1.39a1.531 1.531 0 0 1 .129 1.743z" transform="translate(-220.774 -145.228)"/>
        <path id="Path_14200" fill="#ffb454" d="M251.029 176.518c-.15.254-.858.922-8.387 8.353-.133.132.167-.029-4.532 2.164a.761.761 0 0 1-.323.072.753.753 0 0 1-.53-.214l12.884-12.883c.736.735.7.7.757.769a1.531 1.531 0 0 1 .131 1.739z" transform="translate(-225.175 -165.154)"/>
        <path id="Path_14201" fill="#dd5958" d="M396.556 156.592a31.845 31.845 0 0 1-2.545 2.591l-1.717-1.717-1.7-1.7c2.363-2.364 2.409-2.409 2.415-2.4a1.528 1.528 0 0 1 2.043.1l.622.622c.737.736.7.7.757.768a1.531 1.531 0 0 1 .125 1.736z" transform="translate(-370.702 -145.228)"/>
        <path id="Path_14202" fill="#d8225b" d="M428.294 176.518a31.844 31.844 0 0 1-2.545 2.591l-1.717-1.717 3.378-3.378c.737.736.7.7.757.769a1.531 1.531 0 0 1 .127 1.735z" transform="translate(-402.44 -165.154)"/>
    </g>
</svg>
