<svg id="Capa_1" enable-background="new 0 0 506.5 506.5" height="512" viewBox="0 0 506.5 506.5" width="512" xmlns="http://www.w3.org/2000/svg"><g><path d="m426.001 99.076c4.143 0 7.5-3.358 7.5-7.5v-67.891c0-4.142-3.357-7.5-7.5-7.5h-60.819v-8.685c0-4.142-3.357-7.5-7.5-7.5s-7.5 3.358-7.5 7.5v8.685h-193.864v-8.685c0-4.142-3.358-7.5-7.5-7.5s-7.5 3.358-7.5 7.5v8.685h-60.819c-4.142 0-7.5 3.358-7.5 7.5v475.315c0 4.142 3.358 7.5 7.5 7.5h345.502c4.143 0 7.5-3.358 7.5-7.5v-372.5c0-4.142-3.357-7.5-7.5-7.5s-7.5 3.358-7.5 7.5v38.225h-330.502v-133.54h53.319v8.685c0 4.142 3.358 7.5 7.5 7.5s7.5-3.358 7.5-7.5v-8.685h193.864v8.685c0 4.142 3.357 7.5 7.5 7.5s7.5-3.358 7.5-7.5v-8.685h53.319v60.391c0 4.142 3.357 7.5 7.5 7.5zm-214.415 314.924h12.936l24.863 37.956-6.481 9.857zm-16.563-105.192h-3.279c-5.972 0-10.831-4.859-10.831-10.831s4.859-10.831 10.831-10.831h3.279zm126.781-21.662h3.278c5.973 0 10.831 4.859 10.831 10.831s-4.858 10.831-10.831 10.831h-3.278zm-7.626-26.259c0 6.619-5.385 12.003-12.003 12.003h-92.283c-37.344 0-37.358-57.958 0-57.958 11.064 0 22.131-.082 33.195 0 19.391.144 38.001 3.6 56.885 7.502 8.231 1.7 14.206 9.035 14.206 17.44zm-104.155 27.004h92.152c1.579 0 3.124-.144 4.629-.405v32.551c0 25.661-20.047 46.883-45.639 48.314-4.136.231-7.301 3.771-7.069 7.907.224 3.993 3.531 7.081 7.481 7.081.141 0 .283-.004.426-.012 6.579-.368 12.871-1.746 18.747-3.958v19.631h-44.674v-31.698c0-2.53-1.359-4.989-3.494-6.336-14.126-8.938-22.56-24.238-22.56-40.929v-32.146zm63.751 173.921-6.446-9.841 24.967-37.971h12.916zm-8.982 13.662-6.481 9.857-6.446-9.841 6.481-9.857zm-6.423-37.179-15.914-24.295h31.888zm13.837 53.205 50.876-77.377c23.602 1.368 43.983 14.823 49.292 33.01l12.95 44.366h-113.118zm146.295-311.775v311.775h-17.551l-14.177-48.569c-7.549-25.866-35.371-43.931-67.655-43.931h-23.368v-27.727c14.874-10.864 24.786-28.036 25.931-47.464h3.401c14.243 0 25.831-11.588 25.831-25.831 0-13.705-10.729-24.945-24.229-25.776 1.596-3.444 2.493-7.275 2.493-11.313v-21.012c0-15.485-11.007-28.997-26.171-32.129-19.872-4.106-39.447-7.657-59.848-7.813-11.088-.084-22.179 0-33.267 0-38.561 0-58.399 48.438-30.666 75.46-7.932 4.414-13.313 12.881-13.313 22.584 0 14.243 11.588 25.831 25.831 25.831h3.393c1.11 18.984 10.563 36.272 25.939 47.463v27.727h-23.26c-.008 0-.017 0-.025 0h-.083c-12.337 0-24.471 2.699-35.092 7.806-3.733 1.795-5.304 6.276-3.509 10.009s6.276 5.305 10.009 3.509c7.471-3.592 15.911-5.709 24.616-6.206l50.689 77.382h-112.918l12.95-44.366c.82-2.81 2.01-5.559 3.537-8.171 2.091-3.576.886-8.169-2.689-10.26-3.574-2.089-8.169-.887-10.26 2.689-2.146 3.67-3.824 7.552-4.987 11.538l-14.176 48.57h-27.878v-311.775z"/><path d="m208.463 147.569c4.142 0 7.5-3.358 7.5-7.5v-65.572c0-4.142-3.358-7.5-7.5-7.5s-7.5 3.358-7.5 7.5v24.162h-30.376v-24.162c0-4.142-3.358-7.5-7.5-7.5s-7.5 3.358-7.5 7.5v65.572c0 4.142 3.358 7.5 7.5 7.5s7.5-3.358 7.5-7.5v-26.41h30.376v26.41c0 4.142 3.358 7.5 7.5 7.5z"/><path d="m292.194 138.065c0 4.36 2.988 8.534 7.657 8.534.545-.002 13.392-.052 18.523-.141 18.854-.329 32.538-16.805 32.538-39.175 0-23.516-13.341-39.316-33.196-39.316h-18.022c-4.061 0-7.5 3.537-7.5 7.566zm25.523-55.098c13.416 0 18.196 12.561 18.196 24.316 0 11.879-5.504 23.962-17.8 24.177-2.477.043-6.923.078-10.815.102-.024-7.526-.076-40.768-.09-48.595z"/><path d="m280.216 91.539c0-13.532-11.441-24.542-25.506-24.542h-17.425c-.004 0-.007.001-.011.001s-.007-.001-.011-.001c-4.142 0-7.5 3.358-7.5 7.5v65.572c0 4.142 3.358 7.5 7.5 7.5s7.5-3.358 7.5-7.5v-20.407l22.322 25.362c1.482 1.685 3.553 2.545 5.633 2.545 1.76 0 3.527-.616 4.952-1.87 3.109-2.737 3.411-7.476.675-10.585l-17.407-19.777c11.064-2.682 19.278-12.333 19.278-23.798zm-25.506 9.541c-2.286 0-6.271.017-9.847.035-.018-3.497-.045-15.457-.055-19.118h9.902c5.694 0 10.506 4.37 10.506 9.542s-4.812 9.541-10.506 9.541z"/><path d="m258.413 323.404c4.143 0 7.5-3.358 7.5-7.5v-11.324c0-4.142-3.357-7.5-7.5-7.5s-7.5 3.358-7.5 7.5v11.324c0 4.142 3.358 7.5 7.5 7.5z"/><path d="m258.413 351.11c7.623 0 14.768-3.745 19.111-10.017 2.358-3.405 1.51-8.078-1.896-10.436-3.406-2.359-8.079-1.509-10.437 1.896-1.542 2.227-4.076 3.557-6.779 3.557-2.788 0-5.368-1.396-6.899-3.735-2.27-3.465-6.919-4.435-10.383-2.165-3.465 2.27-4.434 6.918-2.165 10.383 4.314 6.586 11.584 10.517 19.448 10.517z"/></g></svg>