<svg data-name="Layer 27" xmlns="http://www.w3.org/2000/svg" width="18.641" height="17.794">
    <path data-name="Path 16960" d="M11.355 13.473A3.813 3.813 0 1 0 7.542 9.66a3.813 3.813 0 0 0 3.813 3.813zm0-5.931A2.118 2.118 0 1 1 9.236 9.66a2.118 2.118 0 0 1 2.118-2.118zm11.439 5H21.1v-1.695a.847.847 0 1 0-1.695 0v1.695H17.71a.847.847 0 1 0 0 1.695h1.69v1.695a.847.847 0 1 0 1.695 0v-1.695h1.695a.847.847 0 1 0 0-1.695zm-6.948 3.617a6.245 6.245 0 0 0-1.695-1.186 6.431 6.431 0 0 0-5.635 0 6.245 6.245 0 0 0-3.389 4.372A5.931 5.931 0 0 0 5 20.616a3.042 3.042 0 0 0 3.05 3.025h6.609a2.991 2.991 0 0 0 2.144-.847 2.957 2.957 0 0 0 .907-2.178 5.931 5.931 0 0 0-.127-1.262 6.262 6.262 0 0 0-1.737-3.194zm-.237 5.4a1.313 1.313 0 0 1-.949.39H8.05a1.347 1.347 0 0 1-1.356-1.33 4.236 4.236 0 0 1 .093-.915 4.575 4.575 0 0 1 1.263-2.342 4.719 4.719 0 0 1 5.38-.847 4.55 4.55 0 0 1 2.491 3.211 4.236 4.236 0 0 1 .093.89 1.288 1.288 0 0 1-.407.941z" transform="translate(-5 -5.847)" style="fill:#fff"/>
</svg>
