<svg xmlns="http://www.w3.org/2000/svg" width="18.61" height="22.832">
    <g data-name="Layer 2">
        <g data-name="Layer 1">
            <path data-name="Path 17133" d="M18.4 17.187a7.849 7.849 0 0 1-1.391-4.444V9.468a6.262 6.262 0 0 0-4.495-6.008v-.253a3.217 3.217 0 0 0-6.433 0 2.456 2.456 0 0 0 0 .254 6.261 6.261 0 0 0-4.444 6.015v3.274a7.849 7.849 0 0 1-1.424 4.437 1.17 1.17 0 0 0 .966 1.842h3.675a4.51 4.51 0 0 0 8.905 0h3.675a1.17 1.17 0 0 0 .966-1.842zM7.67 3.215a1.637 1.637 0 1 1 3.274 0zM9.307 21.3a2.922 2.922 0 0 1-2.84-2.235H12.2a2.938 2.938 0 0 1-2.889 2.218zm0-3.806H1.94a9.315 9.315 0 0 0 1.269-4.715V9.5a4.69 4.69 0 0 1 4.657-4.705h2.889a4.69 4.69 0 0 1 4.682 4.682v3.273a9.314 9.314 0 0 0 1.269 4.715z" transform="translate(-.002 .01)" style="fill:#77b2ff"/>
        </g>
    </g>
</svg>
