<svg xmlns="http://www.w3.org/2000/svg" width="16.876" height="20.091">
    <g data-name="Group 10018">
        <path data-name="Path 17470" d="M17.049 1H3.826A.826.826 0 0 0 3 1.826v16.529a.826.826 0 0 0 1.264.7l6.174-3.855 6.173 3.859a.826.826 0 0 0 1.264-.7V1.826A.826.826 0 0 0 17.049 1z" transform="translate(-1 .909)" style="fill:#bfd5ff"/>
        <path data-name="Path 17471" d="M17.049 1H3.826A.826.826 0 0 0 3 1.826v16.529a.826.826 0 0 0 1.264.7l6.174-3.855 6.173 3.859a.826.826 0 0 0 1.264-.7V1.826A.826.826 0 0 0 17.049 1z" transform="translate(-3 -1)" style="fill:#71a1ff"/>
    </g>
</svg>
