<svg width="21" height="18" viewBox="0 0 21 18" fill="none" xmlns="http://www.w3.org/2000/svg">
<path d="M10.6685 7.0224C8.7324 7.0224 7.15729 5.44729 7.15729 3.5112C7.15729 1.57512 8.7324 0 10.6685 0C12.6046 0 14.1797 1.57512 14.1797 3.5112C14.1797 5.44729 12.6046 7.0224 10.6685 7.0224ZM10.6685 1.21076C9.40001 1.21076 8.36804 2.24273 8.36804 3.5112C8.36804 4.77967 9.40001 5.81164 10.6685 5.81164C11.937 5.81164 12.9689 4.77967 12.9689 3.5112C12.9689 2.24273 11.937 1.21076 10.6685 1.21076Z" fill="black" fill-opacity="0.4"/>
<path d="M3.56543 7.02246C2.34148 7.02246 1.34571 6.02669 1.34571 4.80273C1.34571 3.57878 2.34148 2.58301 3.56543 2.58301C4.78939 2.58301 5.78516 3.57878 5.78516 4.80273C5.78516 6.02669 4.78939 7.02246 3.56543 7.02246ZM3.56543 3.79377C3.00909 3.79377 2.55647 4.24639 2.55647 4.80273C2.55647 5.35908 3.00909 5.8117 3.56543 5.8117C4.12178 5.8117 4.5744 5.35908 4.5744 4.80273C4.5744 4.24639 4.12178 3.79377 3.56543 3.79377Z" fill="black" fill-opacity="0.4"/>
<path d="M3.07673 8.39465H4.01305C5.11642 8.39465 6.06888 9.04653 6.5029 9.98285C7.39648 9.00738 8.68 8.39465 10.104 8.39465H11.2323C12.6563 8.39465 13.9399 9.00738 14.8334 9.98285C15.2675 9.04653 16.22 8.39465 17.3233 8.39465H18.2596C19.7707 8.39465 21 9.61655 21 11.1185V15.526C21 16.1781 20.4675 16.7085 19.813 16.7085H16.111C16.0489 17.431 15.4414 18 14.7032 18H6.63317C5.89493 18 5.28746 17.431 5.22534 16.7085H1.56566C0.8878 16.7085 0.33634 16.1593 0.33634 15.4841V11.1185C0.33638 9.61655 1.5657 8.39465 3.07673 8.39465ZM19.7892 11.1185C19.7892 10.2842 19.1031 9.60541 18.2596 9.60541H17.3233C16.4799 9.60541 15.7937 10.2842 15.7937 11.1185V11.533C16.2008 12.593 16.1166 13.2282 16.1166 15.4978H19.7892V11.1185ZM6.43053 16.5866C6.43053 16.6984 6.52142 16.7892 6.63317 16.7892H14.7032C14.815 16.7892 14.9058 16.6983 14.9058 16.5866V13.2789C14.9058 11.2533 13.2579 9.60541 11.2324 9.60541H10.1041C8.07846 9.60541 6.43053 11.2533 6.43053 13.2789V16.5866ZM1.54714 15.4841C1.54714 15.5049 1.32145 15.4978 5.21977 15.4978C5.21977 13.2114 5.13619 12.5912 5.54264 11.533V11.1185C5.54264 10.2842 4.85647 9.60541 4.01305 9.60541H3.07673C2.23332 9.60541 1.54714 10.2842 1.54714 11.1185V15.4841Z" fill="black" fill-opacity="0.4"/>
<path d="M17.7715 7.02246C16.5475 7.02246 15.5518 6.02669 15.5518 4.80273C15.5518 3.57878 16.5475 2.58301 17.7715 2.58301C18.9954 2.58301 19.9912 3.57878 19.9912 4.80273C19.9912 6.02669 18.9954 7.02246 17.7715 7.02246ZM17.7715 3.79377C17.2151 3.79377 16.7625 4.24639 16.7625 4.80273C16.7625 5.35908 17.2151 5.8117 17.7715 5.8117C18.3278 5.8117 18.7805 5.35908 18.7805 4.80273C18.7805 4.24639 18.3278 3.79377 17.7715 3.79377Z" fill="black" fill-opacity="0.4"/>
</svg>
