<svg xmlns="http://www.w3.org/2000/svg" width="16.001" height="16.013">
    <path data-name="Path 17846" d="m17.884 17.375-1.247-2.923a7.982 7.982 0 1 0-2.693 2.513l3.466.967h.037a.35.35 0 0 0 .213.063h.057l.27-.05v-.267a.333.333 0 0 0-.1-.25.276.276 0 0 0-.007-.053zM6 11a1 1 0 1 1 1-1 1 1 0 0 1-1 1zm4 0a1 1 0 1 1 1-1 1 1 0 0 1-1.005 1zm4 0a1 1 0 1 1 1-1 1 1 0 0 1-1.005 1zm3.553 6.963a.3.3 0 0 1-.057-.03.2.2 0 0 0 .063 0zm.4-.443h-.03a.3.3 0 0 0 0-.077.273.273 0 0 1 .03.077z" transform="translate(-1.993 -1.995)" style="fill:#fff"/>
</svg>
