<svg id="_992700" data-name="992700" xmlns="http://www.w3.org/2000/svg" width="14.408" height="14.408">
    <defs>
        <style>
            .cls-1{fill:#25d49e}
        </style>
    </defs>
    <g id="Group_4486" data-name="Group 4486" transform="translate(6.646 3.343)">
        <g id="Group_4485" data-name="Group 4485">
            <path id="Path_7250" data-name="Path 7250" class="cls-1" d="m239.294 123.913-2.009-1.507v-3.069a.558.558 0 0 0-1.116 0v3.348a.557.557 0 0 0 .223.446l2.232 1.674a.558.558 0 0 0 .67-.893z" transform="translate(-236.169 -118.779)"/>
        </g>
    </g>
    <g id="Group_4488" data-name="Group 4488">
        <g id="Group_4487" data-name="Group 4487">
            <path id="Path_7251" data-name="Path 7251" class="cls-1" d="M7.2 0a7.2 7.2 0 1 0 7.2 7.2A7.212 7.212 0 0 0 7.2 0zm0 13.292A6.088 6.088 0 1 1 13.292 7.2 6.1 6.1 0 0 1 7.2 13.292z"/>
        </g>
    </g>
</svg>
