<svg xmlns="http://www.w3.org/2000/svg" width="38.574" height="38.574">
    <defs>
        <linearGradient id="a" x1="6.482" y1="-5.857" x2="7.482" y2="-5.857" gradientUnits="objectBoundingBox">
            <stop offset="0" stop-color="#f26798"/>
            <stop offset=".866" stop-color="#c72092"/>
            <stop offset="1" stop-color="#c11592"/>
        </linearGradient>
    </defs>
    <g data-name="Group 9985" transform="translate(-77.187 -144.592)">
        <rect data-name="Rectangle 3513" width="38.573" height="38.573" rx="7.649" transform="rotate(90 -14.416 130.176)" style="fill:url(#a)"/>
        <path data-name="Path 17490" d="M94.432 151a10.836 10.836 0 1 0 10.849 10.835A10.855 10.855 0 0 0 94.432 151zm7.139 5.114a9.105 9.105 0 0 1 2.025 5.581 22.687 22.687 0 0 0-4.24-.409 17.256 17.256 0 0 0-2.091.121 27.069 27.069 0 0 0-.77-1.723 12.477 12.477 0 0 0 5.076-3.571zm-7.139-3.414a9.138 9.138 0 0 1 6.039 2.273 10.448 10.448 0 0 1-4.734 3.249 49.615 49.615 0 0 0-3.372-5.287 9.2 9.2 0 0 1 2.067-.235zm-3.937.888a59.025 59.025 0 0 1 3.353 5.221 34.65 34.65 0 0 1-8.284 1.1h-.09a9.189 9.189 0 0 1 5.02-6.325zm-5.229 8.265v-.226h.24a34.331 34.331 0 0 0 9.154-1.3c.248.483.483.973.7 1.463-.1.03-.2.059-.3.092a14.659 14.659 0 0 0-7.487 6.036 9.1 9.1 0 0 1-2.308-6.065zM94.432 171a9.124 9.124 0 0 1-5.59-1.9 12.65 12.65 0 0 1 7.182-5.683h.011a38.2 38.2 0 0 1 1.938 6.88 9.1 9.1 0 0 1-3.54.711zm5.192-1.613a40.255 40.255 0 0 0-1.757-6.428 12.073 12.073 0 0 1 1.844-.138 13.6 13.6 0 0 1 3.763.526 9.172 9.172 0 0 1-3.85 6.04z" transform="translate(2.041 2.044)" style="fill:#fff"/>
    </g>
</svg>
