<svg xmlns="http://www.w3.org/2000/svg" width="20.165" height="20.164">
    <g data-name="Group 10006">
        <path data-name="Path 17406" d="M20.683 957.362a.672.672 0 1 0 0 1.344h2.184l-2.878 2.878a6.027 6.027 0 0 0-6.476-1.008 6.05 6.05 0 1 0-3.137 11.539v1.6H8.585a.672.672 0 1 0 0 1.344h1.792v1.792a.672.672 0 0 0 1.344 0v-1.792h1.792a.672.672 0 1 0 0-1.344h-1.792v-1.6a6.007 6.007 0 0 0 1.792-.49 6.047 6.047 0 0 0 7.38-9.046l2.927-2.927-.007 2.184 1.344.007.007-3.809a.672.672 0 0 0-.672-.672zm4.474 4.481H23.82a.672.672 0 0 0 1.344 0h-.007zm-14.108-.448a4.759 4.759 0 0 1 1.008.112 6.02 6.02 0 0 0 0 9.186 4.759 4.759 0 0 1-1.008.112 4.705 4.705 0 1 1 0-9.41zm4.929 0a4.705 4.705 0 1 1 0 9.41 4.759 4.759 0 0 1-1.008-.112 6.02 6.02 0 0 0 0-9.186 4.759 4.759 0 0 1 1.008-.112zm-2.465.7a4.7 4.7 0 0 1 0 8.01 4.7 4.7 0 0 1 0-8.01z" style="fill:#949ab2" transform="translate(-5 -957.362)"/>
    </g>
</svg>
