<svg xmlns="http://www.w3.org/2000/svg" width="16.563" height="16.578">
    <path data-name="Path 17458" d="M236.43 371.717a.83.83 0 0 1-.418-.123 1.561 1.561 0 0 1-.535-.63c-.477-.97-.946-1.969-1.4-2.935-.328-.7-.668-1.424-1.009-2.135a1.772 1.772 0 0 0-.793-.792c-1.76-.846-3.607-1.706-5.09-2.4-.615-.287-.708-.619-.716-.878 0-.345.1-.732.785-1q2.453-.955 4.908-1.905l3.938-1.519c1.8-.7 3.652-1.416 5.477-2.129a1.62 1.62 0 0 1 .579-.131.807.807 0 0 1 .455.138c.16.1.646.416.308 1.29q-.811 2.1-1.628 4.2l-.86 2.212-1.061 2.72-2.028 5.22a1.082 1.082 0 0 1-.912.797zm-6.689-9.865 1.438.679.434.2c.278.131.528.248.777.369.342.165.628.3.858.4a3.8 3.8 0 0 1 .922.5 3.934 3.934 0 0 1 .5.939c.105.228.229.5.385.822l.38.8.886 1.864 4.179-10.76z" transform="translate(-226.47 -355.139)" style="fill:#fff"/>
</svg>
