<svg xmlns="http://www.w3.org/2000/svg" width="55" height="55">
    <defs>
        <style>
            .cls-2{fill:#39d5ae}.cls-3{fill:#8be6cf}
        </style>
    </defs>
    <g id="Group_9557" data-name="Group 9557" transform="translate(-727 -203)">
        <rect id="Rectangle_2213" data-name="Rectangle 2213" width="55" height="55" rx="15" transform="translate(727 203)" style="fill:#0ecb9b;opacity:.1"/>
        <g id="Group_9407" data-name="Group 9407" transform="translate(-382 13)">
            <path id="Path_12872" data-name="Path 12872" class="cls-2" d="M9.069 8.093a3.44 3.44 0 0 0 6.673 0 3.966 3.966 0 0 0 .138-.654A3.44 3.44 0 0 0 9 7.44a3.913 3.913 0 0 0 .069.653z" transform="translate(1124.026 204.293)"/>
            <path id="Path_12873" data-name="Path 12873" class="cls-3" d="M16.119 7.733a4.134 4.134 0 0 1-.092.848 3.441 3.441 0 1 0-1.777-4.448 4.413 4.413 0 0 1 1.869 3.6z" transform="translate(1124.795 204)"/>
            <path id="Path_12874" data-name="Path 12874" class="cls-3" d="M7.393 8.879a3.447 3.447 0 0 0 1.425-.3 4.139 4.139 0 0 1-.08-.848 4.4 4.4 0 0 1 1.857-3.6 3.438 3.438 0 1 0-3.2 4.747z" transform="translate(1123.29 204)"/>
            <path id="Path_12875" data-name="Path 12875" class="cls-3" d="M17.492 9a5.73 5.73 0 0 0-3.852 1.468 6.731 6.731 0 0 1 4.85 6.455v4.689h3.658a1.147 1.147 0 0 0 1.147-1.147v-5.732A5.813 5.813 0 0 0 17.492 9z" transform="translate(1124.706 205.026)"/>
            <path id="Path_12876" data-name="Path 12876" class="cls-2" d="M12.737 10.992a5.6 5.6 0 0 0-5.6 5.593v6.5a1.151 1.151 0 0 0 .745.493h9.7a1.151 1.151 0 0 0 .745-.493v-6.5a5.594 5.594 0 0 0-5.59-5.593z" transform="translate(1123.753 205.318)"/>
            <path id="Path_12877" data-name="Path 12877" class="cls-3" d="M11.608 10.422A5.8 5.8 0 0 0 2 14.733v5.733a1.147 1.147 0 0 0 1.147 1.147h3.611v-4.736a6.741 6.741 0 0 1 4.85-6.455z" transform="translate(1123 205.026)"/>
        </g>
    </g>
</svg>
