<svg width="15" height="18" viewBox="0 0 15 18" fill="none" xmlns="http://www.w3.org/2000/svg">
<path d="M14.6978 2.30649L7.80815 0.0410825C7.72502 0.0136941 7.6135 0 7.50198 0C7.39047 0 7.27895 0.0136941 7.19582 0.0410825L0.306162 2.30649C0.137874 2.36127 0 2.54907 0 2.72123V12.1585C0 12.3306 0.115571 12.5575 0.255473 12.6651L7.24448 17.9198C7.31545 17.9726 7.40669 18 7.49996 18C7.59322 18 7.68649 17.9726 7.75543 17.9198L14.7444 12.6651C14.8843 12.5595 14.9999 12.3326 14.9999 12.1585V2.72123C15.004 2.54907 14.8661 2.36322 14.6978 2.30649ZM11.2023 5.64786L6.89169 11.374C6.86138 11.414 6.82172 11.4466 6.77592 11.469C6.73012 11.4914 6.67947 11.5031 6.6281 11.5031C6.57674 11.5031 6.52609 11.4914 6.48029 11.469C6.43449 11.4466 6.39483 11.414 6.36452 11.374L3.80168 7.97C3.72463 7.86632 3.80168 7.72155 3.93347 7.72155H5.05269C5.15609 7.72155 5.25544 7.77046 5.31627 7.85067L6.6281 9.59178L9.6877 5.52657C9.74852 5.44636 9.84585 5.39746 9.95128 5.39746H11.0705C11.2023 5.39941 11.2793 5.54418 11.2023 5.64786Z" fill="#777C98" fill-opacity="0.76"/>
</svg>
