<svg xmlns="http://www.w3.org/2000/svg" width="18.096" height="17.702">
    <defs>
        <style>
            .cls-2{fill:#4f8aff}
        </style>
    </defs>
    <g id="Group_9122" data-name="Group 9122" style="opacity:.81">
        <path id="Path_16948" data-name="Path 16948" class="cls-2" d="M59.583 62.017s-1.8 6.062-1.742 6.488h7.7c0-3.745-1.112-4.4-1.112-4.4a40.177 40.177 0 0 1-4.629-1.82z" transform="translate(-47.447 -50.802)"/>
        <path id="Path_16949" data-name="Path 16949" class="cls-2" d="m10.959 62.018-.219.268A40.221 40.221 0 0 1 6.112 64.1S5 64.76 5 68.505h7.676c.068-.495-1.717-6.487-1.717-6.487z" transform="translate(-5 -50.803)"/>
        <path id="Path_16950" data-name="Path 16950" d="M38.608 9.782a8.786 8.786 0 0 0-.322-2.661 2.055 2.055 0 0 0-.82-1.46A3.688 3.688 0 0 0 35.014 5a3.69 3.69 0 0 0-2.451.661 2.056 2.056 0 0 0-.82 1.46 8.781 8.781 0 0 0-.322 2.661s-.374-.133-.314.41.041 1.182.117 1.737.313.389.5.58a5.809 5.809 0 0 0 .6 1.624s-.014.783-.014 1.2c0 0-.258.75 1.821 1.246l.456.731s-.721 5.16-.751 5.386h2.324c-.023-.183-.727-5.386-.727-5.386l.456-.731c2.078-.5 1.821-1.246 1.821-1.246 0-.422-.014-1.2-.014-1.2a5.806 5.806 0 0 0 .6-1.624c.189-.192.426-.025.5-.58s.057-1.195.117-1.737-.305-.41-.305-.41z" transform="translate(-25.966 -5)" style="fill:#d1e1ff"/>
    </g>
</svg>
