<svg xmlns="http://www.w3.org/2000/svg" width="21.308" height="21.2">
    <defs>
        <style>
            .cls-2{fill:#fff;stroke:#fff}
        </style>
    </defs>
    <g id="Group_9644" data-name="Group 9644" transform="translate(-126.763 -251.9)">
        <path id="Path_17375" data-name="Path 17375" d="M137.438 273a10.512 10.512 0 0 1-4.983-1.265l-.126-.068-2.946.859a1.583 1.583 0 0 1-.44.062 1.588 1.588 0 0 1-1.525-2.031l.859-2.946-.068-.126a10.5 10.5 0 1 1 9.23 5.516zm-5.02-2.734a.673.673 0 0 1 .346.1 9.15 9.15 0 1 0-3.183-3.183.675.675 0 0 1 .068.539l-1.069 3.636 3.643-1.059a.678.678 0 0 1 .195-.033z" style="stroke-width:.2px;fill:#fff;stroke:#fff"/>
        <path id="Path_17376" data-name="Path 17376" class="cls-2" d="M285.945 412.065a.673.673 0 1 1 .673-.673.674.674 0 0 1-.673.673z" transform="translate(-148.547 -148.916)"/>
        <path id="Path_17377" data-name="Path 17377" class="cls-2" d="M346.194 412.065a.673.673 0 1 1 .673-.673.674.674 0 0 1-.673.673z" transform="translate(-204.313 -148.916)"/>
        <path id="Path_17378" data-name="Path 17378" class="cls-2" d="M225.763 412.065a.673.673 0 1 1 .673-.673.674.674 0 0 1-.673.673z" transform="translate(-92.845 -148.916)"/>
    </g>
</svg>
