<svg xmlns="http://www.w3.org/2000/svg" width="24.56" height="28.29">
    <g data-name="Group 9106">
        <path data-name="Path 16909" d="M131.775 84.159c0-.075-.1-.156-.162-.212-.6-.487-1.237-.918-1.786-1.458a6.544 6.544 0 0 1-2.086-4.334c-.075-1.187-.066-2.373-.119-3.563a17.448 17.448 0 0 0-.678-4.228c-.837-2.776-2.423-4.75-5.224-5.443-.075-.019-.162-.184-.166-.278a2.133 2.133 0 0 0-1.752-2.12 2.023 2.023 0 0 0-2.227 1.446 2.906 2.906 0 0 0-.094.453.942.942 0 0 1-.156.49c-.028.009-.056.019-.091.028a6.661 6.661 0 0 0-4.412 3.532 12.463 12.463 0 0 0-1.187 3.775 30.749 30.749 0 0 0-.319 5.2 6.711 6.711 0 0 1-1.2 3.932 9.173 9.173 0 0 1-2.657 2.536c-.091.056-.225.159-.225.24-.019.678-.009 1.358-.009 2.039h24.557c0-.694.006-1.367-.007-2.035z" transform="translate(-107.225 -62.496)" style="fill:#fff"/>
        <path data-name="Path 16910" d="M374.868 862.9h-7.76c-.244 0-.356.184-.25.418l.671 2.458a.758.758 0 0 0 .625.418h5.683a.739.739 0 0 0 .621-.418l.659-2.455c.107-.23-.008-.421-.249-.421z" transform="translate(-358.712 -837.905)" style="fill:#3758ee"/>
    </g>
</svg>
