<svg xmlns="http://www.w3.org/2000/svg" width="33.048" height="28.29">
    <g data-name="Group 9108" transform="translate(-1124.477 -21.855)">
        <ellipse data-name="Ellipse 662" cx="11" cy="5.5" rx="11" ry="5.5" transform="translate(1130 30)" style="fill:#4163ff;opacity:.75"/>
        <g data-name="Group 9107">
            <path data-name="Path 16908" d="M17.524 4.455C8.408 4.455 1 10.534 1 18a12.511 12.511 0 0 0 5.356 9.976 9.739 9.739 0 0 1-4.42 3.009.685.685 0 0 0 .042 1.315 11.824 11.824 0 0 0 3.264.448 14.259 14.259 0 0 0 7.03-1.914 19.763 19.763 0 0 0 5.253.7c9.109 0 16.524-6.073 16.524-13.529s-7.416-13.55-16.525-13.55zM10.99 20.569A2.57 2.57 0 1 1 13.554 18a2.567 2.567 0 0 1-2.564 2.569zm6.531 0A2.57 2.57 0 1 1 20.085 18a2.567 2.567 0 0 1-2.563 2.569zm6.531 0A2.57 2.57 0 1 1 26.616 18a2.567 2.567 0 0 1-2.564 2.569z" style="fill:#fff" transform="translate(1123.477 17.4)"/>
        </g>
    </g>
</svg>
