<svg width="14" height="14" viewBox="0 0 14 14" fill="none" xmlns="http://www.w3.org/2000/svg">
<path d="M12.1284 2.33421L12.864 1.59746C13.1215 1.33962 12.9667 0.898624 12.6044 0.858083L9.33745 0.494083C9.06036 0.463166 8.82615 0.697374 8.85707 0.974749L9.22311 4.24404C9.26365 4.60629 9.70524 4.76087 9.96278 4.50304L10.6756 3.78904C13.4514 6.93379 11.2324 11.8907 7.0607 11.9446C6.50886 11.9519 6.01245 12.353 5.97599 12.9033C5.93603 13.5027 6.40999 14.0009 7.00032 14.0003C13.0253 13.995 16.2129 6.79379 12.1284 2.33421Z" fill="#FFA133"/>
<path d="M4.03788 9.49756L3.32504 10.2116C0.548669 7.06651 2.76854 2.10993 6.93909 2.05597C7.49121 2.04897 7.98792 1.64793 8.02438 1.09697C8.06434 0.497598 7.59038 -0.000568673 6.99975 0.000306327C0.975377 0.00526466 -2.21225 7.20622 1.87225 11.6661L1.13667 12.4028C0.879127 12.6607 1.034 13.102 1.39625 13.1422L4.6635 13.5062C4.94059 13.5371 5.17479 13.3029 5.14388 13.0258L4.77784 9.75656C4.737 9.39431 4.29542 9.23972 4.03788 9.49756Z" fill="#FFA133"/>
</svg>
