<svg xmlns="http://www.w3.org/2000/svg" width="55" height="55">
    <g data-name="Group 9556" transform="translate(-1063 -203)">
        <rect data-name="Rectangle 2214" width="55" height="55" rx="15" transform="translate(1063 203)" style="fill:#1f55f8;opacity:.07"/>
        <g data-name="Group 9408">
            <path data-name="Path 17214" d="M40 5a15 15 0 1 0 15 15A14.987 14.987 0 0 0 40 5zm0 26.471A11.471 11.471 0 1 1 51.471 20 11.448 11.448 0 0 1 40 31.471z" style="fill:#c3d1fb" transform="translate(1051 211)"/>
            <path data-name="Path 17215" d="M40.706 11a9.706 9.706 0 1 0 9.706 9.706A9.678 9.678 0 0 0 40.706 11zm0 8.824a3.825 3.825 0 0 1 2.471.882 2.945 2.945 0 0 1 1.059 2.206 3.006 3.006 0 0 1-2.647 3v1.853h-1.765v-1.853a2.9 2.9 0 0 1-2.647-2.559h1.853a1.8 1.8 0 0 0 1.676.882c.971 0 1.765-.618 1.765-1.324s-.794-1.324-1.765-1.324a3.825 3.825 0 0 1-2.471-.882 2.955 2.955 0 0 1 1.589-5.205v-1.853h1.765V15.5a2.9 2.9 0 0 1 2.647 2.559h-1.854a1.8 1.8 0 0 0-1.676-.882c-.971 0-1.765.618-1.765 1.324s.794 1.323 1.765 1.323z" transform="translate(1050.294 210.294)" style="fill:#7f9efb"/>
        </g>
    </g>
</svg>
