<svg xmlns="http://www.w3.org/2000/svg" width="17.597" height="19.428">
    <defs>
        <style>
            .cls-1{fill:#77b2ff}
        </style>
    </defs>
    <g id="Group_9730" data-name="Group 9730" transform="translate(-113.119 -216.69)">
        <path id="Path_17424" data-name="Path 17424" class="cls-1" d="M122.183 216.69a2.846 2.846 0 0 1 1.438.752 5.346 5.346 0 0 1 1.1 1.535c.239.5.444 1.015.666 1.527.429-.061.876-.144 1.326-.186a5.442 5.442 0 0 1 2.379.2 2.265 2.265 0 0 1 1.538 2.855 5.988 5.988 0 0 1-1.141 2.205c-.214.281-.446.548-.677.83.2.238.4.471.59.713a6.421 6.421 0 0 1 1.181 2.144 2.478 2.478 0 0 1-.079 1.831 2.431 2.431 0 0 1-1.767 1.3 7.469 7.469 0 0 1-3.233-.087c-.042-.009-.085-.015-.111-.019-.227.525-.431 1.047-.676 1.55a5.044 5.044 0 0 1-1.228 1.645 2.305 2.305 0 0 1-3.239-.063 5.58 5.58 0 0 1-1.254-1.834c-.193-.423-.352-.862-.512-1.258-.669.07-1.325.167-1.985.2a4.129 4.129 0 0 1-2.068-.368 2.228 2.228 0 0 1-1.255-2.561 5.831 5.831 0 0 1 1.178-2.371c.213-.281.446-.547.675-.827-.2-.241-.4-.474-.593-.716a6.272 6.272 0 0 1-1.2-2.2 2.353 2.353 0 0 1 2.013-3.114 6.824 6.824 0 0 1 2.208-.022c.337.044.672.107 1.011.161.174-.431.333-.869.525-1.292a5.531 5.531 0 0 1 1.214-1.794 2.534 2.534 0 0 1 1.376-.709.3.3 0 0 0 .069-.029zm2.717 9.71c-.021-.506-.036-1.012-.067-1.516a.318.318 0 0 0-.13-.224q-1.329-.765-2.67-1.509a.271.271 0 0 0-.224 0q-1.348.751-2.685 1.52a.287.287 0 0 0-.117.21q-.011 1.525 0 3.051a.287.287 0 0 0 .122.208q1.337.771 2.684 1.523a.23.23 0 0 0 .19.008q1.364-.761 2.718-1.539a.3.3 0 0 0 .113-.214c.026-.504.043-1.009.066-1.518zm.8 4.656c.343.053.653.111.965.147a4.728 4.728 0 0 0 1.879-.088 1.021 1.021 0 0 0 .819-1.387 5.95 5.95 0 0 0-1.459-2.394c-.607.477-1.2.939-1.785 1.406a.273.273 0 0 0-.068.163c-.063.418-.115.838-.181 1.255-.048.296-.11.584-.17.902zm-1.61.9a.411.411 0 0 0-.061-.04c-.661-.247-1.322-.5-1.986-.735a.419.419 0 0 0-.266.007c-.485.18-.964.373-1.448.557-.187.071-.379.13-.594.2.125.321.233.636.368.939a4.861 4.861 0 0 0 .962 1.508 1.073 1.073 0 0 0 1.679.024 6.124 6.124 0 0 0 1.345-2.451zm3.8-6.483a6.862 6.862 0 0 0 1.278-1.857 3.563 3.563 0 0 0 .24-.888.82.82 0 0 0-.423-.846 1.929 1.929 0 0 0-.41-.19 4.533 4.533 0 0 0-1.914-.1c-.317.035-.631.1-.96.147l.032.195a11.135 11.135 0 0 1 .23 1.379 1.3 1.3 0 0 0 .648 1.13 15.3 15.3 0 0 1 1.281 1.039zm-3.8-4.647c-.12-.307-.229-.617-.36-.916a4.86 4.86 0 0 0-.96-1.509 1.037 1.037 0 0 0-1.344-.278 1.667 1.667 0 0 0-.387.3 6.292 6.292 0 0 0-1.3 2.416c.04.019.066.035.095.046.562.206 1.134.389 1.683.625a.911.911 0 0 0 .8 0c.574-.243 1.165-.444 1.778-.675zm-5.963.938c-.272-.044-.543-.1-.817-.131a5.025 5.025 0 0 0-2.049.062 1.006 1.006 0 0 0-.8 1.348 6.011 6.011 0 0 0 1.482 2.44c.056-.045.1-.079.142-.115.355-.295.706-.593 1.065-.883.2-.159.467-.266.587-.467a2.1 2.1 0 0 0 .132-.735v-.019zm-.011 9.262c-.111-.717-.215-1.41-.33-2.1a.432.432 0 0 0-.142-.24c-.521-.43-1.05-.852-1.576-1.276-.038-.031-.078-.06-.123-.1a6.886 6.886 0 0 0-1.216 1.717 4.117 4.117 0 0 0-.305 1.006.776.776 0 0 0 .4.851 2.232 2.232 0 0 0 .59.243 6.5 6.5 0 0 0 2.706-.092zm-1.26-4.628.792.669v-1.346zm9.314.682.8-.687-.8-.679zm-1.547 2.646-1.16.652.97.333zm0-6.658-.2-.988-.957.336zm-4.274 7.3-1.15-.645.192.975zm-.008-7.951-.951-.328-.188.974z"/>
        <path id="Path_17425" data-name="Path 17425" class="cls-1" d="M259.718 384.54a1.936 1.936 0 1 1 1.932-1.932 1.949 1.949 0 0 1-1.932 1.932zm-.009-1.292a.644.644 0 1 0-.64-.658.649.649 0 0 0 .64.658z" transform="translate(-137.796 -156.199)"/>
    </g>
</svg>
