<svg width="15" height="19" viewBox="0 0 15 19" fill="none" xmlns="http://www.w3.org/2000/svg">
<path fill-rule="evenodd" clip-rule="evenodd" d="M9.06487e-07 7.39115C9.06487e-07 10.2533 1.96462 13.2568 3.61904 15.2736C4.7215 16.6165 5.93206 17.863 7.23808 19C8.54409 17.863 9.75466 16.6165 10.8571 15.2736C12.5115 13.2568 14.4762 10.2533 14.4762 7.39115C14.4792 6.42058 14.2936 5.45903 13.9301 4.56215C13.5666 3.66528 13.0324 2.85089 12.3585 2.16612C11.3463 1.13207 10.0563 0.427737 8.65169 0.142263C7.24712 -0.143211 5.79115 0.00300431 4.46803 0.562404C3.14492 1.1218 2.01413 2.06924 1.21878 3.28481C0.423438 4.50039 -0.000715683 5.92945 9.06487e-07 7.39115ZM9.46546 14.1319C8.76759 14.982 8.02392 15.7909 7.23808 16.5549C6.45224 15.7909 5.70856 14.982 5.0107 14.1319M9.46546 14.1319C10.2431 13.1839 11.0651 12.0373 11.6854 10.8279C12.3132 9.60404 12.6762 8.42877 12.6762 7.39115V7.38554C12.6785 6.6479 12.5374 5.91795 12.2619 5.23826C11.9864 4.55863 11.5826 3.9439 11.0756 3.4287L11.0722 3.42526C10.3092 2.64583 9.34137 2.11924 8.29318 1.9062C7.24523 1.69321 6.15852 1.80195 5.16898 2.22032C4.17902 2.63886 3.327 3.3503 2.72502 4.27034C2.12278 5.19077 1.79945 6.27663 1.8 7.39027C1.8 8.42789 2.16299 9.60404 2.79072 10.8279C3.41105 12.0373 4.23301 13.1839 5.0107 14.1319" fill="#52597C"/>
<path fill-rule="evenodd" clip-rule="evenodd" d="M7.23819 9.05724C8.24282 9.05724 9.05724 8.24282 9.05724 7.23819C9.05724 6.23356 8.24282 5.41914 7.23819 5.41914C6.23356 5.41914 5.41914 6.23356 5.41914 7.23819C5.41914 8.24282 6.23356 9.05724 7.23819 9.05724ZM7.23819 10.8572C9.23693 10.8572 10.8572 9.23693 10.8572 7.23819C10.8572 5.23944 9.23693 3.61914 7.23819 3.61914C5.23944 3.61914 3.61914 5.23944 3.61914 7.23819C3.61914 9.23693 5.23944 10.8572 7.23819 10.8572Z" fill="#52597C"/>
</svg>
