<svg xmlns="http://www.w3.org/2000/svg" width="19.077" height="19.077">
    <defs>
        <style>
            .cls-1{fill:#acb0c2}
        </style>
    </defs>
    <g id="Layer_3" data-name="Layer 3" transform="translate(-1 -1)">
        <path id="Path_17869" data-name="Path 17869" class="cls-1" d="M10.539 1A9.525 9.525 0 0 0 2.2 15.153l-1.175 4.114a.636.636 0 0 0 .786.786l4.114-1.175A9.535 9.535 0 1 0 10.539 1zm0 17.805a8.253 8.253 0 0 1-4.207-1.16.636.636 0 0 0-.5-.064l-3.271.935.939-3.272a.636.636 0 0 0-.064-.5 8.26 8.26 0 1 1 7.106 4.06z"/>
        <path id="Path_17870" data-name="Path 17870" class="cls-1" d="M18 14.912c-.02-.017-2.251-1.662-3.007-1.531-.382.067-.588.314-.931.722l-.151.177a6.32 6.32 0 0 1-.4-.172 4.7 4.7 0 0 1-2.169-2.17 4.617 4.617 0 0 1-.172-.4c.051-.045.111-.095.178-.152.408-.342.654-.549.722-.931.132-.752-1.513-2.989-1.531-3.007a1.092 1.092 0 0 0-.827-.445c-.788 0-2.705 2.434-2.705 3 0 .1.034 2.461 2.982 5.462 2.99 2.939 5.352 2.975 5.452 2.975.57 0 3.007-1.92 3.007-2.708a1.091 1.091 0 0 0-.448-.82zm-2.652 2.252a8.262 8.262 0 0 1-4.458-2.591 8.264 8.264 0 0 1-2.6-4.465 11.4 11.4 0 0 1 1.389-1.687 15.787 15.787 0 0 1 1.076 1.807c-.071.064-.159.136-.222.191a3.718 3.718 0 0 0-.6.569l-.153.212.046.263A4.437 4.437 0 0 0 10.2 12.5a5.978 5.978 0 0 0 2.759 2.758 4.416 4.416 0 0 0 1.031.375l.263.045.216-.154a3.741 3.741 0 0 0 .569-.6c.056-.067.127-.153.191-.222a15.726 15.726 0 0 1 1.807 1.073 11.446 11.446 0 0 1-1.688 1.389z" transform="translate(-2.187 -2.187)"/>
    </g>
</svg>
