<svg id="Group_9209" data-name="Group 9209" xmlns="http://www.w3.org/2000/svg" width="41.502" height="33.508">
    <defs>
        <style>
            .cls-1{fill:#b6b9c8}
        </style>
    </defs>
    <path id="Path_17041" data-name="Path 17041" class="cls-1" d="M2.5 15.514v25.88a3.814 3.814 0 0 0 3.814 3.814h33.874A3.814 3.814 0 0 0 44 41.394v-25.88a3.814 3.814 0 0 0-3.812-3.814H6.314A3.814 3.814 0 0 0 2.5 15.514zm37.964 1.248v20.67l-9.393-7.864-4.718 3.932-9.131-8.3L6.039 35.378V16.762a1.523 1.523 0 0 1 1.523-1.523H38.94a1.523 1.523 0 0 1 1.524 1.523z" transform="translate(-2.5 -11.7)"/>
    <circle id="Ellipse_686" data-name="Ellipse 686" class="cls-1" cx="3.233" cy="3.233" transform="translate(26.998 8.082)" r="3.233"/>
</svg>
