<svg xmlns="http://www.w3.org/2000/svg" width="33.129" height="33.508">
    <path data-name="Path 17567" d="M46.709 19.028h-8.045v-1.751a2.365 2.365 0 0 0-2.556-2.177h-9.087a2.365 2.365 0 0 0-2.556 2.177v1.751H16.42a1.42 1.42 0 1 0 0 2.84h1.751l1.751 22.055a4.737 4.737 0 0 0 4.733 4.685h13.772a4.737 4.737 0 0 0 4.733-4.685l1.8-22.007h1.751a1.394 1.394 0 0 0 1.42-1.42 1.435 1.435 0 0 0-1.422-1.468zm-19.4-1.089h8.519v1.089h-8.523zm.568 23.048h-.047a1.447 1.447 0 0 1-1.42-1.372l-.521-11.548a1.368 1.368 0 0 1 1.369-1.467h.047a1.447 1.447 0 0 1 1.42 1.372l.521 11.548a1.455 1.455 0 0 1-1.373 1.468zm8.85-1.372a1.447 1.447 0 0 1-1.42 1.372h-.047a1.455 1.455 0 0 1-1.372-1.467l.512-11.547a1.447 1.447 0 0 1 1.42-1.372h.047a1.455 1.455 0 0 1 1.372 1.467z" transform="translate(-15 -15.1)" style="fill:#c3c5d1"/>
</svg>
