<svg xmlns="http://www.w3.org/2000/svg" width="18.61" height="22.832" viewBox="0 0 18.61 22.832">
  <defs>
    <style>
      .cls-1 {
        fill: #77b2ff;
      }
    </style>
  </defs>
  <g id="Layer_2" data-name="Layer 2" transform="translate(-0.002 0.01)">
    <g id="Layer_1" data-name="Layer 1" transform="translate(0.002 -0.01)">
      <path id="Path_17133" data-name="Path 17133" class="cls-1" d="M18.4,17.187h0a7.849,7.849,0,0,1-1.391-4.444V9.468A6.262,6.262,0,0,0,12.514,3.46c0-.082,0-.163,0-.253a3.217,3.217,0,0,0-6.433,0,2.456,2.456,0,0,0,0,.254A6.261,6.261,0,0,0,1.637,9.476V12.75A7.849,7.849,0,0,1,.213,17.187h0a1.17,1.17,0,0,0,.966,1.842H4.854a4.51,4.51,0,0,0,8.905,0h3.675a1.17,1.17,0,0,0,.966-1.842ZM7.67,3.215a1.637,1.637,0,1,1,3.274,0ZM9.307,21.3a2.922,2.922,0,0,1-2.84-2.235H12.2a2.938,2.938,0,0,1-2.889,2.218Zm0-3.806H1.94a9.315,9.315,0,0,0,1.269-4.715V9.5A4.69,4.69,0,0,1,7.866,4.795h2.889a4.69,4.69,0,0,1,4.682,4.682V12.75a9.314,9.314,0,0,0,1.269,4.715Z" transform="translate(-0.002 0.01)"/>
    </g>
  </g>
</svg>
