<svg xmlns="http://www.w3.org/2000/svg" width="14.92" height="19.176" viewBox="0 0 14.92 19.176">
  <defs>
    <style>
      .cls-1 {
        fill: #77b2ff;
        stroke: #77b2ff;
        stroke-width: 0.4px;
      }
    </style>
  </defs>
  <g id="Layer_2" data-name="Layer 2" transform="translate(0.2 1.2)">
    <g id="Layer_1" data-name="Layer 1" transform="translate(0 0)">
      <path id="Path_17178" data-name="Path 17178" class="cls-1" d="M8.923,1.244a3,3,0,1,1-3,3,3,3,0,0,1,3-3M8.923,0a4.243,4.243,0,1,0,4.243,4.243A4.243,4.243,0,0,0,8.923,0Z" transform="translate(-1.663 -1)"/>
      <path id="Path_17179" data-name="Path 17179" class="cls-1" d="M9.368,16.311a3.907,3.907,0,0,1,3.907,3.914v.69a.986.986,0,0,1-.98.986H2.224a.986.986,0,0,1-.98-.986v-.7a3.907,3.907,0,0,1,3.914-3.9H9.375m0-1.238H5.158a5.158,5.158,0,0,0-3.649,1.5h0A5.158,5.158,0,0,0,0,20.212v.69a2.218,2.218,0,0,0,2.224,2.224H12.3A2.224,2.224,0,0,0,14.52,20.9v-.69a5.158,5.158,0,0,0-1.509-3.643h0A5.158,5.158,0,0,0,9.368,15.06Z" transform="translate(0 -5.35)"/>
    </g>
  </g>
</svg>
