<svg xmlns="http://www.w3.org/2000/svg" width="18.856" height="20.344" viewBox="0 0 18.856 20.344">
  <defs>
    <style>
      .cls-1 {
        fill: #77b2ff;
      }
    </style>
  </defs>
  <g id="Layer_2" data-name="Layer 2" transform="translate(0)">
    <g id="Group_9355" data-name="Group 9355" transform="translate(0)">
      <path id="Path_17145" data-name="Path 17145" class="cls-1" d="M18.091,11.974l-.828-.668a.618.618,0,0,1-.225-.472V9.605a.618.618,0,0,1,.225-.472l.806-.647a2.071,2.071,0,0,0,.472-2.674l-.814-1.344A2,2,0,0,0,15.4,3.575L14.073,4a.53.53,0,0,1-.465-.065l-.894-.581a.61.61,0,0,1-.262-.443l-.174-1.148A2.02,2.02,0,0,0,10.288,0H8.653A2.027,2.027,0,0,0,6.641,1.831l-.1,1.075a.61.61,0,0,1-.3.465L5.086,4A.545.545,0,0,1,4.6,4l-.923-.363a2,2,0,0,0-2.514.814L.334,5.812a2.063,2.063,0,0,0,.392,2.63l.981.843a.6.6,0,0,1,.211.45v.923a.618.618,0,0,1-.2.465l-1.032.959A2.071,2.071,0,0,0,.269,14.64L1,15.977a2.005,2.005,0,0,0,2.485.886l1.177-.458a.559.559,0,0,1,.48.044l1.017.6a.581.581,0,0,1,.276.4l.232,1.206a2.042,2.042,0,0,0,2.056,1.686h1.526a2.02,2.02,0,0,0,2-1.729l.189-1.206a.6.6,0,0,1,.291-.429l.945-.538a.567.567,0,0,1,.472-.036l1.192.45a2.013,2.013,0,0,0,2.448-.872l.785-1.337A2.078,2.078,0,0,0,18.091,11.974Zm-.777,1.918-.785,1.366a.559.559,0,0,1-.683.247l-1.192-.45a1.984,1.984,0,0,0-1.707.131L12,15.723a2.02,2.02,0,0,0-1.01,1.453L10.8,18.382a.567.567,0,0,1-.559.5H8.719a.574.574,0,0,1-.559-.48L7.919,17.2a2.042,2.042,0,0,0-.959-1.373l-1.017-.6a1.984,1.984,0,0,0-1.024-.283,1.954,1.954,0,0,0-.727.138l-1.177.458a.559.559,0,0,1-.727-.276l-.727-1.337a.61.61,0,0,1,.116-.727l1.046-.988a2.085,2.085,0,0,0,.683-1.577V9.707a2.078,2.078,0,0,0-.727-1.526L1.7,7.338a.618.618,0,0,1-.124-.8L2.4,5.2a.552.552,0,0,1,.727-.232l.9.385a1.969,1.969,0,0,0,1.758-.087l1.17-.639A2.071,2.071,0,0,0,7.992,3.044l.116-1.061a.574.574,0,0,1,.545-.53h1.627a.581.581,0,0,1,.567.509l.167,1.17a2.056,2.056,0,0,0,.9,1.453l.894.589a2,2,0,0,0,1.722.211l1.322-.421a.552.552,0,0,1,.647.254l.8,1.322a.625.625,0,0,1-.138.792l-.806.661a2.049,2.049,0,0,0-.77,1.606v1.228a2.056,2.056,0,0,0,.763,1.606l.828.668a.61.61,0,0,1,.138.792Z" transform="translate(0)"/>
      <path id="Path_17146" data-name="Path 17146" class="cls-1" d="M11.633,9.06a3.633,3.633,0,1,0,3.633,3.633A3.633,3.633,0,0,0,11.633,9.06Zm0,5.812a.9.9,0,1,1,0,.022Z" transform="translate(-2.187 -2.477)"/>
    </g>
  </g>
</svg>
