<svg width="22" height="16" viewBox="0 0 22 16" fill="none" xmlns="http://www.w3.org/2000/svg">
<path d="M18.8888 0H2.4445C1.09603 0 0 1.09603 0 2.4445V13.5555C0 14.904 1.09603 16 2.4445 16H18.8888C20.2373 16 21.3333 14.904 21.3333 13.5555V2.4445C21.3333 1.09603 20.2373 0 18.8888 0Z" fill="#B9DCFF"/>
<path d="M15.8794 6.9889L14.4509 5.78494V4.07517C14.4509 3.89869 14.3078 3.75564 14.1313 3.75564H13.1187C12.9422 3.75564 12.7992 3.89869 12.7992 4.07517V4.39212L11.2794 3.11145C11.1184 2.96285 10.8747 2.96285 10.7178 3.11145L6.12191 6.9889C5.99803 7.10447 5.95675 7.28207 6.0187 7.44305C6.08065 7.60001 6.23338 7.70325 6.40275 7.70325H7.06749V12.4973C7.06749 12.7244 7.25334 12.9102 7.48044 12.9102H14.5209C14.748 12.9102 14.9338 12.7244 14.9338 12.4973V7.70325H15.5986C15.7679 7.70325 15.9207 7.60001 15.9826 7.43893C16.0446 7.28207 16.0033 7.10447 15.8794 6.9889V6.9889ZM11.3124 11.409C11.1348 11.6526 10.7715 11.6526 10.5898 11.409C10.02 10.6245 8.97114 9.08012 8.97114 8.28728C8.97114 7.19718 9.85892 6.30933 10.9532 6.30933C12.0474 6.30933 12.9352 7.19718 12.9352 8.28728C12.9352 9.08012 11.8864 10.6245 11.3124 11.409Z" fill="#4F8AFF"/>
<path d="M10.9548 8.87785C11.4109 8.87785 11.7807 8.50809 11.7807 8.05196C11.7807 7.59584 11.4109 7.22607 10.9548 7.22607C10.4987 7.22607 10.1289 7.59584 10.1289 8.05196C10.1289 8.50809 10.4987 8.87785 10.9548 8.87785Z" fill="#4F8AFF"/>
</svg>
