<svg width="22" height="16" viewBox="0 0 22 16" fill="none" xmlns="http://www.w3.org/2000/svg">
<rect x="12" y="1" width="8" height="12" fill="#4F8AFF"/>
<path d="M18.8888 0H2.4445C1.09603 0 0 1.09603 0 2.4445V13.5555C0 14.904 1.09603 16 2.4445 16H18.8888C20.2373 16 21.3333 14.904 21.3333 13.5555V2.4445C21.3333 1.09603 20.2373 0 18.8888 0ZM18 12.4445H13.1112C12.7432 12.4445 12.4445 12.1458 12.4445 11.7778C12.4445 11.4098 12.7432 11.1112 13.1112 11.1112H18C18.368 11.1112 18.6667 11.4098 18.6667 11.7778C18.6667 12.1458 18.368 12.4445 18 12.4445ZM18 8.88883H13.1112C12.7432 8.88883 12.4445 8.59017 12.4445 8.22217C12.4445 7.85417 12.7432 7.5555 13.1112 7.5555H18C18.368 7.5555 18.6667 7.85417 18.6667 8.22217C18.6667 8.59017 18.368 8.88883 18 8.88883ZM18 5.33333H13.1112C12.7432 5.33333 12.4445 5.03467 12.4445 4.66667C12.4445 4.29867 12.7432 4 13.1112 4H18C18.368 4 18.6667 4.29867 18.6667 4.66667C18.6667 5.03467 18.368 5.33333 18 5.33333Z" fill="#B9DCFF"/>
<path d="M10.0526 6.82321L8.77828 4H4.22168L2.9474 6.82321C2.39196 7.05992 2 7.62438 2 8.28169V9.1831C2 9.95232 2.53678 10.5943 3.24426 10.7326V12H4.5553V10.7606H8.4447V12H9.75574V10.7326C10.4632 10.5943 11 9.95232 11 9.1831V8.28169C11 7.62438 10.608 7.05992 10.0526 6.82321ZM5.05755 5.35211H7.94245L8.55273 6.70423H4.44731L5.05755 5.35211Z" fill="#4F8AFF"/>
<circle cx="4.65" cy="8.65" r="0.65" fill="#B9DCFF"/>
<circle cx="8.65" cy="8.65" r="0.65" fill="#B9DCFF"/>
</svg>
