<svg width="18" height="17" viewBox="0 0 18 17" fill="none" xmlns="http://www.w3.org/2000/svg">
<path d="M17.8773 4.61851C17.8783 3.73664 17.6265 2.87297 17.1517 2.1298C16.677 1.38663 15.9991 0.795098 15.1986 0.425275C14.398 0.0554524 13.5082 -0.0771675 12.6346 0.0431242C11.7609 0.163416 10.9401 0.531579 10.2692 1.104C9.5984 1.67643 9.10568 2.42913 8.84944 3.27295C8.5932 4.11678 8.58417 5.01636 8.82343 5.86516C9.0627 6.71395 9.54022 7.47639 10.1994 8.06215C10.8587 8.64792 11.672 9.03248 12.543 9.17027V11.5479H10.6688C10.5923 11.5479 10.519 11.5783 10.4649 11.6324C10.4108 11.6864 10.3804 11.7598 10.3804 11.8362V12.7013C10.3804 12.7777 10.4108 12.8511 10.4649 12.9052C10.519 12.9592 10.5923 12.9896 10.6688 12.9896H12.543V14.8638C12.543 14.9403 12.5734 15.0136 12.6275 15.0677C12.6815 15.1218 12.7549 15.1522 12.8313 15.1522H13.6964C13.7728 15.1522 13.8462 15.1218 13.9003 15.0677C13.9543 15.0136 13.9847 14.9403 13.9847 14.8638V12.9896H15.8589C15.9354 12.9896 16.0087 12.9592 16.0628 12.9052C16.1169 12.8511 16.1473 12.7777 16.1473 12.7013V11.8362C16.1473 11.7598 16.1169 11.6864 16.0628 11.6324C16.0087 11.5783 15.9354 11.5479 15.8589 11.5479H13.9847V9.17027C15.0692 8.9993 16.0572 8.44692 16.7707 7.61251C17.4843 6.7781 17.8767 5.71643 17.8773 4.61851ZM13.2639 7.79027C12.6365 7.79027 12.0233 7.60425 11.5017 7.25573C10.9801 6.90721 10.5736 6.41185 10.3335 5.83229C10.0935 5.25272 10.0307 4.61499 10.153 3.99973C10.2754 3.38447 10.5775 2.81932 11.0211 2.37574C11.4647 1.93216 12.0298 1.63008 12.6451 1.5077C13.2603 1.38531 13.8981 1.44812 14.4776 1.68819C15.0572 1.92825 15.5526 2.33478 15.9011 2.85637C16.2496 3.37797 16.4356 3.99119 16.4356 4.61851C16.4356 5.45971 16.1014 6.26646 15.5066 6.86128C14.9118 7.4561 14.1051 7.79027 13.2639 7.79027Z" fill="#A5A4B5"/>
<path d="M5.33433 6.98105V3.21938L6.32565 4.0126C6.47545 4.12422 6.66273 4.17332 6.84803 4.14956C7.03333 4.1258 7.20216 4.03103 7.31896 3.88523C7.43575 3.73943 7.49138 3.55397 7.47412 3.36796C7.45685 3.18195 7.36805 3.0099 7.22643 2.88807L5.06386 1.15802C4.93603 1.05573 4.77719 1 4.61347 1C4.44976 1 4.29091 1.05573 4.16308 1.15802L2.00052 2.88807C1.8589 3.0099 1.77009 3.18195 1.75283 3.36796C1.73557 3.55397 1.7912 3.73943 1.90799 3.88523C2.02479 4.03103 2.19362 4.1258 2.37892 4.14956C2.56421 4.17332 2.7515 4.12422 2.9013 4.0126L3.89262 3.21938V6.98105C2.7459 7.16245 1.70973 7.76954 0.990842 8.68117C0.271957 9.59281 -0.076785 10.742 0.0141965 11.8994C0.105178 13.0568 0.629193 14.1374 1.48169 14.9255C2.33419 15.7136 3.45249 16.1513 4.61347 16.1513C5.77446 16.1513 6.89276 15.7136 7.74526 14.9255C8.59776 14.1374 9.12177 13.0568 9.21275 11.8994C9.30373 10.742 8.95499 9.59281 8.23611 8.68117C7.51722 7.76954 6.48105 7.16245 5.33433 6.98105ZM4.61347 14.7046C3.98616 14.7046 3.37293 14.5185 2.85134 14.17C2.32975 13.8215 1.92322 13.3262 1.68315 12.7466C1.44309 12.167 1.38028 11.5293 1.50266 10.914C1.62504 10.2988 1.92712 9.73362 2.3707 9.29004C2.81428 8.84646 3.37943 8.54438 3.9947 8.422C4.60996 8.29961 5.24769 8.36242 5.82725 8.60249C6.40682 8.84255 6.90218 9.24908 7.25069 9.77067C7.59921 10.2923 7.78523 10.9055 7.78523 11.5328C7.78523 12.374 7.45107 13.1808 6.85625 13.7756C6.26143 14.3704 5.45468 14.7046 4.61347 14.7046Z" fill="#A5A4B5"/>
</svg>
