<svg width="33" height="33" viewBox="0 0 33 33" fill="none" xmlns="http://www.w3.org/2000/svg">
<g style="mix-blend-mode:luminosity">
<path d="M13.143 7.11914V4.05359C6.47778 4.5237 1.02723 9.6373 0.134766 16.2456H3.22714C4.07875 11.3639 8.13695 7.5698 13.143 7.11914Z" fill="#B9DCFF"/>
<path d="M15.1514 29.1945V32.2601C22.4508 31.7462 28.2383 25.6665 28.2871 18.2506H25.2301C25.1834 23.935 20.834 28.6796 15.1514 29.1945Z" fill="#B9DCFF"/>
<path d="M23.4066 12.0749H31.1287C31.7681 12.0749 32.2493 11.4832 32.1085 10.8597C30.8367 5.22237 26.1992 0.89196 20.4727 0.0117986C19.8665 -0.0814847 19.3203 0.390347 19.3203 1.0037V8.35758C20.9748 9.23454 22.3812 10.5186 23.4066 12.0749Z" fill="#4294FF"/>
<path d="M3.06401 18.2506C2.64067 18.2506 0.436571 18.2506 0.0078125 18.2506C0.0078125 25.3195 5.53343 31.6965 13.1357 32.2601C13.1384 32.2601 13.1416 32.2608 13.1443 32.2608V29.1945C7.47761 28.6814 3.11102 23.9475 3.06401 18.2506Z" fill="#B9DCFF"/>
<path d="M5.06934 18.1565C5.06934 20.7187 6.16929 23.1842 8.08394 24.9091V24.5997C8.08394 22.3375 9.32936 20.3608 11.1709 19.3195C10.2853 18.4452 9.87134 17.2562 9.90752 16.2453C9.93828 13.9228 11.8391 12.0621 14.1469 12.0621H14.1476C16.4585 12.0621 18.3554 13.9268 18.3862 16.2453C18.4229 17.2709 17.9998 18.4555 17.1228 19.3195C18.9636 20.3608 20.209 22.3375 20.209 24.5997V24.911C22.121 23.1884 23.2244 20.7239 23.2244 18.1565C23.2244 13.1615 19.1647 9.07947 14.1476 9.07947H14.1469C9.15116 9.07947 5.06934 13.1428 5.06934 18.1565Z" fill="#B9DCFF"/>
<path d="M14.1467 14.068C12.9156 14.068 11.9121 15.0702 11.9121 16.3026C11.9121 17.5347 12.9144 18.538 14.1467 18.538H14.1475C15.3845 18.538 16.3813 17.5308 16.3813 16.3026C16.3813 15.0688 15.3774 14.068 14.1475 14.068H14.1467Z" fill="#4294FF"/>
<path d="M18.2043 24.5996C18.2043 22.3605 16.3814 20.5426 14.148 20.5426H14.1473C11.907 20.5426 10.0898 22.3649 10.0898 24.5996V26.2787C12.7756 27.5996 15.7314 27.5051 18.2043 26.2794V24.5996Z" fill="#4294FF"/>
</g>
</svg>