<svg version="1.2" xmlns="http://www.w3.org/2000/svg" viewBox="0 0 25 7" width="25" height="7">
	<title>fb-input-progress-bar-svg</title>
	<style>
		.s0 { opacity: .4;mix-blend-mode: luminosity;fill: #3698ff } 
		.s1 { opacity: .8;mix-blend-mode: luminosity;fill: #3698ff } 
	</style>
	<g id="Layer">
		<path id="Layer" class="s0" d="m0 3.5c0-0.8 0.7-1.5 1.5-1.5h22c0.8 0 1.5 0.7 1.5 1.5 0 0.8-0.7 1.5-1.5 1.5h-22c-0.8 0-1.5-0.7-1.5-1.5z"/>
		<path id="Layer" class="s1" d="m0 2c0-1.1 0.9-2 2-2h1c1.1 0 2 0.9 2 2v3c0 1.1-0.9 2-2 2h-1c-1.1 0-2-0.9-2-2z"/>
		<path id="Layer copy" class="s1" d="m10 2c0-1.1 0.9-2 2-2h1c1.1 0 2 0.9 2 2v3c0 1.1-0.9 2-2 2h-1c-1.1 0-2-0.9-2-2z"/>
		<path id="Layer copy 2" class="s1" d="m20 2c0-1.1 0.9-2 2-2h1c1.1 0 2 0.9 2 2v3c0 1.1-0.9 2-2 2h-1c-1.1 0-2-0.9-2-2z"/>
	</g>
</svg>