<svg width="100" height="100" viewBox="0 0 100 100" fill="none" xmlns="http://www.w3.org/2000/svg">
<g clip-path="url(#clip0_14_862)">
<path d="M77.4265 52.4109H89.1444V80.4688H77.4265V52.4109Z" fill="#99A8FF"/>
<path d="M55.2356 52.4109H66.9543V80.4688H55.2356V52.4109Z" fill="#99A8FF"/>
<path d="M33.0447 52.4109H44.7635V80.4688H33.0447V52.4109Z" fill="#99A8FF"/>
<path d="M10.8547 52.4109H22.5727V80.4688H10.8547V52.4109Z" fill="#99A8FF"/>
<path d="M93.0515 43.6218V40.6921H6.94843V43.6218C6.94843 45.24 8.25992 46.5515 9.87811 46.5515H90.1218C91.7392 46.5515 93.0515 45.24 93.0515 43.6218Z" fill="#A5B2FF" fill-opacity="0.49"/>
<path d="M97.0684 86.3281H2.93231C1.31412 86.3281 0.00262451 87.6396 0.00262451 89.2578V97.0703C0.00262451 98.6885 1.31412 100 2.93231 100H97.0684C98.6866 100 99.998 98.6885 99.998 97.0703V89.2578C99.998 87.6396 98.6866 86.3281 97.0684 86.3281Z" fill="#A5B2FF" fill-opacity="0.49"/>
<path d="M2.92943 34.8328H97.0701C98.3808 34.8328 99.5321 33.9622 99.8891 32.7011C100.245 31.44 99.722 30.0949 98.6059 29.4083L51.5355 0.434875C50.5941 -0.144958 49.4062 -0.144958 48.4639 0.434875L1.39363 29.4083C0.277448 30.0957 -0.245928 31.44 0.111128 32.7011C0.468183 33.9622 1.61946 34.8328 2.92943 34.8328Z" fill="#99A8FF"/>
<path d="M44.0386 25C43.7101 25 43.4106 24.8162 43.249 24.5303C43.034 24.1497 42.7851 23.7435 42.5024 23.3117C42.0999 22.697 41.6791 22.1039 41.24 21.5325C41.057 21.7576 40.8558 22.026 40.6362 22.3377C40.4258 22.6494 40.2109 22.9697 39.9913 23.2987C39.7809 23.619 39.5842 23.9307 39.4013 24.2338C39.3331 24.3467 39.27 24.453 39.212 24.5527C39.0535 24.8251 38.765 25 38.4498 25C37.8004 25 37.3959 24.3041 37.7457 23.757C37.9602 23.4215 38.1873 23.0826 38.427 22.7403C38.9668 21.961 39.5522 21.1472 40.1834 20.2987L38.0719 17.319C37.6797 16.7655 38.0755 16 38.7538 16C39.0301 16 39.2886 16.1366 39.4443 16.3648L41.2949 19.0779L43.1276 16.3554C43.2771 16.1332 43.5274 16 43.7953 16C44.4468 16 44.8283 16.7336 44.4543 17.267L42.3377 20.2857C43.0329 21.1775 43.6458 22.0216 44.1764 22.8182C44.3863 23.128 44.5831 23.4274 44.7668 23.7163C45.1268 24.2827 44.7097 25 44.0386 25Z" fill="#EEF1FF"/>
<path d="M53.2712 25C52.9427 25 52.6432 24.8162 52.4816 24.5303C52.2666 24.1497 52.0177 23.7435 51.7349 23.3117C51.3324 22.697 50.9116 22.1039 50.4726 21.5325C50.2896 21.7576 50.0884 22.026 49.8688 22.3377C49.6584 22.6494 49.4434 22.9697 49.2239 23.2987C49.0135 23.619 48.8168 23.9307 48.6339 24.2338C48.5657 24.3467 48.5026 24.453 48.4446 24.5527C48.2861 24.8251 47.9976 25 47.6824 25C47.033 25 46.6285 24.3041 46.9782 23.757C47.1927 23.4215 47.4199 23.0826 47.6596 22.7403C48.1993 21.961 48.7848 21.1472 49.416 20.2987L47.3045 17.319C46.9123 16.7655 47.3081 16 47.9864 16C48.2627 16 48.5212 16.1366 48.6769 16.3648L50.5274 19.0779L52.3601 16.3554C52.5097 16.1332 52.76 16 53.0279 16C53.6793 16 54.0609 16.7336 53.6869 17.267L51.5703 20.2857C52.2655 21.1775 52.8784 22.0216 53.409 22.8182C53.6189 23.128 53.8157 23.4274 53.9994 23.7163C54.3594 24.2827 53.9423 25 53.2712 25Z" fill="#EEF1FF"/>
<path d="M62.5038 25C62.1753 25 61.8758 24.8162 61.7142 24.5303C61.4992 24.1497 61.2503 23.7435 60.9675 23.3117C60.565 22.697 60.1442 22.1039 59.7051 21.5325C59.5222 21.7576 59.3209 22.026 59.1014 22.3377C58.891 22.6494 58.676 22.9697 58.4565 23.2987C58.2461 23.619 58.0494 23.9307 57.8665 24.2338C57.7983 24.3467 57.7352 24.453 57.6772 24.5527C57.5187 24.8251 57.2302 25 56.9149 25C56.2656 25 55.861 24.3041 56.2108 23.757C56.4253 23.4215 56.6525 23.0826 56.8922 22.7403C57.4319 21.961 58.0174 21.1472 58.6486 20.2987L56.5371 17.319C56.1449 16.7655 56.5406 16 57.219 16C57.4953 16 57.7538 16.1366 57.9095 16.3648L59.76 19.0779L61.5927 16.3554C61.7423 16.1332 61.9926 16 62.2605 16C62.9119 16 63.2935 16.7336 62.9195 17.267L60.8029 20.2857C61.4981 21.1775 62.111 22.0216 62.6416 22.8182C62.8515 23.128 63.0483 23.4274 63.232 23.7163C63.592 24.2827 63.1749 25 62.5038 25Z" fill="#EEF1FF"/>
</g>
<defs>
<clipPath id="clip0_14_862">
<rect width="100" height="100" fill="white"/>
</clipPath>
</defs>
</svg>
