<svg width="17" height="15" viewBox="0 0 17 15" fill="none" xmlns="http://www.w3.org/2000/svg">
<path d="M5.61396 2.85878C5.47651 2.85878 5.34469 2.80418 5.2475 2.70699C5.15031 2.60979 5.0957 2.47797 5.0957 2.34052C5.0957 2.20307 5.15031 2.07125 5.2475 1.97406C5.34469 1.87687 5.47651 1.82227 5.61396 1.82227H16.46C16.5975 1.82227 16.7293 1.87687 16.8265 1.97406C16.9237 2.07125 16.9783 2.20307 16.9783 2.34052C16.9783 2.47797 16.9237 2.60979 16.8265 2.70699C16.7293 2.80418 16.5975 2.85878 16.46 2.85878H5.61396ZM5.61396 8.04135C5.47651 8.04135 5.34469 7.98675 5.2475 7.88955C5.15031 7.79236 5.0957 7.66054 5.0957 7.52309C5.0957 7.38564 5.15031 7.25382 5.2475 7.15663C5.34469 7.05943 5.47651 7.00483 5.61396 7.00483H16.46C16.5975 7.00483 16.7293 7.05943 16.8265 7.15663C16.9237 7.25382 16.9783 7.38564 16.9783 7.52309C16.9783 7.66054 16.9237 7.79236 16.8265 7.88955C16.7293 7.98675 16.5975 8.04135 16.46 8.04135H5.61396ZM5.61396 13.2239C5.47651 13.2239 5.34469 13.1693 5.2475 13.0721C5.15031 12.9749 5.0957 12.8431 5.0957 12.7057C5.0957 12.5682 5.15031 12.4364 5.2475 12.3392C5.34469 12.242 5.47651 12.1874 5.61396 12.1874H16.46C16.5975 12.1874 16.7293 12.242 16.8265 12.3392C16.9237 12.4364 16.9783 12.5682 16.9783 12.7057C16.9783 12.8431 16.9237 12.9749 16.8265 13.0721C16.7293 13.1693 16.5975 13.2239 16.46 13.2239H5.61396Z" fill="#545C7F"/>
<path d="M1.37743 3.4866H1.94129V2.00542C1.94129 1.93632 1.94337 1.86031 1.94751 1.77739L1.61272 2.0531C1.59364 2.0692 1.57189 2.08183 1.54845 2.09041C1.5285 2.09763 1.50748 2.10148 1.48626 2.10181C1.45372 2.10239 1.42159 2.09453 1.39298 2.07901C1.36948 2.06667 1.34869 2.04975 1.33182 2.02926L1.13281 1.76806L2.04805 1H2.56631V3.48763H3.05036V3.93852H1.37743V3.4866Z" fill="#545C7F" stroke="#545C7F" stroke-width="0.207303"/>
<path d="M2.08005 5.80579C2.21334 5.8038 2.34595 5.8252 2.47185 5.86902C2.58171 5.90745 2.68283 5.96735 2.76933 6.04523C2.85116 6.12018 2.91556 6.21217 2.95797 6.31472C3.00244 6.42357 3.02465 6.54023 3.02327 6.65781C3.02418 6.75911 3.00879 6.85991 2.97767 6.95632C2.94713 7.04818 2.90535 7.13591 2.85329 7.21752C2.79918 7.30223 2.73816 7.38231 2.67086 7.45696C2.60176 7.53435 2.52817 7.61243 2.45008 7.69121L1.87689 8.27995C1.94881 8.25877 2.02182 8.24147 2.09559 8.22812C2.164 8.21571 2.23338 8.20947 2.3029 8.20947H2.85121C2.90958 8.20602 2.96695 8.22577 3.01084 8.2644C3.03029 8.28328 3.04552 8.30606 3.05553 8.33125C3.06553 8.35644 3.07009 8.38347 3.06888 8.41055V8.77333H1V8.57225C1.00031 8.52867 1.00839 8.4855 1.02384 8.44475C1.0421 8.39902 1.07128 8.35845 1.10883 8.32659L1.95567 7.47458C2.02232 7.40869 2.08562 7.3395 2.14535 7.26728C2.19544 7.20652 2.23985 7.14129 2.27802 7.07241C2.31169 7.01179 2.33813 6.94744 2.3568 6.88066C2.37489 6.81307 2.38361 6.74331 2.38271 6.67335C2.38928 6.5762 2.35934 6.48009 2.29875 6.40386C2.26551 6.37081 2.22551 6.34536 2.18149 6.32926C2.13747 6.31316 2.09049 6.30678 2.04377 6.31057C2.00013 6.30997 1.9567 6.31663 1.91524 6.33027C1.87817 6.34289 1.84322 6.36107 1.81159 6.38417C1.77969 6.40979 1.75235 6.44063 1.73074 6.47538C1.7081 6.50729 1.68996 6.54217 1.67684 6.57903C1.66177 6.62913 1.63349 6.67424 1.59496 6.70963C1.55641 6.73817 1.50915 6.75245 1.46125 6.75006H1.41771L1.37107 6.73451L1.04042 6.67646C1.05809 6.54243 1.10025 6.41278 1.16481 6.29399C1.22252 6.18956 1.29996 6.09733 1.39284 6.02242C1.48522 5.94917 1.59077 5.89428 1.70379 5.86073C1.8258 5.82389 1.9526 5.80538 2.08005 5.80579Z" fill="#545C7F" stroke="#545C7F" stroke-width="0.207303"/>
<path d="M2.1361 11.0441C2.26755 11.0418 2.39838 11.0625 2.52272 11.1053C2.62785 11.1416 2.72498 11.198 2.80879 11.2711C2.88469 11.3382 2.94516 11.421 2.98604 11.5137C3.02618 11.6055 3.04665 11.7047 3.04616 11.8049C3.04742 11.8873 3.03802 11.9695 3.01817 12.0495C3.00171 12.1148 2.97362 12.1766 2.93525 12.232C2.89805 12.2838 2.85168 12.3284 2.79843 12.3636C2.74033 12.4015 2.67763 12.4318 2.61186 12.4538C2.75695 12.4915 2.88461 12.578 2.97334 12.6989C3.06208 12.8197 3.10646 12.9674 3.09902 13.1171C3.10226 13.2576 3.07318 13.397 3.01402 13.5245C2.96058 13.6361 2.88306 13.7345 2.78703 13.8126C2.68928 13.8907 2.57735 13.9491 2.45742 13.9847C2.33073 14.0231 2.19902 14.0423 2.06665 14.0417C1.93999 14.0429 1.81376 14.0269 1.69143 13.994C1.58665 13.9658 1.48817 13.918 1.40121 13.8531C1.31452 13.7867 1.24014 13.7057 1.18147 13.6136C1.11225 13.5025 1.05657 13.3835 1.01562 13.2591L1.29341 13.1462C1.31621 13.1356 1.34023 13.128 1.36493 13.1234C1.38786 13.1193 1.41109 13.1173 1.43438 13.1171C1.47447 13.1164 1.5142 13.1249 1.55047 13.142C1.5837 13.1579 1.61095 13.1841 1.6282 13.2166C1.67442 13.3103 1.74016 13.393 1.821 13.4592C1.88999 13.5099 1.97377 13.5365 2.05939 13.5349C2.12203 13.5363 2.18424 13.5243 2.24182 13.4996C2.29024 13.4784 2.33394 13.4478 2.37035 13.4094C2.4044 13.3729 2.43083 13.3299 2.44809 13.283C2.46521 13.2372 2.47399 13.1888 2.474 13.1399C2.47434 13.083 2.46984 13.0261 2.46052 12.97C2.45159 12.9196 2.4256 12.8739 2.38693 12.8404C2.33552 12.7983 2.27473 12.7691 2.20969 12.7554C2.0978 12.7331 1.98376 12.7234 1.86971 12.7264V12.2952C1.96928 12.2976 2.06879 12.2882 2.16616 12.2672C2.22906 12.2539 2.28842 12.2274 2.34029 12.1895C2.37755 12.1586 2.40435 12.117 2.41699 12.0703C2.43076 12.0196 2.43739 11.9673 2.43669 11.9148C2.44303 11.8183 2.41309 11.7229 2.35273 11.6474C2.31949 11.6143 2.27948 11.5889 2.23546 11.5728C2.19145 11.5567 2.14446 11.5503 2.09775 11.5541C2.05411 11.5535 2.01067 11.5601 1.96922 11.5738C1.93214 11.5864 1.8972 11.6046 1.86557 11.6277C1.83484 11.6519 1.80824 11.681 1.78679 11.7137C1.76415 11.7456 1.74601 11.7805 1.73289 11.8174C1.71782 11.8674 1.68954 11.9126 1.65101 11.948C1.61246 11.9765 1.5652 11.9908 1.5173 11.9884H1.47376L1.42712 11.9728L1.09647 11.9148C1.11414 11.7807 1.1563 11.6511 1.22085 11.5323C1.27857 11.4279 1.35601 11.3356 1.44889 11.2607C1.54127 11.1875 1.64682 11.1326 1.75984 11.099C1.88185 11.0622 2.00865 11.0437 2.1361 11.0441Z" fill="#545C7F" stroke="#545C7F" stroke-width="0.207303"/>
</svg>
