<svg width="16" height="17" viewBox="0 0 16 17" fill="none" xmlns="http://www.w3.org/2000/svg">
<path d="M14.9414 13.8615L14.9414 2.44608C14.9414 1.91488 14.781 1.46356 14.5583 1.16258C14.3354 0.86146 14.0875 0.749926 13.8809 0.749926L1.81055 0.749926C1.60387 0.749926 1.35601 0.86146 1.13313 1.16258C0.91036 1.46356 0.749998 1.91488 0.749998 2.44608L0.749998 13.8615C0.749998 14.3927 0.91036 14.844 1.13313 15.145C1.35601 15.4461 1.60387 15.5576 1.81055 15.5576L13.8809 15.5576C14.0875 15.5576 14.3354 15.4461 14.5583 15.145C14.781 14.844 14.9414 14.3927 14.9414 13.8615Z" stroke="#A5A4B5" stroke-width="1.5"/>
<path d="M11.333 11.3076L11.333 5.30762M7.84603 11.3076L7.84603 5.30762M4.35905 11.3076L4.35905 8.30762" stroke="#A5A4B5" stroke-width="1.5" stroke-linecap="round" stroke-linejoin="round"/>
</svg>
