<svg width="14" height="14" viewBox="0 0 14 14" fill="none" xmlns="http://www.w3.org/2000/svg">
<path d="M5.59661 7.40337C5.32066 7.67938 5.32066 8.12675 5.59661 8.40276C5.87257 8.6787 6.31999 8.6787 6.59593 8.40276L5.59661 7.40337ZM10.0204 4.97827C10.2964 4.70231 10.2964 4.2549 10.0204 3.97894C9.74447 3.70298 9.29703 3.70298 9.02109 3.97894L10.0204 4.97827ZM6.59593 8.40276L10.0204 4.97827L9.02109 3.97894L5.59661 7.40337L6.59593 8.40276Z" fill="#A3ACC6"/>
<path d="M8.51538 12.9025L7.8833 13.2186L8.51538 12.9025ZM9.82279 12.7944L9.14739 12.5865L9.82279 12.7944ZM5.83203 7.85196L5.51601 8.48397L5.83203 7.85196ZM6.14802 8.16796L6.7801 7.85196L6.14802 8.16796ZM1.20563 4.17724L1.41344 4.85262L1.20563 4.17724ZM1.09743 5.48466L0.781406 6.11668L1.09743 5.48466ZM12.3768 0.739925L12.5847 1.41531L12.3768 0.739925ZM13.2601 1.62313L13.9355 1.83093L13.2601 1.62313ZM12.1691 0.0645391L0.99782 3.50185L1.41344 4.85262L12.5847 1.41531L12.1691 0.0645391ZM0.781406 6.11668L5.51601 8.48397L6.14802 7.21994L1.41344 4.85262L0.781406 6.11668ZM5.51601 8.48397L7.8833 13.2186L9.14739 12.5865L6.7801 7.85196L5.51601 8.48397ZM10.4981 13.0022L13.9355 1.83093L12.5847 1.41531L9.14739 12.5865L10.4981 13.0022ZM7.8833 13.2186C8.45348 14.359 10.1232 14.2208 10.4981 13.0022L9.14739 12.5865L7.8833 13.2186ZM5.51601 8.48397L6.7801 7.85196C6.6433 7.57842 6.42156 7.35668 6.14802 7.21994L5.51601 8.48397ZM0.99782 3.50185C-0.220798 3.87681 -0.35898 5.54649 0.781406 6.11668L1.41344 4.85262V4.85262L0.99782 3.50185ZM12.5847 1.41531L13.9355 1.83093C14.2691 0.746567 13.2534 -0.269112 12.1691 0.0645391L12.5847 1.41531Z" fill="#A3ACC6"/>
</svg>
