<svg width="143" height="120" viewBox="0 0 143 120" fill="none" xmlns="http://www.w3.org/2000/svg">
<path d="M47.5187 101.485L46.7422 105.326L61.1817 110.15L62.3279 104.481L47.5187 101.485Z" fill="#FFB6B6"/>
<path d="M48.97 100.759L47.4407 108.323L47.4406 108.323C47.182 109.602 46.4264 110.725 45.34 111.446C44.2535 112.167 42.9252 112.427 41.6473 112.169L41.4907 112.137L43.9948 99.7522L48.97 100.759Z" fill="#2F2E41"/>
<path d="M63.8816 48.5784C69.2965 48.5784 73.6861 44.1871 73.6861 38.7701C73.6861 33.3532 69.2965 28.9619 63.8816 28.9619C58.4668 28.9619 54.0771 33.3532 54.0771 38.7701C54.0771 44.1871 58.4668 48.5784 63.8816 48.5784Z" fill="#FEB8B8"/>
<path d="M73.0393 30.3084C71.5734 27.9272 69.2789 26.1726 66.5974 25.3823L65.3937 26.261V25.12C64.7497 25.0214 64.0979 24.9834 63.4469 25.0066L62.4084 25.9465V25.0847C60.8709 25.2758 59.3896 25.7836 58.058 26.5759C56.7264 27.3683 55.5734 28.428 54.6716 29.6884C52.4165 32.9407 52.0358 37.4655 54.2539 40.7439C54.8627 38.8719 55.6018 37.1155 56.2108 35.2437C56.6893 35.3089 57.1744 35.3113 57.6535 35.2507L58.3943 33.5214L58.6012 35.1775C60.8974 34.9774 64.3031 34.538 66.4798 34.1354L66.2681 32.8649L67.5345 33.9206C68.2014 33.7671 68.5974 33.6277 68.5647 33.5213C70.1836 36.1322 72.1649 37.7998 73.7836 40.4107C74.3985 36.7291 75.1062 33.668 73.0393 30.3084Z" fill="#2F2E41"/>
<path d="M67.0717 102.953C81.0141 102.953 92.3167 99.7906 92.3167 95.8891C92.3167 91.9877 81.0141 88.825 67.0717 88.825C53.1292 88.825 41.8267 91.9877 41.8267 95.8891C41.8267 99.7906 53.1292 102.953 67.0717 102.953Z" fill="#2F2E41"/>
<path d="M84.9684 63.9924C84.6313 61.9633 84.2835 59.8952 83.3408 58.0673C82.7213 56.87 81.7378 55.729 80.412 55.4923C80.1508 55.469 79.8942 55.4095 79.6494 55.3157C79.2609 55.1285 74.0406 52.1473 73.2109 51.628C72.4985 51.1823 71.3739 50.3569 70.8069 50.3569C70.2364 50.3444 68.049 50.8537 59.5112 50.186C58.0751 50.7627 56.6844 51.4468 55.3509 52.2323C55.3234 52.2142 46.4895 56.9598 46.1576 56.9473C45.5291 56.9208 44.9449 57.3234 44.5846 57.8304C44.2243 58.3373 44.0553 58.9649 43.8784 59.5717C45.8079 63.8702 47.5733 68.1743 49.5029 72.4728C49.5933 72.6347 49.6413 72.8169 49.6425 73.0023C49.6037 73.1947 49.5216 73.3758 49.4024 73.5317C48.4562 75.0524 48.4862 76.965 48.5896 78.7523C48.6931 80.5396 48.821 82.4274 48.0226 84.0294C47.8054 84.4692 47.523 84.8718 47.3164 85.3116C46.8327 86.3077 46.6579 89.4937 46.9404 90.5639L82.3369 91.5784C81.5758 89.4855 84.9684 63.9924 84.9684 63.9924Z" fill="#79A6FF"/>
<path d="M40.8186 72.6635C40.748 73.1746 40.7409 73.6925 40.7975 74.2053L41.3048 81.4939C41.3524 82.1809 41.3993 82.8662 41.4638 83.5514C41.5855 84.8813 41.7673 86.2006 41.993 87.5179C41.9981 87.705 42.0772 87.8824 42.2128 88.0112C42.3485 88.14 42.5298 88.2096 42.7167 88.2049C44.95 88.6776 47.2573 88.6587 49.5364 88.5299C53.0143 88.3358 61.9121 87.9684 62.4557 87.2619C62.9993 86.5555 62.6825 85.4128 61.9737 84.8416C61.2649 84.2703 49.523 82.8777 49.523 82.8777C49.6378 81.9682 49.9838 81.1116 50.3122 80.248C50.9019 78.7164 51.4527 77.1345 51.4633 75.4938C51.4739 73.853 50.856 72.128 49.5124 71.188C48.4073 70.4164 46.9843 70.2732 45.6376 70.305C44.6577 70.3332 42.9647 70.0983 42.0697 70.4816C41.3615 70.7936 40.951 71.9697 40.8186 72.6635Z" fill="#FBBEBE"/>
<path d="M85.0313 89.1394C85.6191 88.9151 86.2671 88.9962 86.8973 89.0811C88.9258 89.3583 90.9842 89.6427 92.8643 90.4533C93.747 90.8315 94.5874 91.3364 95.1841 92.0795C95.7134 92.7489 96.0226 93.5684 96.3158 94.3754L96.9938 96.2334C97.282 96.9314 97.4807 97.663 97.5852 98.4109C97.7971 100.634 96.277 102.731 94.3651 103.886C92.4532 105.041 90.2024 105.452 88.0096 105.883C85.8168 106.314 83.6156 106.791 81.4319 107.296C80.4133 107.56 79.3799 107.764 78.3371 107.905C75.9997 108.17 73.5565 107.78 71.3356 108.554C70.4528 108.863 69.586 109.322 68.6704 109.535C68.0618 109.664 67.4465 109.757 66.8273 109.816L62.624 110.297C61.7692 110.411 60.9087 110.477 60.0466 110.494C58.2106 110.494 56.4046 110.059 54.6218 109.625C54.4324 109.591 54.252 109.518 54.0925 109.411C53.8102 109.188 53.7484 108.794 53.7077 108.438C53.5276 106.859 53.3701 105.278 53.2352 103.696C53.1928 103.182 53.1611 102.626 53.4418 102.193C53.7948 101.664 54.4834 101.497 55.1119 101.395C57.7769 100.959 60.4766 100.771 63.1763 100.835C64.2019 99.8089 65.8932 99.8036 67.2367 99.2454C67.731 99.0183 68.2093 98.7581 68.6685 98.4665C71.0717 97.0639 73.7573 96.2151 76.5297 95.9817C77.0727 95.9652 77.6121 95.8882 78.1381 95.7522C79.1776 95.429 80.1259 94.5494 81.1939 94.7649C81.3262 94.3994 81.4181 93.9101 81.7231 93.6593C81.8743 93.5304 82.062 93.444 82.2015 93.3061C82.4964 93.0077 82.5229 92.5378 82.4786 92.1211C82.4344 91.7043 82.3355 91.277 82.4433 90.8707C82.4881 90.7169 82.5541 90.57 82.6393 90.4344C83.167 89.5207 83.9668 89.051 85.0313 89.1394Z" fill="#2F2E41"/>
<path d="M43.7764 59.7026C43.6044 59.8827 43.4711 60.0961 43.3845 60.3296C41.9575 63.5469 41.1147 66.9927 40.8954 70.5056C40.8992 70.6769 40.8598 70.8464 40.7807 70.9984C40.7026 71.0995 40.6158 71.1935 40.5211 71.2792C40.4386 71.3771 40.3762 71.4902 40.3374 71.6122C40.2986 71.7342 40.2842 71.8627 40.295 71.9903C40.3058 72.1178 40.3417 72.242 40.4005 72.3558C40.4593 72.4695 40.5399 72.5705 40.6377 72.653C40.6537 72.6666 40.6702 72.6796 40.6871 72.6921C40.9784 72.1437 41.6757 71.9645 42.2954 71.9168C45.263 71.682 48.1617 73.0631 51.1382 72.9589C50.9282 72.233 50.6261 71.5354 50.4549 70.8008C49.6975 67.5388 51.5865 63.9874 50.4284 60.8455C50.1971 60.2167 49.8105 59.5986 49.2015 59.3231C48.9493 59.2213 48.6855 59.1515 48.416 59.1151C47.6639 58.9792 46.1667 58.3981 45.4395 58.6312C45.1711 58.7178 45.0653 58.9703 44.8428 59.1229C44.5048 59.3388 44.0565 59.4182 43.7764 59.7026Z" fill="#79A6FF"/>
<path d="M84.9893 70.4816C84.0943 70.0983 82.4012 70.3332 81.4214 70.305C80.0746 70.2732 78.6517 70.4164 77.5466 71.188C76.203 72.128 75.5851 73.853 75.5957 75.4938C75.6063 77.1345 76.1571 78.7164 76.7468 80.248C77.0751 81.1116 77.4212 81.9682 77.536 82.8777C77.536 82.8777 65.7941 84.2703 65.0853 84.8416C64.3765 85.4128 64.0597 86.5555 64.6033 87.2619C65.1469 87.9684 82.109 88.6776 84.3423 88.2049C84.5292 88.2096 84.7105 88.14 84.8461 88.0112C84.9818 87.8824 85.0609 87.705 85.066 87.5179C85.2917 86.2006 85.4735 84.8813 85.5952 83.5514C85.6597 82.8662 85.7066 82.1809 85.7542 81.4939L86.2615 74.2053C86.3181 73.6925 86.311 73.1746 86.2404 72.6635C86.108 71.9697 85.6975 70.7936 84.9893 70.4816Z" fill="#FBBEBE"/>
<path d="M82.2168 59.1229C81.9943 58.9703 81.8884 58.7178 81.62 58.6312C80.8929 58.3981 79.3957 58.9792 78.6436 59.1151C78.3741 59.1515 78.1102 59.2213 77.858 59.3231C77.249 59.5986 76.8625 60.2167 76.6311 60.8455C75.473 63.9874 77.3621 67.5388 76.6047 70.8008C76.4334 71.5354 76.1314 72.233 75.9214 72.9589C78.8978 73.0631 81.7966 71.682 84.7641 71.9168C85.3839 71.9645 86.0812 72.1437 86.3725 72.6921C86.3894 72.6796 86.4058 72.6666 86.4219 72.653C86.5197 72.5705 86.6003 72.4695 86.6591 72.3558C86.7179 72.242 86.7537 72.1178 86.7646 71.9903C86.7754 71.8627 86.761 71.7342 86.7222 71.6122C86.6834 71.4902 86.621 71.3771 86.5384 71.2792C86.4438 71.1935 86.3569 71.0995 86.2789 70.9984C86.1998 70.8464 86.1603 70.6769 86.1642 70.5056C85.9449 66.9927 85.102 63.5469 83.675 60.3296C83.5885 60.0961 83.4551 59.8827 83.2832 59.7026C83.0031 59.4182 82.5547 59.3388 82.2168 59.1229Z" fill="#79A6FF"/>
<path d="M87.1804 106.968L86.6644 110.853L71.4414 110.71L72.2031 104.977L87.1804 106.968Z" fill="#FFB6B6"/>
<path d="M91.0759 106.478L89.4118 119.003L89.2534 118.982C87.961 118.81 86.7897 118.132 85.9972 117.096C85.2048 116.06 84.856 114.752 85.0277 113.459L85.0277 113.459L86.0441 105.809L91.0759 106.478Z" fill="#2F2E41"/>
<path d="M51.3668 91.1051C51.3668 91.2817 51.0897 91.1051 51.0643 90.916C50.8702 89.4873 49.7367 88.3092 48.4162 87.7371C47.0957 87.1649 45.5916 87.1348 44.1616 87.2708C41.9991 87.4755 39.5716 88.304 38.7807 90.3261C38.5936 90.7988 36.8407 95.0079 37.0117 95.9545C37.4726 98.48 39.199 100.64 41.2911 102.136C43.3831 103.632 45.8274 104.525 48.2658 105.331C54.7124 107.458 61.3265 109.039 68.0382 110.056C69.1256 110.22 70.2238 110.372 71.2653 110.721C72.1973 111.034 73.0694 111.502 73.9805 111.869C76.099 112.72 78.3781 113.024 80.6359 113.323C81.0208 113.372 81.4621 113.408 81.7464 113.146C82.1137 112.806 81.9921 112.212 81.8876 111.723C81.5044 109.863 81.8259 107.927 82.7898 106.29C83.1678 105.655 83.6592 105.003 83.5878 104.267C83.5031 103.409 82.6486 102.801 81.7976 102.664C80.9467 102.526 80.0817 102.729 79.227 102.84C78.9341 102.907 78.6272 102.877 78.3532 102.754C78.2262 102.668 78.111 102.566 78.0107 102.45C77.422 101.882 76.6687 101.515 75.8587 101.402C75.0487 101.288 74.2236 101.435 73.5019 101.819C73.1858 101.996 72.708 101.602 72.3791 101.454L68.6665 99.7726C64.4013 97.8424 60.115 95.9031 55.6026 94.681C55.2426 94.6102 54.9004 94.4678 54.5963 94.2623C54.3721 94.0857 54.2115 93.8463 54.0049 93.6495C53.5546 93.2239 52.9275 93.0542 52.3878 92.7523C51.8482 92.4503 51.2431 91.7108 51.3668 91.1051Z" fill="#2F2E41"/>
<path d="M60.9778 88.553C62.4392 88.553 63.624 87.3678 63.624 85.9058C63.624 84.4438 62.4392 83.2585 60.9778 83.2585C59.5163 83.2585 58.3315 84.4438 58.3315 85.9058C58.3315 87.3678 59.5163 88.553 60.9778 88.553Z" fill="#FBBEBE"/>
<path d="M66.8371 88.553C68.2986 88.553 69.4834 87.3678 69.4834 85.9058C69.4834 84.4438 68.2986 83.2585 66.8371 83.2585C65.3757 83.2585 64.1909 84.4438 64.1909 85.9058C64.1909 87.3678 65.3757 88.553 66.8371 88.553Z" fill="#FBBEBE"/>
<path d="M83.1715 91.871H46.8163C46.3919 91.8705 45.985 91.7016 45.6848 91.4014C45.3847 91.1011 45.2158 90.694 45.2153 90.2694V68.2053C45.2158 67.7807 45.3847 67.3736 45.6848 67.0734C45.985 66.7731 46.3919 66.6042 46.8163 66.6038H83.1715C83.596 66.6042 84.0029 66.7731 84.303 67.0734C84.6032 67.3736 84.772 67.7807 84.7725 68.2053V90.2694C84.772 90.694 84.6032 91.1011 84.303 91.4014C84.0029 91.7016 83.596 91.8705 83.1715 91.871Z" fill="#3F3D56"/>
<path d="M64.9064 80.297C65.4914 80.297 65.9657 79.8226 65.9657 79.2374C65.9657 78.6522 65.4914 78.1777 64.9064 78.1777C64.3214 78.1777 63.8472 78.6522 63.8472 79.2374C63.8472 79.8226 64.3214 80.297 64.9064 80.297Z" fill="white"/>
<path d="M138 5H5V6H138V5Z" fill="#3F3D56"/>
<path d="M5.5 11C8.53757 11 11 8.53757 11 5.5C11 2.46243 8.53757 0 5.5 0C2.46243 0 0 2.46243 0 5.5C0 8.53757 2.46243 11 5.5 11Z" fill="#79A6FF"/>
<path d="M51.5 11C54.5376 11 57 8.53757 57 5.5C57 2.46243 54.5376 0 51.5 0C48.4624 0 46 2.46243 46 5.5C46 8.53757 48.4624 11 51.5 11Z" fill="#79A6FF"/>
<path d="M98.5 11C101.538 11 104 8.53757 104 5.5C104 2.46243 101.538 0 98.5 0C95.4624 0 93 2.46243 93 5.5C93 8.53757 95.4624 11 98.5 11Z" fill="#79A6FF"/>
<path d="M137.056 11C140.093 11 142.556 8.53757 142.556 5.5C142.556 2.46243 140.093 0 137.056 0C134.018 0 131.556 2.46243 131.556 5.5C131.556 8.53757 134.018 11 137.056 11Z" fill="#79A6FF"/>
</svg>
