<svg width="11" height="14" viewBox="0 0 11 14" fill="none" xmlns="http://www.w3.org/2000/svg">
<path d="M10.4848 7.39066H0.515642C0.231006 7.39066 0 7.15965 0 6.87502C0 6.59038 0.231006 6.35938 0.515642 6.35938H10.4848C10.7694 6.35938 11.0004 6.59038 11.0004 6.87502C11.0004 7.15965 10.7694 7.39066 10.4848 7.39066Z" fill="#545C7F"/>
<path d="M5.50013 13.7505C3.22507 13.7505 1.375 12.0928 1.375 10.055C1.375 9.77038 1.60601 9.53937 1.89064 9.53937C2.17528 9.53937 2.40628 9.77038 2.40628 10.055C2.40628 11.5243 3.79434 12.7192 5.50013 12.7192C7.20593 12.7192 8.59398 11.5243 8.59398 10.055C8.59398 8.58576 7.20593 7.39082 5.50013 7.39082C3.22507 7.39082 1.375 5.73324 1.375 3.69547C1.375 1.65758 3.22507 0 5.50013 0C7.7752 0 9.62527 1.65758 9.62527 3.69547C9.62527 3.98011 9.39426 4.21112 9.10963 4.21112C8.82499 4.21112 8.59398 3.98011 8.59398 3.69547C8.59398 2.22622 7.20593 1.03128 5.50013 1.03128C3.79434 1.03128 2.40628 2.22622 2.40628 3.69547C2.40628 5.16473 3.79434 6.35954 5.50013 6.35954C7.7752 6.35954 9.62527 8.01725 9.62527 10.055C9.62527 12.0928 7.7752 13.7505 5.50013 13.7505Z" fill="#545C7F"/>
</svg>
