<svg xmlns="http://www.w3.org/2000/svg" width="22.325" height="19" viewBox="0 0 22.325 19">
  <defs>
    <style>
      .cls-1 {
        fill: #fff;
      }
    </style>
  </defs>
  <g id="Group_10019" data-name="Group 10019" transform="translate(-107.686 -506.563)">
    <path id="Path_17503" data-name="Path 17503" class="cls-1" d="M25.3,16.131a6.484,6.484,0,0,0-.668-2.82,6.655,6.655,0,0,0-1.749-2.172A9.027,9.027,0,0,0,19.8,9.511a16.942,16.942,0,0,0-3.831-.882,18.09,18.09,0,0,0-7.9.762,7.7,7.7,0,0,0-2.256,1.2,6.788,6.788,0,0,0-2.373,3.188,4.5,4.5,0,0,0-.264,1c-.042.329-.085.7-.106,1.085-.034.622-.057,1.278-.068,1.886-.02,1.1,0,2.152.056,3.145a7.006,7.006,0,0,0,.2,1.175,2.587,2.587,0,0,0,.426.909,11.671,11.671,0,0,0,2.024,2.069,12.73,12.73,0,0,0,6.478,2.338,17.43,17.43,0,0,0,6-.389,12.607,12.607,0,0,0,5.871-3.58A4.594,4.594,0,0,0,25,22.026a4.387,4.387,0,0,0,.237-1.24q.035-.622.056-1.27C25.335,18.37,25.332,17.165,25.3,16.131ZM5.057,15.2a5.314,5.314,0,0,1,2.172-3.046,5.533,5.533,0,0,1,1.354-.677,18.655,18.655,0,0,1,8.01-.749,9.354,9.354,0,0,1,4.795,1.624,4.948,4.948,0,0,1,2.162,2.877c.464,1.99-.657,3.763-2.62,5a10.684,10.684,0,0,1-4.936,1.495,16.054,16.054,0,0,1-6.685-.79,7.728,7.728,0,0,1-3.6-2.039c-1.074-1.074-.734-3.365-.653-3.693ZM4.868,21.9a2.283,2.283,0,0,1-.223-.955c-.01-.186-.023-.368-.022-.59s0-.343.042-.355c.063-.019.227.1.331.193a12.243,12.243,0,0,0,3.071,2.028c-.04.446-.058.82-.066,1.114-.008.319-.009.677-.007.965a13.222,13.222,0,0,1-2.068-1.317A4.857,4.857,0,0,1,4.868,21.9ZM9.5,24.984c-.061-.022-.131-.052-.2-.078,0-.063-.009-.126-.012-.194a10.5,10.5,0,0,1,.052-1.444c.013-.16.028-.338.045-.528a15.883,15.883,0,0,0,4.551.814c-.01.277-.02.554-.028.833-.013.447-.023.89-.032,1.332A14.743,14.743,0,0,1,9.5,24.984Zm5.907.677c-.006-.4-.012-.8-.022-1.21-.008-.3-.018-.606-.027-.908a13.746,13.746,0,0,0,4.174-.951c.007.169.014.326.019.471a11.23,11.23,0,0,1-.005,1.444c0,.03-.006.057-.008.087a14.982,14.982,0,0,1-4.13,1.067Zm8.275-5.155c0,.218-.019.411-.028.607a2.587,2.587,0,0,1-.054.472.931.931,0,0,1-.159.345,3.657,3.657,0,0,1-.587.576A11.586,11.586,0,0,1,20.785,24c.01-.255.02-.545.024-.809,0-.306,0-.7-.022-1.168a12.516,12.516,0,0,0,2.387-1.6c.273-.24.377-.372.445-.348S23.69,20.289,23.685,20.507Z" transform="translate(104.686 498.075)"/>
    <path id="Path_17504" data-name="Path 17504" class="cls-1" d="M22.678,24.129c.315.24.817.545.818.809s-1.178,2.174-.611,2.466,2.146-.135,2.761-.351A5.943,5.943,0,0,1,27,26.535a3.641,3.641,0,0,1,1.174.371,13.847,13.847,0,0,0,1.4.453,2.22,2.22,0,0,0,1.455.017c.326-.216.081-.842-.07-1.257a6.955,6.955,0,0,1-.464-1.25,12.16,12.16,0,0,1,1.671-1.52c.128-.116.615-.612.359-.969s-.824-.428-1.245-.515a8.644,8.644,0,0,1-1.483-.347,8.821,8.821,0,0,1-1.149-1.053,5.216,5.216,0,0,0-.879-.741,1.264,1.264,0,0,0-1.078-.014A8.09,8.09,0,0,0,25.506,20.8a3.44,3.44,0,0,1-.588.558,4.378,4.378,0,0,1-.829.3c-.392.116-.993.237-1.355.317a3.424,3.424,0,0,0-1.334.414c-.289.24.057.627.229.815a10.04,10.04,0,0,0,1.049.925ZM24,22.965a9.1,9.1,0,0,0,1.279-.341,2.765,2.765,0,0,0,1.106-.764c.205-.215.466-.5.527-.562s.185-.177.276-.177a.589.589,0,0,1,.3.192c.058.067.377.4.377.4a4.952,4.952,0,0,0,.863.756,3.621,3.621,0,0,0,1.3.4c.18.026.295.052.295.133s-.163.208-.28.3-.324.252-.493.388a1.428,1.428,0,0,0-.65.923,1.228,1.228,0,0,0,.275.77c.123.186.319.537.275.581a1.216,1.216,0,0,1-.6-.119c-.1-.038-.217-.083-.34-.136a4,4,0,0,0-1.5-.466h0a2.476,2.476,0,0,0-1.026.306c-.111.051-.62.264-.757.312-.248.088-.462.131-.5.063a1.4,1.4,0,0,1,.135-.605,1.791,1.791,0,0,0,.175-.932c-.091-.43-.361-.6-.77-.864l-.277-.175c-.115-.072-.246-.152-.246-.237s.159-.127.25-.147Z" transform="translate(91.915 490.318)"/>
  </g>
</svg>
