<svg xmlns="http://www.w3.org/2000/svg" width="18.892" height="35.797" viewBox="0 0 18.892 35.797">
  <defs>
    <style>
      .cls-1 {
        fill: #5a6ec9;
      }
    </style>
  </defs>
  <g id="Group_9330" data-name="Group 9330" transform="translate(-211.313 -255.747)">
    <path id="Path_17111" data-name="Path 17111" class="cls-1" d="M223.116,291.544h-7.1V273.681h-4.706v-6.734H216c0-.882-.034-1.719.009-2.551a14.869,14.869,0,0,1,.272-2.715c.766-3.166,2.944-4.893,6.016-5.578a15.849,15.849,0,0,1,2.927-.328c1.627-.052,3.257-.014,4.929-.014v6.725h-.9c-1.308,0-2.616-.012-3.923.005-1.256.017-1.474.246-1.476,1.483,0,.931.006,1.863.012,2.794a.832.832,0,0,0,.053.164h6.281l-.742,6.731h-6.348Z" transform="translate(0 0)"/>
  </g>
</svg>
