<svg xmlns="http://www.w3.org/2000/svg" width="18.611" height="17.138" viewBox="0 0 18.611 17.138">
  <defs>
    <style>
      .cls-1 {
        fill: #77b2ff;
      }
    </style>
  </defs>
  <g id="Group_9388" data-name="Group 9388" transform="translate(-93 -410)">
    <g id="Group_9127" data-name="Group 9127" transform="translate(93 412.833)">
      <g id="Group_9126" data-name="Group 9126" transform="translate(0 0)">
        <path id="Path_16956" data-name="Path 16956" class="cls-1" d="M67.274,228.51v10.112c0,.453,0,.908,0,1.362,0,.032,0,.066,0,.1.008-.062.016-.125.026-.187a.724.724,0,0,1-.048.183c.024-.056.048-.113.071-.169a.906.906,0,0,1-.093.161c.036-.048.073-.095.111-.143a.894.894,0,0,1-.131.131c.048-.036.095-.073.143-.111a.713.713,0,0,1-.161.093c.056-.024.113-.048.169-.071a.849.849,0,0,1-.183.048c.062-.008.125-.016.187-.026-.161.016-.328,0-.489,0H51.51c-.034,0-.071,0-.1,0,.062.008.125.016.187.026a.725.725,0,0,1-.183-.048c.056.024.113.048.169.071a.907.907,0,0,1-.161-.093c.048.036.095.073.143.111a.894.894,0,0,1-.131-.131c.036.048.073.095.111.143a.712.712,0,0,1-.093-.161c.024.056.048.113.07.169a.849.849,0,0,1-.048-.183c.008.062.016.125.026.187-.012-.125,0-.252,0-.377v-9.8c0-.459,0-.919,0-1.376,0-.032,0-.066,0-.1-.008.062-.016.125-.026.187a.725.725,0,0,1,.048-.183c-.024.056-.048.113-.07.169a.906.906,0,0,1,.093-.161c-.036.048-.073.095-.111.143a.893.893,0,0,1,.131-.131c-.048.036-.095.073-.143.111a.712.712,0,0,1,.161-.093c-.056.024-.113.048-.169.07a.85.85,0,0,1,.183-.048c-.062.008-.125.016-.187.026.161-.016.328,0,.489,0H67.256c.034,0,.07,0,.1,0-.062-.008-.125-.016-.187-.026a.724.724,0,0,1,.183.048c-.056-.024-.113-.048-.169-.07a.906.906,0,0,1,.161.093c-.048-.036-.095-.073-.143-.111a.893.893,0,0,1,.131.131c-.036-.048-.073-.095-.111-.143a.712.712,0,0,1,.093.161c-.024-.056-.048-.113-.071-.169a.849.849,0,0,1,.048.183c-.008-.062-.016-.125-.026-.187,0,.026,0,.052,0,.081a.705.705,0,0,0,1.41,0,1.433,1.433,0,0,0-1.412-1.41H51.516a1.47,1.47,0,0,0-1.007.395,1.434,1.434,0,0,0-.433,1.049v11.337c0,.056,0,.113,0,.169a1.461,1.461,0,0,0,.624,1.112,1.385,1.385,0,0,0,.786.242c.131,0,.26,0,.391,0H67.25a1.435,1.435,0,0,0,1.041-.433,1.467,1.467,0,0,0,.395-1.017V228.506a.714.714,0,0,0-.705-.705A.724.724,0,0,0,67.274,228.51Z" transform="translate(-50.075 -227.1)"/>
      </g>
    </g>
    <g id="Group_9129" data-name="Group 9129" transform="translate(100.074 416.358)">
      <g id="Group_9128" data-name="Group 9128" transform="translate(0 0)">
        <path id="Path_16957" data-name="Path 16957" class="cls-1" d="M404.317,402.994v1.767c0,.089,0,.179,0,.268.008-.062.016-.125.026-.187a.145.145,0,0,1-.014.048c.024-.056.048-.113.071-.169a.145.145,0,0,1-.024.042c.036-.048.073-.095.111-.143a.275.275,0,0,1-.034.034c.048-.036.095-.073.143-.111a.143.143,0,0,1-.042.024c.056-.024.113-.048.169-.07a.454.454,0,0,1-.048.014c.062-.008.125-.016.187-.026-.306.02-.618,0-.925,0h-1.448c-.115,0-.232.006-.346,0,.062.008.125.016.187.026a.148.148,0,0,1-.048-.014c.056.024.113.048.169.07a.143.143,0,0,1-.042-.024c.048.036.095.073.143.111a.28.28,0,0,1-.034-.034c.036.048.073.095.111.143a.144.144,0,0,1-.024-.042c.024.056.048.113.07.169a.436.436,0,0,1-.014-.048c.008.062.016.125.026.187-.016-.23,0-.465,0-.695v-1.1c0-.089,0-.179,0-.268-.008.062-.016.125-.026.187a.147.147,0,0,1,.014-.048c-.024.056-.048.113-.07.169a.144.144,0,0,1,.024-.042c-.036.048-.073.095-.111.143a.28.28,0,0,1,.034-.034c-.048.036-.095.073-.143.111a.145.145,0,0,1,.042-.024c-.056.024-.113.048-.169.07a.458.458,0,0,1,.048-.014c-.062.008-.125.016-.187.026.306-.02.618,0,.925,0h1.448c.115,0,.232-.006.346,0-.062-.008-.125-.016-.187-.026a.148.148,0,0,1,.048.014c-.056-.024-.113-.048-.169-.07a.146.146,0,0,1,.042.024c-.048-.036-.095-.073-.143-.111a.275.275,0,0,1,.034.034c-.036-.048-.073-.095-.111-.143a.145.145,0,0,1,.024.042c-.024-.056-.048-.113-.071-.169a.425.425,0,0,1,.014.048c-.008-.062-.016-.125-.026-.187a.115.115,0,0,0,0,.026.741.741,0,0,0,.207.5.722.722,0,0,0,.5.207.714.714,0,0,0,.7-.705.938.938,0,0,0-.262-.632.92.92,0,0,0-.633-.262h-2.514a1.039,1.039,0,0,0-.778.254.922.922,0,0,0-.272.665v.8c0,.389-.006.775,0,1.164a.916.916,0,0,0,.917.917c.123,0,.246,0,.369,0h1.406c.29,0,.58.01.87,0a.916.916,0,0,0,.9-.9c0-.03,0-.058,0-.089V403a.7.7,0,0,0-1.41,0Z" transform="translate(-401.267 -402.1)"/>
      </g>
    </g>
    <g id="Group_9131" data-name="Group 9131" transform="translate(93.001 412.833)">
      <g id="Group_9130" data-name="Group 9130" transform="translate(0 0)">
        <path id="Path_16958" data-name="Path 16958" class="cls-1" d="M67.353,228.448v.858a7.516,7.516,0,0,1-.022.953c.008-.062.016-.125.026-.187a2.653,2.653,0,0,1-.179.655c.024-.056.048-.113.071-.169a2.716,2.716,0,0,1-.336.572c.036-.048.073-.095.111-.143a2.707,2.707,0,0,1-.449.449c.048-.036.095-.073.143-.111a2.555,2.555,0,0,1-.572.336c.056-.024.113-.048.169-.071a2.629,2.629,0,0,1-.655.179c.062-.008.125-.016.187-.026a5.352,5.352,0,0,1-.673.022H60.981l.705.705v-.506a2.683,2.683,0,0,0-.032-.685.908.908,0,0,0-.866-.657h-2.5a1.147,1.147,0,0,0-.62.123.928.928,0,0,0-.443.816v.91l.705-.705H53.843a6.188,6.188,0,0,1-.773-.022c.062.008.125.016.187.026a2.654,2.654,0,0,1-.655-.179c.056.024.113.048.169.07a2.717,2.717,0,0,1-.572-.336c.048.036.095.073.143.111a2.707,2.707,0,0,1-.449-.449c.036.048.073.095.111.143a2.555,2.555,0,0,1-.336-.572c.024.056.048.113.071.169a2.629,2.629,0,0,1-.179-.655c.008.062.016.125.026.187a8.009,8.009,0,0,1-.022-.983V228.7a2.976,2.976,0,0,1,.006-.328c-.008.062-.016.125-.026.187a.8.8,0,0,1,.04-.155c-.024.056-.048.113-.07.169a.759.759,0,0,1,.091-.157c-.036.048-.073.095-.111.143a.821.821,0,0,1,.111-.111c-.048.036-.095.072-.143.111a.723.723,0,0,1,.157-.091c-.056.024-.113.048-.169.071a.8.8,0,0,1,.155-.04c-.062.008-.125.016-.187.026a4.446,4.446,0,0,1,.491-.006H66.785c.2,0,.4,0,.6,0a.936.936,0,0,1,.1.006c-.062-.008-.125-.016-.187-.026a.8.8,0,0,1,.155.04c-.056-.024-.113-.048-.169-.071a.76.76,0,0,1,.157.091c-.048-.036-.095-.073-.143-.111a.822.822,0,0,1,.111.111c-.036-.048-.073-.095-.111-.143a.723.723,0,0,1,.091.157c-.024-.056-.048-.113-.071-.169a.8.8,0,0,1,.04.155c-.008-.062-.016-.125-.026-.187a.269.269,0,0,1,.012.081.705.705,0,1,0,1.41,0,1.37,1.37,0,0,0-1.348-1.348H51.554a1.555,1.555,0,0,0-.4.046,1.373,1.373,0,0,0-1,1.327c0,.471,0,.945,0,1.416a3.279,3.279,0,0,0,1.051,2.423,3.325,3.325,0,0,0,2.244.864h4.484a.715.715,0,0,0,.705-.705c0-.324-.02-.655,0-.979-.008.062-.016.125-.026.187a.147.147,0,0,1,.014-.048c-.024.056-.048.113-.071.169a.145.145,0,0,1,.024-.042c-.036.048-.073.095-.111.143a.273.273,0,0,1,.034-.034c-.048.036-.095.072-.143.111a.145.145,0,0,1,.042-.024c-.056.024-.113.048-.169.071a.434.434,0,0,1,.048-.014c-.062.008-.125.016-.187.026.306-.02.618,0,.925,0h1.448c.115,0,.232-.006.346,0-.062-.008-.125-.016-.187-.026a.146.146,0,0,1,.048.014c-.056-.024-.113-.048-.169-.071a.145.145,0,0,1,.042.024c-.048-.036-.095-.073-.143-.111a.273.273,0,0,1,.034.034c-.036-.048-.073-.095-.111-.143a.145.145,0,0,1,.024.042c-.024-.056-.048-.113-.07-.169a.439.439,0,0,1,.014.048c-.008-.062-.016-.125-.026-.187.022.324,0,.655,0,.979a.715.715,0,0,0,.705.705H64.5a10.739,10.739,0,0,0,1.569-.052,3.254,3.254,0,0,0,2.6-2.433,4.978,4.978,0,0,0,.093-1.146v-1.1a.705.705,0,0,0-1.41,0Z" transform="translate(-50.156 -227.1)"/>
      </g>
    </g>
    <g id="Group_9133" data-name="Group 9133" transform="translate(98.627 410)">
      <g id="Group_9132" data-name="Group 9132" transform="translate(0 0)">
        <path id="Path_16959" data-name="Path 16959" class="cls-1" d="M336.085,89.289h-5.924l.705.705V87.961a2.672,2.672,0,0,1,.006-.336c-.008.062-.016.125-.026.187a.719.719,0,0,1,.036-.129c-.024.056-.048.113-.071.169a.638.638,0,0,1,.066-.113c-.036.048-.073.095-.111.143a.576.576,0,0,1,.111-.111c-.048.036-.095.073-.143.111a.791.791,0,0,1,.113-.066c-.056.024-.113.048-.169.07a.722.722,0,0,1,.129-.036c-.062.008-.125.016-.187.026a4.485,4.485,0,0,1,.546-.006h3.8a5.459,5.459,0,0,1,.655.006c-.062-.008-.125-.016-.187-.026a.722.722,0,0,1,.129.036c-.056-.024-.113-.048-.169-.07a.64.64,0,0,1,.113.066c-.048-.036-.095-.073-.143-.111a.577.577,0,0,1,.111.111c-.036-.048-.073-.095-.111-.143a.787.787,0,0,1,.066.113c-.024-.056-.048-.113-.07-.169a.722.722,0,0,1,.036.129c-.008-.062-.016-.125-.026-.187a2.161,2.161,0,0,1,.006.28v2.089a.705.705,0,0,0,1.41,0v-2.21a1.317,1.317,0,0,0-.367-.961,1.3,1.3,0,0,0-.921-.367h-4.649c-.05,0-.1,0-.149,0a1.271,1.271,0,0,0-1.249,1.249c-.016.735,0,1.472,0,2.21v.079a.715.715,0,0,0,.705.705h5.924a.705.705,0,0,0,0-1.41Z" transform="translate(-329.444 -86.456)"/>
      </g>
    </g>
  </g>
</svg>
