<svg xmlns="http://www.w3.org/2000/svg" width="17.516" height="20.588" viewBox="0 0 17.516 20.588">
  <defs>
    <style>
      .cls-1 {
        fill: #77b2ff;
      }
    </style>
  </defs>
  <g id="Group_9389" data-name="Group 9389" transform="translate(-7.003 -3.974)">
    <path id="Path_17105" data-name="Path 17105" class="cls-1" d="M15.759,24.562a1.994,1.994,0,0,1-.681-.171c-.292-.343-10.122-7.969-7.689-15.081C8.46,6.31,11.574,4.253,15.078,4c5.158-.343,9.44,3.256,9.44,7.712,0,6.341-7.786,12.425-8.078,12.682A1.994,1.994,0,0,1,15.759,24.562ZM13.521,6.053A6.4,6.4,0,0,0,9.628,8.966c-2.92,5.227,3.893,11.739,6.131,13.625,1.849-1.542,6.813-6.255,6.813-10.8C22.572,7.767,18.192,4.682,13.521,6.053Z" transform="translate(0 0)"/>
    <path id="Path_17106" data-name="Path 17106" class="cls-1" d="M16.964,16.69A3.855,3.855,0,0,1,12.2,11.921,4.031,4.031,0,0,1,14.92,9.2a3.879,3.879,0,0,1,4.769,4.769A4.229,4.229,0,0,1,16.964,16.69Zm-1.071-5.742a1.946,1.946,0,1,0,1.946,1.946A1.952,1.952,0,0,0,15.894,10.948Z" transform="translate(-0.135 -0.139)"/>
  </g>
</svg>
