<svg xmlns="http://www.w3.org/2000/svg" width="15.73" height="21">
    <defs>
        <style>
            .cls-1{fill:#77b2ff}
        </style>
    </defs>
    <g id="Group_9410" data-name="Group 9410" transform="translate(-7.003 -3.974)">
        <path id="Path_17105" data-name="Path 17105" class="cls-1" d="M14.867 24.973a1.62 1.62 0 0 1-.612-.175c-.262-.35-9.09-8.129-6.9-15.383a7.886 7.886 0 0 1 15.383 2.447c0 6.468-6.992 12.673-7.254 12.936a1.62 1.62 0 0 1-.617.175zM12.856 6.094a5.883 5.883 0 0 0-3.5 2.972c-2.622 5.332 3.5 11.974 5.506 13.9 1.661-1.573 6.118-6.38 6.118-11.013a6.132 6.132 0 0 0-8.124-5.859z"/>
        <path id="Path_17106" data-name="Path 17106" class="cls-1" d="M16.461 15.912a3.462 3.462 0 0 1-4.283-4.283 3.62 3.62 0 0 1 2.447-2.447 3.484 3.484 0 0 1 4.283 4.283 3.8 3.8 0 0 1-2.447 2.447zm-.961-5.157a1.748 1.748 0 1 0 1.748 1.745 1.753 1.753 0 0 0-1.748-1.745z" transform="translate(-.633 -.64)"/>
    </g>
</svg>
