<svg width="23" height="19" viewBox="0 0 23 19" fill="none" xmlns="http://www.w3.org/2000/svg">
<path d="M22.8202 4.45084L21.6677 0.593787C21.563 0.244152 21.2073 0 20.803 0H2.19748C1.79272 0 1.43744 0.244152 1.33272 0.593392L0.180288 4.45084C0.0556772 4.86724 0 5.24571 0 5.67713V7.05473C0 8.20675 0.834717 9.23866 2.04636 9.60766V16.4222C2.04636 17.8436 3.33975 19 4.92964 19H18.0699C19.6598 19 20.9532 17.8436 20.9532 16.4222V9.60726C22.1653 9.23827 23 8.20635 23 7.05433V5.67713C23 5.24571 22.9448 4.86724 22.8202 4.45084ZM12.2817 11.0785H10.7188C9.40459 11.0785 8.33524 12.0346 8.33524 13.2095V17.3996H4.93009C4.32692 17.3996 3.83643 16.9611 3.83643 16.4218V9.64914C4.32868 9.52509 4.77322 9.29279 5.13733 8.97002C5.70073 9.46859 6.46254 9.75107 7.25837 9.75107C8.05376 9.75107 8.816 9.46859 9.3794 8.97002C9.9428 9.46859 10.7051 9.75107 11.5004 9.75107C12.2958 9.75107 13.0581 9.46859 13.6215 8.97002C14.1849 9.46859 14.9471 9.75107 15.7425 9.75107C16.5379 9.75107 17.3002 9.46859 17.8636 8.97002C18.2277 9.29318 18.6718 9.52509 19.164 9.64914V16.4218C19.164 16.9611 18.6735 17.3996 18.0704 17.3996H14.6652V13.2095C14.6648 12.0346 13.5958 11.0785 12.2817 11.0785ZM10.1253 13.2095C10.1253 12.9167 10.3918 12.6789 10.7188 12.6789H12.2817C12.6091 12.6789 12.8751 12.9171 12.8751 13.2095V17.3996H10.1253V13.2095ZM1.78963 7.05473V5.95841H4.24207V7.05473C4.24207 7.65918 3.69193 8.15104 3.01585 8.15104C2.33977 8.15104 1.78963 7.65918 1.78963 7.05473ZM20.1158 1.60002L20.9399 4.35799H2.0605L2.88461 1.60002H20.1158ZM6.0317 7.05473V5.95841H8.48415V7.05473C8.48415 7.65918 7.93401 8.15104 7.25793 8.15104C6.58184 8.15104 6.0317 7.65918 6.0317 7.05473ZM10.2738 7.05473V5.95841H12.7262V7.05473C12.7262 7.65918 12.1761 8.15104 11.5 8.15104C10.8239 8.15104 10.2738 7.65918 10.2738 7.05473ZM14.5159 7.05473V5.95841H16.9683V7.05473C16.9683 7.65918 16.4182 8.15104 15.7421 8.15104C15.066 8.15104 14.5159 7.65918 14.5159 7.05473ZM21.2104 7.05473C21.2104 7.65918 20.6602 8.15104 19.9841 8.15104C19.3081 8.15104 18.7579 7.65918 18.7579 7.05473V5.95841H21.2104V7.05473Z" fill="#3698FF"/>
</svg>
