<svg width="21" height="21" viewBox="0 0 21 21" fill="none" xmlns="http://www.w3.org/2000/svg">
<path d="M14.604 20.9983H20.9983V14.604H14.604V20.9983ZM19.4451 16.1572V19.4451H16.1572V16.1572H19.4451Z" fill="#3698FF"/>
<path d="M19.6165 2.42055H6.39429V0H0V6.39429H6.39429V3.97374H19.4451V9.72254H16.3407V8.24722L14.0892 10.4991L16.3407 12.7515V11.2757H19.6169C20.379 11.2757 20.9987 10.6557 20.9987 9.894V3.80228C20.9983 3.04061 20.3786 2.42055 19.6165 2.42055ZM1.55319 4.8411V1.55319H4.8411V4.8411H1.55319Z" fill="#3698FF"/>
<path d="M11.9599 17.0245H1.59353V11.2757H7.30199V13.6963H13.6963V7.302H7.30199V9.72255H1.42207C0.660408 9.72255 0.0403442 10.3426 0.0403442 11.1043V17.196C0.0403442 17.9581 0.660408 18.5777 1.42207 18.5777H11.9599V20.0535L14.2115 17.8011L11.9599 15.5492V17.0245ZM12.1431 8.85519V12.1431H8.85518V8.85519H12.1431Z" fill="#3698FF"/>
</svg>
