<svg width="20" height="19" viewBox="0 0 20 19" fill="none" xmlns="http://www.w3.org/2000/svg">
<path d="M10.7909 11.8864L8.48182 9.60457L8.5091 9.57729C10.0909 7.81364 11.2182 5.78638 11.8818 3.64091H14.5455V1.8182H8.18182V0H6.36363V1.8182H0V3.62728H10.1545C9.5409 5.38181 8.5818 7.04545 7.2727 8.50002C6.42725 7.55911 5.72723 6.53638 5.1727 5.45455H3.35455C4.01817 6.93635 4.92729 8.33638 6.06363 9.60001L1.4409 14.1682L2.72727 15.4546L7.27275 10.9091L10.1 13.7364L10.7909 11.8864Z" fill="#3698FF"/>
<path d="M15.9091 7.27271H14.0909L10 18.1818H11.8182L12.8409 15.4545H17.1591L18.1818 18.1818H20L15.9091 7.27271ZM13.5227 13.6363L15 9.69542L16.4773 13.6363H13.5227Z" fill="#3698FF"/>
</svg>
