<svg width="21" height="20" viewBox="0 0 21 20" fill="none" xmlns="http://www.w3.org/2000/svg">
<path d="M3.43768 4.00633C3.79227 4.00633 4.07971 3.6915 4.07971 3.30315C4.07971 2.9148 3.79227 2.59998 3.43768 2.59998C3.0831 2.59998 2.79565 2.9148 2.79565 3.30315C2.79565 3.6915 3.0831 4.00633 3.43768 4.00633Z" fill="#3698FF"/>
<path d="M5.36377 4.00633C5.71835 4.00633 6.0058 3.6915 6.0058 3.30315C6.0058 2.9148 5.71835 2.59998 5.36377 2.59998C5.00919 2.59998 4.72174 2.9148 4.72174 3.30315C4.72174 3.6915 5.00919 4.00633 5.36377 4.00633Z" fill="#3698FF"/>
<path d="M7.28986 4.00633C7.64444 4.00633 7.93189 3.6915 7.93189 3.30315C7.93189 2.9148 7.64444 2.59998 7.28986 2.59998C6.93527 2.59998 6.64783 2.9148 6.64783 3.30315C6.64783 3.6915 6.93527 4.00633 7.28986 4.00633Z" fill="#3698FF"/>
<path d="M18.8464 0H2.15361C0.966255 0 0 1.05828 0 2.35872V17.6413C0 18.9417 0.966255 20 2.15361 20H18.8464C20.0337 20 21 18.9417 21 17.6413V2.35872C21 1.05828 20.0337 0 18.8464 0ZM1.7391 6.53013H19.2609V17.6413C19.2609 17.8918 19.0751 18.0953 18.8464 18.0953H2.15361C1.92489 18.0953 1.7391 17.8918 1.7391 17.6413V6.53013ZM2.15361 1.90473H18.8464C19.0751 1.90473 19.2609 2.10821 19.2609 2.35872V4.62541H1.7391V2.35872C1.7391 2.10821 1.92489 1.90473 2.15361 1.90473Z" fill="#3698FF"/>
<path d="M5.49898 16.7572H15.3991C15.8983 16.7572 16.3039 16.3125 16.3039 15.7662V8.86628C16.3039 8.31956 15.8979 7.87524 15.3991 7.87524H5.49898C4.9998 7.87524 4.59412 8.32 4.59412 8.86628V15.7662C4.59412 16.3125 5.0002 16.7572 5.49898 16.7572ZM12.2519 12.3154L12.2491 12.3136L14.4942 10.8791V14.7747H6.40424V10.8791L10.4591 13.4699L12.2519 12.3154ZM8.39654 9.85732H12.5015L10.449 11.1687L8.39654 9.85732Z" fill="#3698FF"/>
</svg>
