<svg width="22" height="20" viewBox="0 0 22 20" fill="none" xmlns="http://www.w3.org/2000/svg">
<path d="M18.828 1H3.17202C1.97245 1 1 2.17297 1 3.6199V16.3801C1 17.827 1.97245 19 3.17202 19H18.828C20.0276 19 21 17.827 21 16.3801V3.6199C21 2.17297 20.0276 1 18.828 1Z" stroke="#3698FF" stroke-width="2" stroke-linejoin="round"/>
<path d="M15.8479 5H6.15207C5.5158 5 5 5.56661 5 6.26556V9.73444C5 10.4334 5.5158 11 6.15207 11H15.8479C16.4842 11 17 10.4334 17 9.73444V6.26556C17 5.56661 16.4842 5 15.8479 5Z" stroke="#3698FF" stroke-width="2" stroke-linecap="round" stroke-linejoin="round"/>
<path d="M6 15H17Z" fill="#3698FF"/>
<path d="M6 15H17" stroke="#3698FF" stroke-width="2" stroke-miterlimit="10" stroke-linecap="round"/>
</svg>
