<svg width="23" height="22" viewBox="0 0 23 22" fill="none" xmlns="http://www.w3.org/2000/svg">
<path d="M18.5256 0H4.47757C2.00866 0 0 1.99572 0 4.44813V17.5514C0 20.0043 2.00866 22 4.47757 22H18.5256C20.9927 22 23 20.0043 23 17.5514V4.44813C23 1.99572 20.9927 0 18.5256 0ZM1.95682 7.39847H21.0436V17.5514C21.0436 18.9318 19.9144 20.0545 18.526 20.0545H4.47757C3.08737 20.0545 1.95682 18.9318 1.95682 17.5514V7.39847ZM4.47757 1.94508H18.5256C19.914 1.94508 21.0432 3.06776 21.0432 4.44813V5.45294H1.95682V4.44813C1.95682 3.0682 3.08737 1.94508 4.47757 1.94508Z" fill="#3698FF"/>
<path d="M6.86128 15.5512L6.88833 15.5552C6.90952 15.6095 6.9316 15.6637 6.95504 15.7175L6.94017 15.7376C6.54844 16.2651 6.60524 17.0132 7.07225 17.4775L7.72362 18.1255C7.97696 18.3778 8.31594 18.5168 8.67701 18.5168C8.96686 18.5168 9.24229 18.4271 9.47308 18.2573L9.47895 18.2528C9.53845 18.2788 9.59885 18.3039 9.65971 18.3276L9.66106 18.3357C9.75978 18.9842 10.3314 19.4732 10.9913 19.4732H11.9149C12.5753 19.4732 13.1474 18.9833 13.2452 18.3339L13.2461 18.3272C13.306 18.3039 13.3655 18.2788 13.4255 18.2524L13.4323 18.2573C13.6662 18.4289 13.9425 18.5199 14.231 18.5199C14.589 18.5199 14.9266 18.3801 15.1822 18.1264L15.834 17.4784C16.301 17.014 16.3578 16.2669 15.967 15.7399L15.9503 15.717C15.9733 15.6637 15.9958 15.6104 16.0166 15.5566L16.0522 15.5512C16.7112 15.4468 17.189 14.8901 17.189 14.2277V13.3112C17.189 12.6448 16.7081 12.0886 16.0463 11.9891L15.9936 11.981C15.9746 11.9349 15.9553 11.8892 15.935 11.8439L15.9679 11.7991C16.3583 11.268 16.3006 10.5213 15.8345 10.0642L15.1817 9.41345C14.927 9.16023 14.5894 9.02085 14.2315 9.02085C13.9452 9.02085 13.6698 9.11049 13.4341 9.28079L13.375 9.32382C13.3358 9.30723 13.2957 9.2911 13.2551 9.27497L13.2452 9.20908C13.1478 8.55968 12.5758 8.06982 11.9149 8.06982H10.9913C10.3196 8.06982 9.76023 8.54803 9.66151 9.2064L9.65069 9.27541C9.61057 9.2911 9.5709 9.30723 9.53169 9.32427L9.46858 9.2781C9.23507 9.10959 8.9601 9.0204 8.67386 9.0204C8.31504 9.0204 7.97741 9.16023 7.72362 9.41345L7.0718 10.0615C6.59938 10.5316 6.54303 11.2631 6.93882 11.8018L6.97037 11.8444C6.95009 11.8901 6.9307 11.9358 6.91177 11.9819L6.86083 11.9896C6.19774 12.0891 5.71631 12.6452 5.71631 13.3121V14.2286C5.71721 14.8893 6.19774 15.4459 6.86128 15.5512ZM8.50256 12.8008C8.54809 12.6663 8.60669 12.5296 8.67611 12.3943C8.89339 11.9676 8.85868 11.4464 8.59136 11.0511L8.71984 10.9234C8.94523 11.078 9.20758 11.1595 9.48075 11.1595C9.68405 11.1595 9.88825 11.112 10.0722 11.0224C10.2011 10.9592 10.3345 10.9041 10.4679 10.8602C10.9341 10.7082 11.2735 10.3183 11.3632 9.83743H11.544C11.6337 10.3179 11.9722 10.7073 12.436 10.8593C12.5834 10.9081 12.7133 10.961 12.8359 11.0228C13.0189 11.1125 13.2235 11.16 13.4268 11.16C13.7009 11.16 13.9628 11.0784 14.1873 10.9242L14.3167 11.0529C14.0489 11.45 14.0156 11.9734 14.2355 12.4046C14.3018 12.5314 14.3591 12.6654 14.4055 12.8034C14.5592 13.2552 14.9415 13.5864 15.4116 13.6796V13.862C14.946 13.9615 14.57 14.2954 14.4195 14.7499C14.373 14.8919 14.314 15.0349 14.2432 15.1756C14.0331 15.5938 14.0624 16.0881 14.3167 16.487L14.1855 16.617C13.9714 16.4839 13.7275 16.4139 13.4742 16.4139C13.2632 16.4139 13.0518 16.4646 12.8634 16.5605C12.7209 16.6327 12.5771 16.6927 12.4342 16.7393C11.9835 16.8868 11.6508 17.2516 11.5458 17.7051H11.3605C11.2555 17.2552 10.9228 16.8904 10.4698 16.7384C10.3223 16.6905 10.1795 16.6318 10.0451 16.5636C9.8567 16.4673 9.64393 16.4166 9.43071 16.4166C9.17963 16.4166 8.93125 16.4874 8.72164 16.617L8.59001 16.4861C8.84335 16.093 8.8722 15.5974 8.65988 15.1707C8.59136 15.0349 8.53457 14.8955 8.48994 14.7543C8.34254 14.3044 7.95757 13.962 7.49598 13.862V13.6796C7.96794 13.5855 8.35065 13.2534 8.50256 12.8008Z" fill="#3698FF"/>
<path d="M11.4529 15.6476C12.4946 15.6476 13.3425 14.8055 13.3425 13.7702C13.3425 12.7344 12.4951 11.8914 11.4529 11.8914C10.4116 11.8914 9.56458 12.734 9.56458 13.7702C9.56458 14.8055 10.4116 15.6476 11.4529 15.6476ZM11.4529 13.0912C11.8293 13.0912 12.1358 13.3959 12.1358 13.7702C12.1358 14.1439 11.8293 14.4478 11.4529 14.4478C11.0769 14.4478 10.7713 14.1439 10.7713 13.7702C10.7713 13.3959 11.0769 13.0912 11.4529 13.0912Z" fill="#3698FF"/>
</svg>
