<svg width="20" height="20" viewBox="0 0 20 20" fill="none" xmlns="http://www.w3.org/2000/svg">
<path d="M16.5507 0H3.44933C1.54759 0 0 1.54719 0 3.44933V16.5507C0 18.4528 1.54759 20 3.44933 20H16.5507C18.4528 20 20 18.4528 20 16.5507V3.44933C20 1.54719 18.4528 0 16.5507 0ZM10.8291 10.8291H18.3419V16.5507C18.3419 17.5382 17.5382 18.3419 16.5507 18.3419H10.8291V10.8291ZM10.8291 1.65814H16.5507C17.5382 1.65814 18.3419 2.46182 18.3419 3.44933V9.17093H10.8291V1.65814ZM1.65814 10.8291H9.17093V18.3419H3.44933C2.46182 18.3419 1.65814 17.5382 1.65814 16.5507V10.8291ZM3.44933 1.65814H9.17093V9.17093H1.65814V3.44933C1.65814 2.46182 2.46182 1.65814 3.44933 1.65814Z" fill="#3698FF"/>
<path d="M3.44937 6.24364H4.5855V7.37977C4.5855 7.83709 4.95725 8.20884 5.41457 8.20884C5.87189 8.20884 6.24364 7.83709 6.24364 7.37977V6.24364H7.37977C7.83709 6.24364 8.20884 5.87189 8.20884 5.41457C8.20884 4.95725 7.83709 4.5855 7.37977 4.5855H6.24364V3.44937C6.24364 2.99205 5.87189 2.6203 5.41457 2.6203C4.95725 2.6203 4.5855 2.99205 4.5855 3.44937V4.5855H3.44937C2.99205 4.5855 2.6203 4.95725 2.6203 5.41457C2.6203 5.87189 2.99205 6.24364 3.44937 6.24364Z" fill="#3698FF"/>
<path d="M16.5507 4.58545H12.6203C12.1629 4.58545 11.7912 4.9572 11.7912 5.41452C11.7912 5.87184 12.1629 6.24359 12.6203 6.24359H16.5507C17.008 6.24359 17.3797 5.87184 17.3797 5.41452C17.3797 4.9572 17.008 4.58545 16.5507 4.58545Z" fill="#3698FF"/>
<path d="M17.3797 15.8957C17.3797 15.4383 17.008 15.0666 16.5507 15.0666H12.6203C12.1629 15.0666 11.7912 15.4383 11.7912 15.8957C11.7912 16.353 12.1629 16.7247 12.6203 16.7247H16.5507C17.008 16.7247 17.3797 16.353 17.3797 15.8957Z" fill="#3698FF"/>
<path d="M12.6203 14.1044H16.5507C17.008 14.1044 17.3797 13.7326 17.3797 13.2753C17.3797 12.818 17.008 12.4462 16.5507 12.4462H12.6203C12.1629 12.4462 11.7912 12.818 11.7912 13.2753C11.7912 13.7326 12.1629 14.1044 12.6203 14.1044Z" fill="#3698FF"/>
<path d="M4.24237 14.5854L3.4391 15.3895C3.11566 15.7126 3.11566 16.2387 3.4391 16.5621C3.5959 16.7189 3.80389 16.8049 4.02538 16.8049C4.24688 16.8049 4.45486 16.7185 4.61167 16.5621L5.41494 15.7588L6.21822 16.5621C6.37502 16.7189 6.58301 16.8049 6.8045 16.8049C7.026 16.8049 7.23398 16.7185 7.39079 16.5621C7.54759 16.4053 7.63398 16.1969 7.63398 15.9758C7.63398 15.7547 7.54759 15.5464 7.39079 15.3895L6.58751 14.5859L7.39079 13.7826C7.54759 13.6258 7.63398 13.4178 7.63398 13.1963C7.63398 12.9748 7.54759 12.7668 7.39079 12.61C7.23398 12.4532 7.026 12.3668 6.8045 12.3668C6.58342 12.3668 6.37502 12.4532 6.21822 12.61L5.41494 13.4133L4.61126 12.61C4.45445 12.4532 4.24647 12.3668 4.02497 12.3668C3.80389 12.3668 3.5955 12.4532 3.43869 12.61C3.28188 12.7668 3.1955 12.9748 3.1955 13.1963C3.1955 13.4174 3.28188 13.6258 3.43869 13.7826L4.24237 14.5854Z" fill="#3698FF"/>
</svg>
