<svg id="_x31__px" enable-background="new 0 0 24 24" height="512" fill="#999" viewBox="0 0 24 24" width="512" xmlns="http://www.w3.org/2000/svg"><path d="m9.43 21h-6.93c-1.378 0-2.5-1.121-2.5-2.5v-16c0-1.379 1.122-2.5 2.5-2.5h12c1.378 0 2.5 1.121 2.5 2.5v9.32c0 .276-.224.5-.5.5s-.5-.224-.5-.5v-9.32c0-.827-.673-1.5-1.5-1.5h-12c-.827 0-1.5.673-1.5 1.5v16c0 .827.673 1.5 1.5 1.5h6.93c.276 0 .5.224.5.5s-.223.5-.5.5z"/><path d="m13.5 9h-10c-.276 0-.5-.224-.5-.5s.224-.5.5-.5h10c.276 0 .5.224.5.5s-.224.5-.5.5z"/><path d="m9.5 13h-6c-.276 0-.5-.224-.5-.5s.224-.5.5-.5h6c.276 0 .5.224.5.5s-.224.5-.5.5z"/><path d="m8.5 5h-5c-.276 0-.5-.224-.5-.5s.224-.5.5-.5h5c.276 0 .5.224.5.5s-.224.5-.5.5z"/><path d="m11.894 24c-.131 0-.259-.052-.354-.146-.118-.118-.169-.288-.137-.451l.707-3.535c.02-.098.067-.187.137-.256l7.778-7.778c.565-.566 1.555-.566 2.121 0l1.414 1.414c.585.585.585 1.536 0 2.121l-7.778 7.778c-.07.07-.159.117-.255.137l-3.535.707c-.033.006-.066.009-.098.009zm1.167-3.789-.53 2.651 2.651-.53 7.671-7.671c.195-.195.195-.512 0-.707l-1.414-1.414c-.19-.189-.519-.189-.707 0zm2.368 2.582h.01z"/></svg>