<svg xmlns="http://www.w3.org/2000/svg" width="22.583" height="23.885" viewBox="0 0 22.583 23.885">
    <path fill="#ffc107" d="M19.76 8.99c-.489 0-.941-.166-.941-1.368V6.5A6.507 6.507 0 0 0 12.441.033H5.856A6.116 6.116 0 0 0 0 6.378v11.071a6.132 6.132 0 0 0 5.736 6.466H15.672a6.694 6.694 0 0 0 6.907-6.779v-5.16c.003-2.233-.709-2.986-2.819-2.986zM7.059 6h4.7a1.454 1.454 0 0 1 1.415 1.5 1.454 1.454 0 0 1-1.411 1.49h-4.7A1.454 1.454 0 0 1 5.648 7.5 1.454 1.454 0 0 1 7.059 6zm8.467 11.942H7.059a1.5 1.5 0 0 1 0-2.986h8.467a1.5 1.5 0 0 1 0 2.986z" transform="translate(0 -.033)"/>
</svg>
