<svg xmlns="http://www.w3.org/2000/svg" width="22.23" height="18.373" viewBox="0 0 22.23 18.373">
    <defs>
        <style>
            .cls-1{fill:#e5e9ea}.cls-4{fill:#e29a4b}.cls-7{fill:#566368}.cls-8{fill:#6f7b7f}.cls-9{fill:#435054}
        </style>
    </defs>
    <g id="camera" transform="translate(0 -44.419)">
        <path id="Path_14146" d="M43.871 65.845v-3.176a.487.487 0 0 0-.487-.487h-1.623a.487.487 0 0 0-.487.487v3.176" class="cls-1" transform="translate(-39.482 -16.992)"/>
        <path id="Path_14147" fill="#d1d1d1" d="M42.454 65.845v-3.663h-.692a.487.487 0 0 0-.487.487v3.176" transform="translate(-39.482 -16.992)"/>
        <path id="Path_14148" fill="#fcb65f" d="M22.23 49.432v11.884a1.475 1.475 0 0 1-1.475 1.475H1.475A1.475 1.475 0 0 1 0 61.316V49.432a1.475 1.475 0 0 1 1.475-1.475h2.918a1.476 1.476 0 0 0 1.394-.992l.539-1.554a1.475 1.475 0 0 1 1.394-.992h8.606a1.475 1.475 0 0 1 1.394.992l.539 1.554a1.475 1.475 0 0 0 1.394.992h1.1a1.475 1.475 0 0 1 1.477 1.475z"/>
        <g id="Group_7065" transform="translate(0 44.419)">
            <path id="Path_14149" d="M2.632 140.744H1.475A1.475 1.475 0 0 1 0 139.269v-11.884a1.475 1.475 0 0 1 1.475-1.475h1.066a1.476 1.476 0 0 0-1.384 1.473v11.884a1.475 1.475 0 0 0 1.475 1.477z" class="cls-4" transform="translate(0 -122.372)"/>
            <path id="Path_14150" d="M109.331 44.419a1.476 1.476 0 0 0-1.394.992l-.539 1.554a1.475 1.475 0 0 1-1.394.992h-.99v-.01a1.475 1.475 0 0 0 1.227-.982l.538-1.554a1.475 1.475 0 0 1 1.394-.992z" class="cls-4" transform="translate(-100.455 -44.419)"/>
        </g>
        <path id="Path_14151" fill="#53bce9" d="M22.23 218.384v9.344a1.475 1.475 0 0 1-1.475 1.475H1.475A1.475 1.475 0 0 1 0 227.728v-9.344z" transform="translate(0 -166.412)"/>
        <path id="Path_14152" fill="#36a6ce" d="M2.632 229.2H1.475A1.475 1.475 0 0 1 0 227.728v-9.344h1.157v9.344a1.475 1.475 0 0 0 1.475 1.472z" transform="translate(0 -166.412)"/>
        <circle id="Ellipse_810" cx="6.147" cy="6.147" r="6.147" class="cls-1" transform="translate(4.968 49.114)"/>
        <path id="Path_14153" d="M164.582 198.383a4.347 4.347 0 1 1-1.434-3.226 4.335 4.335 0 0 1 1.434 3.226z" class="cls-7" transform="translate(-149.121 -143.122)"/>
        <g id="Group_7066" transform="translate(6.769 50.915)">
            <path id="Path_14154" d="M254.066 195.313a4.335 4.335 0 0 1 1.267 3.295 4.346 4.346 0 0 1-4.562-4.562 4.334 4.334 0 0 1 3.295 1.267z" class="cls-8" transform="translate(-246.647 -194.04)"/>
            <path id="Path_14155" d="M159.2 290.181a4.335 4.335 0 0 1 1.267 3.295 4.345 4.345 0 0 1-4.562-4.562 4.333 4.333 0 0 1 3.295 1.267z" class="cls-8" transform="translate(-155.896 -284.79)"/>
        </g>
        <g id="Group_7067" transform="translate(6.428 50.575)">
            <path id="Path_14156" d="M152.742 195.571a4.687 4.687 0 1 1 4.687-4.687 4.692 4.692 0 0 1-4.687 4.687zm0-8.693a4.006 4.006 0 1 0 4.006 4.006 4.011 4.011 0 0 0-4.006-4.006z" class="cls-9" transform="translate(-148.055 -186.198)"/>
            <path id="Path_14157" d="M217.557 253.955a1.745 1.745 0 1 0 1.743 1.745 1.747 1.747 0 0 0-1.743-1.745z" class="cls-9" transform="translate(-212.87 -251.013)"/>
        </g>
        <path id="Path_14158" d="M292.833 74.6h2.674a.636.636 0 0 0 .636-.637v-.7a.636.636 0 0 0-.636-.636h-2.674a.636.636 0 0 0-.636.636v.7a.637.637 0 0 0 .636.637z" class="cls-1" transform="translate(-279.511 -26.982)"/>
        <path id="Path_14159" d="M288.011 67.444h-2.674a.978.978 0 0 1-.977-.977v-.7a.978.978 0 0 1 .977-.977h2.674a.978.978 0 0 1 .977.977v.7a.978.978 0 0 1-.977.977zm-2.674-1.973a.3.3 0 0 0-.3.3v.7a.3.3 0 0 0 .3.3h2.674a.3.3 0 0 0 .3-.3v-.7a.3.3 0 0 0-.3-.3z" class="cls-4" transform="translate(-272.014 -19.487)"/>
        <circle id="Ellipse_811" cx="1.23" cy="1.23" r="1.23" class="cls-7" transform="translate(2.996 59.071)"/>
    </g>
</svg>
