<svg width="18" height="15" viewBox="0 0 18 15" fill="none" xmlns="http://www.w3.org/2000/svg">
<path d="M3.50956 3.54528V1.00648C3.50956 0.955358 3.49949 0.904735 3.47993 0.857504C3.46036 0.810273 3.43169 0.767358 3.39554 0.731209C3.35939 0.69506 3.31647 0.666385 3.26924 0.646821C3.22201 0.627257 3.17139 0.617187 3.12027 0.617188H1.82289C1.71964 0.617188 1.62062 0.658202 1.54762 0.731209C1.47461 0.804216 1.43359 0.903233 1.43359 1.00648V3.54528" fill="#B9DCFF"/>
<path d="M2.37605 3.54528V0.617188H1.82289C1.71964 0.617188 1.62062 0.658202 1.54762 0.731209C1.47461 0.804216 1.43359 0.903233 1.43359 1.00648V3.54528" fill="#6A9CFF"/>
<path d="M17.77 4.00724V13.507C17.77 13.6618 17.7395 13.8151 17.6802 13.9582C17.621 14.1012 17.5341 14.2312 17.4247 14.3407C17.3152 14.4502 17.1852 14.537 17.0421 14.5963C16.8991 14.6555 16.7458 14.686 16.5909 14.686H1.17907C0.866362 14.686 0.566461 14.5618 0.345342 14.3407C0.124223 14.1196 0 13.8197 0 13.507L0 4.00724C0 3.85241 0.0304976 3.69908 0.0897514 3.55603C0.149005 3.41298 0.235855 3.283 0.345342 3.17352C0.454829 3.06403 0.584809 2.97718 0.72786 2.91793C0.870912 2.85867 1.02423 2.82817 1.17907 2.82817H3.51163C3.75673 2.82811 3.99572 2.75172 4.19541 2.60961C4.3951 2.46751 4.54559 2.26674 4.62596 2.0352L5.05682 0.792976C5.13708 0.561368 5.28754 0.360535 5.48726 0.218413C5.68697 0.0762912 5.92602 -5.36223e-05 6.17114 2.82574e-08H13.0505C13.2956 -5.36223e-05 13.5347 0.0762912 13.7344 0.218413C13.9341 0.360535 14.0846 0.561368 14.1648 0.792976L14.5957 2.0352C14.676 2.26681 14.8264 2.46764 15.0261 2.60976C15.2259 2.75188 15.4649 2.82823 15.71 2.82817H16.5893C16.7443 2.82796 16.8978 2.8583 17.041 2.91746C17.1843 2.97662 17.3144 3.06344 17.4241 3.17295C17.5337 3.28246 17.6207 3.41251 17.6801 3.55566C17.7394 3.69882 17.77 3.85227 17.77 4.00724Z" fill="#B9DCFF"/>
<path d="M2.10394 14.686H1.17907C0.866362 14.686 0.566461 14.5618 0.345342 14.3406C0.124223 14.1195 0 13.8196 0 13.5069L0 4.00719C0 3.69449 0.124223 3.39458 0.345342 3.17346C0.566461 2.95235 0.866362 2.82812 1.17907 2.82812H2.0312C1.73161 2.84683 1.45042 2.97903 1.24487 3.19779C1.03933 3.41655 0.924898 3.70542 0.924871 4.0056V13.5053C0.924661 13.6603 0.955004 13.8138 1.01416 13.957C1.07332 14.1003 1.16014 14.2304 1.26965 14.3401C1.37916 14.4497 1.50921 14.5367 1.65236 14.5961C1.79552 14.6554 1.94897 14.686 2.10394 14.686Z" fill="#6A9CFF"/>
<path d="M7.09541 2.82574e-08C6.85032 6.45852e-05 6.61133 0.0764569 6.41163 0.218563C6.21194 0.360668 6.06146 0.561433 5.98109 0.792976L5.55023 2.0352C5.46996 2.26681 5.31951 2.46764 5.11979 2.60976C4.92008 2.75188 4.68103 2.82823 4.43591 2.82817H3.64453V2.82018C3.86539 2.79509 4.07465 2.70808 4.24819 2.5692C4.42174 2.43031 4.55248 2.24519 4.62536 2.0352L5.05542 0.792976C5.13569 0.561368 5.28614 0.360535 5.48586 0.218413C5.68558 0.0762912 5.92462 -5.36223e-05 6.16974 2.82574e-08H7.09541Z" fill="#6A9CFF"/>
<path d="M17.77 6V13.4693C17.77 13.6241 17.7395 13.7775 17.6802 13.9205C17.621 14.0636 17.5341 14.1936 17.4247 14.303C17.3152 14.4125 17.1852 14.4994 17.0421 14.5586C16.8991 14.6179 16.7458 14.6484 16.5909 14.6484H1.17907C0.866362 14.6484 0.566461 14.5242 0.345342 14.303C0.124223 14.0819 0 13.782 0 13.4693L0 6H17.77Z" fill="#DEEFFF"/>
<path d="M2.10394 14.685H1.17907C0.866777 14.685 0.567239 14.5612 0.346189 14.3406C0.125139 14.12 0.000635174 13.8207 0 13.5084L0 6.03906H0.924871V13.5084C0.925506 13.8207 1.05001 14.12 1.27106 14.3406C1.49211 14.5612 1.79165 14.685 2.10394 14.685Z" fill="#6A9CFF"/>
<path d="M8.88443 13.5814C11.5982 13.5814 13.7982 11.3814 13.7982 8.66763C13.7982 5.95386 11.5982 3.75391 8.88443 3.75391C6.17065 3.75391 3.9707 5.95386 3.9707 8.66763C3.9707 11.3814 6.17065 13.5814 8.88443 13.5814Z" fill="#6A9CFF"/>
<path d="M12.3599 8.66776C12.36 9.4641 12.0866 10.2363 11.5854 10.8552C11.0842 11.474 10.3857 11.9019 9.60669 12.0673C8.82772 12.2327 8.01558 12.1255 7.30619 11.7637C6.59679 11.4019 6.03319 10.8074 5.70973 10.0797C5.38626 9.352 5.32256 8.53529 5.52927 7.76625C5.73597 6.9972 6.20056 6.3225 6.84526 5.85504C7.48996 5.38759 8.27566 5.15575 9.07086 5.19833C9.86606 5.24092 10.6225 5.55535 11.2136 6.08899C11.5749 6.41436 11.8636 6.81212 12.0611 7.25641C12.2586 7.70069 12.3604 8.18156 12.3599 8.66776Z" fill="#CBDCFF"/>
<path d="M8.88532 12.4152C8.14431 12.4152 7.41993 12.1954 6.8038 11.7837C6.18766 11.3721 5.70744 10.7869 5.42386 10.1023C5.14029 9.4177 5.0661 8.66436 5.21067 7.93758C5.35523 7.2108 5.71206 6.54322 6.23604 6.01925C6.76002 5.49527 7.4276 5.13843 8.15438 4.99387C8.88116 4.8493 9.63449 4.92349 10.3191 5.20707C11.0037 5.49064 11.5889 5.97087 12.0005 6.587C12.4122 7.20313 12.632 7.92751 12.632 8.66853C12.6309 9.66187 12.2358 10.6142 11.5334 11.3166C10.831 12.019 9.87867 12.4141 8.88532 12.4152ZM8.88532 5.46625C8.25197 5.46625 7.63284 5.65406 7.10623 6.00593C6.57962 6.3578 6.16917 6.85792 5.9268 7.44306C5.68443 8.0282 5.62101 8.67207 5.74457 9.29325C5.86813 9.91443 6.17312 10.485 6.62097 10.9329C7.06882 11.3807 7.6394 11.6857 8.26058 11.8093C8.88176 11.9328 9.52563 11.8694 10.1108 11.627C10.6959 11.3847 11.196 10.9742 11.5479 10.4476C11.8998 9.92101 12.0876 9.30188 12.0876 8.66853C12.0865 7.81955 11.7488 7.00566 11.1485 6.40534C10.5482 5.80503 9.73429 5.46731 8.88532 5.46625Z" fill="#4178E6"/>
<path d="M8.88478 7.27539C8.60883 7.27508 8.33898 7.35661 8.10938 7.50969C7.87978 7.66277 7.70074 7.88053 7.59492 8.13538C7.4891 8.39024 7.46125 8.67076 7.51489 8.94145C7.56853 9.21214 7.70125 9.46083 7.89627 9.65607C8.09128 9.85131 8.33984 9.98431 8.61046 10.0383C8.88109 10.0922 9.16164 10.0647 9.41662 9.95915C9.67159 9.85362 9.88954 9.67485 10.0429 9.44542C10.1962 9.216 10.2781 8.94624 10.2781 8.67029C10.2777 8.30074 10.1308 7.94644 9.86963 7.68498C9.60847 7.42352 9.25433 7.27624 8.88478 7.27539Z" fill="#6A9CFF"/>
<path d="M10.649 2.55763H12.7865C12.8534 2.55763 12.9195 2.54445 12.9813 2.51885C13.043 2.49325 13.0991 2.45573 13.1463 2.40844C13.1935 2.36115 13.231 2.30501 13.2565 2.24323C13.282 2.18146 13.2951 2.11526 13.295 2.04843V1.48887C13.295 1.35403 13.2414 1.22472 13.146 1.12937C13.0507 1.03403 12.9214 0.980469 12.7865 0.980469H10.649C10.5142 0.980469 10.3849 1.03403 10.2895 1.12937C10.1942 1.22472 10.1406 1.35403 10.1406 1.48887V2.04843C10.1406 2.18334 10.1942 2.31273 10.2895 2.4082C10.3848 2.50367 10.5141 2.55741 10.649 2.55763Z" fill="#B9DCFF"/>
<path d="M12.7876 2.83051H10.6501C10.4431 2.8303 10.2446 2.74795 10.0981 2.60154C9.95172 2.45512 9.86935 2.2566 9.86914 2.04953V1.48997C9.86935 1.2829 9.95172 1.08438 10.0981 0.93796C10.2446 0.791543 10.4431 0.709196 10.6501 0.708984H12.7876C12.9947 0.709196 13.1932 0.791543 13.3396 0.93796C13.4861 1.08438 13.5684 1.2829 13.5686 1.48997V2.04953C13.5684 2.2566 13.4861 2.45512 13.3396 2.60154C13.1932 2.74795 12.9947 2.8303 12.7876 2.83051ZM10.6501 1.25336C10.6186 1.25336 10.5875 1.25956 10.5584 1.27161C10.5293 1.28366 10.5028 1.30133 10.4806 1.32359C10.4583 1.34586 10.4406 1.3723 10.4286 1.4014C10.4165 1.43049 10.4103 1.46168 10.4103 1.49317V2.05273C10.4103 2.08422 10.4165 2.1154 10.4286 2.1445C10.4406 2.17359 10.4583 2.20003 10.4806 2.22229C10.5028 2.24456 10.5293 2.26223 10.5584 2.27428C10.5875 2.28633 10.6186 2.29254 10.6501 2.29254H12.7876C12.8191 2.29254 12.8503 2.28633 12.8794 2.27428C12.9085 2.26223 12.935 2.24456 12.9572 2.22229C12.9795 2.20003 12.9972 2.17359 13.0092 2.1445C13.0213 2.1154 13.0275 2.08422 13.0275 2.05273V1.49317C13.0275 1.46168 13.0213 1.43049 13.0092 1.4014C12.9972 1.3723 12.9795 1.34586 12.9572 1.32359C12.935 1.30133 12.9085 1.28366 12.8794 1.27161C12.8503 1.25956 12.8191 1.25336 12.7876 1.25336H10.6501Z" fill="#6A9CFF"/>
<path d="M3.37776 13.6793C3.92078 13.6793 4.36098 13.2391 4.36098 12.6961C4.36098 12.1531 3.92078 11.7129 3.37776 11.7129C2.83474 11.7129 2.39453 12.1531 2.39453 12.6961C2.39453 13.2391 2.83474 13.6793 3.37776 13.6793Z" fill="#4178E6"/>
</svg>
