<svg xmlns="http://www.w3.org/2000/svg" width="19.6" height="19">
    <defs>
        <style>
            .cls-1{fill:#8297f4}.cls-2{fill:none;stroke:#8297f4;stroke-linecap:round;stroke-width:1.2px}
        </style>
    </defs>
    <g id="Group_9669" data-name="Group 9669" transform="translate(-1198 -171)">
        <g id="Layer_2" data-name="Layer 2" transform="translate(1198 171)">
            <g id="Layer_1" data-name="Layer 1">
                <path id="Path_17379" data-name="Path 17379" class="cls-1" d="M9.215 1.33a3.2 3.2 0 1 1-3.2 3.2 3.2 3.2 0 0 1 3.2-3.2m0-1.33a4.535 4.535 0 1 0 4.535 4.535A4.535 4.535 0 0 0 9.215 0z" transform="translate(-1.455)"/>
                <path id="Path_17380" data-name="Path 17380" class="cls-1" d="M10.013 16.4a4.176 4.176 0 0 1 4.177 4.18v.737a1.054 1.054 0 0 1-1.048 1.054H2.378a1.054 1.054 0 0 1-1.048-1.053v-.751A4.176 4.176 0 0 1 5.513 16.4h4.507m0-1.323H5.513a5.513 5.513 0 0 0-3.9 1.6A5.513 5.513 0 0 0 0 20.566v.734a2.371 2.371 0 0 0 2.378 2.378h10.764A2.378 2.378 0 0 0 15.52 21.3v-.737a5.513 5.513 0 0 0-1.613-3.894 5.513 5.513 0 0 0-3.894-1.613z" transform="translate(0 -4.681)"/>
            </g>
        </g>
        <g id="Group_9646" data-name="Group 9646">
            <path id="Line_340" data-name="Line 340" class="cls-2" transform="translate(1214.5 176.5)" d="M0 0v5"/>
            <path id="Line_341" data-name="Line 341" class="cls-2" transform="rotate(90 519 698)" d="M0 0v5"/>
        </g>
    </g>
</svg>
