<svg xmlns="http://www.w3.org/2000/svg" width="21.471" height="18.411">
    <path data-name="Path 17416" d="M24.592 29.96a2.188 2.188 0 1 0-2.184-2.188 2.188 2.188 0 0 0 2.184 2.188zm0-3.02a.837.837 0 1 1 0-.01zm.034 5.546a.907.907 0 1 0 0-.01zm0 3.02a.845.845 0 1 1 .842-.842.845.845 0 0 1-.842.842zm4.258.178a2.188 2.188 0 1 0 2.187-2.184 2.188 2.188 0 0 0-2.188 2.188zm2.188-.845a.845.845 0 1 1-.845.845.845.845 0 0 1 .844-.846zm8.321-10.975a.671.671 0 0 0-.755-.309 25.792 25.792 0 0 0-7.448 3.66c.034-.127.074-.268.124-.426a3.979 3.979 0 0 0 .245-1.517c-.114-1.409-1.342-2.349-3.419-2.634a8.438 8.438 0 0 0-2.745.067 9.156 9.156 0 0 0-6.123 4.523 9.059 9.059 0 0 0-.775 7.5 9.839 9.839 0 0 0 9.287 6.244c.221 0 .44 0 .671-.02a10.065 10.065 0 0 0 6.73-3.385 6.657 6.657 0 0 0 1.678-5.006 3.832 3.832 0 0 0-1.805-2.738 5.9 5.9 0 0 0-.842-.44c2.513-2.09 4.932-4.55 5.083-4.7a.671.671 0 0 0 .093-.819zm-10.678 6.415h.034a.252.252 0 0 1 .178.1l.446.621a.242.242 0 0 1-.084.359 3.751 3.751 0 0 1-1.463.406 2.51 2.51 0 0 1 .725-1.433.245.245 0 0 1 .164-.054zm5.62.671a2.493 2.493 0 0 1 1.191 1.822 5.438 5.438 0 0 1-1.342 3.928 8.693 8.693 0 0 1-5.811 2.922 8.5 8.5 0 0 1-8.593-5.331 7.717 7.717 0 0 1 .671-6.375 7.814 7.814 0 0 1 5.2-3.872 6.949 6.949 0 0 1 2.3-.06c.812.111 2.188.443 2.268 1.413a2.909 2.909 0 0 1-.195 1.007 3.429 3.429 0 0 0-.191 1.8c-.483.366-.812.637-.95.755h-.03a1.584 1.584 0 0 0-1.238.436 4.026 4.026 0 0 0-1.181 3.02.671.671 0 0 0 .48.644 2.879 2.879 0 0 0 .755.087 4.932 4.932 0 0 0 2.208-.564 1.617 1.617 0 0 0 .637-.6h.034A15.809 15.809 0 0 0 33 30.383a6.841 6.841 0 0 1 1.335.57zm-3.768-.527a1.426 1.426 0 0 0-.117-.195l-.359-.523a31.77 31.77 0 0 1 5.955-3.751 40.481 40.481 0 0 1-5.479 4.469z" transform="translate(-18.019 -22.558)" style="fill:#77b2ff"/>
</svg>
