<svg id="noun_write_3234477" xmlns="http://www.w3.org/2000/svg" width="17.984" height="17.548">
    <defs>
        <style>
            .cls-1{fill:#cf7efe}
        </style>
    </defs>
    <path id="Path_17046" data-name="Path 17046" class="cls-1" d="M102.306 114.36v-6.818l-3.682 3.682c-.352.352-.691.718-1.055 1.055a.756.756 0 0 1-.569.121h-1.978a.431.431 0 0 1-.424-.424v-2.2a.523.523 0 0 1 .148-.373c.415-.428.843-.843 1.263-1.263l2.345-2.345 2.261-2.261 1.009-1.008.044-.044.636-.636v-3.104a.884.884 0 0 0-.415-.807 1.764 1.764 0 0 0-.879-.112h-8.811a.434.434 0 0 0-.3.148l-.869.869-1.434 1.434-1.333 1.326-.424.424a.939.939 0 0 0-.22.256.583.583 0 0 0-.028.233v12.017a.846.846 0 0 0 .833.835h13.038a.844.844 0 0 0 .841-.8c.007-.065.003-.137.003-.205zm-9.812-11.953a.323.323 0 0 1-.318.318h-2.811a.3.3 0 0 1-.146-.036.363.363 0 0 1-.074-.053.3.3 0 0 1-.087-.176.318.318 0 0 1 0-.047.277.277 0 0 1 .053-.174.288.288 0 0 1 .04-.049c.117-.117.233-.231.347-.347L91 100.32c.318-.316.634-.633.949-.949a.321.321 0 0 1 .542.225v2.811z" transform="translate(-87.591 -97.818)"/>
    <path id="Path_17047" data-name="Path 17047" class="cls-1" d="m466.527 364.444-.386.386-.881.881-.182.182-.136.136-.286.286-.032.032a8.03 8.03 0 0 0-.129.131l-1.994 1.994-1.725 1.725c-.244.244-.5.481-.735.729H458.4v-1.648l.561-.561 1.648-1.648 1.994-1.994 1.725-1.725c.1-.1.2-.195.3-.292s.174-.169.261-.256l.057.057.318.318c.418.423.836.843 1.263 1.267z" transform="translate(-450.544 -357.186)"/>
    <path id="Path_17048" data-name="Path 17048" class="cls-1" d="M795.451 269.779v.053a.359.359 0 0 1-.017.083.132.132 0 0 1-.009.015c-.015.025-.028.053-.042.078l-.021.027a.171.171 0 0 1-.028.028l-1.284 1.284q-.823-.826-1.648-1.648l1.178-1.178.093-.093.011-.011a.379.379 0 0 1 .03-.03c.032-.021.087-.038.119-.064a.372.372 0 0 1 .047-.013.387.387 0 0 0 .042-.009h.1c.019 0 .038.011.042.011a.474.474 0 0 1 .051.017.7.7 0 0 1 .087.049c.006 0 .019.017.028.023l.017.017c.263.256.521.521.78.78l.3.3.03.032c-.013-.017-.025-.04.006.006l-.006-.006s.006.009.009.011l.032.051c.011.017.027.085.025.055a.553.553 0 0 1 .015.059.342.342 0 0 1 .013.073z" transform="translate(-777.467 -264.688)"/>
</svg>
