<svg xmlns="http://www.w3.org/2000/svg" width="33.954" height="33.954">
    <defs>
        <style>
            .cls-1{fill:#f9bd2c}.cls-4{fill:#474f54}
        </style>
    </defs>
    <g id="Group_10011" data-name="Group 10011" transform="translate(527.718 -229.64)">
        <path id="Path_17503" data-name="Path 17503" class="cls-1" d="M-335.743 229.64h10.279a1.233 1.233 0 0 1 .663 1.372c-.015.108.006.222-.011.33-.039.241.064.293.29.292 1.5-.009 3 .014 4.5-.014a1.181 1.181 0 0 1 1.26.739v3.846c-.021.036-.056.07-.061.107a10.148 10.148 0 0 1-3.519 6.621 10.222 10.222 0 0 1-6.116 2.549.5.5 0 0 0-.392.251 9.779 9.779 0 0 1-3.669 3.073.293.293 0 0 0-.185.335 10.266 10.266 0 0 0 .139 1.248 14.508 14.508 0 0 0 3.507 7.4.652.652 0 0 1 .2.334c-.165 0-.33.01-.5.011l-6.381.009a.166.166 0 0 0-.009-.049v-7.251q0-4.668.006-9.337a2.631 2.631 0 0 1 .245.1c.393.2.783.41 1.175.613a1.078 1.078 0 0 0 1.192-.005.99.99 0 0 0 .385-1.112c-.1-.45-.135-.916-.23-1.369a.443.443 0 0 1 .163-.461c.35-.337.689-.687 1.035-1.028a.943.943 0 0 0 .294-.991.967.967 0 0 0-.831-.711c-.478-.08-.956-.161-1.437-.227a.535.535 0 0 1-.468-.348c-.164-.374-.376-.727-.539-1.1a1.082 1.082 0 0 0-.988-.709q.004-2.258.003-4.518zm8.387 13.663a1.73 1.73 0 0 0 .2-.023 8.5 8.5 0 0 0 5.8-5.057 10.442 10.442 0 0 0 .612-4.422c0-.218-.14-.182-.267-.182h-3.148c-.765 0-.76 0-.83.771a27.984 27.984 0 0 1-1.267 6.235 22.108 22.108 0 0 1-1.101 2.675z" transform="translate(-174.998)"/>
        <path id="Path_17504" data-name="Path 17504" d="M-510.735 241.505q0 4.668-.006 9.337v7.251h-6.859a.745.745 0 0 1 .212-.329 14.7 14.7 0 0 0 3.63-8.642.277.277 0 0 0-.194-.324 9.409 9.409 0 0 1-3.518-2.9.856.856 0 0 0-.779-.438 3.635 3.635 0 0 1-.753-.1 10.5 10.5 0 0 1-8.448-7.9c-.1-.437-.178-.878-.267-1.317v-3.78a1.263 1.263 0 0 1 1.34-.739c1.436.029 2.873.009 4.309.009.422 0 .437 0 .4-.419-.064-.668 0-1.267.718-1.57h10.213v4.513a.981.981 0 0 0-.94.607c-.194.408-.416.8-.6 1.217a.554.554 0 0 1-.472.35c-.468.067-.933.151-1.4.2a.948.948 0 0 0-.844.685.907.907 0 0 0 .259 1c.366.367.731.736 1.1 1.1a.369.369 0 0 1 .123.377c-.1.507-.169 1.019-.257 1.528a.969.969 0 0 0 .627 1.109 1.208 1.208 0 0 0 1.016-.131 9.938 9.938 0 0 1 1.39-.689zm-8.449 1.808a.314.314 0 0 0-.048-.266 22.039 22.039 0 0 1-1.566-4.49 31.656 31.656 0 0 1-.735-4.67c-.019-.215-.088-.274-.3-.272q-1.822.013-3.643 0c-.207 0-.267.065-.26.265.013.386 0 .773 0 1.159a8.324 8.324 0 0 0 4.588 7.549 6.828 6.828 0 0 0 1.964.725z" style="fill:#fdd743"/>
        <path id="Path_17505" data-name="Path 17505" d="M-328.757 591.1h.923a1 1 0 0 1 1.045.772 1.011 1.011 0 0 1-.609 1.151 1.12 1.12 0 0 0-.108.067h-8.223v-1.99z" transform="translate(-175.013 -329.498)" style="fill:#32393f"/>
        <path id="Path_17506" data-name="Path 17506" class="cls-4" d="M-428.046 591.088v1.991h-8.223c-.042-.093-.145-.085-.217-.128a1.007 1.007 0 0 1-.493-1.066 1 1 0 0 1 .938-.792c.341-.014.683-.006 1.024-.008z" transform="translate(-82.696 -329.485)"/>
        <path id="Path_17507" data-name="Path 17507" d="M-407.593 554.941h-6.971q0-1.5.008-3a.824.824 0 0 1 .1-.507h6.857a.168.168 0 0 1 .009.049q0 1.731-.007 3.461z" transform="translate(-103.149 -293.338)" style="fill:#666e71"/>
        <path id="Path_17508" data-name="Path 17508" class="cls-4" d="M-335.729 555.237q0-1.731.007-3.461l6.381-.009c.165 0 .33-.007.5-.011a.619.619 0 0 1 .08.411q0 1.534.008 3.067z" transform="translate(-175.013 -293.634)"/>
        <path id="Path_17509" data-name="Path 17509" d="M-335.68 280.676a1.082 1.082 0 0 1 .988.708c.163.374.375.727.539 1.1a.535.535 0 0 0 .468.348c.48.065.959.147 1.437.227a.967.967 0 0 1 .831.711.943.943 0 0 1-.294.992c-.346.341-.685.691-1.035 1.028a.443.443 0 0 0-.163.461c.094.452.127.918.23 1.369a.99.99 0 0 1-.385 1.112 1.078 1.078 0 0 1-1.192.005c-.393-.2-.783-.411-1.175-.613a2.634 2.634 0 0 0-.245-.1v-7.352z" transform="translate(-175.058 -46.523)" style="fill:#fe9100"/>
        <path id="Path_17510" data-name="Path 17510" class="cls-1" d="M-380.167 280.676v7.352a9.928 9.928 0 0 0-1.39.689 1.208 1.208 0 0 1-1.016.131.969.969 0 0 1-.627-1.109c.088-.509.159-1.021.257-1.528a.369.369 0 0 0-.123-.377 81.487 81.487 0 0 1-1.1-1.1.907.907 0 0 1-.259-1 .949.949 0 0 1 .844-.685c.469-.053.935-.137 1.4-.2a.554.554 0 0 0 .472-.351c.184-.413.406-.808.6-1.217a.98.98 0 0 1 .942-.605z" transform="translate(-130.571 -46.523)"/>
    </g>
</svg>
