<svg xmlns="http://www.w3.org/2000/svg" width="38.574" height="38.574">
    <defs>
        <style>
            .cls-2{fill:#fff}
        </style>
    </defs>
    <g id="Group_9982" data-name="Group 9982" transform="translate(-162.155 -102.087)">
        <path id="Path_17486" data-name="Path 17486" d="M10.09 0h18.394a10.09 10.09 0 0 1 10.09 10.09v18.394a10.09 10.09 0 0 1-10.09 10.09H10.09A10.09 10.09 0 0 1 0 28.484V10.09A10.09 10.09 0 0 1 10.09 0z" transform="rotate(90 49.321 151.408)" style="fill:#4676ed"/>
        <path id="Path_17483" data-name="Path 17483" class="cls-2" d="M180.3 121.831a3.15 3.15 0 0 1-1.322 2.662 4.5 4.5 0 0 1-1.429.685 6.189 6.189 0 0 1-1.732.235H169.1v-13.9h7.438a2.747 2.747 0 0 1 1.311.314 3.257 3.257 0 0 1 1 .813 3.721 3.721 0 0 1 .636 1.134 3.8 3.8 0 0 1-.284 3.191 3.1 3.1 0 0 1-1.488 1.322 3.569 3.569 0 0 1 1.889 1.262 3.65 3.65 0 0 1 .698 2.282zm-8.495-8.006v3.5h3.6a1.6 1.6 0 0 0 1.165-.47 1.73 1.73 0 0 0 .48-1.293 1.788 1.788 0 0 0-.441-1.272 1.428 1.428 0 0 0-1.087-.47zm5.774 7.5a2.052 2.052 0 0 0-.127-.715 1.992 1.992 0 0 0-.343-.6 1.579 1.579 0 0 0-.509-.4 1.406 1.406 0 0 0-.645-.148H171.8v3.66h4.013a1.748 1.748 0 0 0 .7-.137 1.66 1.66 0 0 0 .558-.381 1.848 1.848 0 0 0 .371-.578 1.812 1.812 0 0 0 .135-.705z" transform="translate(2.217 3.008)"/>
        <path id="Path_17484" data-name="Path 17484" class="cls-2" d="M183.292 124.541a5.516 5.516 0 0 1-2.162-.408 4.874 4.874 0 0 1-2.7-2.74 5.239 5.239 0 0 1-.371-1.954 5.509 5.509 0 0 1 .361-2 4.86 4.86 0 0 1 2.7-2.779 5.539 5.539 0 0 1 2.19-.417 5.413 5.413 0 0 1 2.173.417 5.139 5.139 0 0 1 3 5.159 1.992 1.992 0 0 1-.046.38h-7.682a2.967 2.967 0 0 0 .285 1.043 2.562 2.562 0 0 0 1.4 1.27 2.682 2.682 0 0 0 .948.17 2.926 2.926 0 0 0 1.431-.369 1.961 1.961 0 0 0 .921-.976l2.18.607a4.431 4.431 0 0 1-1.754 1.868 5.439 5.439 0 0 1-2.874.729zm2.579-5.993a2.641 2.641 0 0 0-.824-1.793 2.666 2.666 0 0 0-2.732-.493 2.488 2.488 0 0 0-.786.5 2.62 2.62 0 0 0-.561.778 2.741 2.741 0 0 0-.256 1.005z" transform="translate(5.074 3.879)"/>
        <path id="Path_17485" data-name="Path 17485" class="cls-2" d="M179.491 112.015h6.65v1.65h-6.65z" transform="translate(5.532 3.168)"/>
    </g>
</svg>
