<svg width="20" height="20" viewBox="0 0 20 20" fill="none" xmlns="http://www.w3.org/2000/svg">
<path d="M17.845 0H2.15496C0.966719 0 0 0.96668 0 2.15492V15.3346C0 16.5229 0.966719 17.4896 2.15496 17.4896H7.24688L9.58562 19.8284C9.69551 19.9382 9.84453 20 9.99996 20C10.1554 20 10.3044 19.9383 10.4143 19.8284L12.7531 17.4896H17.845C19.0333 17.4896 20 16.5229 20 15.3346V2.15492C20 0.96668 19.0333 0 17.845 0V0ZM18.8281 15.3346C18.8281 15.8767 18.3871 16.3177 17.845 16.3177H12.5104C12.355 16.3177 12.2059 16.3794 12.0961 16.4893L9.99996 18.5854L7.90391 16.4893C7.79402 16.3795 7.645 16.3177 7.48957 16.3177H2.15496C1.61289 16.3177 1.17188 15.8767 1.17188 15.3346V2.15492C1.17188 1.61285 1.61289 1.17188 2.15496 1.17188H17.845C18.3871 1.17188 18.8281 1.61285 18.8281 2.15492V15.3346Z" fill="black" fill-opacity="0.4"/>
<path d="M15.0336 6.73997L11.9189 6.28724L10.5256 3.4645C10.4268 3.26454 10.2232 3.13794 10.0001 3.13794C9.77712 3.13794 9.57345 3.26454 9.47474 3.46454L8.08149 6.28724L4.96653 6.73997C4.74583 6.77204 4.56247 6.92661 4.49353 7.13876C4.42462 7.35087 4.48212 7.58372 4.64181 7.73939L6.89595 9.93653L6.36392 13.0389C6.32622 13.2587 6.41657 13.4809 6.597 13.612C6.77747 13.7431 7.01669 13.7604 7.21407 13.6566L10.0001 12.1919L12.7865 13.6566C12.8722 13.7016 12.9658 13.7239 13.059 13.7239H13.0615C13.3843 13.7231 13.6458 13.4611 13.6458 13.138C13.6458 13.093 13.6408 13.0491 13.6312 13.007L13.1043 9.93653L15.3584 7.73942C15.5181 7.58376 15.5756 7.35091 15.5067 7.1388C15.4377 6.92661 15.2544 6.77204 15.0336 6.73997ZM12.0657 9.31235C11.9275 9.44696 11.8645 9.64095 11.8972 9.83103L12.2808 12.0668L10.2728 11.0113C10.1021 10.9215 9.89817 10.9215 9.72747 11.0113L7.71962 12.0668L8.10306 9.83099C8.13564 9.64091 8.07263 9.44696 7.93454 9.31239L6.31001 7.72892L8.55489 7.40263C8.74571 7.37489 8.91067 7.25505 8.99603 7.08212L10.0002 5.04771L11.0044 7.08216C11.0898 7.25505 11.2547 7.37489 11.4456 7.40263L13.6902 7.72892L12.0657 9.31235Z" fill="black" fill-opacity="0.4"/>
</svg>
