<svg id="_992700" data-name="992700" xmlns="http://www.w3.org/2000/svg" width="13.969" height="13.969">
    <defs>
        <style>
            .cls-1{fill:#949ab2}
        </style>
    </defs>
    <g id="Group_4486" data-name="Group 4486" transform="translate(6.443 3.241)">
        <g id="Group_4485" data-name="Group 4485">
            <path id="Path_7250" data-name="Path 7250" class="cls-1" d="m239.2 123.756-1.948-1.461v-2.975a.541.541 0 1 0-1.082 0v3.246a.54.54 0 0 0 .216.433l2.164 1.623a.541.541 0 0 0 .649-.866z" transform="translate(-236.169 -118.779)"/>
        </g>
    </g>
    <g id="Group_4488" data-name="Group 4488">
        <g id="Group_4487" data-name="Group 4487">
            <path id="Path_7251" data-name="Path 7251" class="cls-1" d="M6.984 0a6.984 6.984 0 1 0 6.984 6.984A6.992 6.992 0 0 0 6.984 0zm0 12.887a5.9 5.9 0 1 1 5.9-5.9 5.91 5.91 0 0 1-5.9 5.9z"/>
        </g>
    </g>
</svg>
