<svg xmlns="http://www.w3.org/2000/svg" width="19.64" height="19.64">
    <path data-name="Path 17636" d="M19.816 6.9a9.811 9.811 0 0 0-17.992 0v.009a9.763 9.763 0 0 0 0 7.829v.009a9.811 9.811 0 0 0 17.992 0v-.009a9.763 9.763 0 0 0 0-7.829zm-9 11.958c-.707 0-1.618-1.317-2.175-3.571h4.349c-.552 2.251-1.464 3.567-2.17 3.567zM8.312 13.5a21.127 21.127 0 0 1 0-5.356h5.015a20.624 20.624 0 0 1 .17 2.678 20.619 20.619 0 0 1-.17 2.678zm-5.527-2.68a7.981 7.981 0 0 1 .469-2.678H6.52a21.941 21.941 0 0 0 0 5.356H3.254a7.98 7.98 0 0 1-.469-2.678zm8.035-8.035c.707 0 1.618 1.317 2.175 3.571h-4.35C9.2 4.1 10.113 2.785 10.82 2.785zm4.3 5.356h3.266a7.884 7.884 0 0 1 0 5.356h-3.267a21.941 21.941 0 0 0 .164-2.678 21.936 21.936 0 0 0-.164-2.677zm2.38-1.785h-2.686a12.6 12.6 0 0 0-1.028-3 8.076 8.076 0 0 1 3.714 3zm-9.642-3a12.6 12.6 0 0 0-1.028 3H4.144a8.076 8.076 0 0 1 3.71-2.996zM4.144 15.283h2.682a12.6 12.6 0 0 0 1.028 3 8.075 8.075 0 0 1-3.71-3zm9.642 3a12.6 12.6 0 0 0 1.028-3H17.5a8.076 8.076 0 0 1-3.714 2.997z" transform="translate(-1 -1)" style="fill:#c8d3e1"/>
</svg>
