<svg xmlns="http://www.w3.org/2000/svg" width="24" height="24" fill="none" viewBox="0 0 24 24" id="download-round"><circle cx="12" cy="12" r="9" fill="#C3FDF3"></circle><path fill="#079B7F" d="M12.75 8C12.75 7.58579 12.4142 7.25 12 7.25C11.5858 7.25 11.25 7.58579 11.25 8H12.75ZM11.25 15.2C11.25 15.6142 11.5858 15.95 12 15.95C12.4142 15.95 12.75 15.6142 12.75 15.2H11.25ZM9.53033 12.2697C9.23744 11.9768 8.76256 11.9768 8.46967 12.2697C8.17678 12.5626 8.17678 13.0374 8.46967 13.3303L9.53033 12.2697ZM12 15.8L11.4697 16.3303C11.7626 16.6232 12.2374 16.6232 12.5303 16.3303L12 15.8ZM15.5303 13.3303C15.8232 13.0374 15.8232 12.5626 15.5303 12.2697C15.2374 11.9768 14.7626 11.9768 14.4697 12.2697L15.5303 13.3303ZM11.25 8V15.2H12.75V8H11.25ZM8.46967 13.3303L11.4697 16.3303L12.5303 15.2697L9.53033 12.2697L8.46967 13.3303ZM12.5303 16.3303L15.5303 13.3303L14.4697 12.2697L11.4697 15.2697L12.5303 16.3303Z"></path></svg>