<svg width="24" height="18" viewBox="0 0 24 18" fill="none" xmlns="http://www.w3.org/2000/svg">
<path d="M23.9523 8.62834C23.0114 6.19439 21.3779 4.0895 19.2536 2.57384C17.1294 1.05817 14.6077 0.198159 12 0.100098C9.39234 0.198159 6.87056 1.05817 4.74636 2.57384C2.62215 4.0895 0.988616 6.19439 0.047661 8.62834C-0.015887 8.80411 -0.015887 8.99658 0.047661 9.17235C0.988616 11.6063 2.62215 13.7112 4.74636 15.2269C6.87056 16.7425 9.39234 17.6025 12 17.7006C14.6077 17.6025 17.1294 16.7425 19.2536 15.2269C21.3779 13.7112 23.0114 11.6063 23.9523 9.17235C24.0159 8.99658 24.0159 8.80411 23.9523 8.62834ZM12 16.1006C7.75988 16.1006 3.27975 12.9565 1.65571 8.90035C3.27975 4.84423 7.75988 1.70014 12 1.70014C16.2401 1.70014 20.7202 4.84423 22.3443 8.90035C20.7202 12.9565 16.2401 16.1006 12 16.1006Z" fill="#77B2FF"/>
<path d="M11.9994 4.10022C11.05 4.10022 10.1219 4.38174 9.33254 4.90919C8.54317 5.43663 7.92792 6.18631 7.56461 7.06342C7.2013 7.94053 7.10624 8.90568 7.29145 9.83682C7.47667 10.768 7.93384 11.6233 8.60515 12.2946C9.27646 12.9659 10.1318 13.423 11.0629 13.6083C11.994 13.7935 12.9592 13.6984 13.8363 13.3351C14.7134 12.9718 15.4631 12.3565 15.9905 11.5672C16.518 10.7778 16.7995 9.84973 16.7995 8.90036C16.7995 7.62728 16.2938 6.40635 15.3936 5.50615C14.4934 4.60595 13.2724 4.10022 11.9994 4.10022ZM11.9994 12.1004C11.3664 12.1004 10.7477 11.9128 10.2215 11.5611C9.69523 11.2095 9.28507 10.7097 9.04286 10.125C8.80065 9.54024 8.73728 8.89681 8.86075 8.27605C8.98423 7.65529 9.28901 7.08509 9.73655 6.63755C10.1841 6.19001 10.7543 5.88523 11.3751 5.76175C11.9958 5.63828 12.6392 5.70165 13.224 5.94386C13.8087 6.18606 14.3085 6.59623 14.6601 7.12248C15.0118 7.64873 15.1994 8.26744 15.1994 8.90036C15.1994 9.74907 14.8623 10.563 14.2622 11.1632C13.662 11.7633 12.8481 12.1004 11.9994 12.1004Z" fill="#77B2FF"/>
</svg>
