<svg xmlns="http://www.w3.org/2000/svg" width="24.603" height="17.702">
    <defs>
        <style>
            .cls-2{fill:#d1e1ff}.cls-3{fill:#4f8aff}
        </style>
    </defs>
    <g id="Group_9121" data-name="Group 9121" style="opacity:.81">
        <path id="Path_16945" data-name="Path 16945" class="cls-2" d="M17.736 27.8a6.809 6.809 0 0 0-6.517 4.721 1.694 1.694 0 0 0 1.642 2.206h9.852a1.717 1.717 0 0 0 1.642-2.206 7.037 7.037 0 0 0-6.619-4.721z" transform="translate(-5.452 -17.025)"/>
        <circle id="Ellipse_665" data-name="Ellipse 665" class="cls-3" cx="3.233" cy="3.233" r="3.233" transform="translate(9.052 2.873)"/>
        <path id="Path_16946" data-name="Path 16946" class="cls-2" d="M38.016 23.148A5.711 5.711 0 0 0 32.68 19.3a5.569 5.569 0 0 0-2.771.718A4.388 4.388 0 0 1 27.6 22.84a8.007 8.007 0 0 1 3.746 2.1h5.336a1.412 1.412 0 0 0 1.334-1.792z" transform="translate(-13.469 -12.886)"/>
        <circle id="Ellipse_666" data-name="Ellipse 666" class="cls-3" cx="2.617" cy="2.617" r="2.617" transform="translate(16.595)"/>
        <path id="Path_16947" data-name="Path 16947" class="cls-2" d="M10.5 22.84a4.2 4.2 0 0 1-2.258-2.822 5.569 5.569 0 0 0-2.774-.718 5.643 5.643 0 0 0-5.337 3.848 1.389 1.389 0 0 0 1.334 1.8H6.8a7.605 7.605 0 0 1 3.7-2.108z" transform="translate(-.059 -12.886)"/>
        <circle id="Ellipse_667" data-name="Ellipse 667" class="cls-3" cx="2.617" cy="2.617" r="2.617" transform="translate(2.74)"/>
    </g>
</svg>
