<svg xmlns="http://www.w3.org/2000/svg" width="19.794" height="19.793">
    <path data-name="Path 16963" d="M23.46 11.355a9.889 9.889 0 0 0-12.1-7.026 9.9 9.9 0 0 0-7.034 12.1 9.9 9.9 0 0 0 12.1 7.034 9.9 9.9 0 0 0 7.034-12.1zm-8.312 10.679-.28.041a8.259 8.259 0 0 1-1.946 0l-.272-.041-.4-.082a28.877 28.877 0 0 1-.627-4c.759 0 1.517.066 2.284.066s1.526 0 2.276-.066a28.752 28.752 0 0 1-.635 4zm-9.31-6.49a3.338 3.338 0 0 0-.074-.4.8.8 0 0 0-.049-.3 7.409 7.409 0 0 1 0-1.93.741.741 0 0 1 .041-.3 2.422 2.422 0 0 0 .074-.4 28.753 28.753 0 0 1 4-.627c-.058.767-.058 1.534-.058 2.292s0 1.526.066 2.276a28.734 28.734 0 0 1-4-.611zm6.795-9.788.3-.049a8.2 8.2 0 0 1 .965-.058 8.137 8.137 0 0 1 .94.058l.3.049.388.074a28.876 28.876 0 0 1 .627 4 45.221 45.221 0 0 0-4.56 0 28.8 28.8 0 0 1 .66-3.991zm3.735 8.139c0 .825 0 1.608-.074 2.4a43.54 43.54 0 0 1-4.8 0c-.074-.792-.074-1.575-.074-2.4s0-1.608.074-2.4a43.539 43.539 0 0 1 4.8 0c.075.792.075 1.575.075 2.4zm1.583-2.276a28.734 28.734 0 0 1 4 .627 3.338 3.338 0 0 0 .074.4.8.8 0 0 0 .049.3 7.409 7.409 0 0 1 0 1.93.741.741 0 0 1-.041.3 2.422 2.422 0 0 0-.074.4 28.877 28.877 0 0 1-4 .627c0-.759.066-1.517.066-2.284s-.007-1.55-.073-2.3zm3.406-1.187a33.722 33.722 0 0 0-3.521-.478 33.722 33.722 0 0 0-.478-3.521 8.243 8.243 0 0 1 3.999 3.999zm-10.926-4a33.722 33.722 0 0 0-.478 3.521 33.722 33.722 0 0 0-3.521.478 8.243 8.243 0 0 1 3.999-3.999zm-4 10.926a33.722 33.722 0 0 0 3.521.478 33.722 33.722 0 0 0 .478 3.521 8.243 8.243 0 0 1-3.998-3.999zm10.926 4a33.722 33.722 0 0 0 .478-3.521 33.722 33.722 0 0 0 3.521-.478 8.243 8.243 0 0 1-3.998 3.998z" transform="translate(-3.998 -3.998)" style="fill:#77b2ff"/>
</svg>
