<svg id="Group_9484" data-name="Group 9484" xmlns="http://www.w3.org/2000/svg" width="15.15" height="10.531">
    <defs>
        <style>
            .cls-1{fill:#77b2ff}
        </style>
    </defs>
    <g id="Group_9479" data-name="Group 9479">
        <g id="Group_9478" data-name="Group 9478">
            <path id="Path_17271" data-name="Path 17271" class="cls-1" d="m31.164 171.212-1.426.655-1.206.554-1.22.56-2.018.927c-.41.188-.823.369-1.229.565l-.018.009h.464l-1.022-.47q-1-.461-2.006-.921l-1.4-.646-1.007-.462-1.645-.756a.309.309 0 0 1-.032-.015V172l.709-.326 1.7-.782 2.057-.946 1.777-.817c.286-.132.577-.257.86-.395l.012-.006h-.464l.709.326 1.7.782 2.057.946 1.777.817c.286.132.572.265.86.395l.012.006a.49.49 0 0 0 .353.046.459.459 0 0 0 .109-.839l-.713-.327-1.714-.78-2.058-.946-1.778-.817c-.283-.13-.566-.262-.849-.39a.492.492 0 0 0-.363-.051 1.2 1.2 0 0 0-.121.052l-.093.043-.439.2-1.611.741-2.054.944-1.849.849-1.013.465-.047.021a.462.462 0 0 0 0 .793l1.44.661 1.194.549 1.236.568 2.018.927 1.215.559a.5.5 0 0 0 .369.054 1.317 1.317 0 0 0 .127-.054l.142-.066.634-.291 1.98-.911 1.567-.721.859-.395 1.8-.826.119-.055a.459.459 0 0 0-.109-.839.509.509 0 0 0-.352.048z" transform="translate(-16.7 -167.878)"/>
        </g>
    </g>
    <g id="Group_9481" data-name="Group 9481" transform="translate(2.627 4.473)">
        <g id="Group_9480" data-name="Group 9480">
            <path id="Path_17272" data-name="Path 17272" class="cls-1" d="M197.356 460.636v3.584a5 5 0 0 1-.009.586l.017-.122a1.211 1.211 0 0 1-.073.277l.046-.11a1.207 1.207 0 0 1-.1.187c-.009.014-.018.028-.029.041-.043.064.061-.07.029-.038s-.047.055-.073.081-.049.046-.073.067c-.054.047.083-.058.038-.029l-.041.029a1.183 1.183 0 0 1-.194.1l.11-.046a1.1 1.1 0 0 1-.277.073l.122-.017a2.437 2.437 0 0 1-.3.009H189.936a1.306 1.306 0 0 1-.153-.009l.122.017a1.209 1.209 0 0 1-.277-.073l.11.046a1.2 1.2 0 0 1-.187-.1c-.014-.009-.028-.018-.041-.029-.064-.043.07.061.038.029s-.055-.047-.081-.073-.046-.049-.067-.073c-.047-.054.058.083.029.038l-.029-.041a1.188 1.188 0 0 1-.1-.194l.046.11a1.1 1.1 0 0 1-.073-.277l.017.122a4.194 4.194 0 0 1-.009-.5v-3.67l-.69.4 1.539.707 2.422 1.113c.179.083.357.165.536.246a.515.515 0 0 0 .474 0l.057-.026.279-.129 2.311-1.062 1.821-.837.029-.014a.459.459 0 0 0-.109-.839.525.525 0 0 0-.353.046l-1.526.7-2.416 1.111-.559.257h.464l-1.526-.7-2.416-1.111-.559-.257a.48.48 0 0 0-.464 0 .463.463 0 0 0-.228.4v3.642c0 .161-.011.326 0 .487a1.631 1.631 0 0 0 .442.995 1.6 1.6 0 0 0 .981.467 3.065 3.065 0 0 0 .375.009h6.495a1.607 1.607 0 0 0 1.194-.5 1.629 1.629 0 0 0 .424-.993v-4.107a.464.464 0 0 0-.459-.459.469.469 0 0 0-.463.459z" transform="translate(-188.362 -460.176)"/>
        </g>
    </g>
</svg>
