<svg xmlns="http://www.w3.org/2000/svg" width="16.749" height="16.749">
    <defs>
        <style>
            .cls-1{fill:#949ab2}
        </style>
    </defs>
    <g id="Group_10101" data-name="Group 10101" transform="translate(-1 -1)">
        <path id="Path_17543" data-name="Path 17543" class="cls-1" d="M19.607 7h-1.674a.558.558 0 0 0 0 1.117h1.675a.559.559 0 0 1 .558.558v7.258a.558.558 0 0 1-.558.558h-.558a.558.558 0 0 0-.558.558v1.444l-1.838-1.838a.556.556 0 0 0-.395-.164h-5.584a.558.558 0 0 1-.558-.558.558.558 0 1 0-1.117 0 1.677 1.677 0 0 0 1.675 1.675h5.352l2.628 2.628a.558.558 0 0 0 .395.164.551.551 0 0 0 .214-.042.558.558 0 0 0 .344-.516v-2.235a1.677 1.677 0 0 0 1.675-1.675V8.675A1.677 1.677 0 0 0 19.607 7z" transform="translate(-3.534 -2.65)"/>
        <path id="Path_17544" data-name="Path 17544" class="cls-1" d="M11.607 11.607a1.677 1.677 0 0 0 1.675-1.675V2.675A1.677 1.677 0 0 0 11.607 1H2.675A1.677 1.677 0 0 0 1 2.675v7.258a1.677 1.677 0 0 0 1.675 1.675v2.233a.558.558 0 0 0 .344.516.551.551 0 0 0 .214.042.558.558 0 0 0 .395-.164l2.628-2.628zm-5.977-.953-1.839 1.839v-1.444a.558.558 0 0 0-.558-.558h-.558a.558.558 0 0 1-.558-.558V2.675a.559.559 0 0 1 .558-.558h8.933a.559.559 0 0 1 .558.558v7.258a.558.558 0 0 1-.558.558H6.025a.556.556 0 0 0-.395.163z"/>
        <path id="Path_17545" data-name="Path 17545" class="cls-1" d="M12.025 4.7a.558.558 0 0 0-.558.558c0 .052-.006.1-.007.154a.522.522 0 0 0-.073-.015H9.8c.014-.266.017-.543.017-.837a.558.558 0 1 0-1.117 0c0 .312-.006.585-.021.837H7.558a.558.558 0 0 0 0 1.117h.913a3.226 3.226 0 0 1-.687 1.081.558.558 0 0 0 .411.935 2.3 2.3 0 0 1 1.361.439 3.6 3.6 0 0 1-2 .616.558.558 0 1 0 0 1.117 4.729 4.729 0 0 0 2.777-.911 4.164 4.164 0 0 1 .332.585.558.558 0 1 0 1.015-.464 5.1 5.1 0 0 0-.512-.878 5.667 5.667 0 0 0 1.413-3.776.558.558 0 0 0-.556-.558zM10.4 8.217a3.6 3.6 0 0 0-1.2-.653 3.85 3.85 0 0 0 .442-1.051H11.3a4.457 4.457 0 0 1-.9 1.704z" transform="translate(-2.65 -1.325)"/>
    </g>
</svg>
