<svg id="Layer_1" data-name="Layer 1" xmlns="http://www.w3.org/2000/svg" viewBox="0 0 113 26"><title>logo</title><g id="Group_9337" data-name="Group 9337"><g id="LOGO" style="isolation:isolate"><g style="isolation:isolate"><path d="M41.64,9.16V25h6.21v3h-10V9.16Z" transform="translate(0 -6)" style="fill:#fff"/><path d="M59.81,28.19a9.47,9.47,0,0,1-9.66-9.66,9.65,9.65,0,0,1,19.3,0A9.43,9.43,0,0,1,59.81,28.19Zm0-3.38c3.4,0,5.75-2.45,5.75-6.28s-2.35-6.24-5.75-6.24S54,14.69,54,18.53,56.38,24.81,59.81,24.81Z" transform="translate(0 -6)" style="fill:#fff"/><path d="M90.53,14.83H86.19a4.75,4.75,0,0,0-4.43-2.43c-3.37,0-5.72,2.4-5.72,6.15s2.37,6.21,5.88,6.21a5.12,5.12,0,0,0,5.35-4.34H80.79V17.53H91v3.29a9.2,9.2,0,0,1-9.2,7.34,9.33,9.33,0,0,1-9.64-9.61,9.34,9.34,0,0,1,9.61-9.63C86,8.92,89.32,11.05,90.53,14.83Z" transform="translate(0 -6)" style="fill:#fff"/><path d="M103.36,28.19a9.47,9.47,0,0,1-9.66-9.66,9.65,9.65,0,0,1,19.3,0A9.43,9.43,0,0,1,103.36,28.19Zm0-3.38c3.4,0,5.75-2.45,5.75-6.28s-2.35-6.24-5.75-6.24-5.78,2.4-5.78,6.24S99.93,24.81,103.36,24.81Z" transform="translate(0 -6)" style="fill:#fff"/></g></g><circle id="Ellipse_658" data-name="Ellipse 658" cx="13" cy="13" r="13" style="fill:#fff;opacity:0.1"/><circle id="Ellipse_658-2" data-name="Ellipse 658-2" cx="13" cy="13" r="5" style="fill:#fff;opacity:0.3"/></g></svg>