<svg width="18" height="20" viewBox="0 0 18 20" fill="none" xmlns="http://www.w3.org/2000/svg">
<path d="M11.802 11.0245C10.9739 11.5815 9.99847 11.879 9.00041 11.879C8.00234 11.879 7.02693 11.5815 6.19877 11.0245C5.48694 11.5115 4.66067 11.8051 3.80109 11.8763C2.94151 11.9476 2.07818 11.794 1.2959 11.4307V17.5102C1.29756 18.067 1.51947 18.6005 1.91317 18.9942C2.30687 19.3879 2.84036 19.6098 3.39713 19.6115H5.49836V16.8098C5.50002 16.2531 5.72193 15.7196 6.11563 15.3259C6.50933 14.9322 7.04282 14.7103 7.59959 14.7086H10.4012C10.958 14.7103 11.4915 14.9322 11.8852 15.3259C12.2789 15.7196 12.5008 16.2531 12.5025 16.8098V19.6115H14.6037C15.1605 19.6098 15.6939 19.3879 16.0876 18.9942C16.4813 18.6005 16.7033 18.067 16.7049 17.5102V11.4307C16.0496 11.7464 15.3311 11.9092 14.6037 11.907C13.6012 11.9082 12.6228 11.6 11.802 11.0245Z" fill="#D7E4FD"/>
<path d="M17.8014 5.9808L16.2843 1.43654C16.145 1.01877 15.8779 0.655336 15.5209 0.397566C15.1638 0.139797 14.7348 0.000725991 14.2944 0H3.70561C3.26523 0.000725991 2.83621 0.139797 2.47915 0.397566C2.12209 0.655336 1.85505 1.01877 1.71574 1.43654L0.198654 5.9808C-0.056728 6.69511 -0.0661361 7.47427 0.171924 8.19454C0.409983 8.91481 0.881862 9.5349 1.51262 9.95633C2.16086 10.3568 2.92018 10.5396 3.67966 10.4778C4.43914 10.4161 5.15897 10.1131 5.73399 9.61313C5.86164 9.49849 6.02715 9.43508 6.19872 9.43508C6.37028 9.43508 6.53579 9.49849 6.66344 9.61313C7.31433 10.1708 8.14322 10.4774 9.00035 10.4774C9.85749 10.4774 10.6864 10.1708 11.3373 9.61313C11.4649 9.49849 11.6304 9.43508 11.802 9.43508C11.9736 9.43508 12.1391 9.49849 12.2667 9.61313C12.8364 10.1234 13.5574 10.4332 14.3196 10.4952C15.0819 10.5572 15.8435 10.3679 16.4881 9.95633C17.1186 9.53471 17.5903 8.91458 17.8282 8.19435C18.0661 7.47411 18.0567 6.69505 17.8014 5.9808Z" fill="#4F8AFF"/>
</svg>
