<svg xmlns="http://www.w3.org/2000/svg" width="17.832" height="18.601">
    <defs>
        <style>
            .cls-1{fill:#4f8aff}
        </style>
    </defs>
    <g id="Group_9342" data-name="Group 9342" transform="translate(-1034.794 -753.54)">
        <path id="Rectangle_2846" data-name="Rectangle 2846" class="cls-1" transform="translate(1039 757)" d="M0 0h11v11H0z"/>
        <g id="Group_9282" data-name="Group 9282" transform="translate(1034.805 753.54)">
            <path id="Path_17086" data-name="Path 17086" d="M-871.9-41.591h-.923a.821.821 0 0 1-.85-.827.821.821 0 0 1 .846-.831h.925v-4.295h-.309a5.581 5.581 0 0 1-.83-.033.8.8 0 0 1-.629-.9.819.819 0 0 1 .8-.72c.32-.006.641 0 .985 0v-1.305a1.189 1.189 0 0 1 .253-.757 1.142 1.142 0 0 1 .862-.45c.082-.005.164 0 .246 0h13.38a1.183 1.183 0 0 1 1.288 1.282v16.034a1.182 1.182 0 0 1-1.284 1.285h-13.46a1.166 1.166 0 0 1-1.2-.746 1.526 1.526 0 0 1-.086-.48c-.013-.41-.007-.821-.01-1.231 0-.011-.01-.022-.027-.058h-.949a.807.807 0 0 1-.773-.588.8.8 0 0 1 .322-.915 1.16 1.16 0 0 1 .5-.149c.3-.023.6-.007.921-.007zm8.037-3.705c-.222-.234-.4-.439-.6-.627a2.467 2.467 0 0 0-3.007-.334 2.462 2.462 0 0 0-1.069 2.845 5.169 5.169 0 0 0 .93 1.614 16.785 16.785 0 0 0 3.414 3.445.453.453 0 0 0 .637 0c.324-.251.65-.5.96-.77a17.523 17.523 0 0 0 2.376-2.566 10.136 10.136 0 0 0 .791-1.2 2.412 2.412 0 0 0 .292-1.736 2.38 2.38 0 0 0-1.7-1.886 2.372 2.372 0 0 0-2.479.614c-.182.186-.347.385-.546.597z" transform="translate(873.678 51.721)" style="fill:#d1e1ff"/>
        </g>
        <path id="Path_17087" data-name="Path 17087" class="cls-1" d="M-.206-.291H2v1.645H-.206z" transform="translate(1035 756.356)"/>
        <path id="Path_17088" data-name="Path 17088" class="cls-1" d="M-.193-.371h2.206v1.646H-.193z" transform="translate(1035 762.356)"/>
        <path id="Path_17089" data-name="Path 17089" class="cls-1" d="M-.193-.371h2.206v1.646H-.193z" transform="translate(1035 768.277)"/>
    </g>
</svg>
