<svg xmlns="http://www.w3.org/2000/svg" width="19.594" height="19.575">
    <defs>
        <style>
            .cls-2{fill:#d1e1ff}
        </style>
    </defs>
    <g id="Group_9120" data-name="Group 9120" style="opacity:.81">
        <path id="Path_16940" data-name="Path 16940" class="cls-2" d="M1.091 4.6a2.488 2.488 0 0 0 2.758 0l.026.026a3.072 3.072 0 0 0 .389-.4 1.767 1.767 0 0 1 .293-.343 2.487 2.487 0 1 0-3.466.717z" transform="translate(.031 -.037)"/>
        <path id="Path_16941" data-name="Path 16941" class="cls-2" d="M75.005 3.912a2.882 2.882 0 0 0 .708.676 2.488 2.488 0 1 0-.691-.693z" transform="translate(-59.991 -.029)"/>
        <path id="Path_16942" data-name="Path 16942" class="cls-2" d="M4.458 75.617a1.013 1.013 0 0 0-.206-.238c-.153-.127-.278-.283-.419-.424l-.02.02a2.495 2.495 0 1 0 .694.7.467.467 0 0 1-.049-.058z" transform="translate(.072 -59.963)"/>
        <path id="Path_16943" data-name="Path 16943" d="m28.424 22.547 2.788-2.789c-.126-.1-.263-.186-.383-.293a1.828 1.828 0 0 1-.327-.381l-2.769 2.772a4.132 4.132 0 0 0-5.128 0l-2.819-2.809a2.138 2.138 0 0 0-.3.361 3.66 3.66 0 0 1-.36.363l2.788 2.779a4.132 4.132 0 0 0 0 5.128l-2.7 2.708c.116.115.222.239.34.354a2.8 2.8 0 0 1 .218.193c.036.042.064.124.108.171l2.72-2.735a4.132 4.132 0 0 0 5.128 0l2.715 2.7a4.3 4.3 0 0 1 .3-.341c.124-.125.259-.237.378-.365l-2.7-2.685a4.132 4.132 0 0 0 .003-5.131z" transform="translate(-15.367 -15.324)" style="fill:#4f8aff"/>
        <path id="Path_16944" data-name="Path 16944" class="cls-2" d="M78.456 74.97a2.485 2.485 0 0 0-2.755.012l-.014-.014c-.105.113-.223.212-.335.321a3.986 3.986 0 0 0-.344.385 2.486 2.486 0 1 0 3.444-.707z" transform="translate(-59.985 -59.971)"/>
    </g>
</svg>
