<svg xmlns="http://www.w3.org/2000/svg" width="16.748" height="16.765">
    <defs>
        <style>
            .cls-1{fill:#949ab2}
        </style>
    </defs>
    <g id="Group_9994" data-name="Group 9994" transform="translate(-554.651 -1505.5)">
        <path id="Path_17494" data-name="Path 17494" class="cls-1" d="M514.873 193.925a4.2 4.2 0 0 1 3.418 3.416.693.693 0 0 0 .687.58.608.608 0 0 0 .11-.01.006.006 0 0 0 .005 0 .694.694 0 0 0 .569-.8 5.582 5.582 0 0 0-4.558-4.553.7.7 0 0 0-.229 1.373z" transform="translate(48.771 1315.912)"/>
        <path id="Path_17495" data-name="Path 17495" class="cls-1" d="M32.54 83.723a1.832 1.832 0 0 0-1.332-.605 1.879 1.879 0 0 0-1.339.6l-.967.967-.07-.036-.049-.024c-.1-.053-.223-.112-.321-.173a11.624 11.624 0 0 1-2.772-2.527 6.781 6.781 0 0 1-.828-1.268c.243-.229.469-.459.682-.676l.144-.146.146-.148a1.792 1.792 0 0 0 0-2.706l-.94-.94-.161-.163a8.105 8.105 0 0 0-.16-.161l-.075-.076a15.95 15.95 0 0 0-.571-.563 1.853 1.853 0 0 0-1.319-.574 1.921 1.921 0 0 0-1.336.574l-1.178 1.176A2.744 2.744 0 0 0 19.277 78a6.158 6.158 0 0 0 .455 2.653A15.075 15.075 0 0 0 22.4 85.11a16.49 16.49 0 0 0 5.469 4.283 8.585 8.585 0 0 0 3.115.918H31c.07 0 .143.007.219.007a2.818 2.818 0 0 0 2.15-.925l.008-.008a.17.17 0 0 0 .017-.019 7.671 7.671 0 0 1 .585-.6c.151-.144.306-.292.455-.452a1.947 1.947 0 0 0 .588-1.356 1.9 1.9 0 0 0-.6-1.341l-1.886-1.89zm-.187 4.737a1.422 1.422 0 0 1-1.122.467c-.044 0-.093 0-.144-.007a7.315 7.315 0 0 1-2.6-.782 14.973 14.973 0 0 1-5.012-3.921 13.739 13.739 0 0 1-2.432-4.05 4.735 4.735 0 0 1-.374-2.056 1.331 1.331 0 0 1 .411-.875l1.169-1.169a.551.551 0 0 1 .365-.18.529.529 0 0 1 .352.182l.005.005c.2.19.4.391.608.6l.007.007c.1.1.216.223.333.336l.938.938c.274.274.274.466 0 .739l-.3.3-.07.071a16.3 16.3 0 0 1-.782.758.079.079 0 0 0-.012.012l-.017.017a.92.92 0 0 0-.231 1.018c0 .01.007.019.01.027a.06.06 0 0 0 .007.015 7.78 7.78 0 0 0 1.149 1.871 12.936 12.936 0 0 0 3.114 2.833 5.038 5.038 0 0 0 .444.243c.105.053.224.114.323.173a.127.127 0 0 0 .02.012h.005c.01.005.02.012.032.017a.969.969 0 0 0 .445.11.936.936 0 0 0 .688-.309l1.181-1.162a.557.557 0 0 1 .357-.187.523.523 0 0 1 .337.185l1.9 1.9c.187.187.314.408-.015.755-.1.112-.214.219-.331.333a2.67 2.67 0 0 0-.076.075 8.007 8.007 0 0 0-.68.7z" transform="translate(535.389 1431.948)"/>
        <path id="Path_17496" data-name="Path 17496" class="cls-1" d="M530.53 26.122a9.043 9.043 0 0 0-7.378-7.371.7.7 0 0 0-.231 1.372 7.654 7.654 0 0 1 6.235 6.234.693.693 0 0 0 .687.58h.005a.565.565 0 0 0 .105-.01.006.006 0 0 0 .005 0 .7.7 0 0 0 .571-.8z" transform="translate(40.859 1486.758)"/>
    </g>
</svg>
