<svg xmlns="http://www.w3.org/2000/svg" width="17.2" height="17.771">
    <defs>
        <style>
            .cls-1{fill:none;stroke-linecap:round;stroke-width:1.4px;stroke:#acb0c2}
        </style>
    </defs>
    <g id="Group_10576" data-name="Group 10576" transform="translate(-693.9 -1397.9)">
        <g id="Group_9690" data-name="Group 9690" transform="translate(10.5 2)">
            <path id="Line_353" data-name="Line 353" class="cls-1" transform="translate(692.5 1400.214)" d="M0 0v3"/>
            <g id="Group_9689" data-name="Group 9689" transform="translate(692.5 1405.614)">
                <path id="Line_353-2" data-name="Line 353" class="cls-1" d="M0 0v.344"/>
            </g>
        </g>
        <g id="_4-comment" data-name="4-comment" transform="translate(692 1397)">
            <path id="Path_17582" data-name="Path 17582" d="M14.75 18.571a.607.607 0 0 1-.364-.121l-4.693-3.521H3.821A1.821 1.821 0 0 1 2 13.107V2.821A1.821 1.821 0 0 1 3.821 1h13.358A1.821 1.821 0 0 1 19 2.821v10.286a1.821 1.821 0 0 1-1.821 1.821h-1.822v3.036a.607.607 0 0 1-.334.54.553.553 0 0 1-.273.067zM3.821 2.214a.607.607 0 0 0-.607.607v10.286a.607.607 0 0 0 .607.607h6.072a.607.607 0 0 1 .364.121l3.886 2.914v-2.428a.607.607 0 0 1 .607-.607h2.429a.607.607 0 0 0 .607-.607V2.821a.607.607 0 0 0-.607-.607z" style="fill:#acb0c2;stroke-width:.2px;stroke:#acb0c2"/>
        </g>
    </g>
</svg>
