<svg xmlns="http://www.w3.org/2000/svg" width="20.441" height="20.443">
    <defs>
        <style>
            .cls-1{fill:#acb0c2}
        </style>
    </defs>
    <g id="Layer_2" data-name="Layer 2" transform="translate(-2 -1.993)">
        <path id="Path_17862" data-name="Path 17862" class="cls-1" d="M21.156 4.6A8.877 8.877 0 0 1 22.9 5.718a.68.68 0 1 0 .861-1.051 10.221 10.221 0 0 0-2.015-1.292.682.682 0 0 0-.6 1.226z" transform="translate(-5.066 -.354)"/>
        <path id="Path_17863" data-name="Path 17863" class="cls-1" d="M21.762 11.54a.679.679 0 0 0-.679.679 8.848 8.848 0 1 1-6.57-8.563.68.68 0 1 0 .35-1.314 10.221 10.221 0 1 0 7.578 9.878.679.679 0 0 0-.679-.679z"/>
        <path id="Path_17864" data-name="Path 17864" class="cls-1" d="M27.436 11.672q.139.394.241.81a.679.679 0 0 0 .664.518.657.657 0 0 0 .161 0 .679.679 0 0 0 .5-.825c-.08-.314-.175-.628-.277-.934a.681.681 0 0 0-1.285.453z" transform="translate(-6.856 -2.374)"/>
        <path id="Path_17865" data-name="Path 17865" class="cls-1" d="M26.032 8.87a.686.686 0 1 0 1.161-.73 10.257 10.257 0 0 0-.73-1.044.68.68 0 0 0-1.059.854 9.03 9.03 0 0 1 .628.92z" transform="translate(-6.277 -1.309)"/>
        <path id="Path_17866" data-name="Path 17866" class="cls-1" d="M12.415 5.73a6.685 6.685 0 1 0 6.685 6.685 6.685 6.685 0 0 0-6.685-6.685zm0 12.153a5.468 5.468 0 1 1 5.468-5.468 5.468 5.468 0 0 1-5.468 5.468z" transform="translate(-.194 -.196)"/>
        <path id="Path_17867" data-name="Path 17867" class="cls-1" d="M17.036 14.305h-1.365v-1.357a.683.683 0 1 0-1.365 0v1.365h-1.358a.683.683 0 0 0 0 1.365h1.365v1.358a.683.683 0 1 0 1.365 0v-1.365h1.358a.683.683 0 0 0 0-1.365z" transform="translate(-2.771 -2.773)"/>
    </g>
</svg>
