<svg xmlns="http://www.w3.org/2000/svg" width="19.29" height="17.469">
    <defs>
        <style>
            .cls-1{fill:#77b2ff}
        </style>
    </defs>
    <g id="Group_9732" data-name="Group 9732" transform="translate(345.665 -229.64)">
        <path id="Path_17427" data-name="Path 17427" class="cls-1" d="M-331.2 229.64c.205.048.412.088.615.146a5.562 5.562 0 0 1 3.681 3.443 6 6 0 0 1-1.113 6.571 31.384 31.384 0 0 1-3.751 3.675q-2.045 1.765-4.1 3.515c-.043.037-.091.069-.157.12-.464-.4-.928-.792-1.384-1.192-1.718-1.506-3.453-2.994-5.143-4.53a12.484 12.484 0 0 1-2.435-3.016 6.249 6.249 0 0 1 2.842-8.354 11.891 11.891 0 0 1 1.3-.377h.988a.259.259 0 0 0 .076.04 5.736 5.736 0 0 1 3.162 1.653c.2.191.411.377.624.573-.008 0 .014 0 .026-.011.054-.055.106-.113.159-.169a6.543 6.543 0 0 1 2.62-1.82c.326-.113.669-.178 1-.265zm-4.829 15.176c.649-.552 1.285-1.073 1.9-1.62 1.314-1.173 2.641-2.334 3.911-3.553a9.685 9.685 0 0 0 1.43-1.784 4.484 4.484 0 0 0-1.174-5.879 2.8 2.8 0 0 0-2.332-.528 3.821 3.821 0 0 0-1.557.81 9.106 9.106 0 0 0-1.763 2.07c-.127.188-.261.372-.41.582-.306-.439-.583-.845-.87-1.244a6.456 6.456 0 0 0-1.793-1.758 2.909 2.909 0 0 0-2.07-.494 3.419 3.419 0 0 0-2.471 1.845 4.211 4.211 0 0 0 .129 4.855 13.805 13.805 0 0 0 1.116 1.372c1.821 1.939 3.939 3.549 5.954 5.326z"/>
        <path id="Path_17428" data-name="Path 17428" class="cls-1" d="M-251.278 317.326h-1.747v-1.718h-1.734v-1.747h1.712v-1.734h1.747v1.712h1.734v1.747h-1.712z" transform="translate(-83.862 -76.095)"/>
    </g>
</svg>
