<svg xmlns="http://www.w3.org/2000/svg" width="70.457" height="19.58" viewBox="0 0 70.457 19.58">
    <defs>
        <style>
            .cls-1{fill:#0f8283}
        </style>
    </defs>
    <g id="cision-1" transform="translate(0 .008)">
        <g id="Group_10961" data-name="Group 10961" transform="translate(13.369 -.007)">
            <path id="Path_17399" data-name="Path 17399" class="cls-1" d="M531.61.2v7.842l2.758-.316V.2zm0 19.252h2.758v-7.521l-2.758-.316zm10.531-13.204a9.563 9.563 0 0 1-.04-.96 5.252 5.252 0 0 1 .082-.933 2.3 2.3 0 0 1 .284-.784 1.577 1.577 0 0 1 .568-.553 1.81 1.81 0 0 1 .933-.216 1.651 1.651 0 0 1 1.5.69 2.942 2.942 0 0 1 .446 1.636v.621h2.756V4.4a4 4 0 0 0-.324-1.582 4.409 4.409 0 0 0-.933-1.391 4.623 4.623 0 0 0-1.459-1 4.518 4.518 0 0 0-1.879-.377 4.845 4.845 0 0 0-2.083.417 4.146 4.146 0 0 0-1.473 1.123 4.747 4.747 0 0 0-.88 1.676 6.945 6.945 0 0 0-.3 2.054 8.138 8.138 0 0 0 .189 1.82l2.76-.316a1.766 1.766 0 0 1-.151-.571m3.773 7.748q0 .649-.054 1.189a2.309 2.309 0 0 1-.257.905 1.365 1.365 0 0 1-.594.568 2.412 2.412 0 0 1-1.1.2 1.738 1.738 0 0 1-1.5-.608 2.255 2.255 0 0 1-.446-1.366v-.864h-2.756v1.027a4.473 4.473 0 0 0 2.839 4.216 4.863 4.863 0 0 0 1.866.352 5.249 5.249 0 0 0 2.244-.433 3.769 3.769 0 0 0 1.473-1.176 4.732 4.732 0 0 0 .8-1.783 9.884 9.884 0 0 0 .243-2.258c0-.137 0-.27-.005-.4l-2.77-.317c.011.222.017.468.017.743m7.6 5.462h2.758v-5.019l-2.758-.316zm0-19.252v5.328l2.758-.315V.2zm11.29 3.067a2.025 2.025 0 0 1 .292-.2 2.054 2.054 0 0 1 2.331.2 1.439 1.439 0 0 1 .42.62l2.773-.317a4.411 4.411 0 0 0-1.354-2.36 4.579 4.579 0 0 0-1.488-.879 4.8 4.8 0 0 0-3.326 0 4.578 4.578 0 0 0-1.488.879 4.238 4.238 0 0 0-1.068 1.474 4.819 4.819 0 0 0-.4 1.928l2.787-.319a1.609 1.609 0 0 1 .522-1.027m2.622 13.114a2.053 2.053 0 0 1-2.623 0 1.606 1.606 0 0 1-.522-1.031l-2.787-.319a4.838 4.838 0 0 0 .4 1.946 4.274 4.274 0 0 0 1.068 1.459 4.555 4.555 0 0 0 1.488.88 4.8 4.8 0 0 0 3.326 0 4.567 4.567 0 0 0 1.488-.879 4.279 4.279 0 0 0 1.068-1.459 4.147 4.147 0 0 0 .292-.9l-2.777-.318a1.434 1.434 0 0 1-.421.622m15.372 3.068h2.6v-1.681l-3.349-.384zm-7.03 0h2.758v-2.467l-2.758-.316zM582.631.2v2l2.759-.316V.2zm-6.868 0v2.786l3.5-.4-.85-2.386z" transform="translate(-531.61 -.04)"/>
        </g>
        <path id="Path_17400" data-name="Path 17400" d="M531.58 79.5v3.574l2.758.316v-4.208zm16.533 2.586a3.311 3.311 0 0 0-.878-1.108 5.219 5.219 0 0 0-1.485-.825l-2.108-.839a4.279 4.279 0 0 1-.852-.432 1.532 1.532 0 0 1-.474-.5c-.019-.034-.035-.069-.054-.1l-2.76.316a5.2 5.2 0 0 0 .419 1.2 4.368 4.368 0 0 0 2.393 1.933l1.974.811a6.579 6.579 0 0 1 .825.405 1.387 1.387 0 0 1 .485.487 1.964 1.964 0 0 1 .23.784c.016.148.028.316.037.5l2.77.319a13.739 13.739 0 0 0-.1-1.48 4.688 4.688 0 0 0-.419-1.459m5.368-5.1v8.582l2.758.316v-9.222zm17.224-.787a5.54 5.54 0 0 0-.119-1.172l-2.773.318a2.459 2.459 0 0 1 .134.854V86.37a2.466 2.466 0 0 1-.133.851l2.777.319a5.733 5.733 0 0 0 .114-1.168zm-6.49 10.167V76.2a2.939 2.939 0 0 1 .032-.446l-2.787.32v10.419l2.787.319a2.994 2.994 0 0 1-.032-.442M582.6 73.656v9.6h-.055l-3.309-9.22-3.5.4v13.692l2.758.316v-9.1h.054l3.465 9.507 3.349.383V73.34z" transform="translate(-518.212 -71.503)" style="fill:#f15f24"/>
        <path id="Path_17401" data-name="Path 17401" class="cls-1" d="M7.648 1.331A4.58 4.58 0 0 0 6.256.358a4.026 4.026 0 0 0-1.717-.366 6.156 6.156 0 0 0-1.595.216 3.839 3.839 0 0 0-1.457.745A4.029 4.029 0 0 0 .419 2.345 5.01 5.01 0 0 0 0 4.535v10.494a5.019 5.019 0 0 0 .419 2.19 4.016 4.016 0 0 0 1.068 1.392 3.823 3.823 0 0 0 1.459.744 6.149 6.149 0 0 0 1.6.216 4.024 4.024 0 0 0 1.717-.365 4.58 4.58 0 0 0 1.393-.973 4.443 4.443 0 0 0 .933-1.419 4.351 4.351 0 0 0 .338-1.7v-1.743L6.136 12.9v.843a5.85 5.85 0 0 1-.314 2.357 1.613 1.613 0 0 1-.277.334 1.574 1.574 0 0 1-.528.281 2.13 2.13 0 0 1-.436.088c-.041 0-.082.006-.127.006h-.018a1.437 1.437 0 0 1-1.311-.568 2.558 2.558 0 0 1-.365-1.405V4.723a2.542 2.542 0 0 1 .365-1.405 1.442 1.442 0 0 1 1.311-.568h.019c.044 0 .086 0 .127.006a2.156 2.156 0 0 1 .433.088 1.58 1.58 0 0 1 .528.281 1.632 1.632 0 0 1 .277.333 5.829 5.829 0 0 1 .314 2.364v.844l2.788-.476V4.453a4.344 4.344 0 0 0-.338-1.7 4.429 4.429 0 0 0-.934-1.422m61.653-.3h.2a.393.393 0 0 0 .2-.039.129.129 0 0 0 .065-.129.116.116 0 0 0-.058-.113.268.268 0 0 0-.148-.036H69.3zm-.176-.477h.428q.386 0 .386.317a.357.357 0 0 1-.022.136.257.257 0 0 1-.062.094.286.286 0 0 1-.092.057.472.472 0 0 1-.108.028l.324.493h-.213l-.324-.486h-.136v.487h-.176zm1.138.563A.765.765 0 0 0 70.2.811a.8.8 0 0 0-.165-.251.77.77 0 0 0-.245-.169.752.752 0 0 0-.6 0 .771.771 0 0 0-.245.169.805.805 0 0 0-.165.251.8.8 0 0 0 0 .612.807.807 0 0 0 .165.251.771.771 0 0 0 .245.169.752.752 0 0 0 .6 0 .77.77 0 0 0 .245-.169.8.8 0 0 0 .165-.251.769.769 0 0 0 .062-.307m-1.738.005A.928.928 0 0 1 68.6.745a.966.966 0 1 1 0 .75.927.927 0 0 1-.075-.377"/>
    </g>
</svg>
