<svg id="kabel-1-1" xmlns="http://www.w3.org/2000/svg" width="52.052" height="52.052" viewBox="0 0 52.052 52.052">
    <defs>
        <style>
            .cls-10,.cls-11,.cls-12,.cls-13,.cls-14,.cls-15,.cls-16,.cls-18,.cls-19,.cls-21,.cls-22,.cls-26,.cls-3,.cls-4,.cls-44,.cls-5,.cls-6,.cls-7,.cls-8,.cls-9{fill-rule:evenodd}.cls-3{fill:#b97a36}.cls-4{fill:#efc031}.cls-5{fill:#ebbc32}.cls-6{fill:#e4b533}.cls-7{fill:#e1ae33}.cls-8{fill:#dba834}.cls-9{fill:#d9a434}.cls-10{fill:#d49d35}.cls-11{fill:#cf9735}.cls-12{fill:#cc9435}.cls-13{fill:#c78e36}.cls-14{fill:#c48836}.cls-15{fill:#c08336}.cls-16{fill:#be8036}.cls-18{fill:#bc7e36}.cls-19{fill:#be8136}.cls-21{fill:#c28736}.cls-22{fill:#c58a36}.cls-26{fill:#ca9136}.cls-44{fill:#e7b732}
        </style>
    </defs>
    <path id="Path_17402" data-name="Path 17402" d="M0 0h52.052v52.052H0z" style="fill-rule:evenodd;fill:#fff"/>
    <path id="Path_17403" data-name="Path 17403" d="M43.9 178.951h-2.646v-4.058h2.674c.934 0 1.172.513 1.172 1.022a.82.82 0 0 1-.538.843.964.964 0 0 1 .722 1.022c0 .451-.271 1.173-1.385 1.173zm-.271-.634c.392 0 .784-.059.784-.6 0-.359-.271-.571-.663-.571H42.1v1.172zm.063-1.773c.238 0 .571-.058.571-.508 0-.33-.213-.513-.722-.513H42.1v1.022zm-9.736 2.407 1.8-4.058h1.022l1.8 4.058h-.93l-.421-.993h-1.921l-.421.993zm3-1.623-.688-1.714-.722 1.714zm27.792-2.419h-.93a1.472 1.472 0 0 1-1.173.509v.813a2.107 2.107 0 0 0 .9-.121v2.824h1.2zm-9.314 4.042h3.1v-.663H56.22v-3.395h-.784v4.058zm-7.091 0h3.608v-.634h-2.763v-1.139H51.8v-.634h-2.612v-1.022h2.736v-.63h-3.579zm-20.731 0h.843v-1.264l.692-.6 1.531 1.864h1.139l-2.011-2.407 1.894-1.651h-1.17l-2.073 1.864v-1.864h-.843v4.058z" transform="translate(-20.157 -127.665)" style="fill-rule:evenodd"/>
    <path id="Path_17404" data-name="Path 17404" class="cls-3" d="M155.246 31.4v7.434a14.345 14.345 0 0 0-2.389-5.072V27.6a20.152 20.152 0 0 1 2.389 3.8zm0 14.741v4.408a19.933 19.933 0 0 1-2.389 3.511v-2.59a15.216 15.216 0 0 0 2.389-5.325zm0 4.408v-4.404a18.569 18.569 0 0 0 .479-3.328 16.247 16.247 0 0 0-.479-3.978V31.4a24.023 24.023 0 0 1 2.286 10.415 19.448 19.448 0 0 1-2.286 8.734z" transform="translate(-111.579 -20.144)"/>
    <path id="Path_17405" data-name="Path 17405" class="cls-4" d="M107.723 2.966v6.927q-.453.008-.9.048V2.9q.452.021.9.07zm0 11.316v4.791a4.69 4.69 0 0 0-.9-1.361v-3.156l.126-.052a7.991 7.991 0 0 1 .777-.223zm0 13.026v7.469q-.446.122-.9.2v-5.963a8.362 8.362 0 0 0 .9-1.706zm0 12.021V42.9q-.449.093-.9.164v-3.73h.092c.27.006.54.003.808-.005z" transform="translate(-77.974 -2.114)"/>
    <path id="Path_17406" data-name="Path 17406" class="cls-5" d="M111.067 3.283V10.1q-.279-.017-.558-.021h-.345V3.157q.453.049.9.126zm0 11.042v20.35q-.445.167-.9.293V27.5a10.777 10.777 0 0 0 .591-2.179 11.916 11.916 0 0 0-.591-6.055v-4.793a6.839 6.839 0 0 1 .9-.148zm0 25.144v3.415q-.449.115-.9.208v-3.573q.452-.014.9-.051z" transform="translate(-80.415 -2.304)"/>
    <path id="Path_17407" data-name="Path 17407" class="cls-6" d="M114.411 3.8v6.724q-.45-.058-.9-.085V3.623q.452.077.9.181zm0 10.843v19.983q-.442.215-.9.389v-20.35a5.929 5.929 0 0 1 .9-.018zm0 25.061v3.263q-.449.137-.9.253v-3.411q.453-.038.9-.1z" transform="translate(-82.856 -2.645)"/>
    <path id="Path_17408" data-name="Path 17408" class="cls-7" d="M117.753 4.532v6.635q-.449-.089-.9-.148V4.3q.453.1.9.237zm0 10.733v19.359q-.44.266-.9.491V15.137a5.454 5.454 0 0 1 .9.129zm0 24.781v3.114q-.448.161-.9.3V40.2q.453-.062.9-.152z" transform="translate(-85.297 -3.135)"/>
    <path id="Path_17409" data-name="Path 17409" class="cls-8" d="M121.1 5.469v6.551q-.448-.121-.9-.211V5.174q.447.134.9.295zm0 10.732v18.46q-.437.324-.9.605V15.907a5.337 5.337 0 0 1 .9.293zm0 24.281v2.972q-.447.185-.9.348v-3.113q.448-.089.9-.207z" transform="translate(-87.736 -3.777)"/>
    <path id="Path_17410" data-name="Path 17410" class="cls-9" d="M124.44 6.622v6.471q-.447-.153-.9-.275V6.267q.457.164.9.355zm0 10.864v17.23q-.433.393-.9.742V17a5.725 5.725 0 0 1 .9.487zm0 23.529v2.839q-.447.21-.9.4V41.28q.453-.118.9-.265z" transform="translate(-90.177 -4.575)"/>
    <path id="Path_17411" data-name="Path 17411" class="cls-10" d="M127.784 8v6.4q-.446-.186-.9-.342V7.583q.457.2.9.417zm0 11.163v15.6a12.168 12.168 0 0 1-.9.91V18.447a6.708 6.708 0 0 1 .9.717zm0 22.484v2.716q-.446.237-.9.452v-2.839q.454-.15.9-.328z" transform="translate(-92.618 -5.535)"/>
    <path id="Path_17412" data-name="Path 17412" class="cls-11" d="M131.127 9.612v6.325q-.445-.222-.9-.413v-6.4q.456.233.9.488zm0 11.683v13.459a12.1 12.1 0 0 1-.9 1.141v-15.6a8.432 8.432 0 0 1 .9 1.005zm0 21.081v2.606q-.445.266-.9.508v-2.715q.455-.184.9-.399z" transform="translate(-95.058 -6.663)"/>
    <path id="Path_17413" data-name="Path 17413" class="cls-12" d="M134.471 11.476v6.258q-.443-.261-.9-.49V10.92q.46.265.9.556zm0 12.6v10.46a11.943 11.943 0 0 1-.9 1.526V22.6a10.892 10.892 0 0 1 .661.966c.085.169.165.337.242.5zm0 19.132v2.515q-.444.3-.9.569v-2.608q.457-.223.9-.478z" transform="translate(-97.499 -7.971)"/>
    <path id="Path_17414" data-name="Path 17414" class="cls-13" d="M137.815 13.615v6.2q-.441-.3-.9-.576V12.98q.458.304.9.635zm0 14.593v5.337a11.647 11.647 0 0 1-.9 2.5V25.578a13.577 13.577 0 0 1 .9 2.63zm0 15.933v2.447q-.443.33-.9.638V44.71q.459-.267.9-.569z" transform="translate(-99.94 -9.475)"/>
    <path id="Path_17415" data-name="Path 17415" class="cls-14" d="M141.159 16.053v6.153q-.438-.355-.9-.676v-6.2q.456.345.9.723zm0 29.129v2.408q-.442.369-.9.714v-2.447q.465-.319.9-.675zm-.9-9.922v-5.336a11.7 11.7 0 0 1-.003 5.336z" transform="translate(-102.381 -11.191)"/>
    <path id="Path_17416" data-name="Path 17416" class="cls-15" d="M144.5 18.83v6.125q-.434-.417-.9-.8v-6.149q.464.394.9.824zm0 27.5v2.413q-.439.413-.9.8v-2.408q.469-.382.9-.8z" transform="translate(-104.821 -13.144)"/>
    <path id="Path_17417" data-name="Path 17417" class="cls-16" d="M147.844 22v6.129q-.43-.494-.9-.947v-6.124q.468.456.9.943zm0 25.588v2.479q-.437.465-.9.9v-2.409q.472-.458.9-.968z" transform="translate(-107.261 -15.371)"/>
    <path id="Path_17418" data-name="Path 17418" class="cls-3" d="M151.188 25.638v6.194a14.147 14.147 0 0 0-.9-1.152v-6.129q.472.526.9 1.087zm0 23.31v2.644q-.434.528-.9 1.026v-2.479a13.934 13.934 0 0 0 .9-1.191z" transform="translate(-109.702 -17.921)"/>
    <path id="Path_17419" data-name="Path 17419" class="cls-4" d="M34.011 16.481v11.743a14.151 14.151 0 0 0-1.049 4.856 11.309 11.309 0 0 0 1.049 5.381v2.95q-.694-.6-1.329-1.257c-3.8-3.491-5.172-8.443-4.58-13.523a15.157 15.157 0 0 1 5.909-10.15zm0 28.8v6.132c-5.243-2.4-9.343-7.183-11.114-14.31-1-5.11.438-8.914 3.771-11.684.217-.062.467.062.4.279a18.7 18.7 0 0 0 6.943 19.581z" transform="translate(-16.487 -12.03)"/>
    <path id="Path_17420" data-name="Path 17420" class="cls-4" d="M76.426 2.863V9.88A13.613 13.613 0 0 0 64.9 18.263V6.52a17.625 17.625 0 0 1 10.6-3.685q.463 0 .925.028zm0 11.57V17.9a3.78 3.78 0 0 0-3.448-1.319l-.188-.655 3.554-1.464.082-.027zm0 14.22v6.241a8.883 8.883 0 0 1-2.172.159 14.262 14.262 0 0 1-9.358-3.6V28.5a10.541 10.541 0 0 0 1.6 2.377c3.54 1.882 7.75 1.275 9.93-2.225zm0 10.638v3.7a18.665 18.665 0 0 1-3.044.262 20.48 20.48 0 0 1-8.486-1.8v-6.135a18.794 18.794 0 0 0 11.414 3.973h.116z" transform="translate(-47.371 -2.069)"/>
    <path id="Path_17421" data-name="Path 17421" class="cls-3" d="M73.868 37.514c4.551-4.551 5.856-10.094 4.426-16.98C75.428 11 69.443 6.447 61.5 6.418c-6.857.029-14.9 5.981-15.179 13.99-.217 6.916 3 11.4 6.641 13.056a11.463 11.463 0 0 1-2.649-8.972c1.648-7.821 6.636-12.092 14.178-12 6.762.217 13.272 6.169 13.523 14.7a17.309 17.309 0 0 1-4.146 10.315z" transform="translate(-33.806 -4.685)"/>
    <path id="Path_17422" data-name="Path 17422" class="cls-3" d="M74.042 37.354h-.022A17.356 17.356 0 0 0 78.03 27.2c-.251-8.534-6.762-14.487-13.523-14.7-7.541-.1-12.53 4.175-14.178 12a11.439 11.439 0 0 0-.016 2.919 26.916 26.916 0 0 1-3.98-6.792c0-.07 0-.139.005-.21.284-8.009 8.322-13.961 15.179-13.99 7.942.029 13.927 4.58 16.793 14.115 1.412 6.798.154 12.292-4.268 16.812z" transform="translate(-33.82 -4.686)"/>
    <path id="Path_17423" data-name="Path 17423" class="cls-3" d="M82.456 33.112q-.277.071-.555.136a19.878 19.878 0 0 0 1.454-6.048c-.251-8.534-6.762-14.487-13.523-14.7-6.686-.085-11.365 3.263-13.488 9.472a23.115 23.115 0 0 1-2.716-7.879 16.487 16.487 0 0 1 13.214-7.675c7.942.029 13.927 4.58 16.793 14.115 1 4.808.663 8.961-1.179 12.579z" transform="translate(-39.146 -4.685)"/>
    <path id="Path_17424" data-name="Path 17424" d="M83.652 32.607q-.3.082-.6.157a20.276 20.276 0 0 0 1.254-5.564c-.251-8.534-6.762-14.487-13.523-14.7-6.493-.083-11.094 3.073-13.3 8.943a22.7 22.7 0 0 1-2.554-7.893 16.491 16.491 0 0 1 12.863-7.132c7.942.029 13.927 4.58 16.793 14.115.953 4.586.692 8.576-.933 12.074z" transform="translate(-40.097 -4.685)" style="fill:#ba7c36;fill-rule:evenodd"/>
    <path id="Path_17425" data-name="Path 17425" class="cls-18" d="M84.862 32.1q-.321.094-.646.179a20.724 20.724 0 0 0 1.077-5.079c-.251-8.534-6.762-14.487-13.523-14.7-6.3-.08-10.816 2.887-13.094 8.424a22.287 22.287 0 0 1-2.393-7.888 16.48 16.48 0 0 1 12.5-6.613c7.942.029 13.927 4.58 16.793 14.115a19.162 19.162 0 0 1-.714 11.562z" transform="translate(-41.084 -4.685)"/>
    <path id="Path_17426" data-name="Path 17426" class="cls-18" d="M86.084 31.6c-.226.07-.454.134-.682.2a21.206 21.206 0 0 0 .912-4.6c-.251-8.534-6.762-14.487-13.523-14.7-6.1-.078-10.536 2.707-12.877 7.918a21.874 21.874 0 0 1-2.233-7.868A16.451 16.451 0 0 1 69.8 6.418c7.942.029 13.927 4.58 16.793 14.115a19.479 19.479 0 0 1-.509 11.07z" transform="translate(-42.104 -4.685)"/>
    <path id="Path_17427" data-name="Path 17427" class="cls-16" d="M87.313 31.1c-.237.077-.476.151-.716.219a21.645 21.645 0 0 0 .764-4.121C87.11 18.664 80.6 12.712 73.838 12.5c-5.91-.075-10.252 2.533-12.647 7.429a21.462 21.462 0 0 1-2.075-7.84 16.408 16.408 0 0 1 11.731-5.671C78.789 6.447 84.774 11 87.64 20.533a19.8 19.8 0 0 1-.327 10.567z" transform="translate(-43.152 -4.685)"/>
    <path id="Path_17428" data-name="Path 17428" class="cls-19" d="M88.546 30.6c-.245.083-.493.161-.742.236a22.147 22.147 0 0 0 .629-3.64c-.251-8.534-6.762-14.487-13.523-14.7-5.715-.073-9.963 2.363-12.4 6.951a21.045 21.045 0 0 1-1.923-7.8 16.351 16.351 0 0 1 11.332-5.229c7.942.029 13.927 4.58 16.793 14.115a20.151 20.151 0 0 1-.166 10.067z" transform="translate(-44.224 -4.685)"/>
    <path id="Path_17429" data-name="Path 17429" class="cls-19" d="M89.791 30.1c-.253.09-.508.177-.765.257a22.647 22.647 0 0 0 .509-3.161c-.251-8.534-6.762-14.487-13.523-14.7-5.52-.07-9.673 2.2-12.148 6.49a20.646 20.646 0 0 1-1.77-7.758 16.279 16.279 0 0 1 10.927-4.811c7.942.029 13.927 4.58 16.793 14.115a20.516 20.516 0 0 1-.023 9.568z" transform="translate(-45.326 -4.684)"/>
    <path id="Path_17430" data-name="Path 17430" class="cls-15" d="M91.036 29.607q-.388.144-.782.273a23.3 23.3 0 0 0 .4-2.681c-.251-8.534-6.762-14.487-13.523-14.7-5.326-.068-9.379 2.044-11.881 6.045a20.247 20.247 0 0 1-1.623-7.71 16.2 16.2 0 0 1 10.515-4.416c7.942.029 13.927 4.58 16.793 14.115a20.908 20.908 0 0 1 .1 9.074z" transform="translate(-46.447 -4.685)"/>
    <path id="Path_17431" data-name="Path 17431" class="cls-15" d="M65.185 10.565v-.112a16.1 16.1 0 0 1 10.093-4.034C83.22 6.448 89.205 11 92.071 20.534a21.3 21.3 0 0 1 .209 8.58c-.262.1-.526.2-.794.29q.2-1.094.306-2.2c-.251-8.534-6.762-14.487-13.523-14.7-5.132-.065-9.081 1.893-11.6 5.615a19.826 19.826 0 0 1-1.483-7.546z" transform="translate(-47.582 -4.686)"/>
    <path id="Path_17432" data-name="Path 17432" d="M66.753 10.565q0-.235.006-.468a15.988 15.988 0 0 1 9.663-3.678c7.942.029 13.927 4.58 16.793 14.115a21.711 21.711 0 0 1 .3 8.088q-.4.16-.8.3.137-.826.221-1.726c-.251-8.534-6.762-14.487-13.523-14.7-4.94-.063-8.784 1.749-11.311 5.2a19.429 19.429 0 0 1-1.348-7.134z" transform="translate(-48.727 -4.686)" style="fill:#c28536;fill-rule:evenodd"/>
    <path id="Path_17433" data-name="Path 17433" class="cls-21" d="M68.32 10.565c0-.271.007-.541.018-.81a15.863 15.863 0 0 1 9.228-3.337c7.942.029 13.927 4.58 16.793 14.115a22.173 22.173 0 0 1 .376 7.6q-.4.167-.8.316.088-.606.148-1.251c-.251-8.534-6.762-14.487-13.523-14.7-4.747-.06-8.482 1.61-11.01 4.807a19.008 19.008 0 0 1-1.227-6.738z" transform="translate(-49.871 -4.686)"/>
    <path id="Path_17434" data-name="Path 17434" class="cls-21" d="M69.888 10.565c0-.38.013-.757.035-1.131a15.732 15.732 0 0 1 8.788-3.015C86.653 6.448 92.638 11 95.5 20.534a22.615 22.615 0 0 1 .438 7.112q-.4.172-.8.327c.031-.253.06-.511.084-.773-.251-8.534-6.762-14.487-13.523-14.7-4.556-.058-8.18 1.479-10.7 4.429a18.589 18.589 0 0 1-1.115-6.36z" transform="translate(-51.015 -4.686)"/>
    <path id="Path_17435" data-name="Path 17435" class="cls-14" d="M71.455 10.565q0-.726.056-1.437a15.592 15.592 0 0 1 8.343-2.709C87.8 6.448 93.782 11 96.648 20.534a23.08 23.08 0 0 1 .485 6.629q-.393.177-.795.336l.03-.3c-.251-8.534-6.762-14.487-13.523-14.7-4.366-.056-7.876 1.353-10.378 4.066a18.163 18.163 0 0 1-1.013-6z" transform="translate(-52.159 -4.686)"/>
    <path id="Path_17436" data-name="Path 17436" class="cls-22" d="M73.022 10.565q0-.873.084-1.725A15.437 15.437 0 0 1 81 6.419c7.942.029 13.927 4.58 16.793 14.115a23.55 23.55 0 0 1 .52 6.146q-.4.186-.806.352c-.33-8.444-6.8-14.321-13.516-14.536a13.4 13.4 0 0 0-10.05 3.724 17.755 17.755 0 0 1-.919-5.654z" transform="translate(-53.303 -4.686)"/>
    <path id="Path_17437" data-name="Path 17437" class="cls-22" d="M74.589 10.565a17.5 17.5 0 0 1 .115-2 15.28 15.28 0 0 1 7.438-2.149c7.942.029 13.927 4.58 16.793 14.115a24.008 24.008 0 0 1 .541 5.669q-.419.2-.851.382c-.536-8.2-6.894-13.877-13.493-14.089a13.519 13.519 0 0 0-9.71 3.4 17.341 17.341 0 0 1-.834-5.326z" transform="translate(-54.447 -4.685)"/>
    <path id="Path_17438" data-name="Path 17438" d="M76.157 10.565a17.034 17.034 0 0 1 .15-2.253 15.1 15.1 0 0 1 6.98-1.894c7.942.029 13.927 4.58 16.793 14.115a24.529 24.529 0 0 1 .551 5.191q-.442.221-.9.415C99 18.176 92.756 12.7 86.278 12.5a13.65 13.65 0 0 0-9.364 3.086 16.919 16.919 0 0 1-.756-5.017z" transform="translate(-55.592 -4.685)" style="fill:#c78c35;fill-rule:evenodd"/>
    <path id="Path_17439" data-name="Path 17439" class="cls-13" d="M77.725 10.565a16.639 16.639 0 0 1 .187-2.493 14.927 14.927 0 0 1 6.519-1.653c7.942.029 13.927 4.58 16.793 14.115a24.986 24.986 0 0 1 .549 4.718q-.463.238-.94.446c-.919-7.723-7.054-13-13.412-13.2a13.794 13.794 0 0 0-9.01 2.793 16.514 16.514 0 0 1-.687-4.724z" transform="translate(-56.736 -4.686)"/>
    <path id="Path_17440" data-name="Path 17440" d="M79.292 10.565a16.165 16.165 0 0 1 .23-2.716 14.734 14.734 0 0 1 6.054-1.43C93.517 6.447 99.5 11 102.369 20.533a25.529 25.529 0 0 1 .537 4.246q-.484.257-.985.481C100.827 17.776 94.8 12.7 88.566 12.5a13.952 13.952 0 0 0-8.65 2.517 16.084 16.084 0 0 1-.624-4.448z" transform="translate(-57.88 -4.685)" style="fill:#c98e35;fill-rule:evenodd"/>
    <path id="Path_17441" data-name="Path 17441" d="M80.86 10.565a15.741 15.741 0 0 1 .274-2.925 14.537 14.537 0 0 1 5.586-1.221c7.942.029 13.927 4.58 16.793 14.115a26.063 26.063 0 0 1 .515 3.778q-.507.277-1.033.517c-1.258-7.247-7.169-12.136-13.285-12.332a14.119 14.119 0 0 0-8.283 2.258 15.668 15.668 0 0 1-.568-4.189z" transform="translate(-59.025 -4.686)" style="fill:#c99035;fill-rule:evenodd"/>
    <path id="Path_17442" data-name="Path 17442" class="cls-26" d="M82.426 10.565a15.305 15.305 0 0 1 .319-3.116 14.339 14.339 0 0 1 5.118-1.031C95.8 6.447 101.79 11 104.656 20.533a26.665 26.665 0 0 1 .483 3.311q-.53.3-1.081.554c-1.413-7.01-7.21-11.711-13.2-11.9a14.3 14.3 0 0 0-7.911 2.014 15.252 15.252 0 0 1-.521-3.947z" transform="translate(-60.168 -4.685)"/>
    <path id="Path_17443" data-name="Path 17443" class="cls-26" d="M84 10.565a14.861 14.861 0 0 1 .368-3.292 14.133 14.133 0 0 1 4.646-.854C96.95 6.447 102.936 11 105.8 20.533a27.181 27.181 0 0 1 .442 2.847q-.553.321-1.132.594C103.554 17.2 97.872 12.684 92 12.5a14.491 14.491 0 0 0-7.533 1.788A14.835 14.835 0 0 1 84 10.565z" transform="translate(-61.313 -4.685)"/>
    <path id="Path_17444" data-name="Path 17444" class="cls-12" d="M85.561 10.565a14.428 14.428 0 0 1 .418-3.452 13.924 13.924 0 0 1 4.173-.694c7.942.029 13.927 4.58 16.793 14.115q.247 1.184.391 2.385-.577.346-1.184.636c-1.692-6.541-7.259-10.875-13.01-11.059a14.7 14.7 0 0 0-7.15 1.575 14.412 14.412 0 0 1-.431-3.506z" transform="translate(-62.456 -4.686)"/>
    <path id="Path_17445" data-name="Path 17445" d="M87.129 10.565a13.984 13.984 0 0 1 .468-3.6 13.692 13.692 0 0 1 3.7-.551c7.942.029 13.927 4.58 16.793 14.115q.2.981.333 1.925a13.971 13.971 0 0 1-1.239.681c-1.815-6.309-7.269-10.464-12.9-10.644a14.913 14.913 0 0 0-6.762 1.379 14 14 0 0 1-.4-3.31z" transform="translate(-63.601 -4.686)" style="fill:#cd9535;fill-rule:evenodd"/>
    <path id="Path_17446" data-name="Path 17446" d="M88.7 10.565a13.555 13.555 0 0 1 .518-3.724 13.479 13.479 0 0 1 3.225-.423c7.942.029 13.927 4.58 16.793 14.115q.154.745.266 1.468a13.565 13.565 0 0 1-1.3.727c-1.929-6.078-7.268-10.056-12.773-10.233a15.134 15.134 0 0 0-6.371 1.2 13.6 13.6 0 0 1-.363-3.128z" transform="translate(-64.744 -4.686)" style="fill:#ce9635;fill-rule:evenodd"/>
    <path id="Path_17447" data-name="Path 17447" class="cls-11" d="M90.264 10.565a13.124 13.124 0 0 1 .57-3.835 13.266 13.266 0 0 1 2.751-.312c7.942.029 13.927 4.58 16.793 14.115q.106.511.191 1.012a13.1 13.1 0 0 1-1.356.778A14.281 14.281 0 0 0 96.575 12.5a15.368 15.368 0 0 0-5.975 1.03 13.163 13.163 0 0 1-.336-2.961z" transform="translate(-65.889 -4.686)"/>
    <path id="Path_17448" data-name="Path 17448" class="cls-11" d="M91.832 10.565a12.689 12.689 0 0 1 .621-3.93 13.038 13.038 0 0 1 2.276-.217c7.942.029 13.927 4.58 16.793 14.115q.058.281.11.558a12.652 12.652 0 0 1-1.42.831A14.244 14.244 0 0 0 97.72 12.5a15.607 15.607 0 0 0-5.576.877 12.746 12.746 0 0 1-.312-2.808z" transform="translate(-67.034 -4.685)"/>
    <path id="Path_17449" data-name="Path 17449" d="M93.4 10.565a12.253 12.253 0 0 1 .67-4.007 12.825 12.825 0 0 1 1.8-.14c7.942.029 13.927 4.58 16.793 14.115l.021.105a12.274 12.274 0 0 1-1.488.889A14.206 14.206 0 0 0 98.863 12.5a15.864 15.864 0 0 0-5.173.737 12.316 12.316 0 0 1-.292-2.668z" transform="translate(-68.177 -4.685)" style="fill:#d19935;fill-rule:evenodd"/>
    <path id="Path_17450" data-name="Path 17450" d="M94.966 10.565a11.823 11.823 0 0 1 .717-4.065 12.588 12.588 0 0 1 1.334-.079c7.85.029 13.789 4.476 16.692 13.789a11.851 11.851 0 0 1-1.533.931 14.167 14.167 0 0 0-12.169-8.641 16.138 16.138 0 0 0-4.767.611 11.912 11.912 0 0 1-.274-2.542z" transform="translate(-69.321 -4.685)" style="fill:#d19b35;fill-rule:evenodd"/>
    <path id="Path_17451" data-name="Path 17451" d="M96.533 10.565a11.386 11.386 0 0 1 .767-4.112q.432-.033.865-.035c7.73.028 13.606 4.341 16.556 13.364a11.435 11.435 0 0 1-1.573.971 14.129 14.129 0 0 0-11.997-8.253 16.4 16.4 0 0 0-4.359.5 11.444 11.444 0 0 1-.26-2.429z" transform="translate(-70.465 -4.685)" style="fill:#d39c34;fill-rule:evenodd"/>
    <path id="Path_17452" data-name="Path 17452" class="cls-10" d="M98.1 10.565a10.969 10.969 0 0 1 .8-4.137c.133-.005.266-.009.4-.009 7.609.028 13.421 4.207 16.415 12.942a11.051 11.051 0 0 1-1.618 1.012A14.089 14.089 0 0 0 102.3 12.5a16.691 16.691 0 0 0-3.947.4 11.025 11.025 0 0 1-.247-2.328z" transform="translate(-71.61 -4.686)"/>
    <path id="Path_17453" data-name="Path 17453" d="M99.668 10.567a10.547 10.547 0 0 1 .843-4.146c7.455.05 13.179 4.1 16.206 12.521A10.575 10.575 0 0 1 115.048 20a14.047 14.047 0 0 0-11.608-7.5 16.969 16.969 0 0 0-3.533.309 10.585 10.585 0 0 1-.238-2.239z" transform="translate(-72.754 -4.687)" style="fill:#d49f35;fill-rule:evenodd"/>
    <path id="Path_17454" data-name="Path 17454" d="M101.236 10.59a10.12 10.12 0 0 1 .878-4.137c7.108.207 12.593 4.124 15.594 12.095a10.186 10.186 0 0 1-1.725 1.107 14 14 0 0 0-11.4-7.134 17.272 17.272 0 0 0-3.117.232 10.226 10.226 0 0 1-.231-2.163z" transform="translate(-73.898 -4.71)" style="fill:#d6a034;fill-rule:evenodd"/>
    <path id="Path_17455" data-name="Path 17455" d="M102.8 10.641a9.7 9.7 0 0 1 .912-4.119c6.763.352 12.01 4.138 14.976 11.661a9.738 9.738 0 0 1-1.783 1.158 13.96 13.96 0 0 0-11.18-6.769 17.58 17.58 0 0 0-2.7.166 9.777 9.777 0 0 1-.225-2.097z" transform="translate(-75.042 -4.761)" style="fill:#d6a134;fill-rule:evenodd"/>
    <path id="Path_17456" data-name="Path 17456" class="cls-9" d="M104.369 10.718a9.277 9.277 0 0 1 .945-4.09c6.42.487 11.43 4.138 14.355 11.221a9.325 9.325 0 0 1-1.846 1.211 13.916 13.916 0 0 0-10.951-6.411 17.879 17.879 0 0 0-2.276.113 9.363 9.363 0 0 1-.225-2.043z" transform="translate(-76.185 -4.838)"/>
    <path id="Path_17457" data-name="Path 17457" class="cls-9" d="M105.938 10.826a8.852 8.852 0 0 1 .974-4.05c6.08.609 10.853 4.122 13.729 10.772a8.9 8.9 0 0 1-1.914 1.266 13.867 13.867 0 0 0-10.711-6.057 18.211 18.211 0 0 0-1.852.069 8.9 8.9 0 0 1-.226-2z" transform="translate(-77.33 -4.946)"/>
    <path id="Path_17458" data-name="Path 17458" d="M107.5 10.965a8.431 8.431 0 0 1 1-4c5.741.719 10.278 4.089 13.1 10.315a8.482 8.482 0 0 1-1.986 1.324A13.816 13.816 0 0 0 109.16 12.9q-.713-.009-1.425.036a8.459 8.459 0 0 1-.231-1.967z" transform="translate(-78.474 -5.085)" style="fill:#d9a534;fill-rule:evenodd"/>
    <path id="Path_17459" data-name="Path 17459" d="M109.072 11.132a8.005 8.005 0 0 1 1.028-3.937c5.405.817 9.707 4.042 12.462 9.851a8.062 8.062 0 0 1-2.064 1.383 13.765 13.765 0 0 0-10.198-5.366q-.5-.006-.995.014a8.084 8.084 0 0 1-.237-1.945z" transform="translate(-79.618 -5.252)" style="fill:#daa734;fill-rule:evenodd"/>
    <path id="Path_17460" data-name="Path 17460" class="cls-8" d="M110.639 11.328a7.584 7.584 0 0 1 1.052-3.864c5.072.9 9.139 3.979 11.823 9.38a7.633 7.633 0 0 1-2.147 1.442 13.713 13.713 0 0 0-9.919-5.027h-.562a7.624 7.624 0 0 1-.247-1.931z" transform="translate(-80.762 -5.448)"/>
    <path id="Path_17461" data-name="Path 17461" d="M112.207 11.56a7.161 7.161 0 0 1 1.071-3.778c4.742.974 8.576 3.9 11.179 8.9a7.206 7.206 0 0 1-2.236 1.5 13.656 13.656 0 0 0-9.629-4.691h-.123a7.194 7.194 0 0 1-.262-1.931z" transform="translate(-81.907 -5.681)" style="fill:#dcaa34;fill-rule:evenodd"/>
    <path id="Path_17462" data-name="Path 17462" d="M113.773 11.821a6.737 6.737 0 0 1 1.088-3.682 15.929 15.929 0 0 1 10.531 8.411 6.785 6.785 0 0 1-2.333 1.561 13.65 13.65 0 0 0-9-4.345 6.782 6.782 0 0 1-.286-1.945z" transform="translate(-83.05 -5.941)" style="fill:#deaa34;fill-rule:evenodd"/>
    <path id="Path_17463" data-name="Path 17463" d="M115.342 12.114a6.318 6.318 0 0 1 1.1-3.574 15.861 15.861 0 0 1 9.878 7.917 6.357 6.357 0 0 1-2.439 1.618 13.663 13.663 0 0 0-8.225-3.979 6.347 6.347 0 0 1-.316-1.982z" transform="translate(-84.195 -6.234)" style="fill:#deac34;fill-rule:evenodd"/>
    <path id="Path_17464" data-name="Path 17464" d="M116.91 12.439a5.9 5.9 0 0 1 1.11-3.454 15.8 15.8 0 0 1 9.222 7.414 5.932 5.932 0 0 1-2.559 1.67 13.679 13.679 0 0 0-7.415-3.6 5.926 5.926 0 0 1-.358-2.03z" transform="translate(-85.34 -6.559)" style="fill:#dfae34;fill-rule:evenodd"/>
    <path id="Path_17465" data-name="Path 17465" class="cls-7" d="M118.477 12.8a5.476 5.476 0 0 1 1.115-3.321 15.748 15.748 0 0 1 8.563 6.9 5.5 5.5 0 0 1-2.695 1.721 13.7 13.7 0 0 0-6.563-3.189 5.483 5.483 0 0 1-.42-2.111z" transform="translate(-86.483 -6.917)"/>
    <path id="Path_17466" data-name="Path 17466" d="M120.045 13.187a5.057 5.057 0 0 1 1.116-3.177 15.7 15.7 0 0 1 7.9 6.387 5.079 5.079 0 0 1-2.861 1.753 13.705 13.705 0 0 0-5.65-2.75 5.06 5.06 0 0 1-.505-2.213z" transform="translate(-87.628 -7.307)" style="fill:#e1b033;fill-rule:evenodd"/>
    <path id="Path_17467" data-name="Path 17467" d="M121.611 13.61a4.638 4.638 0 0 1 1.112-3.02 15.646 15.646 0 0 1 7.23 5.863 4.652 4.652 0 0 1-3.058 1.771 13.722 13.722 0 0 0-4.651-2.268 4.635 4.635 0 0 1-.633-2.346z" transform="translate(-88.771 -7.73)" style="fill:#e2b233;fill-rule:evenodd"/>
    <path id="Path_17468" data-name="Path 17468" d="M123.18 14.069a4.215 4.215 0 0 1 1.1-2.851 15.6 15.6 0 0 1 6.558 5.33A4.226 4.226 0 0 1 127.5 18.3a13.721 13.721 0 0 0-3.484-1.7 4.21 4.21 0 0 1-.839-2.529z" transform="translate(-89.916 -8.189)" style="fill:#e4b333;fill-rule:evenodd"/>
    <path id="Path_17469" data-name="Path 17469" class="cls-6" d="M124.746 14.559a3.8 3.8 0 0 1 1.092-2.669 15.565 15.565 0 0 1 5.881 4.792 3.818 3.818 0 0 1-3.839 1.627 13.732 13.732 0 0 0-1.869-.915 3.8 3.8 0 0 1-1.265-2.835z" transform="translate(-91.06 -8.679)"/>
    <path id="Path_17470" data-name="Path 17470" class="cls-44" d="M126.314 15.085a3.377 3.377 0 0 1 1.075-2.474 15.53 15.53 0 0 1 5.2 4.244 3.386 3.386 0 0 1-6.272-1.77z" transform="translate(-92.204 -9.206)"/>
    <path id="Path_17471" data-name="Path 17471" class="cls-44" d="M127.881 15.65a2.957 2.957 0 0 1 1.054-2.266 15.5 15.5 0 0 1 4.508 3.687 2.963 2.963 0 0 1-5.562-1.422z" transform="translate(-93.348 -9.77)"/>
    <path id="Path_17472" data-name="Path 17472" d="M129.449 16.252a2.535 2.535 0 0 1 1.031-2.043 15.473 15.473 0 0 1 3.809 3.12 2.54 2.54 0 0 1-4.84-1.077z" transform="translate(-94.493 -10.372)" style="fill:#e8b932;fill-rule:evenodd"/>
    <path id="Path_17473" data-name="Path 17473" class="cls-5" d="M131.018 16.9a2.113 2.113 0 0 1 1.008-1.8 15.456 15.456 0 0 1 3.092 2.537 2.116 2.116 0 0 1-4.1-.734z" transform="translate(-95.638 -11.02)"/>
    <path id="Path_17474" data-name="Path 17474" class="cls-5" d="M132.584 17.607a1.693 1.693 0 0 1 .992-1.541A15.425 15.425 0 0 1 135.925 18a1.693 1.693 0 0 1-3.341-.388z" transform="translate(-96.781 -11.728)"/>
    <path id="Path_17475" data-name="Path 17475" d="M134.149 18.418a1.27 1.27 0 0 1 1-1.241 15.394 15.394 0 0 1 1.536 1.262 1.27 1.27 0 1 1-2.539-.021z" transform="translate(-97.923 -12.539)" style="fill:#eebf31;fill-rule:evenodd"/>
    <path id="Path_17476" data-name="Path 17476" class="cls-4" d="M135.719 19.485a.846.846 0 0 1 1.2-.767q.164.131.325.267a.846.846 0 1 1-1.529.5z" transform="translate(-99.069 -13.605)"/>
    <path id="Path_17477" data-name="Path 17477" class="cls-4" d="M137.287 20.6a.423.423 0 1 1 .423.412.423.423 0 0 1-.423-.412z" transform="translate(-100.214 -14.721)"/>
</svg>
