<svg id="nick-jr-logo-2009" xmlns="http://www.w3.org/2000/svg" width="63.992" height="16.863" viewBox="0 0 63.992 16.863">
    <defs>
        <style>
            .cls-2{fill:#4ac3cb}
        </style>
    </defs>
    <path id="Path_17392" data-name="Path 17392" d="M5.684 5.49A5.684 5.684 0 0 0 0 11.174v5.192h4.315v-5.1a3 3 0 0 1 .4-1.565 1.178 1.178 0 0 1 .968-.648 1.177 1.177 0 0 1 .968.648 3.005 3.005 0 0 1 .4 1.565v5.1h4.315v-5.192A5.684 5.684 0 0 0 5.684 5.49m10.326-1.4a2.4 2.4 0 1 0-3.392 0l.529.531c.885.883.947 1.118.106 1.959l-.481.481a2.173 2.173 0 0 0-.639 1.542v7.758h4.36V8.606a2.18 2.18 0 0 0-.638-1.542l-.481-.481c-.841-.841-.778-1.076.106-1.961zm7.729 8.894a1.179 1.179 0 0 1-.968.748 1.18 1.18 0 0 1-.968-.748 3.9 3.9 0 0 1-.4-1.808 3.905 3.905 0 0 1 .4-1.808 1.186 1.186 0 0 1 .968-.748 1.186 1.186 0 0 1 .968.748 3.572 3.572 0 0 1 .37 1.274h4.32a5.684 5.684 0 1 0-1.975 4.862 5.627 5.627 0 0 0 1.975-3.794h-4.32a3.563 3.563 0 0 1-.37 1.274m16.1 2.623a.742.742 0 0 0-.114-.392l-2.363-3.574L39 8.674a2.157 2.157 0 0 0-3.717-2.19l-1.951 3.491V7.648a2.158 2.158 0 1 0-4.315 0v8.717h4.315v-3.413l2.276 3.411h3.483a.751.751 0 0 0 .751-.751" style="fill:#f57c14"/>
    <g id="Group_10960" data-name="Group 10960" transform="translate(39.99 .547)">
        <path id="Path_17393" data-name="Path 17393" class="cls-2" d="M143.683 13.74c0 2.63-1.28 4.328-4.355 4.328h-.119a5.729 5.729 0 0 1-2.9-.736c-1.221-.786-2.017-2.078-1.213-3.442a2.039 2.039 0 0 1 3.739.7c.135.77.544.671.544-.04V9.314a2.265 2.265 0 0 1 2.157-2.528 2.156 2.156 0 0 1 2.155 2.155zm-2.148-7.631a2.133 2.133 0 1 0-2.135-2.134 2.133 2.133 0 0 0 2.134 2.134m7.523 11.555v-5.8a1.52 1.52 0 0 1 .748-1.314 2.053 2.053 0 0 1 1.491.231c1.788.682 3.181-.22 3.4-1.39a2.154 2.154 0 0 0-1.726-2.51 4.2 4.2 0 0 0-3.623 1.089c-.084.064-.306.257-.383.322a2.155 2.155 0 0 0-4.209.65v8.723h4.309z" transform="translate(-134.768 -1.842)"/>
        <path id="Path_17394" data-name="Path 17394" class="cls-2" d="M190.264 31.086a2.133 2.133 0 1 0-2.134-2.134 2.133 2.133 0 0 0 2.134 2.134m4.545-10.325h.043l.7.785.7-.785h.045v1.473h-.263v-.912l-.454.54h-.048l-.458-.54v.912h-.264zm-1.015.249h-.437v-.225h1.14v.225h-.439v1.224h-.264z" transform="translate(-172.296 -15.147)"/>
    </g>
</svg>
