<svg xmlns="http://www.w3.org/2000/svg" width="53.383" height="53.383" viewBox="0 0 53.383 53.383">
    <path data-name="Path 17379" d="M0 0h53.383v53.383H0z" style="fill-rule:evenodd;fill:#fff"/>
    <path data-name="Path 17380" d="M49.81 34.452c8.335 7.572 17.837-.694 17.837-11.7 0-11.852-7.986-19.921-17.837-19.921S31.974 10.9 31.974 22.756a18.321 18.321 0 0 0 1.075 6.409A19.732 19.732 0 0 1 40.158 29a22.737 22.737 0 0 1 6.414 2.621 20.872 20.872 0 0 1-1.729-8.87c0-6.46 2.224-11.7 4.968-11.7s4.968 5.237 4.968 11.7-2.224 11.7-4.968 11.7z" transform="translate(-23.119 -2.05)" style="fill:#3bab98;fill-rule:evenodd"/>
    <path data-name="Path 17381" d="m44.618 145.731-2.278-4.089-.016.017v4.072h-1.241V139.8H42.7l2.235 3.922.016-.017v-4.023h1.288v6.052zm25.472 0-2.278-4.089-.016.017v4.072h-1.242V139.8h1.616l2.236 3.922.016-.017v-4.023h1.289v6.052zm-13.19 7.657-2.279-4.088-.016.017v4.072h-1.241v-5.934h1.616l2.236 3.922.015-.017v-4.022h1.289v6.052H56.9zm-9.26-13.71h1.287v6.052h-1.289zm2.514 6.052v-6.052h1.76c1.263.008 2.329.33 2.329 1.88a1.807 1.807 0 0 1-1.974 1.879h-.892v2.294h-1.225zm1.224-3.31c.679-.034 1.563.22 1.563-.863 0-1.032-.906-.864-1.563-.864zm3.529 3.31v-6.052h1.761c1.263.008 2.328.33 2.328 1.88a1.807 1.807 0 0 1-1.973 1.879h-.892v2.294H54.9zm1.224-3.31c.679-.034 1.564.22 1.564-.863 0-1.032-.907-.864-1.564-.864zm3.6.289a3.007 3.007 0 1 1 3 3.144 2.822 2.822 0 0 1-3-3.144zm1.38 0c0 1.008.259 2.145 1.624 2.145s1.624-1.137 1.624-2.145-.259-2.144-1.624-2.144-1.628 1.135-1.628 2.145zM46.5 148.551a3.8 3.8 0 0 0-1.425-.335c-.462 0-.9.273-.9.664s.314.594.839.762c.732.234 1.949.65 1.949 1.928 0 1.4-1.245 1.887-2.28 1.887a3.576 3.576 0 0 1-1.577-.293l.125-1.111a3.094 3.094 0 0 0 1.466.335c.413 0 .961-.4.961-.755 0-.5-.456-.734-1.1-.939-.669-.212-1.594-.654-1.594-1.556a1.841 1.841 0 0 1 2-1.862 4.326 4.326 0 0 1 1.517.247zm16.467 0a3.8 3.8 0 0 0-1.425-.335c-.461 0-.9.273-.9.664s.315.594.838.762c.733.234 1.951.65 1.951 1.928 0 1.4-1.246 1.887-2.28 1.887a3.58 3.58 0 0 1-1.578-.293l.126-1.111a3.1 3.1 0 0 0 1.466.335c.413 0 .96-.4.96-.755 0-.5-.455-.734-1.1-.939-.669-.212-1.595-.654-1.595-1.556a1.841 1.841 0 0 1 2-1.862 4.328 4.328 0 0 1 1.518.247zm-16.145 4.837 2.331-6.039h1.5l2.247 6.039h-1.361l-.454-1.279h-2.5l-.472 1.279zm3.923-2.361-.865-2.381h-.017l-.927 2.381zm13.186-.606a2.955 2.955 0 1 1 2.952 3.091 2.775 2.775 0 0 1-2.953-3.091zm1.4 0c0 1.019.247 2.17 1.549 2.17s1.549-1.15 1.549-2.17-.247-2.17-1.549-2.17-1.547 1.149-1.547 2.17z" transform="translate(-29.705 -100.913)" style="fill:#6d6e70;fill-rule:evenodd"/>
</svg>
