<svg id="viv-europe" xmlns="http://www.w3.org/2000/svg" width="69.213" height="69.213" viewBox="0 0 69.213 69.213">
    <defs>
        <style>
            .cls-1{fill:#fff;fill-rule:evenodd}
        </style>
    </defs>
    <path id="Path_17395" data-name="Path 17395" class="cls-1" d="M0 0h69.213v69.213H0z"/>
    <path id="Path_17396" data-name="Path 17396" d="M71.945 43.536A63.837 63.837 0 0 1 57.953 57.3c-9.2 6.649-16.234 8.5-16.234 8.5a63.43 63.43 0 0 1-16-8.5A73.3 73.3 0 0 1 11.34 43.54a67.611 67.611 0 0 1 14.069-13.76c9.121-6.648 16.156-8.426 16.156-8.426a61.087 61.087 0 0 1 16.079 8.426 71.487 71.487 0 0 1 14.301 13.756z" transform="translate(-7.268 -13.684)" style="fill:#2c3686;fill-rule:evenodd"/>
    <path id="Path_17397" data-name="Path 17397" class="cls-1" d="M79.9 45.19a3.154 3.154 0 0 0-3.092 2.242 2.164 2.164 0 0 0 1.933 2.628h.619c-.7 2.938-3.093 6.88-5.334 6.649-.851 0-.928-.851-.773-1.469l1.932-8.658a2.867 2.867 0 0 0-2.551-3.556h-.541l-.7 3.092c0 .077-.386 2.01-.386 2.01l-1.778 7.73a3.123 3.123 0 0 0 2.86 3.865c4.02.387 8.272-4.715 9.663-10.822.54-2.4-.541-3.557-1.856-3.711zM62.968 64.438h10.9v-2.087s-7.112-.928-10.822-.928c-3.788 0-10.977.928-10.977.928v2.087zm-.154-31.462c-1.314 0-2.474 1.469-2.551 3.324-.077 1.933.927 3.247 2.242 3.247 1.391.077 2.551-1.082 2.629-3.015.077-1.855-.929-3.479-2.32-3.556zM64.051 58.8a2.972 2.972 0 0 1-3.4-3.092V42.484l4.02-.541v13.219c-.077.464.309.773.851.7a.993.993 0 0 0 .85-.927v-1.319l1.237-.232v1.391a4.213 4.213 0 0 1-3.558 4.025zM47.044 45.035a3 3 0 0 1 3.015 2.242 2.164 2.164 0 0 1-1.933 2.628h-.618c.618 2.938 3.015 6.88 5.257 6.725.773-.077.927-.85.773-1.469L51.759 46.5a2.8 2.8 0 0 1 2.551-3.556h.541l.7 3.092c0 .077.309 2.01.309 2.087l1.7 7.73a3.079 3.079 0 0 1-2.86 3.788c-4.1.309-8.272-4.793-9.586-10.9-.541-2.474.619-3.634 1.933-3.711z" transform="translate(-28.826 -21.135)"/>
    <path id="Path_17398" data-name="Path 17398" d="M48.044 97.093H45.57l.386-.386v-2.783l-.386-.309h2.474v.773l-.541-.464h-.851v1.082h.619l.386-.309v1.082l-.386-.386h-.619v1.314h.848l.541-.464v.851zm4.1-.928v-2.241l-.386-.309h1.469l-.386.309v2.241a.682.682 0 0 0 .7.619.665.665 0 0 0 .618-.619v-2.241l-.387-.309h1.159l-.386.309v2.241a1.063 1.063 0 0 1-1.159 1.005 1.135 1.135 0 0 1-1.237-1.005zm9.277.541.387.386H60.8l-.851-1.623h-.232v1.237l.386.386h-1.469l.386-.386v-2.782l-.386-.309h1.391c.619 0 1.314.232 1.314.927a1.06 1.06 0 0 1-.619.851l.7 1.314zm-1.7-2.783v1.237h.309a.624.624 0 0 0 0-1.237h-.309zm5.566 1.391a1.638 1.638 0 1 1 1.623 1.855 1.793 1.793 0 0 1-1.623-1.855zm1.623 1.469c.619 0 .773-.773.773-1.469 0-.619-.154-1.469-.773-1.469s-.773.851-.773 1.469c-.005.697.151 1.47.769 1.47zm5.412.309.309-.386v-2.782l-.309-.309h1.469c.7 0 1.391.309 1.391 1.005s-.7 1.005-1.391 1.005H73.4v1.082l.386.386h-1.469zm1.468-1.778a.743.743 0 0 0 .619-.7.682.682 0 0 0-.619-.7h-.39v1.391h.386zm7.5 1.778h-2.4l.387-.386v-2.628l-.387-.386h2.4v.85l-.464-.464h-.856v1.005h.619l.309-.31v1.005l-.309-.309h-.619v1.237h.851l.464-.464zm9.663-39.657a1.551 1.551 0 0 1 1.546-1.546 1.487 1.487 0 0 1 1.469 1.546 1.442 1.442 0 0 1-1.469 1.546 1.5 1.5 0 0 1-1.552-1.545zm1.546 1.855a1.855 1.855 0 1 0-1.855-1.855 1.832 1.832 0 0 0 1.849 1.857zm-.386-1.7h.386l.541.927h.386l-.619-.927a.6.6 0 0 0 .541-.618c0-.386-.232-.618-.773-.618H91.8v2.164h.309zm0-.309v-.618h.464c.232 0 .464 0 .464.309s-.309.309-.541.309z" transform="translate(-29.207 -35.624)" style="fill-rule:evenodd"/>
</svg>
