<svg width="24" height="22" viewBox="0 0 24 22" fill="none" xmlns="http://www.w3.org/2000/svg">
<path d="M22.2222 17.9778V7.36667C22.2222 6.80382 21.9986 6.26402 21.6006 5.86603C21.2026 5.46803 20.6628 5.24444 20.1 5.24444H12.9226C12.5284 5.24443 12.142 5.13463 11.8068 4.92734C11.4715 4.72005 11.2005 4.42348 11.0243 4.07086L10.0757 2.17359C9.8994 1.82081 9.6283 1.52412 9.2928 1.31683C8.9573 1.10953 8.57067 0.999816 8.17629 1H3.12222C2.55937 1 2.01958 1.22359 1.62158 1.62158C1.22359 2.01958 1 2.55937 1 3.12222V17.9778C1 18.5406 1.22359 19.0804 1.62158 19.4784C2.01958 19.8764 2.55937 20.1 3.12222 20.1H20.1C20.6628 20.1 21.2026 19.8764 21.6006 19.4784C21.9986 19.0804 22.2222 18.5406 22.2222 17.9778Z" stroke="#3698FF" stroke-width="2" stroke-linecap="round" stroke-linejoin="round"/>
<path d="M11.6111 12.6721H8.42773M11.6111 9.48877V12.6721V9.48877ZM11.6111 12.6721V15.8554V12.6721ZM11.6111 12.6721H14.7944H11.6111Z" stroke="#3698FF" stroke-width="2" stroke-linecap="round" stroke-linejoin="round"/>
</svg>
