<svg width="17" height="26" viewBox="0 0 17 26" fill="none" xmlns="http://www.w3.org/2000/svg">
<path fill-rule="evenodd" clip-rule="evenodd" d="M8.11826 0.421995C7.9891 0.453148 7.86768 0.51037 7.76143 0.590146C7.69025 0.647062 7.62974 0.716164 7.58272 0.794234L0.47011 12.5936C0.395755 12.7106 0.350772 12.8439 0.33899 12.9821C0.327208 13.1202 0.348975 13.2592 0.402439 13.3872L2.76711 19.0309L2.65826 19.0308C2.45666 19.0325 2.26146 19.1018 2.10395 19.2276C1.99762 19.3145 1.91154 19.4235 1.85171 19.5471C1.79189 19.6706 1.75977 19.8058 1.75759 19.943L1.75191 25.0811C1.75401 25.3172 1.84879 25.543 2.01581 25.7099C2.09874 25.7916 2.19728 25.8558 2.30555 25.8986C2.41383 25.9415 2.52963 25.962 2.64603 25.9592L14.1023 25.9805C14.3029 25.9788 14.4971 25.9102 14.6543 25.7855C14.7588 25.702 14.8427 25.5954 14.8992 25.4742C14.9558 25.3529 14.9835 25.2202 14.9803 25.0864L14.986 19.9482C14.9839 19.7122 14.8891 19.4864 14.7221 19.3195C14.6391 19.2378 14.5406 19.1737 14.4323 19.1308C14.324 19.088 14.2083 19.0674 14.0919 19.0702L13.983 19.0701L16.3103 13.4069C16.3543 13.2757 16.3716 13.1371 16.361 12.9991C16.3505 12.8611 16.3123 12.7267 16.2488 12.6038L9.13165 0.79507C9.06144 0.690755 8.97 0.60244 8.86331 0.535908C8.75661 0.469375 8.63707 0.426125 8.51251 0.408987C8.38158 0.386416 8.24742 0.390843 8.11826 0.421995ZM7.46891 4.49216L7.46746 9.92248C7.04122 10.0423 6.64347 10.2467 6.29787 10.5235C5.91264 10.8276 5.60238 11.2161 5.39097 11.6591C5.17955 12.1021 5.07264 12.5876 5.07845 13.0784C5.07837 13.6914 5.24957 14.2921 5.57272 14.8129C5.89588 15.3337 6.35814 15.7539 6.90735 16.026C7.45657 16.2981 8.07089 16.4113 8.68102 16.3529C9.29115 16.2944 9.87282 16.0667 10.3604 15.6953C10.848 15.3239 11.2221 14.8236 11.4405 14.2509C11.6589 13.6783 11.713 13.0559 11.5966 12.4542C11.4802 11.8524 11.1979 11.2951 10.7817 10.8452C10.3654 10.3953 9.83174 10.0707 9.24082 9.90793L9.24228 4.47761L14.4838 13.1593L12.145 19.0582L4.56665 19.0748L2.21849 13.176L7.46891 4.49216ZM9.71322 13.7214C9.6125 13.9261 9.46764 14.106 9.28908 14.2481C9.03201 14.4561 8.7122 14.5712 8.38153 14.5746C8.0682 14.5787 7.76153 14.4841 7.50499 14.3042C7.24845 14.1243 7.05508 13.8681 6.9523 13.5721C6.84952 13.2761 6.84255 12.9552 6.93238 12.655C7.0222 12.3548 7.20426 12.0905 7.45274 11.8996C7.71024 11.6914 8.03057 11.5764 8.3617 11.5732C8.759 11.5727 9.14045 11.729 9.42317 12.0081C9.70589 12.2872 9.86704 12.6667 9.8716 13.0639C9.86803 13.2921 9.81394 13.5166 9.71322 13.7214ZM3.5364 20.8505L13.1822 20.8431L13.2063 24.1737L3.55947 24.1782L3.5364 20.8505Z" fill="#3698FF"/>
</svg>
