<svg xmlns="http://www.w3.org/2000/svg" width="17.795" height="18.011" viewBox="0 0 17.795 18.011">
    <defs>
        <style>
            .cls-1{fill:#b9dcff}.cls-2{fill:#4f8aff}
        </style>
    </defs>
    <g id="_3472789" transform="translate(-.67 -32.706)">
        <path id="Path_12809" d="M139.889 34.736v-.516a1.516 1.516 0 0 1 1.515-1.515h4.482a1.516 1.516 0 0 1 1.515 1.515v.516h1.289v-.516a2.807 2.807 0 0 0-2.8-2.8h-4.49a2.807 2.807 0 0 0-2.8 2.8v.516z" class="cls-1" transform="translate(-134.049 1.289)"/>
        <path id="Path_12810" d="M33.314 282.048l-5.491 2.252v.205a2.219 2.219 0 0 1-2.038 2.36 2.219 2.219 0 0 1-2.038-2.36v-.205l-5.492-2.252a4.471 4.471 0 0 1-1.34-.864v8.568h17.739v-8.568a4.471 4.471 0 0 1-1.34.864z" class="cls-1" transform="translate(-16.189 -239.035)"/>
        <path id="Path_12811" d="M.67 138.667v1.94c0 1.722.277 3.258 1.693 3.833l5.174 2.1v-1.768h4.118v1.768l5.174-2.1c1.416-.575 1.628-2.111 1.628-3.833v-1.94z" class="cls-2" transform="translate(0 -102.642)"/>
        <path id="Path_12812" d="M233.216 310.75h-2.142v2.05a1.071 1.071 0 0 0 2.142 0z" class="cls-2" transform="translate(-222.549 -267.33)"/>
    </g>
</svg>
