<svg width="28" height="28" viewBox="0 0 28 28" fill="none" xmlns="http://www.w3.org/2000/svg">
<path fill-rule="evenodd" clip-rule="evenodd" d="M13.6738 0C21.2256 0 27.3475 6.12196 27.3475 13.6738C27.3475 21.2256 21.2256 27.3475 13.6738 27.3475C6.12196 27.3475 0 21.2256 0 13.6738C0 6.12196 6.12196 0 13.6738 0Z" fill="url(#paint0_linear_265_3311)"/>
<path d="M15.4501 27.2327V16.6709H18.4277L18.8224 12.9536H15.4501L15.4551 11.0929C15.4551 10.1234 15.5472 9.60414 16.9398 9.60414H18.8015V5.88623H15.8233C12.2458 5.88623 10.9869 7.68942 10.9869 10.7223V12.9539H8.75684V16.6715H10.9869V27.083C11.8557 27.2561 12.7538 27.3475 13.6734 27.3475C14.2675 27.3475 14.861 27.3092 15.4501 27.2327Z" fill="white"/>
<defs>
<linearGradient id="paint0_linear_265_3311" x1="13.6738" y1="-0.24915" x2="13.6738" y2="28.5136" gradientUnits="userSpaceOnUse">
<stop stop-color="#00B2FF"/>
<stop offset="1" stop-color="#006AFF"/>
</linearGradient>
</defs>
</svg>
