<svg width="228" height="305" viewBox="0 0 228 305" fill="none" xmlns="http://www.w3.org/2000/svg">
<mask id="mask0_612_1870" style="mask-type:alpha" maskUnits="userSpaceOnUse" x="0" y="0" width="228" height="305">
<path d="M220 0H8C3.58172 0 0 3.58172 0 8V297C0 301.418 3.58172 305 8 305H220C224.418 305 228 301.418 228 297V8C228 3.58172 224.418 0 220 0Z" fill="#C2E0FF"/>
</mask>
<g mask="url(#mask0_612_1870)">
<path d="M114.432 170C194.752 170 259.864 212.526 259.864 264.984C259.864 317.442 194.752 359.968 114.432 359.968C34.112 359.968 -31 317.442 -31 264.984C-31 212.526 34.112 170 114.432 170Z" fill="url(#paint0_linear_612_1870)"/>
<path opacity="0.82" d="M72.5292 204.736C72.5051 204.661 72.4596 204.595 72.3982 204.546C72.3369 204.497 72.2624 204.467 72.1842 204.46L70.0002 204.262L69.1432 202.246C69.1127 202.173 69.0614 202.111 68.9958 202.067C68.9301 202.023 68.853 202 68.7742 202C68.6953 202 68.6182 202.023 68.5525 202.067C68.4869 202.111 68.4356 202.173 68.4052 202.246L67.5442 204.262L65.3652 204.462C65.287 204.468 65.2125 204.498 65.1511 204.547C65.0897 204.596 65.044 204.662 65.0197 204.736C64.9954 204.811 64.9935 204.891 65.0144 204.967C65.0353 205.042 65.078 205.11 65.1372 205.162L66.7842 206.611L66.3002 208.745C66.2817 208.822 66.2866 208.903 66.3141 208.977C66.3417 209.051 66.3908 209.116 66.4551 209.162C66.5194 209.209 66.596 209.235 66.6753 209.238C66.7545 209.24 66.8328 209.219 66.9002 209.178L68.7742 208.056L70.6532 209.179C70.7205 209.22 70.7988 209.241 70.8781 209.239C70.9573 209.236 71.0339 209.21 71.0982 209.163C71.1625 209.117 71.2116 209.052 71.2392 208.978C71.2668 208.904 71.2716 208.823 71.2532 208.746L70.7642 206.611L72.4112 205.162C72.4705 205.11 72.5134 205.042 72.5343 204.966C72.5553 204.891 72.5535 204.81 72.5292 204.736Z" fill="white"/>
<path opacity="0.82" d="M172.529 220.736C172.505 220.661 172.46 220.595 172.398 220.546C172.337 220.497 172.262 220.467 172.184 220.46L170 220.262L169.143 218.246C169.113 218.173 169.061 218.111 168.996 218.067C168.93 218.023 168.853 218 168.774 218C168.695 218 168.618 218.023 168.553 218.067C168.487 218.111 168.436 218.173 168.405 218.246L167.544 220.262L165.365 220.462C165.287 220.468 165.213 220.498 165.151 220.547C165.09 220.596 165.044 220.662 165.02 220.736C164.995 220.811 164.994 220.891 165.014 220.967C165.035 221.042 165.078 221.11 165.137 221.162L166.784 222.611L166.3 224.745C166.282 224.822 166.287 224.903 166.314 224.977C166.342 225.051 166.391 225.116 166.455 225.162C166.519 225.209 166.596 225.235 166.675 225.238C166.755 225.24 166.833 225.219 166.9 225.178L168.774 224.056L170.653 225.179C170.721 225.22 170.799 225.241 170.878 225.239C170.957 225.236 171.034 225.21 171.098 225.163C171.163 225.117 171.212 225.052 171.239 224.978C171.267 224.904 171.272 224.823 171.253 224.746L170.764 222.611L172.411 221.162C172.471 221.11 172.513 221.042 172.534 220.966C172.555 220.891 172.554 220.81 172.529 220.736Z" fill="white"/>
<path d="M142.529 160.736C142.505 160.661 142.46 160.595 142.398 160.546C142.337 160.497 142.262 160.467 142.184 160.46L140 160.262L139.143 158.246C139.113 158.173 139.061 158.111 138.996 158.067C138.93 158.023 138.853 158 138.774 158C138.695 158 138.618 158.023 138.553 158.067C138.487 158.111 138.436 158.173 138.405 158.246L137.544 160.262L135.365 160.462C135.287 160.468 135.213 160.498 135.151 160.547C135.09 160.596 135.044 160.662 135.02 160.736C134.995 160.811 134.994 160.891 135.014 160.967C135.035 161.042 135.078 161.11 135.137 161.162L136.784 162.611L136.3 164.745C136.282 164.822 136.287 164.903 136.314 164.977C136.342 165.051 136.391 165.116 136.455 165.162C136.519 165.209 136.596 165.235 136.675 165.238C136.755 165.24 136.833 165.219 136.9 165.178L138.774 164.056L140.653 165.179C140.721 165.22 140.799 165.241 140.878 165.239C140.957 165.236 141.034 165.21 141.098 165.163C141.163 165.117 141.212 165.052 141.239 164.978C141.267 164.904 141.272 164.823 141.253 164.746L140.764 162.611L142.411 161.162C142.471 161.11 142.513 161.042 142.534 160.966C142.555 160.891 142.554 160.81 142.529 160.736Z" fill="white"/>
</g>
<defs>
<linearGradient id="paint0_linear_612_1870" x1="18" y1="182.5" x2="202" y2="404.5" gradientUnits="userSpaceOnUse">
<stop stop-color="#B1CBFF"/>
<stop offset="1" stop-color="#1E9BFB"/>
</linearGradient>
</defs>
</svg>
