<svg width="19" height="23" viewBox="0 0 19 23" fill="none" xmlns="http://www.w3.org/2000/svg">
<path d="M14.6259 1.89564C14.6119 1.03226 13.9039 0.333923 13.0362 0.333923H6.4085C5.54081 0.333923 4.8328 1.03226 4.81874 1.89564H0.446655V22.6661H18.9995L19 1.89564H14.6259ZM6.5496 2.99281V2.0627H12.8961V2.99281H6.5496ZM14.6264 4.72159V3.62442H17.2697V20.9368H2.17701V3.62493H4.81874V4.72209H14.6264V4.72159Z" fill="#3698FF"/>
<path d="M11.7693 9.40024C10.4226 12.769 8.66761 14.7366 7.39771 15.8097C5.87574 17.098 4.62492 17.4848 4.48734 17.5249L4.4778 17.5279L4.2207 17.6147L4.43361 18.4314L4.57772 18.9928L4.86444 18.9647L4.92269 19.1975C4.98796 19.1814 6.53906 18.7806 8.45219 17.1843C9.54283 16.2742 10.535 15.154 11.4002 13.8546C12.159 12.7158 12.8243 11.433 13.3816 10.0329L13.704 10.7312L15.2757 10.0083L13.7196 6.6365L10.3166 8.15457L11.0226 9.73435L11.7693 9.40024Z" fill="#3698FF"/>
<path d="M6.2905 12.6707C7.37461 12.6707 8.25636 11.7897 8.25636 10.7066C8.25636 9.62348 7.37461 8.74254 6.2905 8.74254C5.20639 8.74254 4.32465 9.62348 4.32465 10.7066C4.32465 11.7897 5.20639 12.6707 6.2905 12.6707ZM6.2905 10.9444C6.16045 10.9444 6.055 10.839 6.055 10.7091C6.055 10.5792 6.16045 10.4738 6.2905 10.4738C6.42056 10.4738 6.526 10.5792 6.526 10.7091C6.526 10.839 6.42056 10.9444 6.2905 10.9444Z" fill="#3698FF"/>
<path d="M14.3121 14.8369L13.5715 15.5769L12.8308 14.8369L11.6071 16.0595L12.3478 16.7995L11.6071 17.5389L12.8308 18.7615L13.5715 18.0221L14.3121 18.7615L15.5353 17.5389L14.7952 16.7995L15.5358 16.0595L14.3121 14.8369Z" fill="#3698FF"/>
</svg>
