<svg width="19" height="20" viewBox="0 0 19 20" fill="none" xmlns="http://www.w3.org/2000/svg">
<path d="M17.3444 10.408C16.7409 10.3162 16.205 10.7298 16.1185 11.3196C15.9011 12.8007 15.2175 14.1521 14.1415 15.2282C11.4028 17.9669 6.94986 17.9648 4.21223 15.2282C1.47514 12.4906 1.47514 8.03606 4.21223 5.29897C5.24184 4.26991 6.54163 3.59895 7.99632 3.3547C8.62191 3.23597 9.29449 3.21545 9.99234 3.29453C10.9505 3.40482 11.8424 3.72275 12.6563 4.18953L11.2499 4.42968C10.6623 4.53047 10.2666 5.08854 10.368 5.67664C10.4576 6.20306 10.9145 6.57489 11.4314 6.57489C11.4915 6.57489 11.5527 6.57013 11.6149 6.55955L15.3853 5.91495C15.6669 5.86644 15.9191 5.70818 16.0848 5.47398C16.2504 5.24032 16.3158 4.95015 16.2672 4.66745L15.6215 0.897614C15.5224 0.310053 14.9717 -0.083491 14.3746 0.0151381C13.787 0.115928 13.3913 0.674538 13.4926 1.26264L13.6626 2.25487C12.617 1.66828 11.4636 1.28878 10.2381 1.1477C9.32031 1.04323 8.42994 1.07229 7.61499 1.22839C5.73877 1.54275 4.03399 2.4221 2.68462 3.77136C-0.894872 7.35085 -0.894872 13.1753 2.68462 16.7557C4.47431 18.5459 6.82585 19.4406 9.17685 19.4406C11.5284 19.4406 13.8787 18.546 15.6691 16.7557C17.0754 15.3494 17.9699 13.5782 18.2558 11.6339C18.3424 11.0431 17.9341 10.4944 17.3444 10.408Z" fill="#3698FF"/>
</svg>
