<svg width="23" height="21" viewBox="0 0 23 21" fill="none" xmlns="http://www.w3.org/2000/svg">
<path d="M6.88647 4.58437H18.5066C18.7873 4.58437 19.0564 4.47288 19.2549 4.27442C19.4533 4.07597 19.5648 3.80681 19.5648 3.52615C19.5648 3.2455 19.4533 2.97634 19.2549 2.77788C19.0564 2.57943 18.7873 2.46794 18.5066 2.46794H6.88743C6.63494 1.66462 6.10321 0.978226 5.38848 0.532998C4.67374 0.0877707 3.82323 -0.0868718 2.99088 0.0406809C2.15853 0.168234 1.39934 0.589553 0.850732 1.22838C0.302122 1.86721 0.000337109 2.68133 2.82256e-07 3.5234C-0.000336544 4.36546 0.300797 5.17983 0.848896 5.8191C1.397 6.45836 2.15584 6.88029 2.98809 7.00851C3.82034 7.13673 4.67099 6.96276 5.38608 6.51811C6.10117 6.07345 6.63345 5.38749 6.88658 4.58437H6.88647ZM2.13404 3.52478C2.13412 3.24623 2.2168 2.97397 2.37162 2.74241C2.52644 2.51085 2.74645 2.3304 3.00382 2.22388C3.26119 2.11736 3.54437 2.08955 3.81755 2.14396C4.09073 2.19838 4.34164 2.33258 4.53855 2.52959C4.73546 2.7266 4.86953 2.97758 4.9238 3.25079C4.97807 3.524 4.95011 3.80716 4.84345 4.06448C4.73679 4.3218 4.55623 4.54171 4.32459 4.69641C4.09295 4.8511 3.82064 4.93364 3.5421 4.93358C3.16863 4.93324 2.81057 4.78468 2.54656 4.52053C2.28255 4.25638 2.13418 3.89824 2.13404 3.52478Z" fill="#3698FF"/>
<path d="M18.5079 13C17.761 13.0027 17.0343 13.2431 16.4331 13.6864C15.8319 14.1297 15.3874 14.7529 15.164 15.4656H3.54344C3.26279 15.4656 2.99363 15.5771 2.79517 15.7756C2.59672 15.974 2.48523 16.2432 2.48523 16.5238C2.48523 16.8045 2.59672 17.0737 2.79517 17.2721C2.99363 17.4706 3.26279 17.5821 3.54344 17.5821H15.1626C15.3594 18.2015 15.7239 18.7543 16.2158 19.1792C16.7077 19.604 17.3077 19.8842 17.9492 19.9888C18.5907 20.0933 19.2486 20.0181 19.8499 19.7714C20.4512 19.5247 20.9724 19.1162 21.3556 18.5912C21.7389 18.0663 21.9692 17.4454 22.021 16.7976C22.0728 16.1497 21.944 15.5001 21.649 14.9209C21.354 14.3418 20.9044 13.8557 20.3499 13.5166C19.7954 13.1775 19.1579 12.9987 18.5079 13ZM18.5079 17.9331C18.2294 17.9331 17.957 17.8506 17.7254 17.6958C17.4937 17.5411 17.3132 17.3212 17.2065 17.0638C17.0999 16.8064 17.072 16.5232 17.1263 16.25C17.1806 15.9768 17.3148 15.7258 17.5118 15.5288C17.7087 15.3318 17.9597 15.1977 18.2329 15.1434C18.5062 15.089 18.7894 15.117 19.0467 15.2236C19.3041 15.3302 19.524 15.5108 19.6788 15.7424C19.8335 15.9741 19.9161 16.2464 19.916 16.525C19.9156 16.8983 19.7671 17.2563 19.5031 17.5203C19.2392 17.7843 18.8813 17.9326 18.5079 17.9331Z" fill="#3698FF"/>
<path d="M18.5066 8.9495H14.369C14.1479 8.23533 13.704 7.61069 13.1023 7.16704C12.5006 6.72339 11.7726 6.48404 11.025 6.48404C10.2774 6.48404 9.54944 6.72339 8.94772 7.16704C8.34599 7.61069 7.9021 8.23533 7.68105 8.9495H3.54344C3.26279 8.9495 2.99363 9.061 2.79517 9.25945C2.59672 9.4579 2.48523 9.72706 2.48523 10.0077C2.48523 10.2884 2.59672 10.5575 2.79517 10.756C2.99363 10.9544 3.26279 11.0659 3.54344 11.0659H7.68105C7.9021 11.7801 8.34599 12.4047 8.94772 12.8484C9.54944 13.292 10.2774 13.5314 11.025 13.5314C11.7726 13.5314 12.5006 13.292 13.1023 12.8484C13.704 12.4047 14.1479 11.7801 14.369 11.0659H18.5066C18.7872 11.0659 19.0564 10.9544 19.2548 10.756C19.4533 10.5575 19.5648 10.2884 19.5648 10.0077C19.5648 9.72706 19.4533 9.4579 19.2548 9.25945C19.0564 9.061 18.7872 8.9495 18.5066 8.9495ZM11.025 11.4158C10.652 11.4153 10.2944 11.267 10.0305 11.0033C9.7667 10.7396 9.6182 10.382 9.61758 10.009V10.0077V10.0064C9.61758 9.63309 9.7659 9.27503 10.0299 9.01103C10.2939 8.74702 10.652 8.59871 11.0253 8.59871C11.3987 8.59871 11.7567 8.74702 12.0207 9.01103C12.2847 9.27503 12.4331 9.63309 12.4331 10.0064V10.0077V10.009C12.4324 10.3821 12.2839 10.7398 12.0199 11.0035C11.7559 11.2672 11.3981 11.4155 11.025 11.4158Z" fill="#3698FF"/>
</svg>
