<svg width="22" height="22" viewBox="0 0 22 22" fill="none" xmlns="http://www.w3.org/2000/svg">
<path d="M19.8548 9.56997L18.9565 13.4016C18.1865 16.7108 16.6648 18.0491 13.8048 17.7741C13.3465 17.7375 12.8515 17.655 12.3198 17.5266L10.7798 17.16C6.95734 16.2525 5.77484 14.3641 6.67317 10.5325L7.57151 6.69163C7.75484 5.91247 7.97484 5.23413 8.24984 4.67497C9.32234 2.45663 11.1465 1.8608 14.2082 2.58497L15.739 2.94247C19.5798 3.8408 20.7532 5.7383 19.8548 9.56997Z" stroke="#4785FF" stroke-width="1.5" stroke-linecap="round" stroke-linejoin="round"/>
<path d="M13.8048 17.774C13.2365 18.159 12.5215 18.4798 11.6507 18.764L10.2023 19.2406C6.56316 20.414 4.64732 19.4331 3.46482 15.794L2.29149 12.1731C1.11816 8.53397 2.08982 6.60897 5.72899 5.43564L7.17732 4.95897C7.55316 4.8398 7.91066 4.73897 8.24982 4.6748C7.97482 5.23397 7.75482 5.9123 7.57149 6.69147L6.67316 10.5323C5.77482 14.364 6.95732 16.2523 10.7798 17.1598L12.3198 17.5265C12.8515 17.6548 13.3465 17.7373 13.8048 17.774Z" stroke="#4785FF" stroke-width="1.5" stroke-linecap="round" stroke-linejoin="round"/>
<path d="M11.5869 7.81934L16.0327 8.94684" stroke="#4785FF" stroke-width="1.5" stroke-linecap="round" stroke-linejoin="round"/>
<path d="M10.6885 11.3662L13.3468 12.0445" stroke="#4785FF" stroke-width="1.5" stroke-linecap="round" stroke-linejoin="round"/>
</svg>
