<svg width="24" height="21" viewBox="0 0 24 21" fill="none" xmlns="http://www.w3.org/2000/svg">
<path d="M21.2254 13.183L22.3782 12.0302L21.0942 10.7461L19.9413 11.899C19.6439 11.7231 19.3196 11.5883 18.9759 11.5026V9.89654H17.1601V11.5181C16.8385 11.6041 16.5348 11.7333 16.2548 11.899L15.1018 10.7461L13.8179 12.0302L14.9707 13.183C14.7998 13.4719 14.6671 13.7858 14.5813 14.1185H12.9835V15.9343H14.5813C14.6671 16.267 14.7998 16.5809 14.9707 16.8698L13.8179 18.0226L15.1019 19.3067L16.2548 18.1538C16.5348 18.3194 16.8385 18.4487 17.1601 18.5347V20.1562H18.9759V18.5502C19.3198 18.4645 19.6441 18.3297 19.9415 18.1538L21.0943 19.3067L22.3782 18.0226L21.2254 16.8698C21.3963 16.5809 21.529 16.267 21.615 15.9343H23.2432V14.1185H21.615C21.529 13.7858 21.3963 13.4719 21.2254 13.183ZM16.2821 15.0264C16.2821 14.6364 16.406 14.2752 16.616 13.9791L17.0506 13.5444C17.3468 13.3345 17.7082 13.2105 18.098 13.2105C19.0994 13.2105 19.9138 14.0252 19.9138 15.0264C19.9138 16.0276 19.0994 16.8423 18.098 16.8423C17.0967 16.8423 16.2821 16.0276 16.2821 15.0264ZM20.5194 0H2.72382C1.22182 0 0 1.22182 0 2.72382V14.3454C0 15.8474 1.22182 17.0693 2.72382 17.0693H11.459C11.2811 16.4922 11.1767 15.8833 11.1565 15.2534H2.72382C2.22321 15.2534 1.81588 14.846 1.81588 14.3454V3.28046L11.6216 10.5741L21.4274 3.28046V8.93221C22.1103 9.30673 22.7238 9.79262 23.2432 10.3654V2.72382C23.2432 1.22182 22.0214 0 20.5194 0ZM2.88945 1.81588H20.3538L11.6216 8.31101L2.88945 1.81588Z" fill="#3698FF"/>
</svg>
