<svg width="25" height="24" viewBox="0 0 25 24" fill="none" xmlns="http://www.w3.org/2000/svg">
<path d="M16.25 23V21.9997C16.25 20.8949 15.4661 20 14.5 20H11C10.0331 20 9.25 20.8957 9.25 21.9997V23" stroke="#3698FF" stroke-width="2" stroke-linecap="round" stroke-linejoin="round"/>
<path d="M13 19C14.1046 19 15 18.1046 15 17C15 15.8954 14.1046 15 13 15C11.8954 15 11 15.8954 11 17C11 18.1046 11.8954 19 13 19Z" stroke="#3698FF" stroke-width="1.8" stroke-linecap="round" stroke-linejoin="round"/>
<path d="M9 23V21.9997C9 20.8949 8.10414 20 7 20H3C1.89499 20 1 20.8957 1 21.9997V23" stroke="#3698FF" stroke-width="1.8" stroke-linecap="round" stroke-linejoin="round"/>
<path d="M5 19C6.10457 19 7 18.1046 7 17C7 15.8954 6.10457 15 5 15C3.89543 15 3 15.8954 3 17C3 18.1046 3.89543 19 5 19Z" stroke="#3698FF" stroke-width="1.8" stroke-linecap="round" stroke-linejoin="round"/>
<path d="M24 23V21.9997C24 20.8949 23.1041 20 22 20H18C16.895 20 16 20.8957 16 21.9997V23" stroke="#3698FF" stroke-width="2" stroke-linecap="round" stroke-linejoin="round"/>
<path d="M20 19C21.1046 19 22 18.1046 22 17C22 15.8954 21.1046 15 20 15C18.8954 15 18 15.8954 18 17C18 18.1046 18.8954 19 20 19Z" stroke="#3698FF" stroke-width="1.8" stroke-linecap="round" stroke-linejoin="round"/>
<path d="M9.22413 9.01479C8.39153 9.0141 7.71379 8.33416 7.7124 7.49886V3.01236C7.7131 2.17707 8.39153 1.49712 9.22343 1.49573H9.9484C9.9609 0.669491 10.6345 0.000696661 11.4594 0H13.6954C14.5211 0.000696661 15.1947 0.669491 15.2072 1.49503H15.9314C16.764 1.49573 17.4418 2.17637 17.4431 3.01097V7.49747C17.4425 8.33276 16.764 9.0127 15.9321 9.0141H9.22413V9.01479ZM15.9106 7.47657V4.85712L14.0892 5.52104V5.62902C14.0885 6.2588 13.5781 6.77085 12.951 6.77154H12.2052C11.5775 6.77085 11.0671 6.25811 11.0664 5.62902V5.52034L9.24566 4.85642V7.47657H15.9106ZM12.951 3.73828C13.2302 3.73898 13.4975 3.84418 13.7024 4.026L15.9106 3.22136V3.03326H9.24496V3.22136L11.4532 4.026C11.658 3.84487 11.9254 3.73968 12.2038 3.73828H12.951Z" fill="#3698FF"/>
<path d="M15.9321 1.89006H14.8141V1.51596C14.8134 0.896625 14.3135 0.39503 13.6961 0.394333H11.4601C10.8428 0.39503 10.3428 0.896625 10.3421 1.51596V1.89006H9.22414C8.60681 1.89076 8.10683 2.39236 8.10614 3.01169V7.49749C8.10683 8.11682 8.60681 8.61842 9.22414 8.61911H15.9314C16.5488 8.61842 17.0487 8.11682 17.0494 7.49749V3.01169C17.0487 2.39305 16.5488 1.89076 15.9321 1.89006ZM9.22414 2.63828H15.9314C16.137 2.63828 16.3036 2.80548 16.3043 3.01239V3.49796L13.5829 4.48931C13.4482 4.26846 13.2087 4.13401 12.951 4.13331H12.2059C11.9476 4.13401 11.7087 4.26846 11.574 4.48931L8.85194 3.49726V3.01169C8.85194 2.80548 9.01859 2.63828 9.22414 2.63828ZM12.951 4.88083V5.62904H12.2059V4.88083H12.951ZM15.9321 7.8716H9.22483C9.01929 7.8716 8.85263 7.7044 8.85194 7.49749V4.29285L11.4601 5.24379V5.62835C11.4608 6.04077 11.7941 6.37586 12.2052 6.37586H12.9503C13.3614 6.37517 13.6954 6.04077 13.6954 5.62835V5.24379L16.3036 4.29285V7.49749C16.3043 7.7044 16.1377 7.8716 15.9321 7.8716Z" fill="#3698FF"/>
<path d="M14 1H11V1.5H14V1Z" fill="white"/>
<path d="M5 14V11L20 11V14" stroke="#3698FF" stroke-width="1.8" stroke-linecap="round" stroke-linejoin="round"/>
<path d="M13 15V12" stroke="#3698FF" stroke-width="2" stroke-linecap="round" stroke-linejoin="round"/>
</svg>
