<svg xmlns="http://www.w3.org/2000/svg" width="22.285" height="22.285" viewBox="0 0 22.285 22.285">
    <g>
        <g>
            <path fill="#e1e6f0" d="M8.13 10.9l-3.2-3.2A3.922 3.922 0 0 1 .268 2.478a.652.652 0 0 1 1.066-.225l1.2 1.188a.66.66 0 0 0 .921 0 .651.651 0 0 0 0-.918l-1.191-1.2A.652.652 0 0 1 2.49.255 4.007 4.007 0 0 1 7.155 1.7 3.909 3.909 0 0 1 7.7 4.915l2.89 2.89a.652.652 0 0 1 .07.84l-1.54 2.168a.653.653 0 0 1-.99.087z" transform="translate(0 -.001) translate(0 .001) translate(0 -.001)"/>
        </g>
        <g>
            <path fill="#cfd7e6" d="M271.075 268.407a3.917 3.917 0 0 1-3.787-4.927l-2.889-2.89a.652.652 0 0 1-.068-.844l1.553-2.155a.654.654 0 0 1 .991-.08l3.19 3.19a3.922 3.922 0 0 1 4.659 5.215.652.652 0 0 1-1.066.225l-1.2-1.189a.662.662 0 0 0-.921 0 .651.651 0 0 0 0 .918l1.191 1.2a.652.652 0 0 1-.226 1.067 3.888 3.888 0 0 1-1.427.27z" transform="translate(0 -.001) translate(11.5 11.2) translate(-264.207 -257.322)"/>
        </g>
        <g>
            <g>
                <path fill="#ffdf40" d="M152.7 77.937a.653.653 0 0 1-.381-.727l1.149-5.748h-1.815a.652.652 0 0 1-.529-1.034l6.526-9.138a.653.653 0 0 1 1.172.508l-1.149 5.748h1.815a.653.653 0 0 1 .533 1.03l-6.53 9.142a.654.654 0 0 1-.791.219z" transform="translate(0 -.001) translate(6.572 2.656) translate(-151.001 -61.016)"/>
            </g>
        </g>
        <path fill="#ffbe40" d="M259.917 67.544H258.1l1.149-5.748a.653.653 0 0 0-1.172-.508L256 64.2v10.6l4.45-6.23a.653.653 0 0 0-.533-1.03z" transform="translate(0 -.001) translate(-244.858 -58.36)"/>
    </g>
</svg>
