<svg width="19" height="19" viewBox="0 0 19 19" fill="none" xmlns="http://www.w3.org/2000/svg">
<path d="M9.49874 13.2093L13.0264 10.6465L16.2386 11.7099L17.0721 15.2376C16.8092 15.5834 16.5232 15.911 16.216 16.2182C15.1981 17.2399 13.9601 18.0154 12.5967 18.4854L9.49805 16.5768L9.49874 13.2093Z" fill="#F6F9F9"/>
<path d="M9.49887 13.2107L5.9707 10.6476L7.31831 6.5H11.6794L13.027 10.6476L9.49887 13.2107Z" fill="#6A9CFF"/>
<path d="M5.97384 10.6465L9.50152 13.2093V16.5762L6.40975 18.4868C5.04333 18.017 3.80264 17.2405 2.78284 16.2169C2.47835 15.9121 2.19463 15.5872 1.93359 15.2444L2.76368 11.686L5.97384 10.6465Z" fill="#B9DCFF"/>
<path d="M12.5975 18.4851C10.5906 19.1702 8.41313 19.1702 6.40625 18.4851L9.49845 16.5742L12.5975 18.4851Z" fill="#6A9CFF"/>
<path d="M7.32137 6.49784L5.97394 10.6448L2.76173 11.683L0.00390625 9.2844C0.0407986 7.40034 0.641731 5.57061 1.72909 4.03154L5.3601 3.75781L7.32137 6.49784Z" fill="#A9C6FF"/>
<path d="M11.6773 6.50182H7.31675L5.35547 3.76453L6.73713 0.411341C8.53826 -0.129301 10.4585 -0.129301 12.2596 0.411341L13.6659 3.78026L11.6773 6.50182Z" fill="#B9DCFF"/>
<path d="M16.2393 11.7114L13.0271 10.6479L11.6797 6.50095L13.669 3.77734L17.2822 4.05107C18.3668 5.59268 18.9642 7.42411 18.9972 9.30873L16.2393 11.7114Z" fill="#ECECEF"/>
<path d="M1.93351 15.247C0.67413 13.5968 -0.00550235 11.5772 3.35529e-05 9.50133C3.35529e-05 9.43289 3.35529e-05 9.35829 3.35529e-05 9.28711L2.76097 11.6826L1.93351 15.247Z" fill="#6A9CFF"/>
<path d="M1.72656 4.03386C2.04194 3.58761 2.39478 3.16906 2.78125 2.78274C3.88367 1.67415 5.24383 0.856271 6.73991 0.402344L5.35808 3.75598L1.72656 4.03386Z" fill="#6A9CFF"/>
<path d="M17.2819 4.04813L13.6682 3.77436L12.2617 0.404297C13.7562 0.857753 15.1151 1.67441 16.217 2.78127C16.6077 3.17217 16.964 3.59602 17.2819 4.04813Z" fill="#135772"/>
<path d="M18.9992 9.30469C18.9992 9.36902 18.9992 9.43404 18.9992 9.49906C19.0049 11.5716 18.3275 13.5883 17.0719 15.2372L16.2383 11.709L18.9992 9.30469Z" fill="#135772"/>
<path d="M9.49874 13.2093L13.0264 10.6465L16.2386 11.7099L17.0721 15.2376C16.8092 15.5834 16.5232 15.911 16.216 16.2182C15.1981 17.2399 13.9601 18.0154 12.5967 18.4854L9.49805 16.5768L9.49874 13.2093Z" fill="#DCEDFF"/>
<path d="M16.2393 11.7114L13.0271 10.6479L11.6797 6.50095L13.669 3.77734L17.2822 4.05107C18.3668 5.59268 18.9642 7.42411 18.9972 9.30873L16.2393 11.7114Z" fill="#A9C6FF"/>
<path d="M17.2819 4.04813L13.6682 3.77436L12.2617 0.404297C13.7562 0.857753 15.1151 1.67441 16.217 2.78127C16.6077 3.17217 16.964 3.59602 17.2819 4.04813Z" fill="#6A9CFF"/>
<path d="M18.9973 9.30664C18.9973 9.37098 18.9973 9.43599 18.9973 9.50101C19.0029 11.5736 18.3256 13.5902 17.07 15.2392L16.2363 11.711L18.9973 9.30664Z" fill="#6A9CFF"/>
<path d="M9.5 19.0004C10.5544 19.0015 11.6017 18.8274 12.599 18.485L9.5 16.5762V19.0004Z" fill="#4178E6"/>
<path d="M13.6701 3.77593L12.2602 0.405862C11.365 0.135976 10.435 -0.000773761 9.5 3.29298e-06V6.50196H11.6806L13.6701 3.77593Z" fill="#DCEDFF"/>
<path d="M11.6806 6.5H9.5V13.2107L13.0282 10.6476L11.6806 6.5Z" fill="#4178E6"/>
</svg>
