<svg xmlns="http://www.w3.org/2000/svg" width="28.357" height="24.813" viewBox="0 0 28.357 24.813">
    <defs>
        <style>
            .cls-2{fill:#e58d72}
        </style>
    </defs>
    <g id="save-water" transform="translate(0 -32)">
        <path id="Path_14240" fill="#ebb19c" d="M169.889 298.541c-.339 0 .043-.068-6.643 1.524a2.216 2.216 0 0 0-1.942-3.281c-3.438 0-2.669.118-5.008-.645-.938-.306-1.385-.241-3.854-.241a.443.443 0 0 0-.443.443v7.532a.443.443 0 0 0 .443.443c2.571 0 1.7-.16 5.718 1.318a7.394 7.394 0 0 0 4.034.305c.974-.2.689-.131 8.5-3.457a2.053 2.053 0 0 0-.8-3.942z" transform="translate(-143.581 -249.276)"/>
        <path id="Path_14241" d="M275.015 345.765a2.05 2.05 0 0 1-1.248 1.889l-7.075 3.014a7.4 7.4 0 0 1-5.572.094 7.407 7.407 0 0 0 2.379-.095c.979-.2.719-.144 8.5-3.457a2.054 2.054 0 0 0 .528-3.45 2.052 2.052 0 0 1 2.488 2.005z" class="cls-2" transform="translate(-246.658 -294.447)"/>
        <path id="Path_14242" fill="#c8effd" d="M273.437 32.162a.443.443 0 0 0-.683 0c-1.395 1.686-4.754 6.18-4.754 8.479a5.1 5.1 0 0 0 10.191 0c0-2.3-3.36-6.794-4.754-8.479z" transform="translate(-253.157 -.001)"/>
        <path id="Path_14243" fill="#a0e1fd" d="M344.314 40.64A5.1 5.1 0 0 1 338 45.588a5.1 5.1 0 0 0 3.877-4.948c0-2.065-2.613-5.7-3.877-7.364.513-.675.87-1.108.877-1.115a.444.444 0 0 1 .683 0c1.466 1.814 4.754 6.163 4.754 8.479z" transform="translate(-319.28)"/>
        <path id="Path_14244" fill="#edebfd" d="M106.548 280h-2.1a.443.443 0 0 0-.443.443v9.3a.443.443 0 0 0 .443.443h2.1a1 1 0 0 0 1-1V281a1 1 0 0 0-1-1z" transform="translate(-98.24 -234.263)"/>
        <path id="Path_14245" fill="#d2d2fc" d="M128.326 281v8.2a1 1 0 0 1-1 1H126a1 1 0 0 0 1-1V281a1 1 0 0 0-1-1h1.329a1 1 0 0 1 .997 1z" transform="translate(-119.021 -234.263)"/>
        <path id="Path_14246" fill="#e48c9b" d="M6.2 280H.443a.443.443 0 0 0-.443.443v9.3a.443.443 0 0 0 .443.443H6.2a.443.443 0 0 0 .443-.443v-9.3A.443.443 0 0 0 6.2 280z" transform="translate(0 -234.263)"/>
        <path id="Path_14248" d="M264.542 371.235v.445a.443.443 0 0 1-.443.443h-4.421a.443.443 0 0 1-.442-.472.453.453 0 0 1 .457-.414h4.818z" class="cls-2" transform="translate(-244.876 -320.446)"/>
    </g>
</svg>
