<svg xmlns="http://www.w3.org/2000/svg" width="51.01" height="51.239" viewBox="0 0 51.01 51.239">
    <path data-name="Path 17478" d="m2.376 19.634 17.876-17.47a7.423 7.423 0 0 1 10.494.11l18.343 18.741a6.72 6.72 0 0 1-.1 9.507L29.657 49.4a6.614 6.614 0 0 1-9.344-.1L2.27 30.871a7.955 7.955 0 0 1 .106-11.237z" transform="translate(.001 -.046)" style="fill:#0031d2"/>
    <path data-name="Path 17479" d="M5.871 13.949 28.216 2.732a7.418 7.418 0 0 1 9.945 3.3l11.762 23.412a6.728 6.728 0 0 1-3 9.011L22.788 50.6a6.622 6.622 0 0 1-8.877-2.929L2.332 24.622a7.951 7.951 0 0 1 3.539-10.673z" transform="translate(-.882 -1.174)" style="fill:#bff"/>
    <path data-name="Path 17480" d="m50.537 31.479.232-.288a6.727 6.727 0 0 0-.532-1.491l-7.578-15.085L31.536 3.256a7.471 7.471 0 0 0-1.263-.906 7.374 7.374 0 0 0-1.767.622L15.118 9.7 12.77 12 2 23.11a7.894 7.894 0 0 0 .626 1.751L9.4 38.313l12.056 12.314.053.049s.353.353.622.565a7 7 0 0 0 .971-.406l15.7-7.89 11.735-11.486z" transform="translate(-1.187 -1.414)" style="fill:#006ee3"/>
    <path data-name="Path 17481" d="M53.684 44.588v8.56H42.816V38.083h10.868v3.591l4.266-2.462v-1.99a3.376 3.376 0 0 0-3.372-3.372H42.1a3.555 3.555 0 0 0-3.55 3.55v16.747a3.616 3.616 0 0 0 3.608 3.608h11.7a4.1 4.1 0 0 0 4.1-4.1V42.126z" transform="translate(-22.888 -20.116)" style="fill:#fff"/>
</svg>
