<svg xmlns="http://www.w3.org/2000/svg" width="54.246" height="54.261" viewBox="0 0 54.246 54.261">
    <defs>
        <style>
            .cls-1,.cls-2{fill-rule:evenodd}.cls-1{fill:#fff}.cls-2{stroke:#fff;stroke-miterlimit:2.613;stroke-width:.828px}
        </style>
    </defs>
    <g id="vvsk" transform="translate(0 .015)">
        <path id="Path_17482" data-name="Path 17482" class="cls-1" d="M0 0h54.246v54.246H0z"/>
        <path id="Path_17483" data-name="Path 17483" class="cls-2" d="M60.406 32.207A3.9 3.9 0 1 0 64 26.792 12.688 12.688 0 1 1 76.459 11.71l-4.07-.208A8.784 8.784 0 1 0 64 22.885a7.809 7.809 0 1 1-7.457 10.124l3.862-.8zm-8.89.724A12.685 12.685 0 1 0 64 18.007a3.9 3.9 0 1 1 3.515-5.588l3.882-.813A7.809 7.809 0 1 0 64 21.914a8.783 8.783 0 1 1-8.419 11.28z" transform="translate(-36.872 -1.018)"/>
        <path id="Path_17484" data-name="Path 17484" class="cls-1" d="M86.248 58.393h5.895v10.02h-5.895z" transform="translate(-61.976 -41.96)"/>
        <path id="Path_17485" data-name="Path 17485" class="cls-2" d="M54.927 55.694a12.686 12.686 0 1 0-16.5-12.1 3.9 3.9 0 1 1-6.877-2.514 10.855 10.855 0 0 1-1.3-4.011A7.807 7.807 0 1 0 42.334 43.6a8.783 8.783 0 1 1 13.144 7.616 12.432 12.432 0 0 1-.551 4.482zm-.808-9.618a3.9 3.9 0 1 0-6.906-2.476 12.688 12.688 0 1 1-16.5-12.1 11.852 11.852 0 0 0-.556 4.482A8.781 8.781 0 1 0 43.305 43.6a7.809 7.809 0 1 1 12.088 6.525 13.948 13.948 0 0 0-1.274-4.049z" transform="translate(-15.692 -22.211)"/>
        <path id="Path_17486" data-name="Path 17486" d="M20.092 156.631h42.937v9.769H20.092z" transform="translate(-14.438 -112.552)" style="fill-rule:evenodd"/>
        <path id="Path_17487" data-name="Path 17487" class="cls-1" d="M30.513 163.382h.871a2.451 2.451 0 0 1 .386.022.567.567 0 0 1 .227.09.556.556 0 0 1 .167.182.491.491 0 0 1 .067.255.514.514 0 0 1-.306.473.572.572 0 0 1 .306.2.525.525 0 0 1 .107.329.65.65 0 0 1-.069.289.583.583 0 0 1-.189.224.63.63 0 0 1-.3.1 7.91 7.91 0 0 1-.531.015h-.742v-2.178zm.44.362v.5h.288q.257 0 .32-.007a.29.29 0 0 0 .178-.078.23.23 0 0 0 .064-.17.239.239 0 0 0-.055-.164.255.255 0 0 0-.166-.076q-.065-.008-.376-.008h-.253zm0 .866v.582h.407a1.983 1.983 0 0 0 .3-.013.271.271 0 0 0 .16-.087.268.268 0 0 0 .062-.185.288.288 0 0 0-.048-.167.269.269 0 0 0-.138-.1 1.5 1.5 0 0 0-.39-.031zm1.591-.126a1.381 1.381 0 0 1 .1-.559 1.031 1.031 0 0 1 .2-.3.853.853 0 0 1 .281-.2 1.188 1.188 0 0 1 .47-.086 1.023 1.023 0 0 1 .771.3 1.334 1.334 0 0 1 0 1.656 1.016 1.016 0 0 1-.766.3 1.027 1.027 0 0 1-.773-.3 1.127 1.127 0 0 1-.287-.817zm.456-.014a.819.819 0 0 0 .171.561.588.588 0 0 0 .866 0 .834.834 0 0 0 .169-.568.821.821 0 0 0-.164-.559.609.609 0 0 0-.875 0 .825.825 0 0 0-.167.566zm2.084-1.088h1.526v2.178h-.44v-1.81h-.655v.931a3.91 3.91 0 0 1-.027.558.4.4 0 0 1-.13.247.492.492 0 0 1-.324.088c-.051 0-.145 0-.281-.015v-.341h.1a.322.322 0 0 0 .186-.037c.032-.025.048-.086.048-.183v-1.618zm2 0h1.476v.366h-1.035v1.813h-.44zm1.575 1.1a1.381 1.381 0 0 1 .1-.559 1.042 1.042 0 0 1 .2-.3.853.853 0 0 1 .281-.2 1.189 1.189 0 0 1 .47-.086 1.023 1.023 0 0 1 .771.3 1.335 1.335 0 0 1 0 1.656 1.017 1.017 0 0 1-.767.3 1.027 1.027 0 0 1-.773-.3 1.128 1.128 0 0 1-.282-.808zm.453-.015a.819.819 0 0 0 .171.561.588.588 0 0 0 .866 0 .834.834 0 0 0 .169-.568.821.821 0 0 0-.164-.559.609.609 0 0 0-.875 0 .824.824 0 0 0-.167.569zm1.953.509v-.417h.82v.417zm1.065-1.6H43a2.449 2.449 0 0 1 .386.022.568.568 0 0 1 .227.09.553.553 0 0 1 .167.182.491.491 0 0 1 .067.255.515.515 0 0 1-.306.473.573.573 0 0 1 .306.2.525.525 0 0 1 .107.329.646.646 0 0 1-.069.289.585.585 0 0 1-.189.224.629.629 0 0 1-.3.1c-.073.007-.25.013-.53.015h-.742v-2.178zm.44.362v.5h.288q.257 0 .32-.007a.29.29 0 0 0 .178-.078.23.23 0 0 0 .064-.17.24.24 0 0 0-.055-.164.256.256 0 0 0-.166-.076q-.065-.008-.376-.008h-.253zm0 .866v.582h.407a1.991 1.991 0 0 0 .3-.013.258.258 0 0 0 .221-.272.288.288 0 0 0-.048-.167.27.27 0 0 0-.137-.1 1.5 1.5 0 0 0-.39-.031zm3.423.95v-2.178h-.926a1.7 1.7 0 0 0-.491.053.487.487 0 0 0-.265.206.63.63 0 0 0-.1.353.6.6 0 0 0 .135.393.682.682 0 0 0 .44.212.976.976 0 0 0-.235.182 2.606 2.606 0 0 0-.251.355l-.266.425h.526l.318-.474a1.792 1.792 0 0 1 .292-.373.517.517 0 0 1 .294-.062h.089v.909h.44zm-.44-1.258h-.326a2.468 2.468 0 0 1-.36-.016.242.242 0 0 1-.145-.084.274.274 0 0 1-.057-.182.262.262 0 0 1 .059-.178.227.227 0 0 1 .142-.08 3.073 3.073 0 0 1 .344-.012h.343zm1.375 1.258v-1.81h-.646v-.368h1.732v.368h-.644v1.81zm2.763-.8.427.135a.957.957 0 0 1-.326.53 1.027 1.027 0 0 1-1.292-.119 1.135 1.135 0 0 1-.279-.811 1.192 1.192 0 0 1 .281-.845.964.964 0 0 1 .738-.3.9.9 0 0 1 .649.236.858.858 0 0 1 .224.4l-.436.1a.45.45 0 0 0-.459-.366.5.5 0 0 0-.393.174.854.854 0 0 0-.151.563.912.912 0 0 0 .149.588.482.482 0 0 0 .386.175.439.439 0 0 0 .3-.111.651.651 0 0 0 .181-.35zm.811-1.378h.44v.927a.294.294 0 0 0 .2-.076 1.545 1.545 0 0 0 .16-.339.915.915 0 0 1 .275-.44.856.856 0 0 1 .441-.086h.064v.325h-.062a.441.441 0 0 0-.2.033.25.25 0 0 0-.1.1 2.164 2.164 0 0 0-.115.281 1.051 1.051 0 0 1-.086.189.165.165 0 1 0 .077.31 2.323 2.323 0 0 1 .21.357l.3.6h-.517l-.26-.563c0-.008-.012-.024-.025-.046l-.055-.1a.644.644 0 0 0-.139-.2.281.281 0 0 0-.166-.042v.954H50.5zm3.814 2.178h-.479l-.19-.5h-.871l-.179.5h-.467l.849-2.178h.465zm-.81-.862-.3-.809-.294.809zm2.786.862v-2.178h-.926a1.7 1.7 0 0 0-.491.053.485.485 0 0 0-.264.206.63.63 0 0 0-.1.353.6.6 0 0 0 .135.393.682.682 0 0 0 .44.212.992.992 0 0 0-.235.182 2.632 2.632 0 0 0-.251.355l-.265.425h.526l.318-.474a1.792 1.792 0 0 1 .292-.373.516.516 0 0 1 .294-.062h.089v.909h.44zm-.44-1.258h-.326a2.466 2.466 0 0 1-.36-.016.242.242 0 0 1-.146-.084.274.274 0 0 1-.057-.182.262.262 0 0 1 .059-.178.227.227 0 0 1 .142-.08 3.086 3.086 0 0 1 .344-.012h.344v.552zm-23.948 3.8.426.135a.957.957 0 0 1-.326.53 1.028 1.028 0 0 1-1.292-.124 1.135 1.135 0 0 1-.279-.81 1.192 1.192 0 0 1 .281-.845.964.964 0 0 1 .739-.3.9.9 0 0 1 .649.236.853.853 0 0 1 .223.4l-.436.1a.458.458 0 0 0-.161-.268.463.463 0 0 0-.3-.1.5.5 0 0 0-.393.174.852.852 0 0 0-.151.563.912.912 0 0 0 .149.588.482.482 0 0 0 .386.175.44.44 0 0 0 .3-.111.652.652 0 0 0 .187-.331zm1.218.8V167.1h-.646v-.369h1.731v.369h-.645v1.81zm1.369 0v-2.166h.709a2.541 2.541 0 0 1 .523.033.57.57 0 0 1 .314.213.677.677 0 0 1 .126.424.706.706 0 0 1-.073.337.6.6 0 0 1-.185.215.636.636 0 0 1-.228.1 2.54 2.54 0 0 1-.456.031h-.287v.822zm.44-1.81v.618h.24a1.141 1.141 0 0 0 .348-.034.29.29 0 0 0 .137-.107.3.3 0 0 0 .05-.17.281.281 0 0 0-.07-.2.3.3 0 0 0-.176-.1 2.1 2.1 0 0 0-.317-.015h-.212zm3.288 1.81h-.479l-.19-.5h-.87l-.18.5h-.467l.849-2.178h.465zm-.81-.862-.3-.809-.294.809zm.821.862.745-1.137-.675-1.029h.514l.437.7.428-.7h.51l-.678 1.058.745 1.12h-.53l-.483-.753-.485.753zm2.084-1.076a1.386 1.386 0 0 1 .1-.559 1.041 1.041 0 0 1 .2-.3.853.853 0 0 1 .281-.2 1.189 1.189 0 0 1 .47-.086 1.022 1.022 0 0 1 .771.3 1.334 1.334 0 0 1 0 1.656 1.016 1.016 0 0 1-.766.3 1.027 1.027 0 0 1-.773-.3 1.128 1.128 0 0 1-.281-.798zm.453-.015a.819.819 0 0 0 .171.561.588.588 0 0 0 .866 0 .834.834 0 0 0 .168-.568.823.823 0 0 0-.164-.559.609.609 0 0 0-.875 0 .825.825 0 0 0-.164.579zm2.005-1.088h.871a2.452 2.452 0 0 1 .386.022.567.567 0 0 1 .227.09.553.553 0 0 1 .167.182.491.491 0 0 1 .067.255.514.514 0 0 1-.306.473.573.573 0 0 1 .306.2.525.525 0 0 1 .107.329.646.646 0 0 1-.069.289.585.585 0 0 1-.189.224.63.63 0 0 1-.3.1c-.073.007-.25.013-.53.015h-.742v-2.166zm.44.362v.5h.288q.257 0 .32-.007a.29.29 0 0 0 .178-.078.23.23 0 0 0 .064-.17.239.239 0 0 0-.055-.164.255.255 0 0 0-.166-.076q-.065-.008-.376-.008h-.253zm0 .866v.582h.407a1.982 1.982 0 0 0 .3-.013.272.272 0 0 0 .16-.087.268.268 0 0 0 .062-.185.286.286 0 0 0-.048-.167.267.267 0 0 0-.137-.1 1.5 1.5 0 0 0-.39-.031zm3.569.95H46.3l-.19-.5h-.871l-.18.5H44.6l.849-2.178h.465zm-.81-.862-.3-.809-.294.809zm2.786.862v-2.165h-.926a1.7 1.7 0 0 0-.491.053.486.486 0 0 0-.265.206.63.63 0 0 0-.1.353.6.6 0 0 0 .135.393.682.682 0 0 0 .44.212.977.977 0 0 0-.235.182 2.611 2.611 0 0 0-.251.355l-.266.425h.526l.318-.474a1.786 1.786 0 0 1 .292-.373.517.517 0 0 1 .296-.062h.089v.909h.44zm-.44-1.258h-.326a2.471 2.471 0 0 1-.36-.016.243.243 0 0 1-.146-.084.273.273 0 0 1-.057-.182.262.262 0 0 1 .059-.178.226.226 0 0 1 .142-.08 3.107 3.107 0 0 1 .344-.012h.343v.552zm2.584-.921h.44v.927a.291.291 0 0 0 .2-.076 1.545 1.545 0 0 0 .16-.339.914.914 0 0 1 .275-.44.856.856 0 0 1 .441-.086h.064v.325h-.062a.442.442 0 0 0-.2.033.251.251 0 0 0-.1.1 2.107 2.107 0 0 0-.114.281 1.049 1.049 0 0 1-.087.189.165.165 0 1 0 .077.31 2.28 2.28 0 0 1 .21.357l.3.6h-.517l-.26-.563-.025-.046c0-.008-.024-.042-.055-.1a.644.644 0 0 0-.139-.2.281.281 0 0 0-.165-.042v.954H50.9zm1.761 1.1a1.381 1.381 0 0 1 .1-.559 1.03 1.03 0 0 1 .2-.3.856.856 0 0 1 .281-.2 1.188 1.188 0 0 1 .47-.086 1.02 1.02 0 0 1 .77.3 1.333 1.333 0 0 1 0 1.656 1.017 1.017 0 0 1-.766.3 1.028 1.028 0 0 1-.773-.3 1.127 1.127 0 0 1-.28-.794zm.453-.015a.817.817 0 0 0 .171.561.588.588 0 0 0 .866 0 .834.834 0 0 0 .169-.568.823.823 0 0 0-.164-.559.609.609 0 0 0-.875 0 .821.821 0 0 0-.166.563zm2 1.091v-2.162h.659l.4 1.486.391-1.486h.659v2.178h-.408v-1.715l-.433 1.715h-.423l-.431-1.715v1.715zm2.547-2.178h1.732v2.178h-.44V167.1H58.1v1.813h-.44zm4.147 2.178h-.479l-.19-.5h-.87l-.18.5h-.467l.849-2.178h.465zm-.81-.862-.3-.809-.294.809zm1.044.862v-2.162h.44v.857h.862v-.857h.44v2.178h-.44v-.953h-.862v.953zm2.2-2.178h.412v1.45l.883-1.45h.438v2.178h-.412v-1.422l-.881 1.422h-.44zm3.926 2.178v-2.162h-.926a1.7 1.7 0 0 0-.491.053.486.486 0 0 0-.265.206.63.63 0 0 0-.1.353.6.6 0 0 0 .135.393.682.682 0 0 0 .44.212.985.985 0 0 0-.235.182 2.644 2.644 0 0 0-.251.355l-.266.425h.526l.318-.474a1.8 1.8 0 0 1 .291-.373.519.519 0 0 1 .294-.062h.089v.909h.44zm-.44-1.258h-.325a2.475 2.475 0 0 1-.361-.016.244.244 0 0 1-.146-.084.274.274 0 0 1-.057-.182.262.262 0 0 1 .059-.178.227.227 0 0 1 .142-.08 3.091 3.091 0 0 1 .344-.012h.344v.552z" transform="translate(-21.869 -117.376)"/>
    </g>
</svg>
