<svg width="20" height="27" viewBox="0 0 20 27" fill="none" xmlns="http://www.w3.org/2000/svg">
<path d="M18.3867 0.80664C18.3867 0.361145 18.7479 0 19.1934 0C19.6389 0 20 0.361145 20 0.806641V10H18.3867V0.80664Z" fill="#3698FF"/>
<path fill-rule="evenodd" clip-rule="evenodd" d="M20 8.84022C20 6.60984 18.1919 4.80176 15.9615 4.80176H4.03846C1.8081 4.80176 0 6.60984 0 8.84022V22.1601C0 24.3904 1.8081 26.1985 4.03846 26.1985H15.9615C18.1919 26.1985 20 24.3904 20 22.1601V8.84022Z" fill="#A5D0FF"/>
<path d="M7.68342 12.7237C7.28219 13.272 7.06675 13.9282 7.06706 14.601V17.8391L5.55995 18.8152C5.46046 18.8796 5.40039 18.99 5.40039 19.1086C5.40039 19.3017 5.55691 19.4582 5.74998 19.4582H15.1032C15.2673 19.4582 15.4004 19.3251 15.4004 19.1609C15.4004 19.0098 15.3238 18.8689 15.1969 18.7867L13.7337 17.8391V14.601C13.7344 13.9289 13.5198 13.2732 13.1196 12.7249C12.7194 12.1766 12.1535 11.7628 11.5004 11.541C11.5257 11.3868 11.5163 11.2291 11.4728 11.0788C11.4293 10.9285 11.3528 10.7892 11.2485 10.6704C11.1442 10.5516 11.0146 10.4562 10.8686 10.3908C10.7227 10.3254 10.5639 10.2915 10.4032 10.2915C10.2424 10.2915 10.0836 10.3254 9.93769 10.3908C9.79175 10.4562 9.66215 10.5516 9.55784 10.6704C9.45353 10.7892 9.37699 10.9285 9.3335 11.0788C9.29001 11.2291 9.28061 11.3868 9.30595 11.541C8.65176 11.7619 8.08465 12.1753 7.68342 12.7237Z" fill="#3698FF"/>
<path d="M9.98438 20.708H11.2344" stroke="#3698FF" stroke-width="1.5" stroke-linecap="round"/>
</svg>
