<svg width="15" height="15" viewBox="0 0 15 15" fill="none" xmlns="http://www.w3.org/2000/svg">
<rect x="0.75" y="0.75" width="13.5" height="13.5" rx="2.25" stroke="#A5A4B5" stroke-width="1.5"/>
<path d="M5.12067 8.32005L5.12066 8.32006L5.12138 8.32187C5.27525 8.70418 5.49093 9.02862 5.76903 9.29342C6.04682 9.55791 6.37881 9.75836 6.76348 9.89531C7.14814 10.0323 7.57246 10.1 8.03538 10.1C8.29957 10.1 8.5458 10.086 8.77391 10.0578C8.99982 10.0299 9.1989 9.9962 9.37072 9.95656C9.54037 9.91741 9.68372 9.87782 9.79994 9.83759L9.79997 9.83768L9.80401 9.83608C10.0006 9.75831 10.0744 9.54529 10.0093 9.35993L9.99597 9.32201C9.90391 9.05981 9.61073 8.93528 9.35614 9.01489C9.28587 9.03687 9.20899 9.05968 9.12545 9.08334C8.86427 9.15731 8.52972 9.19558 8.11918 9.19558C7.76941 9.19558 7.46614 9.14192 7.20734 9.03729C6.95344 8.93212 6.74284 8.7859 6.57368 8.59916C6.40375 8.40605 6.27383 8.17552 6.18465 7.90604C6.10132 7.63546 6.05903 7.33373 6.05903 7C6.05903 6.65597 6.10731 6.35001 6.2021 6.08083C6.30331 5.8055 6.44519 5.57493 6.6268 5.38721C6.80853 5.19937 7.02881 5.05528 7.28913 4.95522C7.54907 4.85532 7.8439 4.80442 8.17505 4.80442C8.3307 4.80442 8.48312 4.81774 8.63238 4.84431L8.63237 4.84439L8.63634 4.84493C8.79365 4.86647 8.93444 4.89591 9.05908 4.93289L9.05908 4.93289L9.06028 4.93323C9.19501 4.97139 9.31359 5.00931 9.41624 5.04693C9.58973 5.11051 9.80909 5.03814 9.88289 4.85046L9.96314 4.64639C10.0292 4.47846 9.96204 4.28387 9.78926 4.20698C9.68368 4.15999 9.54819 4.11429 9.38445 4.06943C9.22423 4.02383 9.0339 3.98443 8.81418 3.9509C8.59697 3.9168 8.35274 3.9 8.08194 3.9C7.64919 3.9 7.24051 3.96801 6.85659 4.10469C6.47226 4.24152 6.13477 4.44156 5.84518 4.70504C5.55475 4.96928 5.32348 5.29585 5.15076 5.68302L5.15076 5.68301L5.15042 5.68379C4.98259 6.06873 4.9 6.50816 4.9 7C4.9 7.49048 4.97284 7.93103 5.12067 8.32005Z" fill="#A5A4B5" stroke="#A3ACC6" stroke-width="0.2"/>
</svg>
