<svg width="29" height="29" viewBox="0 0 29 29" fill="none" xmlns="http://www.w3.org/2000/svg">
<g style="mix-blend-mode:luminosity">
<path d="M15.4805 11.1406V22.3831C15.4805 22.8507 15.1015 23.2303 14.6333 23.2303C14.1657 23.2303 13.7861 22.8507 13.7861 22.3831V11.1406C13.7861 10.6724 14.1657 10.2935 14.6333 10.2935C15.1015 10.2935 15.4805 10.6725 15.4805 11.1406Z" fill="#B9DCFF"/>
<path d="M15.481 11.1406V22.383C15.481 22.8507 15.102 23.2302 14.6338 23.2302V10.2935C15.102 10.2935 15.481 10.6724 15.481 11.1406Z" fill="#B9DCFF"/>
<path d="M25.7937 20.4745V22.3835C25.7937 22.8511 25.4147 23.2307 24.9465 23.2307C24.4788 23.2307 24.0993 22.8511 24.0993 22.3835V20.4745C24.0993 18.8949 22.8144 17.6094 21.2342 17.6094H7.69424C6.11458 17.6094 4.82913 18.8949 4.82913 20.4745V22.3835C4.82913 22.8511 4.45018 23.2307 3.98195 23.2307C3.51429 23.2307 3.13477 22.8511 3.13477 22.3835V20.4745C3.13477 17.9601 5.18039 15.915 7.69424 15.915H21.2342C23.7486 15.915 25.7937 17.9601 25.7937 20.4745Z" fill="#B9DCFF"/>
<path d="M25.7938 20.4745V22.3834C25.7938 22.8511 25.4148 23.2306 24.9466 23.2306C24.4789 23.2306 24.0994 22.8511 24.0994 22.3834V20.4745C24.0994 18.8948 22.8145 17.6094 21.2343 17.6094H14.6338V15.915H21.2343C23.7487 15.915 25.7938 17.96 25.7938 20.4745Z" fill="#B9DCFF"/>
<path d="M5.70741 21.5364H2.25604C1.01201 21.5364 0 22.5484 0 23.7924V26.4154C0 27.6593 1.01201 28.6713 2.25598 28.6713H5.70735C6.95127 28.6713 7.96328 27.6593 7.96328 26.4154V23.7924C7.96333 22.5484 6.95133 21.5364 5.70741 21.5364Z" fill="#4294FF"/>
<path d="M18.6137 23.7921V26.4154C18.6137 27.6591 17.6017 28.6711 16.358 28.6711H12.9067C11.6625 28.6711 10.6504 27.6591 10.6504 26.4154V23.7921C10.6504 22.5484 11.6625 21.5364 12.9067 21.5364H16.358C17.6017 21.5364 18.6137 22.5484 18.6137 23.7921Z" fill="#4294FF"/>
<path d="M26.636 21.5364H23.1846C21.9407 21.5364 20.9287 22.5484 20.9287 23.7924V26.4154C20.9287 27.6593 21.9407 28.6713 23.1846 28.6713H26.636C27.88 28.6713 28.892 27.6593 28.892 26.4154V23.7924C28.892 22.5484 27.88 21.5364 26.636 21.5364Z" fill="#4294FF"/>
<path d="M18.6155 23.7921V26.4154C18.6155 27.6591 17.6034 28.6711 16.3598 28.6711H14.6338V21.5364H16.3598C17.6034 21.5364 18.6155 22.5484 18.6155 23.7921Z" fill="#4294FF"/>
<path d="M8 6.5C8 2.91015 10.9101 0 14.5 0C18.0899 0 21 2.91015 21 6.5C21 10.0899 18.0899 13 14.5 13C10.9101 13 8 10.0899 8 6.5Z" fill="#B9DCFF"/>
<path d="M14.5 4L14.5 9" stroke="#4F8AFF" stroke-linecap="round"/>
<path d="M17 6.5L12 6.5" stroke="#4F8AFF" stroke-linecap="round"/>
</g>
</svg>