<svg width="14" height="16" viewBox="0 0 14 16" fill="none" xmlns="http://www.w3.org/2000/svg">
<path d="M5.25464 6.75567V11.7334C5.25464 11.8985 5.31594 12.0567 5.42505 12.1734C5.53417 12.2901 5.68215 12.3557 5.83646 12.3557C5.99077 12.3557 6.13876 12.2901 6.24787 12.1734C6.35698 12.0567 6.41828 11.8985 6.41828 11.7334V6.75567C6.41828 6.59065 6.35698 6.43238 6.24787 6.31569C6.13876 6.199 5.99077 6.13345 5.83646 6.13345C5.68215 6.13345 5.53417 6.199 5.42505 6.31569C5.31594 6.43238 5.25464 6.59065 5.25464 6.75567ZM8.16373 6.13345C8.31804 6.13345 8.46603 6.199 8.57514 6.31569C8.68425 6.43238 8.74555 6.59065 8.74555 6.75567V11.7334C8.74555 11.8985 8.68425 12.0567 8.57514 12.1734C8.46603 12.2901 8.31804 12.3557 8.16373 12.3557C8.00943 12.3557 7.86144 12.2901 7.75233 12.1734C7.64321 12.0567 7.58192 11.8985 7.58192 11.7334V6.75567C7.58192 6.59065 7.64321 6.43238 7.75233 6.31569C7.86144 6.199 8.00943 6.13345 8.16373 6.13345ZM9.32737 3.02234H12.8183C12.9726 3.02234 13.1206 3.08789 13.2297 3.20458C13.3388 3.32127 13.4001 3.47953 13.4001 3.64456C13.4001 3.80958 13.3388 3.96785 13.2297 4.08454C13.1206 4.20123 12.9726 4.26678 12.8183 4.26678H12.1748L11.2997 12.6991C11.2207 13.4602 10.882 14.1633 10.3485 14.6739C9.81495 15.1846 9.12408 15.4669 8.4081 15.4668H5.5921C4.87611 15.4669 4.18524 15.1846 3.65172 14.6739C3.1182 14.1633 2.77951 13.4602 2.70046 12.6991L1.82424 4.26678H1.18192C1.02761 4.26678 0.87962 4.20123 0.770508 4.08454C0.661396 3.96785 0.600098 3.80958 0.600098 3.64456C0.600098 3.47953 0.661396 3.32127 0.770508 3.20458C0.87962 3.08789 1.02761 3.02234 1.18192 3.02234H4.67282C4.67282 2.36224 4.91802 1.72918 5.35447 1.26243C5.79092 0.795669 6.38287 0.533447 7.0001 0.533447C7.61733 0.533447 8.20928 0.795669 8.64573 1.26243C9.08218 1.72918 9.32737 2.36224 9.32737 3.02234ZM7.0001 1.77789C6.69148 1.77789 6.39551 1.909 6.17728 2.14238C5.95906 2.37576 5.83646 2.69229 5.83646 3.02234H8.16373C8.16373 2.69229 8.04114 2.37576 7.82291 2.14238C7.60469 1.909 7.30871 1.77789 7.0001 1.77789ZM2.99602 4.26678L3.85712 12.5622C3.90465 13.0188 4.10791 13.4405 4.42801 13.7468C4.74812 14.0531 5.16258 14.2224 5.5921 14.2223H8.4081C8.83742 14.2221 9.25159 14.0527 9.57145 13.7464C9.89131 13.4401 10.0944 13.0186 10.1419 12.5622L11.0053 4.26678H2.99719H2.99602Z" fill="#FFA4A4"/>
</svg>
