<svg width="12" height="14" viewBox="0 0 12 14" fill="none" xmlns="http://www.w3.org/2000/svg">
<path d="M4.13237 2.95H1.45455C1.31911 2.95 1.19031 3.00922 1.09614 3.11281C1.00211 3.21624 0.95 3.35559 0.95 3.5C0.95 3.64441 1.00211 3.78376 1.09614 3.88719C1.19031 3.99078 1.31911 4.05 1.45455 4.05H1.91116L2.59116 10.781C2.65402 11.4035 2.92344 11.9796 3.349 12.3985C3.7747 12.8176 4.32686 13.0501 4.9 13.05H7.09999C7.67314 13.0501 8.2253 12.8176 8.651 12.3985C9.07656 11.9796 9.34598 11.4035 9.40884 10.781L10.0879 4.05H10.5455C10.6809 4.05 10.8097 3.99078 10.9039 3.88719C10.9979 3.78376 11.05 3.64441 11.05 3.5C11.05 3.35559 10.9979 3.21624 10.9039 3.11281C10.8097 3.00922 10.6809 2.95 10.5455 2.95H7.86763C7.85599 2.42583 7.66164 1.92505 7.32265 1.55215C6.97274 1.16726 6.49709 0.95 6 0.95C5.50291 0.95 5.02726 1.16726 4.67735 1.55215C4.33836 1.92505 4.14401 2.42583 4.13237 2.95ZM2.92712 4.05H9.07378L8.4048 10.661C8.36879 11.0167 8.21493 11.3444 7.97379 11.5819C7.73277 11.8193 7.42161 11.9498 7.09997 11.95H4.9C4.57821 11.9501 4.26683 11.8196 4.02563 11.5822C3.78431 11.3447 3.63032 11.0169 3.59429 10.661L2.92712 4.05ZM4.58636 6V10C4.58636 10.1444 4.63847 10.2838 4.7325 10.3872C4.82667 10.4908 4.95547 10.55 5.09091 10.55C5.22634 10.55 5.35515 10.4908 5.44932 10.3872C5.54335 10.2838 5.59545 10.1444 5.59545 10V6C5.59545 5.85559 5.54335 5.71624 5.44932 5.61281C5.35515 5.50922 5.22634 5.45 5.09091 5.45C4.95547 5.45 4.82667 5.50922 4.7325 5.61281C4.63847 5.71624 4.58636 5.85559 4.58636 6ZM7.2675 5.61281C7.17333 5.50922 7.04453 5.45 6.90909 5.45C6.77366 5.45 6.64485 5.50922 6.55068 5.61281C6.45665 5.71624 6.40455 5.85559 6.40455 6V10C6.40455 10.1444 6.45665 10.2838 6.55068 10.3872C6.64485 10.4908 6.77366 10.55 6.90909 10.55C7.04453 10.55 7.17333 10.4908 7.2675 10.3872C7.36153 10.2838 7.41364 10.1444 7.41364 10V6C7.41364 5.85559 7.36153 5.71624 7.2675 5.61281ZM5.39417 2.32653C5.55573 2.14881 5.77378 2.05 6 2.05C6.22622 2.05 6.44427 2.14881 6.60583 2.32653C6.75686 2.49266 6.8467 2.71491 6.8579 2.95H5.1421C5.1533 2.71491 5.24314 2.49266 5.39417 2.32653Z" fill="#B2B8D7" stroke="#B2B8D7" stroke-width="0.1"/>
</svg>