<svg width="14" height="14" viewBox="0 0 14 14" fill="none" xmlns="http://www.w3.org/2000/svg">
<path d="M6.25 2.2373H2.16667C1.85725 2.2373 1.5605 2.36022 1.34171 2.57901C1.12292 2.79781 1 3.09455 1 3.40397V11.5706C1 11.8801 1.12292 12.1768 1.34171 12.3956C1.5605 12.6144 1.85725 12.7373 2.16667 12.7373H10.3333C10.6428 12.7373 10.9395 12.6144 11.1583 12.3956C11.3771 12.1768 11.5 11.8801 11.5 11.5706V7.4873" stroke="#A3ACC6" stroke-width="1.5" stroke-linecap="round" stroke-linejoin="round"/>
<path d="M10.625 1.36244C10.8571 1.13037 11.1718 1 11.5 1C11.8282 1 12.1429 1.13037 12.375 1.36244C12.6071 1.5945 12.7374 1.90925 12.7374 2.23744C12.7374 2.56563 12.6071 2.88037 12.375 3.11244L6.83333 8.6541L4.5 9.23744L5.08333 6.9041L10.625 1.36244Z" stroke="#A3ACC6" stroke-width="1.5" stroke-linecap="round" stroke-linejoin="round"/>
</svg>
