<svg width="12" height="13" viewBox="0 0 12 13" fill="none" xmlns="http://www.w3.org/2000/svg">
<path d="M11.4466 1.4408L10.5626 0.549645C10.2058 0.197467 9.72468 0 9.22334 0C8.72201 0 8.24084 0.197467 7.88404 0.549645L0.631563 7.80828C0.532237 7.90221 0.467794 8.02711 0.448813 8.16249L0.00631358 11.2774C-0.00743559 11.3745 0.00134096 11.4734 0.0319636 11.5665C0.0625862 11.6596 0.114233 11.7444 0.182903 11.8144C0.252771 11.8835 0.337387 11.9358 0.430391 11.9674C0.523394 11.9991 0.622363 12.0092 0.719857 11.9971L3.83481 11.5485C3.97016 11.5279 4.09594 11.4662 4.19517 11.3719L11.4476 4.11326C11.623 3.93801 11.7621 3.72995 11.857 3.50094C11.9519 3.27193 12.0007 3.02646 12.0007 2.77857C12.0007 2.53068 11.9519 2.28521 11.857 2.0562C11.7621 1.82719 11.623 1.61913 11.4476 1.44388L11.4466 1.4408ZM3.44878 10.3288L1.37693 10.6255L1.67364 8.55365L7.44154 2.7796L9.21667 4.55473L3.44878 10.3288ZM10.5565 3.22107L10.114 3.66357L8.33886 1.88946L8.78136 1.44696C8.83914 1.38845 8.90795 1.34199 8.98383 1.31028C9.0597 1.27857 9.14111 1.26225 9.22334 1.26225C9.30558 1.26225 9.38699 1.27857 9.46286 1.31028C9.53873 1.34199 9.60755 1.38845 9.66533 1.44696L10.5565 2.33094C10.6151 2.3894 10.6616 2.45885 10.6933 2.53531C10.7251 2.61177 10.7414 2.69374 10.7414 2.77652C10.7414 2.8593 10.7251 2.94127 10.6933 3.01773C10.6616 3.09419 10.6151 3.16363 10.5565 3.2221V3.22107Z" fill="#B2B8D7"/>
</svg>