<svg width="17" height="17" viewBox="0 0 17 17" fill="none" xmlns="http://www.w3.org/2000/svg">
<path d="M15.6117 14.5394H8.58492C8.30787 14.5394 8.08301 14.3389 8.08301 14.0898C8.08301 13.8407 8.08301 5.34597 8.08301 5.09779C8.08301 4.84961 8.30787 4.64819 8.58492 4.64819H15.6117C15.8888 4.64819 16.1136 4.84961 16.1136 5.09779V14.0898C16.1136 14.3389 15.8888 14.5394 15.6117 14.5394Z" fill="#ECEFF1"/>
<path d="M13.6041 7.34598H8.58492C8.30787 7.34598 8.08301 7.14546 8.08301 6.89638C8.08301 6.6473 8.30787 6.44678 8.58492 6.44678H13.6041C13.8811 6.44678 14.106 6.6482 14.106 6.89638C14.106 7.14456 13.8811 7.34598 13.6041 7.34598Z" fill="#1976D2"/>
<path d="M13.6041 9.14432H8.58492C8.30787 9.14432 8.08301 8.9438 8.08301 8.69472C8.08301 8.44564 8.30787 8.24512 8.58492 8.24512H13.6041C13.8811 8.24512 14.106 8.44654 14.106 8.69472C14.106 8.9429 13.8811 9.14432 13.6041 9.14432Z" fill="#1976D2"/>
<path d="M13.6041 10.9429H8.58492C8.30787 10.9429 8.08301 10.7424 8.08301 10.4933C8.08301 10.2442 8.30787 10.0437 8.58492 10.0437H13.6041C13.8811 10.0437 14.106 10.2451 14.106 10.4933C14.106 10.7415 13.8811 10.9429 13.6041 10.9429Z" fill="#1976D2"/>
<path d="M13.6041 12.741H8.58492C8.30787 12.741 8.08301 12.5405 8.08301 12.2914C8.08301 12.0423 8.30787 11.8418 8.58492 11.8418H13.6041C13.8811 11.8418 14.106 12.0432 14.106 12.2914C14.106 12.5396 13.8811 12.741 13.6041 12.741Z" fill="#1976D2"/>
<path d="M8.90549 2.95416C8.79105 2.86783 8.63747 2.83186 8.49291 2.85794L0.462296 4.20674C0.225393 4.24631 0.0527344 4.43244 0.0527344 4.64825V14.5395C0.0527344 14.7553 0.224389 14.9414 0.462296 14.981L8.49291 16.3298C8.52403 16.3352 8.55415 16.3379 8.58527 16.3379C8.70171 16.3379 8.81514 16.3019 8.90549 16.2345C9.02093 16.149 9.08718 16.0223 9.08718 15.8883V3.29945C9.08718 3.16547 9.02093 3.03958 8.90549 2.95416Z" fill="#1565C0"/>
<path d="M6.57483 11.8923C6.54874 12.0982 6.36805 12.2628 6.13817 12.288C6.11709 12.2907 6.09701 12.2916 6.07593 12.2916C5.86914 12.2916 5.68042 12.1765 5.60614 12.0002L4.57019 9.52563L3.53424 12.0002C3.45393 12.1927 3.24313 12.3105 3.01024 12.2889C2.78237 12.2673 2.59968 12.109 2.56756 11.9049L2.06564 8.75771C2.02649 8.51313 2.21722 8.28473 2.49126 8.24966C2.76631 8.21369 3.02028 8.38544 3.05943 8.63092L3.28328 10.0373L4.0994 8.08691C4.24596 7.73622 4.89242 7.73622 5.03998 8.08691L5.80891 9.92308L6.07894 7.74521C6.11006 7.49883 6.36503 7.32168 6.63306 7.34776C6.90911 7.37654 7.10686 7.59864 7.07675 7.84502L6.57483 11.8923Z" fill="#FAFAFA"/>
</svg>
