<svg width="21" height="21" viewBox="0 0 21 21" fill="none" xmlns="http://www.w3.org/2000/svg">
<g style="mix-blend-mode:luminosity">
<rect x="2" y="1" width="17" height="11" fill="#3698FF"/>
<path d="M19.0909 0H1.9091C0.856181 0 0 0.856181 0 1.9091V19.0909C0 20.1438 0.856181 21 1.9091 21H19.0909C20.1438 21 21 20.1438 21 19.0909V1.9091C21 0.856181 20.1438 0 19.0909 0ZM16.5745 6.05493L13.8749 8.75448C13.7817 8.84768 13.6596 8.89431 13.5375 8.89431C13.4154 8.89431 13.2932 8.84768 13.2 8.75448C12.2519 7.8064 10.8431 7.49457 9.57702 7.7932L8.54803 5.52963C8.43989 5.29007 8.15746 5.18286 7.91602 5.29284C7.67597 5.40193 7.57019 5.6848 7.67923 5.92486L8.68195 8.1307C8.36391 8.29711 8.0605 8.49389 7.79995 8.75444C7.6135 8.94089 7.31148 8.94089 7.12508 8.75444L4.42552 6.05488C4.23907 5.86843 4.23907 5.56641 4.42552 5.38C6.04795 3.75713 8.20543 2.86363 10.5 2.86363C12.7946 2.86363 14.9521 3.75713 16.5745 5.38005C16.7609 5.56645 16.7609 5.86848 16.5745 6.05493Z" fill="#A7D2FF"/>
</g>
</svg>
