<svg version="1.2" xmlns="http://www.w3.org/2000/svg" viewBox="0 0 22 22" width="22" height="22">
	<title>fb-input-vision-bar-svg</title>
	<style>
		.s0 { opacity: .8;fill: #3698ff } 
		.s1 { opacity: .4;fill: #3698ff } 
	</style>
	<path id="Layer" class="s0" d="m21.1 11q0 0.2 0 0.4 0 0.2 0 0.3 0 0.2 0 0.3 0 0.3-0.1 0.5 0 0.3-0.1 0.5 0 0.3-0.1 0.5 0 0.2-0.1 0.4 0 0.1 0 0.1-0.1 0.2-0.2 0.4-0.1 0.4-0.2 0.7-0.1 0.1-0.1 0.3-0.1 0.1-0.2 0.3-0.1 0.1-0.2 0.3-0.1 0.3-0.3 0.6-0.1 0.1-0.2 0.2l-0.2 0.3q0 0 0 0-0.1 0.2-0.3 0.4-0.1 0.1-0.1 0.1-0.2 0.2-0.4 0.4-0.2 0.3-0.5 0.5-0.1 0.1-0.3 0.3 0 0 0 0-0.1 0.1-0.2 0.2-0.2 0.1-0.4 0.2-0.1 0.1-0.2 0.2-0.8 0.5-1.7 0.9-0.2 0.1-0.5 0.2-0.5 0.2-1 0.3-0.1 0.1-0.3 0.1-0.7 0.2-1.4 0.2-0.1 0-0.2 0-0.1 0-0.3 0-0.1 0-0.3 0.1-0.3 0-0.5-0.1c-1.7 0-3.4-0.6-4.8-1.4l0.3-0.4 1.3-2.3c1.1 0.6 2.4 1 3.7 1 3.9 0 7-3.1 7-7 0-3.9-3.1-7-7-7l0.1-3.1v-0.1c2.5 0.1 4.7 1 6.5 2.5q0.4 0.4 0.8 0.7 0.2 0.3 0.5 0.6 0.2 0.3 0.4 0.5 0 0.1 0.1 0.2 0 0 0 0 0.1 0.1 0.1 0.2 0 0 0 0 0.1 0.1 0.1 0.1 0.1 0.2 0.2 0.3 0.2 0.4 0.4 0.7l0.1 0.3q0 0 0 0.1 0.1 0.1 0.1 0.3 0.1 0.1 0.1 0.2 0.1 0.1 0.1 0.3 0.1 0.1 0.1 0.2 0.1 0.2 0.1 0.5 0.1 0.1 0.1 0.3 0 0.1 0.1 0.3 0 0 0 0.1 0 0 0 0 0 0.2 0 0.3 0.1 0.1 0.1 0.2 0 0.2 0 0.3 0 0.1 0 0.2 0 0.4 0 0.8z"/>
	<path id="Layer" class="s1" d="m7.3 17l-1.3 2.3-0.2 0.4h-0.1c-2.9-1.8-4.8-5-4.8-8.7 0-1.4 0.2-2.7 0.7-3.9l2.9 1.3q-0.5 1.2-0.5 2.6c0 2.5 1.3 4.8 3.3 6z"/>
	<path id="Layer" class="s1" d="m11.1 0.8v0.1l-0.1 3.1c-1.4 0-2.7 0.4-3.8 1.1l-0.7-1.2-0.4-0.6-0.4-0.7-0.1-0.1q0 0 0-0.1c1.5-1 3.4-1.6 5.4-1.6z"/>
	<path id="Layer" class="s1" d="m7.2 5.1c-1.2 0.8-2.2 1.9-2.7 3.3l-2.9-1.3c0.8-1.9 2.2-3.6 4-4.7v0.1l0.1 0.1 0.4 0.7 0.4 0.6z"/>
</svg>