<svg width="21" height="21" viewBox="0 0 21 21" fill="none" xmlns="http://www.w3.org/2000/svg">
<g style="mix-blend-mode:luminosity" clip-path="url(#clip0_48_17413)">
<path opacity="0.44" d="M19.1133 16.0781H16.6523C16.3126 16.0781 16.0371 15.8027 16.0371 15.4629V0.615234C16.0371 0.275461 16.3126 0 16.6523 0H19.1133C19.4531 0 19.7285 0.275461 19.7285 0.615234V15.4629C19.7285 15.8027 19.4531 16.0781 19.1133 16.0781Z" fill="#3698FF"/>
<path d="M14.1914 16.0781H11.7305C11.3907 16.0781 11.1152 15.8027 11.1152 15.4629V3.1582C11.1152 2.81843 11.3907 2.54297 11.7305 2.54297H14.1914C14.5312 2.54297 14.8066 2.81843 14.8066 3.1582V15.4629C14.8066 15.8027 14.5312 16.0781 14.1914 16.0781Z" fill="#3698FF" fill-opacity="0.8"/>
<path d="M9.26953 16.0781H6.80859C6.46882 16.0781 6.19336 15.8027 6.19336 15.4629V5.61914C6.19336 5.27937 6.46882 5.00391 6.80859 5.00391H9.26953C9.6093 5.00391 9.88477 5.27937 9.88477 5.61914V15.4629C9.88477 15.8027 9.6093 16.0781 9.26953 16.0781Z" fill="#3698FF" fill-opacity="0.8"/>
<path d="M4.34766 16.0781H1.88672C1.54695 16.0781 1.27148 15.8027 1.27148 15.4629V8.08008C1.27148 7.7403 1.54695 7.46484 1.88672 7.46484H4.34766C4.68743 7.46484 4.96289 7.7403 4.96289 8.08008V15.4629C4.96289 15.8027 4.68743 16.0781 4.34766 16.0781Z" fill="#3698FF" fill-opacity="0.8"/>
<path opacity="0.44" d="M9.88477 19.1543C9.88477 19.3647 9.90609 19.5706 9.9467 19.7695H0.615234C0.275625 19.7695 0 19.4939 0 19.1543C0 18.8147 0.275625 18.5391 0.615234 18.5391H9.9467C9.90609 18.738 9.88477 18.9439 9.88477 19.1543Z" fill="#3698FF"/>
<path opacity="0.44" d="M21.0004 19.1543C21.0004 19.4939 20.7248 19.7695 20.3852 19.7695H15.9756C16.0162 19.5706 16.0375 19.3647 16.0375 19.1543C16.0375 18.9439 16.0162 18.738 15.9756 18.5391H20.3852C20.7248 18.5391 21.0004 18.8147 21.0004 19.1543Z" fill="#3698FF"/>
<path d="M12.9609 21C11.9432 21 11.1152 20.172 11.1152 19.1543C11.1152 18.1366 11.9432 17.3086 12.9609 17.3086C13.9787 17.3086 14.8066 18.1366 14.8066 19.1543C14.8066 20.172 13.9787 21 12.9609 21Z" fill="#3698FF"/>
</g>
<defs>
<clipPath id="clip0_48_17413">
<rect width="21" height="21" fill="white"/>
</clipPath>
</defs>
</svg>
