<svg width="24" height="26" viewBox="0 0 24 26" fill="none" xmlns="http://www.w3.org/2000/svg">
<path d="M16 7L4 5.5L2 11.5L3.5 18.5L9.5 17.5L11 15.5L14 13L16 11.5V7Z" fill="#4F8AFF"/>
<path d="M18.1657 13.875C14.9754 13.875 12.3799 16.4705 12.3799 19.6608C12.3799 22.8511 14.9754 25.4466 18.1657 25.4466C21.3828 25.4466 24.0001 22.8511 24.0001 19.6608C24.0001 16.4705 21.3828 13.875 18.1657 13.875ZM19.9414 18.9608L17.9966 21.2946C17.8572 21.4619 17.6514 21.557 17.4364 21.557C17.4085 21.557 17.3804 21.5554 17.3523 21.5521C17.1078 21.5237 16.8941 21.374 16.784 21.1538L16.0061 19.598C15.826 19.2378 15.972 18.7996 16.3323 18.6196C16.6925 18.4393 17.1306 18.5854 17.3107 18.9457L17.59 19.5041L18.8209 18.027C19.0788 17.7176 19.5387 17.6759 19.848 17.9336C20.1575 18.1915 20.1993 18.6513 19.9414 18.9608Z" fill="#4F8AFF"/>
<path d="M17.8512 4.70796L14.8921 1.64786C14.8907 1.6464 14.8893 1.64489 14.8878 1.64343C14.2065 0.950595 13.2585 0.553223 12.2869 0.553223H2.89885C1.69243 0.553223 0.710938 1.53472 0.710938 2.74113V21.6544C0.710938 22.8608 1.69243 23.8423 2.89885 23.8423H12.2529C11.4145 22.6602 10.9212 21.2172 10.9212 19.6609C10.9212 15.6664 14.171 12.4165 18.1656 12.4165C18.4117 12.4165 18.6549 12.4289 18.8949 12.4527V7.26183C18.8949 6.30066 18.5243 5.39385 17.8512 4.70796ZM8.44155 16.841H4.55193C4.14916 16.841 3.82263 16.5144 3.82263 16.1117C3.82263 15.7089 4.14916 15.3824 4.55193 15.3824H8.44155C8.84431 15.3824 9.17085 15.7089 9.17085 16.1117C9.17085 16.5144 8.84431 16.841 8.44155 16.841ZM8.44155 12.9514H4.55193C4.14916 12.9514 3.82263 12.6248 3.82263 12.2221C3.82263 11.8193 4.14916 11.4928 4.55193 11.4928H8.44155C8.84431 11.4928 9.17085 11.8193 9.17085 12.2221C9.17085 12.6248 8.84431 12.9514 8.44155 12.9514ZM8.44155 9.06175H4.55193C4.14916 9.06175 3.82263 8.73522 3.82263 8.33245C3.82263 7.92968 4.14916 7.60315 4.55193 7.60315H8.44155C8.84431 7.60315 9.17085 7.92968 9.17085 8.33245C9.17085 8.73522 8.84431 9.06175 8.44155 9.06175ZM13.1091 12.9514H12.3312C11.9284 12.9514 11.6019 12.6248 11.6019 12.2221C11.6019 11.8193 11.9284 11.4928 12.3312 11.4928H13.1091C13.5119 11.4928 13.8384 11.8193 13.8384 12.2221C13.8384 12.6248 13.5119 12.9514 13.1091 12.9514ZM13.1091 9.06175H12.3312C11.9284 9.06175 11.6019 8.73522 11.6019 8.33245C11.6019 7.92968 11.9284 7.60315 12.3312 7.60315H13.1091C13.5119 7.60315 13.8384 7.92968 13.8384 8.33245C13.8384 8.73522 13.5119 9.06175 13.1091 9.06175Z" fill="#A5D0FF"/>
</svg>
