<svg width="17" height="19" viewBox="0 0 17 19" fill="none" xmlns="http://www.w3.org/2000/svg">
<path d="M15.4115 14.4709H13.6521L12.7751 12.0382C12.774 12.035 12.7729 12.0317 12.7717 12.0286L12.531 11.361C12.4138 11.036 12.1054 10.8195 11.76 10.8195H7.04006V8.18589H11.4126C11.8651 8.18589 12.232 7.81898 12.232 7.36641C12.232 6.91385 11.8651 6.54694 11.4126 6.54694H7.04006V4.6769C7.04006 4.22433 6.67315 3.85742 6.22058 3.85742C5.76801 3.85742 5.40111 4.22433 5.40111 4.6769V6.25182C2.31584 6.73509 0 9.37828 0 12.5855C0 16.1226 2.87756 19.0001 6.41463 19.0001C8.97413 19.0001 11.1875 17.4927 12.2158 15.3195L12.3055 15.5682C12.4226 15.8931 12.731 16.1097 13.0764 16.1097H15.4115C15.8641 16.1097 16.231 15.7428 16.231 15.2902C16.231 14.8377 15.8641 14.4709 15.4115 14.4709ZM11.1902 12.5856C11.1902 15.219 9.04788 17.3613 6.41463 17.3613C3.78128 17.3613 1.63895 15.219 1.63895 12.5856C1.63895 10.2882 3.23474 8.37961 5.40111 7.91787V11.6388C5.40111 12.0914 5.76801 12.4583 6.22058 12.4583H11.1843L11.1875 12.467C11.1883 12.5065 11.1902 12.5458 11.1902 12.5856Z" fill="#A5A4B5"/>
<path d="M6.24621 3.19836C7.12928 3.19836 7.84506 2.48224 7.84506 1.59885C7.84506 0.716331 7.12928 0 6.24621 0C5.36292 0 4.64648 0.716331 4.64648 1.59896C4.64648 2.48235 5.36292 3.19836 6.24621 3.19836Z" fill="#A5A4B5"/>
</svg>
