<svg width="25" height="26" viewBox="0 0 25 26" fill="none" xmlns="http://www.w3.org/2000/svg">
<path d="M15.2555 22.8857L9.30273 20.9724V17.611L15.2555 17.4235V22.8857Z" fill="#E8DAC5"/>
<path d="M9.30273 17.611V19.4272C10.3726 19.8941 11.5096 20.132 12.6889 20.132V17.611H9.30273Z" fill="#DBC6A9"/>
<path d="M9.30304 18.5018C8.55808 18.1362 7.88084 17.653 7.30096 17.0774C5.92532 15.7076 5.07031 13.8169 5.07031 11.7287V8.36732C5.07031 7.46397 5.23539 6.60682 5.52745 5.80431C5.54438 5.80851 5.56554 5.80851 5.58671 5.81271C5.72215 5.83372 5.86183 5.84632 6.00574 5.84632H12.6892V19.2917C11.4702 19.2917 10.3231 19.006 9.30304 18.5018Z" fill="#E8DAC5"/>
<path d="M12.6889 5.84631H6.00543C5.86152 5.84631 5.72184 5.8337 5.58639 5.81269C5.56523 5.80849 5.54406 5.80849 5.52713 5.80429C4.45202 5.61101 3.55892 4.78749 3.4023 3.69085C3.19913 2.25388 4.21922 1.01019 5.57792 0.829514C5.75993 1.3043 6.2213 1.64464 6.76309 1.64464H12.6889V5.84631Z" fill="#F4B34A"/>
<path d="M9.72594 11.3085C10.1935 11.3085 10.5725 10.9323 10.5725 10.4682C10.5725 10.0041 10.1935 9.62782 9.72594 9.62782C9.25841 9.62782 8.87939 10.0041 8.87939 10.4682C8.87939 10.9323 9.25841 11.3085 9.72594 11.3085Z" fill="#E8DAC5"/>
<path d="M5.0704 12.1488H4.22385C3.75825 12.1488 3.33498 11.9597 3.02599 11.6572C2.72123 11.3505 2.53076 10.9303 2.53076 10.4681C2.53076 9.53957 3.28842 8.78748 4.22385 8.78748H5.0704V12.1488Z" fill="#DBC6A9"/>
<path d="M9.72594 11.3085C10.1935 11.3085 10.5725 10.9323 10.5725 10.4682C10.5725 10.0041 10.1935 9.62782 9.72594 9.62782C9.25841 9.62782 8.87939 10.0041 8.87939 10.4682C8.87939 10.9323 9.25841 11.3085 9.72594 11.3085Z" fill="#6C253D"/>
<path d="M11.8276 17.6109V20.1319C13.007 20.1319 14.144 19.894 15.2138 19.4271V17.6109H11.8276Z" fill="#DBC6A9"/>
<path d="M11.8276 19.2917V18.4513V13.8295V10.4682V7.94716V5.84632H18.5111C18.655 5.84632 18.7947 5.83372 18.9301 5.81271C18.9513 5.80851 18.9725 5.80851 18.9894 5.80431C19.2815 6.60682 19.4465 7.46397 19.4465 8.36732V11.7287C19.4465 13.8169 18.5915 15.7076 17.2159 17.0774C16.636 17.653 15.9588 18.1362 15.2138 18.5018C14.1937 19.006 13.0467 19.2917 11.8276 19.2917Z" fill="#E8DAC5"/>
<path d="M11.8276 1.64513H18.5111C18.655 1.64513 18.7947 1.65773 18.9302 1.67874C18.9513 1.68294 18.9725 1.68294 18.9894 1.68714C20.0645 1.88042 20.9576 2.70395 21.1142 3.80058C21.3174 5.23755 20.2973 6.48125 18.9386 6.66192C18.7566 6.18713 18.2952 5.8468 17.7535 5.8468H11.8276V1.64513Z" fill="#F4B34A"/>
<path d="M14.7904 11.3084C15.2579 11.3084 15.6369 10.9322 15.6369 10.4681C15.6369 10.004 15.2579 9.62775 14.7904 9.62775C14.3229 9.62775 13.9438 10.004 13.9438 10.4681C13.9438 10.9322 14.3229 11.3084 14.7904 11.3084Z" fill="#E8DAC5"/>
<path d="M19.4458 8.78748H20.2923C21.2278 8.78748 21.9854 9.53957 21.9854 10.4681C21.9854 10.9303 21.795 11.3505 21.4902 11.6572C21.1812 11.9597 20.7579 12.1488 20.2923 12.1488H19.4458V8.78748Z" fill="#DBC6A9"/>
<path d="M14.7904 11.3084C15.2579 11.3084 15.6369 10.9322 15.6369 10.4681C15.6369 10.004 15.2579 9.62775 14.7904 9.62775C14.3229 9.62775 13.9438 10.004 13.9438 10.4681C13.9438 10.9322 14.3229 11.3084 14.7904 11.3084Z" fill="#6C253D"/>
<path d="M12.6895 20.7489H2.95419C1.55315 20.7489 0.414551 21.8792 0.414551 23.2699V25.3707H12.6895V20.7489Z" fill="#E58842"/>
<path d="M11.8276 25.3707H24.1025V23.2699C24.1025 21.8791 22.9639 20.7489 21.5629 20.7489H11.8276V25.3707Z" fill="#E58842"/>
</svg>
