<svg width="25" height="26" viewBox="0 0 25 26" fill="none" xmlns="http://www.w3.org/2000/svg">
<path d="M15.9309 25.4569C15.9298 25.2384 15.9288 25.3953 15.9309 25.4569V25.4569Z" fill="black"/>
<path d="M12.417 20.1518H3.02599C1.67451 20.1518 0.576172 21.2659 0.576172 22.6368V24.7077H12.417V20.1518Z" fill="#E58842"/>
<path d="M12.4173 22.2227L9.15088 20.1519V16.8385H12.4173V22.2227Z" fill="#E8DAC5"/>
<path d="M9.15088 16.8385V18.6287C10.1829 19.089 11.2797 19.3235 12.4173 19.3235V16.8385H9.15088Z" fill="#DBC6A9"/>
<path d="M9.15091 17.7165C8.43229 17.3562 7.77901 16.8799 7.21963 16.3124C5.89264 14.9622 5.06787 13.0984 5.06787 11.04V7.7266C5.06787 6.83612 5.22711 5.99121 5.50884 5.20013C5.52517 5.20428 5.54559 5.20428 5.566 5.20842C5.69666 5.22913 5.8314 5.24155 5.97022 5.24155H12.4173V18.4951C11.2414 18.4951 10.1349 18.2135 9.15091 17.7165Z" fill="#E8DAC5"/>
<path d="M12.4167 5.24153H5.96959C5.83076 5.24153 5.69602 5.22911 5.56537 5.2084C5.54495 5.20426 5.52454 5.20426 5.5082 5.20011C4.47111 5.00959 3.60959 4.19781 3.45852 3.11682C3.26253 1.70034 4.24655 0.474383 5.5572 0.296288C5.73277 0.764305 6.17782 1.09979 6.70045 1.09979H12.4167V5.24153Z" fill="#F4B34A"/>
<path d="M9.55928 10.6258C10.0103 10.6258 10.3759 10.2549 10.3759 9.79743C10.3759 9.33994 10.0103 8.96908 9.55928 8.96908C9.10828 8.96908 8.74268 9.33994 8.74268 9.79743C8.74268 10.2549 9.10828 10.6258 9.55928 10.6258Z" fill="#E8DAC5"/>
<path d="M5.06799 11.4541H4.25138C3.80225 11.4541 3.39394 11.2677 3.09588 10.9695C2.8019 10.6672 2.61816 10.253 2.61816 9.79741C2.61816 8.88208 3.34903 8.14071 4.25138 8.14071H5.06799V11.4541Z" fill="#DBC6A9"/>
<rect x="12" y="1" width="1" height="24" fill="#6C253D" fill-opacity="0.4"/>
<path d="M9.55928 10.6258C10.0103 10.6258 10.3759 10.2549 10.3759 9.79743C10.3759 9.33994 10.0103 8.96908 9.55928 8.96908C9.10828 8.96908 8.74268 9.33994 8.74268 9.79743C8.74268 10.2549 9.10828 10.6258 9.55928 10.6258Z" fill="#6C253D"/>
<path d="M18.9499 4.82736L15.2751 1.09978H12.417V24.7077H24.2578V23.051L21.3997 20.1518H16.9083V17.6668L19.7665 14.7675V8.9691H18.9499V4.82736Z" fill="#C8E3FF"/>
<path d="M18.0853 4.53637L15.1057 1.51393H12.4165V0.685585H15.4436L18.662 3.95032L18.0848 4.53586L18.0853 4.53637Z" fill="#3698FF"/>
<path d="M20.5831 9.38335H17.556L15.9228 7.72665H12.417V6.8983H16.2607L17.8939 8.555H20.5831V9.38335Z" fill="#3698FF"/>
<path d="M14.4585 10.6258H15.2751V16.8384H14.4585V10.6258Z" fill="#3698FF"/>
<path d="M17.3171 13.525H16.5005V11.4541H18.9503V12.2825H17.3171V13.525Z" fill="#3698FF"/>
<path d="M12.417 3.58488H14.0502V4.41323H12.417V3.58488Z" fill="#3698FF"/>
<path d="M12.417 19.7377H16.0917V20.5661H12.417V19.7377Z" fill="#3698FF"/>
<path d="M24.6666 24.7077H23.85V23.2224L21.687 21.0283L22.2643 20.4428L24.6661 22.8792V24.7072L24.6666 24.7077Z" fill="#3698FF"/>
<path d="M18.5415 23.8795H16.7394L15.1062 22.2228H12.417V21.3944H15.4441L17.0773 23.0511H18.5415V23.8795Z" fill="#3698FF"/>
<path d="M14.6274 24.7077H12.417V23.8793H14.2896L15.8034 22.3438L16.3806 22.9293L14.628 24.7072L14.6274 24.7077Z" fill="#3698FF"/>
<path d="M17.3168 18.081H15.6836V17.2526H16.5002V15.1817H17.3168V18.081Z" fill="#3698FF"/>
<path d="M18.5415 5.65575H19.3581V8.96914H18.5415V5.65575Z" fill="#3698FF"/>
<path d="M17.1978 17.9598L16.6206 17.3743L19.3593 14.5962V12.6967H20.1759V14.9389L17.1984 17.9593L17.1978 17.9598Z" fill="#3698FF"/>
<path d="M14.4585 4.82744H15.2751V7.31249H14.4585V4.82744Z" fill="#3698FF"/>
<path d="M22.6242 24.7077H21.8076V22.4655L22.7437 21.516L23.3209 22.1015L22.6237 22.8087V24.7082L22.6242 24.7077Z" fill="#3698FF"/>
<path d="M17.7256 19.7377H20.5837V20.5661H17.7256V19.7377Z" fill="#3698FF"/>
<path d="M12.417 12.6967H14.8668V13.5251H12.417V12.6967Z" fill="#3698FF"/>
<path d="M17.4856 10.6258H15.5732V9.79745H17.1478L17.3167 9.62609V8.9691H18.1333V9.96881L17.4856 10.6258Z" fill="#3698FF"/>
<path d="M16.5005 17.6668H17.3171V19.3235H16.5005V17.6668Z" fill="#3698FF"/>
<path d="M12.417 17.2526H14.0502V18.0809H12.417V17.2526Z" fill="#3698FF"/>
<path d="M18.9497 20.1519H19.7663V22.6369H18.9497V20.1519Z" fill="#3698FF"/>
<path d="M12.417 9.38329H14.0502V10.2116H12.417V9.38329Z" fill="#3698FF"/>
<path d="M18.9505 6.06993C18.2753 6.06993 17.7256 5.51235 17.7256 4.82741C17.7256 4.14247 18.2753 3.58488 18.9505 3.58488C19.6257 3.58488 20.1754 4.14247 20.1754 4.82741C20.1754 5.51235 19.6257 6.06993 18.9505 6.06993Z" fill="#3698FF"/>
<path d="M21.4002 10.2116C20.725 10.2116 20.1753 9.65401 20.1753 8.96907C20.1753 8.28413 20.725 7.72655 21.4002 7.72655C22.0754 7.72655 22.6251 8.28413 22.6251 8.96907C22.6251 9.65401 22.0754 10.2116 21.4002 10.2116Z" fill="#3698FF"/>
<path d="M19.7664 13.1109C19.0912 13.1109 18.5415 12.5533 18.5415 11.8684C18.5415 11.1834 19.0912 10.6258 19.7664 10.6258C20.4416 10.6258 20.9913 11.1834 20.9913 11.8684C20.9913 12.5533 20.4416 13.1109 19.7664 13.1109Z" fill="#3698FF"/>
<path d="M14.8675 18.9093C14.1923 18.9093 13.6426 18.3518 13.6426 17.6668C13.6426 16.9819 14.1923 16.4243 14.8675 16.4243C15.5427 16.4243 16.0924 16.9819 16.0924 17.6668C16.0924 18.3518 15.5427 18.9093 14.8675 18.9093Z" fill="#3698FF"/>
<path d="M16.9085 21.3944C16.2333 21.3944 15.6836 20.8368 15.6836 20.1519C15.6836 19.4669 16.2333 18.9093 16.9085 18.9093C17.5837 18.9093 18.1334 19.4669 18.1334 20.1519C18.1334 20.8368 17.5837 21.3944 16.9085 21.3944Z" fill="#3698FF"/>
<path d="M19.3582 24.7077C18.683 24.7077 18.1333 24.1502 18.1333 23.4652C18.1333 22.7803 18.683 22.2227 19.3582 22.2227C20.0334 22.2227 20.5831 22.7803 20.5831 23.4652C20.5831 24.1502 20.0334 24.7077 19.3582 24.7077Z" fill="#3698FF"/>
<path d="M21.4002 21.3944C20.725 21.3944 20.1753 20.8368 20.1753 20.1519C20.1753 19.4669 20.725 18.9093 21.4002 18.9093C22.0754 18.9093 22.6251 19.4669 22.6251 20.1519C22.6251 20.8368 22.0754 21.3944 21.4002 21.3944Z" fill="#3698FF"/>
<path d="M16.9085 15.5959C16.2333 15.5959 15.6836 15.0383 15.6836 14.3534C15.6836 13.6685 16.2333 13.1109 16.9085 13.1109C17.5837 13.1109 18.1334 13.6685 18.1334 14.3534C18.1334 15.0383 17.5837 15.5959 16.9085 15.5959Z" fill="#3698FF"/>
<path d="M14.8675 11.04C14.1923 11.04 13.6426 10.4824 13.6426 9.79743C13.6426 9.11249 14.1923 8.55491 14.8675 8.55491C15.5427 8.55491 16.0924 9.11249 16.0924 9.79743C16.0924 10.4824 15.5427 11.04 14.8675 11.04Z" fill="#3698FF"/>
<path d="M14.8675 5.24156C14.1923 5.24156 13.6426 4.68398 13.6426 3.99904C13.6426 3.3141 14.1923 2.75652 14.8675 2.75652C15.5427 2.75652 16.0924 3.3141 16.0924 3.99904C16.0924 4.68398 15.5427 5.24156 14.8675 5.24156Z" fill="#3698FF"/>
</svg>
