<svg width="100" height="100" viewBox="0 0 100 100" fill="none" xmlns="http://www.w3.org/2000/svg">
<path d="M77.4265 52.4111H89.1444V80.469H77.4265V52.4111Z" fill="#99A8FF"/>
<path d="M55.2356 52.4111H66.9543V80.469H55.2356V52.4111Z" fill="#99A8FF"/>
<path d="M33.0447 52.4111H44.7635V80.469H33.0447V52.4111Z" fill="#99A8FF"/>
<path d="M10.8547 52.4111H22.5727V80.469H10.8547V52.4111Z" fill="#99A8FF"/>
<path d="M93.0515 43.6221V40.6924H6.94843V43.6221C6.94843 45.2403 8.25992 46.5518 9.87811 46.5518H90.1218C91.7392 46.5518 93.0515 45.2403 93.0515 43.6221Z" fill="#A5B2FF" fill-opacity="0.49"/>
<path d="M97.0684 86.3281H2.93231C1.31412 86.3281 0.00262451 87.6396 0.00262451 89.2578V97.0703C0.00262451 98.6885 1.31412 100 2.93231 100H97.0684C98.6866 100 99.998 98.6885 99.998 97.0703V89.2578C99.998 87.6396 98.6866 86.3281 97.0684 86.3281Z" fill="#A5B2FF" fill-opacity="0.49"/>
<path d="M2.92943 34.8328H97.0701C98.3808 34.8328 99.5321 33.9622 99.8891 32.7011C100.245 31.44 99.722 30.0949 98.6059 29.4083L51.5355 0.434875C50.5941 -0.144958 49.4062 -0.144958 48.4639 0.434875L1.39363 29.4083C0.277448 30.0957 -0.245928 31.44 0.111128 32.7011C0.468183 33.9622 1.61946 34.8328 2.92943 34.8328Z" fill="#99A8FF"/>
</svg>
