<svg width="18" height="18" viewBox="0 0 18 18" fill="none" xmlns="http://www.w3.org/2000/svg">
<path d="M9.12499 0.25C10.8803 0.25 12.5962 0.770509 14.0557 1.74571C15.5152 2.7209 16.6527 4.10699 17.3244 5.72868C17.9961 7.35037 18.1719 9.13484 17.8295 10.8564C17.487 12.578 16.6418 14.1594 15.4006 15.4006C14.1594 16.6418 12.578 17.487 10.8564 17.8295C9.13484 18.1719 7.35037 17.9961 5.72868 17.3244C4.10699 16.6527 2.7209 15.5152 1.74571 14.0557C0.770509 12.5962 0.25 10.8803 0.25 9.12499C0.252745 6.77204 1.18867 4.51625 2.85246 2.85246C4.51625 1.18867 6.77204 0.252745 9.12499 0.25ZM9.12499 16.4045C10.5647 16.4045 11.9722 15.9775 13.1693 15.1777C14.3664 14.3778 15.2994 13.2409 15.8504 11.9107C16.4013 10.5806 16.5455 9.11692 16.2646 7.70484C15.9837 6.29275 15.2904 4.99567 14.2724 3.97762C13.2543 2.95956 11.9572 2.26626 10.5451 1.98538C9.13307 1.70449 7.6694 1.84866 6.33925 2.39963C5.0091 2.95059 3.8722 3.88362 3.07232 5.08072C2.27244 6.27783 1.8455 7.68525 1.8455 9.12499C1.84762 11.055 2.61524 12.9053 3.97995 14.27C5.34466 15.6347 7.195 16.4024 9.12499 16.4045Z" fill="#A5A4B5"/>
<path d="M9.30025 13.7852C9.08867 13.7852 8.88576 13.7012 8.73615 13.5516C8.58655 13.4019 8.5025 13.199 8.5025 12.9875V8.69316H7.89541C7.68383 8.69316 7.48092 8.60911 7.33131 8.4595C7.1817 8.3099 7.09766 8.10699 7.09766 7.89541C7.09766 7.68383 7.1817 7.48092 7.33131 7.33131C7.48092 7.1817 7.68383 7.09766 7.89541 7.09766H9.30025C9.51183 7.09766 9.71474 7.1817 9.86435 7.33131C10.014 7.48092 10.098 7.68383 10.098 7.89541V12.9875C10.098 13.199 10.014 13.4019 9.86435 13.5516C9.71474 13.7012 9.51183 13.7852 9.30025 13.7852Z" fill="#A5A4B5"/>
<path d="M11.2318 13.9617H7.36904C7.15746 13.9617 6.95455 13.8777 6.80494 13.728C6.65534 13.5784 6.57129 13.3755 6.57129 13.164C6.57129 12.9524 6.65534 12.7495 6.80494 12.5999C6.95455 12.4503 7.15746 12.3662 7.36904 12.3662H11.2318C11.4433 12.3662 11.6462 12.4503 11.7959 12.5999C11.9455 12.7495 12.0295 12.9524 12.0295 13.164C12.0295 13.3755 11.9455 13.5784 11.7959 13.728C11.6462 13.8777 11.4433 13.9617 11.2318 13.9617Z" fill="#A5A4B5"/>
<path d="M9.12498 3.94531C8.8992 3.94531 8.67849 4.01226 8.49076 4.1377C8.30303 4.26314 8.1567 4.44143 8.0703 4.65003C7.9839 4.85863 7.96129 5.08816 8.00533 5.30961C8.04938 5.53105 8.15811 5.73446 8.31776 5.89412C8.47741 6.05377 8.68082 6.1625 8.90227 6.20654C9.12371 6.25059 9.35325 6.22798 9.56185 6.14158C9.77045 6.05517 9.94874 5.90886 10.0742 5.72113C10.1996 5.5334 10.2666 5.31268 10.2666 5.0869C10.2666 4.78413 10.1463 4.49376 9.9322 4.27967C9.71812 4.06558 9.42775 3.94531 9.12498 3.94531Z" fill="#A5A4B5"/>
</svg>
