<svg width="95" height="95" viewBox="0 0 95 95" fill="none" xmlns="http://www.w3.org/2000/svg">
<path d="M85.1042 15.8335H47.5C47.2875 15.8335 47.0766 15.8669 46.8745 15.9324L46.3995 16.0907C45.3623 16.4358 44.8012 17.5563 45.1463 18.5933C45.1484 18.5996 45.1506 18.6058 45.1526 18.6121L65.0472 76.7482L51.9451 91.7186C51.226 92.5417 51.31 93.7921 52.1331 94.5113C52.4942 94.8269 52.9577 95.0006 53.4373 95H85.104C90.5695 95.0002 95 90.5697 95 85.1044V25.7295C95 20.264 90.5695 15.8335 85.1042 15.8335Z" fill="#A5B2FF" fill-opacity="0.49"/>
<path d="M69.0926 76.3684C68.7714 75.6622 68.0673 75.2087 67.2915 75.2085H47.5C46.4069 75.2085 45.5208 76.0947 45.5208 77.1877C45.5208 77.4256 45.5636 77.6616 45.6475 77.8845L51.585 93.7177C51.8301 94.3696 52.3999 94.8446 53.0851 94.9685C53.2015 94.9885 53.3193 94.9991 53.4375 95.0002C54.008 94.9997 54.5504 94.7529 54.9258 94.3233L68.78 78.4901C69.2915 77.9054 69.4138 77.0757 69.0926 76.3684Z" fill="#8595F0"/>
<path d="M85.1043 43.542H57.3958C56.3027 43.542 55.4166 42.6558 55.4166 41.5627C55.4166 40.4697 56.3027 39.5835 57.3958 39.5835H85.1041C86.1971 39.5835 87.0833 40.4697 87.0833 41.5627C87.0833 42.6558 86.1973 43.542 85.1043 43.542Z" fill="#8595F0"/>
<path d="M69.2708 43.5417C68.1777 43.5417 67.2916 42.6556 67.2916 41.5625V37.6042C67.2916 36.5112 68.1777 35.625 69.2708 35.625C70.3639 35.625 71.25 36.5112 71.25 37.6042V41.5625C71.25 42.6556 70.3639 43.5417 69.2708 43.5417Z" fill="#8595F0"/>
<path d="M63.3333 67.292C62.2402 67.291 61.3548 66.4041 61.3559 65.3111C61.3565 64.6722 61.6654 64.0729 62.1855 63.7018C70.8542 57.5426 77.1875 44.9866 77.1875 41.5627C77.1875 40.4697 78.0737 39.5835 79.1667 39.5835C80.2598 39.5835 81.146 40.4697 81.146 41.5627C81.146 46.7797 73.5183 60.5072 64.4814 66.9238C64.1462 67.1628 63.745 67.2916 63.3333 67.292Z" fill="#8595F0"/>
<path d="M79.1667 71.2498C78.6715 71.2504 78.1943 71.0654 77.8288 70.7312C76.3958 69.417 63.745 57.732 61.5006 52.2023C61.0885 51.189 61.576 50.0336 62.5892 49.6215C63.6025 49.2094 64.7579 49.6969 65.17 50.7101C66.7889 54.7001 76.7917 64.4059 80.5086 67.8062C81.3174 68.5414 81.3772 69.7931 80.642 70.6021C80.2644 71.0173 79.728 71.2528 79.1667 71.2498Z" fill="#8595F0"/>
<path d="M69.1639 76.5462L43.4349 1.33798C43.1608 0.537715 42.4084 0 41.5625 0H9.89577C4.43049 0 0 4.43049 0 9.89577V69.2708C0 74.7361 4.43049 79.1665 9.89577 79.1665H67.2915C68.3846 79.1665 69.2706 78.2804 69.2706 77.1873C69.2708 76.9693 69.2346 76.7526 69.1639 76.5462Z" fill="#99A8FF"/>
<path d="M37.6042 55.4171C36.7674 55.4173 36.0209 54.8911 35.7398 54.1029L27.7084 31.6117L19.6771 54.1029C19.2683 55.1167 18.1151 55.6071 17.1013 55.1984C16.1448 54.8128 15.6447 53.7572 15.9522 52.7729L25.848 25.0646C26.3321 24.0362 27.5583 23.5947 28.5868 24.0786C29.0201 24.2826 29.3687 24.6312 29.5728 25.0646L39.4686 52.7729C39.8371 53.7992 39.3061 54.9303 38.2811 55.3023C38.0636 55.3793 37.8347 55.4181 37.6042 55.4171Z" fill="#FAFAFA"/>
<path d="M31.6667 43.542H23.75C22.6569 43.542 21.7708 42.6558 21.7708 41.5627C21.7708 40.4697 22.6569 39.5835 23.75 39.5835H31.6667C32.7598 39.5835 33.6459 40.4697 33.6459 41.5627C33.6458 42.6558 32.7598 43.542 31.6667 43.542Z" fill="#FAFAFA"/>
</svg>
