<svg width="20" height="27" viewBox="0 0 20 27" fill="none" xmlns="http://www.w3.org/2000/svg">
<rect x="3" y="8" width="14" height="16" fill="#4F8AFF"/>
<path d="M13.0768 1.53846H12.1761C11.8583 0.643026 11.0027 0 9.99985 0C8.99698 0 8.14139 0.643026 7.82359 1.53846H6.92293C5.65041 1.53846 4.61523 2.57364 4.61523 3.84615C4.61523 4.27133 4.95929 4.61538 5.38447 4.61538H14.6152C15.0404 4.61538 15.3845 4.27133 15.3845 3.84615C15.3845 2.57364 14.3493 1.53846 13.0768 1.53846Z" fill="#4F8AFF"/>
<path d="M17.6923 3.07715H16.8452C16.8959 3.32582 16.9231 3.58299 16.9231 3.84638C16.9231 5.11889 15.8879 6.15407 14.6154 6.15407H5.38462C4.1121 6.15407 3.07692 5.11889 3.07692 3.84638C3.07692 3.58299 3.10405 3.32582 3.15477 3.07715H2.30769C1.03518 3.07715 0 4.11233 0 5.38484V23.9489C0 25.2215 1.03518 26.2566 2.30769 26.2566H17.6923C18.9648 26.2566 20 25.2215 20 23.9489V5.38484C20 4.11233 18.9648 3.07715 17.6923 3.07715ZM7.69231 21.5387H4.61538C4.19021 21.5387 3.84615 21.1946 3.84615 20.7695C3.84615 20.3443 4.19021 20.0002 4.61538 20.0002H7.69231C8.11749 20.0002 8.46154 20.3443 8.46154 20.7695C8.46154 21.1946 8.11749 21.5387 7.69231 21.5387ZM7.69231 16.1541H4.61538C4.19021 16.1541 3.84615 15.81 3.84615 15.3848C3.84615 14.9597 4.19021 14.6156 4.61538 14.6156H7.69231C8.11749 14.6156 8.46154 14.9597 8.46154 15.3848C8.46154 15.81 8.11749 16.1541 7.69231 16.1541ZM7.69231 10.7695H4.61538C4.19021 10.7695 3.84615 10.4254 3.84615 10.0002C3.84615 9.57505 4.19021 9.23099 4.61538 9.23099H7.69231C8.11749 9.23099 8.46154 9.57505 8.46154 10.0002C8.46154 10.4254 8.11749 10.7695 7.69231 10.7695ZM15.1592 21.7641C15.4597 22.0645 15.4597 22.5514 15.1592 22.8518C15.009 23.0021 14.8122 23.0772 14.6154 23.0772C14.4186 23.0772 14.2217 23.0021 14.0715 22.8518L13.0769 21.8572L12.0823 22.8518C11.9321 23.0021 11.7352 23.0772 11.5385 23.0772C11.3417 23.0772 11.1448 23.0021 10.9946 22.8518C10.6942 22.5514 10.6942 22.0645 10.9946 21.7641L11.9892 20.7695L10.9946 19.7748C10.6941 19.4744 10.6941 18.9876 10.9946 18.6871C11.295 18.3866 11.7818 18.3866 12.0823 18.6871L13.0769 19.6817L14.0715 18.6871C14.372 18.3866 14.8588 18.3866 15.1593 18.6871C15.4597 18.9876 15.4597 19.4744 15.1593 19.7748L14.1647 20.7695L15.1592 21.7641ZM15.9285 14.3902L13.6208 16.6979C13.4705 16.8482 13.2737 16.9233 13.0769 16.9233C12.8802 16.9233 12.6833 16.8482 12.5331 16.6979L10.9946 15.1595C10.6942 14.859 10.6942 14.3722 10.9946 14.0717C11.2951 13.7713 11.7819 13.7713 12.0824 14.0717L13.0769 15.0663L14.8408 13.3025C15.1412 13.002 15.6281 13.002 15.9285 13.3025C16.229 13.6029 16.229 14.0898 15.9285 14.3902ZM15.9285 9.77484L13.6208 12.0825C13.4705 12.2328 13.2737 12.3079 13.0769 12.3079C12.8802 12.3079 12.6833 12.2328 12.5331 12.0825L10.9946 10.5441C10.6942 10.2436 10.6942 9.75679 10.9946 9.45633C11.2951 9.15587 11.7819 9.15587 12.0824 9.45633L13.0769 10.4509L14.8408 8.6871C15.1412 8.38664 15.6281 8.38664 15.9285 8.6871C16.229 8.98756 16.229 9.47438 15.9285 9.77484Z" fill="#A5D0FF"/>
</svg>
