<svg width="16" height="17" viewBox="0 0 16 17" fill="none" xmlns="http://www.w3.org/2000/svg">
<path d="M15.25 8.5C15.25 12.5041 12.0041 15.75 8 15.75C3.99594 15.75 0.75 12.5041 0.75 8.5C0.75 4.49594 3.99594 1.25 8 1.25C12.0041 1.25 15.25 4.49594 15.25 8.5Z" stroke="#FDBC3D" stroke-width="1.5"/>
<path d="M5.67188 6.09967C5.85996 5.56501 6.2312 5.11416 6.71984 4.82698C7.20848 4.5398 7.78299 4.43482 8.34162 4.53064C8.90024 4.62646 9.40693 4.91689 9.77194 5.3505C10.1369 5.7841 10.3367 6.33289 10.3359 6.89967C10.3359 8.49967 7.93587 9.29967 7.93587 9.29967V10.5" stroke="#FDBC3D" stroke-width="1.5"/>
<path d="M8 11.5V12.5" stroke="#FDBC3D" stroke-width="1.5"/>
</svg>
