<svg width="103" height="66" viewBox="0 0 103 66" fill="none" xmlns="http://www.w3.org/2000/svg">
<path d="M48.4031 53.4246L48.1014 53.1724C47.2205 52.4365 46.084 52.0795 44.9406 52.1794C43.7971 52.2793 42.7398 52.8281 42 53.7057L43.4468 51.9716C44.1827 51.0907 44.5398 49.9543 44.4398 48.8108C44.3399 47.6674 43.7911 46.61 42.9135 45.8702L42.6118 45.6181C41.7309 44.8821 40.5945 44.5251 39.451 44.625C38.3075 44.7249 37.2502 45.2737 36.5104 46.1513C36.6179 46.0232 36.7274 45.9136 36.8349 45.7834L37.9613 44.4193C38.3273 43.9853 38.6038 43.4831 38.7747 42.9418C38.9457 42.4004 39.0078 41.8306 38.9574 41.2651C38.9071 40.6996 38.7453 40.1497 38.4814 39.6471C38.2175 39.1444 37.8567 38.699 37.4198 38.3365L37.116 38.0761C36.682 37.7101 36.1798 37.4336 35.6385 37.2627C35.0971 37.0917 34.5273 37.0296 33.9618 37.08C33.3963 37.1303 32.8464 37.2921 32.3438 37.556C31.8412 37.8199 31.3957 38.1807 31.0332 38.6176L29.5595 40.3496C30.2984 39.4704 30.6587 38.3341 30.5615 37.1897C30.4643 36.0453 29.9174 34.9861 29.0408 34.2441L28.7369 33.9837C28.3008 33.6176 27.7968 33.3411 27.2536 33.1701C26.7105 32.9992 26.139 32.9371 25.5718 32.9874C25.0046 33.0377 24.4529 33.1994 23.9484 33.4633C23.4438 33.7272 22.9963 34.088 22.6314 34.5252L17.3402 40.8374C17.2537 40.94 17.1743 41.0484 17.1025 41.1619C16.4842 42.0473 16.2191 43.1318 16.3595 44.2026C16.4998 45.2734 17.0354 46.253 17.8611 46.9491L18.1628 47.2095C19.0451 47.9464 20.1836 48.3033 21.3286 48.2017C22.4736 48.1002 23.5316 47.5486 24.2704 46.668C23.5346 47.5498 23.1782 48.6872 23.2793 49.8312C23.3804 50.9752 23.9308 52.0325 24.8099 52.7715L25.1137 53.0092C25.9898 53.7464 27.1226 54.1058 28.2635 54.0085C29.4043 53.9112 30.4599 53.3652 31.1986 52.4904L31.211 52.4759C30.8453 52.9113 30.5691 53.4145 30.398 53.9568C30.2269 54.499 30.1643 55.0696 30.2138 55.6361C30.2634 56.2025 30.424 56.7536 30.6866 57.2579C30.9492 57.7622 31.3086 58.2099 31.7442 58.5752L32.046 58.8295C32.9271 59.5651 34.0637 59.9218 35.2072 59.8215C36.3507 59.7212 37.4078 59.172 38.1474 58.2941C37.4114 59.175 37.0544 60.3115 37.1543 61.4549C37.2542 62.5984 37.803 63.6557 38.6806 64.3955L38.9824 64.6497C39.8632 65.3857 40.9997 65.7427 42.1432 65.6428C43.2866 65.5429 44.3439 64.9941 45.0838 64.1165L48.9385 59.5219C49.6729 58.641 50.0288 57.5053 49.9285 56.3628C49.8282 55.2204 49.2798 54.164 48.4031 53.4246Z" fill="#99A8FF"/>
<path d="M71.8723 12.3581C71.51 11.7089 71.2374 11.0136 71.0621 10.2912C69.3536 9.68221 67.5536 9.36975 65.7399 9.36731H58.5968C55.579 9.36614 52.6222 10.2173 50.0669 11.8227L40.396 17.8952C39.5249 18.4391 38.8895 19.2901 38.6156 20.2799C38.3417 21.2696 38.4491 22.3262 38.9167 23.2406C39.3843 24.1549 40.178 24.8606 41.1408 25.218C42.1036 25.5753 43.1654 25.5584 44.1164 25.1706L62.8132 17.7298L82.2417 34.3268C82.6551 34.0105 83.2049 33.5496 83.8043 33.0184L71.8723 12.3581Z" fill="#99A8FF"/>
<path d="M81.4246 2.06687L76.9624 4.64322C74.9853 5.78472 74.3079 8.31282 75.4494 10.2899L88.5441 32.9698C89.6856 34.9468 92.2137 35.6242 94.1907 34.4827L98.653 31.9064C100.63 30.7649 101.307 28.2368 100.166 26.2597L87.0713 3.57982C85.9298 1.60274 83.4017 0.925375 81.4246 2.06687Z" fill="#99A8FF"/>
<path d="M15.1615 3.58247L2.06686 26.2624C0.925367 28.2394 1.60273 30.7675 3.57981 31.909L8.04204 34.4854C10.0191 35.6269 12.5472 34.9495 13.6887 32.9724L26.7833 10.2925C27.9248 8.31547 27.2475 5.78737 25.2704 4.64587L20.8082 2.06953C18.8311 0.928031 16.303 1.6054 15.1615 3.58247Z" fill="#99A8FF"/>
<path d="M75.7599 46.3518L76.8264 47.3439C77.6601 48.0614 78.7235 48.4559 79.8234 48.4559C80.9233 48.4559 81.9867 48.0614 82.8204 47.3439C83.3212 46.9128 83.7231 46.3786 83.9986 45.778C84.2741 45.1773 84.4167 44.5242 84.4167 43.8633C84.4167 43.2025 84.2741 42.5494 83.9986 41.9487C83.7231 41.348 83.3212 40.8139 82.8204 40.3827L63.5613 23.7982L62.0277 22.4899L45.6602 29.0026C43.7519 29.7719 41.6249 29.7991 39.6975 29.079C37.7702 28.3588 36.1822 26.9434 35.246 25.1112C34.3099 23.279 34.0933 21.1628 34.639 19.179C35.1847 17.1952 36.4531 15.4875 38.1947 14.3919L46.7639 9.01807L37.1964 7.82548C35.2798 7.59461 33.3387 7.67136 31.4464 8.05284C31.4899 9.56238 31.1151 11.0546 30.3633 12.3643L18.2908 33.2727L19.4772 31.8569C20.9198 30.1379 22.9853 29.0614 25.2206 28.8634C27.456 28.6654 29.6786 29.3621 31.4009 30.8008L31.7399 31.0901C32.3826 31.6318 32.94 32.2673 33.3934 32.9751C34.5367 32.8429 35.695 32.9462 36.7969 33.2785C37.8988 33.6109 38.9211 34.1653 39.8006 34.9076L40.1313 35.1908C40.9783 35.901 41.676 36.7721 42.1841 37.7538C42.6921 38.7355 43.0004 39.8082 43.0911 40.9098C43.0911 40.9842 43.1035 41.0565 43.1076 41.1289C43.8941 41.458 44.6265 41.904 45.2799 42.4517L45.5775 42.7038C46.4596 43.4425 47.1813 44.3539 47.6981 45.3818C48.2149 46.4098 48.516 47.5326 48.5827 48.6812C49.3715 49.0093 50.1055 49.4561 50.7591 50.0061L51.0671 50.2644C52.7244 51.6493 53.7847 53.6193 54.0279 55.7653C54.2712 57.9113 53.6786 60.0686 52.3734 61.7892L53.3076 62.6408C53.7465 63.0449 54.2613 63.3578 54.822 63.5616C55.3827 63.7653 55.9783 63.8557 56.5742 63.8277C57.1702 63.7996 57.7546 63.6536 58.2937 63.398C58.8328 63.1425 59.3159 62.7826 59.7149 62.339C60.5157 61.4487 60.9329 60.2784 60.876 59.0822C60.8192 57.8861 60.2927 56.7607 59.411 55.9504L60.8578 57.2732C61.2967 57.6742 61.8103 57.9848 62.3693 58.1874C62.9282 58.3899 63.5216 58.4804 64.1155 58.4536C64.7094 58.4268 65.2923 58.2834 65.8307 58.0313C66.3692 57.7793 66.8527 57.4237 67.2538 56.9848C67.6548 56.5459 67.9654 56.0323 68.168 55.4734C68.3705 54.9144 68.461 54.3211 68.4342 53.7272C68.4075 53.1332 68.264 52.5504 68.0119 52.0119C67.7599 51.4735 67.4043 50.9899 66.9654 50.5889L69.6524 53.0381C70.5425 53.8261 71.7068 54.2325 72.8939 54.1695C74.081 54.1065 75.1958 53.5792 75.9975 52.7015C76.7993 51.8238 77.2238 50.666 77.1793 49.478C77.1349 48.29 76.6251 47.1672 75.7599 46.3518Z" fill="#A5B2FF" fill-opacity="0.49"/>
</svg>
