<svg width="26" height="25" viewBox="0 0 26 25" fill="none" xmlns="http://www.w3.org/2000/svg">
<g clip-path="url(#clip0_131_1352)">
<path d="M26 24.5657C25.8007 24.92 25.4842 25.0011 25.0888 25C22.6014 24.9893 20.114 24.9947 17.6276 24.9947C16.9946 24.9947 16.7755 24.7802 16.7755 24.1624C16.7755 23.042 16.7755 21.9206 16.7755 20.8003C16.7766 19.4078 17.4557 18.551 18.8084 18.0997C19.3889 17.9055 19.816 17.9652 20.2344 18.4102C20.5806 18.7783 20.9924 19.0888 21.39 19.4377C21.8566 19.028 22.3221 18.6353 22.7667 18.2224C23.0428 17.9663 23.3221 17.914 23.6912 18.0228C24.3746 18.2245 25.011 18.4763 25.4644 19.0514C25.7503 19.4142 25.8785 19.8346 26 20.2625V24.5657Z" fill="#B9DCFF"/>
<path d="M4.61118 19.4389C5.08982 19.0175 5.55422 18.6206 6.00329 18.2087C6.26397 17.9697 6.5356 17.9025 6.88281 18.0156C7.35597 18.1692 7.8379 18.294 8.23659 18.6088C8.91457 19.1434 9.22125 19.8476 9.22454 20.6841C9.23001 21.8792 9.22892 23.0742 9.22454 24.2693C9.22344 24.7505 8.96934 24.9938 8.46879 24.9938C5.89705 24.9959 3.3253 24.9959 0.754659 24.9938C0.244253 24.9938 0.00328958 24.7473 0.00219429 24.2437C0.00219429 23.0657 3.71411e-06 21.8867 0.00219429 20.7087C0.00438487 19.4315 0.708657 18.5085 1.95729 18.1351C2.85323 17.8672 2.78642 17.8246 3.52136 18.4786C3.87733 18.7955 4.23549 19.1092 4.61118 19.44V19.4389Z" fill="#B9DCFF"/>
<path d="M13.0296 12.1193C11.8029 12.1193 10.5762 12.1193 9.34944 12.1193C8.58492 12.1193 8.2421 11.7917 8.24538 11.0534C8.24977 9.94155 8.23443 8.82759 8.27934 7.71684C8.31548 6.82588 9.07781 6.05444 9.97923 5.90719C10.2881 5.85704 10.6014 5.82716 10.9037 5.75354C11.1764 5.68632 11.2881 5.79515 11.3724 6.02456C11.8084 7.20894 12.2541 8.39119 12.6966 9.57343C12.7109 9.61184 12.7164 9.65879 12.7426 9.6876C12.8325 9.7847 12.9168 9.92981 13.0263 9.95435C13.2005 9.9917 13.2717 9.83058 13.3275 9.68227C13.7733 8.48295 14.2235 7.28576 14.6725 6.08751C14.8149 5.70766 14.8149 5.70339 15.2125 5.76635C15.6046 5.82823 16.0088 5.85597 16.3823 5.97655C17.2782 6.26464 17.8116 7.05636 17.8171 8.03801C17.8226 9.06874 17.8215 10.0984 17.8171 11.1291C17.8149 11.7576 17.4568 12.114 16.8127 12.1172C15.5521 12.1236 14.2914 12.1193 13.0307 12.1193H13.0296Z" fill="#4F8AFF"/>
<path d="M7.22456 14.9903C7.23223 16.3913 6.06137 17.5436 4.62325 17.5479C3.19061 17.5532 2.00003 16.4073 1.99017 15.0127C1.98032 13.633 3.17747 12.4561 4.59915 12.4497C6.02741 12.4433 7.2169 13.5936 7.22456 14.9903Z" fill="#B9DCFF"/>
<path d="M21.3856 17.5479C19.9475 17.5468 18.7733 16.3998 18.7755 14.9977C18.7777 13.6021 19.965 12.4465 21.3933 12.4497C22.8149 12.4518 24.0132 13.6224 24.011 15.0052C24.0077 16.3966 22.8182 17.5489 21.3867 17.5479H21.3856Z" fill="#B9DCFF"/>
<path d="M13.0209 4.78127C11.6846 4.777 10.5597 3.67051 10.574 2.37623C10.5871 1.08302 11.7043 0.00213712 13.0296 3.10259e-06C14.3615 -0.00213091 15.4886 1.09689 15.4875 2.39757C15.4864 3.69932 14.3615 4.7866 13.0209 4.78233V4.78127Z" fill="#4F8AFF"/>
<path d="M2.56512 8.28738C2.67356 7.8243 2.76009 7.37189 2.88714 6.93121C3.14125 6.04666 3.58922 5.25921 4.19711 4.55925C4.47312 4.24128 4.88714 4.1794 5.18287 4.41307C5.48407 4.65102 5.51803 5.05648 5.23873 5.38085C4.55308 6.1779 4.14125 7.0902 3.98024 8.11452C3.97367 8.154 3.97367 8.19348 3.97367 8.18495C4.19601 8.26604 4.4085 8.31512 4.58484 8.42182C4.68342 8.48158 4.77542 8.63629 4.77542 8.74833C4.77542 8.94146 4.7557 9.173 4.64618 9.31811C4.37235 9.68196 4.05143 10.0138 3.73489 10.3456C3.43588 10.6593 3.01529 10.6519 2.7108 10.3307C2.42383 10.0287 2.15001 9.71397 1.8729 9.40347C1.63084 9.13245 1.58374 8.82835 1.73818 8.56587C1.89043 8.30872 2.17958 8.20949 2.56512 8.28845V8.28738Z" fill="#4F8AFF"/>
<path d="M23.4972 8.28296C24.173 8.1101 24.6089 8.7247 24.3614 9.08855C24.0054 9.61245 23.5388 10.0755 23.0657 10.5087C22.8641 10.6933 22.529 10.5653 22.3022 10.3209C22.0076 10.003 21.7196 9.67967 21.4315 9.35637C21.2278 9.12803 21.1905 8.86661 21.3252 8.59986C21.4534 8.34698 21.6856 8.24134 21.9726 8.24988C22.0043 8.24988 22.0372 8.24988 22.0919 8.24988C22.0361 7.67796 21.8959 7.13699 21.6319 6.64083C21.4041 6.21296 21.1193 5.81177 20.84 5.41164C20.7119 5.22705 20.61 5.04886 20.6462 4.82158C20.6867 4.5623 20.8357 4.37451 21.093 4.30408C21.3723 4.22726 21.6308 4.28808 21.828 4.51215C22.4348 5.2025 22.8893 5.97822 23.1533 6.84996C23.2935 7.31305 23.3833 7.79107 23.5005 8.28296H23.4972Z" fill="#4F8AFF"/>
<path d="M13.0001 8.74426C12.8237 8.41989 12.62 8.11793 12.6233 7.74875C12.6255 7.55242 12.6539 7.35395 12.6956 7.16189C12.7766 6.78951 12.7361 6.46407 12.4699 6.15464C12.2848 5.9391 12.4097 5.70542 12.6956 5.68302C12.9048 5.66701 13.1184 5.66701 13.3286 5.68622C13.5532 5.70649 13.7076 5.92736 13.5762 6.06501C13.0789 6.59104 13.3549 7.17683 13.3757 7.74875C13.3889 8.11793 13.1764 8.41989 13.0001 8.74426Z" fill="#4F8AFF"/>
</g>
<defs>
<clipPath id="clip0_131_1352">
<rect width="26" height="25" fill="white"/>
</clipPath>
</defs>
</svg>
