<svg width="24" height="22" viewBox="0 0 24 22" fill="none" xmlns="http://www.w3.org/2000/svg">
<path d="M20.5355 11.812H18.6794C18.8686 12.33 18.972 12.889 18.972 13.4716V20.4864C18.972 20.7293 18.9297 20.9625 18.8528 21.1793H21.9213C23.0675 21.1793 24 20.2468 24 19.1006V15.2765C24 13.3662 22.4459 11.812 20.5355 11.812Z" fill="#B9DCFF"/>
<path d="M5.02805 13.4716C5.02805 12.8889 5.13141 12.33 5.32059 11.812H3.46453C1.55419 11.812 0 13.3662 0 15.2765V19.1007C0 20.2468 0.932485 21.1794 2.07872 21.1794H5.14725C5.07033 20.9624 5.02805 20.7293 5.02805 20.4864V13.4716Z" fill="#B9DCFF"/>
<path d="M14.1216 10.0073H9.87841C7.96807 10.0073 6.41388 11.5615 6.41388 13.4719V20.4867C6.41388 20.8693 6.7241 21.1796 7.10679 21.1796H16.8933C17.2759 21.1796 17.5862 20.8694 17.5862 20.4867V13.4719C17.5862 11.5615 16.032 10.0073 14.1216 10.0073Z" fill="#4F8AFF"/>
<path d="M12 0.820801C9.70259 0.820801 7.8335 2.68989 7.8335 4.98738C7.8335 6.54574 8.69361 7.90675 9.96382 8.62132C10.5663 8.96022 11.2609 9.15391 12 9.15391C12.7392 9.15391 13.4337 8.96022 14.0362 8.62132C15.3065 7.90675 16.1666 6.54569 16.1666 4.98738C16.1666 2.68994 14.2975 0.820801 12 0.820801Z" fill="#4F8AFF"/>
<path d="M4.68364 4.70459C2.96544 4.70459 1.56763 6.1024 1.56763 7.82061C1.56763 9.53881 2.96544 10.9366 4.68364 10.9366C5.11949 10.9366 5.53452 10.8463 5.91153 10.6841C6.56338 10.4034 7.10085 9.90664 7.43342 9.28437C7.66686 8.84764 7.79966 8.3494 7.79966 7.82061C7.79966 6.10245 6.40185 4.70459 4.68364 4.70459Z" fill="#B9DCFF"/>
<path d="M19.3164 4.70459C17.5982 4.70459 16.2004 6.1024 16.2004 7.82061C16.2004 8.34945 16.3332 8.84768 16.5666 9.28437C16.8992 9.90668 17.4367 10.4035 18.0885 10.6841C18.4655 10.8463 18.8806 10.9366 19.3164 10.9366C21.0346 10.9366 22.4324 9.53881 22.4324 7.82061C22.4324 6.1024 21.0346 4.70459 19.3164 4.70459Z" fill="#B9DCFF"/>
</svg>
