<svg width="25" height="29" viewBox="0 0 25 29" fill="none" xmlns="http://www.w3.org/2000/svg">
<path d="M4.69995 12V18.5" stroke="#B9DCFF"/>
<path d="M4.60995 22.5879C5.0886 22.1664 5.553 21.7695 6.00207 21.3576C6.26275 21.1186 6.53438 21.0514 6.88159 21.1645C7.35475 21.3181 7.83668 21.443 8.23536 21.7577C8.91335 22.2923 9.22003 22.9965 9.22332 23.8331C9.22879 25.0281 9.2277 26.2232 9.22332 27.4182C9.22222 27.8994 8.96811 28.1427 8.46757 28.1427C5.89583 28.1449 3.32408 28.1449 0.753438 28.1427C0.243033 28.1427 0.00206888 27.8962 0.000973591 27.3926C0.000973591 26.2146 -0.00121699 25.0356 0.000973591 23.8576C0.00316417 22.5804 0.707436 21.6574 1.95607 21.284C2.85201 21.0162 2.7852 20.9735 3.52014 21.6276C3.87611 21.9445 4.23427 22.2582 4.60995 22.5889V22.5879Z" fill="#B9DCFF"/>
<path d="M7.22334 18.5406C7.23101 19.9416 6.06015 21.0939 4.62203 21.0982C3.18939 21.1035 1.99881 19.9576 1.98895 18.563C1.97909 17.1833 3.17625 16.0064 4.59793 16C6.02619 15.9936 7.21568 17.1439 7.22334 18.5406Z" fill="#B9DCFF"/>
<path d="M9.22453 12.116C9.02519 12.4703 8.70865 12.5514 8.31325 12.5503C5.82585 12.5396 3.33844 12.545 0.852136 12.545C0.219058 12.545 0 12.3305 0 11.7127C0 10.5923 0 9.47091 0 8.35055C0.00109529 6.9581 0.680175 6.1013 2.03286 5.64995C2.61336 5.45576 3.04053 5.51551 3.45893 5.96045C3.80504 6.32857 4.21687 6.63907 4.61446 6.98798C5.08105 6.57825 5.54655 6.18559 5.99124 5.77266C6.26725 5.51657 6.54655 5.46429 6.91566 5.57313C7.59912 5.77479 8.23549 6.0266 8.68894 6.60172C8.97481 6.96451 9.10296 7.38491 9.22453 7.81278V12.116Z" fill="#B9DCFF"/>
<path d="M4.61008 5.09817C3.17196 5.0971 1.99781 3.95007 2 2.54802C2.00219 1.15238 3.18949 -0.00319439 4.61775 6.63438e-06C6.03943 0.00214065 7.23768 1.17265 7.23549 2.55549C7.2322 3.94687 6.04272 5.09924 4.61117 5.09817H4.61008Z" fill="#B9DCFF"/>
<path d="M4.5 15.0002C4.83333 14.3335 7.97688 13.477 9.5 15.0002C11 16.5003 15 16.5 16 14.0002C16.8 12.0002 16.3333 14.6668 16.5 14.5001" stroke="#B9DCFF"/>
<path d="M19.7843 18.1188C18.5575 18.1188 17.3308 18.1188 16.1041 18.1188C15.3396 18.1188 14.9967 17.7913 15 17.0529C15.0044 15.9411 14.9891 14.8271 15.034 13.7163C15.0701 12.8254 15.8324 12.0539 16.7339 11.9067C17.0427 11.8566 17.356 11.8267 17.6583 11.7531C17.931 11.6858 18.0427 11.7947 18.1271 12.0241C18.563 13.2085 19.0088 14.3907 19.4513 15.5729C19.4655 15.6114 19.471 15.6583 19.4973 15.6871C19.5871 15.7842 19.6714 15.9293 19.781 15.9539C19.9551 15.9912 20.0263 15.8301 20.0822 15.6818C20.528 14.4825 20.9781 13.2853 21.4272 12.087C21.5696 11.7072 21.5696 11.7029 21.9672 11.7659C22.3593 11.8277 22.7634 11.8555 23.1369 11.9761C24.0329 12.2641 24.5663 13.0559 24.5718 14.0375C24.5772 15.0682 24.5761 16.0979 24.5718 17.1286C24.5696 17.7571 24.2114 18.1135 23.5674 18.1167C22.3067 18.1231 21.046 18.1188 19.7853 18.1188H19.7843Z" fill="#4F8AFF"/>
<path d="M19.7754 10.7813C18.4391 10.777 17.3143 9.67051 17.3285 8.37623C17.3416 7.08302 18.4588 6.00214 19.7841 6C21.116 5.99787 22.2431 7.09689 22.242 8.39757C22.2409 9.69932 21.116 10.7866 19.7754 10.7823V10.7813Z" fill="#4F8AFF"/>
<path d="M19.7547 14.7443C19.5784 14.4199 19.3746 14.1179 19.3779 13.7487C19.3801 13.5524 19.4086 13.354 19.4502 13.1619C19.5313 12.7895 19.4907 12.4641 19.2246 12.1546C19.0395 11.9391 19.1643 11.7054 19.4502 11.683C19.6594 11.667 19.873 11.667 20.0833 11.6862C20.3078 11.7065 20.4623 11.9274 20.3308 12.065C19.8336 12.591 20.1096 13.1768 20.1304 13.7487C20.1435 14.1179 19.931 14.4199 19.7547 14.7443Z" fill="#4F8AFF"/>
</svg>
