<svg width="146" height="132" viewBox="0 0 146 132" fill="none" xmlns="http://www.w3.org/2000/svg">
<path d="M0.812874 30.4177C0.528719 30.4976 0.287866 30.687 0.143152 30.9443C-0.00156212 31.2015 -0.0383222 31.5057 0.0409372 31.7901L18.6538 98.2626C18.7337 98.5468 18.9231 98.7876 19.1804 98.9323C19.4376 99.077 19.7418 99.1138 20.0262 99.0345L88.6426 79.8213C88.9268 79.7414 89.1676 79.552 89.3123 79.2948C89.4571 79.0375 89.4938 78.7333 89.4146 78.449L70.8017 11.9764C70.7218 11.6923 70.5324 11.4514 70.2751 11.3067C70.0179 11.162 69.7137 11.1253 69.4294 11.2045L0.812874 30.4177Z" fill="#D0D6FD"/>
<path d="M20.8883 95.8955L86.2755 77.5866L68.5669 14.3433L3.17969 32.6522L20.8883 95.8955Z" fill="#F9F9FC"/>
<path d="M11.8246 41.0971C11.3884 41.2192 11.2085 41.9439 11.4237 42.7124C11.6389 43.4809 12.1689 44.0068 12.6052 43.8846L42.4273 35.5342C42.8635 35.412 43.0434 34.6874 42.8282 33.9189C42.613 33.1504 42.083 32.6245 41.6468 32.7466L11.8246 41.0971Z" fill="#E6E6E6"/>
<path d="M14.2262 49.6742C13.79 49.7964 13.6101 50.521 13.8253 51.2895C14.0405 52.058 14.5705 52.5839 15.0068 52.4618L44.8289 44.1113C45.2652 43.9892 45.445 43.2645 45.2298 42.496C45.0146 41.7275 44.4846 41.2016 44.0484 41.3238L14.2262 49.6742Z" fill="#E6E6E6"/>
<path d="M16.6005 58.1522C16.1643 58.2744 15.9844 58.9991 16.1996 59.7676C16.4148 60.5361 16.9448 61.0619 17.381 60.9398L47.2032 52.5893C47.6394 52.4672 47.8193 51.7425 47.6041 50.974C47.3889 50.2055 46.8589 49.6797 46.4226 49.8018L16.6005 58.1522Z" fill="#E6E6E6"/>
<path d="M19.0021 66.7294C18.5659 66.8516 18.386 67.5762 18.6012 68.3447C18.8164 69.1132 19.3464 69.6391 19.7827 69.5169L49.6048 61.1665C50.041 61.0443 50.2209 60.3197 50.0057 59.5512C49.7905 58.7827 49.2605 58.2568 48.8242 58.379L19.0021 66.7294Z" fill="#E6E6E6"/>
<path d="M24.6969 79.0575C24.4634 79.1225 24.2451 79.233 24.0543 79.3825C23.8636 79.5321 23.7042 79.7177 23.5853 79.9289C23.4663 80.1401 23.3902 80.3726 23.3612 80.6133C23.3321 80.8539 23.3509 81.0979 23.4162 81.3313C23.4816 81.5647 23.5923 81.7829 23.742 81.9735C23.8918 82.164 24.0776 82.3232 24.2889 82.4419C24.5002 82.5606 24.7329 82.6365 24.9735 82.6653C25.2142 82.694 25.4582 82.675 25.6915 82.6094L32.7953 80.6202C33.2664 80.4884 33.6657 80.1748 33.9055 79.7484C34.1453 79.3221 34.2059 78.818 34.074 78.347C33.9421 77.876 33.6285 77.4766 33.2022 77.2368C32.7759 76.997 32.2718 76.9364 31.8008 77.0683L-nan -nanL31.8008 77.0683L24.6969 79.0575Z" fill="#79A6FF"/>
<path d="M73.4079 61.2455L20.8403 75.9648L20.9712 76.4321L73.5387 61.7128L73.4079 61.2455Z" fill="#E6E6E6"/>
<path d="M126.211 124.068L121.995 125.087L116.057 109.311L122.28 107.807L126.211 124.068Z" fill="#A0616A"/>
<path d="M114.721 131.115L114.693 130.997C114.358 129.608 114.589 128.143 115.333 126.924C116.078 125.705 117.276 124.83 118.664 124.493L126.913 122.499L128.207 127.854L114.721 131.115Z" fill="#2F2E41"/>
<path d="M107.547 126.941L103.209 126.941L101.146 110.21L107.548 110.211L107.547 126.941Z" fill="#A0616A"/>
<path d="M108.598 131.089L94.7231 131.089V130.968C94.7232 129.539 95.2909 128.168 96.3014 127.158C97.3118 126.147 98.6823 125.58 100.111 125.58H100.112L108.598 125.58L108.598 131.089Z" fill="#2F2E41"/>
<path d="M101.143 120.409L96.9316 70.2181L114.365 67.0046L114.434 66.9922L119.537 70.2724L117.761 88.744L125.938 117.543L118.877 119.401L110.687 92.6916L108.813 84.5696L107.852 95.1236L108.565 121.151L101.143 120.409Z" fill="#2F2E41"/>
<path d="M96.3913 71.3565L96.3452 71.2982L102.37 25.9386L102.377 25.8792L102.42 25.8367C102.509 25.7479 104.619 23.6621 106.79 23.6621C107.104 23.6621 107.403 23.6541 107.689 23.6469C109.35 23.6037 110.663 23.5691 112.222 25.1291C113.812 26.718 118.996 32.5204 118.996 40.4673C118.996 48.1592 119.697 72.0631 119.704 72.3036L119.714 72.6411L119.431 72.457C119.361 72.4121 112.387 67.9717 106.539 72.0994C104.711 73.3895 103.069 73.8418 101.665 73.8418C98.3975 73.8418 96.4192 71.3921 96.3913 71.3565Z" fill="#99A8FF"/>
<path d="M110.037 19.9192C114.248 17.6173 115.795 12.3375 113.493 8.12652C111.191 3.91552 105.912 2.36792 101.701 4.66986C97.4896 6.9718 95.942 12.2516 98.244 16.4626C100.546 20.6736 105.826 22.2212 110.037 19.9192Z" fill="#A0616A"/>
<circle cx="82.8479" cy="74.5" r="8.5" fill="#79A6FF"/>
<path d="M82.8481 71.1206V77.3959" stroke="#F9F9FC" stroke-linecap="round"/>
<path d="M85.9858 74.2583L79.7105 74.2583" stroke="#F9F9FC" stroke-linecap="round"/>
<path d="M92.5663 81.105C92.9774 80.7864 93.3137 80.3815 93.5514 79.9189C93.7891 79.4563 93.9225 78.9472 93.9422 78.4275C93.9619 77.9077 93.8674 77.39 93.6653 76.9108C93.4633 76.4315 93.1586 76.0024 92.7727 75.6536L97.7075 64.0137L91.2462 65.2028L87.5506 76.074C87.0077 76.761 86.7356 77.6234 86.786 78.4976C86.8363 79.3718 87.2056 80.1972 87.8239 80.8173C88.4421 81.4375 89.2664 81.8093 90.1404 81.8623C91.0145 81.9153 91.8777 81.6458 92.5663 81.105Z" fill="#A0616A"/>
<path d="M87.7981 72.0503L89.3871 68.6955C89.2889 68.6364 89.208 68.5525 89.1525 68.4522C87.6678 65.8793 96.6355 44.5124 97.2332 43.0952C97.1421 42.3243 96.2007 34.156 96.889 31.4027C97.6993 28.1615 99.3631 26.651 102.452 26.3518C105.859 26.0319 106.778 30.6581 106.787 30.7051L106.79 42.5983L102.88 56.2889L93.9635 74.4789L87.7981 72.0503Z" fill="#99A8FF"/>
<path d="M106.979 15.5684C105.938 15.704 105.152 14.6382 104.788 13.653C104.423 12.6678 104.146 11.5208 103.24 10.9886C102.003 10.2616 100.419 11.136 99.0045 10.8962C97.4066 10.6253 96.3677 8.9318 96.2863 7.31314C96.2049 5.69449 96.849 4.1377 97.481 2.64532L97.7017 4.50001C97.6722 3.87141 97.8045 3.24575 98.0859 2.68288C98.3673 2.12001 98.7884 1.63876 99.3089 1.28516L99.0245 4.00663C99.2029 2.48199 100.845 1.3006 102.348 1.61656L102.303 3.2381C104.148 3.01865 106.01 2.79888 107.861 2.96608C109.712 3.13327 111.576 3.71893 112.979 4.93797C115.078 6.76147 115.844 9.76409 115.587 12.5323C115.329 15.3005 114.187 17.901 112.996 20.4131C112.696 21.0452 112.282 21.7584 111.587 21.8389C110.962 21.9113 110.391 21.3894 110.197 20.7916C110.003 20.1938 110.098 19.5444 110.214 18.9267C110.389 17.9937 110.611 17.04 110.446 16.105C110.281 15.17 109.608 14.2461 108.666 14.1315C107.723 14.0169 106.759 15.0943 107.212 15.9286L106.979 15.5684Z" fill="#2F2E41"/>
<path d="M145.021 131.11H82.4883V130.599H145.113L145.021 131.11Z" fill="#CACACA"/>
</svg>