<svg width="169" height="126" viewBox="0 0 169 126" fill="none" xmlns="http://www.w3.org/2000/svg">
<path d="M91.6194 12.795C93.8152 12.795 95.5953 11.0149 95.5953 8.81914C95.5953 6.62332 93.8152 4.84326 91.6194 4.84326C89.4236 4.84326 87.6436 6.62332 87.6436 8.81914C87.6436 11.0149 89.4236 12.795 91.6194 12.795Z" fill="#99A8FF"/>
<path d="M91.2255 10.3359C91.136 10.336 91.049 10.3071 90.9774 10.2534L90.973 10.2501L90.0386 9.53534C89.8566 9.39581 89.8222 9.13516 89.9617 8.95316C90.1012 8.77116 90.3619 8.73673 90.5439 8.87626L91.1491 9.34037L92.5793 7.47456C92.7187 7.29264 92.9793 7.25823 93.1612 7.39769L93.1612 7.3977L93.1613 7.39779L93.1524 7.41011L93.1615 7.39779C93.3433 7.53744 93.3776 7.79784 93.2383 7.97984L91.5561 10.1735C91.4772 10.2759 91.3551 10.3358 91.2259 10.3354L91.2255 10.3359Z" fill="white"/>
<path d="M91.6194 39.6734C93.8152 39.6734 95.5953 37.8934 95.5953 35.6976C95.5953 33.5017 93.8152 31.7217 91.6194 31.7217C89.4236 31.7217 87.6436 33.5017 87.6436 35.6976C87.6436 37.8934 89.4236 39.6734 91.6194 39.6734Z" fill="#99A8FF"/>
<path d="M91.2255 37.2143C91.136 37.2144 91.049 37.1855 90.9774 37.1318L90.973 37.1285L90.0386 36.4137C89.8566 36.2742 89.8222 36.0136 89.9617 35.8316C90.1012 35.6496 90.3619 35.6151 90.5439 35.7547L91.1491 36.2188L92.5793 34.353C92.7187 34.1711 92.9793 34.1366 93.1612 34.2761L93.1612 34.2761L93.1613 34.2762L93.1524 34.2885L93.1615 34.2762C93.3433 34.4159 93.3776 34.6763 93.2383 34.8583L91.5561 37.0519C91.4772 37.1543 91.3551 37.2142 91.2259 37.2138L91.2255 37.2143Z" fill="white"/>
<path d="M101.604 77.476C101.556 76.2308 102.525 75.1818 103.771 75.133C103.903 75.1278 104.036 75.1343 104.168 75.1525L107.809 68.0083L109.867 71.6318L106.094 77.8605C105.84 79.0876 104.64 79.877 103.413 79.6237C102.386 79.4118 101.639 78.5239 101.604 77.476L101.604 77.476Z" fill="#FFB7B7"/>
<path d="M118.581 122.462L115.723 122.462L114.364 111.439L118.581 111.44L118.581 122.462Z" fill="#FFB7B7"/>
<path d="M119.309 125.232L110.095 125.232V125.115C110.095 123.135 111.701 121.529 113.682 121.529H113.682L119.31 121.529L119.309 125.232Z" fill="#2F2E41"/>
<path d="M134.072 122.462L131.214 122.462L129.855 111.439L134.072 111.44L134.072 122.462Z" fill="#FFB7B7"/>
<path d="M134.801 125.232L125.587 125.232V125.115C125.587 123.135 127.192 121.529 129.173 121.529H129.173L134.801 121.529L134.801 125.232Z" fill="#2F2E41"/>
<path d="M105.994 71.2583L104.746 73.3375C104.746 73.3375 106.825 73.3375 107.241 76.4562L108.904 74.3771L105.994 71.2583Z" fill="#E5E5E5"/>
<path d="M127.825 66.8916C127.825 66.8916 131.152 75.6241 131.775 81.0299C132.399 86.4358 133.439 100.782 133.439 100.782L135.518 119.287L129.696 120.118L127.201 101.406L121.588 82.9012L120.34 101.406L119.3 118.247L113.895 118.455L113.479 100.99L111.192 78.7428L112.439 68.1391L127.825 66.8916Z" fill="#2F2E41"/>
<path d="M123.77 40.3828L125.85 41.838L128.553 69.0752L111.711 69.491L113.999 50.5707L116.078 45.1648L117.578 43.1807L123.77 40.3828Z" fill="#79A6FF"/>
<path d="M124.186 59.9269L124.823 41.1191C124.823 41.1191 126.058 41.2144 126.473 41.8381C126.889 42.4619 133.75 43.7094 133.75 43.7094L132.503 63.0456C132.503 63.0456 137.701 78.4315 135.83 79.2632C133.958 80.0948 130.632 79.8869 130.632 79.8869L124.186 59.9269Z" fill="#2F2E41"/>
<path d="M114.102 57.5355L116.308 44.8599L111.399 48.1793L112.647 57.3276L111.607 63.5651C111.607 63.5651 107.657 80.8222 108.904 81.446C110.152 82.0697 111.607 81.446 111.607 81.446L114.102 63.981V57.5355Z" fill="#2F2E41"/>
<path d="M112.855 47.7637L111.399 48.1795L110.776 56.4962L109.736 63.7733L104.746 72.7137C104.746 72.7137 107.241 71.0504 108.281 75.8324L113.776 66.2647L112.855 47.7637Z" fill="#2F2E41"/>
<path d="M124.164 75.771C124.358 74.54 125.513 73.6992 126.744 73.8931C126.875 73.9138 127.005 73.946 127.13 73.9894L132.089 67.688L133.404 71.642L128.493 77.0197C128.007 78.1743 126.676 78.7157 125.522 78.229C124.556 77.8218 123.994 76.8056 124.164 75.771Z" fill="#FFB7B7"/>
<path d="M132.607 73.5455L130.736 75.8326L128.241 71.4664L129.28 69.5952L132.607 73.5455Z" fill="#79A6FF"/>
<path d="M132.191 44.4371L133.854 43.6055C133.854 43.6055 135.102 45.2688 135.31 46.7242C135.518 48.1796 136.557 50.0509 136.557 51.0905C136.557 52.1301 139.468 61.9021 139.468 61.9021L132.815 75.4167C132.815 75.4167 131.359 70.4267 128.241 70.0109L133.439 62.7338L130.528 57.5359L132.191 44.4371V44.4371Z" fill="#2F2E41"/>
<path d="M168.182 125.36H88.1773C88.0613 125.36 87.9673 125.266 87.9673 125.15C87.9673 125.034 88.0613 124.94 88.1773 124.94H168.182C168.298 124.94 168.392 125.034 168.392 125.15C168.392 125.266 168.298 125.36 168.182 125.36Z" fill="#CBCBCB"/>
<path d="M76.6446 44.5167H0V26.8779H76.6446V44.5167Z" fill="white"/>
<path d="M11.0615 32.7104C10.649 32.7104 10.3147 33.0448 10.3147 33.4572C10.3147 33.8697 10.649 34.204 11.0615 34.204H65.5861C65.9986 34.204 66.3329 33.8697 66.3329 33.4572C66.3329 33.0448 65.9986 32.7104 65.5861 32.7104H11.0615Z" fill="#99A8FF"/>
<path d="M11.0616 37.1909C10.6492 37.19 10.3141 37.5237 10.3132 37.9361C10.3124 38.3486 10.646 38.6836 11.0585 38.6845H45.5295C45.9419 38.6845 46.2763 38.3502 46.2763 37.9377C46.2763 37.5253 45.9419 37.1909 45.5295 37.1909H11.0616V37.1909Z" fill="#99A8FF"/>
<path d="M76.6446 44.5167H0V26.8779H76.6446V44.5167ZM1.25991 43.2568H75.3847V28.1378H1.25991V43.2568Z" fill="#E5E5E5"/>
<path d="M76.6446 71.3951H0V53.7563H76.6446V71.3951Z" fill="white"/>
<path d="M11.0615 59.5884C10.649 59.5884 10.3147 59.9227 10.3147 60.3352C10.3147 60.7476 10.649 61.082 11.0615 61.082H65.5861C65.9986 61.082 66.3329 60.7476 66.3329 60.3352C66.3329 59.9227 65.9986 59.5884 65.5861 59.5884H11.0615Z" fill="#E6E6E6"/>
<path d="M11.0616 64.0688C10.6492 64.068 10.3141 64.4016 10.3132 64.8141C10.3124 65.2265 10.646 65.5616 11.0585 65.5624H45.5295C45.9419 65.5624 46.2763 65.2281 46.2763 64.8156C46.2763 64.4032 45.9419 64.0688 45.5295 64.0688H11.0616Z" fill="#E6E6E6"/>
<path d="M76.6446 71.3951H0V53.7563H76.6446V71.3951ZM1.25991 70.1352H75.3847V55.0163H1.25991V70.1352Z" fill="#E5E5E5"/>
<path d="M77.2745 17.6388H0.629883V0H77.2745V17.6388Z" fill="white"/>
<path d="M11.6915 5.83203C11.279 5.83279 10.9453 6.16774 10.946 6.58018C10.9468 6.99156 11.2801 7.32487 11.6915 7.32562H66.2161C66.6286 7.32486 66.9623 6.9899 66.9616 6.57746C66.9608 6.16608 66.6275 5.83278 66.2161 5.83203H11.6915Z" fill="#99A8FF"/>
<path d="M11.6915 10.313C11.279 10.3121 10.944 10.6458 10.9431 11.0582C10.9422 11.4707 11.2759 11.8057 11.6883 11.8066H46.1594C46.5718 11.8073 46.9068 11.4736 46.9075 11.0611C46.9083 10.6487 46.5745 10.3137 46.1621 10.313C46.1612 10.313 46.1603 10.313 46.1594 10.313H11.6915V10.313Z" fill="#99A8FF"/>
<path d="M77.2745 17.6388H0.629883V0H77.2745V17.6388ZM1.88979 16.3789H76.0146V1.25991H1.88979V16.3789Z" fill="#E5E5E5"/>
<path d="M155.231 125.457V110.267C155.231 110.267 161.151 121.036 155.231 125.457Z" fill="#79A6FF"/>
<path d="M155.597 125.454L144.407 115.182C144.407 115.182 156.343 118.104 155.597 125.454Z" fill="#79A6FF"/>
<path d="M101.699 77.0182C103.895 77.0182 105.675 75.2381 105.675 73.0423C105.675 70.8465 103.895 69.0664 101.699 69.0664C99.503 69.0664 97.7229 70.8465 97.7229 73.0423C97.7229 75.2381 99.503 77.0182 101.699 77.0182Z" fill="#99A8FF"/>
<path d="M101.305 74.559C101.215 74.5592 101.128 74.5302 101.057 74.4766L101.052 74.4732L100.118 73.7585C99.9359 73.6189 99.9015 73.3583 100.041 73.1763C100.181 72.9943 100.441 72.9599 100.623 73.0994L101.228 73.5635L102.659 71.6977C102.798 71.5158 103.059 71.4814 103.241 71.6208L103.241 71.6209L103.232 71.6333L103.241 71.6209C103.423 71.7606 103.457 72.021 103.318 72.203L101.635 74.3966C101.557 74.499 101.434 74.5589 101.305 74.5585L101.305 74.559Z" fill="white"/>
<path d="M117.925 40.7272C121.068 40.7272 123.616 38.1791 123.616 35.036C123.616 31.8928 121.068 29.3447 117.925 29.3447C114.782 29.3447 112.234 31.8928 112.234 35.036C112.234 38.1791 114.782 40.7272 117.925 40.7272Z" fill="#FFB6B6"/>
<path d="M122.896 39.4086C122.896 39.4086 124.582 35.9947 124.552 34.6914C124.522 33.3881 123.601 30.0343 123.212 29.8131C122.824 29.592 118.633 27.464 117.497 28.1038C116.361 28.7436 114.362 30.932 112.206 31.524C111.596 31.6915 112.129 34.8241 112.129 34.8241L114.652 34.4592C114.652 34.4592 117.282 32.0975 117.396 33.7056C117.509 35.3138 119.949 34.644 119.949 34.644L119.979 35.9473L120.977 36.001L121.252 34.614C121.252 34.614 121.701 37.4418 121.121 38.9125C120.541 40.3833 122.896 39.4086 122.896 39.4086V39.4086Z" fill="#2F2E41"/>
</svg>
