<svg width="13" height="13" viewBox="0 0 13 13" fill="none" xmlns="http://www.w3.org/2000/svg">
<path d="M0.706055 4.21484C0.706055 3.66256 1.15377 3.21484 1.70605 3.21484H11.2948C11.8471 3.21484 12.2948 3.66256 12.2948 4.21484V11C12.2948 11.5523 11.8471 12 11.2948 12H1.70605C1.15377 12 0.706055 11.5523 0.706055 11V4.21484Z" stroke="#529DFF" stroke-linecap="round"/>
<path d="M4.09082 3.11538V2C4.09082 1.44771 4.53854 1 5.09082 1L7.74466 1C8.29694 1 8.74466 1.44772 8.74466 2V3.11538" stroke="#529DFF" stroke-linecap="round"/>
<path d="M4.51367 7.34593L5.15134 8.19616C5.49478 8.65408 6.1518 8.73082 6.59153 8.36438L8.32136 6.92285" stroke="#529DFF" stroke-linecap="round"/>
</svg>
