<svg width="24" height="24" viewBox="0 0 24 24" fill="none" xmlns="http://www.w3.org/2000/svg">
<g style="mix-blend-mode:luminosity">
<path d="M0 12C0 5.37258 5.37258 0 12 0C18.6274 0 24 5.37258 24 12C24 18.6274 18.6274 24 12 24C5.37258 24 0 18.6274 0 12Z" fill="#6FCF97" fill-opacity="0.05"/>
<path d="M0.295455 12C0.295455 5.53576 5.53576 0.295455 12 0.295455C18.4642 0.295455 23.7045 5.53576 23.7045 12C23.7045 18.4642 18.4642 23.7045 12 23.7045C5.53576 23.7045 0.295455 18.4642 0.295455 12Z" stroke="#6FCF97" stroke-opacity="0.5" stroke-width="0.590909"/>
</g>
<path d="M17.4466 7.4408L16.5626 6.54965C16.2058 6.19747 15.7247 6 15.2233 6C14.722 6 14.2408 6.19747 13.884 6.54965L6.63156 13.8083C6.53224 13.9022 6.46779 14.0271 6.44881 14.1625L6.00631 17.2774C5.99256 17.3745 6.00134 17.4734 6.03196 17.5665C6.06259 17.6596 6.11423 17.7444 6.1829 17.8144C6.25277 17.8835 6.33739 17.9358 6.43039 17.9674C6.52339 17.9991 6.62236 18.0092 6.71986 17.9971L9.83481 17.5485C9.97016 17.5279 10.0959 17.4662 10.1952 17.3719L17.4476 10.1133C17.623 9.93801 17.7621 9.72995 17.857 9.50094C17.9519 9.27193 18.0007 9.02646 18.0007 8.77857C18.0007 8.53068 17.9519 8.28521 17.857 8.0562C17.7621 7.82719 17.623 7.61913 17.4476 7.44388L17.4466 7.4408ZM9.44878 16.3288L7.37693 16.6255L7.67364 14.5537L13.4415 8.7796L15.2167 10.5547L9.44878 16.3288ZM16.5565 9.22107L16.114 9.66357L14.3389 7.88946L14.7814 7.44696C14.8391 7.38845 14.908 7.34199 14.9838 7.31028C15.0597 7.27857 15.1411 7.26225 15.2233 7.26225C15.3056 7.26225 15.387 7.27857 15.4629 7.31028C15.5387 7.34199 15.6076 7.38845 15.6653 7.44696L16.5565 8.33094C16.6151 8.3894 16.6616 8.45885 16.6933 8.53531C16.7251 8.61177 16.7414 8.69374 16.7414 8.77652C16.7414 8.8593 16.7251 8.94127 16.6933 9.01773C16.6616 9.09419 16.6151 9.16363 16.5565 9.2221V9.22107Z" fill="#C9CBCF"/>
</svg>
