<svg width="141" height="75" viewBox="0 0 141 75" fill="none" xmlns="http://www.w3.org/2000/svg">
<path d="M102.735 0H8.2646C6.07345 0.00229436 3.97274 0.81276 2.42336 2.25359C0.873981 3.69441 0.00246177 5.64793 0 7.68556V32.3144C0.00246222 34.3521 0.873981 36.3056 2.42336 37.7464C3.97274 39.1872 6.07345 39.9977 8.2646 40H102.735C104.927 39.9977 107.027 39.1872 108.577 37.7464C110.126 36.3056 110.998 34.3521 111 32.3144V7.68556C110.998 5.64793 110.126 3.69441 108.577 2.25359C107.027 0.81276 104.927 0.00229436 102.735 0Z" fill="#CCD4FE"/>
<path d="M103.073 2H7.92744C6.35593 2.00165 4.84928 2.58569 3.73806 3.62399C2.62683 4.66229 2.00176 6.07006 2 7.53844V32.4616C2.00177 33.9299 2.62683 35.3377 3.73806 36.376C4.84928 37.4143 6.35593 37.9984 7.92744 38H103.073C104.644 37.9983 106.151 37.4143 107.262 36.376C108.373 35.3377 108.998 33.9299 109 32.4616V7.53844C108.998 6.07007 108.373 4.66231 107.262 3.62401C106.151 2.58571 104.644 2.00166 103.073 2Z" fill="white"/>
<path d="M119.735 20H25.2646C23.0734 20.0023 20.9727 20.8128 19.4234 22.2536C17.874 23.6944 17.0025 25.6479 17 27.6856V52.3144C17.0025 54.3521 17.874 56.3056 19.4234 57.7464C20.9727 59.1872 23.0734 59.9977 25.2646 60H119.735C121.927 59.9977 124.027 59.1872 125.577 57.7464C127.126 56.3056 127.998 54.3521 128 52.3144V27.6856C127.998 25.6479 127.126 23.6944 125.577 22.2536C124.027 20.8128 121.927 20.0023 119.735 20Z" fill="#CCD4FE"/>
<path d="M120.073 22H24.9274C23.3559 22.0016 21.8493 22.5857 20.7381 23.624C19.6268 24.6623 19.0018 26.0701 19 27.5384V52.4616C19.0018 53.9299 19.6268 55.3377 20.7381 56.376C21.8493 57.4143 23.3559 57.9984 24.9274 58H120.073C121.644 57.9983 123.151 57.4143 124.262 56.376C125.373 55.3377 125.998 53.9299 126 52.4616V27.5384C125.998 26.0701 125.373 24.6623 124.262 23.624C123.151 22.5857 121.644 22.0017 120.073 22Z" fill="white"/>
<path d="M125.835 75C134.21 75 141 68.1634 141 59.7299C141 51.2965 134.21 44.4599 125.835 44.4599C117.459 44.4599 110.67 51.2965 110.67 59.7299C110.67 68.1634 117.459 75 125.835 75Z" fill="#99BCFF"/>
<path d="M133.088 57.7382H127.813V52.4269C127.813 51.8986 127.605 51.392 127.234 51.0185C126.863 50.645 126.36 50.4351 125.835 50.4351C125.31 50.4351 124.807 50.645 124.436 51.0185C124.065 51.392 123.857 51.8986 123.857 52.4269V57.7382H118.582C118.057 57.7382 117.554 57.948 117.183 58.3216C116.812 58.6951 116.604 59.2017 116.604 59.7299C116.604 60.2582 116.812 60.7648 117.183 61.1383C117.554 61.5118 118.057 61.7217 118.582 61.7217H123.857V67.033C123.857 67.5612 124.065 68.0679 124.436 68.4414C124.807 68.8149 125.31 69.0247 125.835 69.0247C126.36 69.0247 126.863 68.8149 127.234 68.4414C127.605 68.0679 127.813 67.5612 127.813 67.033V61.7217H133.088C133.612 61.7217 134.116 61.5118 134.487 61.1383C134.858 60.7648 135.066 60.2582 135.066 59.7299C135.066 59.2017 134.858 58.6951 134.487 58.3216C134.116 57.948 133.612 57.7382 133.088 57.7382Z" fill="white"/>
<path d="M31.5 33V46.5" stroke="#CCD4FE" stroke-width="2" stroke-linecap="round"/>
</svg>
