<svg width="10" height="12" viewBox="0 0 10 12" fill="none" xmlns="http://www.w3.org/2000/svg">
<g opacity="0.8">
<path d="M5.00135 5.76052C6.25324 5.76052 7.26809 4.74567 7.26809 3.49378C7.26809 2.2419 6.25324 1.22705 5.00135 1.22705C3.74947 1.22705 2.73462 2.2419 2.73462 3.49378C2.73462 4.74567 3.74947 5.76052 5.00135 5.76052Z" stroke="#3698FF" stroke-linecap="round"/>
<path d="M5.00079 7.43677C3.93972 7.43677 2.9221 7.73317 2.1718 8.26077C1.42151 8.78836 1 9.50393 1 10.2501C1 10.449 1.11236 10.6397 1.31237 10.7803C1.51237 10.921 1.78364 11 2.0665 11H7.93394C8.07405 11.0001 8.21279 10.9807 8.34225 10.943C8.47171 10.9054 8.58934 10.8501 8.68844 10.7805C8.78753 10.7108 8.86614 10.6282 8.91977 10.5371C8.9734 10.4461 9.00101 10.3486 9.00101 10.2501C9.00101 9.504 8.57958 8.78848 7.82941 8.2609C7.07924 7.73332 6.06177 7.43687 5.00079 7.43677V7.43677Z" stroke="#3698FF" stroke-linecap="round"/>
</g>
</svg>
