<svg width="24" height="23" viewBox="0 0 24 23" fill="none" xmlns="http://www.w3.org/2000/svg">
<path fill-rule="evenodd" clip-rule="evenodd" d="M6.18492 22.3815C6.18492 22.7231 5.90801 23 5.56646 23H4.32947C3.98792 23 3.71102 22.7231 3.71102 22.3815V19.9076H6.185L6.18492 22.3815ZM6.18492 8.77483H3.71094V0.618454C3.71094 0.276904 3.98784 0 4.32939 0H5.56638C5.90793 0 6.18483 0.276904 6.18483 0.618454L6.18492 8.77483Z" fill="#B9DCFF"/>
<path d="M13.916 2.58982C13.916 2.93137 14.1929 3.20827 14.5345 3.20827H23.1933C23.5349 3.20827 23.8118 2.93137 23.8118 2.58982V1.35283C23.8118 1.01128 23.5349 0.734375 23.1933 0.734375H14.5345C14.1929 0.734375 13.916 1.01128 13.916 1.35283V2.58982Z" fill="#B9DCFF"/>
<path d="M17.6269 8.77468C17.6269 9.11623 17.9038 9.39314 18.2454 9.39314H23.1932C23.5348 9.39314 23.8117 9.11623 23.8117 8.77468V7.53769C23.8117 7.19614 23.5348 6.91924 23.1932 6.91924H18.2454C17.9038 6.91924 17.6269 7.19614 17.6269 7.53769V8.77468Z" fill="#B9DCFF"/>
<path d="M13.916 14.9595C13.916 15.3011 14.1929 15.578 14.5345 15.578H23.1933C23.5349 15.578 23.8118 15.3011 23.8118 14.9595V13.7226C23.8118 13.381 23.5349 13.1041 23.1933 13.1041H14.5345C14.1929 13.1041 13.916 13.381 13.916 13.7226V14.9595Z" fill="#B9DCFF"/>
<path d="M17.6269 21.1444C17.6269 21.486 17.9038 21.7629 18.2454 21.7629H23.1932C23.5348 21.7629 23.8117 21.486 23.8117 21.1444V19.9074C23.8117 19.5659 23.5348 19.289 23.1932 19.289H18.2454C17.9038 19.289 17.6269 19.5659 17.6269 19.9074V21.1444Z" fill="#B9DCFF"/>
<path d="M8.04039 10.6304H1.23699C0.553807 10.6304 0 11.1842 0 11.8674V16.8152C0 17.4984 0.553807 18.0522 1.23699 18.0522H8.04039C8.42975 18.0522 8.79635 17.869 9.02996 17.5575L10.8854 15.0835C11.2153 14.6436 11.2153 14.0389 10.8854 13.5991L9.02996 11.1251C8.79635 10.8137 8.42975 10.6304 8.04039 10.6304Z" fill="#4294FF"/>
</svg>
