<svg width="31" height="30" viewBox="0 0 31 30" fill="none" xmlns="http://www.w3.org/2000/svg">
<g style="mix-blend-mode:luminosity">
<path d="M15.5259 29.3652C7.44894 29.3652 0.900879 22.8172 0.900879 14.7402C0.900879 6.6633 7.44894 0.115234 15.5259 0.115234C23.6028 0.115234 30.1509 6.6633 30.1509 14.7402C30.1509 22.8172 23.6028 29.3652 15.5259 29.3652Z" fill="#B9DCFF"/>
</g>
<path d="M3.15088 14.7402C3.15088 7.04186 9.09988 0.737359 16.6509 0.162484C16.2791 0.134359 15.905 0.115234 15.5259 0.115234C7.44894 0.115234 0.900879 6.6633 0.900879 14.7402C0.900879 22.8172 7.44894 29.3652 15.5259 29.3652C15.905 29.3652 16.2791 29.3461 16.6509 29.318C9.09988 28.7431 3.15088 22.4386 3.15088 14.7402Z" fill="#4294FF"/>
<path d="M15.8902 18.013C14.9865 18.013 14.2539 17.0971 14.2539 15.9675V7.78569C14.2539 6.65609 14.9865 5.74023 15.8902 5.74023C16.7939 5.74023 17.5266 6.65609 17.5266 7.78569V15.9675C17.5266 17.0971 16.7939 18.013 15.8902 18.013Z" fill="#4294FF"/>
<path d="M15.8895 23.7404C14.785 23.7404 13.8895 22.8449 13.8895 21.7404C13.8895 20.6359 14.785 19.7404 15.8895 19.7404C16.994 19.7404 17.8895 20.6359 17.8895 21.7404C17.8895 22.8449 16.994 23.7404 15.8895 23.7404Z" fill="#4294FF"/>
</svg>
