<svg width="40" height="40" viewBox="0 0 40 40" fill="none" xmlns="http://www.w3.org/2000/svg">
<mask id="mask0_198_1775" style="mask-type:alpha" maskUnits="userSpaceOnUse" x="0" y="0" width="40" height="40">
<rect width="40" height="40" fill="#D9D9D9"/>
</mask>
<g mask="url(#mask0_198_1775)">
<path d="M14.6667 36.3333H24.6667C33 36.3333 36.3333 33 36.3333 24.6667V14.6667C36.3333 6.33333 33 3 24.6667 3H14.6667C6.33333 3 3 6.33333 3 14.6667V24.6667C3 33 6.33333 36.3333 14.6667 36.3333Z" stroke="#4785FF" stroke-width="1.8" stroke-linecap="round" stroke-linejoin="round"/>
<path d="M16.2552 16.6762H23.7447C24.0002 16.6759 24.245 16.5743 24.4257 16.3936C24.6063 16.213 24.7079 15.9682 24.7082 15.7127V14.7438C24.7087 14.2608 24.5569 13.7899 24.2744 13.3981C23.9919 13.0062 23.5932 12.7134 23.1347 12.5612L21.5745 12.0413C22.0249 11.7096 22.359 11.2442 22.5293 10.7115C22.6996 10.1787 22.6974 9.60576 22.5228 9.07436C22.3483 8.54296 22.0104 8.08025 21.5574 7.75221C21.1043 7.42417 20.5593 7.24755 20 7.24756C19.4406 7.24756 18.8956 7.42418 18.4426 7.75223C17.9895 8.08028 17.6517 8.543 17.4771 9.0744C17.3026 9.60581 17.3003 10.1787 17.4706 10.7115C17.6409 11.2443 17.9751 11.7097 18.4255 12.0413L16.865 12.5612C16.4066 12.7135 16.0079 13.0063 15.7255 13.3981C15.443 13.7899 15.2913 14.2608 15.2917 14.7438V15.7127C15.292 15.9681 15.3936 16.213 15.5743 16.3936C15.7549 16.5743 15.9998 16.6759 16.2552 16.6762ZM20 8.10473C20.4747 8.10894 20.9286 8.3005 21.2628 8.63771C21.5971 8.97491 21.7846 9.43048 21.7846 9.90526C21.7846 10.38 21.597 10.8356 21.2628 11.1728C20.9286 11.51 20.4747 11.7015 19.9999 11.7057C19.5252 11.7015 19.0713 11.51 18.7371 11.1728C18.4028 10.8356 18.2153 10.38 18.2153 9.90521C18.2153 9.43043 18.4029 8.97487 18.7371 8.63767C19.0713 8.30047 19.5252 8.10893 20 8.10473ZM16.1489 14.7438C16.1487 14.4407 16.2439 14.1453 16.4211 13.8994C16.5983 13.6535 16.8484 13.4697 17.136 13.374C17.7386 13.2149 19.383 12.5136 20 12.5637C20.6075 12.5163 22.2739 13.2111 22.8637 13.374C23.1514 13.4696 23.4015 13.6534 23.5788 13.8993C23.756 14.1452 23.8513 14.4407 23.851 14.7438V15.7127C23.851 15.7409 23.8398 15.7679 23.8199 15.7878C23.7999 15.8077 23.7729 15.819 23.7447 15.819H16.2552C16.227 15.819 16.2 15.8077 16.1801 15.7878C16.1602 15.7679 16.149 15.7409 16.1489 15.7127L16.1489 14.7438Z" fill="#4785FF"/>
<path d="M15.5866 27.0356L14.1086 26.5431C14.5401 26.2178 14.8585 25.7652 15.0187 25.2491C15.1788 24.7331 15.1727 24.1797 15.0013 23.6673C14.8298 23.1549 14.5015 22.7094 14.063 22.3937C13.6245 22.078 13.0978 21.9082 12.5574 21.9082C12.0171 21.9082 11.4904 22.0781 11.0519 22.3938C10.6134 22.7094 10.2852 23.155 10.1137 23.6674C9.94222 24.1798 9.93615 24.7332 10.0963 25.2492C10.2565 25.7653 10.5749 26.2179 11.0064 26.5431L9.52804 27.0356C9.08282 27.1836 8.69555 27.4681 8.42125 27.8487C8.14694 28.2293 7.99954 28.6867 8 29.1558V30.0904C8.00025 30.3409 8.09985 30.581 8.27695 30.7581C8.45404 30.9352 8.69416 31.0348 8.94462 31.035H16.1703C16.4207 31.0348 16.6609 30.9352 16.838 30.7581C17.0151 30.581 17.1147 30.3409 17.1149 30.0904V29.1558C17.1154 28.6866 16.9679 28.2292 16.6936 27.8486C16.4192 27.468 16.0319 27.1835 15.5866 27.0356ZM12.5575 22.7654C13.0116 22.7695 13.4456 22.9527 13.7652 23.2752C14.0847 23.5977 14.264 24.0334 14.264 24.4874C14.264 24.9414 14.0847 25.3771 13.7651 25.6996C13.4455 26.0221 13.0115 26.2053 12.5575 26.2094C12.1035 26.2053 11.6695 26.022 11.3499 25.6996C11.0303 25.3771 10.851 24.9414 10.851 24.4874C10.851 24.0333 11.0303 23.5977 11.3499 23.2752C11.6695 22.9527 12.1035 22.7695 12.5575 22.7654ZM16.2577 30.0904C16.2577 30.1136 16.2484 30.1358 16.2321 30.1522C16.2157 30.1686 16.1934 30.1778 16.1703 30.1779H8.94462C8.92144 30.1778 8.89922 30.1686 8.88283 30.1522C8.86644 30.1358 8.8572 30.1136 8.85714 30.0904V29.1558C8.85689 28.8666 8.94776 28.5847 9.11684 28.3501C9.28591 28.1154 9.52461 27.94 9.79904 27.8488C10.7838 27.5721 12.3279 26.7613 13.3601 27.1967L15.3156 27.8484C15.5901 27.9397 15.8288 28.1152 15.9979 28.3499C16.1671 28.5846 16.258 28.8666 16.2578 29.1558L16.2577 30.0904Z" fill="#4785FF"/>
<path d="M30.4719 27.0352L28.9939 26.543C29.4254 26.2178 29.7437 25.7651 29.9039 25.2491C30.064 24.733 30.0579 24.1797 29.8864 23.6673C29.7149 23.1549 29.3867 22.7093 28.9482 22.3937C28.5096 22.078 27.983 21.9082 27.4426 21.9082C26.9023 21.9082 26.3756 22.0781 25.9371 22.3938C25.4986 22.7095 25.1704 23.155 24.9989 23.6674C24.8274 24.1798 24.8214 24.7332 24.9815 25.2492C25.1417 25.7652 25.4601 26.2179 25.8916 26.5431L24.4133 27.0356C23.9681 27.1836 23.5808 27.4681 23.3065 27.8487C23.0322 28.2293 22.8848 28.6867 22.8853 29.1558V30.0904C22.8855 30.3409 22.9851 30.581 23.1622 30.7581C23.3393 30.9352 23.5794 31.0348 23.8299 31.035H31.0555C31.306 31.0348 31.5461 30.9352 31.7232 30.7581C31.9003 30.581 31.9999 30.3409 32.0001 30.0904V29.1558C32.0005 28.6866 31.8531 28.2292 31.5788 27.8485C31.3044 27.4678 30.9171 27.1832 30.4719 27.0352ZM27.4426 22.7654C27.8966 22.7695 28.3306 22.9527 28.6502 23.2752C28.9698 23.5977 29.1491 24.0334 29.1491 24.4874C29.1491 24.9414 28.9698 25.3771 28.6502 25.6996C28.3306 26.0221 27.8966 26.2053 27.4426 26.2094C26.9886 26.2053 26.5545 26.0221 26.235 25.6996C25.9154 25.3771 25.7361 24.9414 25.7361 24.4874C25.7361 24.0333 25.9154 23.5977 26.235 23.2752C26.5546 22.9527 26.9886 22.7695 27.4426 22.7654ZM31.143 30.0904C31.1429 30.1136 31.1337 30.1358 31.1173 30.1522C31.1009 30.1686 31.0787 30.1778 31.0555 30.1779H23.8299C23.8067 30.1778 23.7845 30.1686 23.7681 30.1522C23.7517 30.1358 23.7424 30.1136 23.7424 30.0904V29.1558C23.7422 28.8666 23.8331 28.5846 24.0021 28.35C24.1712 28.1153 24.4099 27.9398 24.6843 27.8484C25.669 27.5719 27.213 26.7614 28.2451 27.1967L30.2009 27.8484C30.4753 27.9397 30.7141 28.1152 30.8832 28.3499C31.0523 28.5846 31.1432 28.8666 31.143 29.1558V30.0904Z" fill="#4785FF"/>
<path d="M23.0675 23.9803C23.9172 24.4184 24.3081 22.1685 24.2856 21.6048C24.3452 18.3227 20.5301 16.1859 17.7659 17.9481C17.6712 18.0086 17.604 18.1037 17.5788 18.2132C17.5536 18.3227 17.5724 18.4377 17.6311 18.5334C17.6898 18.6292 17.7837 18.6981 17.8927 18.7253C18.0017 18.7525 18.117 18.7358 18.2138 18.6788C20.4027 17.2674 23.4951 18.992 23.4284 21.6048C23.429 22.2352 23.2551 22.8534 22.926 23.391C22.8966 23.439 22.8769 23.4923 22.8681 23.5479C22.8593 23.6035 22.8615 23.6602 22.8747 23.715C22.8878 23.7697 22.9116 23.8213 22.9447 23.8668C22.9778 23.9123 23.0195 23.9509 23.0675 23.9803Z" fill="#4785FF"/>
<path d="M21.8559 24.4817C19.6581 25.9755 16.5195 24.2631 16.5714 21.6043C16.5694 20.9451 16.7609 20.2999 17.1223 19.7486C17.1848 19.6536 17.207 19.5377 17.184 19.4263C17.161 19.3149 17.0947 19.2172 16.9997 19.1547C16.1475 18.6756 15.6751 21.0281 15.7142 21.6043C15.7155 22.7406 16.1674 23.8299 16.9709 24.6334C17.7743 25.4368 18.8636 25.8888 19.9999 25.8901C20.5806 25.9299 22.9267 25.455 22.4496 24.6048C22.4187 24.5577 22.3788 24.5172 22.3323 24.4855C22.2857 24.4538 22.2334 24.4316 22.1782 24.4202C22.1231 24.4088 22.0662 24.4083 22.0109 24.4189C21.9556 24.4294 21.9029 24.4508 21.8559 24.4817Z" fill="#4785FF"/>
<path d="M18.7326 22.8719C18.7724 22.9117 18.8196 22.9433 18.8717 22.9649C18.9237 22.9864 18.9795 22.9975 19.0358 22.9974C18.9826 23.1996 22.1312 20.9914 22.1662 20.9969C22.2583 20.9328 22.3216 20.8351 22.3425 20.7249C22.3635 20.6146 22.3403 20.5005 22.278 20.4072C22.2158 20.3138 22.1194 20.2486 22.0096 20.2255C21.8998 20.2024 21.7853 20.2233 21.6907 20.2837L19.0902 22.0172L18.3743 21.3015C18.2934 21.2238 18.1852 21.1809 18.073 21.182C17.9608 21.1831 17.8535 21.2282 17.7742 21.3075C17.6949 21.3868 17.6498 21.4941 17.6487 21.6063C17.6476 21.7185 17.6905 21.8267 17.7683 21.9076L18.7326 22.8719Z" fill="#4785FF"/>
<path d="M25.1427 10.3337H26.5851C26.6988 10.3338 26.8077 10.379 26.8881 10.4594C26.9684 10.5397 27.0136 10.6486 27.0137 10.7623V17.9986C26.9791 17.9364 26.931 17.8827 26.8729 17.8415C26.8148 17.8003 26.7482 17.7727 26.678 17.7606C26.6078 17.7486 26.5358 17.7524 26.4673 17.7719C26.3988 17.7913 26.3355 17.8259 26.2821 17.873C26.2423 17.9128 26.2108 17.9601 26.1892 18.012C26.1677 18.064 26.1566 18.1198 26.1566 18.176C26.1566 18.2323 26.1677 18.2881 26.1892 18.34C26.2108 18.392 26.2423 18.4393 26.2821 18.4791L27.1393 19.3362C27.1791 19.376 27.2263 19.4076 27.2783 19.4291C27.3303 19.4507 27.386 19.4618 27.4423 19.4618C27.4986 19.4618 27.5543 19.4507 27.6063 19.4291C27.6583 19.4076 27.7055 19.376 27.7453 19.3362L28.6024 18.4791C28.6804 18.3982 28.7234 18.29 28.7224 18.1777C28.7213 18.0654 28.6762 17.958 28.5968 17.8786C28.5174 17.7992 28.41 17.7541 28.2978 17.7531C28.1855 17.7521 28.0773 17.7951 27.9964 17.873L27.8709 17.9986V10.7623C27.8705 10.4214 27.7349 10.0946 27.4939 9.85355C27.2528 9.61251 26.926 9.47693 26.5851 9.47656H25.1427C25.0304 9.47869 24.9235 9.52478 24.8449 9.60492C24.7662 9.68506 24.7222 9.79286 24.7222 9.90513C24.7222 10.0174 24.7662 10.1252 24.8449 10.2053C24.9235 10.2855 25.0304 10.3316 25.1427 10.3337Z" fill="#4785FF"/>
<path d="M12.2547 19.3362C12.2944 19.376 12.3417 19.4076 12.3937 19.4292C12.4457 19.4507 12.5014 19.4618 12.5577 19.4618C12.614 19.4618 12.6697 19.4507 12.7217 19.4292C12.7737 19.4076 12.8209 19.376 12.8607 19.3362L13.7178 18.4791C14.151 17.9393 13.3708 17.4396 12.9863 17.9987L12.9862 10.7623C12.9863 10.6486 13.0315 10.5397 13.1119 10.4594C13.1922 10.379 13.3012 10.3338 13.4148 10.3337H14.8573C14.9698 10.332 15.0771 10.286 15.156 10.2059C15.235 10.1257 15.2792 10.0176 15.2792 9.90512C15.2792 9.79259 15.235 9.68458 15.156 9.6044C15.0771 9.52422 14.9698 9.4783 14.8572 9.47656H13.4148C13.0739 9.47693 12.7471 9.61251 12.5061 9.85355C12.2651 10.0946 12.1295 10.4214 12.1291 10.7623V17.9986C12.0945 17.9364 12.0464 17.8827 11.9883 17.8415C11.9302 17.8003 11.8636 17.7727 11.7934 17.7607C11.7232 17.7486 11.6512 17.7525 11.5827 17.7719C11.5142 17.7914 11.4509 17.8259 11.3975 17.873C11.3577 17.9128 11.3261 17.9601 11.3046 18.0121C11.2831 18.064 11.272 18.1198 11.272 18.1761C11.272 18.2323 11.2831 18.2881 11.3046 18.3401C11.3261 18.392 11.3577 18.4393 11.3975 18.4791L12.2547 19.3362Z" fill="#4785FF"/>
</g>
</svg>
