<svg width="22" height="22" viewBox="0 0 22 22" fill="none" xmlns="http://www.w3.org/2000/svg">
<path d="M8.24967 20.1663H13.7497C18.333 20.1663 20.1663 18.333 20.1663 13.7497V8.24967C20.1663 3.66634 18.333 1.83301 13.7497 1.83301H8.24967C3.66634 1.83301 1.83301 3.66634 1.83301 8.24967V13.7497C1.83301 18.333 3.66634 20.1663 8.24967 20.1663Z" stroke="#4785FF" stroke-width="1.5" stroke-linecap="round" stroke-linejoin="round"/>
<path d="M16.848 13.998V6.94879C16.848 6.24296 16.2797 5.72963 15.583 5.78463H15.5464C14.3181 5.88547 12.4572 6.51798 11.4122 7.16881L11.3114 7.23298C11.1464 7.33382 10.8622 7.33382 10.688 7.23298L10.5414 7.14131C9.50554 6.49048 7.6447 5.87629 6.41637 5.77546C5.7197 5.72046 5.15137 6.24298 5.15137 6.93964V13.998C5.15137 14.5571 5.60969 15.0888 6.16885 15.153L6.33385 15.1805C7.59885 15.3455 9.56056 15.9963 10.6789 16.6105L10.7064 16.6196C10.8622 16.7113 11.1189 16.7113 11.2655 16.6196C12.3839 15.9963 14.3547 15.3546 15.6289 15.1805L15.8214 15.153C16.3897 15.0888 16.848 14.5663 16.848 13.998Z" stroke="#4785FF" stroke-width="1.5" stroke-linecap="round" stroke-linejoin="round"/>
<path d="M11 7.42578V16.1891" stroke="#4785FF" stroke-width="1.5" stroke-linecap="round" stroke-linejoin="round"/>
</svg>
