<svg width="14" height="14" viewBox="0 0 14 14" fill="none" xmlns="http://www.w3.org/2000/svg">
<path d="M2.26128 4.73028C2.3134 4.77803 2.38157 4.80441 2.45224 4.80416C2.52262 4.80398 2.59037 4.77742 2.64213 4.72971C2.69388 4.682 2.72587 4.61661 2.73179 4.54646C2.79874 4.11064 3.00466 3.70814 3.31886 3.3989C3.63307 3.08965 4.03874 2.89024 4.47544 2.83036C4.53932 2.81772 4.59683 2.7833 4.63817 2.73297C4.67951 2.68263 4.70211 2.61951 4.70211 2.55437C4.70211 2.48923 4.67951 2.42611 4.63817 2.37578C4.59683 2.32545 4.53932 2.29103 4.47544 2.27839C4.03786 2.22074 3.63096 2.02206 3.31635 1.71241C3.00173 1.40276 2.79652 0.999022 2.73179 0.562288C2.7263 0.491656 2.69439 0.425695 2.64241 0.377578C2.59043 0.329462 2.52221 0.302734 2.4514 0.302734C2.38058 0.302734 2.31236 0.329462 2.26038 0.377578C2.20841 0.425695 2.17649 0.491656 2.17101 0.562288C2.10405 0.998103 1.89813 1.40061 1.58393 1.70985C1.26972 2.01909 0.864054 2.21851 0.427356 2.27839C0.363475 2.29103 0.305958 2.32545 0.264619 2.37578C0.223281 2.42611 0.200684 2.48923 0.200684 2.55437C0.200684 2.61951 0.223281 2.68263 0.264619 2.73297C0.305958 2.7833 0.363475 2.81772 0.427356 2.83036C0.864936 2.88801 1.27183 3.08669 1.58644 3.39634C1.90106 3.70598 2.10627 4.10973 2.17101 4.54646C2.17694 4.6169 2.20917 4.68253 2.26128 4.73028Z" fill="white"/>
<path d="M8.33124 12.6811C8.26589 12.6813 8.20291 12.6569 8.15494 12.6129C8.10697 12.5689 8.07758 12.5085 8.07268 12.4438C8.0582 12.2547 7.66752 7.79788 3.10215 6.77335C3.04477 6.76065 2.99347 6.72892 2.9567 6.68339C2.91994 6.63787 2.8999 6.58127 2.8999 6.52293C2.8999 6.46459 2.91994 6.40799 2.9567 6.36247C2.99347 6.31694 3.04477 6.28521 3.10215 6.27251C7.67708 5.24618 8.06906 0.649016 8.07242 0.602061C8.07745 0.537447 8.10693 0.477116 8.15494 0.433185C8.20295 0.389254 8.26593 0.364979 8.33124 0.365236C8.39662 0.365059 8.45964 0.389469 8.50762 0.433554C8.55559 0.47764 8.58496 0.538124 8.5898 0.602831C8.60427 0.791932 8.99496 5.24874 13.5603 6.27328C13.6177 6.28598 13.669 6.31771 13.7058 6.36324C13.7425 6.40876 13.7626 6.46536 13.7626 6.5237C13.7626 6.58204 13.7425 6.63864 13.7058 6.68416C13.669 6.72969 13.6177 6.76142 13.5603 6.77412C8.98539 7.80045 8.59341 12.3976 8.59005 12.4446C8.58496 12.5091 8.55546 12.5694 8.50745 12.6133C8.45945 12.6572 8.3965 12.6814 8.33124 12.6811ZM7.46169 9.50335C8.15494 5.80178 8.07242 6.6834 8.15494 4.9837C8.57613 3.56377 9.81976 5.54862 12.5716 6.52319C9.83734 5.55484 11.6925 6.27251 8.33124 5.80178C7.80459 7.711 8.15494 6.36246 7.46169 9.50335Z" fill="white"/>
<path d="M2.51706 11.1743C2.58882 11.246 2.68614 11.2863 2.78762 11.2863C2.88909 11.2863 2.98642 11.246 3.05817 11.1743C3.12993 11.1025 3.17024 11.0052 3.17024 10.9037V10.1385C3.17024 10.037 3.12993 9.93968 3.05817 9.86793C2.98642 9.79617 2.88909 9.75586 2.78762 9.75586C2.68614 9.75586 2.58882 9.79617 2.51706 9.86793C2.44531 9.93968 2.405 10.037 2.405 10.1385V10.9037C2.405 11.0052 2.44531 11.1025 2.51706 11.1743Z" fill="white"/>
<path d="M1.25713 12.0516H2.02237C2.12385 12.0516 2.22117 12.0113 2.29293 11.9395C2.36468 11.8678 2.405 11.7704 2.405 11.669C2.405 11.5675 2.36468 11.4702 2.29293 11.3984C2.22117 11.3267 2.12385 11.2863 2.02237 11.2863H1.25713C1.15566 11.2863 1.05833 11.3267 0.986579 11.3984C0.914823 11.4702 0.874512 11.5675 0.874512 11.669C0.874512 11.7704 0.914823 11.8678 0.986579 11.9395C1.05833 12.0113 1.15566 12.0516 1.25713 12.0516Z" fill="white"/>
<path d="M2.51706 13.47C2.58882 13.5418 2.68614 13.5821 2.78762 13.5821C2.88909 13.5821 2.98642 13.5418 3.05817 13.47C3.12993 13.3982 3.17024 13.3009 3.17024 13.1994V12.4342C3.17024 12.3327 3.12993 12.2354 3.05817 12.1637C2.98642 12.0919 2.88909 12.0516 2.78762 12.0516C2.68614 12.0516 2.58882 12.0919 2.51706 12.1637C2.44531 12.2354 2.405 12.3327 2.405 12.4342V13.1994C2.405 13.3009 2.44531 13.3982 2.51706 13.47Z" fill="white"/>
<path d="M3.55286 12.0516H4.3181C4.41958 12.0516 4.5169 12.0113 4.58866 11.9395C4.66041 11.8678 4.70072 11.7704 4.70072 11.669C4.70072 11.5675 4.66041 11.4702 4.58866 11.3984C4.5169 11.3267 4.41958 11.2863 4.3181 11.2863H3.55286C3.45138 11.2863 3.35406 11.3267 3.2823 11.3984C3.21055 11.4702 3.17024 11.5675 3.17024 11.669C3.17024 11.7704 3.21055 11.8678 3.2823 11.9395C3.35406 12.0113 3.45138 12.0516 3.55286 12.0516Z" fill="white"/>
</svg>
