<svg width="40" height="40" viewBox="0 0 40 40" fill="none" xmlns="http://www.w3.org/2000/svg">
<mask id="mask0_198_1820" style="mask-type:alpha" maskUnits="userSpaceOnUse" x="0" y="0" width="40" height="40">
<rect width="40" height="40" fill="#D9D9D9"/>
</mask>
<g mask="url(#mask0_198_1820)">
<path d="M14.6667 36.3333H24.6667C33 36.3333 36.3333 33 36.3333 24.6667V14.6667C36.3333 6.33333 33 3 24.6667 3H14.6667C6.33333 3 3 6.33333 3 14.6667V24.6667C3 33 6.33333 36.3333 14.6667 36.3333Z" stroke="#292D32" stroke-width="1.8" stroke-linecap="round" stroke-linejoin="round"/>
<path d="M17.3119 13.8254C17.3119 13.7772 17.3214 13.7295 17.3399 13.685C17.3584 13.6405 17.3856 13.6001 17.4198 13.566C17.4541 13.532 17.4947 13.505 17.5394 13.4865C17.5841 13.4681 17.632 13.4587 17.6804 13.4587H22.1247C22.174 13.4572 22.2232 13.4655 22.2692 13.4833C22.3153 13.501 22.3573 13.5278 22.3927 13.562C22.4282 13.5962 22.4564 13.6372 22.4756 13.6825C22.4949 13.7277 22.5048 13.7764 22.5048 13.8256C22.5048 13.8747 22.4949 13.9234 22.4756 13.9687C22.4564 14.0139 22.4282 14.0549 22.3927 14.0891C22.3573 14.1233 22.3153 14.1501 22.2692 14.1679C22.2232 14.1856 22.174 14.1939 22.1247 14.1924H17.6804C17.632 14.1924 17.5841 14.1829 17.5394 14.1645C17.4947 14.146 17.454 14.119 17.4198 14.0849C17.3856 14.0508 17.3584 14.0104 17.3399 13.9658C17.3214 13.9213 17.3119 13.8736 17.3119 13.8254ZM24.6611 15.5779H17.6804C17.6311 15.5763 17.5819 15.5847 17.5359 15.6024C17.4898 15.6202 17.4478 15.647 17.4124 15.6812C17.3769 15.7154 17.3487 15.7563 17.3295 15.8016C17.3102 15.8469 17.3003 15.8956 17.3003 15.9447C17.3003 15.9939 17.3102 16.0425 17.3295 16.0878C17.3487 16.1331 17.3769 16.1741 17.4124 16.2083C17.4478 16.2425 17.4898 16.2693 17.5359 16.287C17.5819 16.3047 17.6311 16.3131 17.6804 16.3115H24.6596C24.709 16.3131 24.7581 16.3047 24.8042 16.287C24.8502 16.2693 24.8922 16.2425 24.9277 16.2083C24.9631 16.1741 24.9913 16.1331 25.0106 16.0878C25.0298 16.0425 25.0397 15.9939 25.0397 15.9447C25.0397 15.8956 25.0298 15.8469 25.0106 15.8016C24.9913 15.7563 24.9631 15.7154 24.9277 15.6812C24.8922 15.647 24.8502 15.6202 24.8042 15.6024C24.7581 15.5847 24.709 15.5763 24.6596 15.5779H24.6611ZM17.6804 19.9121H22.1247C22.174 19.9136 22.2232 19.9053 22.2692 19.8875C22.3153 19.8698 22.3573 19.843 22.3927 19.8088C22.4282 19.7746 22.4564 19.7336 22.4756 19.6883C22.4949 19.6431 22.5048 19.5944 22.5048 19.5452C22.5048 19.4961 22.4949 19.4474 22.4756 19.4021C22.4564 19.3569 22.4282 19.3159 22.3927 19.2817C22.3573 19.2475 22.3153 19.2207 22.2692 19.203C22.2232 19.1852 22.174 19.1769 22.1247 19.1784H17.6804C17.6311 19.1769 17.5819 19.1852 17.5359 19.203C17.4898 19.2207 17.4478 19.2475 17.4124 19.2817C17.3769 19.3159 17.3487 19.3569 17.3295 19.4021C17.3102 19.4474 17.3003 19.4961 17.3003 19.5452C17.3003 19.5944 17.3102 19.6431 17.3295 19.6883C17.3487 19.7336 17.3769 19.7746 17.4124 19.8088C17.4478 19.843 17.4898 19.8698 17.5359 19.8875C17.5819 19.9053 17.6311 19.9136 17.6804 19.9121ZM24.6596 21.2976H17.6804C17.6311 21.296 17.5819 21.3044 17.5359 21.3221C17.4898 21.3399 17.4478 21.3666 17.4124 21.4008C17.3769 21.4351 17.3487 21.476 17.3295 21.5213C17.3102 21.5666 17.3003 21.6152 17.3003 21.6644C17.3003 21.7136 17.3102 21.7622 17.3295 21.8075C17.3487 21.8528 17.3769 21.8937 17.4124 21.9279C17.4478 21.9622 17.4898 21.9889 17.5359 22.0067C17.5819 22.0244 17.6311 22.0328 17.6804 22.0312H24.6596C24.709 22.0328 24.7581 22.0244 24.8042 22.0067C24.8502 21.9889 24.8922 21.9622 24.9277 21.9279C24.9631 21.8937 24.9913 21.8528 25.0106 21.8075C25.0298 21.7622 25.0397 21.7136 25.0397 21.6644C25.0397 21.6152 25.0298 21.5666 25.0106 21.5213C24.9913 21.476 24.9631 21.4351 24.9277 21.4008C24.8922 21.3666 24.8502 21.3399 24.8042 21.3221C24.7581 21.3044 24.709 21.296 24.6596 21.2976ZM17.6804 25.6314H22.1247C22.174 25.6329 22.2232 25.6246 22.2692 25.6068C22.3153 25.5891 22.3573 25.5623 22.3927 25.5281C22.4282 25.4939 22.4564 25.4529 22.4756 25.4077C22.4949 25.3624 22.5048 25.3137 22.5048 25.2646C22.5048 25.2154 22.4949 25.1667 22.4756 25.1215C22.4564 25.0762 22.4282 25.0352 22.3927 25.001C22.3573 24.9668 22.3153 24.94 22.2692 24.9223C22.2232 24.9045 22.174 24.8962 22.1247 24.8977H17.6804C17.6311 24.8962 17.5819 24.9045 17.5359 24.9223C17.4898 24.94 17.4478 24.9668 17.4124 25.001C17.3769 25.0352 17.3487 25.0762 17.3295 25.1215C17.3102 25.1667 17.3003 25.2154 17.3003 25.2646C17.3003 25.3137 17.3102 25.3624 17.3295 25.4077C17.3487 25.4529 17.3769 25.4939 17.4124 25.5281C17.4478 25.5623 17.4898 25.5891 17.5359 25.6068C17.5819 25.6246 17.6311 25.6329 17.6804 25.6314ZM24.6596 27.0169H17.6804C17.6311 27.0153 17.5819 27.0237 17.5359 27.0414C17.4898 27.0592 17.4478 27.0859 17.4124 27.1202C17.3769 27.1544 17.3487 27.1953 17.3295 27.2406C17.3102 27.2859 17.3003 27.3345 17.3003 27.3837C17.3003 27.4329 17.3102 27.4815 17.3295 27.5268C17.3487 27.5721 17.3769 27.613 17.4124 27.6473C17.4478 27.6815 17.4898 27.7082 17.5359 27.726C17.5819 27.7437 17.6311 27.7521 17.6804 27.7505H24.6596C24.709 27.7521 24.7581 27.7437 24.8042 27.726C24.8502 27.7082 24.8922 27.6815 24.9277 27.6473C24.9631 27.613 24.9913 27.5721 25.0106 27.5268C25.0298 27.4815 25.0397 27.4329 25.0397 27.3837C25.0397 27.3345 25.0298 27.2859 25.0106 27.2406C24.9913 27.1953 24.9631 27.1544 24.9277 27.1202C24.8922 27.0859 24.8502 27.0592 24.8042 27.0414C24.7581 27.0237 24.709 27.0153 24.6596 27.0169ZM15.4847 13.471V16.2989C15.4847 16.4784 15.4132 16.6505 15.2858 16.7776C15.1585 16.9046 14.9857 16.9761 14.8055 16.9764H11.9654C11.7853 16.9761 11.6127 16.9047 11.4853 16.7778C11.358 16.651 11.2864 16.479 11.2862 16.2997V13.471C11.2864 13.2916 11.358 13.1197 11.4853 12.9928C11.6127 12.866 11.7853 12.7946 11.9654 12.7943H14.8055C14.9856 12.7946 15.1583 12.866 15.2856 12.9928C15.4129 13.1197 15.4845 13.2916 15.4847 13.471ZM14.748 13.528H12.0215V16.2416H14.7465L14.748 13.528ZM15.4847 19.1907V22.0186C15.4845 22.1979 15.4129 22.3698 15.2856 22.4966C15.1582 22.6234 14.9856 22.6948 14.8055 22.6949H11.9654C11.7853 22.6948 11.6127 22.6234 11.4854 22.4966C11.358 22.3698 11.2864 22.1979 11.2862 22.0186V19.1907C11.2864 19.0113 11.358 18.8394 11.4853 18.7125C11.6127 18.5857 11.7853 18.5143 11.9654 18.514H14.8055C14.9856 18.5143 15.1583 18.5857 15.2856 18.7125C15.4129 18.8394 15.4845 19.0113 15.4847 19.1907ZM14.748 19.2476H12.0215V21.9613H14.7465L14.748 19.2476ZM15.4847 24.9103V27.7383C15.4845 27.9176 15.4129 28.0896 15.2856 28.2164C15.1583 28.3433 14.9856 28.4147 14.8055 28.415H11.9654C11.7853 28.4147 11.6127 28.3433 11.4853 28.2164C11.358 28.0896 11.2864 27.9176 11.2862 27.7383V24.9103C11.2864 24.731 11.358 24.559 11.4853 24.4322C11.6127 24.3053 11.7853 24.2339 11.9654 24.2336H14.8055C14.9856 24.2339 15.1583 24.3053 15.2856 24.4322C15.4129 24.559 15.4845 24.731 15.4847 24.9103ZM14.748 24.9673H12.0215V27.681H14.7465L14.748 24.9673ZM12.9537 15.6619C13.0256 15.7242 13.119 15.7563 13.2142 15.7515C13.3094 15.7466 13.399 15.7052 13.4642 15.6359L14.4055 14.6362C14.4399 14.6013 14.4671 14.5599 14.4852 14.5144C14.5034 14.469 14.5122 14.4203 14.5112 14.3714C14.5102 14.3225 14.4994 14.2742 14.4794 14.2295C14.4594 14.1848 14.4306 14.1445 14.3948 14.1111C14.3589 14.0776 14.3167 14.0516 14.2706 14.0346C14.2245 14.0176 14.1755 14.01 14.1264 14.0122C14.0773 14.0144 14.0291 14.0263 13.9847 14.0473C13.9403 14.0682 13.9006 14.0979 13.8679 14.1344L13.1691 14.8763L12.8766 14.6239C12.8401 14.5924 12.7977 14.5683 12.7518 14.5531C12.7059 14.5379 12.6575 14.5318 12.6092 14.5352C12.561 14.5386 12.5139 14.5514 12.4706 14.573C12.4274 14.5945 12.3888 14.6243 12.3571 14.6607C12.3254 14.6971 12.3012 14.7393 12.2859 14.785C12.2707 14.8307 12.2645 14.879 12.268 14.927C12.2714 14.9751 12.2843 15.0219 12.3059 15.065C12.3276 15.1081 12.3575 15.1465 12.394 15.1781L12.9537 15.6619ZM12.9537 21.3816C13.0256 21.4439 13.119 21.476 13.2142 21.4712C13.3094 21.4663 13.399 21.4249 13.4642 21.3556L14.4055 20.3559C14.4399 20.321 14.4671 20.2796 14.4852 20.2341C14.5034 20.1886 14.5122 20.14 14.5112 20.0911C14.5102 20.0421 14.4994 19.9939 14.4794 19.9492C14.4594 19.9045 14.4306 19.8642 14.3948 19.8307C14.3589 19.7973 14.3167 19.7713 14.2706 19.7543C14.2245 19.7373 14.1755 19.7297 14.1264 19.7319C14.0773 19.734 14.0291 19.746 13.9847 19.7669C13.9403 19.7879 13.9006 19.8175 13.8679 19.854L13.1691 20.596L12.877 20.3436C12.8407 20.3103 12.7981 20.2845 12.7517 20.2679C12.7053 20.2513 12.656 20.2441 12.6067 20.2468C12.5575 20.2495 12.5093 20.262 12.465 20.2836C12.4206 20.3052 12.3811 20.3354 12.3488 20.3725C12.3164 20.4096 12.2918 20.4527 12.2766 20.4994C12.2613 20.5461 12.2555 20.5954 12.2597 20.6444C12.2639 20.6933 12.2779 20.741 12.3009 20.7844C12.3239 20.8279 12.3555 20.8663 12.3937 20.8974L12.9537 21.3816ZM12.9537 27.1009C13.0257 27.1631 13.1191 27.1951 13.2143 27.1902C13.3095 27.1853 13.399 27.1438 13.4642 27.0746L14.4055 26.0748C14.4682 26.0032 14.5006 25.9101 14.4958 25.8151C14.491 25.7201 14.4494 25.6307 14.3797 25.5657C14.31 25.5007 14.2177 25.4652 14.1222 25.4666C14.0268 25.468 13.9356 25.5063 13.8679 25.5733L13.1691 26.3139L12.8766 26.0615C12.8401 26.0299 12.7977 26.0059 12.7518 25.9906C12.7059 25.9754 12.6575 25.9693 12.6092 25.9727C12.561 25.9761 12.5139 25.989 12.4706 26.0105C12.4274 26.0321 12.3888 26.0619 12.3571 26.0983C12.3254 26.1347 12.3012 26.1769 12.2859 26.2226C12.2707 26.2683 12.2645 26.3165 12.268 26.3646C12.2714 26.4126 12.2843 26.4595 12.3059 26.5026C12.3276 26.5456 12.3575 26.5841 12.394 26.6156L12.9537 27.1009ZM32.9885 9.8218L30.7153 18.7133L30.7722 18.7278C30.819 18.7396 30.8631 18.7606 30.9019 18.7894C30.9406 18.8183 30.9733 18.8544 30.998 18.8958C31.0227 18.9372 31.039 18.9831 31.0459 19.0308C31.0528 19.0785 31.0502 19.127 31.0382 19.1737L29.8635 23.7707C29.8391 23.8649 29.7784 23.9456 29.6945 23.9953C29.6105 24.0449 29.5103 24.0595 29.4156 24.0357L29.118 23.9604L28.7495 25.4025C28.7335 25.4612 28.7135 25.5188 28.6894 25.5748V30.0676C28.6888 30.5799 28.4842 31.0711 28.1204 31.4334C27.7566 31.7957 27.2634 31.9994 26.7489 32H10.9401C10.4257 31.9994 9.93248 31.7956 9.56876 31.4334C9.20503 31.0711 9.00048 30.5799 9 30.0676V10.4113C9.00057 9.89902 9.20516 9.40793 9.56888 9.04573C9.9326 8.68353 10.4257 8.47979 10.9401 8.47922H15.0919V8.00441C15.0922 7.73811 15.1985 7.4828 15.3876 7.2945C15.5767 7.1062 15.8331 7.00029 16.1005 7H21.6758C21.9432 7.00029 22.1996 7.10619 22.3888 7.29448C22.5779 7.48277 22.6844 7.73808 22.6848 8.00441V8.47922H26.7489C27.2633 8.47979 27.7565 8.68352 28.1203 9.04571C28.484 9.4079 28.6887 9.89899 28.6894 10.4113V13.7749L29.8997 9.03875C29.9116 8.99204 29.9327 8.94814 29.9617 8.90954C29.9907 8.87095 30.027 8.83842 30.0686 8.81381C30.1103 8.78921 30.1563 8.77301 30.2042 8.76613C30.2522 8.75926 30.301 8.76186 30.3479 8.77377L32.7224 9.37584C32.7693 9.38766 32.8134 9.40858 32.8522 9.43741C32.891 9.46624 32.9237 9.5024 32.9484 9.54383C32.9731 9.58526 32.9894 9.63114 32.9963 9.67884C33.0031 9.72654 33.0005 9.77512 32.9885 9.8218ZM15.8283 8.47922V9.68661C15.8284 9.75838 15.857 9.8272 15.908 9.87795C15.959 9.92871 16.0281 9.95726 16.1001 9.95736H21.6754C21.7475 9.95726 21.8167 9.92872 21.8677 9.87797C21.9187 9.82723 21.9475 9.75842 21.9477 9.68661V8.00441C21.9475 7.9326 21.9187 7.86379 21.8677 7.81305C21.8167 7.7623 21.7475 7.73376 21.6754 7.73366H16.1001C16.0281 7.73376 15.959 7.76231 15.908 7.81307C15.857 7.86382 15.8284 7.93263 15.8283 8.00441V8.47922ZM27.9527 30.0676V26.3081C27.8039 26.3695 27.6452 26.4035 27.4842 26.4087L27.238 27.3709C27.2178 27.4499 27.1718 27.5199 27.1073 27.57C27.0427 27.6201 26.9632 27.6473 26.8814 27.6474C26.8505 27.6473 26.8198 27.6434 26.7898 27.6359C26.6951 27.6118 26.614 27.5512 26.5641 27.4675C26.5142 27.3839 26.4997 27.2839 26.5237 27.1896L26.771 26.2241C26.517 26.0801 26.3177 25.8569 26.2038 25.5889C26.0899 25.3209 26.0677 25.0231 26.1407 24.7413L26.5089 23.2992L26.2131 23.2242C26.1662 23.2124 26.1221 23.1914 26.0833 23.1626C26.0445 23.1338 26.0118 23.0976 25.9871 23.0562C25.9624 23.0148 25.9461 22.9689 25.9393 22.9212C25.9324 22.8735 25.935 22.8249 25.947 22.7782L27.1222 18.1812C27.134 18.1345 27.155 18.0905 27.1839 18.0519C27.2129 18.0133 27.2492 17.9808 27.2909 17.9562C27.3749 17.9067 27.4752 17.8922 27.57 17.9159L27.6272 17.9307L27.953 16.6573V10.4113C27.9526 10.0935 27.8257 9.78884 27.6 9.56417C27.3743 9.3395 27.0684 9.21317 26.7493 9.21288H22.6844V9.68661C22.6844 9.95293 22.5782 10.2084 22.3891 10.3967C22.2 10.5851 21.9436 10.6909 21.6761 10.691H16.1009C15.8335 10.6907 15.5771 10.5848 15.388 10.3965C15.1989 10.2082 15.0925 9.95291 15.0922 9.68661V9.21288H10.9401C10.6211 9.21326 10.3152 9.33964 10.0896 9.5643C9.86402 9.78895 9.73712 10.0935 9.73673 10.4113V30.0676C9.73702 30.3854 9.86389 30.6901 10.0895 30.9148C10.3151 31.1395 10.621 31.266 10.9401 31.2663H26.7489C27.068 31.266 27.374 31.1395 27.5997 30.9148C27.8253 30.6901 27.9523 30.3854 27.9527 30.0676ZM28.4037 23.7794L28.2676 23.7433L27.2246 23.4794L26.8561 24.9215C26.8168 25.0772 26.841 25.242 26.9234 25.38C27.0057 25.518 27.1395 25.618 27.2956 25.6581C27.4519 25.6975 27.6175 25.6735 27.7561 25.5916C27.8947 25.5096 27.9951 25.3763 28.0352 25.2208L28.4037 23.7794ZM30.2316 19.3486L30.1759 19.3342L28.3762 18.8777L27.7445 18.7177L26.7522 22.6034L28.6673 23.089L28.9425 23.1586L29.2404 23.2339L30.2316 19.3486ZM32.1823 9.99665L30.5216 9.57557L28.3411 18.1113L28.9363 18.2623L30.001 18.5324L32.1823 9.99665Z" fill="#292D32"/>
</g>
</svg>
