<svg width="31" height="32" viewBox="0 0 31 32" fill="none" xmlns="http://www.w3.org/2000/svg">
<g style="mix-blend-mode:luminosity">
<path d="M14.2082 13.5108C15.8376 13.5108 17.1585 12.1473 17.1585 10.4654C17.1585 8.78341 15.8376 7.41992 14.2082 7.41992C12.5788 7.41992 11.258 8.78341 11.258 10.4654C11.258 12.1473 12.5788 13.5108 14.2082 13.5108Z" fill="#4294FF"/>
</g>
<g style="mix-blend-mode:luminosity">
<path d="M14.2083 14.4656C11.2079 14.4656 8.71933 16.7285 8.25741 19.6915C8.17234 20.2372 8.62827 20.6878 9.18056 20.6878H19.236C19.7883 20.6878 20.2442 20.2372 20.1592 19.6915C19.6973 16.7285 17.2087 14.4656 14.2083 14.4656Z" fill="#4294FF"/>
</g>
<g style="mix-blend-mode:luminosity">
<path d="M30.6216 29.5247L25.1231 23.9307C27.1783 21.4231 28.4167 18.1996 28.4167 14.6872C28.4167 6.71675 22.0428 0.2323 14.2083 0.2323C6.37386 0.2323 0 6.71666 0 14.6872C0 22.6577 6.37386 29.142 14.2083 29.142C17.662 29.142 20.8315 27.8813 23.2966 25.7893L28.795 31.3831C29.0473 31.6397 29.3778 31.768 29.7083 31.768C30.0388 31.768 30.3695 31.6397 30.6216 31.3831C31.1262 30.8699 31.1262 30.0379 30.6216 29.5247ZM2.58333 14.6872C2.58333 8.16592 7.79831 2.86046 14.2083 2.86046C20.6184 2.86046 25.8333 8.16592 25.8333 14.6872C25.8333 21.2084 20.6184 26.5139 14.2083 26.5139C7.79831 26.5139 2.58333 21.2084 2.58333 14.6872Z" fill="#B9DCFF"/>
</g>
</svg>
