<svg width="11" height="16" viewBox="0 0 11 16" fill="none" xmlns="http://www.w3.org/2000/svg">
<path d="M3.61962 5.01478V10.9499C3.62745 11.3839 3.82982 11.7978 4.18307 12.1023C4.53632 12.4068 5.01211 12.5775 5.50777 12.5775C6.00344 12.5775 6.47923 12.4068 6.83248 12.1023C7.18572 11.7978 7.3881 11.3839 7.39593 10.9499L7.40205 3.83716C7.40719 3.46621 7.3282 3.09806 7.16965 2.75404C7.0111 2.41002 6.77615 2.09699 6.47842 1.83308C6.18069 1.56918 5.8261 1.35965 5.43521 1.21664C5.04431 1.07364 4.62489 1 4.20126 1C3.77763 1 3.35821 1.07364 2.96732 1.21664C2.57643 1.35965 2.22184 1.56918 1.92411 1.83308C1.62637 2.09699 1.39142 2.41002 1.23288 2.75404C1.07433 3.09806 0.995332 3.46621 1.00047 3.83716V11.0023C0.991841 11.5246 1.10185 12.0431 1.3241 12.5278C1.54635 13.0124 1.8764 13.4536 2.29508 13.8256C2.71376 14.1976 3.2127 14.4929 3.7629 14.6946C4.31309 14.8962 4.90357 15 5.5 15C6.09643 15 6.68691 14.8962 7.2371 14.6946C7.7873 14.4929 8.28624 14.1976 8.70492 13.8256C9.1236 13.4536 9.45365 13.0124 9.6759 12.5278C9.89815 12.0431 10.0082 11.5246 9.99953 11.0023V3.68376" stroke="#A5A4B5" stroke-width="1.6" stroke-linecap="round" stroke-linejoin="round"/>
</svg>
