<svg xmlns="http://www.w3.org/2000/svg" width="14.254" height="16.254" viewBox="0 0 14.254 16.254">
    <defs>
        <style>
            .cls-2{fill:#fff;opacity:.41}
        </style>
    </defs>
    <g id="Group_6473" transform="translate(-371.796 -195.589)">
        <path id="Path_4957" fill="#fff" d="M2.821 337.465H.646a.646.646 0 0 0-.646.646v6.226a.646.646 0 0 0 .646.646h2.176a.646.646 0 0 0 .646-.646v-6.226a.646.646 0 0 0-.646-.646zm0 0" transform="translate(371.796 -133.14)"/>
        <path id="Path_4956" d="M164.17 256.676h-2.176a.646.646 0 0 0-.646.646v9.706a.646.646 0 0 0 .646.646h2.176a.646.646 0 0 0 .646-.646v-9.706a.646.646 0 0 0-.646-.646zm0 0" class="cls-2" transform="translate(215.841 -55.832)"/>
        <path id="Path_4958" d="M325.517 134.66h-2.175a.646.646 0 0 0-.646.646v14.962a.646.646 0 0 0 .646.646h2.175a.646.646 0 0 0 .646-.646v-14.962a.646.646 0 0 0-.646-.646zm0 0" class="cls-2" transform="translate(59.886 60.929)"/>
    </g>
</svg>
