<svg xmlns="http://www.w3.org/2000/svg" width="8.818" height="9.233">
    <defs>
        <style>
            .cls-1{fill:#fff}
        </style>
    </defs>
    <g id="Group_10507" data-name="Group 10507" transform="translate(320.068 61.735)">
        <path id="Path_17266" data-name="Path 17266" class="cls-1" d="M-269.759 7.218V9.25c0 .4-.035.433-.414.434-.613 0-1.226-.007-1.838 0-.284.005-.407-.089-.405-.39q.015-2.08 0-4.16c0-.3.113-.395.4-.387.612.016 1.225 0 1.838.005.387 0 .414.029.415.429.006.683.004 1.36.004 2.037z" transform="translate(-44.574 -62.192)"/>
        <path id="Path_17267" data-name="Path 17267" class="cls-1" d="M-224.528 31.594c0-.419.008-.839 0-1.258-.007-.254.077-.379.35-.375.656.009 1.311.008 1.967 0 .233 0 .331.091.33.324q-.007 1.338 0 2.677c0 .221-.1.31-.313.309h-2.032c-.216 0-.306-.1-.3-.321.004-.45-.002-.904-.002-1.356z" transform="translate(-89.366 -85.774)"/>
        <path id="Path_17268" data-name="Path 17268" class="cls-1" d="M-271.07-32.4h-.966c-.225 0-.342-.086-.338-.322.006-.322-.011-.645 0-.966a.756.756 0 0 1 1.1-.694.688.688 0 0 0 .449 0 .755.755 0 0 1 1.09.68c.018.332 0 .666 0 1 0 .216-.1.311-.318.308-.33-.006-.674-.006-1.017-.006z" transform="translate(-44.611 -25.523)"/>
        <path id="Path_17269" data-name="Path 17269" class="cls-1" d="M-223.206-7.187c-.333 0-.665-.006-1 0-.236.006-.329-.1-.323-.33.008-.322-.008-.644.006-.965a.759.759 0 0 1 1.085-.693.74.74 0 0 0 .478 0 .746.746 0 0 1 1.069.67c.017.343 0 .687.008 1.03 0 .2-.091.293-.294.289-.342-.006-.686-.001-1.029-.001z" transform="translate(-89.37 -49.106)"/>
        <path id="Path_17270" data-name="Path 17270" class="cls-1" d="M-318.749 16.371h-1c-.211 0-.323-.074-.318-.3.008-.344-.01-.689.011-1.032a.746.746 0 0 1 1.062-.651.788.788 0 0 0 .507 0 .755.755 0 0 1 1.057.632c.028.364.007.731.008 1.1 0 .2-.119.259-.293.259h-1.033z" transform="translate(0 -71.152)"/>
        <path id="Path_17271" data-name="Path 17271" class="cls-1" d="M-318.7 53.682h1c.217 0 .312.088.308.308q-.011.579 0 1.158c0 .224-.106.307-.314.307h-2.027c-.217 0-.308-.1-.3-.315q.011-.579 0-1.158c0-.22.091-.309.31-.3.343.009.686 0 1.03 0z" transform="translate(-.026 -107.96)"/>
        <path id="Path_17272" data-name="Path 17272" class="cls-1" d="M-262.909-60.215a.753.753 0 0 1-.715-.8.764.764 0 0 1 .795-.723.765.765 0 0 1 .732.787.753.753 0 0 1-.812.736z" transform="translate(-52.797)"/>
        <path id="Path_17273" data-name="Path 17273" class="cls-1" d="M-215.738-35.625a.742.742 0 0 1 .784-.757.756.756 0 0 1 .741.742.779.779 0 0 1-.775.784.763.763 0 0 1-.75-.769z" transform="translate(-97.591 -23.715)"/>
        <path id="Path_17274" data-name="Path 17274" class="cls-1" d="M-309.954-12.189a.745.745 0 0 1-.76.751.757.757 0 0 1-.767-.749.776.776 0 0 1 .749-.776.762.762 0 0 1 .778.774z" transform="translate(-8.032 -45.621)"/>
    </g>
</svg>
