<svg width="26" height="28" viewBox="0 0 26 28" fill="none" xmlns="http://www.w3.org/2000/svg">
<path d="M3.12269 23.6731C1.42786 22.2575 1.43258 19.6927 3.13145 18.282C4.05104 17.5183 5.05766 16.8593 6.13338 16.3199C8.3228 15.2221 10.7381 14.6501 13.1874 14.6493C15.6366 14.6485 18.0523 15.219 20.2424 16.3155C21.3184 16.8542 22.3255 17.5126 23.2455 18.2757C24.9453 19.6853 24.9516 22.2501 23.2577 23.6668C22.3382 24.4358 21.3305 25.0995 20.2528 25.6428C18.0626 26.7468 15.6441 27.3223 13.1913 27.3231C10.7386 27.3239 8.31973 26.7499 6.12879 25.6472C5.05077 25.1047 4.04268 24.4415 3.12269 23.6731Z" fill="#4294FF"/>
<path d="M13.1869 12.6217C9.82716 12.6217 7.10351 9.89803 7.10351 6.53825C7.10351 3.17847 9.82716 0.454834 13.1869 0.454834C16.5467 0.454834 19.2704 3.17847 19.2704 6.53825C19.2704 9.89803 16.5467 12.6217 13.1869 12.6217Z" fill="#B9DCFF"/>
</svg>
