<svg xmlns="http://www.w3.org/2000/svg" width="49.316" height="49.542" viewBox="0 0 49.316 49.542">
    <defs>
        <clipPath id="clip-path">
            <path id="Path_4729" fill="#d9ebff" d="M14.291 0A14.291 14.291 0 1 1 0 14.291 14.291 14.291 0 0 1 14.291 0z" transform="translate(0 0)"/>
        </clipPath>
        <filter id="Oval" width="47.823" height="47.823" x="1.152" y="1.719" filterUnits="userSpaceOnUse">
            <feOffset dy="1"/>
            <feGaussianBlur result="blur" stdDeviation="1.5"/>
            <feFlood flood-color="#bccaec" flood-opacity=".22"/>
            <feComposite in2="blur" operator="in"/>
            <feComposite in="SourceGraphic"/>
        </filter>
        <style>
            .cls-6{fill:#ffd944}
        </style>
    </defs>
    <g id="Group_7909" transform="translate(-588 -502.226)">
        <g id="Group_7802" transform="translate(588 502.225)">
            <g id="Group_7375" transform="translate(0 0)">
                <circle id="Oval-2" cx="24.658" cy="24.658" r="24.658" fill="#f7f9fd"/>
                <g id="Group_5576" transform="translate(5.652 5.219)">
                    <g filter="url(#Oval)" transform="matrix(1, 0, 0, 1, -5.65, -5.22)">
                        <circle id="Oval-3" cx="19.411" cy="19.411" r="19.411" fill="#fff" transform="translate(5.65 5.22)"/>
                    </g>
                    <g id="Group_7404" transform="translate(5 5)">
                        <path id="Path_4661" fill="#ffefba" d="M14.291 0A14.291 14.291 0 1 1 0 14.291 14.291 14.291 0 0 1 14.291 0z" opacity="0.77"/>
                    </g>
                </g>
            </g>
        </g>
        <g id="feedback" transform="translate(415.921 512.8)">
            <path id="Path_14096" d="M196.732 5.09l1.24 8.955-1.24 6.917-3.914 1.263a1.749 1.749 0 0 1-2.286-1.63l-.087-4.2-2.345-3.3a1.749 1.749 0 0 1 .826-2.657L192.846 9l2.509-3.236a1.737 1.737 0 0 1 1.377-.674z" class="cls-6" transform="translate(0 0)"/>
            <path id="Path_14097" fill="#ff9e22" d="M357.951 13.1l-2.356 3.3-.073 4.2a1.749 1.749 0 0 1-2.285 1.635l-3.927-1.262V5.09h.007a1.739 1.739 0 0 1 1.384.681L353.194 9l3.932 1.432a1.749 1.749 0 0 1 .825 2.668z" transform="translate(-152.578 0)"/>
            <path id="Path_14098" fill="#fff26c" d="M280.986 97.04l.54 3.511-.54 3.611-1.707.551a.832.832 0 0 1-1.087-.775l-.038-1.833-1.023-1.44a.831.831 0 0 1 .393-1.263l1.712-.626 1.1-1.413a.832.832 0 0 1 .65-.323z" transform="translate(-84.254 -86.851)"/>
            <path id="Path_14099" d="M353.166 100.666l-1.027 1.438-.032 1.831a.832.832 0 0 1-1.086.777l-1.711-.55V97.04a.833.833 0 0 1 .658.324l1.089 1.411 1.717.626a.831.831 0 0 1 .391 1.265z" class="cls-6" transform="translate(-152.578 -86.851)"/>
        </g>
    </g>
</svg>
