<svg xmlns="http://www.w3.org/2000/svg" width="27.346" height="38.039" viewBox="0 0 27.346 38.039">
    <defs>
        <style>
            .cls-2{fill:#b9dcff}
        </style>
    </defs>
    <g id="medal" transform="translate(-71.962)">
        <path id="Path_13411" fill="#529cff" d="M91.72 26.659l1.739-2.823 3.141-1.07.348-3.3 2.362-2.325-1.123-3.121 1.121-3.12-2.361-2.323L96.6 5.28l-3.14-1.071-1.74-2.823-3.29.4L85.635 0 82.84 1.784l-3.29-.4-1.739 2.825-3.139 1.071-.348 3.3-2.362 2.32 1.123 3.121-1.123 3.121 2.362 2.325.348 3.3 3.139 1.071 1.739 2.823 3.29-.4 2.795 1.784 2.795-1.784zm-15.7-12.636a9.616 9.616 0 1 1 9.616 9.616 9.627 9.627 0 0 1-9.617-9.616z"/>
        <path id="Path_13412" d="M163.976 89.333a7.386 7.386 0 1 0 7.386 7.386 7.394 7.394 0 0 0-7.386-7.386z" class="cls-2" transform="translate(-78.34 -82.696)"/>
        <path id="Path_13413" d="M90.228 345.658l-3.914.473-2.068-3.356-.7-.24-3.032 9.478 5.459-.3 4.271 3.413 2.513-7.855z" class="cls-2" transform="translate(-7.914 -317.086)"/>
        <path id="Path_13414" d="M275.209 342.775l-2.068 3.356-3.914-.473-2.527 1.612 2.513 7.855 4.271-3.413 5.459.3-3.032-9.478z" class="cls-2" transform="translate(-180.271 -317.086)"/>
    </g>
</svg>
