<svg width="30" height="30" viewBox="0 0 30 30" fill="none" xmlns="http://www.w3.org/2000/svg">
<path d="M15.0616 7.99219C16.2494 8.0024 17.7214 8.31796 19.0453 9.1672C20.0481 9.81085 20.7732 10.6856 21.1785 11.8179C21.2239 11.9442 21.2253 12.0481 21.1721 12.1706C20.6251 13.4273 20.0814 14.6849 19.5418 15.9449C19.4733 16.105 19.3799 16.1787 19.2008 16.1941C18.1666 16.2827 17.1328 16.3815 16.1 16.4836C15.982 16.4952 15.9403 16.4465 15.9005 16.3509C15.683 15.8326 15.46 15.317 15.2397 14.7995C15.1717 14.6394 15.081 14.4988 14.9186 14.4213C14.6382 14.2868 14.348 14.4185 14.1967 14.7596C13.9658 15.2803 13.7353 15.8015 13.5202 16.3286C13.4623 16.4702 13.3911 16.5082 13.2481 16.4943C12.23 16.3945 11.2116 16.2994 10.1926 16.2066C10.0302 16.1917 9.93438 16.1226 9.86821 15.9653C9.33375 14.7035 8.7928 13.4445 8.24723 12.1878C8.19031 12.0565 8.18985 11.9442 8.23797 11.8142C8.81038 10.2619 9.92513 9.2498 11.4147 8.6196C12.4614 8.17596 13.5632 7.99219 15.0616 7.99219Z" fill="#4F8AFF"/>
<path d="M10.3128 29.0552C10.4609 28.3985 10.6016 27.7706 10.7441 27.1428C10.9301 26.3237 11.1245 25.5065 11.3026 24.6855C11.3878 24.2934 11.2721 23.9556 10.9657 23.6873C9.9403 22.7884 8.91672 21.8882 7.89267 20.9879C7.81447 20.9192 7.74089 20.8454 7.62891 20.7405C8.06018 20.6983 8.43917 20.6589 8.81815 20.625C9.89819 20.528 10.9787 20.4366 12.0583 20.3354C12.4872 20.2955 12.7774 20.0621 12.9481 19.6634C13.4918 18.3956 14.0411 17.1301 14.5885 15.8641C14.6182 15.7955 14.651 15.7282 14.7056 15.6094C14.8579 15.9593 14.9921 16.2646 15.1235 16.5709C15.564 17.5979 16.0045 18.6244 16.4423 19.6523C16.6306 20.0941 16.9555 20.3094 17.4372 20.3512C18.862 20.4737 20.2844 20.6176 21.7078 20.7535C21.724 20.8556 21.643 20.8779 21.5963 20.9187C20.5431 21.845 19.4904 22.7708 18.433 23.6924C18.1091 23.9746 18.0045 24.3203 18.0961 24.7315C18.4062 26.1232 18.7185 27.514 19.0299 28.9057C19.0383 28.9424 19.042 28.98 19.0512 29.0361C18.9587 29.0329 18.9027 28.9809 18.8416 28.9447C17.6574 28.2407 16.4705 27.5409 15.291 26.8295C14.8778 26.5803 14.4904 26.5854 14.0781 26.8332C12.8639 27.5623 11.6423 28.2788 10.4234 28.9999C10.3984 29.0143 10.3711 29.0259 10.3128 29.0552Z" fill="#A6D2FF"/>
<path d="M0.316406 17.3925C1.82263 17.257 3.27009 17.1275 4.71801 16.9962C5.16363 16.9558 5.47042 16.7349 5.64997 16.3136C6.19415 15.0378 6.74944 13.7668 7.30103 12.4938C7.32787 12.4317 7.35795 12.3704 7.407 12.2637C7.61245 12.7403 7.80218 13.1793 7.99098 13.6183C8.38061 14.5246 8.77255 15.43 9.15801 16.3382C9.34079 16.7693 9.6698 16.967 10.1238 17.0069C11.0506 17.0881 11.9766 17.1851 12.9034 17.2667C13.0598 17.2807 13.1001 17.3099 13.0302 17.4668C12.7535 18.0863 12.4856 18.7091 12.22 19.3332C12.1607 19.4724 12.0631 19.5328 11.9206 19.5453C10.8405 19.6404 9.76004 19.737 8.68 19.833C8.12054 19.8827 7.56109 19.9309 7.00256 19.9848C6.75222 20.0089 6.53565 20.0971 6.45236 20.3653C6.3686 20.6354 6.50511 20.8266 6.69345 20.9927C7.91231 22.0684 9.1321 23.1423 10.3514 24.2175C10.5254 24.3706 10.5698 24.6727 10.4407 24.8565C10.3676 24.9605 10.3014 24.8593 10.2482 24.8282C9.57217 24.4296 8.90026 24.024 8.22466 23.624C7.95488 23.4643 7.69806 23.2782 7.35517 23.2949C7.13722 23.3056 6.95397 23.385 6.7735 23.4917C5.56852 24.2054 4.36262 24.9182 3.15671 25.6306C3.11877 25.6529 3.0873 25.6932 3.01882 25.6756C3.19188 24.9113 3.36402 24.146 3.53755 23.3817C3.69303 22.6977 3.85869 22.016 4.00353 21.3301C4.08914 20.9264 3.95032 20.5899 3.63935 20.3175C2.58477 19.3936 1.53295 18.4659 0.480217 17.5396C0.436719 17.5011 0.393221 17.4612 0.316406 17.3925Z" fill="#A6D2FF"/>
<path d="M29.054 17.4347C28.6898 17.7549 28.3451 18.0593 27.9994 18.3623C27.2345 19.0324 26.4673 19.7002 25.7042 20.3727C25.3983 20.6423 25.3076 20.988 25.3942 21.3797C25.701 22.764 26.011 24.1478 26.321 25.5312C26.3331 25.5841 26.3525 25.6347 26.3261 25.7085C25.8736 25.4398 25.4252 25.1743 24.9777 24.908C24.1975 24.443 23.4123 23.9859 22.6395 23.5093C22.1985 23.2373 21.7862 23.2336 21.3433 23.5051C20.5632 23.9835 19.7709 24.4416 18.982 24.9093C18.7899 24.468 18.8043 24.4314 19.1606 24.1204C20.3387 23.0921 21.5141 22.0595 22.6899 21.0284C22.8847 20.8576 23.0342 20.6622 22.9453 20.3838C22.857 20.1063 22.6288 20.0325 22.3674 20.0084C20.9125 19.8729 19.4577 19.7336 18.0028 19.5963C17.827 19.5796 17.6507 19.5633 17.4744 19.5499C17.3286 19.5387 17.2342 19.464 17.1773 19.3304C16.9052 18.6923 16.6354 18.0528 16.3541 17.4184C16.2809 17.2537 16.3749 17.2555 16.4813 17.2463C17.3929 17.1646 18.3041 17.0732 19.2166 17.0054C19.7187 16.9678 20.0643 16.7543 20.2661 16.2791C20.8047 15.009 21.3591 13.7454 21.9074 12.4794C21.931 12.4246 21.9583 12.3708 22.0051 12.2715C22.1166 12.5207 22.2133 12.7309 22.3049 12.9439C22.7857 14.0628 23.2711 15.1793 23.7427 16.3023C23.9356 16.7618 24.2697 16.9683 24.7542 17.0096C25.9879 17.1154 27.2197 17.2388 28.452 17.359C28.6408 17.3771 28.8351 17.3572 29.054 17.4347Z" fill="#A6D2FF"/>
<path d="M14.7082 7.19578C12.8262 7.19995 11.2885 5.65833 11.2871 3.7668C11.2862 1.87157 12.8081 0.329481 14.6929 0.316487C16.5758 0.303493 18.1306 1.8646 18.125 3.76216C18.1195 5.66297 16.5985 7.1916 14.7082 7.19578Z" fill="#4F8AFF"/>
</svg>
