<svg width="32" height="22" viewBox="0 0 32 22" fill="none" xmlns="http://www.w3.org/2000/svg">
<path d="M14.0168 9.25906C14.5268 9.07363 15.0358 8.88719 15.5448 8.70074C16.6284 8.30442 17.75 7.89383 18.8601 7.49954C19.1733 7.38849 19.5183 7.3294 19.8579 7.3294C20.1765 7.3294 20.4791 7.38034 20.7585 7.48121C21.4717 7.73795 22.1881 7.99673 22.9045 8.25551C22.9108 7.30393 22.9235 6.35234 22.8928 5.4028C22.8463 3.96931 21.8643 3.08395 20.3828 3.07274C19.8537 3.06866 19.3246 3.07172 18.7955 3.07172C18.3469 3.07172 17.8982 3.07172 17.421 3.07172C17.421 2.79664 17.4241 2.61121 17.4199 2.4268C17.3892 0.991275 16.4019 0.0580292 14.9057 0.0559916C12.8602 0.0539539 10.8147 0.0488598 8.76926 0.0580292C7.6624 0.0631234 6.7693 0.7437 6.52169 1.78698C6.42857 2.17719 6.4328 2.5888 6.38412 3.07172C5.39366 3.07172 4.42543 3.06663 3.45825 3.07274C1.95881 3.08293 0.968348 4.0233 0.954592 5.45985C0.942952 6.59686 0.947185 7.73489 0.953534 8.8719C0.956708 9.5372 1.11226 9.73689 1.7768 9.9325C3.68893 10.4959 5.60213 11.0542 7.5132 11.6176L9.81898 10.7822C11.2369 10.2677 12.6274 9.7644 14.0168 9.25906ZM8.01055 2.51544C8.01584 1.82875 8.27298 1.56589 8.99466 1.55469C9.80416 1.54144 10.6137 1.55061 11.4232 1.55061C12.4613 1.55061 13.5004 1.54959 14.5385 1.55061C15.7183 1.55163 15.9755 1.8532 15.7839 3.04116C13.2136 3.04116 10.638 3.04116 8.00949 3.04116C8.01055 2.84554 8.00949 2.68049 8.01055 2.51544Z" fill="#4F8AFF"/>
<path d="M11.0302 17.2686C11.1021 16.6736 11.0905 16.2446 11.0767 15.7474C11.0757 15.7128 11.0746 15.6771 11.0735 15.6425C10.9159 15.5854 7.13923 13.9716 7.13923 13.9716L7.12653 13.0873C7.12653 13.0873 1.11817 11.2809 0.970028 11.2422C0.970028 13.4021 0.91077 15.4887 0.99225 17.5701C1.04198 18.8528 2.05996 19.6414 3.40067 19.6414C6.13607 19.6424 8.87041 19.6414 11.6058 19.6414C10.9889 18.7866 10.9582 17.8635 11.0302 17.2686Z" fill="#4F8AFF"/>
<path d="M20.2116 17.0444C21.1089 16.7266 22.0042 16.4026 22.8983 16.0776C23.8761 15.722 24.8538 15.3644 25.8316 15.0088C27.5554 14.3822 29.2792 13.7567 31.0516 13.1128C30.9236 13.0445 30.8527 12.9946 30.7733 12.9661C27.9363 11.932 25.1004 10.8979 22.2602 9.87088C21.5491 9.61414 20.838 9.35739 20.1269 9.10065C19.9386 9.03239 19.6751 9.05276 19.4815 9.12204C17.8667 9.69564 16.2614 10.2917 14.6509 10.8765C13.2191 11.3971 11.7874 11.9157 10.324 12.4465C9.75571 12.6523 9.18429 12.8591 8.60547 13.069C8.74197 13.1423 8.79912 13.1841 8.86366 13.2075C9.6827 13.5061 10.5028 13.8046 11.3218 14.1021C14.0498 15.0944 16.7789 16.0867 19.5121 17.0669C19.7174 17.1423 20.0021 17.1188 20.2116 17.0444Z" fill="#A6D2FF"/>
<path d="M22.8896 17.2047C22.0853 17.4971 21.2864 17.7905 20.4896 18.0891C20.0282 18.2623 19.6356 18.2623 19.1764 18.0901C17.1002 17.3137 15.0114 16.568 12.8347 15.7773C12.8347 16.6016 12.9049 17.7893 12.816 18.5238C12.6996 19.4846 13.1842 20.0205 13.9864 20.4097C14.1969 20.5116 14.4107 20.6114 14.6287 20.698C14.6541 20.7082 14.6784 20.7184 14.7038 20.7275C17.2646 21.6893 19.9005 21.8452 22.5862 21.3816C23.8549 21.1626 25.0941 20.8355 26.1597 20.0979C26.4189 19.9186 26.7618 19.6384 26.7787 19.3868C26.8485 18.3527 26.8091 16.8767 26.8091 15.7875C25.4821 16.2694 24.1795 16.7361 22.8896 17.2047Z" fill="#A6D2FF"/>
<path d="M28.8583 14.6977C28.8117 15.1276 28.8413 15.5667 28.8413 16.016C29.1916 16.016 29.5006 16.016 29.8381 16.016C29.8381 15.3599 29.8381 14.7354 29.8381 14.0762C29.5969 14.1556 29.3799 14.1893 29.2106 14.2942C29.0604 14.3869 28.8741 14.5499 28.8583 14.6977Z" fill="#A6D2FF"/>
<path d="M29.3514 16.4883C28.9154 16.4914 28.6213 16.7726 28.6191 17.1872C28.617 17.5938 28.9821 17.9442 29.3884 17.9249C29.7789 17.9065 30.107 17.5612 30.0974 17.1781C30.0879 16.7665 29.7821 16.4842 29.3514 16.4883Z" fill="#A6D2FF"/>
</svg>
