<svg width="19" height="19" viewBox="0 0 19 19" fill="none" xmlns="http://www.w3.org/2000/svg">
<path d="M9.57798 14.3708C12.3102 14.3708 14.5251 12.1559 14.5251 9.42368C14.5251 6.69146 12.3102 4.47656 9.57798 4.47656C6.84576 4.47656 4.63086 6.69146 4.63086 9.42368C4.63086 12.1559 6.84576 14.3708 9.57798 14.3708Z" fill="#FED843"/>
<path d="M3.44965 9.42383C3.44965 9.13259 3.21354 8.89648 2.92231 8.89648H1.10547C0.814234 8.89648 0.578125 9.13259 0.578125 9.42383C0.578125 9.71506 0.814234 9.95117 1.10547 9.95117H2.92231C3.21354 9.95117 3.44965 9.71506 3.44965 9.42383Z" fill="#FED843"/>
<path d="M3.96078 3.05971C3.75487 2.8538 3.42095 2.8538 3.21501 3.05971C3.00906 3.26562 3.00906 3.59953 3.21501 3.80548L4.49969 5.09015C4.60266 5.19313 4.73762 5.24463 4.87255 5.24463C5.00748 5.24463 5.14248 5.19313 5.24542 5.09015C5.45137 4.88424 5.45137 4.55033 5.24542 4.34439L3.96078 3.05971Z" fill="#FED843"/>
<path d="M9.57812 0.423828C9.28689 0.423828 9.05078 0.659937 9.05078 0.951172V2.76801C9.05078 3.05925 9.28689 3.29536 9.57812 3.29536C9.86936 3.29536 10.1055 3.05925 10.1055 2.76801V0.951172C10.1055 0.659937 9.86936 0.423828 9.57812 0.423828Z" fill="#FED843"/>
<path d="M14.2852 5.24463C14.4201 5.24463 14.5551 5.19313 14.658 5.09015L15.9427 3.80548C16.1487 3.59957 16.1487 3.26565 15.9427 3.05971C15.7368 2.8538 15.4029 2.8538 15.197 3.05971L13.9123 4.34439C13.7063 4.5503 13.7063 4.88421 13.9123 5.09015C14.0152 5.19313 14.1502 5.24463 14.2852 5.24463Z" fill="#FABE2C"/>
<path d="M18.0512 8.89648H16.2344C15.9431 8.89648 15.707 9.13259 15.707 9.42383C15.707 9.71506 15.9431 9.95117 16.2344 9.95117H18.0512C18.3424 9.95117 18.5785 9.71506 18.5785 9.42383C18.5785 9.13259 18.3424 8.89648 18.0512 8.89648Z" fill="#FABE2C"/>
<path d="M14.658 13.757C14.4521 13.5511 14.1182 13.5511 13.9123 13.757C13.7063 13.9629 13.7063 14.2968 13.9123 14.5027L15.197 15.7874C15.2999 15.8904 15.4349 15.9419 15.5698 15.9419C15.7047 15.9419 15.8397 15.8904 15.9427 15.7874C16.1486 15.5815 16.1486 15.2476 15.9427 15.0417L14.658 13.757Z" fill="#FABE2C"/>
<path d="M9.57812 15.5527C9.28689 15.5527 9.05078 15.7888 9.05078 16.0801V17.8969C9.05078 18.1881 9.28689 18.4242 9.57812 18.4242C9.86936 18.4242 10.1055 18.1881 10.1055 17.8969V16.0801C10.1055 15.7888 9.86936 15.5527 9.57812 15.5527Z" fill="#FED843"/>
<path d="M4.49969 13.757L3.21501 15.0417C3.00906 15.2476 3.00906 15.5815 3.21501 15.7874C3.31798 15.8904 3.45294 15.9419 3.58787 15.9419C3.7228 15.9419 3.8578 15.8904 3.96074 15.7874L5.24542 14.5028C5.45137 14.2969 5.45137 13.9629 5.24542 13.757C5.03954 13.5511 4.70563 13.5511 4.49969 13.757Z" fill="#FED843"/>
<path d="M9.5918 15.5527V18.4228C9.87639 18.4151 10.1049 18.1826 10.1049 17.8961V16.0793C10.1049 15.7929 9.87639 15.5604 9.5918 15.5527Z" fill="#FABE2C"/>
<path d="M9.5918 0.424805V3.29489C9.87639 3.28723 10.1049 3.05467 10.1049 2.76825V0.95141C10.1049 0.664992 9.87639 0.432434 9.5918 0.424805Z" fill="#FABE2C"/>
<path d="M9.57794 4.47656C9.57537 4.47656 9.57288 4.47667 9.57031 4.47667V14.3707C9.57288 14.3707 9.57537 14.3708 9.57794 14.3708C12.3058 14.3708 14.5251 12.1515 14.5251 9.42365C14.5251 6.6958 12.3058 4.47656 9.57794 4.47656Z" fill="#FABE2C"/>
</svg>
