<svg width="22" height="16" viewBox="0 0 22 16" fill="none" xmlns="http://www.w3.org/2000/svg">
<path d="M18.8888 0H2.4445C1.09603 0 0 1.09603 0 2.4445V13.5555C0 14.904 1.09603 16 2.4445 16H18.8888C20.2373 16 21.3333 14.904 21.3333 13.5555V2.4445C21.3333 1.09603 20.2373 0 18.8888 0Z" fill="#B9DCFF"/>
<path fill-rule="evenodd" clip-rule="evenodd" d="M19.3632 6.00037L19.363 6.0005H19.3632C19.2533 6.16666 19.2133 6.36681 19.1798 6.57536C19.1387 6.82942 19.0954 7.07326 19.0056 7.31229C18.8977 7.5988 18.7164 7.91802 18.4009 8.16792C18.073 7.28019 17.5958 6.46498 17 5.75209C17.3759 5.60183 17.7448 5.60412 18.0482 5.65416C18.3002 5.69589 18.533 5.78029 18.7737 5.87174C18.9709 5.94702 19.1642 6.01253 19.3632 6.00037Z" fill="#4F8AFF"/>
<path fill-rule="evenodd" clip-rule="evenodd" d="M15.702 2.34033L15.7019 2.34052L15.7021 2.34042C15.69 2.5393 15.7555 2.73258 15.8307 2.92996C15.9222 3.17052 16.0066 3.40337 16.0483 3.6553C16.0984 3.95892 16.1006 4.32834 15.95 4.70456C15.2361 4.10963 14.4198 3.63348 13.5312 3.30684C13.7817 2.98873 14.1024 2.80634 14.3902 2.69797C14.6292 2.60814 14.8731 2.56479 15.1272 2.52367C15.3357 2.49023 15.5358 2.45033 15.702 2.34033Z" fill="#4F8AFF"/>
<path fill-rule="evenodd" clip-rule="evenodd" d="M18.7852 9.60498C19.1831 9.66378 19.4996 9.84939 19.7362 10.0435C19.9335 10.2056 20.0929 10.3951 20.2556 10.5946C20.3888 10.7584 20.5234 10.9118 20.7017 11.0007H18.9054C18.9049 10.5248 18.8635 10.0586 18.7852 9.60498Z" fill="#4F8AFF"/>
<path fill-rule="evenodd" clip-rule="evenodd" d="M5.70107 2.34039L5.7012 2.34055V2.34033C5.86737 2.45029 6.06754 2.4902 6.27606 2.52374C6.53012 2.56483 6.77396 2.60814 7.01299 2.69794C7.30077 2.80631 7.62152 2.98877 7.87193 3.30684C6.9833 3.63342 6.16711 4.10966 5.45317 4.70456C5.3025 4.32834 5.30476 3.95896 5.35486 3.6553C5.39659 3.40337 5.48099 3.17053 5.57244 2.92989C5.64772 2.73261 5.71323 2.5393 5.70107 2.34039Z" fill="#4F8AFF"/>
<path fill-rule="evenodd" clip-rule="evenodd" d="M2.04102 6.00046L2.04121 6.00053L2.04111 6.00034C2.23998 6.0125 2.4333 5.94696 2.63065 5.87173C2.87121 5.78028 3.10406 5.69588 3.35596 5.65413C3.65936 5.60412 4.02837 5.60186 4.40423 5.75209C3.80841 6.46495 3.33128 7.28025 3.00331 8.16792C2.6878 7.91798 2.50656 7.59883 2.39866 7.31229C2.30883 7.07325 2.26548 6.82942 2.2244 6.57529C2.19092 6.3668 2.15101 6.16663 2.04102 6.00046Z" fill="#4F8AFF"/>
<path fill-rule="evenodd" clip-rule="evenodd" d="M0.701172 11.0007C0.879432 10.9118 1.01404 10.7584 1.14731 10.5946C1.30992 10.3951 1.46935 10.2056 1.66664 10.0435C1.90323 9.84942 2.21962 9.66375 2.61755 9.60498C2.53925 10.0586 2.49794 10.5248 2.49743 11.0007H0.701172Z" fill="#4F8AFF"/>
<path fill-rule="evenodd" clip-rule="evenodd" d="M10.7016 1L10.7016 1.00019L10.7017 1C10.7907 1.17833 10.9441 1.31296 11.1079 1.44626C11.3073 1.60888 11.4969 1.76831 11.659 1.96559C11.8543 2.20368 12.041 2.52258 12.0986 2.92403C11.6445 2.84611 11.1779 2.80509 10.7017 2.80509C10.2254 2.80509 9.75879 2.84611 9.30469 2.92407C9.36222 2.52264 9.549 2.20368 9.74432 1.96562C9.90642 1.76831 10.0959 1.60888 10.2955 1.4462C10.4593 1.31299 10.6127 1.17833 10.7016 1Z" fill="#4F8AFF"/>
<path fill-rule="evenodd" clip-rule="evenodd" d="M9.02803 11.0022L9.64534 11.0004C9.72644 10.479 9.56787 10.0776 9.04042 10.1734C8.59597 10.2541 8.1186 10.6956 7.83008 11.0004L8.64402 10.9968C8.7347 10.9372 8.91215 10.8692 8.98505 10.9198C9.01233 10.9388 9.02659 10.9657 9.02803 11.0022Z" fill="#4F8AFF"/>
<path fill-rule="evenodd" clip-rule="evenodd" d="M11.8058 11.0007H12.5759C12.6125 10.0913 12.466 9.15213 12.0432 8.33959C11.6586 7.60031 11.023 7.09781 10.2 6.97635C8.99868 6.79911 7.7865 7.3077 6.76169 8.03527C5.64581 8.82748 4.72481 9.90338 3.91992 11.0007L4.9372 10.9992C5.85307 9.70114 7.95962 7.73037 9.50925 7.71751C10.0031 7.71341 10.5052 7.82935 10.8764 8.16053C11.1454 8.40052 11.4714 8.8666 11.4555 9.24488C11.446 9.46916 11.2469 9.53793 11.0561 9.46845C10.9078 9.41444 10.8031 9.27892 10.6993 9.13644C10.3622 8.67354 9.83621 8.44698 9.25935 8.52589C8.57128 8.62001 7.71845 9.15426 7.16835 9.64015C6.69396 10.0592 6.25847 10.5178 5.84767 11.0007H6.94142C7.3423 10.5168 7.76564 10.1041 8.30979 9.7651C8.482 9.65783 8.69401 9.54438 8.91695 9.46776C9.47924 9.27448 10.0388 9.32341 10.2872 10.0235C10.3849 10.2988 10.3992 10.5402 10.3708 10.9827L10.3707 11.0007H11.1145L11.1163 10.978C11.1169 10.7357 11.1117 10.5725 11.1335 10.3323C11.1523 10.1253 11.2166 9.91087 11.4088 9.88541C11.8173 9.7998 11.7977 10.7086 11.8058 11.0007Z" fill="#4F8AFF"/>
<path fill-rule="evenodd" clip-rule="evenodd" d="M13.385 11.0003H14.1615C14.1991 10.1565 14.1267 9.1569 13.8538 8.28406C13.7999 8.11183 13.7383 7.94468 13.6684 7.78512C13.5031 7.40789 13.2807 7.06648 13.0155 6.75095C12.7208 6.40042 12.3697 6.08521 11.9738 5.83692C11.857 5.7637 11.7358 5.69607 11.6108 5.63494V5.63478C11.4867 5.57413 11.3584 5.51987 11.2263 5.47297L11.2257 5.47278C9.71359 4.93589 8.18423 5.31772 6.90132 6.0155C6.65117 6.15154 6.41048 6.29954 6.18129 6.45497C5.95218 6.61031 5.73401 6.77349 5.52885 6.93991L5.52882 6.93988L5.52879 6.93991L5.52847 6.94023C5.28491 7.13776 4.98018 7.40802 4.67862 7.72749C4.61924 7.79039 4.56062 7.85444 4.50353 7.91918C4.35093 8.09218 4.11579 8.33474 4.18558 8.58549C4.24083 8.78437 4.49743 8.72579 4.58685 8.65723C4.72406 8.58365 4.87473 8.46696 5.00365 8.35783C5.17829 8.21001 5.34318 8.05093 5.51608 7.90105C6.21529 7.29494 6.94413 6.82747 7.66204 6.51111C7.81852 6.44218 7.97516 6.38013 8.13129 6.32532C8.28685 6.27067 8.44161 6.22333 8.59502 6.18348L8.59575 6.18329C9.93155 5.83642 11.3831 6.06114 12.3126 7.1505C13.2079 8.19982 13.3714 9.60446 13.385 11.0003ZM3.75037 9.81407C3.83382 9.73617 3.91886 9.63457 4.00745 9.5221C4.13135 9.36485 4.1438 9.21263 4.09486 9.10273C4.07661 9.06167 4.04968 9.02639 4.01697 8.99905C3.98452 8.97194 3.94619 8.95257 3.90482 8.94311C3.80378 8.92002 3.68302 8.95619 3.58043 9.08101C3.46443 9.22206 3.30427 9.46341 3.27153 9.6769C3.2654 9.7169 3.26378 9.75573 3.26791 9.79225C3.27191 9.82775 3.28138 9.86148 3.29735 9.89231L3.29744 9.89259L3.29754 9.89253C3.32364 9.9427 3.36768 9.96909 3.42646 9.97131C3.43871 9.97175 3.45199 9.97122 3.46605 9.96966C3.47983 9.96814 3.49472 9.96543 3.51057 9.96169L3.5106 9.96185L3.51136 9.96166C3.59049 9.94267 3.66959 9.88948 3.75037 9.81407Z" fill="#4F8AFF"/>
<path fill-rule="evenodd" clip-rule="evenodd" d="M15.328 11.0008L15.3336 11.0007H15.3363C15.4175 11.005 15.5586 10.9677 15.6399 10.8305C15.6561 10.8031 15.67 10.7717 15.6806 10.7361C15.6914 10.6999 15.6988 10.6588 15.702 10.6126H15.702L15.7026 10.6032H15.7026C15.7643 8.44651 15.1038 6.66124 13.9823 5.4483C13.7645 5.21275 13.529 4.99851 13.2777 4.8072C13.0267 4.61604 12.7603 4.44803 12.4807 4.30476L12.4806 4.30483L12.4762 4.30257L12.4761 4.30245C11.5335 3.82078 10.4645 3.63578 9.4152 3.72466C9.21049 3.74196 9.00702 3.76966 8.80605 3.80741C8.60451 3.84526 8.40462 3.8934 8.20778 3.95151L8.20499 3.95233C7.12585 4.27155 6.12168 4.90516 5.30336 5.73656C5.14396 5.8985 4.99171 6.06778 4.84761 6.24341C4.776 6.33066 4.70627 6.41957 4.63867 6.50991C5.21255 6.01474 5.82821 5.58043 6.4722 5.23539C6.61725 5.15769 6.76313 5.08469 6.90945 5.01702C7.05596 4.9492 7.20431 4.88595 7.35415 4.82768L7.35463 4.82749L7.35508 4.82733C7.924 4.60617 8.48486 4.46515 9.04585 4.40212C9.60684 4.33912 10.1682 4.35408 10.7382 4.44473C11.1439 4.50926 11.54 4.6155 11.8967 4.76408C11.9659 4.79291 12.034 4.82355 12.1007 4.85588C12.1664 4.88779 12.2312 4.9217 12.2947 4.95752H12.2949L12.2958 4.95806L12.2958 4.95812C13.5517 5.64584 14.4242 7.05699 14.8085 8.65028C14.8835 8.96102 14.9399 9.27839 14.9769 9.59818C15.0139 9.91778 15.0317 10.241 15.0294 10.5635V10.5636L15.0293 10.5821C15.0357 10.7547 15.0948 10.899 15.1961 10.964C15.215 10.9761 15.2355 10.9855 15.2572 10.9917H15.2573C15.2795 10.998 15.3031 11.0011 15.328 11.0008Z" fill="#4F8AFF"/>
<path fill-rule="evenodd" clip-rule="evenodd" d="M13.082 3.81299C16.1016 4.81036 18.2839 7.64997 18.2966 11.0004H16.8024C16.9014 8.07369 15.6241 5.43197 13.082 3.81299Z" fill="#4F8AFF"/>
<path fill-rule="evenodd" clip-rule="evenodd" d="M4.31775 13.3503H3.71335L3.56375 13.8769H3.08203L3.71933 11.8602H4.32971L4.98498 13.8769H4.48231L4.31775 13.3503ZM3.78217 13.0092H4.24594C4.12426 12.6152 4.04547 12.345 4.00956 12.1983H4.00358L3.90783 12.5813L3.78217 13.0092ZM6.53767 13.3503H5.93327L5.78367 13.8769H5.30195L5.93925 11.8602H6.54963L7.20489 13.8769H6.70223L6.53767 13.3503ZM6.00209 13.0092H6.46585C6.34418 12.6152 6.26539 12.345 6.22948 12.1983H6.22349L6.12775 12.5813L6.00209 13.0092ZM7.66548 13.8679V11.8872C7.86496 11.8572 8.07838 11.8423 8.30579 11.8423C8.73564 11.8423 9.04432 11.932 9.23133 12.1121C9.41832 12.2921 9.51159 12.5275 9.51159 12.8177C9.51159 13.1608 9.40536 13.4266 9.19242 13.6151C8.97949 13.8036 8.65086 13.8978 8.20705 13.8978C8.00159 13.8978 7.82107 13.8878 7.66548 13.8679ZM8.12924 12.2163V13.5298C8.15518 13.5358 8.21103 13.5388 8.2968 13.5388C8.52719 13.5388 8.70571 13.4779 8.83189 13.3568C8.95805 13.2356 9.02088 13.062 9.02088 12.8356C9.02088 12.6282 8.96354 12.4701 8.84835 12.3614C8.73314 12.2527 8.56708 12.1983 8.35066 12.1983C8.2599 12.1983 8.1861 12.2043 8.12924 12.2163ZM10.0081 11.8602H10.4718V12.6352H11.2647V11.8602H11.7285V13.8769H11.2647V13.0361H10.4718V13.8769H10.0081V11.8602ZM13.4099 13.3503H12.8055L12.6559 13.8769H12.1741L12.8114 11.8602H13.4218L14.0771 13.8769H13.5744L13.4099 13.3503ZM12.8743 13.0092H13.3381C13.2164 12.6152 13.1376 12.345 13.1017 12.1983H13.0957L12.9999 12.5813L12.8743 13.0092ZM15.6298 13.3503H15.0254L14.8758 13.8769H14.3941L15.0314 11.8602H15.6417L16.297 13.8769H15.7943L15.6298 13.3503ZM15.0942 13.0092H15.558C15.4363 12.6152 15.3575 12.345 15.3216 12.1983H15.3156L15.2199 12.5813L15.0942 13.0092ZM16.7576 13.8769V11.8872C16.9272 11.8572 17.1356 11.8423 17.3829 11.8423C17.6881 11.8423 17.9075 11.8927 18.0412 11.9934C18.1748 12.0941 18.2417 12.2382 18.2417 12.4257C18.2417 12.5374 18.2083 12.6382 18.1409 12.7284C18.0736 12.8187 17.9863 12.8825 17.8796 12.9194V12.9314C18.0053 12.9783 18.096 13.1019 18.1519 13.3024C18.2546 13.6634 18.3105 13.8549 18.3195 13.8769H17.8467C17.8068 13.8021 17.7589 13.6455 17.7031 13.4071C17.6752 13.2874 17.6373 13.2037 17.5894 13.1558C17.5415 13.1079 17.4647 13.084 17.359 13.084H17.2154V13.8769H16.7576ZM17.2154 12.1983V12.7519H17.4069C17.5226 12.7519 17.6138 12.7254 17.6806 12.6731C17.7475 12.6207 17.7809 12.5504 17.7809 12.4616C17.7809 12.3729 17.751 12.3041 17.6906 12.2557C17.6303 12.2073 17.5445 12.1834 17.4338 12.1834C17.3251 12.1834 17.2523 12.1884 17.2154 12.1983Z" fill="#4F8AFF"/>
</svg>
