<svg width="24" height="22" viewBox="0 0 24 22" fill="none" xmlns="http://www.w3.org/2000/svg">
<path d="M10 14.5L0 8.76V8C0 6.89 0.89 6 2 6H18C18.5304 6 19.0391 6.21071 19.4142 6.58579C19.7893 6.96086 20 7.46957 20 8V8.75L10 14.5Z" fill="#9FCEFF"/>
<path d="M10 17.05L0 11V20C0 21.1046 0.895431 22 2 22H18C19.1046 22 20 21.1046 20 20V11L10 17.05Z" fill="#9FCEFF"/>
<mask id="path-3-outside-1_230_16337" maskUnits="userSpaceOnUse" x="10" y="0" width="14" height="14" fill="black">
<rect fill="white" x="10" width="14" height="14"/>
<path fill-rule="evenodd" clip-rule="evenodd" d="M21.7965 10.4952C21.9234 10.5774 22 10.7183 22 10.8694C22 11.0336 21.8669 11.1667 21.7028 11.1667H12.3496C12.1565 11.1667 12 11.0102 12 10.8171C12 10.6985 12.0601 10.5881 12.1596 10.5237L13.6667 9.54761V6.30951C13.6664 5.63671 13.8818 4.98054 14.283 4.43215C14.6843 3.88376 15.2514 3.4704 15.9056 3.2495C15.8802 3.09532 15.8896 2.93763 15.9331 2.78732C15.9766 2.63701 16.0531 2.49765 16.1574 2.37887C16.2618 2.26008 16.3914 2.16469 16.5373 2.09928C16.6832 2.03387 16.8421 2 17.0028 2C17.1635 2 17.3223 2.03387 17.4683 2.09928C17.6142 2.16469 17.7438 2.26008 17.8481 2.37887C17.9524 2.49765 18.029 2.63701 18.0724 2.78732C18.1159 2.93763 18.1253 3.09532 18.1 3.2495C18.7531 3.4713 19.3191 3.88505 19.7192 4.43336C20.1194 4.98168 20.334 5.63737 20.3333 6.30951V9.54761L21.7965 10.4952Z"/>
</mask>
<path fill-rule="evenodd" clip-rule="evenodd" d="M21.7965 10.4952C21.9234 10.5774 22 10.7183 22 10.8694C22 11.0336 21.8669 11.1667 21.7028 11.1667H12.3496C12.1565 11.1667 12 11.0102 12 10.8171C12 10.6985 12.0601 10.5881 12.1596 10.5237L13.6667 9.54761V6.30951C13.6664 5.63671 13.8818 4.98054 14.283 4.43215C14.6843 3.88376 15.2514 3.4704 15.9056 3.2495C15.8802 3.09532 15.8896 2.93763 15.9331 2.78732C15.9766 2.63701 16.0531 2.49765 16.1574 2.37887C16.2618 2.26008 16.3914 2.16469 16.5373 2.09928C16.6832 2.03387 16.8421 2 17.0028 2C17.1635 2 17.3223 2.03387 17.4683 2.09928C17.6142 2.16469 17.7438 2.26008 17.8481 2.37887C17.9524 2.49765 18.029 2.63701 18.0724 2.78732C18.1159 2.93763 18.1253 3.09532 18.1 3.2495C18.7531 3.4713 19.3191 3.88505 19.7192 4.43336C20.1194 4.98168 20.334 5.63737 20.3333 6.30951V9.54761L21.7965 10.4952Z" fill="#3698FF"/>
<path d="M15.1667 6.30951H16.1667L16.1667 6.30906L15.1667 6.30951ZM15.1667 9.54761H14.1667H15.1667ZM15.1619 9.66667L14.1651 9.58743C14.143 9.86554 14.2381 10.1402 14.4274 10.3452C14.6167 10.5501 14.883 10.6667 15.1619 10.6667V9.66667ZM18.5076 5.31766L19.3154 4.72813L19.3154 4.72813L18.5076 5.31766ZM17.6177 4.66983L17.2961 5.61672L17.2961 5.61672L17.6177 4.66983ZM17.0028 4.27245L17.7346 3.59093C17.5454 3.38781 17.2803 3.27245 17.0028 3.27245C16.7252 3.27245 16.4601 3.38781 16.271 3.59093L17.0028 4.27245ZM16.3854 4.67066L16.0655 3.72322V3.72322L16.3854 4.67066ZM15.4936 5.31788L16.3007 5.90836L15.4936 5.31788ZM16.1588 9.74591C16.164 9.68021 16.1667 9.61406 16.1667 9.54761H14.1667C14.1667 9.56101 14.1661 9.57429 14.1651 9.58743L16.1588 9.74591ZM18.8381 8.66667H15.1619V10.6667H18.8381V8.66667ZM17.6999 5.90719C17.7905 6.03136 17.8335 6.171 17.8333 6.30688L19.8333 6.30899C19.8339 5.74419 19.6537 5.19169 19.3154 4.72813L17.6999 5.90719ZM17.2961 5.61672C17.4701 5.67581 17.6083 5.78177 17.6999 5.90719L19.3154 4.72813C18.977 4.2645 18.4967 3.91225 17.9392 3.72294L17.2961 5.61672ZM16.271 4.95397C16.5454 5.24861 16.8941 5.48019 17.2961 5.61672L17.9392 3.72294C17.8578 3.69529 17.789 3.64936 17.7346 3.59093L16.271 4.95397ZM16.7054 5.6181C17.1091 5.48177 17.4592 5.24963 17.7346 4.95397L16.271 3.59093C16.2164 3.64957 16.1473 3.69561 16.0655 3.72322L16.7054 5.6181ZM16.3007 5.90836C16.3925 5.78288 16.5311 5.67697 16.7054 5.6181L16.0655 3.72322C15.5072 3.91175 15.0258 4.26369 14.6866 4.72739L16.3007 5.90836ZM16.1667 6.30906C16.1666 6.17263 16.21 6.03225 16.3007 5.90836L14.6866 4.72739C14.3471 5.19137 14.1664 5.74504 14.1667 6.30996L16.1667 6.30906ZM16.1667 9.54761V6.30951H14.1667L14.1667 9.54761H16.1667ZM21.7965 10.4952L22.8837 8.81649L22.8837 8.81649L21.7965 10.4952ZM12.1596 10.5237L13.2467 12.2024L13.2467 12.2024L12.1596 10.5237ZM13.6667 9.54761L14.7538 11.2263C15.323 10.8577 15.6667 10.2258 15.6667 9.54761H13.6667ZM13.6667 6.30951H15.6667L15.6667 6.30861L13.6667 6.30951ZM14.283 4.43215L12.6689 3.25118L12.6689 3.25118L14.283 4.43215ZM15.9056 3.2495L16.5454 5.14438C17.4734 4.83103 18.0379 3.89173 17.8791 2.92523L15.9056 3.2495ZM15.9331 2.78732L17.8543 3.34317L17.8543 3.34317L15.9331 2.78732ZM17.8481 2.37887L16.3453 3.69854L16.3453 3.69854L17.8481 2.37887ZM18.0724 2.78732L16.1512 3.34317L16.1512 3.34317L18.0724 2.78732ZM18.1 3.2495L16.1265 2.92523C15.9679 3.89044 16.5307 4.82874 17.4569 5.14328L18.1 3.2495ZM19.7192 4.43336L21.3347 3.2543L21.3347 3.2543L19.7192 4.43336ZM20.3333 6.30951L18.3333 6.30741V6.30951H20.3333ZM20.3333 9.54761H18.3333C18.3333 10.2258 18.677 10.8577 19.2462 11.2263L20.3333 9.54761ZM24 10.8694C24 10.0401 23.5798 9.26729 22.8837 8.81649L20.7093 12.1739C20.267 11.8875 20 11.3964 20 10.8694H24ZM21.7028 13.1667C22.9715 13.1667 24 12.1382 24 10.8694H20C20 9.92902 20.7624 9.16667 21.7028 9.16667V13.1667ZM10 10.8171C10 12.1147 11.0519 13.1667 12.3496 13.1667V9.16667C13.2611 9.16667 14 9.90558 14 10.8171H10ZM11.0724 8.84494C10.4037 9.278 10 10.0204 10 10.8171H14C14 11.3767 13.7164 11.8982 13.2467 12.2024L11.0724 8.84494ZM11.6667 6.30951V9.54761H15.6667V6.30951H11.6667ZM12.6689 3.25118C12.0195 4.13884 11.6662 5.20813 11.6667 6.31041L15.6667 6.30861C15.6666 6.0653 15.7441 5.82223 15.8971 5.61312L12.6689 3.25118ZM15.2657 1.35461C14.2277 1.70512 13.3178 2.3644 12.6689 3.25118L15.8971 5.61312C16.0508 5.40312 16.275 5.23568 16.5454 5.14438L15.2657 1.35461ZM14.0119 2.23147C13.8858 2.66718 13.8584 3.12553 13.932 3.57377L17.8791 2.92523C17.9021 3.0651 17.8934 3.20808 17.8543 3.34317L14.0119 2.23147ZM14.6546 1.0592C14.3585 1.39642 14.1379 1.79592 14.0119 2.23147L17.8543 3.34317C17.8153 3.47809 17.7478 3.59889 17.6603 3.69854L14.6546 1.0592ZM15.7193 0.274206C15.3146 0.455579 14.9506 0.722169 14.6546 1.0592L17.6603 3.69854C17.5729 3.79799 17.4681 3.87381 17.3553 3.92436L15.7193 0.274206ZM17.0028 0C16.5616 0 16.1239 0.092893 15.7193 0.274206L17.3553 3.92436C17.2426 3.97485 17.1225 4 17.0028 4V0ZM18.2862 0.274206C17.8817 0.0928932 17.444 0 17.0028 0V4C16.883 4 16.7629 3.97485 16.6503 3.92436L18.2862 0.274206ZM19.3509 1.0592C19.055 0.722171 18.6909 0.45558 18.2862 0.274206L16.6503 3.92436C16.5375 3.8738 16.4326 3.79799 16.3453 3.69854L19.3509 1.0592ZM19.9936 2.23147C19.8676 1.79592 19.647 1.39641 19.3509 1.05919L16.3453 3.69854C16.2578 3.59889 16.1903 3.4781 16.1512 3.34317L19.9936 2.23147ZM20.0735 3.57377C20.1472 3.12554 20.1197 2.66718 19.9936 2.23147L16.1512 3.34317C16.1122 3.20808 16.1035 3.06509 16.1265 2.92523L20.0735 3.57377ZM21.3347 3.2543C20.6876 2.36761 19.7795 1.70767 18.7431 1.35572L17.4569 5.14328C17.7268 5.23493 17.9505 5.4025 18.1037 5.61242L21.3347 3.2543ZM22.3333 6.31161C22.3345 5.2104 21.9825 4.14188 21.3347 3.2543L18.1037 5.61242C18.2563 5.82147 18.3336 6.06434 18.3333 6.30741L22.3333 6.31161ZM22.3333 9.54761V6.30951H18.3333V9.54761H22.3333ZM22.8837 8.81649L21.4205 7.86891L19.2462 11.2263L20.7093 12.1739L22.8837 8.81649ZM12.3496 13.1667H21.7028V9.16667H12.3496V13.1667ZM12.5795 7.86891L11.0724 8.84494L13.2467 12.2024L14.7538 11.2263L12.5795 7.86891Z" fill="white" mask="url(#path-3-outside-1_230_16337)"/>
<path fill-rule="evenodd" clip-rule="evenodd" d="M14 13.5C14 12.9477 14.7326 12.5 15.6364 12.5H18.3636C19.2674 12.5 20 12.9477 20 13.5C20 14.0523 19.2674 14.5 18.3636 14.5H15.6364C14.7326 14.5 14 14.0523 14 13.5Z" fill="white" stroke="white" stroke-width="2" stroke-linejoin="round"/>
<path fill-rule="evenodd" clip-rule="evenodd" d="M15.834 13.25C15.834 12.8358 16.1698 12.5 16.584 12.5H17.834C18.2482 12.5 18.584 12.8358 18.584 13.25C18.584 13.6642 18.2482 14 17.834 14H16.584C16.1698 14 15.834 13.6642 15.834 13.25Z" fill="#3698FF"/>
</svg>
