<svg width="22" height="16" viewBox="0 0 22 16" fill="none" xmlns="http://www.w3.org/2000/svg">
<path d="M18.8888 0H2.4445C1.09603 0 0 1.09603 0 2.4445V13.5555C0 14.904 1.09603 16 2.4445 16H18.8888C20.2373 16 21.3333 14.904 21.3333 13.5555V2.4445C21.3333 1.09603 20.2373 0 18.8888 0Z" fill="#B9DCFF"/>
<path d="M9.2746 14.2286C9.21892 14.1582 8.84776 13.6977 8.44566 13.2052C8.04975 12.7191 7.74663 12.3034 7.77756 12.2778C8.1611 11.926 13.5925 7.22482 13.6296 7.20564C13.6605 7.19924 14.0503 7.64057 14.5018 8.20343L15.3246 9.21403L14.7617 9.70653C11.4274 12.6104 9.48493 14.299 9.43544 14.3309C9.40451 14.3501 9.33027 14.3054 9.2746 14.2286ZM11.681 11.0497C12.8625 10.0199 13.8523 9.16286 13.8832 9.13727C13.908 9.10529 13.8399 8.98376 13.7286 8.85584L13.5183 8.62558L11.3841 10.4869C10.2087 11.5102 9.22511 12.3673 9.19418 12.3993C9.15088 12.4441 9.44781 12.911 9.51586 12.911C9.52823 12.911 10.4994 12.0731 11.681 11.0497Z" fill="#4F8AFF"/>
<path d="M6.85465 10.963C6.44388 10.4615 6.10353 10.0144 6.09766 9.97211C6.09179 9.90565 11.555 5.11444 11.6431 5.1084C11.6665 5.1084 12.0304 5.53133 12.4587 6.05697L13.2275 6.99951L13.0925 7.13243C12.9751 7.25327 7.94026 11.6034 7.69967 11.8028C7.61751 11.8693 7.50602 11.7545 6.85465 10.963ZM9.81807 8.70332C10.9506 7.72453 11.8719 6.90284 11.8661 6.87867C11.8602 6.84846 11.7839 6.74575 11.7017 6.63699L11.5433 6.44365L9.52466 8.18976C8.40971 9.15042 7.47668 9.97815 7.44147 10.0265C7.40039 10.093 7.42973 10.1655 7.55883 10.3044C7.65272 10.4011 7.73487 10.4857 7.74661 10.4857C7.75835 10.4857 8.69138 9.6821 9.81807 8.70332Z" fill="#4F8AFF"/>
<path d="M4.7855 8.38851C4.34036 7.87142 3.98795 7.43249 4.00032 7.40844C4.02505 7.35433 9.84282 2.58628 9.8861 2.59229C9.90465 2.59229 10.2818 3.0252 10.7331 3.54831L11.5492 4.49831L8.61868 6.89135C7.01122 8.20813 5.6696 9.29642 5.63869 9.30244C5.61396 9.31446 5.22446 8.89959 4.7855 8.38851ZM8.00043 6.13376L10.1334 4.38407L9.97266 4.17362C9.87992 4.05938 9.76863 3.97521 9.72536 3.99324C9.68208 4.01128 8.68051 4.81097 7.50582 5.773C5.62633 7.31825 5.37284 7.54072 5.44703 7.6249C5.64487 7.88345 5.71288 7.93756 5.78707 7.91351C5.83035 7.89547 6.82574 7.09578 8.00043 6.13376Z" fill="#4F8AFF"/>
<path d="M15.2523 8.38834C14.372 7.91763 14.3842 6.65222 15.2767 6.19985C15.6129 6.02258 16.1937 6.05925 16.4932 6.26099C16.8783 6.52996 17.0006 6.77448 17.0006 7.31244C17.0006 7.74647 16.9884 7.80148 16.8111 8.02155C16.4199 8.5106 15.778 8.66343 15.2523 8.38834Z" fill="#4F8AFF"/>
<path d="M13.2714 5.99815C12.8251 5.80253 12.5684 5.38684 12.5684 4.86723C12.5684 4.49433 12.6478 4.27426 12.8618 4.04197C13.2408 3.6385 13.8643 3.52847 14.3473 3.7791C15.2214 4.2437 15.2153 5.51522 14.335 5.96147C14.06 6.10208 13.5465 6.12042 13.2714 5.99815Z" fill="#4F8AFF"/>
<path d="M11.4378 3.64471C10.8815 3.50411 10.4902 2.97838 10.4902 2.38541C10.4963 1.80467 11.1321 1.19336 11.7373 1.19336C12.1469 1.19336 12.6604 1.52347 12.8377 1.89636C13.0516 2.33651 12.9232 3.04562 12.5931 3.33905C12.2936 3.60191 11.7923 3.7364 11.4378 3.64471Z" fill="#4F8AFF"/>
<path d="M7.24052 10.3133L6.9043 9.90372L9.27617 7.90474L11.6481 5.90576L11.9904 6.31534C12.1738 6.53541 12.3266 6.73714 12.3266 6.75548C12.3266 6.79827 7.71122 10.6862 7.63175 10.7168C7.6073 10.7229 7.43002 10.5456 7.24052 10.3133Z" fill="#B9DCFF"/>
<path d="M5.17606 7.87434L4.83984 7.47088L4.99267 7.34862C5.07214 7.28749 6.12359 6.40109 7.32787 5.38632C8.53215 4.37766 9.54081 3.54017 9.57137 3.52794C9.59582 3.51571 9.77922 3.69299 9.96872 3.91918L10.3172 4.33487L10.1827 4.4449C10.1093 4.50603 9.05787 5.38632 7.84748 6.4072C6.63709 7.42197 5.61621 8.25947 5.57953 8.26558C5.53674 8.27169 5.35946 8.09441 5.17606 7.87434Z" fill="#B9DCFF"/>
<path d="M9.38211 12.8575C8.90529 12.2829 8.92363 12.344 9.14981 12.1545C9.26596 12.0567 10.3052 11.1825 11.4667 10.2106C12.6282 9.23247 13.6062 8.41332 13.6429 8.39498C13.6796 8.37052 13.8569 8.53558 14.0525 8.77399L14.4009 9.18968L12.1208 11.1031C10.8737 12.1545 9.80391 13.047 9.74889 13.0959C9.66331 13.1693 9.6144 13.1387 9.38211 12.8575Z" fill="#B9DCFF"/>
</svg>
