<svg width="22" height="16" viewBox="0 0 22 16" fill="none" xmlns="http://www.w3.org/2000/svg">
<path d="M18.8888 0H2.4445C1.09603 0 0 1.09603 0 2.4445V13.5555C0 14.904 1.09603 16 2.4445 16H18.8888C20.2373 16 21.3333 14.904 21.3333 13.5555V2.4445C21.3333 1.09603 20.2373 0 18.8888 0Z" fill="#B9DCFF"/>
<path d="M12.9205 10.4099L13.4692 9.51945L14.4595 9.18172L14.5692 8.14163L15.3143 7.40816L14.96 6.42364L15.3143 5.4391L14.5692 4.70563L14.4595 3.66556L13.4693 3.32783L12.9205 2.43737L11.8826 2.56269L11.0009 2L10.1192 2.56273L9.08129 2.43741L8.53255 3.32785L7.54227 3.66559L7.43255 4.70565L6.6875 5.43912L7.04173 6.42366L6.6875 7.4082L7.43253 8.14166L7.54224 9.18174L8.53252 9.51948L9.08127 10.4099L10.1192 10.2846L11.0009 10.8473L11.8826 10.2846L12.9205 10.4099ZM7.9674 6.42366C7.9674 4.751 9.32823 3.39017 11.0009 3.39017C12.6736 3.39017 14.0344 4.751 14.0344 6.42366C14.0344 8.09633 12.6736 9.45716 11.0009 9.45716C9.32823 9.45716 7.9674 8.09633 7.9674 6.42366Z" fill="#4F8AFF"/>
<path d="M11.0018 4.09375C9.71707 4.09375 8.67188 5.13895 8.67188 6.42367C8.67188 7.7084 9.71707 8.75359 11.0018 8.75359C12.2865 8.75359 13.3317 7.7084 13.3317 6.42367C13.3317 5.13895 12.2865 4.09375 11.0018 4.09375Z" fill="#4F8AFF"/>
<path d="M9.95402 11.0135L8.71933 11.1625L8.06699 10.1039L7.84523 10.0283L6.88867 13.0181L8.61074 12.9234L9.95805 14.0002L10.7509 11.5221L9.95402 11.0135Z" fill="#4F8AFF"/>
<path d="M13.9359 10.104L13.2835 11.1625L12.0488 11.0135L11.252 11.5221L12.0448 14.0002L13.3921 12.9234L15.1142 13.0181L14.1576 10.0283L13.9359 10.104Z" fill="#4F8AFF"/>
</svg>
