<svg width="22" height="16" viewBox="0 0 22 16" fill="none" xmlns="http://www.w3.org/2000/svg">
<path d="M18.8888 0H2.4445C1.09603 0 0 1.09603 0 2.4445V13.5555C0 14.904 1.09603 16 2.4445 16H18.8888C20.2373 16 21.3333 14.904 21.3333 13.5555V2.4445C21.3333 1.09603 20.2373 0 18.8888 0Z" fill="#B9DCFF"/>
<path d="M16.7263 6.26348L10.1365 3.93842C10.0482 3.90725 9.95185 3.90725 9.86355 3.93842L3.27371 6.26348C3.10987 6.32129 3.00022 6.47605 3 6.6498C2.99978 6.82354 3.10907 6.97855 3.27278 7.03674L9.86263 9.37947C9.90706 9.39527 9.95354 9.40318 10 9.40318C10.0465 9.40318 10.0929 9.39527 10.1374 9.37947L16.7272 7.03674C16.8909 6.97855 17.0002 6.82354 17 6.6498C16.9998 6.47605 16.8901 6.32129 16.7263 6.26348Z" fill="#4F8AFF"/>
<path d="M9.99958 10.2236C9.85879 10.2236 9.72012 10.1996 9.58743 10.1525L5.88281 8.83545V10.6404C5.88281 11.0819 6.34347 11.4554 7.252 11.7502C8.0439 12.0073 9.01969 12.1488 9.99958 12.1488C10.9795 12.1488 11.9552 12.0073 12.7472 11.7502C13.6557 11.4554 14.1163 11.0819 14.1163 10.6404V8.83545L10.4118 10.1525C10.279 10.1996 10.1404 10.2236 9.99958 10.2236Z" fill="#4F8AFF"/>
</svg>
