<svg width="22" height="16" viewBox="0 0 22 16" fill="none" xmlns="http://www.w3.org/2000/svg">
<rect x="12" y="1" width="8" height="12" fill="#4F8AFF"/>
<path d="M18.8888 0H2.4445C1.09603 0 0 1.09603 0 2.4445V13.5555C0 14.904 1.09603 16 2.4445 16H18.8888C20.2373 16 21.3333 14.904 21.3333 13.5555V2.4445C21.3333 1.09603 20.2373 0 18.8888 0ZM18 12.4445H14.1112C13.7432 12.4445 13.4445 12.1458 13.4445 11.7778C13.4445 11.4098 13.7432 11.1112 14.1112 11.1112H18C18.368 11.1112 18.6667 11.4098 18.6667 11.7778C18.6667 12.1458 18.368 12.4445 18 12.4445ZM18 8.88883H14.1112C13.7432 8.88883 13.4445 8.59017 13.4445 8.22217C13.4445 7.85417 13.7432 7.5555 14.1112 7.5555H18C18.368 7.5555 18.6667 7.85417 18.6667 8.22217C18.6667 8.59017 18.368 8.88883 18 8.88883ZM18 5.33333H14.1112C13.7432 5.33333 13.4445 5.03467 13.4445 4.66667C13.4445 4.29867 13.7432 4 14.1112 4H18C18.368 4 18.6667 4.29867 18.6667 4.66667C18.6667 5.03467 18.368 5.33333 18 5.33333Z" fill="#B9DCFF"/>
<g clip-path="url(#clip0_230_16008)">
<path d="M2.27843 9.64489C2.09839 9.12951 2.00014 8.57604 2.00014 7.99998C2.00014 7.42391 2.09839 6.87044 2.27843 6.35506C2.28283 6.33958 2.28803 6.32448 2.29434 6.30995C2.98881 4.38216 4.83595 3 7.00007 3C9.1642 3 11.0114 4.38216 11.7058 6.30995C11.7121 6.32453 11.7174 6.33958 11.7217 6.35506C11.9018 6.87044 12 7.42391 12 7.99998C12 8.57604 11.9018 9.12951 11.7217 9.64489C11.7173 9.66037 11.7121 9.67547 11.7058 9.69C11.0113 11.6178 9.1642 13 7.00007 13C4.83595 13 2.98881 11.6178 2.29434 9.69C2.28803 9.67547 2.28283 9.66042 2.27843 9.64489ZM7.00007 12.2833C7.19049 12.2833 7.49749 11.9387 7.75408 11.1688C7.87793 10.7973 7.97708 10.3702 8.04933 9.90559H5.95081C6.02306 10.3702 6.12221 10.7972 6.24601 11.1688C6.50265 11.9387 6.80966 12.2833 7.00007 12.2833ZM8.1363 9.18886C8.17075 8.80669 8.18895 8.40799 8.18895 7.99998C8.18895 7.59196 8.17075 7.19326 8.1363 6.8111H5.8639C5.82944 7.19326 5.81124 7.59196 5.81124 7.99998C5.81124 8.40799 5.82944 8.80669 5.8639 9.18886H8.1363ZM11.2833 8.00002C11.2833 7.58766 11.2246 7.18877 11.1153 6.81114H8.85519C8.88868 7.20119 8.90569 7.60094 8.90569 8.00002C8.90569 8.3991 8.88873 8.79885 8.85519 9.1889H11.1153C11.2246 8.81123 11.2833 8.41239 11.2833 8.00002ZM7.00007 3.71674C6.80966 3.71674 6.50261 4.06135 6.24601 4.83122C6.12221 5.20273 6.02301 5.62981 5.95081 6.09436H8.04938C7.97713 5.62977 7.87798 5.20273 7.75413 4.83122C7.49749 4.06135 7.19049 3.71674 7.00007 3.71674ZM5.14501 6.81114H2.88489C2.77561 7.18877 2.71688 7.58766 2.71688 8.00002C2.71688 8.41239 2.77561 8.81128 2.88489 9.1889H5.14501C5.11151 8.79885 5.0945 8.3991 5.0945 8.00002C5.0945 7.60094 5.11151 7.20119 5.14501 6.81114ZM3.16494 6.0944H5.22724C5.35472 5.21535 5.57343 4.42669 5.88024 3.86563C4.69069 4.18812 3.70517 5.01146 3.16494 6.0944ZM8.11995 3.86558C8.42677 4.42665 8.64547 5.2153 8.77295 6.0944H10.8353C10.295 5.01146 9.3095 4.18812 8.11995 3.86558ZM10.8353 9.90559H8.77295C8.64547 10.7847 8.42677 11.5733 8.11995 12.1344C9.3095 11.8119 10.295 10.9886 10.8353 9.90559ZM5.88024 12.1344C5.57343 11.5734 5.35472 10.7847 5.22724 9.90559H3.16494C3.70517 10.9886 4.69069 11.8119 5.88024 12.1344Z" fill="#4F8AFF"/>
</g>
<defs>
<clipPath id="clip0_230_16008">
<rect width="10" height="10" fill="white" transform="matrix(-1 0 0 1 12 3)"/>
</clipPath>
</defs>
</svg>
