<svg width="22" height="16" viewBox="0 0 22 16" fill="none" xmlns="http://www.w3.org/2000/svg">
<rect x="0.941406" y="1.41162" width="18.8235" height="12" fill="#4F8AFF"/>
<path d="M18.8888 0H2.4445C1.09603 0 0 1.09603 0 2.4445V13.5555C0 14.904 1.09603 16 2.4445 16H18.8888C20.2373 16 21.3333 14.904 21.3333 13.5555V2.4445C21.3333 1.09603 20.2373 0 18.8888 0V0ZM6.66667 3.5555C7.8916 3.5555 8.88883 4.5529 8.88883 5.77783C8.88883 7.0026 7.8916 8 6.66667 8C5.44173 8 4.4445 7.0026 4.4445 5.77783C4.4445 4.5529 5.44173 3.5555 6.66667 3.5555ZM10.6667 11.7778C10.6667 12.1458 10.368 12.4445 10 12.4445H3.33333C2.96533 12.4445 2.66667 12.1458 2.66667 11.7778V11.3333C2.66667 9.98486 3.7627 8.88883 5.11117 8.88883H8.22217C9.57064 8.88883 10.6667 9.98486 10.6667 11.3333V11.7778ZM18 12.4445H13.1112C12.7432 12.4445 12.4445 12.1458 12.4445 11.7778C12.4445 11.4098 12.7432 11.1112 13.1112 11.1112H18C18.368 11.1112 18.6667 11.4098 18.6667 11.7778C18.6667 12.1458 18.368 12.4445 18 12.4445ZM18 8.88883H13.1112C12.7432 8.88883 12.4445 8.59017 12.4445 8.22217C12.4445 7.85417 12.7432 7.5555 13.1112 7.5555H18C18.368 7.5555 18.6667 7.85417 18.6667 8.22217C18.6667 8.59017 18.368 8.88883 18 8.88883ZM18 5.33333H13.1112C12.7432 5.33333 12.4445 5.03467 12.4445 4.66667C12.4445 4.29867 12.7432 4 13.1112 4H18C18.368 4 18.6667 4.29867 18.6667 4.66667C18.6667 5.03467 18.368 5.33333 18 5.33333Z" fill="#B9DCFF"/>
</svg>
