<svg width="26" height="12" viewBox="0 0 26 12" fill="none" xmlns="http://www.w3.org/2000/svg">
<path d="M1.296 11.424C0.88 11.424 0.56 11.312 0.336 11.088C0.112 10.864 0 10.544 0 10.128V1.44C0 1.024 0.112 0.704 0.336 0.48C0.56 0.256 0.88 0.144 1.296 0.144H5.168C5.968 0.144 6.65067 0.261333 7.216 0.496C7.78133 0.730667 8.208 1.06667 8.496 1.504C8.79467 1.94133 8.944 2.464 8.944 3.072C8.944 3.744 8.752 4.31467 8.368 4.784C7.984 5.25333 7.456 5.568 6.784 5.728V5.472C7.56267 5.61067 8.16533 5.92 8.592 6.4C9.02933 6.86933 9.248 7.48267 9.248 8.24C9.248 9.24267 8.90133 10.0267 8.208 10.592C7.51467 11.1467 6.56 11.424 5.344 11.424H1.296ZM2.368 9.584H5.008C5.648 9.584 6.11733 9.46133 6.416 9.216C6.71467 8.96 6.864 8.58667 6.864 8.096C6.864 7.60533 6.71467 7.23733 6.416 6.992C6.11733 6.74667 5.648 6.624 5.008 6.624H2.368V9.584ZM2.368 4.784H4.736C5.35467 4.784 5.81333 4.66667 6.112 4.432C6.41067 4.19733 6.56 3.84533 6.56 3.376C6.56 2.91733 6.41067 2.57067 6.112 2.336C5.81333 2.10133 5.35467 1.984 4.736 1.984H2.368V4.784Z" fill="#4F8AFF"/>
<path d="M15.957 11.6C15.157 11.6 14.4477 11.4987 13.829 11.296C13.221 11.0827 12.709 10.7733 12.293 10.368C11.877 9.96267 11.5623 9.456 11.349 8.848C11.1463 8.22933 11.045 7.51467 11.045 6.704V1.264C11.045 0.848 11.1517 0.533334 11.365 0.320001C11.5783 0.106667 11.8877 0 12.293 0C12.6877 0 12.9917 0.106667 13.205 0.320001C13.4183 0.533334 13.525 0.848 13.525 1.264V6.72C13.525 7.63733 13.733 8.33067 14.149 8.8C14.565 9.25867 15.1677 9.488 15.957 9.488C16.7463 9.488 17.3437 9.25867 17.749 8.8C18.165 8.33067 18.373 7.63733 18.373 6.72V1.264C18.373 0.848 18.4797 0.533334 18.693 0.320001C18.9063 0.106667 19.2103 0 19.605 0C19.9997 0 20.2983 0.106667 20.501 0.320001C20.7143 0.533334 20.821 0.848 20.821 1.264V6.704C20.821 7.78133 20.6343 8.688 20.261 9.424C19.8983 10.1493 19.3543 10.6933 18.629 11.056C17.9143 11.4187 17.0237 11.6 15.957 11.6Z" fill="#4F8AFF"/>
<path d="M24.2636 11.568C23.8583 11.568 23.549 11.456 23.3356 11.232C23.1223 11.008 23.0156 10.6933 23.0156 10.288V1.28C23.0156 0.874667 23.1223 0.56 23.3356 0.336C23.549 0.112 23.8583 0 24.2636 0C24.6583 0 24.9623 0.112 25.1756 0.336C25.389 0.56 25.4956 0.874667 25.4956 1.28V10.288C25.4956 10.6933 25.389 11.008 25.1756 11.232C24.973 11.456 24.669 11.568 24.2636 11.568Z" fill="#4F8AFF"/>
</svg>
