<svg width="22" height="21" viewBox="0 0 22 21" fill="none" xmlns="http://www.w3.org/2000/svg">
<path d="M4.10975 0.804688L3.05375 1.85919L4.625 3.42969L5.6795 2.37519L4.10975 0.804688ZM17.891 0.804688L16.3197 2.37519L17.375 3.42969L18.9455 1.85994L17.891 0.804688ZM11 1.27269C10.7525 1.27569 10.502 1.28994 10.25 1.32069C10.2425 1.32069 10.235 1.31919 10.2275 1.32069C7.1855 1.66944 4.7645 4.12719 4.34375 7.15569C4.00775 9.59319 5.01275 11.8034 6.6875 13.2269C7.37256 13.8116 7.83592 14.6139 8 15.4994V19.9994H9.71C9.971 20.4472 10.4473 20.7494 11 20.7494C11.5527 20.7494 12.029 20.4472 12.29 19.9994H14V16.9994H14.0705V16.1084C14.0705 15.0089 14.642 13.9004 15.5705 13.0387C16.8125 11.7952 17.75 10.0289 17.75 8.00019C17.75 4.29519 14.7005 1.23819 11 1.27269ZM11 2.77269C13.8988 2.73219 16.25 5.10519 16.25 8.00019C16.25 9.57069 15.5225 10.9537 14.5153 11.9602L14.5392 11.9842C13.5383 12.9072 12.891 14.1508 12.7092 15.5002H9.42875C9.26375 14.2147 8.7125 12.9704 7.67075 12.0779C6.3455 10.9529 5.55575 9.25794 5.81975 7.34394C6.1475 4.98144 8.0645 3.08169 10.4135 2.82144C10.6074 2.7944 10.8027 2.77837 10.9985 2.77344L11 2.77269ZM0.5 8.00019V9.50019H2.75V8.00019H0.5ZM19.25 8.00019V9.50019H21.5V8.00019H19.25ZM4.625 14.0707L3.0545 15.6404L4.10975 16.6957L5.67875 15.1252L4.625 14.0707ZM17.375 14.0707L16.3205 15.1252L17.8903 16.6957L18.9455 15.6404L17.375 14.0707ZM9.5 17.0002H12.5V18.5002H9.5V17.0002Z" fill="#2B345F"/>
</svg>
