<svg xmlns="http://www.w3.org/2000/svg" width="13.021" height="18.294" viewBox="0 0 13.021 18.294">
    <defs>
        <style>
            .cls-1{fill:#3cc689}
        </style>
    </defs>
    <g id="Group_6551" transform="translate(-93.804 -37.62)">
        <path id="Path_13904" d="M100.893 37.62h-1.157a5.941 5.941 0 0 0-5.936 5.937V49.4a6.51 6.51 0 1 0 13.021 0v-5.843a5.941 5.941 0 0 0-5.928-5.937zm-1.157 1.2h1.157a4.736 4.736 0 0 1 4.728 4.732v.575a4.044 4.044 0 0 0-2.854-1.177h-4.9a4.044 4.044 0 0 0-2.854 1.177v-.575a4.736 4.736 0 0 1 4.728-4.732zm5.117 13.323a.6.6 0 1 0-.6.552.593.593 0 0 0 .264-.063 5.3 5.3 0 0 1-4.2 2.073h-.05a.6.6 0 1 0-1.192-.147 5.312 5.312 0 0 1-2.761-1.682h.021a.6.6 0 1 0-.358-1.086.6.6 0 0 0-.218.317 5.283 5.283 0 0 1-.747-2.714v-3.14c0-1.576 1.28-2.095 2.854-2.095h4.9c1.574 0 2.854.519 2.854 2.095v2.271a.581.581 0 0 0-.076-.055.6.6 0 1 0-.315 1.114.6.6 0 0 0 .391-.147 5.283 5.283 0 0 1-.767 2.711z" class="cls-1"/>
        <path id="Path_13905" d="M307.537 253.587a.6.6 0 1 0 .281.634.607.607 0 0 0-.281-.634z" class="cls-1" transform="translate(-204.279 -207.217)"/>
        <path id="Path_13906" d="M215.725 260.953a.6.6 0 1 0-.563-.39.608.608 0 0 0 .563.39z" class="cls-1" transform="translate(-116.45 -213.214)"/>
        <path id="Path_13907" d="M134.79 313.322a.6.6 0 1 0 .3.621.608.608 0 0 0-.3-.621z" class="cls-1" transform="translate(-38.481 -264.562)"/>
        <path id="Path_13908" d="M176.669 225.351a.6.6 0 1 0-.59.481.607.607 0 0 0 .59-.481z" class="cls-1" transform="translate(-78.396 -179.503)"/>
    </g>
</svg>
