<svg xmlns="http://www.w3.org/2000/svg" width="14.774" height="17.429" viewBox="0 0 14.774 17.429">
    <defs>
        <style>
            .cls-1{fill:#4f8aff;stroke:#4f8aff;stroke-width:.2px}
        </style>
    </defs>
    <g id="location" transform="translate(.1 .1)">
        <g id="Group_6847">
            <g id="Group_6846">
                <path id="Path_13960" d="M51.891 2.134a7.287 7.287 0 0 0-12.44 5.153c0 3.938 3.723 7.213 5.723 8.972.278.245.518.456.709.634a1.256 1.256 0 0 0 1.709 0c.191-.179.431-.39.709-.634 2-1.76 5.723-5.035 5.723-8.972a7.24 7.24 0 0 0-2.133-5.153zM47.635 15.5c-.284.25-.529.466-.732.655a.244.244 0 0 1-.331 0c-.2-.189-.448-.4-.732-.655-1.88-1.654-5.381-4.733-5.381-8.214a6.278 6.278 0 0 1 12.556 0c.001 3.482-3.499 6.562-5.38 8.214z" class="cls-1" transform="translate(-39.451)"/>
            </g>
        </g>
        <g id="Group_6849" transform="translate(4.076 3.801)">
            <g id="Group_6848">
                <path id="Path_13961" d="M163.781 112.938a3.211 3.211 0 1 0 3.211 3.211 3.215 3.215 0 0 0-3.211-3.211zm0 5.413a2.2 2.2 0 1 1 2.2-2.2 2.2 2.2 0 0 1-2.2 2.2z" class="cls-1" transform="translate(-160.57 -112.938)"/>
            </g>
        </g>
    </g>
</svg>
