<svg xmlns="http://www.w3.org/2000/svg" width="20.545" height="16.401" viewBox="0 0 20.545 16.401">
    <defs>
        <style>
            .cls-1{fill:#b5bcd1}
        </style>
    </defs>
    <g id="building" transform="translate(-14.716)">
        <path id="Path_14347" d="M34.623 15.124h-1.685V.639A.639.639 0 0 0 32.3 0H17.678a.639.639 0 0 0-.639.639v14.485h-1.684a.639.639 0 1 0 0 1.277h19.268a.639.639 0 1 0 0-1.277zm-11.811 0V10.77h4.354v4.354zm5.631 0v-4.992a.639.639 0 0 0-.639-.639h-5.631a.639.639 0 0 0-.639.639v4.992h-3.217V1.277h13.344v13.847z" class="cls-1"/>
        <path id="Path_14348" d="M139.008 66.309h-3.13a.641.641 0 0 0-.639.644v3.156a.641.641 0 0 0 .639.644h3.13a.641.641 0 0 0 .639-.644v-3.156a.641.641 0 0 0-.639-.644zm-.639 3.156h-1.852V67.6h1.852z" class="cls-1" transform="translate(-115.393 -63.161)"/>
        <path id="Path_14349" d="M277.02 66.309h-3.13a.641.641 0 0 0-.639.644v3.156a.641.641 0 0 0 .639.644h3.13a.641.641 0 0 0 .639-.644v-3.156a.641.641 0 0 0-.639-.644zm-.639 3.156h-1.852V67.6h1.852z" class="cls-1" transform="translate(-247.53 -63.161)"/>
    </g>
</svg>
