<svg xmlns="http://www.w3.org/2000/svg" width="17.099" height="17.1" viewBox="0 0 17.099 17.1">
    <path fill="#a3acc6" stroke="#a3acc6" stroke-width="0.1px" d="M430.022-44.914a9.488 9.488 0 0 0 3.576-.7 9.488 9.488 0 0 0 3.048-1.982l3.461-3.2.011-.01a1.833 1.833 0 0 0 .552-1.3 1.833 1.833 0 0 0-.528-1.309 1.833 1.833 0 0 0-1.3-.553h-.018a1.835 1.835 0 0 0-1.283.52l-2.821 2.578-.107-.249a1.845 1.845 0 0 0-1.7-1.118H426.4a2.735 2.735 0 0 0-2.732 2.732v.709a.487.487 0 0 0 .487.487.487.487 0 0 0 .487-.487v-.709a1.761 1.761 0 0 1 1.759-1.758h6.515a.873.873 0 0 1 .872.872.873.873 0 0 1-.193.546l-.009.011-.146.133-.011.011-.012.011-.014.009a.866.866 0 0 1-.487.149h-3.4a.487.487 0 0 0-.487.487.487.487 0 0 0 .487.487h3.4a1.85 1.85 0 0 0 1.354-.593l.005-.006 3.926-3.587.013-.012a.867.867 0 0 1 .611-.249h.007a.866.866 0 0 1 .614.261.866.866 0 0 1 .25.619.867.867 0 0 1-.254.606l-.006.005-3.455 3.2-.009.008a8.514 8.514 0 0 1-5.952 2.409h-5.865a.487.487 0 0 0-.487.487.487.487 0 0 0 .487.487zm1.5-8.964a.488.488 0 0 0 .443-.286 11.367 11.367 0 0 1 1.193-1.922l.1-.126.142.07a2.808 2.808 0 0 0 1.247.261 2.912 2.912 0 0 0 2.06-.949 6.835 6.835 0 0 0 1.587-4.58v-.008a.489.489 0 0 0-.468-.495h-.131a8.667 8.667 0 0 0-1.94.235 5.4 5.4 0 0 0-2.587 1.333 2.821 2.821 0 0 0-.939 2.048 2.828 2.828 0 0 0 .282 1.281l.056.11-.076.1a12.772 12.772 0 0 0-.8 1.144l-.163.263-.163-.263a12.8 12.8 0 0 0-.792-1.133l-.075-.1.055-.109a2.869 2.869 0 0 0 .274-1.273 2.844 2.844 0 0 0-.938-2.058 5.388 5.388 0 0 0-2.588-1.342 8.617 8.617 0 0 0-1.941-.236h-.131a.488.488 0 0 0-.469.5v.015a6.933 6.933 0 0 0 1.586 4.593 2.9 2.9 0 0 0 2.061.955 2.78 2.78 0 0 0 1.264-.271l.143-.072.1.128a11.2 11.2 0 0 1 1.173 1.9.488.488 0 0 0 .438.287zm-2.987-4.776a.484.484 0 0 0-.385.189.487.487 0 0 0 .086.683 8.064 8.064 0 0 1 .69.6l.27.264-.372.064a2.5 2.5 0 0 1-.423.032 1.951 1.951 0 0 1-1.375-.672 5.509 5.509 0 0 1-1.272-3.208l-.022-.23.23.021a5.427 5.427 0 0 1 3.233 1.265 1.818 1.818 0 0 1 .651 1.362c0 .066 0 .129-.008.2l-.03.4-.294-.28a8.944 8.944 0 0 0-.682-.588.482.482 0 0 0-.294-.102zm8.751-2.05a5.3 5.3 0 0 1-1.268 3.182 1.957 1.957 0 0 1-1.376.667 2.49 2.49 0 0 1-.388-.028l-.381-.06.277-.268a7.951 7.951 0 0 1 .657-.572.487.487 0 0 0 .086-.683.484.484 0 0 0-.385-.189.482.482 0 0 0-.3.1 8.948 8.948 0 0 0-.681.587l-.292.278-.033-.4c-.006-.071-.009-.144-.009-.216a1.8 1.8 0 0 1 .65-1.349 5.6 5.6 0 0 1 3.23-1.259l.23-.021z" transform="translate(-423.621 61.964)"/>
</svg>
