<svg xmlns="http://www.w3.org/2000/svg" width="19.418" height="18.419" viewBox="0 0 19.418 18.419">
    <g>
        <g>
            <g>
                <path fill="#fba61c" d="M18.884 6.741a1.885 1.885 0 0 0-2.663 0L14.333 8.63V5.657a1.87 1.87 0 0 0-.551-1.331l-1.775-1.775A1.87 1.87 0 0 0 10.676 2H1.9A1.885 1.885 0 0 0 .018 3.883v14.654A1.885 1.885 0 0 0 1.9 20.419h10.55a1.885 1.885 0 0 0 1.883-1.883v-4.579L18.884 9.4a1.881 1.881 0 0 0 0-2.659zm-8.316-3.486a.685.685 0 0 1 .551.184l1.775 1.775a.685.685 0 0 1 .184.551h-2.51zm2.51 15.282a.628.628 0 0 1-.628.628H1.9a.628.628 0 0 1-.628-.628V3.883a.628.628 0 0 1 .628-.628h7.413v3.138a.628.628 0 0 0 .628.628h3.138v2.865l-1.851 1.853-.887.887a.627.627 0 0 0-.152.245L9.3 15.534a.628.628 0 0 0 .794.794l2.662-.887a.627.627 0 0 0 .244-.152l.076-.076v3.324zm-1.407-5.467l.887.887-.339.339-1.331.444.444-1.331zm1.775 0l-.887-.887 3.016-3.019.887.887zM18 8.516l-.647.647-.887-.887.647-.648a.628.628 0 1 1 .887.888z" transform="translate(-.018 -2) translate(.018) translate(-.018)"/>
            </g>
        </g>
    </g>
</svg>
