<svg xmlns="http://www.w3.org/2000/svg" width="18.965" height="12.8" viewBox="0 0 18.965 12.8">
    <defs>
        <style>
            .cls-1{fill:#fba61c}
        </style>
    </defs>
    <g id="Group_6577" transform="translate(-8.504 -88.966)">
        <g id="Group_6577-2" transform="translate(8.504 88.966)">
            <path id="Path_13919" d="M14.273 101.766A3.173 3.173 0 0 1 11.1 98.6v-4.055l-1.955-.709a1.018 1.018 0 0 1-.645-.942.963.963 0 0 1 .637-.917l8.5-2.949h.005a.939.939 0 0 1 .662 0h.01l8.476 2.949a.969.969 0 0 1 .588.571l.039.1c.02.077.035.158.049.243a1.07 1.07 0 0 1-.049.308l-.017.05v6.8h-1.1v-6.024l-1.438.519V98.6a3.173 3.173 0 0 1-3.169 3.169zm-2.1-3.169a2.076 2.076 0 0 0 2.073 2.073h7.427a2.076 2.076 0 0 0 2.079-2.07v-3.638l-5.449 2h-.008a.814.814 0 0 1-.33.061.925.925 0 0 1-.352-.061h-.008l-5.427-2zm-2.359-5.69l8.173 3.022 8.149-3.022-8.149-2.848z" class="cls-1" transform="translate(-8.504 -88.966)"/>
        </g>
        <path id="Path_13920" d="M474.268 369.324a.553.553 0 0 1-1.092 0c0-.185.245-.335.546-.335s.546.15.546.335z" class="cls-1" transform="translate(-446.868 -269.294)"/>
    </g>
</svg>
