<svg xmlns="http://www.w3.org/2000/svg" width="17.543" height="14.657" viewBox="0 0 17.543 14.657">
    <path fill="#4f8aff" d="M16.711 59.882H2.832A1.834 1.834 0 0 0 1 61.714v10.993a1.834 1.834 0 0 0 1.832 1.833h13.879a1.834 1.834 0 0 0 1.832-1.832V61.714a1.834 1.834 0 0 0-1.832-1.832zm0 1.221a.607.607 0 0 1 .234.047l-7.173 6.085L2.6 61.151a.608.608 0 0 1 .234-.047zm0 12.215H2.832a.611.611 0 0 1-.611-.611V62.441L9.372 68.5a.612.612 0 0 0 .8 0l7.15-6.063v10.27a.611.611 0 0 1-.611.611z" transform="translate(-1 -59.882)"/>
</svg>
