<svg width="17" height="14" viewBox="0 0 17 14" fill="none" xmlns="http://www.w3.org/2000/svg">
<path d="M12.1501 13.2719V11.8779C12.1501 11.1384 11.8564 10.4293 11.3335 9.90644C10.8107 9.38358 10.1015 9.08984 9.3621 9.08984H3.78606C3.04664 9.08984 2.33749 9.38358 1.81464 9.90644C1.29178 10.4293 0.998047 11.1384 0.998047 11.8779V13.2719" stroke="#A3ACC6" stroke-width="1.30571" stroke-linecap="round" stroke-linejoin="round"/>
<path d="M6.57317 6.3026C8.11295 6.3026 9.36119 5.05436 9.36119 3.51458C9.36119 1.9748 8.11295 0.726562 6.57317 0.726562C5.03339 0.726562 3.78516 1.9748 3.78516 3.51458C3.78516 5.05436 5.03339 6.3026 6.57317 6.3026Z" stroke="#A3ACC6" stroke-width="1.30571" stroke-linecap="round" stroke-linejoin="round"/>
<path d="M16.3312 13.2731V11.879C16.3308 11.2613 16.1252 10.6612 15.7467 10.173C15.3682 9.68478 14.8384 9.33607 14.2402 9.18164" stroke="#A3ACC6" stroke-width="1.30571" stroke-linecap="round" stroke-linejoin="round"/>
<path d="M11.4531 0.818359C12.0528 0.97191 12.5844 1.32069 12.964 1.80972C13.3436 2.29874 13.5496 2.90019 13.5496 3.51925C13.5496 4.13831 13.3436 4.73976 12.964 5.22879C12.5844 5.71781 12.0528 6.06659 11.4531 6.22014" stroke="#A3ACC6" stroke-width="1.30571" stroke-linecap="round" stroke-linejoin="round"/>
</svg>
