<svg xmlns="http://www.w3.org/2000/svg" width="15.62" height="17.614" viewBox="0 0 15.62 17.614">
    <g>
        <g>
            <path fill="#fba61c" stroke="#fba61c" stroke-width="0.3px" d="M17.279 5.967a.393.393 0 0 0-.178.73l.534.319a7.673 7.673 0 0 0-.927 15.019.394.394 0 0 0 .2-.761 6.887 6.887 0 0 1 .9-13.491l-.546.54a.393.393 0 1 0 .552.559l1.313-1.307a.393.393 0 0 0-.074-.614L17.5 6.028a.393.393 0 0 0-.221-.061zm3.221 1.21a.393.393 0 0 0-.086.773 6.894 6.894 0 0 1-.915 13.5l.559-.552a.393.393 0 1 0-.552-.559l-1.319 1.311a.393.393 0 0 0 .074.614l1.553.933a.393.393 0 1 0 .405-.669l-.516-.307A7.678 7.678 0 0 0 20.612 7.2a.393.393 0 0 0-.112-.023zm-4.676 3.183a.393.393 0 0 0-.393.393v7.634a.393.393 0 0 0 .393.393H21.5a.393.393 0 0 0 .393-.393v-7.634a.393.393 0 0 0-.393-.393zm.393.786H21.1v-.786h-4.883zm0 0H21.1v5.062h-4.883zm0 5.848H21.1v1h-4.883z" transform="translate(-10.85 -5.817) translate(11 5.967) translate(-11 -5.967)"/>
        </g>
    </g>
</svg>
