<svg xmlns="http://www.w3.org/2000/svg" id="idea" width="22" height="22" viewBox="0 0 22 22">
    <defs>
        <style>
            .cls-1{fill:#fba61c}
        </style>
    </defs>
    <g id="Group_7183" transform="translate(3.063 3.063)">
        <g id="Group_7182">
            <path id="Path_14341" d="M74.218 73.306l-1.823-1.823a.645.645 0 0 0-.911.911l1.823 1.823a.645.645 0 0 0 .911-.911z" class="cls-1" transform="translate(-71.295 -71.295)"/>
        </g>
    </g>
    <g id="Group_7185" transform="translate(0 10.355)">
        <g id="Group_7184">
            <path id="Path_14342" d="M3.266 241H.645a.645.645 0 0 0 0 1.289h2.621a.645.645 0 0 0 0-1.289z" class="cls-1" transform="translate(0 -241)"/>
        </g>
    </g>
    <g id="Group_7187" transform="translate(18.09 10.355)">
        <g id="Group_7186">
            <path id="Path_14343" d="M424.266 241h-2.621a.645.645 0 0 0 0 1.289h2.621a.645.645 0 0 0 0-1.289z" class="cls-1" transform="translate(-421 -241)"/>
        </g>
    </g>
    <g id="Group_7189" transform="translate(15.825 3.063)">
        <g id="Group_7188">
            <path id="Path_14344" d="M371.2 71.483a.645.645 0 0 0-.911 0l-1.823 1.823a.645.645 0 0 0 .911.911l1.823-1.823a.645.645 0 0 0 0-.911z" class="cls-1" transform="translate(-368.28 -71.295)"/>
        </g>
    </g>
    <g id="Group_7191" transform="translate(10.355)">
        <g id="Group_7190">
            <path id="Path_14345" d="M241.645 0a.645.645 0 0 0-.645.645v2.621a.645.645 0 0 0 1.289 0V.645a.645.645 0 0 0-.644-.645z" class="cls-1" transform="translate(-241)"/>
        </g>
    </g>
    <g id="Group_7193" transform="translate(5.2 5.201)">
        <g id="Group_7192">
            <path id="Path_14346" d="M130.428 122.294a5.843 5.843 0 0 0-4.991-1.093 5.736 5.736 0 0 0-4.232 4.169 5.821 5.821 0 0 0 1.558 5.612 3.027 3.027 0 0 1 .839 2.165v.138a1.929 1.929 0 0 0 .645 1.44v1.181a1.936 1.936 0 0 0 1.934 1.934h1.289a1.936 1.936 0 0 0 1.934-1.934v-1.181a1.929 1.929 0 0 0 .645-1.44v-.141a3.134 3.134 0 0 1 .884-2.207 5.8 5.8 0 0 0-.5-8.643zm-2.315 13.612a.645.645 0 0 1-.645.645h-1.288a.645.645 0 0 1-.645-.645v-.687h2.578zm1.9-5.88a4.431 4.431 0 0 0-1.26 3.117v.141a.645.645 0 0 1-.645.645h-.645v-3.949a2.583 2.583 0 0 0 1.934-2.5.645.645 0 0 0-1.289 0 1.289 1.289 0 0 1-2.578 0 .645.645 0 0 0-1.289 0 2.583 2.583 0 0 0 1.934 2.5v3.949h-.645a.645.645 0 0 1-.645-.645v-.138a4.32 4.32 0 0 0-1.225-3.085 4.544 4.544 0 0 1-1.209-4.382 4.435 4.435 0 0 1 3.274-3.223 4.773 4.773 0 0 1 1.084-.126 4.51 4.51 0 0 1 3.2 7.7z" class="cls-1" transform="translate(-121.024 -121.041)"/>
        </g>
    </g>
</svg>
