<svg xmlns="http://www.w3.org/2000/svg" width="17.706" height="19" viewBox="0 0 17.706 19">
    <defs>
        <style>
            .cls-1{fill:#b5bcd1}
        </style>
    </defs>
    <g id="user" transform="translate(-17.44)">
        <g id="Group_7848" transform="translate(17.44 10.702)">
            <g id="Group_7847" transform="translate(0)">
                <path id="Path_13953" d="M26.293 288.389c-5.709 0-8.853 2.7-8.853 7.6a.693.693 0 0 0 .693.693h16.319a.693.693 0 0 0 .693-.693c.001-4.899-3.145-7.6-8.852-7.6zm-7.441 6.911c.273-3.667 2.773-5.524 7.441-5.524s7.168 1.858 7.441 5.524z" class="cls-1" transform="translate(-17.44 -288.389)"/>
            </g>
        </g>
        <g id="Group_7850" transform="translate(21.693)">
            <g id="Group_7849" transform="translate(0)">
                <path id="Path_13954" d="M136.649 0a4.545 4.545 0 0 0-4.6 4.692 4.615 4.615 0 1 0 9.2 0 4.545 4.545 0 0 0-4.6-4.692zm0 8.3a3.43 3.43 0 0 1-3.213-3.606 3.153 3.153 0 0 1 3.213-3.305 3.188 3.188 0 0 1 3.213 3.305 3.43 3.43 0 0 1-3.213 3.606z" class="cls-1" transform="translate(-132.049)"/>
            </g>
        </g>
    </g>
</svg>
