<svg xmlns="http://www.w3.org/2000/svg" width="14.732" height="19.18" viewBox="0 0 14.732 19.18">
    <defs>
        <style>
            .cls-1{fill:#b5bcd1}
        </style>
    </defs>
    <g id="medal" transform="translate(-59.366)">
        <path id="Path_13943" d="M72.825 10.487L74.1 9.234l-.6-1.681.6-1.681-1.275-1.253-.187-1.776-1.69-.576L70.01.746 68.237.96 66.732 0l-1.5.96-1.779-.214-.937 1.521-1.69.576-.187 1.776-1.273 1.254.6 1.681-.6 1.681 1.273 1.253.187 1.776.938.32-1.607 5.026 2.753-.151 2.154 1.721 1.365-4.267.3.194.3-.194L68.4 19.18l2.154-1.721 2.753.151-1.607-5.027.938-.32zm-8.335 6.794l-1.213-.97-1.551.085 1.019-3.186.708 1.15 1.774-.214.221.141zm5.7-.97l-1.213.97-.958-2.994.221-.141 1.774.214.708-1.15 1.016 3.19zm1.407-4.881l-1.392.475-.771 1.252-1.459-.176-1.24.791-1.24-.791-1.459.176-.771-1.252-1.392-.475-.154-1.462-1.051-1.031.5-1.384-.5-1.384 1.047-1.031.154-1.462 1.393-.476.771-1.252 1.459.176 1.24-.791 1.24.791 1.459-.176L70.2 3.2l1.392.475.154 1.462L72.8 6.169l-.5 1.384.5 1.384-1.051 1.032z" class="cls-1"/>
        <path id="Path_13944" d="M143.533 84.791a4.377 4.377 0 1 0 4.377 4.377 4.382 4.382 0 0 0-4.377-4.377zm0 7.629a3.252 3.252 0 1 1 3.252-3.252 3.256 3.256 0 0 1-3.252 3.252z" class="cls-1" transform="translate(-76.801 -81.615)"/>
    </g>
</svg>
