<svg xmlns="http://www.w3.org/2000/svg" width="17" height="17" viewBox="0 0 17 17">
    <defs>
        <style>
            .cls-1{fill:#a3acc6}
        </style>
    </defs>
    <g id="Group_6934" transform="translate(-324 -999.875)">
        <g id="Group_6861" transform="translate(322 997.875)">
            <path id="Path_13967" d="M19 9.65h-1.76a6.807 6.807 0 0 0-5.89-5.891V2h-1.7v1.759A6.806 6.806 0 0 0 3.759 9.65H2v1.7h1.759a6.807 6.807 0 0 0 5.891 5.891V19h1.7v-1.759a6.806 6.806 0 0 0 5.89-5.891H19zm-8.5 5.95a5.1 5.1 0 1 1 5.1-5.1 5.105 5.105 0 0 1-5.1 5.1z" class="cls-1"/>
        </g>
        <circle id="Ellipse_770" cx="2.5" cy="2.5" r="2.5" class="cls-1" transform="translate(330 1005.875)"/>
    </g>
</svg>
