<svg xmlns="http://www.w3.org/2000/svg" width="16.001" height="16.001" viewBox="0 0 16.001 16.001">
    <path fill="#6d8fff" d="M30.985 22.641h.26c.064 0 .118 0 .168.007h.1a.525.525 0 0 0 .521-.314l.019-.039v-2.111l-.023-.042a.882.882 0 0 0-.425-.354c-1.756-.879-3.54-1.776-5.265-2.644l-.033-.017-1.974-.993c-.047-.023-.1-.044-.147-.066l-.043-.018h-.178l-.04.02-.981.49-.018.009c-.768.383-1.562.779-2.342 1.171l-1.458.733c-.859.432-1.747.88-2.628 1.317a.882.882 0 0 0-.425.352l-.022.042V22.3l.017.037c.132.289.372.312.627.312h.575l.009.163v.062c0 .043.006.084.006.127v5.284a.328.328 0 0 1-.275.361c-.107.028-.257.1-.328.383-.192.766-.388 1.539-.578 2.286-.013.051-.029.1-.045.147l-.011.034v.2l.015.035a.559.559 0 0 0 .314.314l.035.015h15.277l.035-.015a.562.562 0 0 0 .313-.314l.015-.035v-.216l-.113-.43-.293-1.118-.046-.192c-.056-.211-.114-.43-.16-.649a.53.53 0 0 0-.476-.489l-.148-.022v-5.94zm.136-1.322v.387H16.984v-.173-.192c0-.2 0-.4.006-.608.005-.128.119-.2.217-.252q1.316-.664 2.633-1.325l1.394-.7c.855-.43 1.739-.874 2.607-1.314a.468.468 0 0 1 .214-.056.45.45 0 0 1 .208.054c2.164 1.091 4.4 2.214 6.635 3.337a.356.356 0 0 1 .226.365c-.006.158-.005.311-.004.477zm-14 9.794l.055-.215.064-.254c.078-.31.152-.6.235-.9a.339.339 0 0 1 .307-.2h12.513a.342.342 0 0 1 .37.293c.059.255.123.5.189.765l.078.306.054.215zM27.658 28.6v-5.949h2.2V28.6zm-6.279 0v-5.949h5.327V28.6zm-3.145 0v-5.947h2.191V28.6z" transform="translate(-16.052 -16.05)"/>
</svg>
