<svg xmlns="http://www.w3.org/2000/svg" width="12.177" height="13.521" viewBox="0 0 12.177 13.521">
    <path fill="#a7b1c4" stroke="#a7b1c4" stroke-width="0.3px" d="M20.12 28.327l.045 1.658a.2.2 0 0 0 .2.193h11.383a.2.2 0 0 0 .2-.193l.045-1.654A2.346 2.346 0 0 0 30 26.067a15.016 15.016 0 0 0-2.857-.309 4.132 4.132 0 0 0 1.778-3.593c0-.06 0-.119-.006-.178a3.375 3.375 0 0 0 .338-2.5c-.067-.382-.361-1.053-1-1.095a1.163 1.163 0 0 0-.321-.571c-.023-.02-2.281-1.977-4.908.649a.2.2 0 0 0 .058.321l.131.06a2.046 2.046 0 0 0-.555 1.989l.207 1.138a.2.2 0 0 0 .083.125v.061a4.126 4.126 0 0 0 1.79 3.6 14.187 14.187 0 0 0-2.625.3 2.346 2.346 0 0 0-1.993 2.263zm5.862-2.119l.62.406-.228.633h-.784l-.228-.633zm-.349 1.436h.7l.176 2.137h-1.052zm5.961.672l-.04 1.465h-4.646l-.191-2.315.312-.865a.2.2 0 0 0-.078-.233l-.34-.223a16.749 16.749 0 0 1 3.3.307 1.931 1.931 0 0 1 1.687 1.864zm-2.732-8.77a3.539 3.539 0 0 1-.2 2.1 2.194 2.194 0 0 1-.745-1.863l.019-.023a1.864 1.864 0 0 0 .109-.189 2.091 2.091 0 0 0 .229-.771c.457.08.584.725.588.746zM23.691 19a.2.2 0 0 0 .007-.365l-.188-.085c2.26-2.06 4.075-.5 4.145-.442a.759.759 0 0 1 .228.5 1.571 1.571 0 0 1-.189.779c-.041.081-.075.134-.074.134l-.025.028-.022.024c-1.176 1.323-3.656.414-3.681.4a.2.2 0 0 0-.268.168 2.709 2.709 0 0 1-.422 1.491l-.157-.862c-.217-1.382.612-1.753.646-1.77zm-.351 3.162v-.122c.251-.17.526-.6.651-1.612.638.194 2.379.6 3.545-.291a2.284 2.284 0 0 0 .981 1.876c0 .049.006.1.006.149 0 1.95-1.163 3.537-2.593 3.537s-2.59-1.584-2.59-3.535zm2.01 3.983l-.337.221a.2.2 0 0 0-.078.233l.313.869-.19 2.311h-4.5l-.04-1.47a1.948 1.948 0 0 1 1.682-1.857 16.157 16.157 0 0 1 3.15-.305z" transform="translate(-19.967 -16.807)"/>
</svg>
