<svg xmlns="http://www.w3.org/2000/svg" width="14.439" height="10.114" viewBox="0 0 14.439 10.114">
    <path fill="#a7b1c4" d="M3.333 14.284a1.078 1.078 0 0 0 .472.108h10.829a1.079 1.079 0 0 0 .472-.108l-4.266-4.015-1.391 1.146a.361.361 0 0 1-.459 0L7.6 10.269l-4.267 4.015zm-.508-.513l.01-.01 4.2-3.954-4.182-3.445-.026-.024a1.079 1.079 0 0 0-.106.467v6.5a1.079 1.079 0 0 0 .1.462zm12.788 0a1.078 1.078 0 0 0 .1-.462V6.8a1.079 1.079 0 0 0-.106-.467l-.026.024-4.181 3.45 4.2 3.954.01.01zM15.1 5.827a1.078 1.078 0 0 0-.465-.1H3.8a1.079 1.079 0 0 0-.465.1l5.88 4.842L15.1 5.827zM3.8 5h10.834a1.8 1.8 0 0 1 1.8 1.8v6.5a1.8 1.8 0 0 1-1.8 1.8H3.8A1.8 1.8 0 0 1 2 13.3V6.8A1.8 1.8 0 0 1 3.8 5z" transform="translate(-2 -5)"/>
</svg>
