<svg xmlns="http://www.w3.org/2000/svg" width="12.718" height="10.546" viewBox="0 0 12.718 10.546">
    <defs>
        <style>
            .cls-1{fill:#a6b1c3}
        </style>
    </defs>
    <g id="group-1" transform="translate(0 -43.729)">
        <g id="Group_6774" transform="translate(0 48.348)">
            <g id="Group_6773">
                <path id="Path_13889" d="M10.855 230.636H9.61a1.858 1.858 0 0 0-.49.066 1.865 1.865 0 0 0-1.66-1.022h-2.2a1.865 1.865 0 0 0-1.66 1.02 1.858 1.858 0 0 0-.49-.066H1.863A1.865 1.865 0 0 0 0 232.5v1.99a1.119 1.119 0 0 0 1.118 1.118H11.6a1.119 1.119 0 0 0 1.118-1.118v-1.99a1.865 1.865 0 0 0-1.863-1.864zm-7.46.907v3.318H1.118a.373.373 0 0 1-.373-.373V232.5a1.119 1.119 0 0 1 1.118-1.118h1.245a1.115 1.115 0 0 1 .292.039v.122zm5.182 3.318H4.141v-3.318a1.119 1.119 0 0 1 1.118-1.118h2.2a1.119 1.119 0 0 1 1.118 1.118zm3.4-.373a.373.373 0 0 1-.373.373H9.323v-3.318-.123a1.116 1.116 0 0 1 .292-.039h1.245a1.119 1.119 0 0 1 1.118 1.118z" class="cls-1" transform="translate(0 -229.68)"/>
            </g>
        </g>
        <g id="Group_6776" transform="translate(.83 45.785)">
            <g id="Group_6775">
                <path id="Path_13890" d="M35.07 126.5a1.656 1.656 0 1 0 1.656 1.656 1.657 1.657 0 0 0-1.656-1.656zm0 2.566a.91.91 0 1 1 .91-.91.911.911 0 0 1-.911.914z" class="cls-1" transform="translate(-33.414 -126.504)"/>
            </g>
        </g>
        <g id="Group_6778" transform="translate(4.147 43.729)">
            <g id="Group_6777">
                <path id="Path_13891" d="M169.174 43.729a2.212 2.212 0 1 0 2.212 2.212 2.214 2.214 0 0 0-2.212-2.212zm0 3.678a1.467 1.467 0 1 1 1.467-1.467 1.468 1.468 0 0 1-1.467 1.467z" class="cls-1" transform="translate(-166.962 -43.729)"/>
            </g>
        </g>
        <g id="Group_6780" transform="translate(8.577 45.785)">
            <g id="Group_6779">
                <path id="Path_13892" d="M346.95 126.5a1.656 1.656 0 1 0 1.656 1.656 1.657 1.657 0 0 0-1.656-1.656zm0 2.566a.91.91 0 1 1 .91-.91.911.911 0 0 1-.91.914z" class="cls-1" transform="translate(-345.294 -126.504)"/>
            </g>
        </g>
    </g>
</svg>
