<svg xmlns="http://www.w3.org/2000/svg" width="17.739" height="17" viewBox="0 0 17.739 17">
    <path fill="#4f8aff" d="M3.971 17.492a.944.944 0 0 1-.919-1.153l1.141-5.027-3.87-3.394a.944.944 0 0 1 .534-1.65L5.979 5.8 8 1.065a.943.943 0 0 1 1.734 0L11.762 5.8l5.12.465a.944.944 0 0 1 .536 1.65l-3.87 3.393 1.141 5.027a.943.943 0 0 1-1.4 1.019L8.87 14.718l-4.416 2.64a.945.945 0 0 1-.483.134zm4.9-3.911a.945.945 0 0 1 .483.134l4.167 2.493-1.077-4.745a.943.943 0 0 1 .3-.919l3.654-3.2-4.836-.444a.942.942 0 0 1-.784-.571L8.87 1.858 6.959 6.33a.939.939 0 0 1-.781.569l-4.836.439L5 10.543a.941.941 0 0 1 .3.92l-1.081 4.744 4.167-2.492a.945.945 0 0 1 .483-.134zM5.939 5.895zm5.86 0zm0 0" transform="translate(-.001 -.492)"/>
</svg>
