<svg xmlns="http://www.w3.org/2000/svg" width="18.763" height="16.015" viewBox="0 0 18.763 16.015">
    <defs>
        <style>
            .cls-1{fill:#a3acc6}
        </style>
    </defs>
    <g id="Group_6939" transform="translate(-648.433 -33.637)">
        <g id="Group_6939-2" transform="translate(656.782 33.637)">
            <path id="Path_13986" d="M1163.73 218.852h-.006a.119.119 0 0 0 .051-.016.418.418 0 0 1-.045.016z" class="cls-1" transform="translate(-1155.18 -212.39)"/>
            <path id="Path_13987" d="M925.626 44.86v-.077l.005-.025c.009-.039.018-.084.034-.132l.011-.035.01-.03.017-.032c.019-.037.039-.075.064-.114a.429.429 0 0 1 .026-.036l.01-.013.005-.006c.016-.019.034-.039.053-.058l.13-.129.572-.576c.375-.377.762-.767 1.142-1.154a3.844 3.844 0 0 0 1.1-2.681.425.425 0 0 0 0-.06v-.025q0-.461-.007-.922c0-.34 0-.68-.007-1.018a3.416 3.416 0 0 0-.038-.406l-.019-.148-.158-1.334c-.037-.315-.077-.65-.12-.99l-.008-.072a1.334 1.334 0 0 0-.313-.757 1.225 1.225 0 0 0-.955-.392 1.959 1.959 0 0 0-.366.035 1.409 1.409 0 0 0-.931.75 2.488 2.488 0 0 0-.2 1.3c.014.26.034.526.053.783l.019.265c0 .042.006.083.009.125l.01.132a.284.284 0 0 1 .009.182v.026l-.007.024-.023.1-.022.1-.159.678-.062.267-.119.028a1.214 1.214 0 0 0-.44.2 1.887 1.887 0 0 0-.29.262l-.66.708-.285.307c-.095.1-.19.2-.284.306l-.006.006-.038.041-.05.053c-.055.055-.111.1-.167.152l-.038.033-.01.01-.012.012-.014.009-.067.043-.037.024a2.446 2.446 0 0 1-.249.135c-.161.079-.327.157-.487.232-.365.172-.742.35-1.095.546a3.479 3.479 0 0 0-1.292 1.271 3.081 3.081 0 0 0-.443 1.552c.009.38.026.764.04 1.1l.009.2-.2.01a.96.96 0 0 0-.589.235 1.248 1.248 0 0 0-.288 1.052v1.812a.907.907 0 0 0 .645.874 1.355 1.355 0 0 0 .346.034h5.961c.194 0 .354 0 .5-.008a.9.9 0 0 0 .872-.729v-.016a.482.482 0 0 0 .02-.138V47.72v-1.045a1.207 1.207 0 0 0-.109-.568.914.914 0 0 0-.849-.465h-.209l.045-.7.005-.082zm.128 1.771v2.024h-6.363v-.2-.181l-.047.379h-.022l-.083-.386a.369.369 0 0 1 .081-.009.376.376 0 0 1 .071.007v-.249c0-.386.008-.784 0-1.173v-.194l.237-.009c.06 0 .121-.005.182-.005h4.906zm-.445-3.176a3.646 3.646 0 0 0-.3.333 1.892 1.892 0 0 0-.379 1.075l-.05.777h-4.122l-.01-.266-.034-.861-.008-.188v-.015-.129-.013a.356.356 0 0 1 .023-.113l.016-.079a2.928 2.928 0 0 1 .114-.376l.007-.018.009-.015c0-.007.012-.029.017-.042l.013-.032v-.012c.033-.066.062-.12.093-.173s.064-.11.1-.165l.067-.1.01-.015.025-.033.008.006.026-.034a.8.8 0 0 1 .059-.073c.043-.045.086-.091.134-.136s.081-.076.12-.11l.04-.035.055-.043.028-.021a4.878 4.878 0 0 1 .677-.375l.084-.041.463-.226.475-.232a3.5 3.5 0 0 0 .819-.527 5.128 5.128 0 0 0 .428-.439l.09-.1.819-.88h-.01l.181-.183.084-.084.049-.046h.034a.2.2 0 0 1 .071-.028.209.209 0 0 1 .048-.006.29.29 0 0 1 .088-.017h.175v.023a.376.376 0 0 0 .181-.054.529.529 0 0 0 .235-.293l.112-.48.112-.48.057-.229a2.386 2.386 0 0 0 .113-.7c-.013-.229-.03-.461-.046-.686-.011-.15-.022-.3-.031-.449-.008-.132-.017-.269-.023-.406v-.068c0-.07-.005-.142 0-.216v-.076-.091l.005-.023c0-.011.005-.022.008-.034l.009-.039a.279.279 0 0 1 .045-.142l.011-.018.019-.029.008-.012v-.008l.034-.049.014-.014.014-.015c.013-.013.027-.024.041-.036l.027-.023.021-.024.028-.016a.4.4 0 0 1 .053-.026l.028-.011h.03l.238-.073v.079h.016l.025.016.048.03.024.04.019.032.009.031.009.026.107.9q.04.325.078.651l.077.642c.008.068.018.136.028.208a4.021 4.021 0 0 1 .048.469c.006.4.006.81.006 1.206v.867a3.177 3.177 0 0 1-.015.335v.054l-.008.047-.018.1v.006c-.026.116-.052.218-.081.313-.014.05-.031.1-.055.161a.793.793 0 0 1-.034.076c-.034.061-.066.122-.1.187a3.669 3.669 0 0 1-.2.356l-.062.085-.047.059v.005c-.054.063-.108.119-.159.174l-.677.684z" class="cls-1" transform="translate(-918.393 -33.637)"/>
            <path id="Path_13988" d="M1165.718 218.178h-.011z" class="cls-1" transform="translate(-1157.09 -211.751)"/>
        </g>
        <g id="Group_6940" transform="translate(648.433 33.637)">
            <path id="Path_13989" d="M700.706 218.852h.006a.121.121 0 0 1-.051-.016.4.4 0 0 0 .045.016z" class="cls-1" transform="translate(-698.842 -212.39)"/>
            <path id="Path_13990" d="M651.618 44.943l.044.7h-.209a.914.914 0 0 0-.849.465 1.21 1.21 0 0 0-.109.568v2.086a.484.484 0 0 0 .02.138v.016a.9.9 0 0 0 .871.729c.15.006.31.008.5.008h5.957a1.354 1.354 0 0 0 .346-.034.907.907 0 0 0 .645-.874v-.24-.124-1.325-.123a1.248 1.248 0 0 0-.288-1.052.961.961 0 0 0-.589-.235l-.2-.01.008-.2c.015-.339.032-.723.041-1.1a3.077 3.077 0 0 0-.443-1.552 3.476 3.476 0 0 0-1.292-1.271c-.352-.2-.73-.374-1.095-.546-.16-.075-.325-.153-.487-.232a2.512 2.512 0 0 1-.249-.135l-.037-.024-.067-.043-.014-.009-.012-.012-.01-.01c-.013-.01-.026-.021-.038-.033-.055-.048-.111-.1-.166-.152-.018-.017-.034-.035-.05-.053l-.039-.041-.006-.006-.284-.306-.285-.307-.66-.708a1.881 1.881 0 0 0-.29-.262 1.209 1.209 0 0 0-.44-.2l-.119-.028-.062-.267-.159-.678-.022-.1c-.007-.036-.015-.068-.023-.1l-.008-.024v-.03a.285.285 0 0 1 .008-.182c0-.045.006-.089.01-.132s.007-.083.009-.125l.019-.265c.019-.257.038-.523.053-.783a2.489 2.489 0 0 0-.2-1.3 1.41 1.41 0 0 0-.931-.75 1.958 1.958 0 0 0-.365-.035 1.225 1.225 0 0 0-.955.392 1.332 1.332 0 0 0-.312.757l-.008.072c-.043.34-.082.675-.119.99l-.158 1.334-.019.148a3.564 3.564 0 0 0-.038.406c0 .338 0 .678-.007 1.018q0 .461-.006.922v.026a.424.424 0 0 0 0 .06 3.844 3.844 0 0 0 1.1 2.681c.379.387.767.777 1.142 1.154l.572.576.13.129c.019.019.037.039.053.058l.005.006.01.013a.4.4 0 0 1 .025.036c.025.038.045.077.064.114l.017.032.01.03.011.035a1.257 1.257 0 0 1 .034.132l.005.025v.081c0 .02.009.053.01.081zm.9 1.688h4.906c.061 0 .122 0 .182.005l.237.009v.194c-.008.389 0 .788 0 1.173v.249a.372.372 0 0 1 .07-.007.365.365 0 0 1 .081.009l-.082.386h-.022l-.047-.379v.381h-6.363v-.2V46.627zm-1.614-4.21l-.676-.684c-.052-.055-.106-.111-.159-.174v-.005l-.047-.059-.062-.085a3.664 3.664 0 0 1-.2-.356c-.034-.065-.065-.126-.1-.187a.829.829 0 0 1-.034-.076c-.024-.061-.041-.111-.055-.161-.029-.094-.055-.2-.081-.313V40.3l-.017-.1-.008-.047v-.013-.04a3.216 3.216 0 0 1-.015-.335v-.867c0-.4 0-.806.006-1.206a4.008 4.008 0 0 1 .048-.469c.01-.072.02-.14.028-.208l.077-.642.078-.651.107-.9.008-.026.009-.031.019-.032.024-.04.048-.03.025-.016h.016v-.079l.238.073h.03l.028.011a.388.388 0 0 1 .053.026l.029.016.021.024.027.023a.542.542 0 0 1 .042.036l.014.015.014.014.034.049v.008l.008.012.019.029.011.018a.28.28 0 0 1 .045.142c0 .014.006.027.009.039s0 .023.007.034l.006.023v.439c-.006.138-.014.274-.022.406l-.032.449c-.016.225-.033.457-.046.686a2.384 2.384 0 0 0 .113.7c.02.075.04.153.057.229l.112.48.112.48a.528.528 0 0 0 .235.293.375.375 0 0 0 .181.054v-.023h.175a.288.288 0 0 1 .088.017.209.209 0 0 1 .048.006.194.194 0 0 1 .071.028h.034l.049.046.084.084.181.183h-.011l.819.88.09.1a5.149 5.149 0 0 0 .428.439 3.5 3.5 0 0 0 .819.527l.475.232.464.226.083.041a4.847 4.847 0 0 1 .677.375l.029.021.055.043.04.035c.04.035.081.071.121.11s.091.092.133.136a.842.842 0 0 1 .059.073l.026.034.008-.006.025.033.01.015c.025.034.048.068.067.1.037.055.069.111.1.165s.06.107.093.173v.012l.013.032a.442.442 0 0 0 .017.042l.009.015.007.018a2.921 2.921 0 0 1 .115.376l.016.079a.353.353 0 0 1 .023.113V44.313l-.008.188q-.018.43-.034.861l-.01.266h-4.122l-.05-.777a1.888 1.888 0 0 0-.378-1.075 3.577 3.577 0 0 0-.3-.333z" class="cls-1" transform="translate(-648.433 -33.637)"/>
            <path id="Path_13991" d="M699.7 218.178h.011z" class="cls-1" transform="translate(-697.914 -211.751)"/>
        </g>
        <path id="Path_13992" d="M662.067 382.681a.559.559 0 0 1 0-.085c-.013.104-.004.112 0 .085z" class="cls-1" transform="translate(-13.152 -336.805)"/>
    </g>
</svg>
