<svg xmlns="http://www.w3.org/2000/svg" id="dollar" width="17.329" height="17.329" viewBox="0 0 17.329 17.329">
    <defs>
        <style>
            .cls-1{fill:#4f8aff}
        </style>
    </defs>
    <path id="Path_14086" d="M8.665 17.329A8.665 8.665 0 0 1 2.538 2.538a8.665 8.665 0 0 1 12.253 12.253 8.608 8.608 0 0 1-6.127 2.538zm0-16.246a7.581 7.581 0 1 0 7.581 7.581 7.59 7.59 0 0 0-7.581-7.581z" class="cls-1"/>
    <path id="Path_14087" d="M186.437 100.874a1.354 1.354 0 1 1 1.354-1.354.542.542 0 1 0 1.083 0 2.441 2.441 0 0 0-1.9-2.375v-.6a.542.542 0 0 0-1.083 0v.6a2.437 2.437 0 0 0 .542 4.812 1.354 1.354 0 1 1-1.354 1.354.542.542 0 1 0-1.083 0 2.441 2.441 0 0 0 1.9 2.376v.6a.542.542 0 0 0 1.083 0v-.6a2.437 2.437 0 0 0-.542-4.812z" class="cls-1" transform="translate(-177.772 -92.751)"/>
</svg>
