<svg width="20" height="20" viewBox="0 0 20 20" fill="none" xmlns="http://www.w3.org/2000/svg">
<path d="M10 0.25C4.624 0.25 0.25 4.624 0.25 10C0.25 15.376 4.624 19.75 10 19.75C15.376 19.75 19.75 15.376 19.75 10C19.75 4.624 15.376 0.25 10 0.25ZM10 1.75C14.5653 1.75 18.25 5.43475 18.25 10C18.25 14.5653 14.5653 18.25 10 18.25C5.43475 18.25 1.75 14.5653 1.75 10C1.75 5.43475 5.43475 1.75 10 1.75ZM7.165 6.085L6.085 7.165L8.923 10L6.0865 12.835L7.1665 13.915L10 11.0778L12.835 13.9127L13.915 12.835L11.0778 10L13.9127 7.165L12.835 6.085L10 8.923L7.165 6.0865V6.085Z" fill="#707693"/>
</svg>
