<svg width="17" height="17" viewBox="0 0 17 17" fill="none" xmlns="http://www.w3.org/2000/svg">
<path d="M10.7662 16.4358H10.1995C10.1995 16.541 10.2288 16.6442 10.2841 16.7337C10.3395 16.8232 10.4186 16.8956 10.5128 16.9426C10.6069 16.9897 10.7123 17.0096 10.8171 17.0002C10.9219 16.9907 11.022 16.9523 11.1062 16.8891L10.7662 16.4358ZM13.0328 14.7358L13.3728 14.2824C13.2748 14.2089 13.1555 14.1691 13.0328 14.1691C12.9102 14.1691 12.7909 14.2089 12.6928 14.2824L13.0328 14.7358ZM15.2995 16.4358L14.9595 16.8891C15.0437 16.9523 15.1438 16.9907 15.2486 17.0002C15.3534 17.0096 15.4588 16.9897 15.5529 16.9426C15.6471 16.8956 15.7262 16.8232 15.7815 16.7337C15.8369 16.6442 15.8662 16.541 15.8662 16.4358H15.2995ZM13.0328 12.4691C12.2814 12.4691 11.5607 12.1706 11.0294 11.6392C10.498 11.1079 10.1995 10.3872 10.1995 9.63578H9.06618C9.06618 10.6878 9.48409 11.6967 10.228 12.4406C10.9719 13.1845 11.9808 13.6024 13.0328 13.6024V12.4691ZM15.8662 9.63578C15.8662 10.3872 15.5677 11.1079 15.0363 11.6392C14.505 12.1706 13.7843 12.4691 13.0328 12.4691V13.6024C14.0849 13.6024 15.0938 13.1845 15.8377 12.4406C16.5816 11.6967 16.9995 10.6878 16.9995 9.63578H15.8662ZM13.0328 6.80244C13.7843 6.80244 14.505 7.10095 15.0363 7.63231C15.5677 8.16366 15.8662 8.88433 15.8662 9.63578H16.9995C16.9995 8.58375 16.5816 7.57481 15.8377 6.83092C15.0938 6.08702 14.0849 5.66911 13.0328 5.66911V6.80244ZM13.0328 5.66911C11.9808 5.66911 10.9719 6.08702 10.228 6.83092C9.48409 7.57481 9.06618 8.58375 9.06618 9.63578H10.1995C10.1995 8.88433 10.498 8.16366 11.0294 7.63231C11.5607 7.10095 12.2814 6.80244 13.0328 6.80244V5.66911ZM10.1995 11.9024V16.4358H11.3328V11.9024H10.1995ZM11.1062 16.8891L13.3728 15.1891L12.6928 14.2824L10.4262 15.9824L11.1062 16.8891ZM12.6928 15.1891L14.9595 16.8891L15.6395 15.9824L13.3728 14.2824L12.6928 15.1891ZM15.8662 16.4358V11.9024H14.7328V16.4358H15.8662ZM16.9995 5.66911V1.70244H15.8662V5.66911H16.9995ZM15.2995 0.00244141H1.69951V1.13577H15.2995V0.00244141ZM-0.000488281 1.70244V15.3024H1.13285V1.70244H-0.000488281ZM1.69951 17.0024H9.06618V15.8691H1.69951V17.0024ZM-0.000488281 15.3024C-0.000488281 15.7533 0.178618 16.1857 0.49743 16.5045C0.816242 16.8233 1.24864 17.0024 1.69951 17.0024V15.8691C1.54922 15.8691 1.40509 15.8094 1.29882 15.7031C1.19255 15.5969 1.13285 15.4527 1.13285 15.3024H-0.000488281ZM1.69951 0.00244141C1.24864 0.00244141 0.816242 0.181548 0.49743 0.50036C0.178618 0.819172 -0.000488281 1.25157 -0.000488281 1.70244H1.13285C1.13285 1.55215 1.19255 1.40802 1.29882 1.30175C1.40509 1.19548 1.54922 1.13577 1.69951 1.13577V0.00244141ZM16.9995 1.70244C16.9995 1.25157 16.8204 0.819172 16.5016 0.50036C16.1828 0.181548 15.7504 0.00244141 15.2995 0.00244141V1.13577C15.4498 1.13577 15.5939 1.19548 15.7002 1.30175C15.8065 1.40802 15.8662 1.55215 15.8662 1.70244H16.9995ZM3.39951 5.66911H9.06618V4.53578H3.39951V5.66911ZM3.39951 9.06911H6.79951V7.93578H3.39951V9.06911Z" fill="#FF535D"/>
</svg>
