<svg width="232" height="112" viewBox="0 0 232 112" fill="none" xmlns="http://www.w3.org/2000/svg">
<circle cx="45.5" cy="47.5" r="45.5" fill="#EEF2FF" fill-opacity="0.52"/>
<path d="M135.601 111.664H4.39926C3.2325 111.664 2.11353 111.2 1.28851 110.375C0.463491 109.55 0 108.431 0 107.264C47.5605 101.737 94.2272 101.737 140 107.264C140 108.431 139.537 109.55 138.711 110.375C137.886 111.2 136.767 111.664 135.601 111.664Z" fill="#2F2E41"/>
<path d="M140 107.523L0 107.264L16.2255 79.963L16.3031 79.8336V19.6647C16.3031 18.9344 16.4469 18.2112 16.7263 17.5365C17.0058 16.8617 17.4154 16.2486 17.9318 15.7322C18.4483 15.2158 19.0613 14.8062 19.7361 14.5267C20.4108 14.2473 21.134 14.1035 21.8643 14.1035H117.359C118.09 14.1035 118.813 14.2473 119.488 14.5267C120.162 14.8062 120.775 15.2158 121.292 15.7322C121.808 16.2486 122.218 16.8617 122.497 17.5365C122.777 18.2112 122.921 18.9344 122.921 19.6647V80.2477L140 107.523Z" fill="#3F3D56"/>
<path d="M21.7372 17.9852C21.257 17.9857 20.7965 18.1768 20.4569 18.5164C20.1173 18.856 19.9263 19.3164 19.9258 19.7967V74.658C19.9263 75.1383 20.1174 75.5987 20.457 75.9383C20.7966 76.2779 21.257 76.4689 21.7372 76.4695H118.262C118.742 76.4689 119.203 76.2779 119.542 75.9383C119.882 75.5987 120.073 75.1383 120.074 74.658V19.7967C120.073 19.3164 119.882 18.856 119.542 18.5164C119.203 18.1768 118.742 17.9858 118.262 17.9852H21.7372Z" fill="white"/>
<path d="M22.1422 83.7153C21.9938 83.7156 21.8486 83.7583 21.7236 83.8383C21.5986 83.9184 21.4991 84.0325 21.4369 84.1672L16.4373 95.036C16.3829 95.1542 16.3591 95.2843 16.3681 95.4142C16.3771 95.5441 16.4186 95.6696 16.4888 95.7792C16.5591 95.8889 16.6557 95.9791 16.77 96.0415C16.8842 96.104 17.0123 96.1368 17.1425 96.1368H122.281C122.413 96.1368 122.544 96.1029 122.659 96.0385C122.775 95.974 122.872 95.8811 122.941 95.7685C123.011 95.656 123.051 95.5275 123.057 95.3953C123.062 95.2631 123.035 95.1316 122.975 95.0132L117.541 84.1445C117.477 84.0152 117.378 83.9066 117.255 83.8307C117.132 83.7549 116.991 83.7149 116.847 83.7153H22.1422Z" fill="#2F2E41"/>
<path d="M69.6118 17.0795C70.2549 17.0795 70.7763 16.5581 70.7763 15.915C70.7763 15.2718 70.2549 14.7505 69.6118 14.7505C68.9686 14.7505 68.4473 15.2718 68.4473 15.915C68.4473 16.5581 68.9686 17.0795 69.6118 17.0795Z" fill="white"/>
<path d="M59.2775 98.207C59.1068 98.2072 58.941 98.2636 58.8055 98.3674C58.67 98.4712 58.5725 98.6167 58.5279 98.7814L57.2738 103.439C57.2428 103.555 57.2387 103.675 57.2618 103.792C57.2849 103.909 57.3347 104.019 57.4072 104.114C57.4796 104.208 57.5729 104.285 57.6798 104.338C57.7866 104.39 57.9042 104.418 58.0234 104.418H81.8735C81.9972 104.418 82.1192 104.388 82.2292 104.331C82.3392 104.275 82.434 104.192 82.5058 104.092C82.5776 103.991 82.6242 103.874 82.6418 103.752C82.6593 103.629 82.6474 103.504 82.6068 103.387L80.9945 98.7294C80.9417 98.5769 80.8426 98.4446 80.7111 98.351C80.5797 98.2574 80.4223 98.2071 80.2609 98.207H59.2775Z" fill="#2F2E41"/>
<path d="M122.921 78.9279V79.9629H16.2256L16.3059 79.8337V78.9279H122.921Z" fill="#2F2E41"/>
<path d="M119.945 36.2292C129.949 36.2292 138.059 28.119 138.059 18.1146C138.059 8.11018 129.949 0 119.945 0C109.94 0 101.83 8.11018 101.83 18.1146C101.83 28.119 109.94 36.2292 119.945 36.2292Z" fill="#79A6FF"/>
<path d="M127.449 26.0074H112.439C112.165 26.0072 111.902 25.898 111.708 25.7039C111.514 25.5099 111.405 25.2468 111.404 24.9723V15.915C111.405 15.6406 111.514 15.3774 111.708 15.1834C111.902 14.9893 112.165 14.8802 112.439 14.8799H127.449C127.723 14.8802 127.986 14.9893 128.18 15.1834C128.374 15.3774 128.483 15.6406 128.484 15.915V24.9723C128.484 25.2467 128.374 25.5099 128.18 25.7039C127.986 25.898 127.723 26.0072 127.449 26.0074ZM112.439 15.915V24.9723H127.449L127.449 15.915L112.439 15.915Z" fill="white"/>
<path d="M124.602 15.915H115.286V11.7745C115.286 8.77551 117.245 6.59888 119.944 6.59888C122.643 6.59888 124.602 8.77551 124.602 11.7745L124.602 15.915ZM116.321 14.8798H123.567V11.7745C123.567 9.33665 122.077 7.634 119.944 7.634C117.811 7.634 116.321 9.33667 116.321 11.7745L116.321 14.8798Z" fill="white"/>
<path d="M119.944 21.22C120.516 21.22 120.979 20.7565 120.979 20.1848C120.979 19.6132 120.516 19.1497 119.944 19.1497C119.373 19.1497 118.909 19.6132 118.909 20.1848C118.909 20.7565 119.373 21.22 119.944 21.22Z" fill="white"/>
<path d="M107.299 57.8611H32.7008C32.3345 57.8606 31.9834 57.7149 31.7244 57.456C31.4654 57.197 31.3198 56.8459 31.3193 56.4796V37.975C31.3198 37.6088 31.4654 37.2577 31.7244 36.9987C31.9834 36.7397 32.3345 36.594 32.7008 36.5936H107.299C107.665 36.594 108.016 36.7397 108.275 36.9987C108.534 37.2577 108.68 37.6088 108.68 37.975V56.4796C108.68 56.8459 108.534 57.197 108.275 57.456C108.016 57.7149 107.665 57.8606 107.299 57.8611ZM32.7008 37.1462C32.481 37.1464 32.2703 37.2338 32.1149 37.3892C31.9596 37.5446 31.8722 37.7553 31.8719 37.975V56.4796C31.8722 56.6994 31.9596 56.9101 32.1149 57.0655C32.2703 57.2208 32.481 57.3082 32.7008 57.3085H107.299C107.518 57.3082 107.729 57.2208 107.885 57.0655C108.04 56.9101 108.127 56.6994 108.128 56.4796V37.975C108.127 37.7553 108.04 37.5446 107.885 37.3892C107.729 37.2338 107.518 37.1464 107.299 37.1462L32.7008 37.1462Z" fill="#E6E6E6"/>
<path d="M44.2923 52.1446C47.4002 52.1446 49.9196 49.6252 49.9196 46.5173C49.9196 43.4095 47.4002 40.8901 44.2923 40.8901C41.1845 40.8901 38.665 43.4095 38.665 46.5173C38.665 49.6252 41.1845 52.1446 44.2923 52.1446Z" fill="#E6E6E6"/>
<path d="M57.288 42.7658C57.1647 42.7656 57.0426 42.7897 56.9286 42.8368C56.8147 42.8838 56.7111 42.9529 56.6239 43.04C56.5366 43.1271 56.4674 43.2305 56.4202 43.3444C56.3729 43.4583 56.3486 43.5804 56.3486 43.7037C56.3486 43.827 56.3729 43.9491 56.4202 44.0629C56.4674 44.1768 56.5366 44.2803 56.6239 44.3674C56.7111 44.4545 56.8147 44.5235 56.9286 44.5706C57.0426 44.6176 57.1647 44.6418 57.288 44.6416H101.502C101.751 44.6416 101.989 44.5427 102.165 44.3669C102.341 44.191 102.44 43.9524 102.44 43.7037C102.44 43.4549 102.341 43.2164 102.165 43.0405C101.989 42.8646 101.751 42.7658 101.502 42.7658H57.288Z" fill="#E6E6E6"/>
<path d="M57.2885 48.3931C57.0397 48.3931 56.8012 48.4919 56.6253 48.6678C56.4494 48.8437 56.3506 49.0822 56.3506 49.331C56.3506 49.5797 56.4494 49.8183 56.6253 49.9942C56.8012 50.17 57.0397 50.2689 57.2885 50.2689H76.3139C76.5627 50.2689 76.8012 50.17 76.9771 49.9942C77.153 49.8183 77.2518 49.5797 77.2518 49.331C77.2518 49.0822 77.153 48.8437 76.9771 48.6678C76.8012 48.4919 76.5627 48.3931 76.3139 48.3931H57.2885Z" fill="#E6E6E6"/>
<g filter="url(#filter0_d_41_3207)">
<rect x="188" y="33" width="38" height="38" rx="7" fill="white"/>
</g>
<g filter="url(#filter1_d_41_3207)">
<rect x="103" y="49" width="65.1429" height="16" rx="7" fill="white"/>
</g>
<circle cx="112.715" cy="56.4286" r="2.85714" fill="#D6DAF9"/>
<circle cx="121.857" cy="56.4286" r="2.85714" fill="#D6DAF9"/>
<circle cx="131" cy="56.4286" r="2.85714" fill="#D6DAF9"/>
<circle cx="140.143" cy="56.4286" r="2.85714" fill="#D6DAF9"/>
<circle cx="149.286" cy="56.4286" r="2.85714" fill="#D6DAF9"/>
<circle cx="158.428" cy="56.4286" r="2.85714" fill="#D6DAF9"/>
<path d="M214.614 46.5936L210.789 44.1421C210.51 43.9681 210.145 43.9508 209.85 44.1073C209.554 44.2637 209.38 44.5767 209.38 44.9071V46.3502H204.234C201.504 46.3502 199.296 48.5757 199.296 51.288V52.4356C199.296 52.992 199.748 53.444 200.304 53.444C200.861 53.444 201.313 52.992 201.313 52.4356V51.288C201.313 49.6711 202.634 48.3497 204.251 48.3497H209.398L209.398 49.8276C209.398 50.158 209.571 50.4709 209.867 50.6274C210.006 50.6969 210.163 50.7317 210.302 50.7317C210.476 50.7317 210.649 50.6796 210.788 50.5926L214.614 48.1411C214.874 47.9672 215.031 47.689 215.031 47.376C215.031 47.063 214.874 46.7674 214.614 46.5937L214.614 46.5936Z" fill="#7EA9FF"/>
<path d="M213.744 51.062C213.188 51.062 212.736 51.514 212.736 52.0704V53.218C212.736 54.8349 211.414 56.1564 209.797 56.1564H204.651V54.6958C204.651 54.3654 204.477 54.0525 204.181 53.8959C203.886 53.7395 203.538 53.7395 203.242 53.9307L199.417 56.3823C199.157 56.5562 199 56.8343 199 57.1474C199 57.4602 199.156 57.7559 199.417 57.9124L203.242 60.364C203.399 60.4683 203.555 60.5031 203.729 60.5031C203.886 60.5031 204.025 60.4683 204.164 60.3988C204.459 60.2423 204.633 59.9293 204.633 59.5989V58.1558H209.797C212.527 58.1558 214.735 55.9303 214.735 53.218V52.0704C214.735 51.5141 214.283 51.062 213.744 51.062L213.744 51.062Z" fill="#AAC6FF"/>
<defs>
<filter id="filter0_d_41_3207" x="182" y="29" width="50" height="50" filterUnits="userSpaceOnUse" color-interpolation-filters="sRGB">
<feFlood flood-opacity="0" result="BackgroundImageFix"/>
<feColorMatrix in="SourceAlpha" type="matrix" values="0 0 0 0 0 0 0 0 0 0 0 0 0 0 0 0 0 0 127 0" result="hardAlpha"/>
<feOffset dy="2"/>
<feGaussianBlur stdDeviation="3"/>
<feComposite in2="hardAlpha" operator="out"/>
<feColorMatrix type="matrix" values="0 0 0 0 0.8 0 0 0 0 0.831373 0 0 0 0 0.898039 0 0 0 0.62 0"/>
<feBlend mode="normal" in2="BackgroundImageFix" result="effect1_dropShadow_41_3207"/>
<feBlend mode="normal" in="SourceGraphic" in2="effect1_dropShadow_41_3207" result="shape"/>
</filter>
<filter id="filter1_d_41_3207" x="97" y="45" width="77.1426" height="28" filterUnits="userSpaceOnUse" color-interpolation-filters="sRGB">
<feFlood flood-opacity="0" result="BackgroundImageFix"/>
<feColorMatrix in="SourceAlpha" type="matrix" values="0 0 0 0 0 0 0 0 0 0 0 0 0 0 0 0 0 0 127 0" result="hardAlpha"/>
<feOffset dy="2"/>
<feGaussianBlur stdDeviation="3"/>
<feComposite in2="hardAlpha" operator="out"/>
<feColorMatrix type="matrix" values="0 0 0 0 0.8 0 0 0 0 0.831373 0 0 0 0 0.898039 0 0 0 0.62 0"/>
<feBlend mode="normal" in2="BackgroundImageFix" result="effect1_dropShadow_41_3207"/>
<feBlend mode="normal" in="SourceGraphic" in2="effect1_dropShadow_41_3207" result="shape"/>
</filter>
</defs>
</svg>
