<svg width="24" height="24" viewBox="0 0 24 24" fill="none" xmlns="http://www.w3.org/2000/svg">
<path fill-rule="evenodd" clip-rule="evenodd" d="M4.8002 4.8002H19.2002V19.2002H4.8002V4.8002ZM3.2002 4.8002C3.2002 4.37585 3.36877 3.96888 3.66882 3.66882C3.96888 3.36877 4.37585 3.2002 4.8002 3.2002H19.2002C19.6245 3.2002 20.0315 3.36877 20.3316 3.66882C20.6316 3.96888 20.8002 4.37585 20.8002 4.8002V19.2002C20.8002 19.6245 20.6316 20.0315 20.3316 20.3316C20.0315 20.6316 19.6245 20.8002 19.2002 20.8002H4.8002C4.37585 20.8002 3.96888 20.6316 3.66882 20.3316C3.36877 20.0315 3.2002 19.6245 3.2002 19.2002V4.8002ZM16.5602 8.8178C16.6803 8.64275 16.7259 8.42717 16.6871 8.21848C16.6482 8.00979 16.528 7.82509 16.353 7.705C16.178 7.58491 15.9624 7.53927 15.7537 7.57813C15.545 7.61698 15.3603 7.73715 15.2402 7.9122L10.6242 14.6402L8.3154 11.8562C8.17947 11.6946 7.98519 11.5933 7.77491 11.5744C7.56462 11.5555 7.35538 11.6205 7.1928 11.7552C7.03022 11.8899 6.92749 12.0834 6.90699 12.2936C6.8865 12.5037 6.94991 12.7134 7.0834 12.877L10.069 16.477C10.1481 16.5721 10.2481 16.6476 10.3613 16.6976C10.4745 16.7475 10.5977 16.7705 10.7213 16.7648C10.8449 16.759 10.9655 16.7247 11.0736 16.6645C11.1816 16.6043 11.2743 16.5199 11.3442 16.4178L16.5602 8.8178Z" fill="#4785FF"/>
</svg>
