<svg width="27" height="30" viewBox="0 0 27 30" fill="none" xmlns="http://www.w3.org/2000/svg">
<path d="M9.30558 17.1158C10.2142 19.8864 11.1191 22.65 12.0253 25.4136C12.0723 25.4218 12.1194 25.4288 12.1665 25.437C12.4995 24.5162 12.8458 23.5989 13.1498 22.6676C13.1884 22.5504 13.0002 22.3665 12.9278 22.2095C12.672 21.6624 12.3547 21.1329 12.1858 20.5612C11.9879 19.8911 12.3426 19.3745 13.0231 19.1542C13.2126 19.0921 13.4117 19.0394 13.6096 19.0265C14.307 18.9844 15.0128 19.0078 15.4762 19.6053C15.9287 20.1899 15.6439 20.7967 15.3941 21.3789C15.3712 21.4328 15.3543 21.4949 15.3157 21.5359C14.5519 22.3279 14.7233 23.1643 15.1516 24.0394C15.3652 24.4752 15.4979 24.9485 15.8044 25.4312C16.7105 22.6664 17.6167 19.9005 18.5373 17.0889C19.0683 17.3853 19.5461 17.7051 20.0685 17.9312C21.3306 18.4783 22.5771 19.105 23.8971 19.4752C25.894 20.0364 26.7387 20.9431 26.8967 23.1268C26.9824 24.3218 26.7881 25.539 26.6663 26.7409C26.647 26.9272 26.3779 27.1451 26.1716 27.2517C23.8826 28.4408 21.4344 29.187 18.88 29.59C13.2065 30.4839 7.71286 29.945 2.42429 27.6559C1.49279 27.2529 1.02704 26.7339 1.00532 25.7147C0.978777 24.4495 0.756761 23.1877 1.13202 21.9342C1.45539 20.8529 2.08524 20.0329 3.23755 19.7189C5.32377 19.1507 7.2821 18.3154 9.10287 17.1756C9.14993 17.1463 9.21388 17.1416 9.30558 17.1158Z" fill="url(#paint0_linear_2360_3998)"/>
<path d="M7.72128 8.44869C7.62716 7.62629 7.46668 6.85544 7.46548 6.08341C7.46427 4.47024 8.21961 3.15698 9.38157 2.04991C11.1517 0.361763 13.2053 -0.445407 15.6897 0.249298C16.6936 0.529288 17.5563 1.05647 18.2152 1.86715C18.3129 1.98665 18.4167 2.14246 18.5506 2.18697C19.8175 2.60169 20.2471 3.60801 20.3074 4.73969C20.3714 5.95338 20.2447 7.17643 20.1988 8.46392C20.7925 8.5963 20.883 9.15394 20.7671 9.74321C20.5548 10.8245 20.4353 11.955 19.4809 12.7481C19.3771 12.8348 19.3578 13.0246 19.3156 13.171C18.9041 14.6073 18.115 15.8081 16.9048 16.7254C14.4988 18.5506 11.4449 17.9871 9.58066 15.3922C9.52274 15.3126 9.45879 15.2341 9.41777 15.1462C9.03166 14.3238 8.78309 13.3983 8.22926 12.7024C7.63078 11.9503 7.40273 11.1232 7.14452 10.2716C7.09384 10.104 7.0685 9.92831 7.05161 9.75375C6.99249 9.15862 7.02024 8.59981 7.72128 8.44869Z" fill="url(#paint1_linear_2360_3998)"/>
<defs>
<linearGradient id="paint0_linear_2360_3998" x1="13.9166" y1="13.5318" x2="14.4391" y2="33.9076" gradientUnits="userSpaceOnUse">
<stop stop-color="#927FBF"/>
<stop offset="1" stop-color="white"/>
</linearGradient>
<linearGradient id="paint1_linear_2360_3998" x1="13.9208" y1="-4.90218" x2="15.7861" y2="23.0727" gradientUnits="userSpaceOnUse">
<stop stop-color="#927FBF"/>
<stop offset="1" stop-color="white"/>
</linearGradient>
</defs>
</svg>
