<svg width="12" height="12" viewBox="0 0 12 12" fill="none" xmlns="http://www.w3.org/2000/svg">
<path d="M8.73633 3.48633L9.26367 4.01367L4.875 8.40234L2.73633 6.26367L3.26367 5.73633L4.875 7.34766L8.73633 3.48633ZM6 0C6.55078 0 7.08203 0.0703125 7.59375 0.210938C8.10547 0.351562 8.58398 0.552734 9.0293 0.814453C9.47461 1.07617 9.87891 1.38867 10.2422 1.75195C10.6055 2.11523 10.918 2.52148 11.1797 2.9707C11.4414 3.41992 11.6426 3.89844 11.7832 4.40625C11.9238 4.91406 11.9961 5.44531 12 6C12 6.55078 11.9297 7.08203 11.7891 7.59375C11.6484 8.10547 11.4473 8.58398 11.1855 9.0293C10.9238 9.47461 10.6113 9.87891 10.248 10.2422C9.88477 10.6055 9.47852 10.918 9.0293 11.1797C8.58008 11.4414 8.10156 11.6426 7.59375 11.7832C7.08594 11.9238 6.55469 11.9961 6 12C5.44922 12 4.91797 11.9297 4.40625 11.7891C3.89453 11.6484 3.41602 11.4473 2.9707 11.1855C2.52539 10.9238 2.12109 10.6113 1.75781 10.248C1.39453 9.88477 1.08203 9.47852 0.820312 9.0293C0.558594 8.58008 0.357422 8.10352 0.216797 7.59961C0.0761719 7.0957 0.00390625 6.5625 0 6C0 5.44922 0.0703125 4.91797 0.210938 4.40625C0.351562 3.89453 0.552734 3.41602 0.814453 2.9707C1.07617 2.52539 1.38867 2.12109 1.75195 1.75781C2.11523 1.39453 2.52148 1.08203 2.9707 0.820312C3.41992 0.558594 3.89648 0.357422 4.40039 0.216797C4.9043 0.0761719 5.4375 0.00390625 6 0ZM6 11.25C6.48047 11.25 6.94336 11.1875 7.38867 11.0625C7.83398 10.9375 8.25195 10.7617 8.64258 10.5352C9.0332 10.3086 9.38867 10.0332 9.70898 9.70898C10.0293 9.38477 10.3027 9.03125 10.5293 8.64844C10.7559 8.26562 10.9336 7.84766 11.0625 7.39453C11.1914 6.94141 11.2539 6.47656 11.25 6C11.25 5.51953 11.1875 5.05664 11.0625 4.61133C10.9375 4.16602 10.7617 3.74805 10.5352 3.35742C10.3086 2.9668 10.0332 2.61133 9.70898 2.29102C9.38477 1.9707 9.03125 1.69727 8.64844 1.4707C8.26562 1.24414 7.84766 1.06641 7.39453 0.9375C6.94141 0.808594 6.47656 0.746094 6 0.75C5.51953 0.75 5.05664 0.8125 4.61133 0.9375C4.16602 1.0625 3.74805 1.23828 3.35742 1.46484C2.9668 1.69141 2.61133 1.9668 2.29102 2.29102C1.9707 2.61523 1.69727 2.96875 1.4707 3.35156C1.24414 3.73438 1.06641 4.15234 0.9375 4.60547C0.808594 5.05859 0.746094 5.52344 0.75 6C0.75 6.48047 0.8125 6.94336 0.9375 7.38867C1.0625 7.83398 1.23828 8.25195 1.46484 8.64258C1.69141 9.0332 1.9668 9.38867 2.29102 9.70898C2.61523 10.0293 2.96875 10.3027 3.35156 10.5293C3.73438 10.7559 4.15234 10.9336 4.60547 11.0625C5.05859 11.1914 5.52344 11.2539 6 11.25Z" fill="#32D0A5"/>
</svg>
