<svg width="28" height="23" viewBox="0 0 28 23" fill="none" xmlns="http://www.w3.org/2000/svg">
<path d="M0.897201 0.139648C3.8019 0.139648 6.67369 0.139648 9.60514 0.139648C9.60514 2.67396 9.60514 5.198 9.60514 7.81768C10.1143 7.52455 10.5401 7.28181 10.9629 7.03394C12.9593 5.86757 14.9548 4.69915 16.9523 3.53485C17.8862 2.99075 18.4098 3.29829 18.4128 4.39265C18.4159 5.33479 18.4139 6.27796 18.4139 7.2201C18.4139 7.38467 18.4139 7.54923 18.4139 7.79197C18.6577 7.66134 18.8212 7.58112 18.9786 7.48958C21.2558 6.15968 23.5341 4.82978 25.8094 3.49474C26.1704 3.28286 26.553 3.11624 26.8935 3.44023C27.0673 3.60582 27.1938 3.91335 27.1948 4.15712C27.2113 9.9159 27.2092 15.6747 27.2051 21.4335C27.2051 22.0506 26.912 22.3334 26.2794 22.3334C18.1207 22.3365 9.96308 22.3365 1.80441 22.3334C1.1708 22.3334 0.87663 22.0516 0.87663 21.4345C0.873544 14.4075 0.875601 7.38055 0.87663 0.353584C0.87663 0.301129 0.885887 0.25073 0.897201 0.139648ZM10.392 13.0591C9.89623 13.0591 9.39942 13.0478 8.90365 13.0622C8.36673 13.0776 8.08696 13.3564 8.07976 13.8994C8.06742 14.8745 8.06742 15.8495 8.07976 16.8246C8.08696 17.3656 8.36467 17.6659 8.89748 17.6762C9.88903 17.6958 10.8816 17.6947 11.8742 17.6772C12.409 17.667 12.6909 17.3697 12.6981 16.8318C12.7114 15.8567 12.7114 14.8817 12.6981 13.9066C12.6909 13.344 12.4039 13.0735 11.8289 13.0612C11.3506 13.0498 10.8713 13.0581 10.392 13.0591ZM19.1894 13.0591C18.6937 13.0591 18.1979 13.0478 17.7021 13.0622C17.1806 13.0766 16.8936 13.3337 16.8823 13.847C16.8607 14.8549 16.8618 15.8639 16.8813 16.8729C16.8906 17.3841 17.1765 17.6659 17.6898 17.6762C18.6813 17.6947 19.6729 17.6947 20.6644 17.6772C21.1828 17.668 21.4739 17.3923 21.4842 16.8853C21.5048 15.8773 21.5048 14.8673 21.4852 13.8593C21.4749 13.343 21.191 13.0786 20.6768 13.0632C20.182 13.0468 19.6852 13.0591 19.1894 13.0591Z" fill="url(#paint0_linear_2360_3990)"/>
<defs>
<linearGradient id="paint0_linear_2360_3990" x1="14.0415" y1="0.139648" x2="18.7849" y2="35.5979" gradientUnits="userSpaceOnUse">
<stop stop-color="#FFC759"/>
<stop offset="1" stop-color="white"/>
</linearGradient>
</defs>
</svg>
