<svg xmlns="http://www.w3.org/2000/svg" width="31.942" height="34.8" viewBox="0 0 31.942 34.8">
    <g id="Group_7778" transform="translate(-6.655 -2.5)" style="mix-blend-mode:luminosity;isolation:isolate">
        <path id="Line_218" d="M4.602 0L0 0" style="fill:none;stroke:#4f8aff;stroke-linecap:round;stroke-width:3px" transform="translate(8.155 11.609)"></path>
        <path id="Line_219" d="M4.602 0L0 0" style="fill:none;stroke:#4f8aff;stroke-linecap:round;stroke-width:3px" transform="translate(8.155 20)"></path>
        <path id="Line_220" d="M4.602 0L0 0" style="fill:none;stroke:#4f8aff;stroke-linecap:round;stroke-width:3px" transform="translate(8.155 28.391)"></path>
        <path id="Path_13919" fill="#d9ecff" d="M33.2 2.5h-17a5.4 5.4 0 0 0-5.4 5.4c.013.37 0 2.432 0 4.919V31.9a5.4 5.4 0 0 0 5.4 5.4h17a5.4 5.4 0 0 0 5.4-5.4v-24a5.4 5.4 0 0 0-5.4-5.4z"></path>
        <path id="Path_13920" d="M46.943 50.3a6.45 6.45 0 0 1-8.37 0c-1.982 1.542-2.973 4.222-2.973 7.305 0 2.276 14.353 2.276 14.353 0-.037-3.083-1.028-5.763-3.01-7.305z" style="fill:#4f8aff" transform="translate(-18.038 -30.253)"></path>
        <circle id="Ellipse_467" cx="4.295" cy="4.295" r="4.295" style="fill:#4f8aff" transform="translate(20.425 10.796)"></circle>
    </g>
</svg>