<svg xmlns="http://www.w3.org/2000/svg" id="create" width="36.171" height="36.171" viewBox="0 0 36.171 36.171">
    <defs>
        <style>
            .cls-2{fill:#529cff}
        </style>
    </defs>
    <path id="Path_13415" fill="#b9dcff" d="M70.6 317.528a.956.956 0 0 0 1.106 1.106l7.233-1.267-7.074-7.074z" transform="translate(-64.343 -287.115)"/>
    <path id="Path_13416" d="M121.429 95.538a1.06 1.06 0 0 0-1.5 0l-13.187 12.9 3.532 3.532 13.936-13.651z" class="cls-2" transform="translate(-97.366 -86.55)"/>
    <path id="Path_13417" d="M194.565 163.063l-2.782-2.782-13.77 13.77 3.531 3.531 13.021-13.021a1.06 1.06 0 0 0 0-1.498z" class="cls-2" transform="translate(-165.437 -148.958)"/>
    <path id="Path_13418" d="M30.874 5.3A18.088 18.088 0 0 0 3.142 28.279l.566-3.234a15.971 15.971 0 1 1 14.378 9.007 1.06 1.06 0 1 0 0 2.119A18.086 18.086 0 0 0 30.874 5.3z" class="cls-2"/>
</svg>
