<svg width="40" height="40" viewBox="0 0 40 40" fill="none" xmlns="http://www.w3.org/2000/svg">
<mask id="mask0_412_10383" style="mask-type:alpha" maskUnits="userSpaceOnUse" x="0" y="0" width="40" height="40">
<rect width="40" height="40" fill="#D9D9D9"/>
</mask>
<g mask="url(#mask0_412_10383)">
<path d="M14.6667 36.3333H24.6667C33 36.3333 36.3333 33 36.3333 24.6667V14.6667C36.3333 6.33333 33 3 24.6667 3H14.6667C6.33333 3 3 6.33333 3 14.6667V24.6667C3 33 6.33333 36.3333 14.6667 36.3333Z" stroke="#292D32" stroke-width="1.8" stroke-linecap="round" stroke-linejoin="round"/>
<path d="M15 22.6497C15 24.4538 16.3845 25.9082 18.1047 25.9082H21.615C23.1114 25.9082 24.3281 24.6356 24.3281 23.0692C24.3281 21.363 23.5869 20.7617 22.4821 20.3701L16.846 18.4122C15.7412 18.0206 15 17.4192 15 15.713C15 14.1467 16.2167 12.874 17.7131 12.874H21.2234C22.9436 12.874 24.3281 14.3285 24.3281 16.1326" stroke="#292D32" stroke-width="1.5" stroke-linecap="round" stroke-linejoin="round"/>
<path d="M19.6545 11V27.7822" stroke="#292D32" stroke-width="1.5" stroke-linecap="round" stroke-linejoin="round"/>
</g>
</svg>
