<svg width="228" height="189" viewBox="0 0 228 189" fill="none" xmlns="http://www.w3.org/2000/svg">
<path d="M46.4652 87.4177C46.1811 87.4976 45.9402 87.687 45.7955 87.9443C45.6508 88.2015 45.614 88.5057 45.6933 88.7901L64.3062 155.263C64.3861 155.547 64.5754 155.788 64.8327 155.932C65.09 156.077 65.3942 156.114 65.6785 156.035L134.295 136.821C134.579 136.741 134.82 136.552 134.965 136.295C135.109 136.037 135.146 135.733 135.067 135.449L116.454 68.9764C116.374 68.6923 116.185 68.4514 115.927 68.3067C115.67 68.162 115.366 68.1253 115.082 68.2045L46.4652 87.4177Z" fill="#D0D6FD"/>
<path d="M66.5407 152.896L131.928 134.587L114.219 71.3433L48.832 89.6522L66.5407 152.896Z" fill="#F9F9FC"/>
<path d="M57.4772 98.0971C57.041 98.2192 56.8611 98.9439 57.0763 99.7124C57.2915 100.481 57.8215 101.007 58.2578 100.885L88.0799 92.5342C88.5161 92.412 88.696 91.6874 88.4808 90.9189C88.2656 90.1504 87.7356 89.6245 87.2993 89.7466L57.4772 98.0971Z" fill="#E6E6E6"/>
<path d="M59.8786 106.674C59.4423 106.796 59.2625 107.521 59.4777 108.289C59.6928 109.058 60.2229 109.584 60.6591 109.462L90.4812 101.111C90.9175 100.989 91.0974 100.264 90.8822 99.4958C90.667 98.7273 90.137 98.2014 89.7007 98.3235L59.8786 106.674Z" fill="#E6E6E6"/>
<path d="M62.2526 115.152C61.8164 115.274 61.6365 115.999 61.8517 116.768C62.0669 117.536 62.5969 118.062 63.0331 117.94L92.8553 109.589C93.2915 109.467 93.4714 108.743 93.2562 107.974C93.041 107.206 92.511 106.68 92.0747 106.802L62.2526 115.152Z" fill="#E6E6E6"/>
<path d="M64.6549 123.729C64.2187 123.851 64.0388 124.576 64.254 125.344C64.4692 126.113 64.9992 126.639 65.4355 126.517L95.2576 118.166C95.6939 118.044 95.8737 117.319 95.6585 116.551C95.4434 115.782 94.9133 115.257 94.4771 115.379L64.6549 123.729Z" fill="#E6E6E6"/>
<path d="M111.749 125.419C111.516 125.484 111.298 125.595 111.107 125.744C110.916 125.894 110.757 126.079 110.638 126.29C110.519 126.502 110.443 126.734 110.414 126.975C110.385 127.215 110.403 127.459 110.469 127.693C110.534 127.926 110.645 128.144 110.795 128.335C110.944 128.526 111.13 128.685 111.341 128.804C111.553 128.922 111.785 128.998 112.026 129.027C112.267 129.056 112.511 129.037 112.744 128.971L119.848 126.982C120.319 126.85 120.718 126.536 120.958 126.11C121.198 125.684 121.258 125.18 121.127 124.709C120.995 124.238 120.681 123.838 120.255 123.598C119.828 123.359 119.324 123.298 118.853 123.43L111.749 125.419Z" fill="#6C63FF"/>
<path d="M119.06 118.245L66.4922 132.965L66.623 133.432L119.191 118.713L119.06 118.245Z" fill="#E6E6E6"/>
<path d="M171.864 181.068L167.648 182.087L161.71 166.311L167.932 164.807L171.864 181.068Z" fill="#A0616A"/>
<path d="M160.374 188.115L160.345 187.997C160.011 186.608 160.241 185.143 160.986 183.924C161.73 182.705 162.928 181.83 164.316 181.493L172.565 179.499L173.86 184.854L160.374 188.115Z" fill="#2F2E41"/>
<path d="M153.199 183.941L148.861 183.94L146.798 167.21L153.199 167.21L153.199 183.941Z" fill="#A0616A"/>
<path d="M154.251 188.089L140.376 188.089V187.967C140.376 186.538 140.944 185.168 141.954 184.157C142.965 183.147 144.335 182.579 145.764 182.579H145.764L154.251 182.58L154.251 188.089Z" fill="#2F2E41"/>
<path d="M146.795 177.409L142.584 127.218L160.018 124.005L160.087 123.992L165.189 127.272L163.413 145.744L171.591 174.543L164.53 176.401L156.339 149.692L154.465 141.57L153.504 152.124L154.218 178.151L146.795 177.409Z" fill="#2F2E41"/>
<path d="M142.043 128.356L141.997 128.298L148.021 82.9383L148.029 82.8789L148.072 82.8364C148.16 82.7476 150.271 80.6618 152.442 80.6618C152.756 80.6618 153.055 80.6539 153.341 80.6466C155.002 80.6034 156.315 80.5689 157.874 82.1288C159.463 83.7178 164.648 89.5202 164.648 97.467C164.648 105.159 165.349 129.063 165.356 129.303L165.366 129.641L165.082 129.457C165.013 129.412 158.039 124.971 152.19 129.099C150.363 130.389 148.721 130.842 147.317 130.842C144.049 130.842 142.071 128.392 142.043 128.356Z" fill="#99A8FF"/>
<path d="M155.689 76.9192C159.9 74.6173 161.448 69.3375 159.146 65.1265C156.844 60.9155 151.564 59.3679 147.353 61.6699C143.142 63.9718 141.595 69.2516 143.897 73.4626C146.198 77.6736 151.478 79.2212 155.689 76.9192Z" fill="#A0616A"/>
<path d="M138.219 138.105C138.63 137.786 138.966 137.381 139.204 136.919C139.442 136.456 139.575 135.947 139.595 135.427C139.614 134.907 139.52 134.39 139.318 133.911C139.116 133.431 138.811 133.002 138.425 132.653L143.36 121.013L136.899 122.203L133.203 133.074C132.66 133.761 132.388 134.623 132.439 135.497C132.489 136.372 132.858 137.197 133.476 137.817C134.095 138.437 134.919 138.809 135.793 138.862C136.667 138.915 137.53 138.646 138.219 138.105H138.219Z" fill="#A0616A"/>
<path d="M133.45 129.05L135.039 125.695C134.941 125.636 134.86 125.553 134.805 125.452C133.32 122.879 142.288 101.512 142.885 100.095C142.794 99.3243 141.853 91.156 142.541 88.4027C143.351 85.1615 145.015 83.651 148.104 83.3518C151.511 83.0319 152.43 87.6581 152.439 87.7051L152.442 99.5983L148.532 113.289L139.616 131.479L133.45 129.05Z" fill="#99A8FF"/>
<path d="M152.632 72.5684C151.59 72.704 150.804 71.6382 150.44 70.653C150.076 69.6678 149.798 68.5208 148.892 67.9886C147.655 67.2616 146.072 68.136 144.657 67.8962C143.059 67.6253 142.02 65.9318 141.939 64.3131C141.857 62.6945 142.501 61.1377 143.133 59.6453L143.354 61.5C143.325 60.8714 143.457 60.2458 143.738 59.6829C144.02 59.12 144.441 58.6388 144.961 58.2852L144.677 61.0066C144.855 59.482 146.498 58.3006 148 58.6166L147.955 60.2381C149.801 60.0186 151.662 59.7989 153.513 59.9661C155.364 60.1333 157.228 60.7189 158.631 61.938C160.73 63.7615 161.496 66.7641 161.239 69.5323C160.982 72.3005 159.839 74.901 158.648 77.4131C158.348 78.0452 157.934 78.7584 157.239 78.8389C156.615 78.9113 156.043 78.3894 155.849 77.7916C155.655 77.1938 155.75 76.5444 155.866 75.9267C156.042 74.9937 156.263 74.04 156.098 73.105C155.933 72.17 155.26 71.2461 154.318 71.1315C153.375 71.0169 152.411 72.0943 152.864 72.9286L152.632 72.5684Z" fill="#2F2E41"/>
<path d="M190.673 188.11H128.141V187.599H190.766L190.673 188.11Z" fill="#CACACA"/>
<path d="M29.4177 83.5586L14.6449 68.1537C14.4476 67.948 14.1915 67.8249 13.9273 67.7973C13.6635 67.7782 13.4167 67.8568 13.2369 68.0292L2.72054 78.1142C2.54074 78.2866 2.45185 78.5298 2.45994 78.7942C2.4764 79.0593 2.58866 79.3203 2.786 79.5261L17.5588 94.931C17.7562 95.1367 18.0123 95.2598 18.2765 95.2874C18.5403 95.3065 18.787 95.2279 18.9668 95.0555L29.4832 84.9705C29.663 84.7981 29.7519 84.5549 29.7438 84.2905C29.7317 84.03 29.6151 83.7644 29.4177 83.5586ZM21.477 89.6988C20.4846 88.728 19.2169 88.1179 17.9175 87.9946C16.622 87.8675 15.3867 88.227 14.4591 89.0112L8.57517 82.8756C9.40596 81.9823 9.82522 80.7639 9.75605 79.452C9.68289 78.144 9.13436 76.8442 8.20156 75.8075L10.7068 73.405C11.7035 74.3804 12.9796 74.9913 14.2831 75.1107C15.5869 75.2386 16.8214 74.8623 17.753 74.0742L23.637 80.2099C22.8062 81.1031 22.3869 82.3216 22.4561 83.6334C22.5292 84.9414 23.0778 86.2413 24.0106 87.278L21.477 89.6988Z" fill="#ABC7FF"/>
<path d="M18.4242 79.4992C17.7771 78.8243 16.8898 78.4371 15.9568 78.4146C15.0208 78.395 14.121 78.7478 13.4461 79.3949C12.7712 80.0421 12.384 80.9294 12.3615 81.8624C12.3419 82.7984 12.6947 83.6982 13.3418 84.3731C13.989 85.048 14.8763 85.4352 15.8093 85.4577C16.7453 85.4773 17.6451 85.1245 18.32 84.4773C18.9949 83.8302 19.3821 82.9429 19.4046 82.0099C19.4242 81.0739 19.0714 80.1741 18.4242 79.4992Z" fill="#ABC7FF"/>
<circle opacity="0.69" cx="219.755" cy="95.1031" r="8.10309" fill="#CCD4FE"/>
<circle opacity="0.69" cx="87.993" cy="4.05155" r="4.05155" fill="#CCD4FE"/>
</svg>
