<svg width="17" height="17" viewBox="0 0 17 17" fill="none" xmlns="http://www.w3.org/2000/svg">
																	  <path d="M14.0668 2.17461H12.7185V1.46887C12.7185 1.34452 12.6691 1.22526 12.5812 1.13733C12.4932 1.0494 12.3739 1 12.2496 1C12.1252 1 12.0059 1.0494 11.9179 1.13733C11.83 1.22526 11.7806 1.34452 11.7806 1.46887V2.17461H5.21853V1.46887C5.21853 1.40736 5.20641 1.34645 5.18286 1.28961C5.15932 1.23278 5.12481 1.18114 5.0813 1.13764C5.03779 1.09414 4.98614 1.05964 4.9293 1.0361C4.87245 1.01256 4.81153 1.00044 4.75 1.00044C4.68847 1.00044 4.62755 1.01256 4.5707 1.0361C4.51386 1.05964 4.46221 1.09414 4.4187 1.13764C4.37519 1.18114 4.34068 1.23278 4.31714 1.28961C4.29359 1.34645 4.28147 1.40736 4.28147 1.46887V2.17461H2.93324C2.42057 2.17531 1.92912 2.3793 1.56669 2.74181C1.20427 3.10433 1.00047 3.59577 1 4.10833V14.0672C1.0007 14.5796 1.2046 15.0708 1.567 15.4331C1.92941 15.7954 2.42072 15.9993 2.93324 16H14.0668C14.5793 15.9993 15.0706 15.7954 15.433 15.4331C15.7954 15.0708 15.9993 14.5796 16 14.0672V4.10833C15.9995 3.59577 15.7957 3.10433 15.4333 2.74181C15.0709 2.3793 14.5794 2.17531 14.0668 2.17461ZM2.93324 3.11236H4.28147V3.58079C4.28147 3.70503 4.33083 3.82418 4.4187 3.91202C4.50657 3.99987 4.62574 4.04923 4.75 4.04923C4.87426 4.04923 4.99343 3.99987 5.0813 3.91202C5.16917 3.82418 5.21853 3.70503 5.21853 3.58079V3.11236H11.7806V3.58079C11.7806 3.70515 11.83 3.82441 11.9179 3.91234C12.0059 4.00027 12.1252 4.04967 12.2496 4.04967C12.3739 4.04967 12.4932 4.00027 12.5812 3.91234C12.6691 3.82441 12.7185 3.70515 12.7185 3.58079V3.11236H14.0659C14.33 3.11259 14.5833 3.2176 14.77 3.40433C14.9568 3.59106 15.0618 3.84425 15.0621 4.10833V5.22075H1.93794V4.10833C1.93817 3.84441 2.04308 3.59135 2.22966 3.40464C2.41624 3.21794 2.66926 3.11283 2.93324 3.11236ZM14.0668 15.0623H2.93324C2.6691 15.062 2.41586 14.957 2.22909 14.7703C2.04232 14.5836 1.93729 14.3304 1.93706 14.0663V6.1585H15.0621V14.0672C15.0616 14.3309 14.9566 14.5838 14.77 14.7703C14.5835 14.9568 14.3306 15.0618 14.0668 15.0623Z" fill="#A3ACC6" stroke="#A3ACC6" stroke-width="0.3"></path>
																	</svg>