<svg width="14" height="15" viewBox="0 0 14 15" fill="none" xmlns="http://www.w3.org/2000/svg">
<path d="M5.09091 6.24976V11.2498C5.09091 11.4155 5.15795 11.5745 5.2773 11.6917C5.39664 11.8089 5.5585 11.8748 5.72727 11.8748C5.89605 11.8748 6.05791 11.8089 6.17725 11.6917C6.29659 11.5745 6.36364 11.4155 6.36364 11.2498V6.24976C6.36364 6.084 6.29659 5.92502 6.17725 5.80781C6.05791 5.6906 5.89605 5.62476 5.72727 5.62476C5.5585 5.62476 5.39664 5.6906 5.2773 5.80781C5.15795 5.92502 5.09091 6.084 5.09091 6.24976ZM8.27273 5.62476C8.4415 5.62476 8.60336 5.6906 8.7227 5.80781C8.84205 5.92502 8.90909 6.084 8.90909 6.24976V11.2498C8.90909 11.4155 8.84205 11.5745 8.7227 11.6917C8.60336 11.8089 8.4415 11.8748 8.27273 11.8748C8.10395 11.8748 7.94209 11.8089 7.82275 11.6917C7.70341 11.5745 7.63636 11.4155 7.63636 11.2498V6.24976C7.63636 6.084 7.70341 5.92502 7.82275 5.80781C7.94209 5.6906 8.10395 5.62476 8.27273 5.62476ZM9.54545 2.49976H13.3636C13.5324 2.49976 13.6943 2.5656 13.8136 2.68281C13.933 2.80002 14 2.959 14 3.12476C14 3.29052 13.933 3.44949 13.8136 3.5667C13.6943 3.68391 13.5324 3.74976 13.3636 3.74976H12.6598L11.7027 12.2198C11.6163 12.9842 11.2458 13.6904 10.6623 14.2034C10.0787 14.7163 9.32311 14.9998 8.54 14.9998H5.46C4.67689 14.9998 3.92125 14.7163 3.33771 14.2034C2.75418 13.6904 2.38373 12.9842 2.29727 12.2198L1.33891 3.74976H0.636364C0.467589 3.74976 0.305728 3.68391 0.186387 3.5667C0.0670454 3.44949 0 3.29052 0 3.12476C0 2.959 0.0670454 2.80002 0.186387 2.68281C0.305728 2.5656 0.467589 2.49976 0.636364 2.49976H4.45455C4.45455 1.83671 4.72273 1.20083 5.20009 0.731989C5.67746 0.263148 6.3249 -0.000244141 7 -0.000244141C7.6751 -0.000244141 8.32254 0.263148 8.79991 0.731989C9.27727 1.20083 9.54545 1.83671 9.54545 2.49976ZM7 1.24976C6.66245 1.24976 6.33873 1.38145 6.10005 1.61587C5.86136 1.85029 5.72727 2.16824 5.72727 2.49976H8.27273C8.27273 2.16824 8.13864 1.85029 7.89995 1.61587C7.66127 1.38145 7.33755 1.24976 7 1.24976ZM2.62055 3.74976L3.56236 12.0823C3.61435 12.5408 3.83667 12.9645 4.18678 13.2721C4.5369 13.5798 4.99021 13.7498 5.46 13.7498H8.54C9.00957 13.7495 9.46257 13.5793 9.81242 13.2717C10.1623 12.9641 10.3844 12.5406 10.4364 12.0823L11.3807 3.74976H2.62182H2.62055Z" fill="#FF7070"/>
</svg>
