<svg width="135" height="122" viewBox="0 0 135 122" fill="none" xmlns="http://www.w3.org/2000/svg">
<path d="M69.1378 0.265904L64.7451 1.40652L10.6266 15.4592L6.23398 16.5998C4.10183 17.156 2.27587 18.5411 1.15668 20.4512C0.0375008 22.3614 -0.283501 24.6405 0.264102 26.7887L19.3117 101.162C19.8641 103.309 21.2397 105.147 23.1367 106.274C25.0337 107.401 27.2971 107.724 29.4305 107.173L29.4419 107.17L92.323 90.8421L92.3343 90.8392C94.4665 90.283 96.2924 88.8979 97.4116 86.9877C98.5308 85.0776 98.8518 82.7984 98.3042 80.6503L79.2567 6.27712C78.7043 4.13022 77.3287 2.29161 75.4317 1.16468C73.5347 0.0377464 71.2712 -0.285484 69.1378 0.265904Z" fill="#CCD4FE"/>
<path d="M69.7347 2.5979L64.5319 3.94888L12.0336 17.5808L6.83085 18.9318C5.3125 19.3279 4.01218 20.3142 3.21518 21.6745C2.41818 23.0347 2.18958 24.6578 2.57954 26.1875L21.6271 100.561C22.0205 102.09 23.0001 103.399 24.351 104.201C25.7019 105.004 27.3137 105.234 28.833 104.841L28.8443 104.838L91.7254 88.5105L91.7369 88.5075C93.2552 88.1114 94.5555 87.125 95.3525 85.7648C96.1495 84.4045 96.378 82.7815 95.9881 81.2518L76.9405 6.87863C76.5472 5.34979 75.5676 4.04048 74.2167 3.23797C72.8658 2.43545 71.254 2.20526 69.7347 2.5979Z" fill="#F9F9FC"/>
<path d="M65.8065 26.682L33.9965 34.9419C33.6412 35.0342 33.2641 34.9805 32.948 34.7928C32.632 34.6051 32.403 34.2986 32.3114 33.9409C32.2198 33.5832 32.2731 33.2034 32.4595 32.8852C32.6459 32.567 32.9503 32.3364 33.3056 32.2442L65.1156 23.9843C65.4707 23.8924 65.8476 23.9462 66.1633 24.134C66.4791 24.3217 66.7079 24.6281 66.7994 24.9856C66.891 25.3431 66.8379 25.7226 66.6517 26.0407C66.4655 26.3588 66.1615 26.5895 65.8065 26.682Z" fill="#F2F2F2"/>
<path d="M72.4984 29.7995L35.1625 39.4943C34.8072 39.5866 34.4301 39.5329 34.1141 39.3452C33.798 39.1575 33.569 38.851 33.4774 38.4933C33.3858 38.1355 33.4391 37.7558 33.6255 37.4376C33.8119 37.1194 34.1163 36.8888 34.4716 36.7966L71.8075 27.1018C72.1628 27.0095 72.5399 27.0631 72.8559 27.2509C73.1719 27.4386 73.4009 27.745 73.4925 28.1028C73.5842 28.4605 73.5309 28.8403 73.3444 29.1585C73.158 29.4767 72.8537 29.7072 72.4984 29.7995Z" fill="#F2F2F2"/>
<path d="M71.0311 47.0837L39.2211 55.3436C39.0452 55.3893 38.862 55.3996 38.6821 55.374C38.5022 55.3485 38.3291 55.2875 38.1727 55.1945C38.0162 55.1015 37.8794 54.9785 37.7702 54.8323C37.661 54.6861 37.5814 54.5197 37.536 54.3426C37.4906 54.1654 37.4804 53.981 37.5058 53.7999C37.5312 53.6188 37.5918 53.4445 37.6841 53.2869C37.7764 53.1293 37.8986 52.9916 38.0438 52.8816C38.189 52.7717 38.3542 52.6915 38.5302 52.6459L70.3402 44.3859C70.5161 44.3402 70.6993 44.3299 70.8791 44.3555C71.059 44.3811 71.2322 44.4421 71.3886 44.535C71.5451 44.628 71.6819 44.7511 71.7911 44.8972C71.9003 45.0434 71.9799 45.2098 72.0253 45.387C72.0706 45.5641 72.0809 45.7485 72.0555 45.9296C72.0301 46.1108 71.9695 46.2851 71.8772 46.4426C71.7849 46.6002 71.6626 46.7379 71.5175 46.8479C71.3723 46.9579 71.207 47.038 71.0311 47.0837Z" fill="#F2F2F2"/>
<path d="M77.723 50.2009L40.3871 59.8957C40.2112 59.9413 40.028 59.9517 39.8481 59.9261C39.6683 59.9005 39.4951 59.8395 39.3387 59.7466C39.1822 59.6536 39.0454 59.5305 38.9362 59.3844C38.827 59.2382 38.7474 59.0718 38.702 58.8946C38.6567 58.7175 38.6464 58.5331 38.6718 58.352C38.6972 58.1708 38.7578 57.9965 38.8501 57.839C38.9424 57.6814 39.0647 57.5437 39.2098 57.4337C39.355 57.3237 39.5203 57.2436 39.6962 57.1979L77.0321 47.5031C77.3874 47.4109 77.7645 47.4645 78.0805 47.6522C78.3965 47.84 78.6255 48.1464 78.7171 48.5041C78.8088 48.8619 78.7555 49.2416 78.5691 49.5598C78.3826 49.878 78.0783 50.1086 77.723 50.2009Z" fill="#F2F2F2"/>
<path d="M76.2568 67.485L44.4467 75.745C44.0915 75.8369 43.7146 75.7831 43.3988 75.5954C43.083 75.4076 42.8542 75.1013 42.7626 74.7437C42.671 74.3861 42.7242 74.0066 42.9104 73.6884C43.0967 73.3703 43.4007 73.1397 43.7558 73.0472L75.5658 64.7873C75.9211 64.695 76.2983 64.7487 76.6143 64.9364C76.9303 65.1241 77.1593 65.4306 77.2509 65.7883C77.3425 66.1461 77.2893 66.5258 77.1028 66.844C76.9164 67.1622 76.612 67.3928 76.2568 67.485Z" fill="#F2F2F2"/>
<path d="M82.9488 70.6027L45.6129 80.2975C45.4369 80.3434 45.2537 80.3539 45.0737 80.3284C44.8937 80.3029 44.7204 80.242 44.5638 80.149C44.4072 80.0561 44.2703 79.933 44.161 79.7868C44.0517 79.6405 43.972 79.474 43.9266 79.2968C43.8813 79.1196 43.871 78.9351 43.8965 78.7538C43.9219 78.5726 43.9826 78.3982 44.075 78.2406C44.1675 78.083 44.2899 77.9453 44.4352 77.8353C44.5805 77.7254 44.7459 77.6453 44.922 77.5998L82.2579 67.905C82.6132 67.8127 82.9903 67.8664 83.3063 68.0541C83.6223 68.2418 83.8513 68.5483 83.943 68.906C84.0346 69.2637 83.9813 69.6435 83.7949 69.9617C83.6084 70.2799 83.3041 70.5105 82.9488 70.6027Z" fill="#F2F2F2"/>
<path d="M28.5657 43.4113L17.3084 46.3344C17.1381 46.3784 16.9574 46.3526 16.8059 46.2627C16.6544 46.1727 16.5446 46.0259 16.5005 45.8544L13.9164 35.7645C13.8726 35.593 13.8983 35.411 13.9876 35.2585C14.077 35.106 14.2228 34.9954 14.3931 34.951L25.6503 32.0278C25.8207 31.9838 26.0014 32.0096 26.1529 32.0996C26.3044 32.1896 26.4142 32.3364 26.4583 32.5078L29.0424 42.5977C29.0861 42.7692 29.0605 42.9512 28.9711 43.1038C28.8818 43.2563 28.736 43.3669 28.5657 43.4113Z" fill="#E6E6E6"/>
<path d="M33.7913 63.8126L22.534 66.7357C22.3637 66.7798 22.1829 66.754 22.0315 66.664C21.88 66.574 21.7701 66.4272 21.726 66.2557L19.1419 56.1659C19.0982 55.9944 19.1239 55.8124 19.2132 55.6598C19.3026 55.5073 19.4484 55.3967 19.6186 55.3523L30.8759 52.4292C31.0462 52.3852 31.227 52.411 31.3785 52.501C31.5299 52.591 31.6398 52.7378 31.6839 52.9092L34.268 62.9991C34.3117 63.1706 34.2861 63.3526 34.1967 63.5051C34.1073 63.6576 33.9615 63.7682 33.7913 63.8126Z" fill="#E6E6E6"/>
<path d="M39.0159 84.2145L27.7586 87.1376C27.5883 87.1817 27.4076 87.1559 27.2561 87.0659C27.1046 86.9759 26.9948 86.8291 26.9507 86.6576L24.3666 76.5678C24.3228 76.3962 24.3485 76.2142 24.4378 76.0617C24.5272 75.9092 24.673 75.7986 24.8433 75.7542L36.1005 72.8311C36.2709 72.787 36.4516 72.8128 36.6031 72.9028C36.7546 72.9928 36.8644 73.1396 36.9085 73.3111L39.4926 83.4009C39.5363 83.5725 39.5107 83.7545 39.4213 83.907C39.332 84.0595 39.1862 84.1701 39.0159 84.2145Z" fill="#E6E6E6"/>
<path d="M113.01 19.1187H48.0488C45.8462 19.1211 43.7346 20.0033 42.1772 21.5715C40.6197 23.1397 39.7437 25.2659 39.7412 27.4837V104.29C39.7437 106.508 40.6197 108.634 42.1772 110.202C43.7346 111.77 45.8462 112.653 48.0488 112.655H113.01C115.213 112.653 117.325 111.77 118.882 110.202C120.44 108.634 121.316 106.508 121.318 104.29V27.4837C121.316 25.2659 120.44 23.1397 118.882 21.5715C117.325 20.0033 115.213 19.1211 113.01 19.1187Z" fill="#CCD4FE"/>
<path d="M113.011 21.5269H48.0488C46.4803 21.5286 44.9766 22.1568 43.8675 23.2736C42.7584 24.3903 42.1346 25.9045 42.1328 27.4838V104.29C42.1346 105.869 42.7584 107.384 43.8675 108.5C44.9766 109.617 46.4803 110.245 48.0488 110.247H113.011C114.579 110.245 116.083 109.617 117.192 108.5C118.301 107.384 118.925 105.869 118.927 104.29V27.4838C118.925 25.9045 118.301 24.3903 117.192 23.2736C116.083 22.1568 114.579 21.5286 113.011 21.5269Z" fill="white"/>
<path d="M119.835 122C128.211 122 135 115.163 135 106.73C135 98.2966 128.211 91.46 119.835 91.46C111.46 91.46 104.67 98.2966 104.67 106.73C104.67 115.163 111.46 122 119.835 122Z" fill="#99A8FF"/>
<path d="M127.087 104.738H121.813V99.4268C121.813 98.8986 121.604 98.392 121.233 98.0184C120.862 97.6449 120.359 97.4351 119.834 97.4351C119.31 97.4351 118.807 97.6449 118.436 98.0184C118.065 98.392 117.856 98.8986 117.856 99.4268V104.738H112.582C112.057 104.738 111.554 104.948 111.183 105.321C110.812 105.695 110.604 106.202 110.604 106.73C110.604 107.258 110.812 107.765 111.183 108.138C111.554 108.512 112.057 108.722 112.582 108.722H117.856V114.033C117.856 114.561 118.065 115.068 118.436 115.441C118.807 115.815 119.31 116.025 119.834 116.025C120.359 116.025 120.862 115.815 121.233 115.441C121.604 115.068 121.813 114.561 121.813 114.033V108.722H127.087C127.612 108.722 128.115 108.512 128.486 108.138C128.857 107.765 129.065 107.258 129.065 106.73C129.065 106.202 128.857 105.695 128.486 105.321C128.115 104.948 127.612 104.738 127.087 104.738Z" fill="white"/>
<path d="M103.234 63.7318H70.383C70.2012 63.732 70.0212 63.6961 69.8531 63.6262C69.6851 63.5563 69.5324 63.4537 69.4038 63.3244C69.2752 63.195 69.1731 63.0414 69.1035 62.8722C69.0339 62.7031 68.998 62.5219 68.998 62.3388C68.998 62.1557 69.0339 61.9745 69.1035 61.8054C69.1731 61.6363 69.2752 61.4826 69.4038 61.3533C69.5324 61.2239 69.6851 61.1213 69.8531 61.0514C70.0212 60.9815 70.2012 60.9456 70.383 60.9458H103.234C103.6 60.9462 103.952 61.0932 104.211 61.3544C104.47 61.6155 104.616 61.9696 104.616 62.3388C104.616 62.708 104.47 63.0621 104.211 63.3233C103.952 63.5845 103.6 63.7314 103.234 63.7318Z" fill="#E6E6E6"/>
<path d="M108.94 68.433H70.383C70.2012 68.4332 70.0212 68.3973 69.8531 68.3274C69.6851 68.2575 69.5324 68.1549 69.4038 68.0255C69.2752 67.8961 69.1731 67.7425 69.1035 67.5734C69.0339 67.4043 68.998 67.223 68.998 67.04C68.998 66.8569 69.0339 66.6756 69.1035 66.5065C69.1731 66.3374 69.2752 66.1838 69.4038 66.0544C69.5324 65.925 69.6851 65.8225 69.8531 65.7526C70.0212 65.6826 70.2012 65.6468 70.383 65.647H108.94C109.307 65.647 109.659 65.7937 109.919 66.055C110.178 66.3162 110.324 66.6705 110.324 67.04C110.324 67.4094 110.178 67.7637 109.919 68.025C109.659 68.2862 109.307 68.433 108.94 68.433Z" fill="#E6E6E6"/>
<path d="M103.234 84.8006H70.383C70.2012 84.8008 70.0212 84.765 69.8531 84.695C69.6851 84.6251 69.5324 84.5226 69.4038 84.3932C69.2752 84.2638 69.1731 84.1102 69.1035 83.9411C69.0339 83.772 68.998 83.5907 68.998 83.4076C68.998 83.2246 69.0339 83.0433 69.1035 82.8742C69.1731 82.7051 69.2752 82.5515 69.4038 82.4221C69.5324 82.2927 69.6851 82.1902 69.8531 82.1202C70.0212 82.0503 70.2012 82.0144 70.383 82.0146H103.234C103.601 82.0146 103.953 82.1614 104.212 82.4226C104.471 82.6839 104.617 83.0382 104.617 83.4076C104.617 83.7771 104.471 84.1314 104.212 84.3926C103.953 84.6539 103.601 84.8006 103.234 84.8006Z" fill="#E6E6E6"/>
<path d="M108.94 89.5023H70.383C70.2012 89.5025 70.0212 89.4667 69.8531 89.3967C69.6851 89.3268 69.5324 89.2243 69.4038 89.0949C69.2752 88.9655 69.1731 88.8119 69.1035 88.6428C69.0339 88.4737 68.998 88.2924 68.998 88.1093C68.998 87.9263 69.0339 87.745 69.1035 87.5759C69.1731 87.4068 69.2752 87.2531 69.4038 87.1238C69.5324 86.9944 69.6851 86.8918 69.8531 86.8219C70.0212 86.752 70.2012 86.7161 70.383 86.7163H108.94C109.122 86.7161 109.302 86.752 109.47 86.8219C109.638 86.8918 109.791 86.9944 109.92 87.1238C110.048 87.2531 110.15 87.4068 110.22 87.5759C110.29 87.745 110.325 87.9263 110.325 88.1093C110.325 88.2924 110.29 88.4737 110.22 88.6428C110.15 88.8119 110.048 88.9655 109.92 89.0949C109.791 89.2243 109.638 89.3268 109.47 89.3967C109.302 89.4667 109.122 89.5025 108.94 89.5023Z" fill="#E6E6E6"/>
<path d="M63.0243 70.5674H51.3987C51.2228 70.5672 51.0542 70.4968 50.9299 70.3715C50.8055 70.2463 50.7355 70.0765 50.7354 69.8994V59.4795C50.7355 59.3024 50.8055 59.1326 50.9299 59.0074C51.0542 58.8821 51.2228 58.8117 51.3987 58.8115H63.0243C63.2001 58.8117 63.3688 58.8821 63.4931 59.0074C63.6175 59.1326 63.6874 59.3024 63.6876 59.4795V69.8994C63.6874 70.0765 63.6175 70.2463 63.4931 70.3715C63.3688 70.4968 63.2001 70.5672 63.0243 70.5674Z" fill="#E6E6E6"/>
<path d="M63.0243 91.6362H51.3987C51.2228 91.636 51.0542 91.5656 50.9299 91.4404C50.8055 91.3152 50.7355 91.1454 50.7354 90.9683V80.5483C50.7355 80.3712 50.8055 80.2014 50.9299 80.0762C51.0542 79.951 51.2228 79.8806 51.3987 79.8804H63.0243C63.2001 79.8806 63.3688 79.951 63.4931 80.0762C63.6175 80.2014 63.6874 80.3712 63.6876 80.5483V90.9683C63.6874 91.1454 63.6175 91.3152 63.4931 91.4404C63.3688 91.5656 63.2001 91.636 63.0243 91.6362Z" fill="#E6E6E6"/>
<path d="M103.27 40.2777H79.0504C78.6835 40.2777 78.3316 40.131 78.0722 39.8697C77.8127 39.6085 77.667 39.2542 77.667 38.8847C77.667 38.5153 77.8127 38.1609 78.0722 37.8997C78.3316 37.6385 78.6835 37.4917 79.0504 37.4917H103.27C103.637 37.4917 103.989 37.6385 104.248 37.8997C104.508 38.1609 104.653 38.5153 104.653 38.8847C104.653 39.2542 104.508 39.6085 104.248 39.8697C103.989 40.131 103.637 40.2777 103.27 40.2777Z" fill="#E6E6E6"/>
<path d="M108.977 44.9789H79.0504C78.8687 44.9789 78.6889 44.9428 78.521 44.8728C78.3532 44.8028 78.2007 44.7002 78.0722 44.5709C77.9437 44.4415 77.8418 44.288 77.7723 44.119C77.7028 43.9499 77.667 43.7688 77.667 43.5859C77.667 43.4029 77.7028 43.2218 77.7723 43.0528C77.8418 42.8838 77.9437 42.7302 78.0722 42.6009C78.2007 42.4715 78.3532 42.3689 78.521 42.2989C78.6889 42.2289 78.8687 42.1929 79.0504 42.1929H108.977C109.344 42.1929 109.695 42.3396 109.955 42.6009C110.214 42.8621 110.36 43.2164 110.36 43.5859C110.36 43.9553 110.214 44.3096 109.955 44.5709C109.695 44.8321 109.344 44.9789 108.977 44.9789Z" fill="#E6E6E6"/>
<path d="M73.6899 50.6764H51.3616C51.1857 50.6762 51.0171 50.6057 50.8928 50.4805C50.7684 50.3553 50.6984 50.1855 50.6982 50.0084V32.4619C50.6984 32.2848 50.7684 32.115 50.8928 31.9898C51.0171 31.8646 51.1857 31.7941 51.3616 31.7939H73.6899C73.8658 31.7941 74.0344 31.8646 74.1587 31.9898C74.2831 32.115 74.353 32.2848 74.3532 32.4619V50.0084C74.353 50.1855 74.2831 50.3553 74.1587 50.4805C74.0344 50.6057 73.8658 50.6762 73.6899 50.6764Z" fill="#99A8FF"/>
</svg>
