<svg width="16" height="16" viewBox="0 0 16 16" fill="none" xmlns="http://www.w3.org/2000/svg">
<path opacity="1" d="M15.8335 8.40358L13.5475 10.6894C13.324 10.9129 12.9629 10.9129 12.7394 10.6894C12.516 10.466 12.516 10.1048 12.7394 9.88138L14.0498 8.57102H8.57149V14.0491L9.88193 12.7387C10.1054 12.5153 10.4666 12.5153 10.69 12.7387C10.9135 12.9621 10.9135 13.3233 10.69 13.5467L8.40405 15.8326C8.18802 16.0492 7.82512 16.0623 7.59538 15.8326L5.3094 13.5467C5.08595 13.3233 5.08595 12.9621 5.3094 12.7387C5.53286 12.5153 5.89404 12.5153 6.1175 12.7387L7.4285 14.0491V8.57102H1.95016L3.26059 9.88138C3.48405 10.1048 3.48405 10.466 3.26059 10.6894C3.03714 10.9129 2.67595 10.9129 2.4525 10.6894L0.16652 8.40358C-0.0546486 8.18242 -0.056363 7.81783 0.16652 7.59496L2.4525 5.30911C2.67595 5.08566 3.03714 5.08566 3.26059 5.30911C3.48405 5.53255 3.48405 5.89371 3.26059 6.11715L1.95016 7.42809H7.4285V1.95005L6.11807 3.26041C5.89461 3.48385 5.53343 3.48385 5.30997 3.26041C5.08652 3.03697 5.08652 2.6758 5.30997 2.45236L7.59595 0.166511C7.81712 -0.0546455 8.18174 -0.0563599 8.40462 0.166511L10.6906 2.45236C10.9141 2.6758 10.9141 3.03697 10.6906 3.26041C10.5786 3.37185 10.4323 3.42785 10.286 3.42785C10.1397 3.42785 9.99337 3.37185 9.88193 3.26041L8.57149 1.95005V7.42809H14.0498L12.7394 6.11773C12.516 5.89428 12.516 5.53312 12.7394 5.30968C12.9629 5.08624 13.324 5.08624 13.5475 5.30968L15.8335 7.59553C16.0564 7.81783 16.0546 8.18299 15.8335 8.40358Z" fill="#B2B8D7" fill-opacity=""/>
</svg>
