<svg width="16" height="16" viewBox="0 0 16 16" fill="none" xmlns="http://www.w3.org/2000/svg">
<path d="M7.80078 15.4229C9.7899 15.4229 11.6976 14.6327 13.1041 13.2262C14.5106 11.8196 15.3008 9.91197 15.3008 7.92285C15.3008 5.93373 14.5106 4.02607 13.1041 2.61955C11.6976 1.21303 9.7899 0.422852 7.80078 0.422852C5.81166 0.422852 3.904 1.21303 2.49748 2.61955C1.09096 4.02607 0.300781 5.93373 0.300781 7.92285C0.300781 9.91197 1.09096 11.8196 2.49748 13.2262C3.904 14.6327 5.81166 15.4229 7.80078 15.4229ZM7.80078 1.8291C9.41694 1.8291 10.9669 2.47112 12.1097 3.61392C13.2525 4.75672 13.8945 6.30669 13.8945 7.92285C13.8945 9.53901 13.2525 11.089 12.1097 12.2318C10.9669 13.3746 9.41694 14.0166 7.80078 14.0166C6.18462 14.0166 4.63465 13.3746 3.49185 12.2318C2.34905 11.089 1.70703 9.53901 1.70703 7.92285C1.70703 6.30669 2.34905 4.75672 3.49185 3.61392C4.63465 2.47112 6.18462 1.8291 7.80078 1.8291ZM7.80078 9.1941C9.49953 9.1941 11.1148 8.74316 12.4883 7.95004C12.2745 10.5638 10.2448 12.6104 7.80078 12.6104C5.35672 12.6104 3.32703 10.561 3.11328 7.94816C4.53972 8.76678 6.15614 9.19642 7.80078 9.1941ZM4.05078 5.5791C4.05078 4.80285 4.47078 4.17285 4.98828 4.17285C5.50578 4.17285 5.92578 4.80285 5.92578 5.5791C5.92578 6.35535 5.50578 6.98535 4.98828 6.98535C4.47078 6.98535 4.05078 6.35535 4.05078 5.5791ZM9.67578 5.5791C9.67578 4.80285 10.0958 4.17285 10.6133 4.17285C11.1308 4.17285 11.5508 4.80285 11.5508 5.5791C11.5508 6.35535 11.1308 6.98535 10.6133 6.98535C10.0958 6.98535 9.67578 6.35535 9.67578 5.5791Z" fill="#32D0A5"/>
</svg>
