<svg width="277" height="247" viewBox="0 0 277 247" fill="none" xmlns="http://www.w3.org/2000/svg">
<circle cx="143.5" cy="123.5" r="123.5" fill="#EEF2FF" fill-opacity="0.52"/>
<path d="M202.329 93.9472H110.332C108.87 93.9455 107.468 93.3638 106.434 92.3296C105.399 91.2954 104.818 89.8932 104.816 88.4307V34.1626C104.817 33.0688 105.252 32.0201 106.026 31.2466C106.799 30.4731 107.848 30.038 108.942 30.0367H203.654C204.765 30.038 205.83 30.4801 206.616 31.2659C207.402 32.0517 207.844 33.1172 207.845 34.2285V88.4307C207.844 89.8932 207.262 91.2954 206.228 92.3296C205.194 93.3638 203.791 93.9455 202.329 93.9472Z" fill="white"/>
<path d="M202.329 93.9472H110.332C108.87 93.9455 107.468 93.3638 106.434 92.3296C105.399 91.2954 104.818 89.8932 104.816 88.4307V34.1626C104.817 33.0688 105.252 32.0201 106.026 31.2466C106.799 30.4731 107.848 30.038 108.942 30.0367H203.654C204.765 30.038 205.83 30.4801 206.616 31.2659C207.402 32.0517 207.844 33.1172 207.845 34.2285V88.4307C207.844 89.8932 207.262 91.2954 206.228 92.3296C205.194 93.3638 203.791 93.9455 202.329 93.9472ZM108.942 30.6672C108.015 30.6683 107.127 31.0369 106.471 31.6922C105.816 32.3474 105.447 33.2359 105.446 34.1626V88.4307C105.448 89.7261 105.963 90.968 106.879 91.884C107.795 92.8 109.037 93.3153 110.332 93.3167H202.329C203.624 93.3153 204.866 92.8 205.782 91.884C206.698 90.968 207.213 89.7261 207.215 88.4307V34.2285C207.214 33.2843 206.838 32.3791 206.171 31.7115C205.503 31.0438 204.598 30.6683 203.654 30.6672H108.942Z" fill="#B6B3D5"/>
<path d="M115.376 88.4307H197.285C198.623 88.4307 199.906 87.8993 200.852 86.9534C201.797 86.0076 202.329 84.7247 202.329 83.387V43.8105C202.329 42.4729 201.797 41.19 200.852 40.2441C199.906 39.2982 198.623 38.7668 197.285 38.7668H115.376C114.039 38.7668 112.756 39.2982 111.81 40.2441C110.864 41.19 110.332 42.4729 110.332 43.8105V83.387C110.332 84.7247 110.864 86.0076 111.81 86.9534C112.756 87.8993 114.039 88.4307 115.376 88.4307Z" fill="#F2F2F2"/>
<path d="M207.983 33.8651H104.588V31.217C104.597 29.8259 105.158 28.4954 106.148 27.5173C107.137 26.5393 108.474 25.9937 109.865 26.0001H202.706C204.097 25.9936 205.434 26.5393 206.423 27.5173C207.413 28.4954 207.974 29.8259 207.983 31.217V33.8651Z" fill="#79A6FF"/>
<path d="M114.545 31.2907C115.291 31.2907 115.895 30.6862 115.895 29.9405C115.895 29.1947 115.291 28.5902 114.545 28.5902C113.799 28.5902 113.195 29.1947 113.195 29.9405C113.195 30.6862 113.799 31.2907 114.545 31.2907Z" fill="white"/>
<path d="M119.67 31.2907C120.416 31.2907 121.021 30.6862 121.021 29.9405C121.021 29.1947 120.416 28.5902 119.67 28.5902C118.925 28.5902 118.32 29.1947 118.32 29.9405C118.32 30.6862 118.925 31.2907 119.67 31.2907Z" fill="white"/>
<path d="M124.796 31.2907C125.541 31.2907 126.146 30.6862 126.146 29.9405C126.146 29.1947 125.541 28.5902 124.796 28.5902C124.05 28.5902 123.445 29.1947 123.445 29.9405C123.445 30.6862 124.05 31.2907 124.796 31.2907Z" fill="white"/>
<path d="M129.956 74.0015C127.898 74.0015 125.887 73.3914 124.176 72.2483C122.465 71.1053 121.132 69.4806 120.345 67.5798C119.557 65.679 119.351 63.5874 119.753 61.5694C120.154 59.5515 121.145 57.698 122.6 56.2431C124.055 54.7883 125.908 53.7976 127.926 53.3962C129.944 52.9948 132.036 53.2008 133.936 53.9881C135.837 54.7755 137.462 56.1088 138.605 57.8195C139.748 59.5302 140.358 61.5414 140.358 63.5989C140.355 66.3569 139.258 69.001 137.308 70.9512C135.358 72.9014 132.713 73.9984 129.956 74.0015Z" fill="#79A6FF"/>
<path d="M190.586 72.1101H150.326C149.676 72.1187 149.046 71.8816 148.563 71.446C148.08 71.0105 147.779 70.4087 147.721 69.761C147.698 69.4162 147.745 69.0703 147.861 68.7446C147.977 68.419 148.159 68.1207 148.395 67.868C148.63 67.6154 148.916 67.4139 149.233 67.2761C149.55 67.1382 149.891 67.0668 150.237 67.0664H190.487C191.14 67.0568 191.773 67.2948 192.258 67.7325C192.744 68.1702 193.046 68.7752 193.103 69.4262C193.125 69.7703 193.076 70.1151 192.959 70.4395C192.843 70.7639 192.661 71.061 192.425 71.3124C192.189 71.5639 191.905 71.7644 191.588 71.9016C191.272 72.0388 190.931 72.1097 190.586 72.1101Z" fill="#CCD4E6"/>
<path d="M169.466 61.3921H150.326C149.676 61.4007 149.046 61.1635 148.563 60.728C148.08 60.2925 147.779 59.6907 147.721 59.043C147.698 58.6982 147.745 58.3522 147.861 58.0266C147.977 57.701 148.159 57.4026 148.395 57.15C148.63 56.8974 148.916 56.6959 149.233 56.558C149.55 56.4201 149.891 56.3488 150.237 56.3484H169.366C170.02 56.3388 170.653 56.5767 171.138 57.0144C171.623 57.4521 171.925 58.0572 171.983 58.7082C172.005 59.0522 171.956 59.3971 171.839 59.7215C171.722 60.0459 171.541 60.3429 171.305 60.5944C171.069 60.8459 170.784 61.0464 170.468 61.1836C170.152 61.3207 169.811 61.3917 169.466 61.3921Z" fill="#CCD4E5"/>
<path d="M249.605 168.61C249.76 168.174 249.817 167.708 249.773 167.247C249.729 166.786 249.584 166.34 249.348 165.941C249.113 165.541 248.793 165.199 248.411 164.936C248.029 164.674 247.594 164.499 247.137 164.423L245.236 153.32L240.963 157.321L243.423 167.251C243.346 168.028 243.557 168.805 244.016 169.437C244.474 170.068 245.148 170.509 245.91 170.677C246.672 170.844 247.469 170.726 248.15 170.346C248.831 169.965 249.349 169.347 249.605 168.61V168.61Z" fill="#FFB8B8"/>
<path d="M246.766 163.298L242.571 164.399C242.371 164.451 242.159 164.422 241.98 164.32C241.801 164.218 241.669 164.05 241.613 163.852L234.074 137.142L231.796 130.328C231.577 129.672 231.527 128.97 231.652 128.289C231.776 127.608 232.071 126.97 232.508 126.433C232.946 125.897 233.512 125.48 234.154 125.221C234.796 124.962 235.493 124.87 236.18 124.953C236.976 125.048 237.726 125.375 238.338 125.892C238.95 126.409 239.397 127.094 239.624 127.862L245.648 148.224L247.348 162.443C247.367 162.601 247.337 162.761 247.263 162.902C247.189 163.043 247.075 163.158 246.934 163.233C246.881 163.261 246.824 163.283 246.766 163.298Z" fill="#CCCCCC"/>
<path d="M231.435 120.447C235.711 120.447 239.177 116.981 239.177 112.705C239.177 108.429 235.711 104.962 231.435 104.962C227.159 104.962 223.692 108.429 223.692 112.705C223.692 116.981 227.159 120.447 231.435 120.447Z" fill="#FFB8B8"/>
<path d="M208.638 218.621L204.934 217.519L207.422 202.707L212.889 204.334L208.638 218.621Z" fill="#FFB8B8"/>
<path d="M208.515 222.493L196.571 218.939L196.616 218.788C196.797 218.178 197.097 217.609 197.499 217.114C197.9 216.62 198.395 216.209 198.955 215.906C199.515 215.603 200.13 215.413 200.763 215.347C201.397 215.281 202.037 215.341 202.648 215.522L202.648 215.523L209.943 217.693L208.515 222.493Z" fill="#2F2E41"/>
<path d="M249.22 218.432H245.356L243.517 203.525L247.33 203.525L249.22 218.432Z" fill="#FFB8B8"/>
<path d="M250.206 222.178L237.745 222.177V222.02C237.745 221.383 237.87 220.752 238.114 220.164C238.358 219.575 238.715 219.04 239.165 218.59C239.616 218.14 240.15 217.782 240.739 217.539C241.327 217.295 241.958 217.169 242.595 217.169H242.595L250.206 217.17L250.206 222.178Z" fill="#2F2E41"/>
<path d="M210.063 214.239H206.183C205.975 214.239 205.769 214.193 205.581 214.105C205.393 214.016 205.226 213.888 205.093 213.728C204.96 213.568 204.863 213.381 204.811 213.18C204.758 212.979 204.75 212.768 204.788 212.564C202.313 211.463 215.637 147.568 218.785 148.807L218.888 148.657L234.74 149.951C241.84 164.161 246.335 187.675 250.54 212.223C250.592 212.426 250.598 212.639 250.557 212.845C250.517 213.051 250.431 213.246 250.306 213.415C250.181 213.584 250.02 213.723 249.835 213.822C249.649 213.922 249.444 213.978 249.234 213.988L244.875 214.2C244.579 214.215 244.287 214.138 244.038 213.978C243.79 213.818 243.597 213.585 243.489 213.31L226.785 171.552C226.752 171.461 226.69 171.383 226.609 171.329C226.528 171.276 226.432 171.25 226.335 171.255C226.238 171.256 226.144 171.287 226.066 171.344C225.988 171.401 225.93 171.481 225.899 171.572L211.403 213.286C211.306 213.564 211.125 213.805 210.885 213.976C210.645 214.147 210.358 214.238 210.063 214.239Z" fill="#2F2E41"/>
<path d="M235.072 151.201L234.951 151.193L218.073 149.919L221.034 131.09C221.359 128.988 222.355 127.048 223.873 125.559C225.391 124.069 227.35 123.111 229.457 122.826C229.587 122.808 229.718 122.791 229.849 122.773C231.505 122.555 233.189 122.767 234.739 123.387C236.289 124.008 237.654 125.016 238.703 126.316C239.776 127.624 240.495 129.185 240.79 130.851C241.086 132.516 240.948 134.23 240.39 135.827L235.072 151.201Z" fill="#CCCCCC"/>
<path d="M246.469 121.561C241.145 123.997 233.922 123.561 225.664 121.561C226.806 118.431 227.697 115.408 226.687 113.188C226.279 112.351 226.049 111.438 226.01 110.506C225.972 109.575 226.127 108.646 226.465 107.778C227.257 105.885 228.591 104.268 230.299 103.13C232.007 101.993 234.014 101.386 236.066 101.386C238.825 101.386 241.471 102.482 243.422 104.433C245.373 106.384 246.469 109.03 246.469 111.789V121.561Z" fill="#2F2E41"/>
<path d="M228.501 102.094H235.12V110.235H221.25V109.345C221.25 107.422 222.014 105.577 223.374 104.218C224.734 102.858 226.578 102.094 228.501 102.094Z" fill="#2F2E41"/>
<path d="M217.709 170.362C218.05 170.049 218.319 169.664 218.496 169.236C218.673 168.808 218.754 168.346 218.733 167.883C218.712 167.42 218.59 166.967 218.375 166.557C218.161 166.146 217.858 165.787 217.49 165.506L221.014 154.807L215.365 156.339L212.884 166.264C212.453 166.914 212.275 167.7 212.384 168.472C212.493 169.245 212.882 169.951 213.476 170.456C214.071 170.961 214.83 171.23 215.61 171.213C216.39 171.196 217.137 170.893 217.709 170.362Z" fill="#FFB8B8"/>
<path d="M217.69 164.339L213.468 163.345C213.268 163.297 213.094 163.173 212.984 162.999C212.873 162.824 212.836 162.614 212.878 162.412L218.736 135.284L219.917 128.198C220.03 127.515 220.315 126.872 220.744 126.329C221.173 125.785 221.733 125.359 222.371 125.091C223.009 124.822 223.704 124.718 224.393 124.791C225.081 124.863 225.74 125.108 226.309 125.503C226.966 125.961 227.476 126.601 227.774 127.344C228.073 128.088 228.147 128.902 227.987 129.688L223.766 150.498L218.605 163.856C218.548 164.004 218.446 164.131 218.315 164.221C218.184 164.311 218.028 164.359 217.869 164.36C217.809 164.36 217.749 164.353 217.69 164.339Z" fill="#CCCCCC"/>
<path d="M276.685 222.601H156.582C156.498 222.601 156.418 222.567 156.359 222.508C156.3 222.449 156.267 222.369 156.267 222.285C156.267 222.202 156.3 222.122 156.359 222.063C156.418 222.003 156.498 221.97 156.582 221.97H276.685C276.768 221.97 276.849 222.003 276.908 222.063C276.967 222.122 277 222.202 277 222.285C277 222.369 276.967 222.449 276.908 222.508C276.849 222.567 276.768 222.601 276.685 222.601Z" fill="#CCCCCC"/>
<path d="M52.5668 147.346C52.3978 147.389 52.2325 147.446 52.0725 147.515L38.9355 139.04L39.1167 135.247L33.4273 134.225L32.4538 140.91C32.3752 141.45 32.4739 142.001 32.735 142.48C32.9961 142.959 33.4057 143.341 33.9021 143.567L50.0818 150.953C50.1623 151.62 50.444 152.247 50.8894 152.75C51.3348 153.253 51.9229 153.609 52.5753 153.77C53.2278 153.93 53.9137 153.889 54.5419 153.65C55.1701 153.412 55.7107 152.987 56.0919 152.434C56.4731 151.881 56.6768 151.224 56.6759 150.552C56.6751 149.88 56.4696 149.225 56.0869 148.672C55.7043 148.12 55.1625 147.697 54.5337 147.46C53.9049 147.223 53.2188 147.183 52.5668 147.346H52.5668Z" fill="#FFB8B8"/>
<path d="M38.3995 138.807L31.3542 137.506C31.1537 137.469 30.9636 137.389 30.7967 137.272C30.6299 137.155 30.4902 137.003 30.3873 136.827C30.2844 136.652 30.2206 136.455 30.2002 136.253C30.1799 136.05 30.2035 135.845 30.2695 135.652L32.5816 128.894C32.7766 127.869 33.37 126.964 34.2317 126.376C35.0934 125.788 36.153 125.566 37.1782 125.759C38.2034 125.951 39.1105 126.542 39.7005 127.402C40.2905 128.262 40.5152 129.321 40.3255 130.347L40.0747 137.462C40.0674 137.666 40.0164 137.866 39.925 138.048C39.8336 138.23 39.704 138.39 39.545 138.518C39.386 138.646 39.2014 138.738 39.0037 138.787C38.8061 138.837 38.6 138.844 38.3995 138.807V138.807Z" fill="#3F3D56"/>
<path d="M175.6 119.212H55.4974C54.4629 119.21 53.446 119.479 52.5468 119.99C52.3314 120.113 52.124 120.248 51.9258 120.397C51.1756 120.953 50.5661 121.677 50.1462 122.512C49.7263 123.346 49.5078 124.267 49.5081 125.201V187.617C49.5095 189.205 50.1409 190.727 51.2639 191.85C52.3868 192.973 53.9094 193.605 55.4974 193.606H175.6C177.188 193.605 178.711 192.973 179.834 191.85C180.957 190.727 181.588 189.205 181.59 187.617V125.201C181.588 123.613 180.957 122.09 179.834 120.968C178.711 119.845 177.188 119.213 175.6 119.212Z" fill="white"/>
<path d="M175.6 119.212H55.4974C54.4629 119.21 53.446 119.479 52.5468 119.99C52.3314 120.113 52.124 120.248 51.9258 120.397C51.1756 120.953 50.5661 121.677 50.1462 122.512C49.7263 123.346 49.5078 124.267 49.5081 125.201V187.617C49.5095 189.205 50.1409 190.727 51.2639 191.85C52.3868 192.973 53.9094 193.605 55.4974 193.606H175.6C177.188 193.605 178.711 192.973 179.834 191.85C180.957 190.727 181.588 189.205 181.59 187.617V125.201C181.588 123.613 180.957 122.09 179.834 120.968C178.711 119.845 177.188 119.213 175.6 119.212ZM180.959 187.617C180.957 189.037 180.392 190.399 179.387 191.404C178.383 192.408 177.021 192.974 175.6 192.976H55.4974C54.0768 192.974 52.7149 192.408 51.7103 191.404C50.7058 190.399 50.1405 189.037 50.1385 187.617V125.201C50.143 124.069 50.5042 122.966 51.1708 122.051C51.8373 121.135 52.7755 120.453 53.8519 120.101C53.896 120.088 53.937 120.072 53.9812 120.06C54.4736 119.915 54.9842 119.842 55.4974 119.842H175.6C177.021 119.844 178.383 120.409 179.387 121.414C180.392 122.419 180.957 123.78 180.959 125.201V187.617Z" fill="#B6B3D4"/>
<path d="M115.417 156.382C114.939 156.382 114.469 156.261 114.05 156.029L51.3053 121.495C51.2321 121.455 51.1778 121.387 51.1546 121.307C51.1313 121.227 51.1408 121.14 51.1812 121.067C51.2215 120.994 51.2892 120.94 51.3695 120.916C51.4498 120.893 51.5361 120.903 51.6093 120.943L114.354 155.477C114.674 155.654 115.033 155.748 115.398 155.751C115.764 155.755 116.124 155.667 116.447 155.496L180.225 121.851C180.261 121.832 180.301 121.82 180.342 121.816C180.384 121.812 180.425 121.816 180.465 121.829C180.505 121.841 180.541 121.861 180.573 121.887C180.605 121.914 180.632 121.946 180.651 121.983C180.67 122.019 180.682 122.059 180.686 122.101C180.69 122.142 180.685 122.184 180.673 122.223C180.661 122.263 180.641 122.3 180.614 122.331C180.588 122.363 180.555 122.39 180.519 122.409L116.741 156.053C116.333 156.269 115.879 156.382 115.417 156.382Z" fill="#B6B3D4"/>
<path d="M69.5462 177.844H60.7197C60.0509 177.844 59.4095 177.579 58.9365 177.106C58.4636 176.633 58.1979 175.991 58.1979 175.322C58.1979 174.654 58.4636 174.012 58.9365 173.539C59.4095 173.066 60.0509 172.801 60.7197 172.801H69.5462C70.215 172.801 70.8564 173.066 71.3294 173.539C71.8023 174.012 72.068 174.654 72.068 175.322C72.068 175.991 71.8023 176.633 71.3294 177.106C70.8564 177.579 70.215 177.844 69.5462 177.844Z" fill="#CCD4E5"/>
<path d="M79.9488 186.355H60.7197C60.0509 186.355 59.4095 186.09 58.9365 185.617C58.4636 185.144 58.1979 184.502 58.1979 183.834C58.1979 183.165 58.4636 182.523 58.9365 182.05C59.4095 181.577 60.0509 181.312 60.7197 181.312H79.9488C80.6176 181.312 81.259 181.577 81.732 182.05C82.2049 182.523 82.4706 183.165 82.4706 183.834C82.4706 184.502 82.2049 185.144 81.732 185.617C81.259 186.09 80.6176 186.355 79.9488 186.355Z" fill="#CCD4E5"/>
<path d="M115.392 166.496C120.963 166.496 125.48 161.98 125.48 156.409C125.48 150.838 120.963 146.321 115.392 146.321C109.821 146.321 105.305 150.838 105.305 156.409C105.305 161.98 109.821 166.496 115.392 166.496Z" fill="#79A6FF"/>
<path d="M69.6658 125.146L114.121 143.693C114.274 143.757 114.446 143.758 114.6 143.696L160.432 125.148C160.568 125.094 160.68 124.993 160.75 124.865C160.819 124.736 160.842 124.587 160.814 124.444C160.786 124.3 160.709 124.171 160.596 124.078C160.483 123.984 160.342 123.934 160.195 123.934H69.9085C69.7628 123.934 69.6216 123.984 69.5089 124.076C69.3962 124.169 69.3189 124.297 69.2903 124.44C69.2617 124.583 69.2835 124.732 69.3519 124.86C69.4204 124.989 69.5313 125.09 69.6658 125.146Z" fill="#F2F2F2"/>
<path d="M62.8983 120.476C62.8596 120.647 62.8344 120.819 62.8229 120.993L49.2814 128.806L45.99 126.911L42.4811 131.504L47.982 135.425C48.4264 135.742 48.9615 135.906 49.5071 135.892C50.0526 135.879 50.5792 135.689 51.0076 135.351L64.9712 124.335C65.6014 124.569 66.2876 124.604 66.9387 124.438C67.5898 124.272 68.1748 123.911 68.6159 123.405C69.0571 122.898 69.3335 122.268 69.4083 121.601C69.4832 120.933 69.3529 120.258 69.035 119.666C68.717 119.074 68.2263 118.593 67.6282 118.287C67.0301 117.981 66.3529 117.864 65.6867 117.952C65.0206 118.04 64.397 118.328 63.8989 118.779C63.4008 119.23 63.0518 119.822 62.8983 120.476Z" fill="#FFB8B8"/>
<path d="M48.8287 129.176L44.4521 134.848C44.3276 135.009 44.1697 135.142 43.9893 135.237C43.8089 135.332 43.6101 135.386 43.4066 135.398C43.203 135.409 42.9995 135.376 42.8098 135.301C42.6201 135.227 42.4487 135.112 42.3073 134.965L37.3527 129.82C36.5307 129.178 35.9968 128.237 35.8679 127.202C35.7391 126.167 36.0258 125.123 36.6653 124.299C37.3048 123.476 38.2449 122.939 39.2794 122.807C40.3139 122.675 41.3585 122.959 42.1841 123.596L48.3983 127.071C48.5762 127.171 48.7305 127.307 48.8508 127.472C48.9711 127.636 49.0545 127.825 49.0953 128.025C49.1362 128.224 49.1335 128.431 49.0875 128.629C49.0415 128.828 48.9532 129.014 48.8287 129.176H48.8287Z" fill="#3F3D56"/>
<path d="M30.9063 115.632C35.1823 115.632 38.6487 112.166 38.6487 107.89C38.6487 103.614 35.1823 100.147 30.9063 100.147C26.6303 100.147 23.1639 103.614 23.1639 107.89C23.1639 112.166 26.6303 115.632 30.9063 115.632Z" fill="#FFB8B8"/>
<path d="M38.2147 218.747H42.0794L43.9179 203.84L38.2141 203.84L38.2147 218.747Z" fill="#FFB8B8"/>
<path d="M37.2289 217.485L44.8398 217.485H44.8401C45.4771 217.485 46.1078 217.61 46.6962 217.854C47.2847 218.098 47.8194 218.455 48.2698 218.905C48.7202 219.356 49.0775 219.89 49.3212 220.479C49.5649 221.067 49.6904 221.698 49.6904 222.335V222.492L37.2292 222.493L37.2289 217.485Z" fill="#2F2E41"/>
<path d="M24.975 218.747H28.8397L30.6782 203.84L24.9744 203.84L24.975 218.747Z" fill="#FFB8B8"/>
<path d="M23.9893 217.485L31.6001 217.485H31.6004C32.2374 217.485 32.8681 217.61 33.4566 217.854C34.045 218.098 34.5797 218.455 35.0301 218.905C35.4805 219.356 35.8378 219.89 36.0815 220.479C36.3253 221.067 36.4507 221.698 36.4507 222.335V222.492L23.9895 222.493L23.9893 217.485Z" fill="#2F2E41"/>
<path d="M37.0551 213.089L33.113 182.59C33.111 182.549 33.0931 182.511 33.0633 182.484C33.0335 182.456 32.9941 182.441 32.9535 182.443C32.9332 182.442 32.913 182.445 32.8941 182.453C32.8751 182.46 32.8579 182.471 32.8433 182.485C32.8288 182.499 32.8174 182.516 32.8096 182.535C32.8019 182.554 32.798 182.574 32.7983 182.594L31.6654 212.651C31.6527 213.019 31.4977 213.366 31.2331 213.621C30.9685 213.876 30.6151 214.018 30.2478 214.017H25.5668C25.1958 214.019 24.839 213.875 24.5736 213.616C24.3081 213.356 24.1555 213.003 24.1487 212.632L22.9335 162.553L43.8824 162.763L44.4054 213.003C44.4007 213.202 44.354 213.399 44.2683 213.579C44.1825 213.759 44.0597 213.92 43.9078 214.049C43.7592 214.177 43.5853 214.273 43.3975 214.329C43.2096 214.386 43.012 214.402 42.8174 214.377L38.2779 214.39C37.9561 214.346 37.6591 214.192 37.4366 213.956C37.2141 213.719 37.0794 213.413 37.0551 213.089Z" fill="#2F2E41"/>
<path d="M22.6232 163.923C22.3888 163.833 22.1825 163.683 22.0252 163.487C21.8679 163.292 21.7654 163.058 21.728 162.81L21.5189 135.287C20.593 129.159 19.498 123.154 24.8558 120.05L25.3279 118.633C25.3793 118.48 25.4764 118.346 25.606 118.25C25.7356 118.154 25.8916 118.1 26.053 118.094L36.2169 117.804C36.375 117.799 36.5311 117.841 36.6645 117.927C36.7978 118.012 36.9022 118.136 36.9637 118.281L37.7197 120.046L37.9881 120.199C40.5416 121.654 42.6092 123.83 43.9324 126.455C45.2555 129.079 45.7754 132.036 45.427 134.954L44.8459 139.861L44.4331 162.79C44.4277 163.042 44.3561 163.288 44.2253 163.503C44.0946 163.718 43.9094 163.895 43.6885 164.015C40.7358 165.632 37.4647 166.185 34.3694 166.185C29.1687 166.185 24.4669 164.623 22.6232 163.923Z" fill="#3F3D56"/>
<path d="M30.6542 115.919C29.489 115.944 28.3316 115.722 27.2581 115.268C26.1846 114.814 25.2194 114.138 24.4258 113.285C23.6322 112.431 23.0282 111.419 22.6536 110.315C22.2789 109.212 22.1421 108.041 22.252 106.881C22.3619 105.721 22.7162 104.597 23.2914 103.583C23.8667 102.569 24.65 101.689 25.5897 101C26.5295 100.31 27.6046 99.8274 28.7442 99.5831C29.8838 99.3388 31.0623 99.3384 32.2021 99.582C33.9047 98.5481 35.8842 97.8525 37.8682 98.0294C39.8523 98.2064 41.8144 99.3843 42.5563 101.233C43.2983 103.081 42.5012 105.518 40.6564 106.269C39.4737 106.751 38.1381 106.517 36.876 106.323C35.6139 106.129 34.237 106.002 33.1385 106.653C32.0401 107.305 31.5463 109.051 32.53 109.865C33.0515 110.314 33.4239 110.911 33.5976 111.576C33.7713 112.242 33.7381 112.945 33.5023 113.591C33.0078 114.87 31.6584 115.897 30.6542 115.919Z" fill="#2F2E41"/>
<path d="M59.4911 222.601H10.3152C10.2316 222.601 10.1514 222.567 10.0923 222.508C10.0332 222.449 10 222.369 10 222.285C10 222.202 10.0332 222.122 10.0923 222.063C10.1514 222.003 10.2316 221.97 10.3152 221.97H59.4911C59.5747 221.97 59.6549 222.003 59.714 222.063C59.7732 222.122 59.8064 222.202 59.8064 222.285C59.8064 222.369 59.7732 222.449 59.714 222.508C59.6549 222.567 59.5747 222.601 59.4911 222.601Z" fill="#CCCCCC"/>
<g filter="url(#filter0_d_100_3918)">
<rect x="202" y="7" width="38" height="38" rx="7" fill="white"/>
</g>
<g filter="url(#filter1_d_100_3918)">
<rect x="6" y="34" width="38" height="38" rx="7" fill="white"/>
</g>
<path d="M229.07 29.2706C228.925 29.5997 228.882 29.9648 228.946 30.3187C229.01 30.6727 229.179 30.9993 229.43 31.2564L229.496 31.3224C229.699 31.5251 229.86 31.7658 229.97 32.0307C230.079 32.2955 230.136 32.5794 230.136 32.8661C230.136 33.1528 230.079 33.4366 229.97 33.7015C229.86 33.9663 229.699 34.207 229.496 34.4097C229.294 34.6124 229.053 34.7732 228.788 34.8829C228.523 34.9926 228.239 35.0491 227.953 35.0491C227.666 35.0491 227.382 34.9926 227.117 34.8829C226.852 34.7732 226.612 34.6124 226.409 34.4097L226.343 34.3437C226.088 34.0967 225.766 33.9299 225.417 33.864C225.068 33.7982 224.708 33.8361 224.38 33.9732C224.053 34.1102 223.773 34.3404 223.575 34.6351C223.377 34.9298 223.27 35.2762 223.267 35.6312V35.8172C223.267 36.3957 223.037 36.9506 222.628 37.3596C222.219 37.7687 221.664 37.9986 221.085 37.9986C220.507 37.9986 219.952 37.7687 219.543 37.3596C219.134 36.9506 218.904 36.3957 218.904 35.8172V35.7176C218.895 35.3565 218.779 35.0062 218.568 34.7124C218.358 34.4186 218.065 34.1948 217.726 34.0701C217.396 33.9248 217.031 33.8814 216.677 33.9456C216.323 34.0098 215.997 34.1785 215.74 34.4301L215.674 34.4961C215.471 34.6988 215.23 34.8596 214.966 34.9693C214.701 35.079 214.417 35.1355 214.13 35.1355C213.843 35.1355 213.56 35.079 213.295 34.9693C213.03 34.8596 212.789 34.6988 212.586 34.4961C212.384 34.2934 212.223 34.0527 212.113 33.7879C212.004 33.523 211.947 33.2391 211.947 32.9525C211.947 32.6658 212.004 32.3819 212.113 32.117C212.223 31.8522 212.384 31.6115 212.586 31.4088L212.652 31.3428C212.899 31.0878 213.066 30.7659 213.132 30.4171C213.198 30.0682 213.16 29.7076 213.023 29.3801C212.886 29.0526 212.656 28.7725 212.361 28.5745C212.066 28.3765 211.72 28.2694 211.365 28.2663H211.181C210.603 28.2663 210.048 28.0365 209.639 27.6274C209.23 27.2183 209 26.6635 209 26.0849C209 25.5064 209.23 24.9516 209.639 24.5425C210.048 24.1334 210.603 23.9036 211.181 23.9036H211.28C211.641 23.8952 211.991 23.7783 212.285 23.5682C212.579 23.358 212.803 23.0643 212.927 22.7253C213.073 22.3962 213.116 22.0311 213.052 21.6772C212.988 21.3232 212.819 20.9966 212.567 20.7395L212.501 20.6735C212.292 20.4722 212.126 20.2313 212.011 19.9648C211.896 19.6984 211.836 19.4117 211.833 19.1217C211.831 18.8316 211.886 18.544 211.996 18.2755C212.106 18.007 212.268 17.7631 212.473 17.5581C212.678 17.3531 212.922 17.191 213.191 17.0814C213.459 16.9717 213.747 16.9167 214.037 16.9196C214.327 16.9224 214.614 16.983 214.88 17.0979C215.147 17.2128 215.387 17.3796 215.589 17.5886L215.655 17.6546C215.912 17.9062 216.238 18.0749 216.592 18.1391C216.946 18.2033 217.311 18.1599 217.64 18.0146H217.728C218.051 17.8762 218.326 17.6466 218.52 17.3539C218.713 17.0612 218.817 16.7182 218.819 16.3671V16.1811C218.819 15.6026 219.048 15.0478 219.458 14.6387C219.867 14.2296 220.421 13.9998 221 13.9998C221.579 13.9998 222.133 14.2296 222.542 14.6387C222.952 15.0478 223.181 15.6026 223.181 16.1811V16.2795C223.184 16.6346 223.292 16.9809 223.49 17.2756C223.688 17.5703 223.968 17.8005 224.295 17.9375C224.623 18.0746 224.983 18.1126 225.332 18.0467C225.681 17.9808 226.003 17.814 226.258 17.567L226.324 17.501C226.733 17.0916 227.289 16.8616 227.868 16.8616C228.446 16.8616 229.002 17.0916 229.411 17.501C229.821 17.9104 230.051 18.4657 230.051 19.0447C230.051 19.6236 229.821 20.1789 229.411 20.5883L229.345 20.6543C229.094 20.9114 228.925 21.238 228.861 21.592C228.797 21.946 228.84 22.311 228.985 22.6401V22.7277C229.124 23.0503 229.353 23.3255 229.646 23.5193C229.939 23.7131 230.282 23.817 230.633 23.8184H230.819C231.397 23.8184 231.952 24.0482 232.361 24.4573C232.77 24.8664 233 25.4212 233 25.9998C233 26.5783 232.77 27.1331 232.361 27.5422C231.952 27.9513 231.397 28.1811 230.819 28.1811H230.718C230.367 28.1824 230.024 28.2861 229.731 28.4797C229.439 28.6733 229.209 28.9482 229.07 29.2706Z" fill="#9FCEFF"/>
<path d="M220.999 29.5982C222.987 29.5982 224.598 27.9866 224.598 25.9986C224.598 24.0105 222.987 22.3989 220.999 22.3989C219.011 22.3989 217.399 24.0105 217.399 25.9986C217.399 27.9866 219.011 29.5982 220.999 29.5982Z" fill="#3698FF"/>
<path d="M31.1226 58.0398H34.5593C33.1006 60.5476 30.6788 62.4297 27.7944 63.1778C29.2201 61.7192 30.3625 59.9736 31.1226 58.0398Z" fill="#3698FF"/>
<path d="M21.3083 58.0398H28.7247C27.8608 59.8748 26.5862 61.4745 25.0141 62.7261C23.4469 61.4793 22.1722 59.8748 21.3083 58.0398Z" fill="#9FCEFF"/>
<path d="M18.9097 58.0398C19.6697 59.9736 20.8074 61.7145 22.2378 63.1778C19.3534 62.4297 16.927 60.5476 15.473 58.0398H18.9097Z" fill="#3698FF"/>
<path d="M18.2345 55.8472H14.5051C14.1747 54.8074 14 53.697 14 52.5536C14 51.6079 14.118 50.6857 14.3446 49.8105H18.0787C17.9277 50.6669 17.8521 51.5514 17.8521 52.4501C17.8569 53.6123 17.9843 54.7509 18.2345 55.8472Z" fill="#3698FF"/>
<path d="M29.7061 49.8059C29.8807 50.6575 29.9704 51.5421 29.9704 52.4455C29.9704 53.6218 29.8146 54.7604 29.5267 55.8473H20.5053C20.2173 54.7604 20.0616 53.6218 20.0616 52.4455C20.0616 51.5421 20.1512 50.6575 20.3259 49.8059H29.7061Z" fill="#9FCEFF"/>
<path d="M35.6827 49.8057C35.9093 50.6809 36.0321 51.6031 36.0321 52.5488C36.0321 53.6969 35.8527 54.8026 35.5269 55.8424H31.7975C32.0477 54.7461 32.1752 53.6122 32.1752 52.4406C32.1752 51.5419 32.0997 50.6574 31.9486 49.801H35.6827V49.8057Z" fill="#3698FF"/>
<path d="M34.8566 47.6132H31.401C30.6976 45.5006 29.5504 43.595 28.0681 42C31.0328 42.8516 33.4875 44.9125 34.8566 47.6132Z" fill="#3698FF"/>
<path d="M29.0548 47.6132H20.9775C21.832 45.4582 23.2341 43.5856 25.0185 42.1599C26.7982 43.5856 28.2003 45.4582 29.0548 47.6132Z" fill="#9FCEFF"/>
<path d="M21.9643 42C20.482 43.595 19.3348 45.5006 18.6362 47.6132H15.1758C16.5449 44.9125 18.9949 42.8516 21.9643 42Z" fill="#3698FF"/>
<defs>
<filter id="filter0_d_100_3918" x="196" y="3" width="50" height="50" filterUnits="userSpaceOnUse" color-interpolation-filters="sRGB">
<feFlood flood-opacity="0" result="BackgroundImageFix"/>
<feColorMatrix in="SourceAlpha" type="matrix" values="0 0 0 0 0 0 0 0 0 0 0 0 0 0 0 0 0 0 127 0" result="hardAlpha"/>
<feOffset dy="2"/>
<feGaussianBlur stdDeviation="3"/>
<feComposite in2="hardAlpha" operator="out"/>
<feColorMatrix type="matrix" values="0 0 0 0 0.8 0 0 0 0 0.831373 0 0 0 0 0.898039 0 0 0 0.62 0"/>
<feBlend mode="normal" in2="BackgroundImageFix" result="effect1_dropShadow_100_3918"/>
<feBlend mode="normal" in="SourceGraphic" in2="effect1_dropShadow_100_3918" result="shape"/>
</filter>
<filter id="filter1_d_100_3918" x="0" y="30" width="50" height="50" filterUnits="userSpaceOnUse" color-interpolation-filters="sRGB">
<feFlood flood-opacity="0" result="BackgroundImageFix"/>
<feColorMatrix in="SourceAlpha" type="matrix" values="0 0 0 0 0 0 0 0 0 0 0 0 0 0 0 0 0 0 127 0" result="hardAlpha"/>
<feOffset dy="2"/>
<feGaussianBlur stdDeviation="3"/>
<feComposite in2="hardAlpha" operator="out"/>
<feColorMatrix type="matrix" values="0 0 0 0 0.8 0 0 0 0 0.831373 0 0 0 0 0.898039 0 0 0 0.62 0"/>
<feBlend mode="normal" in2="BackgroundImageFix" result="effect1_dropShadow_100_3918"/>
<feBlend mode="normal" in="SourceGraphic" in2="effect1_dropShadow_100_3918" result="shape"/>
</filter>
</defs>
</svg>
