<svg xmlns="http://www.w3.org/2000/svg" width="400.769" height="270.288" viewBox="0 0 400.769 270.288">
    <defs>
        <style>
            .cls-1{fill:#f5f5f5}.cls-2{fill:#e0e0e0}.cls-3{fill:#fff}.cls-5{fill:#a0a8e9}.cls-6{fill:#e6e8f9}.cls-7{fill:#0b0754}.cls-8{fill:#fc9290}.cls-9{fill:#bed2fa}.cls-10{fill:#6d89cf}.cls-11{fill:#120e59}.cls-12{fill:#ea8888}.cls-16{fill:#130188}.cls-18{fill:#3662c1}.cls-19{fill:#93b3f4}.cls-20{fill:#05005d}.cls-21{fill:#fbc5a7}.cls-22{fill:#ffd1b7}.cls-23{fill:#ececec}.cls-25{fill:#3e4dce}.cls-27{fill:#d8e3fe}.cls-28{fill:#59a0ff}.cls-30{fill:#fafafa}.cls-31{fill:#ebebeb}
        </style>
    </defs>
    <g id="Group_9704" transform="translate(-818.95 -133.442)">
        <g id="Group_9663" transform="translate(-90.416)">
            <g id="Group_9661" transform="translate(1076 388.275)">
                <g id="Group_8213">
                    <g id="Group_8192" transform="translate(1.558 3.377)">
                        <g id="Group_8191">
                            <g id="Group_8190">
                                <g id="Group_8189">
                                    <g id="Group_8188">
                                        <path id="Path_13927" d="M295.294 441.421V453.5h37.144v-12.079z" class="cls-1" transform="translate(-295.294 -441.421)"/>
                                    </g>
                                </g>
                            </g>
                        </g>
                    </g>
                    <g id="Group_8197">
                        <g id="Group_8196">
                            <g id="Group_8195">
                                <g id="Group_8194">
                                    <g id="Group_8193">
                                        <path id="Path_13928" d="M292.172 434.656v3.377h40v-3.377h-40z" class="cls-2" transform="translate(-292.172 -434.656)"/>
                                    </g>
                                </g>
                            </g>
                        </g>
                    </g>
                    <g id="Group_8202" transform="translate(19.221)">
                        <g id="Group_8201">
                            <g id="Group_8200">
                                <g id="Group_8199">
                                    <g id="Group_8198">
                                        <path id="Path_13929" d="M331.459 450.111h18.7v-12.078h1.3v-3.377H330.68v3.064z" class="cls-2" transform="translate(-330.68 -434.656)"/>
                                    </g>
                                </g>
                            </g>
                        </g>
                    </g>
                    <g id="Group_8207" transform="translate(6.753 5.325)">
                        <g id="Group_8206">
                            <g id="Group_8205">
                                <g id="Group_8204">
                                    <g id="Group_8203">
                                        <path id="Rectangle_2424" d="M0 0H7.533V1.818H0z" class="cls-2"/>
                                    </g>
                                </g>
                            </g>
                        </g>
                    </g>
                    <g id="Group_8212" transform="translate(5.784 9.416)">
                        <g id="Group_8211">
                            <g id="Group_8210">
                                <g id="Group_8209">
                                    <g id="Group_8208">
                                        <path id="Rectangle_2425" d="M0 0H9.672V3.839H0z" class="cls-3"/>
                                    </g>
                                </g>
                            </g>
                        </g>
                    </g>
                </g>
            </g>
            <g id="Group_9662" transform="translate(1079.412 372.831)">
                <g id="Group_8240">
                    <g id="Group_8219" transform="translate(1.559 3.377)">
                        <g id="Group_8218">
                            <g id="Group_8217">
                                <g id="Group_8216">
                                    <g id="Group_8215">
                                        <path id="Path_13930" d="M302.13 410.48v12.078h37.144V410.48z" class="cls-1" transform="translate(-302.13 -410.48)"/>
                                    </g>
                                </g>
                            </g>
                        </g>
                    </g>
                    <g id="Group_8224">
                        <g id="Group_8223">
                            <g id="Group_8222">
                                <g id="Group_8221">
                                    <g id="Group_8220">
                                        <path id="Path_13931" d="M299.008 403.715v3.377h40v-3.377h-40z" class="cls-2" transform="translate(-299.008 -403.715)"/>
                                    </g>
                                </g>
                            </g>
                        </g>
                    </g>
                    <g id="Group_8229" transform="translate(19.221)">
                        <g id="Group_8228">
                            <g id="Group_8227">
                                <g id="Group_8226">
                                    <g id="Group_8225">
                                        <path id="Path_13932" d="M338.3 419.17H357v-12.078h1.3v-3.377h-20.78v3.064z" class="cls-2" transform="translate(-337.516 -403.715)"/>
                                    </g>
                                </g>
                            </g>
                        </g>
                    </g>
                    <g id="Group_8234" transform="translate(6.753 5.325)">
                        <g id="Group_8233">
                            <g id="Group_8232">
                                <g id="Group_8231">
                                    <g id="Group_8230">
                                        <path id="Rectangle_2426" d="M0 0H7.533V1.818H0z" class="cls-2"/>
                                    </g>
                                </g>
                            </g>
                        </g>
                    </g>
                    <g id="Group_8239" transform="translate(5.784 9.416)">
                        <g id="Group_8238">
                            <g id="Group_8237">
                                <g id="Group_8236">
                                    <g id="Group_8235">
                                        <path id="Rectangle_2427" d="M0 0H9.672V3.839H0z" class="cls-3"/>
                                    </g>
                                </g>
                            </g>
                        </g>
                    </g>
                </g>
            </g>
        </g>
        <g id="Group_9657" opacity="0.25" transform="translate(1039.119 191.645)">
            <g id="Group_8451" transform="translate(0 37.444)">
                <path id="Path_13970" d="M351.739 79.217l-21.8 7.323H379.2l-20.471-7.323z" class="cls-5" transform="translate(-329.937 -79.217)"/>
            </g>
            <g id="Group_8453" transform="translate(20.374 44.269)">
                <g id="Group_8452">
                    <path id="Path_13971" d="M378.3 92.89a11.754 11.754 0 0 0-.164 1.289 6.424 6.424 0 0 0 .813 3.384c.339.665.781 1.366 1.124 2.2a4.815 4.815 0 0 1 .288 2.831 5.088 5.088 0 0 1-1.535 2.744 4.686 4.686 0 0 1-3.144 1.2 4.943 4.943 0 0 1-3.189-1.09 4.976 4.976 0 0 1-1.418-5.536 9.251 9.251 0 0 1 1.309-2.1 8.461 8.461 0 0 0 1.07-1.7 3.875 3.875 0 0 0 .343-1.458 2.793 2.793 0 0 0-.292-1.243 1.186 1.186 0 0 1 .179.29 2.37 2.37 0 0 1 .214.953 3.871 3.871 0 0 1-.31 1.515 8.342 8.342 0 0 1-1.055 1.75 9.265 9.265 0 0 0-1.257 2.073 4.6 4.6 0 0 0 4.4 6.288 4.446 4.446 0 0 0 2.975-1.13 4.872 4.872 0 0 0 1.472-2.6 4.615 4.615 0 0 0-.253-2.7c-.324-.81-.755-1.515-1.088-2.194a6.346 6.346 0 0 1-.75-3.473 5.442 5.442 0 0 1 .158-.961 1.356 1.356 0 0 1 .11-.332z" class="cls-5" transform="translate(-370.753 -92.89)"/>
                </g>
            </g>
            <g id="Group_8455" transform="translate(23.506 44.733)">
                <g id="Group_8454">
                    <path id="Path_13972" d="M379.644 93.82a8.357 8.357 0 0 1-.132.916 23.834 23.834 0 0 0-.251 2.5 20.164 20.164 0 0 0 .163 3.7.833.833 0 0 0 .2.415.41.41 0 0 0 .379.137c.268-.058.412-.468.358-.788a1.6 1.6 0 0 0-1.52-1.328 1.58 1.58 0 0 0-1.55 1.284.694.694 0 0 0 .408.782.615.615 0 0 0 .71-.412 3.061 3.061 0 0 0 .166-.969c.025-.33.036-.652.041-.963a16.55 16.55 0 0 0-.071-1.73 17.087 17.087 0 0 0-.419-2.475c-.141-.577-.237-.892-.218-.9a.852.852 0 0 1 .1.22c.057.147.131.367.217.653a14.507 14.507 0 0 1 .5 2.482 15.686 15.686 0 0 1 .1 1.75c0 .315-.008.641-.029.977a3.2 3.2 0 0 1-.175 1.051 1.038 1.038 0 0 1-.379.461.724.724 0 0 1-.628.09.944.944 0 0 1-.582-1.048 1.809 1.809 0 0 1 3.574.038 1.189 1.189 0 0 1-.077.626.7.7 0 0 1-.48.442.655.655 0 0 1-.607-.21 1.073 1.073 0 0 1-.261-.534 19.425 19.425 0 0 1 .222-6.274c.061-.292.114-.518.157-.67a.851.851 0 0 1 .084-.223z" class="cls-5" transform="translate(-377.029 -93.82)"/>
                </g>
            </g>
            <g id="Group_8457" transform="translate(25.173 -58.204)">
                <g id="Group_8456">
                    <path id="Path_13973" d="M380.5 4.2c.009 0 .018.334.026.968l.025 2.774.041 10.2.038 33.658-.038 33.664-.041 10.2-.025 2.774c-.008.634-.017.967-.026.967s-.017-.333-.026-.967l-.024-2.774-.041-10.2-.038-33.664.038-33.658.041-10.2.024-2.774c.006-.632.015-.968.026-.968z" class="cls-5" transform="translate(-380.368 -4.202)"/>
                </g>
            </g>
            <g id="Group_8458" transform="translate(21.802 31.392)">
                <path id="Path_13974" d="M373.615 73.144l1.352-6.052h4.492l1.146 6.052z" class="cls-5" transform="translate(-373.615 -67.092)"/>
            </g>
        </g>
        <g id="Group_9658" transform="translate(905 189.396)">
            <g id="Group_8328" transform="translate(2.273 0.223)">
                <g id="Group_8327">
                    <path id="Path_13950" d="M586.658 150.492s-.008-.378-.012-1.1-.007-1.793-.012-3.186l-.027-12.092-.056-43.317.108.108-75.021.022h-.007l.13-.13-.014 59.7-.116-.117 54.2.058 15.353.031 4.068.014 1.049.007c.236 0 .359.007.359.007s-.114 0-.346.006l-1.036.007-4.046.013-15.326.031-54.274.058h-.116v-.116c0-17.777-.009-38.145-.014-59.7v-.13h.137l75.021.022h.108v.112l-.056 43.385-.028 12.068-.012 3.165c-.002.72-.014 1.074-.014 1.074z" class="cls-6" transform="translate(-511.5 -90.666)"/>
                </g>
            </g>
            <g id="Group_8428" transform="translate(10.817 11.417)">
                <g id="Group_8332" transform="translate(1.285)">
                    <g id="Group_8331">
                        <g id="Group_8330">
                            <g id="Group_8329">
                                <path id="Rectangle_2470" d="M0 0H2.713V30.298H0z" class="cls-6"/>
                            </g>
                        </g>
                    </g>
                </g>
                <g id="Group_8336" transform="translate(6.522 10.291)">
                    <g id="Group_8335">
                        <g id="Group_8334">
                            <g id="Group_8333">
                                <path id="Rectangle_2471" d="M0 0H2.713V20.008H0z" class="cls-6"/>
                            </g>
                        </g>
                    </g>
                </g>
                <g id="Group_8340" transform="translate(11.76 3.766)">
                    <g id="Group_8339">
                        <g id="Group_8338">
                            <g id="Group_8337">
                                <path id="Rectangle_2472" d="M0 0H2.713V26.686H0z" class="cls-6"/>
                            </g>
                        </g>
                    </g>
                </g>
                <g id="Group_8344" transform="translate(16.998 1.17)">
                    <g id="Group_8343">
                        <g id="Group_8342">
                            <g id="Group_8341">
                                <path id="Rectangle_2473" d="M0 0H2.713V29.128H0z" class="cls-6"/>
                            </g>
                        </g>
                    </g>
                </g>
                <g id="Group_8348" transform="translate(22.235 10.906)">
                    <g id="Group_8347">
                        <g id="Group_8346">
                            <g id="Group_8345">
                                <path id="Rectangle_2474" d="M0 0H2.713V19.392H0z" class="cls-6"/>
                            </g>
                        </g>
                    </g>
                </g>
                <g id="Group_8352" transform="translate(27.473 14.71)">
                    <g id="Group_8351">
                        <g id="Group_8350">
                            <g id="Group_8349">
                                <path id="Rectangle_2475" d="M0 0H2.713V15.589H0z" class="cls-6"/>
                            </g>
                        </g>
                    </g>
                </g>
                <g id="Group_8356" transform="translate(32.71 3.11)">
                    <g id="Group_8355">
                        <g id="Group_8354">
                            <g id="Group_8353">
                                <path id="Rectangle_2476" d="M0 0H2.713V27.189H0z" class="cls-6"/>
                            </g>
                        </g>
                    </g>
                </g>
                <g id="Group_8360" transform="translate(37.948 8.012)">
                    <g id="Group_8359">
                        <g id="Group_8358">
                            <g id="Group_8357">
                                <path id="Rectangle_2477" d="M0 0H2.713V22.287H0z" class="cls-6"/>
                            </g>
                        </g>
                    </g>
                </g>
                <g id="Group_8364" transform="translate(43.186 4.095)">
                    <g id="Group_8363">
                        <g id="Group_8362">
                            <g id="Group_8361">
                                <path id="Rectangle_2478" d="M0 0H2.713V26.204H0z" class="cls-6"/>
                            </g>
                        </g>
                    </g>
                </g>
                <g id="Group_8368" transform="translate(48.423 12.446)">
                    <g id="Group_8367">
                        <g id="Group_8366">
                            <g id="Group_8365">
                                <path id="Rectangle_2479" d="M0 0H2.713V17.852H0z" class="cls-6"/>
                            </g>
                        </g>
                    </g>
                </g>
                <g id="Group_8372" transform="translate(53.661 9.049)">
                    <g id="Group_8371">
                        <g id="Group_8370">
                            <g id="Group_8369">
                                <path id="Rectangle_2480" d="M0 0H2.713V21.249H0z" class="cls-6"/>
                            </g>
                        </g>
                    </g>
                </g>
                <g id="Group_8377" transform="translate(0 32.297)">
                    <g id="Group_8376">
                        <g id="Group_8375">
                            <g id="Group_8374">
                                <g id="Group_8373">
                                    <path id="Path_13951" d="M586.1 177.907c0 .061-12.869.111-28.739.111s-28.742-.05-28.742-.111 12.866-.112 28.742-.112 28.739.05 28.739.112z" class="cls-6" transform="translate(-528.617 -177.795)"/>
                                </g>
                            </g>
                        </g>
                    </g>
                </g>
                <g id="Group_8382" transform="translate(1.128 34.682)">
                    <g id="Group_8381">
                        <g id="Group_8380">
                            <g id="Group_8379">
                                <g id="Group_8378">
                                    <path id="Path_13952" d="M534.9 182.685a18.26 18.26 0 0 1-4.027 0 18.186 18.186 0 0 1 4.027 0z" class="cls-6" transform="translate(-530.877 -182.573)"/>
                                </g>
                            </g>
                        </g>
                    </g>
                </g>
                <g id="Group_8387" transform="translate(7.021 34.803)">
                    <g id="Group_8386">
                        <g id="Group_8385">
                            <g id="Group_8384">
                                <g id="Group_8383">
                                    <path id="Path_13953" d="M547.494 182.928a26.059 26.059 0 0 1-4.812 0 25.952 25.952 0 0 1 4.812 0z" class="cls-6" transform="translate(-542.682 -182.816)"/>
                                </g>
                            </g>
                        </g>
                    </g>
                </g>
                <g id="Group_8392" transform="translate(12.717 34.803)">
                    <g id="Group_8391">
                        <g id="Group_8390">
                            <g id="Group_8389">
                                <g id="Group_8388">
                                    <path id="Path_13954" d="M558.906 182.928a26.057 26.057 0 0 1-4.812 0 25.951 25.951 0 0 1 4.812 0z" class="cls-6" transform="translate(-554.094 -182.816)"/>
                                </g>
                            </g>
                        </g>
                    </g>
                </g>
                <g id="Group_8397" transform="translate(18.413 34.803)">
                    <g id="Group_8396">
                        <g id="Group_8395">
                            <g id="Group_8394">
                                <g id="Group_8393">
                                    <path id="Path_13955" d="M570.317 182.928a26.058 26.058 0 0 1-4.812 0 25.952 25.952 0 0 1 4.812 0z" class="cls-6" transform="translate(-565.505 -182.816)"/>
                                </g>
                            </g>
                        </g>
                    </g>
                </g>
                <g id="Group_8402" transform="translate(24.109 34.803)">
                    <g id="Group_8401">
                        <g id="Group_8400">
                            <g id="Group_8399">
                                <g id="Group_8398">
                                    <path id="Path_13956" d="M581.729 182.928a26.057 26.057 0 0 1-4.812 0 25.951 25.951 0 0 1 4.812 0z" class="cls-6" transform="translate(-576.917 -182.816)"/>
                                </g>
                            </g>
                        </g>
                    </g>
                </g>
                <g id="Group_8407" transform="translate(29.805 34.803)">
                    <g id="Group_8406">
                        <g id="Group_8405">
                            <g id="Group_8404">
                                <g id="Group_8403">
                                    <path id="Path_13957" d="M593.141 182.928a26.059 26.059 0 0 1-4.812 0 25.952 25.952 0 0 1 4.812 0z" class="cls-6" transform="translate(-588.329 -182.816)"/>
                                </g>
                            </g>
                        </g>
                    </g>
                </g>
                <g id="Group_8412" transform="translate(35.501 34.803)">
                    <g id="Group_8411">
                        <g id="Group_8410">
                            <g id="Group_8409">
                                <g id="Group_8408">
                                    <path id="Path_13958" d="M604.552 182.928a26.057 26.057 0 0 1-4.812 0 25.951 25.951 0 0 1 4.812 0z" class="cls-6" transform="translate(-599.74 -182.816)"/>
                                </g>
                            </g>
                        </g>
                    </g>
                </g>
                <g id="Group_8417" transform="translate(41.198 34.803)">
                    <g id="Group_8416">
                        <g id="Group_8415">
                            <g id="Group_8414">
                                <g id="Group_8413">
                                    <path id="Path_13959" d="M615.964 182.928a26.059 26.059 0 0 1-4.812 0 25.953 25.953 0 0 1 4.812 0z" class="cls-6" transform="translate(-611.152 -182.816)"/>
                                </g>
                            </g>
                        </g>
                    </g>
                </g>
                <g id="Group_8422" transform="translate(46.894 34.803)">
                    <g id="Group_8421">
                        <g id="Group_8420">
                            <g id="Group_8419">
                                <g id="Group_8418">
                                    <path id="Path_13960" d="M627.376 182.928a26.059 26.059 0 0 1-4.812 0 25.953 25.953 0 0 1 4.812 0z" class="cls-6" transform="translate(-622.564 -182.816)"/>
                                </g>
                            </g>
                        </g>
                    </g>
                </g>
                <g id="Group_8427" transform="translate(52.59 34.803)">
                    <g id="Group_8426">
                        <g id="Group_8425">
                            <g id="Group_8424">
                                <g id="Group_8423">
                                    <path id="Path_13961" d="M638.788 182.928a26.058 26.058 0 0 1-4.812 0 25.952 25.952 0 0 1 4.812 0z" class="cls-6" transform="translate(-633.976 -182.816)"/>
                                </g>
                            </g>
                        </g>
                    </g>
                </g>
            </g>
            <g id="Group_8429">
                <path id="Rectangle_2481" d="M0 0H79.56V2.244H0z" class="cls-6"/>
            </g>
        </g>
        <g id="Group_9659" transform="translate(-158.695 -412.896)">
            <g id="Group_7474" transform="translate(1250.159 672.981)">
                <path id="Path_13843" d="M2459.119 1015.046a6.166 6.166 0 0 0-4.875-.522c-8.282-.973-10.7 8.686-10.586 12.01s.491 6.893-3.207 11.21c-10.684 12.472 11.692 13.022 11.692 13.022.189-9.964 12.134-6.329 11.61-5.319 15.31 3.675 1.521-27.207-4.634-30.401z" class="cls-7" transform="translate(-2418.409 -1014.251)"/>
                <path id="Path_13844" d="M2361.872 1191.965s-1.457-2.217-2.63-2.261-3.347-.652-3.174-.218 1.522.478 1.652.739-2 .652-2.608.7-2.043 0-2 .3 2.586 1.565 4.38 1.391a12.168 12.168 0 0 1 4.011.522z" class="cls-8" transform="translate(-2353.111 -1149.629)"/>
                <path id="Path_13845" d="M2409.795 1143.737a21.826 21.826 0 0 1-2.228 3.369c-1.73 2.167-4.4 4.672-7.75 5.166a8.316 8.316 0 0 1-4.6-.747h-.005a21 21 0 0 1-7.129-5.961 3.345 3.345 0 0 1 .457-3.283s8.217 1.848 9 1.457 5.347-13.542 6.434-15.194 4.792-2.511 4.792-2.511z" class="cls-9" transform="translate(-2379.97 -1100.684)"/>
                <path id="Path_13846" d="M2432.686 1204.117c-1.73 2.167-4.4 4.672-7.75 5.166a8.315 8.315 0 0 1-4.6-.747c.159.021 4.223.523 5.843-2.375 1.652-2.957 3.439-7.652 5.894-6.087 1.055.676 1.008 2.354.613 4.043z" class="cls-10" transform="translate(-2405.088 -1157.695)"/>
                <path id="Path_13847" d="M2588.847 1591.549s2.508 2.288 2.018 3.914-2.752 2.71-3.058 4.7-1.529 3.071-2.63 3.071h-5.248s-.81-1.4 1.147-1.82 2.695-2.756 2.572-4.924a38.24 38.24 0 0 1 .184-5.058l4.158-.964z" class="cls-11" transform="translate(-2528.367 -1459.799)"/>
                <path id="Path_13848" d="M2477.525 1599.528s.9 9.693-.2 10.235l-14.087-.029s0-1.626 2.263-1.987 6.238-1.686 6.91-4.636 5.114-3.583 5.114-3.583z" class="cls-11" transform="translate(-2438.266 -1466.807)"/>
                <path id="Path_13849" d="M2489.681 1132.949c-2.9-6.5-4.673-8.367-4.334-10.385.252-1.5-.767-28-.767-28-.344-.107-1.033-.2-1.41-.286a3.538 3.538 0 0 1-2.583-2.246 18.043 18.043 0 0 1-.876-5.979l-.371.073-6.244 1.237s.142 1.965.146 3.816v.046a3.591 3.591 0 0 1-2.592 3.473c-.788.228-1.475.422-1.475.422a57.276 57.276 0 0 0-2.731 13.27c-.437 6.724 4.169 9.646-.035 23.083-4.292 13.727 24.874 5.069 23.272 1.476z" class="cls-8" transform="translate(-2440.383 -1069.77)"/>
                <path id="Path_13850" d="M2497.363 1087.611s.142 1.965.146 3.816c3.494-.1 5.341-3.286 6.1-5.052z" class="cls-12" transform="translate(-2464.651 -1070.02)"/>
                <path id="Path_13851" d="M2482.83 1051.994s8.267.136 8.272-5.013 1.077-8.6-4.2-8.9-6.306 1.659-6.725 3.377.503 10.367 2.653 10.536z" class="cls-8" transform="translate(-2451.285 -1032.649)"/>
                <path id="Path_13852" d="M2493.567 1034.058s2.263 6.041 5.737 6.934 4.98-.037 4.98-.037a9.836 9.836 0 0 1-3.217-5.811s-5.793-3.961-7.5-1.086z" class="cls-7" transform="translate(-2461.716 -1028.757)"/>
                <path id="Path_13853" d="M2481.768 1036.43a5.131 5.131 0 0 0-2.369 1.852 8.326 8.326 0 0 0-1.117 4.727s-1.705-4.106.211-6.429c2.032-2.463 3.275-.15 3.275-.15z" class="cls-7" transform="translate(-2449.357 -1030.639)"/>
                <path id="Path_13854" fill="#dde8fd" d="M2489.969 1084.485a2.077 2.077 0 0 1-1.711.7 1.52 1.52 0 0 1-1.274-.841 5.552 5.552 0 0 1 2.985.141z" transform="translate(-2456.626 -1068.335)"/>
                <path id="Path_13855" d="M2487.239 1135.3a56.1 56.1 0 0 1 0 6.511c-.14 2.354-2.521 5.508-2.859 6.288-.848 1.957-1.8 2.275-1.8 2.275l-7.4 1.813-2.6.637-8.2-2.45s-3.736-10.426-2.236-16.3a45.12 45.12 0 0 1 3.792-9.945s6.692 6.553 15.406-.556z" class="cls-9" transform="translate(-2437.143 -1098.789)"/>
                <path id="Path_13856" fill="#fa7269" d="M2519.787 1200.106a23.039 23.039 0 0 1-.694 5.327c-.848 1.957-1.8 2.275-1.8 2.275l-7.4 1.813-3.212-.945s10.724-1.625 9.535-10.851z" transform="translate(-2471.855 -1156.119)"/>
                <path id="Path_13857" fill="#0e0068" d="M2460.752 1248.727s-4.061 12.642-4.323 16.946 7.764 61.143 8.087 63.126c.3 1.87 2.626 3.061 2.626 3.061a3.513 3.513 0 0 0 2.591.2 6.416 6.416 0 0 0 2.783-1.312s3.161-40.537 1.2-55.018a229.366 229.366 0 0 1-1.979-27z" transform="translate(-2432.996 -1195.556)"/>
                <path id="Path_13858" d="M2497.279 1247.065s6.2 8.312 6.773 13.931.906 25.357 2.136 30.835 5.751 16.02 5.751 33.105a3.408 3.408 0 0 1-1.921 1.5 15.881 15.881 0 0 1-1.689.467 2.657 2.657 0 0 1-2.971-1.41c-3.056-6.154-12.792-26-13.291-30.122-.353-2.916-3.427-22.213-10.133-33.536-1.61-2.718.988-13.529.988-13.529z" class="cls-16" transform="translate(-2452.315 -1194.27)"/>
                <path id="Path_13859" d="M2489.512 1084.754s-.143.607-1.653.513c0 0-1.267-.078-1.229-.745a4.077 4.077 0 0 1 2.882.232z" class="cls-3" transform="translate(-2456.352 -1068.466)"/>
                <path id="Path_13860" d="M2471.865 1240.12a8.515 8.515 0 0 0 4.87 1.355c3.869.078 13.455-.986 13.455-.986a7.923 7.923 0 0 1 .409 2.447s-11.709 2.954-18.493.432a4.289 4.289 0 0 1-.241-3.248z" class="cls-11" transform="translate(-2444.757 -1188.9)"/>
                <g id="Group_7473" transform="translate(29.284 51.913)">
                    <path id="Path_13861" d="M2484.011 1247.172a2.013 2.013 0 1 1 1.765-2 1.895 1.895 0 0 1-1.765 2zm0-3.411a1.436 1.436 0 1 0 1.18 1.413 1.314 1.314 0 0 0-1.18-1.413z" class="cls-3" transform="translate(-2482.246 -1243.176)"/>
                </g>
                <path id="Rectangle_2408" fill="#9e332e" d="M0 0H15.906V21.773H0z" transform="translate(31.744 47.532) rotate(-41.047)"/>
                <path id="Path_13862" d="M2526.59 1250.373s-4.4.514-4.381 1.557 1.1 3.187 1.638 3.282 3.577-2.9 3.577-2.9z" class="cls-8" transform="translate(-2483.863 -1196.828)"/>
                <path id="Path_13863" d="M2538.932 1123.581s5.868.412 8.117 5.88 6.517 14.649 6.517 16.193-2.384 6.306-15.187 9.043c0 0-1.324-1.393-1.244-2.495 0 0 7.992-6.865 7.971-7.667-.04-1.517-1.31-3.521-8.327-10.54-1.908-1.908 2.153-10.414 2.153-10.414z" class="cls-9" transform="translate(-2494.735 -1098.789)"/>
            </g>
            <g id="Group_7476" transform="translate(1332.803 628.086) rotate(48)">
                <path id="Path_13864" d="M2671.616 975.335l3.5 12.231a1.576 1.576 0 0 1-1.08 1.946l-21.241 6.078a1.575 1.575 0 0 1-1.945-1.081l-3.5-12.226a1.573 1.573 0 0 1 1.079-1.946l21.241-6.078a1.574 1.574 0 0 1 1.946 1.076z" class="cls-10" transform="translate(-2647.29 -974.198)"/>
                <g id="Group_7475" transform="translate(0 0)">
                    <path id="Path_13865" d="M2688.1 1025.391a1.573 1.573 0 0 1-1.137 1.407l-21.241 6.078a1.573 1.573 0 0 1-1.714-.6l10.819-9.856z" class="cls-18" transform="translate(-2660.217 -1011.484)"/>
                    <path id="Path_13866" d="M2671.616 975.335l-9.51 11.809-14.576-4.234-.179-.625a1.573 1.573 0 0 1 1.079-1.946l21.241-6.078a1.574 1.574 0 0 1 1.945 1.074z" class="cls-9" transform="translate(-2647.29 -974.198)"/>
                </g>
            </g>
            <g id="Group_7480" transform="translate(1154.332 733.325)">
                <g id="Group_7477" transform="translate(17.727 40.001)">
                    <path id="Path_13867" d="M2009.4 1499.5h-.06a.636.636 0 0 1-.636-.65l.964-41.769 2.839-.331-2.421 42.1a.687.687 0 0 1-.686.65z" class="cls-9" transform="translate(-2008.703 -1456.752)"/>
                </g>
                <g id="Group_7478" transform="translate(1.185 40.001)">
                    <path id="Path_13868" d="M1936.451 1499.5h-.061a.636.636 0 0 1-.635-.65l.964-41.769 2.839-.331-2.421 42.1a.687.687 0 0 1-.686.65z" class="cls-19" transform="translate(-1935.755 -1456.752)"/>
                </g>
                <g id="Group_7479" transform="translate(44.422 40.001)">
                    <path id="Path_13869" d="M2129.531 1499.5h.061a.636.636 0 0 0 .635-.65l-.964-41.769-2.838-.331 2.421 42.1a.687.687 0 0 0 .685.65z" class="cls-9" transform="translate(-2126.425 -1456.752)"/>
                </g>
                <path id="Path_13870" d="M1930.531 1318.1v-28.622a9.119 9.119 0 0 1 9.119-9.119h20.622a9.119 9.119 0 0 1 9.119 9.119v29.716z" class="cls-10" transform="translate(-1930.531 -1280.356)"/>
                <path id="Rectangle_2409" d="M0 0h42.554v4.519H4.519A4.519 4.519 0 0 1 0 0z" class="cls-19" transform="translate(0 37.742)"/>
                <path id="Rectangle_2410" d="M2.259 0h29.653a2.259 2.259 0 0 1 2.259 2.259 2.259 2.259 0 0 1-2.259 2.259H2.259A2.259 2.259 0 0 1 0 2.26 2.259 2.259 0 0 1 2.259 0z" class="cls-9" transform="translate(15.178 37.742)"/>
            </g>
            <g id="Group_7484" transform="translate(1151.607 691.403)">
                <path id="Path_13871" d="M2058.619 1412.467a19.178 19.178 0 0 1-6.67 7.126h-15.458s24.382-11.049 22.128-7.126z" class="cls-20" transform="translate(-2009.738 -1339.935)"/>
                <g id="Group_7481" transform="translate(0)">
                    <path id="Path_13872" d="M2080.462 1547.05a1.428 1.428 0 0 0-.255 1.528.011.011 0 0 0 0 .007 9.5 9.5 0 0 0 3 3.293c.181.146.342.278.481.4.037.032.074.065.108.1l.083.075c1.319 1.216.823 1.495 3.193 3.962 2.7 2.812 4.564 2.863 5.093 2.607.448-.218-.462-1.71-1.47-3.386-.049-.081-.1-.163-.147-.244-.134-.223-.268-.449-.4-.673-1.181-2.018-.878-2.964-.6-5.967.228-2.44 3.8-13.631 3.8-13.631l-5.179-.892s-1.56 8.911-3.278 10.284c-.919.732-1.948.741-2.831 1.283-.062.038-.124.076-.184.116a6.779 6.779 0 0 0-1.414 1.138z" class="cls-8" transform="translate(-2043.453 -1434.736)"/>
                    <path id="Path_13873" d="M2080.462 1586.49a1.428 1.428 0 0 0-.255 1.528.011.011 0 0 0 0 .007 11.007 11.007 0 0 0 3.006 3.282c.179.148.336.284.477.412.037.032.074.065.108.1l.083.075c1.319 1.216.823 1.495 3.193 3.963 2.7 2.812 4.564 2.863 5.093 2.607.448-.218-.462-1.71-1.47-3.386a11.517 11.517 0 0 1-4.818-3.55c-1.628-2.077-2.713-4.745-3.821-6.291-.062.038-.124.076-.184.116a6.779 6.779 0 0 0-1.412 1.137z" class="cls-11" transform="translate(-2043.453 -1474.177)"/>
                    <path id="Path_13874" d="M2251.764 1538.44c.32 1.6 2.6 1.332 5.145.71s1.941.117 5.565-.284 4.722-1.752 4.832-2.291c.1-.478-1.691-.646-3.612-.868-.241-.027-.484-.057-.727-.087-2.168-.272-3.756-1.671-5.726-2.82-1.865-1.088-4.65-5.523-4.65-5.523l-4.969.394s2.608 3.961 3.617 5.683a6.007 6.007 0 0 1 .488 3.387 6.368 6.368 0 0 0 .037 1.699z" class="cls-8" transform="translate(-2172.991 -1429.361)"/>
                    <path id="Path_13875" d="M2270.775 1567.9c2.546-.622 1.941.117 5.565-.284s4.721-1.752 4.832-2.291c.1-.478-1.691-.646-3.612-.868l-.018.037a10.214 10.214 0 0 1-5.189 1.613c-2.458.06-5.062-.644-6.76-.617a6.368 6.368 0 0 0 .038 1.7c.319 1.595 2.598 1.328 5.144.71z" class="cls-11" transform="translate(-2186.857 -1458.107)"/>
                    <path id="Path_13876" d="M2123.772 1409.213l-4.646 12.5-6.065 16.322a9.823 9.823 0 0 1-3.222-.294 13.988 13.988 0 0 1-3.116-1.517s1.684-17.526 4.826-27.586a17.912 17.912 0 0 1 2.7-5.847c4.873-5.754 9.523 6.422 9.523 6.422z" class="cls-20" transform="translate(-2064.043 -1331.911)"/>
                    <path id="Path_13877" d="M2007.856 1340.316c-3.043-.982-11.724.279-20.444 1.986l-1.826-3.011-18.835-1.471s-6.215 13.783-2.812 22.565a3.184 3.184 0 0 0 3.188 2.146h.275s11.21-.006 14.85-.006c9.367 0 19.823-6.439 21.176-6.709 2.214-.443 3.1 3.985 5.313 8.635s20.812 20.591 20.812 20.591a16.377 16.377 0 0 0 4.039-.414 3.979 3.979 0 0 0 1.734-1.1s-20.606-40.998-27.47-43.212z" class="cls-16" transform="translate(-1952.851 -1282.866)"/>
                    <path id="Path_13878" d="M1950.745 1097.068c-2.412-1.267-6.084-1.438-6.68-1.518-7.137-.959-11.433 9.412-11.686 12.554-.465 5.792-3.53 6.675-7.843 10.3-8.648 7.273-6.112 15.725-1.383 18.866 2.837 1.884 7.838 0 7.838 0 .071.049 13.677-7.606 20.384-11.3 10.055-1.426 5.518-25.67-.63-28.902z" class="cls-11" transform="translate(-1918.75 -1095.488)"/>
                    <path id="Path_13879" d="M2006.3 1180.1c.029.019-3.3 1.156-5.526.169-2.095-.926-3.681-4.371-3.65-4.373.953-.044 2-.877 2.8-6.342l.406.145 6.821 2.454s-.494 2.189-.814 4.273c-.261 1.754-.406 3.43-.037 3.674z" class="cls-21" transform="translate(-1979.3 -1152.761)"/>
                    <path id="Path_13880" d="M2018.106 1172.654s-.494 2.189-.814 4.272c-3.918-.705-5.456-4.609-6.007-6.727z" class="cls-12" transform="translate(-1990.248 -1153.257)"/>
                    <path id="Path_13881" d="M2016.792 1134.626s-9.333-1.253-8.463-7.053.25-9.868 6.246-9.313 6.819 2.941 7 4.947-2.334 11.593-4.783 11.419z" class="cls-22" transform="translate(-1987.917 -1113.057)"/>
                    <path id="Path_13882" d="M2012.1 1118.28s-5.974 5.149-10.038 5.564-5.6-.889-5.6-.889a15.873 15.873 0 0 0 3.837-5.2 2.858 2.858 0 0 1 2.356-1.685c2.902-.249 8.403-.363 9.445 2.21z" class="cls-11" transform="translate(-1978.787 -1111.309)"/>
                    <path id="Path_13883" d="M2048.965 1120.389a14.711 14.711 0 0 1 2.628 3.366 11.3 11.3 0 0 1 .306 6.005s3.114-6.055 1.351-9c-1.869-3.116-4.285-.371-4.285-.371z" class="cls-11" transform="translate(-2019.383 -1113.879)"/>
                    <path id="Path_13884" d="M1986.853 1214.728c-.282 18.892-.078 14.944-2.144 16.737-.5.432-1.9.689-3.74.81-5.793.385-15.976-.57-16.363-1.64-1.336-3.7-.393-4.855-1.508-10.526-.116-.6-.26-1.256-.429-1.967-.93-3.9-1.834-5.22 1.464-11.478 2.99-5.668 6.1-10.269 6.376-10.1 7.89 4.683 8.526.747 8.526.747s7.956 8.202 7.818 17.417z" class="cls-9" transform="translate(-1951.991 -1173.638)"/>
                    <path id="Path_13885" d="M2119.126 1446.92l-6.065 16.322a9.823 9.823 0 0 1-3.222-.294 13.988 13.988 0 0 1-3.116-1.517s1.684-17.525 4.826-27.586z" class="cls-16" transform="translate(-2064.043 -1357.117)"/>
                    <path id="Path_13886" d="M2037.776 1199.864s8.118 1.377 9.072 4.872l6.563 24.044s-4.127.741-6.034-1.165-6.634-17.689-6.634-17.689z" class="cls-9" transform="translate(-2010.732 -1176.195)"/>
                    <path id="Path_13887" d="M1985.364 1285.756c-5.793.385-15.976-.57-16.363-1.64-1.336-3.7-.393-4.855-1.508-10.526l2.794-7.868s-.462 8.761 2.122 11.066 10.579 4.448 11.834 6.374a7.046 7.046 0 0 1 1.121 2.594z" class="cls-10" transform="translate(-1956.386 -1227.119)"/>
                    <path id="Path_13888" d="M2017.032 1334.8s5.715-1.272 6.638-.765a13.433 13.433 0 0 1 3.458 3c.282.643-2.053-.488-2.813-.692a6.764 6.764 0 0 0-2.427.532 8.065 8.065 0 0 1-4.35.437z" class="cls-8" transform="translate(-1994.692 -1279.85)"/>
                    <path id="Path_13889" d="M1937.028 1196.558s-7.674.473-10.33 4.177c-3.739 5.216-11.158 27.444-6.906 30.408 4.788 3.339 21.79.874 21.79.874s.566-2.645-.221-3.924-13.58-3.346-14.171-3.936 7.38-11.514 7.38-13.285 2.458-14.314 2.458-14.314z" class="cls-9" transform="translate(-1918.515 -1173.639)"/>
                    <path id="Path_13890" d="M2047.522 1341.459a11.048 11.048 0 0 0 1.59 1.729 1.173 1.173 0 0 0 .646.138l-.807-1.453z" class="cls-8" transform="translate(-2018.267 -1285.681)"/>
                    <path id="Path_13891" d="M2046.3 1334.444l3.481 1.691a.619.619 0 0 1-.577.223 8.3 8.3 0 0 1-1.51-.415z" class="cls-8" transform="translate(-2017.324 -1280.257)"/>
                </g>
                <g id="Group_7483" transform="translate(22.34 39.272)">
                    <g id="Group_7482">
                        <path id="Path_13892" d="M2054.533 1289.272h27.54l8.285-20.6h-27.5z" class="cls-23" transform="translate(-2046.029 -1268.671)"/>
                        <path id="Path_13893" fill="#d9d9d9" d="M2053.4 1355.979h-36.367v1.114l35.919.012z" transform="translate(-2017.032 -1336.18)"/>
                    </g>
                    <path id="Path_13894" d="M2136.2 1309.624a.954.954 0 0 0-.935-1.311 1.879 1.879 0 0 0-1.687 1.311.954.954 0 0 0 .936 1.311 1.879 1.879 0 0 0 1.686-1.311z" class="cls-3" transform="translate(-2107.107 -1299.323)"/>
                </g>
            </g>
            <g id="Group_7489" transform="translate(1053.144 682.189)">
                <path id="Rectangle_2411" d="M1.9 0a1.9 1.9 0 0 1 1.9 1.9v39.032a1.9 1.9 0 0 1-1.9 1.9 1.9 1.9 0 0 1-1.9-1.9V1.9A1.9 1.9 0 0 1 1.9 0z" class="cls-18" transform="translate(0 49.587)"/>
                <g id="Group_7485" transform="translate(1.185 91.137)">
                    <path id="Path_13895" d="M1490.232 1499.5h-.061a.636.636 0 0 1-.635-.65l.964-41.769 2.839-.331-2.421 42.1a.687.687 0 0 1-.686.65z" class="cls-18" transform="translate(-1489.536 -1456.752)"/>
                </g>
                <g id="Group_7486" transform="translate(44.422 91.137)">
                    <path id="Path_13896" d="M1683.311 1499.5h.061a.636.636 0 0 0 .635-.65l-.964-41.769-2.839-.331 2.421 42.1a.687.687 0 0 0 .686.65z" class="cls-18" transform="translate(-1680.205 -1456.752)"/>
                </g>
                <path id="Path_13897" d="M1531.637 1446.789h-47.326v1.781a2.738 2.738 0 0 0 2.738 2.738h44.588a2.025 2.025 0 0 0 2.025-2.025v-.469a2.025 2.025 0 0 0-2.025-2.025z" class="cls-18" transform="translate(-1484.311 -1357.911)"/>
                <path id="Path_13898" d="M1796.955 1597.782s-.7 8.661.854 8.776c.206.015 7.866.015 7.866.015l9.777-.057a3.173 3.173 0 0 0-2.922-2.854c-2.858-.5-8.515-2.9-10.246-6.68-1.821-3.974-5.329.8-5.329.8z" class="cls-7" transform="translate(-1725.937 -1472.824)"/>
                <path id="Path_13899" d="M1538.1 1377.809s.325 8.511 1.826 11.365h34.574s8.308.86 9.066 1.42c.956.707-3.328 7.72 12.73 35.128l7.866-.2s-8.225-44.449-9.686-45.574c-2.186-1.683-27.769-7.54-32.148-7.668s-24.228 5.529-24.228 5.529z" class="cls-16" transform="translate(-1525.9 -1300.297)"/>
                <path id="Path_13900" d="M1578.718 1126.728a6.615 6.615 0 0 1 2.819 4.945c-6.509 1.683-15.979-5.542-15.979-5.542a15.967 15.967 0 0 0 5.742-9q.118-.468.213-.959a19.54 19.54 0 0 0 .352-3.387l2.99 2.679 4.972 4.454a42.678 42.678 0 0 1-.735 5.027q-.162.831-.374 1.783z" class="cls-21" transform="translate(-1547.134 -1099.648)"/>
                <path id="Path_13901" d="M1548.523 1192.856a9.711 9.711 0 0 0 .444 3.7 4.161 4.161 0 0 1 .1 1.21c-.356 4.017 1.077 4.527.628 5.824a31.726 31.726 0 0 1-4.331 1.957c-1.218.46-2.679.954-4.359 1.418l-.266.072a64.018 64.018 0 0 1-15.278 2.083c-3.692-.1-4.436-9.455-3.067-21.24 2.133-18.359 5.017-27.26 12.619-33.691.479-.405.156.973 2.711 2.205a11.954 11.954 0 0 0 7.418.912l1.739 1.782c3.453 5.454 3.815 11.927 3.521 17.323a158.565 158.565 0 0 1-1.879 16.445z" class="cls-9" transform="translate(-1513.263 -1131.608)"/>
                <path id="Path_13902" d="M1599.813 1129.05s.265-.278-.357 2.9c-5.507-1.593-7.3-4.4-8.036-6.259-.209-.526 2.047-.806 3.422-1.1z" class="cls-12" transform="translate(-1567.12 -1108.781)"/>
                <path id="Path_13903" d="M1597.514 1084.255s-10.625 1.521-11.471-5.11-2.786-10.9 3.962-12.153 8.391 1.11 9.212 3.255 1.039 13.441-1.703 14.008z" class="cls-22" transform="translate(-1562.262 -1063.97)"/>
                <g id="Group_7487" transform="translate(52.659 48.156)">
                    <path id="Rectangle_2412" d="M0 0H0.851V22.295H0z" class="cls-25" transform="translate(23.394 21.532) rotate(-162.625)"/>
                    <path id="Rectangle_2413" d="M0 0H23.396V1.4H0z" class="cls-25" transform="translate(23.394 21.532) rotate(-179.405)"/>
                </g>
                <path id="Path_13904" fill="#17135d" d="M1571.771 1058.011c-.085-.1-.283-.181-.724-.208a1.792 1.792 0 0 1 .827-.226 2.222 2.222 0 0 1 1.491-1.953 1.325 1.325 0 0 0-.65.951c1.234-1.247 3.864-2.142 11.121-1.511 9.565.831 6.362 6.934 5.118 7.654s-4.348-1.306-6.658-1.141-2.775 3.5-3.562 3.949-.472-.355-1.528-.842-1.17 1.268-.873 2.411-1.171 2.639-1.171 2.639l-1.459-1.6c-1.459-1.6-2.792-8.318-2.112-9.744.06-.123.119-.251.18-.379z" transform="translate(-1551.378 -1054.856)"/>
                <path id="Path_13905" d="M1588.859 1276.187a31.707 31.707 0 0 1-4.331 1.957c-12.123-8.844-12.057-29.782-12.123-30.14l15.226 13.407.5 7.742a4.161 4.161 0 0 1 .1 1.21c-.356 4.018 1.077 4.528.628 5.824z" class="cls-10" transform="translate(-1552.428 -1204.204)"/>
                <g id="Group_7488" transform="translate(58.379 59.862)">
                    <path id="Path_13906" d="M1741.753 1321.546a3.761 3.761 0 0 0 2-.324c1.029-.483 4.577-2.007 5.244-1.8s2.843 1.437 3.355 1.671a6.556 6.556 0 0 1 1.418 1.431c-.376.38-1.7-.491-2.288-.474s-4.952 2.4-6.249 2.451a24.945 24.945 0 0 1-3.316-.214z" class="cls-22" transform="translate(-1741.753 -1319.275)"/>
                    <path id="Path_13907" d="M1776.613 1329.588c.011.071 1.595 1.835 2.8 1.276l-1.322-1.306z" class="cls-22" transform="translate(-1768.708 -1327.127)"/>
                    <path id="Path_13908" d="M1750.588 1320.785a22.813 22.813 0 0 0 1.89-1.947s.283.13.3.369a3.174 3.174 0 0 1-.371 1.134z" class="cls-22" transform="translate(-1748.585 -1318.838)"/>
                </g>
                <path id="Path_13909" d="M1579.5 1184.921c-7.8-4.753-17.015 3.551-13.142 11.827 4.49 9.6 11.965 21.3 17.906 21.991 4.234.493 16.333 2.044 21.457 1.089 0 0 2.483.122 1.136-3.876 0 0-16.557-4.615-19.308-8.194-1.474-1.918-3.985-5.8-7.869-22.725-.011-.069-.115-.075-.18-.112z" class="cls-9" transform="translate(-1547.049 -1154.352)"/>
            </g>
            <g id="Group_7493" transform="translate(1096.057 751.574)">
                <g id="Group_7490" transform="translate(195.072 5.444)">
                    <path id="Path_13910" d="M2538.075 1443.9h.084a.878.878 0 0 0 .878-.9l-1.331-57.7-3.922-.457 3.344 58.164a.949.949 0 0 0 .947.893z" class="cls-18" transform="translate(-2533.784 -1384.838)"/>
                </g>
                <g id="Group_7492" transform="translate(0 0)">
                    <g id="Group_7491" transform="translate(5.591 5.444)">
                        <path id="Path_13911" d="M1699.17 1443.9h-.084a.878.878 0 0 1-.878-.9l1.331-57.7 3.921-.457-3.343 58.157a.949.949 0 0 1-.947.9z" class="cls-18" transform="translate(-1698.208 -1384.838)"/>
                    </g>
                    <path id="Rectangle_2414" d="M3.481 0h198.455a3.482 3.482 0 0 1 3.482 3.482 3.481 3.481 0 0 1-3.481 3.481H3.481A3.481 3.481 0 0 1 0 3.482 3.481 3.481 0 0 1 3.481 0z" class="cls-18"/>
                </g>
            </g>
            <g id="Group_7501" transform="translate(1233.286 730.973)">
                <g id="Group_7500">
                    <path id="Path_13924" d="M2314.531 1290.585h-27.54l-8.284-20.6h27.5z" class="cls-23" transform="translate(-2278.706 -1269.983)"/>
                    <path id="Path_13925" d="M2313.816 1357.292h36.367v.8h-36.044z" class="cls-23" transform="translate(-2305.854 -1337.493)"/>
                </g>
                <path id="Path_13926" d="M2345.716 1310.936a.954.954 0 0 1 .935-1.311 1.879 1.879 0 0 1 1.687 1.311.954.954 0 0 1-.935 1.311 1.879 1.879 0 0 1-1.687-1.311z" class="cls-3" transform="translate(-2330.479 -1300.636)"/>
            </g>
            <g id="Group_8187" transform="translate(1309.749 423.044)">
                <g id="Group_8168" transform="translate(16.762 332.463)">
                    <g id="Group_8091" transform="translate(5.461 14.294)">
                        <g id="Group_8090">
                            <g id="Group_8089">
                                <g id="Group_8088">
                                    <path id="Path_13596" d="M48.782 386.951c-3.167 1.106-7.3.118-10.006-1.861a25.325 25.325 0 0 1-6.386-7.687 11.422 11.422 0 0 1-1.69-3.918 4.236 4.236 0 0 1 1.205-3.923c1.7-1.432 4.31-.706 6.243.4a21.531 21.531 0 0 1 10.634 16.994" class="cls-27" transform="translate(-30.63 -368.765)"/>
                                </g>
                            </g>
                        </g>
                    </g>
                    <g id="Group_8095" transform="translate(0 35.036)">
                        <g id="Group_8094">
                            <g id="Group_8093">
                                <g id="Group_8092">
                                    <path id="Path_13597" d="M36.974 426.465c-1.9 2.509-5.169 3.626-8.314 3.771a22.98 22.98 0 0 1-9.192-1.851 3.978 3.978 0 0 1-2.6-2.052 2.61 2.61 0 0 1 .557-2.421 5.422 5.422 0 0 1 2.122-1.447 14.5 14.5 0 0 1 9.252-.5 22.733 22.733 0 0 1 8.174 4.5" class="cls-27" transform="translate(-16.762 -421.442)"/>
                                </g>
                            </g>
                        </g>
                    </g>
                    <g id="Group_8099" transform="translate(16.047)">
                        <g id="Group_8098">
                            <g id="Group_8097">
                                <g id="Group_8096">
                                    <path id="Path_13598" d="M65.127 351.377c-2.622.052-4.606-2.244-5.793-4.582a16.984 16.984 0 0 1-1.561-10.589 4.616 4.616 0 0 1 1.945-3.428 3.457 3.457 0 0 1 3.825.709 7.863 7.863 0 0 1 1.989 3.584 23.967 23.967 0 0 1-.4 14.306" class="cls-27" transform="translate(-57.515 -332.463)"/>
                                </g>
                            </g>
                        </g>
                    </g>
                    <g id="Group_8103" transform="translate(28.17 5.058)">
                        <g id="Group_8102">
                            <g id="Group_8101">
                                <g id="Group_8100">
                                    <path id="Path_13599" d="M92.4 373.663a31.548 31.548 0 0 1-2.574-25.332c.428-1.366 1.236-2.928 2.665-3.019 1.582-.1 2.573 1.663 3.01 3.187 1.533 5.345 1.206 11.024.868 16.574a11.766 11.766 0 0 1-3.968 8.59" class="cls-27" transform="translate(-88.304 -345.308)"/>
                                </g>
                            </g>
                        </g>
                    </g>
                    <g id="Group_8107" transform="translate(36.917 24.635)">
                        <g id="Group_8106">
                            <g id="Group_8105">
                                <g id="Group_8104">
                                    <path id="Path_13600" d="M110.518 406.933a18.28 18.28 0 0 1 10.846-11.5c1.187-.447 2.7-.7 3.581.206.868.891.6 2.38.044 3.492a17.5 17.5 0 0 1-3.816 4.625 15.8 15.8 0 0 1-4.374 3.257c-1.674.732-4.749.919-6.28-.08" class="cls-27" transform="translate(-110.518 -395.027)"/>
                                </g>
                            </g>
                        </g>
                    </g>
                    <g id="Group_8112" transform="translate(9.207 16.998)">
                        <g id="Group_8111">
                            <g id="Group_8110">
                                <g id="Group_8109">
                                    <g id="Group_8108">
                                        <path id="Path_13601" d="M40.145 375.634s.024.027.078.07l.241.187.937.7.68.5c.244.189.5.408.779.634.553.462 1.207.96 1.865 1.586l1.054.958c.365.335.715.713 1.095 1.088.769.74 1.514 1.6 2.316 2.494a53.955 53.955 0 0 1 4.609 6.283 53.945 53.945 0 0 1 3.56 6.933c.439 1.115.878 2.168 1.2 3.187.166.507.347.99.483 1.466l.386 1.37c.265.869.418 1.676.584 2.377.078.352.159.678.219.98l.145.832.208 1.151.059.3a.385.385 0 0 0 .028.1.4.4 0 0 0-.006-.1l-.038-.3c-.041-.282-.1-.669-.169-1.159l-.127-.837c-.054-.3-.13-.632-.2-.986-.156-.706-.3-1.518-.556-2.391l-.374-1.379c-.133-.479-.311-.965-.473-1.474-.312-1.025-.746-2.084-1.182-3.206a52.525 52.525 0 0 0-3.56-6.969 52.515 52.515 0 0 0-4.641-6.3c-.809-.891-1.561-1.753-2.339-2.491-.383-.374-.738-.75-1.107-1.083l-1.066-.951c-.667-.621-1.329-1.112-1.89-1.566-.284-.223-.543-.437-.792-.622l-.692-.488-.961-.669-.253-.169a.4.4 0 0 0-.1-.056z" class="cls-28" transform="translate(-40.145 -375.633)"/>
                                    </g>
                                </g>
                            </g>
                        </g>
                    </g>
                    <g id="Group_8117" transform="translate(3.288 37.252)">
                        <g id="Group_8116">
                            <g id="Group_8115">
                                <g id="Group_8114">
                                    <g id="Group_8113">
                                        <path id="Path_13602" d="M25.113 427.9a1.745 1.745 0 0 0 .307-.051c.2-.036.49-.113.871-.176a24.524 24.524 0 0 1 3.236-.4 23.61 23.61 0 0 1 19.173 7.984 24.5 24.5 0 0 1 2 2.574c.223.315.373.574.488.742a1.729 1.729 0 0 0 .18.254 1.736 1.736 0 0 0-.143-.275c-.1-.175-.243-.443-.456-.765a21.846 21.846 0 0 0-1.956-2.628 23.231 23.231 0 0 0-19.293-8.028 21.81 21.81 0 0 0-3.243.464c-.379.076-.667.166-.864.215a1.726 1.726 0 0 0-.3.09z" class="cls-28" transform="translate(-25.113 -427.07)"/>
                                    </g>
                                </g>
                            </g>
                        </g>
                    </g>
                    <g id="Group_8122" transform="translate(19.794 3.351)">
                        <g id="Group_8121">
                            <g id="Group_8120">
                                <g id="Group_8119">
                                    <g id="Group_8118">
                                        <path id="Path_13603" d="M67.032 340.974a.562.562 0 0 0 .017.118l.071.342.294 1.309c.258 1.137.65 2.777 1.144 4.8.984 4.049 2.415 9.625 3.906 15.8.741 3.092 1.411 6.044 1.989 8.737s1.051 5.128 1.41 7.179c.193 1.023.338 1.954.476 2.77s.249 1.52.333 2.1l.206 1.326.059.344a.5.5 0 0 0 .028.116.506.506 0 0 0-.006-.119l-.038-.347-.167-1.331c-.072-.578-.168-1.285-.3-2.1s-.261-1.751-.445-2.777c-.341-2.056-.81-4.494-1.368-7.193s-1.233-5.653-1.974-8.746c-1.492-6.182-2.945-11.751-3.967-15.791l-1.208-4.784-.332-1.3-.091-.337a.5.5 0 0 0-.037-.116z" class="cls-28" transform="translate(-67.031 -340.974)"/>
                                    </g>
                                </g>
                            </g>
                        </g>
                    </g>
                    <g id="Group_8127" transform="translate(30.056 10.784)">
                        <g id="Group_8126">
                            <g id="Group_8125">
                                <g id="Group_8124">
                                    <g id="Group_8123">
                                        <path id="Path_13604" d="M93.1 396.747a.315.315 0 0 0 .028-.092l.063-.274.22-1.059c.189-.92.44-2.256.726-3.911.573-3.31 1.253-7.906 1.671-13.017.2-2.557.315-5 .365-7.219s.017-4.223-.052-5.9c-.02-.84-.076-1.6-.113-2.264s-.081-1.239-.124-1.707l-.1-1.077-.031-.28a.048.048 0 1 0-.021 0c0 .076.006.168.01.281l.06 1.079c.031.469.065 1.041.089 1.708s.07 1.424.081 2.263c.05 1.677.054 3.675.007 5.893s-.178 4.654-.381 7.207c-.417 5.1-1.072 9.7-1.607 13.01-.267 1.657-.5 3-.66 3.92l-.181 1.066-.042.278a.341.341 0 0 0-.008.095z" class="cls-28" transform="translate(-93.094 -359.85)"/>
                                    </g>
                                </g>
                            </g>
                        </g>
                    </g>
                    <g id="Group_8132" transform="translate(29.726 27.758)">
                        <g id="Group_8131">
                            <g id="Group_8130">
                                <g id="Group_8129">
                                    <g id="Group_8128">
                                        <path id="Path_13605" d="M92.257 423.848a1.476 1.476 0 0 0 .116-.263l.295-.765.21-.553.287-.643.328-.739c.115-.262.265-.526.407-.81l.456-.887.543-.935c.359-.656.823-1.308 1.271-2.018a47.719 47.719 0 0 1 3.366-4.3 52.918 52.918 0 0 1 3.863-3.867c.642-.542 1.23-1.084 1.825-1.538l.846-.674.8-.592c.507-.385.984-.706 1.4-.987s.779-.528 1.084-.711l.693-.439a1.451 1.451 0 0 0 .234-.166 1.455 1.455 0 0 0-.256.129l-.714.406c-.313.173-.683.4-1.106.682s-.912.587-1.426.965l-.814.584-.857.667c-.6.45-1.2.989-1.845 1.529a50.136 50.136 0 0 0-3.892 3.872 45.539 45.539 0 0 0-3.37 4.334c-.446.717-.907 1.375-1.261 2.038l-.536.945-.447.9c-.138.288-.284.555-.395.82l-.315.749-.272.652-.194.562-.258.78a1.435 1.435 0 0 0-.066.273z" class="cls-28" transform="translate(-92.256 -402.959)"/>
                                    </g>
                                </g>
                            </g>
                        </g>
                    </g>
                    <g id="Group_8137" transform="translate(10.865 25.753)">
                        <g id="Group_8136">
                            <g id="Group_8135">
                                <g id="Group_8134">
                                    <g id="Group_8133">
                                        <path id="Path_13606" d="M44.355 397.935c0 .033.542.033 1.412.082a25.271 25.271 0 0 1 6.663 1.265c.827.274 1.33.472 1.343.441a1.329 1.329 0 0 0-.335-.182c-.221-.106-.548-.244-.958-.4a20.089 20.089 0 0 0-6.707-1.274c-.439-.005-.793 0-1.038.021a1.322 1.322 0 0 0-.38.047z" class="cls-28" transform="translate(-44.355 -397.866)"/>
                                    </g>
                                </g>
                            </g>
                        </g>
                    </g>
                    <g id="Group_8142" transform="translate(7.49 37.472)">
                        <g id="Group_8141">
                            <g id="Group_8140">
                                <g id="Group_8139">
                                    <g id="Group_8138">
                                        <path id="Path_13607" d="M35.786 432.447a12.778 12.778 0 0 1 1.84-2.775 12.811 12.811 0 0 1 2.631-2.04 3.133 3.133 0 0 0-.908.4 8.029 8.029 0 0 0-3.229 3.477 3.122 3.122 0 0 0-.334.938z" class="cls-28" transform="translate(-35.783 -427.63)"/>
                                    </g>
                                </g>
                            </g>
                        </g>
                    </g>
                    <g id="Group_8147" transform="translate(18.989 9.525)">
                        <g id="Group_8146">
                            <g id="Group_8145">
                                <g id="Group_8144">
                                    <g id="Group_8143">
                                        <path id="Path_13608" d="M64.99 356.655c-.043.046.78.861 1.678 1.966s1.536 2.072 1.589 2.04a12.581 12.581 0 0 0-3.267-4.006z" class="cls-28" transform="translate(-64.988 -356.653)"/>
                                    </g>
                                </g>
                            </g>
                        </g>
                    </g>
                    <g id="Group_8152" transform="translate(21.067 4.863)">
                        <g id="Group_8151">
                            <g id="Group_8150">
                                <g id="Group_8149">
                                    <g id="Group_8148">
                                        <path id="Path_13609" d="M70.889 344.813a15.514 15.514 0 0 0-.607 3.564 15.571 15.571 0 0 0 .607-3.564z" class="cls-28" transform="translate(-70.265 -344.813)"/>
                                    </g>
                                </g>
                            </g>
                        </g>
                    </g>
                    <g id="Group_8157" transform="translate(30.049 19.496)">
                        <g id="Group_8156">
                            <g id="Group_8155">
                                <g id="Group_8154">
                                    <g id="Group_8153">
                                        <path id="Path_13610" d="M93.079 381.977a44.017 44.017 0 0 0 2.8 5.41 22.162 22.162 0 0 0-1.308-2.754 22.236 22.236 0 0 0-1.492-2.656z" class="cls-28" transform="translate(-93.076 -381.977)"/>
                                    </g>
                                </g>
                            </g>
                        </g>
                    </g>
                    <g id="Group_8162" transform="translate(32.995 14.528)">
                        <g id="Group_8161">
                            <g id="Group_8160">
                                <g id="Group_8159">
                                    <g id="Group_8158">
                                        <path id="Path_13611" d="M102.592 369.36a24.61 24.61 0 0 0-2.029 4.077 24.654 24.654 0 0 0 2.029-4.077z" class="cls-28" transform="translate(-100.558 -369.36)"/>
                                    </g>
                                </g>
                            </g>
                        </g>
                    </g>
                    <g id="Group_8167" transform="translate(42.342 31.097)">
                        <g id="Group_8166">
                            <g id="Group_8165">
                                <g id="Group_8164">
                                    <g id="Group_8163">
                                        <path id="Path_13612" d="M124.3 411.861c.014.06.9-.112 2.008-.188s2.009-.035 2.014-.1a8.06 8.06 0 0 0-4.022.285z" class="cls-28" transform="translate(-124.297 -411.438)"/>
                                    </g>
                                </g>
                            </g>
                        </g>
                    </g>
                </g>
                <g id="Group_8182" transform="translate(38.496 379.005)">
                    <g id="Group_8172" transform="translate(0 0)">
                        <g id="Group_8171">
                            <g id="Group_8170">
                                <g id="Group_8169">
                                    <path id="Path_13613" fill="#1e3d70" d="M87.573 450.664l-2.488 13.085a1.834 1.834 0 0 1-1.8 1.492h-7.352a1.835 1.835 0 0 1-1.81-1.534l-2.163-13.043z" transform="translate(-71.96 -450.664)"/>
                                </g>
                            </g>
                        </g>
                    </g>
                    <g id="Group_8177" transform="translate(0 0)">
                        <g id="Group_8176">
                            <g id="Group_8175">
                                <g id="Group_8174">
                                    <g id="Group_8173">
                                        <path id="Path_13614" d="M86.764 454.916H72.707l-.747-4.253h15.613z" class="cls-28" transform="translate(-71.96 -450.664)"/>
                                    </g>
                                </g>
                            </g>
                        </g>
                    </g>
                    <g id="Group_8181" transform="translate(0.747 4.253)">
                        <g id="Group_8180">
                            <g id="Group_8179">
                                <g id="Group_8178">
                                    <path id="Path_13615" d="M87.915 461.464l-.295 1.551H74.072l-.215-1.551z" class="cls-30" transform="translate(-73.857 -461.464)"/>
                                </g>
                            </g>
                        </g>
                    </g>
                </g>
            </g>
        </g>
        <g id="Group_9660" transform="translate(818.95 282.452)">
            <g id="Group_8286">
                <g id="Group_8283" transform="translate(0.103 0.103)">
                    <path id="Rectangle_2434" d="M0 0H38.685V34.61H0z" class="cls-30"/>
                </g>
                <g id="Group_8285">
                    <g id="Group_8284">
                        <path id="Path_13947" d="M394.4 192.839s-.006-.222-.01-.642-.006-1.045-.01-1.854l-.023-7.026-.045-25.087.087.087-38.681.016.1-.1c0 12.592-.009 24.44-.013 34.61l-.091-.091 27.98.046 7.892.024 2.089.01.539.006h.186s-.057 0-.176.005h-.529l-2.071.01-7.871.024-28.038.046h-.091v-.091c0-10.17-.008-22.018-.012-34.61v-.1h.107l38.681.015h.088v.088l-.045 25.143-.023 7.006c0 .8-.008 1.417-.01 1.837s-.01.628-.01.628z" class="cls-2" transform="translate(-355.614 -158.126)"/>
                    </g>
                </g>
            </g>
            <g id="Group_8288" transform="translate(5.841 6.15)">
                <g id="Group_8287">
                    <path id="Path_13948" d="M376.412 170.549c0 .057-2.037.1-4.547.1s-4.548-.046-4.548-.1 2.036-.1 4.548-.1 4.547.043 4.547.1z" class="cls-2" transform="translate(-367.316 -170.446)"/>
                </g>
            </g>
            <g id="Group_8290" transform="translate(6.341 8.748)">
                <g id="Group_8289">
                    <path id="Path_13949" d="M393.3 175.755c0 .057-5.594.1-12.493.1s-12.494-.046-12.494-.1 5.593-.1 12.494-.1 12.493.045 12.493.1z" class="cls-2" transform="translate(-368.317 -175.652)"/>
                </g>
            </g>
            <g id="Group_8291" transform="translate(5.908 13.253)">
                <path id="Rectangle_2435" d="M0 0H1.63V1.63H0z" class="cls-2"/>
            </g>
            <g id="Group_8292" transform="translate(9.92 13.253)">
                <path id="Rectangle_2436" d="M0 0H1.63V1.63H0z" class="cls-2"/>
            </g>
            <g id="Group_8293" transform="translate(14.006 13.179)">
                <path id="Rectangle_2437" d="M0 0H1.63V1.63H0z" class="cls-2"/>
            </g>
            <g id="Group_8294" transform="translate(17.943 13.253)">
                <path id="Rectangle_2438" d="M0 0H1.63V1.63H0z" class="cls-2"/>
            </g>
            <g id="Group_8295" transform="translate(21.955 13.253)">
                <path id="Rectangle_2439" d="M0 0H1.63V1.63H0z" class="cls-2"/>
            </g>
            <g id="Group_8296" transform="translate(25.967 13.253)">
                <path id="Rectangle_2440" d="M0 0H1.63V1.63H0z" class="cls-2"/>
            </g>
            <g id="Group_8297" transform="translate(29.979 13.253)">
                <path id="Rectangle_2441" d="M0 0H1.63V1.63H0z" class="cls-31"/>
            </g>
            <g id="Group_8298" transform="translate(5.908 16.718)">
                <path id="Rectangle_2442" d="M0 0H1.63V1.63H0z" class="cls-31"/>
            </g>
            <g id="Group_8299" transform="translate(9.92 16.718)">
                <path id="Rectangle_2443" d="M0 0H1.63V1.63H0z" class="cls-2"/>
            </g>
            <g id="Group_8300" transform="translate(13.931 16.718)">
                <path id="Rectangle_2444" d="M0 0H1.63V1.63H0z" class="cls-31"/>
            </g>
            <g id="Group_8301" transform="translate(17.943 16.718)">
                <path id="Rectangle_2445" d="M0 0H1.63V1.63H0z" class="cls-2"/>
            </g>
            <g id="Group_8302" transform="translate(21.955 16.718)">
                <path id="Rectangle_2446" d="M0 0H1.63V1.63H0z" class="cls-2"/>
            </g>
            <g id="Group_8303" transform="translate(26.041 16.644)">
                <path id="Rectangle_2447" d="M0 0H1.63V1.63H0z" class="cls-2"/>
            </g>
            <g id="Group_8304" transform="translate(29.979 16.718)">
                <path id="Rectangle_2448" d="M0 0H1.63V1.63H0z" class="cls-2"/>
            </g>
            <g id="Group_8305" transform="translate(5.908 20.183)">
                <path id="Rectangle_2449" d="M0 0H1.63V1.63H0z" class="cls-2"/>
            </g>
            <g id="Group_8306" transform="translate(9.994 20.109)">
                <path id="Rectangle_2450" d="M0 0H1.63V1.63H0z" class="cls-2"/>
            </g>
            <g id="Group_8307" transform="translate(13.931 20.183)">
                <path id="Rectangle_2451" d="M0 0H1.63V1.63H0z" class="cls-2"/>
            </g>
            <g id="Group_8308" transform="translate(17.943 20.183)">
                <path id="Rectangle_2452" d="M0 0H1.63V1.63H0z" class="cls-31"/>
            </g>
            <g id="Group_8309" transform="translate(21.955 20.183)">
                <path id="Rectangle_2453" d="M0 0H1.63V1.63H0z" class="cls-2"/>
            </g>
            <g id="Group_8310" transform="translate(25.967 20.183)">
                <path id="Rectangle_2454" d="M0 0H1.63V1.63H0z" class="cls-2"/>
            </g>
            <g id="Group_8311" transform="translate(29.979 20.183)">
                <path id="Rectangle_2455" d="M0 0H1.63V1.63H0z" class="cls-2"/>
            </g>
            <g id="Group_8312" transform="translate(5.908 23.648)">
                <path id="Rectangle_2456" d="M0 0H1.63V1.63H0z" class="cls-2"/>
            </g>
            <g id="Group_8313" transform="translate(9.92 23.648)">
                <path id="Rectangle_2457" d="M0 0H1.63V1.63H0z" class="cls-2"/>
            </g>
            <g id="Group_8314" transform="translate(13.931 23.648)">
                <path id="Rectangle_2458" d="M0 0H1.63V1.63H0z" class="cls-2"/>
            </g>
            <g id="Group_8315" transform="translate(18.017 23.574)">
                <path id="Rectangle_2459" d="M0 0H1.63V1.63H0z" class="cls-2"/>
            </g>
            <g id="Group_8316" transform="translate(21.955 23.648)">
                <path id="Rectangle_2460" d="M0 0H1.63V1.63H0z" class="cls-2"/>
            </g>
            <g id="Group_8317" transform="translate(25.967 23.648)">
                <path id="Rectangle_2461" d="M0 0H1.63V1.63H0z" class="cls-31"/>
            </g>
            <g id="Group_8318" transform="translate(29.979 23.648)">
                <path id="Rectangle_2462" d="M0 0H1.63V1.63H0z" class="cls-2"/>
            </g>
            <g id="Group_8319" transform="translate(5.908 27.113)">
                <path id="Rectangle_2463" d="M0 0H1.63V1.63H0z" class="cls-2"/>
            </g>
            <g id="Group_8320" transform="translate(9.92 27.113)">
                <path id="Rectangle_2464" d="M0 0H1.63V1.63H0z" class="cls-31"/>
            </g>
            <g id="Group_8321" transform="translate(13.931 27.113)">
                <path id="Rectangle_2465" d="M0 0H1.63V1.63H0z" class="cls-2"/>
            </g>
            <g id="Group_8322" transform="translate(17.943 27.113)">
                <path id="Rectangle_2466" d="M0 0H1.63V1.63H0z" class="cls-2"/>
            </g>
            <g id="Group_8323" transform="translate(21.955 27.113)">
                <path id="Rectangle_2467" d="M0 0H1.63V1.63H0z" class="cls-2"/>
            </g>
            <g id="Group_8324" transform="translate(26.041 27.039)">
                <path id="Rectangle_2468" d="M0 0H1.63V1.63H0z" class="cls-2"/>
            </g>
            <g id="Group_8325" transform="translate(29.979 27.113)">
                <path id="Rectangle_2469" d="M0 0H1.63V1.63H0z" class="cls-2"/>
            </g>
        </g>
    </g>
</svg>
