<svg width="20" height="20" viewBox="0 0 20 20" fill="none" xmlns="http://www.w3.org/2000/svg">
<path d="M9.9987 12.7507C10.2584 12.7507 10.4763 12.6627 10.6523 12.4867C10.8283 12.3107 10.916 12.0931 10.9154 11.834C10.9148 11.5749 10.8268 11.3573 10.6514 11.1813C10.476 11.0053 10.2584 10.9173 9.9987 10.9173C9.73898 10.9173 9.52142 11.0053 9.34603 11.1813C9.17064 11.3573 9.08264 11.5749 9.08203 11.834C9.08142 12.0931 9.16942 12.311 9.34603 12.4876C9.52264 12.6642 9.7402 12.7519 9.9987 12.7507ZM9.08203 9.08398H10.9154V3.58398H9.08203V9.08398ZM0.832031 19.1673V2.66732C0.832031 2.16315 1.0117 1.73171 1.37103 1.37298C1.73036 1.01426 2.16181 0.834595 2.66536 0.833984H17.332C17.8362 0.833984 18.2679 1.01365 18.6273 1.37298C18.9866 1.73232 19.166 2.16376 19.1654 2.66732V13.6673C19.1654 14.1715 18.986 14.6032 18.6273 14.9626C18.2686 15.3219 17.8368 15.5013 17.332 15.5007H4.4987L0.832031 19.1673ZM3.71953 13.6673H17.332V2.66732H2.66536V14.6986L3.71953 13.6673Z" fill="#000"/>
</svg>
