<svg width="40" height="40" viewBox="0 0 40 40" fill="none" xmlns="http://www.w3.org/2000/svg">
<circle cx="20" cy="20" r="20" fill="#E3ECFF"/>
<path d="M19.9999 30.9375C14.2468 30.9375 9.58325 26.0408 9.58325 20C9.58325 13.9592 14.2468 9.0625 19.9999 9.0625C25.753 9.0625 30.4166 13.9592 30.4166 20C30.4166 26.0408 25.753 30.9375 19.9999 30.9375ZM19.9999 28.75C22.2101 28.75 24.3297 27.8281 25.8925 26.1872C27.4553 24.5462 28.3333 22.3206 28.3333 20C28.3333 17.6794 27.4553 15.4538 25.8925 13.8128C24.3297 12.1719 22.2101 11.25 19.9999 11.25C17.7898 11.25 15.6702 12.1719 14.1074 13.8128C12.5446 15.4538 11.6666 17.6794 11.6666 20C11.6666 22.3206 12.5446 24.5462 14.1074 26.1872C15.6702 27.8281 17.7898 28.75 19.9999 28.75ZM19.9999 14.5312C20.2762 14.5312 20.5411 14.6465 20.7365 14.8516C20.9318 15.0567 21.0416 15.3349 21.0416 15.625V21.0938C21.0416 21.3838 20.9318 21.662 20.7365 21.8671C20.5411 22.0723 20.2762 22.1875 19.9999 22.1875C19.7237 22.1875 19.4587 22.0723 19.2633 21.8671C19.068 21.662 18.9583 21.3838 18.9583 21.0938V15.625C18.9583 15.3349 19.068 15.0567 19.2633 14.8516C19.4587 14.6465 19.7237 14.5312 19.9999 14.5312ZM19.9999 25.4688C19.7237 25.4688 19.4587 25.3535 19.2633 25.1484C19.068 24.9433 18.9583 24.6651 18.9583 24.375C18.9583 24.0849 19.068 23.8067 19.2633 23.6016C19.4587 23.3965 19.7237 23.2812 19.9999 23.2812C20.2762 23.2812 20.5411 23.3965 20.7365 23.6016C20.9318 23.8067 21.0416 24.0849 21.0416 24.375C21.0416 24.6651 20.9318 24.9433 20.7365 25.1484C20.5411 25.3535 20.2762 25.4688 19.9999 25.4688Z" fill="#2B345F"/>
</svg>
