<svg id="svg" version="1.1" xmlns="http://www.w3.org/2000/svg" xmlns:xlink="http://www.w3.org/1999/xlink" width="400" height="400" viewBox="0, 0, 400,400"><g id="svgg"><path id="path0" d="M143.000 86.192 C 142.780 86.263,141.610 86.616,140.400 86.977 C 133.039 89.172,127.389 95.331,125.755 102.946 C 125.369 104.744,125.224 109.804,125.214 121.881 C 125.204 133.142,125.057 138.717,124.749 139.481 C 122.317 145.522,118.516 149.043,113.600 149.812 C 106.142 150.977,104.000 152.622,104.000 157.182 C 104.000 160.776,107.172 164.000,110.707 164.000 C 114.891 164.000,119.940 166.719,122.458 170.327 C 125.130 174.156,125.185 174.607,125.304 193.800 L 125.411 211.000 126.417 213.800 C 129.506 222.399,137.046 228.000,145.534 228.000 C 155.057 228.000,156.181 216.104,146.800 214.608 C 142.965 213.996,140.317 212.065,139.385 209.200 C 139.206 208.650,138.946 200.190,138.807 190.400 L 138.555 172.600 137.496 169.684 C 136.237 166.218,133.437 161.624,131.228 159.400 C 129.259 157.418,129.235 156.910,131.024 155.178 C 133.190 153.082,136.196 148.127,137.455 144.579 L 138.582 141.400 138.833 123.800 C 139.157 101.082,139.133 101.150,147.167 99.568 C 156.122 97.804,154.721 85.899,145.574 86.032 C 144.378 86.049,143.220 86.121,143.000 86.192 M243.383 86.800 C 237.459 89.770,239.013 98.295,245.710 99.569 C 250.187 100.420,252.104 101.828,253.378 105.200 C 253.585 105.750,253.859 114.120,253.985 123.800 C 254.223 141.970,254.323 143.065,256.013 146.095 C 256.226 146.477,256.400 146.984,256.400 147.223 C 256.400 147.461,256.940 148.441,257.600 149.400 C 258.260 150.359,258.800 151.256,258.800 151.394 C 258.800 151.531,259.888 152.907,261.217 154.452 L 263.635 157.261 261.317 159.748 C 260.043 161.117,258.736 162.768,258.414 163.418 C 258.092 164.068,257.527 165.051,257.157 165.601 C 256.788 166.152,255.975 168.042,255.350 169.801 L 254.214 173.000 253.969 190.600 C 253.835 200.280,253.579 208.727,253.402 209.371 C 252.757 211.714,250.054 213.825,246.969 214.396 C 239.758 215.730,237.214 221.635,241.852 226.273 L 243.579 228.000 247.061 228.000 C 255.780 228.000,263.458 222.352,266.527 213.682 C 267.275 211.570,267.354 210.057,267.593 193.400 C 267.875 173.674,267.846 173.912,270.419 170.173 C 272.862 166.622,277.870 164.000,282.211 164.000 C 288.339 164.000,291.201 155.514,286.300 151.876 C 284.802 150.763,283.942 150.487,280.528 150.022 C 275.326 149.312,271.307 146.367,269.038 141.600 L 267.800 139.000 267.551 120.800 C 267.282 101.144,267.367 101.920,264.953 97.071 C 261.216 89.565,249.241 83.863,243.383 86.800 M195.000 121.917 C 185.849 122.589,182.741 135.943,190.604 140.803 C 199.557 146.336,210.082 137.445,205.866 127.911 C 203.969 123.623,200.188 121.537,195.000 121.917 M191.824 173.755 C 189.568 176.010,189.499 176.563,189.669 191.000 C 189.800 202.178,189.802 202.203,190.800 203.703 C 193.613 207.932,199.937 207.644,202.299 203.179 C 203.619 200.683,203.564 177.105,202.233 174.970 C 199.995 171.381,194.804 170.775,191.824 173.755 M46.579 279.309 C 46.472 279.590,46.432 305.015,46.492 335.810 L 46.600 391.800 47.499 393.600 C 47.994 394.590,48.939 396.030,49.598 396.800 C 50.258 397.570,50.799 398.335,50.799 398.500 C 50.800 398.665,51.145 398.800,51.567 398.800 C 51.988 398.800,52.408 399.025,52.500 399.300 C 52.745 400.036,347.255 400.036,347.500 399.300 C 347.592 399.025,348.012 398.800,348.433 398.800 C 348.855 398.800,349.200 398.665,349.201 398.500 C 349.201 398.335,349.742 397.570,350.402 396.800 C 351.061 396.030,352.006 394.590,352.501 393.600 L 353.400 391.800 353.400 335.400 L 353.400 279.000 200.088 278.899 C 76.092 278.818,46.738 278.897,46.579 279.309 M121.924 333.200 C 122.068 365.992,121.998 366.864,118.843 371.474 C 115.247 376.726,109.076 379.200,99.569 379.200 C 96.887 379.200,93.952 379.006,93.046 378.768 C 92.141 378.531,90.680 378.147,89.800 377.915 C 85.473 376.774,82.513 375.638,79.704 374.042 C 77.067 372.543,77.074 372.688,79.458 368.883 C 82.451 364.107,82.181 364.277,84.913 365.439 C 93.762 369.201,103.355 369.387,107.135 365.870 C 109.234 363.917,109.200 364.436,109.200 334.184 C 109.200 318.719,109.311 305.776,109.447 305.423 C 109.661 304.864,110.490 304.794,115.747 304.890 L 121.800 305.000 121.924 333.200 M168.000 305.786 C 173.834 306.894,176.800 308.051,176.800 309.219 C 176.800 309.895,174.352 314.892,173.053 316.867 L 172.352 317.934 170.155 316.928 C 162.218 313.294,152.277 316.631,150.412 323.554 C 148.972 328.904,151.940 332.511,161.800 337.395 C 168.977 340.950,173.280 343.654,175.025 345.704 C 177.503 348.617,177.792 349.076,178.867 351.798 C 183.487 363.504,175.734 375.915,161.985 378.821 C 158.738 379.507,147.190 378.876,146.220 377.959 C 146.011 377.762,145.514 377.600,145.115 377.600 C 144.716 377.600,144.077 377.433,143.695 377.229 C 143.313 377.025,142.730 376.759,142.400 376.638 C 138.219 375.099,137.664 373.987,138.798 369.408 C 139.942 364.787,139.760 364.933,142.827 366.180 C 157.815 372.270,168.889 369.009,168.329 358.672 C 168.044 353.411,166.295 351.819,153.400 345.087 C 148.422 342.489,140.400 335.885,140.400 334.386 C 140.400 334.227,140.093 333.401,139.718 332.549 C 138.218 329.144,138.033 322.408,139.345 319.000 C 141.765 312.717,146.483 308.175,152.400 306.433 C 153.390 306.141,154.650 305.759,155.200 305.583 C 156.860 305.052,164.800 305.178,168.000 305.786 M226.080 305.633 C 228.870 306.203,232.749 307.542,234.000 308.368 C 234.550 308.732,235.497 309.279,236.104 309.584 C 251.424 317.290,255.897 351.043,243.802 367.671 C 242.045 370.085,236.673 375.200,235.894 375.200 C 235.690 375.200,235.046 375.539,234.462 375.953 C 229.948 379.153,217.605 380.280,211.800 378.022 C 211.360 377.851,210.280 377.481,209.400 377.199 C 208.520 376.918,207.710 376.575,207.600 376.438 C 207.490 376.301,206.590 375.777,205.600 375.272 C 202.046 373.462,196.695 367.603,194.940 363.600 C 194.699 363.050,194.139 361.790,193.697 360.800 C 193.255 359.810,192.692 358.235,192.446 357.300 C 192.201 356.365,191.824 354.925,191.609 354.100 C 190.301 349.078,190.022 339.275,191.033 333.800 C 192.280 327.042,192.316 326.917,194.360 322.304 C 194.822 321.262,195.200 320.294,195.200 320.153 C 195.200 318.622,202.562 310.934,205.650 309.241 C 208.952 307.430,210.362 306.800,211.114 306.800 C 211.528 306.800,211.999 306.665,212.161 306.500 C 213.241 305.399,222.201 304.841,226.080 305.633 M279.280 306.700 C 279.776 307.274,284.019 314.672,288.401 322.600 C 288.887 323.480,289.420 324.380,289.585 324.600 C 289.750 324.820,290.430 325.990,291.096 327.200 C 291.762 328.410,294.820 333.810,297.891 339.200 C 303.973 349.876,305.444 352.478,306.260 354.000 C 306.712 354.845,306.795 351.268,306.798 330.914 C 306.800 307.512,306.822 306.816,307.574 306.414 C 308.708 305.807,318.081 305.878,318.927 306.500 C 319.560 306.965,319.600 309.498,319.504 342.800 L 319.400 378.600 313.371 378.710 C 306.533 378.835,307.007 379.031,304.905 375.200 C 304.241 373.990,302.264 370.480,300.511 367.400 C 298.759 364.320,296.872 360.990,296.319 360.000 C 295.386 358.330,294.970 357.598,292.800 353.800 C 292.360 353.030,291.640 351.770,291.200 351.000 C 290.760 350.230,290.040 348.970,289.600 348.200 C 289.160 347.430,288.410 346.125,287.933 345.300 C 287.455 344.475,286.409 342.630,285.607 341.200 C 284.806 339.770,283.081 336.743,281.775 334.474 L 279.400 330.348 279.297 354.585 L 279.194 378.821 273.097 378.710 L 267.000 378.600 266.898 342.844 C 266.823 316.757,266.918 306.940,267.247 306.544 C 267.998 305.639,278.482 305.775,279.280 306.700 M215.375 316.325 C 211.403 317.724,207.944 321.049,206.141 325.200 C 204.046 330.025,203.764 331.277,203.252 338.047 C 202.736 344.853,203.931 356.216,205.248 357.030 C 205.441 357.149,205.600 357.585,205.600 357.997 C 205.600 360.170,210.251 365.789,213.344 367.354 C 222.789 372.133,233.120 366.940,236.335 355.800 C 241.041 339.490,236.925 321.643,227.379 316.972 C 224.339 315.485,218.633 315.177,215.375 316.325 " stroke="none" fill="#9474ac" fill-rule="evenodd"></path><path id="path1" d="M51.854 0.601 C 50.482 1.319,48.000 3.944,48.000 4.678 C 48.000 4.965,47.820 5.200,47.600 5.200 C 47.380 5.200,47.200 5.472,47.200 5.805 C 47.200 6.138,47.041 6.723,46.847 7.105 C 45.627 9.509,45.600 12.454,45.600 144.806 L 45.600 278.000 200.005 278.000 L 354.409 278.000 354.278 183.500 C 354.199 126.818,353.997 88.394,353.773 87.486 L 353.400 85.973 310.800 85.886 L 268.200 85.800 268.098 43.500 C 268.011 7.161,268.076 1.200,268.565 1.200 C 268.878 1.200,269.224 1.425,269.335 1.700 C 269.462 2.014,269.549 2.032,269.568 1.749 C 269.680 0.151,273.212 0.205,160.639 0.101 C 65.648 0.013,52.865 0.072,51.854 0.601 M273.879 6.254 C 273.747 6.387,273.908 6.765,274.238 7.095 C 275.015 7.872,275.284 7.603,274.628 6.706 C 274.349 6.324,274.012 6.121,273.879 6.254 M280.236 12.600 C 280.786 13.150,281.350 13.600,281.488 13.600 C 281.626 13.600,281.317 13.150,280.800 12.600 C 280.283 12.050,279.720 11.600,279.548 11.600 C 279.377 11.600,279.686 12.050,280.236 12.600 M282.400 14.564 C 282.400 14.939,285.222 17.712,285.411 17.523 C 285.591 17.343,284.141 15.666,283.100 14.850 C 282.715 14.549,282.400 14.420,282.400 14.564 M286.400 18.512 C 286.400 18.650,286.850 19.214,287.400 19.764 C 287.950 20.314,288.400 20.623,288.400 20.452 C 288.400 20.280,287.950 19.717,287.400 19.200 C 286.850 18.683,286.400 18.374,286.400 18.512 M307.504 39.908 C 307.332 40.282,309.948 42.817,310.142 42.464 C 310.222 42.319,309.691 41.618,308.963 40.908 C 308.234 40.197,307.578 39.747,307.504 39.908 M312.400 44.724 C 312.400 45.148,313.945 46.597,314.149 46.364 C 314.228 46.274,313.867 45.789,313.346 45.286 C 312.826 44.783,312.400 44.530,312.400 44.724 M315.600 48.200 C 315.874 48.530,316.278 48.800,316.498 48.800 C 316.721 48.800,316.678 48.535,316.400 48.200 C 316.126 47.870,315.722 47.600,315.502 47.600 C 315.279 47.600,315.322 47.865,315.600 48.200 M323.057 55.536 C 322.977 55.681,324.055 56.909,325.454 58.264 C 326.852 59.620,328.057 60.610,328.130 60.464 C 328.307 60.113,323.245 55.195,323.057 55.536 M338.806 71.071 C 338.818 71.684,339.555 72.578,339.826 72.307 C 339.974 72.159,339.804 71.747,339.448 71.390 C 339.091 71.034,338.803 70.891,338.806 71.071 M340.406 72.671 C 340.418 73.284,341.155 74.178,341.426 73.907 C 341.574 73.759,341.404 73.347,341.048 72.990 C 340.691 72.634,340.403 72.491,340.406 72.671 M342.400 75.040 C 342.400 75.388,344.826 77.600,345.209 77.600 C 345.387 77.600,344.921 76.970,344.174 76.200 C 342.854 74.841,342.400 74.544,342.400 75.040 M150.734 86.689 C 156.039 90.680,153.787 100.366,147.546 100.406 C 144.805 100.424,141.546 102.270,140.496 104.400 C 140.139 105.123,139.959 109.770,139.844 121.200 C 139.613 144.165,138.965 147.028,132.221 154.884 L 130.126 157.324 132.008 159.247 C 134.206 161.492,136.906 165.868,137.807 168.648 C 138.155 169.722,138.604 170.960,138.804 171.400 C 139.438 172.798,139.653 176.998,139.930 193.400 C 140.221 210.620,140.347 211.548,142.487 212.227 C 142.879 212.352,143.200 212.601,143.200 212.782 C 143.200 212.962,144.415 213.334,145.900 213.609 C 152.548 214.840,155.663 219.513,153.211 224.578 C 151.221 228.688,147.685 229.847,141.600 228.384 C 140.610 228.146,139.305 227.851,138.700 227.730 C 138.095 227.609,137.600 227.383,137.600 227.229 C 137.600 227.075,136.970 226.702,136.200 226.400 C 135.430 226.098,134.800 225.704,134.800 225.525 C 134.800 225.346,134.575 225.200,134.299 225.200 C 133.772 225.200,130.897 222.598,129.200 220.585 C 127.860 218.995,125.600 214.500,125.600 213.424 C 125.600 212.949,125.426 212.386,125.213 212.173 C 124.980 211.940,124.759 204.916,124.661 194.593 C 124.501 177.915,124.306 174.236,123.558 173.774 C 123.361 173.652,123.200 173.203,123.200 172.776 C 123.200 172.349,123.020 172.000,122.800 172.000 C 122.580 172.000,122.399 171.775,122.398 171.500 C 122.394 170.343,117.225 166.000,115.852 166.000 C 115.519 166.000,115.136 165.820,115.000 165.600 C 114.864 165.380,114.136 165.200,113.382 165.200 C 110.439 165.200,106.936 164.027,105.455 162.545 C 103.890 160.981,102.434 157.006,103.160 156.280 C 103.402 156.038,103.600 155.514,103.600 155.115 C 103.600 152.184,106.726 150.038,112.200 149.210 C 117.352 148.431,121.009 145.872,123.077 141.600 C 124.427 138.812,124.506 137.723,124.667 119.611 C 124.758 109.279,124.971 102.469,125.209 102.231 C 125.424 102.016,125.600 101.424,125.600 100.915 C 125.600 100.038,125.750 99.635,126.874 97.500 C 127.134 97.005,127.616 96.068,127.944 95.417 C 128.675 93.970,133.882 88.800,134.609 88.800 C 134.897 88.800,135.193 88.665,135.267 88.500 C 135.458 88.070,138.717 86.571,140.600 86.047 C 144.522 84.956,148.790 85.226,150.734 86.689 M252.200 86.072 C 257.845 87.596,263.391 92.109,265.879 97.201 C 268.215 101.983,268.176 101.617,268.412 120.800 C 268.632 138.643,268.703 139.505,270.183 142.366 C 272.285 146.431,277.961 149.600,283.141 149.600 C 284.531 149.600,288.017 151.779,288.289 152.818 C 288.401 153.248,288.652 153.600,288.847 153.600 C 289.041 153.600,289.200 154.038,289.200 154.574 C 289.200 155.110,289.373 156.003,289.585 156.560 C 289.831 157.208,289.831 157.657,289.585 157.809 C 289.373 157.940,289.200 158.489,289.200 159.029 C 289.200 162.140,285.961 164.351,280.400 165.036 C 278.711 165.245,277.937 165.490,275.681 166.531 C 274.214 167.208,271.614 169.593,270.635 171.158 C 268.642 174.347,268.641 174.359,268.405 193.400 C 268.171 212.253,268.156 212.413,266.292 216.400 C 264.847 219.489,259.821 225.200,258.546 225.200 C 258.246 225.200,258.000 225.380,258.000 225.600 C 258.000 225.820,257.775 226.004,257.500 226.009 C 257.225 226.014,256.550 226.370,256.000 226.800 C 255.450 227.230,254.606 227.586,254.124 227.591 C 253.642 227.596,253.148 227.761,253.026 227.958 C 252.605 228.639,245.395 229.439,245.028 228.845 C 244.877 228.600,244.313 228.400,243.776 228.400 C 243.239 228.400,242.800 228.263,242.800 228.095 C 242.800 227.927,242.395 227.612,241.900 227.395 C 241.405 227.178,240.822 226.595,240.605 226.100 C 240.388 225.605,240.073 225.200,239.905 225.200 C 239.737 225.200,239.600 224.851,239.600 224.424 C 239.600 223.997,239.420 223.536,239.200 223.400 C 238.980 223.264,238.800 222.364,238.800 221.400 C 238.800 220.436,238.980 219.536,239.200 219.400 C 239.420 219.264,239.600 218.803,239.600 218.376 C 239.600 217.949,239.780 217.600,240.000 217.600 C 240.220 217.600,240.400 217.396,240.400 217.147 C 240.400 215.820,243.812 214.134,248.000 213.390 C 252.569 212.578,252.746 211.857,252.952 193.157 C 253.166 173.713,253.252 172.640,254.847 169.505 C 255.041 169.123,255.200 168.543,255.200 168.216 C 255.200 167.889,255.658 166.852,256.218 165.911 C 256.777 164.970,257.338 163.885,257.464 163.500 C 257.590 163.115,257.852 162.800,258.047 162.800 C 258.241 162.800,258.400 162.615,258.400 162.389 C 258.400 162.163,258.926 161.398,259.570 160.689 C 262.929 156.987,262.854 157.229,261.173 155.478 C 259.678 153.922,256.800 149.804,256.800 149.222 C 256.800 148.990,256.665 148.799,256.500 148.797 C 256.099 148.793,255.200 146.819,255.200 145.944 C 255.200 145.561,255.041 145.149,254.848 145.030 C 253.616 144.268,253.115 138.023,252.953 121.400 C 252.787 104.361,252.780 104.301,250.738 102.391 C 249.712 101.431,246.861 100.400,245.232 100.400 C 244.039 100.400,241.329 98.788,240.771 97.747 C 240.493 97.226,240.115 96.800,239.932 96.800 C 239.750 96.800,239.600 96.451,239.600 96.024 C 239.600 95.597,239.420 95.136,239.200 95.000 C 238.516 94.577,238.760 91.676,239.637 89.810 C 241.564 85.710,245.987 84.394,252.200 86.072 M199.081 121.256 C 202.188 122.523,202.948 122.964,204.124 124.184 C 205.951 126.080,206.400 126.695,206.400 127.303 C 206.400 127.598,206.596 128.036,206.835 128.275 C 209.150 130.590,205.287 141.600,202.160 141.600 C 201.852 141.600,201.600 141.780,201.600 142.000 C 201.600 142.220,201.251 142.400,200.824 142.400 C 200.397 142.400,199.936 142.580,199.800 142.800 C 199.664 143.020,198.134 143.200,196.400 143.200 C 194.666 143.200,193.136 143.020,193.000 142.800 C 192.864 142.580,192.403 142.400,191.976 142.400 C 191.549 142.400,191.200 142.220,191.200 142.000 C 191.200 141.780,190.957 141.600,190.659 141.600 C 187.470 141.600,183.569 130.671,185.919 128.321 C 186.184 128.056,186.400 127.608,186.400 127.325 C 186.400 126.589,188.068 124.593,189.845 123.200 C 190.580 122.624,191.433 122.187,193.600 121.275 C 194.950 120.707,197.711 120.698,199.081 121.256 M198.372 171.280 C 203.617 173.042,204.000 174.265,204.000 189.248 L 204.000 201.443 203.004 203.421 C 201.434 206.543,199.715 207.358,194.956 207.241 C 193.166 207.196,189.600 204.436,189.600 203.096 C 189.600 202.739,189.420 202.336,189.200 202.200 C 188.947 202.044,188.800 197.337,188.800 189.400 C 188.800 181.463,188.947 176.756,189.200 176.600 C 189.420 176.464,189.600 176.003,189.600 175.576 C 189.600 175.149,189.737 174.800,189.905 174.800 C 190.073 174.800,190.388 174.395,190.605 173.900 C 190.822 173.405,191.405 172.822,191.900 172.605 C 192.395 172.388,192.800 172.073,192.800 171.905 C 192.800 171.737,193.239 171.600,193.776 171.600 C 194.313 171.600,194.864 171.420,195.000 171.200 C 195.331 170.664,196.632 170.695,198.372 171.280 M110.092 332.600 C 110.035 347.560,109.889 360.250,109.767 360.800 C 109.584 361.623,109.621 361.682,109.975 361.131 C 110.274 360.665,110.373 352.065,110.300 332.931 L 110.194 305.400 110.092 332.600 M120.990 335.200 C 120.990 351.590,121.039 358.295,121.100 350.100 C 121.160 341.905,121.160 328.495,121.100 320.300 C 121.039 312.105,120.990 318.810,120.990 335.200 M156.400 306.000 L 155.400 306.320 156.400 306.320 C 156.950 306.320,157.850 306.176,158.400 306.000 L 159.400 305.680 158.400 305.680 C 157.850 305.680,156.950 305.824,156.400 306.000 M163.800 306.023 C 165.826 306.442,167.463 306.423,165.800 306.000 C 165.140 305.832,164.060 305.694,163.400 305.693 C 162.391 305.692,162.455 305.745,163.800 306.023 M217.000 306.000 L 215.800 306.305 217.000 306.325 C 217.660 306.335,218.560 306.189,219.000 306.000 L 219.800 305.656 219.000 305.675 C 218.560 305.686,217.660 305.832,217.000 306.000 M222.200 306.000 C 222.640 306.189,223.540 306.335,224.200 306.325 L 225.400 306.305 224.200 306.000 C 223.540 305.832,222.640 305.686,222.200 305.675 L 221.400 305.656 222.200 306.000 M267.384 307.300 C 267.279 307.575,267.240 323.640,267.297 343.000 L 267.400 378.200 272.901 378.218 L 278.401 378.235 273.001 378.106 L 267.600 377.977 267.600 342.589 L 267.600 307.200 273.120 307.200 C 276.970 307.200,278.810 307.351,279.201 307.700 C 279.678 308.125,279.682 308.096,279.232 307.500 C 278.557 306.608,267.718 306.425,267.384 307.300 M307.709 307.118 C 307.157 307.475,306.748 356.000,307.297 356.000 C 307.460 356.000,307.640 345.065,307.697 331.700 L 307.800 307.400 313.100 307.288 L 318.400 307.177 318.400 342.577 L 318.400 377.977 312.999 378.106 L 307.599 378.235 313.099 378.218 L 318.600 378.200 318.600 342.600 L 318.600 307.000 313.400 306.900 C 310.540 306.845,307.979 306.943,307.709 307.118 M202.175 312.500 L 201.000 313.800 202.300 312.625 C 203.512 311.530,203.784 311.200,203.475 311.200 C 203.406 311.200,202.821 311.785,202.175 312.500 M159.400 314.999 C 159.620 315.073,161.780 315.209,164.200 315.300 C 166.620 315.392,168.060 315.338,167.400 315.181 C 166.232 314.902,158.603 314.729,159.400 314.999 M216.400 315.200 C 215.608 315.454,215.567 315.520,216.200 315.520 C 216.640 315.520,217.450 315.376,218.000 315.200 C 218.792 314.946,218.833 314.880,218.200 314.880 C 217.760 314.880,216.950 315.024,216.400 315.200 M223.600 315.200 C 224.968 315.638,226.019 315.638,225.000 315.200 C 224.560 315.011,223.840 314.862,223.400 314.868 C 222.757 314.877,222.796 314.943,223.600 315.200 M198.384 316.423 C 197.905 317.096,197.579 317.713,197.661 317.794 C 197.743 317.876,198.214 317.326,198.708 316.571 C 199.823 314.871,199.571 314.756,198.384 316.423 M172.532 316.232 C 172.387 316.612,171.992 316.787,171.544 316.670 C 171.134 316.562,170.900 316.638,171.023 316.837 C 171.411 317.465,172.354 317.232,172.800 316.400 C 173.035 315.960,173.126 315.600,173.002 315.600 C 172.877 315.600,172.666 315.885,172.532 316.232 M226.000 315.681 C 226.365 316.009,229.600 317.590,229.600 317.440 C 229.600 317.163,227.803 316.116,226.800 315.808 C 226.250 315.639,225.890 315.582,226.000 315.681 M211.360 317.548 C 210.502 318.180,209.260 319.301,208.600 320.039 C 207.749 320.991,207.981 320.860,209.400 319.589 C 210.500 318.604,211.850 317.493,212.400 317.120 C 212.950 316.747,213.292 316.433,213.160 316.421 C 213.028 316.409,212.218 316.917,211.360 317.548 M152.378 318.700 L 151.000 320.200 152.500 318.822 C 153.896 317.538,154.184 317.200,153.878 317.200 C 153.812 317.200,153.137 317.875,152.378 318.700 M231.989 319.800 C 233.179 321.120,234.233 322.290,234.331 322.400 C 234.428 322.510,234.318 322.240,234.085 321.800 C 233.852 321.360,232.798 320.190,231.743 319.200 L 229.825 317.400 231.989 319.800 M235.000 324.000 C 235.341 324.660,235.711 325.200,235.821 325.200 C 235.931 325.200,235.741 324.660,235.400 324.000 C 235.059 323.340,234.689 322.800,234.579 322.800 C 234.469 322.800,234.659 323.340,235.000 324.000 M138.893 325.600 C 138.893 326.370,138.975 326.685,139.076 326.300 C 139.176 325.915,139.176 325.285,139.076 324.900 C 138.975 324.515,138.893 324.830,138.893 325.600 M149.632 327.622 C 149.598 328.708,151.370 331.799,152.601 332.800 C 153.006 333.130,152.677 332.531,151.869 331.469 C 151.061 330.407,150.294 329.057,150.165 328.469 C 149.782 326.728,149.665 326.541,149.632 327.622 M203.049 331.815 C 202.912 332.173,202.818 332.856,202.841 333.333 C 202.867 333.881,203.003 333.686,203.210 332.803 C 203.560 331.316,203.465 330.733,203.049 331.815 M249.734 336.400 C 249.734 338.050,249.805 338.725,249.891 337.900 C 249.978 337.075,249.978 335.725,249.891 334.900 C 249.805 334.075,249.734 334.750,249.734 336.400 M202.493 336.400 C 202.493 337.170,202.575 337.485,202.676 337.100 C 202.776 336.715,202.776 336.085,202.676 335.700 C 202.575 335.315,202.493 335.630,202.493 336.400 M191.263 336.600 C 191.223 337.260,191.104 338.520,190.997 339.400 L 190.803 341.000 191.223 339.660 C 191.454 338.923,191.574 337.663,191.489 336.860 C 191.352 335.566,191.326 335.537,191.263 336.600 M238.600 342.381 C 238.600 345.739,238.715 347.471,238.877 346.558 C 239.214 344.662,239.199 339.439,238.853 337.823 C 238.714 337.175,238.600 339.226,238.600 342.381 M202.150 342.200 C 202.151 344.620,202.216 345.558,202.296 344.285 C 202.376 343.012,202.375 341.032,202.294 339.885 C 202.214 338.738,202.149 339.780,202.150 342.200 M297.400 340.000 C 297.741 340.660,298.111 341.200,298.221 341.200 C 298.331 341.200,298.141 340.660,297.800 340.000 C 297.459 339.340,297.089 338.800,296.979 338.800 C 296.869 338.800,297.059 339.340,297.400 340.000 M250.114 342.200 C 250.117 343.300,250.195 343.703,250.287 343.095 C 250.379 342.486,250.377 341.586,250.282 341.095 C 250.187 340.603,250.111 341.100,250.114 342.200 M191.084 346.200 C 191.208 347.740,191.375 349.075,191.455 349.167 C 191.742 349.496,191.513 345.378,191.189 344.400 C 190.988 343.791,190.947 344.496,191.084 346.200 M173.800 345.600 C 174.659 346.480,175.452 347.200,175.562 347.200 C 175.672 347.200,175.059 346.480,174.200 345.600 C 173.341 344.720,172.548 344.000,172.438 344.000 C 172.328 344.000,172.941 344.720,173.800 345.600 M249.734 348.400 C 249.734 350.050,249.805 350.725,249.891 349.900 C 249.978 349.075,249.978 347.725,249.891 346.900 C 249.805 346.075,249.734 346.750,249.734 348.400 M301.215 346.600 C 301.217 346.820,301.586 347.450,302.036 348.000 C 302.579 348.664,302.715 348.731,302.440 348.200 C 301.766 346.895,301.212 346.172,301.215 346.600 M165.800 352.000 C 166.659 352.880,167.452 353.600,167.562 353.600 C 167.672 353.600,167.059 352.880,166.200 352.000 C 165.341 351.120,164.548 350.400,164.438 350.400 C 164.328 350.400,164.941 351.120,165.800 352.000 M202.806 351.233 C 202.809 351.765,202.989 352.470,203.206 352.800 C 203.482 353.222,203.523 352.985,203.342 352.000 C 203.025 350.275,202.798 349.949,202.806 351.233 M237.829 351.829 C 237.681 352.415,237.638 352.972,237.732 353.066 C 237.827 353.160,238.024 352.758,238.171 352.171 C 238.319 351.585,238.362 351.028,238.268 350.934 C 238.173 350.840,237.976 351.242,237.829 351.829 M178.887 354.400 C 178.883 354.950,179.024 355.850,179.200 356.400 C 179.631 357.744,179.631 356.292,179.200 354.600 C 178.926 353.522,178.894 353.502,178.887 354.400 M248.046 356.867 C 248.021 357.234,247.896 357.864,247.770 358.267 C 247.552 358.962,247.563 358.963,247.997 358.287 C 248.248 357.896,248.373 357.266,248.273 356.887 C 248.111 356.268,248.088 356.266,248.046 356.867 M168.901 360.600 C 168.905 361.480,168.987 361.793,169.083 361.295 C 169.179 360.798,169.175 360.078,169.075 359.695 C 168.975 359.313,168.896 359.720,168.901 360.600 M179.246 361.267 C 179.221 361.634,179.096 362.264,178.970 362.667 C 178.752 363.362,178.763 363.363,179.197 362.687 C 179.448 362.296,179.573 361.666,179.473 361.287 C 179.311 360.668,179.288 360.666,179.246 361.267 M234.347 361.700 C 234.082 362.195,232.861 363.680,231.633 365.000 C 230.405 366.320,229.847 367.040,230.394 366.600 C 232.512 364.896,235.791 360.800,235.037 360.800 C 234.922 360.800,234.611 361.205,234.347 361.700 M298.360 362.600 C 299.034 363.905,299.588 364.628,299.585 364.200 C 299.583 363.980,299.214 363.350,298.764 362.800 C 298.221 362.136,298.085 362.069,298.360 362.600 M140.033 366.144 C 140.125 366.223,140.740 366.408,141.400 366.556 C 142.276 366.752,142.438 366.715,142.000 366.418 C 141.460 366.053,139.632 365.798,140.033 366.144 M165.281 367.372 C 163.423 368.685,163.162 369.061,164.731 368.162 C 165.463 367.743,166.250 367.175,166.480 366.900 C 167.071 366.193,166.793 366.302,165.281 367.372 M80.492 368.135 C 80.059 368.869,79.389 369.994,79.005 370.635 L 78.305 371.800 79.133 370.800 C 80.079 369.657,81.744 366.800,81.465 366.800 C 81.363 366.800,80.925 367.401,80.492 368.135 M301.400 368.000 C 301.741 368.660,302.111 369.200,302.221 369.200 C 302.331 369.200,302.141 368.660,301.800 368.000 C 301.459 367.340,301.089 366.800,300.979 366.800 C 300.869 366.800,301.059 367.340,301.400 368.000 M90.433 368.144 C 90.525 368.223,91.140 368.408,91.800 368.556 C 92.676 368.752,92.838 368.715,92.400 368.418 C 91.860 368.053,90.032 367.798,90.433 368.144 M119.040 369.640 C 118.572 370.578,118.555 370.770,118.967 370.427 C 119.459 370.019,120.118 368.400,119.792 368.400 C 119.719 368.400,119.380 368.958,119.040 369.640 M94.705 369.083 C 95.202 369.179,95.922 369.175,96.305 369.075 C 96.687 368.975,96.280 368.896,95.400 368.901 C 94.520 368.905,94.207 368.987,94.705 369.083 M99.900 369.082 C 100.395 369.178,101.205 369.178,101.700 369.082 C 102.195 368.987,101.790 368.909,100.800 368.909 C 99.810 368.909,99.405 368.987,99.900 369.082 M199.200 369.325 C 199.200 369.394,199.785 369.979,200.500 370.625 L 201.800 371.800 200.625 370.500 C 199.530 369.288,199.200 369.016,199.200 369.325 M240.306 370.611 C 239.484 371.375,238.954 372.000,239.127 372.000 C 239.301 372.000,240.054 371.370,240.800 370.600 C 242.541 368.803,242.243 368.810,240.306 370.611 M155.100 369.893 C 156.035 369.977,157.565 369.977,158.500 369.893 C 159.435 369.809,158.670 369.740,156.800 369.740 C 154.930 369.740,154.165 369.809,155.100 369.893 M303.000 370.800 C 303.341 371.460,303.711 372.000,303.821 372.000 C 303.931 372.000,303.741 371.460,303.400 370.800 C 303.059 370.140,302.689 369.600,302.579 369.600 C 302.469 369.600,302.659 370.140,303.000 370.800 M94.600 378.400 C 95.260 378.568,96.250 378.705,96.800 378.705 C 97.692 378.705,97.670 378.672,96.600 378.400 C 95.940 378.232,94.950 378.095,94.400 378.095 C 93.508 378.095,93.530 378.128,94.600 378.400 M103.600 378.400 C 102.796 378.657,102.757 378.723,103.400 378.732 C 103.840 378.738,104.560 378.589,105.000 378.400 C 106.019 377.962,104.968 377.962,103.600 378.400 M151.600 378.393 C 152.588 378.716,155.889 378.935,155.567 378.656 C 155.475 378.576,154.320 378.411,153.000 378.288 C 151.509 378.149,150.979 378.189,151.600 378.393 M158.600 378.400 C 156.937 378.823,158.574 378.842,160.600 378.423 C 161.945 378.145,162.009 378.092,161.000 378.093 C 160.340 378.094,159.260 378.232,158.600 378.400 M214.833 378.149 C 214.925 378.231,215.900 378.401,217.000 378.528 C 218.349 378.684,218.674 378.649,218.000 378.420 C 217.001 378.080,214.518 377.868,214.833 378.149 M223.200 378.420 C 222.526 378.649,222.851 378.684,224.200 378.528 C 225.300 378.401,226.275 378.231,226.367 378.149 C 226.682 377.868,224.199 378.080,223.200 378.420 M45.600 393.200 C 45.600 393.640,45.780 394.000,46.000 394.000 C 46.220 394.000,46.400 393.640,46.400 393.200 C 46.400 392.760,46.220 392.400,46.000 392.400 C 45.780 392.400,45.600 392.760,45.600 393.200 M353.600 393.200 C 353.600 393.640,353.780 394.000,354.000 394.000 C 354.220 394.000,354.400 393.640,354.400 393.200 C 354.400 392.760,354.220 392.400,354.000 392.400 C 353.780 392.400,353.600 392.760,353.600 393.200 M46.400 394.904 C 46.400 395.181,46.760 395.632,47.200 395.907 C 47.674 396.203,48.000 396.243,48.000 396.003 C 48.000 395.782,47.820 395.600,47.600 395.600 C 47.380 395.600,47.200 395.330,47.200 395.000 C 47.200 394.670,47.020 394.400,46.800 394.400 C 46.580 394.400,46.400 394.627,46.400 394.904 M352.800 395.000 C 352.800 395.330,352.620 395.600,352.400 395.600 C 352.180 395.600,352.000 395.782,352.000 396.003 C 352.000 396.243,352.326 396.203,352.800 395.907 C 353.633 395.387,353.895 394.400,353.200 394.400 C 352.980 394.400,352.800 394.670,352.800 395.000 " stroke="none" fill="#ebebe3" fill-rule="evenodd"></path><path id="path2" d="M268.098 43.500 L 268.200 85.800 309.600 85.910 C 352.694 86.024,353.231 86.012,352.335 84.907 C 351.878 84.342,351.887 84.298,352.400 84.604 C 352.730 84.801,352.190 84.146,351.200 83.149 C 350.210 82.151,349.326 81.394,349.236 81.465 C 349.145 81.537,348.875 81.212,348.636 80.743 C 348.396 80.273,348.061 79.918,347.892 79.953 C 347.489 80.036,346.444 79.067,346.620 78.773 C 346.695 78.649,346.181 78.207,345.479 77.792 C 343.927 76.875,342.654 75.640,342.293 74.699 C 342.146 74.315,341.762 74.000,341.440 74.000 C 341.117 74.000,340.740 73.640,340.600 73.200 C 340.460 72.760,340.100 72.400,339.800 72.400 C 339.500 72.400,339.140 72.040,339.000 71.600 C 338.860 71.160,338.578 70.800,338.373 70.800 C 338.168 70.800,338.045 70.583,338.100 70.318 C 338.155 70.053,337.935 69.828,337.612 69.818 C 337.288 69.808,336.822 69.396,336.576 68.902 C 336.330 68.409,336.010 68.124,335.864 68.269 C 335.719 68.414,335.600 68.273,335.600 67.956 C 335.600 67.447,333.423 65.200,332.930 65.200 C 332.519 65.200,331.654 64.079,331.886 63.848 C 332.022 63.711,331.823 63.600,331.443 63.600 C 331.063 63.600,330.864 63.420,331.000 63.200 C 331.136 62.980,330.956 62.800,330.600 62.800 C 330.244 62.800,330.051 62.640,330.172 62.445 C 330.292 62.250,330.015 61.993,329.555 61.872 C 329.024 61.733,328.829 61.476,329.022 61.165 C 329.215 60.853,329.157 60.779,328.862 60.962 C 328.608 61.119,328.400 61.027,328.400 60.757 C 328.400 60.487,328.303 60.364,328.184 60.483 C 327.889 60.778,322.868 55.877,323.079 55.500 C 323.172 55.335,322.956 55.200,322.600 55.200 C 322.244 55.200,322.064 55.020,322.200 54.800 C 322.336 54.580,322.246 54.400,322.000 54.400 C 321.754 54.400,321.664 54.220,321.800 54.000 C 321.936 53.780,321.777 53.600,321.447 53.600 C 321.117 53.600,320.719 53.392,320.562 53.138 C 320.370 52.828,320.461 52.783,320.838 53.000 C 321.147 53.177,321.040 52.958,320.600 52.513 C 320.160 52.067,319.710 51.750,319.600 51.809 C 319.490 51.868,319.168 51.665,318.884 51.358 C 318.601 51.051,318.511 50.797,318.684 50.794 C 318.858 50.791,318.570 50.566,318.045 50.294 C 317.520 50.022,317.126 49.642,317.170 49.449 C 317.214 49.257,316.834 48.891,316.325 48.638 C 315.816 48.384,315.400 47.914,315.400 47.594 C 315.400 47.273,314.902 46.772,314.293 46.480 C 313.684 46.188,312.899 45.512,312.549 44.978 C 312.199 44.444,311.748 44.109,311.546 44.233 C 311.345 44.358,311.206 44.311,311.237 44.130 C 311.378 43.320,311.167 42.773,310.800 43.000 C 310.580 43.136,310.400 43.046,310.400 42.800 C 310.400 42.554,310.265 42.415,310.100 42.492 C 309.712 42.671,307.232 40.101,307.517 39.816 C 307.636 39.697,307.513 39.600,307.243 39.600 C 306.973 39.600,306.864 39.420,307.000 39.200 C 307.136 38.980,307.064 38.800,306.839 38.800 C 306.273 38.800,304.786 37.147,305.016 36.774 C 305.120 36.606,304.664 36.230,304.002 35.937 C 303.341 35.644,302.800 35.246,302.800 35.053 C 302.800 34.542,298.858 30.800,298.321 30.800 C 298.071 30.800,297.983 30.683,298.126 30.541 C 298.411 30.256,296.896 28.800,296.315 28.800 C 296.116 28.800,296.064 28.620,296.200 28.400 C 296.336 28.180,296.212 27.999,295.924 27.999 C 295.636 27.998,295.064 27.496,294.652 26.882 C 294.241 26.268,293.289 25.362,292.537 24.869 C 291.785 24.376,291.277 23.799,291.408 23.586 C 291.540 23.374,291.367 23.200,291.024 23.200 C 290.681 23.200,290.400 23.046,290.400 22.858 C 290.400 22.671,289.950 22.031,289.400 21.438 C 288.850 20.844,288.400 20.450,288.400 20.561 C 288.400 20.937,286.518 18.886,286.271 18.240 C 286.136 17.888,285.833 17.600,285.599 17.600 C 285.047 17.600,282.634 15.187,282.290 14.291 C 282.144 13.911,281.848 13.600,281.631 13.600 C 281.414 13.600,280.786 13.150,280.236 12.600 C 279.686 12.050,279.312 11.600,279.405 11.600 C 279.497 11.600,279.045 11.060,278.400 10.400 C 277.755 9.740,276.940 9.200,276.590 9.200 C 276.239 9.200,276.064 9.020,276.200 8.800 C 276.336 8.580,276.246 8.400,276.000 8.400 C 275.754 8.400,275.664 8.220,275.800 8.000 C 275.936 7.780,275.754 7.600,275.395 7.600 C 275.036 7.600,274.473 7.330,274.143 7.000 C 273.813 6.670,273.653 6.400,273.788 6.400 C 273.922 6.400,273.305 5.687,272.416 4.816 C 271.527 3.945,270.800 3.034,270.800 2.792 C 270.800 2.551,270.620 2.464,270.400 2.600 C 270.180 2.736,270.000 2.556,270.000 2.200 C 270.000 1.844,269.820 1.664,269.600 1.800 C 269.380 1.936,269.200 1.857,269.200 1.624 C 269.200 1.391,268.929 1.200,268.598 1.200 C 268.066 1.200,268.008 6.065,268.098 43.500 M140.800 85.995 C 140.391 86.255,140.710 86.299,141.800 86.132 C 143.777 85.829,144.114 85.598,142.567 85.606 C 141.925 85.609,141.130 85.784,140.800 85.995 M149.432 86.359 C 150.329 86.766,151.559 87.707,152.164 88.450 C 152.770 89.192,153.072 89.409,152.835 88.931 C 152.220 87.688,149.562 85.598,148.609 85.609 C 148.083 85.614,148.371 85.877,149.432 86.359 M242.624 86.213 C 241.641 86.956,241.947 86.957,243.654 86.216 C 244.586 85.811,244.754 85.630,244.200 85.628 C 243.760 85.627,243.051 85.890,242.624 86.213 M249.233 85.743 C 249.325 85.822,250.120 85.997,251.000 86.132 C 252.090 86.299,252.409 86.255,252.000 85.995 C 251.453 85.646,248.845 85.409,249.233 85.743 M138.200 86.800 C 137.908 87.273,138.299 87.273,139.400 86.800 C 140.171 86.469,140.169 86.455,139.324 86.428 C 138.842 86.413,138.336 86.580,138.200 86.800 M253.400 86.800 C 254.501 87.273,254.892 87.273,254.600 86.800 C 254.464 86.580,253.958 86.413,253.476 86.428 C 252.631 86.455,252.629 86.469,253.400 86.800 M153.234 90.600 C 153.222 91.040,153.387 91.670,153.600 92.000 C 154.114 92.795,154.114 91.796,153.600 90.600 L 153.256 89.800 153.234 90.600 M239.043 91.033 C 238.700 91.927,238.741 94.716,239.100 94.938 C 239.265 95.040,239.400 94.061,239.400 92.762 C 239.400 90.161,239.392 90.123,239.043 91.033 M262.205 92.500 C 263.276 93.765,264.221 94.800,264.304 94.800 C 264.627 94.800,262.805 92.538,261.565 91.400 C 260.725 90.629,260.954 91.023,262.205 92.500 M129.587 93.216 C 128.658 94.325,127.972 95.305,128.061 95.395 C 128.151 95.484,128.983 94.577,129.910 93.379 C 132.028 90.641,131.827 90.540,129.587 93.216 M153.450 94.050 C 153.117 95.717,153.440 96.040,153.800 94.400 C 153.952 93.709,153.993 93.059,153.891 92.958 C 153.789 92.856,153.591 93.347,153.450 94.050 M265.056 96.388 C 265.442 97.041,265.811 97.523,265.875 97.459 C 266.088 97.245,265.006 95.206,264.677 95.203 C 264.500 95.201,264.670 95.734,265.056 96.388 M240.831 97.901 C 241.099 98.330,241.669 98.901,242.098 99.168 C 243.445 100.010,243.225 99.420,241.753 98.246 C 240.737 97.435,240.480 97.339,240.831 97.901 M150.072 99.089 C 149.561 99.444,148.481 99.864,147.672 100.022 C 146.288 100.291,146.272 100.311,147.400 100.352 C 148.060 100.376,149.320 99.952,150.200 99.410 C 151.080 98.868,151.620 98.429,151.400 98.433 C 151.180 98.438,150.582 98.733,150.072 99.089 M243.836 100.058 C 243.952 100.246,244.484 100.400,245.018 100.400 C 246.786 100.400,249.673 101.376,250.688 102.317 C 251.239 102.827,251.771 103.163,251.871 103.063 C 252.257 102.677,249.313 100.897,247.600 100.481 C 244.888 99.822,243.600 99.677,243.836 100.058 M144.200 100.687 C 143.243 100.920,140.667 102.801,140.937 103.070 C 141.041 103.174,141.607 102.841,142.194 102.330 C 142.782 101.818,143.924 101.194,144.732 100.942 C 146.171 100.493,145.777 100.304,144.200 100.687 M267.268 101.400 C 267.262 101.840,267.411 102.560,267.600 103.000 C 268.038 104.019,268.038 102.968,267.600 101.600 C 267.343 100.796,267.277 100.757,267.268 101.400 M268.090 120.538 C 267.996 138.061,268.164 140.159,269.832 142.238 C 270.407 142.954,270.416 142.942,269.978 142.044 C 268.713 139.449,268.616 138.169,268.400 121.200 L 268.180 103.800 268.090 120.538 M252.908 121.000 C 252.879 129.580,252.979 136.909,253.128 137.288 C 253.380 137.924,253.337 114.540,253.075 108.200 C 253.011 106.660,252.936 112.420,252.908 121.000 M139.691 120.200 C 139.636 128.120,139.499 135.320,139.385 136.200 C 139.212 137.550,139.244 137.652,139.594 136.852 C 139.864 136.237,139.971 130.618,139.900 120.852 L 139.790 105.800 139.691 120.200 M194.138 121.106 C 193.884 121.268,194.902 121.400,196.400 121.400 C 197.898 121.400,198.916 121.268,198.662 121.106 C 198.408 120.944,197.390 120.812,196.400 120.812 C 195.410 120.812,194.392 120.944,194.138 121.106 M202.456 123.166 C 202.975 123.587,203.477 123.855,203.571 123.761 C 203.776 123.557,202.344 122.431,201.856 122.413 C 201.666 122.406,201.936 122.745,202.456 123.166 M204.000 124.193 C 204.000 124.325,204.382 124.831,204.849 125.317 L 205.699 126.200 205.247 125.322 C 204.800 124.454,204.000 123.729,204.000 124.193 M185.293 132.000 C 185.293 132.770,185.375 133.085,185.476 132.700 C 185.576 132.315,185.576 131.685,185.476 131.300 C 185.375 130.915,185.293 131.230,185.293 132.000 M185.634 134.920 C 185.599 135.656,186.657 138.000,187.024 138.000 C 187.136 138.000,187.017 137.606,186.759 137.123 C 186.501 136.641,186.150 135.786,185.979 135.223 C 185.773 134.543,185.657 134.441,185.634 134.920 M124.288 136.933 C 124.130 137.336,124.011 138.056,124.025 138.533 C 124.049 139.356,124.071 139.350,124.440 138.425 C 124.654 137.889,124.773 137.169,124.703 136.825 C 124.599 136.311,124.525 136.330,124.288 136.933 M187.651 139.098 C 188.396 140.047,188.861 140.496,189.802 141.181 C 190.241 141.501,189.888 141.006,189.019 140.081 C 187.413 138.374,186.651 137.827,187.651 139.098 M203.781 140.081 C 202.912 141.006,202.559 141.501,202.998 141.181 C 203.939 140.496,204.404 140.047,205.149 139.098 C 206.149 137.827,205.387 138.374,203.781 140.081 M253.606 141.033 C 253.609 141.675,253.784 142.470,253.995 142.800 C 254.255 143.209,254.299 142.890,254.132 141.800 C 253.829 139.823,253.598 139.486,253.606 141.033 M193.000 142.800 C 193.136 143.020,193.642 143.187,194.124 143.172 C 194.969 143.145,194.971 143.131,194.200 142.800 C 193.099 142.327,192.708 142.327,193.000 142.800 M198.600 142.800 C 197.829 143.131,197.831 143.145,198.676 143.172 C 199.158 143.187,199.664 143.020,199.800 142.800 C 200.092 142.327,199.701 142.327,198.600 142.800 M120.425 145.369 L 119.050 147.000 120.605 145.513 C 121.460 144.696,122.079 143.962,121.980 143.883 C 121.881 143.803,121.181 144.472,120.425 145.369 M272.196 145.596 C 272.826 146.254,273.411 146.723,273.495 146.638 C 273.680 146.453,271.672 144.400,271.307 144.400 C 271.166 144.400,271.566 144.938,272.196 145.596 M275.381 147.969 C 275.697 148.481,279.909 149.680,280.684 149.479 C 281.236 149.335,281.192 149.282,280.490 149.246 C 279.990 149.221,278.592 148.853,277.384 148.428 C 276.176 148.004,275.275 147.797,275.381 147.969 M112.600 149.200 C 111.522 149.474,111.502 149.506,112.400 149.513 C 112.950 149.517,113.850 149.376,114.400 149.200 C 115.744 148.769,114.292 148.769,112.600 149.200 M106.900 150.626 C 105.965 151.187,105.200 151.740,105.200 151.855 C 105.200 151.971,105.868 151.653,106.683 151.148 C 107.499 150.644,108.894 150.112,109.783 149.966 L 111.400 149.700 110.000 149.654 C 109.144 149.626,107.940 150.003,106.900 150.626 M134.449 151.500 C 133.771 152.545,132.470 154.173,131.560 155.119 C 130.649 156.064,129.989 156.923,130.093 157.027 C 130.197 157.130,131.219 156.087,132.364 154.708 C 134.476 152.163,136.241 149.600,135.881 149.600 C 135.772 149.600,135.128 150.455,134.449 151.500 M283.048 149.970 C 284.850 150.265,286.593 151.226,287.730 152.550 C 288.179 153.073,288.400 153.169,288.305 152.800 C 288.015 151.669,284.427 149.596,282.855 149.650 L 281.400 149.700 283.048 149.970 M260.401 154.592 C 261.170 155.467,261.954 156.300,262.143 156.442 C 262.331 156.584,262.356 157.109,262.197 157.608 C 261.945 158.403,261.985 158.447,262.512 157.958 C 263.273 157.254,262.956 156.655,260.732 154.600 L 259.001 153.000 260.401 154.592 M102.954 156.576 C 102.832 156.892,102.900 157.450,103.105 157.815 C 103.399 158.341,103.483 158.221,103.511 157.239 C 103.549 155.916,103.314 155.636,102.954 156.576 M289.200 157.024 C 289.200 157.587,289.363 157.946,289.562 157.823 C 289.762 157.700,289.831 157.239,289.716 156.800 C 289.428 155.699,289.200 155.798,289.200 157.024 M104.793 161.840 C 105.498 162.970,107.943 164.478,108.730 164.270 C 109.240 164.135,109.202 164.082,108.572 164.046 C 108.117 164.021,106.970 163.337,106.023 162.527 C 105.076 161.717,104.523 161.408,104.793 161.840 M110.600 164.804 C 111.367 165.130,114.711 165.353,114.367 165.056 C 114.275 164.977,113.210 164.811,112.000 164.688 C 110.631 164.549,110.102 164.592,110.600 164.804 M280.000 164.800 L 278.200 165.080 279.800 165.112 C 280.680 165.129,281.760 164.989,282.200 164.800 C 283.127 164.402,282.561 164.402,280.000 164.800 M117.000 166.276 C 118.334 167.503,120.554 168.895,119.801 168.033 C 119.361 167.530,118.461 166.846,117.801 166.513 C 117.140 166.181,116.780 166.074,117.000 166.276 M274.789 166.660 C 273.029 167.834,270.749 170.170,270.161 171.400 C 269.846 172.060,269.816 172.240,270.094 171.800 C 270.790 170.700,273.983 167.514,275.200 166.706 C 275.750 166.341,276.105 166.033,275.989 166.021 C 275.873 166.009,275.333 166.297,274.789 166.660 M195.062 171.100 C 194.960 171.265,195.681 171.418,196.663 171.439 C 197.754 171.463,198.245 171.348,197.925 171.145 C 197.268 170.729,195.310 170.698,195.062 171.100 M138.428 171.476 C 138.518 172.515,139.144 173.396,139.172 172.524 C 139.187 172.042,139.020 171.536,138.800 171.400 C 138.580 171.264,138.413 171.298,138.428 171.476 M253.867 171.467 C 253.720 171.613,253.621 172.378,253.646 173.167 L 253.692 174.600 254.004 173.000 C 254.331 171.319,254.305 171.028,253.867 171.467 M199.233 171.716 C 199.325 171.780,200.120 172.333,201.000 172.945 L 202.600 174.058 201.215 172.829 C 200.453 172.153,199.658 171.600,199.448 171.600 C 199.238 171.600,199.142 171.652,199.233 171.716 M190.998 173.202 C 189.942 174.369,190.440 174.523,191.548 173.373 C 192.063 172.838,192.313 172.400,192.104 172.400 C 191.895 172.400,191.397 172.761,190.998 173.202 M124.034 175.800 C 124.072 177.166,124.738 178.442,124.766 177.200 C 124.778 176.650,124.613 175.930,124.400 175.600 C 124.080 175.105,124.016 175.140,124.034 175.800 M268.256 176.084 C 268.121 176.588,268.049 184.470,268.095 193.600 L 268.179 210.200 268.390 192.800 C 268.505 183.230,268.578 175.348,268.551 175.284 C 268.524 175.220,268.391 175.580,268.256 176.084 M203.256 176.200 C 203.256 176.640,203.411 177.360,203.600 177.800 L 203.944 178.600 203.944 177.800 C 203.944 177.360,203.789 176.640,203.600 176.200 L 203.256 175.400 203.256 176.200 M189.067 176.667 C 188.920 176.813,188.818 177.488,188.841 178.167 L 188.882 179.400 189.210 178.003 C 189.553 176.547,189.517 176.216,189.067 176.667 M253.056 177.284 C 252.921 177.788,252.848 185.130,252.892 193.600 L 252.974 209.000 253.187 192.800 C 253.304 183.890,253.378 176.548,253.351 176.484 C 253.324 176.420,253.191 176.780,253.056 177.284 M139.505 189.712 C 139.563 196.801,139.662 203.860,139.726 205.400 C 139.789 206.940,139.864 201.450,139.892 193.200 C 139.921 184.950,139.821 177.891,139.672 177.512 C 139.522 177.134,139.447 182.624,139.505 189.712 M188.800 200.710 C 188.800 201.393,188.977 202.062,189.194 202.196 C 189.440 202.348,189.494 201.945,189.337 201.120 C 189.000 199.351,188.800 199.199,188.800 200.710 M203.429 201.429 C 203.281 202.015,203.238 202.572,203.332 202.666 C 203.427 202.760,203.624 202.358,203.771 201.771 C 203.919 201.185,203.962 200.628,203.868 200.534 C 203.773 200.440,203.576 200.842,203.429 201.429 M202.214 204.235 C 201.841 204.804,201.605 205.338,201.689 205.422 C 201.773 205.507,202.158 205.041,202.544 204.388 C 203.406 202.928,203.148 202.809,202.214 204.235 M192.624 206.587 C 193.051 206.910,193.580 207.175,193.800 207.175 C 194.020 207.175,193.851 206.910,193.424 206.587 C 192.996 206.264,192.467 206.000,192.247 206.000 C 192.027 206.000,192.196 206.264,192.624 206.587 M251.776 210.692 C 251.383 211.293,250.687 212.114,250.230 212.516 C 249.410 213.239,249.412 213.240,250.404 212.641 C 250.956 212.307,251.731 211.487,252.126 210.817 C 253.020 209.304,252.749 209.207,251.776 210.692 M124.828 211.076 C 124.813 211.558,124.980 212.064,125.200 212.200 C 125.673 212.492,125.673 212.101,125.200 211.000 C 124.869 210.229,124.855 210.231,124.828 211.076 M267.273 212.473 C 267.035 213.409,266.910 214.243,266.994 214.327 C 267.078 214.412,267.351 213.724,267.600 212.800 C 267.849 211.876,267.974 211.041,267.879 210.945 C 267.783 210.850,267.510 211.537,267.273 212.473 M144.400 213.594 C 144.730 213.811,145.435 213.991,145.967 213.994 C 147.251 214.002,146.925 213.775,145.200 213.458 C 144.215 213.277,143.978 213.318,144.400 213.594 M247.000 213.600 C 245.911 213.877,245.893 213.907,246.800 213.925 C 247.350 213.935,248.160 213.789,248.600 213.600 C 249.586 213.176,248.666 213.176,247.000 213.600 M150.000 214.911 C 150.000 214.987,150.585 215.478,151.300 216.001 C 152.104 216.590,152.384 216.687,152.033 216.255 C 151.500 215.599,150.000 214.607,150.000 214.911 M265.472 217.083 C 264.852 218.292,264.503 219.183,264.698 219.063 C 265.161 218.777,266.977 215.241,266.764 215.039 C 266.674 214.953,266.092 215.873,265.472 217.083 M153.268 219.000 C 153.262 219.440,153.411 220.160,153.600 220.600 C 154.038 221.619,154.038 220.568,153.600 219.200 C 153.343 218.396,153.277 218.357,153.268 219.000 M239.067 219.467 C 238.700 219.833,238.729 223.109,239.100 223.338 C 239.265 223.440,239.400 222.551,239.400 221.362 C 239.400 220.173,239.385 219.200,239.367 219.200 C 239.348 219.200,239.213 219.320,239.067 219.467 M263.270 220.526 C 262.791 221.035,262.400 221.588,262.400 221.754 C 262.400 222.069,263.003 221.502,263.949 220.298 C 264.743 219.289,264.289 219.440,263.270 220.526 M153.400 222.800 C 153.248 223.491,153.214 224.147,153.324 224.257 C 153.434 224.367,153.648 223.891,153.800 223.200 C 153.952 222.509,153.986 221.853,153.876 221.743 C 153.766 221.633,153.552 222.109,153.400 222.800 M131.622 223.061 C 131.648 223.450,133.979 225.369,134.158 225.147 C 134.222 225.066,133.674 224.487,132.938 223.861 C 132.202 223.234,131.610 222.874,131.622 223.061 M259.429 224.229 C 259.005 224.538,258.736 224.869,258.830 224.963 C 258.924 225.057,259.348 224.881,259.771 224.571 C 260.195 224.262,260.464 223.931,260.370 223.837 C 260.276 223.743,259.852 223.919,259.429 224.229 M240.400 225.896 C 240.400 226.358,241.936 227.797,242.175 227.558 C 242.269 227.465,241.907 226.967,241.373 226.452 C 240.838 225.937,240.400 225.687,240.400 225.896 M150.641 227.227 C 149.783 227.872,149.250 228.400,149.456 228.400 C 149.662 228.400,150.453 227.867,151.215 227.216 C 152.987 225.702,152.661 225.708,150.641 227.227 M251.800 228.000 C 251.029 228.331,251.031 228.345,251.876 228.372 C 252.358 228.387,252.864 228.220,253.000 228.000 C 253.292 227.527,252.901 227.527,251.800 228.000 M143.400 228.827 C 144.426 229.233,147.261 229.276,147.861 228.894 C 148.115 228.732,147.035 228.580,145.461 228.555 C 143.690 228.527,142.905 228.630,143.400 228.827 M245.064 228.900 C 245.304 229.293,248.376 229.235,249.400 228.818 C 249.914 228.608,249.251 228.511,247.540 228.546 C 246.077 228.576,244.962 228.735,245.064 228.900 M122.700 278.300 C 165.215 278.356,234.785 278.356,277.300 278.300 C 319.815 278.244,285.030 278.198,200.000 278.198 C 114.970 278.198,80.185 278.244,122.700 278.300 M115.797 305.494 L 121.195 305.623 121.301 333.811 L 121.408 362.000 121.404 333.700 L 121.400 305.400 115.899 305.382 L 110.399 305.365 115.797 305.494 M109.789 333.000 C 109.789 348.180,109.839 354.332,109.900 346.671 C 109.961 339.010,109.961 326.590,109.900 319.071 C 109.839 311.552,109.789 317.820,109.789 333.000 M318.600 342.600 C 318.600 362.248,318.735 378.240,318.900 378.138 C 319.065 378.036,319.200 362.044,319.200 342.600 C 319.200 323.156,319.065 307.164,318.900 307.062 C 318.735 306.960,318.600 322.952,318.600 342.600 M151.600 331.325 C 151.600 331.394,152.185 331.979,152.900 332.625 L 154.200 333.800 153.025 332.500 C 151.930 331.288,151.600 331.016,151.600 331.325 M142.800 336.925 C 142.800 336.994,143.385 337.579,144.100 338.225 L 145.400 339.400 144.225 338.100 C 143.130 336.888,142.800 336.616,142.800 336.925 M97.300 369.076 C 97.685 369.176,98.315 369.176,98.700 369.076 C 99.085 368.975,98.770 368.893,98.000 368.893 C 97.230 368.893,96.915 368.975,97.300 369.076 M45.900 392.265 C 46.175 392.376,46.400 392.902,46.400 393.433 C 46.400 393.965,46.580 394.400,46.800 394.400 C 47.020 394.400,47.200 394.700,47.200 395.067 C 47.200 395.433,47.320 395.613,47.467 395.466 C 47.614 395.319,47.541 394.794,47.304 394.299 C 47.066 393.805,46.772 393.085,46.649 392.700 C 46.526 392.315,46.194 392.014,45.913 392.032 C 45.511 392.056,45.508 392.107,45.900 392.265 M353.351 392.700 C 353.228 393.085,352.934 393.805,352.696 394.299 C 352.459 394.794,352.386 395.319,352.533 395.466 C 352.680 395.613,352.800 395.433,352.800 395.067 C 352.800 394.700,352.980 394.400,353.200 394.400 C 353.420 394.400,353.600 393.965,353.600 393.433 C 353.600 392.902,353.825 392.376,354.100 392.265 C 354.492 392.107,354.489 392.056,354.087 392.032 C 353.806 392.014,353.474 392.315,353.351 392.700 M48.025 396.200 C 48.025 396.420,48.290 396.949,48.613 397.376 C 48.936 397.804,49.200 397.973,49.200 397.753 C 49.200 397.533,48.936 397.004,48.613 396.576 C 48.290 396.149,48.025 395.980,48.025 396.200 M351.232 396.739 C 350.579 397.960,350.714 398.300,351.441 397.263 C 351.793 396.760,351.988 396.254,351.873 396.140 C 351.759 396.025,351.470 396.295,351.232 396.739 " stroke="none" fill="#dcd4cc" fill-rule="evenodd"></path><path id="path3" d="M49.402 1.998 C 49.003 2.439,48.807 2.800,48.967 2.800 C 49.388 2.800,50.528 1.595,50.312 1.379 C 50.211 1.278,49.802 1.556,49.402 1.998 M353.600 87.753 C 353.600 88.083,353.780 88.464,354.000 88.600 C 354.220 88.736,354.400 88.577,354.400 88.247 C 354.400 87.917,354.220 87.536,354.000 87.400 C 353.780 87.264,353.600 87.423,353.600 87.753 M110.284 333.300 C 110.161 360.087,110.078 362.236,109.078 364.400 C 107.671 367.444,103.693 369.261,98.400 369.276 C 93.960 369.289,87.381 367.741,84.040 365.897 C 82.557 365.079,82.576 365.068,81.329 367.400 C 80.976 368.060,80.163 369.367,79.522 370.303 C 78.246 372.169,78.286 372.482,79.908 373.301 C 80.509 373.605,81.405 374.066,81.900 374.326 C 84.015 375.439,84.431 375.600,85.195 375.600 C 85.638 375.600,86.000 375.780,86.000 376.000 C 86.000 376.220,86.439 376.400,86.976 376.400 C 87.513 376.400,88.052 376.561,88.174 376.758 C 88.295 376.955,89.071 377.216,89.897 377.338 C 90.724 377.461,92.750 377.789,94.400 378.068 C 98.919 378.832,107.643 378.501,108.235 377.543 C 108.352 377.355,108.870 377.200,109.386 377.200 C 112.176 377.200,117.422 372.996,119.144 369.382 C 119.663 368.292,120.248 367.087,120.444 366.705 C 120.643 366.317,120.800 352.681,120.800 335.805 L 120.800 305.600 115.605 305.600 L 110.411 305.600 110.284 333.300 M158.400 305.979 C 157.850 306.167,156.733 306.338,155.919 306.360 C 155.104 306.382,153.934 306.602,153.319 306.850 C 152.703 307.097,151.795 307.457,151.300 307.650 C 149.779 308.242,148.210 308.987,148.000 309.219 C 147.890 309.340,147.170 309.874,146.400 310.406 C 144.614 311.639,142.551 313.886,141.906 315.300 C 141.630 315.905,141.269 316.400,141.102 316.400 C 140.936 316.400,140.800 316.749,140.800 317.176 C 140.800 317.603,140.620 318.064,140.400 318.200 C 140.180 318.336,140.000 318.876,140.000 319.400 C 140.000 319.924,139.820 320.464,139.600 320.600 C 138.803 321.093,139.116 329.465,140.000 331.294 C 140.440 332.205,140.803 333.141,140.807 333.375 C 140.848 335.746,148.204 341.599,156.400 345.780 C 166.523 350.944,169.221 353.795,169.182 359.287 C 169.110 369.598,157.911 372.999,143.166 367.187 C 140.355 366.079,140.000 366.145,140.000 367.776 C 140.000 368.533,139.820 369.264,139.600 369.400 C 139.380 369.536,139.200 370.231,139.200 370.944 C 139.200 371.657,139.005 372.435,138.767 372.673 C 138.051 373.389,142.153 376.400,143.843 376.400 C 144.155 376.400,144.723 376.562,145.105 376.761 C 147.334 377.919,156.087 378.977,158.600 378.392 C 159.480 378.187,160.954 378.015,161.876 378.010 C 162.798 378.004,163.664 377.820,163.800 377.600 C 163.936 377.380,164.468 377.200,164.983 377.200 C 167.428 377.200,172.766 373.627,175.316 370.284 C 176.613 368.584,177.166 367.572,178.419 364.600 C 179.428 362.208,179.723 359.168,179.224 356.299 C 178.710 353.340,178.599 352.972,177.387 350.226 C 176.674 348.611,171.738 343.203,170.975 343.201 C 170.742 343.200,170.202 342.880,169.775 342.489 C 169.349 342.098,166.012 340.301,162.361 338.496 C 150.184 332.476,146.777 327.487,150.502 321.131 C 153.845 315.426,163.170 312.944,169.915 315.964 C 172.104 316.944,173.141 316.617,173.187 314.933 C 173.194 314.677,173.343 314.407,173.519 314.333 C 174.391 313.968,176.342 309.000,175.671 308.854 C 175.302 308.773,174.910 308.592,174.800 308.452 C 174.486 308.050,171.834 307.200,170.895 307.200 C 170.429 307.200,169.952 307.046,169.836 306.858 C 169.720 306.670,168.224 306.399,166.512 306.256 C 164.801 306.113,162.500 305.915,161.400 305.817 C 160.300 305.718,158.950 305.791,158.400 305.979 M219.000 305.984 C 218.560 306.182,217.176 306.356,215.924 306.372 C 214.672 306.387,213.536 306.580,213.400 306.800 C 213.264 307.020,212.724 307.200,212.200 307.200 C 211.676 307.200,211.136 307.380,211.000 307.600 C 210.864 307.820,210.439 308.000,210.056 308.000 C 209.181 308.000,207.207 308.899,207.203 309.300 C 207.201 309.465,207.007 309.600,206.772 309.600 C 205.630 309.600,200.381 314.067,198.782 316.400 C 198.254 317.170,197.531 318.118,197.175 318.507 C 196.512 319.231,196.126 319.951,195.088 322.400 C 194.762 323.170,194.220 324.430,193.884 325.200 C 193.283 326.576,192.951 327.820,192.549 330.200 C 192.437 330.860,192.189 331.760,191.997 332.200 C 190.962 334.573,190.999 351.076,192.041 352.180 C 192.239 352.389,192.400 353.233,192.400 354.056 C 192.400 354.879,192.580 355.664,192.800 355.800 C 193.020 355.936,193.200 356.489,193.200 357.029 C 193.200 357.569,193.408 358.413,193.662 358.905 C 194.633 360.782,194.800 361.207,194.800 361.795 C 194.800 362.128,194.980 362.400,195.200 362.400 C 195.420 362.400,195.600 362.678,195.600 363.018 C 195.600 364.880,203.472 374.000,205.079 374.000 C 205.366 374.000,205.600 374.180,205.600 374.400 C 205.600 374.620,205.797 374.800,206.038 374.800 C 206.279 374.800,206.954 375.126,207.538 375.525 C 208.122 375.924,209.410 376.485,210.400 376.771 C 211.390 377.057,212.560 377.437,213.000 377.615 C 215.803 378.748,225.487 378.740,228.200 377.603 C 228.640 377.418,229.855 377.033,230.900 376.746 C 231.945 376.460,232.800 376.118,232.800 375.987 C 232.800 375.856,233.430 375.502,234.200 375.200 C 234.970 374.898,235.600 374.504,235.600 374.325 C 235.600 374.146,235.856 374.000,236.168 374.000 C 236.759 374.000,242.800 368.422,242.800 367.877 C 242.800 367.706,243.150 367.190,243.579 366.731 C 251.950 357.745,251.911 330.284,243.508 317.853 C 241.164 314.385,235.899 309.600,234.428 309.600 C 234.193 309.600,233.999 309.465,233.997 309.300 C 233.993 308.899,232.019 308.000,231.144 308.000 C 230.761 308.000,230.336 307.820,230.200 307.600 C 230.064 307.380,229.549 307.200,229.056 307.200 C 228.563 307.200,227.989 307.039,227.780 306.842 C 227.571 306.645,226.230 306.383,224.800 306.259 C 223.370 306.135,221.660 305.942,221.000 305.829 C 220.340 305.717,219.440 305.786,219.000 305.984 M267.600 342.589 L 267.600 378.000 273.200 378.000 L 278.800 378.000 278.800 353.667 C 278.800 340.283,278.915 329.218,279.056 329.077 C 279.278 328.855,281.600 332.092,281.600 332.622 C 281.600 332.730,282.022 333.488,282.538 334.309 C 283.351 335.600,284.758 338.065,288.360 344.500 C 288.822 345.325,289.560 346.630,290.000 347.400 C 290.440 348.170,291.160 349.430,291.600 350.200 C 292.040 350.970,292.760 352.230,293.200 353.000 C 293.640 353.770,294.360 355.030,294.800 355.800 C 295.240 356.570,295.960 357.830,296.400 358.600 C 298.460 362.204,298.975 363.109,299.815 364.600 C 300.311 365.480,301.592 367.730,302.660 369.600 C 303.728 371.470,304.871 373.540,305.200 374.200 C 305.529 374.860,305.889 375.490,306.000 375.600 C 306.111 375.710,306.456 376.295,306.768 376.900 L 307.335 378.000 312.868 378.000 L 318.400 378.000 318.400 342.588 L 318.400 307.177 313.100 307.288 L 307.800 307.400 307.697 331.700 C 307.640 345.065,307.460 355.997,307.297 355.994 C 306.794 355.984,306.224 355.443,305.662 354.445 C 304.835 352.975,303.682 350.944,302.800 349.400 C 302.360 348.630,301.622 347.325,301.160 346.500 C 297.672 340.268,296.159 337.611,295.408 336.400 C 294.931 335.630,294.284 334.415,293.972 333.700 C 293.660 332.985,293.302 332.400,293.177 332.400 C 293.052 332.400,292.702 331.770,292.400 331.000 C 292.098 330.230,291.748 329.600,291.623 329.600 C 291.498 329.600,291.141 329.015,290.830 328.300 C 290.519 327.585,290.160 326.910,290.032 326.800 C 289.662 326.481,288.435 324.330,287.694 322.700 C 287.318 321.875,286.874 321.200,286.706 321.200 C 286.538 321.200,286.400 321.045,286.400 320.856 C 286.400 320.666,284.722 317.561,282.672 313.956 L 278.944 307.400 273.272 307.289 L 267.600 307.178 267.600 342.589 M225.829 315.462 C 230.660 317.085,236.800 323.952,236.800 327.734 C 236.800 328.074,236.961 328.452,237.158 328.574 C 237.506 328.789,237.615 329.342,238.388 334.800 C 241.080 353.813,234.880 367.912,223.101 369.562 C 214.873 370.714,208.278 366.673,204.883 358.400 C 201.941 351.231,201.208 339.395,203.218 331.500 C 204.092 328.067,204.557 326.579,204.870 326.220 C 205.051 326.011,205.200 325.550,205.200 325.195 C 205.200 324.841,205.560 324.164,206.000 323.692 C 206.440 323.220,206.800 322.665,206.800 322.460 C 206.800 321.830,210.353 318.094,211.807 317.196 C 215.640 314.827,221.705 314.077,225.829 315.462 M46.813 395.882 C 46.836 396.421,48.406 398.128,48.652 397.881 C 48.780 397.753,48.416 397.179,47.842 396.606 C 47.269 396.033,46.806 395.707,46.813 395.882 M352.060 396.651 C 351.543 397.202,351.223 397.756,351.350 397.883 C 351.590 398.123,353.163 396.424,353.187 395.900 C 353.206 395.469,353.107 395.535,352.060 396.651 " stroke="none" fill="#fbfbfb" fill-rule="evenodd"></path><path id="path4" d="M146.034 85.983 C 149.323 86.320,151.245 87.453,152.363 89.710 C 152.861 90.717,153.199 91.092,153.200 90.638 C 153.201 88.178,149.240 85.586,145.600 85.666 L 143.400 85.714 146.034 85.983 M243.354 86.365 C 237.159 89.178,238.781 100.169,245.360 99.961 C 246.506 99.924,246.469 99.886,244.880 99.461 C 236.843 97.308,238.485 86.858,247.000 85.972 L 249.400 85.722 247.200 85.670 C 245.806 85.637,244.397 85.892,243.354 86.365 M138.946 86.954 C 132.721 89.268,128.217 94.052,125.725 101.000 C 125.090 102.770,124.982 105.047,124.788 120.800 C 124.640 132.774,124.416 139.037,124.102 139.934 C 122.372 144.888,118.573 148.214,113.200 149.479 L 111.000 149.997 112.843 149.854 C 118.032 149.452,122.194 145.826,124.749 139.481 C 125.057 138.717,125.204 133.142,125.214 121.881 C 125.224 109.804,125.369 104.744,125.755 102.946 C 127.389 95.331,133.039 89.172,140.400 86.977 C 141.610 86.616,142.780 86.263,143.000 86.192 C 143.220 86.121,142.950 86.058,142.400 86.052 C 141.850 86.047,140.296 86.452,138.946 86.954 M249.800 86.192 C 250.020 86.263,251.190 86.616,252.400 86.977 C 258.984 88.940,264.954 94.833,266.606 101.000 C 266.839 101.866,266.974 102.003,267.095 101.492 C 267.424 100.096,264.361 94.799,261.624 92.031 C 258.367 88.736,253.033 85.926,250.237 86.032 C 249.777 86.049,249.580 86.121,249.800 86.192 M153.206 92.450 C 153.184 96.317,151.079 98.797,147.167 99.568 C 143.424 100.305,142.519 100.734,141.026 102.478 C 139.089 104.742,139.107 104.563,138.833 123.800 L 138.582 141.400 137.455 144.579 C 136.196 148.127,133.190 153.082,131.024 155.178 C 129.235 156.910,129.259 157.418,131.228 159.400 C 133.437 161.624,136.237 166.218,137.496 169.684 L 138.555 172.600 138.807 190.400 C 138.946 200.190,139.206 208.650,139.385 209.200 C 140.317 212.065,142.965 213.996,146.800 214.608 C 156.181 216.104,155.057 228.000,145.534 228.000 C 137.046 228.000,129.506 222.399,126.417 213.800 L 125.411 211.000 125.304 193.800 C 125.185 174.617,125.130 174.165,122.465 170.327 C 120.874 168.035,116.541 164.800,115.064 164.800 C 114.537 164.801,115.137 165.246,116.600 165.942 C 119.228 167.192,122.321 170.191,123.284 172.424 C 124.749 175.822,124.800 176.525,124.800 193.269 C 124.800 202.405,124.959 210.402,125.153 211.040 C 125.348 211.678,125.746 213.010,126.039 214.000 C 130.007 227.427,150.617 234.220,153.403 223.019 C 154.507 218.578,151.650 214.873,146.483 214.045 C 143.758 213.608,141.939 212.600,140.801 210.896 L 139.803 209.400 139.553 191.600 L 139.304 173.800 138.079 170.193 C 136.671 166.049,134.853 162.847,132.117 159.697 C 129.660 156.867,129.692 157.066,131.396 155.306 C 133.045 153.602,136.800 148.257,136.800 147.613 C 136.800 147.380,136.976 146.877,137.191 146.495 C 139.119 143.073,139.282 141.424,139.547 122.600 C 139.852 100.897,139.622 101.656,146.305 100.273 C 149.663 99.578,151.227 98.729,152.246 97.046 C 153.273 95.349,153.976 92.606,153.554 91.940 C 153.314 91.561,153.210 91.713,153.206 92.450 M248.193 100.544 C 252.934 101.861,253.200 102.932,253.201 120.750 C 253.203 142.727,254.306 147.519,261.056 154.861 L 263.194 157.187 261.184 159.293 C 254.365 166.437,253.203 171.487,253.201 193.974 C 253.200 212.143,252.935 212.961,246.726 213.984 C 241.689 214.814,239.402 217.139,239.401 221.429 C 239.398 232.837,258.495 230.014,265.230 217.612 C 267.926 212.647,268.009 211.909,267.919 193.557 L 267.838 177.000 267.594 194.200 C 267.368 210.138,267.290 211.567,266.535 213.682 C 263.429 222.375,255.778 228.000,247.061 228.000 L 243.579 228.000 241.852 226.273 C 237.214 221.635,239.758 215.730,246.969 214.396 C 250.054 213.825,252.757 211.714,253.402 209.371 C 253.579 208.727,253.835 200.280,253.969 190.600 L 254.214 173.000 255.350 169.801 C 255.975 168.042,256.788 166.152,257.157 165.601 C 257.527 165.051,258.092 164.068,258.414 163.418 C 258.736 162.768,260.043 161.117,261.317 159.748 L 263.635 157.261 261.217 154.452 C 259.888 152.907,258.800 151.531,258.800 151.394 C 258.800 151.256,258.260 150.359,257.600 149.400 C 256.940 148.441,256.400 147.461,256.400 147.223 C 256.400 146.984,256.226 146.477,256.013 146.095 C 254.323 143.065,254.223 141.970,253.985 123.800 C 253.859 114.120,253.585 105.750,253.378 105.200 C 252.246 102.204,249.678 99.937,247.546 100.051 C 246.861 100.087,247.040 100.223,248.193 100.544 M267.509 118.114 C 267.569 126.741,267.673 134.520,267.739 135.400 C 267.806 136.280,267.879 129.530,267.902 120.400 C 267.925 111.270,267.821 103.491,267.672 103.114 C 267.522 102.736,267.449 109.486,267.509 118.114 M193.800 121.551 C 188.986 122.816,185.547 127.320,185.667 132.200 L 185.726 134.600 185.977 132.000 C 187.299 118.279,206.834 118.571,206.793 132.311 C 206.760 143.591,191.917 146.374,186.765 136.067 C 186.362 135.260,186.025 134.832,186.016 135.116 C 185.968 136.683,189.077 140.566,191.400 141.839 C 198.394 145.673,207.200 140.270,207.200 132.147 C 207.200 125.230,200.364 119.825,193.800 121.551 M268.028 138.600 C 267.877 142.970,274.746 149.450,279.957 149.854 L 281.800 149.997 279.600 149.460 C 274.068 148.111,270.493 144.931,268.740 139.800 C 268.364 138.700,268.044 138.160,268.028 138.600 M106.992 150.972 C 99.828 155.267,104.191 165.016,113.167 164.772 C 114.856 164.726,112.947 164.062,111.026 164.028 C 102.825 163.882,101.348 152.415,109.285 150.508 C 110.793 150.146,110.855 150.091,109.800 150.052 C 109.140 150.027,107.876 150.441,106.992 150.972 M283.628 150.542 C 289.680 152.483,290.786 159.806,285.505 162.971 C 284.567 163.533,284.059 163.994,284.375 163.996 C 285.298 164.002,287.369 162.405,288.321 160.952 C 290.956 156.933,287.593 149.845,283.146 150.042 C 282.387 150.076,282.483 150.175,283.628 150.542 M279.400 164.400 C 278.355 164.849,280.835 164.849,282.600 164.400 C 283.683 164.124,283.625 164.093,282.000 164.075 C 281.010 164.065,279.840 164.211,279.400 164.400 M275.400 165.735 C 271.914 167.619,268.704 171.851,268.213 175.210 C 268.014 176.569,268.022 176.563,268.557 174.978 C 270.026 170.625,272.720 167.519,276.530 165.787 C 277.668 165.270,278.240 164.852,277.800 164.858 C 277.360 164.865,276.280 165.260,275.400 165.735 M194.558 171.570 C 191.879 172.228,189.938 174.546,189.239 177.920 C 188.658 180.727,188.666 198.131,189.250 200.880 C 191.009 209.162,200.986 209.526,203.494 201.400 C 204.167 199.221,204.157 179.726,203.482 177.181 C 202.341 172.878,198.658 170.562,194.558 171.570 M200.139 172.870 C 202.978 174.731,202.986 174.776,203.120 188.800 C 203.240 201.369,203.238 201.404,202.299 203.179 C 199.937 207.644,193.613 207.932,190.800 203.703 C 189.754 202.131,189.050 183.734,189.803 177.655 C 190.397 172.858,196.096 170.220,200.139 172.870 M45.600 335.157 C 45.600 385.239,45.671 391.941,46.200 392.145 C 46.530 392.271,46.813 392.696,46.829 393.087 C 46.845 393.479,47.203 394.340,47.625 395.000 C 48.046 395.660,48.682 396.755,49.038 397.433 C 49.393 398.112,49.936 398.667,50.242 398.667 C 51.046 398.667,50.944 398.370,49.598 396.800 C 48.939 396.030,47.994 394.590,47.499 393.600 L 46.600 391.800 46.600 335.400 L 46.600 279.000 200.000 279.000 L 353.400 279.000 353.400 335.400 L 353.400 391.800 352.501 393.600 C 352.006 394.590,351.061 396.030,350.402 396.800 C 349.056 398.370,348.954 398.667,349.758 398.667 C 350.064 398.667,350.607 398.112,350.962 397.433 C 351.318 396.755,351.954 395.660,352.375 395.000 C 352.797 394.340,353.155 393.479,353.171 393.087 C 353.187 392.696,353.470 392.271,353.800 392.145 C 354.329 391.941,354.400 385.239,354.400 335.157 L 354.400 278.400 200.000 278.400 L 45.600 278.400 45.600 335.157 M109.400 305.690 C 109.279 306.190,109.230 319.200,109.292 334.600 L 109.406 362.600 109.503 334.108 L 109.600 305.615 110.500 305.392 C 110.995 305.269,113.650 305.221,116.400 305.284 L 121.400 305.400 121.400 335.317 C 121.400 351.771,121.536 364.576,121.703 363.774 C 121.869 362.971,121.959 349.419,121.903 333.657 L 121.800 305.000 115.710 304.890 C 109.664 304.780,109.619 304.786,109.400 305.690 M155.200 305.583 C 154.650 305.759,153.390 306.141,152.400 306.433 C 146.483 308.175,141.765 312.717,139.345 319.000 C 138.033 322.408,138.218 329.144,139.718 332.549 C 140.093 333.401,140.406 334.211,140.413 334.349 C 140.430 334.698,142.307 336.800,142.601 336.800 C 142.733 336.800,142.394 336.215,141.849 335.500 C 138.066 330.540,137.875 321.450,141.427 315.390 C 146.570 306.615,158.259 303.491,172.400 307.114 C 176.787 308.238,176.915 308.590,174.611 313.177 C 172.440 317.502,172.452 317.493,169.891 316.391 C 168.296 315.705,166.880 315.477,163.616 315.379 L 159.400 315.253 163.689 315.592 C 166.892 315.846,168.533 316.185,170.165 316.933 L 172.352 317.934 173.053 316.867 C 174.352 314.892,176.800 309.895,176.800 309.219 C 176.800 306.752,160.253 303.967,155.200 305.583 M214.528 305.745 C 213.388 305.995,212.308 306.364,212.128 306.564 C 211.936 306.777,212.106 306.817,212.539 306.661 C 217.782 304.773,229.190 305.853,233.978 308.690 L 235.000 309.295 234.013 308.480 C 230.866 305.882,220.517 304.430,214.528 305.745 M267.247 306.544 C 266.918 306.940,266.823 316.757,266.898 342.844 L 267.000 378.600 273.097 378.710 L 279.194 378.821 279.297 354.585 L 279.400 330.348 281.775 334.474 C 283.081 336.743,284.806 339.770,285.607 341.200 C 286.409 342.630,287.455 344.475,287.933 345.300 C 289.234 347.551,290.305 349.430,291.238 351.100 C 291.698 351.925,292.266 352.780,292.500 353.000 C 293.054 353.522,292.002 351.605,285.152 339.613 C 282.019 334.129,279.308 329.733,279.128 329.845 C 278.948 329.956,278.800 340.927,278.800 354.224 L 278.800 378.400 273.000 378.400 L 267.200 378.400 267.200 342.600 L 267.200 306.800 272.900 306.806 C 278.918 306.813,279.091 306.851,279.938 308.355 C 280.233 308.880,280.818 309.915,281.238 310.655 C 281.657 311.395,282.377 312.675,282.838 313.500 C 283.804 315.230,284.748 316.294,283.992 314.800 C 282.829 312.505,279.825 307.349,279.272 306.700 C 278.484 305.775,267.998 305.639,267.247 306.544 M307.479 306.500 C 306.765 307.030,306.189 355.200,306.897 355.200 C 307.060 355.200,307.240 344.355,307.297 331.100 L 307.400 307.000 313.200 307.000 L 319.000 307.000 319.000 342.600 L 319.000 378.200 313.146 378.310 L 307.291 378.421 306.391 376.910 C 305.896 376.080,305.137 374.770,304.705 374.000 C 299.794 365.256,296.262 359.204,296.142 359.325 C 296.060 359.407,297.727 362.517,299.846 366.237 C 301.965 369.957,304.242 373.990,304.906 375.200 C 307.007 379.031,306.533 378.835,313.371 378.710 L 319.400 378.600 319.504 342.800 C 319.600 309.498,319.560 306.965,318.927 306.500 C 318.468 306.162,316.608 306.000,313.200 306.000 C 309.788 306.000,307.935 306.162,307.479 306.500 M208.612 307.624 C 207.738 308.060,206.838 308.618,206.612 308.865 C 206.385 309.112,206.740 309.016,207.400 308.652 C 208.060 308.288,209.320 307.735,210.200 307.423 C 211.090 307.108,211.445 306.851,211.000 306.844 C 210.560 306.837,209.485 307.188,208.612 307.624 M204.200 310.102 C 200.796 312.587,196.116 318.017,194.878 320.919 C 194.036 322.890,194.379 322.664,195.606 320.439 C 197.879 316.314,202.093 311.699,205.057 310.087 C 205.576 309.805,206.000 309.490,206.000 309.387 C 206.000 309.000,205.362 309.253,204.200 310.102 M235.762 309.724 C 236.181 309.986,237.126 310.714,237.862 311.341 C 238.598 311.969,239.200 312.361,239.200 312.213 C 239.200 311.660,235.993 309.178,235.338 309.224 C 235.152 309.236,235.343 309.461,235.762 309.724 M241.034 314.005 C 242.831 316.024,246.000 320.562,246.000 321.117 C 246.000 321.315,246.259 322.000,246.575 322.639 C 246.892 323.277,247.347 324.320,247.587 324.955 C 247.826 325.591,248.107 326.026,248.210 325.923 C 248.991 325.142,243.649 316.068,240.956 313.600 L 239.428 312.200 241.034 314.005 M219.000 315.201 C 217.653 315.441,217.874 315.495,220.403 315.543 C 222.054 315.574,224.022 315.777,224.776 315.993 C 225.530 316.209,226.222 316.311,226.314 316.219 C 226.883 315.650,221.042 314.837,219.000 315.201 M157.200 316.000 C 156.405 316.514,157.404 316.514,158.600 316.000 L 159.400 315.656 158.600 315.634 C 158.160 315.622,157.530 315.787,157.200 316.000 M215.200 316.000 C 214.405 316.514,215.404 316.514,216.600 316.000 L 217.400 315.656 216.600 315.634 C 216.160 315.622,215.530 315.787,215.200 316.000 M284.467 316.309 C 285.022 317.594,288.117 322.816,288.247 322.686 C 288.434 322.500,284.815 316.000,284.524 316.000 C 284.419 316.000,284.393 316.139,284.467 316.309 M228.622 317.639 C 229.710 318.320,231.267 319.625,232.083 320.539 C 232.899 321.453,233.574 322.060,233.583 321.889 C 233.636 320.921,228.338 316.400,227.150 316.400 C 226.871 316.400,227.534 316.958,228.622 317.639 M153.300 318.234 C 151.704 319.491,149.987 322.333,150.036 323.635 C 150.065 324.415,150.148 324.334,150.470 323.215 C 150.956 321.520,152.146 319.755,153.774 318.316 C 155.332 316.939,155.013 316.884,153.300 318.234 M211.363 317.957 C 209.445 319.127,205.147 324.880,205.745 325.478 C 205.875 325.608,206.106 325.374,206.258 324.957 C 207.014 322.888,209.856 319.431,212.066 317.893 C 213.357 316.993,212.870 317.038,211.363 317.957 M234.986 325.300 C 237.390 330.528,238.076 334.349,238.069 342.461 C 238.050 361.983,228.193 372.970,215.000 368.173 C 214.462 367.978,214.331 368.015,214.600 368.287 C 217.362 371.080,226.650 369.415,231.218 365.308 C 237.059 360.057,240.409 344.394,238.018 333.521 C 237.196 329.781,235.903 325.848,234.921 324.100 C 233.468 321.514,233.498 322.065,234.986 325.300 M289.307 324.900 C 289.848 325.835,290.509 327.020,290.777 327.534 C 291.046 328.048,291.348 328.386,291.449 328.284 C 291.660 328.073,288.875 323.200,288.543 323.200 C 288.422 323.200,288.766 323.965,289.307 324.900 M150.000 327.510 C 150.000 328.193,150.177 328.862,150.394 328.996 C 150.640 329.148,150.694 328.745,150.537 327.920 C 150.200 326.151,150.000 325.999,150.000 327.510 M248.446 327.200 C 248.427 327.750,248.587 328.470,248.800 328.800 C 249.294 329.564,249.294 328.742,248.800 327.200 L 248.480 326.200 248.446 327.200 M192.249 327.415 C 192.112 327.773,192.018 328.546,192.040 329.133 C 192.073 329.991,192.152 329.895,192.446 328.640 C 192.822 327.039,192.695 326.253,192.249 327.415 M204.200 328.800 C 204.050 329.273,204.017 329.750,204.127 329.860 C 204.237 329.970,204.450 329.673,204.600 329.200 C 204.750 328.727,204.783 328.250,204.673 328.140 C 204.563 328.030,204.350 328.327,204.200 328.800 M293.013 331.400 C 293.840 332.940,294.651 334.380,294.815 334.600 C 295.096 334.975,295.577 335.810,297.638 339.500 C 298.676 341.359,299.514 342.240,298.685 340.600 C 297.503 338.263,292.335 329.394,291.925 329.000 C 291.696 328.780,292.186 329.860,293.013 331.400 M151.176 330.355 C 152.248 332.357,155.721 334.790,161.800 337.798 C 175.713 344.682,179.600 349.199,179.600 358.482 C 179.600 374.261,162.725 383.109,144.400 376.937 C 139.363 375.240,137.988 373.883,138.750 371.360 C 138.943 370.722,139.328 369.210,139.607 368.000 C 139.886 366.790,140.313 365.651,140.557 365.470 C 140.845 365.255,140.792 365.196,140.406 365.301 C 139.557 365.532,137.681 373.005,138.247 373.903 C 138.646 374.534,141.130 376.170,142.400 376.638 C 142.730 376.759,143.313 377.025,143.695 377.229 C 144.077 377.433,144.716 377.600,145.115 377.600 C 145.514 377.600,146.011 377.762,146.220 377.959 C 147.190 378.876,158.738 379.507,161.985 378.821 C 175.734 375.915,183.487 363.504,178.867 351.798 C 177.792 349.076,177.503 348.617,175.025 345.704 C 173.280 343.654,168.977 340.950,161.800 337.395 C 156.580 334.809,154.977 333.806,153.107 331.951 C 151.845 330.700,150.976 329.982,151.176 330.355 M249.268 330.400 C 249.262 330.950,249.411 331.760,249.600 332.200 L 249.944 333.000 249.932 332.200 C 249.926 331.760,249.776 330.950,249.600 330.400 L 249.280 329.400 249.268 330.400 M191.423 331.253 C 189.996 337.516,190.242 352.863,191.792 354.302 C 191.968 354.466,192.001 354.135,191.866 353.567 C 190.735 348.840,190.595 336.847,191.620 332.447 C 191.844 331.483,191.940 330.607,191.833 330.500 C 191.726 330.393,191.542 330.732,191.423 331.253 M203.419 332.327 C 203.255 333.277,203.217 334.150,203.334 334.268 C 203.626 334.559,204.126 331.773,203.900 331.121 C 203.800 330.835,203.584 331.377,203.419 332.327 M250.196 342.200 C 250.196 347.260,250.314 350.410,250.459 349.200 C 250.603 347.990,250.721 344.840,250.721 342.200 C 250.721 339.560,250.603 336.410,250.459 335.200 C 250.314 333.990,250.196 337.140,250.196 342.200 M202.618 339.300 C 202.476 341.555,202.517 344.750,202.708 346.400 C 203.011 349.012,203.061 348.482,203.094 342.300 C 203.137 334.246,202.994 333.343,202.618 339.300 M145.200 339.429 C 145.200 340.074,149.558 343.082,153.400 345.087 C 166.295 351.819,168.044 353.411,168.329 358.672 C 168.806 367.481,161.445 371.193,149.427 368.202 C 145.304 367.176,143.523 367.091,147.270 368.099 C 152.107 369.400,153.375 369.600,156.791 369.600 C 164.639 369.600,168.800 365.957,168.800 359.086 C 168.800 354.178,166.570 351.568,158.951 347.560 C 151.093 343.427,149.660 342.600,147.500 340.954 C 146.235 339.990,145.200 339.304,145.200 339.429 M299.250 342.220 C 299.613 343.238,304.511 351.622,304.657 351.476 C 304.832 351.301,300.129 342.862,299.488 342.200 C 299.230 341.934,299.150 341.941,299.250 342.220 M203.246 351.000 C 203.315 352.631,203.915 353.987,203.954 352.600 C 203.973 351.940,203.813 351.130,203.600 350.800 C 203.281 350.306,203.218 350.341,203.246 351.000 M249.378 352.978 C 249.227 353.781,249.194 354.527,249.304 354.637 C 249.414 354.747,249.627 354.181,249.778 353.378 C 249.928 352.575,249.962 351.828,249.852 351.718 C 249.742 351.608,249.528 352.175,249.378 352.978 M305.386 353.100 C 305.735 353.815,306.106 354.400,306.210 354.400 C 306.608 354.400,306.352 353.763,305.567 352.800 L 304.752 351.800 305.386 353.100 M292.809 353.900 C 292.814 354.065,293.185 354.650,293.633 355.200 L 294.448 356.200 293.814 354.900 C 293.211 353.665,292.789 353.245,292.809 353.900 M204.012 354.800 C 204.012 355.130,204.187 355.670,204.400 356.000 C 204.745 356.533,204.788 356.533,204.788 356.000 C 204.788 355.670,204.613 355.130,204.400 354.800 C 204.055 354.267,204.012 354.267,204.012 354.800 M192.046 355.600 C 192.027 356.150,192.187 356.870,192.400 357.200 C 192.894 357.964,192.894 357.142,192.400 355.600 L 192.080 354.600 192.046 355.600 M248.561 356.700 C 248.409 357.525,247.771 359.330,247.143 360.710 C 246.514 362.091,246.000 363.314,246.000 363.428 C 246.000 364.201,241.651 369.832,239.530 371.807 C 232.583 378.273,220.518 380.626,211.100 377.354 C 209.175 376.685,207.600 376.258,207.600 376.405 C 207.600 376.552,208.365 376.901,209.300 377.182 C 210.235 377.462,211.360 377.836,211.800 378.012 C 217.473 380.289,229.944 379.155,234.462 375.953 C 235.046 375.539,235.690 375.200,235.894 375.200 C 236.673 375.200,242.045 370.085,243.802 367.671 C 246.411 364.083,250.159 355.200,249.063 355.200 C 248.938 355.200,248.712 355.875,248.561 356.700 M294.409 356.700 C 294.414 356.865,294.785 357.450,295.233 358.000 L 296.048 359.000 295.414 357.700 C 294.811 356.465,294.389 356.045,294.409 356.700 M204.828 357.076 C 204.918 358.115,205.544 358.996,205.572 358.124 C 205.587 357.642,205.420 357.136,205.200 357.000 C 204.980 356.864,204.813 356.898,204.828 357.076 M192.800 358.472 C 192.800 359.106,193.937 361.600,194.226 361.600 C 194.385 361.600,193.222 358.387,192.935 358.033 C 192.861 357.942,192.800 358.139,192.800 358.472 M206.677 361.209 C 207.295 362.315,208.607 363.980,209.593 364.909 C 211.171 366.397,210.463 365.263,208.781 363.609 C 208.441 363.274,207.668 362.145,207.064 361.100 C 206.460 360.055,205.873 359.200,205.760 359.200 C 205.647 359.200,206.059 360.104,206.677 361.209 M108.587 363.709 C 107.263 368.985,95.162 369.960,85.275 365.586 C 84.286 365.148,83.407 364.859,83.323 364.944 C 83.239 365.028,84.301 365.567,85.685 366.142 C 94.530 369.816,103.990 369.733,107.577 365.949 C 108.530 364.944,109.352 363.219,109.031 362.897 C 108.925 362.792,108.726 363.157,108.587 363.709 M195.200 364.164 C 195.200 365.902,201.851 373.129,205.263 375.100 C 207.625 376.464,207.682 376.159,205.341 374.691 C 202.656 373.008,199.573 370.092,197.953 367.705 C 196.206 365.131,195.200 363.836,195.200 364.164 M82.044 364.947 C 78.378 369.365,76.881 373.659,79.031 373.588 C 79.234 373.581,79.085 373.392,78.700 373.168 C 77.682 372.575,77.765 372.328,80.374 368.177 C 82.608 364.622,83.095 363.681,82.044 364.947 M141.200 365.795 C 141.200 366.061,143.990 367.207,144.549 367.170 C 144.797 367.154,144.280 366.807,143.400 366.400 C 141.709 365.617,141.200 365.477,141.200 365.795 M120.600 366.800 C 120.450 367.273,120.417 367.750,120.527 367.860 C 120.637 367.970,120.850 367.673,121.000 367.200 C 121.150 366.727,121.183 366.250,121.073 366.140 C 120.963 366.030,120.750 366.327,120.600 366.800 M212.400 367.164 C 212.950 367.614,213.580 367.983,213.800 367.985 C 214.228 367.988,213.505 367.434,212.200 366.760 C 211.669 366.485,211.736 366.621,212.400 367.164 M119.000 370.466 C 115.242 376.765,102.025 380.945,93.760 378.450 C 93.122 378.257,91.610 377.879,90.400 377.609 C 87.652 376.997,83.325 375.484,81.161 374.380 C 80.257 373.919,79.615 373.701,79.736 373.896 C 80.252 374.731,85.164 376.692,89.800 377.915 C 90.680 378.147,92.141 378.531,93.046 378.768 C 97.969 380.059,108.649 378.929,112.800 376.678 C 116.149 374.862,120.768 370.040,120.330 368.818 C 120.259 368.618,119.660 369.360,119.000 370.466 M51.200 399.200 C 51.200 399.420,51.470 399.600,51.800 399.600 C 52.130 399.600,52.400 399.420,52.400 399.200 C 52.400 398.980,52.130 398.800,51.800 398.800 C 51.470 398.800,51.200 398.980,51.200 399.200 M347.600 399.200 C 347.600 399.420,347.870 399.600,348.200 399.600 C 348.530 399.600,348.800 399.420,348.800 399.200 C 348.800 398.980,348.530 398.800,348.200 398.800 C 347.870 398.800,347.600 398.980,347.600 399.200 " stroke="none" fill="#c7b8cb" fill-rule="evenodd"></path></g></svg>