<svg width="40" height="40" viewBox="0 0 40 40" fill="none" xmlns="http://www.w3.org/2000/svg">
<path d="M28.3333 30.7168H21.6666L14.2499 35.6501C13.1499 36.3834 11.6666 35.6002 11.6666 34.2668V30.7168C6.66659 30.7168 3.33325 27.3835 3.33325 22.3835V12.3834C3.33325 7.38338 6.66659 4.05005 11.6666 4.05005H28.3333C33.3333 4.05005 36.6666 7.38338 36.6666 12.3834V22.3835C36.6666 27.3835 33.3333 30.7168 28.3333 30.7168Z" stroke="#4785FF" stroke-width="2" stroke-miterlimit="10" stroke-linecap="round" stroke-linejoin="round"/>
<path d="M20 18.9333V18.5834C20 17.4501 20.7001 16.8501 21.4001 16.3667C22.0834 15.9001 22.7666 15.3001 22.7666 14.2001C22.7666 12.6667 21.5334 11.4333 20 11.4333C18.4667 11.4333 17.2334 12.6667 17.2334 14.2001" stroke="#4785FF" stroke-width="2" stroke-linecap="round" stroke-linejoin="round"/>
<path d="M19.9926 22.9166H20.0076" stroke="#4785FF" stroke-width="2" stroke-linecap="round" stroke-linejoin="round"/>
</svg>
