<svg width="18" height="20" viewBox="0 0 18 20" fill="none" xmlns="http://www.w3.org/2000/svg">
<path d="M17.2031 0H13.6875C13.3639 0 13.1016 0.262344 13.1016 0.585938V1.47461H14.6641C14.9877 1.47461 15.25 1.73695 15.25 2.06055C15.25 2.38414 14.9877 2.64648 14.6641 2.64648H13.1016V4.12109H15.4453C15.7689 4.12109 16.0312 4.38344 16.0312 4.70703C16.0312 5.03062 15.7689 5.29297 15.4453 5.29297H13.1016V6.76758H14.6641C14.9877 6.76758 15.25 7.02992 15.25 7.35352C15.25 7.67711 14.9877 7.93945 14.6641 7.93945H13.1016V9.41406H15.4453C15.7689 9.41406 16.0312 9.67641 16.0312 10C16.0312 10.3236 15.7689 10.5859 15.4453 10.5859H13.1016V12.0605H14.6641C14.9877 12.0605 15.25 12.3229 15.25 12.6465C15.25 12.9701 14.9877 13.2324 14.6641 13.2324H13.1016V14.707H15.4453C15.7689 14.707 16.0312 14.9694 16.0312 15.293C16.0312 15.6166 15.7689 15.8789 15.4453 15.8789H13.1016V17.3535H14.6641C14.9877 17.3535 15.25 17.6159 15.25 17.9395C15.25 18.263 14.9877 18.5254 14.6641 18.5254H13.1016V19.4141C13.1016 19.7377 13.3639 20 13.6875 20H17.2031C17.5267 20 17.7891 19.7377 17.7891 19.4141V0.585938C17.7891 0.262344 17.5267 0 17.2031 0Z" fill="#3698FF" fill-opacity="0.8"/>
<path d="M5.48438 4.29688C4.4057 4.29688 3.53125 3.42242 3.53125 2.34375V1.95312C3.53125 0.874453 4.4057 0 5.48438 0C6.56305 0 7.4375 0.874453 7.4375 1.95312V2.34375C7.4375 3.42242 6.56305 4.29688 5.48438 4.29688Z" fill="#A7D2FF"/>
<path d="M7.8959 4.3291C7.32227 5.02461 6.45422 5.46871 5.48438 5.46871C4.51453 5.46871 3.64648 5.02461 3.07285 4.3291C1.45617 4.55246 0.210938 5.93902 0.210938 7.61715V12.0117C0.210938 12.4971 0.604453 12.8906 1.08984 12.8906C1.57523 12.8906 1.96875 12.4971 1.96875 12.0117V9.17965C1.96875 8.85605 2.23109 8.59371 2.55469 8.59371C2.87828 8.59371 3.14062 8.85605 3.14062 9.17965V19.414C3.14062 19.7376 3.40297 20 3.72656 20H4.89844V14.079C4.89844 13.7635 5.1409 13.492 5.45605 13.4772C5.79254 13.4614 6.07031 13.7295 6.07031 14.0625V20H7.24219C7.56578 20 7.82812 19.7376 7.82812 19.414V9.17965C7.82812 8.85605 8.09047 8.59371 8.41406 8.59371C8.73766 8.59371 9 8.85605 9 9.17965V12.0117C9 12.4971 9.39352 12.8906 9.87891 12.8906C10.3643 12.8906 10.7578 12.4971 10.7578 12.0117V7.61715C10.7578 5.93902 9.51258 4.55246 7.8959 4.3291Z" fill="#A7D2FF"/>
</svg>
