<svg width="26" height="20" viewBox="0 0 26 20" fill="none" xmlns="http://www.w3.org/2000/svg">
<g style="mix-blend-mode:luminosity">
<path fill-rule="evenodd" clip-rule="evenodd" d="M0 2.25503V17.0097C0 18.2567 1.00857 19.2647 2.25423 19.2647H23.2791C24.5233 19.2647 25.5333 18.2547 25.5333 17.0097V2.25503C25.5333 1.00798 24.5248 0 23.2791 0H2.25423C1.00998 0 0 1.00999 0 2.25503Z" fill="#A7D2FF"/>
</g>
<g style="mix-blend-mode:luminosity">
<path d="M6.98729 14.9926C7.30056 15.3063 7.67272 15.5551 8.08241 15.7245C8.49209 15.8939 8.93122 15.9808 9.37456 15.98C9.818 15.9807 10.2572 15.8939 10.667 15.7245C11.0768 15.555 11.4491 15.3063 11.7625 14.9926L13.6723 13.0821L12.7174 12.1272L10.8076 14.0377C10.427 14.4166 9.9119 14.6293 9.3749 14.6293C8.8379 14.6293 8.32276 14.4166 7.9422 14.0377C7.56301 13.6573 7.35008 13.1421 7.35008 12.605C7.35008 12.0679 7.56301 11.5527 7.9422 11.1723L9.85269 9.26251L8.89778 8.3076L6.98729 10.2174C6.35506 10.8512 6 11.7098 6 12.605C6 13.5002 6.35506 14.3589 6.98729 14.9926ZM17.4926 9.26251C18.1245 8.62857 18.4794 7.76999 18.4794 6.8749C18.4794 5.97981 18.1245 5.12123 17.4926 4.48729C16.8589 3.85506 16.0002 3.5 15.105 3.5C14.2098 3.5 13.3512 3.85506 12.7174 4.48729L10.8076 6.39778L11.7625 7.35269L13.6723 5.4422C14.0529 5.06334 14.568 4.85064 15.105 4.85064C15.642 4.85064 16.1572 5.06334 16.5377 5.4422C16.9169 5.82259 17.1298 6.33779 17.1298 6.8749C17.1298 7.41201 16.9169 7.92721 16.5377 8.3076L14.6272 10.2174L15.5821 11.1723L17.4926 9.26251Z" fill="#3698FF"/>
<path d="M9.85207 13.0829L8.89648 12.128L14.628 6.39722L15.5829 7.3528L9.85207 13.0829Z" fill="#3698FF"/>
</g>
</svg>
