<svg width="21" height="20" viewBox="0 0 21 20" fill="none" xmlns="http://www.w3.org/2000/svg">
<path d="M0 5.62939V17.4706C0 18.6353 0.711765 19.4117 1.74706 19.4117H18.5706C19.6059 19.4117 20.7706 18.5706 20.7706 17.4706V5.62939H0ZM5.75882 16.5H4.20588C3.94706 16.5 3.68824 16.3059 3.68824 15.9823V14.3647C3.68824 14.1059 3.88235 13.847 4.20588 13.847H5.82353C6.08235 13.847 6.34118 14.0412 6.34118 14.3647V15.9823C6.27647 16.3059 6.08235 16.5 5.75882 16.5ZM5.75882 10.6765H4.20588C3.94706 10.6765 3.68824 10.4823 3.68824 10.1588V8.54116C3.68824 8.28234 3.88235 8.02351 4.20588 8.02351H5.82353C6.08235 8.02351 6.34118 8.21763 6.34118 8.54116V10.1588C6.27647 10.4823 6.08235 10.6765 5.75882 10.6765ZM10.9353 16.5H9.31765C9.05882 16.5 8.8 16.3059 8.8 15.9823V14.3647C8.8 14.1059 8.99412 13.847 9.31765 13.847H10.9353C11.1941 13.847 11.4529 14.0412 11.4529 14.3647V15.9823C11.4529 16.3059 11.2588 16.5 10.9353 16.5ZM10.9353 10.6765H9.31765C9.05882 10.6765 8.8 10.4823 8.8 10.1588V8.54116C8.8 8.28234 8.99412 8.02351 9.31765 8.02351H10.9353C11.1941 8.02351 11.4529 8.21763 11.4529 8.54116V10.1588C11.4529 10.4823 11.2588 10.6765 10.9353 10.6765ZM16.1118 16.5H14.4941C14.2353 16.5 13.9765 16.3059 13.9765 15.9823V14.3647C13.9765 14.1059 14.1706 13.847 14.4941 13.847H16.1118C16.3706 13.847 16.6294 14.0412 16.6294 14.3647V15.9823C16.6294 16.3059 16.4353 16.5 16.1118 16.5ZM16.1118 10.6765H14.4941C14.2353 10.6765 13.9765 10.4823 13.9765 10.1588V8.54116C13.9765 8.28234 14.1706 8.02351 14.4941 8.02351H16.1118C16.3706 8.02351 16.6294 8.21763 16.6294 8.54116V10.1588C16.6294 10.4823 16.4353 10.6765 16.1118 10.6765Z" fill="#9FCDFD"/>
<path d="M16.5647 0H18.5059C19.5412 0 20.7059 0.841176 20.7059 1.94118V4.27059H0V1.94118C0 0.841176 0.711765 0 1.68235 0H3.62353V1.94118C3.62353 2.32941 3.94706 2.58824 4.27059 2.58824C4.59412 2.58824 4.91765 2.32941 4.91765 1.94118V0H15.2706V1.94118C15.2706 2.32941 15.5941 2.58824 15.9176 2.58824C16.2412 2.58824 16.5647 2.32941 16.5647 1.94118V0Z" fill="#3698FF" fill-opacity="0.8"/>
</svg>
