<svg width="18" height="18" viewBox="0 0 18 18" fill="none" xmlns="http://www.w3.org/2000/svg">
<path d="M14.0401 0.958008H8.51352C8.16373 0.958008 7.8278 1.09726 7.58031 1.34475L0.38658 8.53716C-0.12886 9.0526 -0.12886 9.88813 0.38658 10.4042L5.91321 15.9309C6.42865 16.4463 7.26418 16.4463 7.77962 15.9309L14.9734 8.73846C15.2208 8.49031 15.3601 8.15438 15.3601 7.80393V2.27796C15.3601 1.54869 14.7694 0.958008 14.0401 0.958008ZM11.7302 5.57783C11.1838 5.57783 10.7403 5.13433 10.7403 4.58787C10.7403 4.04141 11.1838 3.59791 11.7302 3.59791C12.2767 3.59791 12.7202 4.04141 12.7202 4.58787C12.7202 5.13433 12.2767 5.57783 11.7302 5.57783Z" fill="#3698FF" fill-opacity="0.8"/>
<path opacity="0.44" d="M16.6803 2.27795L16.6797 8.42166C16.6797 8.72591 16.5589 9.01828 16.3431 9.23343L9.0332 16.5433L9.1454 16.6555C9.66084 17.171 10.4964 17.171 11.0118 16.6555L17.6129 10.0558C17.861 9.80827 18.0003 9.47234 18.0003 9.12256V3.5979C18.0003 2.86863 17.4096 2.27795 16.6803 2.27795Z" fill="#3698FF"/>
</svg>
