<svg xmlns="http://www.w3.org/2000/svg" width="11.913" height="11.914" viewBox="0 0 11.913 11.914">
    <g>
        <g>
            <path fill="#4785ff" stroke="#4785ff" stroke-width="0.3px" d="M11.2 0H.419A.415.415 0 0 0 0 .415v2.074a.415.415 0 0 0 .141.311l4.01 3.609V11.2a.415.415 0 0 0 .6.371l2.489-1.246a.415.415 0 0 0 .229-.371V6.406L11.48 2.8a.415.415 0 0 0 .137-.309V.415A.415.415 0 0 0 11.2 0zm-.415 2.3L6.777 5.912a.415.415 0 0 0-.137.309V9.7l-1.659.83V6.221a.415.415 0 0 0-.137-.308L.834 2.3V.83h9.954z" transform="translate(0.146 0.15) translate(0.004) translate(-0.004 0)"/>
        </g>
    </g>
</svg>
