<svg width="18" height="18" viewBox="0 0 18 18" fill="none" xmlns="http://www.w3.org/2000/svg">
<path d="M10.0574 15.5925L8.99992 16.275C8.01742 16.8825 6.65242 16.2 6.65242 14.985V10.9725C6.65242 10.44 6.35242 9.75751 6.04492 9.38251L3.1649 6.3525C2.7824 5.97 2.48242 5.29501 2.48242 4.83751V3.0975C2.48242 2.19 3.16494 1.50751 3.99744 1.50751H14.0024C14.8349 1.50751 15.5174 2.19 15.5174 3.0225V4.6875C15.5174 5.295 15.1349 6.05251 14.7599 6.42751" stroke="#7990AD" stroke-miterlimit="10" stroke-linecap="round" stroke-linejoin="round"/>
<path d="M12.8101 8.9175L10.1551 11.5725C10.0501 11.6775 9.95261 11.8725 9.93011 12.015L9.78761 13.0275C9.73511 13.395 9.99012 13.65 10.3576 13.5975L11.3701 13.455C11.5126 13.4325 11.7151 13.335 11.8126 13.23L14.4676 10.575C14.9251 10.1175 15.1426 9.585 14.4676 8.91C13.8001 8.2425 13.2676 8.46 12.8101 8.9175Z" stroke="#7990AD" stroke-miterlimit="10" stroke-linecap="round" stroke-linejoin="round"/>
<path d="M12.4351 9.29248C12.6601 10.1025 13.29 10.7325 14.1 10.9575" stroke="#7990AD" stroke-miterlimit="10" stroke-linecap="round" stroke-linejoin="round"/>
</svg>
