<svg width="22" height="22" viewBox="0 0 22 22" fill="none" xmlns="http://www.w3.org/2000/svg">
<path d="M19.8645 13.108L19.4979 17.6913C19.3604 19.0938 19.2504 20.1663 16.7662 20.1663H5.23452C2.75036 20.1663 2.64036 19.0938 2.50286 17.6913L2.13619 13.108C2.06286 12.3472 2.30119 11.6413 2.73202 11.1005C2.74119 11.0913 2.74119 11.0913 2.75036 11.0822C3.25452 10.468 4.01536 10.083 4.86786 10.083H17.1329C17.9854 10.083 18.737 10.468 19.232 11.0638C19.2412 11.073 19.2504 11.0822 19.2504 11.0913C19.6995 11.6322 19.947 12.338 19.8645 13.108Z" stroke="#32D0A5" stroke-width="1.5" stroke-miterlimit="10"/>
<path d="M3.20801 10.478V5.75716C3.20801 2.64049 3.98717 1.86133 7.10384 1.86133H8.26801C9.43218 1.86133 9.69801 2.20966 10.138 2.79633L11.3022 4.35466C11.5955 4.73966 11.7697 4.97799 12.5488 4.97799H14.8863C18.003 4.97799 18.7822 5.75716 18.7822 8.87383V10.5147" stroke="#32D0A5" stroke-width="1.5" stroke-miterlimit="10" stroke-linecap="round" stroke-linejoin="round"/>
<path d="M8.64453 15.583H13.3562" stroke="#32D0A5" stroke-width="1.5" stroke-miterlimit="10" stroke-linecap="round" stroke-linejoin="round"/>
</svg>
