<svg width="266" height="256" viewBox="0 0 266 256" fill="none" xmlns="http://www.w3.org/2000/svg">
<circle cx="142.5" cy="132.5" r="123.5" fill="#EEF2FF" fill-opacity="0.52"/>
<path d="M205.802 128.856C205.77 144.848 199.758 160.249 188.947 172.032C178.136 183.815 163.308 191.128 147.379 192.533C131.449 193.938 115.57 189.333 102.864 179.624C90.1574 169.915 81.5425 155.804 78.7127 140.065C75.8829 124.326 79.043 108.098 87.5717 94.5704C96.1005 81.0433 109.381 71.1958 124.802 66.964C140.223 62.7321 156.67 64.422 170.908 71.7014C185.147 78.9809 196.147 91.3232 201.747 106.302C201.886 106.678 202.022 107.054 202.155 107.434V107.438C202.746 109.107 203.267 110.807 203.717 112.539C205.106 117.867 205.806 123.35 205.802 128.856Z" fill="white"/>
<path d="M134.266 85.3512C131.368 83.7842 128.151 82.8996 124.859 82.7649C121.567 82.6302 118.288 83.249 115.272 84.5741C112.617 85.7299 109.82 87.8031 108.935 91.547C112.518 89.4324 117.156 92.7734 118.078 98.133L117.862 98.1924C117.375 101.905 118.462 105.946 120.567 108.248C120.724 107.21 121.109 106.219 121.697 105.348C122.284 104.477 123.058 103.748 123.962 103.213C125.508 102.197 127.219 101.458 128.399 99.7112C129.798 97.6397 130.154 94.6124 130.71 91.8507C131.265 89.089 132.32 86.1207 134.266 85.3512Z" fill="#A5B2FF" fill-opacity="0.49"/>
<path d="M113.209 116.942C112.217 118.432 110.892 119.367 109.702 120.531C108.329 121.78 107.429 123.464 107.152 125.299C107.001 126.596 107.234 127.914 107.202 129.226C107.17 130.537 106.733 132.013 105.841 132.339C104.433 132.847 103.358 130.232 101.911 130.049C100.761 129.906 99.7256 131.715 100.059 133.284C100.392 134.853 101.957 135.548 102.856 134.524C103.67 135.889 103.096 138.364 101.875 138.783C101.746 139.643 101.617 140.499 101.492 141.359C98.4036 139.199 95.2834 137.003 92.6576 133.84C89.7373 130.351 87.9259 126.07 87.4561 121.545C87.1157 117.909 87.6209 113.75 85.9516 110.952C84.6153 108.713 82.3226 108.219 80.2592 108.359C79.8831 108.384 79.5034 108.427 79.1272 108.473C80.3441 104.818 81.8896 101.281 83.7448 97.9053C84.1646 97.7251 84.5547 97.4823 84.9018 97.1853C86.822 95.5554 87.6746 92.256 89.2328 89.9741C89.3332 89.8272 89.4371 89.6839 89.5445 89.5442C91.1387 87.4629 93.2737 86.3918 95.3371 85.3959C99.9046 83.1784 104.605 80.9323 109.426 81.2404L108.054 81.3729C106.453 85.858 104.851 90.3431 103.247 94.8281C103.003 95.5159 102.757 96.2049 102.509 96.8951C101.599 99.4457 100.66 102.161 100.8 105.016C100.883 106.707 101.47 108.513 102.588 109.093C103.63 109.63 104.769 108.971 105.776 108.319C106.202 108.047 106.625 107.775 107.051 107.499C108.581 106.514 110.275 105.503 111.891 106.163C113.37 106.764 114.463 108.774 114.671 110.941C114.861 113.048 114.347 115.159 113.209 116.942Z" fill="#A5B2FF" fill-opacity="0.49"/>
<path d="M123.307 147.562C118.839 144.811 114.372 142.061 109.904 139.31L109.98 139.115C107.203 140.173 106.049 145.11 106.508 149.148C106.967 153.186 108.524 156.795 109.31 160.73C110.371 166.114 109.97 171.683 108.151 176.861C114.026 170.269 119.225 163.105 123.67 155.476C124.291 154.515 124.764 153.466 125.074 152.364C125.402 151.189 125.285 149.935 124.746 148.842C124.38 148.302 123.885 147.863 123.307 147.562Z" fill="#A5B2FF" fill-opacity="0.49"/>
<path d="M105.675 97.5188C105.151 98.6452 105.07 99.9279 105.449 101.111C105.89 102.065 106.689 102.805 107.674 103.172L110.142 104.395C110.963 104.802 111.849 105.214 112.686 104.879C113.695 104.475 114.395 102.892 114.214 101.422C114.022 99.8583 113.036 98.7826 112.124 97.8665C110.848 96.5846 109.573 95.3027 108.297 94.0208L107.578 94.9014C106.8 95.66 106.157 96.545 105.675 97.5188Z" fill="#A5B2FF" fill-opacity="0.49"/>
<path d="M192.569 114.237C193.679 114.498 194.79 114.76 195.9 115.021C195.707 118.772 193.848 122.243 191.354 123.501C190.316 124.024 189.158 124.217 188.299 125.195C187.521 126.083 187.127 127.466 186.765 128.788C186.131 131.095 185.497 133.402 184.863 135.709C184.183 138.195 183.309 140.957 181.539 141.853C180.02 142.623 178.282 141.681 177.115 140.101C175.947 138.521 175.234 136.397 174.543 134.326C174.586 136.583 173.536 138.797 172.049 139.582C170.559 140.366 168.746 139.657 167.751 137.905C167.034 136.648 166.737 134.989 166.035 133.714C165.332 132.439 163.86 131.708 163.094 132.904C162.588 133.7 162.653 134.917 162.402 135.928C162.276 136.598 161.944 137.213 161.452 137.686C160.96 138.159 160.333 138.468 159.658 138.568C159.037 138.554 158.426 138.413 157.861 138.155C157.296 137.897 156.79 137.527 156.373 137.067C154.179 134.823 152.751 131.943 152.293 128.838C151.982 127.35 152.021 125.81 152.407 124.339C152.848 122.945 153.912 121.871 154.969 122.136C155.664 120.667 154.292 118.718 153.056 118.89C151.816 119.062 150.846 120.391 149.828 121.412C148.814 122.433 147.396 123.175 146.375 122.161C146.398 122.532 146.272 122.896 146.026 123.175C145.78 123.453 145.434 123.622 145.063 123.645C145.026 123.647 144.989 123.648 144.953 123.648C144.274 123.453 143.643 123.118 143.101 122.666C140.761 121.208 137.792 122.175 136.129 124.934C137.168 120.513 138.691 115.44 141.883 114.401C143.187 113.975 144.609 114.326 145.841 113.588C148.023 112.281 148.463 107.341 146.579 105.302C146.819 107.23 146.772 109.479 145.755 110.798C144.738 112.116 142.603 111.256 142.732 109.307C142.703 109.582 142.588 109.839 142.403 110.044C142.219 110.249 141.974 110.39 141.705 110.447C141.435 110.505 141.154 110.475 140.902 110.363C140.651 110.251 140.441 110.062 140.303 109.823C139.626 108.792 139.683 107.104 140.163 105.872C140.658 104.756 141.368 103.748 142.252 102.906C143.953 101.083 145.68 99.2376 147.65 98.0913C149.624 96.9449 151.902 96.558 153.88 97.6972C154.922 98.299 155.839 99.3021 156.903 99.8323C157.153 99.9874 157.431 100.092 157.722 100.139C158.012 100.187 158.309 100.177 158.596 100.11C158.882 100.043 159.152 99.92 159.391 99.7484C159.63 99.5768 159.833 99.3598 159.988 99.1098L159.988 99.1098C160 99.0905 160.012 99.071 160.024 99.0513C160.815 97.6613 160.443 95.5979 160.736 93.8606C161.263 90.7905 164.333 89.354 166.035 91.3816C164.763 91.0556 163.448 92.5602 163.291 94.3836C163.129 96.207 164.05 98.0483 165.282 98.6C167.353 99.517 169.381 97.21 170.946 95.0749C172.58 92.8396 174.215 90.6054 175.854 88.3725C176.115 87.9923 176.409 87.6351 176.731 87.3049C177.245 86.8048 177.929 86.5184 178.645 86.5038C179.361 86.4891 180.056 86.7474 180.59 87.2262C182.245 88.5766 183.022 91.3458 184.38 93.2516C186.35 96.0207 189.298 96.6942 192.042 97.2315C194.088 97.6292 196.134 98.0292 198.182 98.4316C199.547 100.971 200.738 103.601 201.747 106.302C197.991 108.014 194.806 110.768 192.569 114.237Z" fill="#A5B2FF" fill-opacity="0.49"/>
<path d="M199.182 157.339C197.647 160.456 195.862 163.442 193.844 166.27C192.554 165.718 191.168 166.703 189.961 167.628C188.7 168.595 187.185 169.537 185.891 168.656C184.57 167.753 184.143 165.228 184.562 163.225C185.044 161.378 185.887 159.644 187.041 158.124C188.116 156.519 189.266 154.853 190.76 154.23C192.257 153.607 194.181 154.488 194.618 156.616L195.678 156.58C195.084 155.763 195.395 154.072 196.194 153.775C197.115 153.427 197.914 154.692 198.458 155.81C198.702 156.315 198.949 156.824 199.182 157.339Z" fill="#A5B2FF" fill-opacity="0.49"/>
<path d="M158.571 142.208C156.291 142.351 154.486 139.546 153.286 136.785C152.087 134.025 150.992 130.868 148.936 129.463C147.761 128.661 146.421 128.55 145.146 128.161C144.423 127.979 143.754 127.627 143.195 127.134C142.635 126.641 142.201 126.022 141.928 125.328L140.483 124.744C138.46 125.755 136.608 127.076 134.993 128.658C133.148 130.618 131.999 133.131 131.722 135.809C131.446 138.703 132.466 141.93 134.372 143.017C135.877 143.876 137.63 143.334 139.156 144.121C141.061 145.103 142.193 147.957 142.621 150.775C143.049 153.593 142.941 156.522 143.247 159.372C143.553 162.222 144.398 165.187 146.145 166.648C148.332 168.476 151.541 166.957 152.522 163.63C153.004 161.998 152.987 160.157 153.347 158.462C153.981 155.479 155.691 153.266 157.048 150.819C158.405 148.372 159.473 145.048 158.571 142.208Z" fill="#A5B2FF" fill-opacity="0.49"/>
<path d="M136.049 112.893C136.262 113.089 136.46 113.299 136.643 113.523C136.832 113.849 136.928 114.221 136.922 114.597C136.915 114.974 136.806 115.342 136.606 115.661C136.881 115.645 137.149 115.573 137.394 115.448C137.639 115.324 137.856 115.15 138.03 114.937C138.446 114.463 138.812 113.948 139.122 113.399C139.268 113.211 139.372 112.994 139.428 112.763C139.483 112.531 139.489 112.291 139.444 112.057C139.337 111.75 139.082 111.619 138.904 111.388C138.656 110.936 138.487 110.445 138.404 109.937C138.305 109.46 138.075 109.021 137.74 108.668C137.405 108.315 136.978 108.062 136.508 107.938L136.622 107.96C136.428 108.076 136.274 108.249 136.183 108.456C136.092 108.663 136.068 108.893 136.114 109.114C136.184 109.561 136.471 109.933 136.442 110.389C136.401 111.044 135.746 111.352 135.706 112.007C135.699 112.336 135.823 112.655 136.049 112.893Z" fill="#A5B2FF" fill-opacity="0.49"/>
<path d="M132.144 101.752L132.154 101.75C132.224 101.686 132.289 101.617 132.349 101.543L132.144 101.752Z" fill="#A5B2FF" fill-opacity="0.49"/>
<path d="M132.828 104.829C133.101 104.589 133.304 104.278 133.413 103.931C133.522 103.583 133.534 103.213 133.446 102.859C133.281 102.114 132.695 101.612 132.154 101.75C131.997 101.909 131.803 102.026 131.589 102.089C131.374 102.152 131.148 102.159 130.93 102.111C130.596 102.025 130.229 101.803 129.939 102.055C129.773 102.243 129.657 102.469 129.601 102.714C129.494 103.043 129.387 103.372 129.279 103.702C129.228 103.82 129.215 103.95 129.241 104.076C129.262 104.126 129.295 104.171 129.338 104.205C129.38 104.238 129.431 104.261 129.485 104.269L131.416 104.839C131.637 104.941 131.879 104.993 132.123 104.991C132.367 104.99 132.607 104.934 132.828 104.829Z" fill="#A5B2FF" fill-opacity="0.49"/>
<path d="M181.419 147.316C181.121 146.828 180.824 146.341 180.526 145.854C180.234 145.29 179.834 144.788 179.35 144.377C179.138 144.2 178.864 144.114 178.589 144.138C178.314 144.162 178.059 144.295 177.882 144.507L177.882 144.507L177.866 144.526L177.902 144.804C178.699 145.658 179.242 146.718 179.47 147.863C179.538 148.361 179.514 148.876 179.574 149.376C179.58 149.608 179.632 149.836 179.727 150.048C179.821 150.26 179.957 150.451 180.125 150.61C180.594 150.923 181.144 150.462 181.477 149.899C181.775 149.436 181.909 148.887 181.857 148.339C181.782 147.971 181.633 147.623 181.419 147.316Z" fill="#A5B2FF" fill-opacity="0.49"/>
<path d="M186.086 147.95C186.143 147.494 186.106 147.031 185.977 146.59C185.956 145.993 186.114 145.403 186.431 144.897C186.747 144.42 186.985 143.896 187.139 143.345C187.204 143.094 187.192 142.829 187.105 142.585C187.007 142.364 186.768 142.263 186.631 142.438L186.924 142.627C186.529 142.556 186.123 142.576 185.736 142.684C185.515 142.769 185.318 142.905 185.162 143.082C185.005 143.258 184.893 143.47 184.835 143.699C184.787 144.057 184.708 144.409 184.599 144.753C184.424 145.112 184.086 145.231 183.874 145.546C183.729 145.826 183.656 146.137 183.661 146.451C183.666 146.766 183.75 147.074 183.904 147.349C184.171 147.798 184.595 148.131 185.094 148.285C185.451 148.413 185.922 148.42 186.086 147.95Z" fill="#A5B2FF" fill-opacity="0.49"/>
<path d="M194.398 150.457C194.527 150.793 194.7 151.111 194.913 151.402C195.311 151.803 195.852 151.557 196.334 151.459C196.773 151.39 197.221 151.441 197.633 151.606C198.044 151.771 198.404 152.044 198.672 152.397C198.485 151.464 198.077 150.588 197.481 149.845C196.886 149.102 196.12 148.513 195.25 148.127C194.119 147.736 192.927 147.549 191.73 147.577L191.525 147.629C192.046 149.145 193.682 149.111 194.398 150.457Z" fill="#A5B2FF" fill-opacity="0.49"/>
<path d="M159.194 153.559L159.197 153.565L159.257 153.451L159.194 153.559Z" fill="#A5B2FF" fill-opacity="0.49"/>
<path d="M157.933 155.999C157.658 156.498 157.422 157.018 157.226 157.553C156.966 158.42 156.795 159.311 156.713 160.212C156.649 160.725 156.629 161.379 156.95 161.629C157.043 161.69 157.154 161.716 157.264 161.701C157.373 161.686 157.474 161.631 157.546 161.548C157.724 161.359 157.87 161.142 157.978 160.906C158.609 159.819 159.099 158.656 159.436 157.446C159.788 156.161 159.704 154.797 159.197 153.565C158.776 154.377 158.355 155.188 157.933 155.999Z" fill="#A5B2FF" fill-opacity="0.49"/>
<path d="M145.769 90.9745C145.969 91.1703 146.222 91.3032 146.497 91.3569C146.772 91.4105 147.057 91.3826 147.316 91.2765C147.853 91.0418 148.345 90.7165 148.772 90.3149C149.125 90.0536 149.425 89.7268 149.654 89.3523C149.781 89.1285 149.862 88.8819 149.893 88.6267C149.924 88.3714 149.904 88.1126 149.835 87.865C149.736 87.6278 149.579 87.4197 149.377 87.2603C149.176 87.1009 148.937 86.9956 148.683 86.9542C147.969 86.7423 147.254 86.5304 146.54 86.3186L147.057 85.8528C146.525 85.5674 145.937 86.0971 145.604 86.7527C145.391 87.1809 145.243 87.6382 145.164 88.1099C145.051 88.6027 145.046 89.1142 145.151 89.6089C145.255 90.1036 145.466 90.5696 145.769 90.9745Z" fill="#A5B2FF" fill-opacity="0.49"/>
<path d="M158.382 86.7406C158.584 86.9626 158.862 87.0996 159.161 87.1239C159.459 87.1482 159.756 87.0579 159.991 86.8714C160.193 86.7198 160.36 86.5273 160.483 86.3065C160.606 86.0857 160.68 85.8416 160.702 85.59C160.753 85.028 160.475 84.4034 160.078 84.3549L160.169 83.8287C159.404 83.6907 158.464 83.663 158.054 84.5914C157.916 84.947 157.873 85.3327 157.931 85.7098C157.989 86.087 158.144 86.4424 158.382 86.7406Z" fill="#A5B2FF"/>
<path d="M46.568 184.324C42.0056 184.324 39.0395 183.19 37.7267 180.936C35.1378 176.492 39.4737 168.694 50.6136 157.759L51.5494 158.712C41.2016 168.87 36.7024 176.524 38.8808 180.264C40.2593 182.63 44.3616 183.478 50.7469 182.715C57.0857 181.958 65.4861 179.703 75.7147 176.011C96.7727 168.411 123.192 155.592 150.106 139.915C177.019 124.238 201.203 107.58 218.202 93.0107C221.467 90.2118 224.43 87.5192 227.009 85.0084C230.395 81.7927 233.518 78.3118 236.349 74.5988C240.162 69.4216 241.449 65.4344 240.071 63.0684C237.769 59.1168 228.098 59.4883 212.839 64.1162L212.452 62.8378C228.823 57.8733 238.504 57.7244 241.225 62.3962C242.916 65.2988 241.637 69.671 237.425 75.3912C234.55 79.163 231.379 82.699 227.941 85.9656C225.342 88.4962 222.358 91.2077 219.071 94.025C202.012 108.645 177.759 125.353 150.778 141.069C123.797 156.786 97.2997 169.642 76.1683 177.268C65.8444 180.994 57.3446 183.273 50.9052 184.041C49.4663 184.221 48.0181 184.315 46.568 184.324Z" fill="white"/>
<g filter="url(#filter0_d_143_1884)">
<rect x="42" y="104" width="38" height="38" rx="7" fill="white"/>
</g>
<g filter="url(#filter1_d_143_1884)">
<rect x="158" y="4" width="38" height="38" rx="7" fill="white"/>
</g>
<path d="M183.123 28.0398H186.559C185.101 30.5476 182.679 32.4297 179.794 33.1778C181.22 31.7192 182.363 29.9736 183.123 28.0398Z" fill="#3698FF"/>
<path d="M173.308 28.0398H180.725C179.861 29.8748 178.586 31.4745 177.014 32.7261C175.447 31.4793 174.172 29.8748 173.308 28.0398Z" fill="#9FCEFF"/>
<path d="M170.91 28.0398C171.67 29.9736 172.807 31.7145 174.238 33.1778C171.353 32.4297 168.927 30.5476 167.473 28.0398H170.91Z" fill="#3698FF"/>
<path d="M170.235 25.8472H166.505C166.175 24.8074 166 23.697 166 22.5536C166 21.6079 166.118 20.6857 166.345 19.8105H170.079C169.928 20.6669 169.852 21.5514 169.852 22.4501C169.857 23.6123 169.984 24.7509 170.235 25.8472Z" fill="#3698FF"/>
<path d="M181.706 19.8059C181.881 20.6575 181.97 21.5421 181.97 22.4455C181.97 23.6218 181.815 24.7604 181.527 25.8473H172.505C172.217 24.7604 172.062 23.6218 172.062 22.4455C172.062 21.5421 172.151 20.6575 172.326 19.8059H181.706Z" fill="#9FCEFF"/>
<path d="M187.683 19.8057C187.909 20.6809 188.032 21.6031 188.032 22.5488C188.032 23.6969 187.853 24.8026 187.527 25.8424H183.798C184.048 24.7461 184.175 23.6122 184.175 22.4406C184.175 21.5419 184.1 20.6574 183.949 19.801H187.683V19.8057Z" fill="#3698FF"/>
<path d="M186.857 17.6132H183.401C182.698 15.5006 181.55 13.595 180.068 12C183.033 12.8516 185.488 14.9125 186.857 17.6132Z" fill="#3698FF"/>
<path d="M181.055 17.6132H172.978C173.832 15.4582 175.234 13.5856 177.019 12.1599C178.798 13.5856 180.2 15.4582 181.055 17.6132Z" fill="#9FCEFF"/>
<path d="M173.964 12C172.482 13.595 171.335 15.5006 170.636 17.6132H167.176C168.545 14.9125 170.995 12.8516 173.964 12Z" fill="#3698FF"/>
<g filter="url(#filter2_d_143_1884)">
<rect x="207" y="180" width="38" height="38" rx="7" fill="white"/>
</g>
<path d="M69.0704 126.271C68.9251 126.6 68.8817 126.965 68.9459 127.319C69.01 127.673 69.1788 128 69.4304 128.257L69.4964 128.323C69.6991 128.525 69.8599 128.766 69.9696 129.031C70.0793 129.296 70.1357 129.58 70.1357 129.866C70.1357 130.153 70.0793 130.437 69.9696 130.702C69.8599 130.967 69.6991 131.207 69.4964 131.41C69.2936 131.613 69.053 131.773 68.7881 131.883C68.5233 131.993 68.2394 132.049 67.9527 132.049C67.666 132.049 67.3821 131.993 67.1173 131.883C66.8524 131.773 66.6118 131.613 66.4091 131.41L66.3431 131.344C66.0881 131.097 65.7662 130.93 65.4173 130.864C65.0684 130.798 64.7079 130.836 64.3804 130.973C64.0528 131.11 63.7727 131.341 63.5747 131.635C63.3768 131.93 63.2696 132.276 63.2666 132.631V132.817C63.2666 133.396 63.0367 133.951 62.6277 134.36C62.2186 134.769 61.6637 134.999 61.0852 134.999C60.5067 134.999 59.9518 134.769 59.5427 134.36C59.1336 133.951 58.9038 133.396 58.9038 132.817V132.718C58.8954 132.357 58.7785 132.006 58.5684 131.713C58.3583 131.419 58.0646 131.195 57.7255 131.07C57.3965 130.925 57.0314 130.882 56.6774 130.946C56.3235 131.01 55.9969 131.179 55.7397 131.43L55.6737 131.496C55.471 131.699 55.2304 131.86 54.9655 131.97C54.7006 132.079 54.4168 132.136 54.1301 132.136C53.8434 132.136 53.5595 132.079 53.2947 131.97C53.0298 131.86 52.7892 131.699 52.5864 131.496C52.3837 131.294 52.2229 131.053 52.1132 130.788C52.0035 130.523 51.947 130.239 51.947 129.953C51.947 129.666 52.0035 129.382 52.1132 129.117C52.2229 128.852 52.3837 128.612 52.5864 128.409L52.6524 128.343C52.8995 128.088 53.0663 127.766 53.1321 127.417C53.198 127.068 53.16 126.708 53.023 126.38C52.8859 126.053 52.6558 125.773 52.361 125.575C52.0663 125.377 51.72 125.27 51.365 125.267H51.1814C50.6028 125.267 50.048 125.037 49.6389 124.628C49.2298 124.219 49 123.664 49 123.085C49 122.507 49.2298 121.952 49.6389 121.543C50.048 121.134 50.6028 120.904 51.1814 120.904H51.2798C51.6409 120.895 51.9912 120.779 52.285 120.568C52.5788 120.358 52.8026 120.065 52.9272 119.726C53.0725 119.396 53.1159 119.031 53.0517 118.677C52.9876 118.323 52.8188 117.997 52.5672 117.74L52.5012 117.674C52.2924 117.472 52.1258 117.232 52.0111 116.965C51.8964 116.699 51.836 116.412 51.8334 116.122C51.8308 115.832 51.886 115.544 51.9959 115.276C52.1057 115.007 52.268 114.763 52.4732 114.558C52.6784 114.353 52.9224 114.191 53.1909 114.082C53.4595 113.972 53.7472 113.917 54.0373 113.92C54.3273 113.923 54.6139 113.983 54.8803 114.098C55.1466 114.213 55.3874 114.38 55.5885 114.589L55.6545 114.655C55.9117 114.906 56.2383 115.075 56.5922 115.139C56.9462 115.203 57.3113 115.16 57.6403 115.015H57.7279C58.0506 114.876 58.3257 114.647 58.5195 114.354C58.7133 114.061 58.8173 113.718 58.8186 113.367V113.181C58.8186 112.603 59.0484 112.048 59.4575 111.639C59.8666 111.23 60.4215 111 61 111C61.5785 111 62.1334 111.23 62.5425 111.639C62.9516 112.048 63.1814 112.603 63.1814 113.181V113.28C63.1844 113.635 63.2916 113.981 63.4896 114.276C63.6875 114.571 63.9676 114.801 64.2952 114.938C64.6227 115.075 64.9832 115.113 65.3321 115.047C65.681 114.981 66.0029 114.814 66.2579 114.567L66.3239 114.501C66.7333 114.092 67.2885 113.862 67.8675 113.862C68.4465 113.862 69.0018 114.092 69.4112 114.501C69.8206 114.911 70.0506 115.466 70.0506 116.045C70.0506 116.624 69.8206 117.179 69.4112 117.589L69.3452 117.655C69.0936 117.912 68.9248 118.238 68.8607 118.592C68.7965 118.946 68.8399 119.311 68.9852 119.64V119.728C69.1235 120.051 69.3532 120.326 69.6459 120.52C69.9386 120.713 70.2816 120.817 70.6326 120.819H70.8186C71.3972 120.819 71.952 121.048 72.3611 121.458C72.7702 121.867 73 122.421 73 123C73 123.579 72.7702 124.133 72.3611 124.542C71.952 124.952 71.3972 125.181 70.8186 125.181H70.7178C70.3669 125.183 70.024 125.286 69.7313 125.48C69.4386 125.674 69.2089 125.948 69.0704 126.271Z" fill="#9FCEFF"/>
<path d="M60.9988 126.598C62.9868 126.598 64.5984 124.987 64.5984 122.999C64.5984 121.011 62.9868 119.399 60.9988 119.399C59.0108 119.399 57.3992 121.011 57.3992 122.999C57.3992 124.987 59.0108 126.598 60.9988 126.598Z" fill="#3698FF"/>
<path d="M42.5668 154.344C42.3978 154.387 42.2325 154.444 42.0724 154.513L28.9355 146.038L29.1167 142.245L23.4273 141.223L22.4538 147.908C22.3752 148.448 22.4738 148.999 22.735 149.478C22.9961 149.957 23.4056 150.339 23.9021 150.565L40.0818 157.951C40.1623 158.618 40.444 159.245 40.8894 159.748C41.3348 160.251 41.9229 160.607 42.5753 160.768C43.2278 160.928 43.9137 160.887 44.5419 160.648C45.17 160.41 45.7107 159.985 46.0919 159.432C46.4731 158.879 46.6768 158.222 46.6759 157.55C46.675 156.878 46.4696 156.223 46.0869 155.67C45.7042 155.118 45.1625 154.695 44.5336 154.458C43.9048 154.221 43.2188 154.182 42.5668 154.344H42.5668Z" fill="#FFB8B8"/>
<path d="M28.3995 145.805L21.3541 144.504C21.1537 144.467 20.9635 144.387 20.7967 144.27C20.6298 144.153 20.4902 144.001 20.3873 143.826C20.2843 143.65 20.2205 143.454 20.2002 143.251C20.1799 143.048 20.2035 142.843 20.2695 142.65L22.5815 135.892C22.7765 134.867 23.37 133.962 24.2317 133.374C25.0933 132.786 26.153 132.564 27.1782 132.757C28.2033 132.949 29.1104 133.54 29.7004 134.4C30.2904 135.26 30.5152 136.319 30.3255 137.345L30.0746 144.46C30.0674 144.664 30.0163 144.864 29.9249 145.046C29.8335 145.228 29.7039 145.389 29.5449 145.516C29.386 145.644 29.2013 145.736 29.0037 145.785C28.806 145.835 28.5999 145.842 28.3995 145.805V145.805Z" fill="#3F3D56"/>
<path d="M52.8982 127.475C52.8595 127.645 52.8343 127.817 52.8228 127.992L39.2813 135.804L35.9898 133.909L32.481 138.502L37.9818 142.423C38.4262 142.74 38.9614 142.904 39.5069 142.891C40.0525 142.877 40.579 142.687 41.0075 142.349L54.9711 131.333C55.6012 131.567 56.2875 131.603 56.9386 131.436C57.5896 131.27 58.1747 130.909 58.6158 130.403C59.057 129.896 59.3333 129.267 59.4082 128.599C59.483 127.931 59.3528 127.256 59.0348 126.664C58.7168 126.072 58.2262 125.591 57.6281 125.285C57.03 124.979 56.3528 124.862 55.6866 124.95C55.0204 125.038 54.3968 125.326 53.8987 125.777C53.4006 126.228 53.0517 126.82 52.8982 127.475Z" fill="#FFB8B8"/>
<path d="M38.8286 136.174L34.452 141.846C34.3275 142.007 34.1697 142.14 33.9892 142.235C33.8088 142.33 33.6101 142.385 33.4065 142.396C33.203 142.407 32.9994 142.374 32.8097 142.299C32.62 142.225 32.4486 142.11 32.3072 141.963L27.3526 136.818C26.5307 136.177 25.9967 135.235 25.8678 134.2C25.739 133.165 26.0257 132.121 26.6652 131.298C27.3047 130.474 28.2448 129.937 29.2793 129.805C30.3139 129.673 31.3584 129.957 32.1841 130.594L38.3982 134.069C38.5761 134.169 38.7304 134.305 38.8507 134.47C38.971 134.635 39.0544 134.823 39.0953 135.023C39.1361 135.223 39.1334 135.429 39.0874 135.627C39.0414 135.826 38.9531 136.012 38.8286 136.174H38.8286Z" fill="#3F3D56"/>
<path d="M20.9062 122.63C25.1822 122.63 28.6486 119.164 28.6486 114.888C28.6486 110.612 25.1822 107.145 20.9062 107.145C16.6302 107.145 13.1638 110.612 13.1638 114.888C13.1638 119.164 16.6302 122.63 20.9062 122.63Z" fill="#FFB8B8"/>
<path d="M28.2147 225.745H32.0795L33.9179 210.838L28.2141 210.838L28.2147 225.745Z" fill="#FFB8B8"/>
<path d="M27.229 224.483L34.8399 224.482H34.8402C35.4771 224.482 36.1078 224.608 36.6963 224.852C37.2848 225.095 37.8195 225.453 38.2699 225.903C38.7202 226.353 39.0775 226.888 39.3213 227.477C39.565 228.065 39.6905 228.696 39.6905 229.333V229.49L27.2292 229.491L27.229 224.483Z" fill="#2F2E41"/>
<path d="M14.975 225.745H18.8397L20.6781 210.838L14.9744 210.838L14.975 225.745Z" fill="#FFB8B8"/>
<path d="M13.9893 224.483L21.6001 224.482H21.6004C22.2374 224.482 22.8681 224.608 23.4566 224.852C24.045 225.095 24.5797 225.453 25.0301 225.903C25.4805 226.353 25.8378 226.888 26.0815 227.477C26.3253 228.065 26.4507 228.696 26.4507 229.333V229.49L13.9895 229.491L13.9893 224.483Z" fill="#2F2E41"/>
<path d="M27.0552 220.088L23.1132 189.588C23.1111 189.547 23.0932 189.509 23.0634 189.482C23.0336 189.454 22.9942 189.439 22.9536 189.441C22.9333 189.44 22.9131 189.443 22.8942 189.451C22.8752 189.458 22.858 189.469 22.8435 189.483C22.829 189.497 22.8175 189.514 22.8097 189.533C22.802 189.552 22.7981 189.572 22.7984 189.592L21.6655 219.649C21.6528 220.017 21.4978 220.364 21.2332 220.619C20.9686 220.874 20.6153 221.016 20.2479 221.015H15.5669C15.1959 221.017 14.8391 220.873 14.5737 220.614C14.3083 220.355 14.1556 220.001 14.1488 219.63L12.9336 169.551L33.8826 169.761L34.4055 220.001C34.4008 220.2 34.3541 220.397 34.2684 220.577C34.1827 220.757 34.0598 220.918 33.9079 221.047C33.7593 221.175 33.5854 221.271 33.3976 221.327C33.2097 221.384 33.0121 221.4 32.8175 221.375L28.278 221.388C27.9562 221.344 27.6592 221.19 27.4367 220.954C27.2142 220.717 27.0796 220.411 27.0552 220.088Z" fill="#2F2E41"/>
<path d="M12.6232 170.921C12.3889 170.831 12.1825 170.681 12.0252 170.485C11.868 170.29 11.7654 170.056 11.728 169.808L11.5189 142.285C10.5931 136.157 9.498 130.153 14.8558 127.048L15.3279 125.631C15.3794 125.478 15.4764 125.345 15.606 125.248C15.7357 125.152 15.8916 125.098 16.053 125.093L26.2169 124.802C26.3751 124.797 26.5311 124.839 26.6645 124.925C26.7979 125.01 26.9022 125.134 26.9637 125.279L27.7197 127.044L27.9881 127.197C30.5416 128.652 32.6093 130.828 33.9324 133.453C35.2555 136.077 35.7754 139.034 35.4271 141.952L34.8459 146.859L34.4331 169.788C34.4278 170.04 34.3561 170.286 34.2254 170.501C34.0946 170.716 33.9094 170.893 33.6885 171.013C30.7359 172.63 27.4647 173.183 24.3695 173.183C19.1688 173.183 14.4669 171.621 12.6232 170.921Z" fill="#3F3D56"/>
<path d="M20.6541 122.917C19.4889 122.942 18.3315 122.72 17.258 122.266C16.1845 121.812 15.2193 121.136 14.4257 120.283C13.6321 119.429 13.0281 118.417 12.6535 117.314C12.2788 116.21 12.142 115.039 12.2519 113.879C12.3619 112.719 12.7161 111.595 13.2913 110.581C13.8666 109.567 14.6499 108.687 15.5896 107.998C16.5294 107.308 17.6045 106.825 18.7441 106.581C19.8837 106.337 21.0622 106.336 22.202 106.58C23.9046 105.546 25.8841 104.851 27.8682 105.027C29.8522 105.204 31.8143 106.382 32.5562 108.231C33.2982 110.079 32.5011 112.516 30.6563 113.267C29.4736 113.749 28.138 113.515 26.8759 113.321C25.6138 113.127 24.2369 113 23.1384 113.652C22.04 114.303 21.5462 116.049 22.53 116.863C23.0514 117.312 23.4238 117.909 23.5975 118.575C23.7712 119.24 23.738 119.943 23.5022 120.589C23.0077 121.868 21.6583 122.895 20.6541 122.917Z" fill="#2F2E41"/>
<path d="M49.4911 229.599H0.31523C0.231626 229.599 0.151446 229.566 0.0923286 229.506C0.0332114 229.447 0 229.367 0 229.283C0 229.2 0.0332114 229.12 0.0923286 229.061C0.151446 229.001 0.231626 228.968 0.31523 228.968H49.4911C49.5747 228.968 49.6549 229.001 49.714 229.061C49.7732 229.12 49.8064 229.2 49.8064 229.283C49.8064 229.367 49.7732 229.447 49.714 229.506C49.6549 229.566 49.5747 229.599 49.4911 229.599Z" fill="#CCCCCC"/>
<path d="M224 186H229.5" stroke="#79A6FF" stroke-width="3" stroke-linecap="round"/>
<path d="M219 210.763L221.75 206" stroke="#79A6FF" stroke-width="3" stroke-linecap="round"/>
<path d="M233.75 210.763L231 206" stroke="#79A6FF" stroke-width="3" stroke-linecap="round"/>
<path d="M227 189C221.477 189 217 193.477 217 199C217 204.514 221.487 209 227 209C232.522 209 237 204.522 237 199C237 193.486 232.514 189 227 189Z" fill="#9FCEFF"/>
<path d="M226 195V201H231" stroke="white" stroke-width="2" stroke-linecap="round" stroke-linejoin="round"/>
<defs>
<filter id="filter0_d_143_1884" x="36" y="100" width="50" height="50" filterUnits="userSpaceOnUse" color-interpolation-filters="sRGB">
<feFlood flood-opacity="0" result="BackgroundImageFix"/>
<feColorMatrix in="SourceAlpha" type="matrix" values="0 0 0 0 0 0 0 0 0 0 0 0 0 0 0 0 0 0 127 0" result="hardAlpha"/>
<feOffset dy="2"/>
<feGaussianBlur stdDeviation="3"/>
<feComposite in2="hardAlpha" operator="out"/>
<feColorMatrix type="matrix" values="0 0 0 0 0.8 0 0 0 0 0.831373 0 0 0 0 0.898039 0 0 0 0.62 0"/>
<feBlend mode="normal" in2="BackgroundImageFix" result="effect1_dropShadow_143_1884"/>
<feBlend mode="normal" in="SourceGraphic" in2="effect1_dropShadow_143_1884" result="shape"/>
</filter>
<filter id="filter1_d_143_1884" x="152" y="0" width="50" height="50" filterUnits="userSpaceOnUse" color-interpolation-filters="sRGB">
<feFlood flood-opacity="0" result="BackgroundImageFix"/>
<feColorMatrix in="SourceAlpha" type="matrix" values="0 0 0 0 0 0 0 0 0 0 0 0 0 0 0 0 0 0 127 0" result="hardAlpha"/>
<feOffset dy="2"/>
<feGaussianBlur stdDeviation="3"/>
<feComposite in2="hardAlpha" operator="out"/>
<feColorMatrix type="matrix" values="0 0 0 0 0.8 0 0 0 0 0.831373 0 0 0 0 0.898039 0 0 0 0.62 0"/>
<feBlend mode="normal" in2="BackgroundImageFix" result="effect1_dropShadow_143_1884"/>
<feBlend mode="normal" in="SourceGraphic" in2="effect1_dropShadow_143_1884" result="shape"/>
</filter>
<filter id="filter2_d_143_1884" x="201" y="176" width="50" height="50" filterUnits="userSpaceOnUse" color-interpolation-filters="sRGB">
<feFlood flood-opacity="0" result="BackgroundImageFix"/>
<feColorMatrix in="SourceAlpha" type="matrix" values="0 0 0 0 0 0 0 0 0 0 0 0 0 0 0 0 0 0 127 0" result="hardAlpha"/>
<feOffset dy="2"/>
<feGaussianBlur stdDeviation="3"/>
<feComposite in2="hardAlpha" operator="out"/>
<feColorMatrix type="matrix" values="0 0 0 0 0.8 0 0 0 0 0.831373 0 0 0 0 0.898039 0 0 0 0.62 0"/>
<feBlend mode="normal" in2="BackgroundImageFix" result="effect1_dropShadow_143_1884"/>
<feBlend mode="normal" in="SourceGraphic" in2="effect1_dropShadow_143_1884" result="shape"/>
</filter>
</defs>
</svg>
