<svg width="22" height="22" viewBox="0 0 22 22" fill="none" xmlns="http://www.w3.org/2000/svg">
<path d="M10.9398 0.615234C5.24575 0.615234 0.613281 5.24771 0.613281 10.9417V15.22C0.613281 16.2775 1.53957 17.1377 2.67858 17.1377H3.71123C3.98511 17.1377 4.24777 17.0289 4.44143 16.8352C4.63509 16.6415 4.74389 16.3789 4.74389 16.105V10.7941C4.74389 10.5202 4.63509 10.2575 4.44143 10.0639C4.24777 9.87022 3.98511 9.76143 3.71123 9.76143H2.77359C3.34774 5.76507 6.78647 2.68054 10.9398 2.68054C15.0931 2.68054 18.5318 5.76507 19.106 9.76143H18.1684C17.8945 9.76143 17.6318 9.87022 17.4382 10.0639C17.2445 10.2575 17.1357 10.5202 17.1357 10.7941V17.1377C17.1357 18.2767 16.2094 19.203 15.0704 19.203H13.0051V18.1703H8.87449V21.2683H15.0704C17.3484 21.2683 19.201 19.4157 19.201 17.1377C20.34 17.1377 21.2663 16.2775 21.2663 15.22V10.9417C21.2663 5.24771 16.6338 0.615234 10.9398 0.615234Z" fill="#2B345F"/>
</svg>
