<svg width="15" height="17" viewBox="0 0 15 17" fill="none" xmlns="http://www.w3.org/2000/svg">
<path d="M1.69735 9.90398C1.70337 8.80418 1.70939 7.69854 1.72143 6.59875C1.72143 6.43495 1.66725 6.37645 1.49871 6.3823C1.07736 6.394 0.656016 6.3823 0.234668 6.38815C0.0661285 6.394 -8.33618e-05 6.34135 -8.33618e-05 6.1717C0.0059359 5.74465 0.0059359 5.31175 -8.33618e-05 4.88471C-0.00610262 4.70921 0.05409 4.63901 0.240687 4.64486C0.631939 4.65656 1.02319 4.63316 1.41444 4.65656C1.67327 4.67411 1.73346 4.57466 1.72744 4.34066C1.71541 3.88436 1.67929 3.42222 1.75754 2.96592C2.01035 1.48003 3.02159 0.497233 4.65882 0.140385C5.4955 -0.0409637 6.3382 -0.0234138 7.19293 0.0701856C8.91444 0.263234 10.3771 0.94183 11.6111 2.11182C12.0565 2.53887 12.0505 2.54472 11.6051 2.95422C11.3221 3.21747 11.0332 3.47486 10.7624 3.74396C10.6239 3.88436 10.5457 3.87266 10.4132 3.73226C9.09502 2.31072 7.43972 1.73743 5.50152 1.94802C4.53844 2.05332 4.01476 2.67342 4.00874 3.61526C4.00874 3.89606 4.01476 4.18271 4.00874 4.46351C4.00273 4.60391 4.0569 4.66241 4.20136 4.65071C4.26155 4.64486 4.32175 4.65071 4.38194 4.65071C7.09061 4.65071 9.79927 4.65071 12.5079 4.65071C12.6103 4.65071 12.7066 4.64486 12.8089 4.63901C13.2483 4.64486 13.6937 4.65656 14.1331 4.64486C14.3378 4.63901 14.4221 4.69166 14.416 4.90226C14.404 5.31175 14.398 5.72125 14.416 6.13075C14.4221 6.3472 14.3258 6.394 14.1331 6.38815C13.7118 6.37645 13.2904 6.394 12.8691 6.3823C12.6705 6.37645 12.6103 6.4408 12.6163 6.63385C12.6283 7.34754 12.6103 8.05539 12.6223 8.76908C12.6283 8.99138 12.5561 9.04988 12.3334 9.04988C11.268 9.03818 10.2086 9.04403 9.14317 9.04403C9.07094 9.04403 9.00473 9.03818 8.9325 9.04403C8.67367 9.06743 8.39077 9.07328 8.27038 9.35408C8.15602 9.61733 8.2463 9.85718 8.42688 10.0561C8.6195 10.2725 8.83017 10.4422 9.17327 10.3603C10.028 10.1614 10.8827 10.1321 11.7134 10.4597C12.8932 10.9277 13.4831 12.1738 13.1219 13.4081C12.9955 13.8352 12.7728 14.2154 12.4959 14.5664C12.4116 14.6717 12.3454 14.6892 12.225 14.619C11.7194 14.3207 11.2078 14.0341 10.6961 13.7474C10.5577 13.6714 10.5697 13.6012 10.6721 13.5017C10.8707 13.297 11.0633 13.0864 11.1656 12.8114C11.3282 12.3434 11.1596 12.0275 10.66 11.9632C10.0461 11.8871 9.45618 11.9866 8.94454 12.3434C8.31252 12.7822 8.24029 13.6129 8.78804 14.151C9.28162 14.6366 9.93772 14.7945 10.5938 14.9466C11.1717 15.0753 11.7555 15.1514 12.3454 15.1982C12.4538 15.204 12.5561 15.2333 12.6945 15.2567C12.3815 15.8241 12.0806 16.3623 11.7856 16.9005C11.7375 16.9941 11.6592 17.0175 11.5569 17.0058C10.0581 16.842 8.59542 16.5437 7.39759 15.5843C6.29004 14.6892 5.93491 13.5544 6.42849 12.203C6.60907 11.8988 6.8077 11.6063 7.08459 11.3782C7.27118 11.2261 7.31332 11.1383 7.06051 10.9979C6.59703 10.7347 6.22985 10.3193 6.10947 9.83378C5.74831 8.38299 6.53082 7.61079 7.75273 7.39434C8.40882 7.27734 9.07094 7.35339 9.73306 7.33584C10.4193 7.32414 10.4072 7.32999 10.4193 6.68065C10.4253 6.44665 10.353 6.38815 10.1123 6.38815C8.18611 6.39985 6.25995 6.39985 4.3398 6.38815C4.07496 6.38815 4.03282 6.4759 4.03282 6.70405C4.03884 8.54678 4.03884 10.3895 4.03884 12.2264C4.03884 12.8582 4.04486 13.49 4.05088 14.1276C4.04486 14.426 4.03884 14.7302 4.04486 15.0285C4.04486 15.1806 3.99671 15.2333 3.84021 15.2333C3.22022 15.2274 2.60024 15.2216 1.98025 15.2333C1.73948 15.2391 1.75754 15.1046 1.75754 14.9525C1.75754 13.7591 1.75754 12.5599 1.75754 11.3665C1.71541 10.8751 1.70939 10.3895 1.69735 9.90398Z" fill="#3699FF"/>
</svg>
