<svg width="25" height="19" viewBox="0 0 25 19" fill="none" xmlns="http://www.w3.org/2000/svg">
<path d="M0 9.5C0 4.25329 4.25329 0 9.5 0H14.625C19.8717 0 24.125 4.25329 24.125 9.5C24.125 14.7467 19.8717 19 14.625 19H9.5C4.25329 19 0 14.7467 0 9.5Z" fill="#FFC97C" fill-opacity="0.2"/>
<path d="M16.1353 13.4938C16.1353 13.8962 15.8098 14.2308 15.3993 14.2308H8.63634C8.22996 14.2308 7.90039 13.9013 7.90039 13.4938C7.90039 13.0943 8.22427 12.7578 8.63634 12.7578H15.3993C15.8057 12.7578 16.1353 13.0874 16.1353 13.4938Z" fill="#F2D85D"/>
<path d="M16.9338 8.18912L16.7893 8.57066L15.3584 12.3522L15.2031 12.761H8.82832L8.67299 12.3522L7.24211 8.57069L7.09766 8.18915C7.31296 8.10737 7.49556 7.96021 7.62093 7.77214C7.7463 7.83619 7.87168 7.89206 7.99705 7.94248C9.30525 8.44805 10.608 8.07603 11.4652 6.50072C11.5292 6.38491 11.5891 6.26226 11.6477 6.13281C11.7636 6.1737 11.8876 6.19548 12.0157 6.19548C12.1451 6.19548 12.2705 6.1737 12.385 6.13281C12.4436 6.26226 12.5035 6.38494 12.5676 6.50072C13.4261 8.07741 14.7275 8.44805 16.0357 7.94248C16.161 7.89206 16.2864 7.83619 16.4118 7.77214C16.5372 7.96018 16.7184 8.10599 16.9338 8.18912Z" fill="#FAA629"/>
<path opacity="0.1" d="M15.3593 12.3496L15.204 12.7584H8.82919L8.67383 12.3496H15.3593Z" fill="black"/>
<path opacity="0.1" d="M12.5673 6.50073C12.3969 6.56885 12.2102 6.60567 12.0154 6.60567C11.8205 6.60567 11.6352 6.56888 11.4648 6.50073C11.5289 6.38491 11.5888 6.26226 11.6474 6.13281C11.7633 6.1737 11.8873 6.19548 12.0154 6.19548C12.1448 6.19548 12.2702 6.1737 12.3847 6.13281C12.4433 6.26226 12.5032 6.38494 12.5673 6.50073Z" fill="black"/>
<path d="M13.1163 5.0967C13.1163 5.70239 12.6254 6.1945 12.0186 6.1945C11.4129 6.1945 10.9219 5.70239 10.9219 5.0967C10.9219 4.49101 11.4129 4 12.0186 4C12.6254 4.00003 13.1163 4.49101 13.1163 5.0967Z" fill="#FAA629"/>
<path opacity="0.1" d="M7.99705 7.93987C7.82261 8.22468 7.55826 8.44817 7.24211 8.56809L7.09766 8.18654C7.31296 8.10476 7.49556 7.95761 7.62093 7.76953C7.7463 7.83358 7.87168 7.88945 7.99705 7.93987Z" fill="black"/>
<path d="M7.80775 7.1592C7.80775 7.76489 7.31675 8.257 6.70998 8.257C6.10429 8.257 5.61328 7.76489 5.61328 7.1592C5.61328 6.55351 6.10429 6.0625 6.70998 6.0625C7.31678 6.0625 7.80775 6.55351 7.80775 7.1592Z" fill="#FAA629"/>
<path opacity="0.1" d="M16.9352 8.18654L16.7907 8.56809C16.4759 8.44817 16.2102 8.22468 16.0371 7.93987C16.1625 7.88945 16.2879 7.83358 16.4132 7.76953C16.5386 7.95761 16.7198 8.10341 16.9352 8.18654Z" fill="black"/>
<path d="M18.421 7.1592C18.421 7.76489 17.9301 8.257 17.3233 8.257C16.7176 8.257 16.2266 7.76489 16.2266 7.1592C16.2266 6.55351 16.7176 6.0625 17.3233 6.0625C17.9301 6.0625 18.421 6.55351 18.421 7.1592Z" fill="#FAA629"/>
<path d="M13.0545 10.1371C13.0545 10.9656 12.5899 11.6374 12.0175 11.6374C11.4452 11.6374 10.9805 10.9656 10.9805 10.1371C10.9805 9.30855 11.4451 8.63672 12.0175 8.63672C12.5899 8.63672 13.0545 9.30855 13.0545 10.1371Z" fill="#DF7F19"/>
</svg>
