<svg width="12" height="12" viewBox="0 0 12 12" fill="none" xmlns="http://www.w3.org/2000/svg">
<path d="M5.14279 3.42859H4.28564V8.57144H5.14279V3.42859ZM7.71421 3.42859H6.85707V8.57144H7.71421V3.42859Z" fill="#FF9153"/>
<path d="M6 0.857143C7.01716 0.857143 8.01148 1.15877 8.85722 1.72387C9.70296 2.28897 10.3621 3.09218 10.7514 4.03191C11.1406 4.97165 11.2425 6.0057 11.044 7.00332C10.8456 8.00094 10.3558 8.9173 9.63655 9.63655C8.91731 10.3558 8.00094 10.8456 7.00332 11.044C6.00571 11.2425 4.97165 11.1406 4.03192 10.7514C3.09218 10.3621 2.28898 9.70295 1.72387 8.85722C1.15877 8.01148 0.857145 7.01716 0.857145 6C0.857145 4.63603 1.39898 3.32792 2.36345 2.36345C3.32793 1.39898 4.63603 0.857143 6 0.857143ZM6 0C4.81331 0 3.65327 0.351894 2.66658 1.01118C1.67989 1.67047 0.910851 2.60754 0.456725 3.7039C0.0025997 4.80025 -0.11622 6.00665 0.115291 7.17054C0.346802 8.33442 0.918247 9.40352 1.75736 10.2426C2.59648 11.0818 3.66557 11.6532 4.82946 11.8847C5.99335 12.1162 7.19974 11.9974 8.2961 11.5433C9.39246 11.0891 10.3295 10.3201 10.9888 9.33342C11.6481 8.34672 12 7.18669 12 6C12 4.4087 11.3679 2.88258 10.2426 1.75736C9.11742 0.632141 7.5913 0 6 0Z" fill="#FF9153"/>
</svg>
