<svg width="18" height="18" viewBox="0 0 18 18" fill="none" xmlns="http://www.w3.org/2000/svg">
<path fill-rule="evenodd" clip-rule="evenodd" d="M2.07692 0H15.9231C16.4739 0 17.0022 0.218818 17.3917 0.608317C17.7812 0.997815 18 1.52609 18 2.07692V15.9231C18 16.4739 17.7812 17.0022 17.3917 17.3917C17.0022 17.7812 16.4739 18 15.9231 18H2.07692C1.52609 18 0.997815 17.7812 0.608317 17.3917C0.218818 17.0022 0 16.4739 0 15.9231V2.07692C0 1.52609 0.218818 0.997815 0.608317 0.608317C0.997815 0.218818 1.52609 0 2.07692 0ZM2.07692 1.38462C1.89331 1.38462 1.71722 1.45755 1.58739 1.58739C1.45755 1.71722 1.38462 1.89331 1.38462 2.07692V10.1963L3.71354 7.86738C3.77256 7.80818 3.8429 7.76147 3.92036 7.73002C3.99781 7.69857 4.08081 7.68302 4.1644 7.68431C4.24799 7.68561 4.33046 7.70371 4.40691 7.73754C4.48336 7.77137 4.55222 7.82023 4.60938 7.88123L9.51785 13.14L13.4058 9.252C13.5227 9.13532 13.681 9.06978 13.8462 9.06978C14.0113 9.06978 14.1696 9.13532 14.2865 9.252L16.6154 11.5809V2.07692C16.6154 1.89331 16.5424 1.71722 16.4126 1.58739C16.2828 1.45755 16.1067 1.38462 15.9231 1.38462H2.07692ZM1.38462 15.9231V11.9575L4.13862 9.20492L9.04292 14.4582L10.9952 16.6154H2.07692C1.89331 16.6154 1.71722 16.5424 1.58739 16.4126C1.45755 16.2828 1.38462 16.1067 1.38462 15.9231ZM15.9231 16.6154H12.6762L10.3611 14.058L13.8462 10.5729L16.6154 13.3422V15.9231C16.6154 16.1067 16.5424 16.2828 16.4126 16.4126C16.2828 16.5424 16.1067 16.6154 15.9231 16.6154ZM7.82308 6.23077C7.82308 5.91863 7.94707 5.61928 8.16779 5.39856C8.38851 5.17784 8.68786 5.05385 9 5.05385C9.31214 5.05385 9.6115 5.17784 9.83221 5.39856C10.0529 5.61928 10.1769 5.91863 10.1769 6.23077C10.1769 6.54291 10.0529 6.84226 9.83221 7.06298C9.6115 7.2837 9.31214 7.40769 9 7.40769C8.68786 7.40769 8.38851 7.2837 8.16779 7.06298C7.94707 6.84226 7.82308 6.54291 7.82308 6.23077ZM9 3.80769C8.6818 3.80769 8.36671 3.87037 8.07273 3.99214C7.77875 4.11391 7.51163 4.29239 7.28663 4.5174C7.06162 4.7424 6.88314 5.00952 6.76137 5.3035C6.6396 5.59748 6.57692 5.91257 6.57692 6.23077C6.57692 6.54897 6.6396 6.86406 6.76137 7.15804C6.88314 7.45202 7.06162 7.71914 7.28663 7.94414C7.51163 8.16915 7.77875 8.34763 8.07273 8.4694C8.36671 8.59117 8.6818 8.65385 9 8.65385C9.64264 8.65385 10.259 8.39856 10.7134 7.94414C11.1678 7.48973 11.4231 6.87341 11.4231 6.23077C11.4231 5.58813 11.1678 4.97181 10.7134 4.5174C10.259 4.06298 9.64264 3.80769 9 3.80769Z" fill="#4785FF"/>
</svg>
