<svg width="14" height="17" viewBox="0 0 14 17" fill="none" xmlns="http://www.w3.org/2000/svg">
<path d="M12.1113 6.33805C12.1113 8.27305 11.1588 9.7618 9.70983 10.742C9.37233 10.97 9.20358 11.084 9.12033 11.2145C9.03783 11.3435 9.00858 11.5145 8.95233 11.855L8.90733 12.1198C8.80833 12.7183 8.75808 13.0176 8.54808 13.1953C8.33808 13.3731 8.03508 13.373 7.42833 13.373H5.46933C4.86258 13.373 4.55958 13.3731 4.34958 13.1953C4.13958 13.0176 4.09008 12.7183 3.98958 12.1198L3.94608 11.855C3.88908 11.5153 3.86133 11.3451 3.77883 11.2161C3.69633 11.0871 3.52683 10.9715 3.18858 10.7405C1.75533 9.7603 0.861328 8.2723 0.861328 6.33805C0.861328 3.1828 3.37983 0.62305 6.48633 0.62305C6.86423 0.62265 7.24119 0.660848 7.61133 0.73705" stroke="#181C23" stroke-width="1.2" stroke-linecap="round" stroke-linejoin="round"/>
<path d="M7.98633 13.373V14.123C7.98633 14.8303 7.98633 15.1835 7.76658 15.4033C7.54683 15.623 7.19358 15.623 6.48633 15.623C5.77908 15.623 5.42583 15.623 5.20608 15.4033C4.98633 15.1835 4.98633 14.8303 4.98633 14.123V13.373M10.2363 0.623047L10.4298 1.1458C10.6833 1.8313 10.8101 2.17405 11.0598 2.4238C11.3103 2.6743 11.6531 2.80105 12.3386 3.05455L12.8613 3.24805L12.3386 3.44155C11.6531 3.69505 11.3103 3.8218 11.0606 4.07155C10.8101 4.32205 10.6833 4.6648 10.4298 5.3503L10.2363 5.87305L10.0428 5.3503C9.78933 4.6648 9.66258 4.32205 9.41283 4.0723C9.16233 3.8218 8.81958 3.69505 8.13408 3.44155L7.61133 3.24805L8.13408 3.05455C8.81958 2.80105 9.16233 2.6743 9.41208 2.42455C9.66258 2.17405 9.78933 1.8313 10.0428 1.1458L10.2363 0.623047Z" stroke="#181C23" stroke-width="1.2" stroke-linecap="round" stroke-linejoin="round"/>
</svg>
