<svg xmlns="http://www.w3.org/2000/svg" width="32.122" height="32.127" viewBox="0 0 32.122 32.127">
    <defs>
        <style>
            .cls-1{fill:#b9dcff}
        </style>
    </defs>
    <g id="Group_7449" transform="translate(-597 -527)">
        <g id="world" transform="translate(597 527)">
            <g id="Group_7448">
                <path id="Path_13408" d="M29.086 7.054l-.481.152-2.56.228-.723 1.155-.522-.167-2.039-1.836-.3-.955-.4-1.019-1.28-1.148-1.51-.3-.035.691L20.724 5.3l.724.853-.814.425-.663-.2-.993-.414.034-.8-1.3-.536-.433 1.883-1.313.3.13 1.05L17.8 8.2l.3-1.678 1.412.209.657.385h1.053l.721 1.444 1.911 1.939-.14.754-1.541-.2L19.51 12.4l-1.917 2.3-.25 1.019h-.688l-1.282-.591-1.246.591.31 1.314.542-.625.953-.03-.066 1.18.789.231.788.886 1.287-.362 1.471.232 1.708.455.853.1 1.446 1.641L27 22.382l-1.8 3.448-1.905.886-.723 1.971-2.757 1.841-.293 1.061a16.042 16.042 0 0 0 9.564-24.535z" class="cls-1" transform="translate(.316 .072)"/>
                <path id="Path_13409" fill="#529cff" d="M17.911 24.288l-1.17-2.169 1.074-2.238-1.074-.321-1.206-1.211-2.671-.6-.886-1.849V17h-.391l-2.3-3.121v-2.567L7.6 8.568l-2.679.478h-1.8l-.908-.6 1.159-.918-1.163.272a16.041 16.041 0 0 0 13.855 24.156 16.816 16.816 0 0 0 2.016-.14l-.168-1.946s.737-2.89.737-2.988-.738-2.594-.738-2.594z" transform="translate(-.004 .17)"/>
                <path id="Path_13410" d="M5.891 5.18l2.853-.4 1.315-.721 1.48.426 2.361-.129.81-1.273 1.181.194 2.868-.269.79-.871 1.115-.744 1.577.237.575-.087A16.01 16.01 0 0 0 3.6 5.84zm10.77-3.58l1.64-.9 1.053.608-1.524 1.156-1.456.146-.656-.425zm-4.861.129l.724.3.948-.3.516.895L11.8 3.2l-1.05-.617s1.029-.663 1.05-.854z" class="cls-1" transform="translate(.077)"/>
            </g>
        </g>
    </g>
</svg>
