<svg width="92" height="96" viewBox="0 0 92 96" fill="none" xmlns="http://www.w3.org/2000/svg">
<path d="M56.0002 80.0005C56.0002 88.8372 48.8364 96.0002 39.9998 96.0002C31.1631 96.0002 24 88.8372 24 80.0005C24 71.1638 31.1631 64 39.9998 64C48.8364 64 56.0002 71.1638 56.0002 80.0005V80.0005Z" fill="#99A8FF"/>
<path d="M68.0317 47.6841C54.4717 45.7476 44.0002 34.0874 44.0002 20C44.0002 15.9995 44.8557 12.2041 46.3718 8.75952C44.324 8.27979 42.1963 8 39.9998 8C24.5603 8 12 20.5596 12 35.9998V47.1516C12 55.0676 8.53198 62.5398 2.44775 67.6836C0.89209 69.0115 0 70.9517 0 72.9995C0 76.8601 3.13989 80 6.99976 80H72.9998C76.8604 80 80.0002 76.8601 80.0002 72.9995C80.0002 70.9517 79.1082 69.0115 77.5122 67.6477C71.6082 62.6519 68.1841 55.3994 68.0317 47.6841V47.6841Z" fill="#D5E3FF"/>
<path d="M92.0005 20.0002C92.0005 31.0459 83.0459 39.9998 72.0002 39.9998C60.9546 39.9998 52 31.0459 52 20.0002C52 8.95459 60.9546 0 72.0002 0C83.0459 0 92.0005 8.95459 92.0005 20.0002V20.0002Z" fill="#E4E6EF" fill-opacity="0.51"/>
<path d="M72 13L72 25" stroke="#8B98E4" stroke-width="2" stroke-linecap="round"/>
<path d="M78 19L66 19" stroke="#8B98E4" stroke-width="2" stroke-linecap="round"/>
</svg>
