<svg xmlns="http://www.w3.org/2000/svg" width="19.761" height="19.777" viewBox="0 0 19.761 19.777">
    <g data-name="Group 11010">
        <path data-name="Path 17503" d="M86.02 26.627v-10.07h10.07v3.891l2.018.666v-5.556a.986.986 0 0 0-1-1H85a1 1 0 0 0-1 1v12.088a1 1 0 0 0 1 1h5.555l-.666-2.018z" transform="translate(-84.002 -14.559)" style="fill:#4f8aff"/>
        <path data-name="Path 17504" d="m273.977 201.76-3.724-3.724 2.518-1.769a.935.935 0 0 0-.25-1.665l-10.029-3.287a.937.937 0 0 0-1.186 1.186l3.287 10.05a.948.948 0 0 0 1.665.25l1.769-2.518 3.724 3.724a1.557 1.557 0 0 0 2.226 0 1.621 1.621 0 0 0 0-2.247z" transform="translate(-254.669 -184.698)" style="fill:#9fceff"/>
    </g>
</svg>
