<svg width="72" height="68" viewBox="0 0 72 68" fill="none" xmlns="http://www.w3.org/2000/svg">
<path d="M55.7263 65.4398H3.67286C1.64775 65.4398 0 63.792 0 61.7669V3.67286C0 1.64775 1.64775 0 3.67286 0H55.7263C57.7514 0 59.3991 1.64775 59.3991 3.67286V33.6305C59.3991 34.2516 58.8956 34.7555 58.2741 34.7555C57.6525 34.7555 57.149 34.2521 57.149 33.6305V3.67286C57.149 2.8886 56.511 2.25013 55.7263 2.25013H3.67286C2.88813 2.25013 2.25013 2.88813 2.25013 3.67286V61.7669C2.25013 62.5512 2.88813 63.1896 3.67286 63.1896H55.7263C56.5105 63.1896 57.149 62.5516 57.149 61.7669V58.4306C57.149 57.809 57.6525 57.3056 58.2741 57.3056C58.8956 57.3056 59.3991 57.809 59.3991 58.4306V61.7669C59.3991 63.792 57.7514 65.4398 55.7263 65.4398Z" fill="#32D0A5"/>
<path d="M16.4933 19.0684C13.2273 19.0684 10.5698 16.4114 10.5698 13.145C10.5698 9.87852 13.2268 7.2215 16.4933 7.2215C19.7597 7.2215 22.4167 9.87852 22.4167 13.145C22.4167 16.4114 19.7597 19.0684 16.4933 19.0684ZM16.4933 9.47162C14.4677 9.47162 12.8199 11.1194 12.8199 13.145C12.8199 15.1705 14.4677 16.8183 16.4933 16.8183C18.5189 16.8183 20.1666 15.1705 20.1666 13.145C20.1666 11.1194 18.5189 9.47162 16.4933 9.47162Z" fill="#32D0A5"/>
<path d="M24.8749 27.4497C24.2533 27.4497 23.7498 26.9462 23.7498 26.3246C23.7498 22.3236 20.4946 19.0684 16.4936 19.0684C12.4926 19.0684 9.23743 22.3236 9.23743 26.3246C9.23743 26.9462 8.73397 27.4497 8.11237 27.4497C7.49077 27.4497 6.9873 26.9462 6.9873 26.3246C6.9873 21.0828 11.2518 16.8183 16.4936 16.8183C21.7355 16.8183 25.9999 21.0828 25.9999 26.3246C25.9999 26.9462 25.4965 27.4497 24.8749 27.4497Z" fill="#32D0A5"/>
<path d="M51.2869 10.509H32.286C31.6644 10.509 31.1609 10.0056 31.1609 9.38396C31.1609 8.76236 31.6644 8.2589 32.286 8.2589H51.2869C51.9085 8.2589 52.4119 8.76236 52.4119 9.38396C52.4119 10.0056 51.908 10.509 51.2869 10.509Z" fill="#32D0A5"/>
<path d="M51.2869 18.4604H32.286C31.6644 18.4604 31.1609 17.957 31.1609 17.3354C31.1609 16.7138 31.6644 16.2103 32.286 16.2103H51.2869C51.9085 16.2103 52.4119 16.7138 52.4119 17.3354C52.4119 17.957 51.908 18.4604 51.2869 18.4604Z" fill="#32D0A5"/>
<path d="M41.5673 26.4123H32.286C31.6644 26.4123 31.1609 25.9088 31.1609 25.2872C31.1609 24.6656 31.6644 24.1622 32.286 24.1622H41.5673C42.1889 24.1622 42.6923 24.6656 42.6923 25.2872C42.6923 25.9088 42.1884 26.4123 41.5673 26.4123Z" fill="#32D0A5"/>
<path d="M30.7655 34.3637H8.11188C7.49028 34.3637 6.98682 33.8602 6.98682 33.2386C6.98682 32.617 7.49028 32.1135 8.11188 32.1135H30.7655C31.3871 32.1135 31.8906 32.617 31.8906 33.2386C31.8906 33.8602 31.3866 34.3637 30.7655 34.3637Z" fill="#32D0A5"/>
<path d="M27.9716 42.315H8.11139C7.48979 42.315 6.98633 41.8115 6.98633 41.1899C6.98633 40.5683 7.48979 40.0649 8.11139 40.0649H27.9716C28.5932 40.0649 29.0966 40.5683 29.0966 41.1899C29.0966 41.8115 28.5932 42.315 27.9716 42.315Z" fill="#32D0A5"/>
<path d="M28.9958 50.2668H8.11139C7.48979 50.2668 6.98633 49.7634 6.98633 49.1418C6.98633 48.5202 7.48979 48.0167 8.11139 48.0167H28.9958C29.6174 48.0167 30.1209 48.5202 30.1209 49.1418C30.1209 49.7634 29.617 50.2668 28.9958 50.2668Z" fill="#32D0A5"/>
<path d="M32.2857 58.2183H8.11188C7.49028 58.2183 6.98682 57.7148 6.98682 57.0932C6.98682 56.4716 7.49028 55.9681 8.11188 55.9681H32.2857C32.9073 55.9681 33.4108 56.4716 33.4108 57.0932C33.4108 57.7148 32.9069 58.2183 32.2857 58.2183Z" fill="#32D0A5"/>
<path d="M47.5386 59.1014C45.4249 59.1014 43.374 58.687 41.4426 57.8704C39.5778 57.0815 37.9029 55.9527 36.4652 54.5149C35.0274 53.0772 33.8982 51.4023 33.1097 49.5375C32.2926 47.6061 31.8787 45.5552 31.8787 43.4415C31.8787 41.3278 32.2931 39.2769 33.1097 37.3455C33.8986 35.4807 35.0274 33.8058 36.4652 32.3681C37.9029 30.9303 39.5778 29.801 41.4426 29.0126C43.374 28.1955 45.4249 27.7816 47.5386 27.7816C49.6523 27.7816 51.7032 28.196 53.6346 29.0126C55.4994 29.8015 57.1743 30.9303 58.612 32.3681C60.0498 33.8058 61.1791 35.4807 61.9675 37.3455C62.7846 39.2769 63.1985 41.3278 63.1985 43.4415C63.1985 45.5552 62.7841 47.6061 61.9675 49.5375C61.1786 51.4023 60.0498 53.0772 58.612 54.5149C57.1743 55.9527 55.4994 57.0819 53.6346 57.8704C51.7032 58.687 49.6523 59.1014 47.5386 59.1014ZM47.5386 30.0307C40.1441 30.0307 34.1283 36.0465 34.1283 43.441C34.1283 50.8355 40.1441 56.8513 47.5386 56.8513C54.9331 56.8513 60.9489 50.8355 60.9489 43.441C60.9489 36.0465 54.9331 30.0307 47.5386 30.0307Z" fill="#32D0A5"/>
<path d="M47.5385 54.844C44.4928 54.844 41.6291 53.658 39.4755 51.504C37.322 49.3504 36.1355 46.4867 36.1355 43.441C36.1355 40.3954 37.3215 37.5316 39.4755 35.3781C41.6291 33.2245 44.4928 32.0381 47.5385 32.0381C50.5841 32.0381 53.4479 33.2241 55.6014 35.3781C57.755 37.5316 58.9415 40.3954 58.9415 43.441C58.9415 46.4867 57.7555 49.3504 55.6014 51.504C53.4474 53.6575 50.5841 54.844 47.5385 54.844ZM47.5385 34.2882C42.4916 34.2882 38.3856 38.3942 38.3856 43.441C38.3856 48.4879 42.4916 52.5939 47.5385 52.5939C52.5853 52.5939 56.6913 48.4879 56.6913 43.441C56.6913 38.3942 52.5853 34.2882 47.5385 34.2882Z" fill="#32D0A5"/>
<path d="M67.8736 67.9069C66.7701 67.9069 65.7336 67.4775 64.9531 66.697L54.6761 56.42C54.2369 55.9808 54.2369 55.2682 54.6761 54.829C55.1158 54.3898 55.8279 54.3898 56.2671 54.829L66.5441 65.106C66.8995 65.4613 67.3715 65.6568 67.8736 65.6568C67.8754 65.6568 67.8778 65.6568 67.8797 65.6568C68.3841 65.6554 68.8575 65.4566 69.2119 65.0975C69.9357 64.3644 69.932 63.1756 69.2035 62.4471L58.926 52.1696C58.4868 51.7304 58.4868 51.0179 58.926 50.5786C59.3653 50.1394 60.0778 50.1394 60.5171 50.5786L70.7945 60.8561C72.3944 62.456 72.4029 65.068 70.8133 66.6783C70.0346 67.4667 68.9954 67.9032 67.8872 67.9065C67.8825 67.9069 67.8778 67.9069 67.8736 67.9069Z" fill="#32D0A5"/>
</svg>
