<svg width="20" height="20" viewBox="0 0 20 20" fill="none" xmlns="http://www.w3.org/2000/svg">
<path d="M6.81963 17.5443H12.9863C16.085 17.5443 16.64 16.3032 16.8019 14.7924L17.38 8.62573C17.5882 6.7449 17.0486 5.21094 13.7571 5.21094H6.0488C2.75734 5.21094 2.21775 6.7449 2.42588 8.62573L3.004 14.7924C3.16588 16.3032 3.72088 17.5443 6.81963 17.5443Z" stroke="#5C5F65" stroke-width="0.925" stroke-miterlimit="10" stroke-linecap="round" stroke-linejoin="round"/>
<path d="M6.81641 5.21224V4.59557C6.81641 3.2312 6.81641 2.12891 9.28307 2.12891H10.5164C12.9831 2.12891 12.9831 3.2312 12.9831 4.59557V5.21224" stroke="#5C5F65" stroke-width="0.925" stroke-miterlimit="10" stroke-linecap="round" stroke-linejoin="round"/>
<path d="M11.4466 10.6068V11.3776C11.4466 11.3853 11.4466 11.3853 11.4466 11.393C11.4466 12.2332 11.4389 12.9193 9.90495 12.9193C8.3787 12.9193 8.36328 12.2409 8.36328 11.4007V10.6068C8.36328 9.83594 8.36328 9.83594 9.13411 9.83594H10.6758C11.4466 9.83594 11.4466 9.83594 11.4466 10.6068Z" stroke="#5C5F65" stroke-width="0.925" stroke-miterlimit="10" stroke-linecap="round" stroke-linejoin="round"/>
<path d="M17.3383 9.06641C15.5577 10.3614 13.5227 11.1322 11.4414 11.3943" stroke="#5C5F65" stroke-width="0.925" stroke-miterlimit="10" stroke-linecap="round" stroke-linejoin="round"/>
<path d="M2.67188 9.27344C4.40625 10.4605 6.36417 11.1774 8.36063 11.4009" stroke="#5C5F65" stroke-width="0.925" stroke-miterlimit="10" stroke-linecap="round" stroke-linejoin="round"/>
</svg>
