<svg width="40" height="40" viewBox="0 0 40 40" fill="none" xmlns="http://www.w3.org/2000/svg">
<mask id="mask0_510_9682" style="mask-type:alpha" maskUnits="userSpaceOnUse" x="0" y="0" width="40" height="40">
<rect width="40" height="40" fill="#D9D9D9"/>
</mask>
<g mask="url(#mask0_510_9682)">
<path d="M14.6667 36.3333H24.6667C33 36.3333 36.3333 33 36.3333 24.6667V14.6667C36.3333 6.33333 33 3 24.6667 3H14.6667C6.33333 3 3 6.33333 3 14.6667V24.6667C3 33 6.33333 36.3333 14.6667 36.3333Z" stroke="#292D32" stroke-width="1.8" stroke-linecap="round" stroke-linejoin="round"/>
<path d="M15.5001 29H23.5001C27.5201 29 28.2401 27.39 28.4501 25.43L29.2001 17.43C29.4701 14.99 28.7701 13 24.5001 13H14.5001C10.2301 13 9.53007 14.99 9.80007 17.43L10.5501 25.43C10.7601 27.39 11.4801 29 15.5001 29Z" stroke="#292D32" stroke-width="1.5" stroke-miterlimit="10" stroke-linecap="round" stroke-linejoin="round"/>
<path d="M15.5 13V12.2C15.5 10.43 15.5 9 18.7 9H20.3C23.5 9 23.5 10.43 23.5 12.2V13" stroke="#292D32" stroke-width="1.5" stroke-miterlimit="10" stroke-linecap="round" stroke-linejoin="round"/>
<path d="M21.5 20V21C21.5 21.01 21.5 21.01 21.5 21.02C21.5 22.11 21.49 23 19.5 23C17.52 23 17.5 22.12 17.5 21.03V20C17.5 19 17.5 19 18.5 19H20.5C21.5 19 21.5 19 21.5 20Z" stroke="#292D32" stroke-width="1.5" stroke-miterlimit="10" stroke-linecap="round" stroke-linejoin="round"/>
<path d="M29.15 18C26.84 19.68 24.2 20.68 21.5 21.02" stroke="#292D32" stroke-width="1.5" stroke-miterlimit="10" stroke-linecap="round" stroke-linejoin="round"/>
<path d="M10.1201 18.27C12.3701 19.81 14.9101 20.74 17.5001 21.03" stroke="#292D32" stroke-width="1.5" stroke-miterlimit="10" stroke-linecap="round" stroke-linejoin="round"/>
</g>
</svg>
