<svg width="25" height="25" viewBox="0 0 25 25" fill="none" xmlns="http://www.w3.org/2000/svg">
<path d="M9.26628 24.4334H16.2663C22.0996 24.4334 24.4329 22.1001 24.4329 16.2668V9.26676C24.4329 3.43343 22.0996 1.1001 16.2663 1.1001H9.26628C3.43294 1.1001 1.09961 3.43343 1.09961 9.26676V16.2668C1.09961 22.1001 3.43294 24.4334 9.26628 24.4334Z" stroke="#4785FF" stroke-width="0.5" stroke-linecap="round" stroke-linejoin="round"/>
<path d="M12.2994 5.02015C8.27878 5.02015 5.01941 8.27951 5.01941 12.3001C5.01941 16.3208 8.27878 19.5801 12.2994 19.5801C12.6087 19.5801 12.8594 19.8308 12.8594 20.1401C12.8594 20.4494 12.6087 20.7001 12.2994 20.7001C7.66023 20.7001 3.89941 16.9393 3.89941 12.3001C3.89941 7.66096 7.66023 3.90015 12.2994 3.90015C12.6087 3.90015 12.8594 4.15087 12.8594 4.46015C12.8594 4.76943 12.6087 5.02015 12.2994 5.02015Z" fill="#4785FF"/>
<path d="M8.93933 12.3001C8.93933 10.4444 10.4437 8.94007 12.2993 8.94007C12.6086 8.94007 12.8593 8.68936 12.8593 8.38007C12.8593 8.07078 12.6086 7.82007 12.2993 7.82007C9.82509 7.82007 7.81934 9.82582 7.81934 12.3001C7.81934 14.7743 9.82509 16.7801 12.2993 16.7801C14.7736 16.7801 16.7793 14.7743 16.7793 12.3001C16.7793 11.9908 16.5286 11.7401 16.2193 11.7401C15.91 11.7401 15.6593 11.9908 15.6593 12.3001C15.6593 14.1557 14.155 15.6601 12.2993 15.6601C10.4437 15.6601 8.93933 14.1557 8.93933 12.3001Z" fill="#4785FF"/>
<path d="M18.1792 17.3882L16.6152 15.8242C16.3965 15.6055 16.0419 15.6055 15.8232 15.8242C15.6045 16.0429 15.6045 16.3975 15.8232 16.6161L17.3872 18.1802L15.8232 19.7442C15.6045 19.9629 15.6045 20.3175 15.8232 20.5361C16.0419 20.7548 16.3965 20.7548 16.6152 20.5361L18.1792 18.9721L19.7432 20.5361C19.9619 20.7548 20.3165 20.7548 20.5352 20.5361C20.7539 20.3175 20.7539 19.9629 20.5352 19.7442L18.9711 18.1802L20.5352 16.6161C20.7539 16.3975 20.7539 16.0429 20.5352 15.8242C20.3165 15.6055 19.9619 15.6055 19.7432 15.8242L18.1792 17.3882Z" fill="#4785FF"/>
<path fill-rule="evenodd" clip-rule="evenodd" d="M15.1088 6.56337L15.1971 8.59415L12.1836 11.6077C11.9649 11.8264 11.9649 12.1809 12.1836 12.3997C12.4022 12.6183 12.7568 12.6183 12.9755 12.3997L15.989 9.3861L18.0198 9.47441C18.1766 9.48122 18.3291 9.42191 18.4401 9.31092L20.519 7.23201C20.676 7.07498 20.7255 6.84001 20.6449 6.63303C20.5644 6.42605 20.3692 6.28622 20.1474 6.27656L18.3833 6.19987L18.3066 4.43584C18.297 4.21397 18.1571 4.01877 17.9502 3.93826C17.7432 3.85775 17.5082 3.90715 17.3512 4.06418L15.2723 6.14309C15.1613 6.25408 15.102 6.40657 15.1088 6.56337ZM16.3044 8.27876L16.2384 6.76085L17.243 5.7563L17.2867 6.76135C17.2993 7.05155 17.5317 7.28389 17.8218 7.29652L18.8269 7.34023L17.8224 8.34475L16.3044 8.27876Z" fill="#4785FF"/>
</svg>
