<svg width="22" height="22" viewBox="0 0 22 22" fill="none" xmlns="http://www.w3.org/2000/svg">
<path d="M6.65504 1.83301H15.3359C15.9317 1.83301 16.4634 1.85137 16.94 1.91553C19.4792 2.1997 20.1667 3.39135 20.1667 6.65468V12.448C20.1667 15.7114 19.4792 16.903 16.94 17.1872C16.4634 17.2513 15.9409 17.2697 15.3359 17.2697H6.65504C6.05921 17.2697 5.52754 17.2513 5.05088 17.1872C2.51171 16.903 1.82422 15.7114 1.82422 12.448V6.65468C1.82422 3.39135 2.51171 2.1997 5.05088 1.91553C5.52754 1.85137 6.05921 1.83301 6.65504 1.83301Z" stroke="#2B345F" stroke-width="1.5" stroke-linecap="round" stroke-linejoin="round"/>
<path d="M12.4485 7.62598H15.8218" stroke="#2B345F" stroke-width="1.5" stroke-linecap="round" stroke-linejoin="round"/>
<path d="M6.17847 12.9336H6.19679H15.831" stroke="#2B345F" stroke-width="1.5" stroke-linecap="round" stroke-linejoin="round"/>
<path d="M6.41675 20.167H15.5834" stroke="#2B345F" stroke-width="1.5" stroke-linecap="round" stroke-linejoin="round"/>
<path d="M6.59514 7.60872H6.60338" stroke="#2B345F" stroke-width="2" stroke-linecap="round" stroke-linejoin="round"/>
<path d="M9.62005 7.60872H9.62828" stroke="#2B345F" stroke-width="2" stroke-linecap="round" stroke-linejoin="round"/>
</svg>
