<svg width="40" height="40" viewBox="0 0 40 40" fill="none" xmlns="http://www.w3.org/2000/svg">
<mask id="mask0_198_1790" style="mask-type:alpha" maskUnits="userSpaceOnUse" x="0" y="0" width="40" height="40">
<rect width="40" height="40" fill="#D9D9D9"/>
</mask>
<g mask="url(#mask0_198_1790)">
<path d="M14.6667 36.3333H24.6667C33 36.3333 36.3333 33 36.3333 24.6667V14.6667C36.3333 6.33333 33 3 24.6667 3H14.6667C6.33333 3 3 6.33333 3 14.6667V24.6667C3 33 6.33333 36.3333 14.6667 36.3333Z" stroke="#292D32" stroke-width="1.8" stroke-linecap="round" stroke-linejoin="round"/>
<path d="M26.6975 22.3344C26.7 22.4133 26.6709 22.49 26.6167 22.5475C26.5625 22.6051 26.4875 22.6389 26.4083 22.6415C24.7943 22.6904 23.2097 23.0848 21.7622 23.7977C21.6914 23.8308 21.6103 23.8348 21.5365 23.809C21.4626 23.7832 21.4019 23.7296 21.3673 23.6598C21.3327 23.5899 21.3271 23.5092 21.3515 23.4352C21.3759 23.3612 21.4286 23.2997 21.4981 23.2639C23.0218 22.5135 24.6898 22.0983 26.3889 22.0465C26.4681 22.0441 26.5451 22.0731 26.6029 22.127C26.6607 22.181 26.6947 22.2556 26.6975 22.3344ZM26.3889 23.9571C24.6897 24.0085 23.0215 24.4236 21.4978 25.1741C21.4372 25.2038 21.3884 25.253 21.3595 25.3137C21.3306 25.3745 21.3232 25.4432 21.3386 25.5086C21.3539 25.5741 21.3911 25.6325 21.444 25.6742C21.4969 25.7159 21.5625 25.7386 21.63 25.7384C21.6758 25.7385 21.7209 25.728 21.7619 25.7077C23.2094 24.9948 24.794 24.6004 26.4081 24.5515C26.448 24.5514 26.4876 24.5432 26.5243 24.5276C26.5611 24.512 26.5944 24.4892 26.6221 24.4606C26.6499 24.4319 26.6716 24.398 26.686 24.3609C26.7003 24.3237 26.7071 24.2841 26.7058 24.2443C26.7045 24.2045 26.6952 24.1654 26.6785 24.1292C26.6618 24.0931 26.6379 24.0607 26.6084 24.0338C26.5788 24.007 26.5442 23.9864 26.5065 23.9732C26.4688 23.9599 26.4288 23.9546 26.3889 23.9571ZM26.3889 20.1362C24.6897 20.1878 23.0216 20.6029 21.4978 21.3533C21.4618 21.3701 21.4295 21.3939 21.4029 21.4232C21.3762 21.4526 21.3557 21.4869 21.3425 21.5243C21.3294 21.5616 21.3238 21.6012 21.3262 21.6407C21.3286 21.6802 21.3389 21.7189 21.3565 21.7544C21.374 21.7899 21.3985 21.8216 21.4285 21.8475C21.4585 21.8735 21.4934 21.8932 21.5312 21.9056C21.569 21.9179 21.6088 21.9227 21.6484 21.9195C21.6881 21.9164 21.7266 21.9054 21.7619 21.8872C23.2095 21.1742 24.7942 20.7798 26.4083 20.7309C26.4483 20.7308 26.4879 20.7227 26.5246 20.7071C26.5614 20.6915 26.5946 20.6686 26.6224 20.64C26.6502 20.6114 26.6719 20.5775 26.6863 20.5403C26.7006 20.5032 26.7074 20.4635 26.7061 20.4238C26.7048 20.384 26.6955 20.3448 26.6788 20.3087C26.6621 20.2725 26.6382 20.2401 26.6087 20.2133C26.5791 20.1865 26.5445 20.1658 26.5068 20.1526C26.469 20.1394 26.4288 20.1338 26.3889 20.1362ZM12.5917 16.9104C13.5472 16.9409 14.495 17.0916 15.4125 17.359C15.4875 17.3776 15.5668 17.3666 15.6338 17.3282C15.7008 17.2899 15.7502 17.2272 15.7718 17.1533C15.7934 17.0794 15.7853 17 15.7494 16.9319C15.7135 16.8638 15.6525 16.8121 15.5792 16.7878C14.6138 16.5065 13.6165 16.3478 12.6111 16.3157C12.5712 16.3132 12.5312 16.3188 12.4935 16.3321C12.4558 16.3453 12.4212 16.3659 12.3916 16.3927C12.3621 16.4195 12.3382 16.452 12.3215 16.4881C12.3048 16.5243 12.2955 16.5634 12.2942 16.6032C12.2929 16.643 12.2997 16.6826 12.314 16.7198C12.3284 16.7569 12.3501 16.7908 12.3779 16.8195C12.4056 16.8481 12.4389 16.8709 12.4757 16.8865C12.5124 16.9021 12.552 16.9102 12.5919 16.9104H12.5917ZM12.5917 20.7309C14.2058 20.7801 15.7903 21.1745 17.2378 21.8874C17.3086 21.9205 17.3897 21.9246 17.4635 21.8988C17.5374 21.873 17.5981 21.8194 17.6327 21.7495C17.6673 21.6796 17.6729 21.599 17.6485 21.5249C17.6241 21.4509 17.5714 21.3894 17.5019 21.3536C15.9781 20.6033 14.31 20.1882 12.6108 20.1365C12.5709 20.1341 12.531 20.1396 12.4933 20.1529C12.4556 20.1661 12.4209 20.1868 12.3914 20.2136C12.3618 20.2404 12.338 20.2728 12.3212 20.309C12.3045 20.3451 12.2952 20.3842 12.2939 20.424C12.2926 20.4638 12.2994 20.5035 12.3138 20.5406C12.3281 20.5777 12.3498 20.6116 12.3776 20.6403C12.4054 20.6689 12.4386 20.6917 12.4754 20.7073C12.5122 20.723 12.5517 20.7308 12.5917 20.7309ZM12.5917 18.8207C13.5472 18.8513 14.495 19.002 15.4125 19.2693C15.4875 19.2879 15.5668 19.2769 15.6338 19.2385C15.7008 19.2002 15.7502 19.1375 15.7718 19.0636C15.7934 18.9897 15.7853 18.9103 15.7494 18.8422C15.7135 18.7741 15.6525 18.7224 15.5792 18.6981C14.6137 18.4169 13.6165 18.2582 12.6111 18.2259C12.5712 18.2235 12.5312 18.2291 12.4935 18.2423C12.4558 18.2556 12.4212 18.2762 12.3916 18.303C12.3621 18.3298 12.3382 18.3623 12.3215 18.3984C12.3048 18.4346 12.2955 18.4737 12.2942 18.5135C12.2929 18.5533 12.2997 18.5929 12.314 18.63C12.3284 18.6672 12.3501 18.7011 12.3779 18.7297C12.4056 18.7584 12.4389 18.7812 12.4757 18.7968C12.5124 18.8124 12.552 18.8205 12.5919 18.8207H12.5917ZM12.5917 22.6415C14.2058 22.6904 15.7904 23.0847 17.2378 23.7977C17.3086 23.8308 17.3897 23.8348 17.4635 23.809C17.5374 23.7832 17.5981 23.7296 17.6327 23.6598C17.6673 23.5899 17.6729 23.5092 17.6485 23.4352C17.6241 23.3612 17.5714 23.2997 17.5019 23.2639C15.9782 22.5135 14.3102 22.0983 12.6111 22.0465C12.5719 22.0452 12.5328 22.0517 12.4961 22.0655C12.4593 22.0793 12.4257 22.1001 12.3971 22.1269C12.3684 22.1536 12.3454 22.1857 12.3292 22.2213C12.313 22.2569 12.304 22.2954 12.3028 22.3344C12.3015 22.3735 12.308 22.4124 12.3219 22.449C12.3357 22.4856 12.3567 22.5191 12.3835 22.5476C12.4104 22.5761 12.4426 22.5991 12.4784 22.6152C12.5141 22.6313 12.5527 22.6402 12.5919 22.6415H12.5917ZM23.5036 17.3718C23.5318 17.3717 23.5599 17.3677 23.5869 17.3599C24.5046 17.0921 25.4526 16.941 26.4083 16.9104C26.4483 16.9102 26.4879 16.9021 26.5246 16.8865C26.5614 16.8709 26.5946 16.8481 26.6224 16.8195C26.6502 16.7908 26.6719 16.7569 26.6863 16.7198C26.7006 16.6826 26.7074 16.643 26.7061 16.6032C26.7048 16.5634 26.6955 16.5243 26.6788 16.4881C26.6621 16.452 26.6382 16.4195 26.6087 16.3927C26.5791 16.3659 26.5445 16.3453 26.5068 16.3321C26.469 16.3188 26.4291 16.3132 26.3892 16.3157C25.3833 16.3477 24.3856 16.5063 23.4197 16.7878C23.3509 16.8081 23.2917 16.8523 23.2529 16.9124C23.2141 16.9725 23.1983 17.0445 23.2084 17.1152C23.2185 17.186 23.2538 17.2507 23.3079 17.2977C23.362 17.3446 23.4313 17.3706 23.5031 17.3709L23.5036 17.3718ZM12.5917 24.5518C14.2057 24.6008 15.7903 24.9951 17.2378 25.708C17.2788 25.7283 17.3239 25.7388 17.3697 25.7387C17.4372 25.7388 17.5028 25.7162 17.5557 25.6745C17.6087 25.6327 17.6458 25.5744 17.6612 25.5089C17.6765 25.4434 17.6691 25.3747 17.6402 25.314C17.6113 25.2532 17.5625 25.204 17.5019 25.1744C15.9782 24.4238 14.31 24.0087 12.6108 23.9573C12.5709 23.9549 12.531 23.9605 12.4933 23.9737C12.4556 23.987 12.4209 24.0076 12.3914 24.0344C12.3618 24.0612 12.338 24.0936 12.3212 24.1298C12.3045 24.166 12.2952 24.2051 12.2939 24.2449C12.2926 24.2847 12.2994 24.3243 12.3138 24.3614C12.3281 24.3986 12.3498 24.4325 12.3776 24.4611C12.4054 24.4898 12.4386 24.5126 12.4754 24.5282C12.5122 24.5438 12.5517 24.5516 12.5917 24.5518ZM26.3889 18.2259C25.3831 18.2584 24.3854 18.4176 23.4197 18.6995C23.3464 18.7238 23.2854 18.7754 23.2495 18.8436C23.2136 18.9117 23.2055 18.991 23.2271 19.0649C23.2487 19.1388 23.2981 19.2015 23.3651 19.2399C23.4321 19.2783 23.5114 19.2893 23.5864 19.2707C24.5042 19.0027 25.4524 18.8515 26.4083 18.8207C26.4483 18.8205 26.4879 18.8124 26.5246 18.7968C26.5614 18.7812 26.5946 18.7584 26.6224 18.7297C26.6502 18.7011 26.6719 18.6672 26.6863 18.63C26.7006 18.5929 26.7074 18.5533 26.7061 18.5135C26.7048 18.4737 26.6955 18.4346 26.6788 18.3984C26.6621 18.3623 26.6382 18.3298 26.6087 18.303C26.5791 18.2762 26.5445 18.2556 26.5068 18.2423C26.469 18.2291 26.4288 18.2235 26.3889 18.2259ZM32 17.6V30.7008C31.9999 30.7501 31.9876 30.7985 31.9641 30.8418C31.9406 30.8851 31.9067 30.9219 31.8654 30.9489C31.8241 30.976 31.7767 30.9924 31.7275 30.9967C31.6783 31.001 31.6287 30.993 31.5833 30.9736C27.7906 29.3329 23.6485 28.654 19.5278 28.9977C19.5236 28.9977 19.5194 28.9977 19.5153 28.9977H19.5025H19.4897C19.4856 28.9977 19.4814 28.9977 19.4772 28.9977C15.3565 28.6542 11.2145 29.333 7.42167 30.9736C7.37605 30.9941 7.32597 31.0029 7.27605 30.9992C7.22612 30.9954 7.17794 30.9792 7.13595 30.952C7.09396 30.9249 7.0595 30.8876 7.03575 30.8437C7.01199 30.7998 6.9997 30.7507 7.00001 30.7008V17.6C6.99998 17.5288 7.02554 17.46 7.07207 17.406C7.11859 17.352 7.183 17.3164 7.25362 17.3057C7.71806 17.2348 8.18973 17.1853 8.65889 17.1557V16.3206C8.65888 16.2495 8.68445 16.1808 8.73098 16.1268C8.77751 16.0729 8.84191 16.0373 8.9125 16.0266C9.32917 15.9633 9.75056 15.9196 10.1714 15.8938V14.8289C10.1714 14.7578 10.1969 14.6891 10.2434 14.6351C10.2898 14.5812 10.3542 14.5456 10.4247 14.5348C12.3217 14.2454 14.2608 14.4162 16.0772 15.0327C15.8537 14.4754 15.7707 13.872 15.8354 13.2753C15.9001 12.6786 16.1106 12.1067 16.4484 11.6097C16.7863 11.1127 17.2413 10.7057 17.7736 10.4242C18.3059 10.1428 18.8994 9.99541 19.5021 9.99504C20.1048 9.99468 20.6984 10.1413 21.231 10.4221C21.7637 10.703 22.2192 11.1094 22.5577 11.606C22.8961 12.1026 23.1073 12.6742 23.1728 13.2708C23.2382 13.8674 23.1559 14.471 22.9331 15.0286C24.7456 14.4154 26.6797 14.2459 28.5719 14.5343C28.6425 14.5451 28.7068 14.5806 28.7533 14.6346C28.7998 14.6885 28.8253 14.7573 28.8253 14.8283V15.8936C29.2461 15.919 29.6683 15.9627 30.0842 16.0261C30.1548 16.0368 30.2192 16.0723 30.2657 16.1263C30.3122 16.1802 30.3378 16.249 30.3378 16.3201V17.1541C30.8075 17.1839 31.2789 17.2335 31.7431 17.304C31.8146 17.3141 31.88 17.3496 31.9272 17.404C31.9745 17.4584 32.0003 17.528 32 17.6ZM28.8275 16.4905V26.2922C28.8275 26.3351 28.8182 26.3774 28.8003 26.4164C28.7823 26.4554 28.7561 26.49 28.7234 26.5179C28.6908 26.5459 28.6524 26.5664 28.611 26.5782C28.5696 26.59 28.5262 26.5927 28.4836 26.5862C26.0679 26.221 23.5984 26.641 21.4414 27.784C24.1844 27.1309 27.0543 27.2347 29.7425 28.0841V16.5798C29.4389 16.5394 29.1328 16.5098 28.8275 16.4905ZM17.6192 18.091V18.5806H21.3917V18.091H17.6192ZM17.6192 19.1744V19.4187C17.6192 19.4834 17.6451 19.5455 17.6911 19.5913C17.7371 19.6371 17.7994 19.6629 17.8644 19.6629H21.1464C21.2114 19.6629 21.2738 19.6371 21.3197 19.5913C21.3657 19.5455 21.3916 19.4834 21.3917 19.4187V19.1744H17.6192ZM18.3692 20.2579C18.5131 20.4141 18.688 20.5388 18.8828 20.624C19.0776 20.7093 19.2881 20.7534 19.501 20.7534C19.7138 20.7534 19.9243 20.7093 20.1191 20.624C20.314 20.5388 20.4889 20.4141 20.6328 20.2579H18.3692ZM22.4953 15.8285C22.1423 16.3555 21.9427 16.9695 21.9186 17.6025C21.9642 17.6561 21.9891 17.7241 21.9892 17.7944V19.4187C21.9889 19.5996 21.93 19.7757 21.8212 19.9206C21.7124 20.0655 21.5595 20.1716 21.3853 20.2231C21.2264 20.5182 21 20.7719 20.7244 20.9637C20.4488 21.1555 20.1318 21.2801 19.7989 21.3273V28.1024C22.2382 26.3562 25.248 25.5881 28.23 25.9506V15.0883C26.2863 14.8369 24.3104 15.0919 22.4953 15.8285ZM16.4119 13.669C16.4106 14.2897 16.5989 14.8961 16.9517 15.4078C16.9556 15.4136 16.9592 15.4194 16.9631 15.425C16.9669 15.4305 16.9689 15.4335 16.9717 15.4377C17.3958 16.0457 17.6425 16.7588 17.6844 17.4979H19.2011V17.268C19.2011 17.2495 19.203 17.2309 19.2067 17.2127V15.4078C18.825 15.3378 18.4799 15.137 18.2313 14.8402C17.9827 14.5433 17.8462 14.1692 17.8456 13.7827C17.8443 13.7429 17.8512 13.7032 17.8656 13.6661C17.8801 13.6289 17.9019 13.595 17.9298 13.5664C17.9576 13.5378 17.991 13.5151 18.0278 13.4996C18.0647 13.484 18.1043 13.476 18.1443 13.476C18.1843 13.476 18.2239 13.484 18.2608 13.4996C18.2976 13.5151 18.331 13.5378 18.3589 13.5664C18.3867 13.595 18.4085 13.6289 18.423 13.6661C18.4375 13.7032 18.4443 13.7429 18.4431 13.7827C18.4476 14.0602 18.5614 14.3248 18.76 14.5194C18.9587 14.714 19.2262 14.8231 19.5049 14.8231C19.7835 14.8231 20.051 14.714 20.2497 14.5194C20.4483 14.3248 20.5622 14.0602 20.5667 13.7827C20.5654 13.7429 20.5723 13.7032 20.5867 13.6661C20.6012 13.6289 20.623 13.595 20.6509 13.5664C20.6787 13.5378 20.7121 13.5151 20.7489 13.4996C20.7858 13.484 20.8254 13.476 20.8654 13.476C20.9054 13.476 20.945 13.484 20.9819 13.4996C21.0188 13.5151 21.0521 13.5378 21.08 13.5664C21.1078 13.595 21.1296 13.6289 21.1441 13.6661C21.1586 13.7032 21.1654 13.7429 21.1642 13.7827C21.1636 14.1689 21.0275 14.5427 20.7794 14.8395C20.5313 15.1362 20.1868 15.3373 19.8056 15.4078V17.4976H21.3281C21.3732 16.756 21.6214 16.0408 22.0458 15.4297L22.0525 15.4197L22.0592 15.4078C22.3325 15.0096 22.508 14.5531 22.5717 14.0749C22.6354 13.5968 22.5855 13.1105 22.4259 12.6551C22.2663 12.1997 22.0016 11.788 21.653 11.4531C21.3044 11.1182 20.8817 10.8696 20.4189 10.7271C19.9562 10.5847 19.4663 10.5525 18.9887 10.6331C18.5112 10.7137 18.0593 10.9048 17.6695 11.1911C17.2797 11.4774 16.9629 11.8509 16.7446 12.2814C16.5262 12.712 16.4125 13.1876 16.4125 13.6699L16.4119 13.669ZM10.7694 25.9506C13.7515 25.5881 16.7613 26.3562 19.2006 28.1024V21.3273C18.8673 21.2797 18.55 21.1547 18.2742 20.9625C17.9984 20.7703 17.7719 20.5163 17.6128 20.2209C17.4412 20.1673 17.2913 20.0606 17.1849 19.9163C17.0785 19.7721 17.0211 19.5977 17.0211 19.4187V17.7944C17.0211 17.7241 17.0461 17.6561 17.0917 17.6025C17.0677 16.9719 16.8695 16.3602 16.5189 15.8346C14.6998 15.0929 12.7182 14.8355 10.7689 15.0878L10.7694 25.9506ZM9.25695 28.0841C11.9452 27.2347 14.815 27.1309 17.5581 27.784C15.4011 26.6408 12.9315 26.2208 10.5158 26.5862C10.4733 26.5927 10.4298 26.59 10.3884 26.5782C10.347 26.5664 10.3087 26.5459 10.276 26.5179C10.2434 26.49 10.2172 26.4554 10.1992 26.4164C10.1812 26.3774 10.1719 26.3351 10.1719 26.2922V16.4902C9.86639 16.5096 9.56084 16.5394 9.25695 16.5798V28.0841ZM7.59862 30.2513C10.6497 28.9953 13.9157 28.3378 17.2172 28.3151C14.507 27.7094 11.6808 27.8693 9.05695 28.7767C9.01192 28.7923 8.96381 28.7969 8.91662 28.7902C8.86944 28.7835 8.82455 28.7656 8.7857 28.7381C8.74685 28.7106 8.71518 28.6743 8.69331 28.6321C8.67144 28.5899 8.66002 28.5432 8.66 28.4957V17.7513C8.30612 17.7745 7.95084 17.8096 7.59862 17.8575V30.2513ZM31.4014 17.8575C31.0494 17.8099 30.6942 17.7745 30.34 17.751V28.4965C30.3399 28.5438 30.3285 28.5904 30.3067 28.6325C30.2849 28.6745 30.2534 28.7107 30.2147 28.7382C30.176 28.7657 30.1314 28.7836 30.0844 28.7904C30.0374 28.7973 29.9894 28.7929 29.9444 28.7776C27.3206 27.8699 24.4944 27.71 21.7842 28.3159C25.0856 28.3387 28.3517 28.9961 31.4028 30.2522L31.4014 17.8575ZM19.5092 9.41061C19.5884 9.41061 19.6643 9.37928 19.7203 9.32352C19.7763 9.26775 19.8078 9.19212 19.8078 9.11326V7.30671C19.809 7.26688 19.8022 7.22721 19.7877 7.19005C19.7732 7.1529 19.7514 7.11901 19.7236 7.09041C19.6957 7.0618 19.6624 7.03906 19.6255 7.02353C19.5887 7.008 19.549 7 19.509 7C19.469 7 19.4294 7.008 19.3925 7.02353C19.3557 7.03906 19.3223 7.0618 19.2945 7.09041C19.2666 7.11901 19.2448 7.1529 19.2303 7.19005C19.2159 7.22721 19.2091 7.26688 19.2103 7.30671V9.11326C19.2103 9.15233 19.218 9.19102 19.233 9.22711C19.2481 9.26321 19.2701 9.296 19.2978 9.32362C19.3256 9.35123 19.3585 9.37313 19.3948 9.38806C19.4311 9.40298 19.4699 9.41065 19.5092 9.41061ZM16.7869 9.91709C16.8265 9.98557 16.8918 10.0356 16.9685 10.0561C17.0451 10.0767 17.1268 10.0661 17.1956 10.0266C17.2643 9.98719 17.3146 9.92217 17.3352 9.84586C17.3558 9.76956 17.3452 9.68821 17.3056 9.61973L16.3983 8.05522C16.3787 8.02138 16.3526 7.99172 16.3215 7.96793C16.2904 7.94414 16.2549 7.92669 16.217 7.91657C16.1791 7.90645 16.1396 7.90386 16.1007 7.90895C16.0618 7.91404 16.0243 7.92671 15.9903 7.94623C15.9563 7.96576 15.9265 7.99175 15.9026 8.02274C15.8787 8.05373 15.8612 8.0891 15.851 8.12683C15.8409 8.16456 15.8383 8.20392 15.8434 8.24265C15.8485 8.28139 15.8612 8.31874 15.8808 8.35257L16.7869 9.91709ZM13.5217 10.9165L15.0928 11.8199C15.1613 11.8572 15.2417 11.8663 15.3168 11.8453C15.392 11.8243 15.4559 11.7749 15.495 11.7076C15.534 11.6403 15.545 11.5604 15.5257 11.4851C15.5064 11.4098 15.4583 11.345 15.3917 11.3046L13.8206 10.4012C13.7865 10.3805 13.7487 10.3669 13.7093 10.361C13.6699 10.3551 13.6297 10.3571 13.5911 10.3669C13.5525 10.3767 13.5163 10.3941 13.4845 10.4181C13.4528 10.4421 13.4261 10.4721 13.4062 10.5065C13.3863 10.5408 13.3735 10.5788 13.3685 10.6182C13.3635 10.6575 13.3665 10.6975 13.3772 10.7357C13.388 10.7739 13.4063 10.8096 13.4311 10.8406C13.4559 10.8717 13.4867 10.8975 13.5217 10.9165ZM21.8217 10.0297C21.8556 10.0493 21.8931 10.0621 21.932 10.0672C21.9709 10.0724 22.0105 10.0698 22.0484 10.0597C22.0863 10.0496 22.1218 10.0322 22.1529 10.0084C22.1841 9.98454 22.2102 9.95484 22.2297 9.92096L23.1369 8.35645C23.1577 8.32257 23.1714 8.2849 23.1773 8.24566C23.1832 8.20643 23.1812 8.16641 23.1713 8.12797C23.1615 8.08953 23.144 8.05343 23.1199 8.02181C23.0959 7.99019 23.0657 7.96368 23.0312 7.94384C22.9967 7.92399 22.9586 7.91122 22.919 7.90627C22.8795 7.90131 22.8394 7.90428 22.801 7.91499C22.7626 7.9257 22.7268 7.94395 22.6956 7.96864C22.6645 7.99334 22.6386 8.024 22.6194 8.05881L21.7122 9.62333C21.6727 9.69167 21.662 9.77286 21.6825 9.84905C21.703 9.92525 21.7531 9.99021 21.8217 10.0297ZM23.7728 11.8672C23.8251 11.8672 23.8764 11.8535 23.9217 11.8274L25.4928 10.924C25.5268 10.9044 25.5567 10.8785 25.5807 10.8475C25.6046 10.8165 25.6222 10.7811 25.6324 10.7433C25.6427 10.7055 25.6453 10.6661 25.6403 10.6273C25.6352 10.5885 25.6225 10.5511 25.6029 10.5172C25.5833 10.4833 25.5572 10.4536 25.5261 10.4297C25.495 10.4058 25.4594 10.3883 25.4215 10.3781C25.3449 10.3575 25.2632 10.3681 25.1944 10.4075L23.6233 11.3109C23.5662 11.3436 23.5216 11.3942 23.4963 11.4548C23.4711 11.5153 23.4667 11.5825 23.4838 11.6459C23.5008 11.7092 23.5385 11.7651 23.5908 11.805C23.6431 11.8448 23.7072 11.8663 23.7731 11.8661L23.7728 11.8672Z" fill="#292D32"/>
</g>
</svg>
