<svg width="40" height="40" viewBox="0 0 40 40" fill="none" xmlns="http://www.w3.org/2000/svg">
<path d="M36.1 17.4001L34.4666 24.3668C33.0666 30.3834 30.3 32.8168 25.1 32.3168C24.2666 32.2501 23.3666 32.1001 22.4 31.8668L19.6 31.2001C12.65 29.5501 10.5 26.1168 12.1333 19.1501L13.7666 12.1668C14.1 10.7501 14.5 9.51676 15 8.50009C16.95 4.46676 20.2666 3.38343 25.8333 4.70009L28.6166 5.3501C35.6 6.98343 37.7333 10.4334 36.1 17.4001Z" stroke="#4785FF" stroke-width="2" stroke-linecap="round" stroke-linejoin="round"/>
<path d="M25.1001 32.3167C24.0667 33.0167 22.7667 33.6 21.1834 34.1167L18.5501 34.9833C11.9334 37.1167 8.45008 35.3333 6.30008 28.7167L4.16675 22.1333C2.03341 15.5167 3.80008 12.0167 10.4167 9.88333L13.0501 9.01667C13.7334 8.8 14.3834 8.61667 15.0001 8.5C14.5001 9.51667 14.1001 10.75 13.7667 12.1667L12.1334 19.15C10.5001 26.1167 12.6501 29.55 19.6001 31.2L22.4001 31.8667C23.3667 32.1 24.2667 32.25 25.1001 32.3167Z" stroke="#4785FF" stroke-width="2" stroke-linecap="round" stroke-linejoin="round"/>
<path d="M21.0667 14.2166L29.15 16.2666" stroke="#4785FF" stroke-width="2" stroke-linecap="round" stroke-linejoin="round"/>
<path d="M19.4333 20.6667L24.2667 21.9001" stroke="#4785FF" stroke-width="2" stroke-linecap="round" stroke-linejoin="round"/>
</svg>
