<svg width="13" height="12" viewBox="0 0 13 12" fill="none" xmlns="http://www.w3.org/2000/svg">
<path d="M7.45872 8.29565L5.62219 10.1322C5.62219 10.1322 5.62219 10.1323 5.62214 10.1323C5.62214 10.1323 5.62214 10.1323 5.6221 10.1323C4.86264 10.8918 3.62682 10.8919 2.86727 10.1323C2.49931 9.76436 2.29672 9.27515 2.29672 8.75486C2.29672 8.23462 2.49931 7.74549 2.86714 7.37753C2.86718 7.37749 2.86723 7.37745 2.86727 7.3774L4.70381 5.54082C4.95735 5.28724 4.95735 4.87608 4.70376 4.62253C4.45022 4.36899 4.03906 4.36899 3.78547 4.62253L1.94893 6.45911C1.9488 6.45924 1.94868 6.45942 1.94855 6.45955C1.33562 7.07269 0.998047 7.88787 0.998047 8.75486C0.998047 9.62207 1.33574 10.4374 1.94898 11.0506C2.58195 11.6835 3.41332 12 4.24473 12C5.07614 12 5.90755 11.6835 6.54043 11.0506V11.0506C6.54048 11.0506 6.54048 11.0505 6.54048 11.0505L8.37702 9.21394C8.63056 8.9604 8.63056 8.54924 8.37697 8.29565C8.12347 8.04211 7.71236 8.04211 7.45872 8.29565Z" fill="#9096B6"/>
<path d="M13.0009 3.24513C13.0009 2.37792 12.6632 1.56261 12.05 0.949378C10.7841 -0.316481 8.72432 -0.316438 7.4585 0.949378C7.45846 0.949465 7.45837 0.949508 7.45833 0.949595L5.62183 2.78605C5.36824 3.03959 5.36824 3.45079 5.62183 3.70434C5.74867 3.83118 5.91481 3.89455 6.081 3.89455C6.24714 3.89455 6.41337 3.83113 6.54012 3.70434L8.37662 1.86789C8.37666 1.8678 8.37675 1.86776 8.37683 1.86767C9.1363 1.10821 10.3721 1.10816 11.1317 1.86767C11.4996 2.23563 11.7023 2.72484 11.7023 3.24513C11.7023 3.76538 11.4997 4.2545 11.1318 4.62246C11.1318 4.6225 11.1317 4.62254 11.1317 4.62259L9.29513 6.45917C9.04158 6.71271 9.04158 7.12387 9.29517 7.37746C9.42196 7.50425 9.58815 7.56767 9.75429 7.56767C9.92048 7.56767 10.0867 7.50425 10.2135 7.37746L12.05 5.54088C12.0501 5.54075 12.0503 5.54057 12.0504 5.54044C12.6633 4.9273 13.0009 4.11212 13.0009 3.24513Z" fill="#9096B6"/>
<path d="M4.70386 8.29577C4.83066 8.42257 4.99684 8.48599 5.16299 8.48599C5.32917 8.48599 5.49536 8.42257 5.62215 8.29577L9.29532 4.62261C9.54891 4.36907 9.54891 3.95791 9.29532 3.70432C9.04177 3.45077 8.63061 3.45077 8.37703 3.70432L4.70386 7.37744C4.45028 7.63107 4.45028 8.04223 4.70386 8.29577Z" fill="#9096B6"/>
</svg>
