<svg width="16" height="13" viewBox="0 0 16 13" fill="none" xmlns="http://www.w3.org/2000/svg">
<path d="M4.00458 1.7621C3.86713 1.7621 3.73531 1.7075 3.63812 1.61031C3.54093 1.51311 3.48633 1.38129 3.48633 1.24384C3.48633 1.10639 3.54093 0.974572 3.63812 0.87738C3.73531 0.780188 3.86713 0.725586 4.00458 0.725586H14.8507C14.9881 0.725586 15.1199 0.780188 15.2171 0.87738C15.3143 0.974572 15.3689 1.10639 15.3689 1.24384C15.3689 1.38129 15.3143 1.51311 15.2171 1.61031C15.1199 1.7075 14.9881 1.7621 14.8507 1.7621H4.00458ZM4.00458 6.94467C3.86713 6.94467 3.73531 6.89007 3.63812 6.79287C3.54093 6.69568 3.48633 6.56386 3.48633 6.42641C3.48633 6.28896 3.54093 6.15714 3.63812 6.05995C3.73531 5.96276 3.86713 5.90815 4.00458 5.90815H14.8507C14.9881 5.90815 15.1199 5.96276 15.2171 6.05995C15.3143 6.15714 15.3689 6.28896 15.3689 6.42641C15.3689 6.56386 15.3143 6.69568 15.2171 6.79287C15.1199 6.89007 14.9881 6.94467 14.8507 6.94467H4.00458ZM4.00458 12.1272C3.86713 12.1272 3.73531 12.0726 3.63812 11.9754C3.54093 11.8783 3.48633 11.7464 3.48633 11.609C3.48633 11.4715 3.54093 11.3397 3.63812 11.2425C3.73531 11.1453 3.86713 11.0907 4.00458 11.0907H14.8507C14.9881 11.0907 15.1199 11.1453 15.2171 11.2425C15.3143 11.3397 15.3689 11.4715 15.3689 11.609C15.3689 11.7464 15.3143 11.8783 15.2171 11.9754C15.1199 12.0726 14.9881 12.1272 14.8507 12.1272H4.00458Z" fill="#545C7F"/>
<path d="M1.03651 2.07303C1.60896 2.07303 2.07303 1.60896 2.07303 1.03651C2.07303 0.464063 1.60896 0 1.03651 0C0.464063 0 0 0.464063 0 1.03651C0 1.60896 0.464063 2.07303 1.03651 2.07303Z" fill="#545C7F"/>
<path d="M1.03651 7.25564C1.60896 7.25564 2.07303 6.79158 2.07303 6.21913C2.07303 5.64668 1.60896 5.18262 1.03651 5.18262C0.464063 5.18262 0 5.64668 0 6.21913C0 6.79158 0.464063 7.25564 1.03651 7.25564Z" fill="#545C7F"/>
<path d="M1.03651 12.4383C1.60896 12.4383 2.07303 11.9742 2.07303 11.4017C2.07303 10.8293 1.60896 10.3652 1.03651 10.3652C0.464063 10.3652 0 10.8293 0 11.4017C0 11.9742 0.464063 12.4383 1.03651 12.4383Z" fill="#545C7F"/>
</svg>
