<svg xmlns="http://www.w3.org/2000/svg" width="10.759" height="13.565">
    <defs>
        <style>
            .cls-1{fill:#fff;stroke:#fff;stroke-width:.5px}
        </style>
    </defs>
    <g id="Group_10411" data-name="Group 10411" transform="translate(.25 .25)">
        <path id="Path_13885" data-name="Path 13885" class="cls-1" d="M39.316 25.3a2.116 2.116 0 1 0 2.116 2.116 2.12 2.12 0 0 0-2.116-2.116zm0 3.619a1.5 1.5 0 1 1 1.5-1.5 1.505 1.505 0 0 1-1.5 1.5z" transform="translate(-34.179 -22.402)"/>
        <path id="Path_13886" data-name="Path 13886" class="cls-1" d="M22.637 6.4a5.073 5.073 0 0 0-5.137 5.015 4.965 4.965 0 0 0 1.012 3.006l3.634 4.8a.617.617 0 0 0 .491.245.617.617 0 0 0 .491-.245l3.619-4.821a4.965 4.965 0 0 0 1.012-3 5.047 5.047 0 0 0-5.122-5zm3.619 7.652-3.619 4.8-3.619-4.815a4.309 4.309 0 0 1-.889-2.638 4.526 4.526 0 0 1 9.048 0 4.383 4.383 0 0 1-.921 2.653z" transform="translate(-17.5 -6.4)"/>
    </g>
</svg>
