<svg width="15" height="12" viewBox="0 0 15 12" fill="none" xmlns="http://www.w3.org/2000/svg">
															<path fill-rule="evenodd" clip-rule="evenodd" d="M3.81818 7.9354C4.15573 7.9354 4.47945 7.79717 4.71814 7.55112C4.95682 7.30507 5.09091 6.97136 5.09091 6.62339C5.09091 6.27543 4.95682 5.94171 4.71814 5.69567C4.47945 5.44962 4.15573 5.31139 3.81818 5.31139C3.48063 5.31139 3.15691 5.44962 2.91823 5.69567C2.67954 5.94171 2.54545 6.27543 2.54545 6.62339C2.54545 6.97136 2.67954 7.30507 2.91823 7.55112C3.15691 7.79717 3.48063 7.9354 3.81818 7.9354ZM6.02318 5.31139C5.77023 4.86032 5.3928 4.49705 4.93894 4.2678C4.48508 4.03855 3.97532 3.9537 3.47453 4.02404C2.97374 4.09438 2.50458 4.31674 2.12677 4.66281C1.74895 5.00888 1.47957 5.463 1.35291 5.96739H0.636364C0.467589 5.96739 0.305728 6.0365 0.186387 6.15953C0.0670452 6.28255 0 6.44941 0 6.62339C0 6.79737 0.0670452 6.96423 0.186387 7.08726C0.305728 7.21028 0.467589 7.27939 0.636364 7.27939H1.35291C1.50928 7.89636 1.87814 8.43356 2.39061 8.79069C2.90308 9.14782 3.52412 9.30047 4.13778 9.22013C4.75143 9.13979 5.31575 8.83196 5.72535 8.35411C6.13495 7.87626 6.36183 7.26106 6.36364 6.62339H7.63636C7.63575 7.26251 7.86143 7.87989 8.27106 8.35965C8.68068 8.83941 9.24607 9.14856 9.86112 9.22908C10.4762 9.30961 11.0986 9.15596 11.6115 8.79698C12.1245 8.43801 12.4927 7.89838 12.6471 7.27939H13.3636C13.5324 7.27939 13.6943 7.21028 13.8136 7.08726C13.933 6.96423 14 6.79737 14 6.62339C14 6.44941 13.933 6.28255 13.8136 6.15953C13.6943 6.0365 13.5324 5.96739 13.3636 5.96739H12.6471C12.5204 5.463 12.251 5.00888 11.8732 4.66281C11.4954 4.31674 11.0263 4.09438 10.5255 4.02404C10.0247 3.9537 9.51492 4.03855 9.06106 4.2678C8.6072 4.49705 8.22977 4.86032 7.97682 5.31139H6.02318ZM8.90909 6.62339C8.90909 6.97136 9.04318 7.30507 9.28186 7.55112C9.52055 7.79717 9.84427 7.9354 10.1818 7.9354C10.5194 7.9354 10.8431 7.79717 11.0818 7.55112C11.3205 7.30507 11.4545 6.97136 11.4545 6.62339C11.4545 6.27543 11.3205 5.94171 11.0818 5.69567C10.8431 5.44962 10.5194 5.31139 10.1818 5.31139C9.84427 5.31139 9.52055 5.44962 9.28186 5.69567C9.04318 5.94171 8.90909 6.27543 8.90909 6.62339Z" fill="#797B87"></path>
															<path d="M2.5 1.5L13.5 11" stroke="#797B87" stroke-width="1.3" stroke-linecap="round"></path>
														</svg>