<svg width="143" height="109" viewBox="0 0 143 109" fill="none" xmlns="http://www.w3.org/2000/svg">
<rect x="0.5" y="0.5" width="142" height="108" rx="4.5" fill="#F8F9FA" stroke="#DADCE0"/>
<rect x="10" y="10" width="27" height="18" rx="1" fill="#D9D9D9"/>
<rect x="42" y="10" width="27" height="18" rx="1" fill="#D9D9D9"/>
<rect x="74" y="10" width="27" height="18" rx="1" fill="#D9D9D9"/>
<rect x="106" y="10" width="27" height="18" rx="1" fill="#D9D9D9"/>
<rect x="10" y="33" width="27" height="19" rx="1" fill="#D9D9D9"/>
<rect x="42" y="33" width="27" height="19" rx="1" fill="#D9D9D9"/>
<rect x="74" y="33" width="27" height="19" rx="1" fill="#D9D9D9"/>
<rect x="106" y="33" width="27" height="19" rx="1" fill="#D9D9D9"/>
<rect x="10" y="57" width="27" height="18" rx="1" fill="#D9D9D9"/>
<rect x="42" y="57" width="27" height="18" rx="1" fill="#D9D9D9"/>
<rect x="74" y="57" width="27" height="18" rx="1" fill="#D9D9D9"/>
<rect x="106" y="57" width="27" height="18" rx="1" fill="#D9D9D9"/>
<rect x="10" y="80" width="27" height="19" rx="1" fill="#D9D9D9"/>
<rect x="42" y="80" width="27" height="19" rx="1" fill="#D9D9D9"/>
<rect x="74" y="80" width="27" height="19" rx="1" fill="#D9D9D9"/>
<rect x="106" y="80" width="27" height="19" rx="1" fill="#D9D9D9"/>
</svg>
