<svg width="247" height="247" viewBox="0 0 247 247" fill="none" xmlns="http://www.w3.org/2000/svg">
<circle cx="123.5" cy="123.5" r="123.5" fill="#EEF2FF" fill-opacity="0.52"/>
<rect x="147" y="81" width="66" height="85.8641" rx="3.20388" fill="white"/>
<circle cx="179.68" cy="102.145" r="10.2524" fill="#EAECF8"/>
<rect x="160.456" y="118.806" width="39.0874" height="3.84466" rx="1.92233" fill="#EAECF8"/>
<rect x="164.942" y="147.641" width="30.1165" height="7.68932" rx="3.84466" fill="#99A8FF"/>
<rect x="160.456" y="125.854" width="39.0874" height="3.84466" rx="1.92233" fill="#EAECF8"/>
<rect x="160.456" y="132.903" width="39.0874" height="1.92233" rx="0.961165" fill="#EAECF8" fill-opacity="0.5"/>
<rect x="160.456" y="138.029" width="39.0874" height="1.92233" rx="0.961165" fill="#EAECF8" fill-opacity="0.5"/>
<path d="M171.404 153V150.393H172.996V150.705H171.769V151.48H172.86V151.785H171.769V152.688H173.09V153H171.404ZM173.531 151.1C173.611 151.08 173.718 151.059 173.851 151.036C173.984 151.014 174.137 151.002 174.31 151.002C174.465 151.002 174.594 151.025 174.697 151.07C174.8 151.113 174.881 151.174 174.942 151.254C175.004 151.332 175.048 151.426 175.073 151.537C175.098 151.647 175.111 151.769 175.111 151.902V153H174.761V151.977C174.761 151.856 174.752 151.754 174.735 151.668C174.72 151.583 174.693 151.514 174.656 151.461C174.618 151.409 174.568 151.371 174.505 151.348C174.443 151.323 174.365 151.311 174.272 151.311C174.234 151.311 174.196 151.312 174.155 151.315C174.115 151.317 174.076 151.321 174.039 151.326C174.004 151.328 173.971 151.332 173.941 151.337C173.913 151.342 173.893 151.346 173.881 151.348V153H173.531V151.1ZM176.413 151.002C176.444 151.002 176.477 151.005 176.515 151.01C176.555 151.012 176.594 151.017 176.632 151.025C176.669 151.03 176.703 151.036 176.733 151.044C176.766 151.049 176.79 151.054 176.805 151.059L176.744 151.364C176.717 151.354 176.671 151.342 176.605 151.33C176.543 151.315 176.461 151.307 176.361 151.307C176.296 151.307 176.23 151.315 176.165 151.33C176.102 151.342 176.061 151.351 176.041 151.356V153H175.691V151.127C175.774 151.096 175.877 151.069 176 151.044C176.123 151.016 176.26 151.002 176.413 151.002ZM178.869 152.022C178.869 152.177 178.846 152.318 178.801 152.443C178.756 152.569 178.692 152.676 178.609 152.767C178.529 152.857 178.433 152.927 178.32 152.977C178.207 153.025 178.084 153.049 177.951 153.049C177.818 153.049 177.695 153.025 177.582 152.977C177.47 152.927 177.372 152.857 177.289 152.767C177.209 152.676 177.146 152.569 177.101 152.443C177.056 152.318 177.033 152.177 177.033 152.022C177.033 151.869 177.056 151.73 177.101 151.604C177.146 151.476 177.209 151.367 177.289 151.277C177.372 151.187 177.47 151.118 177.582 151.07C177.695 151.02 177.818 150.995 177.951 150.995C178.084 150.995 178.207 151.02 178.32 151.07C178.433 151.118 178.529 151.187 178.609 151.277C178.692 151.367 178.756 151.476 178.801 151.604C178.846 151.73 178.869 151.869 178.869 152.022ZM178.504 152.022C178.504 151.801 178.454 151.627 178.354 151.499C178.256 151.369 178.122 151.303 177.951 151.303C177.781 151.303 177.645 151.369 177.545 151.499C177.447 151.627 177.398 151.801 177.398 152.022C177.398 152.243 177.447 152.418 177.545 152.549C177.645 152.676 177.781 152.74 177.951 152.74C178.122 152.74 178.256 152.676 178.354 152.549C178.454 152.418 178.504 152.243 178.504 152.022ZM179.948 153.038C179.732 153.033 179.579 152.986 179.489 152.898C179.399 152.811 179.354 152.674 179.354 152.488V150.141L179.704 150.081V152.432C179.704 152.49 179.709 152.537 179.719 152.575C179.729 152.613 179.745 152.643 179.768 152.665C179.79 152.688 179.82 152.705 179.858 152.718C179.895 152.728 179.942 152.737 179.997 152.744L179.948 153.038ZM180.977 153.038C180.761 153.033 180.608 152.986 180.518 152.898C180.428 152.811 180.382 152.674 180.382 152.488V150.141L180.732 150.081V152.432C180.732 152.49 180.737 152.537 180.747 152.575C180.757 152.613 180.774 152.643 180.796 152.665C180.819 152.688 180.849 152.705 180.887 152.718C180.924 152.728 180.971 152.737 181.026 152.744L180.977 153.038ZM184.099 153C184.044 152.907 183.98 152.803 183.907 152.688C183.837 152.572 183.76 152.453 183.677 152.33C183.595 152.205 183.508 152.078 183.418 151.95C183.33 151.823 183.242 151.7 183.155 151.582C183.067 151.461 182.982 151.348 182.899 151.243C182.816 151.138 182.739 151.045 182.669 150.965V153H182.312V150.393H182.602C182.719 150.518 182.845 150.665 182.978 150.833C183.113 150.999 183.246 151.17 183.377 151.348C183.509 151.524 183.634 151.697 183.749 151.868C183.867 152.038 183.966 152.19 184.046 152.323V150.393H184.404V153H184.099ZM186.753 152.022C186.753 152.177 186.73 152.318 186.685 152.443C186.64 152.569 186.576 152.676 186.493 152.767C186.413 152.857 186.317 152.927 186.204 152.977C186.091 153.025 185.968 153.049 185.835 153.049C185.702 153.049 185.579 153.025 185.466 152.977C185.354 152.927 185.256 152.857 185.173 152.767C185.093 152.676 185.03 152.569 184.985 152.443C184.94 152.318 184.917 152.177 184.917 152.022C184.917 151.869 184.94 151.73 184.985 151.604C185.03 151.476 185.093 151.367 185.173 151.277C185.256 151.187 185.354 151.118 185.466 151.07C185.579 151.02 185.702 150.995 185.835 150.995C185.968 150.995 186.091 151.02 186.204 151.07C186.317 151.118 186.413 151.187 186.493 151.277C186.576 151.367 186.64 151.476 186.685 151.604C186.73 151.73 186.753 151.869 186.753 152.022ZM186.388 152.022C186.388 151.801 186.338 151.627 186.238 151.499C186.14 151.369 186.006 151.303 185.835 151.303C185.665 151.303 185.529 151.369 185.429 151.499C185.331 151.627 185.282 151.801 185.282 152.022C185.282 152.243 185.331 152.418 185.429 152.549C185.529 152.676 185.665 152.74 185.835 152.74C186.006 152.74 186.14 152.676 186.238 152.549C186.338 152.418 186.388 152.243 186.388 152.022ZM188.796 153C188.726 152.819 188.651 152.614 188.571 152.383C188.493 152.15 188.421 151.908 188.356 151.657C188.291 151.908 188.22 152.15 188.142 152.383C188.064 152.614 187.99 152.819 187.92 153H187.615C187.5 152.742 187.387 152.447 187.277 152.116C187.166 151.785 187.062 151.427 186.964 151.044H187.34C187.366 151.162 187.396 151.29 187.431 151.427C187.466 151.565 187.502 151.703 187.54 151.841C187.58 151.979 187.621 152.112 187.664 152.24C187.707 152.368 187.747 152.48 187.784 152.575C187.827 152.457 187.868 152.333 187.909 152.202C187.951 152.07 187.991 151.937 188.029 151.804C188.067 151.668 188.102 151.537 188.134 151.409C188.169 151.278 188.199 151.157 188.225 151.044H188.514C188.537 151.157 188.564 151.278 188.597 151.409C188.63 151.537 188.665 151.668 188.702 151.804C188.74 151.937 188.779 152.07 188.819 152.202C188.862 152.333 188.904 152.457 188.947 152.575C188.984 152.48 189.023 152.368 189.063 152.24C189.106 152.112 189.147 151.979 189.188 151.841C189.228 151.703 189.265 151.565 189.3 151.427C189.336 151.29 189.366 151.162 189.391 151.044H189.752C189.654 151.427 189.55 151.785 189.44 152.116C189.329 152.447 189.216 152.742 189.101 153H188.796Z" fill="white"/>
<rect x="34" y="81" width="66" height="85.8641" rx="3.20388" fill="white"/>
<circle cx="66.6797" cy="102.145" r="10.2524" fill="#EAECF8"/>
<rect x="47.4563" y="118.806" width="39.0874" height="3.84466" rx="1.92233" fill="#EAECF8"/>
<rect x="51.9418" y="147.641" width="30.1165" height="7.68932" rx="3.84466" fill="#99A8FF"/>
<rect x="47.4563" y="125.854" width="39.0874" height="3.84466" rx="1.92233" fill="#EAECF8"/>
<rect x="47.4563" y="132.903" width="39.0874" height="1.92233" rx="0.961165" fill="#EAECF8" fill-opacity="0.5"/>
<rect x="47.4563" y="138.029" width="39.0874" height="1.92233" rx="0.961165" fill="#EAECF8" fill-opacity="0.5"/>
<path d="M58.4043 153V150.393H59.9957V150.705H58.7693V151.48H59.8602V151.785H58.7693V152.688H60.0897V153H58.4043ZM60.5309 151.1C60.6112 151.08 60.7178 151.059 60.8507 151.036C60.9836 151.014 61.1366 151.002 61.3097 151.002C61.4652 151.002 61.5943 151.025 61.6972 151.07C61.8 151.113 61.8815 151.174 61.9417 151.254C62.0044 151.332 62.0483 151.426 62.0734 151.537C62.0984 151.647 62.111 151.769 62.111 151.902V153H61.7611V151.977C61.7611 151.856 61.7523 151.754 61.7348 151.668C61.7197 151.583 61.6934 151.514 61.6558 151.461C61.6182 151.409 61.568 151.371 61.5053 151.348C61.4426 151.323 61.3649 151.311 61.2721 151.311C61.2344 151.311 61.1956 151.312 61.1554 151.315C61.1153 151.317 61.0764 151.321 61.0388 151.326C61.0037 151.328 60.9711 151.332 60.941 151.337C60.9134 151.342 60.8934 151.346 60.8808 151.348V153H60.5309V151.1ZM63.4134 151.002C63.4435 151.002 63.4774 151.005 63.515 151.01C63.5551 151.012 63.594 151.017 63.6316 151.025C63.6693 151.03 63.7031 151.036 63.7332 151.044C63.7658 151.049 63.7896 151.054 63.8047 151.059L63.7445 151.364C63.7169 151.354 63.6705 151.342 63.6053 151.33C63.5426 151.315 63.4611 151.307 63.3608 151.307C63.2956 151.307 63.2304 151.315 63.1652 151.33C63.1025 151.342 63.0611 151.351 63.041 151.356V153H62.6911V151.127C62.7739 151.096 62.8767 151.069 62.9996 151.044C63.1225 151.016 63.2605 151.002 63.4134 151.002ZM65.869 152.022C65.869 152.177 65.8465 152.318 65.8013 152.443C65.7562 152.569 65.6922 152.676 65.6095 152.767C65.5292 152.857 65.4327 152.927 65.3198 152.977C65.2069 153.025 65.084 153.049 64.9511 153.049C64.8182 153.049 64.6953 153.025 64.5825 152.977C64.4696 152.927 64.3718 152.857 64.289 152.767C64.2088 152.676 64.1461 152.569 64.1009 152.443C64.0558 152.318 64.0332 152.177 64.0332 152.022C64.0332 151.869 64.0558 151.73 64.1009 151.604C64.1461 151.476 64.2088 151.367 64.289 151.277C64.3718 151.187 64.4696 151.118 64.5825 151.07C64.6953 151.02 64.8182 150.995 64.9511 150.995C65.084 150.995 65.2069 151.02 65.3198 151.07C65.4327 151.118 65.5292 151.187 65.6095 151.277C65.6922 151.367 65.7562 151.476 65.8013 151.604C65.8465 151.73 65.869 151.869 65.869 152.022ZM65.5041 152.022C65.5041 151.801 65.454 151.627 65.3537 151.499C65.2558 151.369 65.1217 151.303 64.9511 151.303C64.7806 151.303 64.6452 151.369 64.5448 151.499C64.447 151.627 64.3981 151.801 64.3981 152.022C64.3981 152.243 64.447 152.418 64.5448 152.549C64.6452 152.676 64.7806 152.74 64.9511 152.74C65.1217 152.74 65.2558 152.676 65.3537 152.549C65.454 152.418 65.5041 152.243 65.5041 152.022ZM66.9481 153.038C66.7325 153.033 66.5795 152.986 66.4892 152.898C66.3989 152.811 66.3538 152.674 66.3538 152.488V150.141L66.7036 150.081V152.432C66.7036 152.49 66.7086 152.537 66.7187 152.575C66.7287 152.613 66.745 152.643 66.7676 152.665C66.7901 152.688 66.8202 152.705 66.8579 152.718C66.8955 152.728 66.9419 152.737 66.9971 152.744L66.9481 153.038ZM67.9768 153.038C67.7611 153.033 67.6081 152.986 67.5179 152.898C67.4276 152.811 67.3824 152.674 67.3824 152.488V150.141L67.7323 150.081V152.432C67.7323 152.49 67.7373 152.537 67.7473 152.575C67.7574 152.613 67.7737 152.643 67.7962 152.665C67.8188 152.688 67.8489 152.705 67.8865 152.718C67.9241 152.728 67.9705 152.737 68.0257 152.744L67.9768 153.038ZM71.0988 153C71.0436 152.907 70.9797 152.803 70.907 152.688C70.8367 152.572 70.7602 152.453 70.6775 152.33C70.5947 152.205 70.5082 152.078 70.4179 151.95C70.3301 151.823 70.2423 151.7 70.1546 151.582C70.0668 151.461 69.9815 151.348 69.8987 151.243C69.816 151.138 69.7395 151.045 69.6693 150.965V153H69.3119V150.393H69.6015C69.7194 150.518 69.8448 150.665 69.9777 150.833C70.1132 150.999 70.2461 151.17 70.3765 151.348C70.5094 151.524 70.6336 151.697 70.749 151.868C70.8668 152.038 70.9659 152.19 71.0461 152.323V150.393H71.4035V153H71.0988ZM73.753 152.022C73.753 152.177 73.7305 152.318 73.6853 152.443C73.6402 152.569 73.5762 152.676 73.4935 152.767C73.4132 152.857 73.3166 152.927 73.2038 152.977C73.0909 153.025 72.968 153.049 72.8351 153.049C72.7022 153.049 72.5793 153.025 72.4664 152.977C72.3536 152.927 72.2558 152.857 72.173 152.767C72.0928 152.676 72.0301 152.569 71.9849 152.443C71.9398 152.318 71.9172 152.177 71.9172 152.022C71.9172 151.869 71.9398 151.73 71.9849 151.604C72.0301 151.476 72.0928 151.367 72.173 151.277C72.2558 151.187 72.3536 151.118 72.4664 151.07C72.5793 151.02 72.7022 150.995 72.8351 150.995C72.968 150.995 73.0909 151.02 73.2038 151.07C73.3166 151.118 73.4132 151.187 73.4935 151.277C73.5762 151.367 73.6402 151.476 73.6853 151.604C73.7305 151.73 73.753 151.869 73.753 152.022ZM73.3881 152.022C73.3881 151.801 73.338 151.627 73.2376 151.499C73.1398 151.369 73.0057 151.303 72.8351 151.303C72.6646 151.303 72.5291 151.369 72.4288 151.499C72.331 151.627 72.2821 151.801 72.2821 152.022C72.2821 152.243 72.331 152.418 72.4288 152.549C72.5291 152.676 72.6646 152.74 72.8351 152.74C73.0057 152.74 73.1398 152.676 73.2376 152.549C73.338 152.418 73.3881 152.243 73.3881 152.022ZM75.7964 153C75.7261 152.819 75.6509 152.614 75.5706 152.383C75.4929 152.15 75.4214 151.908 75.3562 151.657C75.291 151.908 75.2195 152.15 75.1418 152.383C75.064 152.614 74.99 152.819 74.9198 153H74.6151C74.4997 152.742 74.3869 152.447 74.2765 152.116C74.1662 151.785 74.0621 151.427 73.9643 151.044H74.3405C74.3655 151.162 74.3956 151.29 74.4308 151.427C74.4659 151.565 74.5022 151.703 74.5399 151.841C74.58 151.979 74.6214 152.112 74.664 152.24C74.7066 152.368 74.7468 152.48 74.7844 152.575C74.827 152.457 74.8684 152.333 74.9085 152.202C74.9512 152.07 74.9913 151.937 75.0289 151.804C75.0665 151.668 75.1016 151.537 75.1342 151.409C75.1694 151.278 75.1995 151.157 75.2245 151.044H75.5142C75.5368 151.157 75.5644 151.278 75.597 151.409C75.6296 151.537 75.6647 151.668 75.7023 151.804C75.7399 151.937 75.7788 152.07 75.8189 152.202C75.8616 152.333 75.9042 152.457 75.9468 152.575C75.9845 152.48 76.0233 152.368 76.0635 152.24C76.1061 152.112 76.1475 151.979 76.1876 151.841C76.2277 151.703 76.2653 151.565 76.3005 151.427C76.3356 151.29 76.3657 151.162 76.3907 151.044H76.7519C76.6541 151.427 76.55 151.785 76.4397 152.116C76.3293 152.447 76.2164 152.742 76.1011 153H75.7964Z" fill="white"/>
<g filter="url(#filter0_d_69_5774)">
<rect x="72" y="57" width="103" height="134" rx="5" fill="white"/>
<circle cx="123" cy="90" r="16" fill="#EAECF8"/>
<rect x="93" y="116" width="61" height="6" rx="3" fill="#EAECF8"/>
<rect x="100" y="161" width="47" height="12" rx="6" fill="#99A8FF"/>
<rect x="93" y="127" width="61" height="6" rx="3" fill="#EAECF8"/>
<rect x="93" y="138" width="61" height="3" rx="1.5" fill="#EAECF8" fill-opacity="0.5"/>
<rect x="93" y="146" width="61" height="3" rx="1.5" fill="#EAECF8" fill-opacity="0.5"/>
<path d="M110.086 169V164.931H112.569V165.419H110.655V166.628H112.358V167.104H110.655V168.513H112.716V169H110.086ZM113.404 166.035C113.53 166.004 113.696 165.971 113.903 165.935C114.111 165.9 114.35 165.883 114.62 165.883C114.862 165.883 115.064 165.918 115.224 165.988C115.385 166.055 115.512 166.151 115.606 166.276C115.704 166.397 115.772 166.544 115.811 166.716C115.851 166.888 115.87 167.078 115.87 167.286V169H115.324V167.403C115.324 167.215 115.31 167.055 115.283 166.922C115.26 166.789 115.219 166.681 115.16 166.599C115.101 166.517 115.023 166.458 114.925 166.423C114.827 166.384 114.706 166.364 114.561 166.364C114.502 166.364 114.442 166.366 114.379 166.37C114.316 166.374 114.256 166.38 114.197 166.387C114.142 166.391 114.091 166.397 114.044 166.405C114.001 166.413 113.97 166.419 113.95 166.423V169H113.404V166.035ZM117.903 165.883C117.95 165.883 118.003 165.886 118.061 165.894C118.124 165.898 118.185 165.906 118.243 165.918C118.302 165.926 118.355 165.935 118.402 165.947C118.453 165.955 118.49 165.963 118.513 165.971L118.419 166.446C118.376 166.43 118.304 166.413 118.202 166.393C118.104 166.37 117.977 166.358 117.821 166.358C117.719 166.358 117.617 166.37 117.515 166.393C117.417 166.413 117.353 166.427 117.322 166.434V169H116.776V166.076C116.905 166.029 117.065 165.986 117.257 165.947C117.449 165.904 117.664 165.883 117.903 165.883ZM121.735 167.474C121.735 167.716 121.7 167.935 121.629 168.131C121.559 168.327 121.459 168.495 121.33 168.636C121.205 168.777 121.054 168.886 120.878 168.965C120.702 169.039 120.51 169.076 120.303 169.076C120.095 169.076 119.903 169.039 119.727 168.965C119.551 168.886 119.398 168.777 119.269 168.636C119.144 168.495 119.046 168.327 118.976 168.131C118.905 167.935 118.87 167.716 118.87 167.474C118.87 167.235 118.905 167.018 118.976 166.822C119.046 166.622 119.144 166.452 119.269 166.311C119.398 166.17 119.551 166.063 119.727 165.988C119.903 165.91 120.095 165.871 120.303 165.871C120.51 165.871 120.702 165.91 120.878 165.988C121.054 166.063 121.205 166.17 121.33 166.311C121.459 166.452 121.559 166.622 121.629 166.822C121.7 167.018 121.735 167.235 121.735 167.474ZM121.166 167.474C121.166 167.129 121.087 166.857 120.931 166.657C120.778 166.454 120.569 166.352 120.303 166.352C120.036 166.352 119.825 166.454 119.668 166.657C119.516 166.857 119.44 167.129 119.44 167.474C119.44 167.818 119.516 168.092 119.668 168.295C119.825 168.495 120.036 168.595 120.303 168.595C120.569 168.595 120.778 168.495 120.931 168.295C121.087 168.092 121.166 167.818 121.166 167.474ZM123.419 169.059C123.083 169.051 122.844 168.978 122.703 168.841C122.562 168.704 122.491 168.491 122.491 168.202V164.538L123.037 164.444V168.113C123.037 168.204 123.045 168.278 123.061 168.337C123.077 168.395 123.102 168.442 123.137 168.477C123.173 168.513 123.219 168.54 123.278 168.56C123.337 168.575 123.409 168.589 123.495 168.601L123.419 169.059ZM125.024 169.059C124.688 169.051 124.449 168.978 124.308 168.841C124.167 168.704 124.097 168.491 124.097 168.202V164.538L124.643 164.444V168.113C124.643 168.204 124.651 168.278 124.666 168.337C124.682 168.395 124.707 168.442 124.743 168.477C124.778 168.513 124.825 168.54 124.884 168.56C124.942 168.575 125.015 168.589 125.101 168.601L125.024 169.059ZM129.897 169C129.811 168.855 129.711 168.693 129.597 168.513C129.488 168.333 129.368 168.147 129.239 167.955C129.11 167.759 128.975 167.562 128.834 167.362C128.697 167.162 128.56 166.971 128.423 166.787C128.286 166.599 128.153 166.423 128.024 166.258C127.895 166.094 127.775 165.949 127.666 165.824V169H127.108V164.931H127.56C127.744 165.127 127.94 165.356 128.147 165.618C128.358 165.877 128.566 166.145 128.769 166.423C128.977 166.697 129.171 166.967 129.351 167.233C129.535 167.499 129.689 167.736 129.814 167.943V164.931H130.372V169H129.897ZM134.039 167.474C134.039 167.716 134.004 167.935 133.933 168.131C133.863 168.327 133.763 168.495 133.634 168.636C133.509 168.777 133.358 168.886 133.182 168.965C133.006 169.039 132.814 169.076 132.606 169.076C132.399 169.076 132.207 169.039 132.031 168.965C131.855 168.886 131.702 168.777 131.573 168.636C131.448 168.495 131.35 168.327 131.28 168.131C131.209 167.935 131.174 167.716 131.174 167.474C131.174 167.235 131.209 167.018 131.28 166.822C131.35 166.622 131.448 166.452 131.573 166.311C131.702 166.17 131.855 166.063 132.031 165.988C132.207 165.91 132.399 165.871 132.606 165.871C132.814 165.871 133.006 165.91 133.182 165.988C133.358 166.063 133.509 166.17 133.634 166.311C133.763 166.452 133.863 166.622 133.933 166.822C134.004 167.018 134.039 167.235 134.039 167.474ZM133.469 167.474C133.469 167.129 133.391 166.857 133.235 166.657C133.082 166.454 132.872 166.352 132.606 166.352C132.34 166.352 132.129 166.454 131.972 166.657C131.82 166.857 131.743 167.129 131.743 167.474C131.743 167.818 131.82 168.092 131.972 168.295C132.129 168.495 132.34 168.595 132.606 168.595C132.872 168.595 133.082 168.495 133.235 168.295C133.391 168.092 133.469 167.818 133.469 167.474ZM137.228 169C137.118 168.718 137.001 168.397 136.875 168.037C136.754 167.673 136.643 167.295 136.541 166.904C136.439 167.295 136.327 167.673 136.206 168.037C136.085 168.397 135.969 168.718 135.86 169H135.384C135.204 168.597 135.028 168.137 134.856 167.62C134.684 167.104 134.521 166.546 134.369 165.947H134.956C134.995 166.131 135.042 166.331 135.097 166.546C135.151 166.761 135.208 166.976 135.267 167.192C135.329 167.407 135.394 167.614 135.461 167.814C135.527 168.014 135.59 168.188 135.648 168.337C135.715 168.153 135.779 167.959 135.842 167.755C135.909 167.548 135.971 167.34 136.03 167.133C136.089 166.922 136.143 166.716 136.194 166.517C136.249 166.313 136.296 166.123 136.335 165.947H136.787C136.823 166.123 136.866 166.313 136.917 166.517C136.967 166.716 137.022 166.922 137.081 167.133C137.14 167.34 137.2 167.548 137.263 167.755C137.329 167.959 137.396 168.153 137.463 168.337C137.521 168.188 137.582 168.014 137.645 167.814C137.711 167.614 137.776 167.407 137.838 167.192C137.901 166.976 137.96 166.761 138.014 166.546C138.069 166.331 138.116 166.131 138.155 165.947H138.719C138.566 166.546 138.404 167.104 138.232 167.62C138.059 168.137 137.883 168.597 137.703 169H137.228Z" fill="white"/>
</g>
<path d="M41 191H206" stroke="#EDEEF0"/>
<g filter="url(#filter1_d_69_5774)">
<rect x="175" y="9" width="38" height="38" rx="7" fill="white"/>
</g>
<path d="M202 26C202 21.58 198.42 18 194 18C189.58 18 186 21.58 186 26C186 28.03 186.76 29.87 188 31.28V39L194 37L200 39V31.28C201.289 29.8235 202.001 27.9453 202 26ZM194 20C197.31 20 200 22.69 200 26C200 29.31 197.31 32 194 32C190.69 32 188 29.31 188 26C188 22.69 190.69 20 194 20Z" fill="#9FCEFF"/>
<path d="M194 22L193 25H190L192.667 26.6667L190.667 30L194 28L197.333 30L195.333 26.6667L198 25H195L194 22Z" fill="#3698FF"/>
<circle cx="75" cy="62" r="16" fill="#99A8FF"/>
<path d="M77.625 56.4925C77.2185 55.708 76.428 55 75 55C72.6 55 72 57.0003 72 58V60.25" stroke="white" stroke-width="2" stroke-linecap="round" stroke-linejoin="round"/>
<path fill-rule="evenodd" clip-rule="evenodd" d="M69 61.75C69 61.1533 69.2371 60.581 69.659 60.159C70.081 59.7371 70.6533 59.5 71.25 59.5H78.75C79.3467 59.5 79.919 59.7371 80.341 60.159C80.7629 60.581 81 61.1533 81 61.75V67C81 67.5967 80.7629 68.169 80.341 68.591C79.919 69.0129 79.3467 69.25 78.75 69.25H71.25C70.6533 69.25 70.081 69.0129 69.659 68.591C69.2371 68.169 69 67.5967 69 67V61.75ZM75.75 63.25C75.75 63.0511 75.671 62.8603 75.5303 62.7197C75.3897 62.579 75.1989 62.5 75 62.5C74.8011 62.5 74.6103 62.579 74.4697 62.7197C74.329 62.8603 74.25 63.0511 74.25 63.25V65.5C74.25 65.6989 74.329 65.8897 74.4697 66.0303C74.6103 66.171 74.8011 66.25 75 66.25C75.1989 66.25 75.3897 66.171 75.5303 66.0303C75.671 65.8897 75.75 65.6989 75.75 65.5V63.25Z" fill="white"/>
<defs>
<filter id="filter0_d_69_5774" x="64" y="50" width="119" height="150" filterUnits="userSpaceOnUse" color-interpolation-filters="sRGB">
<feFlood flood-opacity="0" result="BackgroundImageFix"/>
<feColorMatrix in="SourceAlpha" type="matrix" values="0 0 0 0 0 0 0 0 0 0 0 0 0 0 0 0 0 0 127 0" result="hardAlpha"/>
<feOffset dy="1"/>
<feGaussianBlur stdDeviation="4"/>
<feComposite in2="hardAlpha" operator="out"/>
<feColorMatrix type="matrix" values="0 0 0 0 0.838536 0 0 0 0 0.856792 0 0 0 0 0.975456 0 0 0 0.39 0"/>
<feBlend mode="normal" in2="BackgroundImageFix" result="effect1_dropShadow_69_5774"/>
<feBlend mode="normal" in="SourceGraphic" in2="effect1_dropShadow_69_5774" result="shape"/>
</filter>
<filter id="filter1_d_69_5774" x="169" y="5" width="50" height="50" filterUnits="userSpaceOnUse" color-interpolation-filters="sRGB">
<feFlood flood-opacity="0" result="BackgroundImageFix"/>
<feColorMatrix in="SourceAlpha" type="matrix" values="0 0 0 0 0 0 0 0 0 0 0 0 0 0 0 0 0 0 127 0" result="hardAlpha"/>
<feOffset dy="2"/>
<feGaussianBlur stdDeviation="3"/>
<feComposite in2="hardAlpha" operator="out"/>
<feColorMatrix type="matrix" values="0 0 0 0 0.8 0 0 0 0 0.831373 0 0 0 0 0.898039 0 0 0 0.28 0"/>
<feBlend mode="normal" in2="BackgroundImageFix" result="effect1_dropShadow_69_5774"/>
<feBlend mode="normal" in="SourceGraphic" in2="effect1_dropShadow_69_5774" result="shape"/>
</filter>
</defs>
</svg>
