<svg width="22" height="20" viewBox="0 0 22 20" fill="none" xmlns="http://www.w3.org/2000/svg">
<path d="M18.7 4.44444H15.4V2.77778C15.4 2.04107 15.1103 1.33453 14.5945 0.813592C14.0788 0.292658 13.3793 0 12.65 0H9.35C8.62066 0 7.92118 0.292658 7.40546 0.813592C6.88973 1.33453 6.6 2.04107 6.6 2.77778V4.44444H3.3C2.42479 4.44444 1.58542 4.79563 0.966548 5.42076C0.347678 6.04588 0 6.89372 0 7.77778V16.6667C0 17.5507 0.347678 18.3986 0.966548 19.0237C1.58542 19.6488 2.42479 20 3.3 20H18.7C19.5752 20 20.4146 19.6488 21.0335 19.0237C21.6523 18.3986 22 17.5507 22 16.6667V7.77778C22 6.89372 21.6523 6.04588 21.0335 5.42076C20.4146 4.79563 19.5752 4.44444 18.7 4.44444ZM14.3 6.66667V17.7778H7.7V6.66667H14.3ZM8.8 2.77778C8.8 2.63044 8.85795 2.48913 8.96109 2.38494C9.06424 2.28075 9.20413 2.22222 9.35 2.22222H12.65C12.7959 2.22222 12.9358 2.28075 13.0389 2.38494C13.1421 2.48913 13.2 2.63044 13.2 2.77778V4.44444H8.8V2.77778ZM2.2 16.6667V7.77778C2.2 7.48309 2.31589 7.20048 2.52218 6.9921C2.72847 6.78373 3.00826 6.66667 3.3 6.66667H5.5V17.7778H3.3C3.00826 17.7778 2.72847 17.6607 2.52218 17.4523C2.31589 17.244 2.2 16.9614 2.2 16.6667ZM19.8 16.6667C19.8 16.9614 19.6841 17.244 19.4778 17.4523C19.2715 17.6607 18.9917 17.7778 18.7 17.7778H16.5V6.66667H18.7C18.9917 6.66667 19.2715 6.78373 19.4778 6.9921C19.6841 7.20048 19.8 7.48309 19.8 7.77778V16.6667Z" fill="#3698FF"/>
</svg>
