<svg width="16" height="21" viewBox="0 0 16 21" fill="none" xmlns="http://www.w3.org/2000/svg">
<path d="M8.00097 9.73199C10.1913 9.73199 11.967 7.95635 11.967 5.76599C11.967 3.57563 10.1913 1.79999 8.00097 1.79999C5.81061 1.79999 4.03497 3.57563 4.03497 5.76599C4.03497 7.95635 5.81061 9.73199 8.00097 9.73199Z" stroke="#3698FF" stroke-width="2" stroke-linecap="round" stroke-linejoin="round"/>
<path d="M8.0005 13C6.14385 13 4.36325 13.5823 3.0504 14.6187C1.73755 15.6552 1 17.0609 1 18.5267C1 18.9175 1.19661 19.2922 1.54657 19.5685C1.89654 19.8448 2.3712 20 2.86613 20H13.1329C13.378 20.0001 13.6208 19.9621 13.8473 19.8881C14.0738 19.8141 14.2797 19.7056 14.4531 19.5688C14.6265 19.4319 14.764 19.2695 14.8579 19.0907C14.9517 18.9119 15 18.7203 15 18.5267C15 17.0611 14.2626 15.6554 12.95 14.619C11.6373 13.5826 9.85698 13.0002 8.0005 13V13Z" stroke="#3698FF" stroke-width="2" stroke-linecap="round" stroke-linejoin="round"/>
</svg>
