<svg width="18" height="21" viewBox="0 0 18 21" fill="none" xmlns="http://www.w3.org/2000/svg">
<path d="M9 21C9 20.398 8.99135 19.7914 9.00433 19.1893C9.00865 18.963 8.9351 18.9132 8.73173 18.9132C6.58125 18.9177 4.4351 18.9177 2.28461 18.9177C1.99038 18.9177 1.99039 18.9177 1.99039 18.6054C1.99039 18.4334 1.99904 18.2568 1.98606 18.0848C1.97308 17.9038 2.06394 17.8721 2.21106 17.8721C2.80385 17.8766 3.39231 17.8721 3.9851 17.8721C4.58221 17.8721 5.18365 17.8675 5.78077 17.8766C5.95817 17.8811 6.01875 17.8223 6.01875 17.6322C6.01442 14.9976 6.01442 12.3676 6.01875 9.73312C6.01875 9.53848 5.94952 9.49321 5.77644 9.49321C4.60817 9.49774 3.4399 9.49321 2.27163 9.50226C2.05961 9.50226 1.9774 9.457 1.98606 9.21708C2.00336 8.55166 1.97308 9.89077 1.99471 9.22535C2.03798 7.93072 2.3625 6.71305 3.02019 5.60854C3.89423 4.13737 5.10577 3.08719 6.66779 2.50325C7.23029 2.29502 7.81442 2.17733 8.41586 2.11848C9.35913 2.02342 10.2678 2.15469 11.1591 2.4444C12.1154 2.75221 12.9591 3.28183 13.699 3.98347C14.3913 4.63983 14.9495 5.39579 15.3389 6.28754C15.6894 7.08876 15.9101 7.92167 15.975 8.80437C16.0356 9.61917 15.9837 8.42944 16.0139 9.24424C16.0226 9.44794 15.9534 9.50226 15.7673 9.49774C14.599 9.48868 13.4308 9.49774 12.2625 9.48868C12.0418 9.48868 11.9812 9.55206 11.9812 9.78292C11.9899 12.3858 11.9899 14.9886 11.9812 17.5914C11.9812 17.8042 12.0375 17.8766 12.2495 17.8766C13.1495 17.8675 14.0538 17.8857 14.9538 17.8675C16.2692 17.8449 17.4418 17.0392 17.8572 15.6902C17.8918 15.5861 17.8659 15.4413 18 15.3824C18 12.3495 18 9.31667 18 8.2838C17.9438 8.27022 17.9221 8.22948 17.9135 8.17064C17.8096 7.27436 17.563 6.41882 17.2212 5.59044C16.7712 4.49498 16.1178 3.54438 15.3173 2.70695C14.8413 2.20901 14.3048 1.76993 13.725 1.40327C12.6303 0.710687 11.462 0.25802 10.1899 0.0905334C10.125 0.08148 10.0558 0.0860067 10.0385 0C9.34615 0 8.65385 0 7.96154 0C7.94423 0.0724267 7.89231 0.0860067 7.8274 0.0905334C7.45096 0.113167 7.0875 0.2037 6.72836 0.303287C4.7899 0.846487 3.18029 1.93741 1.93414 3.58059C0.912982 4.93859 0.285577 6.47766 0.0865383 8.1978C0.0778845 8.26117 0.0692308 8.31549 0 8.3336C0 10.394 0 14.4499 0 18.5103C0.0951923 18.5284 0.0865388 18.619 0.108173 18.6869C0.432693 19.814 1.13365 20.5519 2.21106 20.8868C2.27596 20.9049 2.3625 20.9004 2.37981 21C4.58654 21 6.79327 21 9 21ZM3.9851 13.6804C3.9851 14.3141 3.98077 14.9478 3.98942 15.5816C3.98942 15.7129 3.96779 15.7626 3.825 15.7626C3.27548 15.7536 2.73029 15.7536 2.18077 15.7626C2.03365 15.7672 2.00336 15.7129 2.00336 15.568C2.00769 14.3096 2.00769 13.0512 2.00336 11.7928C2.00336 11.6479 2.03365 11.5936 2.1851 11.5981C2.72596 11.6072 3.26683 11.6072 3.80769 11.5981C3.97211 11.5936 3.99375 11.6615 3.98942 11.8063C3.98077 12.4265 3.9851 13.0557 3.9851 13.6804ZM14.0149 13.6849C14.0149 13.0512 14.0149 12.4174 14.0149 11.7837C14.0149 11.6841 14.0019 11.5936 14.149 11.5936C14.7202 11.6026 15.287 11.5981 15.8582 11.5936C15.962 11.5936 15.9923 11.6389 15.9923 11.743C15.988 12.7388 16.001 13.7347 15.9837 14.7306C15.975 15.4231 15.4212 15.7989 14.9322 15.7581C14.6812 15.7355 14.426 15.7445 14.175 15.7581C14.0409 15.7626 14.0062 15.7219 14.0062 15.5816C14.0192 14.9478 14.0149 14.3141 14.0149 13.6849Z" fill="#3698FF"/>
</svg>
