<svg xmlns="http://www.w3.org/2000/svg" width="19" height="30" viewBox="0 0 17 27">
    <defs>
        <clipPath id="a">
            <path data-name="Rectangle 2680" transform="translate(28 421)" style="fill:#fff" d="M0 0h17v27H0z"></path>
        </clipPath>
    </defs>
    <g data-name="Mask Group 84" transform="translate(-28 -421)" style="clip-path:url(#a)">
        <path data-name="Path 14320" d="m15.337 26.316 12.923-4.785a.817.817 0 0 0 .516-.544l1.69-5.96.143.115a.864.864 0 0 0 1.2-.143l3.209-4.011a.827.827 0 0 0-.143-1.175l-8.94-7.163a.827.827 0 0 0-1.175.143L21.555 6.8a.827.827 0 0 0 .145 1.178l.143.115-5.417 3.007a.978.978 0 0 0-.43.63L14.191 25.4a.9.9 0 0 0 1.146.916zm10.2-21.8 7.622 6.074-2.12 2.693L23.417 7.2zm-7.907 7.846 5.559-3.18 5.988 4.756-1.862 6.132-9.715 3.581 3.524-4.412a3.2 3.2 0 0 0 3.811-.946 3.242 3.242 0 1 0-5.129-.086l-3.524 4.412zm3.553 2.951a1.551 1.551 0 1 1 .258 2.178 1.553 1.553 0 0 1-.259-2.178z" transform="rotate(141.4 -43.564 227.715)" style="fill:#3699FF;stroke:#3699FF;stroke-width:.1px"></path>
    </g>
</svg>