<svg width="25" height="28" viewBox="0 0 25 28" fill="none" xmlns="http://www.w3.org/2000/svg">
<path d="M23.0853 17.2395C22.1787 16.7163 21.07 16.8514 20.3157 17.4951L18.7657 16.6003C19.1551 15.7132 19.3717 14.7339 19.3717 13.7048C19.3717 12.6757 19.1551 11.6964 18.7657 10.8093L20.3153 9.91473C21.0754 10.5632 22.1844 10.6901 23.0853 10.1701C24.2356 9.50591 24.6311 8.02953 23.9669 6.87917C23.303 5.72881 21.8268 5.33315 20.6762 5.99752C19.7697 6.52095 19.3324 7.54856 19.5127 8.52388L17.9606 9.41975C16.7933 7.83965 14.9987 6.75035 12.9476 6.52262V4.68008C13.8824 4.34841 14.5537 3.45589 14.5537 2.40905C14.5537 1.08073 13.4731 0 12.1446 0C10.8163 0 9.73556 1.08073 9.73556 2.40905C9.73556 3.45589 10.407 4.34841 11.3416 4.68008V6.52262C9.29055 6.75035 7.4959 7.83965 6.32881 9.41975L4.77819 8.52451C4.95678 7.56738 4.53791 6.53119 3.61319 5.99731C2.46283 5.33336 0.986452 5.72881 0.322292 6.87917C-0.341869 8.02953 0.0537834 9.5057 1.20414 10.1701C2.10586 10.6906 3.21482 10.5626 3.97392 9.91473L5.5237 10.8093C5.13432 11.6964 4.91746 12.6757 4.91746 13.7048C4.91746 14.7339 5.13432 15.7132 5.52349 16.6003L3.97371 17.4951C3.21942 16.8512 2.11067 16.7161 1.20414 17.2395C0.0535743 17.9037 -0.341869 19.3801 0.322292 20.5304C0.986452 21.6806 2.46262 22.0764 3.61319 21.4121C4.5331 20.8809 4.95782 19.8475 4.77798 18.8851L6.3286 17.9898C7.4959 19.5699 9.29055 20.6592 11.3416 20.887V22.7295C10.4068 23.061 9.73556 23.9535 9.73556 25.0003C9.73556 26.3289 10.8163 27.4094 12.1446 27.4094C13.4729 27.4094 14.5537 26.3289 14.5537 25.0003C14.5537 23.9535 13.8822 23.061 12.9476 22.7295V20.887C14.9987 20.6592 16.7933 19.5697 17.9606 17.9898L19.5125 18.8857C19.2385 20.3677 20.3774 21.7343 21.8766 21.7343C22.7097 21.7343 23.5213 21.3023 23.9669 20.5302C24.6311 19.3801 24.2356 17.9039 23.0853 17.2395ZM21.4792 7.38816C21.8628 7.1667 22.3548 7.29866 22.5761 7.68218C22.7975 8.06571 22.6656 8.55776 22.2823 8.77922C21.8987 9.00047 21.4067 8.86872 21.1852 8.4852C20.964 8.10167 21.0957 7.60962 21.4792 7.38816ZM3.10399 8.4852C2.88253 8.86872 2.39047 9.00047 2.00716 8.77922C1.62364 8.55776 1.49189 8.06571 1.71314 7.68218C1.9346 7.29866 2.42665 7.16691 2.81018 7.38837C3.1937 7.60962 3.32544 8.10167 3.10399 8.4852ZM2.81018 20.0212C2.42665 20.2427 1.9346 20.1109 1.71314 19.7274C1.49189 19.3439 1.62364 18.8518 2.00716 18.6304C2.39068 18.4091 2.88253 18.5409 3.10399 18.9244C3.32544 19.3079 3.1937 19.8 2.81018 20.0212ZM12.1446 1.60603C12.5875 1.60603 12.9476 1.96634 12.9476 2.40905C12.9476 2.85175 12.5875 3.21206 12.1446 3.21206C11.7019 3.21206 11.3416 2.85175 11.3416 2.40905C11.3416 1.96634 11.7019 1.60603 12.1446 1.60603ZM12.1446 25.8036C11.7019 25.8036 11.3416 25.4433 11.3416 25.0006C11.3416 24.5578 11.7019 24.1975 12.1446 24.1975C12.5875 24.1975 12.9476 24.5578 12.9476 25.0006C12.9476 25.4433 12.5875 25.8036 12.1446 25.8036ZM12.1446 19.3259C9.04526 19.3259 6.5235 16.8044 6.5235 13.7048C6.5235 10.6052 9.04526 8.08369 12.1446 8.08369C15.2442 8.08369 17.7657 10.6052 17.7657 13.7048C17.7657 16.8044 15.2442 19.3259 12.1446 19.3259ZM22.5761 19.7274C22.3548 20.1109 21.8628 20.2427 21.4792 20.0214C21.0957 19.8 20.964 19.3079 21.1852 18.9244C21.4067 18.5411 21.8985 18.4089 22.2823 18.6304C22.6656 18.8518 22.7975 19.3439 22.5761 19.7274Z" fill="#3698FF"/>
<path d="M9.73553 9.68973H14.5536V11.2958H9.73553V9.68973Z" fill="#3698FF"/>
<path d="M9.73553 16.1138H14.5536V17.7199H9.73553V16.1138Z" fill="#3698FF"/>
<path d="M8.93256 12.9018H15.3567V14.5078H8.93256V12.9018Z" fill="#3698FF"/>
</svg>
