<svg width="25" height="22" viewBox="0 0 25 22" fill="none" xmlns="http://www.w3.org/2000/svg">
<path d="M23.4854 17.7783C23.4569 17.7558 23.4394 17.7407 23.4285 17.7302C23.4316 17.7198 23.4362 17.7052 23.444 17.6859C23.9751 16.3709 23.4006 14.976 22.1073 14.4409C22.0463 14.4159 22.0292 14.3992 22.0287 14.3992C22.0272 14.396 22.0189 14.3736 22.0194 14.2921C22.0277 12.9484 22.0272 11.6162 22.023 10.0282C22.0199 8.77689 21.22 7.95835 19.9857 7.94269C19.7044 7.93903 19.4458 7.93747 19.1961 7.93747C18.8993 7.93747 18.6236 7.94008 18.3532 7.94478H18.3439C18.2808 7.94478 18.2782 7.94478 18.227 7.85655C18.0388 7.53237 17.8097 7.24682 17.5646 7.0307C17.4519 6.93152 17.3836 6.74672 17.3909 6.55983C17.3971 6.39696 17.4571 6.26071 17.5558 6.18658C18.4546 5.51055 18.7126 4.26812 18.1552 3.2961C17.7673 2.61955 17.0408 2.19931 16.259 2.19931C15.9389 2.19931 15.6276 2.2677 15.3344 2.4029C15.3044 2.41648 15.2687 2.42379 15.2279 2.42379C14.9869 2.42379 14.6927 2.19409 14.6756 1.99259C14.5805 0.883797 13.6301 0.00887451 12.5111 0H12.495C11.3678 0 10.4142 0.884319 10.3243 2.01295C10.3093 2.20297 10.0135 2.41961 9.7689 2.41961C9.72288 2.41961 9.68255 2.41178 9.64842 2.39664C9.35781 2.26404 9.05014 2.1967 8.73471 2.1967C7.96786 2.1967 7.24806 2.61015 6.85714 3.27574C6.29557 4.23053 6.52516 5.46565 7.39078 6.14795C7.53091 6.2581 7.61055 6.41105 7.6152 6.57706C7.61985 6.75455 7.53919 6.92995 7.39388 7.05837C7.23203 7.20141 7.11155 7.37054 6.99572 7.53394C6.92488 7.63365 6.85766 7.72813 6.78526 7.81061C6.72011 7.88474 6.66323 7.92285 6.64151 7.93173C6.41916 7.94112 6.18181 7.94478 5.87311 7.94478C5.73142 7.94478 5.58974 7.94373 5.44805 7.94321C5.30534 7.94217 5.16262 7.94164 5.0199 7.94164H5.0049C4.41541 7.94164 3.92728 8.13271 3.55342 8.50961C3.1687 8.89696 2.97427 9.40072 2.97582 10.0063C2.97841 11.1062 2.97789 12.2228 2.97737 13.3034C2.97737 13.6641 2.97685 14.0238 2.97685 14.3835C2.29015 14.6842 1.79736 15.165 1.54554 15.7841C1.29991 16.387 1.30664 17.073 1.5595 17.7381C0.487041 18.5681 -0.0367765 19.6784 0.00200562 21.0389C0.0190698 21.6329 0.34122 21.9613 0.908991 21.9639C1.8801 21.9681 2.86826 21.9702 3.84661 21.9702C4.79651 21.9702 5.76296 21.9681 6.71959 21.9644C7.2915 21.9623 7.62554 21.6246 7.63692 21.0383C7.66225 19.7233 7.17722 18.6453 6.19577 17.8341C6.15234 17.7986 6.1089 17.7631 6.06546 17.7287C6.58256 16.2487 6.11562 15.131 4.67655 14.4039C4.66724 14.3892 4.65638 14.3657 4.65379 14.3517C4.64449 13.034 4.64294 11.6073 4.64914 9.98957C4.65018 9.70924 4.71998 9.63981 5.00439 9.63511C5.11711 9.63302 5.23036 9.6325 5.34308 9.6325C5.45581 9.6325 5.56905 9.63302 5.68178 9.63354C5.79606 9.63407 5.90982 9.63459 6.02358 9.63459C6.248 9.63459 6.4295 9.63198 6.596 9.62676C6.60376 9.62624 6.611 9.62624 6.61824 9.62624C6.70563 9.62624 6.71907 9.62624 6.77699 9.74996C7.13378 10.5147 7.88564 11.0086 8.69283 11.0086C8.94103 11.0086 9.18407 10.9616 9.41573 10.8697C9.5512 10.8159 9.66497 10.7898 9.76425 10.7898C9.89766 10.7898 10.0243 10.8358 10.1877 10.9444C10.3093 11.0248 10.3217 11.0556 10.3268 11.162C10.3641 11.9148 10.6981 12.4943 11.2437 12.7516C11.6672 12.9516 11.7152 13.1964 11.6666 13.7054C11.648 13.9027 11.648 14.1162 11.6666 14.3407C11.6687 14.3684 11.6677 14.384 11.6666 14.3908C11.6584 14.3976 11.6351 14.4133 11.5798 14.4362C10.7255 14.7881 10.1986 15.4448 10.0962 16.2863C10.0507 16.6611 10.0973 17.0276 10.1469 17.416C10.1614 17.5313 10.1764 17.6488 10.1893 17.7683C9.19234 18.5368 8.66956 19.6393 8.67576 20.9668C8.67886 21.6277 9.00153 21.9634 9.63549 21.9655C10.5937 21.9686 11.5534 21.9702 12.4878 21.9702C13.4568 21.9702 14.4279 21.9686 15.3737 21.9649C15.8034 21.9634 16.3164 21.7932 16.3226 20.9919C16.3324 19.6383 15.8039 18.5425 14.7511 17.7349C14.749 17.7334 14.747 17.7318 14.7444 17.7297C15.2144 16.4314 14.8721 15.236 13.8602 14.7124C13.3441 14.4456 13.282 14.1669 13.3322 13.6036C13.3477 13.4318 13.3472 13.2658 13.3312 13.1097C13.3224 13.0257 13.3219 13.021 13.4294 12.9719C14.1425 12.6462 14.5774 12.0756 14.6224 11.4079C14.6467 11.0509 14.7987 10.9235 15.1301 10.7737C15.1503 10.7648 15.1886 10.7549 15.2253 10.7549C15.2372 10.7549 15.2439 10.7559 15.247 10.7564C15.6048 10.913 15.9601 10.9924 16.3019 10.9924C17.136 10.9924 17.832 10.5309 18.2622 9.69253C18.2756 9.67531 18.3144 9.64868 18.3361 9.6419C18.6009 9.6325 18.8837 9.6278 19.2002 9.6278C19.4344 9.6278 19.6837 9.63041 20.0079 9.63563C20.3213 9.64085 20.3471 9.76666 20.3482 9.9311C20.3549 11.0629 20.3538 12.2165 20.3528 13.3326C20.3523 13.6855 20.3523 14.039 20.3523 14.3929C19.6775 14.6602 19.1961 15.119 18.9199 15.759C18.651 16.3823 18.6526 17.0307 18.9267 17.7344C17.8692 18.5576 17.3433 19.6597 17.3624 21.0133C17.3707 21.6136 17.697 21.9592 18.2565 21.9618C19.2261 21.9665 20.2246 21.9691 21.2246 21.9691C22.1637 21.9691 23.1322 21.967 24.1033 21.9629C24.6525 21.9602 24.9782 21.6324 24.9974 21.0623C25.0439 19.7098 24.5351 18.6046 23.4854 17.7783ZM20.1584 18.9904C20.4966 19.1418 20.8409 19.218 21.1822 19.218C21.5214 19.218 21.8663 19.1423 22.2061 18.993C22.218 18.9878 22.2412 18.9821 22.2614 18.981C22.7656 19.2833 23.0888 19.7025 23.2418 20.2569H19.1335C19.2623 19.7359 19.7008 19.1298 20.1015 18.9763C20.1165 18.9768 20.1398 18.9821 20.1584 18.9904ZM21.9672 16.7222C21.9713 17.1602 21.6274 17.5235 21.1998 17.5329H21.1843C20.9806 17.5329 20.7758 17.4442 20.6232 17.2891C20.4728 17.1362 20.3869 16.9331 20.388 16.7311C20.39 16.3025 20.752 15.9391 21.1791 15.9376L21.1822 15.6416V15.9376C21.6181 15.9381 21.963 16.2826 21.9672 16.7222ZM11.4252 18.9685C11.4262 18.9685 11.4272 18.9685 11.4277 18.9685C11.4283 18.9685 11.4283 18.9685 11.4283 18.9685C11.7794 19.1345 12.1393 19.2185 12.4976 19.2185C12.8554 19.2185 13.219 19.1345 13.5783 18.9695H13.5794C13.976 19.1094 14.4197 19.7322 14.5438 20.2621H10.4546C10.5683 19.7536 11.0404 19.0912 11.4252 18.9685ZM12.5002 17.5329C12.2903 17.5329 12.0912 17.4468 11.9402 17.2912C11.7882 17.1341 11.7065 16.9289 11.7116 16.7138C11.7209 16.2858 12.0757 15.9376 12.5023 15.9376H12.5136C12.9449 15.9438 13.2934 16.3035 13.2903 16.7394C13.2867 17.1696 12.9253 17.5324 12.5002 17.5329ZM12.9894 11.1323C12.9966 11.197 12.9733 11.2602 12.9206 11.3197C12.8255 11.4272 12.6605 11.4967 12.4997 11.4967C12.3404 11.4967 12.176 11.4278 12.0814 11.3213C12.0281 11.2618 12.0043 11.1981 12.0115 11.1328C12.1201 10.1013 11.4583 9.71289 10.9267 9.40072C10.5487 9.17886 10.1743 8.97996 9.75132 8.97996C9.45141 8.97996 9.15407 9.08071 8.8433 9.28744C8.79676 9.31824 8.74867 9.33338 8.69645 9.33338C8.49736 9.33338 8.24709 9.11099 8.16539 8.79934C8.19279 8.7534 8.21917 8.70746 8.2445 8.66205C8.305 8.55398 8.38826 8.40625 8.44565 8.3791C9.19493 8.02465 9.46433 7.4666 9.26887 6.67259C9.24043 6.55722 9.26835 6.38965 9.29524 6.22782C9.30248 6.18553 9.3092 6.14377 9.31541 6.10253C9.4059 5.49437 9.08323 5.19002 8.79625 5.04177C8.68197 4.98278 8.55011 4.91074 8.43893 4.82617C8.2202 4.65912 8.15918 4.36991 8.29363 4.13918C8.38774 3.97735 8.56614 3.86459 8.72747 3.86459C8.79056 3.86459 8.84796 3.88286 8.89811 3.91836C9.18665 4.1256 9.46743 4.22636 9.75649 4.22636C10.1495 4.22636 10.5032 4.03895 10.8605 3.83014C11.4603 3.48037 12.1403 3.08363 12.0157 2.02443C12.01 1.97641 12.0302 1.92629 12.0751 1.87513C12.1693 1.76759 12.3435 1.6919 12.5007 1.69138C12.6548 1.69138 12.8234 1.76394 12.919 1.87252C12.9728 1.93308 12.9966 1.99572 12.9899 2.05784C12.8937 2.93538 13.2841 3.52005 14.1508 3.79568C14.4708 4.10942 14.8008 4.26185 15.1576 4.26185C15.4601 4.26185 15.7657 4.15118 16.093 3.92306C16.1462 3.88599 16.2067 3.86668 16.2724 3.86668C16.4322 3.86668 16.609 3.97787 16.7031 4.13761C16.7823 4.27177 16.805 4.44248 16.7621 4.5829C16.7311 4.68574 16.6701 4.75883 16.5816 4.80059C15.8096 5.16497 15.5319 5.74129 15.7326 6.56192C15.7569 6.66215 15.732 6.81197 15.7077 6.95657C15.6979 7.01556 15.6876 7.07664 15.6798 7.13824C15.6079 7.70308 15.9084 7.99072 16.1731 8.13218C16.3143 8.20736 16.4622 8.28932 16.5863 8.38902C16.7823 8.54668 16.834 8.83901 16.7042 9.05566C16.6085 9.21488 16.427 9.33077 16.2719 9.33077C16.2176 9.33077 16.1716 9.31667 16.1312 9.28691C15.8355 9.07132 15.5469 8.96639 15.2496 8.96639C14.8452 8.96639 14.4781 9.16267 14.1063 9.38193C13.5297 9.72177 12.8761 10.1065 12.9894 11.1323ZM2.27567 19.3412C2.50113 19.11 2.63764 18.9998 2.80104 18.9998C2.88068 18.9998 2.97427 19.0264 3.07924 19.0797C3.29125 19.1867 3.5286 19.241 3.78352 19.241C4.07827 19.241 4.39628 19.1721 4.78514 19.0238C4.7991 19.0186 4.82857 19.0123 4.86684 19.0123C4.92113 19.0123 4.95992 19.0243 4.96922 19.0296C5.43513 19.3282 5.73349 19.7301 5.87362 20.2522H1.75548C1.8501 19.9019 2.0223 19.6017 2.27567 19.3412ZM3.81455 17.5329C3.80783 17.5329 3.80059 17.5329 3.79387 17.5324C3.36674 17.5204 3.02546 17.1539 3.03322 16.7154C3.04097 16.2795 3.38588 15.9376 3.81817 15.9376H3.82748C4.24788 15.9423 4.6145 16.3155 4.61191 16.7363C4.60984 17.1612 4.23702 17.5329 3.81455 17.5329Z" fill="#3698FF"/>
<path d="M14.0537 5.03809C13.6457 4.62256 13.0966 4.39287 12.5071 4.39078H12.4993C11.9109 4.39078 11.3612 4.61943 10.9511 5.03496C10.5416 5.44998 10.3161 6.00646 10.3167 6.6021C10.3177 7.80694 11.2857 8.79515 12.474 8.80506H12.4926C13.7145 8.80506 14.6763 7.84296 14.683 6.61463C14.6871 6.01481 14.4632 5.4552 14.0537 5.03809ZM13.0118 6.59009C13.0138 6.87929 12.7951 7.11108 12.5133 7.11734H12.5009C12.3618 7.11734 12.2325 7.06462 12.1379 6.96856C12.0417 6.87094 11.9889 6.73678 11.99 6.59166C11.9915 6.29723 12.2061 6.0832 12.4998 6.08268L12.5009 5.78669V6.08268C12.7894 6.08268 13.0092 6.30089 13.0118 6.59009Z" fill="#3698FF"/>
</svg>
