<svg width="21" height="18" viewBox="0 0 21 18" fill="none" xmlns="http://www.w3.org/2000/svg">
<path d="M20.0738 6.54547H0.926182C0.415435 6.54547 0 6.91826 0 7.37656V10.6235C0 11.0818 0.415435 11.4546 0.926182 11.4546H20.0738C20.5846 11.4546 21 11.0818 21 10.6235V7.37656C21 6.91826 20.5846 6.54547 20.0738 6.54547ZM1.85236 9.79237V8.20766H19.1476V9.79237H1.85236Z" fill="#3698FF"/>
<path d="M20.0738 13.0909H0.926182C0.415435 13.0909 0 13.4637 0 13.922V17.1689C0 17.6272 0.415435 18 0.926182 18H20.0738C20.5846 18 21 17.6272 21 17.1689V13.922C21 13.4637 20.5846 13.0909 20.0738 13.0909ZM1.85236 16.3382V14.7535H19.1476V16.3382H1.85236Z" fill="#3698FF"/>
<path d="M20.0738 0H0.926182C0.415435 0 0 0.372784 0 0.831094V4.078C0 4.53631 0.415435 4.90909 0.926182 4.90909H20.0738C20.5846 4.90909 21 4.53631 21 4.078V0.831094C21 0.372784 20.5846 0 20.0738 0ZM1.85236 3.2469V1.66219H19.1476V3.2469H1.85236Z" fill="#3698FF"/>
</svg>
