<svg width="24" height="25" viewBox="0 0 24 25" fill="none" xmlns="http://www.w3.org/2000/svg">
<path d="M6.52263 6.90321C5.71374 8.00876 5.27943 9.33162 5.28004 10.688V17.216L2.24171 19.1837C2.04113 19.3136 1.92004 19.5363 1.92004 19.7752C1.92004 20.1645 2.23558 20.48 2.62481 20.48H21.4808C21.8118 20.48 22.08 20.2117 22.08 19.8808C22.08 19.576 21.9256 19.292 21.6698 19.1263L18.72 17.216V10.688C18.7215 9.33294 18.2888 8.01106 17.482 6.90566C16.6753 5.80027 15.5344 4.96615 14.2176 4.51899C14.2687 4.20816 14.2498 3.89026 14.1621 3.58724C14.0744 3.28421 13.9201 3.00327 13.7098 2.7638C13.4995 2.52432 13.2383 2.33202 12.9441 2.20015C12.6498 2.06829 12.3297 2 12.0056 2C11.6816 2 11.3615 2.06829 11.0672 2.20015C10.773 2.33202 10.5118 2.52432 10.3015 2.7638C10.0912 3.00327 9.93687 3.28421 9.8492 3.58724C9.76153 3.89026 9.74257 4.20816 9.79364 4.51899C8.47481 4.96432 7.33152 5.79766 6.52263 6.90321Z" stroke="#3698FF" stroke-width="2.1" stroke-linejoin="round"/>
<path d="M11.16 23H13.68" stroke="#3698FF" stroke-width="2.1" stroke-linecap="round"/>
</svg>
