<svg width="117" height="102" viewBox="0 0 117 102" fill="none" xmlns="http://www.w3.org/2000/svg">
<ellipse cx="61" cy="99" rx="24" ry="3" fill="#99A8FF" fill-opacity="0.8"/>
<path d="M100 47.0642C100 77.3367 61 98 61 98C61 98 22 75.0408 22 47.0642C22 25.4896 39.0026 8 61 8C82.9974 8 100 25.4896 100 47.0642Z" fill="#D8DEFF" fill-opacity="0.7"/>
<path fill-rule="evenodd" clip-rule="evenodd" d="M41.9982 32C41.6525 31.9992 41.3317 31.7903 41.1498 31.4475C40.9678 31.1048 40.9505 30.6768 41.104 30.3156C42.6994 26.9875 45.7307 24.9472 48.9998 25.001C49.5522 25.001 50 25.5233 50 26.1675C50 26.8118 49.5522 27.334 48.9998 27.334C46.487 27.2796 44.1471 28.8213 42.8904 31.3596C42.7203 31.7522 42.3753 31.9998 41.9982 32Z" fill="#99A8FF"/>
<path fill-rule="evenodd" clip-rule="evenodd" d="M79.9951 32C79.6176 32.0006 79.272 31.7529 79.1017 31.3596C77.8471 28.8212 75.5097 27.2793 72.9994 27.3341C72.4474 27.3341 72 26.8119 72 26.1676C72 25.5234 72.4474 25.0012 72.9994 25.0012C76.2672 24.9441 79.2987 26.9833 80.8946 30.3121C81.0498 30.6747 81.0327 31.1054 80.8492 31.4496C80.6658 31.7938 80.3424 32.0022 79.9951 32Z" fill="#99A8FF"/>
<path d="M72.5 55C77.7467 55 82 49.8513 82 43.5C82 37.1487 77.7467 32 72.5 32C67.2533 32 63 37.1487 63 43.5C63 49.8513 67.2533 55 72.5 55Z" fill="white"/>
<path d="M49.5 55C54.7467 55 59 49.8513 59 43.5C59 37.1487 54.7467 32 49.5 32C44.2533 32 40 37.1487 40 43.5C40 49.8513 44.2533 55 49.5 55Z" fill="white"/>
<path d="M50.5 52C54.0899 52 57 48.1944 57 43.5C57 38.8056 54.0899 35 50.5 35C46.9101 35 44 38.8056 44 43.5C44 48.1944 46.9101 52 50.5 52Z" fill="#99A8FF"/>
<path d="M71.5 52C75.0899 52 78 48.1944 78 43.5C78 38.8056 75.0899 35 71.5 35C67.9101 35 65 38.8056 65 43.5C65 48.1944 67.9101 52 71.5 52Z" fill="#99A8FF"/>
<path d="M50.5 49C52.9853 49 55 46.5376 55 43.5C55 40.4624 52.9853 38 50.5 38C48.0147 38 46 40.4624 46 43.5C46 46.5376 48.0147 49 50.5 49Z" fill="#5B66A5"/>
<path fill-rule="evenodd" clip-rule="evenodd" d="M61 69.25C63.4 69.25 65.0004 70 67.4004 70C69.8004 70 73 69.4 73 65.8C73 62.2 67.4004 58 61 58C54.5996 58 49 62.2 49 65.8C49 69.4 52.1996 70 54.5996 70C56.9996 70 58.6 69.25 61 69.25Z" fill="#5B66A5"/>
<path d="M71.5 49C73.9853 49 76 46.5376 76 43.5C76 40.4624 73.9853 38 71.5 38C69.0147 38 67 40.4624 67 43.5C67 46.5376 69.0147 49 71.5 49Z" fill="#5B66A5"/>
<path fill-rule="evenodd" clip-rule="evenodd" d="M61 69.25C63.4 69.25 65.0004 70 67.4004 70C69.8004 70 73 69.4 73 65.8C73 62.2 67.4004 58 61 58C54.5996 58 49 62.2 49 65.8C49 69.4 52.1996 70 54.5996 70C56.9996 70 58.6 69.25 61 69.25Z" fill="#5B66A5"/>
<path fill-rule="evenodd" clip-rule="evenodd" d="M64.0057 74.9964C63.9386 74.9968 63.8717 74.9912 63.806 74.9796C62.8889 74.8003 61.9526 74.6994 61.0113 74.6784C60.0701 74.6994 59.1337 74.8003 58.2166 74.9796C57.863 75.0463 57.4942 74.9466 57.2531 74.7192C57.0119 74.4918 56.9364 74.1723 57.0556 73.8846C57.1749 73.5969 57.4703 73.3861 57.8274 73.334C58.8725 73.1321 59.9393 73.0202 61.0113 73C62.0868 73.0202 63.157 73.1327 64.2053 73.3357C64.7055 73.4232 65.0463 73.8142 64.9949 74.2416C64.9435 74.669 64.5166 74.9948 64.0057 74.9964Z" fill="#99A8FF"/>
<path fill-rule="evenodd" clip-rule="evenodd" d="M61 69.25C63.4 69.25 65.0004 70 67.4004 70C69.8004 70 73 69.4 73 65.8C73 62.2 67.4004 58 61 58C54.5996 58 49 62.2 49 65.8C49 69.4 52.1996 70 54.5996 70C56.9996 70 58.6 69.25 61 69.25Z" fill="#5B66A5"/>
<path fill-rule="evenodd" clip-rule="evenodd" d="M73 67.0765C72.3253 69.551 69.6046 70 67.4922 70C65.059 70 63.4332 69.2517 61 69.2517C58.5668 69.2517 56.941 70 54.5078 70C52.3954 70 49.6747 69.551 49 67.0765C51 65.2214 53.7101 64.1256 56.576 64.0134C58.3467 63.8876 60.0492 64.6556 61 66.0089C61.9508 64.6556 63.6533 63.8876 65.424 64.0134C68.2899 64.1256 71 65.2214 73 67.0765Z" fill="#99A8FF"/>
<path d="M73.8278 41.5171C75.0085 41.5171 75.9657 40.5599 75.9657 39.3791C75.9657 38.1984 75.0085 37.2412 73.8278 37.2412C72.647 37.2412 71.6898 38.1984 71.6898 39.3791C71.6898 40.5599 72.647 41.5171 73.8278 41.5171Z" fill="#ECF0F1"/>
<path d="M52.4485 41.5171C53.6292 41.5171 54.5864 40.5599 54.5864 39.3791C54.5864 38.1984 53.6292 37.2412 52.4485 37.2412C51.2677 37.2412 50.3105 38.1984 50.3105 39.3791C50.3105 40.5599 51.2677 41.5171 52.4485 41.5171Z" fill="#ECF0F1"/>
<path d="M113 0C115.209 0 117 1.79086 117 4C117 6.20914 115.209 8 113 8C110.791 8 109 6.20914 109 4C109 1.79086 110.791 0 113 0Z" fill="#D8DEFF"/>
<path d="M3 79C4.65685 79 6 80.3431 6 82C6 83.6569 4.65685 85 3 85C1.34315 85 0 83.6569 0 82C0 80.3431 1.34315 79 3 79Z" fill="#D8DEFF"/>
</svg>
