<svg width="40" height="40" viewBox="0 0 40 40" fill="none" xmlns="http://www.w3.org/2000/svg">
<path d="M16.67 22H12C10.9 22 10 22.9 10 24V30H16.67V22Z" stroke="#292D32" stroke-width="1.5" stroke-miterlimit="10" stroke-linecap="round" stroke-linejoin="round"/>
<path d="M21.3299 18H18.6599C17.5599 18 16.6599 18.9 16.6599 20V30H23.3299V20C23.3299 18.9 22.4399 18 21.3299 18Z" stroke="#292D32" stroke-width="1.5" stroke-miterlimit="10" stroke-linecap="round" stroke-linejoin="round"/>
<path d="M28.0001 25H23.3301V30H30.0001V27C30.0001 25.9 29.1001 25 28.0001 25Z" stroke="#292D32" stroke-width="1.5" stroke-miterlimit="10" stroke-linecap="round" stroke-linejoin="round"/>
<path d="M20.52 10.0698L21.05 11.1298C21.12 11.2798 21.31 11.4198 21.47 11.4398L22.43 11.5998C23.04 11.6998 23.19 12.1498 22.75 12.5798L22 13.3298C21.87 13.4598 21.8 13.6998 21.84 13.8698L22.05 14.7898C22.22 15.5198 21.83 15.7998 21.19 15.4198L20.29 14.8898C20.13 14.7898 19.86 14.7898 19.7 14.8898L18.8 15.4198C18.16 15.7998 17.77 15.5198 17.94 14.7898L18.15 13.8698C18.19 13.6998 18.12 13.4498 17.99 13.3298L17.25 12.5898C16.81 12.1498 16.95 11.7098 17.57 11.6098L18.53 11.4498C18.69 11.4198 18.88 11.2798 18.95 11.1398L19.48 10.0798C19.77 9.4998 20.23 9.49982 20.52 10.0698Z" stroke="#292D32" stroke-width="1.5" stroke-linecap="round" stroke-linejoin="round"/>
<path d="M14.9999 36.6668H24.9999C33.3333 36.6668 36.6666 33.3335 36.6666 25.0002V15.0002C36.6666 6.66683 33.3333 3.3335 24.9999 3.3335H14.9999C6.66659 3.3335 3.33325 6.66683 3.33325 15.0002V25.0002C3.33325 33.3335 6.66659 36.6668 14.9999 36.6668Z" stroke="#292D32" stroke-width="1.8" stroke-linecap="round" stroke-linejoin="round"/>
</svg>
