<svg width="20" height="14" viewBox="0 0 20 14" fill="none" xmlns="http://www.w3.org/2000/svg">
<path d="M17.9593 1H2.04096C1.70282 1 1.42871 1.33579 1.42871 1.75V12.25C1.42871 12.6642 1.70282 13 2.04096 13H17.9593C18.2975 13 18.5716 12.6642 18.5716 12.25V1.75C18.5716 1.33579 18.2975 1 17.9593 1Z" stroke="#8CA1CC" stroke-width="1.5" stroke-linejoin="round"/>
<path d="M10.0001 9.57141C11.4203 9.57141 12.5716 8.42015 12.5716 6.99999C12.5716 5.57983 11.4203 4.42856 10.0001 4.42856C8.57998 4.42856 7.42871 5.57983 7.42871 6.99999C7.42871 8.42015 8.57998 9.57141 10.0001 9.57141Z" stroke="#8CA1CC" stroke-width="1.5" stroke-linecap="round" stroke-linejoin="round"/>
<path d="M17.8567 4.42858C16.6732 4.42858 15.7139 3.2774 15.7139 1.85715" stroke="#8CA1CC" stroke-width="1.5" stroke-linecap="round" stroke-linejoin="round"/>
<path d="M4.28544 1.85715C4.28544 3.2774 3.32612 4.42858 2.14258 4.42858" stroke="#8CA1CC" stroke-width="1.5" stroke-linecap="round" stroke-linejoin="round"/>
<path d="M15.7139 12.1429C15.7139 10.7226 16.6732 9.57144 17.8567 9.57144" stroke="#8CA1CC" stroke-width="1.5" stroke-linecap="round" stroke-linejoin="round"/>
<path d="M2.14258 9.57144C3.32612 9.57144 4.28544 10.7226 4.28544 12.1429" stroke="#8CA1CC" stroke-width="1.5" stroke-linecap="round" stroke-linejoin="round"/>
</svg>
