<svg xmlns="http://www.w3.org/2000/svg" width="12.361" height="12.361" viewBox="0 0 12.361 12.361">
    <g>
        <g>
            <g>
                <g>
                    <path fill="#1ac596" stroke="#1ac596" stroke-width="0.2px" d="M6.08 0a6.08 6.08 0 1 0 6.08 6.08A6.087 6.087 0 0 0 6.08 0zm0 11.219a5.139 5.139 0 1 1 5.139-5.139 5.145 5.145 0 0 1-5.139 5.139z" transform="translate(-463.9 -990.9) translate(464 991)"/>
                </g>
            </g>
        </g>
        <path fill="#1ac596" d="M2.952-2.188q.072-.12-.123.524Q2.231.864 1.251.416A9.429 9.429 0 0 1 .12-2.854q-.14-1.625.353-1.64.836-.064.818.51a6.1 6.1 0 0 0 .3 2.209Q2.444-4.26 3.129-4.3h.22q.371.138.508 1.148a4.55 4.55 0 0 0 .353 1.133q.065-.217.342-.891.346-.729.692-1.465.422-.284.958.19a3.567 3.567 0 0 1-.537 1.723 9.6 9.6 0 0 0-.537 2q-.1.891-.749.914L4.166.387Q3.666.2 2.952-2.188z" transform="translate(-463.9 -990.9) rotate(90 -262.956 730.956)"/>
    </g>
</svg>
