<svg xmlns="http://www.w3.org/2000/svg" width="31.742" height="32.127" viewBox="0 0 31.742 32.127">
    <defs>
        <style>
            .cls-2{fill:#b9dcff}.cls-3{fill:#4f8aff}
        </style>
    </defs>
    <g id="_3472789" transform="translate(-.67 -32.706)" style="isolation:isolate">
        <path id="Path_12809" d="M140.9 37.338v-.92a2.7 2.7 0 0 1 2.7-2.7h8a2.7 2.7 0 0 1 2.7 2.7v.92h2.3v-.92a5.007 5.007 0 0 0-5-5h-8a5.007 5.007 0 0 0-5 5v.92z" class="cls-2" transform="translate(-131.007 1.289)"/>
        <path id="Path_12810" d="M46.166 282.725l-9.8 4.017v.366a3.958 3.958 0 0 1-3.634 4.21 3.958 3.958 0 0 1-3.634-4.21v-.366l-9.8-4.017a7.976 7.976 0 0 1-2.39-1.541v15.283h31.64v-15.283a7.977 7.977 0 0 1-2.382 1.541z" class="cls-2" transform="translate(-16.145 -231.634)"/>
        <path id="Path_12811" d="M.67 138.667v3.46c0 3.072.494 5.812 3.02 6.837l9.229 3.746v-3.153h7.345v3.153l9.229-3.746c2.527-1.025 2.9-3.765 2.9-6.837v-3.46z" class="cls-3" transform="translate(0 -100.04)"/>
        <path id="Path_12812" d="M234.895 310.75h-3.821v3.659a1.91 1.91 0 0 0 3.821 0z" class="cls-3" transform="translate(-216.393 -258.934)"/>
    </g>
</svg>
