<svg xmlns="http://www.w3.org/2000/svg" width="21.287" height="20.908" viewBox="0 0 21.287 20.908">
    <defs>
        <linearGradient id="linear-gradient" x1=".378" x2="2.347" y1=".346" y2="3.852" gradientUnits="objectBoundingBox">
            <stop offset="0" stop-color="#fefcf7"/>
            <stop offset="1" stop-color="#fff7eb"/>
        </linearGradient>
        <style>
            .cls-1{fill:url(#linear-gradient)}
        </style>
    </defs>
    <g id="Group_6813" transform="translate(-1032.962 -249)">
        <circle id="Ellipse_516" cx="4.453" cy="4.453" r="4.453" class="cls-1" transform="translate(1036.367 249)"/>
        <path id="Path_13775" d="M61.754 256a7.859 7.859 0 0 0-7.859 7.859 2.1 2.1 0 0 0 2.1 2.1h11.521a2.1 2.1 0 0 0 2.1-2.1A7.859 7.859 0 0 0 61.754 256z" class="cls-1" transform="translate(979.067 2.954)"/>
        <g id="check-mark" fill="#fefcf7" stroke="none">
            <path d="M20.86 30.323c-.443 0-.86-.17-1.175-.482l-3.23-2.964-.008-.007-.008-.008c-.316-.316-.49-.736-.49-1.183 0-.447.174-.868.49-1.184.316-.316.736-.49 1.183-.49.442 0 .858.17 1.173.479l2.058 1.83 5.398-5.016c.316-.311.733-.483 1.177-.483.447 0 .867.174 1.183.49.317.317.49.737.49 1.184 0 .447-.173.868-.49 1.184l-.005.005-.006.006-6.562 6.155c-.316.312-.734.484-1.178.484z" transform="translate(1024.647 239.085)"/>
            <path fill="#fed7a2" d="M27.428 21.315c-.3 0-.6.115-.83.344l-5.738 5.33-2.408-2.14c-.229-.23-.53-.344-.83-.344-.3 0-.6.115-.83.344-.458.458-.458 1.201 0 1.66l3.238 2.97c.23.23.53.344.83.344.3 0 .6-.114.83-.343l6.568-6.161c.458-.458.458-1.201 0-1.66-.23-.23-.53-.344-.83-.344m0-1c.58 0 1.126.226 1.537.637.41.41.637.956.637 1.537 0 .58-.226 1.127-.637 1.537l-.011.011-.012.011-6.558 6.152c-.409.402-.95.623-1.524.623-.572 0-1.11-.22-1.52-.619l-3.224-2.959-.015-.014-.015-.015c-.411-.41-.637-.957-.637-1.537 0-.581.226-1.127.637-1.538.41-.41.956-.636 1.536-.636.57 0 1.106.217 1.513.613l1.71 1.52 5.06-4.7c.41-.402.95-.623 1.523-.623z" transform="translate(1024.647 239.085)"/>
        </g>
    </g>
</svg>
