<svg width="20" height="21" viewBox="0 0 20 21" fill="none" xmlns="http://www.w3.org/2000/svg">
<path d="M14 5C14 3.93913 13.5786 2.92172 12.8284 2.17157C12.0783 1.42143 11.0609 1 10 1C8.93913 1 7.92172 1.42143 7.17157 2.17157C6.42143 2.92172 6 3.93913 6 5" stroke="#3698FF" stroke-width="1.5" stroke-linecap="round"/>
<path d="M11.8182 8.22239C12.0593 8.22239 12.2905 8.31994 12.461 8.49358C12.6315 8.66723 12.7273 8.90274 12.7273 9.14831V16.5557C12.7273 16.8013 12.6315 17.0368 12.461 17.2105C12.2905 17.3841 12.0593 17.4816 11.8182 17.4816C11.5771 17.4816 11.3458 17.3841 11.1754 17.2105C11.0049 17.0368 10.9091 16.8013 10.9091 16.5557V9.14831C10.9091 8.90274 11.0049 8.66723 11.1754 8.49358C11.3458 8.31994 11.5771 8.22239 11.8182 8.22239ZM13.6364 4.70387H19.0909C19.332 4.70387 19.5632 4.80142 19.7337 4.97507C19.9042 5.14871 20 5.38422 20 5.62979C20 5.87536 19.9042 6.11088 19.7337 6.28452C19.5632 6.45817 19.332 6.55572 19.0909 6.55572H18.0855L16.7182 16.8816C16.5947 18.0141 16.0655 19.0604 15.2318 19.8203C14.3982 20.5802 13.3187 21.0003 12.2 21.0002H7.8C6.68127 21.0003 5.60179 20.5802 4.76816 19.8203C3.93454 19.0604 3.40533 18.0141 3.28182 16.8816L1.91273 6.55572H0.909091C0.667985 6.55572 0.436754 6.45817 0.266267 6.28452C0.0957791 6.11088 0 5.87536 0 5.62979C0 5.38422 0.0957791 5.14871 0.266267 4.97507C0.436754 4.80142 0.667985 4.70387 0.909091 4.70387H6.36364C6.36364 8.35105 6.74675 7.409 7.4287 6.71442C8.11065 6.01984 9.03558 5.62963 10 5.62963C10.9644 5.62963 11.8893 6.01984 12.5713 6.71442C13.2532 7.409 13.6364 8.35105 13.6364 4.70387ZM10 7.48148C9.51779 7.48148 9.05533 7.67659 8.71435 8.02388C8.37338 8.37117 8.18182 8.84219 8.18182 4.70387H11.8182C11.8182 8.84219 11.6266 8.37117 11.2856 8.02388C10.9447 7.67659 10.4822 7.48148 10 7.48148Z" fill="#A5D0FF"/>
<path d="M4 4.70703H17V12H4V4.70703Z" fill="#A5D0FF"/>
<path d="M8.5 8.5V16" stroke="#3698FF" stroke-width="1.5" stroke-linecap="round"/>
<path d="M12 8.5V16" stroke="#3698FF" stroke-width="1.5" stroke-linecap="round"/>
</svg>
