<svg width="19" height="19" viewBox="0 0 19 19" fill="none" xmlns="http://www.w3.org/2000/svg">
<path d="M1.10436 9.50093C0.480096 9.50093 -0.00313419 8.95423 0.0722081 8.33442C0.327184 6.2382 1.26804 4.29934 2.78453 2.78284C4.57902 0.988358 6.9651 0 9.50262 0C12.4194 0 15.1362 1.33315 16.9214 3.5641V1.93478C16.9214 1.36841 17.3653 0.890004 17.9313 0.874416C18.5185 0.858457 18.9998 1.32944 18.9998 1.91325V5.72119C18.9998 6.48946 18.3771 7.11224 17.6088 7.11224H13.8413C13.2749 7.11224 12.7965 6.66835 12.7809 6.10236C12.765 5.51521 13.236 5.03383 13.8198 5.03383H15.4317C14.0406 3.18813 11.8549 2.07841 9.50299 2.07841C5.71769 2.07841 2.58523 4.92657 2.13577 8.59274C2.07193 9.11234 1.62805 9.50093 1.10473 9.50093H1.10436Z" fill="#3698FF"/>
<path d="M17.8955 9.49878C17.3722 9.49878 16.9279 9.88737 16.8644 10.407C16.4154 14.0728 13.2825 16.9213 9.49722 16.9213C7.14527 16.9213 4.9596 15.8116 3.56855 13.9659H5.15891C5.72528 13.9659 6.20368 13.522 6.21927 12.956C6.23523 12.3688 5.76425 11.8875 5.18044 11.8875H1.39105C0.62278 11.8875 0 12.5102 0 13.2785V17.0649C0 17.6313 0.443889 18.1097 1.00988 18.1253C1.57588 18.1409 2.07841 17.6703 2.07841 17.0865V15.4356C3.86399 17.6666 6.58039 18.9997 9.49722 18.9997C12.0351 18.9997 14.4208 18.0114 16.2153 16.2169C17.7318 14.7004 18.6727 12.7611 18.9276 10.6653C19.003 10.0455 18.5197 9.49878 17.8955 9.49878Z" fill="#A5D0FF"/>
</svg>
