<svg width="72" height="75" viewBox="0 0 72 75" fill="none" xmlns="http://www.w3.org/2000/svg">
<path fill-rule="evenodd" clip-rule="evenodd" d="M38.0821 61.6911L38.6452 62.2546C39.8388 63.4488 39.8387 65.3965 38.6452 66.5906L34.6806 70.557C38.6461 73.4204 40.043 71.7344 46.0236 64.5134C47.6086 62.5996 49.4952 60.3216 51.8707 57.5917C49.1393 55.0368 46.3966 52.4995 43.7465 49.8125C39.3855 45.3912 37.6092 49.8909 32.2393 50.7126C26.5738 51.5795 24.9308 46.3614 28.8919 43.0988C31.0013 41.3614 33.1657 39.958 35.3873 38.9941C29.6806 37.5964 23.8814 37.5486 18.9446 40.3452L18.9443 40.3446C18.6865 40.4907 18.3647 40.5154 18.0746 40.3828L5.09281 34.4359C3.5631 33.7352 1.84923 34.884 1.91611 36.5668L2.42575 49.3715C2.46703 50.407 3.16868 51.2467 4.18507 51.4706L14.3552 53.7123L14.3547 53.7142C14.487 53.7432 14.6154 53.8009 14.7303 53.8887L17.8706 56.3283L22.7025 51.4942C23.896 50.3001 25.843 50.3001 27.0365 51.4942C27.7855 52.2435 28.3961 52.7702 28.4865 53.9982C29.2941 53.9812 30.106 54.2804 30.7184 54.893C31.4776 55.6528 32.079 56.1823 32.1684 57.3972C32.976 57.3802 33.7879 57.6794 34.4002 58.2921C35.1595 59.0518 35.7608 59.5814 35.8502 60.7961C36.6578 60.7793 37.4697 61.0785 38.0821 61.6911ZM35.9443 13.0841C39.7697 13.0841 43.1887 15.0936 45.1045 18.2162C45.7698 17.8997 46.4654 17.6544 47.1883 17.4836C42.2246 14.1197 41.5295 7.05664 45.7836 2.80069C49.5161 -0.933562 55.5671 -0.933562 59.2997 2.80069C63.5531 7.056 62.8586 14.1171 57.898 17.4815C62.5759 18.5863 66.007 22.8037 66.007 27.7196V31.1958C68.5894 30.2757 71.4618 32.1272 71.5347 35.0247L71.9972 50.2777C72.0682 52.2494 70.7941 53.9591 68.884 54.4536L53.7255 58.3772C51.2627 61.1952 49.2102 63.6731 47.5013 65.7366C40.377 74.3388 38.8649 76.1623 33.3112 71.9271L32.8531 72.3854C31.6596 73.5795 29.7126 73.5795 28.519 72.3854C27.7598 71.6258 27.1585 71.0963 27.069 69.8814C26.2614 69.8984 25.4495 69.5992 24.8372 68.9866C24.0882 68.2372 23.4776 67.7105 23.3872 66.4825C22.5796 66.4995 21.7677 66.2003 21.1553 65.5877C20.4063 64.8383 19.7957 64.3118 19.7053 63.0837C18.8977 63.1006 18.0858 62.8014 17.4735 62.1888L16.9104 61.6255C15.8611 60.5756 15.726 58.9281 16.5485 57.7255L13.7401 55.5441L3.77272 53.3471C1.90891 52.9363 0.589302 51.36 0.513136 49.447L0.00350202 36.6423C-0.120186 33.5369 3.05555 31.4025 5.88182 32.6923V27.7196C5.88182 22.8037 9.31277 18.5863 13.9907 17.4815C9.03003 14.1171 8.33559 7.056 12.589 2.80069C16.3216 -0.933562 22.3725 -0.933562 26.1049 2.80069C30.3587 7.05632 29.6644 14.1192 24.7002 17.4838C25.4231 17.6548 26.1189 17.9 26.784 18.2163C28.7002 15.0936 32.1188 13.0841 35.9443 13.0841ZM45.9562 19.9315C47.088 19.3987 48.3085 19.1232 49.5888 19.1232H55.4945C60.2183 19.1232 64.0867 22.9934 64.0867 27.7193V32.2178L50.5392 39.9764C47.3123 38.0789 44.1609 37.3549 41.0871 37.5598L40.9964 36.7549V33.3139C45.7648 30.7668 47.9418 25.0318 45.9562 19.9315ZM39.0762 34.1108V36.7552C39.0762 37.1096 39.1119 37.4611 39.1798 37.806C38.9991 37.8405 38.8189 37.8782 38.6391 37.9188C36.6137 37.2809 34.6713 36.8147 32.8123 36.52V34.1108C34.8455 34.7301 37.0431 34.73 39.0762 34.1108ZM30.8922 33.3142V36.2738C26.464 35.8443 22.2212 36.4254 18.4326 38.4417L7.80195 33.5718V27.7195C7.80195 22.9934 11.6702 19.1234 16.3942 19.1234H22.2999C23.58 19.1234 24.801 19.3989 25.9325 19.9315C23.9469 25.0312 26.1235 30.7663 30.8922 33.3142ZM42.1816 17.5896C38.737 14.1435 33.1518 14.1435 29.7073 17.5896C26.2627 21.0357 26.2627 26.6234 29.7073 30.0695C33.1518 33.5156 38.737 33.5156 42.1816 30.0695C45.6259 26.6234 45.6259 21.0357 42.1816 17.5896ZM40.4858 19.4919L33.8506 26.13L31.4029 23.6812C31.0282 23.3063 30.4201 23.3063 30.0454 23.6812C29.6706 24.0563 29.6706 24.6645 30.0454 25.0394L33.1718 28.1672C33.5466 28.5421 34.1545 28.5421 34.5294 28.1672L41.8433 20.85C42.2182 20.4751 42.2182 19.8669 41.8433 19.4919C41.4684 19.1168 40.8605 19.1168 40.4858 19.4919ZM24.7476 4.15867C21.7651 1.17489 16.929 1.17489 13.9467 4.15867C10.9642 7.14245 10.9642 11.9808 13.9467 14.9644C16.9291 17.9482 21.7653 17.9482 24.7476 14.9644C27.7299 11.9808 27.7299 7.14245 24.7476 4.15867ZM57.9421 4.15867C54.9597 1.17489 50.1235 1.17489 47.1413 4.15867C44.1588 7.14245 44.1588 11.9806 47.1413 14.9644C50.1237 17.9482 54.9597 17.9482 57.9421 14.9644C60.9244 11.9808 60.9246 7.14245 57.9421 4.15867ZM65.5615 33.5847L66.2649 33.182C67.7556 32.3283 69.5794 33.3731 69.622 35.0697L70.0844 50.3452C70.1228 51.4109 69.4354 52.3332 68.4038 52.6002L53.4711 56.4654C50.6308 53.8048 47.8191 51.2145 45.1115 48.4694C39.5182 42.7985 37.0463 48.0352 31.9541 48.8142C28.0651 49.4092 27.7892 46.4858 30.1067 44.577C33.245 41.992 36.4828 40.2103 39.8116 39.641C43.0787 39.0823 46.4695 39.6985 49.988 41.8839C50.2815 42.0827 50.6743 42.1104 51.0026 41.9225L65.4831 33.6296C65.5102 33.6156 65.5363 33.6008 65.5615 33.5847ZM20.5921 60.688C20.3121 60.9682 20.0881 61.163 19.6405 61.163C19.0307 61.163 18.7244 60.7237 18.2679 60.2669C17.8244 59.8231 17.8244 59.0909 18.2679 58.6471L24.06 52.8525C24.2818 52.6307 24.5752 52.5196 24.8695 52.5196C25.4795 52.5196 25.7856 52.9589 26.2421 53.4158C26.6855 53.8594 26.6856 54.5918 26.2422 55.0353L20.5921 60.688ZM24.2739 64.0871C23.9939 64.3672 23.7699 64.562 23.3224 64.562C22.7126 64.562 22.4063 64.1228 21.9498 63.6659C21.5062 63.2221 21.5062 62.4899 21.9498 62.0462L27.5999 56.3935C27.875 56.1183 28.0966 55.9185 28.5515 55.9185C29.1631 55.9185 29.4802 56.3704 29.9241 56.8147C30.3668 57.2576 30.367 57.9894 29.9274 58.431L24.2739 64.0871ZM31.285 59.7892C31.564 59.51 31.7887 59.3176 32.2332 59.3176C32.8432 59.3176 33.1493 59.7568 33.6058 60.2137C34.0487 60.6567 34.0487 61.3884 33.6093 61.8299L27.956 67.4858C27.6763 67.7674 27.4487 67.9609 27.0042 67.9609C26.3944 67.9609 26.0881 67.5215 25.6316 67.0648C25.1881 66.621 25.1882 65.8888 25.6315 65.4452L31.285 59.7892ZM34.9668 63.188C35.2411 62.9137 35.4632 62.7164 35.9151 62.7164C36.5266 62.7164 36.8438 63.1683 37.2876 63.6126C37.7312 64.0563 37.7312 64.7885 37.2876 65.2323L31.4956 71.027C31.2738 71.2488 30.9802 71.3598 30.6861 71.3598C30.0763 71.3598 29.77 70.9205 29.3135 70.4636C28.8706 70.0207 28.8706 69.2889 29.31 68.8474L34.9668 63.188Z" fill="#4785FF"/>
</svg>
