<svg xmlns="http://www.w3.org/2000/svg" width="19.1" height="19.1" viewBox="0 0 19.1 19.1">
    <defs>
        <style>
            .cls-1{fill:#adb5cc;stroke:#adb5cc;stroke-width:.1px}
        </style>
    </defs>
    <g id="dollar" transform="translate(.05 .05)">
        <path id="Path_13841" d="M9.5 19A9.5 9.5 0 0 1 2.782 2.782a9.5 9.5 0 0 1 13.436 13.436A9.438 9.438 0 0 1 9.5 19zm0-17.812A8.312 8.312 0 1 0 17.812 9.5 8.322 8.322 0 0 0 9.5 1.187z" class="cls-1"/>
        <path id="Path_13842" d="M186.672 101.344a1.484 1.484 0 1 1 1.484-1.484.594.594 0 0 0 1.188 0 2.676 2.676 0 0 0-2.078-2.6v-.661a.594.594 0 0 0-1.187 0v.661a2.672 2.672 0 0 0 .594 5.276 1.484 1.484 0 1 1-1.484 1.484.594.594 0 1 0-1.187 0 2.676 2.676 0 0 0 2.078 2.6v.661a.594.594 0 0 0 1.188 0v-.661a2.672 2.672 0 0 0-.594-5.276z" class="cls-1" transform="translate(-177.172 -92.438)"/>
    </g>
</svg>
