<svg xmlns="http://www.w3.org/2000/svg" width="13.625" height="13.368" viewBox="0 0 13.625 13.368">
    <path fill="#80859f" stroke="#80859f" stroke-width="0.3px" d="M12.329 7.945h-1.878l.016-1.991a.37.37 0 0 0-.37-.37H6.4V3.757h1.48a.37.37 0 0 0 .37-.37v-3.7a.37.37 0 0 0-.37-.37h-3.7a.37.37 0 0 0-.37.37v3.7a.37.37 0 0 0 .37.37h1.48v1.826h-3.7a.37.37 0 0 0-.37.37l-.019 1.992H-.256a.37.37 0 0 0-.37.37v3.7a.37.37 0 0 0 .37.37h4.417a.37.37 0 0 0 .37-.37v-3.7a.37.37 0 0 0-.37-.37h-1.85l.016-1.621h7.4l-.016 1.621h-1.85a.37.37 0 0 0-.37.37v3.7a.37.37 0 0 0 .37.37h4.467a.37.37 0 0 0 .37-.37v-3.7a.37.37 0 0 0-.37-.37zM4.547.057h2.96v2.96h-2.96zm-.756 11.588H.114v-2.96h3.677zm8.167 0H8.231v-2.96h3.727z" opacity="0.65" transform="translate(.776 .833)"/>
</svg>
