<svg xmlns="http://www.w3.org/2000/svg" width="18.972" height="18.972" viewBox="0 0 18.972 18.972">
    <g>
        <path fill="#ffc46d" stroke="#ffc46d" stroke-width="0.1px" d="M16.439 1.474h-1.7V.59a.59.59 0 1 0-1.18 0v.885H5.308V.59a.59.59 0 1 0-1.18 0v.885h-1.7A2.435 2.435 0 0 0 0 3.907v12.532a2.435 2.435 0 0 0 2.433 2.433h14.006a2.435 2.435 0 0 0 2.433-2.433V3.907a2.435 2.435 0 0 0-2.433-2.433zM2.433 2.654h1.7v.59a.59.59 0 0 0 1.18 0v-.59h8.257v.59a.59.59 0 1 0 1.18 0v-.59h1.7a1.255 1.255 0 0 1 1.253 1.253v1.4H1.18v-1.4a1.255 1.255 0 0 1 1.253-1.253zm14.006 15.039H2.433a1.255 1.255 0 0 1-1.253-1.254V6.487h16.513v9.952a1.255 1.255 0 0 1-1.254 1.254z" transform="translate(.05 .05)"/>
    </g>
</svg>
