<svg width="90" height="90" viewBox="0 0 90 90" fill="none" xmlns="http://www.w3.org/2000/svg">
<path d="M76.6406 70.6641C80.5239 70.6641 83.6719 67.5161 83.6719 63.6328C83.6719 59.7496 80.5239 56.6016 76.6406 56.6016C72.7574 56.6016 69.6094 59.7496 69.6094 63.6328C69.6094 67.5161 72.7574 70.6641 76.6406 70.6641Z" fill="#99A8FF"/>
<path d="M85.1861 72.4738C82.9707 74.6156 79.958 75.9375 76.6406 75.9375C73.3233 75.9375 70.3106 74.6156 68.0952 72.4738C65.2966 74.3701 63.457 77.5756 63.457 81.211V90H87.1875C88.6437 90 89.8242 88.8195 89.8242 87.3633V81.211C89.8242 77.5756 87.9847 74.3701 85.1861 72.4738Z" fill="#A5B2FF" fill-opacity="0.49"/>
<path d="M45 70.6641C48.8833 70.6641 52.0312 67.5161 52.0312 63.6328C52.0312 59.7496 48.8833 56.6016 45 56.6016C41.1167 56.6016 37.9688 59.7496 37.9688 63.6328C37.9688 67.5161 41.1167 70.6641 45 70.6641Z" fill="#99A8FF"/>
<path d="M53.5454 72.4738C51.3301 74.6156 48.3173 75.9375 45 75.9375C41.6827 75.9375 38.6699 74.6156 36.4546 72.4738C33.656 74.3701 31.8164 77.5756 31.8164 81.211V90H58.1836V81.211C58.1836 77.5756 56.344 74.3701 53.5454 72.4738Z" fill="#A5B2FF" fill-opacity="0.49"/>
<path d="M13.3594 70.6641C17.2426 70.6641 20.3906 67.5161 20.3906 63.6328C20.3906 59.7496 17.2426 56.6016 13.3594 56.6016C9.47612 56.6016 6.32812 59.7496 6.32812 63.6328C6.32812 67.5161 9.47612 70.6641 13.3594 70.6641Z" fill="#99A8FF"/>
<path d="M21.9048 72.4738C19.6894 74.6156 16.6767 75.9375 13.3594 75.9375C10.042 75.9375 7.02932 74.6156 4.81395 72.4738C2.01533 74.3701 0.175781 77.5756 0.175781 81.211V87.3633C0.175781 88.8195 1.35633 90 2.8125 90H26.543V81.211C26.543 77.5756 24.7034 74.3701 21.9048 72.4738Z" fill="#A5B2FF" fill-opacity="0.49"/>
<path d="M45 14.0625C48.8833 14.0625 52.0312 10.9145 52.0312 7.03125C52.0312 3.148 48.8833 0 45 0C41.1167 0 37.9688 3.148 37.9688 7.03125C37.9688 10.9145 41.1167 14.0625 45 14.0625Z" fill="#99A8FF"/>
<path d="M34.4531 33.3985H55.5469C57.003 33.3985 58.1836 32.2179 58.1836 30.7617V24.6094C58.1836 20.9741 56.344 17.7685 53.5454 15.8722C51.3301 18.0141 48.3173 19.336 45 19.336C41.6827 19.336 38.6699 18.0141 36.4546 15.8722C33.656 17.7685 31.8164 20.9741 31.8164 24.6094V30.7617C31.8164 32.2179 32.997 33.3985 34.4531 33.3985Z" fill="#A5B2FF" fill-opacity="0.49"/>
<path d="M15.9961 51.6155V47.6367H74.0039V51.6155C74.854 51.4292 75.7355 51.3281 76.6406 51.3281C77.5457 51.3281 78.4273 51.4292 79.2773 51.6155V45C79.2773 43.5438 78.0968 42.3633 76.6406 42.3633H47.6367V38.6719H42.3633V42.3633H13.3594C11.9032 42.3633 10.7227 43.5438 10.7227 45V51.6155C11.5727 51.4292 12.4543 51.3281 13.3594 51.3281C14.2645 51.3281 15.146 51.4292 15.9961 51.6155Z" fill="#99A8FF"/>
</svg>
