<svg xmlns="http://www.w3.org/2000/svg" width="18.734" height="18.642" viewBox="0 0 18.734 18.642">
    <g>
        <g>
            <g>
                <path fill="#adb5cc" stroke="#adb5cc" stroke-width="0.5px" d="M297.609 896h1.609a1.609 1.609 0 0 1 1.609 1.609v1.609a1.609 1.609 0 0 1-1.609 1.609h-1.609a1.609 1.609 0 0 1-1.609-1.609v-1.609a1.609 1.609 0 0 1 1.609-1.609zm0 1.073a.536.536 0 0 0-.536.536v1.609a.536.536 0 0 0 .536.536h1.609a.536.536 0 0 0 .536-.536v-1.609a.536.536 0 0 0-.536-.536zM311.016 896h1.609a1.609 1.609 0 0 1 1.609 1.609v1.609a1.609 1.609 0 0 1-1.609 1.609h-1.609a1.609 1.609 0 0 1-1.609-1.609v-1.609a1.609 1.609 0 0 1 1.609-1.609zm0 1.073a.536.536 0 0 0-.536.536v1.609a.536.536 0 0 0 .536.536h1.609a.536.536 0 0 0 .536-.536v-1.609a.536.536 0 0 0-.536-.536zm-6.7-1.073h1.609a1.609 1.609 0 0 1 1.609 1.609v1.609a1.609 1.609 0 0 1-1.609 1.609h-1.609a1.609 1.609 0 0 1-1.609-1.609v-1.609a1.609 1.609 0 0 1 1.605-1.609zm0 1.073a.536.536 0 0 0-.536.536v1.609a.536.536 0 0 0 .536.536h1.609a.536.536 0 0 0 .536-.536v-1.609a.536.536 0 0 0-.536-.536zm-6.7 5.631h1.609a1.609 1.609 0 0 1 1.609 1.609v1.609a1.609 1.609 0 0 1-1.609 1.609h-1.609a1.609 1.609 0 0 1-1.616-1.61v-1.609a1.609 1.609 0 0 1 1.609-1.612zm0 1.073a.536.536 0 0 0-.536.536v1.609a.536.536 0 0 0 .536.536h1.609a.536.536 0 0 0 .536-.536v-1.609a.536.536 0 0 0-.536-.536zm13.407-1.073h1.609a1.609 1.609 0 0 1 1.609 1.609v1.609a1.609 1.609 0 0 1-1.609 1.609h-1.609a1.609 1.609 0 0 1-1.609-1.609v-1.609a1.609 1.609 0 0 1 1.602-1.613zm0 1.073a.536.536 0 0 0-.536.536v1.609a.536.536 0 0 0 .536.536h1.609a.536.536 0 0 0 .536-.536v-1.609a.536.536 0 0 0-.536-.536zm-6.7-1.073h1.609a1.609 1.609 0 0 1 1.609 1.609v1.609a1.609 1.609 0 0 1-1.609 1.609h-1.609a1.609 1.609 0 0 1-1.609-1.609v-1.609a1.609 1.609 0 0 1 1.598-1.613zm0 1.073a.536.536 0 0 0-.536.536v1.609a.536.536 0 0 0 .536.536h1.609a.536.536 0 0 0 .536-.536v-1.609a.536.536 0 0 0-.536-.536zm-.875 5.631h3.352a1.073 1.073 0 0 1 .892 1.668l-1.679 2.519a1.072 1.072 0 0 1-1.785 0l-1.679-2.519a1.073 1.073 0 0 1 .892-1.668zm0 1.073l1.669 2.519 1.679-2.519z" transform="translate(-986.75 -586.75) translate(987 587) translate(-296 -896)"/>
            </g>
        </g>
    </g>
</svg>
