<svg xmlns="http://www.w3.org/2000/svg" width="19.788" height="18.539" viewBox="0 0 19.788 18.539">
    <path fill="#adb5cc" stroke="#adb5cc" stroke-width="0.5px" d="M17.77 2.752a5.572 5.572 0 0 0-7.885-.229l-.244.23a5.578 5.578 0 0 0-8.117 7.653l.549.582a1.628 1.628 0 0 0 1.7 2.26 1.62 1.62 0 0 0 1.8 1.911 1.62 1.62 0 0 0 1.8 1.911 1.633 1.633 0 0 0 2.726 1.485c1.835-1.732 1.777-1.646 1.95-1.938a1.623 1.623 0 0 0 2.327-1.665 1.625 1.625 0 0 0 1.924-1.806 1.633 1.633 0 0 0 1.464-2.746 5.561 5.561 0 0 0 .006-7.652zM2.853 12.315a.994.994 0 0 1 .041-1.4l1.671-1.582a.993.993 0 0 1 1.362 1.444l-1.671 1.579a.993.993 0 0 1-1.4-.041zm1.8 1.911a.994.994 0 0 1 .041-1.4l1.672-1.578a.992.992 0 1 1 1.362 1.444L6.06 14.267a.994.994 0 0 1-1.4-.042zm1.8 1.911a.994.994 0 0 1 .041-1.4l1.672-1.578A.992.992 0 0 1 9.535 14.6l-1.671 1.576a.993.993 0 0 1-1.4-.04zm3.214 1.953A.993.993 0 0 1 8.3 16.646l1.672-1.579a.993.993 0 0 1 1.362 1.444zm7.6-5.824a.99.99 0 0 1-1.4-.041l-4.283-4.539a.322.322 0 0 0-.468.441l4.284 4.539a.993.993 0 0 1-1.443 1.363l-4.283-4.54a.322.322 0 0 0-.468.441l4.283 4.538a.991.991 0 0 1-1.218 1.538 1.623 1.623 0 0 0-1.566-1.856c-.354-.009-.225.124-.216-.229A1.635 1.635 0 0 0 8.9 12.24c-.354-.011-.227.129-.216-.229A1.635 1.635 0 0 0 7.1 10.329c-.356-.01-.227.131-.216-.229a1.637 1.637 0 0 0-2.759-1.237c-2.3 2.17-1.505 1.422-1.677 1.584l-.456-.482a4.934 4.934 0 0 1 7.181-6.77L6.54 5.681a1.334 1.334 0 0 0-.41.912c-.03 1.32 1.932 2.151 3.132 1.016l2.4-2.264a.321.321 0 0 1 .455.013l5.2 5.506a.992.992 0 0 1-.041 1.4zm.055-2.324l-4.739-5.026a.964.964 0 0 0-1.363-.039l-2.4 2.265a1.318 1.318 0 0 1-1.867-.058.662.662 0 0 1 .029-.936l3.343-3.158a4.935 4.935 0 0 1 7 6.952z" transform="translate(.246 -.748)"/>
</svg>
