<svg xmlns="http://www.w3.org/2000/svg" width="19.649" height="19.641" viewBox="0 0 19.649 19.641">
    <g>
        <g>
            <g fill="#adb5cc">
                <path d="M15.207 1.408h-.915V.7a.7.7 0 0 0-1.408 0v.7H9.68V.7a.7.7 0 0 0-1.408 0v.7H5.1V.7a.7.7 0 0 0-1.4 0v.7h-.88A2.819 2.819 0 0 0 0 4.224v10.983a2.819 2.819 0 0 0 2.816 2.816H9.06a.7.7 0 1 0 0-1.408H2.816a1.41 1.41 0 0 1-1.408-1.408V4.224a1.41 1.41 0 0 1 1.408-1.408H3.7v.7a.7.7 0 0 0 1.408 0v-.7h3.164v.7a.7.7 0 0 0 1.408 0v-.7h3.2v.7a.7.7 0 0 0 1.408 0v-.7h.915a1.41 1.41 0 0 1 1.408 1.408l.013 4.569a.7.7 0 0 0 1.408 0l-.013-4.569a2.819 2.819 0 0 0-2.812-2.816z" transform="translate(-.885 -.884) translate(.885 .884)"/>
                <g stroke="#afb7cd">
                    <path stroke-width="0.7px" d="M6.207 12.414a6.207 6.207 0 0 1-4.389-10.6A6.207 6.207 0 0 1 10.6 10.6a6.166 6.166 0 0 1-4.389 1.818zm0-11.638a5.431 5.431 0 1 0 5.431 5.431A5.437 5.437 0 0 0 6.207.776z" transform="translate(-.885 -.884) translate(.885 .884) translate(6.885 6.877)"/>
                    <path stroke-width="0.5px" d="M185.429 98.857a.794.794 0 1 1 .794-.794.317.317 0 0 0 .635 0 1.431 1.431 0 0 0-1.111-1.393v-.353a.317.317 0 1 0-.635 0v.353a1.429 1.429 0 0 0 .318 2.821.794.794 0 1 1-.794.794.317.317 0 1 0-.635 0 1.431 1.431 0 0 0 1.111 1.393v.353a.317.317 0 1 0 .635 0v-.353a1.429 1.429 0 0 0-.317-2.821z" transform="translate(-.885 -.884) translate(.885 .884) translate(6.885 6.877) translate(-179.222 -92.968)"/>
                </g>
            </g>
        </g>
    </g>
</svg>
