<svg xmlns="http://www.w3.org/2000/svg" width="20.305" height="20.307" viewBox="0 0 20.305 20.307">
    <g>
        <g>
            <path fill="#adb5cc" d="M18.445 4.291a.169.169 0 0 0 0-.02c-.025-.036-.057-.067-.083-.1q-.284-.387-.6-.746c-.058-.065-.116-.13-.176-.194q-.327-.35-.686-.668c-.044-.039-.086-.08-.13-.118a10.168 10.168 0 0 0-1.925-1.3l-.085-.041a10.089 10.089 0 0 0-.943-.42c-.073-.026-.139-.051-.207-.073q-.429-.154-.871-.271c-.087-.023-.174-.047-.263-.067C12.182.2 11.892.151 11.6.109c-.09-.013-.178-.03-.269-.041a9.537 9.537 0 0 0-2.3 0c-.097.011-.185.032-.275.041-.3.042-.59.094-.877.161-.089.021-.179.045-.263.068q-.445.116-.871.271l-.207.072A10.083 10.083 0 0 0 5.6 1.1l-.085.041a10.17 10.17 0 0 0-1.932 1.3c-.044.038-.086.079-.13.118a9.435 9.435 0 0 0-.686.668c-.059.064-.118.128-.176.194q-.318.358-.6.746c-.026.036-.057.067-.083.1a.165.165 0 0 0-.009.02 10.09 10.09 0 0 0 0 11.722.158.158 0 0 0 .009.02c.025.036.057.067.083.1q.284.387.6.746c.058.065.116.13.176.194q.328.35.686.668c.044.039.086.08.13.118a10.168 10.168 0 0 0 1.925 1.3l.085.041a10.088 10.088 0 0 0 .943.42c.073.026.139.051.207.073q.429.154.871.271c.087.023.174.047.263.067.29.067.58.119.877.161.09.013.178.03.269.041a9.537 9.537 0 0 0 2.3 0c.091-.011.179-.028.269-.041.3-.042.59-.094.877-.161.088-.02.176-.044.263-.067q.445-.116.871-.271l.207-.073a10.082 10.082 0 0 0 .943-.42l.085-.041a10.169 10.169 0 0 0 1.925-1.3c.044-.038.086-.079.13-.118a9.236 9.236 0 0 0 .686-.668c.059-.064.118-.128.176-.194q.318-.358.6-.746c.026-.036.057-.067.083-.1a.165.165 0 0 0 .009-.02 10.09 10.09 0 0 0-.002-11.718zm-.828 1.373a8.632 8.632 0 0 1 1.224 3.763H14.5a13.537 13.537 0 0 0-.406-2.56 13.036 13.036 0 0 0 3.523-1.204zm-5.6-4.017c.041.009.08.022.12.032a7.807 7.807 0 0 1 .769.218l.114.042q.374.131.736.29l.126.061q.346.165.676.356l.145.088q.313.192.609.41c.051.037.1.073.152.113a6.619 6.619 0 0 1 .556.466c.046.042.094.083.14.127.186.176.363.363.534.556l.067.073a12.169 12.169 0 0 1-3.094.994A18.446 18.446 0 0 0 11.715 1.6c.101.015.204.025.303.047zM7.3 9.426A12.1 12.1 0 0 1 7.7 7.1a20.788 20.788 0 0 0 2.477.145 20.835 20.835 0 0 0 2.475-.145 12.082 12.082 0 0 1 .4 2.325zm5.751 1.451a12.1 12.1 0 0 1-.4 2.321 21.232 21.232 0 0 0-4.956 0 12.085 12.085 0 0 1-.4-2.321zm-2.878-8.958a17.521 17.521 0 0 1 2.022 3.772 19.2 19.2 0 0 1-2.022.107 19.346 19.346 0 0 1-2.02-.108 17.66 17.66 0 0 1 2.02-3.771zM3.651 4.4c.17-.193.348-.379.534-.556.046-.044.094-.085.14-.127q.268-.244.556-.466c.05-.038.1-.073.152-.113q.3-.218.609-.41l.145-.088q.33-.193.676-.356l.126-.061q.361-.163.736-.29c.038-.014.073-.029.114-.042.252-.084.508-.154.769-.218.041-.009.08-.022.121-.031.1-.022.2-.032.3-.05a18.448 18.448 0 0 0-1.951 3.88 12.168 12.168 0 0 1-3.094-.994c.022-.025.045-.048.067-.078zm-.923 1.263a13.034 13.034 0 0 0 3.527 1.2 13.537 13.537 0 0 0-.406 2.56H1.5a8.633 8.633 0 0 1 1.228-3.76zm0 8.977A8.632 8.632 0 0 1 1.5 10.877h4.35a13.537 13.537 0 0 0 .406 2.56 13.033 13.033 0 0 0-3.528 1.203zm5.6 4.017c-.041-.009-.08-.022-.12-.032a7.807 7.807 0 0 1-.769-.218l-.114-.042q-.374-.131-.736-.29l-.126-.061q-.346-.165-.676-.356l-.145-.088q-.313-.192-.609-.41c-.051-.037-.1-.073-.152-.113a6.619 6.619 0 0 1-.556-.466c-.046-.042-.094-.083-.14-.127-.186-.176-.363-.363-.534-.556l-.067-.073a12.169 12.169 0 0 1 3.094-.994 18.446 18.446 0 0 0 1.952 3.876c-.1-.018-.203-.028-.303-.05zm1.846-.273a17.522 17.522 0 0 1-2.022-3.772 18.886 18.886 0 0 1 4.042 0 17.656 17.656 0 0 1-2.021 3.772zm6.521-2.484c-.17.193-.348.379-.534.556-.046.044-.094.085-.14.127q-.268.245-.556.466c-.05.038-.1.076-.152.113q-.3.218-.609.41l-.145.088q-.329.192-.676.356l-.126.061q-.361.163-.736.29c-.038.014-.073.029-.114.042-.252.084-.508.154-.769.218-.041.009-.08.022-.121.031-.1.022-.2.032-.3.05a18.444 18.444 0 0 0 1.953-3.875 12.168 12.168 0 0 1 3.094.994c-.024.023-.048.046-.069.073zm.923-1.259a13.034 13.034 0 0 0-3.527-1.2 13.537 13.537 0 0 0 .406-2.56h4.345a8.634 8.634 0 0 1-1.225 3.759z" transform="translate(-.016 .002) translate(.016 -.002) translate(-.016 .002)"/>
        </g>
    </g>
</svg>
