<svg width="72" height="68" viewBox="0 0 72 68" fill="none" xmlns="http://www.w3.org/2000/svg">
<path d="M21.3717 34.8729H1.12384C0.501487 34.8729 0 34.3684 0 33.749V29.2506C0 23.0482 5.04526 17.9998 11.2508 17.9998C17.4532 17.9998 22.5016 23.045 22.5016 29.2506V33.749C22.4986 34.3714 21.994 34.8729 21.3717 34.8729ZM2.24761 32.6252H20.2472V29.2506C20.2472 24.2868 16.2109 20.2504 11.247 20.2504C6.2831 20.2504 2.24683 24.2867 2.24683 29.2506L2.24761 32.6252Z" fill="#181C32"/>
<path d="M46.1207 25.8727H25.8729C25.2505 25.8727 24.749 25.3682 24.749 24.7489V20.2504C24.749 14.0481 29.7943 8.99962 35.9998 8.99962C42.2022 8.99962 47.2506 14.0449 47.2506 20.2504V24.7489C47.2476 25.3712 46.7431 25.8727 46.1207 25.8727ZM26.9966 23.625H44.9962V20.2504C44.9962 15.2867 40.9599 11.2502 35.996 11.2502C31.0321 11.2502 26.9959 15.2865 26.9959 20.2504L26.9966 23.625Z" fill="#181C32"/>
<path d="M35.9969 11.2506C32.8942 11.2506 30.3716 8.72801 30.3716 5.62532C30.3716 2.52263 32.8942 0 35.9969 0C39.0996 0 41.6222 2.52263 41.6222 5.62532C41.6222 8.72801 39.0996 11.2506 35.9969 11.2506ZM35.9969 2.25047C34.1359 2.25047 32.6223 3.76403 32.6223 5.62509C32.6223 7.48614 34.1358 8.99971 35.9969 8.99971C37.858 8.99971 39.3715 7.48614 39.3715 5.62509C39.3715 3.76403 37.858 2.25047 35.9969 2.25047Z" fill="#181C32"/>
<path d="M11.2479 20.2508C8.14519 20.2508 5.62256 17.7281 5.62256 14.6255C5.62256 11.5228 8.14519 9.00014 11.2479 9.00014C14.3506 9.00014 16.8732 11.5228 16.8732 14.6255C16.8732 17.7251 14.3506 20.2508 11.2479 20.2508ZM11.2479 11.2506C9.3869 11.2506 7.87326 12.7642 7.87326 14.6252C7.87326 16.4863 9.38682 17.9998 11.2479 17.9998C13.1089 17.9998 14.6225 16.4863 14.6225 14.6252C14.6225 12.7642 13.1089 11.2506 11.2479 11.2506Z" fill="#181C32"/>
<path d="M60.7459 20.2508C57.6432 20.2508 55.1206 17.7281 55.1206 14.6255C55.1206 11.5228 57.6432 9.00014 60.7459 9.00014C63.8486 9.00014 66.3712 11.5228 66.3712 14.6255C66.3712 17.7251 63.8486 20.2508 60.7459 20.2508ZM60.7459 11.2506C58.8849 11.2506 57.3713 12.7642 57.3713 14.6252C57.3713 16.4863 58.8849 17.9998 60.7459 17.9998C62.607 17.9998 64.1205 16.4863 64.1205 14.6252C64.1205 12.7642 62.607 11.2506 60.7459 11.2506Z" fill="#181C32"/>
<path d="M39.3715 67.4984H32.6222C31.9999 67.4984 31.4984 66.9939 31.4984 66.3746V64.5951C30.4622 64.287 29.4591 63.87 28.5075 63.3534L27.2507 64.6102C27.0392 64.8217 26.7522 64.9395 26.4562 64.9395C26.1571 64.9395 25.8731 64.8217 25.6616 64.6102L20.8882 59.8368C20.6767 59.6253 20.5589 59.3383 20.5589 59.0423C20.5589 58.7432 20.6767 58.4592 20.8882 58.2477L22.145 56.9909C21.6284 56.0362 21.2145 55.0363 20.9033 54H19.1238C18.5015 54 18 53.4955 18 52.8762V46.1269C18 45.5046 18.5045 45.0031 19.1238 45.0031H20.9033C21.2115 43.9669 21.6284 42.9638 22.145 42.0122L20.8882 40.7554C20.6767 40.5439 20.5589 40.2569 20.5589 39.9608C20.5589 39.6618 20.6767 39.3778 20.8882 39.1663L25.6616 34.3929C25.8731 34.1814 26.1601 34.0636 26.4562 34.0636C26.7552 34.0636 27.0392 34.1814 27.2507 34.3929L28.5075 35.6497C29.4622 35.1331 30.4621 34.7162 31.4984 34.408V32.6255C31.4984 32.0032 32.0029 31.5017 32.6222 31.5017H39.3715C39.9938 31.5017 40.4953 32.0062 40.4953 32.6255V34.405C41.5315 34.7131 42.5346 35.1301 43.4862 35.6467L44.743 34.3899C44.9545 34.1784 45.2415 34.0606 45.5376 34.0606C45.8367 34.0606 46.1206 34.1784 46.3321 34.3899L51.1055 39.1633C51.317 39.3748 51.4348 39.6618 51.4348 39.9578C51.4348 40.2569 51.317 40.5409 51.1055 40.7524L49.8487 42.0091C50.3653 42.9638 50.7822 43.9638 51.0904 45.0001H52.8699C53.4922 45.0001 53.9937 45.5046 53.9937 46.1239V52.8732C53.9937 53.4955 53.4892 53.997 52.8699 53.997H51.0904C50.7823 55.0332 50.3653 56.0362 49.8487 56.9879L51.1055 58.2447C51.317 58.4562 51.4348 58.7432 51.4348 59.0392C51.4348 59.3383 51.317 59.6223 51.1055 59.8338L46.3321 64.6072C46.1206 64.8187 45.8336 64.9365 45.5376 64.9365C45.2385 64.9365 44.9545 64.8187 44.743 64.6072L43.4862 63.3504C42.5316 63.867 41.5316 64.2839 40.4953 64.5921L40.4983 66.3746C40.4953 66.9939 39.9938 67.4984 39.3715 67.4984ZM33.7462 65.2476H38.2446V63.7311C38.2446 63.2084 38.6041 62.7552 39.1117 62.6374C40.5135 62.305 41.8489 61.7522 43.0814 60.9909C43.5256 60.7159 44.0996 60.7824 44.4682 61.151L45.5407 62.2235L48.7219 59.0422L47.6494 57.9697C47.2809 57.6011 47.2144 57.0271 47.4893 56.583C48.2506 55.3534 48.8035 54.0181 49.1358 52.6132C49.2567 52.1057 49.7098 51.7462 50.2295 51.7462L51.7461 51.7492V47.2507H50.2295C49.7068 47.2507 49.2537 46.8912 49.1358 46.3837C48.8035 44.9819 48.2507 43.6465 47.4893 42.4139C47.2144 41.9698 47.2809 41.3958 47.6494 41.0272L48.7219 39.9547L45.5407 36.7734L44.4682 37.8459C44.0996 38.2145 43.5255 38.281 43.0814 38.006C41.8519 37.2447 40.5165 36.6919 39.1117 36.3595C38.6041 36.2387 38.2446 35.7855 38.2446 35.2658L38.2476 33.7493H33.7492V35.2658C33.7492 35.7885 33.3897 36.2416 32.8821 36.3595C31.4803 36.6918 30.1449 37.2447 28.9124 38.006C28.4682 38.281 27.8942 38.2145 27.5256 37.8459L26.4531 36.7734L23.2719 39.9547L24.3444 41.0272C24.7129 41.3958 24.7794 41.9698 24.5045 42.4139C23.7432 43.6435 23.1903 44.9788 22.858 46.3837C22.7371 46.8912 22.284 47.2507 21.7643 47.2507L20.2477 47.2477V51.7462H21.7643C22.2869 51.7462 22.7401 52.1057 22.858 52.6132C23.1903 54.015 23.7431 55.3504 24.5045 56.583C24.7794 57.0271 24.7129 57.6011 24.3444 57.9697L23.2719 59.0422L26.4531 62.2235L27.5256 61.151C27.8942 60.7824 28.4683 60.7159 28.9124 60.9909C30.1419 61.7522 31.4773 62.305 32.8821 62.6374C33.3897 62.7582 33.7492 63.2114 33.7492 63.7311L33.7462 65.2476Z" fill="#181C32"/>
<path d="M46.6623 49.4982C46.6623 55.1905 42.0425 59.8104 36.3502 59.8104C30.6579 59.8104 26.0381 55.1905 26.0381 49.4982C26.0381 43.8059 30.6579 39.1861 36.3502 39.1861C42.0425 39.1861 46.6623 43.8059 46.6623 49.4982Z" stroke="#181C32" stroke-width="1.93352" stroke-linecap="round" stroke-linejoin="round"/>
<path d="M40.1761 52.7775L36.9793 50.8697C36.4225 50.5397 35.9688 49.7457 35.9688 49.096V44.8681" stroke="#181C32" stroke-width="1.93352" stroke-linecap="round" stroke-linejoin="round"/>
<path d="M19.1243 50.6218H11.2479C10.6255 50.6218 10.124 50.1173 10.124 49.498V33.7491C10.124 33.1267 10.6285 32.6252 11.2479 32.6252C11.8702 32.6252 12.3717 33.1297 12.3717 33.7491V48.3742H19.1209C19.7433 48.3742 20.2448 48.8788 20.2448 49.4981C20.2478 50.1204 19.7436 50.6218 19.1243 50.6218Z" fill="#181C32"/>
<path d="M70.8698 34.8729H50.6219C49.9995 34.8729 49.498 34.3684 49.498 33.749V29.2506C49.498 23.0482 54.5433 17.9998 60.7488 17.9998C66.9512 17.9998 71.9996 23.045 71.9996 29.2506V33.749C71.9966 34.3714 71.4921 34.8729 70.8698 34.8729ZM51.7457 32.6252H69.7452V29.2506C69.7452 24.2868 65.7089 20.2504 60.745 20.2504C55.7811 20.2504 51.7449 24.2867 51.7449 29.2506L51.7457 32.6252Z" fill="#181C32"/>
<path d="M60.7463 50.6218H52.8699C52.2476 50.6218 51.7461 50.1173 51.7461 49.498C51.7461 48.8756 52.2506 48.3741 52.8699 48.3741H59.6192L59.6222 33.749C59.6222 33.1266 60.1267 32.6251 60.746 32.6251C61.3684 32.6251 61.8699 33.1296 61.8699 33.749V49.4979C61.8699 50.1203 61.3687 50.6218 60.7463 50.6218Z" fill="#181C32"/>
<path d="M35.9969 33.7491C35.3745 33.7491 34.873 33.2446 34.873 32.6252V24.7488C34.873 24.1265 35.3776 23.625 35.9969 23.625C36.6192 23.625 37.1207 24.1295 37.1207 24.7488V32.6252C37.1207 33.2446 36.6192 33.7491 35.9969 33.7491Z" fill="#181C32"/>
</svg>
