<svg width="15" height="16" viewBox="0 0 15 16" fill="none" xmlns="http://www.w3.org/2000/svg">
<path d="M13.7757 8.54631C13.2964 8.47338 12.8707 8.80191 12.802 9.27029C12.6294 10.4467 12.0864 11.5201 11.2318 12.3747C9.05658 14.5499 5.5199 14.5482 3.34554 12.3747C1.17162 10.2004 1.17162 6.66239 3.34554 4.48847C4.16331 3.67114 5.19565 3.13823 6.35104 2.94424C6.84791 2.84994 7.3821 2.83364 7.93637 2.89645C8.69742 2.98405 9.40579 3.23656 10.0522 3.6073L8.93517 3.79804C8.46851 3.87809 8.15422 4.32133 8.2347 4.78843C8.30591 5.20653 8.66876 5.50186 9.07932 5.50186C9.12711 5.50186 9.17567 5.49808 9.22509 5.48967L12.2197 4.9777C12.4434 4.93918 12.6436 4.81348 12.7753 4.62747C12.9068 4.44188 12.9588 4.21142 12.9202 3.98688L12.4073 0.992711C12.3286 0.526043 11.8912 0.213473 11.4169 0.291808C10.9503 0.37186 10.636 0.815533 10.7165 1.28263L10.8514 2.07071C10.021 1.60481 9.10489 1.30339 8.13157 1.19134C7.40261 1.10837 6.69544 1.13145 6.04817 1.25543C4.55799 1.50511 3.20397 2.20352 2.13224 3.27517C-0.710748 6.11816 -0.710748 10.7442 2.13224 13.5879C3.5537 15.0098 5.4214 15.7204 7.28867 15.7204C9.15637 15.7204 11.0231 15.0099 12.4451 13.5879C13.562 12.471 14.2725 11.0642 14.4996 9.51997C14.5684 9.05073 14.2441 8.61495 13.7757 8.54631Z" fill="#FFC759"/>
</svg>
