<svg width="40" height="40" viewBox="0 0 40 40" fill="none" xmlns="http://www.w3.org/2000/svg">
<mask id="mask0_407_10038" style="mask-type:alpha" maskUnits="userSpaceOnUse" x="0" y="0" width="40" height="40">
<rect width="40" height="40" fill="#D9D9D9"/>
</mask>
<g mask="url(#mask0_407_10038)">
<path d="M14.6667 36.3333H24.6667C33 36.3333 36.3333 33 36.3333 24.6667V14.6667C36.3333 6.33333 33 3 24.6667 3H14.6667C6.33333 3 3 6.33333 3 14.6667V24.6667C3 33 6.33333 36.3333 14.6667 36.3333Z" stroke="#292D32" stroke-width="1.8" stroke-linecap="round" stroke-linejoin="round"/>
<path d="M19.7188 18.0582C19.636 18.0498 19.5367 18.0498 19.4457 18.0582C17.476 17.9915 15.9119 16.3665 15.9119 14.3665C15.9119 12.3248 17.5505 10.6665 19.5863 10.6665C21.6139 10.6665 23.2608 12.3248 23.2608 14.3665C23.2526 16.3665 21.6884 17.9915 19.7188 18.0582Z" stroke="#292D32" stroke-width="1.5" stroke-linecap="round" stroke-linejoin="round"/>
<path d="M15.5807 21.1335C13.5779 22.4835 13.5779 24.6835 15.5807 26.0252C17.8565 27.5585 21.589 27.5585 23.8648 26.0252C25.8676 24.6752 25.8676 22.4752 23.8648 21.1335C21.5972 19.6085 17.8648 19.6085 15.5807 21.1335Z" stroke="#292D32" stroke-width="1.5" stroke-linecap="round" stroke-linejoin="round"/>
<path d="M25.7187 12.3335C27.3242 12.3335 28.6152 13.6418 28.6152 15.2502C28.6152 16.8252 27.3738 18.1085 25.8263 18.1668C25.76 18.1585 25.6856 18.1585 25.6111 18.1668" stroke="#292D32" stroke-width="1.5" stroke-linecap="round" stroke-linejoin="round"/>
<path d="M27.3159 25.667C27.9118 25.542 28.4745 25.3003 28.938 24.942C30.229 23.967 30.229 22.3587 28.938 21.3837C28.4828 21.0337 27.9283 20.8003 27.3407 20.667" stroke="#292D32" stroke-width="1.5" stroke-linecap="round" stroke-linejoin="round"/>
<path d="M14.0743 12.3335C12.4688 12.3335 11.1777 13.6418 11.1777 15.2502C11.1777 16.8252 12.4191 18.1085 13.9667 18.1668C14.0329 18.1585 14.1074 18.1585 14.1819 18.1668" stroke="#292D32" stroke-width="1.5" stroke-linecap="round" stroke-linejoin="round"/>
<path d="M12.4771 25.667C11.8812 25.542 11.3184 25.3003 10.855 24.942C9.56395 23.967 9.56395 22.3587 10.855 21.3837C11.3102 21.0337 11.8646 20.8003 12.4522 20.667" stroke="#292D32" stroke-width="1.5" stroke-linecap="round" stroke-linejoin="round"/>
</g>
</svg>
