<svg width="52" height="52" viewBox="0 0 52 52" fill="none" xmlns="http://www.w3.org/2000/svg">
<path fill-rule="evenodd" clip-rule="evenodd" d="M0.0444336 26.2054C0.0444336 12.0249 11.5401 0.529297 25.7206 0.529297C32.5303 0.529297 39.0612 3.23446 43.8764 8.04964C48.6915 12.8649 51.3967 19.3957 51.3967 26.2054C51.3967 40.386 39.9012 51.8816 25.7206 51.8816C11.5401 51.8816 0.0444336 40.386 0.0444336 26.2054ZM21.022 37.1949L35.9911 27.8487C36.5513 27.49 36.8901 26.8707 36.8901 26.2054C36.8901 25.5403 36.5513 24.9209 35.9911 24.5622L20.9706 15.2161C20.379 14.8431 19.6316 14.8202 19.0183 15.1561C18.4049 15.4921 18.0219 16.1343 18.0179 16.8337V35.5773C18.0096 36.2937 18.3996 36.9554 19.0304 37.295C19.6612 37.6347 20.4284 37.5961 21.022 37.1949Z" fill="white"/>
</svg>
