<svg width="40" height="40" viewBox="0 0 40 40" fill="none" xmlns="http://www.w3.org/2000/svg">
<mask id="mask0_510_9810" style="mask-type:alpha" maskUnits="userSpaceOnUse" x="0" y="0" width="40" height="40">
<rect width="40" height="40" fill="#D9D9D9"/>
</mask>
<g mask="url(#mask0_510_9810)">
<path d="M14.6667 36.3333H24.6667C33 36.3333 36.3333 33 36.3333 24.6667V14.6667C36.3333 6.33333 33 3 24.6667 3H14.6667C6.33333 3 3 6.33333 3 14.6667V24.6667C3 33 6.33333 36.3333 14.6667 36.3333Z" stroke="#292D32" stroke-width="1.8" stroke-linecap="round" stroke-linejoin="round"/>
<path d="M28.5 14V24C28.5 27 27 29 23.5 29H15.5C12 29 10.5 27 10.5 24V14C10.5 11 12 9 15.5 9H23.5C27 9 28.5 11 28.5 14Z" stroke="#292D32" stroke-width="1.5" stroke-miterlimit="10" stroke-linecap="round" stroke-linejoin="round"/>
<path d="M17.5 14.6667L18.75 16L22.5 12" stroke="#292D32" stroke-width="1.5" stroke-linecap="round" stroke-linejoin="round"/>
<path d="M20.75 21H25" stroke="#292D32" stroke-width="1.5" stroke-miterlimit="10" stroke-linecap="round" stroke-linejoin="round"/>
<path d="M16.5 25H25" stroke="#292D32" stroke-width="1.5" stroke-miterlimit="10" stroke-linecap="round" stroke-linejoin="round"/>
</g>
</svg>
