<svg id="Group_6828" data-name="Group 6828" xmlns="http://www.w3.org/2000/svg" width="9.564" height="8.301">
    <defs>
        <style>
            .cls-1{fill:#fff}
        </style>
    </defs>
    <path id="Path_13914" data-name="Path 13914" class="cls-1" d="M9.263 1.907H6.508V.856a.3.3 0 0 0-.3-.3H3.356a.3.3 0 0 0-.3.3v1.05H.3a.128.128 0 0 0-.029 0A.3.3 0 0 0 0 2.2v1.5l3.738 1a.3.3 0 0 1 .3-.3h1.491a.3.3 0 0 1 .3.3v.011l3.738-1V2.2a.3.3 0 0 0-.304-.293zm-3.354 0H3.653v-.75H5.91z" transform="translate(0 -.559)"/>
    <path id="Path_13915" data-name="Path 13915" class="cls-1" d="M5.826 5.43a.3.3 0 0 1-.3.3H4.035a.3.3 0 0 1-.3-.3V4.9L0 3.9v4.23a.3.3 0 0 0 .3.3h8.963a.3.3 0 0 0 .3-.3V3.9l-3.738 1z" transform="translate(0 -.127)"/>
    <path id="Path_13916" data-name="Path 13916" class="cls-1" d="M4.731 4.49h-.893a.308.308 0 0 1 0 .216v.349h.893v-.349a.3.3 0 0 1 0-.216z" transform="translate(.497 -.05)"/>
</svg>
