<svg xmlns="http://www.w3.org/2000/svg" width="49.316" height="49.569" viewBox="0 0 49.316 49.569">
    <defs>
        <linearGradient id="e1xz91ha1b" x1=".5" x2=".5" y1="1" gradientUnits="objectBoundingBox">
            <stop offset="0" stop-color="#ffc2cc"/>
            <stop offset="1" stop-color="#fff2f4"/>
        </linearGradient>
        <linearGradient id="1cuxfq6ltc" x1=".5" x2=".5" y1="1" gradientUnits="objectBoundingBox">
            <stop offset="0" stop-color="#fd3a84"/>
            <stop offset="1" stop-color="#ffa68d"/>
        </linearGradient>
        <filter id="hn1m44xnpa" width="47.823" height="47.823" x=".5" y="1.746" filterUnits="userSpaceOnUse">
            <feOffset dy="1"/>
            <feGaussianBlur result="blur" stdDeviation="1.5"/>
            <feFlood flood-color="#bccaec" flood-opacity=".22"/>
            <feComposite in2="blur" operator="in"/>
            <feComposite in="SourceGraphic"/>
        </filter>
    </defs>
    <g>
        <g transform="translate(0 0) translate(0 0)">
            <circle cx="24.658" cy="24.658" r="24.658" fill="#f7f9fd"/>
            <g>
                <g filter="url(#hn1m44xnpa)" transform="translate(4.898 5.718) matrix(1, 0, 0, 1, -4.9, -5.72)">
                    <circle cx="19.411" cy="19.411" r="19.411" fill="#fff" transform="translate(5 5.25)"/>
                </g>
                <g>
                    <g opacity="0.52">
                        <path fill="#fe9c8c" d="M14.291 0A14.291 14.291 0 1 1 0 14.291 14.291 14.291 0 0 1 14.291 0z" opacity="0.3" transform="translate(4.898 5.718) translate(-52.249 8.527) translate(57.717 -4.027)"/>
                    </g>
                    <g>
                        <g>
                            <path fill="url(#e1xz91ha1b)" d="M132.334 74.911a.861.861 0 0 0-.945.29 29.225 29.225 0 0 1-5.443-.035.863.863 0 0 0-.939-.248c-.334.119 7.674.106 7.327-.007zm-3.652-15.256a7.436 7.436 0 1 0 7.617 7.434 7.535 7.535 0 0 0-7.617-7.434zm2 10.1l-2-1.005-1.993 1.02.379-2.159-1.611-1.541 2.231-.329 1-1.956.991 1.956 2.22.328-1.6 1.541z" transform="translate(4.898 5.718) translate(-52.249 8.527) translate(64.392 3.286) translate(-121.065 -59.655)"/>
                        </g>
                    </g>
                    <g>
                        <g>
                            <path fill="url(#1cuxfq6ltc)" d="M82.109 12.355a2.668 2.668 0 0 1 .033-3.287l.378-.529a.845.845 0 0 0-.345-1.239l-.591-.264a2.646 2.646 0 0 1-1.626-2.841l.066-.628a.84.84 0 0 0-.9-.909l-.64.066a2.726 2.726 0 0 1-2.825-1.619l-.25-.594a.822.822 0 0 0-1.232-.364l-.542.4a2.7 2.7 0 0 1-3.268 0l-.509-.38a.829.829 0 0 0-1.248.33l-.263.611a2.622 2.622 0 0 1-2.48 1.635 7.391 7.391 0 0 1-.953-.083.84.84 0 0 0-.9.909l.066.644a2.722 2.722 0 0 1-1.626 2.841l-.594.246a.831.831 0 0 0-.36 1.239l.394.545a2.714 2.714 0 0 1 .016 3.287l-.378.512a.84.84 0 0 0 .328 1.255l.608.264a2.611 2.611 0 0 1 1.593 2.825l-.061.629a.84.84 0 0 0 .9.909l.64-.066a2.686 2.686 0 0 1 2.56 1.156 6.123 6.123 0 0 1 .509 1.057.822.822 0 0 0 1.232.363l.542-.4a2.7 2.7 0 0 1 3.268 0c.456.3.584.545 1 .545a.867.867 0 0 0 .755-.5 5.729 5.729 0 0 1 .542-1.107.268.268 0 0 0 .066-.116 2.682 2.682 0 0 1 2.151-1.024 7.653 7.653 0 0 1 .936.083.843.843 0 0 0 .9-.909l-.066-.661a2.664 2.664 0 0 1 1.642-2.825l.575-.248a.838.838 0 0 0 .328-1.255zm-10.1 4.972a6.608 6.608 0 1 1 6.569-6.608 6.587 6.587 0 0 1-6.569 6.608zm3.252-8.441l-1.741-.265-.772-1.569a.859.859 0 0 0-1.478 0l-.77 1.569-1.741.264a.846.846 0 0 0-.657.562.815.815 0 0 0 .214.842l1.248 1.239-.3 1.735a.833.833 0 0 0 .328.793.8.8 0 0 0 .854.066l1.56-.809 1.56.809a.769.769 0 0 0 .854-.066.833.833 0 0 0 .328-.793l-.3-1.735L75.7 10.29a.815.815 0 0 0 .213-.842.846.846 0 0 0-.652-.562z" transform="translate(4.898 5.718) translate(-52.249 8.527) translate(61.351 0.001) translate(-61.351 -0.001)"/>
                        </g>
                    </g>
                </g>
            </g>
        </g>
    </g>
</svg>
