<svg xmlns="http://www.w3.org/2000/svg" width="25.527" height="17.96" viewBox="0 0 25.527 17.96">
    <path data-name="Path 17508" d="M82.775 134.624c-6.886 0-12.3-7.825-12.523-8.167a1.492 1.492 0 0 1 0-1.627c.227-.335 5.636-8.167 12.523-8.167s12.3 7.832 12.523 8.167a1.492 1.492 0 0 1 0 1.627c-.227.343-5.637 8.167-12.523 8.167zm-10.266-8.98c1.505 1.888 5.6 6.415 10.266 6.415s8.763-4.522 10.266-6.415c-1.505-1.888-5.6-6.415-10.266-6.415s-8.764 4.523-10.266 6.415z" transform="translate(-70.011 -116.664)" style="fill:#4f8aff"/>
    <path data-name="Path 17509" d="M260.923 195.175a4.255 4.255 0 1 1 3.008-1.246 4.255 4.255 0 0 1-3.008 1.246z" transform="translate(-248.159 -181.941)" style="fill:#9fceff"/>
</svg>
