<svg width="10" height="13" viewBox="0 0 10 13" fill="none" xmlns="http://www.w3.org/2000/svg">
<g opacity="0.8">
<path d="M10 6.28265C9.99954 5.97964 9.83082 5.68914 9.53086 5.47489C9.2309 5.26063 8.8242 5.14012 8.4 5.13979H7.2V3.99972C7.19967 3.77247 7.07313 3.41201 6.84816 3.25131C6.62319 3.09062 6.31816 3.00024 6 3H4C3.68184 3.00024 3.37681 3.09062 3.15184 3.25131C2.92687 3.41201 2.80033 3.77247 2.8 3.99972V5.13979H1.6C1.1758 5.14012 0.769099 5.26063 0.469141 5.47489C0.169183 5.68914 0.000463214 5.97964 0 6.28265V6.99693H10V6.28265ZM6.4 5.13979H3.6V3.99972C3.6 3.92394 3.64214 3.85127 3.71716 3.79769C3.79217 3.74411 3.89391 3.71401 4 3.71401H6C6.10609 3.71401 6.20783 3.74411 6.28284 3.79769C6.35786 3.85127 6.4 3.92394 6.4 3.99972V5.13979Z" fill="#4F8AFF"/>
<path d="M10 7.99609H0V11.9961C0 12.5484 0.447715 12.9961 1 12.9961H9C9.55229 12.9961 10 12.5484 10 11.9961V7.99609Z" fill="#B9DCFF"/>
</g>
<path d="M5 1L5 4" stroke="#72A1FF" stroke-linecap="round"/>
</svg>
