<svg xmlns="http://www.w3.org/2000/svg" width="18.86" height="21.55" viewBox="0 0 18.86 21.55">
    <defs>
        <style>
            .cls-3{fill:#fefefe}
        </style>
    </defs>
    <g id="Group_10269" transform="translate(-130.873 -229.64)">
        <path id="Path_14376" fill="#a4cbff" d="M282.581 229.64a3.6 3.6 0 0 0 .731.119 9.283 9.283 0 0 1 4.894 2.406 9.048 9.048 0 0 1 2.815 5 9.232 9.232 0 0 1-2.1 8.072 9.107 9.107 0 0 1-4.468 2.885 1.57 1.57 0 0 0-.975.771c-.323.581-.664 1.152-.99 1.73a1.343 1.343 0 0 1-.5.567h-.421a2.7 2.7 0 0 1-.8-1.136 9.922 9.922 0 0 0 .64-1.08 1.576 1.576 0 0 1 .971-.838 9.247 9.247 0 0 0 2.906-1.414 9.025 9.025 0 0 0 1.675-1.543 9.7 9.7 0 0 0 1.422-2.263 9.228 9.228 0 0 0 .793-3.148 9.868 9.868 0 0 0-.067-2.009 9.173 9.173 0 0 0-.92-2.944 9.5 9.5 0 0 0-5.949-4.844c-.443-.122-.9-.185-1.344-.279l.041-.049z" transform="translate(-141.487 0)"/>
        <path id="Path_14377" fill="#529cff" d="M139.411 230.521c.448.094.9.157 1.344.279a9.5 9.5 0 0 1 5.949 4.844 9.173 9.173 0 0 1 .92 2.944 9.866 9.866 0 0 1 .067 2.009 9.228 9.228 0 0 1-.793 3.148 9.692 9.692 0 0 1-1.422 2.263 9.023 9.023 0 0 1-1.675 1.543 9.247 9.247 0 0 1-2.906 1.414 1.576 1.576 0 0 0-.971.838 9.912 9.912 0 0 1-.64 1.08c-.224-.38-.457-.754-.668-1.141a1.634 1.634 0 0 0-1.023-.808 9.283 9.283 0 0 1-4.731-3.232 9.06 9.06 0 0 1-1.958-4.992 9.21 9.21 0 0 1 2.934-7.659 9.112 9.112 0 0 1 5.26-2.5c.102-.012.209-.02.313-.03zm.044 9.976V241.465a.838.838 0 0 0 1.675-.032c0-.273.015-.548 0-.82a.33.33 0 0 1 .262-.39 3.043 3.043 0 1 0-4.134-2.863.821.821 0 0 0 .311.681.8.8 0 0 0 .869.108.857.857 0 0 0 .505-.828 1.36 1.36 0 0 1 1.9-1.187 1.369 1.369 0 0 1-.522 2.623.837.837 0 0 0-.868.92l.002.823zm.808 4.669h.263a.65.65 0 0 0 .688-.7v-.378a.64.64 0 0 0-.536-.633 2.269 2.269 0 0 0-.793.013.652.652 0 0 0-.508.678c-.026.626.072.843.481 1a1.19 1.19 0 0 0 .405.02z" transform="translate(0 -0.832)"/>
        <path id="Path_14378" d="M246.79 304.752v-.82a.837.837 0 0 1 .868-.92 1.369 1.369 0 0 0 .522-2.623 1.36 1.36 0 0 0-1.9 1.187.857.857 0 0 1-.505.828.8.8 0 0 1-.869-.108.821.821 0 0 1-.311-.681 3.046 3.046 0 1 1 4.134 2.863.33.33 0 0 0-.262.391c.019.272.006.547 0 .82a.838.838 0 0 1-1.675.032v-.042l-.002-.927z" class="cls-3" transform="translate(-107.335 -65.087)"/>
        <path id="Path_14379" d="M283.232 462.235a1.19 1.19 0 0 1-.4-.024c-.409-.153-.507-.37-.481-1a.652.652 0 0 1 .508-.678 2.267 2.267 0 0 1 .793-.013.64.64 0 0 1 .536.633v.378a.65.65 0 0 1-.688.7c-.082.005-.159.004-.268.004z" class="cls-3" transform="translate(-142.969 -217.9)"/>
    </g>
</svg>
