<svg width="26" height="23" viewBox="0 0 26 23" fill="none" xmlns="http://www.w3.org/2000/svg">
<path d="M1.51162 19.9517C0.67811 19.9517 0 20.6298 0 21.4633C0 22.2968 0.67811 22.9749 1.51162 22.9749H15.882V19.9517H1.51162V19.9517Z" fill="#4F8AFF"/>
<path d="M24.2958 19.9517H17.3955V22.9749H24.2958C25.1293 22.9749 25.8074 22.2967 25.8074 21.4633C25.8074 20.6298 25.1293 19.9517 24.2958 19.9517Z" fill="#A5D0FF"/>
<path d="M16.5522 2.51891C16.5812 2.51891 16.6101 2.51967 16.639 2.52002C16.4698 1.97082 16.1699 1.46143 15.7538 1.04528C14.3601 -0.348377 12.0924 -0.348478 10.6985 1.04528L10.066 1.67783L9.43349 1.04528C8.03978 -0.348427 5.772 -0.348427 4.37829 1.04528C2.98458 2.43899 2.98458 4.70672 4.37829 6.10048L9.92502 11.6472C9.69939 10.9541 9.58142 10.2254 9.58142 9.48977C9.58137 5.64599 12.7085 2.51891 16.5522 2.51891Z" fill="#A5D0FF"/>
<path d="M18.1379 14.765C19.2019 14.4447 20.1586 13.7995 20.8571 12.9256C21.633 11.9549 22.0603 10.7346 22.0603 9.48961C22.0603 6.45265 19.5896 3.98193 16.5526 3.98193C13.5156 3.98193 11.0449 6.45265 11.0449 9.48961C11.0449 10.7346 11.4722 11.9549 12.2481 12.9256C12.9466 13.7995 13.9034 14.4447 14.9674 14.765L16.5526 17.4818L18.1379 14.765ZM17.6562 7.12839H19.1033V8.64202H17.6562V7.12839ZM15.4443 7.12839V8.64202H13.9972V7.12839H15.4443ZM13.9871 10.1941H15.5007C15.5007 10.7743 15.9727 11.2463 16.553 11.2463C17.1331 11.2463 17.6051 10.7743 17.6051 10.1941H19.1188C19.1188 11.6089 17.9678 12.7599 16.553 12.7599C15.1382 12.7599 13.9871 11.6089 13.9871 10.1941Z" fill="#4F8AFF"/>
</svg>
