<svg width="13" height="13" viewBox="0 0 13 13" fill="none" xmlns="http://www.w3.org/2000/svg">
<path d="M7.83815 8.3108L5.88281 6.35547" stroke="#FF535D" stroke-width="0.493771" stroke-miterlimit="10" stroke-linecap="round" stroke-linejoin="round"/>
<path d="M7.81862 6.375L5.86328 8.33033" stroke="#FF535D" stroke-width="0.493771" stroke-miterlimit="10" stroke-linecap="round" stroke-linejoin="round"/>
<path d="M5.86254 3.2954H7.83763C8.82517 3.2954 8.82517 2.80163 8.82517 2.30785C8.82517 1.32031 8.3314 1.32031 7.83763 1.32031H5.86254C5.36877 1.32031 4.875 1.32031 4.875 2.30785C4.875 3.2954 5.36877 3.2954 5.86254 3.2954Z" stroke="#FF535D" stroke-width="0.493771" stroke-miterlimit="10" stroke-linecap="round" stroke-linejoin="round"/>
<path d="M8.82528 2.31641C10.4695 2.40529 11.2941 3.01262 11.2941 5.26916V8.23179C11.2941 10.2069 10.8004 11.1944 8.3315 11.1944H5.36888C2.90002 11.1944 2.40625 10.2069 2.40625 8.23179V5.26916C2.40625 3.01756 3.23085 2.40529 4.87511 2.31641" stroke="#FF535D" stroke-width="0.493771" stroke-miterlimit="10" stroke-linecap="round" stroke-linejoin="round"/>
</svg>
