<svg width="20" height="20" viewBox="0 0 20 20" fill="none" xmlns="http://www.w3.org/2000/svg">
<path fill-rule="evenodd" clip-rule="evenodd" d="M3.07692 1H16.9231C17.4739 1 18.0022 1.21882 18.3917 1.60832C18.7812 1.99782 19 2.52609 19 3.07692V16.9231C19 17.4739 18.7812 18.0022 18.3917 18.3917C18.0022 18.7812 17.4739 19 16.9231 19H3.07692C2.52609 19 1.99782 18.7812 1.60832 18.3917C1.21882 18.0022 1 17.4739 1 16.9231V3.07692C1 2.52609 1.21882 1.99782 1.60832 1.60832C1.99782 1.21882 2.52609 1 3.07692 1ZM3.07692 2.38462C2.89331 2.38462 2.71722 2.45755 2.58739 2.58739C2.45755 2.71722 2.38462 2.89331 2.38462 3.07692V11.1963L4.71354 8.86738C4.77256 8.80818 4.8429 8.76147 4.92036 8.73002C4.99781 8.69857 5.08081 8.68302 5.1644 8.68431C5.24799 8.68561 5.33046 8.70371 5.40691 8.73754C5.48336 8.77137 5.55222 8.82023 5.60938 8.88123L10.5178 14.14L14.4058 10.252C14.5227 10.1353 14.681 10.0698 14.8462 10.0698C15.0113 10.0698 15.1696 10.1353 15.2865 10.252L17.6154 12.5809V3.07692C17.6154 2.89331 17.5424 2.71722 17.4126 2.58739C17.2828 2.45755 17.1067 2.38462 16.9231 2.38462H3.07692ZM2.38462 16.9231V12.9575L5.13862 10.2049L10.0429 15.4582L11.9952 17.6154H3.07692C2.89331 17.6154 2.71722 17.5424 2.58739 17.4126C2.45755 17.2828 2.38462 17.1067 2.38462 16.9231ZM16.9231 17.6154H13.6762L11.3611 15.058L14.8462 11.5729L17.6154 14.3422V16.9231C17.6154 17.1067 17.5424 17.2828 17.4126 17.4126C17.2828 17.5424 17.1067 17.6154 16.9231 17.6154ZM8.82308 7.23077C8.82308 6.91863 8.94707 6.61928 9.16779 6.39856C9.38851 6.17784 9.68786 6.05385 10 6.05385C10.3121 6.05385 10.6115 6.17784 10.8322 6.39856C11.0529 6.61928 11.1769 6.91863 11.1769 7.23077C11.1769 7.54291 11.0529 7.84226 10.8322 8.06298C10.6115 8.2837 10.3121 8.40769 10 8.40769C9.68786 8.40769 9.38851 8.2837 9.16779 8.06298C8.94707 7.84226 8.82308 7.54291 8.82308 7.23077ZM10 4.80769C9.6818 4.80769 9.36671 4.87037 9.07273 4.99214C8.77875 5.11391 8.51163 5.29239 8.28663 5.5174C8.06162 5.7424 7.88314 6.00952 7.76137 6.3035C7.6396 6.59748 7.57692 6.91257 7.57692 7.23077C7.57692 7.54897 7.6396 7.86406 7.76137 8.15804C7.88314 8.45202 8.06162 8.71914 8.28663 8.94414C8.51163 9.16915 8.77875 9.34763 9.07273 9.4694C9.36671 9.59117 9.6818 9.65385 10 9.65385C10.6426 9.65385 11.259 9.39856 11.7134 8.94414C12.1678 8.48973 12.4231 7.87341 12.4231 7.23077C12.4231 6.58813 12.1678 5.97181 11.7134 5.5174C11.259 5.06298 10.6426 4.80769 10 4.80769Z" fill="#4785FF"/>
<path d="M19 1L0.999999 19" stroke="#4785FF" stroke-width="1.5" stroke-linecap="round"/>
</svg>
