<svg width="22" height="23" viewBox="0 0 22 23" fill="none" xmlns="http://www.w3.org/2000/svg">
<path d="M21.416 18.6484C21.6012 18.8336 21.748 19.0534 21.8482 19.2953C21.9484 19.5371 22 19.7964 22 20.0582C22 20.32 21.9484 20.5793 21.8482 20.8212C21.748 21.0631 21.6012 21.2829 21.416 21.468C21.2309 21.6531 21.0111 21.8 20.7692 21.9002C20.5273 22.0004 20.2681 22.052 20.0063 22.052C19.7444 22.052 19.4852 22.0004 19.2433 21.9002C19.0014 21.8 18.7816 21.6531 18.5965 21.468L17.4308 20.2514L18.8898 16.1333L21.416 18.6484Z" fill="#4F8AFF"/>
<path d="M16.5641 13.7448L20.6102 17.875L17.649 20.4599L13.7434 16.5643C14.2969 16.2134 13.5851 14.9547 14.0755 14.4687C14.5659 13.9828 16.2176 14.3016 16.5685 13.7437L16.5641 13.7448Z" fill="#4F8AFF"/>
<path d="M2.62889 2.629C3.92075 1.33698 5.57619 0.470025 7.37396 0.144022C9.17173 -0.181982 11.0262 0.0484924 12.6894 0.804641L13.6858 1.33712C15.2718 2.31581 16.5138 3.76406 17.2392 5.48077C17.9647 7.19749 18.1376 9.0975 17.734 10.917C17.3304 12.7365 16.3703 14.3851 14.987 15.6341C13.6037 16.883 11.8659 17.6703 10.0147 17.8866C8.16364 18.1028 6.29112 17.7374 4.65717 16.8409C3.02323 15.9444 1.70895 14.5615 0.896815 12.884C0.0846767 11.2066 -0.18502 9.3179 0.12517 7.48019C0.43536 5.64248 1.31005 3.94694 2.62778 2.629H2.62889Z" fill="#B9DCFF"/>
<path d="M4.03597 4.03937C4.68369 3.39085 5.4529 2.87637 6.29961 2.52535C7.14631 2.17433 8.05391 1.99365 8.97049 1.99365C9.88708 1.99365 10.7947 2.17433 11.6414 2.52535C12.4881 2.87637 13.2573 3.39085 13.905 4.03937C14.0002 4.13457 14.0932 4.2331 14.1829 4.33273L14.8471 5.21834C15.5546 6.32638 15.9345 7.61183 15.943 8.92646C15.9515 10.2411 15.5883 11.5313 14.8952 12.6485C14.2021 13.7656 13.2074 14.664 12.0257 15.2402C10.8441 15.8164 9.5236 16.0469 8.21662 15.9051C6.90964 15.7633 5.66935 15.2549 4.63879 14.4387C3.60823 13.6225 2.82936 12.5316 2.392 11.2918C1.95464 10.052 1.87661 8.71387 2.16689 7.43166C2.45717 6.14946 3.10395 4.97541 4.03265 4.0449L4.03597 4.03937Z" fill="#F1F6FB"/>
<path d="M8.85617 5.39648C6.54989 5.39648 4.58032 6.83099 3.78235 8.85591C4.58032 10.8808 6.54989 12.3153 8.85617 12.3153C11.1625 12.3153 13.132 10.8808 13.93 8.85591C13.132 6.83099 11.1625 5.39648 8.85617 5.39648ZM8.85617 11.1622C7.5831 11.1622 6.54989 10.129 6.54989 8.85591C6.54989 7.58284 7.5831 6.54963 8.85617 6.54963C10.1292 6.54963 11.1625 7.58284 11.1625 8.85591C11.1625 10.129 10.1292 11.1622 8.85617 11.1622Z" fill="#4F8AFF"/>
<path d="M7.47241 8.85594C7.47241 8.09025 8.0905 7.47217 8.85618 7.47217C9.62187 7.47217 10.24 8.09025 10.24 8.85594C10.24 9.62162 9.62187 10.2397 8.85618 10.2397C8.0905 10.2397 7.47241 9.62162 7.47241 8.85594Z" fill="#B9DCFF"/>
</svg>
