<svg width="21" height="21" viewBox="0 0 21 21" fill="none" xmlns="http://www.w3.org/2000/svg">
<g clip-path="url(#clip0_1841_16884)">
<path d="M8.52515 3.2478C8.52515 3.10943 8.58011 2.97673 8.67796 2.87888C8.7758 2.78104 8.9085 2.72607 9.04687 2.72607H11.1338C11.2721 2.72607 11.4048 2.78104 11.5027 2.87888C11.6005 2.97673 11.6555 3.10943 11.6555 3.2478C11.6555 3.38617 11.6005 3.51887 11.5027 3.61671C11.4048 3.71456 11.2721 3.76952 11.1338 3.76952H9.04687C8.9085 3.76952 8.7758 3.71456 8.67796 3.61671C8.58011 3.51887 8.52515 3.38617 8.52515 3.2478Z" fill="#2B345F"/>
<path fill-rule="evenodd" clip-rule="evenodd" d="M14.9757 7.16969C14.7863 7.31838 14.5405 7.43733 14.2442 7.53385C14.2574 7.66811 14.264 7.8041 14.264 7.94184C14.2638 8.50701 14.1488 9.06624 13.926 9.58564C13.7032 10.105 13.3772 10.5738 12.9678 10.9634C12.5585 11.3531 12.0742 11.6555 11.5445 11.8524C11.0147 12.0494 10.4505 12.1366 9.88599 12.109C9.3215 12.0813 8.76851 11.9393 8.26054 11.6916C7.75257 11.4438 7.30021 11.0955 6.93089 10.6677C6.56156 10.2399 6.28297 9.7415 6.112 9.20282C5.94102 8.66413 5.88124 8.09633 5.93626 7.53385C5.63992 7.43733 5.39418 7.31838 5.20532 7.16969C4.96011 6.97665 4.79577 6.71892 4.77646 6.40901C4.7582 6.12154 4.87194 5.87738 4.98567 5.70521C5.0979 5.54209 5.23123 5.39455 5.38218 5.26644C5.45592 5.20244 5.52653 5.14557 5.594 5.09583C5.57383 4.98836 5.55261 4.85966 5.53035 4.70976C5.4384 4.05206 5.39307 3.38868 5.39471 2.72459C5.39471 2.56077 5.46462 2.43869 5.49696 2.38704C5.53766 2.32182 5.58566 2.266 5.62948 2.22113C5.71661 2.12983 5.8293 2.03696 5.95295 1.94775C6.20338 1.76619 6.54772 1.56219 6.95675 1.37124C7.7722 0.990381 8.89235 0.637695 10.0902 0.637695C11.2881 0.637695 12.4082 0.990903 13.2237 1.37124C13.5754 1.532 13.9114 1.72499 14.2275 1.94775C14.3512 2.03696 14.4638 2.13035 14.551 2.22113C14.5948 2.266 14.6428 2.32182 14.6835 2.38704C14.7158 2.43869 14.7857 2.56077 14.7857 2.72459C14.7857 3.5604 14.7179 4.2376 14.6501 4.70976C14.6278 4.86001 14.6066 4.9887 14.5864 5.09583C14.6532 5.1454 14.7257 5.20226 14.7988 5.26644C14.9292 5.38069 15.0784 5.52939 15.1948 5.70521C15.309 5.87738 15.4223 6.12154 15.4045 6.40953C15.3852 6.71892 15.2209 6.97665 14.9757 7.16969ZM6.4392 2.8905C6.44702 3.59379 6.50546 4.16247 6.56337 4.56002C6.57728 4.65393 6.5905 4.73775 6.60302 4.81149H13.5774C13.5903 4.73741 13.6035 4.65358 13.6171 4.56002C13.6745 4.16247 13.7334 3.59379 13.7413 2.8905C13.7006 2.85622 13.6587 2.8235 13.6155 2.79242C13.4272 2.65625 13.1413 2.4846 12.7823 2.31713C12.0608 1.98009 11.094 1.68114 10.0902 1.68114C9.08643 1.68114 8.11967 1.98009 7.39813 2.31713C7.03918 2.4846 6.75328 2.65625 6.56546 2.7919C6.52211 2.82331 6.48 2.85637 6.4392 2.89102M6.32755 5.85494L6.32598 5.85599C6.23591 5.91596 6.14966 5.98147 6.06773 6.05215C5.97486 6.13354 5.90078 6.21284 5.85591 6.28171C5.84548 6.29736 5.8359 6.31355 5.82722 6.33023L5.85017 6.34954C5.92843 6.4111 6.09643 6.50136 6.42407 6.59057C6.48876 6.60796 6.55815 6.62501 6.63224 6.6417L6.63693 6.64275C6.89884 6.70066 7.22126 6.75231 7.61412 6.793C8.1708 6.85091 8.87148 6.889 9.74693 6.89735L10.0902 6.89839C11.7738 6.89839 12.8627 6.79352 13.544 6.64275L13.5482 6.6417C13.6226 6.62535 13.6922 6.60831 13.7569 6.59057C14.084 6.50188 14.2525 6.4111 14.3303 6.34954L14.3532 6.33023C14.3447 6.31356 14.3353 6.29737 14.3251 6.28171C14.2642 6.19662 14.1928 6.1195 14.1127 6.05215C14.031 5.98149 13.9449 5.91597 13.855 5.85599L13.8529 5.85494H6.32755ZM9.94832 7.94184C11.3267 7.94184 12.3952 7.8688 13.2143 7.7415C13.2185 7.80758 13.2206 7.87436 13.2206 7.94184C13.2202 8.35961 13.1362 8.77308 12.9736 9.15788C12.8109 9.54268 12.5729 9.89103 12.2735 10.1824C11.9741 10.4738 11.6194 10.7023 11.2303 10.8544C10.8412 11.0066 10.4257 11.0793 10.008 11.0683C9.59041 11.0574 9.1792 10.9629 8.79865 10.7905C8.4181 10.6182 8.0759 10.3714 7.79222 10.0647C7.50854 9.758 7.28912 9.39764 7.14689 9.00482C7.00466 8.61201 6.94249 8.19471 6.96405 7.7775C7.72734 7.88288 8.70557 7.94184 9.94832 7.94184ZM5.95712 17.7904C5.92982 17.9845 5.91622 18.1803 5.91643 18.3763V18.8981C5.91649 19.0127 5.87875 19.1243 5.80906 19.2154C5.73937 19.3064 5.6416 19.372 5.53088 19.402C5.42017 19.4319 5.30267 19.4245 5.19657 19.381C5.09047 19.3374 5.00168 19.2601 4.94394 19.161C4.59215 19.3512 4.18089 19.3996 3.79458 19.2961L2.78661 19.0259C2.38579 18.9183 2.04412 18.6559 1.83671 18.2965C1.62929 17.937 1.57312 17.5099 1.68055 17.1091L2.08541 15.5971C2.19288 15.1962 2.4552 14.8544 2.81466 14.6469C3.17413 14.4394 3.6013 14.3831 4.00222 14.4905L5.01019 14.7603C5.36079 14.8542 5.65192 15.0602 5.85434 15.3295C6.3374 14.6573 6.97361 14.1098 7.71031 13.7324C8.44701 13.355 9.263 13.1585 10.0907 13.1591C10.9181 13.1587 11.7336 13.3552 12.4699 13.7324C13.2062 14.1096 13.8421 14.6567 14.3251 15.3284C14.5351 15.0507 14.8318 14.8509 15.1682 14.7608L16.1761 14.491C16.577 14.3836 17.0041 14.4398 17.3636 14.6472C17.723 14.8546 17.9854 15.1963 18.093 15.5971L18.4983 17.1096C18.5515 17.3081 18.5651 17.5152 18.5382 17.719C18.5113 17.9228 18.4446 18.1193 18.3418 18.2973C18.239 18.4753 18.1021 18.6313 17.939 18.7564C17.7759 18.8815 17.5898 18.9732 17.3912 19.0264L16.3838 19.2961C15.9982 19.3996 15.5876 19.3519 15.236 19.1626C15.1781 19.2615 15.0892 19.3386 14.983 19.382C14.8769 19.4253 14.7594 19.4325 14.6487 19.4024C14.5381 19.3723 14.4405 19.3066 14.3709 19.2154C14.3014 19.1243 14.2638 19.0127 14.264 18.8981V18.3763C14.2642 18.1803 14.2506 17.9845 14.2233 17.7904L11.5083 18.5182C11.3822 18.788 11.1819 19.0162 10.9307 19.1761C10.6795 19.336 10.388 19.4209 10.0902 19.4209C9.79248 19.4209 9.50091 19.336 9.24974 19.1761C8.99857 19.0162 8.79821 18.788 8.67218 18.5182L5.95712 17.7904ZM8.58766 17.4148C8.65741 17.1768 8.78272 16.9588 8.95325 16.7788C9.12378 16.5987 9.33466 16.4617 9.5685 16.3792V14.2349C8.83672 14.3274 8.14248 14.612 7.5563 15.0598C6.97011 15.5075 6.51288 16.1024 6.23103 16.784L8.58766 17.4148ZM13.9494 16.7835C13.6675 16.102 13.2102 15.5072 12.6241 15.0595C12.0379 14.6119 11.3437 14.3274 10.612 14.2349V16.3786C11.0836 16.5456 11.4519 16.9317 11.5928 17.4153L13.9494 16.7835ZM15.0696 16.4079C15.0518 16.3417 15.0473 16.2726 15.0562 16.2047C15.0651 16.1368 15.0874 16.0713 15.1216 16.0119C15.1559 15.9526 15.2015 15.9005 15.2558 15.8588C15.3102 15.8171 15.3722 15.7865 15.4384 15.7688L16.4464 15.4985C16.58 15.4628 16.7223 15.4816 16.842 15.5508C16.9618 15.6199 17.0492 15.7338 17.085 15.8674L17.4904 17.3793C17.5081 17.4455 17.5127 17.5145 17.5037 17.5825C17.4948 17.6504 17.4726 17.7159 17.4383 17.7753C17.4041 17.8346 17.3585 17.8866 17.3041 17.9284C17.2497 17.9701 17.1877 18.0007 17.1215 18.0184L16.1135 18.2887C16.0473 18.3064 15.9783 18.3109 15.9103 18.302C15.8423 18.293 15.7768 18.2708 15.7174 18.2364C15.6581 18.2021 15.6061 18.1565 15.5644 18.1021C15.5227 18.0476 15.4921 17.9855 15.4744 17.9193L15.0696 16.4079ZM3.73249 15.4985C3.66627 15.4807 3.59719 15.4761 3.52919 15.485C3.46119 15.4938 3.39561 15.5161 3.3362 15.5503C3.27679 15.5846 3.22472 15.6302 3.18297 15.6846C3.14121 15.739 3.11059 15.8011 3.09286 15.8674L2.688 17.3788C2.67025 17.445 2.6657 17.514 2.67463 17.582C2.68356 17.6499 2.70579 17.7154 2.74004 17.7748C2.77429 17.8341 2.8199 17.8861 2.87426 17.9278C2.92862 17.9696 2.99067 18.0002 3.05686 18.0179L4.06483 18.2882C4.13101 18.3059 4.20005 18.3105 4.26799 18.3015C4.33593 18.2926 4.40144 18.2704 4.46079 18.2361C4.52014 18.2019 4.57216 18.1563 4.61388 18.1019C4.6556 18.0475 4.6862 17.9855 4.70394 17.9193L5.1088 16.4073C5.12663 16.3411 5.13123 16.272 5.12234 16.204C5.11345 16.136 5.09124 16.0705 5.05698 16.0111C5.02272 15.9516 4.97709 15.8996 4.92269 15.8578C4.86829 15.8161 4.80619 15.7854 4.73994 15.7677L3.73249 15.4985ZM10.612 17.8546C10.612 17.993 10.557 18.1257 10.4591 18.2235C10.3613 18.3214 10.2286 18.3763 10.0902 18.3763C9.95186 18.3763 9.81915 18.3214 9.72131 18.2235C9.62347 18.1257 9.5685 17.993 9.5685 17.8546C9.5685 17.7162 9.62347 17.5835 9.72131 17.4857C9.81915 17.3878 9.95186 17.3329 10.0902 17.3329C10.2286 17.3329 10.3613 17.3878 10.4591 17.4857C10.557 17.5835 10.612 17.7162 10.612 17.8546Z" fill="#2B345F"/>
</g>
<defs>
<clipPath id="clip0_1841_16884">
<rect width="20" height="20" fill="white" transform="translate(0.0900879 0.0297852)"/>
</clipPath>
</defs>
</svg>
