<svg width="21" height="21" viewBox="0 0 21 21" fill="none" xmlns="http://www.w3.org/2000/svg">
<path d="M18.2001 8.72971L17.3835 12.213C16.6835 15.2214 15.3001 16.438 12.7001 16.188C12.2835 16.1547 11.8335 16.0797 11.3501 15.963L9.95013 15.6297C6.47513 14.8047 5.40013 13.088 6.2168 9.60471L7.03347 6.11304C7.20013 5.40471 7.40013 4.78804 7.65013 4.27971C8.62513 2.26304 10.2835 1.72138 13.0668 2.37971L14.4585 2.70471C17.9501 3.52138 19.0168 5.24638 18.2001 8.72971Z" stroke="#2B345F" stroke-linecap="round" stroke-linejoin="round"/>
<path d="M12.7002 16.1876C12.1835 16.5376 11.5335 16.8293 10.7419 17.0876L9.42519 17.521C6.11685 18.5876 4.37519 17.696 3.30019 14.3876L2.23352 11.096C1.16685 7.78763 2.05019 6.03763 5.35852 4.97096L6.67519 4.53763C7.01685 4.4293 7.34185 4.33763 7.65019 4.2793C7.40019 4.78763 7.20019 5.4043 7.03352 6.11263L6.21685 9.6043C5.40019 13.0876 6.47519 14.8043 9.95019 15.6293L11.3502 15.9626C11.8335 16.0793 12.2835 16.1543 12.7002 16.1876Z" stroke="#2B345F" stroke-linecap="round" stroke-linejoin="round"/>
<path d="M10.6836 7.1377L14.7253 8.1627" stroke="#2B345F" stroke-linecap="round" stroke-linejoin="round"/>
<path d="M9.86694 10.3633L12.2836 10.9799" stroke="#2B345F" stroke-linecap="round" stroke-linejoin="round"/>
</svg>
