<svg width="40" height="40" viewBox="0 0 40 40" fill="none" xmlns="http://www.w3.org/2000/svg">
<path d="M20.25 27.5V31" stroke="#4785FF" stroke-width="2" stroke-linecap="round" stroke-linejoin="round"/>
<path d="M11.9158 36.6672H28.5824V35.0006C28.5824 33.1672 27.0824 31.6672 25.2491 31.6672H15.2491C13.4158 31.6672 11.9158 33.1672 11.9158 35.0006V36.6672V36.6672Z" stroke="#4785FF" stroke-width="2" stroke-miterlimit="10"/>
<path d="M10.2502 36.6672H30.2502" stroke="#4785FF" stroke-width="2" stroke-linecap="round" stroke-linejoin="round"/>
<path d="M19.9994 26.6661C13.5494 26.6661 8.33276 21.4494 8.33276 14.9994V9.99943C8.33276 6.3161 11.3161 3.33276 14.9994 3.33276H24.9994C28.6828 3.33276 31.6661 6.3161 31.6661 9.99943V14.9994C31.6661 21.4494 26.4494 26.6661 19.9994 26.6661Z" stroke="#4785FF" stroke-width="2" stroke-linecap="round" stroke-linejoin="round"/>
<path d="M9.11657 19.4167C7.86657 19.0167 6.76657 18.2833 5.8999 17.4167C4.3999 15.75 3.3999 13.75 3.3999 11.4167C3.3999 9.08333 5.23324 7.25 7.56657 7.25H8.6499C8.31657 8.01667 8.1499 8.86667 8.1499 9.75V14.75C8.1499 16.4167 8.4999 17.9833 9.11657 19.4167Z" stroke="#4785FF" stroke-width="2" stroke-linecap="round" stroke-linejoin="round"/>
<path d="M30.8826 19.4164C32.1326 19.0164 33.2326 18.2831 34.0992 17.4164C35.5992 15.7498 36.5992 13.7498 36.5992 11.4164C36.5992 9.08309 34.7659 7.24976 32.4326 7.24976H31.3492C31.6826 8.01642 31.8492 8.86642 31.8492 9.74976V14.7498C31.8492 16.4164 31.4992 17.9831 30.8826 19.4164Z" stroke="#4785FF" stroke-width="2" stroke-linecap="round" stroke-linejoin="round"/>
</svg>
