<svg width="124" height="152" viewBox="0 0 124 152" fill="none" xmlns="http://www.w3.org/2000/svg">
<g clip-path="url(#clip0_215_8029)">
<path d="M42.5 118H75.5V145H42.5V118Z" fill="white"/>
<path d="M97.3473 41.0197C95.1704 49.856 92.6711 53.8283 91.3811 55.4496C90.8167 56.1792 90.4136 56.4224 90.4136 56.4224C90.0911 55.7739 89.688 55.2064 89.3655 54.5579C87.108 50.7477 84.2861 46.6133 81.5449 43.0464C80.4162 41.5872 79.2874 40.128 78.1587 38.912C76.2237 36.6421 74.45 34.9397 73.0794 34.048L69.29 34.8587C69.29 34.8587 76.6268 18.0779 92.7517 14.8352C92.7517 14.8352 100.411 28.2112 97.3473 41.0197Z" fill="white"/>
<path d="M35.5085 42.7221L32.7672 43.3707C32.7672 43.3707 31.8804 46.7755 30.9935 51.4773C29.9454 56.6656 28.8973 63.5563 28.6554 69.312C28.6554 70.0416 28.6554 70.6901 28.6554 71.3387C28.091 71.0955 27.446 70.8523 26.801 70.528C23.9792 69.1499 20.6736 67.1232 17.368 63.7995C7.45124 54.0715 6 32.5077 6 32.5077C22.1248 28.6165 35.5085 42.7221 35.5085 42.7221Z" fill="white"/>
<path d="M35.5085 42.7221L32.7672 43.3707C32.7672 43.3707 31.8804 46.7755 30.9935 51.4773C30.4291 50.6667 29.7841 49.856 29.2198 49.1264C19.2224 36.8043 7.93498 34.5344 7.93498 34.5344C7.93498 34.5344 9.38622 45.9648 14.3849 56.2603C17.4486 62.6645 23.0923 66.4747 26.8817 68.4203C27.5267 68.7445 28.1717 69.0688 28.736 69.312C28.736 70.0416 28.736 70.6901 28.736 71.3387C28.1717 71.0955 27.5267 70.8523 26.8817 70.528C24.0598 69.1499 20.7542 67.1232 17.4486 63.7995C7.45124 54.0715 6 32.5077 6 32.5077C12.0468 31.0485 17.7711 32.1024 22.4473 34.048C30.2679 37.2096 35.5085 42.7221 35.5085 42.7221Z" fill="#F9F9FC"/>
<path d="M28.6551 69.3931C28.6551 70.1227 28.6551 70.7712 28.6551 71.4197C28.0908 71.1765 27.4458 70.9333 26.8008 70.6091V68.5013C27.5264 68.8256 28.0908 69.1499 28.6551 69.3931Z" fill="url(#paint0_linear_215_8029)"/>
<path d="M35.5084 42.7221L32.7671 43.3707C32.7671 43.3707 31.8803 46.7755 30.9934 51.4773C30.429 50.6667 29.7841 49.856 29.2197 49.1264L29.7841 47.5051C27.9297 46.4512 27.6878 40.6144 27.6878 40.6144C27.6878 40.6144 26.3172 40.5333 23.8179 38.2635C22.2054 36.8043 22.2054 35.1019 22.4473 34.1291C30.2678 37.2096 35.5084 42.7221 35.5084 42.7221Z" fill="url(#paint1_linear_215_8029)"/>
<path d="M97.3473 41.0197C95.1704 49.856 92.7517 53.7472 91.3811 55.3685C90.8167 56.0981 90.4136 56.3413 90.4136 56.3413C90.0911 55.6928 89.688 55.1253 89.3655 54.4768C89.688 53.9093 90.1717 53.2608 90.5748 52.5312C92.3486 49.4507 94.4448 44.6677 95.4123 38.3445C97.1054 26.8331 92.1067 17.7536 92.1067 17.7536C85.4955 23.4283 81.5449 30.9675 79.6099 35.3451C78.7231 37.4528 78.2393 38.8309 78.2393 38.912C76.3043 36.6421 74.5306 34.9397 73.16 34.048L69.29 34.8587C69.29 34.8587 71.0638 30.7243 74.8531 26.1845C78.7231 21.5637 84.6086 16.4565 92.7517 14.8352C92.7517 14.8352 100.411 28.2112 97.3473 41.0197Z" fill="#F9F9FC"/>
<path d="M91.3808 55.3685C90.7358 56.0981 90.4133 56.3413 90.4133 56.3413C90.0908 55.6928 89.6877 55.1253 89.3652 54.4768C89.6877 53.9093 90.1715 53.2608 90.5746 52.5312C90.5746 52.5312 91.139 54.1525 91.3808 55.3685Z" fill="url(#paint2_linear_215_8029)"/>
<path d="M79.5293 35.3451C78.6424 37.4528 78.1587 38.8309 78.1587 38.912C76.2237 36.6421 74.45 34.9397 73.0794 34.048L69.29 34.8587C69.29 34.8587 71.0638 30.7243 74.8531 26.1845C75.9012 26.9952 78.8843 29.8325 78.2393 34.048L79.5293 35.3451Z" fill="url(#paint3_linear_215_8029)"/>
<path d="M109.441 74.8245C103.233 78.5536 100.169 79.7696 100.169 84.7147H95.4932V81.8773C95.4932 81.8773 95.6544 81.0667 96.2188 79.9317C96.5413 79.2832 97.025 78.5536 97.5894 77.824C97.9925 77.3376 98.4763 76.8512 98.96 76.3648C99.6856 75.7163 100.492 75.1488 101.459 74.5813C102.427 74.0139 103.394 73.4464 104.281 72.7979C105.571 71.9061 106.7 70.9333 107.667 69.7984C108.393 68.9067 109.038 68.0149 109.522 66.9611C109.683 66.6368 109.764 66.3125 109.844 65.9883C110.328 64.5291 110.328 62.8267 109.844 60.9621C109.844 60.8811 109.764 60.7189 109.764 60.6379C109.28 59.0976 108.635 57.4763 107.909 55.936C107.184 54.3147 106.377 52.6933 105.732 51.072C104.442 47.8293 103.797 44.9109 105.491 42.8032C105.894 42.3168 106.297 41.9115 106.861 41.6683C107.264 41.5061 107.667 41.344 108.071 41.344C111.537 40.9387 116.214 45.6405 117.262 54.3957C118.874 65.5829 115.649 71.0955 109.441 74.8245Z" fill="white"/>
<path d="M85.6565 75.5541C85.6565 75.5541 94.4445 79.7696 98.0726 84.7147H67.5967L85.6565 75.5541Z" fill="#7FA4EE"/>
<path d="M69.2898 27.5627C69.2898 27.5627 63.5655 37.8581 46.4731 38.7499C42.3613 38.912 37.4432 38.5877 31.8802 37.3717V32.9941C31.8802 32.9941 27.2846 32.1024 27.1233 29.4272C26.9621 26.752 29.2196 12.4843 32.767 6.24214C36.3145 3.49991e-06 43.8125 -0.810663 46.6344 0.56747C47.8438 1.13494 50.9075 4.78294 54.6162 9.40374C59.373 15.3216 65.178 22.7797 69.2898 27.5627Z" fill="#A5B2FF"/>
<path d="M46.4729 38.6688C42.361 38.912 37.443 38.5877 31.8799 37.3717V32.9941C31.8799 32.9941 42.1192 23.1851 44.941 14.2677C44.941 14.2677 44.941 28.4544 46.4729 38.6688Z" fill="#7FA4EE"/>
<path d="M93.7999 67.5285C91.5424 74.6624 76.8688 84.9579 65.662 86.5792C54.3747 88.2005 37.0405 87.2277 31.1549 80.7424C30.5905 80.0939 30.1068 79.4453 29.7843 78.7157C28.978 76.9323 28.6555 74.3381 28.5749 71.4197C28.4943 64.1237 30.268 54.4768 31.558 48.5589C32.203 45.3973 32.7674 43.3707 32.7674 43.3707L35.5086 42.7221L69.2901 34.8587L73.0795 33.9669C74.2082 34.6965 75.5788 35.9936 77.1107 37.6149C81.3838 42.2357 86.8662 49.9371 90.4137 56.2603C92.4293 59.9083 93.8805 63.1509 94.1224 65.2587C94.203 65.9883 94.0417 66.7989 93.7999 67.5285Z" fill="#CCD4FE"/>
<path d="M77.1103 37.696C75.0141 42.3979 63.0817 48.2347 50.9074 49.4507C38.4913 50.6667 31.5576 48.64 31.5576 48.64C32.2026 45.4784 32.767 43.4517 32.767 43.4517L35.5082 42.8032L69.2897 34.8587L73.0791 33.9669C74.2078 34.6965 75.5784 35.9936 77.1103 37.696Z" fill="url(#paint4_linear_215_8029)"/>
<path d="M93.7993 67.5285C87.9137 65.3397 81.7057 65.1776 81.7057 65.1776V67.6096C81.7057 67.6096 70.257 65.0155 59.6953 67.6096C49.1335 70.2037 40.1036 77.9051 40.1036 77.9051L40.6679 74.9867C36.798 76.608 31.4768 80.5803 31.1543 80.8235C31.4768 80.4992 37.2817 73.9328 42.0386 72.0683V73.2032C42.0386 73.2032 51.1491 67.6096 58.8084 65.664C66.4677 63.7184 77.9969 64.448 77.9969 64.448L77.7551 62.8267C77.6744 62.7456 88.3975 62.9888 93.7993 67.5285Z" fill="#EFF0F6"/>
<path d="M104.657 107.35L73.7372 127.031V128.185C73.9564 131.465 72.8749 134.698 70.7268 137.186C68.5788 139.673 65.5373 141.214 62.2611 141.475C58.9849 141.214 55.9434 139.673 53.7954 137.186C51.6474 134.698 50.5658 131.465 50.785 128.185V127.031L19.8591 101.35C17.0727 100.193 14.5169 98.5452 12.3135 96.4845V157.732H112.203V102.484C110 104.545 107.444 106.193 104.657 107.35Z" fill="#F9F9FC"/>
<path d="M12 84V94.9242C12 104.621 13.5598 113.27 21.5334 116.508L50.6686 128.333V120.378C50.6686 119.273 51.564 118.378 52.6686 118.378H71.8574C72.9619 118.378 73.8574 119.273 73.8574 120.378V128.333L102.993 116.508C110.966 113.27 112.16 104.621 112.16 94.9242V84H12Z" fill="#A5B2FF"/>
<path d="M68.2961 118.5H56.2344V128.185C56.2344 129.785 56.8698 131.319 58.0008 132.45C59.1318 133.581 60.6658 134.216 62.2653 134.216C63.8647 134.216 65.3987 133.581 66.5297 132.45C67.6607 131.319 68.2961 129.785 68.2961 128.185V118.5Z" fill="white"/>
<path d="M43.8128 71.0955C48.9335 71.0955 53.0846 66.9216 53.0846 61.7728C53.0846 56.624 48.9335 52.4501 43.8128 52.4501C38.6921 52.4501 34.541 56.624 34.541 61.7728C34.541 66.9216 38.6921 71.0955 43.8128 71.0955Z" fill="#7FA4EE"/>
<path d="M53.568 62.4213C53.568 67.5285 49.4561 71.744 44.2962 71.744C39.1362 71.744 35.0244 67.5285 35.0244 62.4213C35.0244 57.3141 39.0556 53.2608 44.0543 53.0987C44.1349 53.0987 44.1349 53.0987 44.2156 53.0987C48.8918 53.0987 52.7617 56.5845 53.3261 61.0432C53.4874 61.5296 53.568 61.9349 53.568 62.4213Z" fill="#F9F9FC"/>
<path d="M45.5306 67.1328C49.1373 67.1328 52.0611 64.1929 52.0611 60.5664C52.0611 56.9399 49.1373 54 45.5306 54C41.9238 54 39 56.9399 39 60.5664C39 64.1929 41.9238 67.1328 45.5306 67.1328Z" fill="#7FA4EE"/>
<path d="M46.4594 62.0896C48.6412 62.0896 50.41 60.3111 50.41 58.1173C50.41 55.9235 48.6412 54.1451 46.4594 54.1451C44.2775 54.1451 42.5088 55.9235 42.5088 58.1173C42.5088 60.3111 44.2775 62.0896 46.4594 62.0896Z" fill="#362ABE"/>
<path d="M47.5244 58.1984C48.6376 58.1984 49.54 57.291 49.54 56.1717C49.54 55.0524 48.6376 54.1451 47.5244 54.1451C46.4112 54.1451 45.5088 55.0524 45.5088 56.1717C45.5088 57.291 46.4112 58.1984 47.5244 58.1984Z" fill="white"/>
<path d="M69.2903 64.6101C74.411 64.6101 78.5621 60.4362 78.5621 55.2875C78.5621 50.1387 74.411 45.9648 69.2903 45.9648C64.1697 45.9648 60.0186 50.1387 60.0186 55.2875C60.0186 60.4362 64.1697 64.6101 69.2903 64.6101Z" fill="#7FA4EE"/>
<path d="M59.4541 55.936C59.4541 61.0432 63.5659 65.2587 68.7259 65.2587C73.8858 65.2587 77.9977 61.0432 77.9977 55.936C77.9977 50.8288 73.9664 46.7755 68.9678 46.6133C68.8871 46.6133 68.8871 46.6133 68.8065 46.6133C64.1303 46.6133 60.2603 50.0992 59.696 54.5579C59.5347 55.0443 59.4541 55.5307 59.4541 55.936Z" fill="#F9F9FC"/>
<path d="M39.2175 99.0635C36.1538 99.0635 33.9769 98.3339 32.6063 97.1179C29.5426 94.6048 29.7038 90.1461 29.8651 87.7141C30.0263 86.0117 30.2682 84.3093 30.9938 82.9312C31.8001 81.3909 33.1707 80.3371 35.5088 80.0128C35.5088 80.0128 44.6193 78.5536 46.4737 88.8491C48.4086 99.0635 39.2175 99.0635 39.2175 99.0635Z" fill="#F9F9FC"/>
<path d="M87.3498 93.3077C85.9792 94.848 83.7218 95.8208 80.0937 95.8208C80.0937 95.8208 70.9025 95.8208 72.7569 85.6064C74.6112 75.392 83.7218 76.7701 83.7218 76.7701C85.5761 77.0133 86.8661 77.824 87.6723 78.8779C88.8011 80.3371 89.2042 82.3637 89.3654 84.4715C89.6073 86.7413 89.7686 90.7136 87.3498 93.3077Z" fill="#F9F9FC"/>
<path d="M93.7993 67.5285C91.5418 74.6624 76.8682 84.9579 65.6614 86.5792C54.3741 88.2005 37.0399 87.2277 31.1543 80.7424C31.1543 80.7424 36.7174 76.608 40.6679 74.9056L40.1036 77.824C40.1036 77.824 49.1335 70.1227 59.6953 67.5285C70.257 64.9344 81.7057 67.5285 81.7057 67.5285V65.0965C81.7863 65.1776 87.9137 65.3397 93.7993 67.5285Z" fill="white"/>
<path d="M75.0142 37.2907C72.5954 39.9659 62.6787 44.4245 49.5369 46.4512C36.3145 48.4779 30.9127 46.0459 30.9127 46.0459C30.2677 45.0731 29.9452 43.9381 29.8646 42.8032C29.7034 40.3712 30.5902 37.9392 31.8802 37.3717C33.7346 36.5611 40.9908 37.1285 50.8269 35.5883C60.6631 34.1291 66.5486 26.752 70.9023 27.4816C71.3861 27.5627 71.7892 27.7248 72.2729 27.8869C75.6592 29.5893 77.191 34.9397 75.0142 37.2907Z" fill="white"/>
<path d="M27.9301 37.8581C30.5127 37.8581 32.6063 35.753 32.6063 33.1563C32.6063 30.5595 30.5127 28.4544 27.9301 28.4544C25.3475 28.4544 23.2539 30.5595 23.2539 33.1563C23.2539 35.753 25.3475 37.8581 27.9301 37.8581Z" fill="white"/>
<path d="M32.2839 33.1563C32.2839 35.5883 30.3489 37.4528 28.0108 37.4528C25.9146 37.4528 24.2215 35.9936 23.8184 34.048C24.544 34.7776 25.5921 35.1829 26.7208 35.1829C29.1396 35.1829 30.9939 33.2373 30.9939 30.8864C30.9939 30.5621 30.9939 30.2379 30.9133 29.9947C31.7195 30.7243 32.2839 31.8592 32.2839 33.1563Z" fill="white"/>
<path d="M109.441 74.8245C103.233 78.5536 100.169 79.0549 100.169 84H95.4932V81.8773C95.4932 81.8773 95.6544 81.0667 96.2188 79.9317C96.5413 79.2832 97.025 78.5536 97.5894 77.824C102.024 76.608 111.779 73.1221 113.069 66.9611C114.682 58.9355 112.827 55.3685 112.827 55.3685L115.649 56.4224C115.649 56.4224 115.891 47.1808 108.071 41.4251C111.537 41.0197 116.214 45.7216 117.262 54.4768C118.874 65.5829 115.649 71.0955 109.441 74.8245Z" fill="#F9F9FC"/>
<path d="M65.5817 72.4736C65.3398 74.0139 64.0498 76.0405 60.1799 76.6891C56.8743 77.3376 55.1812 75.7973 54.3749 74.5813C53.9718 73.9328 53.8105 73.4464 53.8105 73.4464C53.8105 73.4464 57.358 70.8523 59.293 70.7712C61.228 70.6901 65.4204 71.0144 65.4204 71.0144C65.6623 71.4197 65.6623 71.9061 65.5817 72.4736Z" fill="white"/>
<path d="M68.2418 67.6096C68.2418 67.8528 68.2418 68.0149 68.1612 68.1771C67.5162 72.6357 59.2119 71.5008 59.2119 71.5008C57.4382 74.176 50.3432 74.3381 49.9401 70.6901V70.6091C49.6982 67.6096 53.7295 66.0693 54.9388 65.664C55.1807 65.5829 55.2613 65.5829 55.2613 65.5829C55.2613 65.5829 57.9219 64.7723 60.905 64.5291C64.3719 64.1237 68.2418 64.448 68.2418 67.6096Z" fill="#F9F9FC"/>
<path d="M68.2421 68.2581C67.5165 72.6357 59.2122 71.5008 59.2122 71.5008C57.4385 74.176 50.3436 74.3381 49.9404 70.6901V70.6091C50.1017 70.7712 51.3917 72.2304 54.536 71.744C57.8416 71.1765 58.4866 69.9605 58.4866 69.9605C58.4866 69.9605 58.406 68.5824 57.9222 67.9339C57.9222 67.9339 56.6322 67.6096 55.5841 66.5557C55.2616 66.2315 55.0198 65.9072 54.8585 65.664C55.1004 65.5829 55.181 65.5829 55.181 65.5829C55.181 65.5829 57.8416 64.7723 60.8247 64.5291C60.8247 65.1776 60.6635 66.7179 59.051 67.7717C59.051 67.7717 59.051 68.9067 59.5347 69.7173C59.5347 69.7173 63.0822 71.1765 66.7909 69.0688C67.4359 68.8256 67.839 68.5013 68.2421 68.2581Z" fill="#EFF0F6"/>
<path d="M60.5017 64.8533C60.1792 65.8261 59.5342 67.2043 58.4055 67.4475C57.2767 67.6907 56.0674 66.6368 55.4224 65.9072C55.2611 65.7451 55.1805 65.4208 55.2611 65.1776C55.2611 64.9344 55.4224 64.7723 55.6642 64.6101C57.1155 63.7184 58.8086 63.7184 59.8567 63.7995C60.1792 63.7995 60.4211 64.0427 60.5017 64.2859C60.5823 64.448 60.5823 64.6912 60.5017 64.8533Z" fill="white"/>
<path d="M65.5818 72.4736C65.3399 74.0139 64.0499 76.0405 60.1799 76.6891C56.8743 77.3376 55.1812 75.7973 54.375 74.5813C54.4556 74.6624 55.7456 75.6352 59.9381 74.7435C64.2112 73.8517 65.5011 72.5547 65.5818 72.4736Z" fill="#EFF0F6"/>
<path d="M75.0148 37.2907C72.596 39.9659 62.6793 44.4245 49.5375 46.4512C36.3152 48.4779 30.9133 46.0459 30.9133 46.0459C30.2684 45.0731 29.9459 43.9381 29.8652 42.8032C30.2684 42.8843 35.912 43.9381 41.072 43.6949L39.8626 42.8032C39.8626 42.8032 45.1838 43.6949 55.9068 40.9387C66.6299 38.1824 71.3867 33.1563 71.3867 33.1563L68.4036 34.048C68.4036 34.048 70.3386 32.1024 72.3542 27.968C75.6598 29.5893 77.1916 34.9397 75.0148 37.2907Z" fill="#F9F9FC"/>
<path d="M109.763 66.9611C109.924 66.6368 110.005 66.3125 110.085 65.9883C110.569 64.5291 110.569 62.8267 110.085 60.9621C110.085 60.8811 110.005 60.7189 110.005 60.6379C109.521 59.0976 108.876 57.4763 108.15 55.936C107.425 54.3147 106.619 52.6933 105.974 51.072C104.684 47.8293 104.039 44.9109 105.732 42.8032C106.135 42.3168 106.538 41.9115 107.102 41.6683C107.102 41.6683 106.457 46.3701 109.118 49.3696C111.698 52.4501 114.117 63.1509 109.763 66.9611Z" fill="#F9F9FC"/>
</g>
<defs>
<linearGradient id="paint0_linear_215_8029" x1="11.8799" y1="66.8318" x2="40.2138" y2="72.3464" gradientUnits="userSpaceOnUse">
<stop stop-color="#F4F5F9"/>
<stop offset="1" stop-color="#F4F5F9"/>
</linearGradient>
<linearGradient id="paint1_linear_215_8029" x1="16.9341" y1="40.8631" x2="45.2682" y2="46.3777" gradientUnits="userSpaceOnUse">
<stop stop-color="#F1F3F7" stop-opacity="0"/>
<stop offset="1" stop-color="#EFF1F6"/>
</linearGradient>
<linearGradient id="paint2_linear_215_8029" x1="94" y1="53" x2="87.3131" y2="57.8765" gradientUnits="userSpaceOnUse">
<stop stop-color="#EAECF6" stop-opacity="0"/>
<stop offset="1" stop-color="#EAECF6"/>
</linearGradient>
<linearGradient id="paint3_linear_215_8029" x1="79" y1="30" x2="74" y2="33" gradientUnits="userSpaceOnUse">
<stop stop-color="#EBEDF3" stop-opacity="0"/>
<stop offset="1" stop-color="#EBEDF3"/>
</linearGradient>
<linearGradient id="paint4_linear_215_8029" x1="55.4803" y1="50.3098" x2="53.5383" y2="38.2012" gradientUnits="userSpaceOnUse">
<stop stop-color="#EEF0F5"/>
<stop offset="1" stop-color="#EFF0F6"/>
</linearGradient>
<clipPath id="clip0_215_8029">
<rect width="124" height="152" fill="white"/>
</clipPath>
</defs>
</svg>
