<svg width="58" height="58" viewBox="0 0 58 58" fill="none" xmlns="http://www.w3.org/2000/svg">
<circle cx="29" cy="29" r="29" fill="#DBEBFF"/>
<path d="M30.3139 34.7435C30.1714 34.907 29.9659 35 29.7499 35C29.5339 35 29.3284 34.9055 29.1859 34.7435L23.9359 28.7435C23.7409 28.523 23.6959 28.208 23.8174 27.9395C23.9389 27.671 24.2059 27.5 24.4999 27.5H27.4999V17.75C27.4999 17.336 27.8359 17 28.2499 17H31.2499C31.6639 17 31.9999 17.336 31.9999 17.75V27.5H34.9999C35.2939 27.5 35.5609 27.6725 35.6824 27.9395C35.8054 28.208 35.7574 28.5215 35.5639 28.7435L30.3139 34.7435Z" fill="#79A6FF"/>
<path d="M21.5 33.5V38H38V33.5H41V39.5C41 40.3295 40.328 41 39.5 41H20C19.1705 41 18.5 40.3295 18.5 39.5V33.5H21.5Z" fill="#79A6FF"/>
</svg>
