<svg width="58" height="58" viewBox="0 0 58 58" fill="none" xmlns="http://www.w3.org/2000/svg">
<circle cx="29" cy="29" r="29" fill="#DBEBFF"/>
<path d="M22.75 37.7501H38.5V22.0001H36.75V18.5001H40.25C41.216 18.5001 42 19.2841 42 20.2501V39.5001C42 40.4679 41.216 41.2501 40.25 41.2501H21C20.0322 41.2501 19.25 40.4679 19.25 39.5001V29.0544H22.75V37.7501Z" fill="#79A6FF"/>
<path d="M35.2727 31.7591L35.2553 23.0091C35.2567 22.6794 35.0671 22.3753 34.7704 22.2285C34.4726 22.0804 34.1181 22.1129 33.8539 22.3119L31.757 23.8911L30.1779 21.7942C26.9848 17.5543 20.9389 16.7029 16.6991 19.8959C16.3748 20.1402 16.2608 20.5765 16.4236 20.9468C16.451 21.0094 16.4865 21.0682 16.5265 21.1213C16.7223 21.3813 17.0519 21.5164 17.3829 21.4556L17.8357 21.3731C20.7889 20.8293 23.7459 21.9806 25.5525 24.3794L27.5633 27.0494L25.4664 28.6286C25.2022 28.8275 25.073 29.1592 25.1321 29.485C25.1912 29.8107 25.4311 30.0769 25.7495 30.168L34.1543 32.6013C34.4184 32.6785 34.7046 32.6251 34.924 32.4598C35.1435 32.2945 35.2739 32.0342 35.2727 31.7591Z" fill="#79A6FF"/>
</svg>
