<svg width="30" height="30" viewBox="0 0 30 30" fill="none" xmlns="http://www.w3.org/2000/svg">
<g style="mix-blend-mode:luminosity">
<path d="M16.0794 11.5453V22.7877C16.0794 23.2554 15.7004 23.6349 15.2322 23.6349C14.7645 23.6349 14.385 23.2554 14.385 22.7877V11.5453C14.385 11.0771 14.7645 10.6981 15.2322 10.6981C15.7004 10.6982 16.0794 11.0771 16.0794 11.5453Z" fill="#B9DCFF"/>
<path d="M16.0804 11.5452V22.7877C16.0804 23.2553 15.7015 23.6349 15.2332 23.6349V10.6981C15.7015 10.6981 16.0804 11.0771 16.0804 11.5452Z" fill="#B9DCFF"/>
<path d="M26.3931 20.8792V22.7881C26.3931 23.2558 26.0141 23.6353 25.5459 23.6353C25.0782 23.6353 24.6987 23.2558 24.6987 22.7881V20.8792C24.6987 19.2995 23.4138 18.0141 21.8336 18.0141H8.29363C6.71398 18.0141 5.42853 19.2995 5.42853 20.8792V22.7881C5.42853 23.2558 5.04957 23.6353 4.58134 23.6353C4.11368 23.6353 3.73416 23.2558 3.73416 22.7881V20.8792C3.73416 18.3648 5.77978 16.3197 8.29363 16.3197H21.8336C24.348 16.3197 26.3931 18.3648 26.3931 20.8792Z" fill="#B9DCFF"/>
<path d="M26.3932 20.8791V22.7881C26.3932 23.2557 26.0143 23.6353 25.546 23.6353C25.0784 23.6353 24.6989 23.2557 24.6989 22.7881V20.8791C24.6989 19.2995 23.414 18.014 21.8338 18.014H15.2332V16.3197H21.8338C24.3482 16.3196 26.3932 18.3647 26.3932 20.8791Z" fill="#B9DCFF"/>
<path d="M6.30641 21.941H2.85504C1.611 21.941 0.598999 22.953 0.598999 24.197V26.8201C0.598999 28.064 1.611 29.076 2.85498 29.076H6.30635C7.55027 29.076 8.56228 28.064 8.56228 26.8201V24.197C8.56233 22.953 7.55033 21.941 6.30641 21.941Z" fill="#4294FF"/>
<path d="M19.2132 24.1967V26.8201C19.2132 28.0637 18.2011 29.0758 16.9575 29.0758H13.5061C12.2619 29.0758 11.2498 28.0637 11.2498 26.8201V24.1967C11.2498 22.9531 12.2619 21.941 13.5061 21.941H16.9575C18.2011 21.941 19.2132 22.9531 19.2132 24.1967Z" fill="#4294FF"/>
<path d="M27.2346 21.941H23.7832C22.5393 21.941 21.5273 22.953 21.5273 24.197V26.8201C21.5273 28.064 22.5393 29.076 23.7832 29.076H27.2346C28.4785 29.076 29.4905 28.064 29.4905 26.8201V24.197C29.4905 22.953 28.4785 21.941 27.2346 21.941Z" fill="#4294FF"/>
<path d="M19.2141 24.1967V26.8201C19.2141 28.0637 18.202 29.0758 16.9584 29.0758H15.2324V21.941H16.9584C18.202 21.941 19.2141 22.9531 19.2141 24.1967Z" fill="#4294FF"/>
<path d="M24.2707 6.27126C23.437 4.59025 22.1714 3.16111 20.6035 2.13024C19.0356 1.09937 17.2219 0.503843 15.3481 0.404663C13.4747 0.504918 11.6616 1.1009 10.0941 2.13166C8.52663 3.16241 7.261 4.59097 6.42665 6.27126C6.37562 6.3706 6.349 6.48067 6.349 6.59235C6.349 6.70402 6.37562 6.81409 6.42665 6.91343C7.2604 8.59444 8.52604 10.0236 10.0939 11.0545C11.6618 12.0853 13.4755 12.6808 15.3493 12.78C19.7804 12.78 23.0469 9.30191 24.2719 6.91343C24.3228 6.814 24.3492 6.70388 24.349 6.5922C24.3488 6.48052 24.322 6.3705 24.2707 6.27126Z" fill="#B9DCFF"/>
<circle cx="15.349" cy="6.40466" r="3" fill="#4294FF"/>
</g>
</svg>
