<svg width="19" height="14" viewBox="0 0 19 14" fill="none" xmlns="http://www.w3.org/2000/svg">
<path fill-rule="evenodd" clip-rule="evenodd" d="M2.12794 10.2578C2.3241 8.90396 2.80704 7.60649 3.96422 6.53303C5.62498 4.99118 7.88391 4.6007 9.45756 4.5372C9.84214 4.52168 10.1858 4.52569 10.4698 4.5372V1.44448L17 7.50487L10.4698 12.5555V9.52928C7.05817 9.29063 4.85207 10.1784 3.5494 11.0378C2.4571 11.7584 2 12.4591 2 12.4591C2 11.7264 2.02271 10.984 2.12794 10.2578ZM3.25964 13.2433C2.90112 13.7775 2.22095 14.0235 1.58482 13.8471C0.942412 13.6689 0.5 13.1028 0.5 12.4591C0.5 10.3412 0.657737 7.59498 2.92312 5.49317M3.25964 13.2433C3.26435 13.2368 3.27774 13.2184 3.29898 13.1917C3.3415 13.138 3.41752 13.0476 3.53016 12.9331C3.7554 12.7043 4.12556 12.3806 4.66686 12.061C5.54493 11.5426 6.92696 11.0025 8.96979 10.9402V12.5555C8.96979 13.1113 9.3009 13.6178 9.82132 13.858C10.3417 14.0983 10.9591 14.0297 11.4091 13.6817L17.9393 8.63103C18.2753 8.37114 18.479 7.98463 18.4985 7.57003C18.5179 7.15544 18.3512 6.75281 18.0409 6.46482L11.5107 0.404427C11.0775 0.00237948 10.4367 -0.111501 9.883 0.115146C9.32929 0.341792 8.96979 0.865103 8.96979 1.44448V3.11761C7.21693 3.24255 4.79456 3.75599 2.92312 5.49317" fill="white"/>
</svg>
