<svg width="24" height="24" viewBox="0 0 24 24" fill="none" xmlns="http://www.w3.org/2000/svg">
<path d="M19.9853 5.23071H8.24489C6.58007 5.23071 5.23047 6.58032 5.23047 8.24514V19.9855C5.23047 21.6503 6.58007 22.9999 8.24489 22.9999H19.9853C21.6501 22.9999 22.9997 21.6503 22.9997 19.9855V8.24514C22.9997 6.58032 21.6501 5.23071 19.9853 5.23071Z" stroke="#A3ACC6" stroke-opacity="0.8" stroke-width="2" stroke-linejoin="round"/>
<path d="M18.7428 5.23077L18.7692 3.96154C18.767 3.17678 18.4543 2.42479 17.8994 1.86988C17.3444 1.31497 16.5925 1.00223 15.8077 1H4.38462C3.48777 1.00265 2.62842 1.36009 1.99426 1.99426C1.36009 2.62842 1.00265 3.48777 1 4.38462V15.8077C1.00223 16.5925 1.31497 17.3444 1.86988 17.8994C2.42479 18.4543 3.17678 18.767 3.96154 18.7692H5.23077" stroke="#A3ACC6" stroke-opacity="0.8" stroke-width="2" stroke-linecap="round" stroke-linejoin="round"/>
</svg>
