<svg width="27" height="29" viewBox="0 0 27 29" fill="none" xmlns="http://www.w3.org/2000/svg">
<circle cx="13.9211" cy="15.799" r="13.0461" fill="url(#paint0_linear_2473_128)" fill-opacity="0.2"/>
<path d="M13.9196 13.3711C13.4746 13.3711 13.1133 13.7325 13.1133 14.1774C13.1133 14.6223 13.4746 14.9837 13.9196 14.9837C14.3645 14.9837 14.7259 14.6223 14.7259 14.1774C14.7259 13.7325 14.3645 13.3711 13.9196 13.3711Z" fill="url(#paint1_linear_2473_128)"/>
<path d="M8.27734 24.7129H19.5655V27.9381H8.27734V24.7129Z" fill="url(#paint2_linear_2473_128)"/>
<path d="M13.9202 16.5967C12.5865 16.5967 11.5013 15.5116 11.5013 14.1778C11.5013 13.128 12.1774 12.2415 13.1139 11.9074V0.416992L6.53125 14.2236L7.3407 15.4377C8.85713 17.7125 9.68548 20.3849 9.82952 23.1009H18.0109C18.155 20.3849 18.9833 17.7125 20.4998 15.4377L21.3092 14.2234L14.7265 0.416992V11.9074C15.663 12.2415 16.3391 13.128 16.3391 14.1778C16.3391 15.5116 15.254 16.5967 13.9202 16.5967Z" fill="url(#paint3_linear_2473_128)"/>
<defs>
<linearGradient id="paint0_linear_2473_128" x1="13.9211" y1="2.75293" x2="20.4894" y2="44.1387" gradientUnits="userSpaceOnUse">
<stop stop-color="#FFC759"/>
<stop offset="1" stop-color="white"/>
</linearGradient>
<linearGradient id="paint1_linear_2473_128" x1="13.9196" y1="13.3711" x2="14.3255" y2="15.9289" gradientUnits="userSpaceOnUse">
<stop stop-color="#FFC759"/>
<stop offset="1" stop-color="white"/>
</linearGradient>
<linearGradient id="paint2_linear_2473_128" x1="13.9214" y1="24.7129" x2="14.1588" y2="29.9466" gradientUnits="userSpaceOnUse">
<stop stop-color="#FFC759"/>
<stop offset="1" stop-color="white"/>
</linearGradient>
<linearGradient id="paint3_linear_2473_128" x1="13.9199" y1="7.68515" x2="21.427" y2="35.3699" gradientUnits="userSpaceOnUse">
<stop stop-color="#FFC759"/>
<stop offset="1" stop-color="white"/>
</linearGradient>
</defs>
</svg>
