<svg id="Capa_1" fill="#adb5cc" enable-background="new 0 0 512 512" height="512" viewBox="0 0 512 512" width="512" xmlns="http://www.w3.org/2000/svg"><g><path d="m376 0h-23.357c-4.142 0-7.5 3.357-7.5 7.5s3.358 7.5 7.5 7.5h23.357c12.407 0 22.5 10.094 22.5 22.5v39h-285v-39c0-12.406 10.093-22.5 22.5-22.5h181.643c4.142 0 7.5-3.357 7.5-7.5s-3.358-7.5-7.5-7.5h-181.643c-20.678 0-37.5 16.822-37.5 37.5v316.5c0 4.143 3.358 7.5 7.5 7.5s7.5-3.357 7.5-7.5v-262.5h285v323h-285v-25.5c0-4.143-3.358-7.5-7.5-7.5s-7.5 3.357-7.5 7.5v85.5c0 20.678 16.822 37.5 37.5 37.5h240c20.678 0 37.5-16.822 37.5-37.5 0-9.159 0-428.107 0-437 0-20.678-16.822-37.5-37.5-37.5zm22.5 474.5c0 12.406-10.093 22.5-22.5 22.5h-240c-12.407 0-22.5-10.094-22.5-22.5v-45h285z"/><path d="m223 486h66c7.995 0 14.5-6.505 14.5-14.5v-16.5c0-7.995-6.505-14.5-14.5-14.5h-66c-7.995 0-14.5 6.505-14.5 14.5v16.5c0 7.995 6.505 14.5 14.5 14.5zm.5-30.5h65v15.5h-65z"/><path d="m233.5 45.75c0 12.406 10.093 22.5 22.5 22.5s22.5-10.094 22.5-22.5-10.093-22.5-22.5-22.5-22.5 10.094-22.5 22.5zm30 0c0 4.136-3.364 7.5-7.5 7.5s-7.5-3.364-7.5-7.5 3.364-7.5 7.5-7.5 7.5 3.364 7.5 7.5z"/></g></svg>