<svg xmlns="http://www.w3.org/2000/svg" id="_2063426" width="44" height="44" viewBox="0 0 44 44">
    <defs>
        <style>
            .cls-3{fill:#4f8aff}
        </style>
    </defs>
    <path id="Path_12889" fill="#4f8aff" d="M93.688 260.867v6.445h-2.579v-3.867H78.133v3.867h-2.578v-3.867H62.578v3.867H60v-6.445h15.555V257h2.578v3.867z" opacity="0.49" transform="translate(-54.844 -234.914)"/>
    <path id="Path_12893" fill="#b9dcff" d="M162.6 120h-1.289l-1.5-1.036-1.077 1.036h-1.289a6.453 6.453 0 0 0-6.445 6.445v5.617h18.047v-5.617A6.453 6.453 0 0 0 162.6 120z" transform="translate(-138.023 -109.688)"/>
    <path id="Path_12897" d="M187.445 362a6.445 6.445 0 1 0 6.445 6.445 6.453 6.453 0 0 0-6.445-6.445z" class="cls-3" transform="translate(-165.445 -330.891)"/>
    <path id="Path_12899" d="M368.445 362a6.445 6.445 0 1 0 6.445 6.445 6.453 6.453 0 0 0-6.445-6.445z" class="cls-3" transform="translate(-330.891 -330.891)"/>
    <path id="Path_12900" d="M6.445 362a6.445 6.445 0 1 0 6.445 6.445A6.453 6.453 0 0 0 6.445 362z" class="cls-3" transform="translate(0 -330.891)"/>
    <path id="Path_12901" d="M201.156 0a5.156 5.156 0 1 0 5.156 5.156A5.163 5.163 0 0 0 201.156 0z" class="cls-3" transform="translate(-179.156)"/>
</svg>
