<svg width="40" height="40" viewBox="0 0 40 40" fill="none" xmlns="http://www.w3.org/2000/svg">
<g clip-path="url(#clip0_15_5473)">
<path d="M18.2837 3.3335H14.9504C6.61702 3.3335 3.28369 6.66683 3.28369 15.0002V25.0002C3.28369 33.3335 6.61702 36.6668 14.9504 36.6668H24.9504C33.2837 36.6668 36.617 33.3335 36.617 25.0002V21.6668" stroke="#4785FF" stroke-width="2" stroke-linecap="round" stroke-linejoin="round"/>
<path d="M36.4665 5.93386C34.4165 11.0505 29.2665 18.0172 24.9665 21.4672L22.3332 23.5672C21.9998 23.8172 21.6665 24.0172 21.2832 24.1672C21.2832 23.9172 21.2665 23.6672 21.2332 23.4005C21.0832 22.2839 20.5832 21.2339 19.6832 20.3505C18.7665 19.4339 17.6665 18.9172 16.5332 18.7672C16.2665 18.7505 15.9998 18.7339 15.7332 18.7505C15.8832 18.3339 16.0998 17.9505 16.3832 17.6339L18.4832 15.0005C21.9332 10.7005 28.9165 5.5172 34.0165 3.4672C34.7998 3.1672 35.5665 3.40053 36.0498 3.88386C36.5498 4.38386 36.7832 5.15053 36.4665 5.93386Z" stroke="#4785FF" stroke-width="2" stroke-linecap="round" stroke-linejoin="round"/>
<path d="M21.3001 24.1501C21.3001 25.6168 20.7334 27.0168 19.6834 28.0835C18.8667 28.9001 17.7667 29.4668 16.4501 29.6335L13.1667 29.9835C11.3834 30.1835 9.85007 28.6668 10.0501 26.8501L10.4001 23.5668C10.7167 20.6501 13.1501 18.7835 15.7501 18.7335C16.0167 18.7168 16.2834 18.7335 16.5501 18.7501C17.6834 18.9001 18.7834 19.4168 19.7001 20.3335C20.6001 21.2335 21.1001 22.2668 21.2501 23.3835C21.2834 23.6501 21.3001 23.9168 21.3001 24.1501Z" stroke="#4785FF" stroke-width="2" stroke-linecap="round" stroke-linejoin="round"/>
<path d="M26.3662 19.9666C26.3662 16.4832 23.5496 13.6499 20.0496 13.6499" stroke="#4785FF" stroke-width="2" stroke-linecap="round" stroke-linejoin="round"/>
</g>
<defs>
<clipPath id="clip0_15_5473">
<rect width="40" height="40" fill="white"/>
</clipPath>
</defs>
</svg>
