<svg width="40" height="40" viewBox="0 0 40 40" fill="none" xmlns="http://www.w3.org/2000/svg">
<path d="M35.7833 31.6667V8.33334C35.7833 5.00001 34.1167 3.33334 30.7833 3.33334H24.1167C20.7833 3.33334 19.1167 5.00001 19.1167 8.33334V31.6667C19.1167 35 20.7833 36.6667 24.1167 36.6667H30.7833C34.1167 36.6667 35.7833 35 35.7833 31.6667Z" stroke="#292D32" stroke-width="1.8" stroke-linecap="round"/>
<path d="M19.1167 10H27.45" stroke="#292D32" stroke-width="1.8" stroke-linecap="round"/>
<path d="M19.1167 30H25.7833" stroke="#292D32" stroke-width="1.8" stroke-linecap="round"/>
<path d="M19.1167 23.25L27.45 23.3333" stroke="#292D32" stroke-width="1.8" stroke-linecap="round"/>
<path d="M19.1167 16.6667H24.1167" stroke="#292D32" stroke-width="1.8" stroke-linecap="round"/>
<path d="M9.14999 3.33334C6.43333 3.33334 4.21666 5.55001 4.21666 8.25001V29.85C4.21666 30.6 4.53333 31.7333 4.91666 32.3833L6.28333 34.65C7.84999 37.2667 10.4333 37.2667 12 34.65L13.3667 32.3833C13.75 31.7333 14.0667 30.6 14.0667 29.85V8.25001C14.0667 5.55001 11.85 3.33334 9.14999 3.33334Z" stroke="#292D32" stroke-width="1.8" stroke-linecap="round"/>
<path d="M14.0667 11.6667H4.21666" stroke="#292D32" stroke-width="1.8" stroke-linecap="round"/>
</svg>
