<svg width="24" height="24" viewBox="0 0 24 24" fill="none" xmlns="http://www.w3.org/2000/svg">
<path d="M7.536 4.31914C8.69314 3.51814 10.2694 3 12 3C15.456 3 17.562 4.84371 18.3 5.82857C18.4023 5.96497 18.4462 6.13642 18.4221 6.3052C18.398 6.47398 18.3078 6.62627 18.1714 6.72857C18.1039 6.77922 18.027 6.81608 17.9453 6.83703C17.8635 6.85798 17.7784 6.86262 17.6948 6.85068C17.526 6.82657 17.3737 6.7364 17.2714 6.6C16.7237 5.86971 14.9726 4.28571 12 4.28571C10.5176 4.28571 9.19971 4.73186 8.26757 5.37729C7.32 6.033 6.85714 6.82629 6.85714 7.5C6.85714 8.66871 7.41257 9.408 8.35757 9.98529C8.823 10.2681 9.36557 10.5034 9.96343 10.7143H7.15286C6.21171 9.98143 5.57143 8.96186 5.57143 7.5C5.57143 6.24514 6.39429 5.10857 7.536 4.31914ZM20.3571 12C20.5276 12 20.6912 12.0677 20.8117 12.1883C20.9323 12.3088 21 12.4724 21 12.6429C21 12.8134 20.9323 12.9769 20.8117 13.0974C20.6912 13.218 20.5276 13.2857 20.3571 13.2857H16.8471C17.7883 14.0186 18.4286 15.0381 18.4286 16.5C18.4286 18.0789 17.5016 19.2257 16.2724 19.947C15.0574 20.6619 13.4914 21 12 21C10.5523 21 9.32829 20.8354 8.28043 20.3854C7.21714 19.9277 6.38143 19.1961 5.67943 18.1419C5.59086 18 5.56106 17.8292 5.59635 17.6658C5.63164 17.5023 5.72924 17.359 5.86844 17.2663C6.00764 17.1736 6.17747 17.1388 6.3419 17.1693C6.50633 17.1998 6.65241 17.2932 6.74914 17.4296C7.33286 18.3039 7.98343 18.858 8.78829 19.2039C9.60986 19.5574 10.6371 19.7143 12 19.7143C13.3217 19.7143 14.6486 19.4096 15.6219 18.8387C16.5836 18.273 17.1429 17.4926 17.1429 16.5C17.1429 15.3313 16.5874 14.592 15.6424 14.0147C15.1339 13.7175 14.5962 13.4732 14.0379 13.2857H3.64286C3.47236 13.2857 3.30885 13.218 3.18829 13.0974C3.06773 12.9769 3 12.8134 3 12.6429C3 12.4724 3.06773 12.3088 3.18829 12.1883C3.30885 12.0677 3.47236 12 3.64286 12H20.3571Z" fill="#4785FF"/>
</svg>
