<svg width="40" height="40" viewBox="0 0 40 40" fill="none" xmlns="http://www.w3.org/2000/svg">
<path d="M14.45 23.3333H6.66665C4.83331 23.3333 3.33331 24.8333 3.33331 26.6667V36.6667H14.45V23.3333Z" stroke="#292D32" stroke-width="1.8" stroke-miterlimit="10" stroke-linecap="round" stroke-linejoin="round"/>
<path d="M22.2167 16.6667H17.7667C15.9333 16.6667 14.4333 18.1667 14.4333 20V36.6667H25.55V20C25.55 18.1667 24.0667 16.6667 22.2167 16.6667Z" stroke="#292D32" stroke-width="1.8" stroke-miterlimit="10" stroke-linecap="round" stroke-linejoin="round"/>
<path d="M33.3333 28.3333H25.55V36.6667H36.6667V31.6667C36.6667 29.8333 35.1667 28.3333 33.3333 28.3333Z" stroke="#292D32" stroke-width="1.8" stroke-miterlimit="10" stroke-linecap="round" stroke-linejoin="round"/>
<path d="M20.8667 3.45001L21.75 5.21667C21.8667 5.46667 22.1834 5.7 22.45 5.73334L24.05 6.00001C25.0667 6.16667 25.3167 6.91664 24.5833 7.63331L23.3333 8.88331C23.1167 9.09998 23 9.49999 23.0667 9.78332L23.4167 11.3167C23.7 12.5333 23.05 13 21.9833 12.3667L20.4834 11.4834C20.2167 11.3167 19.7667 11.3167 19.5 11.4834L18 12.3667C16.9333 13 16.2833 12.5333 16.5667 11.3167L16.9167 9.78332C16.9834 9.49999 16.8667 9.08331 16.65 8.88331L15.4167 7.64999C14.6833 6.91666 14.9167 6.18331 15.95 6.01664L17.55 5.75002C17.8167 5.70002 18.1334 5.46669 18.25 5.23336L19.1333 3.46664C19.6167 2.49998 20.3834 2.50001 20.8667 3.45001Z" stroke="#292D32" stroke-width="1.8" stroke-linecap="round" stroke-linejoin="round"/>
</svg>
