<svg width="24" height="24" viewBox="0 0 24 24" fill="none" xmlns="http://www.w3.org/2000/svg">
<path d="M8 3.5C4.5 3.5 3 5.5 3 8.5V17C3 20 4.5 22 8 22H14.68C14.11 21.59 13.63 21.06 13.26 20.45C12.78 19.67 12.5 18.73 12.5 17.75C12.5 16.1 13.26 14.61 14.47 13.66C15.37 12.93 16.52 12.5 17.75 12.5C18.98 12.5 20.11 12.92 21 13.63V8.5C21 5.5 19.5 3.5 16 3.5" stroke="#4785FF" stroke-width="1.3" stroke-miterlimit="10" stroke-linecap="round" stroke-linejoin="round"/>
<path d="M16 3.25C16 4.49 14.99 5.5 13.75 5.5H10.25C9.63 5.5 9.06997 5.25 8.65997 4.84C8.24997 4.43 8 3.87 8 3.25C8 2.01 9.01 1 10.25 1H13.75C14.37 1 14.93 1.25 15.34 1.66C15.75 2.07 16 2.63 16 3.25Z" stroke="#4785FF" stroke-width="1.3" stroke-linecap="round" stroke-linejoin="round"/>
<path d="M7 11H13" stroke="#4785FF" stroke-width="1.3" stroke-miterlimit="10" stroke-linecap="round" stroke-linejoin="round"/>
<path d="M7 16H9.62" stroke="#4785FF" stroke-width="1.3" stroke-miterlimit="10" stroke-linecap="round" stroke-linejoin="round"/>
<path d="M23 17.75C23 18.73 22.72 19.67 22.24 20.45C21.96 20.93 21.61 21.35 21.2 21.69C20.28 22.51 19.08 23 17.75 23C16.6 23 15.54 22.63 14.68 22C14.11 21.59 13.63 21.06 13.26 20.45C12.78 19.67 12.5 18.73 12.5 17.75C12.5 16.1 13.26 14.61 14.47 13.66C15.37 12.93 16.52 12.5 17.75 12.5C18.98 12.5 20.11 12.92 21 13.63C22.22 14.59 23 16.08 23 17.75Z" stroke="#4785FF" stroke-width="1.3" stroke-miterlimit="10" stroke-linecap="round" stroke-linejoin="round"/>
<path d="M16 18.5L17 19.5L20 16.5" stroke="#4785FF" stroke-width="1.3" stroke-linecap="round" stroke-linejoin="round"/>
</svg>
