<svg width="40" height="40" viewBox="0 0 40 40" fill="none" xmlns="http://www.w3.org/2000/svg">
<path d="M20.8833 34.0335H10.3499C5.08325 34.0335 3.33325 30.5335 3.33325 27.0168V12.9835C3.33325 7.7168 5.08325 5.9668 10.3499 5.9668H20.8833C26.1499 5.9668 27.8999 7.7168 27.8999 12.9835V27.0168C27.8999 32.2835 26.1333 34.0335 20.8833 34.0335Z" stroke="#4785FF" stroke-width="1.8" stroke-linecap="round" stroke-linejoin="round"/>
<path d="M32.5332 28.5002L27.8999 25.2502V14.7336L32.5332 11.4836C34.7999 9.90022 36.6666 10.8669 36.6666 13.6502V26.3502C36.6666 29.1336 34.7999 30.1002 32.5332 28.5002Z" stroke="#4785FF" stroke-width="1.8" stroke-linecap="round" stroke-linejoin="round"/>
<path d="M19.1667 18.3335C20.5475 18.3335 21.6667 17.2142 21.6667 15.8335C21.6667 14.4528 20.5475 13.3335 19.1667 13.3335C17.786 13.3335 16.6667 14.4528 16.6667 15.8335C16.6667 17.2142 17.786 18.3335 19.1667 18.3335Z" stroke="#4785FF" stroke-width="1.8" stroke-linecap="round" stroke-linejoin="round"/>
</svg>
