<svg width="24" height="24" viewBox="0 0 24 24" fill="none" xmlns="http://www.w3.org/2000/svg">
<mask id="mask0_2422_20232" style="mask-type:alpha" maskUnits="userSpaceOnUse" x="0" y="0" width="24" height="24">
<rect width="24" height="24" fill="#D9D9D9"/>
</mask>
<g mask="url(#mask0_2422_20232)">
<path fill-rule="evenodd" clip-rule="evenodd" d="M19.625 19.4167C20.0622 19.4167 20.4167 19.7711 20.4167 20.2083C20.4167 20.597 20.1366 20.9202 19.7673 20.9872L19.625 21H3.79167C3.35444 21 3 20.6456 3 20.2083C3 19.8197 3.28005 19.4965 3.64936 19.4294L3.79167 19.4167H19.625ZM12.34 2.31333L12.4164 2.43762L19.5414 16.6876C19.737 17.0787 19.5784 17.5542 19.1874 17.7498C18.8398 17.9236 18.4254 17.8176 18.2003 17.5173L18.1252 17.3957L15.9691 13.0833H7.44758L5.29142 17.3957C5.11761 17.7433 4.72257 17.9072 4.36227 17.802L4.22929 17.7498C3.88167 17.5759 3.71781 17.1809 3.82301 16.8206L3.87525 16.6876L11.0002 2.43762C11.2696 1.89901 11.9998 1.85758 12.34 2.31333ZM11.7083 4.56183L8.23925 11.5H15.1774L11.7083 4.56183Z" fill="#4785FF"/>
</g>
</svg>
