<svg width="40" height="40" viewBox="0 0 40 40" fill="none" xmlns="http://www.w3.org/2000/svg">
<path d="M20.25 27.5V31" stroke="#292D32" stroke-width="1.8" stroke-linecap="round" stroke-linejoin="round"/>
<path d="M11.9167 36.6665H28.5834V34.9998C28.5834 33.1665 27.0834 31.6665 25.2501 31.6665H15.2501C13.4167 31.6665 11.9167 33.1665 11.9167 34.9998V36.6665V36.6665Z" stroke="#292D32" stroke-width="1.8" stroke-miterlimit="10"/>
<path d="M10.25 36.6665H30.25" stroke="#292D32" stroke-width="1.8" stroke-linecap="round" stroke-linejoin="round"/>
<path d="M19.9999 26.6668C13.5499 26.6668 8.33325 21.4502 8.33325 15.0002V10.0002C8.33325 6.31683 11.3166 3.3335 14.9999 3.3335H24.9999C28.6833 3.3335 31.6666 6.31683 31.6666 10.0002V15.0002C31.6666 21.4502 26.4499 26.6668 19.9999 26.6668Z" stroke="#292D32" stroke-width="1.8" stroke-linecap="round" stroke-linejoin="round"/>
<path d="M9.11657 19.4167C7.86657 19.0167 6.76657 18.2833 5.8999 17.4167C4.3999 15.75 3.3999 13.75 3.3999 11.4167C3.3999 9.08333 5.23324 7.25 7.56657 7.25H8.6499C8.31657 8.01667 8.1499 8.86667 8.1499 9.75V14.75C8.1499 16.4167 8.4999 17.9833 9.11657 19.4167Z" stroke="#292D32" stroke-width="1.8" stroke-linecap="round" stroke-linejoin="round"/>
<path d="M30.8833 19.4167C32.1333 19.0167 33.2333 18.2833 34.1 17.4167C35.6 15.75 36.6 13.75 36.6 11.4167C36.6 9.08333 34.7666 7.25 32.4333 7.25H31.35C31.6833 8.01667 31.85 8.86667 31.85 9.75V14.75C31.85 16.4167 31.5 17.9833 30.8833 19.4167Z" stroke="#292D32" stroke-width="1.8" stroke-linecap="round" stroke-linejoin="round"/>
</svg>
