<svg width="40" height="40" viewBox="0 0 40 40" fill="none" xmlns="http://www.w3.org/2000/svg">
<mask id="mask0_510_9823" style="mask-type:alpha" maskUnits="userSpaceOnUse" x="0" y="0" width="40" height="40">
<rect width="40" height="40" fill="#D9D9D9"/>
</mask>
<g mask="url(#mask0_510_9823)">
<path d="M14.6667 36.3333H24.6667C33 36.3333 36.3333 33 36.3333 24.6667V14.6667C36.3333 6.33333 33 3 24.6667 3H14.6667C6.33333 3 3 6.33333 3 14.6667V24.6667C3 33 6.33333 36.3333 14.6667 36.3333Z" stroke="#292D32" stroke-width="1.8" stroke-linecap="round" stroke-linejoin="round"/>
<path d="M12.8654 8H26.2725C27.1034 8 27.8589 8.34009 28.406 8.88648C28.9531 9.43358 29.2925 10.1891 29.2925 11.02V27.98C29.2925 28.8116 28.9531 29.5664 28.406 30.1135C27.8589 30.6606 27.1034 31 26.2725 31H12.8654C12.0346 31 11.279 30.6599 10.7319 30.1135C10.1848 29.5664 9.84546 28.8109 9.84546 27.98V11.02C9.84546 10.1884 10.1848 9.43358 10.7319 8.88648C11.279 8.33938 12.0346 8 12.8654 8ZM13.6414 14.1019C13.4055 14.2821 13.0675 14.2371 12.888 14.0012C12.7077 13.7653 12.7528 13.4273 12.9893 13.2471L15.2974 11.4882C15.4974 11.3354 15.7699 11.3446 15.9579 11.4945L18.259 13.2471C18.4948 13.4273 18.5406 13.7646 18.3596 14.0012C18.1794 14.2371 17.8421 14.2821 17.6062 14.1019L16.1628 13.0028V17.0226C16.1628 17.3443 16.2487 17.6394 16.4057 17.8851L16.4219 17.9112C16.5782 18.1456 16.805 18.3386 17.0873 18.4688L22.7139 21.0642C23.1955 21.286 23.5821 21.6261 23.8504 22.0443L23.8708 22.0788C24.1264 22.4921 24.2658 22.9738 24.2658 23.4878V27.0865C24.2658 27.3844 24.0243 27.6259 23.7264 27.6259C23.4286 27.6259 23.1878 27.3844 23.1878 27.0865V23.4878C23.1878 23.1758 23.1075 22.8893 22.9611 22.6492L22.9449 22.6252C22.7864 22.3781 22.5541 22.1753 22.2633 22.0408L16.6367 19.4454C16.1698 19.23 15.7903 18.9019 15.5228 18.4977L15.5002 18.4653C15.2313 18.0456 15.0841 17.5514 15.0841 17.0219V13.0021L13.6407 14.1012L13.6414 14.1019ZM15.5059 22.5266C16.2008 22.5266 16.8303 22.8083 17.2859 23.2639C17.7414 23.7194 18.0231 24.3489 18.0231 25.0439C18.0231 25.7388 17.7414 26.3683 17.2859 26.8246C16.8303 27.2801 16.2008 27.5618 15.5059 27.5618C14.8109 27.5618 14.1814 27.2801 13.7259 26.8246C13.2703 26.369 12.9879 25.7395 12.9879 25.0439C12.9879 24.3489 13.2696 23.7194 13.7259 23.2639C14.1814 22.8083 14.8109 22.5266 15.5059 22.5266ZM16.524 24.0264C16.2635 23.7659 15.9037 23.6047 15.5059 23.6047C15.108 23.6047 14.7482 23.7659 14.4877 24.0264C14.2272 24.2869 14.0659 24.6467 14.0659 25.0446C14.0659 25.4424 14.2272 25.8022 14.4877 26.0627C14.7482 26.3232 15.108 26.4845 15.5059 26.4845C15.9037 26.4845 16.2635 26.3232 16.524 26.0627C16.7845 25.8022 16.9458 25.4424 16.9458 25.0446C16.9458 24.6467 16.7845 24.2869 16.524 24.0264ZM22.4358 16.3487C22.2253 16.5593 21.8838 16.5593 21.6732 16.3487C21.4627 16.1382 21.4627 15.7974 21.6732 15.5869L23.1765 14.0836L21.6732 12.5803C21.4627 12.3698 21.4627 12.029 21.6732 11.8177C21.8838 11.6072 22.2253 11.6072 22.4358 11.8177L23.9391 13.321L25.4424 11.8177C25.6529 11.6072 25.9944 11.6072 26.2049 11.8177C26.4155 12.0283 26.4155 12.3698 26.2049 12.5803L24.7016 14.0836L26.2049 15.5869C26.4155 15.7974 26.4155 16.1382 26.2049 16.3487C25.9944 16.5593 25.6536 16.5593 25.4424 16.3487L23.9391 14.8454L22.4358 16.3487ZM26.2732 9.07871H12.8661C12.3324 9.07871 11.8473 9.29769 11.4952 9.64975C11.1431 10.0018 10.9242 10.4876 10.9242 11.0214V27.9814C10.9242 28.5152 11.1431 29.0003 11.4952 29.3531C11.8473 29.7051 12.3324 29.9241 12.8661 29.9241H26.2732C26.8069 29.9241 27.2921 29.7058 27.6448 29.3531C27.9969 29.001 28.2159 28.5152 28.2159 27.9814V11.0214C28.2159 10.4876 27.9969 10.0025 27.6448 9.64975C27.2928 9.29769 26.8069 9.07871 26.2732 9.07871Z" fill="black"/>
</g>
</svg>
