<svg width="40" height="40" viewBox="0 0 40 40" fill="none" xmlns="http://www.w3.org/2000/svg">
<path d="M11.62 19.62L12.5 18L13.38 19.62L15 20.5L13.38 21.38L12.5 23L11.62 21.38L10 20.5L11.62 19.62Z" stroke="#4785FF" stroke-width="1.5" stroke-linecap="round" stroke-linejoin="round"/>
<path d="M18.62 19.62L19.5 18L20.38 19.62L22 20.5L20.38 21.38L19.5 23L18.62 21.38L17 20.5L18.62 19.62Z" stroke="#4785FF" stroke-width="1.5" stroke-linecap="round" stroke-linejoin="round"/>
<path d="M25.62 19.62L26.5 18L27.38 19.62L29 20.5L27.38 21.38L26.5 23L25.62 21.38L24 20.5L25.62 19.62Z" stroke="#4785FF" stroke-width="1.5" stroke-linecap="round" stroke-linejoin="round"/>
<path d="M14.9999 36.6668H24.9999C33.3333 36.6668 36.6666 33.3335 36.6666 25.0002V15.0002C36.6666 6.66683 33.3333 3.3335 24.9999 3.3335H14.9999C6.66659 3.3335 3.33325 6.66683 3.33325 15.0002V25.0002C3.33325 33.3335 6.66659 36.6668 14.9999 36.6668Z" stroke="#4785FF" stroke-width="1.8" stroke-linecap="round" stroke-linejoin="round"/>
</svg>
