<?xml version="1.0" encoding="utf-8"?>
<!-- Generator: Adobe Illustrator 27.5.0, SVG Export Plug-In . SVG Version: 6.00 Build 0)  -->
<svg version="1.1" xmlns="http://www.w3.org/2000/svg" xmlns:xlink="http://www.w3.org/1999/xlink" x="0px" y="0px"
	 viewBox="0 0 750 500" style="enable-background:new 0 0 750 500;" xml:space="preserve">
<g id="Background_Complete">
	<g>
		<g>
			<g>
				<g>
					<polygon style="fill:#F5F5F5;" points="378.678,241.548 378.714,241.555 378.698,241.527 378.677,241.54 					"/>
				</g>
			</g>
			<g>
				<g>
					<polygon style="fill:#F5F5F5;" points="378.809,241.79 378.818,241.812 378.822,241.805 					"/>
				</g>
			</g>
			<g>
				<g>
					<polygon style="fill:#F5F5F5;" points="378.865,241.656 378.878,241.689 378.899,241.647 					"/>
				</g>
			</g>
			<g>
				<g>
					<g>
						<path style="fill:#F5F5F5;" d="M425.775,144.601c0.071,0.035,0.143,0.07,0.214,0.105l76.288-126.91l-41.365,0.194
							c0,0-25.165-0.194-32.502,0l-31.586,117.337c0.146,0.025,0.291,0.049,0.437,0.074l-18.14,104.987L425.775,144.601z"/>
					</g>
				</g>
				<g>
					<g>
						<path style="fill:#F5F5F5;" d="M710.273,15.267h-83.401L451.205,161.885c0.065,0.059,0.128,0.117,0.191,0.175l-72.322,79.238
							L712.613,17.99C711.961,16.959,711.172,16.061,710.273,15.267z"/>
					</g>
				</g>
				<g>
					<g>
						<path style="fill:#F5F5F5;" d="M734.658,156.737l-354.051,87.25l-1.566-1.913l0.883,2.081l-0.403,0.099l-0.351-0.113
							l0.201-0.122l-0.316,0.085l-0.003-0.001l0.009-0.016l-0.027,0.011l0.273-0.519l-0.322,0.352l-0.024,0.143l-0.011,0.004
							l-0.177-1.689l-0.185,1.532l-0.11-0.135l0.064,0.153l-0.338-0.109l-0.605-0.57l0.623-1.028l-0.793,0.868l-0.515-0.485
							l1.272-0.775l-1.629,0.438L143.08,22.266H44.999l244.979,161.561c0-0.001,0.001-0.002,0.002-0.003l86.076,58.588l-3.296,0.886
							L15.342,181.389v56.951l223.624,7.619c0-0.006-1.348,3.025-1.349,3.019l129.772-4.235L274.962,269.6
							c-0.033-0.126-0.066-0.251-0.099-0.378L15.342,372.891v68.406l289.18-154.588l69.24-42.174l2.431-0.079L157.51,484.026h74.176
							l145.203-239.593l1.645-0.054l-28.995,239.647h54.604l-25.145-239.523l0.246,0.217l-0.256-0.312l1.47,1.001l40.405,95.18
							c-0.07,0.03-0.14,0.059-0.21,0.088l91.134,143.349h72.886l-137.82-159.279c-0.029,0.024-0.058,0.047-0.086,0.071
							l-63.343-77.391l84.174,57.289c-0.043,0.064-0.087,0.127-0.129,0.192L720.735,486.8h13.923v-61.409L481.071,277.096
							c-0.019,0.059-0.038,0.117-0.057,0.176l-99.372-32.021l-0.88-1.076l353.897-28.73V156.737z M376.636,243.969l-1.516-0.262
							l1.498-0.912l0.672,0.458L376.636,243.969z M378.549,244.258l-0.106,0.024l-1.323-0.229l0.394-0.65l0.561,0.382l-0.383-0.124
							l0.85,0.579l-0.015,0.004h0.02l0.001,0.001l0.002-0.001L378.549,244.258z M378.992,244.396l-0.007-0.002l-0.013-0.124
							l0.006-0.012l0.491,0.011l-0.444,0.12l0.992,0.026l-0.441-0.143l0.386-0.031l0.231,0.544L378.992,244.396z"/>
					</g>
				</g>
				<g>
					<g>
						<path style="fill:#F5F5F5;" d="M336.752,142.454c0.007-0.003,0.013-0.006,0.019-0.009l41.853,98.646l-12.342-106.5
							c0.012-0.002,0.026-0.003,0.038-0.004L351.654,17.796c0,0-77.68,0.194-73.101,0.194L336.752,142.454z"/>
					</g>
				</g>
			</g>
			<g>
				<g>
					<polygon style="fill:#F5F5F5;" points="378.525,241.9 378.387,242.7 378.729,241.995 378.697,241.711 					"/>
				</g>
			</g>
			<g>
				<g>
					<polygon style="fill:#F5F5F5;" points="378.832,241.665 378.851,241.677 378.849,241.661 					"/>
				</g>
			</g>
		</g>
		<g>
			<g>
				<path style="fill:#EBEBEB;" d="M578.725,156.939c2.658-2.693,147.169-93.556,147.169-93.556l2.444,19.289L578.725,156.939z"/>
			</g>
		</g>
		<g>
			<g>
				<polygon style="fill:#EBEBEB;" points="290.358,104.124 235.143,24.143 215.9,24.143 				"/>
			</g>
		</g>
		<g>
			<g>
				<polygon style="fill:#EBEBEB;" points="27.686,76.537 27.686,99.411 126.742,143.785 				"/>
			</g>
		</g>
		<g>
			<g>
				<path style="fill:#EBEBEB;" d="M50.144,469.521c2.979-1.49,77.914-43.936,77.914-43.936l-53.336,52.129L50.144,469.521z"/>
			</g>
		</g>
	</g>
	<g>
		<g>
			<polygon style="fill:#E0E0E0;" points="195.61,113.211 187.297,108.719 178.883,113.02 180.587,103.725 173.896,97.052 
				183.263,95.801 187.542,87.376 191.626,95.896 200.961,97.362 194.12,103.88 			"/>
		</g>
	</g>
	<g>
		<g>
			<polygon style="fill:#E0E0E0;" points="436.061,64.499 427.747,60.007 419.334,64.308 421.038,55.013 414.347,48.34 
				423.713,47.089 427.992,38.663 432.077,47.184 441.412,48.65 434.57,55.168 			"/>
		</g>
	</g>
	<g>
		<g>
			<polygon style="fill:#E0E0E0;" points="206.841,436.898 198.528,432.405 190.114,436.706 191.818,427.411 185.127,420.738 
				194.494,419.487 198.772,411.062 202.857,419.583 212.192,421.049 205.35,427.566 			"/>
		</g>
	</g>
	<g>
		<g>
			<polygon style="fill:#E0E0E0;" points="562.496,433.466 554.183,428.973 545.769,433.274 547.473,423.98 540.782,417.307 
				550.148,416.055 554.427,407.63 558.512,416.151 567.847,417.617 561.005,424.135 			"/>
		</g>
	</g>
	<g>
		<g>
			<polygon style="fill:#E0E0E0;" points="134.45,119.906 130.142,117.578 125.782,119.807 126.665,114.99 123.198,111.532 
				128.051,110.883 130.269,106.517 132.386,110.933 137.223,111.692 133.678,115.07 			"/>
		</g>
	</g>
	<g>
		<g>
			<polygon style="fill:#E0E0E0;" points="252.487,457.088 248.179,454.759 243.818,456.988 244.701,452.172 241.234,448.714 
				246.088,448.065 248.305,443.699 250.422,448.115 255.26,448.874 251.714,452.252 			"/>
		</g>
	</g>
	<g>
		<g>
			<polygon style="fill:#E0E0E0;" points="511.822,382.174 507.514,379.846 503.153,382.075 504.036,377.259 500.569,373.8 
				505.423,373.152 507.64,368.786 509.757,373.201 514.595,373.961 511.049,377.339 			"/>
		</g>
	</g>
	<g>
		<g>
			<polygon style="fill:#E0E0E0;" points="614.971,117.911 610.663,115.583 606.303,117.812 607.186,112.995 603.719,109.537 
				608.573,108.888 610.79,104.522 612.907,108.938 617.745,109.698 614.199,113.075 			"/>
		</g>
	</g>
</g>
<g id="Background_Simple" style="display:none;">
	<g style="display:inline;">
		<path style="fill:#F5F5F5;" d="M71.002,105.905l0.582,1.388c4.91,11.696,15.714,19.916,28.238,20.982
			c1.61,0.137,3.23,0.158,4.847,0.056c11.641-0.733,22.728-7.8,28.426-18.119c3.351-6.069,5.122-13.367,10.423-17.79
			c6.899-5.757,16.963-4.469,25.743-2.879c8.78,1.59,18.854,2.852,25.729-2.935c4.305-3.624,6.361-9.385,6.897-15.018
			c1.42-14.914-6.918-29.682-19.051-38.214c-12.132-8.531-27.483-11.422-42.266-10.669c-20.708,1.055-41.487,9.334-55.542,24.811
			C70.974,62.995,64.573,85.981,71.002,105.905z"/>
	</g>
	<g style="display:inline;">
		<path style="fill:#F5F5F5;" d="M665.175,436.468l0.146-1.498c1.231-12.625-4.375-24.989-14.893-31.872
			c-1.352-0.885-2.768-1.672-4.239-2.35c-10.593-4.881-23.707-3.925-33.62,2.453c-5.83,3.75-10.854,9.333-17.619,10.709
			c-8.805,1.791-17.051-4.12-24.024-9.687c-6.973-5.568-15.24-11.461-24.038-9.631c-5.51,1.146-10.053,5.24-13.199,9.944
			c-8.33,12.453-8.002,29.409-1.374,42.677c6.628,13.268,18.767,23.1,32.135,29.455c18.727,8.902,40.945,11.479,60.663,4.53
			C644.83,474.248,661.375,457.056,665.175,436.468z"/>
	</g>
	<g style="display:inline;">
		
			<ellipse transform="matrix(0.1549 -0.9879 0.9879 0.1549 472.9888 677.1745)" style="fill:#F5F5F5;" cx="632.312" cy="62.119" rx="39.526" ry="39.526"/>
	</g>
	<g style="display:inline;">
		
			<ellipse transform="matrix(0.9239 -0.3827 0.3827 0.9239 -158.4897 82.6402)" style="fill:#F5F5F5;" cx="128.485" cy="439.711" rx="39.526" ry="39.526"/>
	</g>
</g>
<g id="Windows">
	<g>
		<g>
			<g>
				<rect x="546.386" y="146.492" style="fill:#FFFFFF;" width="171.632" height="238.557"/>
			</g>
			<g>
				<rect x="546.386" y="146.492" style="fill:#455A64;" width="171.632" height="86.347"/>
			</g>
			<g>
				<g>
					<path style="fill:#263238;" d="M688.3,253.975c0,0.144-23.596,0.26-52.697,0.26c-29.111,0-52.702-0.117-52.702-0.26
						s23.591-0.26,52.702-0.26C664.704,253.714,688.3,253.831,688.3,253.975z"/>
				</g>
			</g>
			<g>
				<g>
					<path style="fill:#263238;" d="M688.3,277.23c0,0.144-23.596,0.26-52.697,0.26c-29.111,0-52.702-0.117-52.702-0.26
						c0-0.144,23.591-0.26,52.702-0.26C664.704,276.97,688.3,277.086,688.3,277.23z"/>
				</g>
			</g>
			<g>
				<g>
					<path style="fill:#263238;" d="M688.3,300.485c0,0.144-23.596,0.26-52.697,0.26c-29.111,0-52.702-0.117-52.702-0.26
						s23.591-0.26,52.702-0.26C664.704,300.225,688.3,300.341,688.3,300.485z"/>
				</g>
			</g>
			<g>
				<path style="fill:#455A64;" d="M687.866,365.93H584.77c-10.138,0-18.356-8.218-18.356-18.356v-1.922
					c0-10.138,8.218-18.356,18.356-18.356h103.096c10.138,0,18.356,8.218,18.356,18.356v1.922
					C706.222,357.712,698.004,365.93,687.866,365.93z"/>
			</g>
			<g>
				<path style="fill:#FFFFFF;" d="M597.854,205.506c0.761,0.343,1.348,0.832,1.762,1.468c0.413,0.636,0.619,1.384,0.619,2.243
					c0,0.859-0.206,1.604-0.619,2.235c-0.414,0.631-1.001,1.118-1.762,1.46c-0.762,0.343-1.659,0.514-2.692,0.514h-1.989v2.985
					h-3.23v-11.419h5.22C596.195,204.992,597.092,205.164,597.854,205.506z M596.467,210.449c0.337-0.288,0.506-0.699,0.506-1.232
					c0-0.533-0.169-0.946-0.506-1.24c-0.338-0.294-0.838-0.441-1.501-0.441h-1.794v3.344h1.794
					C595.63,210.881,596.13,210.737,596.467,210.449z"/>
				<path style="fill:#FFFFFF;" d="M606.794,213.377h-1.762v3.034h-3.23v-11.419h5.22c1.033,0,1.931,0.171,2.692,0.514
					c0.761,0.343,1.348,0.832,1.762,1.468c0.413,0.636,0.619,1.384,0.619,2.243c0,0.827-0.193,1.547-0.579,2.162
					c-0.386,0.614-0.938,1.096-1.655,1.443l2.463,3.589h-3.458L606.794,213.377z M608.327,207.977
					c-0.338-0.294-0.838-0.441-1.501-0.441h-1.794v3.344h1.794c0.663,0,1.163-0.144,1.501-0.432
					c0.337-0.288,0.506-0.699,0.506-1.232C608.833,208.684,608.664,208.271,608.327,207.977z"/>
				<path style="fill:#FFFFFF;" d="M623.04,213.915v2.496h-9.168v-11.419h8.956v2.496h-5.759v1.925h5.073v2.414h-5.073v2.088H623.04
					z"/>
				<path style="fill:#FFFFFF;" d="M635.143,216.411l-0.032-6.052l-2.937,4.926h-1.436l-2.92-4.763v5.889h-2.985v-11.419h2.659
					l4.013,6.59l3.915-6.59h2.659l0.032,11.419H635.143z"/>
				<path style="fill:#FFFFFF;" d="M640.395,204.992h3.23v11.419h-3.23V204.992z"/>
				<path style="fill:#FFFFFF;" d="M647.239,215.253c-0.94-0.924-1.411-2.235-1.411-3.931v-6.329h3.23v6.231
					c0,1.827,0.724,2.741,2.17,2.741c1.435,0,2.153-0.914,2.153-2.741v-6.231h3.181v6.329c0,1.696-0.471,3.007-1.411,3.931
					c-0.94,0.924-2.259,1.387-3.955,1.387C649.498,216.639,648.179,216.177,647.239,215.253z"/>
				<path style="fill:#FFFFFF;" d="M669.056,216.411l-0.032-6.052l-2.937,4.926h-1.435l-2.92-4.763v5.889h-2.985v-11.419h2.659
					l4.013,6.59l3.915-6.59h2.659l0.032,11.419H669.056z"/>
			</g>
			<g>
				<path style="fill:#FFFFFF;" d="M610.128,350.519c-0.874-0.47-1.563-1.122-2.063-1.957c-0.501-0.834-0.751-1.777-0.751-2.829
					c0-1.052,0.25-1.995,0.751-2.829c0.5-0.835,1.189-1.487,2.063-1.957c0.875-0.471,1.858-0.705,2.951-0.705
					c0.92,0,1.752,0.161,2.495,0.485c0.743,0.323,1.368,0.788,1.874,1.396l-1.578,1.456c-0.718-0.829-1.608-1.244-2.67-1.244
					c-0.657,0-1.244,0.145-1.76,0.433c-0.516,0.288-0.918,0.69-1.206,1.206c-0.288,0.516-0.433,1.103-0.433,1.76
					c0,0.657,0.144,1.244,0.433,1.76c0.288,0.516,0.69,0.918,1.206,1.206c0.516,0.288,1.103,0.433,1.76,0.433
					c1.063,0,1.952-0.42,2.67-1.26l1.578,1.457c-0.506,0.616-1.133,1.087-1.881,1.41c-0.749,0.324-1.583,0.485-2.504,0.485
					C611.981,351.224,611.003,350.99,610.128,350.519z"/>
				<path style="fill:#FFFFFF;" d="M626.344,343.669c0.622,0.607,0.933,1.508,0.933,2.7v4.673h-2.366v-4.309
					c0-0.647-0.142-1.13-0.425-1.448c-0.283-0.318-0.692-0.478-1.229-0.478c-0.597,0-1.072,0.184-1.426,0.554
					c-0.354,0.37-0.531,0.918-0.531,1.646v4.035h-2.367v-11.256h2.367v3.943c0.313-0.313,0.692-0.554,1.138-0.72
					c0.444-0.167,0.931-0.251,1.456-0.251C624.906,342.759,625.722,343.063,626.344,343.669z"/>
				<path style="fill:#FFFFFF;" d="M631.078,350.625c-0.683-0.359-1.216-0.857-1.601-1.494c-0.384-0.638-0.576-1.36-0.576-2.17
					c0-0.809,0.192-1.532,0.576-2.169c0.385-0.638,0.918-1.136,1.601-1.494c0.683-0.359,1.454-0.539,2.314-0.539
					c0.859,0,1.629,0.18,2.306,0.539c0.678,0.358,1.209,0.856,1.594,1.494c0.384,0.637,0.576,1.36,0.576,2.169
					c0,0.81-0.192,1.532-0.576,2.17c-0.385,0.637-0.916,1.135-1.594,1.494c-0.677,0.359-1.446,0.538-2.306,0.538
					C632.532,351.163,631.76,350.985,631.078,350.625z M634.885,348.608c0.39-0.41,0.584-0.958,0.584-1.646
					c0-0.688-0.194-1.236-0.584-1.646c-0.389-0.41-0.887-0.614-1.494-0.614c-0.607,0-1.107,0.204-1.502,0.614
					c-0.394,0.409-0.591,0.958-0.591,1.646c0,0.688,0.196,1.236,0.591,1.646c0.395,0.409,0.896,0.614,1.502,0.614
					C633.999,349.222,634.497,349.017,634.885,348.608z"/>
				<path style="fill:#FFFFFF;" d="M641.014,350.625c-0.683-0.359-1.216-0.857-1.601-1.494c-0.384-0.638-0.576-1.36-0.576-2.17
					c0-0.809,0.192-1.532,0.576-2.169c0.385-0.638,0.918-1.136,1.601-1.494c0.683-0.359,1.454-0.539,2.313-0.539
					c0.859,0,1.629,0.18,2.306,0.539c0.678,0.358,1.209,0.856,1.594,1.494c0.384,0.637,0.576,1.36,0.576,2.169
					c0,0.81-0.192,1.532-0.576,2.17c-0.385,0.637-0.916,1.135-1.594,1.494c-0.677,0.359-1.446,0.538-2.306,0.538
					C642.468,351.163,641.697,350.985,641.014,350.625z M644.822,348.608c0.39-0.41,0.584-0.958,0.584-1.646
					c0-0.688-0.194-1.236-0.584-1.646c-0.389-0.41-0.887-0.614-1.494-0.614c-0.606,0-1.107,0.204-1.502,0.614
					c-0.395,0.409-0.591,0.958-0.591,1.646c0,0.688,0.196,1.236,0.591,1.646c0.395,0.409,0.896,0.614,1.502,0.614
					C643.935,349.222,644.433,349.017,644.822,348.608z"/>
				<path style="fill:#FFFFFF;" d="M650.139,350.913c-0.648-0.167-1.163-0.377-1.547-0.63l0.788-1.699
					c0.364,0.233,0.805,0.423,1.32,0.569c0.516,0.147,1.021,0.22,1.517,0.22c1.002,0,1.502-0.247,1.502-0.743
					c0-0.232-0.137-0.399-0.409-0.501c-0.273-0.101-0.693-0.187-1.259-0.258c-0.668-0.101-1.22-0.217-1.654-0.349
					c-0.435-0.131-0.812-0.364-1.13-0.698c-0.318-0.333-0.478-0.809-0.478-1.426c0-0.516,0.148-0.973,0.447-1.373
					c0.298-0.399,0.733-0.71,1.305-0.933c0.571-0.223,1.246-0.334,2.025-0.334c0.576,0,1.15,0.064,1.722,0.19
					c0.571,0.127,1.044,0.302,1.418,0.523l-0.788,1.685c-0.719-0.404-1.502-0.607-2.352-0.607c-0.506,0-0.886,0.071-1.138,0.213
					c-0.253,0.142-0.38,0.323-0.38,0.546c0,0.253,0.137,0.43,0.41,0.531c0.272,0.101,0.707,0.197,1.305,0.288
					c0.667,0.111,1.213,0.23,1.638,0.356c0.425,0.127,0.794,0.357,1.107,0.69c0.313,0.334,0.471,0.799,0.471,1.396
					c0,0.506-0.151,0.956-0.455,1.35c-0.304,0.395-0.746,0.701-1.327,0.918c-0.582,0.218-1.272,0.326-2.071,0.326
					C651.449,351.163,650.787,351.08,650.139,350.913z"/>
				<path style="fill:#FFFFFF;" d="M665.384,347.629h-6.174c0.111,0.506,0.374,0.905,0.789,1.198
					c0.414,0.293,0.93,0.439,1.547,0.439c0.425,0,0.802-0.063,1.131-0.189c0.328-0.126,0.634-0.326,0.917-0.599l1.26,1.365
					c-0.768,0.88-1.892,1.319-3.368,1.319c-0.92,0-1.734-0.179-2.442-0.538s-1.254-0.857-1.639-1.494
					c-0.384-0.638-0.576-1.36-0.576-2.17c0-0.799,0.189-1.52,0.569-2.161c0.379-0.643,0.899-1.144,1.563-1.502
					c0.662-0.359,1.403-0.539,2.222-0.539c0.799,0,1.522,0.172,2.17,0.516c0.646,0.345,1.155,0.837,1.524,1.48
					c0.369,0.643,0.554,1.388,0.554,2.237C665.43,347.022,665.416,347.235,665.384,347.629z M659.847,345.004
					c-0.363,0.304-0.586,0.719-0.667,1.244h4.021c-0.081-0.516-0.304-0.928-0.668-1.236c-0.364-0.309-0.81-0.463-1.335-0.463
					C660.662,344.549,660.212,344.702,659.847,345.004z"/>
			</g>
			<g>
				<path style="fill:#455A64;" d="M572.178,258.31c-0.352,0-0.705-0.123-0.99-0.374l-2.937-2.584
					c-0.622-0.547-0.683-1.495-0.135-2.117c0.546-0.622,1.495-0.683,2.117-0.135l1.826,1.607l4.142-4.574
					c0.558-0.616,1.505-0.662,2.119-0.105c0.614,0.556,0.661,1.504,0.106,2.119l-5.135,5.67
					C572.996,258.144,572.587,258.31,572.178,258.31z"/>
			</g>
			<g>
				<path style="fill:#455A64;" d="M572.178,281.565c-0.352,0-0.705-0.123-0.99-0.374l-2.937-2.584
					c-0.622-0.547-0.683-1.495-0.135-2.117c0.546-0.622,1.495-0.683,2.117-0.135l1.826,1.607l4.142-4.574
					c0.558-0.616,1.505-0.661,2.119-0.105c0.614,0.557,0.661,1.505,0.106,2.119l-5.135,5.67
					C572.996,281.399,572.587,281.565,572.178,281.565z"/>
			</g>
			<g>
				<path style="fill:#455A64;" d="M572.178,304.821c-0.352,0-0.705-0.123-0.99-0.374l-2.937-2.585
					c-0.622-0.548-0.682-1.495-0.135-2.117c0.548-0.621,1.495-0.683,2.117-0.135l1.826,1.607l4.142-4.574
					c0.558-0.615,1.505-0.661,2.119-0.105c0.614,0.557,0.661,1.505,0.106,2.119l-5.135,5.671
					C572.996,304.655,572.587,304.821,572.178,304.821z"/>
			</g>
			<g>
				<polygon style="fill:#FFFFFF;" points="642.429,169.558 644.904,174.573 650.438,175.377 646.434,179.281 647.379,184.793 
					642.429,182.191 637.479,184.793 638.424,179.281 634.419,175.377 639.954,174.573 				"/>
			</g>
			<g>
				<polygon style="fill:#FFFFFF;" points="622.981,169.558 625.456,174.573 630.991,175.377 626.986,179.281 627.931,184.793 
					622.981,182.191 618.031,184.793 618.976,179.281 614.971,175.377 620.506,174.573 				"/>
			</g>
			<g>
				<g>
					<polygon style="fill:#FFFFFF;" points="638.705,190.224 632.204,186.711 625.625,190.074 626.957,182.806 621.725,177.588 
						629.049,176.609 632.395,170.021 635.589,176.684 642.889,177.83 637.539,182.927 					"/>
				</g>
				<g>
					<path style="fill:#455A64;" d="M620.443,177.155l8.215-1.097l3.753-7.39l3.583,7.473l8.188,1.286l-6,5.717l1.307,8.184
						l-7.291-3.94l-7.379,3.772l1.494-8.152L620.443,177.155z M641.598,178.234l-6.412-1.007l-2.807-5.853l-2.939,5.787
						l-6.434,0.859l4.596,4.583l-1.17,6.384l5.78-2.954l5.709,3.086l-1.023-6.409L641.598,178.234z"/>
				</g>
			</g>
		</g>
		<g>
			<g>
				<path style="fill:#263238;" d="M718.018,385.049c-0.002-2.095-0.097-97.547-0.236-238.557l0.236,0.236
					c-51.792,0.007-110.123,0.015-171.612,0.024h-0.02l0.26-0.26c-0.018,89.258-0.035,171.848-0.049,238.557l-0.212-0.211
					C650.508,384.966,716.276,385.047,718.018,385.049c-1.741,0.002-67.51,0.083-171.632,0.212l-0.212,0v-0.212
					c-0.014-66.709-0.031-149.298-0.049-238.557v-0.26h0.26h0.02c61.489,0.009,119.82,0.017,171.612,0.024h0.237l0,0.236
					C718.115,287.502,718.02,382.956,718.018,385.049z"/>
			</g>
		</g>
	</g>
	<g>
		<g>
			<g>
				<rect x="31.982" y="146.492" style="fill:#FFFFFF;" width="171.632" height="238.557"/>
			</g>
			<g>
				<rect x="31.982" y="146.492" style="fill:#455A64;" width="171.632" height="86.347"/>
			</g>
			<g>
				<g>
					<path style="fill:#263238;" d="M173.896,253.975c0,0.144-23.596,0.26-52.697,0.26c-29.111,0-52.702-0.117-52.702-0.26
						s23.591-0.26,52.702-0.26C150.3,253.714,173.896,253.831,173.896,253.975z"/>
				</g>
			</g>
			<g>
				<g>
					<path style="fill:#263238;" d="M173.896,277.23c0,0.144-23.596,0.26-52.697,0.26c-29.111,0-52.702-0.117-52.702-0.26
						c0-0.144,23.591-0.26,52.702-0.26C150.3,276.97,173.896,277.086,173.896,277.23z"/>
				</g>
			</g>
			<g>
				<g>
					<path style="fill:#263238;" d="M173.896,300.485c0,0.144-23.596,0.26-52.697,0.26c-29.111,0-52.702-0.117-52.702-0.26
						s23.591-0.26,52.702-0.26C150.3,300.225,173.896,300.341,173.896,300.485z"/>
				</g>
			</g>
			<g>
				<path style="fill:#455A64;" d="M173.462,365.93H70.366c-10.138,0-18.356-8.218-18.356-18.356v-1.922
					c0-10.138,8.218-18.356,18.356-18.356h103.096c10.138,0,18.356,8.218,18.356,18.356v1.922
					C191.818,357.712,183.6,365.93,173.462,365.93z"/>
			</g>
			<g>
				<path style="fill:#FFFFFF;" d="M101.856,211.526c0.37,0.484,0.555,1.069,0.555,1.754c0,1-0.402,1.772-1.207,2.316
					c-0.805,0.544-1.969,0.815-3.491,0.815h-6.166v-11.418h5.839c1.457,0,2.566,0.269,3.328,0.807
					c0.761,0.539,1.142,1.265,1.142,2.178c0,0.544-0.133,1.031-0.399,1.46c-0.267,0.43-0.645,0.77-1.134,1.02
					C100.975,210.686,101.486,211.043,101.856,211.526z M94.743,207.326v2.202h2.219c1.087,0,1.631-0.37,1.631-1.109
					c0-0.728-0.544-1.093-1.631-1.093H94.743z M99.148,212.921c0-0.772-0.565-1.158-1.696-1.158h-2.708v2.316h2.708
					C98.582,214.079,99.148,213.693,99.148,212.921z"/>
				<path style="fill:#FFFFFF;" d="M111.741,214.194h-4.829l-0.897,2.218h-3.295l5.04-11.418h3.181l5.057,11.418h-3.36
					L111.741,214.194z M110.795,211.812l-1.468-3.654l-1.468,3.654H110.795z"/>
				<path style="fill:#FFFFFF;" d="M118.233,216.298c-0.871-0.229-1.577-0.533-2.121-0.914l1.06-2.381
					c0.511,0.337,1.104,0.609,1.778,0.815c0.674,0.207,1.338,0.31,1.99,0.31c1.24,0,1.86-0.31,1.86-0.93
					c0-0.326-0.177-0.568-0.53-0.726c-0.354-0.157-0.922-0.323-1.705-0.498c-0.859-0.184-1.577-0.383-2.153-0.595
					c-0.577-0.212-1.071-0.552-1.484-1.02c-0.414-0.468-0.62-1.098-0.62-1.892c0-0.696,0.19-1.324,0.571-1.884
					c0.38-0.56,0.949-1.003,1.705-1.33c0.755-0.326,1.683-0.489,2.781-0.489c0.751,0,1.49,0.084,2.218,0.253
					c0.729,0.168,1.37,0.416,1.925,0.742l-0.995,2.398c-1.087-0.587-2.142-0.881-3.165-0.881c-0.642,0-1.109,0.095-1.403,0.285
					c-0.293,0.191-0.44,0.438-0.44,0.742c0,0.305,0.174,0.533,0.522,0.686c0.348,0.152,0.908,0.31,1.68,0.473
					c0.87,0.185,1.591,0.383,2.162,0.596c0.571,0.212,1.065,0.549,1.484,1.011c0.418,0.463,0.628,1.09,0.628,1.884
					c0,0.685-0.19,1.305-0.571,1.859c-0.381,0.555-0.952,0.998-1.713,1.33c-0.761,0.331-1.686,0.497-2.773,0.497
					C120,216.64,119.103,216.526,118.233,216.298z"/>
				<path style="fill:#FFFFFF;" d="M127.466,204.993h3.229v11.418h-3.229V204.993z"/>
				<path style="fill:#FFFFFF;" d="M135.466,215.882c-0.952-0.505-1.699-1.21-2.243-2.112c-0.544-0.902-0.815-1.925-0.815-3.067
					c0-1.142,0.271-2.164,0.815-3.066c0.544-0.903,1.292-1.607,2.243-2.113c0.951-0.505,2.025-0.758,3.222-0.758
					c1.044,0,1.984,0.185,2.822,0.555c0.837,0.37,1.534,0.903,2.088,1.599l-2.055,1.859c-0.74-0.892-1.637-1.337-2.691-1.337
					c-0.62,0-1.172,0.136-1.656,0.408c-0.484,0.272-0.859,0.655-1.125,1.15c-0.267,0.495-0.4,1.063-0.4,1.705
					c0,0.642,0.133,1.21,0.4,1.705c0.266,0.495,0.642,0.878,1.125,1.15c0.484,0.272,1.036,0.408,1.656,0.408
					c1.055,0,1.952-0.446,2.691-1.338l2.055,1.86c-0.554,0.696-1.25,1.229-2.088,1.599c-0.837,0.37-1.778,0.555-2.822,0.555
					C137.492,216.64,136.418,216.387,135.466,215.882z"/>
			</g>
			<g>
				<path style="fill:#FFFFFF;" d="M95.723,350.52c-0.875-0.47-1.563-1.122-2.063-1.957c-0.501-0.834-0.751-1.777-0.751-2.829
					c0-1.052,0.25-1.995,0.751-2.829c0.5-0.835,1.188-1.487,2.063-1.957c0.875-0.471,1.858-0.705,2.951-0.705
					c0.92,0,1.752,0.161,2.496,0.485c0.743,0.323,1.368,0.788,1.873,1.396l-1.578,1.456c-0.718-0.829-1.608-1.244-2.67-1.244
					c-0.657,0-1.244,0.145-1.76,0.433c-0.516,0.288-0.918,0.69-1.206,1.206c-0.288,0.516-0.432,1.103-0.432,1.76
					s0.144,1.244,0.432,1.76c0.289,0.516,0.69,0.918,1.206,1.206c0.516,0.288,1.103,0.433,1.76,0.433c1.062,0,1.952-0.42,2.67-1.26
					l1.578,1.457c-0.506,0.616-1.133,1.087-1.881,1.41c-0.749,0.324-1.583,0.485-2.503,0.485
					C97.576,351.225,96.598,350.991,95.723,350.52z"/>
				<path style="fill:#FFFFFF;" d="M111.94,343.67c0.622,0.608,0.933,1.508,0.933,2.7v4.673h-2.367v-4.309
					c0-0.647-0.142-1.13-0.425-1.448c-0.283-0.318-0.693-0.479-1.229-0.479c-0.597,0-1.072,0.185-1.426,0.554
					c-0.354,0.37-0.531,0.918-0.531,1.646v4.035h-2.367v-11.256h2.367v3.943c0.313-0.313,0.692-0.554,1.138-0.72
					c0.445-0.167,0.93-0.251,1.456-0.251C110.501,342.76,111.318,343.064,111.94,343.67z"/>
				<path style="fill:#FFFFFF;" d="M116.673,350.626c-0.683-0.359-1.216-0.857-1.601-1.494c-0.385-0.638-0.577-1.36-0.577-2.17
					c0-0.809,0.192-1.532,0.577-2.169c0.384-0.638,0.917-1.136,1.601-1.494c0.683-0.359,1.454-0.539,2.314-0.539
					c0.859,0,1.628,0.18,2.306,0.539c0.677,0.358,1.209,0.857,1.593,1.494c0.384,0.637,0.577,1.36,0.577,2.169
					c0,0.81-0.192,1.532-0.577,2.17c-0.384,0.637-0.916,1.135-1.593,1.494c-0.678,0.359-1.446,0.538-2.306,0.538
					C118.127,351.164,117.356,350.986,116.673,350.626z M120.481,348.609c0.389-0.41,0.584-0.958,0.584-1.647
					c0-0.688-0.195-1.236-0.584-1.645c-0.39-0.41-0.888-0.614-1.494-0.614c-0.607,0-1.108,0.204-1.502,0.614
					c-0.395,0.409-0.592,0.958-0.592,1.645c0,0.689,0.197,1.236,0.592,1.647c0.395,0.409,0.895,0.614,1.502,0.614
					C119.593,349.223,120.091,349.018,120.481,348.609z"/>
				<path style="fill:#FFFFFF;" d="M126.609,350.626c-0.683-0.359-1.216-0.857-1.601-1.494c-0.385-0.638-0.577-1.36-0.577-2.17
					c0-0.809,0.192-1.532,0.577-2.169c0.384-0.638,0.917-1.136,1.601-1.494c0.683-0.359,1.454-0.539,2.314-0.539
					c0.859,0,1.628,0.18,2.306,0.539c0.677,0.358,1.208,0.857,1.593,1.494c0.384,0.637,0.577,1.36,0.577,2.169
					c0,0.81-0.192,1.532-0.577,2.17c-0.384,0.637-0.915,1.135-1.593,1.494c-0.678,0.359-1.446,0.538-2.306,0.538
					C128.063,351.164,127.292,350.986,126.609,350.626z M130.417,348.609c0.389-0.41,0.584-0.958,0.584-1.647
					c0-0.688-0.195-1.236-0.584-1.645c-0.39-0.41-0.888-0.614-1.494-0.614c-0.607,0-1.107,0.204-1.502,0.614
					c-0.395,0.409-0.592,0.958-0.592,1.645c0,0.689,0.197,1.236,0.592,1.647c0.395,0.409,0.895,0.614,1.502,0.614
					C129.529,349.223,130.027,349.018,130.417,348.609z"/>
				<path style="fill:#FFFFFF;" d="M135.734,350.914c-0.647-0.167-1.163-0.377-1.547-0.63l0.789-1.699
					c0.364,0.233,0.804,0.423,1.32,0.569c0.516,0.146,1.021,0.22,1.517,0.22c1.001,0,1.502-0.247,1.502-0.743
					c0-0.232-0.137-0.399-0.41-0.501c-0.273-0.101-0.693-0.186-1.259-0.258c-0.667-0.101-1.219-0.217-1.653-0.349
					c-0.435-0.131-0.812-0.364-1.13-0.698c-0.319-0.333-0.478-0.809-0.478-1.426c0-0.516,0.149-0.973,0.448-1.373
					c0.298-0.399,0.733-0.71,1.305-0.933c0.571-0.223,1.246-0.334,2.025-0.334c0.577,0,1.15,0.064,1.722,0.189
					c0.571,0.127,1.044,0.302,1.418,0.523l-0.789,1.685c-0.718-0.404-1.502-0.607-2.352-0.607c-0.506,0-0.885,0.071-1.138,0.213
					c-0.253,0.142-0.379,0.323-0.379,0.546c0,0.253,0.137,0.43,0.41,0.531c0.273,0.1,0.708,0.197,1.305,0.288
					c0.667,0.111,1.214,0.23,1.639,0.357c0.425,0.127,0.794,0.356,1.107,0.69c0.313,0.334,0.47,0.799,0.47,1.395
					c0,0.506-0.152,0.956-0.455,1.35c-0.304,0.395-0.746,0.701-1.328,0.918c-0.581,0.218-1.272,0.326-2.071,0.326
					C137.044,351.164,136.382,351.081,135.734,350.914z"/>
				<path style="fill:#FFFFFF;" d="M150.98,347.63h-6.174c0.111,0.506,0.374,0.905,0.789,1.198c0.415,0.293,0.93,0.44,1.547,0.44
					c0.424,0,0.801-0.063,1.13-0.19c0.329-0.126,0.635-0.326,0.918-0.599l1.259,1.365c-0.769,0.88-1.892,1.319-3.368,1.319
					c-0.92,0-1.734-0.179-2.442-0.538c-0.708-0.359-1.254-0.857-1.638-1.494c-0.385-0.638-0.577-1.36-0.577-2.17
					c0-0.799,0.19-1.52,0.569-2.161c0.379-0.643,0.9-1.144,1.563-1.502c0.663-0.359,1.403-0.539,2.223-0.539
					c0.799,0,1.522,0.172,2.169,0.516c0.647,0.345,1.155,0.837,1.524,1.479c0.369,0.643,0.554,1.388,0.554,2.237
					C151.025,347.023,151.01,347.236,150.98,347.63z M145.443,345.005c-0.364,0.304-0.587,0.719-0.667,1.244h4.02
					c-0.081-0.516-0.303-0.928-0.667-1.236c-0.364-0.309-0.809-0.463-1.335-0.463C146.257,344.55,145.807,344.703,145.443,345.005z"
					/>
			</g>
			<g>
				<path style="fill:#455A64;" d="M57.775,258.31c-0.352,0-0.706-0.123-0.99-0.374l-2.937-2.584
					c-0.622-0.547-0.683-1.495-0.135-2.117c0.548-0.622,1.496-0.682,2.117-0.135l1.827,1.607l4.142-4.574
					c0.556-0.614,1.504-0.661,2.119-0.105c0.614,0.556,0.661,1.504,0.105,2.119l-5.135,5.67
					C58.591,258.144,58.184,258.31,57.775,258.31z"/>
			</g>
			<g>
				<path style="fill:#455A64;" d="M57.775,281.565c-0.352,0-0.706-0.123-0.99-0.374l-2.937-2.584
					c-0.622-0.547-0.683-1.495-0.135-2.117c0.548-0.622,1.496-0.683,2.117-0.135l1.827,1.607l4.142-4.574
					c0.556-0.614,1.504-0.661,2.119-0.105c0.614,0.557,0.661,1.505,0.105,2.119l-5.135,5.67
					C58.591,281.399,58.184,281.565,57.775,281.565z"/>
			</g>
			<g>
				<path style="fill:#455A64;" d="M57.775,304.821c-0.352,0-0.706-0.123-0.991-0.374l-2.937-2.585
					c-0.622-0.547-0.682-1.495-0.135-2.117c0.548-0.622,1.496-0.682,2.117-0.135l1.827,1.607l4.142-4.574
					c0.556-0.614,1.504-0.661,2.119-0.105c0.614,0.557,0.661,1.505,0.105,2.119l-5.135,5.671
					C58.591,304.655,58.184,304.821,57.775,304.821z"/>
			</g>
			<g>
				<g>
					<polygon style="fill:#FFFFFF;" points="124.301,190.224 117.8,186.711 111.221,190.074 112.553,182.806 107.321,177.588 
						114.646,176.609 117.991,170.021 121.186,176.684 128.485,177.83 123.135,182.927 					"/>
				</g>
			</g>
		</g>
		<g>
			<g>
				<path style="fill:#263238;" d="M203.614,385.049c-0.002-2.095-0.097-97.547-0.236-238.557l0.236,0.236
					c-51.792,0.007-110.123,0.015-171.612,0.024h-0.02l0.26-0.26c-0.018,89.258-0.035,171.848-0.049,238.557l-0.212-0.211
					C136.104,384.966,201.872,385.047,203.614,385.049c-1.741,0.002-67.51,0.083-171.632,0.212l-0.212,0l0-0.212
					c-0.014-66.709-0.03-149.298-0.049-238.557v-0.26h0.26h0.02c61.489,0.009,119.82,0.017,171.612,0.024h0.237l0,0.236
					C203.71,287.502,203.616,382.956,203.614,385.049z"/>
			</g>
		</g>
	</g>
</g>
<g id="Character_1_">
	<g>
		<g>
			<g>
				<g>
					<g>
						<path style="fill:#263238;" d="M579.315,116.143c2.291-3.817,0.552-9.452-3.493-11.313c0.84-5.394-3.442-11.044-8.862-11.693
							c-2.578-0.309-5.188,0.372-7.777,0.168c-2.487-0.196-4.838-1.197-7.293-1.641c-2.455-0.444-5.291-0.196-6.973,1.647
							c-1.869,2.048-1.583,5.394-0.099,7.736c1.484,2.342,3.891,3.914,6.224,5.413c-1.388-0.145-2.63,1.125-2.859,2.502
							c-0.229,1.377,0.328,2.771,1.075,3.95c2.48,3.914,7.304,6.205,11.904,5.654l6.526-0.185
							C571.233,121.075,577.024,119.961,579.315,116.143z"/>
					</g>
				</g>
			</g>
			<g>
				<g>
					<g>
						<path style="fill:#FF725E;" d="M558.678,122.595c-1.329,0.208-2.657-0.876-2.922-2.195c-0.265-1.319,0.404-2.718,1.472-3.536
							c1.068-0.819,2.468-1.113,3.812-1.049c1.344,0.064,2.649,0.46,3.919,0.905c1.96,0.687,3.887,1.505,5.627,2.639
							c0.617,0.402,1.225,0.86,1.607,1.489c0.383,0.63,0.498,1.468,0.117,2.098c-0.536,0.886-1.747,1.018-2.782,1.028
							c-3.862,0.039-7.727-0.273-11.533-0.93"/>
					</g>
				</g>
			</g>
			<g>
				<g>
					<g>
						<g>
							<g>
								<g>
									<g>
										<g>
											<g>
												<g>
													<g>
														<path style="fill:#263238;" d="M556.53,120.389c-0.769-7.32-11.104-13.889-15.56-12.715
															c-2.116-4.287-8.016-6.191-12.239-3.949c-4.054-1.8-8.108-3.599-12.162-5.398c-2.074-0.921-4.262-1.862-6.522-1.662
															c-2.26,0.2-4.554,1.978-4.475,4.246c-4.396-1.749-9.878,2.685-9.086,7.35c-2.671,0.479-4.512,3.615-3.628,6.18
															c-5.438,1.345-10.643,3.628-15.317,6.716c-1.956,1.292-3.933,2.884-4.576,5.138c-0.643,2.254,0.792,5.186,3.136,5.205
															c-2.099,0.666-3.706,2.666-3.903,4.86c-1.805-1.258-4.344,1.096-4.072,3.278c0.273,2.183,2.153,3.77,3.955,5.03
															c1.803,1.26,3.792,2.578,4.505,4.659c-0.454,0.482-0.918,0.676-1.404,0.7c-4.862,0.24-8.855,3.871-8.915,8.738
															c-0.006,0.451-0.009,0.869-0.016,1.242c-0.042,2.212,1.519,5.412,2.496,7.397c2.476,5.033,5.153,6.39,9.154,10.321
															c-3.339,1.99-0.763,13.717,12.167,13.539c13.326,16.639,24.048,27.113,41.2,39.77
															c2.448,1.806,5.638,3.637,8.339,2.237c1.601,1.986,4.426,2.638,6.951,2.276c2.526-0.362,4.837-1.575,7.092-2.77
															c5.082,1.977,11.357,0.283,14.753-3.984c4.525-0.134,8.954-2.274,11.872-5.736c5.052,1.771,11.258-1.915,12.119-7.2
															c2.825-5.711,4.698-11.892,5.517-18.211c3.257,1.456,7.097-1.559,7.874-5.041c0.777-3.482-0.538-7.053-1.831-10.378
															c1.691,2.102,5.46,0.806,6.513-1.678c1.052-2.484,0.22-5.341-0.823-7.829c-1.529-3.646-3.501-7.106-5.86-10.279
															c1.716-4.435,0.079-12.118-2.183-16.3C592.479,129.273,583.914,120.413,556.53,120.389"/>
													</g>
												</g>
											</g>
										</g>
									</g>
								</g>
							</g>
						</g>
					</g>
					<g>
						<g>
							<g>
								<g>
									<g>
										<path style="fill:#FFBF9D;" d="M527.062,132.911c1.942-3.09,5.926-4.181,9.171-2.51l36.364,12.586
											c10.682,5.499,9.252,22.157,3.305,32.596c-6.608,11.597-15.132,25.497-21.905,32.941
											c-13.62,14.968-29.872,7.057-29.872,7.057c0.013-0.023-8.047,12.059-8.047,12.059l-9.249,14.109
											c-4.215-3.918-29.798-31.436-29.798-31.436L527.062,132.911z"/>
									</g>
								</g>
							</g>
						</g>
					</g>
					<g>
						<g>
							<g>
								<g>
									<g>
										<g>
											<g>
												<g>
													<g>
														<g>
															<g>
																<g>
																	<g>
																		<g>
																			<g>
																				<g>
																					<g>
																						<g>
																							<g>
																								<g>
																									<g>
																										<g>
																											<path style="fill:#263238;" d="M542.489,188.879c0.075-0.138,1.671,0.555,4.189,1.783
																												c0.629,0.325,1.263,0.574,1.626,0.238c0.419-0.335,0.588-1.131,0.753-2.003
																												c0.381-1.788,0.782-3.662,1.201-5.627c1.771-7.971,3.466-14.369,3.786-14.295
																												c0.321,0.074-0.855,6.595-2.627,14.566c-0.451,1.956-0.879,3.822-1.292,5.606
																												c-0.216,0.815-0.331,1.826-1.212,2.511c-0.447,0.336-1.089,0.371-1.533,0.225
																												c-0.453-0.133-0.789-0.343-1.091-0.518C543.869,189.957,542.412,189.016,542.489,188.879z"/>
																										</g>
																									</g>
																								</g>
																							</g>
																						</g>
																					</g>
																				</g>
																			</g>
																		</g>
																	</g>
																</g>
															</g>
														</g>
													</g>
												</g>
											</g>
										</g>
									</g>
								</g>
							</g>
						</g>
					</g>
					<g>
						<g>
							<g>
								<g>
									<g>
										<g>
											<g>
												<g>
													<g>
														<g>
															<g>
																<g>
																	<g>
																		<g>
																			<g>
																				<g>
																					<g>
																						<g>
																							<g>
																								<g>
																									<g>
																										<path style="fill:#FF9A6C;" d="M524.123,215.58c0,0-9.667-5.02-16.411-19.023
																											c0,0-5.475,14.215,12.575,24.771L524.123,215.58z"/>
																									</g>
																								</g>
																							</g>
																						</g>
																					</g>
																				</g>
																			</g>
																		</g>
																	</g>
																</g>
															</g>
														</g>
													</g>
												</g>
											</g>
										</g>
									</g>
								</g>
							</g>
						</g>
					</g>
					<g>
						<g>
							<g>
								<g>
									<g>
										<g>
											<g>
												<g>
													<g>
														<g>
															<g>
																<g>
																	<g>
																		<g>
																			<g>
																				<g>
																					<g>
																						<g>
																							<path style="fill:#263238;" d="M550.946,157.102c-0.639,0.478-2.746-1.33-5.665-2.78
																								c-2.891-1.508-5.592-2.148-5.582-2.946c0.017-0.374,0.784-0.714,2.064-0.742
																								c1.272-0.032,3.045,0.307,4.788,1.193c1.741,0.888,3.059,2.121,3.781,3.169
																								C551.063,156.048,551.239,156.868,550.946,157.102z"/>
																						</g>
																					</g>
																				</g>
																			</g>
																		</g>
																	</g>
																</g>
															</g>
														</g>
													</g>
												</g>
											</g>
										</g>
									</g>
								</g>
							</g>
						</g>
					</g>
					<g>
						<g>
							<g>
								<g>
									<g>
										<g>
											<g>
												<g>
													<g>
														<g>
															<g>
																<g>
																	<g>
																		<g>
																			<g>
																				<g>
																					<g>
																						<g>
																							<path style="fill:#263238;" d="M572.69,172.262c-0.749,0.257-1.981-1.329-3.875-2.608
																								c-1.848-1.345-3.759-1.963-3.772-2.756c0.011-0.373,0.611-0.73,1.643-0.762
																								c1.021-0.037,2.451,0.324,3.737,1.225c1.285,0.903,2.111,2.124,2.423,3.096
																								C573.169,171.439,573.036,172.124,572.69,172.262z"/>
																						</g>
																					</g>
																				</g>
																			</g>
																		</g>
																	</g>
																</g>
															</g>
														</g>
													</g>
												</g>
											</g>
										</g>
									</g>
								</g>
							</g>
						</g>
					</g>
					<g>
						<g>
							<g>
								<g>
									<g>
										<g>
											<g>
												<g>
													<g>
														<g>
															<path style="fill:#263238;" d="M577.559,188.617c1.678-2.648,2.746-5.803,2.348-8.912
																c-0.218-1.704-0.865-3.348-0.908-5.065c-0.094-3.71,2.565-6.846,3.89-10.312c1.708-4.467,1.077-9.757-1.633-13.698
																c-2.255-3.279-5.802-5.618-7.56-9.188c-1.299-2.639-1.502-5.737-2.955-8.295c-2.83-4.981-9.295-6.353-15.002-6.857
																c-3.079,2.597-3.054,6.788-3.024,10.816c0.03,4.028,1.933,8.003,5.051,10.554c2.419,1.979,5.785,3.54,6.261,6.629
																c0.5,3.249-2.64,6.069-2.675,9.356c-0.049,4.698,5.806,7.125,7.705,11.422c1.466,3.318,0.34,7.127-0.295,10.698
																c-0.635,3.572-0.42,7.931,2.619,9.913C573.621,193.484,575.881,191.264,577.559,188.617z"/>
														</g>
													</g>
												</g>
											</g>
										</g>
									</g>
								</g>
							</g>
						</g>
					</g>
					<g>
						<g>
							<g>
								<g>
									<g>
										<g>
											<g>
												<g>
													<g>
														<path style="fill:#263238;" d="M557.886,136.616c-7.309-5.449-15.684-9.463-24.511-11.747
															c-2.63-0.681-5.488-1.195-8.006-0.173c-2.213,0.899-3.809,2.847-5.185,4.8c-4.308,6.117-7.226,15.305-8.963,22.582
															l4.301,10.003c6.829,2.831,11.422-9.173,14.785-14.424c5.361,1.152,11.3-1.09,14.561-5.498
															C549.746,142.428,554.699,140.318,557.886,136.616z"/>
													</g>
												</g>
											</g>
										</g>
									</g>
								</g>
							</g>
						</g>
					</g>
					<g>
						<g>
							<g>
								<g>
									<g>
										<g>
											<g>
												<g>
													<g>
														<g>
															<g>
																<g>
																	<g>
																		<g>
																			<g>
																				<g>
																					<g>
																						<g>
																							<g>
																								<g>
																									<g>
																										<g>
																											<path style="fill:#FFBF9D;" d="M516.991,159.827c2.274-3.634-1.498-7.383-5.77-7.747
																												c-2.345-0.2-4.978,0.851-7.426,4.686c-6.527,10.228,5.088,14.67,5.293,14.389
																												C509.215,170.979,514.328,164.082,516.991,159.827z"/>
																										</g>
																									</g>
																								</g>
																							</g>
																						</g>
																					</g>
																				</g>
																			</g>
																		</g>
																	</g>
																</g>
															</g>
														</g>
													</g>
												</g>
											</g>
										</g>
									</g>
								</g>
							</g>
						</g>
						<g>
							<g>
								<g>
									<g>
										<g>
											<g>
												<g>
													<g>
														<g>
															<g>
																<g>
																	<g>
																		<g>
																			<g>
																				<g>
																					<g>
																						<g>
																							<g>
																								<g>
																									<g>
																										<g>
																											<g>
																												<path style="fill:#FF9A6C;" d="M508.436,165.285c-0.024-0.062-0.258,0.011-0.647-0.043
																													c-0.379-0.053-0.944-0.283-1.35-0.822c-0.827-1.087-0.642-3.382,0.485-5.258
																													c0.568-0.947,1.329-1.709,2.127-2.232c0.79-0.549,1.607-0.763,2.213-0.512
																													c0.622,0.22,0.799,0.792,0.74,1.159c-0.046,0.374-0.241,0.536-0.198,0.589
																													c0.012,0.044,0.329-0.031,0.516-0.507c0.087-0.23,0.121-0.548,0.006-0.897
																													c-0.118-0.356-0.414-0.688-0.819-0.889c-0.823-0.449-1.996-0.177-2.873,0.397
																													c-0.922,0.55-1.799,1.392-2.437,2.457c-1.25,2.103-1.426,4.705-0.22,6.075
																													c0.599,0.647,1.338,0.813,1.802,0.769C508.26,165.52,508.46,165.326,508.436,165.285z"/>
																											</g>
																										</g>
																									</g>
																								</g>
																							</g>
																						</g>
																					</g>
																				</g>
																			</g>
																		</g>
																	</g>
																</g>
															</g>
														</g>
													</g>
												</g>
											</g>
										</g>
									</g>
								</g>
							</g>
						</g>
					</g>
					<g>
						<g>
							<g>
								<g>
									<g>
										<g>
											<g>
												<g>
													<g>
														<g>
															<path style="fill:#455A64;" d="M504.364,168.626c0.003,0.003-0.038,0.04-0.123,0.11
																c-0.092,0.057-0.197,0.201-0.402,0.279c-0.373,0.231-1.05,0.346-1.875,0.198c-0.829-0.145-1.795-0.565-2.795-1.247
																c-0.504-0.336-1.01-0.75-1.503-1.24c-0.491-0.49-0.98-1.057-1.344-1.761l0.16,0.026
																c-1.177,1.184-3.102,1.991-5.174,1.688c-2.052-0.286-4.116-1.863-4.845-4.2l0.188,0.091
																c-0.604,0.232-1.309,0.204-1.908-0.07c-0.608-0.257-1.121-0.722-1.495-1.281c-0.374-0.561-0.581-1.263-0.53-1.963
																c0.044-0.697,0.289-1.379,0.669-1.978c0.762-1.2,2.031-2.076,3.434-2.503c1.405-0.451,2.908-0.557,4.409-0.653
																l-0.147,0.24c-0.478-1.082-0.375-2.37,0.122-3.452c0.493-1.091,1.323-2.042,2.372-2.695
																c1.051-0.645,2.26-1.009,3.487-1.21c1.231-0.202,2.487-0.25,3.745-0.29l-0.175,0.21
																c-0.205-1.252,0.271-2.564,1.089-3.548c0.817-0.995,1.951-1.748,3.216-2.116c2.425-0.698,4.905-0.267,7.203,0.114
																l-0.201,0.113c1.023-2.534,3.34-4.39,5.885-4.892c2.553-0.503,5.213,0.307,7.011,1.954l-0.273,0.059
																c0.885-2.041,2.822-3.35,4.778-3.821c1.969-0.489,4.085-0.163,5.621,0.956l-0.212,0.035
																c1.3-1.798,3.418-2.619,5.32-2.674c1.925-0.067,3.74,0.637,4.924,1.829l-0.181,0.015
																c0.721-0.934,1.683-1.523,2.616-1.944c0.942-0.414,1.892-0.66,2.792-0.726c1.803-0.194,3.355,0.318,4.405,0.975
																c0.133,0.082,0.262,0.163,0.387,0.241c0.117,0.089,0.221,0.188,0.327,0.276c0.203,0.187,0.417,0.336,0.57,0.521
																c0.297,0.374,0.593,0.655,0.748,0.942c0.16,0.266,0.285,0.475,0.378,0.63c0.083,0.142,0.123,0.215,0.118,0.219
																c-0.005,0.003-0.055-0.066-0.147-0.202c-0.099-0.15-0.233-0.352-0.404-0.609c-0.162-0.279-0.464-0.549-0.764-0.911
																c-0.154-0.178-0.369-0.321-0.571-0.501c-0.106-0.085-0.209-0.181-0.326-0.266c-0.124-0.074-0.252-0.151-0.384-0.23
																c-1.04-0.627-2.557-1.107-4.319-0.899c-0.879,0.074-1.806,0.323-2.722,0.735c-0.907,0.416-1.839,1.005-2.509,1.888
																l-0.085,0.111l-0.097-0.096c-1.142-1.133-2.889-1.801-4.746-1.725c-1.835,0.063-3.861,0.868-5.083,2.575
																l-0.089,0.124l-0.123-0.089c-1.458-1.054-3.479-1.362-5.366-0.886c-1.876,0.458-3.716,1.719-4.541,3.641
																l-0.095,0.221l-0.178-0.162c-1.719-1.569-4.277-2.342-6.709-1.857c-2.423,0.48-4.646,2.265-5.615,4.678l-0.055,0.137
																l-0.145-0.024c-2.297-0.382-4.727-0.79-7.038-0.121c-1.192,0.346-2.267,1.061-3.034,1.995
																c-0.769,0.926-1.198,2.128-1.012,3.261l0.033,0.205l-0.208,0.006c-2.487,0.071-5.031,0.203-7.056,1.438
																c-0.985,0.611-1.776,1.513-2.239,2.534c-0.467,1.016-0.557,2.192-0.127,3.173l0.099,0.225l-0.246,0.015
																c-1.5,0.091-2.975,0.195-4.329,0.626c-1.354,0.409-2.546,1.233-3.268,2.359c-0.73,1.102-0.885,2.57-0.154,3.605
																c0.656,1.035,1.962,1.684,3.046,1.252l0.143-0.057l0.045,0.148c0.679,2.225,2.652,3.757,4.61,4.041
																c1.983,0.305,3.851-0.458,4.996-1.588l0.098-0.097l0.062,0.123c0.342,0.677,0.815,1.24,1.292,1.725
																c0.479,0.487,0.972,0.901,1.464,1.238c0.976,0.685,1.92,1.113,2.727,1.27c0.803,0.16,1.46,0.067,1.831-0.142
																C504.19,168.775,504.35,168.607,504.364,168.626z"/>
														</g>
													</g>
												</g>
											</g>
										</g>
									</g>
								</g>
							</g>
						</g>
					</g>
					<g>
						<g>
							<g>
								<g>
									<g>
										<g>
											<g>
												<g>
													<g>
														<g>
															<path style="fill:#455A64;" d="M474.55,131.088c0,0-0.026-0.298,0.059-0.86c0.091-0.557,0.302-1.392,0.884-2.319
																c0.571-0.914,1.547-1.947,3.03-2.5c1.453-0.552,3.402-0.624,5.193,0.307l-0.168,0.058
																c0.77-1.732,2.31-3.343,4.388-4.205c1.031-0.441,2.194-0.687,3.397-0.654c1.216,0.015,2.395,0.424,3.599,0.675
																c0.603,0.126,1.221,0.211,1.838,0.165c0.617-0.042,1.215-0.242,1.77-0.561c1.117-0.626,2.06-1.637,3.344-2.252
																c2.539-1.201,5.94-0.788,8.123,1.354l-0.289,0.044c1.299-2.474,3.813-4.436,6.747-5.007
																c3.055-0.592,6.254,0.394,8.41,2.386l-0.28,0.044c1.788-3.088,5.416-4.704,8.623-4.211
																c3.23,0.495,5.809,2.831,6.785,5.514l-0.169-0.099c1.737-0.275,3.428-0.035,4.943,0.385
																c1.515,0.437,2.905,1.018,4.108,1.736c2.448,1.375,4.247,3.08,5.538,4.6c1.278,1.542,2.044,2.935,2.421,3.935
																c0.226,0.485,0.289,0.898,0.379,1.157c0.075,0.265,0.102,0.404,0.102,0.404c-0.032,0.009-0.164-0.546-0.567-1.525
																c-0.401-0.98-1.184-2.347-2.47-3.856c-1.298-1.488-3.096-3.158-5.526-4.497c-1.194-0.701-2.569-1.263-4.059-1.683
																c-1.489-0.404-3.143-0.626-4.82-0.352l-0.125,0.021l-0.044-0.119c-0.946-2.573-3.451-4.82-6.545-5.282
																c-3.065-0.468-6.56,1.101-8.258,4.052l-0.114,0.197l-0.167-0.154c-2.071-1.912-5.163-2.862-8.094-2.29
																c-2.817,0.546-5.247,2.44-6.496,4.814l-0.114,0.217l-0.175-0.173c-2.051-2.027-5.311-2.433-7.718-1.298
																c-1.209,0.569-2.152,1.57-3.328,2.231c-0.584,0.334-1.245,0.554-1.91,0.596c-0.664,0.046-1.311-0.048-1.928-0.179
																c-1.232-0.263-2.385-0.667-3.543-0.685c-1.155-0.037-2.279,0.192-3.278,0.613c-2.016,0.822-3.519,2.373-4.276,4.04
																l-0.054,0.118l-0.114-0.06c-1.709-0.907-3.599-0.861-5.012-0.342c-1.442,0.518-2.407,1.507-2.984,2.393
																c-0.587,0.898-0.816,1.713-0.928,2.26C474.571,130.792,474.569,131.09,474.55,131.088z"/>
														</g>
													</g>
												</g>
											</g>
										</g>
									</g>
								</g>
							</g>
						</g>
					</g>
					<g>
						<g>
							<g>
								<g>
									<g>
										<g>
											<g>
												<g>
													<g>
														<g>
															<path style="fill:#455A64;" d="M566.522,201.626c0.007,0.023-0.013-0.416,0.544-0.832
																c0.272-0.198,0.673-0.354,1.162-0.398c0.493-0.056,1.06,0.074,1.654,0.267c0.596,0.183,1.251,0.453,1.995,0.467
																c0.741,0.015,1.54-0.263,2.244-0.777c0.715-0.506,1.331-1.227,1.872-2.068c0.551-0.835,1.044-1.785,1.707-2.704
																c1.328-1.876,3.483-3.195,5.444-4.901c0.973-0.857,1.869-1.893,2.466-3.133c0.59-1.225,0.805-2.723,0.216-4.048
																c-0.555-1.336-1.656-2.412-2.599-3.654c-0.47-0.624-0.91-1.309-1.167-2.091c-0.273-0.78-0.264-1.643-0.12-2.45
																c0.301-1.637,1.134-3.092,1.761-4.611c0.32-0.757,0.589-1.545,0.665-2.353c0.088-0.809-0.11-1.621-0.53-2.315
																c-0.615-0.929-1.592-1.566-2.448-2.335c-0.43-0.384-0.838-0.818-1.126-1.339c-0.29-0.518-0.439-1.118-0.423-1.701
																c0.019-1.177,0.475-2.224,0.785-3.251c0.344-1.021,0.47-2.072,0.37-3.106c-0.187-2.065-1.246-3.97-2.798-5.135
																c-1.547-1.176-3.483-1.692-5.258-1.504l-0.215,0.023l0.043-0.212c0.716-3.547-0.41-6.968-2.192-9.248
																c-0.9-1.151-1.981-2.025-3.076-2.655c-1.093-0.635-2.206-1.026-3.24-1.2c-2.087-0.349-3.749,0.13-4.773,0.564
																c-0.526,0.209-0.901,0.425-1.155,0.571c-0.119,0.064-0.213,0.115-0.292,0.158c-0.066,0.034-0.101,0.05-0.103,0.046
																c-0.002-0.003,0.028-0.026,0.09-0.067c0.076-0.048,0.166-0.106,0.28-0.179c0.246-0.161,0.617-0.392,1.142-0.618
																c1.022-0.466,2.706-0.986,4.842-0.657c1.058,0.164,2.199,0.551,3.321,1.188c1.123,0.632,2.237,1.516,3.168,2.689
																c1.842,2.322,3.019,5.814,2.299,9.471l-0.172-0.189c1.857-0.204,3.875,0.324,5.497,1.549
																c1.631,1.217,2.746,3.211,2.946,5.371c0.11,1.075-0.027,2.203-0.378,3.247c-0.317,1.044-0.752,2.075-0.765,3.147
																c-0.047,1.085,0.586,2.042,1.431,2.764c0.826,0.747,1.831,1.389,2.511,2.408c0.469,0.764,0.684,1.676,0.588,2.549
																c-0.083,0.873-0.368,1.691-0.693,2.461c-0.641,1.542-1.46,2.985-1.744,4.535c-0.137,0.766-0.147,1.556,0.104,2.276
																c0.237,0.724,0.651,1.378,1.109,1.988c0.915,1.218,2.04,2.312,2.632,3.736c0.29,0.704,0.429,1.476,0.354,2.219
																c-0.063,0.743-0.285,1.452-0.591,2.098c-0.628,1.291-1.557,2.351-2.556,3.223c-2.006,1.722-4.135,3.011-5.436,4.826
																c-0.655,0.892-1.156,1.837-1.722,2.679c-0.555,0.848-1.201,1.592-1.948,2.108c-0.736,0.525-1.582,0.811-2.367,0.784
																c-0.789-0.028-1.447-0.316-2.036-0.507c-0.589-0.202-1.127-0.336-1.601-0.293c-0.472,0.031-0.861,0.17-1.128,0.35
																C566.563,201.23,566.553,201.651,566.522,201.626z"/>
														</g>
													</g>
												</g>
											</g>
										</g>
									</g>
								</g>
							</g>
						</g>
					</g>
					<g>
						<g>
							<g>
								<g>
									<g>
										<g>
											<g>
												<g>
													<g>
														<g>
															<path style="fill:#455A64;" d="M596.571,200.195c-0.006-0.001,0.004-0.088,0.031-0.257
																c0.032-0.186,0.074-0.433,0.127-0.746c0.125-0.676,0.301-1.635,0.527-2.861c0.222-1.242,0.557-2.755,0.756-4.531
																c0.184-1.755,0.229-3.877-0.741-5.901c-0.483-1.005-1.195-1.953-1.82-3.029c-0.31-0.539-0.598-1.117-0.775-1.754
																c-0.184-0.633-0.216-1.333-0.075-2.005c0.271-1.355,1.092-2.521,1.482-3.843c0.187-0.658,0.245-1.363,0.024-2.025
																c-0.201-0.668-0.615-1.272-1.05-1.871c-0.433-0.601-0.915-1.203-1.256-1.92c-0.362-0.707-0.466-1.561-0.338-2.359
																c0.274-1.619,1.238-2.969,1.913-4.416c0.339-0.722,0.628-1.485,0.65-2.273c0.038-0.789-0.282-1.559-0.817-2.151
																c-1.097-1.202-2.81-1.755-4.083-3.02c-0.631-0.639-1.041-1.496-1.166-2.366c-0.131-0.872-0.072-1.736-0.001-2.573
																c0.072-0.838,0.165-1.663,0.146-2.472c-0.013-0.807-0.161-1.605-0.551-2.279c-0.78-1.383-2.318-2.052-3.731-2.649
																c-1.424-0.599-2.918-1.215-3.963-2.372c-1.047-1.133-1.64-2.519-2.176-3.822c-0.541-1.305-0.999-2.611-1.729-3.692
																c-1.489-2.167-3.63-3.568-5.691-4.398c-2.083-0.834-4.153-1.02-5.922-0.896c-1.784,0.129-3.251,0.646-4.419,1.097
																c-1.14,0.527-2.005,0.989-2.546,1.375c-0.268,0.169-0.479,0.303-0.638,0.404c-0.145,0.089-0.221,0.133-0.225,0.128
																c-0.004-0.005,0.065-0.059,0.203-0.158c0.155-0.109,0.36-0.253,0.62-0.436c0.53-0.407,1.388-0.893,2.53-1.444
																c1.17-0.477,2.649-1.021,4.459-1.171c1.795-0.146,3.904,0.024,6.034,0.859c2.107,0.833,4.3,2.241,5.85,4.471
																c0.767,1.127,1.229,2.439,1.775,3.739c0.538,1.296,1.127,2.644,2.125,3.715c0.985,1.087,2.415,1.68,3.851,2.278
																c0.719,0.306,1.459,0.615,2.153,1.048c0.691,0.429,1.336,1.005,1.756,1.748c0.43,0.74,0.586,1.608,0.6,2.447
																c0.02,0.844-0.074,1.68-0.145,2.513c-0.07,0.831-0.123,1.669,0,2.485c0.12,0.815,0.486,1.574,1.065,2.166
																c1.179,1.189,2.893,1.738,4.094,3.033c0.589,0.649,0.953,1.528,0.909,2.404c-0.027,0.875-0.34,1.679-0.688,2.419
																c-0.7,1.477-1.642,2.814-1.893,4.316c-0.116,0.741-0.03,1.494,0.303,2.155c0.314,0.67,0.781,1.261,1.218,1.869
																c0.435,0.605,0.873,1.239,1.092,1.973c0.242,0.73,0.172,1.52-0.031,2.213c-0.423,1.391-1.239,2.541-1.494,3.813
																c-0.294,1.272,0.195,2.515,0.797,3.557c0.605,1.059,1.318,2.019,1.809,3.057c0.987,2.104,0.914,4.27,0.71,6.037
																c-0.22,1.79-0.577,3.297-0.82,4.535c-0.254,1.22-0.454,2.175-0.594,2.848c-0.069,0.31-0.123,0.554-0.164,0.739
																C596.6,200.112,596.577,200.197,596.571,200.195z"/>
														</g>
													</g>
												</g>
											</g>
										</g>
									</g>
								</g>
							</g>
						</g>
					</g>
					<g>
						<g>
							<g>
								<g>
									<g>
										<g>
											<g>
												<g>
													<g>
														<g>
															<path style="fill:#455A64;" d="M593.547,182.368c0.003-0.006,0.07,0.027,0.202,0.099
																c0.116,0.088,0.305,0.227,0.439,0.493c0.275,0.517,0.306,1.488-0.28,2.446c-0.302,0.477-0.768,0.884-1.271,1.316
																c-0.5,0.432-1.069,0.884-1.482,1.517c-0.413,0.633-0.575,1.45-0.619,2.313c-0.047,0.867,0.019,1.799-0.099,2.787
																c-0.09,0.976-0.581,2.064-1.541,2.649c-0.918,0.609-2.03,0.87-2.943,1.505c-0.922,0.629-1.441,1.726-1.685,2.896
																c-0.266,1.174-0.349,2.438-0.694,3.706c-0.168,0.633-0.431,1.267-0.837,1.822c-0.404,0.556-0.946,1.012-1.547,1.356
																c-1.214,0.683-2.582,0.993-3.891,1.45c-1.299,0.442-2.608,1.118-3.284,2.36c-0.694,1.225-0.806,2.724-1.207,4.171
																c-0.201,0.726-0.484,1.449-0.939,2.069c-0.46,0.615-1.075,1.093-1.736,1.432c-1.336,0.677-2.774,0.916-4.125,1.247
																c-1.356,0.323-2.66,0.735-3.725,1.539c-1.088,0.764-2.046,1.708-3.228,2.321c-0.587,0.303-1.237,0.506-1.895,0.522
																c-0.661,0.022-1.289-0.15-1.872-0.334c-0.586-0.186-1.147-0.392-1.712-0.499c-0.567-0.095-1.136-0.113-1.693-0.048
																c-1.114,0.143-2.149,0.535-3.127,0.939c-0.979,0.405-1.918,0.822-2.854,1.127c-1.877,0.633-3.76,0.542-5.239,0.045
																c-1.492-0.482-2.639-1.253-3.429-2.011c-0.795-0.76-1.274-1.478-1.543-1.987c-0.266-0.511-0.361-0.799-0.361-0.799
																c0.062-0.048,0.403,1.196,2.001,2.681c0.792,0.73,1.929,1.468,3.393,1.92c1.456,0.467,3.271,0.536,5.097-0.096
																c0.916-0.307,1.843-0.727,2.826-1.141c0.981-0.412,2.034-0.823,3.199-0.979c0.582-0.073,1.186-0.057,1.788,0.041
																c0.6,0.111,1.174,0.319,1.751,0.499c0.576,0.179,1.167,0.336,1.766,0.311c0.6-0.017,1.194-0.203,1.748-0.491
																c1.117-0.58,2.067-1.516,3.18-2.306c1.102-0.838,2.485-1.279,3.844-1.603c1.362-0.334,2.78-0.579,4.04-1.221
																c0.625-0.321,1.188-0.762,1.61-1.328c0.417-0.568,0.684-1.244,0.879-1.946c0.394-1.403,0.498-2.926,1.243-4.254
																c0.364-0.66,0.914-1.206,1.528-1.608c0.617-0.403,1.29-0.68,1.957-0.913c1.334-0.461,2.685-0.769,3.835-1.415
																c0.569-0.324,1.068-0.744,1.441-1.255c0.374-0.509,0.626-1.1,0.79-1.71c0.339-1.22,0.427-2.481,0.705-3.687
																c0.252-1.196,0.817-2.398,1.826-3.075c0.986-0.67,2.098-0.92,2.96-1.492c0.892-0.541,1.336-1.501,1.439-2.445
																c0.123-0.949,0.067-1.881,0.123-2.765c0.054-0.88,0.231-1.742,0.681-2.412c0.448-0.665,1.037-1.115,1.542-1.538
																c0.506-0.421,0.972-0.817,1.263-1.26c0.578-0.904,0.575-1.838,0.334-2.336
																C593.864,182.482,593.521,182.393,593.547,182.368z"/>
														</g>
													</g>
												</g>
											</g>
										</g>
									</g>
								</g>
							</g>
						</g>
					</g>
					<g>
						<g>
							<g>
								<g>
									<g>
										<g>
											<g>
												<g>
													<path style="fill:#FF9A6C;" d="M533.058,187.07c0.746-0.46,1.727-0.231,2.217,0.496
														c1.507,2.235,3.013,4.469,4.52,6.704l0.504,0.745c-1.078,0.871-2.68,2.099-3.965,2.618
														c-1.285,0.518-2.808,0.627-4.021-0.044c-0.911-0.504-1.733-1.554-2.124-2.518c-0.685-1.689-1.253-3.42-0.479-5.07
														C530.258,188.829,531.957,187.748,533.058,187.07z"/>
												</g>
											</g>
										</g>
									</g>
								</g>
							</g>
						</g>
					</g>
				</g>
				<g>
					<g>
						<g>
							<g>
								<g>
									<g>
										<g>
											<g>
												<g>
													<path style="fill:#E0E0E0;" d="M499.72,162.824c0,0-0.721-0.254-2.083-0.213c-1.334,0.042-3.397,0.522-5.218,2.2
														c-0.91,0.817-1.722,1.928-2.251,3.278c-0.502,1.352-0.732,2.918-0.539,4.531c0.175,1.61,0.757,3.27,1.792,4.711
														c1.023,1.447,2.546,2.616,4.31,3.26c1.761,0.649,3.658,0.79,5.393,0.424c1.741-0.354,3.288-1.24,4.441-2.384
														c2.321-2.319,3.106-5.443,2.737-7.855c-0.196-1.226-0.695-2.233-1.192-3.057c-0.505-0.825-1.067-1.452-1.573-1.905
														c-0.51-0.451-0.968-0.727-1.296-0.869c-0.329-0.14-0.514-0.18-0.517-0.169c-0.026,0.049,0.731,0.239,1.69,1.171
														c0.474,0.462,1.002,1.089,1.473,1.906c0.464,0.813,0.927,1.809,1.09,2.968c0.313,2.316-0.479,5.306-2.712,7.504
														c-1.11,1.083-2.575,1.911-4.232,2.243c-1.651,0.342-3.463,0.205-5.141-0.414c-1.682-0.615-3.123-1.717-4.101-3.089
														c-0.99-1.367-1.558-2.953-1.736-4.495c-0.196-1.545,0.01-3.047,0.475-4.346c0.489-1.291,1.251-2.37,2.114-3.172
														c1.724-1.646,3.703-2.164,5.006-2.26C498.976,162.697,499.713,162.881,499.72,162.824z"/>
												</g>
											</g>
										</g>
									</g>
								</g>
							</g>
						</g>
					</g>
				</g>
				<g>
					<g>
						<g>
							<g>
								<g>
									<g>
										<g>
											<g>
												<g>
													<g>
														<g>
															<g>
																<g>
																	<g>
																		<g>
																			<g>
																				<g>
																					<g>
																						<g>
																							<g>
																								<path style="fill:#263238;" d="M540.212,170.694c-0.724,1.187-2.325,1.553-3.579,0.82
																									c-1.251-0.732-1.683-2.285-0.959-3.473c0.724-1.187,2.326-1.554,3.577-0.823
																									C540.505,167.951,540.936,169.507,540.212,170.694z"/>
																							</g>
																						</g>
																					</g>
																				</g>
																			</g>
																		</g>
																	</g>
																</g>
															</g>
														</g>
													</g>
												</g>
											</g>
										</g>
									</g>
								</g>
							</g>
						</g>
					</g>
					<g>
						<g>
							<g>
								<g>
									<g>
										<g>
											<g>
												<g>
													<g>
														<g>
															<g>
																<g>
																	<g>
																		<g>
																			<g>
																				<g>
																					<g>
																						<g>
																							<g>
																								<path style="fill:#263238;" d="M561.108,185.276c-0.723,1.187-2.325,1.553-3.579,0.82
																									c-1.251-0.731-1.683-2.285-0.959-3.473c0.724-1.187,2.326-1.554,3.577-0.823
																									C561.401,182.533,561.832,184.089,561.108,185.276z"/>
																							</g>
																						</g>
																					</g>
																				</g>
																			</g>
																		</g>
																	</g>
																</g>
															</g>
														</g>
													</g>
												</g>
											</g>
										</g>
									</g>
								</g>
							</g>
						</g>
					</g>
					<g>
						<g>
							<g>
								<g>
									<g>
										<g>
											<g>
												<g>
													<g>
														<g>
															<g>
																<g>
																	<g>
																		<g>
																			<g>
																				<g>
																					<g>
																						<g>
																							<g>
																								<g>
																									<path style="fill:#263238;" d="M567.095,179.523c-0.437,0.173-1.265-2.111-3.526-3.391
																										c-2.237-1.315-4.645-0.896-4.71-1.36c-0.041-0.212,0.543-0.64,1.604-0.846
																										c1.048-0.209,2.588-0.116,3.99,0.692c1.401,0.81,2.248,2.091,2.585,3.099
																										C567.387,178.738,567.302,179.453,567.095,179.523z"/>
																								</g>
																							</g>
																						</g>
																					</g>
																				</g>
																			</g>
																		</g>
																	</g>
																</g>
															</g>
														</g>
													</g>
												</g>
											</g>
										</g>
									</g>
								</g>
							</g>
						</g>
					</g>
				</g>
				<g>
					<g>
						<g>
							<g>
								<g>
									<g>
										<g>
											<g>
												<g>
													<g>
														<g>
															<g>
																<g>
																	<g>
																		<g>
																			<g>
																				<g>
																					<g>
																						<g>
																							<g>
																								<g>
																									<path style="fill:#263238;" d="M545.857,166.789c-0.525,0.121-1.31-2.569-3.843-4.365
																										c-2.504-1.834-5.347-1.759-5.387-2.288c-0.03-0.244,0.682-0.629,1.94-0.684
																										c1.24-0.064,3.029,0.291,4.6,1.422c1.569,1.134,2.454,2.704,2.767,3.886
																										C546.258,165.957,546.103,166.743,545.857,166.789z"/>
																								</g>
																							</g>
																						</g>
																					</g>
																				</g>
																			</g>
																		</g>
																	</g>
																</g>
															</g>
														</g>
													</g>
												</g>
											</g>
										</g>
									</g>
								</g>
							</g>
						</g>
					</g>
				</g>
			</g>
			<g>
				<g>
					<g>
						<g>
							<path style="fill:#263238;" d="M534.264,197.833c0.004,0.034-0.367,0.141-1.035,0.012c-0.665-0.12-1.589-0.577-2.421-1.461
								c-0.815-0.887-1.575-2.162-1.852-3.77c-0.144-0.798-0.069-1.725,0.288-2.561c0.355-0.841,0.961-1.573,1.665-2.17
								c0.706-0.605,1.471-1.062,2.233-1.456c0.393-0.193,0.924-0.405,1.497-0.19c0.552,0.237,0.773,0.682,0.979,0.984
								c0.771,1.227,1.493,2.377,2.161,3.44c1.21,1.972,1.911,3.223,1.817,3.285c-0.095,0.062-0.967-1.076-2.301-2.966
								c-0.714-1.034-1.485-2.151-2.308-3.344c-0.436-0.714-0.755-0.89-1.482-0.493c-0.709,0.378-1.429,0.818-2.064,1.363
								c-1.312,1.064-1.985,2.581-1.738,4.001c0.203,1.423,0.849,2.644,1.54,3.494c0.707,0.851,1.487,1.335,2.073,1.537
								C533.902,197.748,534.267,197.755,534.264,197.833z"/>
						</g>
					</g>
				</g>
			</g>
			<g>
				<g>
					<g>
						<g>
							<path style="fill:#263238;" d="M624.845,158.933c-0.104,0.036-0.235-1.405-1.559-3.489c-0.673-1.018-1.651-2.193-3.078-3.179
								c-1.406-0.994-3.274-1.808-5.429-1.954l-0.311-0.021l0.031-0.314c0.233-2.321-0.528-4.991-2.306-7.168
								c-1.739-2.163-4.543-3.893-7.696-3.899l-0.392-0.001l-0.002-0.39c-0.02-3.865-1.655-8.06-4.716-11.157
								c-2.343-2.392-5.409-3.853-8.479-4.376c-3.075-0.532-6.143-0.16-8.729,0.874l-0.183,0.073l-0.164-0.109
								c-3.075-2.049-6.348-3.25-9.341-3.763c-2.994-0.564-5.697-0.479-7.881-0.208c-4.394,0.594-6.709,1.89-6.757,1.744
								c-0.009-0.019,0.131-0.1,0.411-0.239c0.282-0.132,0.692-0.354,1.255-0.574c1.118-0.451,2.809-1.016,5.029-1.37
								c2.214-0.339,4.973-0.486,8.049,0.041c3.073,0.476,6.455,1.666,9.65,3.755l-0.346-0.036c2.706-1.109,5.918-1.52,9.143-0.976
								c3.217,0.531,6.46,2.066,8.927,4.586c3.219,3.257,4.919,7.658,4.919,11.729l-0.394-0.39c3.455,0.03,6.43,1.925,8.253,4.24
								c1.865,2.332,2.644,5.196,2.351,7.681l-0.279-0.335c2.29,0.194,4.231,1.096,5.669,2.167c1.46,1.065,2.433,2.315,3.083,3.392
								c0.645,1.09,0.951,2.031,1.119,2.669C624.833,158.583,624.871,158.928,624.845,158.933z"/>
						</g>
					</g>
				</g>
			</g>
			<g>
				<g>
					<g>
						<g>
							<path style="fill:#263238;" d="M560.791,107.404c0,0-1.149-0.093-2.878-1.184c-1.673-1.058-4.011-3.291-4.785-6.981
								c-0.361-1.816-0.219-3.953,0.672-5.974c0.876-2.01,2.423-3.941,4.593-5.208c2.155-1.282,4.966-1.72,7.632-1.057
								c2.66,0.634,5.236,2.29,6.795,4.827l-0.45-0.183c1.673-0.432,3.571-0.218,5.219,0.565c1.37,0.636,2.541,1.651,3.357,2.892
								c0.803,1.255,1.181,2.743,1.125,4.173c-0.098,2.863-1.702,5.52-4.052,6.784l-0.153-0.718c2.315,0.203,4.17,1.764,5.131,3.553
								c1.01,1.804,1.096,3.954,0.445,5.672c-1.29,3.513-4.489,5.339-7.058,5.644c-2.63,0.354-4.686-0.331-5.956-0.887
								c-0.645-0.283-1.109-0.565-1.416-0.762c-0.301-0.206-0.451-0.322-0.439-0.34c0.032-0.055,0.658,0.378,1.951,0.871
								c1.273,0.475,3.294,1.058,5.788,0.654c2.43-0.347,5.384-2.145,6.52-5.39c0.571-1.589,0.468-3.487-0.46-5.118
								c-0.887-1.617-2.574-2.979-4.564-3.133l-1.292-0.101l1.139-0.618c2.078-1.128,3.536-3.556,3.61-6.135
								c0.045-1.288-0.294-2.593-1.005-3.706c-0.728-1.1-1.781-2.019-3.021-2.592c-1.489-0.708-3.192-0.896-4.666-0.518
								l-0.293,0.075l-0.158-0.259c-1.421-2.326-3.808-3.885-6.283-4.488c-2.486-0.628-5.067-0.244-7.083,0.925
								c-2.032,1.159-3.514,2.959-4.364,4.839c-0.865,1.893-1.031,3.887-0.726,5.611c0.659,3.508,2.835,5.733,4.412,6.834
								C559.705,107.108,560.826,107.316,560.791,107.404z"/>
						</g>
					</g>
				</g>
			</g>
			<g>
				<g>
					<g>
						<g>
							<path style="fill:#263238;" d="M495.664,99.174c-0.022-0.006,0.004-0.179,0.077-0.509c0.068-0.332,0.211-0.813,0.45-1.419
								c0.481-1.199,1.393-2.934,3.154-4.59c1.733-1.633,4.396-3.201,7.725-3.453c3.274-0.27,7.142,0.744,10.102,3.467l-0.453-0.059
								c3.132-1.706,7.188-2.365,11.115-1.459c2.919,0.668,5.509,2.218,7.465,4.184c1.957,1.974,3.313,4.347,4.003,6.738
								l-0.31-0.263c3.253,0.456,6.071,1.768,8.19,3.385c2.16,1.585,3.65,3.442,4.665,5.07c1.01,1.643,1.54,3.079,1.823,4.072
								c0.263,1,0.338,1.55,0.306,1.556c-0.144,0.054-0.433-2.223-2.503-5.388c-1.043-1.554-2.536-3.32-4.654-4.812
								c-2.078-1.526-4.81-2.743-7.918-3.147l-0.241-0.031l-0.07-0.232c-0.68-2.264-1.987-4.512-3.857-6.38
								c-1.872-1.861-4.322-3.318-7.085-3.951c-3.721-0.859-7.582-0.245-10.558,1.351l-0.248,0.133l-0.206-0.192
								c-2.752-2.57-6.408-3.582-9.518-3.371c-3.156,0.189-5.721,1.62-7.441,3.148c-1.743,1.547-2.698,3.191-3.243,4.333
								C495.895,98.508,495.725,99.191,495.664,99.174z"/>
						</g>
					</g>
				</g>
			</g>
		</g>
		<g>
			<g>
				<g>
					<path style="fill:#FF725E;" d="M434.355,174.279c0,0,1.076-1.92,9.403-0.834c8.327,1.086,41.329,23.946,41.329,23.946
						s-6.003,23.606,12.152,28.109c13.217,3.278,20.233-0.411,20.233-0.411s22.128,27.521,23.938,38.744
						c0,0-106.649,74.619-89.339,66.505l-17.715,0.201V174.279z"/>
				</g>
			</g>
			<g>
				<g>
					<path style="fill:#FF725E;" d="M539.679,258.776c0.288,0.797,4.426,5.713,0.331,27.631
						c-3.719,19.911-20.03,40.008-20.03,40.008l-32.426-29.215L539.679,258.776z"/>
				</g>
			</g>
			<g>
				<g>
					<g>
						<path style="fill:#263238;" d="M522.748,274.395c0.012,0.014-0.16,0.179-0.498,0.481c-0.382,0.333-0.878,0.765-1.495,1.303
							c-1.315,1.111-3.237,2.698-5.644,4.616c-4.808,3.845-11.529,9.054-19.005,14.737c-7.48,5.683-14.292,10.772-19.243,14.428
							c-2.447,1.79-4.444,3.251-5.883,4.303c-0.667,0.473-1.204,0.854-1.617,1.147c-0.373,0.257-0.574,0.385-0.585,0.371
							c-0.011-0.014,0.169-0.171,0.522-0.455c0.398-0.313,0.915-0.719,1.558-1.225c1.414-1.085,3.378-2.59,5.784-4.435
							c4.943-3.755,11.692-8.882,19.149-14.548c7.475-5.681,14.229-10.843,19.093-14.611c2.389-1.865,4.339-3.387,5.743-4.484
							c0.642-0.507,1.159-0.914,1.556-1.227C522.542,274.52,522.737,274.381,522.748,274.395z"/>
					</g>
				</g>
			</g>
		</g>
		<g>
			<g>
				<g>
					<rect x="232.569" y="85.843" style="fill:#FFFFFF;" width="236.208" height="328.315"/>
				</g>
			</g>
			<g>
				<g>
					<rect x="232.569" y="85.843" style="fill:#FF725E;" width="236.208" height="118.835"/>
				</g>
			</g>
			<g>
				<g>
					<path style="fill:#263238;" d="M444.174,119.09h-41.988c-6.228,0-11.277-5.049-11.277-11.277v-1.181
						c0-6.228,5.049-11.277,11.277-11.277h41.988c6.228,0,11.277,5.049,11.277,11.277v1.181
						C455.451,114.041,450.402,119.09,444.174,119.09z"/>
				</g>
			</g>
			<g>
				<g>
					<g>
						<path style="fill:#263238;" d="M427.879,233.766c0,0.144-32.474,0.26-72.524,0.26c-40.064,0-72.531-0.117-72.531-0.26
							c0-0.144,32.467-0.26,72.531-0.26C395.405,233.505,427.879,233.622,427.879,233.766z"/>
					</g>
				</g>
			</g>
			<g>
				<g>
					<g>
						<path style="fill:#263238;" d="M427.879,265.771c0,0.144-32.474,0.26-72.524,0.26c-40.064,0-72.531-0.117-72.531-0.26
							s32.467-0.26,72.531-0.26C395.405,265.51,427.879,265.627,427.879,265.771z"/>
					</g>
				</g>
			</g>
			<g>
				<g>
					<g>
						<path style="fill:#263238;" d="M427.879,297.776c0,0.144-32.474,0.26-72.524,0.26c-40.064,0-72.531-0.117-72.531-0.26
							s32.467-0.26,72.531-0.26C395.405,297.515,427.879,297.632,427.879,297.776z"/>
					</g>
				</g>
			</g>
			<g>
				<g>
					<path style="fill:#FF725E;" d="M427.282,387.845H285.396c-13.952,0-25.262-11.31-25.262-25.262v-2.646
						c0-13.952,11.31-25.262,25.262-25.262h141.886c13.952,0,25.262,11.31,25.262,25.262v2.646
						C452.544,376.534,441.234,387.845,427.282,387.845z"/>
				</g>
			</g>
			<g>
				<path style="fill:#FFFFFF;" d="M294.331,186.292c-1.198-0.314-2.17-0.733-2.918-1.257l1.459-3.277
					c0.703,0.464,1.519,0.838,2.447,1.123c0.928,0.284,1.841,0.426,2.739,0.426c1.706,0,2.559-0.426,2.559-1.279
					c0-0.449-0.243-0.782-0.729-0.999c-0.487-0.217-1.269-0.445-2.346-0.685c-1.182-0.254-2.17-0.527-2.963-0.819
					c-0.794-0.292-1.474-0.759-2.043-1.403c-0.569-0.643-0.853-1.511-0.853-2.604c0-0.958,0.262-1.822,0.786-2.593
					c0.524-0.771,1.306-1.381,2.346-1.83c1.04-0.449,2.316-0.674,3.828-0.674c1.033,0,2.05,0.116,3.053,0.348
					c1.002,0.232,1.886,0.572,2.649,1.021l-1.369,3.3c-1.497-0.809-2.949-1.212-4.355-1.212c-0.883,0-1.526,0.131-1.931,0.393
					c-0.404,0.262-0.606,0.603-0.606,1.021c0,0.419,0.239,0.734,0.718,0.943c0.479,0.21,1.25,0.427,2.313,0.651
					c1.197,0.254,2.189,0.527,2.975,0.819c0.786,0.292,1.466,0.756,2.043,1.392c0.576,0.637,0.864,1.501,0.864,2.593
					c0,0.943-0.262,1.796-0.786,2.559c-0.524,0.763-1.31,1.374-2.357,1.83c-1.048,0.457-2.32,0.685-3.816,0.685
					C296.762,186.764,295.527,186.606,294.331,186.292z"/>
				<path style="fill:#FFFFFF;" d="M310.157,174.259h-4.827v-3.524h14.076v3.524h-4.805v12.19h-4.445V174.259z"/>
				<path style="fill:#FFFFFF;" d="M330.812,183.396h-6.646l-1.234,3.053h-4.535l6.937-15.715h4.378l6.959,15.715h-4.625
					L330.812,183.396z M329.509,180.118l-2.021-5.028l-2.021,5.028H329.509z"/>
				<path style="fill:#FFFFFF;" d="M352.879,170.734v15.715h-3.659l-6.937-8.374v8.374h-4.355v-15.715h3.66l6.937,8.373v-8.373
					H352.879z"/>
				<path style="fill:#FFFFFF;" d="M356.022,170.734h7.431c1.721,0,3.248,0.322,4.58,0.965c1.332,0.644,2.365,1.557,3.098,2.739
					c0.733,1.183,1.1,2.567,1.1,4.153s-0.367,2.971-1.1,4.153c-0.733,1.182-1.766,2.095-3.098,2.739
					c-1.332,0.644-2.859,0.965-4.58,0.965h-7.431V170.734z M363.274,182.902c1.347,0,2.428-0.382,3.244-1.145
					c0.815-0.763,1.223-1.818,1.223-3.165c0-1.347-0.408-2.402-1.223-3.165c-0.816-0.763-1.897-1.145-3.244-1.145h-2.806v8.621
					H363.274z"/>
				<path style="fill:#FFFFFF;" d="M384.87,183.396h-6.645l-1.234,3.053h-4.536l6.938-15.715h4.377l6.959,15.715h-4.625
					L384.87,183.396z M383.567,180.118l-2.02-5.028l-2.019,5.028H383.567z"/>
				<path style="fill:#FFFFFF;" d="M398.856,182.273h-2.425v4.176h-4.445v-15.715h7.185c1.421,0,2.656,0.236,3.704,0.707
					c1.047,0.472,1.855,1.145,2.424,2.021c0.569,0.876,0.854,1.905,0.854,3.087c0,1.138-0.266,2.129-0.797,2.975
					c-0.531,0.846-1.291,1.508-2.278,1.987l3.39,4.939h-4.76L398.856,182.273z M400.966,174.843
					c-0.465-0.404-1.153-0.606-2.065-0.606h-2.47v4.602h2.47c0.912,0,1.601-0.198,2.065-0.595c0.463-0.396,0.695-0.961,0.695-1.695
					C401.662,175.816,401.429,175.246,400.966,174.843z"/>
				<path style="fill:#FFFFFF;" d="M408.599,170.734h7.431c1.722,0,3.248,0.322,4.58,0.965c1.332,0.644,2.364,1.557,3.098,2.739
					c0.733,1.183,1.1,2.567,1.1,4.153s-0.367,2.971-1.1,4.153c-0.733,1.182-1.766,2.095-3.098,2.739
					c-1.332,0.644-2.858,0.965-4.58,0.965h-7.431V170.734z M415.851,182.902c1.347,0,2.428-0.382,3.243-1.145
					c0.815-0.763,1.224-1.818,1.224-3.165c0-1.347-0.408-2.402-1.224-3.165c-0.815-0.763-1.896-1.145-3.243-1.145h-2.807v8.621
					H415.851z"/>
			</g>
			<g>
				<g>
					<path style="fill:#FFFFFF;" d="M410.971,104.422c0.414,0.188,0.733,0.454,0.957,0.798c0.224,0.345,0.335,0.753,0.335,1.225
						c0,0.466-0.111,0.873-0.335,1.22c-0.224,0.348-0.543,0.614-0.957,0.798c-0.414,0.185-0.903,0.276-1.465,0.276h-1.279v1.751
						h-1.47v-6.35h2.749C410.068,104.141,410.557,104.235,410.971,104.422z M410.431,107.257c0.229-0.19,0.345-0.461,0.345-0.812
						c0-0.356-0.115-0.63-0.345-0.821c-0.23-0.19-0.565-0.286-1.007-0.286h-1.197v2.204h1.197
						C409.866,107.543,410.202,107.448,410.431,107.257z"/>
				</g>
				<g>
					<path style="fill:#FFFFFF;" d="M414.136,110.242c-0.408-0.214-0.727-0.513-0.957-0.894c-0.229-0.381-0.345-0.813-0.345-1.297
						c0-0.483,0.115-0.916,0.345-1.297c0.23-0.381,0.549-0.679,0.957-0.894c0.408-0.215,0.869-0.322,1.384-0.322
						c0.514,0,0.974,0.107,1.379,0.322c0.405,0.215,0.723,0.513,0.952,0.894c0.229,0.381,0.345,0.813,0.345,1.297
						c0,0.484-0.115,0.917-0.345,1.297c-0.229,0.381-0.547,0.679-0.952,0.894c-0.405,0.215-0.865,0.322-1.379,0.322
						C415.005,110.564,414.545,110.456,414.136,110.242z M416.414,109.035c0.232-0.245,0.349-0.573,0.349-0.984
						c0-0.411-0.116-0.739-0.349-0.984c-0.233-0.245-0.531-0.368-0.893-0.368c-0.363,0-0.662,0.123-0.898,0.368
						c-0.235,0.245-0.354,0.573-0.354,0.984c0,0.412,0.118,0.74,0.354,0.984c0.236,0.245,0.535,0.368,0.898,0.368
						C415.882,109.403,416.18,109.28,416.414,109.035z"/>
				</g>
				<g>
					<path style="fill:#FFFFFF;" d="M423.263,105.851c0.372,0.209,0.663,0.502,0.875,0.88c0.212,0.378,0.317,0.818,0.317,1.32
						c0,0.502-0.105,0.942-0.317,1.32c-0.212,0.378-0.503,0.671-0.875,0.88c-0.372,0.208-0.785,0.313-1.238,0.313
						c-0.623,0-1.113-0.197-1.47-0.59v2.277h-1.415v-6.64h1.352v0.563c0.351-0.423,0.861-0.635,1.533-0.635
						C422.478,105.538,422.891,105.642,423.263,105.851z M422.673,109.035c0.232-0.245,0.35-0.573,0.35-0.984
						c0-0.411-0.117-0.739-0.35-0.984c-0.233-0.245-0.531-0.368-0.894-0.368c-0.363,0-0.661,0.123-0.893,0.368
						c-0.233,0.245-0.35,0.573-0.35,0.984c0,0.412,0.116,0.74,0.35,0.984c0.232,0.245,0.53,0.368,0.893,0.368
						C422.142,109.403,422.44,109.28,422.673,109.035z"/>
				</g>
				<g>
					<path style="fill:#FFFFFF;" d="M430.315,105.611v4.88h-1.342v-0.58c-0.188,0.212-0.412,0.373-0.672,0.485
						s-0.541,0.168-0.844,0.168c-0.641,0-1.148-0.185-1.523-0.554c-0.375-0.369-0.563-0.916-0.563-1.642v-2.758h1.415v2.549
						c0,0.787,0.329,1.18,0.989,1.18c0.338,0,0.61-0.11,0.816-0.332c0.205-0.22,0.308-0.548,0.308-0.984v-2.413H430.315z"/>
				</g>
				<g>
					<path style="fill:#FFFFFF;" d="M431.632,103.76h1.415v6.731h-1.415V103.76z"/>
				</g>
				<g>
					<path style="fill:#FFFFFF;" d="M438.072,106.078c0.405,0.36,0.607,0.902,0.607,1.628v2.785h-1.324v-0.608
						c-0.266,0.454-0.762,0.681-1.487,0.681c-0.375,0-0.7-0.063-0.976-0.191c-0.275-0.127-0.485-0.302-0.63-0.526
						c-0.146-0.224-0.218-0.478-0.218-0.762c0-0.454,0.171-0.81,0.513-1.07c0.341-0.26,0.869-0.39,1.582-0.39h1.125
						c0-0.308-0.094-0.545-0.281-0.712c-0.188-0.166-0.469-0.249-0.844-0.249c-0.26,0-0.516,0.041-0.766,0.123
						c-0.252,0.081-0.465,0.192-0.64,0.331l-0.509-0.989c0.267-0.188,0.586-0.333,0.957-0.436c0.372-0.103,0.755-0.154,1.148-0.154
						C437.087,105.538,437.667,105.718,438.072,106.078z M436.866,109.443c0.186-0.112,0.32-0.276,0.398-0.494v-0.499h-0.971
						c-0.58,0-0.87,0.19-0.87,0.571c0,0.182,0.07,0.325,0.213,0.431c0.142,0.106,0.337,0.159,0.585,0.159
						C436.464,109.611,436.678,109.555,436.866,109.443z"/>
				</g>
				<g>
					<path style="fill:#FFFFFF;" d="M441.995,105.72c0.287-0.121,0.618-0.182,0.993-0.182v1.307
						c-0.157-0.012-0.263-0.019-0.317-0.019c-0.405,0-0.723,0.114-0.952,0.34c-0.23,0.227-0.345,0.567-0.345,1.021v2.304h-1.415
						v-4.88h1.352v0.644C441.479,106.019,441.708,105.841,441.995,105.72z"/>
				</g>
			</g>
			<g>
				<g>
					<path style="fill:#FFFFFF;" d="M320.295,366.635c-1.204-0.647-2.15-1.545-2.839-2.692c-0.689-1.148-1.033-2.446-1.033-3.895
						c0-1.447,0.344-2.745,1.033-3.894c0.689-1.148,1.635-2.046,2.839-2.693c1.204-0.647,2.558-0.971,4.061-0.971
						c1.266,0,2.411,0.223,3.434,0.668c1.023,0.445,1.882,1.086,2.579,1.921l-2.171,2.004c-0.988-1.141-2.213-1.712-3.674-1.712
						c-0.905,0-1.712,0.198-2.422,0.596c-0.71,0.396-1.263,0.949-1.66,1.659c-0.397,0.71-0.595,1.518-0.595,2.422
						c0,0.905,0.198,1.712,0.595,2.422c0.396,0.71,0.95,1.264,1.66,1.66c0.71,0.397,1.517,0.595,2.422,0.595
						c1.461,0,2.686-0.577,3.674-1.732l2.171,2.004c-0.696,0.85-1.559,1.496-2.589,1.941c-1.03,0.445-2.178,0.669-3.445,0.669
						C322.845,367.607,321.499,367.283,320.295,366.635z"/>
				</g>
				<g>
					<path style="fill:#FFFFFF;" d="M342.613,357.209c0.856,0.835,1.284,2.074,1.284,3.716v6.431h-3.257v-5.93
						c0-0.891-0.195-1.555-0.585-1.993c-0.39-0.438-0.954-0.658-1.691-0.658c-0.822,0-1.476,0.254-1.963,0.763
						c-0.487,0.508-0.73,1.263-0.73,2.265v5.554h-3.257v-15.491h3.257v5.428c0.431-0.431,0.953-0.762,1.566-0.991
						c0.612-0.229,1.28-0.345,2.004-0.345C340.633,355.956,341.757,356.374,342.613,357.209z"/>
				</g>
				<g>
					<path style="fill:#FFFFFF;" d="M349.127,366.782c-0.939-0.494-1.674-1.18-2.203-2.057c-0.529-0.877-0.794-1.872-0.794-2.985
						c0-1.113,0.264-2.108,0.794-2.985c0.529-0.877,1.263-1.563,2.203-2.057c0.94-0.494,2.001-0.741,3.184-0.741
						c1.183,0,2.241,0.247,3.173,0.741c0.932,0.494,1.663,1.18,2.192,2.057c0.529,0.877,0.793,1.872,0.793,2.985
						c0,1.113-0.264,2.108-0.793,2.985c-0.529,0.877-1.26,1.563-2.192,2.057c-0.933,0.494-1.991,0.741-3.173,0.741
						C351.128,367.523,350.066,367.276,349.127,366.782z M354.367,364.005c0.536-0.564,0.804-1.319,0.804-2.266
						c0-0.946-0.268-1.701-0.804-2.266c-0.536-0.563-1.221-0.845-2.056-0.845c-0.836,0-1.524,0.281-2.067,0.845
						c-0.543,0.564-0.815,1.319-0.815,2.266c0,0.946,0.272,1.701,0.815,2.266c0.542,0.564,1.231,0.846,2.067,0.846
						C353.146,364.851,353.831,364.569,354.367,364.005z"/>
				</g>
				<g>
					<path style="fill:#FFFFFF;" d="M362.802,366.782c-0.939-0.494-1.674-1.18-2.203-2.057c-0.529-0.877-0.794-1.872-0.794-2.985
						c0-1.113,0.264-2.108,0.794-2.985c0.529-0.877,1.263-1.563,2.203-2.057c0.939-0.494,2.001-0.741,3.184-0.741
						c1.183,0,2.241,0.247,3.173,0.741c0.932,0.494,1.663,1.18,2.192,2.057c0.529,0.877,0.793,1.872,0.793,2.985
						c0,1.113-0.264,2.108-0.793,2.985c-0.529,0.877-1.26,1.563-2.192,2.057c-0.933,0.494-1.991,0.741-3.173,0.741
						C364.803,367.523,363.741,367.276,362.802,366.782z M368.042,364.005c0.536-0.564,0.804-1.319,0.804-2.266
						c0-0.946-0.268-1.701-0.804-2.266c-0.536-0.563-1.221-0.845-2.056-0.845c-0.836,0-1.524,0.281-2.067,0.845
						c-0.543,0.564-0.815,1.319-0.815,2.266c0,0.946,0.272,1.701,0.815,2.266c0.542,0.564,1.231,0.846,2.067,0.846
						C366.821,364.851,367.507,364.569,368.042,364.005z"/>
				</g>
				<g>
					<path style="fill:#FFFFFF;" d="M375.361,367.178c-0.891-0.229-1.601-0.519-2.13-0.866l1.086-2.338
						c0.501,0.32,1.107,0.581,1.816,0.782c0.71,0.202,1.406,0.303,2.087,0.303c1.378,0,2.067-0.341,2.067-1.022
						c0-0.32-0.188-0.55-0.564-0.689c-0.375-0.139-0.953-0.257-1.732-0.354c-0.919-0.14-1.677-0.3-2.276-0.48
						c-0.599-0.181-1.117-0.501-1.555-0.96c-0.439-0.46-0.658-1.114-0.658-1.963c0-0.71,0.205-1.34,0.616-1.89
						c0.411-0.55,1.009-0.978,1.796-1.284c0.786-0.306,1.715-0.459,2.787-0.459c0.793,0,1.583,0.087,2.369,0.261
						c0.787,0.175,1.438,0.414,1.952,0.721l-1.085,2.317c-0.988-0.557-2.067-0.835-3.236-0.835c-0.696,0-1.218,0.098-1.566,0.292
						c-0.348,0.195-0.522,0.445-0.522,0.752c0,0.348,0.189,0.592,0.564,0.73c0.376,0.14,0.975,0.271,1.796,0.396
						c0.919,0.153,1.67,0.317,2.255,0.491c0.584,0.174,1.093,0.49,1.523,0.949c0.432,0.46,0.648,1.1,0.648,1.921
						c0,0.696-0.209,1.315-0.626,1.858c-0.418,0.543-1.026,0.964-1.827,1.263c-0.801,0.3-1.75,0.449-2.85,0.449
						C377.163,367.523,376.251,367.408,375.361,367.178z"/>
				</g>
				<g>
					<path style="fill:#FFFFFF;" d="M396.342,362.659h-8.497c0.152,0.696,0.515,1.245,1.085,1.649
						c0.571,0.403,1.281,0.605,2.13,0.605c0.585,0,1.103-0.087,1.556-0.262c0.452-0.174,0.873-0.448,1.263-0.824l1.733,1.879
						c-1.059,1.211-2.604,1.816-4.635,1.816c-1.268,0-2.388-0.247-3.362-0.741c-0.974-0.494-1.726-1.18-2.254-2.057
						c-0.529-0.877-0.794-1.872-0.794-2.985c0-1.1,0.261-2.091,0.783-2.976c0.522-0.883,1.238-1.572,2.15-2.066
						c0.911-0.494,1.931-0.741,3.059-0.741c1.1,0,2.095,0.237,2.985,0.71c0.891,0.474,1.59,1.151,2.099,2.035
						c0.508,0.885,0.762,1.911,0.762,3.08C396.405,361.824,396.384,362.116,396.342,362.659z M388.722,359.046
						c-0.502,0.418-0.808,0.988-0.919,1.712h5.532c-0.111-0.71-0.417-1.276-0.918-1.701c-0.501-0.425-1.114-0.637-1.838-0.637
						C389.842,358.42,389.223,358.629,388.722,359.046z"/>
				</g>
			</g>
			<g>
				<g>
					<path style="fill:#FF725E;" d="M268.067,239.167c-0.352,0-0.706-0.123-0.99-0.374l-4.041-3.557
						c-0.622-0.547-0.683-1.495-0.135-2.117c0.547-0.621,1.497-0.682,2.117-0.135l2.932,2.58l6.074-6.707
						c0.556-0.614,1.505-0.662,2.119-0.105c0.614,0.556,0.661,1.505,0.105,2.119l-7.067,7.803
						C268.883,239.001,268.476,239.167,268.067,239.167z"/>
				</g>
			</g>
			<g>
				<g>
					<path style="fill:#FF725E;" d="M268.067,271.172c-0.352,0-0.706-0.123-0.99-0.374l-4.041-3.557
						c-0.622-0.547-0.683-1.495-0.135-2.117c0.547-0.621,1.497-0.682,2.117-0.135l2.932,2.58l6.074-6.707
						c0.556-0.614,1.505-0.662,2.119-0.105c0.614,0.556,0.661,1.504,0.105,2.118l-7.067,7.803
						C268.883,271.006,268.476,271.172,268.067,271.172z"/>
				</g>
			</g>
			<g>
				<g>
					<path style="fill:#FF725E;" d="M268.067,303.177c-0.352,0-0.706-0.123-0.99-0.374l-4.041-3.556
						c-0.622-0.547-0.683-1.495-0.135-2.117c0.547-0.621,1.497-0.682,2.117-0.135l2.932,2.579l6.074-6.707
						c0.556-0.614,1.505-0.662,2.119-0.104c0.614,0.556,0.661,1.504,0.105,2.118l-7.067,7.803
						C268.883,303.011,268.476,303.177,268.067,303.177z"/>
				</g>
			</g>
			<g>
				<g>
					<polygon style="fill:#FFFFFF;" points="366.583,121.529 370.59,129.648 379.55,130.95 373.067,137.27 374.597,146.194 
						366.583,141.98 358.569,146.194 360.1,137.27 353.616,130.95 362.576,129.648 					"/>
				</g>
			</g>
			<g>
				<g>
					<g>
						<polygon style="fill:#FFFFFF;" points="351.015,121.529 356.309,132.256 368.147,133.977 359.581,142.327 361.603,154.117 
							351.015,148.551 340.426,154.117 342.448,142.327 333.882,133.977 345.72,132.256 						"/>
					</g>
				</g>
				<g>
					<g>
						<path style="fill:#FF725E;" d="M362.891,155.89l-11.876-6.244l-11.876,6.244l2.268-13.225l-9.607-9.366l13.277-1.93
							l5.939-12.031l5.938,12.031l13.277,1.93l-9.608,9.365L362.891,155.89z M335.965,134.654l7.525,7.334l-1.775,10.357l9.301-4.89
							l9.301,4.89l-1.776-10.356l7.525-7.335l-10.399-1.511l-4.65-9.422l-4.651,9.422L335.965,134.654z"/>
					</g>
				</g>
			</g>
			<g>
				<g>
					<g>
						<path style="fill:#263238;" d="M468.778,414.158c-0.002-2.095-0.097-134.207-0.237-328.315l0.236,0.236
							c-71.278,0.007-151.557,0.015-236.181,0.024h-0.027l0.26-0.26c-0.018,122.843-0.035,236.508-0.049,328.315l-0.212-0.212
							C375.912,414.074,467.035,414.156,468.778,414.158c-1.742,0.001-92.866,0.083-236.208,0.211l-0.212,0l0-0.212
							c-0.014-91.807-0.031-205.472-0.049-328.315v-0.26h0.26h0.027c84.624,0.009,164.903,0.017,236.181,0.024h0.237l0,0.236
							C468.875,279.951,468.779,412.064,468.778,414.158z"/>
					</g>
				</g>
			</g>
		</g>
		<g>
			<g>
				<path style="fill:#FFBF9D;" d="M353.191,283.345c0,0-3.505-5.257,3.505-5.549c7.009-0.292,41.471,5.549,53.152,11.39
					l10.222,6.425l-11.098,21.904c0,0-22.488,0-25.408,0s-11.098-4.965-3.505-8.469c0,0-7.593-5.257-0.584-9.638
					c0,0-5.549-4.089,0.292-9.637L353.191,283.345z"/>
			</g>
		</g>
		<g>
			<g>
				<path style="fill:#FFBF9D;" d="M411.903,291.359l58.013,30.38l21.762-20.823l25.928,23.36c0,0-25.717,30.182-40.632,32.81
					c-14.914,2.629-72.889-43.996-72.889-43.996L411.903,291.359z"/>
			</g>
		</g>
		<g>
			<g>
				<g>
					<g>
						<path style="fill:#FFBF9D;" d="M472.746,197.979c-0.176,0.11-0.356,0.214-0.54,0.311c-0.836,0.441-1.742,0.74-2.665,0.933
							c-0.424,0.089-0.907,0.09-1.313,0.242c-0.274,0.103-0.478,0.324-0.728,0.471c-1.589,0.932-3.607,1.044-5.393,1.231
							c-2.016,0.211-4.141,0.528-5.71,1.811c-1.569,1.283-2.251,3.861-0.882,5.355c-1.287-0.08-2.446,1.078-2.599,2.359
							c-0.153,1.281,0.547,2.561,1.566,3.352c1.019,0.79,2.313,1.15,3.594,1.296c-1.51,0.117-2.594,1.77-2.409,3.274
							c0.185,1.503,1.371,2.744,2.754,3.362c1.383,0.618,2.941,0.708,4.455,0.678s4.355-0.07,5.858,0.122
							c0,0-0.044,1.925-0.009,2.795c0.048,1.181,0.009,0.255,0.009,0.255c0.705,0.548,1.852,0.875,3.376,1.374
							c2.636,0.863,4.328,1.564,6.697,2.175c1.775,0.458,3.514,0.674,4.465-0.515c2.29-2.862-3.734-7.02-3.734-7.02
							c1.769-0.947,1.294-6.673-1.34-7.438c1.306-0.637,2.122-0.574,2.889-1.808c0.767-1.234,1.032-2.831,0.462-4.167
							c-0.57-1.337-2.065-2.288-3.492-2.013c1.725-1.427,2.406-3.989,1.616-6.084c-0.475-1.26-1.462-2.296-2.655-2.906
							c-0.601-0.307-1.246-0.496-1.915-0.574c-0.239-0.028-0.523-0.092-0.761-0.032c-0.117,0.03-0.214,0.091-0.311,0.161
							C473.59,197.297,473.213,197.686,472.746,197.979z"/>
					</g>
				</g>
				<g>
					<g>
						<path style="fill:#FFBF9D;" d="M475.555,191.479c-0.125-1.244-0.565-2.557-1.602-3.256c-1.228-0.829-3.427-0.73-4.875-0.418
							c-0.089,1.76-0.032,2.656-0.121,4.417c-0.019,0.371,0.114,0.66-0.058,0.99c-0.454,0.868-2.364,0.999-3.237,1.443
							c-1.514,0.77-2.012,2.914-1.212,4.412c0.801,1.498,2.619,2.285,4.312,2.134c1.692-0.15,3.235-1.116,4.376-2.375
							C474.921,196.859,475.821,194.121,475.555,191.479z"/>
					</g>
				</g>
				<g>
					<g>
						<g>
							<path style="fill:#FF9A6C;" d="M478.553,206.368c0.012,0.143-5.135,0.699-11.495,1.242
								c-6.362,0.543-11.528,0.866-11.54,0.723c-0.012-0.143,5.134-0.699,11.496-1.242
								C473.374,206.548,478.541,206.224,478.553,206.368z"/>
						</g>
					</g>
				</g>
				<g>
					<g>
						<g>
							<path style="fill:#FF9A6C;" d="M478.549,214.401c0.01,0.067-1.137,0.321-3.014,0.602c-1.876,0.282-4.486,0.572-7.38,0.719
								c-2.895,0.144-5.52,0.117-7.416,0.025c-1.896-0.092-3.063-0.23-3.059-0.297c0.004-0.076,1.176-0.068,3.067-0.071
								c1.891-0.002,4.502-0.033,7.381-0.177c2.879-0.146,5.479-0.377,7.361-0.564C477.372,214.451,478.538,214.325,478.549,214.401
								z"/>
						</g>
					</g>
				</g>
			</g>
			<g>
				<g>
					<g>
						<path style="fill:#FF9A6C;" d="M478.549,222.251c0.007,0.067-0.948,0.242-2.509,0.398c-1.56,0.158-3.724,0.277-6.113,0.313
							c-2.389,0.035-4.549,0.011-6.112-0.012c-1.563-0.026-2.531-0.061-2.533-0.135c-0.002-0.07,0.964-0.165,2.528-0.234
							c1.564-0.07,3.725-0.105,6.108-0.14c2.383-0.036,4.536-0.096,6.096-0.159C477.574,222.22,478.542,222.175,478.549,222.251z"/>
					</g>
				</g>
			</g>
			<g>
				<g>
					<g>
						<path style="fill:#FF9A6C;" d="M475.092,194.063c0.049-0.018,0.256,0.771-0.159,1.954c-0.388,1.172-1.531,2.597-3.199,3.458
							c-0.821,0.444-1.651,0.751-2.408,0.992c-0.758,0.229-1.441,0.45-2.076,0.496c-0.632,0.051-1.151-0.127-1.438-0.33
							c-0.294-0.204-0.376-0.394-0.353-0.41c0.034-0.064,0.598,0.561,1.751,0.374c0.555-0.082,1.222-0.333,1.962-0.585
							c0.735-0.261,1.532-0.572,2.312-0.995c1.582-0.822,2.653-2.078,3.106-3.138C475.062,194.821,475,194.061,475.092,194.063z"/>
					</g>
				</g>
			</g>
		</g>
	</g>
</g>
</svg>
