<svg xmlns="http://www.w3.org/2000/svg" width="18.859" height="18.834" viewBox="0 0 18.859 18.834">
    <defs>
        <style>
            .cls-1{fill:#529cff}.cls-5{fill:none;stroke:#fff;stroke-linecap:round;stroke-linejoin:round;stroke-width:.5px}
        </style>
    </defs>
    <g id="Group_10268" transform="translate(518.795 -234.747)">
        <path id="Path_14347" d="M-504.192 258.89h3.214a.983.983 0 0 1 1.041 1.05V274.996a1 1 0 0 1-.774 1.1 1.411 1.411 0 0 1-.321.027H-517.7a1 1 0 0 1-1.093-1.1v-15.03a1 1 0 0 1 1.091-1.1h3.164c.049.725 0 1.451.023 2.176-.814.005-1.627.017-2.44.011-.2 0-.247.049-.247.246.005 6.321.005 6.641 0 12.962 0 .2.064.241.251.241q7.587-.007 15.175 0c.188 0 .251-.038.251-.241-.006-6.321-.006-6.641 0-12.962 0-.2-.053-.247-.247-.246-.813.006-1.627-.005-2.44-.011.012-.728-.028-1.454.02-2.179z" class="cls-1" transform="translate(0 -22.537)"/>
        <path id="Path_14348" fill="#a4cbff" d="M-444.413 236.353c-.048.725 0 1.451-.023 2.176l-1.6.01v-1.966c0-.172-.047-.226-.222-.225q-3.335.008-6.671 0c-.176 0-.225.053-.222.225.009.655 0 1.311 0 1.966l-1.6-.01c-.018-.725.026-1.451-.023-2.176a6.226 6.226 0 0 1 .026-.671.981.981 0 0 1 1.01-.926h4.809c1.088 0 2.177.023 3.264-.009a1.084 1.084 0 0 1 1.237 1.207c.015.134.015.267.015.399z" transform="translate(-59.779 0)"/>
        <path id="Path_14349" fill="#f2f8ff" d="M-483.468 291.671l1.6-.01c.813.005 1.627.017 2.44.011.195 0 .248.049.247.246-.005 6.321-.008 6.687 0 13.008 0 .2-.063.242-.251.241q-7.587-.007-15.175 0c-.187 0-.251-.037-.251-.241.006-6.321.008-6.687 0-13.008 0-.2.052-.248.247-.246.813.006 1.627-.005 2.44-.01l1.6.01z" transform="translate(-22.344 -53.131)"/>
        <path id="Path_14350" fill="#529cff" d="M-423.344 261.028h-7.107v-1.966c0-.172.047-.226.222-.225q3.335.008 6.671 0c.176 0 .225.053.222.225-.013.655-.008 1.311-.008 1.966z" opacity="0.09" transform="translate(-82.468 -22.489)"/>
        <g id="Group_10233" transform="translate(0.24)">
            <path id="Path_14362" d="M-470.732 317.755c0-.564.005-1.129 0-1.693 0-.168.043-.232.222-.231q1.631.011 3.261 0c.165 0 .212.056.212.216q-.008 1.705 0 3.411c0 .158-.042.219-.209.218q-1.643-.009-3.286 0c-.154 0-.2-.054-.2-.2.004-.576 0-1.149 0-1.721z" class="cls-1" transform="translate(-44.865 -75.695)"/>
            <path id="Path_14363" d="M-467.041 411.471v1.668c0 .161-.029.239-.216.237q-1.631-.012-3.262 0c-.159 0-.218-.044-.217-.21q.009-1.693 0-3.386c0-.155.055-.2.2-.2q1.643.007 3.287 0c.174 0 .206.072.2.223.004.555.008 1.111.008 1.668z" class="cls-1" transform="translate(-44.867 -163.212)"/>
            <path id="Path_14367" d="M-391.786 316.563h-2.438c-.357 0-.462-.077-.459-.335s.127-.362.477-.363H-388.33a.5.5 0 0 1 .4.154.314.314 0 0 1 .044.348.291.291 0 0 1-.29.2c-.2.006-.4 0-.6 0z" class="cls-1" transform="translate(-115.738 -75.193)"/>
            <path id="Path_14369" d="M-391.817 363.1h-2.511c-.2 0-.367-.035-.4-.269s.077-.36.328-.415a1.164 1.164 0 0 1 .247-.016h5.623a1.69 1.69 0 0 1 .319.034.323.323 0 0 1 .306.4c-.028.217-.178.269-.376.268-1.179-.009-2.357-.002-3.536-.002z" class="cls-1" transform="translate(-115.69 -119.698)"/>
            <path id="Path_14372" d="M-391.786 316.563h-2.438c-.357 0-.462-.077-.459-.335s.127-.362.477-.363H-388.33a.5.5 0 0 1 .4.154.314.314 0 0 1 .044.348.291.291 0 0 1-.29.2c-.2.006-.4 0-.6 0z" class="cls-1" transform="translate(-115.738 -68.962)"/>
            <path id="Path_14373" d="M-391.817 363.1h-2.511c-.2 0-.367-.035-.4-.269s.077-.36.328-.415a1.164 1.164 0 0 1 .247-.016h5.623a1.69 1.69 0 0 1 .319.034.323.323 0 0 1 .306.4c-.028.217-.178.269-.376.268-1.179-.009-2.357-.002-3.536-.002z" class="cls-1" transform="translate(-115.69 -113.467)"/>
        </g>
        <path id="Path_14370" d="M-514.9 242.3l.6.76 1.4-1.172" class="cls-5" transform="translate(0.365 -0.453)"/>
        <path id="Path_14371" d="M-514.9 242.3l.6.76 1.4-1.172" class="cls-5" transform="translate(0.365 5.859)"/>
    </g>
</svg>
