<svg width="125" height="108" viewBox="0 0 125 108" fill="none" xmlns="http://www.w3.org/2000/svg">
<path d="M110.009 106.574C110.009 106.997 109.666 107.34 109.242 107.34H30.3054C29.8822 107.34 29.5391 106.997 29.5391 106.574V0.813375C29.5391 0.390116 29.8822 0.0469971 30.3054 0.0469971H84L110.009 26V106.574Z" fill="#F9F9FC"/>
<path d="M109.242 107.34H30.3054C30.1023 107.34 29.9075 107.259 29.7638 107.115C29.6201 106.972 29.5393 106.777 29.5391 106.574V0.813351C29.5393 0.610167 29.6201 0.41537 29.7638 0.271697C29.9075 0.128023 30.1023 0.0472055 30.3054 0.0469733L84.2968 0.0467529C84.5 0.0469852 84.7159 32.2283 101.5 15.5C83.7159 28.2283 92.9912 34.6866 91.5 9.5L110.009 26V106.574C110.009 106.777 109.928 106.972 109.784 107.115C109.64 107.259 109.446 107.34 109.242 107.34ZM30.3054 0.430162C30.2038 0.430271 30.1064 0.470677 30.0346 0.542515C29.9628 0.614354 29.9224 0.711757 29.9223 0.813351V106.574C29.9224 106.675 29.9628 106.773 30.0346 106.844C30.1064 106.916 30.2038 106.957 30.3054 106.957H109.242C109.344 106.957 109.441 106.916 109.513 106.844C109.585 106.773 109.625 106.675 109.626 106.574V26L108 24.5C88 13 93.9868 35.9574 100.5 17.5C88.5 10.5 91.6016 10.5001 91.5 10.5L84.5 0.430162H30.3054Z" fill="#CACACA"/>
<path d="M97.9376 24.0675H41.6088C41.2277 24.0675 40.8622 23.9161 40.5927 23.6466C40.3233 23.3772 40.1719 23.0117 40.1719 22.6306C40.1719 22.2495 40.3233 21.884 40.5927 21.6145C40.8622 21.345 41.2277 21.1936 41.6088 21.1936H97.9376C98.3187 21.1936 98.6842 21.345 98.9537 21.6145C99.2232 21.884 99.3746 22.2495 99.3746 22.6306C99.3746 23.0117 99.2232 23.3772 98.9537 23.6466C98.6842 23.9161 98.3187 24.0675 97.9376 24.0675Z" fill="#E6E6E6"/>
<path d="M97.9376 33.3599H41.6088C41.2277 33.3599 40.8622 33.2085 40.5927 32.939C40.3233 32.6695 40.1719 32.304 40.1719 31.9229C40.1719 31.5418 40.3233 31.1763 40.5927 30.9068C40.8622 30.6374 41.2277 30.486 41.6088 30.486H97.9376C98.3187 30.486 98.6842 30.6374 98.9537 30.9068C99.2232 31.1763 99.3746 31.5418 99.3746 31.9229C99.3746 32.304 99.2232 32.6695 98.9537 32.939C98.6842 33.2085 98.3187 33.3599 97.9376 33.3599Z" fill="#E6E6E6"/>
<path d="M97.9376 42.6522H41.6088C41.2277 42.6522 40.8622 42.5008 40.5927 42.2314C40.3233 41.9619 40.1719 41.5964 40.1719 41.2153C40.1719 40.8342 40.3233 40.4687 40.5927 40.1992C40.8622 39.9297 41.2277 39.7783 41.6088 39.7783H97.9376C98.3187 39.7783 98.6842 39.9297 98.9537 40.1992C99.2232 40.4687 99.3746 40.8342 99.3746 41.2153C99.3746 41.5964 99.2232 41.9619 98.9537 42.2314C98.6842 42.5008 98.3187 42.6522 97.9376 42.6522Z" fill="#E6E6E6"/>
<path d="M97.9376 51.9446H41.6088C41.2277 51.9446 40.8622 51.7932 40.5927 51.5237C40.3233 51.2542 40.1719 50.8887 40.1719 50.5076C40.1719 50.1265 40.3233 49.761 40.5927 49.4916C40.8622 49.2221 41.2277 49.0707 41.6088 49.0707H97.9376C98.3187 49.0707 98.6842 49.2221 98.9537 49.4916C99.2232 49.761 99.3746 50.1265 99.3746 50.5076C99.3746 50.8887 99.2232 51.2542 98.9537 51.5237C98.6842 51.7932 98.3187 51.9446 97.9376 51.9446Z" fill="#E6E6E6"/>
<path d="M97.9376 61.2368H41.6088C41.2277 61.2368 40.8622 61.0854 40.5927 60.816C40.3233 60.5465 40.1719 60.181 40.1719 59.7999C40.1719 59.4188 40.3233 59.0533 40.5927 58.7838C40.8622 58.5143 41.2277 58.3629 41.6088 58.3629H97.9376C98.3187 58.3629 98.6842 58.5143 98.9537 58.7838C99.2232 59.0533 99.3746 59.4188 99.3746 59.7999C99.3746 60.181 99.2232 60.5465 98.9537 60.816C98.6842 61.0854 98.3187 61.2368 97.9376 61.2368Z" fill="#E6E6E6"/>
<path d="M41.5324 41.9768C41.498 42.0967 41.4731 42.2192 41.4579 42.343L31.4738 47.3824L29.1984 45.8976L26.5088 49.0387L30.2814 52.0587C30.5862 52.3027 30.9619 52.4412 31.3521 52.4535C31.7423 52.4657 32.126 52.3511 32.4455 52.1268L42.8589 44.8157C43.2998 45.0075 43.7885 45.0605 44.2602 44.9677C44.7318 44.875 45.1641 44.6408 45.4994 44.2964C45.8348 43.9519 46.0573 43.5136 46.1374 43.0396C46.2175 42.5656 46.1514 42.0784 45.9479 41.6429C45.7444 41.2074 45.4132 40.8442 44.9982 40.6015C44.5832 40.3589 44.1042 40.2483 43.6248 40.2846C43.1455 40.3208 42.6885 40.5021 42.3148 40.8044C41.941 41.1067 41.6681 41.5156 41.5324 41.9767L41.5324 41.9768Z" fill="#FFB6B6"/>
<path d="M31.1455 47.5729L27.8358 51.4863C27.7416 51.5976 27.6245 51.6874 27.4925 51.7494C27.3606 51.8114 27.2168 51.8443 27.0709 51.8457C26.9251 51.8471 26.7807 51.8171 26.6475 51.7577C26.5143 51.6983 26.3955 51.6109 26.2992 51.5014L22.9234 47.6656C22.3561 47.1806 22.0044 46.4905 21.9454 45.7466C21.8863 45.0026 22.1247 44.2656 22.6083 43.6973C23.0919 43.1289 23.7812 42.7755 24.5249 42.7146C25.2687 42.6537 26.0063 42.8903 26.5759 43.3725L30.9054 46.0551C31.0293 46.132 31.1353 46.2346 31.216 46.3561C31.2966 46.4776 31.3502 46.615 31.373 46.759C31.3958 46.9031 31.3872 47.0503 31.348 47.1908C31.3087 47.3312 31.2397 47.4616 31.1455 47.5729L31.1455 47.5729Z" fill="#6C63FF"/>
<path d="M18.684 104.937H21.0329L22.1503 95.8772H18.6836L18.684 104.937Z" fill="#FFB6B6"/>
<path d="M18.085 104.17L22.7108 104.17H22.711C23.4928 104.17 24.2426 104.481 24.7955 105.034C25.3483 105.587 25.6589 106.336 25.659 107.118V107.214L18.0851 107.214L18.085 104.17Z" fill="#2F2E41"/>
<path d="M18.1553 79.707L18.8232 81.9588L27.8272 80.4542L26.8412 77.1306L18.1553 79.707Z" fill="#FFB6B6"/>
<path d="M18.7199 78.9146L20.0353 83.3495L20.0354 83.3496C20.2576 84.0992 20.173 84.9064 19.8002 85.5936C19.4274 86.2808 18.7968 86.7917 18.0473 87.0141L17.9555 87.0413L15.8018 79.7801L18.7199 78.9146Z" fill="#2F2E41"/>
<path d="M98.4214 82.1315H61.051C60.5245 82.1315 60.0977 81.4881 60.0977 80.6945C60.0977 79.9009 60.5245 79.2576 61.051 79.2576H98.4214C98.9479 79.2576 99.3747 79.9009 99.3747 80.6945C99.3747 81.4881 98.9479 82.1315 98.4214 82.1315Z" fill="#E6E6E6"/>
<path d="M98.4214 90.3701H61.051C60.5245 90.3701 60.0977 89.7268 60.0977 88.9332C60.0977 88.1396 60.5245 87.4962 61.051 87.4962H98.4214C98.9479 87.4962 99.3747 88.1396 99.3747 88.9332C99.3747 89.7268 98.9479 90.3701 98.4214 90.3701Z" fill="#E6E6E6"/>
<path d="M42.421 75.0737C42.082 75.6387 41.6034 76.1071 41.0312 76.4339C40.4591 76.7607 39.8125 76.935 39.1536 76.94L25.0361 81.4595L24.3906 77.7156L32.939 73.0772L24.6569 67.1123L30.7247 60.0118L41.7456 70.2838C42.3897 70.8841 42.8081 71.6874 42.931 72.5592C43.054 73.431 42.8739 74.3186 42.421 75.0737Z" fill="#2F2E41"/>
<path d="M21.946 100.678H18.4603C15.3306 79.2255 12.145 57.7131 21.5588 49.6833L32.6615 51.4909L31.2414 60.9152L25.0446 68.0157L21.946 100.678Z" fill="#2F2E41"/>
<path d="M31.9825 55.3777C27.2835 58.5798 21.2133 57.8269 18.6797 53.0556C22.32 46.9246 23.0864 42.5179 20.156 40.5061C19.6863 38.8316 19.8616 37.0419 20.6471 35.4904C21.4326 33.9388 22.7713 32.7381 24.3988 32.1254L29.9501 34.4492C34.6633 38.2915 35.5916 42.4533 33.8232 46.8429L31.9825 55.3777Z" fill="#99A8FF"/>
<path d="M125 106.957H0V107.34H125V106.957Z" fill="#CACACA"/>
<path d="M14.6355 59.1611C14.9286 59.093 15.2032 58.9615 15.44 58.7758C15.6768 58.5901 15.87 58.3548 16.006 58.0864C16.142 57.818 16.2174 57.523 16.2271 57.2223C16.2367 56.9215 16.1803 56.6223 16.0619 56.3457L23.6495 39.2033L19.309 38.1101L13.2154 55.3043C12.764 55.5341 12.4125 55.9216 12.2277 56.3932C12.0428 56.8649 12.0374 57.388 12.2124 57.8634C12.3875 58.3388 12.7308 58.7335 13.1774 58.9727C13.624 59.2118 14.1428 59.2789 14.6355 59.1611V59.1611Z" fill="#FFB6B6"/>
<path d="M22.6223 42.2692L18.4008 40.2932C18.2806 40.2369 18.1741 40.1555 18.0883 40.0544C18.0025 39.9532 17.9395 39.8348 17.9036 39.7071C17.8677 39.5795 17.8597 39.4456 17.8803 39.3145C17.9008 39.1835 17.9493 39.0584 18.0225 38.9479L20.588 35.0733C20.8795 34.4608 21.4017 33.9888 22.0405 33.7607C22.6793 33.5326 23.3824 33.567 23.9958 33.8564C24.6093 34.1457 25.083 34.6664 25.3133 35.3044C25.5435 35.9424 25.5115 36.6456 25.2242 37.26L23.8976 41.6979C23.8596 41.825 23.7946 41.9424 23.7072 42.042C23.6197 42.1417 23.5118 42.2214 23.3907 42.2756C23.2697 42.3298 23.1384 42.3573 23.0058 42.3562C22.8732 42.3551 22.7424 42.3254 22.6223 42.2692Z" fill="#99A8FF"/>
<path d="M31.9864 30.8633H20.8739C20.6453 30.863 20.4262 30.7721 20.2645 30.6105C20.1029 30.4489 20.012 30.2297 20.0117 30.0011V25.2113C20.0117 23.509 20.6879 21.8764 21.8916 20.6728C23.0953 19.4691 24.7279 18.7928 26.4301 18.7928C28.1324 18.7928 29.765 19.4691 30.9686 20.6728C32.1723 21.8764 32.8486 23.509 32.8486 25.2113V30.0011C32.8483 30.2297 32.7574 30.4489 32.5957 30.6105C32.4341 30.7721 32.215 30.863 31.9864 30.8633Z" fill="#2F2E41"/>
<path d="M28.0144 30.7905C30.6133 30.7905 32.7201 28.6837 32.7201 26.0848C32.7201 23.4859 30.6133 21.379 28.0144 21.379C25.4154 21.379 23.3086 23.4859 23.3086 26.0848C23.3086 28.6837 25.4154 30.7905 28.0144 30.7905Z" fill="#FFB6B6"/>
<path d="M34.3674 25.6901H27.5724L27.5027 24.7146L27.1543 25.6901H26.108L25.9699 23.7566L25.2794 25.6901H23.2549V25.5943C23.2564 24.2482 23.7918 22.9577 24.7436 22.0059C25.6955 21.054 26.986 20.5186 28.3321 20.5171H29.2901C30.6362 20.5186 31.9268 21.054 32.8786 22.0059C33.8304 22.9577 34.3658 24.2482 34.3674 25.5943V25.6901Z" fill="#2F2E41"/>
</svg>
