<svg width="17" height="13" viewBox="0 0 17 13" fill="none" xmlns="http://www.w3.org/2000/svg">
<path d="M16.2904 6.50065L13.457 3.66732V5.79232H7.08203V7.20898H13.457V9.33398M0.707031 10.7507V2.25065C0.707031 1.87493 0.856287 1.51459 1.12196 1.24892C1.38764 0.98324 1.74797 0.833984 2.1237 0.833984H10.6237C10.9994 0.833984 11.3598 0.98324 11.6254 1.24892C11.8911 1.51459 12.0404 1.87493 12.0404 2.25065V4.37565H10.6237V2.25065H2.1237V10.7507H10.6237V8.62565H12.0404V10.7507C12.0404 11.1264 11.8911 11.4867 11.6254 11.7524C11.3598 12.0181 10.9994 12.1673 10.6237 12.1673H2.1237C1.74797 12.1673 1.38764 12.0181 1.12196 11.7524C0.856287 11.4867 0.707031 11.1264 0.707031 10.7507Z" fill="#ADAFB6"/>
</svg>
