<svg width="21" height="30" viewBox="0 0 21 30" fill="none" xmlns="http://www.w3.org/2000/svg">
<g style="mix-blend-mode:luminosity">
<rect x="1.37915" y="6.43945" width="18.2444" height="20.3908" fill="#4294FF"/>
<path d="M2.56701 2.25684C1.31435 2.25684 0.305908 3.26317 0.305908 4.51321V27.078C0.305908 28.328 1.31435 29.3343 2.56701 29.3343H18.3953C19.648 29.3343 20.6564 28.328 20.6564 27.078V4.51321C20.6564 3.26317 19.648 2.25684 18.3953 2.25684H17.1023V3.60986C17.1023 4.62891 16.2508 5.48176 15.2296 5.48176H5.73147C4.71028 5.48176 3.85874 4.62828 3.85874 3.60986V2.25684H2.56701ZM8.40109 7.94159C8.69013 7.94159 8.97857 8.05219 9.20061 8.27275C9.64329 8.7145 9.64329 9.42713 9.20061 9.86907L6.32206 12.7405C6.26737 12.7947 6.20899 12.8417 6.14794 12.8822C6.10636 12.945 6.05802 13.0044 6.0023 13.0596C5.55901 13.5014 4.84634 13.5014 4.40368 13.0596L2.80506 11.4644C2.36239 11.0226 2.36239 10.3108 2.80506 9.8691C3.24774 9.42737 3.96102 9.42735 4.40368 9.8691L5.2032 10.6669L7.60133 8.27278C7.82257 8.05222 8.11246 7.94159 8.40109 7.94159ZM12.7424 9.02606H17.2649C17.8913 9.02606 18.3954 9.52934 18.3954 10.1543C18.3954 10.7794 17.8911 11.2825 17.2649 11.2825H12.7424C12.116 11.2825 11.6119 10.7792 11.6119 10.1543C11.6119 9.52917 12.1162 9.02606 12.7424 9.02606ZM8.40109 14.7108C8.69013 14.7108 8.97857 14.8214 9.20061 15.042C9.64329 15.4837 9.64329 16.1964 9.20061 16.6383L6.32206 19.5098C6.26737 19.5639 6.20899 19.611 6.14794 19.6514C6.10636 19.7142 6.05802 19.7737 6.0023 19.8289C5.55901 20.2706 4.84634 20.2706 4.40368 19.8289L2.80506 18.2336C2.36239 17.7918 2.36239 17.08 2.80506 16.6383C3.24774 16.1966 3.96102 16.1966 4.40368 16.6383L5.2032 17.4362L7.60133 15.042C7.82257 14.8214 8.11246 14.7108 8.40109 14.7108ZM12.8229 15.7953H17.1848C17.8559 15.7953 18.3959 16.2986 18.3959 16.9235C18.3959 17.5486 17.8563 18.0517 17.1848 18.0517H12.8229C12.1518 18.0517 11.6119 17.5484 11.6119 16.9235C11.6119 16.2984 12.1514 15.7953 12.8229 15.7953ZM8.40109 21.0289C8.69013 21.0289 8.97857 21.1391 9.20061 21.3601C9.64329 21.8018 9.64329 22.5145 9.20061 22.9564L6.32206 25.8279C6.26737 25.8821 6.20899 25.9291 6.14794 25.9695C6.10636 26.0323 6.05802 26.0918 6.0023 26.147C5.55901 26.5887 4.84634 26.5887 4.40368 26.147L2.80506 24.5517C2.36239 24.11 2.36239 23.3982 2.80506 22.9564C3.24774 22.5147 3.96102 22.5147 4.40368 22.9564L5.2032 23.7543L7.60133 21.3601C7.82257 21.1391 8.11246 21.0289 8.40109 21.0289ZM12.8229 22.1134H17.1848C17.8559 22.1134 18.3959 22.6167 18.3959 23.2416C18.3959 23.8667 17.8563 24.3698 17.1848 24.3698H12.8229C12.1518 24.3698 11.6119 23.8665 11.6119 23.2416C11.6119 22.6167 12.1514 22.1134 12.8229 22.1134Z" fill="#B9DCFF"/>
<path d="M4.82806 0.902507C4.82806 0.402502 5.23181 0 5.73247 0H15.2296C15.7302 0 16.134 0.402496 16.134 0.902507V3.61024C16.134 4.11024 15.7302 4.51274 15.2296 4.51274H5.73247C5.23182 4.51274 4.82806 4.11025 4.82806 3.61024V0.902507Z" fill="#4294FF"/>
</g>
</svg>
