<svg width="24" height="24" viewBox="0 0 24 24" fill="none" xmlns="http://www.w3.org/2000/svg">
<g clip-path="url(#clip0_1988_17073)">
<path d="M14 18C14.2549 18.0003 14.5 18.0979 14.6854 18.2728C14.8707 18.4478 14.9822 18.687 14.9972 18.9414C15.0121 19.1958 14.9293 19.4464 14.7657 19.6418C14.6021 19.8373 14.3701 19.9629 14.117 19.993L14 20H4C3.74512 19.9997 3.49997 19.9021 3.31463 19.7272C3.1293 19.5522 3.01777 19.313 3.00283 19.0586C2.98789 18.8042 3.07067 18.5536 3.23426 18.3582C3.39786 18.1627 3.6299 18.0371 3.883 18.007L4 18H14ZM20 13C20.2652 13 20.5196 13.1054 20.7071 13.2929C20.8946 13.4804 21 13.7348 21 14C21 14.2652 20.8946 14.5196 20.7071 14.7071C20.5196 14.8946 20.2652 15 20 15H4C3.73478 15 3.48043 14.8946 3.29289 14.7071C3.10536 14.5196 3 14.2652 3 14C3 13.7348 3.10536 13.4804 3.29289 13.2929C3.48043 13.1054 3.73478 13 4 13H20ZM14 8C14.2549 8.00028 14.5 8.09788 14.6854 8.27285C14.8707 8.44782 14.9822 8.68695 14.9972 8.94139C15.0121 9.19584 14.9293 9.44638 14.7657 9.64183C14.6021 9.83729 14.3701 9.9629 14.117 9.993L14 10H4C3.74512 9.99972 3.49997 9.90212 3.31463 9.72715C3.1293 9.55218 3.01777 9.31305 3.00283 9.05861C2.98789 8.80416 3.07067 8.55362 3.23426 8.35817C3.39786 8.16271 3.6299 8.0371 3.883 8.007L4 8H14ZM20 3C20.2549 3.00028 20.5 3.09788 20.6854 3.27285C20.8707 3.44782 20.9822 3.68695 20.9972 3.94139C21.0121 4.19584 20.9293 4.44638 20.7657 4.64183C20.6021 4.83729 20.3701 4.9629 20.117 4.993L20 5H4C3.74512 4.99972 3.49997 4.90212 3.31463 4.72715C3.1293 4.55218 3.01777 4.31305 3.00283 4.05861C2.98789 3.80416 3.07067 3.55362 3.23426 3.35817C3.39786 3.16271 3.6299 3.0371 3.883 3.007L4 3H20Z" fill="#4785FF"/>
</g>
<defs>
<clipPath id="clip0_1988_17073">
<rect width="24" height="24" fill="white"/>
</clipPath>
</defs>
</svg>
