<svg width="24" height="24" viewBox="0 0 24 24" fill="none" xmlns="http://www.w3.org/2000/svg">
<path d="M22.5 12L17.25 6.75L16.1895 7.8105L19.629 11.25H6.75V12.75H19.629L16.1895 16.1895L17.25 17.25L22.5 12Z" fill="black"/>
<path d="M10.5 21C5.53725 21 1.5 16.9628 1.5 12C1.5 7.03725 5.53725 3 10.5 3C12.2513 3 13.9492 3.50325 15.4095 4.45575L14.5905 5.71275C13.3739 4.91943 11.9524 4.49799 10.5 4.5C6.3645 4.5 3 7.8645 3 12C3 16.1355 6.3645 19.5 10.5 19.5C11.9524 19.502 13.3739 19.0806 14.5905 18.2872L15.4095 19.5443C13.9494 20.4966 12.2432 21.0025 10.5 21Z" fill="black"/>
</svg>
