<svg width="20" height="20" viewBox="0 0 20 20" fill="none" xmlns="http://www.w3.org/2000/svg">
<path d="M3.20049 4.88143C5.65049 1.61809 10.7255 0.668926 14.3372 2.91476C17.9038 5.13143 19.2155 9.39559 17.7538 13.3956C16.3747 17.1731 12.7405 18.6689 10.1213 16.7689C9.14049 16.0573 8.75966 15.1648 8.57633 13.7156L8.48799 12.8931L8.45049 12.5614C8.34799 11.7831 8.19133 11.4348 7.86299 11.2514C7.41716 11.0031 7.11966 10.9973 6.53383 11.2239L6.24133 11.3456L6.09216 11.4106C5.24716 11.7773 4.68549 11.9064 3.97466 11.7573L3.80799 11.7181L3.67132 11.6789C1.34716 10.9589 1.00299 7.80643 3.20049 4.88143ZM4.02049 10.4781L4.12299 10.5089L4.23466 10.5339C4.60049 10.6064 4.91299 10.5464 5.43216 10.3323L5.93383 10.1181C6.93549 9.70726 7.58799 9.66809 8.47216 10.1598C9.23633 10.5864 9.53466 11.2414 9.68633 12.3764L9.73049 12.7589L9.77633 13.2023L9.81549 13.5539C9.95883 14.6881 10.2197 15.2956 10.8555 15.7573C12.7513 17.1323 15.4672 16.0148 16.5805 12.9664C17.8438 9.50643 16.7255 5.87143 13.6772 3.97559C10.6147 2.07226 6.26133 2.88726 4.19966 5.63143C2.47049 7.93393 2.68299 10.0314 4.02049 10.4781ZM13.3747 8.81643C13.3353 8.68311 13.323 8.54326 13.3385 8.40512C13.354 8.26698 13.397 8.13334 13.465 8.01208C13.533 7.89082 13.6245 7.78439 13.7343 7.69906C13.844 7.61374 13.9697 7.55124 14.104 7.51525C14.2383 7.47926 14.3784 7.47051 14.5161 7.48952C14.6538 7.50853 14.7863 7.5549 14.9058 7.62592C15.0253 7.69693 15.1294 7.79114 15.2119 7.90301C15.2944 8.01487 15.3537 8.14212 15.3863 8.27726C15.45 8.5414 15.408 8.81996 15.2692 9.05354C15.1304 9.28712 14.9058 9.45722 14.6433 9.52756C14.3809 9.5979 14.1014 9.56291 13.8643 9.43006C13.6273 9.29721 13.4516 9.07701 13.3747 8.81643ZM13.7863 11.7231C13.7509 11.591 13.7419 11.4531 13.7598 11.3175C13.7776 11.1819 13.822 11.0511 13.8904 10.9326C13.9588 10.8141 14.0499 10.7103 14.1584 10.627C14.267 10.5437 14.3909 10.4827 14.523 10.4473C14.6551 10.4119 14.793 10.4028 14.9286 10.4207C15.0642 10.4386 15.195 10.483 15.3135 10.5514C15.4319 10.6198 15.5358 10.7108 15.6191 10.8194C15.7023 10.9279 15.7634 11.0518 15.7988 11.1839C15.8703 11.4508 15.8329 11.7351 15.6947 11.9744C15.5566 12.2137 15.329 12.3883 15.0622 12.4598C14.7953 12.5313 14.5109 12.4938 14.2717 12.3557C14.0324 12.2175 13.8578 11.99 13.7863 11.7231ZM11.7263 6.31393C11.6548 6.04705 11.6923 5.76271 11.8304 5.52344C11.9686 5.28418 12.1961 5.10959 12.463 5.03809C12.7299 4.96659 13.0142 5.00404 13.2535 5.14219C13.4927 5.28034 13.6673 5.50789 13.7388 5.77476C13.7742 5.9069 13.7833 6.04472 13.7654 6.18036C13.7475 6.31599 13.7031 6.44677 13.6347 6.56524C13.5663 6.68372 13.4752 6.78755 13.3667 6.87083C13.2582 6.95411 13.1343 7.01519 13.0022 7.05059C12.7353 7.12209 12.4509 7.08465 12.2117 6.94649C12.0932 6.87809 11.9894 6.78702 11.9061 6.67848C11.8228 6.56994 11.7617 6.44607 11.7263 6.31393ZM11.703 13.8123C11.6636 13.6789 11.6513 13.5391 11.6669 13.401C11.6824 13.2628 11.7254 13.1292 11.7934 13.0079C11.8613 12.8867 11.9529 12.7802 12.0626 12.6949C12.1724 12.6096 12.2981 12.5471 12.4323 12.5111C12.5666 12.4751 12.7067 12.4663 12.8444 12.4854C12.9821 12.5044 13.1146 12.5507 13.2341 12.6217C13.3536 12.6928 13.4577 12.787 13.5403 12.8988C13.6228 13.0107 13.6821 13.138 13.7147 13.2731C13.7783 13.5372 13.7363 13.8158 13.5975 14.0494C13.4587 14.283 13.2341 14.4531 12.9717 14.5234C12.7092 14.5937 12.4297 14.5587 12.1927 14.4259C11.9557 14.293 11.7799 14.0728 11.703 13.8123ZM8.78883 5.50393C8.75215 5.37136 8.74208 5.23285 8.75922 5.09637C8.77635 4.9599 8.82034 4.82817 8.88865 4.70879C8.95697 4.58941 9.04825 4.48474 9.15722 4.40082C9.2662 4.3169 9.39072 4.25539 9.52359 4.21985C9.65647 4.18431 9.79506 4.17543 9.93138 4.19373C10.0677 4.21204 10.1991 4.25716 10.3178 4.32649C10.4366 4.39582 10.5405 4.48799 10.6235 4.59769C10.7065 4.70738 10.7669 4.83242 10.8013 4.96559C10.87 5.23158 10.8309 5.51395 10.6924 5.75121C10.5539 5.98848 10.3273 6.16143 10.0619 6.23242C9.79655 6.30341 9.51387 6.26669 9.27542 6.13025C9.03698 5.99381 8.86209 5.7687 8.78883 5.50393Z" fill="#2B345F"/>
</svg>
