<svg width="12" height="16" viewBox="0 0 12 16" fill="none" xmlns="http://www.w3.org/2000/svg">
<path fill-rule="evenodd" clip-rule="evenodd" d="M3.4763 13.8333L6.6013 2.16667H4.33464C4.11362 2.16667 3.90166 2.07887 3.74538 1.92259C3.5891 1.76631 3.5013 1.55435 3.5013 1.33333C3.5013 1.11232 3.5891 0.900358 3.74538 0.744078C3.90166 0.587797 4.11362 0.5 4.33464 0.5H11.0013C11.2223 0.5 11.4343 0.587797 11.5906 0.744078C11.7468 0.900358 11.8346 1.11232 11.8346 1.33333C11.8346 1.55435 11.7468 1.76631 11.5906 1.92259C11.4343 2.07887 11.2223 2.16667 11.0013 2.16667H8.32797L5.2013 13.8333H7.66797C7.88898 13.8333 8.10094 13.9211 8.25723 14.0774C8.4135 14.2337 8.5013 14.4457 8.5013 14.6667C8.5013 14.8877 8.4135 15.0996 8.25723 15.2559C8.10094 15.4122 7.88898 15.5 7.66797 15.5H1.0013C0.780288 15.5 0.568327 15.4122 0.412047 15.2559C0.255766 15.0996 0.167969 14.8877 0.167969 14.6667C0.167969 14.4457 0.255766 14.2337 0.412047 14.0774C0.568327 13.9211 0.780288 13.8333 1.0013 13.8333H3.4763Z" fill="#2B345F"/>
</svg>
