<svg width="11" height="15" viewBox="0 0 11 15" fill="none" xmlns="http://www.w3.org/2000/svg">
<path d="M4.58544 0.944336C6.43344 0.944336 7.81944 1.17534 8.74344 1.71434C9.74444 2.25334 10.2064 3.17734 10.2064 4.48634C10.2064 5.25634 9.97544 5.94934 9.66744 6.48834C9.49284 6.75163 9.26609 6.9763 9.0012 7.14848C8.73632 7.32065 8.43894 7.43666 8.12744 7.48934C8.56761 7.59215 8.98519 7.77484 9.35944 8.02834C9.66744 8.25934 9.97544 8.64434 10.2064 9.02934C10.4474 9.5871 10.553 10.194 10.5144 10.8003C10.5417 11.3566 10.4373 11.9115 10.2099 12.4199C9.98243 12.9283 9.63831 13.3759 9.20544 13.7263C8.10931 14.5092 6.77669 14.8899 5.43244 14.8043H0.273438V0.944336H4.58544ZM4.89344 6.41134C5.74044 6.41134 6.35644 6.33434 6.66444 6.02634C7.04944 5.79534 7.20344 5.33334 7.20344 4.87134C7.20344 4.33234 6.97244 3.94734 6.58744 3.71634C6.20244 3.48534 5.58644 3.33134 4.73944 3.33134H3.19944V6.41134H4.89344ZM3.19944 8.72134V12.4943H5.12444C5.97144 12.4943 6.66444 12.2633 6.97244 11.9553C7.35744 11.5703 7.51144 11.1853 7.51144 10.5693C7.52061 10.3366 7.47688 10.1048 7.38352 9.89139C7.29015 9.678 7.1496 9.48856 6.97244 9.33734C6.58744 9.02934 5.97144 8.87534 5.04744 8.87534H3.12244L3.19944 8.72134Z" fill="#2B345F"/>
</svg>
