<svg width="20" height="20" viewBox="0 0 20 20" fill="none" xmlns="http://www.w3.org/2000/svg">
<path d="M12.85 2.85001L14.29 4.29001L11.41 7.17001L12.83 8.59L15.71 5.71001L17.15 7.15001C17.2205 7.21911 17.3099 7.2658 17.4068 7.28419C17.5038 7.30258 17.6041 7.29185 17.695 7.25335C17.7859 7.21485 17.8634 7.15031 17.9176 7.06785C17.9719 6.9854 18.0006 6.88872 18 6.79001V2.50001C18 2.22001 17.78 2.00001 17.5 2.00001H13.21C13.1113 1.99943 13.0146 2.02808 12.9321 2.08236C12.8497 2.13663 12.7851 2.2141 12.7466 2.305C12.7081 2.3959 12.6974 2.49616 12.7158 2.59315C12.7342 2.69014 12.7809 2.77951 12.85 2.85001ZM6.79 2.00001H2.5C2.22 2.00001 2 2.22001 2 2.50001V6.79001C2 7.24001 2.54 7.46001 2.85 7.14001L4.29 5.70001L9 10.4V17C9 17.55 9.45 18 10 18C10.55 18 11 17.55 11 17V10C11 9.74 10.89 9.48 10.71 9.29L5.71 4.28001L7.15 2.84001C7.46 2.54001 7.24 2.00001 6.79 2.00001Z" fill="#2B345F"/>
</svg>
