<svg width="20" height="12" viewBox="0 0 20 12" fill="none" xmlns="http://www.w3.org/2000/svg">
<path d="M15.0117 2.57741L15.0038 5.06824L10.0221 5.05229L10.0142 7.50852L14.9959 7.52447L14.9879 10.0153C14.9887 10.136 15.0253 10.2538 15.0929 10.3538C15.1606 10.4538 15.2563 10.5316 15.3681 10.5773C15.4799 10.6229 15.6027 10.6345 15.721 10.6105C15.8393 10.5865 15.9479 10.528 16.0331 10.4424L19.7552 6.74402C19.9982 6.50263 19.9994 6.12209 19.758 5.87915L16.0596 2.15697C15.975 2.07083 15.8668 2.01165 15.7486 1.9869C15.6304 1.96215 15.5076 1.97293 15.3955 2.01789C15.2835 2.06286 15.1872 2.13998 15.1189 2.23955C15.0506 2.33912 15.0133 2.45668 15.0117 2.57741Z" fill="#2B345F"/>
<path d="M5.35154 2.58327L5.35952 5.0741L10.3412 5.05815L10.349 7.51438L5.36739 7.53033L5.37536 10.0212C5.37454 10.1419 5.338 10.2597 5.27035 10.3597C5.20269 10.4597 5.10694 10.5374 4.99518 10.5831C4.88341 10.6288 4.76062 10.6404 4.64229 10.6164C4.52396 10.5924 4.41537 10.5339 4.33022 10.4483L0.608048 6.74988C0.365108 6.50849 0.36389 6.12795 0.605278 5.88501L4.30369 2.16283C4.38829 2.07669 4.4965 2.01751 4.61468 1.99276C4.73285 1.96801 4.85571 1.97879 4.96777 2.02375C5.07983 2.06871 5.17607 2.14584 5.24436 2.24541C5.31266 2.34498 5.34995 2.46254 5.35154 2.58327Z" fill="#2B345F"/>
</svg>
