<svg width="20" height="20" viewBox="0 0 20 20" fill="none" xmlns="http://www.w3.org/2000/svg">
<path d="M10 18C11.8557 17.9976 13.6347 17.312 14.9469 16.0936C16.2591 14.8751 16.9974 13.2232 17 11.5C17 11.3217 16.9237 11.1506 16.7879 11.0245C16.6521 10.8984 16.4679 10.8276 16.2759 10.8276C16.0838 10.8276 15.8996 10.8984 15.7638 11.0245C15.628 11.1506 15.5517 11.3217 15.5517 11.5C15.5517 12.5196 15.2261 13.5163 14.6161 14.3641C14.0061 15.2118 13.139 15.8726 12.1246 16.2628C11.1101 16.6529 9.99384 16.755 8.91691 16.5561C7.83998 16.3572 6.85076 15.8662 6.07434 15.1453C5.29792 14.4243 4.76917 13.5057 4.55495 12.5057C4.34074 11.5057 4.45068 10.4692 4.87088 9.5272C5.29107 8.58522 6.00265 7.78009 6.91563 7.21363C7.8286 6.64717 8.90197 6.34483 10 6.34483H12.4138C12.6058 6.34483 12.79 6.27398 12.9258 6.14788C13.0616 6.02178 13.1379 5.85075 13.1379 5.67241C13.1379 5.49408 13.0616 5.32305 12.9258 5.19695C12.79 5.07084 12.6058 5 12.4138 5H10C8.14349 5 6.36301 5.68482 5.05025 6.90381C3.7375 8.12279 3 9.77609 3 11.5C3 13.2239 3.7375 14.8772 5.05025 16.0962C6.36301 17.3152 8.14349 18 10 18Z" fill="#2B345F"/>
<path d="M9.68057 8.99999C9.76781 9.00043 9.85425 8.98253 9.93483 8.94736C10.0154 8.91219 10.0885 8.86044 10.1498 8.79517L12.8058 6.00214C12.9302 5.87122 13 5.69374 13 5.50871C13 5.32367 12.9302 5.14619 12.8058 5.01527L10.1498 2.22224C10.089 2.15364 10.0157 2.09861 9.93425 2.06045C9.8528 2.02228 9.76487 2.00176 9.67572 2.00011C9.58656 1.99845 9.498 2.0157 9.41532 2.05082C9.33264 2.08594 9.25754 2.13821 9.19448 2.20451C9.13143 2.27082 9.08172 2.3498 9.04833 2.43675C9.01493 2.52369 8.99853 2.61682 9.0001 2.71058C9.00168 2.80433 9.02119 2.89679 9.05748 2.98244C9.09377 3.0681 9.1461 3.14519 9.21134 3.20911L11.3981 5.50871L9.21134 7.8083C9.08699 7.93922 9.01715 8.1167 9.01715 8.30173C9.01715 8.48677 9.08699 8.66425 9.21134 8.79517C9.27264 8.86044 9.34573 8.91219 9.4263 8.94736C9.50688 8.98253 9.59333 9.00043 9.68057 8.99999Z" fill="#2B345F"/>
</svg>
