<svg width="21" height="20" viewBox="0 0 21 20" fill="none" xmlns="http://www.w3.org/2000/svg">
<path d="M7.251 6.00124C7.15945 5.915 7.08682 5.81257 7.03726 5.6998C6.98771 5.58703 6.9622 5.46615 6.9622 5.34407C6.9622 5.22198 6.98771 5.1011 7.03726 4.98833C7.08682 4.87557 7.15945 4.77313 7.251 4.68689L9.80872 2.2726C9.90008 2.18619 10.0086 2.11763 10.1281 2.07085C10.2475 2.02408 10.3756 2 10.5049 2C10.6343 2 10.7623 2.02408 10.8818 2.07085C11.0013 2.11763 11.1098 2.18619 11.2012 2.2726L13.7589 4.68689C13.8503 4.7732 13.9228 4.87565 13.9723 4.98841C14.0218 5.10117 14.0473 5.22202 14.0473 5.34407C14.0473 5.46611 14.0218 5.58697 13.9723 5.69973C13.9228 5.81248 13.8503 5.91494 13.7589 6.00124C13.6675 6.08754 13.5589 6.156 13.4395 6.2027C13.32 6.24941 13.192 6.27345 13.0627 6.27345C12.9334 6.27345 12.8053 6.24941 12.6859 6.2027C12.5664 6.156 12.4579 6.08754 12.3664 6.00124L11.4875 5.18094V9.93495C11.4875 10.923 11.9023 11.8738 12.643 12.573L16.7116 16.4134C16.803 16.4997 16.8756 16.6022 16.9251 16.715C16.9745 16.8277 17 16.9486 17 17.0706C17 17.1927 16.9745 17.3135 16.9251 17.4263C16.8756 17.539 16.803 17.6415 16.7116 17.7278C16.6202 17.8141 16.5117 17.8825 16.3922 17.9293C16.2727 17.976 16.1447 18 16.0154 18C15.8861 18 15.7581 17.976 15.6386 17.9293C15.5192 17.8825 15.4106 17.8141 15.3192 17.7278L10.5 13.1789L5.68081 17.7278C5.49616 17.9021 5.24573 18 4.9846 18C4.72347 18 4.47303 17.9021 4.28838 17.7278C4.10373 17.5535 4 17.3171 4 17.0706C4 16.8241 4.10373 16.5877 4.28838 16.4134L8.35704 12.573C9.0977 11.8738 9.51246 10.923 9.51246 9.93495V5.18094L8.64343 6.00124C8.55207 6.08765 8.44355 6.15621 8.32408 6.20299C8.20462 6.24976 8.07655 6.27384 7.94721 6.27384C7.81788 6.27384 7.68981 6.24976 7.57034 6.20299C7.45088 6.15621 7.34236 6.08765 7.251 6.00124Z" fill="#2B345F"/>
</svg>
