<svg width="25" height="25" viewBox="0 0 25 25" fill="none" xmlns="http://www.w3.org/2000/svg">
        <path d="M5.47927 5.83716C4.51631 7.15329 3.99927 8.72812 4 10.3428V17.1143L0.382938 19.4568C0.144156 19.6114 0 19.8765 0 20.161C0 20.6244 0.375639 21 0.839012 21H23.2866C23.6806 21 24 20.6806 24 20.2866C24 19.9238 23.8161 19.5857 23.5116 19.3885L20 17.1143V10.3428C20.0017 8.72969 19.4866 7.15602 18.5262 5.84007C17.5657 4.52413 16.2075 3.53113 14.64 2.99879C14.7008 2.62876 14.6782 2.25031 14.5739 1.88957C14.4695 1.52882 14.2858 1.19437 14.0355 0.909281C13.7851 0.624195 13.4741 0.395262 13.1238 0.238279C12.7736 0.081296 12.3924 0 12.0067 0C11.6209 0 11.2398 0.081296 10.8895 0.238279C10.5393 0.395262 10.2282 0.624195 9.97788 0.909281C9.72754 1.19437 9.54384 1.52882 9.43947 1.88957C9.3351 2.25031 9.31253 2.62876 9.37333 2.99879C7.80329 3.52896 6.44223 4.52103 5.47927 5.83716Z" fill="#CBDCFF"></path>
        <mask id="mask0_91_1762" style="mask-type:alpha" maskUnits="userSpaceOnUse" x="0" y="17" width="25" height="5">
        <rect y="17" width="25" height="5" fill="#C4C4C4"></rect>
        </mask>
        <g mask="url(#mask0_91_1762)">
        <path d="M5.47927 4.83716C4.51631 6.15329 3.99927 7.72812 4 9.34282V17.1143L0.382938 19.4568C0.144156 19.6114 0 19.8765 0 20.161C0 20.6244 0.375639 21 0.839012 21H23.2866C23.6806 21 24 20.6806 24 20.2866C24 19.9238 23.8161 19.5857 23.5116 19.3885L20 17.1143V9.34282C20.0017 7.72969 19.4866 6.15602 18.5262 4.84007C17.5657 3.52413 16.2075 2.53113 14.64 1.99879C14.7008 1.62876 14.6782 1.25031 14.5739 0.889566C14.4695 0.528821 14.2858 0.194368 14.0355 -0.0907189C13.7851 -0.375805 13.4741 -0.604738 13.1238 -0.761721C12.7736 -0.918704 12.3924 -1 12.0067 -1C11.6209 -1 11.2398 -0.918704 10.8895 -0.761721C10.5393 -0.604738 10.2282 -0.375805 9.97788 -0.0907189C9.72754 0.194368 9.54384 0.528821 9.43947 0.889566C9.3351 1.25031 9.31253 1.62876 9.37333 1.99879C7.80329 2.52896 6.44223 3.52103 5.47927 4.83716Z" fill="#4E89FF"></path>
        </g>
        <path d="M16 22C16 22.394 15.9095 22.7841 15.7336 23.1481C15.5577 23.512 15.2999 23.8427 14.9749 24.1213C14.6499 24.3999 14.264 24.6209 13.8394 24.7716C13.4148 24.9224 12.9596 25 12.5 25C12.0404 25 11.5852 24.9224 11.1606 24.7716C10.736 24.6209 10.3501 24.3999 10.0251 24.1213C9.70012 23.8427 9.44231 23.512 9.26642 23.1481C9.09053 22.7841 9 22.394 9 22L12.5 22H16Z" fill="#CBDCFF"></path>
</svg>