<svg width="17" height="22" viewBox="0 0 17 22" fill="none" xmlns="http://www.w3.org/2000/svg">
<path d="M10.5819 10.1493L6.31516 4.03333H13.0559V5.47067C13.0559 6.27733 13.7013 6.93733 14.4901 6.93733H15.5658C16.3618 6.93733 17 6.27733 17 5.47067V1.46667C17 0.66 16.3618 0 15.5658 0H1.43885C0.893851 0 0.406221 0.308 0.162406 0.799333C-0.0885805 1.28333 -0.0455543 1.87 0.269971 2.31733L6.33667 11H10.8508C10.8508 10.7012 10.7612 10.4023 10.5819 10.1493Z" fill="#3698FF"/>
<path d="M15.5658 15.0627H14.4901C13.7013 15.0627 13.0559 15.7227 13.0559 16.5293V17.9667H6.31516L10.5819 11.8507C10.7612 11.5977 10.8508 11.2988 10.8508 11H6.33667L0.269971 19.6827C-0.0455543 20.13 -0.0885805 20.7167 0.162406 21.2007C0.406221 21.692 0.893851 22 1.43885 22H15.5658C16.3618 22 17 21.34 17 20.5333V16.5293C17 15.7227 16.3618 15.0627 15.5658 15.0627Z" fill="#80BEFF"/>
</svg>
