<svg xmlns="http://www.w3.org/2000/svg" width="13.795" height="16.627" viewBox="0 0 13.795 16.627">
    <g transform="translate(-314.75 -2984)">
        <path fill="#b0c5e3" stroke="#b0c5e3" stroke-width="0.5px" d="M84.175 71.478a.74.74 0 0 0-.184-.012H71.5a.876.876 0 0 0-.169.008.277.277 0 0 0-.234.284.274.274 0 0 0 .219.3.939.939 0 0 0 .219.017h5.81l-.9 1.24q-.8 1.1-1.592 2.194a.288.288 0 0 0 .073.45.36.36 0 0 0 .47-.112c.074-.1.144-.2.214-.295.707-.972 1.415-1.942 2.135-2.933l.133.178 2.2 3.017a.366.366 0 0 0 .49.144.3.3 0 0 0 .06-.481q-1.237-1.7-2.479-3.4h5.813a.84.84 0 0 0 .234-.022.27.27 0 0 0 .2-.291.266.266 0 0 0-.221-.286z" transform="translate(243.906 2924.357)"/>
        <rect width="13" height="10" fill="#dce4ee" rx="1" transform="translate(315 2984)"/>
    </g>
</svg>
