<svg width="16" height="14" viewBox="0 0 16 14" fill="none" xmlns="http://www.w3.org/2000/svg">
															<path d="M8.63273 9.149L6.78545 7.392L6.80727 7.371C8.03938 6.05297 8.95992 4.49348 9.50546 2.8H11.6364V1.4H6.54545V0H5.09091V1.4H0V2.793H8.12364C7.63636 4.144 6.86545 5.425 5.81818 6.545C5.14182 5.824 4.58182 5.033 4.13818 4.2H2.68364C3.21455 5.341 3.94182 6.419 4.85091 7.392L1.14909 10.906L2.18182 11.9L5.81818 8.4L8.08 10.577L8.63273 9.149ZM12.7273 5.6H11.2727L8 14H9.45455L10.2691 11.9H13.7236L14.5455 14H16L12.7273 5.6ZM10.8218 10.5L12 7.469L13.1782 10.5H10.8218Z" fill="#797B87"></path>
														</svg>