<svg width="10" height="12" viewBox="0 0 10 12" fill="none" xmlns="http://www.w3.org/2000/svg">
<path d="M8.75 2.75L8.44 7.7625C8.361 9.043 8.3215 9.6835 8 10.144C7.84129 10.3716 7.63696 10.5637 7.4 10.708C6.9215 11 6.28 11 4.997 11C3.712 11 3.0695 11 2.59 10.7075C2.35294 10.5629 2.14861 10.3704 1.99 10.1425C1.669 9.6815 1.63 9.04 1.553 7.7575L1.25 2.75M0.5 2.75H9.5M7.028 2.75L6.6865 2.046C6.46 1.578 6.3465 1.3445 6.151 1.1985C6.10757 1.16616 6.06159 1.1374 6.0135 1.1125C5.797 1 5.537 1 5.0175 1C4.4845 1 4.218 1 3.9975 1.117C3.94876 1.14311 3.90227 1.17321 3.8585 1.207C3.661 1.3585 3.5505 1.601 3.3295 2.0855L3.0265 2.75M3.75 8.25V5.25M6.25 8.25V5.25" stroke="#E74E4E" stroke-width="0.625" stroke-linecap="round" stroke-linejoin="round"/>
</svg>
