<svg xmlns="http://www.w3.org/2000/svg" width="10.616" height="12.827">
    <defs>
        <style>
            .cls-1{fill:#1ac596}
        </style>
    </defs>
    <g id="Group_6837" data-name="Group 6837" transform="translate(-26 -21)">
        <path id="Path_13931" data-name="Path 13931" class="cls-1" d="M36.616 53.1a3.1 3.1 0 0 0-3.1-3.1H29.1a3.1 3.1 0 0 0-3.1 3.1v3.317h10.616zm-.885 2.433h-8.846V53.1a2.214 2.214 0 0 1 2.215-2.215h4.42a2.214 2.214 0 0 1 2.211 2.215z" transform="translate(0 -22.586)"/>
        <path id="Path_13932" data-name="Path 13932" class="cls-1" d="M39.486 26.971a2.986 2.986 0 1 0-2.986-2.985 2.989 2.989 0 0 0 2.986 2.985zm0-5.087a2.1 2.1 0 1 1-2.1 2.1 2.1 2.1 0 0 1 2.1-2.099z" transform="translate(-8.178)"/>
    </g>
</svg>
