<svg width="165" height="104" viewBox="0 0 165 104" fill="none" xmlns="http://www.w3.org/2000/svg">
<path d="M73.8166 0.11084H0.0449219V38.8463H73.8166V0.11084Z" fill="#E0E4FF"/>
<path d="M73.7716 0.0507812H0V4.54129H73.7716V0.0507812Z" fill="#C8CFFF"/>
<path d="M72.4364 6.3623H1.71387V36.8046H72.4364V6.3623Z" fill="#F9F9FC"/>
<path d="M6.99087 3.02714C7.40111 3.02714 7.73369 2.69457 7.73369 2.28432C7.73369 1.87408 7.40111 1.5415 6.99087 1.5415C6.58062 1.5415 6.24805 1.87408 6.24805 2.28432C6.24805 2.69457 6.58062 3.02714 6.99087 3.02714Z" fill="white"/>
<path d="M9.8102 3.02714C10.2204 3.02714 10.553 2.69457 10.553 2.28432C10.553 1.87408 10.2204 1.5415 9.8102 1.5415C9.39995 1.5415 9.06738 1.87408 9.06738 2.28432C9.06738 2.69457 9.39995 3.02714 9.8102 3.02714Z" fill="white"/>
<path d="M4.16372 3.02714C4.57397 3.02714 4.90654 2.69457 4.90654 2.28432C4.90654 1.87408 4.57397 1.5415 4.16372 1.5415C3.75347 1.5415 3.4209 1.87408 3.4209 2.28432C3.4209 2.69457 3.75347 3.02714 4.16372 3.02714Z" fill="white"/>
<path d="M58.24 15.2827H17.5723V17.0952H58.24V15.2827Z" fill="#F2F2F2"/>
<path d="M32.0722 19.814H17.5723V21.6265H32.0722V19.814Z" fill="#F2F2F2"/>
<path d="M46.4589 24.3452H17.5723V26.1577H46.4589V24.3452Z" fill="#F2F2F2"/>
<path d="M86.1716 50.8413H16.748V87.2937H86.1716V50.8413Z" fill="#E0E4FF"/>
<path d="M86.1286 50.7852H16.7051V55.011H86.1286V50.7852Z" fill="#C8CFFF"/>
<path d="M84.8722 56.4805H18.2119V85.4377H84.8722V56.4805Z" fill="#F9F9FC"/>
<path d="M23.285 53.5861C23.671 53.5861 23.984 53.2731 23.984 52.887C23.984 52.501 23.671 52.188 23.285 52.188C22.8989 52.188 22.5859 52.501 22.5859 52.887C22.5859 53.2731 22.8989 53.5861 23.285 53.5861Z" fill="white"/>
<path d="M25.9383 53.5861C26.3244 53.5861 26.6373 53.2731 26.6373 52.887C26.6373 52.501 26.3244 52.188 25.9383 52.188C25.5522 52.188 25.2393 52.501 25.2393 52.887C25.2393 53.2731 25.5522 53.5861 25.9383 53.5861Z" fill="white"/>
<path d="M20.6238 53.5861C21.0099 53.5861 21.3229 53.2731 21.3229 52.887C21.3229 52.501 21.0099 52.188 20.6238 52.188C20.2378 52.188 19.9248 52.501 19.9248 52.887C19.9248 53.2731 20.2378 53.5861 20.6238 53.5861Z" fill="white"/>
<path d="M132.517 16.0259H50.1689V59.2647H132.517V16.0259Z" fill="#E0E4FF"/>
<path d="M132.467 15.9595H50.1182V20.9721H132.467V15.9595Z" fill="#6C63FF"/>
<path d="M130.536 22.5112H52.0176V56.8516H130.536V22.5112Z" fill="#F9F9FC"/>
<path d="M97.5001 24C95.6212 24 93.7844 23.4429 92.2221 22.399C90.6599 21.3551 89.4422 19.8714 88.7232 18.1355C88.0041 16.3997 87.816 14.4895 88.1825 12.6467C88.5491 10.8039 89.4539 9.11112 90.7825 7.78251C92.1111 6.45391 93.8038 5.54911 95.6466 5.18255C97.4894 4.81598 99.3996 5.00411 101.135 5.72314C102.871 6.44217 104.355 7.65981 105.399 9.22208C106.443 10.7844 107 12.6211 107 14.5C106.997 17.0187 105.995 19.4334 104.214 21.2143C102.433 22.9953 100.019 23.9971 97.5001 24Z" fill="#79A6FF"/>
<path d="M97.5 10V19" stroke="white" stroke-linecap="round"/>
<path d="M102 14.5L93 14.5" stroke="white" stroke-linecap="round"/>
<path d="M57.922 19.2819C58.3799 19.2819 58.7511 18.9107 58.7511 18.4527C58.7511 17.9948 58.3799 17.6235 57.922 17.6235C57.464 17.6235 57.0928 17.9948 57.0928 18.4527C57.0928 18.9107 57.464 19.2819 57.922 19.2819Z" fill="white"/>
<path d="M61.0694 19.2819C61.5274 19.2819 61.8986 18.9107 61.8986 18.4527C61.8986 17.9948 61.5274 17.6235 61.0694 17.6235C60.6115 17.6235 60.2402 17.9948 60.2402 18.4527C60.2402 18.9107 60.6115 19.2819 61.0694 19.2819Z" fill="white"/>
<path d="M54.7657 19.2819C55.2236 19.2819 55.5949 18.9107 55.5949 18.4527C55.5949 17.9948 55.2236 17.6235 54.7657 17.6235C54.3078 17.6235 53.9365 17.9948 53.9365 18.4527C53.9365 18.9107 54.3078 19.2819 54.7657 19.2819Z" fill="white"/>
<path d="M121.419 31.3535H61.2158V34.0367H121.419V31.3535Z" fill="#E6E6E6"/>
<path d="M82.6811 38.0615H61.2158V40.7447H82.6811V38.0615Z" fill="#E6E6E6"/>
<path d="M103.979 44.7695H61.2158V47.4527H103.979V44.7695Z" fill="#E6E6E6"/>
<path d="M75.7767 65.0747H30.3809V67.0979H75.7767V65.0747Z" fill="#F2F2F2"/>
<path d="M46.5666 70.1323H30.3809V72.1556H46.5666V70.1323Z" fill="#F2F2F2"/>
<path d="M62.6259 75.1904H30.3809V77.2137H62.6259V75.1904Z" fill="#F2F2F2"/>
<path d="M96.496 16.1378C96.597 16.4891 96.7738 16.8139 97.0139 17.0895C97.2541 17.3651 97.5517 17.5847 97.8859 17.7328C98.2201 17.8809 98.5827 17.9539 98.9482 17.9468C99.3136 17.9396 99.6731 17.8523 100.001 17.6912L106.316 23.9421L107.221 19.4144L101.086 14.1725C100.779 13.6393 100.286 13.2372 99.7025 13.0426C99.1187 12.848 98.4837 12.8743 97.918 13.1165C97.3522 13.3587 96.895 13.8001 96.6329 14.3569C96.3708 14.9138 96.3221 15.5474 96.496 16.1378Z" fill="#A0616A"/>
<path d="M144.62 55.576C144.861 55.3012 145.039 54.9768 145.141 54.6258C145.243 54.2748 145.267 53.9057 145.211 53.5445C145.155 53.1833 145.02 52.8387 144.817 52.5351C144.613 52.2315 144.345 51.9762 144.032 51.7873L145.879 43.0957L141.58 44.7812L140.486 52.7765C140.203 53.3232 140.131 53.9546 140.283 54.551C140.435 55.1474 140.8 55.6674 141.309 56.0125C141.819 56.3576 142.437 56.5038 143.048 56.4233C143.658 56.3429 144.217 56.0414 144.62 55.576Z" fill="#A0616A"/>
<path d="M123.816 100.874H120.768L119.317 89.1152L123.817 89.1154L123.816 100.874Z" fill="#A0616A"/>
<path d="M124.593 103.828L114.764 103.828V103.704C114.764 103.201 114.863 102.704 115.055 102.24C115.247 101.775 115.529 101.354 115.884 100.998C116.239 100.643 116.661 100.361 117.125 100.169C117.59 99.9769 118.087 99.8779 118.59 99.8779H118.59L124.593 99.8782L124.593 103.828Z" fill="#2F2E41"/>
<path d="M138.735 100.874H135.687L134.236 89.1152L138.735 89.1154L138.735 100.874Z" fill="#A0616A"/>
<path d="M139.513 103.828L129.684 103.828V103.704C129.684 103.201 129.783 102.704 129.975 102.24C130.167 101.775 130.449 101.354 130.804 100.998C131.159 100.643 131.581 100.361 132.045 100.169C132.51 99.9769 133.007 99.8779 133.509 99.8779H133.51L139.513 99.8782L139.513 103.828Z" fill="#2F2E41"/>
<path d="M124.134 94.7336L119.819 94.561C119.525 94.5483 119.247 94.4204 119.046 94.2048C118.846 93.9892 118.737 93.7033 118.746 93.4088L119.961 53.5304L120.041 53.5018C127.604 50.7659 133.86 50.9728 139.168 54.1334L139.228 54.1688L139.956 93.0086C139.959 93.1573 139.932 93.3051 139.877 93.4433C139.822 93.5815 139.74 93.7073 139.636 93.8135C139.532 93.9196 139.408 94.004 139.27 94.0615C139.133 94.1191 138.986 94.1487 138.837 94.1487H135.199C134.939 94.1482 134.688 94.058 134.488 93.8934C134.288 93.7287 134.151 93.4998 134.101 93.2456L129.144 68.0301C129.127 67.943 129.079 67.8648 129.009 67.8096C128.94 67.7545 128.853 67.726 128.764 67.7293C128.675 67.7325 128.591 67.7674 128.525 67.8275C128.46 67.8877 128.418 67.9692 128.408 68.0573L125.29 93.7505C125.256 94.0214 125.124 94.2706 124.92 94.4516C124.715 94.6326 124.452 94.7331 124.179 94.7344C124.164 94.7344 124.149 94.7341 124.134 94.7336Z" fill="#2F2E41"/>
<path d="M131.261 17.81C134.221 16.1922 135.309 12.4815 133.691 9.52194C132.073 6.56241 128.362 5.47475 125.403 7.0926C122.443 8.71045 121.355 12.4211 122.973 15.3807C124.591 18.3402 128.302 19.4279 131.261 17.81Z" fill="#A0616A"/>
<path d="M101.199 18.5261C101.297 18.3204 101.455 18.1494 101.653 18.0359L103.494 16.9783C103.694 16.8643 103.924 16.8143 104.153 16.8352C104.382 16.8561 104.599 16.9468 104.775 17.095L110.894 22.2792L124.959 26.2226C125.388 26.4235 125.773 26.7071 126.092 27.057C126.412 27.4069 126.659 27.8163 126.82 28.2617C126.981 28.7072 127.052 29.1801 127.031 29.6532C127.009 30.1264 126.894 30.5906 126.692 31.0193C126.491 31.448 126.207 31.8328 125.857 32.1518C125.506 32.4707 125.097 32.7174 124.651 32.8779C124.206 33.0384 123.733 33.1095 123.259 33.0871C122.786 33.0648 122.322 32.9493 121.894 32.7475L112.909 30.7249C110.182 30.1114 107.771 28.5283 106.124 26.2701L101.306 19.6658C101.213 19.5387 101.148 19.3936 101.116 19.2399C101.083 19.0862 101.083 18.9273 101.115 18.7735C101.133 18.688 101.161 18.605 101.199 18.5261Z" fill="#3F3D56"/>
<path d="M144.359 49.9493C144.145 50.0265 143.912 50.0365 143.692 49.9781L141.64 49.4323C141.418 49.3727 141.219 49.2463 141.071 49.0702C140.923 48.8942 140.833 48.677 140.813 48.4479L140.117 40.458L132.906 27.7547C132.743 27.31 132.669 26.8375 132.689 26.3642C132.708 25.891 132.821 25.4262 133.02 24.9966C133.22 24.5669 133.502 24.1808 133.851 23.8602C134.199 23.5396 134.608 23.2909 135.053 23.1283C135.497 22.9657 135.97 22.8923 136.443 22.9124C136.916 22.9326 137.381 23.0457 137.811 23.2455C138.24 23.4453 138.626 23.7278 138.946 24.0768C139.266 24.4258 139.515 24.8345 139.677 25.2796L144.633 33.0417C146.137 35.3974 146.735 38.2193 146.314 40.9826L145.086 49.0649C145.062 49.2203 145.006 49.3689 144.921 49.5012C144.836 49.6335 144.724 49.7464 144.593 49.8326C144.52 49.8806 144.442 49.9197 144.359 49.9493Z" fill="#3F3D56"/>
<path d="M121.653 23.297C122.702 22.1467 123.996 21.2465 125.439 20.663C126.882 20.0794 128.438 19.8274 129.992 19.9254C130.094 19.9317 130.196 19.9389 130.297 19.9468H130.297C131.77 20.0632 133.2 20.4927 134.494 21.2065C135.787 21.9203 136.913 22.902 137.796 24.086C138.694 25.2864 139.326 26.6648 139.649 28.129C139.971 29.5931 139.978 31.1092 139.667 32.576C138.483 38.1816 138.783 43.9992 140.537 49.4535L142.175 54.5406C142.228 54.7036 142.242 54.8765 142.217 55.0459C142.192 55.2154 142.129 55.3769 142.032 55.5179C141.935 55.659 141.807 55.7759 141.657 55.8596C141.508 55.9433 141.341 55.9916 141.17 56.0007L132.794 56.451L130.651 52.7487V56.5663L120.471 57.1136C120.451 57.1148 120.43 57.1153 120.41 57.1153C120.256 57.1152 120.103 57.0832 119.962 57.0212C119.82 56.9591 119.693 56.8685 119.588 56.755C119.484 56.6414 119.403 56.5074 119.353 56.3614C119.303 56.2153 119.283 56.0605 119.295 55.9065L120.446 41.6384L119.003 31.9479C118.769 30.3995 118.886 28.8185 119.345 27.3213C119.803 25.8241 120.592 24.4489 121.653 23.297Z" fill="#3F3D56"/>
<path d="M132.577 18.2811C132.011 18.6065 129.776 18.8222 129.617 18.1896L129.614 18.1757C129.503 17.7121 129.595 17.2281 129.627 16.7526C129.658 16.2771 129.612 15.7547 129.288 15.4051C128.684 14.7533 127.61 15.0988 126.737 14.934C126.226 14.8199 125.774 14.5233 125.465 14.0999C125.157 13.6764 125.013 13.155 125.061 12.6333C125.074 12.5345 125.093 12.4355 125.115 12.3366C125.17 12.0861 125.166 11.8263 125.103 11.5776C125.04 11.329 124.921 11.0982 124.754 10.9035C124.587 10.7088 124.377 10.5555 124.141 10.4555C123.905 10.3555 123.649 10.3116 123.393 10.3272C122.511 10.3776 121.558 10.6449 120.828 9.99149C120.264 9.48617 120.126 8.17078 120.374 7.45492C120.791 6.25187 123.461 5.62205 124.627 5.27582C126.068 4.85926 127.585 4.7692 129.066 5.01219C130.547 5.25519 131.955 5.82513 133.188 6.68059C133.924 7.19958 134.612 7.85169 134.925 8.69609C135.239 9.54049 135.088 10.6058 134.38 11.1632C134.929 11.744 135.315 12.4587 135.5 13.2358C135.686 14.0129 135.663 14.825 135.436 15.5908C135.086 16.7171 133.418 17.7968 132.577 18.2811Z" fill="#2F2E41"/>
<path d="M164.008 104H93.2852C93.236 104 93.1888 103.98 93.154 103.945C93.1192 103.91 93.0996 103.863 93.0996 103.814C93.0996 103.765 93.1192 103.718 93.154 103.683C93.1888 103.648 93.236 103.628 93.2852 103.628H164.008C164.057 103.628 164.104 103.648 164.139 103.683C164.174 103.718 164.193 103.765 164.193 103.814C164.193 103.863 164.174 103.91 164.139 103.945C164.104 103.98 164.057 104 164.008 104Z" fill="#3F3D56"/>
</svg>
