<svg xmlns="http://www.w3.org/2000/svg" width="15.725" height="15.725" viewBox="0 0 15.725 15.725">
<g id="weight-scale" opacity="0.74">
    <path id="Path_13533" d="M14.343 0H1.382A1.384 1.384 0 0 0 0 1.382v12.961a1.384 1.384 0 0 0 1.382 1.382h12.961a1.384 1.384 0 0 0 1.382-1.382V1.382A1.384 1.384 0 0 0 14.343 0zm.457 14.343a.461.461 0 0 1-.461.461H1.382a.461.461 0 0 1-.461-.461V1.382a.461.461 0 0 1 .461-.461h12.961a.461.461 0 0 1 .461.461zm0 0" style="fill:#f45d5e"></path>
    <path id="Path_13534" d="M87.81 63.77a8.857 8.857 0 0 0-10.626 0 .461.461 0 0 0-.092.645l2.432 3.235a.461.461 0 0 0 .645.092 3.882 3.882 0 0 1 4.657 0 .461.461 0 0 0 .645-.092l2.429-3.234a.461.461 0 0 0-.092-.645zM85 66.747a4.749 4.749 0 0 0-2.039-.679v-1.4a.461.461 0 0 0-.921 0v1.4a4.749 4.749 0 0 0-2.04.679l-1.883-2.506a7.938 7.938 0 0 1 8.767 0zm0 0" style="fill:#f45d5e" transform="translate(-74.635 -59.096)"></path>
</g>
</svg>