<svg xmlns="http://www.w3.org/2000/svg" width="19.073" height="19.074" viewBox="0 0 19.073 19.074">
    <path fill="#6d8fff" d="M18.545 12.674a9.538 9.538 0 0 0 0-6.275.687.687 0 0 0-.03-.086 9.537 9.537 0 0 0-17.951 0 .677.677 0 0 0-.03.086 9.538 9.538 0 0 0 0 6.275.687.687 0 0 0 .03.086 9.537 9.537 0 0 0 17.951 0 .682.682 0 0 0 .03-.086zm-9.006 5.033c-.363 0-.949-.657-1.438-2.126a14.971 14.971 0 0 1-.563-2.409h4a14.984 14.984 0 0 1-.563 2.409c-.488 1.468-1.075 2.126-1.436 2.126zM7.371 11.8c-.066-.729-.1-1.489-.1-2.268s.035-1.539.1-2.268h4.334c.066.729.1 1.489.1 2.268s-.035 1.539-.1 2.268zm-6-2.268a8.146 8.146 0 0 1 .32-2.268H6c-.064.744-.1 1.506-.1 2.268s.032 1.524.1 2.268H1.689a8.147 8.147 0 0 1-.32-2.263zm8.17-8.17c.363 0 .949.657 1.438 2.126A14.973 14.973 0 0 1 11.54 5.9h-4a14.97 14.97 0 0 1 .56-2.407c.49-1.469 1.076-2.126 1.439-2.126zm3.538 5.9h4.311a8.184 8.184 0 0 1 0 4.535h-4.313c.064-.744.1-1.506.1-2.268s-.036-1.516-.1-2.26zM16.854 5.9H12.92a13.12 13.12 0 0 0-1.246-4.251 8.205 8.205 0 0 1 5.18 4.251zM7.4 1.651A13.12 13.12 0 0 0 6.157 5.9H2.224A8.206 8.206 0 0 1 7.4 1.651zm-5.176 11.52h3.933A13.121 13.121 0 0 0 7.4 17.423a8.205 8.205 0 0 1-5.176-4.252zm9.451 4.251a13.12 13.12 0 0 0 1.246-4.251h3.934a8.205 8.205 0 0 1-5.18 4.252z" transform="translate(-.002)"/>
</svg>
